<?xml version="1.0" encoding="UTF-8"?>
<svg xmlns="http://www.w3.org/2000/svg" xmlns:xlink="http://www.w3.org/1999/xlink" width="2000" height="1200">
	<rect width="2000" height="1200" fill="#fff"/>
	<rect width="2000" height="435" fill="#db000d"/>
	<path id="w" d="M -100,500 q 100,-80 200,0 t 200,0 t 200,0 t 200,0 t 200,0 t 200,0 t 200,0 t 200,0 t 200,0 t 200,0 t 200,0 t 200,0 v 150 q -100,80 -200,0 t -200,0 t -200,0 t -200,0 t -200,0 t -200,0 t -200,0 t -200,0 t -200,0 t -200,0 t -200,0 t -200,0 z" fill="#003f87"/>
	<use xlink:href="#w" y="300"/>
	<use xlink:href="#w" y="600"/>
	<g fill="#f9d90f" stroke="#000" stroke-width="4" stroke-linecap="round" stroke-linejoin="round">
		<path d="M 893.633,259.4804 c 93.8228,-45.3934 164.2208,-23.0307 234.3554,0 10.5583,27.9421 30.4074,55.4619 31.3147,83.8427 -115.5973,48.1239 -213.6409,38.3694 -300.0153,0 -1.8032,-22.7624 6.5732,-55.8888 34.3452,-83.8427 z"/>
		<path d="M 893.633,259.4804 c 93.8228,-45.3934 164.2208,-23.0307 234.3554,0 10.5583,27.9421 30.4074,55.4619 31.3147,83.8427 -94.9287,-35.535 -194.319,-39.8386 -300.0153,0 -1.8032,-22.7624 6.5732,-55.8888 34.3452,-83.8427 z"/>
		<path d="M 965.987,236.5514 c 16.5996,-29.9688 25.6226,-36.8331 27.4321,-97.5461 -65.2882,33.3175 -70.105,-86.5593 -3.5542,-46.1374 -25.671,-32.4653 -3.7424,-52.7004 18.2495,-52.1013 20.742,.565 44.0831,15.3186 18.1989,52.7982 53.5461,-49.4288 76.9515,81.7802 -3.9724,44.3951 -3.685,57.9977 8.898,79.7353 26.7711,100.1428 l -42.591,58.8988 z"/>
		<circle cx="1007.4463" cy="241.4495" r="16.9356" fill="#000"/>
		<path d="M 1210.5716,151.8813 c 97.3001,-17.6599 -16.9199,-114.1027 -26.2736,-30.3866 -30.8512,-24.7582 -52.9067,-2.8414 -54.299,17.6451 -1.3234,19.4731 28.9218,43.9059 48.7237,22.7774 -6.9341,29.2782 -5.6801,56.8506 -56.2931,95.2286 0,0 36.5008,78.6579 35.8736,75.661 -.6272,-2.9968 52.2684,-180.9255 52.2684,-180.9255 z"/>
		<path d="M 1171.4329,255.2252 c 2.9325,0 5.6885,.751 8.0938,2.0625 -3.3067,11.3282 -6.3563,21.8118 -9.2188,31.75 -8.8223,-.5857 -15.8125,-7.9044 -15.8125,-16.875 0,-9.3533 7.5842,-16.9375 16.9375,-16.9375 z" fill="#000"/>
		<path d="M 805.8664,151.8813 c -97.3001,-17.6599 16.9199,-114.1027 26.2736,-30.3866 30.8512,-24.7582 52.9067,-2.8414 54.299,17.6451 1.3234,19.4731 -28.9218,43.9059 -48.7237,22.7774 6.9341,29.2782 5.6801,56.8506 56.2931,95.2286 0,0 -36.5008,78.6579 -35.8736,75.661 .6272,-2.9968 -52.2684,-180.9255 -52.2684,-180.9255 z"/>
		<path d="M 845.0051,255.2252 c -2.9325,0 -5.6885,.751 -8.0938,2.0625 3.3067,11.3282 6.3563,21.8118 9.2188,31.75 8.8223,-.5857 15.8125,-7.9044 15.8125,-16.875 0,-9.3533 -7.5842,-16.9375 -16.9375,-16.9375 z" fill="#000"/>
	</g>
</svg>