<?xml version="1.0" encoding="UTF-8" standalone="no"?>
<svg
   xmlns:dc="http://purl.org/dc/elements/1.1/"
   xmlns:cc="http://creativecommons.org/ns#"
   xmlns:rdf="http://www.w3.org/1999/02/22-rdf-syntax-ns#"
   xmlns:svg="http://www.w3.org/2000/svg"
   xmlns="http://www.w3.org/2000/svg"
   xml:space="preserve"
   enable-background="new 30.5 31.5 412 533"
   viewBox="30.5 31.5 420 500"
   height="500"
   width="420"
   y="0"
   x="0"
   version="1.1"
   id="svg2"><metadata
     id="metadata4"><rdf:RDF><cc:Work
         rdf:about=""><dc:format>
          
          
          
          
          image/svg+xml
        
        
        
        
        </dc:format><dc:type
           rdf:resource="http://purl.org/dc/dcmitype/StillImage" /><dc:title></dc:title></cc:Work></rdf:RDF></metadata><defs
     id="defs6" /><path
     style="fill:#32ac60;fill-opacity:1;fill-rule:evenodd"
     d="m 40.999986,32.7 c -2.09,102.46 3.38,187.49 43.93,296.59 28.050004,75.48 74.210004,144.77 155.570004,201.59 81.36,-56.82 127.52,-126.11 155.56999,-201.59 40.55,-109.1 46.02,-194.13 43.93,-296.59 -132.99999,0.29 -265.99999,0 -398.999994,0 z"
     id="path4218" /><path
     style="fill:#ffe000;fill-opacity:1;fill-rule:evenodd;stroke:none;stroke-width:1px;stroke-linecap:butt;stroke-linejoin:miter;stroke-opacity:1"
     d="M 89.494466,341.12301 439.96565,32.757064 l -398.900074,-2e-6 c -3.4462,109.630668 7.23849,205.739148 48.42889,308.365948 z"
     id="path4829" /><path
     style="fill:none;stroke:#000000"
     id="path4224"
     d="m 40.999986,32.7 c -2.09,102.46 3.38,187.49 43.93,296.59 28.050004,75.48 74.210004,144.77 155.570004,201.59 81.36,-56.82 127.52,-126.11 155.56999,-201.59 40.55,-109.1 46.02,-194.13 43.93,-296.59 -132.99999,0.29 -265.99999,0 -398.999994,0 z" /><path
     style="fill:#ffe000;fill-opacity:1;fill-rule:evenodd;stroke:#000000;stroke-width:1;stroke-linecap:round;stroke-linejoin:round;stroke-miterlimit:4;stroke-dasharray:none;stroke-opacity:1"
     d="m 275.69905,384.87261 -7.63736,-1.83584 11.86584,-16.02758 c -7.18146,-0.54833 -17.13659,-3.35826 -23.68026,-7.01666 l -19.48499,6.91917 -7.59719,-4.46108 19.55458,-7.41145 c -5.90261,-4.36123 -12.55407,-11.96139 -16.37027,-16.95931 l -23.226,-5.58085 0.57398,-7.09534 18.45094,4.31198 c -3.11261,-6.86273 -5.31904,-16.76099 -5.68343,-23.5243 l -17.13097,-17.96067 3.28816,-5.80494 14.23656,14.30524 c 0.27545,-8.17904 4.03502,-17.01284 7.63814,-24.16782 l -7.16075,-24.33324 6.63077,-0.8124 5.32879,17.6064 c 3.85875,-5.213 12.37514,-13.43622 19.20887,-17.04898 l 3.54701,-23.34838 6.69143,1.32642 -3.20474,18.61724 c 5.15245,-2.54353 17.04493,-5.43466 23.63625,-5.12008 l 15.97568,-17.74905 5.90916,3.0927 -13.27985,15.16349 c 6.6122,0.32424 16.61402,3.58851 23.28752,7.40944 l 22.15584,-9.04016 4.21934,5.32519 -19.31892,8.03989 c 6.77621,4.49968 13.57427,12.60684 16.29174,17.43064 l 27.46791,4.55962 -2.38072,7.25245 -20.65045,-3.36931 c 3.26971,6.78417 5.7118,16.83955 5.44776,24.07418 l 19.48761,14.2686 -2.8954,8.16158 -16.90741,-12.65559 c -0.95231,6.43576 -2.48985,13.25517 -6.30269,20.7114 l 9.12459,23.70482 -6.0809,4.89724 -8.07819,-19.96304 c -3.96937,5.33766 -11.05628,12.62522 -16.61657,15.7921 l -3.7041,23.74116 -7.86975,2.12998 3.12618,-21.05242 c -5.38811,2.82413 -17.51625,6.46515 -24.81456,5.98417 z"
     id="path4300" /><path
     style="fill:none;fill-opacity:1;fill-rule:evenodd;stroke:#000000;stroke-width:1;stroke-linecap:butt;stroke-linejoin:miter;stroke-miterlimit:4;stroke-dasharray:none;stroke-opacity:1"
     d="m 296.8596,303.47875 -10.37624,-10.36012 -10.36008,10.37624 10.37629,10.36013 z"
     id="path4310" /><path
     id="path4355"
     d="m 290.33438,285.31156 0.0803,-28.79877 c 5.84099,0.72196 12.81793,2.01285 19.76262,6.09393 5.49476,3.22902 11.26245,8.66369 15.54626,14.67795 l -24.75268,14.79113 c -2.55095,-3.34008 -6.31614,-5.61418 -10.63653,-6.76424 z"
     style="fill:#32ac60;fill-opacity:1;fill-rule:evenodd;stroke:#000000;stroke-width:1;stroke-linecap:butt;stroke-linejoin:miter;stroke-miterlimit:4;stroke-dasharray:none;stroke-opacity:1" /><path
     style="fill:#32ac60;fill-opacity:1;fill-rule:evenodd;stroke:#000000;stroke-width:1;stroke-linecap:butt;stroke-linejoin:miter;stroke-miterlimit:4;stroke-dasharray:none;stroke-opacity:1"
     d="m 284.17822,256.40511 c -5.80109,0.4149 -13.32016,1.78989 -20.36081,5.7031 -5.57069,3.09619 -12.1205,8.69974 -16.04881,14.54988 l 24.59922,14.88915 c 3.3595,-3.77317 7.7628,-5.9995 12.11667,-6.43846 z"
     id="path4747" /><path
     style="fill:#32ac60;fill-opacity:1;fill-rule:evenodd;stroke:#000000;stroke-width:1;stroke-linecap:butt;stroke-linejoin:miter;stroke-miterlimit:4;stroke-dasharray:none;stroke-opacity:1"
     d="m 283.32335,350.56919 c -5.51713,-0.36339 -12.90544,-1.94494 -19.90589,-5.92961 -5.53888,-3.15273 -11.15133,-8.06743 -15.74083,-14.24177 l 24.47563,-15.33712 c 2.88495,3.80345 7.61125,6.03877 11.37695,6.6806 z"
     id="path4749" /><path
     id="path4751"
     d="m 290.06061,350.53509 c 6.45456,-0.54115 13.34158,-2.4089 20.27695,-6.42918 5.51387,-3.19627 11.39888,-8.57501 15.02215,-14.04375 L 301.03995,314.7759 c -2.3196,3.53728 -7.82652,6.5274 -11.63359,6.9584 z"
     style="fill:#32ac60;fill-opacity:1;fill-rule:evenodd;stroke:#000000;stroke-width:1;stroke-linecap:butt;stroke-linejoin:miter;stroke-miterlimit:4;stroke-dasharray:none;stroke-opacity:1" /><path
     id="path4753"
     d="m 244.20613,324.89106 c -2.28913,-5.42202 -4.92604,-13.29139 -4.85496,-21.34615 0.0562,-6.37303 1.51707,-14.57267 5.05616,-21.40279 l 24.95702,14.51472 c -1.76862,3.7278 -1.99037,8.84251 -0.26189,13.25787 z"
     style="fill:#32ac60;fill-opacity:1;fill-rule:evenodd;stroke:#000000;stroke-width:1;stroke-linecap:butt;stroke-linejoin:miter;stroke-miterlimit:4;stroke-dasharray:none;stroke-opacity:1" /><path
     style="fill:#32ac60;fill-opacity:1;fill-rule:evenodd;stroke:#000000;stroke-width:1;stroke-linecap:butt;stroke-linejoin:miter;stroke-miterlimit:4;stroke-dasharray:none;stroke-opacity:1"
     d="m 328.49696,324.96368 c 2.46792,-5.06528 4.89114,-11.97293 5.08758,-20.0256 0.15545,-6.37139 -1.23395,-15.61729 -4.87599,-22.37789 l -24.78829,14.71853 c 1.67024,4.40727 1.08225,10.15687 -0.33543,13.34795 z"
     id="path4755" /><path
     id="path4757"
     d="M 89.494466,341.12301 439.96565,32.757064"
     style="fill:none;fill-rule:evenodd;stroke:#000000;stroke-width:1px;stroke-linecap:butt;stroke-linejoin:miter;stroke-opacity:1" /><path
     id="path4785"
     d="m 148.99999,185.62425 0,6.87575 -2.5,0 0,8 -2.5,0 0,8 20.21244,0 20.21244,0 0,-8 -2.5,0 0,-8 -2.5,0 0,-6.87575"
     style="fill:#32ac60;fill-opacity:1;fill-rule:evenodd;stroke:#000000;stroke-width:1px;stroke-linecap:butt;stroke-linejoin:miter;stroke-opacity:1" /><path
     id="path4761"
     d="m 117.99948,185.6243 c 0,0 2.39632,6.98448 2.31062,11.982 -0.0568,3.3126 3.29036,6.80891 3.52776,10.9723 L 99.987396,208.5 c 0.0546,-3.3603 4.166844,-7.17191 4.000904,-10.39779 -0.24369,-4.73746 0.95786,-8.5764 3.11496,-12.47796 -6.05075,0 -8.948224,0.002 -8.922024,-2.44661 0.0758,-7.09471 4.259154,-10.28058 8.486764,-14.15482 4.35439,-3.99041 5.52809,-7.90569 5.48399,-16.34972 -0.0346,-6.63685 -4.05156,-12.88678 -9.33181,-12.88678 l -17.441594,0 -0.11816,-19.268 -8.15583,6.02235 -7.78609,-8.86612 94.893924,-70.070674 94.89391,70.070674 -7.78609,8.86612 -8.15583,-6.02235 -0.11815,19.268 -17.44159,0 c -5.28025,0 -9.29718,6.24993 -9.33181,12.88678 -0.0441,8.44403 1.1296,12.35931 5.48399,16.34972 4.22761,3.87424 8.41094,7.06011 8.48676,14.15482 0.0262,2.44814 -2.87127,2.44661 -8.92202,2.44661 2.1571,3.90156 3.35865,7.7405 3.11496,12.47796 -0.16594,3.22588 4.0576,7.03749 4.11218,10.39779 l -23.85046,0.0786 c 0.2374,-4.16339 3.47331,-7.6597 3.41648,-10.9723 -0.0857,-4.99752 2.31062,-11.982 2.31062,-11.982 l -46.21295,0 z"
     style="fill:#32ac60;fill-opacity:1;fill-rule:evenodd;stroke:#000000;stroke-width:1px;stroke-linecap:round;stroke-linejoin:round;stroke-opacity:1" /><path
     id="path4795"
     d="m 151.36779,176.89136 0,-36.99395 c 8.56309,0 17.12619,0 25.68928,0 l 0,36.99395 c -8.56309,0 -17.12619,0 -25.68928,0 z"
     style="fill:#ffe000;fill-opacity:1;fill-rule:evenodd;stroke:#000000;stroke-width:1px;stroke-linecap:butt;stroke-linejoin:miter;stroke-opacity:1" /><path
     id="path4801"
     d="m 158.58883,111.67981 0,-21.885308 c 0,-2.392433 2.77733,-4.332622 5.6236,-4.332622 2.84627,0 5.6236,1.940189 5.6236,4.332622 l 0,21.885308 c -3.74907,0 -7.49813,0 -11.2472,0 z"
     style="fill:#ffe000;fill-opacity:1;fill-rule:evenodd;stroke:#000000;stroke-width:1px;stroke-linecap:butt;stroke-linejoin:miter;stroke-opacity:1" /><path
     id="path4809"
     d="m 150.47068,96.227115 0,15.452695 c -2.64713,0 -5.29425,0 -7.94138,0 l 0,-15.452695 c 0,-1.689236 1.961,-3.059157 3.97069,-3.059157 2.00969,0 3.97069,1.369921 3.97069,3.059157 z"
     style="fill:#ffe000;fill-opacity:1;fill-rule:evenodd;stroke:#000000;stroke-width:1;stroke-linecap:butt;stroke-linejoin:miter;stroke-miterlimit:4;stroke-dasharray:none;stroke-opacity:1" /><path
     id="path4823"
     d="m 185.89556,111.67981 0,-15.452695 c 0,-1.689236 -1.961,-3.059157 -3.97069,-3.059157 -2.00969,0 -3.97069,1.369921 -3.97069,3.059157 l 0,15.452695 3.97069,0 z"
     style="fill:#ffe000;fill-opacity:1;fill-rule:evenodd;stroke:#000000;stroke-width:1;stroke-linecap:butt;stroke-linejoin:miter;stroke-miterlimit:4;stroke-dasharray:none;stroke-opacity:1" /><path
     id="path4833"
     d="m 148.99999,192.5 30.42488,0"
     style="fill:none;fill-rule:evenodd;stroke:#000000;stroke-width:1px;stroke-linecap:butt;stroke-linejoin:miter;stroke-opacity:1" /><path
     id="path4835"
     d="m 181.92487,200.5 -35.42488,0"
     style="fill:none;fill-rule:evenodd;stroke:#000000;stroke-width:1px;stroke-linecap:butt;stroke-linejoin:miter;stroke-opacity:1" /><path
     id="path4837"
     d="m 107.10326,185.62425 10.89622,5e-5"
     style="fill:none;fill-rule:evenodd;stroke:#000000;stroke-width:1px;stroke-linecap:butt;stroke-linejoin:miter;stroke-opacity:1" /><path
     id="path4839"
     d="m 210.42538,185.6243 10.89622,-5e-5"
     style="fill:none;fill-rule:evenodd;stroke:#000000;stroke-width:1px;stroke-linecap:butt;stroke-linejoin:miter;stroke-opacity:1" /></svg>