<?xml version="1.0" encoding="UTF-8" standalone="no"?>
<svg
   xmlns:dc="http://purl.org/dc/elements/1.1/"
   xmlns:cc="http://creativecommons.org/ns#"
   xmlns:rdf="http://www.w3.org/1999/02/22-rdf-syntax-ns#"
   xmlns:svg="http://www.w3.org/2000/svg"
   xmlns="http://www.w3.org/2000/svg"
   id="svg2"
   version="1.1"
   x="0"
   y="0"
   width="400"
   height="500"
   viewBox="30.5 31.5 400 500"
   enable-background="new 30.5 31.5 412 533"
   xml:space="preserve"><metadata
     id="metadata4"><rdf:RDF><cc:Work
         rdf:about=""><dc:format>
          
          
          image/svg+xml
        
        
        </dc:format><dc:type
           rdf:resource="http://purl.org/dc/dcmitype/StillImage" /><dc:title></dc:title></cc:Work></rdf:RDF></metadata><defs
     id="defs6" /><path
     style="fill:#ffe000;fill-opacity:1"
     id="path8"
     d="M 230.55,531.13 C 304.87,477.21 355.81,409.11 386.29,322.97 413.93,244.87 425.02,150.22 420.2,33.62 l -0.02,-0.46 -379.82,0 -0.02,0.46 c -4.81,116.6 6.28,211.24 33.91,289.35 30.48,86.14 81.42,154.24 155.74,208.16 l 0.28,0.2 0.28,-0.2 z" /><path
     id="path10"
     d="m 41.04,33.21 c -9.07,219.45 36.25,385.95 189.45,497.1 84.47,-61.29 136.15,-139.41 163.99,-233.97 2.09,-7.09 4.04,-14.27 5.87,-21.54 11.45,-45.69 17.77,-95.02 19.88,-147.94 1.2,-30.06 1.05,-61.28 -0.29,-93.65 l -189.45,0 -189.45,0 m -0.92,-0.95 0.92,0 189.45,0 189.45,0 0.92,0 0.04,0.92 c 4.82,116.66 -6.28,211.36 -33.93,289.52 -30.51,86.24 -81.51,154.41 -155.91,208.39 l -0.56,0.41 -0.56,-0.41 C 155.54,477.11 104.54,408.94 74.03,322.7 46.38,244.54 35.28,149.84 40.1,33.18 l 0.04,-0.92 0,0 z" /><path
     id="path4420"
     d="m 246.43735,81.450819 c 3.15257,12.468081 3.13871,22.732691 8.3764,30.166211 5.80276,8.23549 16.26245,9.37851 25.77889,19.59351 6.26037,6.71991 8.97418,24.91635 -0.76558,32.49387 -9.69419,7.54207 -19.80261,14.86465 -20.1439,21.72148 -0.5483,11.01586 8.31473,20.82384 19.71468,17.70147 10.03019,-2.7472 14.21211,-11.67068 19.09859,-16.9423 14.07632,13.67532 33.55096,34.60674 32.96048,66.53704 -0.41699,22.54903 -9.3495,37.00186 -32.34439,56.06362 -14.20201,11.77284 -37.90163,29.2964 -38.76042,45.34143 -1.27348,23.79273 -2.46418,44.26023 12.42472,44.91484 8.05961,0.35435 12.83665,-1.47852 20.79095,-8.00909 6.02027,14.06725 0.0207,35.70284 -9.31601,43.56151 -6.83867,5.75609 -14.99137,5.15892 -21.18014,2.95282 -7.17973,11.83944 -19.03487,22.10427 -32.57162,22.10427 -13.53675,0 -25.39189,-10.26483 -32.57162,-22.10427 -6.18877,2.2061 -14.34147,2.80327 -21.18014,-2.95282 -9.33671,-7.85867 -15.33628,-29.49426 -9.31601,-43.56151 7.9543,6.53057 12.73134,8.36344 20.79095,8.00909 14.8889,-0.65461 13.6982,-21.12211 12.42472,-44.91484 -0.85879,-16.04503 -24.55841,-33.56859 -38.76042,-45.34143 -22.99489,-19.06176 -31.9274,-33.51459 -32.34439,-56.06362 -0.59048,-31.9303 18.88416,-52.86172 32.96048,-66.53704 4.88648,5.27162 9.0684,14.1951 19.09859,16.9423 11.39995,3.12237 20.26298,-6.68561 19.71468,-17.70147 -0.34129,-6.85683 -10.44971,-14.17941 -20.1439,-21.72148 -9.73976,-7.57752 -7.02595,-25.77396 -0.76558,-32.49387 9.51644,-10.215 19.97613,-11.35802 25.77889,-19.59351 5.23769,-7.43352 5.23162,-17.696163 8.3764,-30.166211 3.37614,-13.38747 10.5012,-24.222765 15.93735,-24.335308 5.34071,-0.110567 12.59489,11.116254 15.93735,24.335308 z"
     style="fill:#000000;fill-rule:evenodd;stroke:#000000;stroke-width:1px;stroke-linecap:butt;stroke-linejoin:miter;stroke-opacity:1" /><circle
     transform="scale(-1,1)"
     r="7.6585493"
     cy="142.9118"
     cx="-230.5"
     id="path4424"
     style="opacity:0.98000004;fill:#ffe000;fill-opacity:1;stroke:#000000;stroke-width:1;stroke-linecap:round;stroke-linejoin:round;stroke-miterlimit:4;stroke-dasharray:none;stroke-opacity:1" /><circle
     transform="scale(-1,1)"
     style="opacity:0.98000004;fill:#ffe000;fill-opacity:1;stroke:#000000;stroke-width:1;stroke-linecap:round;stroke-linejoin:round;stroke-miterlimit:4;stroke-dasharray:none;stroke-opacity:1"
     id="circle4426"
     cx="-230.5"
     cy="426.9118"
     r="7.6585493" /><circle
     transform="scale(-1,1)"
     style="opacity:0.98000004;fill:#ffe000;fill-opacity:1;stroke:#000000;stroke-width:1;stroke-linecap:round;stroke-linejoin:round;stroke-miterlimit:4;stroke-dasharray:none;stroke-opacity:1"
     id="circle4428"
     cx="-161.18625"
     cy="257.91995"
     r="7.6585493" /><circle
     transform="scale(-1,1)"
     r="7.6585493"
     cy="257.91995"
     cx="-299.5"
     id="circle4434"
     style="opacity:0.98000004;fill:#ffe000;fill-opacity:1;stroke:#000000;stroke-width:1;stroke-linecap:round;stroke-linejoin:round;stroke-miterlimit:4;stroke-dasharray:none;stroke-opacity:1" /><path
     id="path4436"
     d="m 250.40805,240.3204 c 0.0445,9.80574 -5.22876,14.91065 -11.60387,17.59956 l 0,24.79322 13.15105,0 c 0.21323,8.22244 -9.59124,17.48315 -21.45523,17.48315 -11.86399,0 -21.66846,-9.26071 -21.45523,-17.48315 l 13.15105,0 0,-24.79322 c -6.37511,-2.68891 -11.64841,-7.79382 -11.60387,-17.59956 0.0406,-8.9298 7.54373,-18.56618 19.90805,-18.56618 12.36432,0 19.86745,9.63638 19.90805,18.56618 z"
     style="fill:#ffe000;fill-opacity:1;fill-rule:evenodd;stroke:#000000;stroke-width:1px;stroke-linecap:butt;stroke-linejoin:miter;stroke-opacity:1" /></svg>