<?xml version="1.0" encoding="UTF-8" standalone="no"?>
<svg
   xmlns:dc="http://purl.org/dc/elements/1.1/"
   xmlns:cc="http://creativecommons.org/ns#"
   xmlns:rdf="http://www.w3.org/1999/02/22-rdf-syntax-ns#"
   xmlns:svg="http://www.w3.org/2000/svg"
   xmlns="http://www.w3.org/2000/svg"
   xml:space="preserve"
   enable-background="new 30.5 31.5 412 533"
   viewBox="30.5 31.5 420 500"
   height="500"
   width="420"
   y="0"
   x="0"
   version="1.1"
   id="svg2"><metadata
     id="metadata4"><rdf:RDF><cc:Work
         rdf:about=""><dc:format>
          
          
          
          
          image/svg+xml
        
        
        
        
        </dc:format><dc:type
           rdf:resource="http://purl.org/dc/dcmitype/StillImage" /><dc:title></dc:title></cc:Work></rdf:RDF></metadata><defs
     id="defs6" /><path
     style="fill:#0085ca;fill-opacity:1;fill-rule:evenodd"
     d="m 440,32.7 c 2.09,102.46 -3.38,187.49 -43.93,296.59 C 368.02,404.77 321.86,474.06 240.5,530.88 159.14,474.06 112.98,404.77 84.93,329.29 44.38,220.19 38.91,135.16 41,32.7 c 133,0.29 266,0 399,0 z"
     id="path4218" /><path
     id="path4610"
     d="m 83.5,32.75 c 0,19.566138 -2e-6,38.210255 -4.96095,48.576281 -5.40372,11.291208 -17.874742,24.980829 -37.019474,29.713369 0.197759,14.3291 1.988057,33.39794 3.383962,49.68449 C 50.665092,172.32568 63.583612,187.33913 83.5,191.5 c 0,18.34326 -6e-6,35.82212 -4.96095,45.54026 -2.988684,5.85462 -8.139231,12.73186 -15.38505,18.4727 -0.373365,0.29582 -1.136775,0.8781 -1.136775,0.8781 6.813822,29.11161 23.87088,76.4418 29.706717,90.06415 20.289218,-4.23876 33.223648,-19.69543 38.815108,-31.37893 C 135.5,304.71026 135.5,286.06614 135.5,266.5 115.21078,262.52616 102.05241,247.99354 96.46095,237.04026 91.5,227.32212 91.5,209.84326 91.5,191.5 111.78922,187.26124 124.94759,171.75978 130.53905,160.07628 135.5,149.71026 135.5,131.06614 135.5,111.5 115.21078,107.26124 102.05241,93.009777 96.46095,81.326281 91.5,70.960256 91.5,52.316138 91.5,32.75"
     style="fill:#ffffff;fill-rule:evenodd;stroke:none;stroke-width:1px;stroke-linecap:butt;stroke-linejoin:miter;stroke-opacity:1" /><path
     style="fill:#ffffff;fill-rule:evenodd;stroke:none;stroke-width:1px;stroke-linecap:butt;stroke-linejoin:miter;stroke-opacity:1"
     d="m 397.5,32.75 c 0,19.566138 0,38.210255 4.96095,48.576281 5.40372,11.291208 17.87474,24.980829 37.01947,29.713369 -0.19776,14.3291 -1.98806,33.39794 -3.38396,49.68449 C 430.3349,172.32568 417.41638,187.33913 397.5,191.5 c 0,18.34326 0,35.82212 4.96095,45.54026 2.98868,5.85462 8.13923,12.73186 15.38505,18.4727 0.37336,0.29582 1.13677,0.8781 1.13677,0.8781 -6.81382,29.11161 -23.87088,76.4418 -29.70672,90.06415 -20.28921,-4.23876 -33.22364,-19.69543 -38.8151,-31.37893 C 345.5,304.71026 345.5,286.06614 345.5,266.5 365.78922,262.52616 378.94759,247.99354 384.53905,237.04026 389.5,227.32212 389.5,209.84326 389.5,191.5 369.21078,187.26124 356.05241,171.75978 350.46095,160.07628 345.5,149.71026 345.5,131.06614 345.5,111.5 365.78922,107.26124 378.94759,93.009777 384.53905,81.326281 389.5,70.960256 389.5,52.316138 389.5,32.75"
     id="path4612" /><path
     style="fill:#ffffff;fill-rule:evenodd;stroke:none;stroke-width:1px;stroke-linecap:butt;stroke-linejoin:miter;stroke-opacity:1"
     d="m 295.5,32.75 c 0,19.566138 0,38.210256 4.96095,48.576281 5.59146,11.683496 18.74983,25.934959 39.03905,30.173719 0,19.56614 0,38.21026 -4.96095,48.57628 -5.59146,11.6835 -18.74983,27.18496 -39.03905,31.42372 0,18.34326 0,35.82212 4.96095,45.54026 5.59146,10.95328 18.74983,25.4859 39.03905,29.45974 0,19.56614 0,38.21026 -4.96095,48.57628 -5.59146,11.6835 -18.74983,27.18496 -39.03905,31.42372 0,18.34326 0,35.82212 4.96095,45.54026 5.59146,10.95328 18.77635,25.35279 39.03905,29.45974 2.52352,0.51148 6.09323,1.16554 8.96587,1.33669 -16.18662,23.05985 -31.14744,43.69142 -67.91447,76.69376 0,0 -0.65031,-0.23848 -0.97214,-0.36202 -15.82502,-6.07448 -26.29131,-19.006 -31.11832,-29.09215 C 243.5,459.71026 243.5,441.06614 243.5,421.5 263.78922,417.52616 276.94758,402.99354 282.53904,392.04026 287.5,382.32212 287.5,364.84326 287.5,346.5 267.21077,342.26124 254.0524,326.75978 248.46094,315.07628 243.5,304.71026 243.5,286.06614 243.5,266.5 263.78922,262.52616 276.94758,247.99354 282.53904,237.04026 287.5,227.32212 287.5,209.84326 287.5,191.5 267.21077,187.26124 254.0524,171.75978 248.46094,160.07628 243.5,149.71026 243.5,131.06614 243.5,111.5 263.78922,107.26124 276.94758,93.009777 282.53904,81.326281 287.5,70.960256 287.5,52.316138 287.5,32.75"
     id="path4614" /><path
     id="path4616"
     d="m 185.5,32.75 c 0,19.566138 0,38.210256 -4.96095,48.576281 C 174.94759,93.009777 161.78922,107.26124 141.5,111.5 c 0,19.56614 0,38.21026 4.96095,48.57628 5.59146,11.6835 18.74983,27.18496 39.03905,31.42372 0,18.34326 0,35.82212 -4.96095,45.54026 -5.59146,10.95328 -18.74983,25.4859 -39.03905,29.45974 0,19.56614 0,38.21026 4.96095,48.57628 5.59146,11.6835 18.74983,27.18496 39.03905,31.42372 0,18.34326 0,35.82212 -4.96095,45.54026 C 174.94759,402.99354 161.7627,417.39305 141.5,421.5 c -2.52352,0.51148 -6.09323,1.16554 -8.96587,1.33669 16.18662,23.05985 31.14744,43.69142 67.91446,76.69376 0,0 0.65031,-0.23848 0.97214,-0.36202 15.82502,-6.07448 26.29131,-19.006 31.11832,-29.09215 C 237.49999,459.71026 237.5,441.06614 237.5,421.5 217.21078,417.52616 204.05241,402.99354 198.46095,392.04026 193.5,382.32212 193.5,364.84326 193.5,346.5 213.78922,342.26124 226.94759,326.75978 232.53905,315.07628 237.5,304.71026 237.5,286.06614 237.5,266.5 217.21078,262.52616 204.05241,247.99354 198.46095,237.04026 193.5,227.32212 193.5,209.84326 193.5,191.5 213.78922,187.26124 226.94759,171.75978 232.53905,160.07628 237.5,149.71026 237.5,131.06614 237.5,111.5 217.21078,107.26124 204.05241,93.009777 198.46095,81.326281 193.5,70.960256 193.5,52.316138 193.5,32.75"
     style="fill:#ffffff;fill-rule:evenodd;stroke:none;stroke-width:1px;stroke-linecap:butt;stroke-linejoin:miter;stroke-opacity:1" /><path
     style="fill:none;stroke:#000000"
     id="path4224"
     d="m 440,32.7 c 2.09,102.46 -3.38,187.49 -43.93,296.59 C 368.02,404.77 321.86,474.06 240.5,530.88 159.14,474.06 112.98,404.77 84.93,329.29 44.38,220.19 38.91,135.16 41,32.7 c 133,0.29 266,0 399,0 z" /><path
     style="fill:none;fill-rule:evenodd;stroke:#000000;stroke-width:1px;stroke-linecap:butt;stroke-linejoin:miter;stroke-opacity:1"
     d="m 185.5,32.75 c 0,19.566138 0,38.210256 -4.96095,48.576281 C 174.94759,93.009777 161.78922,107.26124 141.5,111.5 c 0,19.56614 0,38.21026 4.96095,48.57628 5.59146,11.6835 18.74983,27.18496 39.03905,31.42372 0,18.34326 0,35.82212 -4.96095,45.54026 -5.59146,10.95328 -18.74983,25.4859 -39.03905,29.45974 0,19.56614 0,38.21026 4.96095,48.57628 5.59146,11.6835 18.74983,27.18496 39.03905,31.42372 0,18.34326 0,35.82212 -4.96095,45.54026 C 174.94759,402.99354 161.7627,417.39305 141.5,421.5 c -2.52352,0.51148 -6.09323,1.16554 -8.96587,1.33669 m 67.91446,76.69376 c 0,0 0.65031,-0.23848 0.97214,-0.36202 15.82502,-6.07448 26.29131,-19.006 31.11832,-29.09215 C 237.49999,459.71026 237.5,441.06614 237.5,421.5 217.21078,417.52616 204.05241,402.99354 198.46095,392.04026 193.5,382.32212 193.5,364.84326 193.5,346.5 213.78922,342.26124 226.94759,326.75978 232.53905,315.07628 237.5,304.71026 237.5,286.06614 237.5,266.5 217.21078,262.52616 204.05241,247.99354 198.46095,237.04026 193.5,227.32212 193.5,209.84326 193.5,191.5 213.78922,187.26124 226.94759,171.75978 232.53905,160.07628 237.5,149.71026 237.5,131.06614 237.5,111.5 217.21078,107.26124 204.05241,93.009777 198.46095,81.326281 193.5,70.960256 193.5,52.316138 193.5,32.75"
     id="path4576" /><path
     style="fill:none;fill-rule:evenodd;stroke:#000000;stroke-width:1px;stroke-linecap:butt;stroke-linejoin:miter;stroke-opacity:1"
     d="m 83.5,32.75 c 0,19.566138 -2e-6,38.210255 -4.96095,48.576281 -5.40372,11.291208 -17.874742,24.980829 -37.019474,29.713369 m 3.383962,49.68449 C 50.665092,172.32568 63.583612,187.33913 83.5,191.5 c 0,18.34326 -6e-6,35.82212 -4.96095,45.54026 -2.988684,5.85462 -8.139231,12.73186 -15.38505,18.4727 -0.373365,0.29582 -1.136775,0.8781 -1.136775,0.8781 m 29.706717,90.06415 C 112.01316,342.21645 124.94759,326.75978 130.53905,315.07628 135.5,304.71026 135.5,286.06614 135.5,266.5 115.21078,262.52616 102.05241,247.99354 96.46095,237.04026 91.5,227.32212 91.5,209.84326 91.5,191.5 111.78922,187.26124 124.94759,171.75978 130.53905,160.07628 135.5,149.71026 135.5,131.06614 135.5,111.5 115.21078,107.26124 102.05241,93.009777 96.46095,81.326281 91.5,70.960256 91.5,52.316138 91.5,32.75"
     id="path4596" /><path
     id="path4604"
     d="m 295.5,32.75 c 0,19.566138 0,38.210256 4.96095,48.576281 5.59146,11.683496 18.74983,25.934959 39.03905,30.173719 0,19.56614 0,38.21026 -4.96095,48.57628 -5.59146,11.6835 -18.74983,27.18496 -39.03905,31.42372 0,18.34326 0,35.82212 4.96095,45.54026 5.59146,10.95328 18.74983,25.4859 39.03905,29.45974 0,19.56614 0,38.21026 -4.96095,48.57628 -5.59146,11.6835 -18.74983,27.18496 -39.03905,31.42372 0,18.34326 0,35.82212 4.96095,45.54026 5.59146,10.95328 18.77635,25.35279 39.03905,29.45974 2.52352,0.51148 6.09323,1.16554 8.96587,1.33669 m -67.91447,76.69376 c 0,0 -0.65031,-0.23848 -0.97214,-0.36202 -15.82502,-6.07448 -26.29131,-19.006 -31.11832,-29.09215 C 243.5,459.71026 243.5,441.06614 243.5,421.5 263.78922,417.52616 276.94758,402.99354 282.53904,392.04026 287.5,382.32212 287.5,364.84326 287.5,346.5 267.21077,342.26124 254.0524,326.75978 248.46094,315.07628 243.5,304.71026 243.5,286.06614 243.5,266.5 263.78922,262.52616 276.94758,247.99354 282.53904,237.04026 287.5,227.32212 287.5,209.84326 287.5,191.5 267.21077,187.26124 254.0524,171.75978 248.46094,160.07628 243.5,149.71026 243.5,131.06614 243.5,111.5 263.78922,107.26124 276.94758,93.009777 282.53904,81.326281 287.5,70.960256 287.5,52.316138 287.5,32.75"
     style="fill:none;fill-rule:evenodd;stroke:#000000;stroke-width:1px;stroke-linecap:butt;stroke-linejoin:miter;stroke-opacity:1" /><path
     id="path4606"
     d="m 397.5,32.75 c 0,19.566138 0,38.210255 4.96095,48.576281 5.40372,11.291208 17.87474,24.980829 37.01947,29.713369 m -3.38396,49.68449 C 430.3349,172.32568 417.41638,187.33913 397.5,191.5 c 0,18.34326 0,35.82212 4.96095,45.54026 2.98868,5.85462 8.13923,12.73186 15.38505,18.4727 0.37336,0.29582 1.13677,0.8781 1.13677,0.8781 m -29.70672,90.06415 C 368.98684,342.21645 356.05241,326.75978 350.46095,315.07628 345.5,304.71026 345.5,286.06614 345.5,266.5 365.78922,262.52616 378.94759,247.99354 384.53905,237.04026 389.5,227.32212 389.5,209.84326 389.5,191.5 369.21078,187.26124 356.05241,171.75978 350.46095,160.07628 345.5,149.71026 345.5,131.06614 345.5,111.5 365.78922,107.26124 378.94759,93.009777 384.53905,81.326281 389.5,70.960256 389.5,52.316138 389.5,32.75"
     style="fill:none;fill-rule:evenodd;stroke:#000000;stroke-width:1px;stroke-linecap:butt;stroke-linejoin:miter;stroke-opacity:1" /></svg>