<?xml version="1.0" encoding="UTF-8" standalone="no"?>
<svg
   xmlns:dc="http://purl.org/dc/elements/1.1/"
   xmlns:cc="http://creativecommons.org/ns#"
   xmlns:rdf="http://www.w3.org/1999/02/22-rdf-syntax-ns#"
   xmlns:svg="http://www.w3.org/2000/svg"
   xmlns="http://www.w3.org/2000/svg"
   id="svg2"
   version="1.1"
   x="0"
   y="0"
   width="420"
   height="500"
   viewBox="30.5 31.5 420 500"
   enable-background="new 30.5 31.5 412 533"
   xml:space="preserve"><metadata
     id="metadata4"><rdf:RDF><cc:Work
         rdf:about=""><dc:format>
          
          
          
          
          image/svg+xml
        
        
        
        
        </dc:format><dc:type
           rdf:resource="http://purl.org/dc/dcmitype/StillImage" /><dc:title></dc:title></cc:Work></rdf:RDF></metadata><defs
     id="defs6" /><path
     id="path4218"
     d="m440 32.7c2.09 102.46-3.38 187.49-43.93 296.59C368.02 404.77 321.86 474.06 240.5 530.88 159.14 474.06 112.98 404.77 84.93 329.29 44.38 220.19 38.91 135.16 41 32.7c133 0.29 266 0 399 0z"
     style="fill-rule:evenodd;fill:#32ac60;fill-opacity:1" /><path
     d="m440 32.7c2.09 102.46-3.38 187.49-43.93 296.59C368.02 404.77 321.86 474.06 240.5 530.88 159.14 474.06 112.98 404.77 84.93 329.29 44.38 220.19 38.91 135.16 41 32.7c133 0.29 266 0 399 0z"
     id="path4224"
     style="fill:none;stroke:#000" /><path
     style="fill:#ffffff;fill-opacity:1;stroke:#000000;stroke-linecap:round;stroke-linejoin:round;stroke-opacity:1"
     id="path3775"
     d="m 237.47293,53.762865 c -2.82063,0.379506 -0.97601,5.914061 -6.16832,5.861207 -0.047,2.120343 -1.91754,5.48582 -4.18236,4.862726 -0.50523,7.332178 -1.63902,9.219067 -4.70641,7.80557 -0.0542,2.576825 -1.74857,12.074402 -6.60333,10.400247 -1.60719,8.524567 -4.86577,12.294317 -8.07735,9.953349 -0.47846,3.22245 -1.81232,11.746306 -7.63774,10.120846 0.16161,2.98052 -0.22915,7.94821 -3.98424,6.86512 0.60045,5.59168 0.5,9.90314 -3.22319,9.4306 0.64648,4.2679 1.17043,10.62451 -3.62677,9.37941 -0.80359,4.6105 -1.08677,11.20693 0.62771,16.32065 1.91296,5.7057 7.40882,10.1543 13.32021,11.35081 11.95759,2.42032 31.5407,0.30606 31.69894,12.59682 0.17146,13.31742 0.21776,24.11562 -0.123,37.61552 -0.12574,4.98163 -3.25604,3.9108 -6.29756,1.6651 -8.6168,-6.36219 -15.14515,-11.98909 -22.64753,-18.3456 -9.64589,-8.17265 -18.74642,-16.07284 -26.95718,-23.79356 -5.28516,-4.96972 -13.21566,-13.99719 -7.80187,-21.66655 4.67301,-6.61995 5.3791,-16.00584 5.80214,-21.92079 0.67184,-9.39385 -5.92929,-14.71661 -10.56316,-19.91306 -3.71828,2.00558 -5.62136,0.20165 -8.88013,-3.66623 -3.50865,2.62559 -7.31563,1.06853 -10.56227,-3.471698 -1.33102,2.429422 -5.74306,-0.225458 -7.4593,-2.756758 -0.59413,4.194947 -5.48917,1.512809 -8.41189,-0.165502 -0.84282,0.806394 -2.21356,2.73269 -8.70316,-1.711108 -0.75963,2.903152 -3.68706,1.854465 -6.56137,0.419185 -0.87459,2.248482 -3.75239,1.641414 -7.16073,-0.325628 0.0433,3.13291 -5.69878,1.219655 -7.29225,0.415451 -0.21128,2.732143 -4.713023,2.777061 -8.678705,0.309332 -1.306953,2.398349 -5.300549,1.47874 -8.172957,-0.8118 -1.629986,2.195059 -6.229494,-1.421324 -8.159859,-1.799588 1.14182,3.571111 4.565228,7.659098 2.256269,9.872214 2.437152,2.84593 4.560065,6.07069 1.908637,8.30071 3.593617,2.52459 5.342326,5.86864 3.1201,8.88037 2.51812,1.39745 3.221084,6.52148 1.106724,7.95812 2.173213,2.42894 4.732921,6.68046 2.620693,9.40975 1.295069,0.80583 4.941933,4.98028 2.165365,7.49213 2.679228,2.63112 4.284821,6.54215 1.92044,8.76853 2.776255,1.62745 6.513111,4.91081 4.756471,8.35739 2.410832,0.90109 6.822682,1.65806 3.645591,5.8639 3.366601,0.92357 6.102531,2.37753 5.117581,5.76073 2.24795,0.16097 8.24888,0.11273 6.75466,5.06254 1.98327,1.05856 3.94518,1.71608 6.15668,2.31273 7.47185,2.01588 18.69583,0.62814 25.81788,-3.2462 3.90808,-2.12596 8.77301,-9.98281 15.69242,-11.21268 5.32989,-0.94734 8.94076,0.52809 15.73404,6.3767 15.21768,13.10152 17.05236,16.24722 30.581,28.99313 1.83314,1.72708 -2.40184,3.50657 -3.75199,10.07681 -0.90849,4.421 -0.14724,8.80113 -0.59668,11.89794 -2.54274,1.43699 -3.12489,10.54864 0.0408,9.31626 -2.54379,2.79059 -1.57948,9.67652 0.64935,7.8524 -2.66614,1.04675 -2.39054,10.57204 0.47337,7.60378 -1.42079,1.1275 -2.88086,8.67244 0.92984,7.24278 -2.22641,0.74308 -3.04644,8.67518 -0.22574,7.90311 -2.4748,2.94828 0.0716,7.34968 1.92234,7.60257 3.1529,0.43081 7.2609,-5.26894 3.24595,-8.6229 4.2717,2.44222 2.28095,-7.32699 0.11337,-7.12047 2.60642,2.88566 4.17743,-4.91808 0.33499,-7.73304 4.4239,4.95762 1.20961,-7.07553 -0.37611,-7.24168 4.60942,2.00781 0.70247,-8.82949 -0.93372,-8.22021 4.63766,1.01486 0.0799,-8.88005 -2.04836,-9.26482 -2.53239,-9.54756 0.95225,-18.64787 6.60333,-16.32136 l 12.29971,9.82246 c 1.38554,1.10649 -1.14421,3.32167 -1.96264,2.51749 -1.73555,-1.70534 -3.5329,0.97774 -1.67459,3.40118 3.14019,4.09514 13.3904,9.75367 13.51132,16.25585 0.11148,5.99415 0.18887,43.2414 -1.02225,65.52548 -0.39196,7.2119 -5.07212,9.19041 -8.21239,6.34476 -10.97541,-9.94572 -24.56123,-25.2842 -32.52828,-35.21938 -2.29556,-2.86264 -5.11794,-5.94209 -5.93663,-7.7321 -2.21044,-4.83295 -4.32062,-8.87827 -1.71199,-12.57485 6.29882,-8.92581 10.45783,-19.88901 8.35508,-28.62429 -0.42834,-1.77941 -2.13669,-5.14066 -5.7217,-7.97181 -2.47973,0.22416 -5.89995,-0.77436 -9.96022,-6.62407 -1.64256,1.63117 -5.87151,0.53893 -11.6033,-2.17181 0.98345,2.51088 -2.63718,3.50174 -9.16929,-2.26007 -3.09617,4.30826 -10.62086,-1.15251 -11.29978,-1.91902 -2.45363,3.1788 -7.96662,3.08586 -11.09468,-0.43653 -1.83713,3.39486 -8.56416,1.68869 -11.49447,-1.52739 -2.16174,2.00355 -7.20941,1.389 -9.73469,-2.26417 -1.72848,2.65291 -5.66605,1.64609 -8.17942,-1.42482 -2.34991,4.06879 -12.245767,-3.77413 -19.642759,-1.86662 0.314727,1.82682 5.84133,4.96584 4.589197,8.68039 1.505273,1.06152 6.155446,3.82938 3.919194,6.26242 -1.357775,-1.74769 8.786238,4.70592 5.090671,8.33709 7.095277,5.12168 5.222337,7.63015 2.876377,9.49592 3.59805,1.15881 5.4343,9.12573 2.23069,10.1349 4.26177,1.77905 6.90446,10.0468 3.05404,12.54632 4.39826,1.13257 6.12155,10.88308 2.50707,11.56677 4.02591,2.14852 7.57938,5.08249 5.65461,10.09197 2.87374,1.27637 7.22079,3.85252 4.79368,7.13794 4.26173,-0.4558 10.2073,3.89866 6.69949,6.06971 2.79953,1.52848 3.93627,2.02567 6.51918,3.10463 4.26433,1.78133 9.41143,4.0588 13.44634,3.72511 3.8872,-0.32149 7.05781,-2.29803 8.33625,-3.22078 9.96755,-7.19438 22.91669,-24.14748 30.75278,-15.21017 l 42.27734,48.2186 c 6.02045,6.86651 4.17722,10.27377 4.17722,15.85623 0,0 -0.13354,52.84625 0.56685,62.69982 0.70039,9.85357 -7.39284,7.30657 -8.86884,5.22475 l -8.62999,-12.17218 c -2.55816,-3.60816 -0.904,-10.05853 2.15453,-15.86712 4.2347,-8.04235 9.55493,-15.63678 8.84714,-21.26912 -0.23447,-1.86577 -1.13041,-2.83601 -2.94641,-4.89635 -4.16217,-1.02551 -7.13958,-5.10633 -8.45902,-10.63693 -6.15063,1.07721 -7.37582,-2.72022 -8.84885,-6.52974 -4.38007,1.06139 -7.16364,-1.6031 -8.74941,-4.45924 -2.86831,1.41512 -6.43828,1.21289 -8.69641,-1.07616 -1.99704,1.15477 -6.18346,0.99733 -7.6906,-1.23301 -2.83955,1.36549 -7.5154,-0.69932 -9.0577,-2.56973 -1.03622,2.32765 -5.39135,2.33876 -7.94815,-0.35534 -2.46295,2.91374 -6.98707,2.3478 -9.8731,-0.77267 -2.31918,1.98117 -6.85284,1.9926 -8.6852,-2.27701 -3.04829,0.83844 -7.29595,-2.18901 -15.01471,-1.61586 -1.18034,9.25027 7.38201,4.9599 5.48129,13.48389 4.68705,1.04022 7.05207,5.62664 5.12752,10.59516 4.07956,1.88041 5.48832,7.88557 2.64133,9.73992 4.87859,3.15124 4.68495,8.64976 1.93923,10.69064 4.03552,1.57044 5.69812,9.62671 2.00289,11.68114 3.79353,2.29116 3.18791,9.65902 1.27889,11.11029 2.51097,0.87008 5.33938,6.1299 2.78454,7.60178 3.91455,0.42094 6.17063,5.53977 4.09725,7.0071 6.78145,7.49931 22.08924,20.47939 35.52274,7.17018 5.77257,-5.71915 15.76442,-20.30954 20.14016,-13.5786 l 9.50423,14.61981 c -5.70448,2.25035 -8.69978,7.01791 -9.69914,12.61893 -6.79689,4.96436 -4.51205,10.65066 -1.8559,8.7929 -0.94171,0.0882 -5.36255,6.65521 -0.58953,7.88151 0.18051,-1.14958 -2.99999,5.77364 0.66034,6.52079 -2.48057,0.3873 -1.32357,7.49017 0.50519,5.51935 -0.81587,-0.15852 -1.59227,7.89008 1.44294,7.25273 -2.25807,4.93542 -0.43844,8.45834 2.25768,8.34849 2.4301,-0.099 3.65219,-3.48943 1.69637,-8.42009 1.20271,0.37073 3.53057,-5.0758 -0.28939,-7.08764 2.3238,0.63366 3.25223,-4.02532 0.73193,-4.96344 1.80297,1.21647 4.32881,-4.0972 -0.15414,-7.25273 2.99738,2.28492 4.54886,-6.39858 0.24763,-7.84145 2.11524,1.58842 4.61071,-3.98804 -0.66034,-8.66688 -0.16082,-3.69184 3.4505,-8.2209 6.72192,-9.10392 1.64819,-0.44488 3.52491,0.45869 5.08054,2.00534 8.18683,8.13961 10.46433,19.48536 8.05002,36.10489 -0.79314,5.45982 -0.61982,10.24868 -0.77503,15.66885 -0.0582,2.03182 6.0161,0.6293 8.74859,2.60932 2.55359,1.85039 4.19722,3.57426 6.58579,6.39924 2.17225,2.56913 3.97021,-1.49307 3.74557,-6.41732 -0.3993,-8.75307 -3.99179,-24.00204 -2.53359,-36.61094 0.29062,-2.52785 6.31989,-4.99414 8.7311,-8.91621 1.79867,-2.92571 -2.69193,-2.71245 -4.65237,-3.72025 -1.9616,-0.86287 1.52645,-5.01089 6.14068,-6.77008 4.05473,-1.54589 8.3703,-0.21953 8.83228,7.65946 -3.2773,0.37548 -4.5951,13.86674 0.24257,9.49189 -3.83944,1.46957 -4.37636,11.40292 0.40558,8.56769 -4.27814,1.326 -4.74274,11.95198 -0.91868,8.95845 -2.87715,1.22788 -3.66456,9.99657 -0.50527,9.69142 -1.48224,4.62958 0.0675,9.3012 2.23574,9.33572 2.61306,0.0416 4.50441,-3.07423 2.81356,-8.59068 2.71586,1.87538 3.92263,-7.05906 0.0564,-10.06057 3.71268,2.26301 3.33937,-7.23875 0.0119,-9.14786 3.98889,4.20245 3.78102,-8.13686 0.49525,-9.14787 3.73751,4.62412 2.73753,-9.40967 -1.86043,-9.7304 -0.72348,-3.89227 0.98828,-11.30672 -8.35999,-11.79353 1.61974,-4.12853 3.80792,-7.302 7.93309,-11.96086 2.89362,-3.26798 4.24798,-6.14938 8.24048,-8.22635 4.29983,-2.23684 9.63561,6.45759 18.07165,10.48444 4.62318,2.20682 10.62207,2.79222 16.74083,0.67535 6.26098,-2.16608 7.53016,-5.24125 11.35169,-7.92011 -1.13258,-1.68549 1.15329,-6.39739 4.1242,-7.15702 -1.90401,-2.12007 -1.74134,-7.85614 2.22973,-10.17561 -2.113,-1.98607 -0.78084,-7.18007 2.41266,-10.36548 -3.20616,-1.94859 -2.2882,-9.33961 1.77614,-10.13173 -2.66288,-0.82006 -1.38499,-7.14995 1.74078,-8.85374 -3.22002,-1.59067 -2.38311,-10.36178 0.14867,-12.35683 -2.90062,-1.99377 -2.86017,-8.13601 1.72168,-12.2093 -2.94506,-2.3199 0.008,-5.72749 1.34137,-8.56101 -3.34396,1.91207 -5.8832,4.79196 -9.14323,1.37238 -0.66639,3.2566 -7.62251,9.12758 -10.82691,3.37498 -2.15301,2.38482 -4.71721,4.57908 -7.79295,2.89039 -1.02398,0.98692 -5.13886,4.9511 -7.30816,1.25487 -2.61248,2.75693 -5.77393,4.44016 -8.06863,2.03807 -1.74282,2.32084 -6.00649,4.42033 -8.64656,0.9752 -1.99651,2.70933 -5.84925,5.97393 -11.09003,3.08459 -0.13213,2.7091 -3.77724,6.80729 -7.34802,4.35609 -0.84648,1.24162 -0.59182,8.79713 -8.97747,7.83317 -1.48806,2.95983 -3.7422,7.80232 -4.86184,12.64413 -0.80293,3.47222 -0.50415,7.45588 1.56193,10.43305 5.20573,7.50133 19.89294,14.56628 12.90832,23.20515 L 253.7816,408.2366 c -8.88617,10.99079 -4.03373,-52.9256 -5.77792,-79.40506 -0.73111,-11.09925 4.34158,-15.16922 9.39549,-21.15443 7.43812,-8.80877 14.4491,-15.54077 21.56122,-23.34819 5.56157,-6.10527 10.53851,-13.66096 17.40475,-18.14143 5.70354,-3.72177 7.85847,-4.96255 10.59402,-2.44169 8.59536,7.92078 22.07502,23.05645 39.43416,13.74483 0.46221,-5.72008 8.68928,-10.98029 11.39075,-9.90499 0.28622,-6.84539 4.369,-10.75182 8.29351,-12.08263 -2.47683,-3.49067 0.95708,-11.21608 3.41944,-12.31814 -1.75441,-3.62648 1.03166,-9.46121 3.63644,-11.01955 -2.78963,-6.00931 -0.7106,-10.52791 2.75841,-13.58483 -1.27325,-2.66192 1.9652,-7.07231 3.84037,-7.66499 0.0831,-3.02959 1.82979,-8.28907 4.26346,-8.61444 -2.36902,-7.73574 6.21902,-12.76272 7.62645,-12.84241 -2.86578,-1.48973 2.62224,-5.59565 2.57373,-9.03699 -3.40391,1.38138 -6.6073,4.12414 -9.86123,2.57517 -2.04096,3.53703 -7.13012,4.20107 -11.06457,2.78238 -0.33324,0.74591 -6.03091,5.37979 -11.36987,1.62616 1.12265,0.11791 -6.85559,5.17476 -10.71947,-0.0502 -1.51706,1.99583 -8.0915,4.40293 -12.35694,0.83536 -2.24013,1.29045 -6.78948,4.69814 -11.7671,2.35094 -1.71591,1.94192 -5.11887,4.8116 -9.21886,2.27763 -1.36113,1.76238 -4.52164,4.93724 -8.78138,2.85161 -1.85415,3.49913 -5.63237,4.6878 -7.85121,4.00535 -0.96576,1.56757 -3.58019,5.53608 -6.51183,3.70064 -3.67065,3.93019 -6.09206,8.70647 -6.73798,15.09098 -0.71771,7.09421 -0.24394,13.48674 4.45565,20.55856 3.48663,5.24658 9.22663,12.6596 0.49525,21.29575 l -33.58551,35.23434 c 0.57904,-1.82392 1.13278,-5.39489 -0.39683,-5.27265 -3.79475,0.30326 -5.93136,7.96901 -8.51767,12.04107 -3.87748,6.10497 -6.94566,-2.98364 -6.8599,-8.32577 0.30882,-19.23617 -2.28573,-37.63048 -0.1934,-57.71563 0.80847,-7.76092 2.15912,-10.0609 9.86395,-15.16756 0.5816,-0.38548 3.01787,-0.42482 3.62132,-1.42015 1.13026,-1.86428 1.83483,-4.74241 0.0549,-6.61798 -1.13188,-1.1927 -0.65308,-4.7652 0.87006,-7.07413 2.24462,-3.40264 5.75644,-5.83536 7.28563,-5.14089 3.12282,1.41823 2.20991,10.17281 2.22962,13.83785 -1.14736,1.85641 -4.66793,3.31392 -4.57668,7.46106 0.0533,2.42295 -0.25664,1.6155 1.9553,1.62981 0.96712,0.006 -2.84754,-0.63163 -2.48358,5.75095 0.15814,2.77333 -0.29149,3.14285 2.29585,3.12252 1.39084,-0.0109 -3.14772,-0.78719 -1.56015,6.80379 0.17621,0.84256 3.20805,1.04764 1.11747,1.31014 -2.58399,2.72787 -0.47655,8.34768 0.84004,6.20366 -4.08572,3.39918 -0.75857,8.00895 0.75075,7.19443 -3.36371,2.98923 -0.7692,9.67771 2.64582,9.25004 5.64315,-0.70669 1.83667,-9.38049 2.54595,-8.97958 4.10088,0.44681 2.06621,-5.8156 1.48054,-6.63918 0.68513,0.24992 1.65707,-1.08679 1.66146,-1.48804 0.0649,-5.93481 -2.54931,-4.74256 -2.15912,-5.78902 0.58664,-1.57334 2.56045,3.61089 2.22383,-3.19944 -0.21112,-4.27134 -3.84783,-4.48165 -2.36092,-4.57574 1.67395,-0.10592 2.30757,0.32901 2.35093,-3.80174 0.0473,-4.50859 -3.39319,-6.13852 -1.59722,-5.3244 1.44535,0.65518 1.20478,1.03738 2.01631,-2.00856 1.10211,-4.13661 -3.06188,-6.35692 -3.81494,-6.2138 0.0643,-5.36889 1.5075,-14.00217 -4.3155,-19.47739 10.33281,-14.66229 24.33174,-27.4444 39.67223,-41.12282 11.96547,-10.66907 20.83432,16.84772 38.04429,17.92954 5.49264,0.34527 11.76439,-3.13706 19.56508,-10.94569 -2.73912,-2.84977 -0.58725,-7.12488 0.10314,-8.35601 2.93974,-3.2932 5.04413,-3.49909 7.92059,-3.64363 -2.89977,-4.54893 2.28973,-10.09103 5.58725,-11.06741 -2.99462,-5.17284 1.20178,-9.47976 3.08524,-10.19061 -1.9861,-3.23912 -0.12507,-7.52642 3.24224,-9.11381 -1.99286,-3.8584 -0.99504,-8.09055 2.27733,-10.31002 -2.19495,-4.42247 0.11251,-9.94584 3.93565,-11.510414 -2.19071,-3.477035 1.34785,-8.350666 3.52097,-8.456781 -0.91731,-3.692893 1.44247,-8.542978 4.90368,-10.48804 -3.51814,-1.725393 -9.49106,1.620338 -12.46919,-1.244606 -1.82549,1.446675 -5.53554,3.612871 -9.4538,1.320666 -3.48668,2.68075 -7.26782,2.779995 -11.28489,0.250002 -2.98456,2.025037 -9.77951,2.043392 -11.30151,-0.757136 -3.09866,2.748634 -8.06001,3.531504 -11.94434,0.565907 -2.67869,1.708764 -6.78615,2.367603 -9.90817,0.02752 -2.43849,3.49553 -6.43348,3.270979 -9.27611,1.975814 -0.81516,2.137412 -4.32355,4.001172 -7.72732,3.319084 -0.70892,2.231365 -4.59973,5.852946 -8.45215,3.764689 -5.90683,2.372138 -11.19346,9.050274 -12.42937,16.720205 -1.24824,7.74646 1.72471,17.59925 8.08043,27.78598 2.81668,4.51447 5.69952,8.26961 2.88811,14.09573 -1.51054,3.13032 -4.44584,6.69287 -9.34625,10.85969 -14.8024,12.5865 -27.10039,23.89994 -39.60453,43.08539 -1.30329,1.99967 -4.28398,6.73279 -5.07138,5.49286 -1.86564,-2.93786 -2.61626,-2.91989 -3.48864,-1.89746 -1.72856,2.02588 -0.56012,3.72644 -1.48575,9.25461 -1.07317,6.40936 -4.50217,3.7098 -5.26875,0.54546 -0.96919,-4.00068 -0.23153,-11.45847 -0.17033,-16.03002 0.15585,-11.64318 0.2052,-20.04501 0.74187,-29.63345 0.40548,-7.24457 8.76701,-6.10124 18.72719,-7.30998 9.24194,-1.12157 13.68662,-1.41324 17.26442,-9.82908 0.79683,-1.87432 2.00781,-9.53391 2.10079,-13.78932 -5.77754,3.87566 -0.43127,-4.74044 -0.84838,-9.40905 -4.64988,1.6647 -1.66152,-3.96504 -1.56194,-6.83299 -2.56271,0.19693 -3.45643,-3.47097 -2.2355,-6.90255 -3.04105,-0.25519 -2.70831,-4.44307 -1.9982,-6.38323 -4.14134,-0.37607 -5.22938,-4.15214 -5.36177,-6.88191 -4.03231,0.49064 -5.51295,-4.326821 -5.03788,-6.942745 -2.2701,-0.562241 -3.2855,-3.844033 -3.11997,-5.091129 -2.89499,-0.967482 -3.51104,-3.059239 -3.27417,-5.86735 -4.09925,-0.264427 -4.80052,-3.831411 -4.28529,-7.779554 -1.33376,0.299506 -3.19951,-1.685444 -2.75764,-3.929818 -2.16292,0.377607 -3.49759,-0.999717 -4.0612,-4.674534 -2.37047,-0.01255 -3.47791,-2.696512 -3.47134,-5.726924 -3.43159,0.80407 -1.19234,-7.391188 -3.78642,-7.042164 z" /><path
     id="path4406"
     d="M 90.142586,99.97719 C 111.94662,118.68412 134.19623,136.35137 157,152.7256"
     style="fill:none;fill-rule:evenodd;stroke:#000000;stroke-width:1px;stroke-linecap:round;stroke-linejoin:round;stroke-opacity:1" /><path
     id="path4408"
     d="m 115.79531,166.35361 c 14.62515,-1.6246 25.74063,-8.91868 36.07415,-17.47592"
     style="fill:none;fill-rule:evenodd;stroke:#000000;stroke-width:1px;stroke-linecap:round;stroke-linejoin:miter;stroke-opacity:1" /><path
     id="path4410"
     d="m 163.89417,114.40684 c 1.0004,21.17566 -8.80187,20.99557 -12.02471,34.47085"
     style="fill:none;fill-rule:evenodd;stroke:#000000;stroke-width:1px;stroke-linecap:round;stroke-linejoin:round;stroke-opacity:1" /><path
     id="path4412"
     d="m 124.4531,104.62674 c 5.36494,6.51637 7.57795,17.37238 4.79088,27.32937 -7.14334,3.17671 -20.20112,4.49179 -31.726236,5.37786"
     style="fill:none;fill-rule:evenodd;stroke:#000000;stroke-width:1px;stroke-linecap:round;stroke-linejoin:round;stroke-opacity:1" /><path
     id="path4414"
     d="m 215.52028,102.70279 c 5.47114,8.51662 13.02368,13.70563 22.81844,16.56828 7.71318,-3.0751 12.33981,-11.96033 16.14164,-20.57652"
     style="fill:none;fill-rule:evenodd;stroke:#000000;stroke-width:1px;stroke-linecap:round;stroke-linejoin:round;stroke-opacity:1" /><path
     id="path4416"
     d="m 236.36311,76.729404 c 1.72417,28.891386 3.47221,57.817276 1.44297,81.287076"
     style="fill:none;fill-rule:evenodd;stroke:#000000;stroke-width:1px;stroke-linecap:round;stroke-linejoin:round;stroke-opacity:1" /><path
     id="path4418"
     d="m 201.89227,138.6166 c 9.5622,8.96359 25.03169,4.78747 37.00348,6.82351 14.393,-1.4012 23.03602,0.61432 30.65558,-6.66318"
     style="fill:none;fill-rule:evenodd;stroke:#000000;stroke-width:1px;stroke-linecap:round;stroke-linejoin:round;stroke-opacity:1" /><path
     id="path4420"
     d="M 381.94233,88.914448 C 356.71774,106.15688 335.60897,126.649 315.24525,145.35044"
     style="fill:none;fill-rule:evenodd;stroke:#000000;stroke-width:1px;stroke-linecap:round;stroke-linejoin:round;stroke-opacity:1" /><path
     id="path4422"
     d="m 316.68821,98.53422 c 2.47735,13.90196 -1.32602,28.70995 8.33714,38.63942 11.71098,15.94898 20.73561,9.59523 29.98162,14.58998"
     style="fill:none;fill-rule:evenodd;stroke:#000000;stroke-width:1px;stroke-linecap:round;stroke-linejoin:round;stroke-opacity:1" /><path
     id="path4424"
     d="m 348.91445,88.593789 c -1.51158,9.731471 -4.95602,18.772231 -0.30704,26.506021 8.51704,-0.59497 16.91452,4.99058 24.83746,3.15494"
     style="fill:none;fill-rule:evenodd;stroke:#000000;stroke-width:1px;stroke-linecap:round;stroke-linejoin:round;stroke-opacity:1" /><path
     id="path4426"
     d="m 377.84712,195.21562 c -15.15015,13.22635 -49.29958,28.2174 -70.61835,57.39528"
     style="fill:none;fill-rule:evenodd;stroke:#000000;stroke-width:1px;stroke-linecap:round;stroke-linejoin:round;stroke-opacity:1" /><path
     id="path4430"
     d="m 300.97592,211.24588 c -2.08428,17.54555 1.84692,27.31613 10.73938,35.21546 10.59158,4.51792 20.32901,22.78081 28.86201,22.34284"
     style="fill:none;fill-rule:evenodd;stroke:#000000;stroke-width:1px;stroke-linecap:round;stroke-linejoin:round;stroke-opacity:1" /><path
     id="path4432"
     d="m 331.11787,198.90051 c -2.58278,9.68456 1.14599,16.4838 3.87785,25.87832 8.12109,6.29138 19.71023,3.32333 27.8674,2.98099"
     style="fill:none;fill-rule:evenodd;stroke:#000000;stroke-width:1px;stroke-linecap:round;stroke-linejoin:round;stroke-opacity:1" /><path
     id="path4434"
     d="m 329.35424,326.04182 c -14.54494,18.48574 -34.90076,34.3802 -47.77819,54.03106"
     style="fill:none;fill-rule:evenodd;stroke:#000000;stroke-width:1px;stroke-linecap:round;stroke-linejoin:round;stroke-opacity:1" /><path
     id="path4436"
     d="m 272.43726,346.72433 c 2.37694,10.08499 5.12139,20.09647 11.70406,29.34031 9.84102,3.95978 17.44982,6.43141 26.13372,9.61977"
     style="fill:none;fill-rule:evenodd;stroke:#000000;stroke-width:1px;stroke-linecap:round;stroke-linejoin:round;stroke-opacity:1" /><path
     id="path4438"
     d="m 311.07668,327.80545 c -0.0926,5.34432 -0.0797,10.68864 1.92395,16.03296 4.15342,3.29918 10.06203,3.96559 14.75032,3.20658"
     style="fill:none;fill-rule:evenodd;stroke:#000000;stroke-width:1px;stroke-linecap:round;stroke-linejoin:round;stroke-opacity:1" /><path
     id="path4440"
     d="m 147.86122,333.57731 c 18.25132,17.43714 36.76978,34.82116 58.19962,51.62611"
     style="fill:none;fill-rule:evenodd;stroke:#000000;stroke-width:1px;stroke-linecap:round;stroke-linejoin:round;stroke-opacity:1" /><path
     id="path4444"
     d="m 152.99176,363.87959 c 7.16139,0.60166 14.32278,-0.87037 21.48416,-4.97021 3.91218,-7.13997 3.56704,-15.69903 2.40494,-24.53042"
     style="fill:none;fill-rule:evenodd;stroke:#000000;stroke-width:1px;stroke-linecap:round;stroke-linejoin:round;stroke-opacity:1" /><path
     id="path4446"
     d="m 212.47402,352.65653 c 1.64117,6.8656 -4.58179,18.35716 -9.94043,29.3403 -8.76861,8.55925 -18.06569,20.64168 -25.65273,21.32383"
     style="fill:none;fill-rule:evenodd;stroke:#000000;stroke-width:1px;stroke-linecap:round;stroke-linejoin:round;stroke-opacity:1" /><path
     id="path4448"
     d="m 105.85488,207.5583 c 15.33993,10.16344 21.60081,21.10676 39.26895,31.2191 11.25816,6.4436 20.98058,13.20849 28.71077,20.08635"
     style="fill:none;fill-rule:evenodd;stroke:#000000;stroke-width:1px;stroke-linecap:round;stroke-linejoin:round;stroke-opacity:1" /><path
     id="path4450"
     d="m 113.87136,241.06717 c 11.76728,1.15995 21.53626,-0.33377 28.69898,-5.4512 2.0428,-8.65779 0.54145,-16.35361 -3.20659,-25.0114"
     style="fill:none;fill-rule:evenodd;stroke:#000000;stroke-width:1px;stroke-linecap:round;stroke-linejoin:round;stroke-opacity:1" /><path
     id="path4452"
     d="m 180.40812,221.98796 c 0.45674,11.55254 -2.58526,27.76247 -9.94044,33.98986 -9.42706,11.09404 -18.99937,21.7281 -30.9436,24.85108"
     style="fill:none;fill-rule:evenodd;stroke:#000000;stroke-width:1px;stroke-linecap:round;stroke-linejoin:round;stroke-opacity:1" /></svg>