<svg xmlns:dc="http://purl.org/dc/elements/1.1/" xmlns:cc="http://creativecommons.org/ns#" xmlns:rdf="http://www.w3.org/1999/02/22-rdf-syntax-ns#" xmlns:svg="http://www.w3.org/2000/svg" xmlns="http://www.w3.org/2000/svg" id="svg2" version="1.1" x="0" y="0" width="400" height="500" viewBox="30.5 31.5 400 500" enable-background="new 30.5 31.5 412 533" xml:space="preserve">
  <metadata id="metadata4">
    <rdf:RDF>
      <cc:Work rdf:about="">
        <dc:format>
          
          
          
          
          
          
          image/svg+xml
        
        
        
        
        
        
        </dc:format>
        <dc:type rdf:resource="http://purl.org/dc/dcmitype/StillImage"/>
      </cc:Work>
    </rdf:RDF>
  </metadata>
  <defs id="defs6"/>
  <path id="path8" d="M230.44 531.14C156.12 477.22 105.18 409.12 74.7 322.98 47.06 244.88 35.97 150.23 40.79 33.63l0.02-0.46 379.82 0 0.02 0.46c4.81 116.6-6.28 211.24-33.91 289.35C356.26 409.12 305.32 477.22 231 531.14l-0.28 0.2-0.28-0.2z" fill="#fff"/>
  <path id="path10" d="M419.96 33.21C429.03 252.66 383.7 419.16 230.5 530.31 77.31 419.16 31.99 252.66 41.06 33.21l189.45 0 189.45 0m0.92-0.95-0.92 0-189.45 0-189.45 0-0.92 0-0.04 0.92c-4.82 116.66 6.28 211.36 33.93 289.52 30.51 86.24 81.51 154.41 155.91 208.39l0.56 0.41 0.56-0.41C305.46 477.11 356.46 408.94 386.97 322.7 414.62 244.54 425.72 149.84 420.9 33.18l-0.04-0.92 0 0z"/>
  <path fill="#000" d="m195.67 456.58c-10.72-10.8-13.2-38.58-9.22-60.17-2.4 0-11.52 7.79-14.7 14.55-7.38 15.65-0.99 24.99 6.56 37.69-22.21-14.1-24.51-27.81-25.51-50.86-1.52-34.91 16.94-65 38.66-87.83-4.52-2.23-11.54-1.86-18.15 0.82 2-7.78 12.33-18.15 25.23-20.68-2.43-1.77-8.68-3-13.09-2.65 2.45-5.63 10.76-9.2 26.04-10.15-1.27-1.84-5.48-4.29-5.93-8.13l11.52 0.73c23.51 1.49 29.41-6.7 37.21-13.65 8.79-7.83 11.1-23.8 8.07-34.94-4.27-15.69-9.73-19.29-36.06-26.35-15.76-4.23-30.72-13.03-41.64-20.89-31.68-23.06-52.23-32.52-73.46-37.09-6.52-1.4-19.82-2.25-34.27 0.87-0.03-6.08 9.24-14.35 15.42-15.12 22.17-2.76 47.32 2.99 61.07 6.87 25.82 7.29 46.5 14.68 46.5 14.68-1.57-7.91-12.5-17.14-20.23-20.76-22.35-10.48-40.39-16.74-67.66-12.08-16.26 2.78-23.65-0.66-25.27-5.55-1.35-4.08 0.75-9.13 7.92-10.12-1.51 7.68 5.28 8.69 10.83 7.95 30.39-4 60.32 3.55 92.9 19.39-2.81-8.34-36.1-23.71-51.14-28.81C131.51 88.96 111.57 84.02 100.38 82.62 85.97 80.82 76.53 88.1 73.16 96.37 67.35 75.79 83.69 61.54 98.8 61.77c16.71 0.26 27.41 7.03 56.17 18.42 7.03 2.79 14.42 4.78 21.94 6.54l8.05-4.05c34.69-17.44 92.47-7.31 140.26 13.89 17.93 7.95 37.09 24 50.62 47.02 8.5 14.46 12.75 23 12.86 33.68 0 0-3.09-2.99-8.64-4.73 7.23 11.04 7.54 20.19 6.16 25.71-1.97-2.82-3.52-8.85-9.5-10.61 2.59 5.73 4.69 21.22 1.58 25.56-0.94-3.57-5-10.82-8.49-11.8-0.02 15.07 1.51 29.88-2.37 40.88-6.12 17.32-10.87 25.44-32.43 55.54-20.97 29.26-31.07 41.61-34.51 57.91-8.58 40.59 7 46.61 2.97 63.55-2.69 11.29-12.7 14.85-24.22 12.58 11.61-9.56 9-27.49-6.28-32.91-3.99 10.33-6.74 20.21-13.07 28.37-9.11 11.74-20.19 21.66-33.56 21.71 8.4-9.16 13.05-17.77 13.09-26.06 0.02-5.33-4.54-21.09-10.05-22.35-3.22-0.73-16.15 13.16-20.94 22.22-6.74 12.75-10.53 25.5 10.19 44.09-10.65-1.13-17.95-5.34-22.94-10.37zm64.41-264.08c5.1-2.99 11.91-12.91 13-19.64 3.38-20.82 1.33-46.05-17.06-55.53-10.69-5.51-19.18-4.58-28.16 2.06-9.72 7.07-10.28 6.9-3.95 18.82 5.13 9.66 4.62 13.53 2.42 19.63-3.88 10.75-16.84 13.19-25.41 19.03 1.44 3.03 9.53 6.98 16.28 9.49 22.39 8.31 33.61 11.56 42.87 6.13z" id="path3363"/>
  <circle id="path4310" cx="215.9" cy="106.76" r="8.04" fill="#fff"/>
  <circle r="5.26" cy="106.76" cx="215.9" id="circle4312" fill="#000"/>
</svg>
