<?xml version="1.0" encoding="UTF-8" standalone="no"?>
<svg
   xmlns:dc="http://purl.org/dc/elements/1.1/"
   xmlns:cc="http://creativecommons.org/ns#"
   xmlns:rdf="http://www.w3.org/1999/02/22-rdf-syntax-ns#"
   xmlns:svg="http://www.w3.org/2000/svg"
   xmlns="http://www.w3.org/2000/svg"
   xml:space="preserve"
   enable-background="new 30.5 31.5 412 533"
   viewBox="30.5 31.5 400 500"
   height="500"
   width="400"
   y="0"
   x="0"
   version="1.1"
   id="svg2"><metadata
     id="metadata4"><rdf:RDF><cc:Work
         rdf:about=""><dc:format>
          
          
          image/svg+xml
        
        
        </dc:format><dc:type
           rdf:resource="http://purl.org/dc/dcmitype/StillImage" /><dc:title></dc:title></cc:Work></rdf:RDF></metadata><defs
     id="defs6" /><path
     d="M 230.45,531.13 C 156.13,477.21 105.19,409.11 74.71,322.97 47.07,244.87 35.98,150.22 40.8,33.62 l 0.02,-0.46 379.82,0 0.02,0.46 c 4.81,116.6 -6.28,211.24 -33.91,289.35 -30.48,86.14 -81.42,154.24 -155.74,208.16 l -0.28,0.2 -0.28,-0.2 z"
     id="path8"
     style="fill:#0085ca;fill-opacity:1" /><path
     d="M 419.96,33.21 C 429.03,252.66 383.71,419.16 230.51,530.31 146.04,469.02 94.36,390.9 66.52,296.34 64.43,289.25 62.48,282.07 60.65,274.8 49.2,229.11 42.88,179.78 40.77,126.86 39.57,96.8 39.72,65.58 41.06,33.21 l 189.45,0 189.45,0 m 0.92,-0.95 -0.92,0 -189.45,0 -189.45,0 -0.92,0 -0.04,0.92 c -4.82,116.66 6.28,211.36 33.93,289.52 30.51,86.24 81.51,154.41 155.91,208.39 l 0.56,0.41 0.56,-0.41 C 305.46,477.11 356.46,408.94 386.97,322.7 414.62,244.54 425.72,149.84 420.9,33.18 l -0.04,-0.92 0,0 z"
     id="path10" /><path
     d="m 230.5,67.556299 c -4.25663,-0.421756 -8.72875,3.089266 -8.72875,3.089266 -19.96454,7.366475 -31.12983,22.495191 -30.8512,40.234335 0.19127,12.17707 5.65282,23.81976 16.00927,30.81601 4.50835,3.0456 9.91983,3.8489 16.42367,4.25504 -0.71279,13.09134 -0.57146,34.43141 -3.92982,33.6258 -5.31778,-10.90054 -23.18082,-21.46228 -39.23612,-30.7183 -8.04488,-4.63794 -11.06758,-18.84718 -10.29009,-20.68836 10.247,-24.26599 6.60826,-42.116252 -26.97318,-69.546935 -13.33658,54.743755 -1.04847,62.563825 21.92916,71.608525 1.96674,0.77417 5.82469,14.47946 1.88271,12.80694 -19.31105,-8.19341 -38.87291,-15.82425 -47.23848,-23.4258 -2.99204,-2.71877 -1.82871,-14.29482 -2.98387,-18.53178 -7.655,-28.077561 -36.16777,-25.152392 -57.40192,-27.94116 9.72772,20.26975 9.77153,47.16787 34.19357,52.40249 6.06728,1.30046 20.86595,-1.73548 23.23798,-0.54363 18.28153,9.18578 56.04718,26.47615 55.93366,30.33657 -20.69288,-1.32338 -31.71973,13.11887 -37.17947,11.87013 0,0 -9.01107,-14.02445 -22.08998,-16.05054 -36.35583,-5.63199 -49.29708,17.13704 -46.80581,36.15117 -0.28784,3.2304 -3.17879,5.64775 -3.03189,8.66157 0.16818,3.4507 2.21518,7.27258 5.4606,11.10322 22.2898,38.06034 64.65637,21.83233 71.85001,-7.94031 2.29997,-9.51896 -0.45869,-18.85343 -2.50641,-23.98177 44.81575,-36.70829 78.06247,8.53424 75.16218,26.10047 -2.11224,12.79323 -0.92441,37.57472 -0.72505,56.41331 0.1359,12.84179 -11.33761,-3.67681 -16.20281,-8.47952 -2.49311,-2.46109 3.32176,-8.82013 4.17613,-18.51565 2.33831,-26.53558 -16.89719,-39.92019 -37.48279,-52.18276 4.56358,21.94904 -22.42761,54.15252 19.2911,71.13708 9.96951,4.05878 13.31845,7.54067 15.03607,12.813 -11.95265,-2.42376 -19.19933,0.24822 -30.82693,3.2345 0,0 -13.91183,-14.73784 -26.54821,-14.24671 -41.91081,1.62892 -44.70096,31.51806 -41.41083,43.82071 -0.6659,2.97545 -0.21684,9.18932 1.78138,12.52057 1.35171,2.25344 4.10182,4.38413 7.17644,5.85741 20.69164,25.44404 55.17293,13.89834 65.08553,-12.80998 3.21706,-8.66798 0.59766,-18.35124 -2.4797,-28.18033 7.61003,-5.09175 20.59753,-5.83051 26.11809,-3.92982 12.34911,4.25171 13.51991,7.6177 13.88447,18.31243 0.79678,23.37451 3.85704,38.65514 -1.36128,59.59755 -1.28937,13.36976 -17.77412,16.04647 -34.38281,18.63597 -21.72203,5.18358 -34.89523,16.18322 -40.86211,27.53048 20.92261,-9.35824 19.13593,-8.31757 43.78906,-11.62647 12.03213,-1.61493 26.16219,-7.03097 26.16219,-7.03097 0,0 -6.44583,11.50028 -10.30686,15.15658 -20.66066,19.56512 -33.52459,29.91528 -23.36819,54.06805 10.00854,-34.07782 41.7516,-38.16775 47.08445,-56.72627 14.49112,14.55157 -28.88754,78.07512 13.53684,101.41383 -12.50514,-37.31259 16.16719,-45.98835 8.65303,-102.10963 12.79644,18.84757 27.13215,22.36711 46.43385,56.19935 2.90206,-40.17694 -34.42906,-61.66305 -32.1594,-71.43001 20.30611,12.60594 39.14382,8.06496 62.95021,19.42227 -16.03543,-30.37691 -64.11853,-24.12985 -64.22512,-43.50318 -0.10195,-18.52969 -1.84253,-36.06527 -1.36128,-59.59755 0.2188,-10.6987 1.53536,-14.06072 13.88447,-18.31243 5.52056,-1.90069 18.50806,-1.16193 26.11809,3.92982 -3.07736,9.82909 -5.69676,19.51235 -2.4797,28.18033 9.9126,26.70832 44.39389,38.25402 65.08553,12.80998 3.07462,-1.47328 5.82473,-3.60397 7.17644,-5.85741 1.99822,-3.33125 2.44728,-9.54512 1.78138,-12.52057 3.29013,-12.30265 0.49998,-42.19179 -41.41083,-43.82071 -12.63638,-0.49113 -26.54821,14.24671 -26.54821,14.24671 -11.6276,-2.98628 -18.87428,-5.65826 -30.82693,-3.2345 1.71762,-5.27233 5.06656,-8.75422 15.03607,-12.813 41.71871,-16.98456 14.72752,-49.18804 19.2911,-71.13708 -20.5856,12.26257 -39.8211,25.64718 -37.48279,52.18276 0.85437,9.69552 6.66924,16.05456 4.17613,18.51565 -4.8652,4.80271 -16.33871,21.32131 -16.20281,8.47952 0.19936,-18.83859 1.38719,-43.62008 -0.72505,-56.41331 -2.90029,-17.56623 30.34643,-62.80876 75.16218,-26.10047 -2.04772,5.12834 -4.80638,14.46281 -2.50641,23.98177 7.19364,29.77264 49.56021,46.00065 71.85001,7.94031 3.24542,-3.83064 5.29242,-7.65252 5.4606,-11.10322 0.1469,-3.01382 -2.74405,-5.43117 -3.03189,-8.66157 2.49127,-19.01413 -10.44998,-41.78316 -46.80581,-36.15117 -13.07891,2.02609 -22.08998,16.05054 -22.08998,16.05054 -5.45974,1.24874 -16.48659,-13.19351 -37.17947,-11.87013 -0.11352,-3.86042 37.65213,-21.15079 55.93366,-30.33657 2.37203,-1.19185 17.1707,1.84409 23.23798,0.54363 24.42204,-5.23462 24.46585,-32.13274 34.19357,-52.40249 -21.23415,2.788768 -49.74692,-0.136401 -57.40192,27.94116 -1.15516,4.23696 0.008,15.81301 -2.98387,18.53178 -8.36557,7.60155 -27.92743,15.23239 -47.23848,23.4258 -3.94198,1.67252 -0.084,-12.03277 1.88271,-12.80694 22.97763,-9.0447 35.26574,-16.86477 21.92916,-71.608525 -33.58144,27.430683 -37.22018,45.280945 -26.97318,69.546935 0.77749,1.84118 -2.24521,16.05042 -10.29009,20.68836 -16.0553,9.25602 -33.91834,19.81776 -39.23612,30.7183 -3.35836,0.80561 -3.21703,-20.53446 -3.92982,-33.6258 6.50384,-0.40614 11.91532,-1.20944 16.42367,-4.25504 10.35645,-6.99625 15.818,-18.63894 16.00927,-30.81601 0.27863,-17.739144 -10.88666,-32.86786 -30.8512,-40.234335 0,0 -4.47212,-3.511022 -8.72875,-3.089266"
     id="path4399"
     style="fill:#ffe000;fill-opacity:1;stroke:#000000;stroke-linejoin:round;stroke-opacity:1" /></svg>