<?xml version="1.0" encoding="UTF-8" standalone="no"?>
<svg
   xmlns:dc="http://purl.org/dc/elements/1.1/"
   xmlns:cc="http://creativecommons.org/ns#"
   xmlns:rdf="http://www.w3.org/1999/02/22-rdf-syntax-ns#"
   xmlns:svg="http://www.w3.org/2000/svg"
   xmlns="http://www.w3.org/2000/svg"
   id="svg2"
   version="1.1"
   x="0"
   y="0"
   width="400"
   height="500"
   viewBox="30.5 31.5 400 500"
   enable-background="new 30.5 31.5 412 533"
   xml:space="preserve"><metadata
     id="metadata4"><rdf:RDF><cc:Work
         rdf:about=""><dc:format>
          
          
          
          image/svg+xml
        
        
        
        </dc:format><dc:type
           rdf:resource="http://purl.org/dc/dcmitype/StillImage" /><dc:title></dc:title></cc:Work></rdf:RDF></metadata><defs
     id="defs6" /><path
     style="fill:#32ac60"
     id="path8"
     d="M 230.44,531.14 C 156.12,477.22 105.18,409.12 74.7,322.98 47.06,244.88 35.97,150.23 40.79,33.63 l 0.02,-0.46 379.82,0 0.02,0.46 c 4.81,116.6 -6.28,211.24 -33.91,289.35 C 356.26,409.12 305.32,477.22 231,531.14 l -0.28,0.2 z" /><path
     id="path10"
     d="M 419.96,33.21 C 429.03,252.66 383.7,419.16 230.5,530.31 77.31,419.16 31.99,252.66 41.06,33.21 l 189.45,0 189.45,0 m 0.92,-0.95 -0.92,0 -189.45,0 -189.45,0 -0.92,0 -0.04,0.92 c -4.82,116.66 6.28,211.36 33.93,289.52 30.51,86.24 81.51,154.41 155.91,208.39 l 0.56,0.41 0.56,-0.41 C 305.46,477.11 356.46,408.94 386.97,322.7 414.62,244.54 425.72,149.84 420.9,33.18 l -0.04,-0.92 0,0 z" /><path
     d="m 238.35634,264.09448 30.76674,43.75912 c -2.75916,1.92666 -2.65868,6.14678 -0.69479,8.83039 1.73725,2.37382 5.26866,3.91985 8.17891,1.88771 3.97923,5.93212 4.74969,23.15856 -5.01785,24.3329 -4.27816,0.51436 -8.22927,-4.29983 -6.45059,-8.74777 2.3168,-5.79352 3.54879,-13.3814 -5.07263,-20.99476 -3.91028,-3.45308 -12.4544,-10.48325 -20.90238,-11.92005 11.04056,13.75078 14.3827,26.30372 11.3822,37.14396 -2.65194,9.58103 -0.0563,17.01154 3.47747,21.49897 4.54664,5.77364 16.36631,10.12883 24.87722,4.41558 10.12763,-6.7985 13.31941,-18.75358 11.71931,-31.64498 6.68842,16.75478 2.86276,25.18196 9.71596,35.22955 5.84033,8.56256 21.66358,11.58427 34.54505,17.45314 -0.14201,-10.80581 1.7046,-32.01423 -4.79956,-40.08412 -7.63215,-9.46942 -13.24924,-9.50757 -27.34889,-20.7618 11.87548,5.26499 25.49862,4.41647 34.93886,-3.30814 7.93329,-6.49152 7.18792,-19.06595 2.9785,-25.0899 -3.27169,-4.68198 -9.63202,-9.31833 -19.57047,-9.55487 -11.24466,-0.26759 -22.29167,-7.10202 -32.2556,-21.65185 -1.07148,8.50203 3.1829,18.71603 5.35553,23.45879 4.79016,10.45688 12.40964,11.47525 18.62586,10.93565 4.77245,-0.41428 8.23602,4.76178 6.50467,8.70763 -3.95288,9.00886 -20.21789,3.28233 -24.74331,-2.24441 2.78791,-2.19697 2.33088,-6.02479 0.56192,-8.37509 -1.9998,-2.65694 -5.53897,-2.48386 -8.18215,-0.40093 l -31.37089,-44.56626 c 8.683,3.44753 16.96695,0.25276 21.05629,-2.79979 -2.77608,-5.48979 -8.3422,-11.91131 -16.7687,-12.96786 l 50.42003,-17.73877 c 1.07109,3.19021 5.14851,4.28301 8.27677,3.15491 2.76716,-0.99794 5.24565,-3.9506 4.11591,-7.31555 6.81303,-2.14639 22.55939,3.85573 20.93379,13.55843 -0.71201,4.24974 -7.88767,6.90619 -11.65417,3.94622 -4.9059,-3.85544 -9.39683,-9.28494 -19.13107,-3.15822 -4.41502,2.7788 -14.45604,11.88204 -18.21512,19.58282 16.30462,-6.7184 26.95936,-6.94293 36.51482,-1.00939 8.4455,5.24427 18.41558,5.51375 23.71695,3.38765 6.82087,-2.73548 13.77511,-13.73706 10.69163,-23.513 -3.66918,-11.63294 -12.57519,-20.17344 -25.3951,-22.27079 17.96054,-1.69612 23.97829,4.17414 35.54986,0.42992 9.8613,-3.19084 15.79069,-18.1724 25.05155,-28.87811 -13.90005,-2.67656 -27.83004,-10.77352 -37.55038,-7.17603 -11.40612,4.2214 -12.49924,12.55679 -27.65579,22.34129 8.77097,-9.58221 11.98316,-21.73164 7.66483,-33.13953 -3.62899,-9.58684 -14.67662,-12.32729 -21.72706,-10.25403 -5.4798,1.61139 -11.89939,6.16534 -15.28679,15.5117 -3.83257,10.57474 -13.82759,18.87207 -30.79209,23.68701 7.71889,3.72173 18.75581,2.93945 23.94344,2.38932 11.43769,-1.21291 14.8282,-8.11205 16.29512,-14.17675 1.12623,-4.65612 7.13549,-6.29218 10.3251,-3.395 7.28229,6.61461 -3.32321,20.21121 -10.00287,22.74229 -1.19542,-3.34218 -4.96963,-4.12722 -7.76073,-3.1983 -3.15526,1.05019 -5.68143,4.4322 -4.54808,7.60087 l -50.42566,17.85233 c 5.65251,-5.29987 5.91117,-14.3362 4.69367,-20.36631 -6.15879,0.56712 -12.29192,2.98887 -17.42261,11.52137 l 0,-54.74239 c 3.36526,0 5.69893,-3.51761 5.62513,-6.84222 -0.0653,-2.9409 -2.0756,-6.23025 -5.62513,-6.23025 0.13363,-7.14187 9.3642,-21.70691 18.04495,-17.07772 3.80214,2.02756 4.28548,8.23678 0.28064,10.86531 -5.21638,3.42371 -10.57063,8.93966 -7.86068,20.11767 1.22911,5.06986 4.20956,15.72549 10.31347,21.74005 -1.17967,-17.59506 3.2668,-29.80059 11.93305,-36.97066 7.65955,-6.33719 9.78547,-13.91545 9.45723,-19.61783 -0.42232,-7.33681 -7.61984,-17.67449 -17.86882,-17.8628 -12.1958,-0.22409 -21.65714,7.75061 -27.72571,19.23622 4.10846,-17.56639 11.28123,-24.127415 11.41464,-36.288906 C 248.59144,74.714038 237.07671,60.03666 230.5,51.46154 c -6.57671,8.57512 -18.09144,23.252498 -17.97774,33.616574 0.13341,12.161491 7.30618,18.722516 11.41464,36.288906 -6.06857,-11.48561 -15.52991,-19.46031 -27.72571,-19.23622 -10.24898,0.18831 -17.4465,10.52599 -17.86882,17.8628 -0.32824,5.70238 1.79768,13.28064 9.45723,19.61783 8.66625,7.17007 13.11272,19.3756 11.93305,36.97066 6.10391,-6.01456 9.08436,-16.67019 10.31347,-21.74005 2.70995,-11.17801 -2.6443,-16.69396 -7.86068,-20.11767 -4.00484,-2.62853 -3.5215,-8.83775 0.28064,-10.86531 8.68075,-4.62919 17.91132,9.93585 18.04495,17.07772 -3.54953,0 -5.5598,3.28935 -5.62513,6.23025 -0.0738,3.32461 2.25987,6.84222 5.62513,6.84222 l 0,54.74239 c -5.13069,-8.5325 -11.26382,-10.95425 -17.42261,-11.52137 -1.2175,6.03011 -0.95884,15.06644 4.69367,20.36631 l -50.42566,-17.85233 c 1.13335,-3.16867 -1.39282,-6.55068 -4.54808,-7.60087 -2.7911,-0.92892 -6.56531,-0.14388 -7.76073,3.1983 -6.67966,-2.53108 -17.28516,-16.12768 -10.00287,-22.74229 3.18961,-2.89718 9.19887,-1.26112 10.3251,3.395 1.46692,6.0647 4.85743,12.96384 16.29512,14.17675 5.18763,0.55013 16.22455,1.33241 23.94344,-2.38932 -16.9645,-4.81494 -26.95952,-13.11227 -30.79209,-23.68701 -3.3874,-9.34636 -9.80699,-13.90031 -15.28679,-15.5117 -7.05044,-2.07326 -18.09807,0.66719 -21.72706,10.25403 -4.31833,11.40789 -1.10614,23.55732 7.66483,33.13953 -15.15655,-9.7845 -16.24967,-18.11989 -27.65579,-22.34129 -9.72034,-3.59749 -23.65033,4.49947 -37.55038,7.17603 9.26086,10.70571 15.19025,25.68727 25.05155,28.87811 11.57157,3.74422 17.58932,-2.12604 35.54986,-0.42992 -12.81991,2.09735 -21.72592,10.63785 -25.3951,22.27079 -3.08348,9.77594 3.87076,20.77752 10.69163,23.513 5.30137,2.1261 15.27145,1.85662 23.71695,-3.38765 9.55546,-5.93354 20.2102,-5.70901 36.51482,1.00939 -3.75908,-7.70078 -13.8001,-16.80402 -18.21512,-19.58282 -9.73424,-6.12672 -14.22517,-0.69722 -19.13107,3.15822 -3.7665,2.95997 -10.94216,0.30352 -11.65417,-3.94622 -1.6256,-9.7027 14.12076,-15.70482 20.93379,-13.55843 -1.12974,3.36495 1.34875,6.31761 4.11591,7.31555 3.12826,1.1281 7.20568,0.0353 8.27677,-3.15491 l 50.42003,17.73877 c -8.4265,1.05655 -13.99262,7.47807 -16.7687,12.96786 4.08934,3.05255 12.37329,6.24732 21.05629,2.79979 l -31.37089,44.56626 c -2.64318,-2.08293 -6.18235,-2.25601 -8.18215,0.40093 -1.76896,2.3503 -2.22599,6.17812 0.56192,8.37509 -4.52542,5.52674 -20.79043,11.25327 -24.74331,2.24441 -1.73135,-3.94585 1.73222,-9.12191 6.50467,-8.70763 6.21622,0.5396 13.8357,-0.47877 18.62586,-10.93565 2.17263,-4.74276 6.42701,-14.95676 5.35553,-23.45879 -9.96393,14.54983 -21.01094,21.38426 -32.2556,21.65185 -9.93845,0.23654 -16.29878,4.87289 -19.57047,9.55487 -4.20942,6.02395 -4.95479,18.59838 2.9785,25.0899 9.44024,7.72461 23.06338,8.57313 34.93886,3.30814 -14.09965,11.25423 -19.71674,11.29238 -27.34889,20.7618 -6.50416,8.06989 -4.65755,29.27831 -4.79956,40.08412 12.88147,-5.86887 28.70472,-8.89058 34.54505,-17.45314 6.8532,-10.04759 3.02754,-18.47477 9.71596,-35.22955 -1.6001,12.8914 1.59168,24.84648 11.71931,31.64498 8.51091,5.71325 20.33058,1.35806 24.87722,-4.41558 3.53377,-4.48743 6.12941,-11.91794 3.47747,-21.49897 -3.0005,-10.84024 0.34164,-23.39318 11.3822,-37.14396 -8.44798,1.4368 -16.9921,8.46697 -20.90238,11.92005 -8.62142,7.61336 -7.38943,15.20124 -5.07263,20.99476 1.77868,4.44794 -2.17243,9.26213 -6.45059,8.74777 -9.76754,-1.17434 -8.99708,-18.40078 -5.01785,-24.3329 2.91025,2.03214 6.44166,0.48611 8.17891,-1.88771 1.96389,-2.68361 2.06437,-6.90373 -0.69479,-8.83039 l 30.76674,-43.75912 c -1.53824,7.59431 2.90872,15.51965 7.85634,19.73019 4.94762,-4.21054 9.39458,-12.13588 7.85634,-19.73019 z"
     id="path4334"
     style="fill:#ffe000;fill-opacity:1;stroke:#000000;stroke-linecap:round;stroke-linejoin:round;stroke-opacity:1" /><circle
     r="10.657343"
     cy="237.31294"
     cx="230.5"
     id="path4437"
     style="opacity:0.98999999;fill:#32ac60;fill-opacity:1;fill-rule:evenodd;stroke:#000000;stroke-width:1;stroke-linecap:round;stroke-linejoin:round;stroke-miterlimit:4;stroke-dasharray:none;stroke-opacity:1" /></svg>