<?xml version="1.0" encoding="UTF-8" standalone="no"?>
<svg
   xmlns:dc="http://purl.org/dc/elements/1.1/"
   xmlns:cc="http://creativecommons.org/ns#"
   xmlns:rdf="http://www.w3.org/1999/02/22-rdf-syntax-ns#"
   xmlns:svg="http://www.w3.org/2000/svg"
   xmlns="http://www.w3.org/2000/svg"
   id="svg2"
   version="1.1"
   x="0"
   y="0"
   width="400"
   height="500"
   viewBox="30.5 31.5 400 500"
   enable-background="new 30.5 31.5 412 533"
   xml:space="preserve"><metadata
     id="metadata4"><rdf:RDF><cc:Work
         rdf:about=""><dc:format>
          
          
          image/svg+xml
        
        
        </dc:format><dc:type
           rdf:resource="http://purl.org/dc/dcmitype/StillImage" /><dc:title></dc:title></cc:Work></rdf:RDF></metadata><defs
     id="defs6" /><path
     style="fill:#e00e00;fill-opacity:1"
     id="path8"
     d="M 230.45,531.13 C 156.13,477.21 105.19,409.11 74.71,322.97 47.07,244.87 35.98,150.22 40.8,33.62 l 0.02,-0.46 379.82,0 0.02,0.46 c 4.81,116.6 -6.28,211.24 -33.91,289.35 -30.48,86.14 -81.42,154.24 -155.74,208.16 l -0.28,0.2 -0.28,-0.2 z" /><path
     id="path10"
     d="M 419.96,33.21 C 429.03,252.66 383.71,419.16 230.51,530.31 146.04,469.02 94.36,390.9 66.52,296.34 64.43,289.25 62.48,282.07 60.65,274.8 49.2,229.11 42.88,179.78 40.77,126.86 39.57,96.8 39.72,65.58 41.06,33.21 l 189.45,0 189.45,0 m 0.92,-0.95 -0.92,0 -189.45,0 -189.45,0 -0.92,0 -0.04,0.92 c -4.82,116.66 6.28,211.36 33.93,289.52 30.51,86.24 81.51,154.41 155.91,208.39 l 0.56,0.41 0.56,-0.41 C 305.46,477.11 356.46,408.94 386.97,322.7 414.62,244.54 425.72,149.84 420.9,33.18 l -0.04,-0.92 0,0 z" /><path
     id="path4351"
     d="m 191.28422,406.12696 c 1.25129,-6.17614 9.22382,-6.83431 12.71843,-10.3695 3.42154,-3.46127 4.94063,-9.43123 9.64741,-14.5625 3.96152,-4.3188 6.72991,-4.56173 6.76351,-9.93785 0.0211,-3.3712 -4.91218,-9.22731 -8.73051,-14.68045 3.72676,-5.32236 8.07247,-10.2605 8.30582,-16.29488 -9.74111,-2.55947 -17.63291,-10.86497 -21.11518,-18.75881 -3.73049,-8.45654 -6.48624,-25.80479 -6.48624,-43.97292 0,-14.68914 -3.03917,-27.698 -10.06797,-41.05005 l 48.18051,0 48.18051,0 c -7.0288,13.35205 -10.06797,26.36091 -10.06797,41.05005 0,18.16813 -2.75575,35.51638 -6.48624,43.97292 -3.48227,7.89384 -11.37407,16.19934 -21.11518,18.75881 0.23335,6.03438 4.57906,10.97252 8.30582,16.29488 -3.81833,5.45314 -8.75157,11.30925 -8.73051,14.68045 0.0336,5.37612 2.80199,5.61905 6.76351,9.93785 4.70678,5.13127 6.22587,11.10123 9.64741,14.5625 3.49461,3.53519 11.46714,4.19336 12.71843,10.3695 l -39.21578,0 z"
     style="fill:#ffffff;fill-rule:evenodd;stroke:#000000;stroke-width:1px;stroke-linecap:butt;stroke-linejoin:round;stroke-opacity:1" /><path
     style="fill:#ffffff;fill-rule:evenodd;stroke:#000000;stroke-width:1px;stroke-linecap:butt;stroke-linejoin:round;stroke-opacity:1"
     d="m 96.28422,261.12696 c 1.25129,-6.17614 9.22382,-6.83431 12.71843,-10.3695 3.42154,-3.46127 4.94063,-9.43123 9.64741,-14.5625 3.96152,-4.3188 6.72991,-4.56173 6.76351,-9.93785 0.0211,-3.3712 -4.91218,-9.22731 -8.73051,-14.68045 3.72676,-5.32236 8.07247,-10.2605 8.30582,-16.29488 -9.74111,-2.55947 -17.63291,-10.86497 -21.11518,-18.75881 -3.73049,-8.45654 -6.48624,-25.80479 -6.48624,-43.97292 0,-14.68914 -3.03917,-27.698 -10.06797,-41.05005 l 48.18051,0 48.18051,0 c -7.0288,13.35205 -10.06797,26.36091 -10.06797,41.05005 0,18.16813 -2.75575,35.51638 -6.48624,43.97292 -3.48227,7.89384 -11.37407,16.19934 -21.11518,18.75881 0.23335,6.03438 4.57906,10.97252 8.30582,16.29488 -3.81833,5.45314 -8.75157,11.30925 -8.73051,14.68045 0.0336,5.37612 2.80199,5.61905 6.76351,9.93785 4.70678,5.13127 6.22587,11.10123 9.64741,14.5625 3.49461,3.53519 11.46714,4.19336 12.71843,10.3695 l -39.21578,0 z"
     id="path4450" /><path
     id="path4452"
     d="m 286.28422,261.12696 c 1.25129,-6.17614 9.22382,-6.83431 12.71843,-10.3695 3.42154,-3.46127 4.94063,-9.43123 9.64741,-14.5625 3.96152,-4.3188 6.72991,-4.56173 6.76351,-9.93785 0.0211,-3.3712 -4.91218,-9.22731 -8.73051,-14.68045 3.72676,-5.32236 8.07247,-10.2605 8.30582,-16.29488 -9.74111,-2.55947 -17.63291,-10.86497 -21.11518,-18.75881 -3.73049,-8.45654 -6.48624,-25.80479 -6.48624,-43.97292 0,-14.68914 -3.03917,-27.698 -10.06797,-41.05005 l 48.18051,0 48.18051,0 c -7.0288,13.35205 -10.06797,26.36091 -10.06797,41.05005 0,18.16813 -2.75575,35.51638 -6.48624,43.97292 -3.48227,7.89384 -11.37407,16.19934 -21.11518,18.75881 0.23335,6.03438 4.57906,10.97252 8.30582,16.29488 -3.81833,5.45314 -8.75157,11.30925 -8.73051,14.68045 0.0336,5.37612 2.80199,5.61905 6.76351,9.93785 4.70678,5.13127 6.22587,11.10123 9.64741,14.5625 3.49461,3.53519 11.46714,4.19336 12.71843,10.3695 l -39.21578,0 z"
     style="fill:#ffffff;fill-rule:evenodd;stroke:#000000;stroke-width:1px;stroke-linecap:butt;stroke-linejoin:round;stroke-opacity:1" /></svg>