<?xml version="1.0" encoding="UTF-8" standalone="no"?>
<svg
   xmlns:dc="http://purl.org/dc/elements/1.1/"
   xmlns:cc="http://creativecommons.org/ns#"
   xmlns:rdf="http://www.w3.org/1999/02/22-rdf-syntax-ns#"
   xmlns:svg="http://www.w3.org/2000/svg"
   xmlns="http://www.w3.org/2000/svg"
   xml:space="preserve"
   enable-background="new 30.5 31.5 412 533"
   viewBox="30.5 31.5 400 500"
   height="500"
   width="400"
   y="0"
   x="0"
   version="1.1"
   id="svg2"><metadata
     id="metadata4"><rdf:RDF><cc:Work
         rdf:about=""><dc:format>
          
          
          
          
          
          image/svg+xml
        
        
        
        
        
        </dc:format><dc:type
           rdf:resource="http://purl.org/dc/dcmitype/StillImage" /><dc:title></dc:title></cc:Work></rdf:RDF></metadata><defs
     id="defs6" /><path
     d="M 230.44,531.14 C 156.12,477.22 105.18,409.12 74.7,322.98 47.06,244.88 35.97,150.23 40.79,33.63 l 0.02,-0.46 379.82,0 0.02,0.46 c 4.81,116.6 -6.28,211.24 -33.91,289.35 C 356.26,409.12 305.32,477.22 231,531.14 l -0.28,0.2 -0.28,-0.2 z"
     id="path8"
     style="fill:#e00e00;fill-opacity:1" /><path
     style="fill:#ffe000;fill-opacity:1;stroke:#000000;stroke-width:0.96399999;stroke-linecap:round;stroke-linejoin:round;stroke-miterlimit:4;stroke-dasharray:none;stroke-opacity:1"
     id="path3670"
     d="m 244.14964,122.30377 c -1.45203,0.27296 -5.10896,0.17214 -6.81503,-0.37923 -3.63639,-1.17522 -3.00881,-4.07237 -6.82513,-3.24627 -5.26363,1.13939 -9.46686,2.29882 -11.20602,5.1446 -3.62131,5.92562 -10.74374,3.29622 -14.87536,1.48866 -1.39578,-1.28686 -1.76351,-2.22878 -3.17384,-3.44178 -0.73096,-0.6287 -2.09692,0.24129 -2.71371,-0.64426 -2.92702,-4.20246 -0.11809,-8.98463 2.59237,-10.5193 -0.0725,-3.98129 -2.60575,-4.53544 -0.52098,-6.24588 l 27.39131,-22.473077 c 0.38343,-3.62478 -2.90643,-4.704298 -3.79472,-8.049238 -2.59057,-9.755045 7.47017,-11.571514 17.62194,-12.036973 11.77505,-0.539887 25.30256,0.210398 29.88651,-7.324032 4.93704,11.589639 -8.35009,12.679905 -9.1955,17.494553 15.26422,-3.555298 15.06933,12.601869 31.34652,7.567766 0.4268,4.221462 -1.02014,8.719346 -6.74328,8.678493 8.03603,1.790218 20.40751,4.974279 21.09905,19.409438 0.46872,9.78416 1.08956,13.21459 12.26877,12.4846 1.37826,-0.09 -0.22155,4.40714 -1.77544,5.91032 -2.29036,2.21562 -6.40138,3.30597 -9.85056,2.6134 3.01005,9.27886 -5.29621,15.29294 -2.75696,19.04755 1.34553,1.98953 3.16613,3.6374 8.14326,2.36132 -0.4273,7.38099 -7.51533,10.77489 -15.87092,6.82641 0.91364,4.42741 0.007,8.79509 -5.01038,14.72384 -4.03253,4.76498 0.42808,8.42881 1.90332,15.28767 0.66948,3.1126 1.24192,8.31299 -0.93578,10.85928 -3.37793,3.94966 -7.91008,5.36117 -6.50255,1.51196 1.58239,-4.32737 0.44507,-8.40084 -5.23598,-12.49976 -1.71154,3.3964 -4.21215,5.33829 -6.16723,7.60768 -3.20076,3.71534 -9.32291,6.94532 -10.05315,13.7945 -0.75268,7.05959 4.4338,12.3874 1.14226,11.75117 -10.19368,-1.97037 -13.32198,-15.42707 -10.80432,-21.56091 0.93824,-2.28587 -0.19626,-3.92538 -0.58126,-5.18429 -0.39185,-1.28133 -6.01967,2.22042 -6.56639,4.94781 -1.09755,5.47527 1.18499,12.08951 3.76812,18.96448 2.96877,7.90134 8.45312,24.42635 11.44242,25.52844 23.67097,8.72699 27.51306,25.76144 31.44457,26.35209 7.01724,1.05424 13.16315,-1.52956 12.0023,-4.71392 -5.09967,-13.98905 -4.31087,-17.79513 1.74749,-22.90551 4.79209,-4.04225 22.84153,-8.7435 34.63934,-5.50183 11.58362,3.18282 19.67084,10.37622 24.89487,19.00688 5.79245,9.56977 7.769,21.97775 7.13248,29.54203 -0.78332,9.30872 -1.77373,14.78189 -6.42148,21.32775 -11.38106,16.02901 -28.6832,29.17118 -33.01485,50.88937 -1.43707,7.20522 -1.0587,25.70819 -3.92814,24.25337 -9.52722,-4.83037 -11.46433,-20.77312 -11.51469,-26.71411 -0.0789,-9.31302 0.83444,-18.39451 3.43783,-26.8994 6.44143,-21.04317 18.65388,-39.12942 18.3684,-52.6447 -0.29709,-14.06526 -14.30948,-13.39147 -17.80836,-8.41885 -8.95218,12.72289 -10.98753,18.24434 -24.21377,14.78637 3.40601,15.09328 2.57245,31.39197 -1.05848,48.54843 -1.00241,4.73639 6.39368,9.63844 14.67347,14.21324 1.77771,0.98224 3.50673,5.85001 3.71916,11.03404 0.20401,4.97841 -1.07761,10.15402 -1.42179,11.54755 -0.96548,3.90909 -11.4551,20.94843 -22.14166,41.42746 -2.4072,4.61301 -3.29879,14.31639 -7.14498,14.25186 0,0 -0.24106,6.92475 -1.4803,9.55464 -1.18767,2.52047 -44.62905,1.93138 -44.67148,-0.14184 -0.27745,-13.5592 9.92993,-18.99768 19.6234,-24.70019 5.6409,-3.31845 11.13751,-7.31907 14.77125,-11.5135 6.13494,-7.08157 14.28887,-29.43118 13.11876,-31.95274 -1.09847,-2.36716 -7.19677,-11.57966 -8.99811,-12.53779 -9.06309,-4.82068 -15.65588,-5.73037 -23.75703,-9.9748 -9.67758,-5.07037 -16.42883,-11.60692 -20.47148,-15.30293 -1.22163,-1.16771 -2.56092,-1.86559 -3.82195,-2.95984 -0.3188,0.34714 -0.54612,0.65418 -0.79618,0.97807 -3.39793,4.40118 -4.02876,8.45392 -4.47903,13.95929 -0.28362,3.46772 4.36557,8.1202 6.05353,11.52171 1.42335,2.86829 1.14939,8.40845 0.41331,11.04501 -3.27828,11.74237 -41.18775,38.12306 -40.01772,42.53607 1.76035,6.63948 -0.85696,11.02379 -2.7715,10.2178 0,0 -0.0256,6.5134 -1.67783,7.89181 -4.08811,3.4106 -41.4964,3.33962 -41.70245,1.29383 -0.8552,-8.49092 7.52034,-19.77795 13.06076,-23.23298 l 20.13416,-12.55574 c 8.45498,-5.27256 20.77055,-22.68881 22.28598,-27.83151 1.25374,-4.25463 -4.88083,-13.0398 -7.80575,-17.89477 -6.76932,-11.23614 -15.88774,-15.85668 -16.14023,-21.88655 -0.32245,-7.70078 0.80489,-22.25157 10.74871,-30.4615 7.55088,-6.23425 11.94666,-9.09905 15.28853,-13.53241 1.62611,-2.15723 2.92409,-8.18685 1.3138,-10.86228 l -24.77732,-41.16655 c -1.32525,-2.20185 -8.07305,3.78074 -12.67947,3.74412 -5.8721,-0.0467 -18.42045,-23.15459 -19.16028,-27.34268 -1.3283,-7.51941 -6.27758,-14.21921 -7.61423,-13.97755 -2.73538,0.49454 -9.2243,16.73918 -10.5104,22.39069 3.4294,0.95494 8.27857,6.33197 5.61774,8.16871 0,0 3.62208,4.2362 4.39393,9.35862 0.44425,2.94829 -30.92597,23.79304 -31.62056,20.56298 -1.45422,-6.76259 -0.53644,-14.73813 0.42038,-21.43935 0.45146,-3.16188 1.55255,-5.27612 4.61625,-9.2027 1.57834,-2.02287 -3.22998,-4.19026 -0.53962,-10.93067 0.8911,-2.23255 16.74768,-28.76929 22.98905,-34.17874 1.55033,-1.3437 7.9075,-1.84193 9.73675,-0.33864 2.84174,2.33537 5.03865,6.58853 9.0588,12.43614 2.42459,3.52674 5.36938,14.34374 8.73919,12.90817 2.05688,-0.87624 -2.93194,-12.19107 -3.09464,-19.48704 -6.70539,-4.07592 -10.50391,-15.96077 -15.86096,-20.86414 -1.77667,-1.6262 -5.0636,-1.07836 -8.0261,-0.81959 -5.18213,0.45264 -13.54134,8.69056 -20.86686,15.37962 -1.36587,1.24719 1.58445,15.53121 -2.46255,15.77812 0.14961,1.43102 -0.23294,3.69026 -0.53182,5.97307 -0.31635,2.41625 -34.09596,10.41261 -34.92821,7.45035 -2.96977,-10.57046 7.84641,-19.32478 10.75897,-22.82996 6.04933,-7.2802 13.20268,-14.89652 21.48319,-20.57225 11.30605,-7.74952 20.76028,-17.38861 27.24028,-20.92271 6.00805,-3.27671 14.56381,-1.07808 14.88526,-0.61055 l 15.61234,22.70776 c 7.52671,-19.00596 41.20096,-18.23876 64.47364,-29.18402 z" /><path
     style="fill:none;stroke:#001a00;stroke-width:0.96755022;stroke-miterlimit:4;stroke-dasharray:none;stroke-opacity:1"
     id="path4228"
     d="m 231.98815,94.779908 c 0.28872,-5.156255 4.24903,-4.524222 6.02906,-3.151279 -0.11432,3.476647 -3.11774,4.522617 -6.02906,3.151279 z" /><path
     style="fill:none;stroke:#000000;stroke-width:0.96755022;stroke-linecap:round;stroke-linejoin:round;stroke-miterlimit:4;stroke-dasharray:none;stroke-opacity:1"
     id="path3788"
     d="m 244.07504,81.210467 c 2.96819,-3.643736 1.83093,-3.69537 -0.15021,-9.015536 -0.79298,-2.129479 1.7446,-6.31929 4.2021,-8.794546 2.74657,2.264382 4.99617,4.753182 5.34251,8.2495 0.4496,4.538812 -3.42702,7.613389 1.4925,9.639899" /><path
     style="fill:none;stroke:#000000;stroke-width:1;stroke-linecap:round;stroke-linejoin:miter;stroke-miterlimit:4;stroke-dasharray:none;stroke-opacity:1"
     id="path3812"
     d="m 204.67473,107.24358 c 1.52811,0.0186 1.36862,4.35632 -0.12553,3.85528" /><path
     d="M 419.96,33.21 C 429.03,252.66 383.7,419.16 230.5,530.31 77.31,419.16 31.99,252.66 41.06,33.21 l 189.45,0 189.45,0 m 0.92,-0.95 -0.92,0 -189.45,0 -189.45,0 -0.92,0 -0.04,0.92 c -4.82,116.66 6.28,211.36 33.93,289.52 30.51,86.24 81.51,154.41 155.91,208.39 l 0.56,0.41 0.56,-0.41 C 305.46,477.11 356.46,408.94 386.97,322.7 414.62,244.54 425.72,149.84 420.9,33.18 l -0.04,-0.92 0,0 z"
     id="path10" /><path
     id="path4387"
     d="m 224.59611,94.019701 c 3.87866,-0.08444 4.53335,-3.478562 6.32685,-6.483921 1.15967,-1.943245 5.20667,-2.729071 8.66179,-0.22741"
     style="fill:none;fill-rule:evenodd;stroke:#000000;stroke-width:1px;stroke-linecap:round;stroke-linejoin:miter;stroke-opacity:1" /><path
     id="path4393"
     d="m 231.98815,94.779908 -2.63818,1.756542"
     style="fill:none;fill-rule:evenodd;stroke:#000000;stroke-width:1px;stroke-linecap:round;stroke-linejoin:miter;stroke-opacity:1" /><path
     style="fill:none;fill-rule:evenodd;stroke:#000000;stroke-width:1px;stroke-linecap:round;stroke-linejoin:miter;stroke-opacity:1"
     d="m 240.65539,89.872087 -2.63818,1.756542"
     id="path4395" /><path
     id="path4397"
     d="m 288.17271,422.08483 c -2.75314,-0.21666 -4.25009,-6.3026 -6.89654,-8.00586"
     style="fill:none;fill-rule:evenodd;stroke:#000000;stroke-width:1px;stroke-linecap:round;stroke-linejoin:miter;stroke-opacity:1" /><path
     id="path4399"
     d="m 190.88818,412.81379 c -2.90195,-0.99463 -8.46831,-5.55116 -9.87822,-8.48175"
     style="fill:none;fill-rule:evenodd;stroke:#000000;stroke-width:1px;stroke-linecap:round;stroke-linejoin:miter;stroke-opacity:1" /><path
     id="path4401"
     d="m 137.2699,215.55843 c -1.96453,1.1158 -4.72563,-0.28619 -7.28297,-1.41858"
     style="fill:none;fill-rule:evenodd;stroke:#000000;stroke-width:1px;stroke-linecap:round;stroke-linejoin:miter;stroke-opacity:1" /><path
     id="path4403"
     d="m 114.75296,184.72121 c -1.8576,-0.4085 -3.57327,-2.9486 -4.00562,-5.077"
     style="fill:none;fill-rule:evenodd;stroke:#000000;stroke-width:1px;stroke-linecap:round;stroke-linejoin:miter;stroke-opacity:1" /><path
     id="path4405"
     d="m 169.27297,155.91692 c -3.45285,5.59551 -6.7497,13.82669 -7.30354,19.33028"
     style="fill:none;fill-rule:evenodd;stroke:#000000;stroke-width:1px;stroke-linecap:butt;stroke-linejoin:miter;stroke-opacity:1" /><path
     id="path4407"
     d="m 244.14964,122.30377 c 9.55435,-3.05449 14.6616,-10.35572 15.59853,-17.41425"
     style="fill:none;fill-rule:evenodd;stroke:#000000;stroke-width:1px;stroke-linecap:round;stroke-linejoin:miter;stroke-opacity:1" /><path
     id="path4409"
     d="m 201.25426,121.86975 c 3.36192,-3.88997 12.11247,-6.75259 16.03122,-5.70769 2.5369,0.67644 -5.86621,3.92333 -12.85738,9.14947"
     style="fill:none;fill-rule:evenodd;stroke:#000000;stroke-width:1px;stroke-linecap:round;stroke-linejoin:round;stroke-opacity:1" /><path
     id="path4411"
     d="m 262.52148,72.071543 -4.29891,0.949774"
     style="fill:none;fill-rule:evenodd;stroke:#000000;stroke-width:1px;stroke-linecap:round;stroke-linejoin:miter;stroke-opacity:1" /><path
     id="path4413"
     d="m 287.12472,88.317802 c -1.58918,0.02979 -5.02976,0.11086 -8.19288,-1.233367"
     style="fill:none;fill-rule:evenodd;stroke:#000000;stroke-width:1px;stroke-linecap:round;stroke-linejoin:miter;stroke-opacity:1" /><path
     id="path4415"
     d="m 308.86654,128.73556 c -7.96538,-1.95334 -8.35466,-10.34473 -14.36846,-14.77715"
     style="fill:none;fill-rule:evenodd;stroke:#000000;stroke-width:1px;stroke-linecap:round;stroke-linejoin:miter;stroke-opacity:1" /><path
     id="path4417"
     d="m 298.38192,156.97084 c -4.06587,-2.48022 -9.44146,-5.59744 -8.96919,-11.99178"
     style="fill:none;fill-rule:evenodd;stroke:#000000;stroke-width:1px;stroke-linecap:round;stroke-linejoin:miter;stroke-opacity:1" /><path
     id="path4419"
     d="m 282.60055,186.85383 c -12.26202,-8.3101 0.74373,-23.12349 0.0317,-27.8053"
     style="fill:none;fill-rule:evenodd;stroke:#000000;stroke-width:1px;stroke-linecap:round;stroke-linejoin:miter;stroke-opacity:1" /><path
     id="path4421"
     d="m 256.13685,193.26198 c -1.90588,-8.05096 9.26106,-8.2915 10.47655,-14.7196"
     style="fill:none;fill-rule:evenodd;stroke:#000000;stroke-width:1px;stroke-linecap:round;stroke-linejoin:miter;stroke-opacity:1" /><path
     id="path4423"
     d="m 232.48577,322.55584 c -4.48335,-4.2486 -8.29189,-8.79243 -10.89314,-13.86445"
     style="fill:none;fill-rule:evenodd;stroke:#000000;stroke-width:1px;stroke-linecap:round;stroke-linejoin:miter;stroke-opacity:1" /></svg>