<svg xmlns:dc="http://purl.org/dc/elements/1.1/" xmlns:cc="http://creativecommons.org/ns#" xmlns:rdf="http://www.w3.org/1999/02/22-rdf-syntax-ns#" xmlns:svg="http://www.w3.org/2000/svg" xmlns="http://www.w3.org/2000/svg" xml:space="preserve" enable-background="new 30.5 31.5 412 533" viewBox="30.5 31.5 420 500" height="500" width="420" y="0" x="0" version="1.1" id="svg2">
  <metadata id="metadata4">
    <rdf:RDF>
      <cc:Work rdf:about="">
        <dc:format>
          
          
          
          
          
          image/svg+xml
        
        
        
        
        
        </dc:format>
        <dc:type rdf:resource="http://purl.org/dc/dcmitype/StillImage"/>
      </cc:Work>
    </rdf:RDF>
  </metadata>
  <defs id="defs6"/>
  <path d="m440 32.7c2.09 102.46-3.38 187.49-43.93 296.59C368.02 404.77 321.86 474.06 240.5 530.88 159.14 474.06 112.98 404.77 84.93 329.29 44.38 220.19 38.91 135.16 41 32.7c133 0.29 266 0 399 0z" id="path4218" style="fill-rule:evenodd;fill:#ffe000"/>
  <path d="m413.52 276.5-13.52 0 0-50-29 0 0-50-29 0 0-50-29 0 0 50-29 0 0 50-29 0 0 50c-9.67 0-19.33 0-29 0l0-50-29 0 0-50-29 0 0-50-29 0 0 50-29 0 0 50-29 0 0 50-13.52 0C92.44 361.44 131.23 455.02 240.5 530.79 349.77 455.02 388.56 361.44 413.52 276.5Z" id="path4244" style="fill-rule:evenodd;fill:#000"/>
  <path id="path4224" d="m440 32.7c2.09 102.46-3.38 187.49-43.93 296.59C368.02 404.77 321.86 474.06 240.5 530.88 159.14 474.06 112.98 404.77 84.93 329.29 44.38 220.19 38.91 135.16 41 32.7c133 0.29 266 0 399 0z" style="fill:none;stroke:#000"/>
</svg>
