<?xml version="1.0" encoding="UTF-8" standalone="no"?>
<svg
   xmlns:dc="http://purl.org/dc/elements/1.1/"
   xmlns:cc="http://creativecommons.org/ns#"
   xmlns:rdf="http://www.w3.org/1999/02/22-rdf-syntax-ns#"
   xmlns:svg="http://www.w3.org/2000/svg"
   xmlns="http://www.w3.org/2000/svg"
   xml:space="preserve"
   enable-background="new 30.5 31.5 412 533"
   viewBox="30.5 31.5 400 500"
   height="500"
   width="400"
   y="0"
   x="0"
   version="1.1"
   id="svg2"><metadata
     id="metadata4"><rdf:RDF><cc:Work
         rdf:about=""><dc:format>
          
          
          
          image/svg+xml
        
        
        
        </dc:format><dc:type
           rdf:resource="http://purl.org/dc/dcmitype/StillImage" /><dc:title></dc:title></cc:Work></rdf:RDF></metadata><defs
     id="defs6" /><path
     style="fill:#32ac60"
     d="M 230.44,531.14 C 156.12,477.22 105.18,409.12 74.7,322.98 47.06,244.88 35.97,150.23 40.79,33.63 l 0.02,-0.46 379.82,0 0.02,0.46 c 4.81,116.6 -6.28,211.24 -33.91,289.35 C 356.26,409.12 305.32,477.22 231,531.14 l -0.28,0.2 -0.28,-0.2 z"
     id="path8" /><path
     style="fill:#ffffff;fill-rule:evenodd;stroke:none;stroke-width:1px;stroke-linecap:butt;stroke-linejoin:round;stroke-opacity:1"
     d="M 329.05119,32.750948 40.67815,32.937251 c -3.17721,73.155169 -0.29201,143.194159 12.07818,208.357679 20.18432,69.07781 70.62469,109.11623 123.83127,101.62791 -46.01176,-25.91827 -65.7117,-71.09698 -63.07796,-124.63763 20.84756,36.22274 62.55375,72.82906 111.39954,70.66619 -47.55469,-36.71879 -68.05397,-83.47154 -58.93992,-131.45764 26.40211,49.49194 69.34265,82.70381 118.18844,78.68943 -48.48046,-37.64454 -69.90549,-78.22557 -60.79144,-126.21167 26.40211,49.49194 63.17093,75.29774 112.01672,73.13487 C 287.5197,148.23912 270.10628,106.11516 279.22033,58.129062 305.62244,107.621 344.85995,134.96974 391.85422,130.95535 358.17103,105.37832 333.02488,75.492609 329.05119,32.750948 Z"
     id="path4468" /><path
     id="path4452"
     d="m 52.858613,241.32903 c 20.18432,69.07781 70.522407,109.08213 123.728987,101.59381 -46.01176,-25.91827 -65.7117,-71.09698 -63.07796,-124.63763 20.84756,36.22274 62.55375,72.82906 111.39954,70.66619 -47.55469,-36.71879 -68.05397,-83.47154 -58.93992,-131.45764 26.40211,49.49194 69.34265,82.70381 118.18844,78.68943 -48.48046,-37.64454 -69.90549,-78.22557 -60.79144,-126.21167 26.40211,49.49194 63.17093,75.29774 112.01672,73.13487 C 287.5197,148.23912 270.10628,106.11516 279.22033,58.129062 305.62244,107.621 344.85995,134.96974 391.85422,130.95535 358.17103,105.37832 333.02488,75.492609 329.05119,32.750948"
     style="fill:none;fill-rule:evenodd;stroke:#000000;stroke-width:1px;stroke-linecap:round;stroke-linejoin:round;stroke-opacity:1" /><path
     d="M 419.96,33.21 C 429.03,252.66 383.7,419.16 230.5,530.31 77.31,419.16 31.99,252.66 41.06,33.21 l 189.45,0 189.45,0 m 0.92,-0.95 -0.92,0 -189.45,0 -189.45,0 -0.92,0 -0.04,0.92 c -4.82,116.66 6.28,211.36 33.93,289.52 30.51,86.24 81.51,154.41 155.91,208.39 l 0.56,0.41 0.56,-0.41 C 305.46,477.11 356.46,408.94 386.97,322.7 414.62,244.54 425.72,149.84 420.9,33.18 l -0.04,-0.92 0,0 z"
     id="path10" /><path
     id="path4470"
     d="m 53.350297,241.23099 -0.340947,-1.37061 0.197749,1.70474 z"
     style="fill:#000000;fill-rule:evenodd;stroke:none;stroke-width:1px;stroke-linecap:butt;stroke-linejoin:miter;stroke-opacity:1;fill-opacity:1" /></svg>