<?xml version="1.0" encoding="UTF-8" standalone="no"?>
<svg
   xmlns:dc="http://purl.org/dc/elements/1.1/"
   xmlns:cc="http://creativecommons.org/ns#"
   xmlns:rdf="http://www.w3.org/1999/02/22-rdf-syntax-ns#"
   xmlns:svg="http://www.w3.org/2000/svg"
   xmlns="http://www.w3.org/2000/svg"
   xml:space="preserve"
   enable-background="new 30.5 31.5 412 533"
   viewBox="30.5 31.5 420 500"
   height="500"
   width="420"
   y="0"
   x="0"
   version="1.1"
   id="svg2"><metadata
     id="metadata4"><rdf:RDF><cc:Work
         rdf:about=""><dc:format>
          
          
          
          
          image/svg+xml
        
        
        
        
        </dc:format><dc:type
           rdf:resource="http://purl.org/dc/dcmitype/StillImage" /><dc:title></dc:title></cc:Work></rdf:RDF></metadata><defs
     id="defs6" /><path
     style="fill:#ffffff;stroke:#000000"
     id="path4224"
     d="m 41.000005,32.7 c -2.09,102.46 3.38,187.49 43.93,296.59 28.049985,75.48 74.209985,144.77 155.569985,201.59 81.36,-56.82 127.52,-126.11 155.57001,-201.59 40.55,-109.1 46.02,-194.13 43.93,-296.59 -133,0.29 -266,0 -398.999995,0 z" /><path
     style="fill:#000000;stroke:none;stroke-linecap:round;stroke-linejoin:round;stroke-opacity:1"
     id="path2827"
     d="m 215.17166,384.21257 c -8.53444,-8.86978 -22.46878,-1.46432 -28.29003,-27.82843 -2.77382,-12.56247 -7.87358,-7.69452 -15.53004,-31.24137 -1.81663,2.09594 -2.85212,5.24196 -2.518,9.04614 -3.62283,-1.79648 -6.07724,-6.22131 -8.02865,-9.96667 -1.96517,2.82469 -2.15199,6.92745 -1.95006,11.08577 -7.98082,-6.55598 -10.2088,-14.72831 -11.09783,-21.91588 -2.24817,2.5839 -3.02109,6.37111 -3.26408,10.07198 -4.66993,-6.31331 -8.12124,-13.15975 -9.97872,-20.70352 -1.9266,1.11501 -4.06452,4.71781 -5.21588,8.09754 -5.68606,-4.85416 -7.59927,-14.78124 -7.65387,-22.17965 -3.06541,3.92497 -3.7224,9.45556 -4.19666,15.10796 -7.70059,-7.11597 -7.82234,-16.55072 -7.27421,-25.55299 -3.55871,1.89729 -7.6959,5.10327 -10.16523,9.04614 -1.503905,-12.51031 1.19373,-23.41779 5.22251,-34.13283 -3.94502,1.0297 -8.520565,4.37121 -12.123685,7.92702 -0.41626,-10.71846 1.87838,-20.32791 5.31577,-29.46987 -3.42851,1.7919 -7.23546,6.2715 -10.44502,10.81805 0.008,-11.59957 3.78573,-21.44033 9.04613,-30.58897 -3.33969,1.00834 -8.09894,4.05981 -11.19109,6.52813 1.95155,-8.47153 5.9813,-15.96509 10.91132,-23.035 -3.62351,0.87384 -8.07944,3.20946 -11.65739,5.96859 3.9338,-14.4373 14.36652,-20.64023 24.392625,-28.8124 C 74.493585,146.3687 79.256295,107.47686 97.972265,91.8794 111.34166,80.737655 131.71013,81.333036 152.9355,107.48127 c 0,0 18.44304,-14.433906 39.18846,-16.603108 20.1744,-2.109495 33.28851,1.168034 48.37604,1.001238 15.08753,0.166796 28.20164,-3.110733 48.37604,-1.001238 20.74542,2.169202 39.18846,16.603108 39.18846,16.603108 21.22536,-26.148234 41.59383,-26.743615 54.96324,-15.60187 18.71597,15.59746 23.47868,54.4893 -11.50732,80.60291 10.02612,8.17217 20.45884,14.3751 24.39264,28.8124 -3.57796,-2.75913 -8.03388,-5.09475 -11.65739,-5.96859 4.93002,7.06991 8.95977,14.56347 10.91131,23.035 -3.09214,-2.46832 -7.85139,-5.51979 -11.19109,-6.52813 5.26041,9.14864 9.03771,18.9894 9.04614,30.58897 -3.20956,-4.54655 -7.01651,-9.02615 -10.44502,-10.81805 3.43739,9.14196 5.73202,18.75141 5.31577,29.46987 -3.60312,-3.55581 -8.17869,-6.89732 -12.1237,-7.92702 4.02877,10.71504 6.72643,21.62252 5.22251,34.13283 -2.46934,-3.94287 -6.60653,-7.14885 -10.16524,-9.04614 0.54813,9.00227 0.42638,18.43702 -7.27421,25.55299 -0.47426,-5.6524 -1.13125,-11.18299 -4.19666,-15.10796 -0.0546,7.39841 -1.96781,17.32549 -7.65387,22.17965 -1.15136,-3.37973 -3.28928,-6.98253 -5.21588,-8.09754 -1.85747,7.54377 -5.30879,14.39021 -9.97872,20.70352 -0.24299,-3.70087 -1.0159,-7.48808 -3.26408,-10.07198 -0.88902,7.18757 -3.11701,15.3599 -11.09782,21.91588 0.20193,-4.15832 0.0151,-8.26108 -1.95007,-11.08577 -1.95141,3.74536 -4.40582,8.17019 -8.02865,9.96667 0.33412,-3.80418 -0.70137,-6.9502 -2.518,-9.04614 -7.65646,23.54685 -12.75622,18.6789 -15.53004,31.24137 -5.82125,26.36411 -19.75559,18.95865 -28.29003,27.82843 l -25.32833,2.50461 z" /><path
     style="fill:#ffffff;fill-opacity:1;stroke:none;stroke-linecap:round;stroke-linejoin:round;stroke-opacity:1"
     id="path3632"
     d="m 213.67029,345.91912 c -5.23441,-4.86229 -8.78613,-10.3901 -11.00824,-15.43647 -1.67894,4.47629 -1.58235,8.64913 -1.14742,14.24453 -14.90209,-11.27556 -15.78096,-64.29003 -5.59986,-58.35755 7.22772,4.21156 13.69206,7.4698 19.73591,9.85501 8.70941,3.43719 16.59478,5.02427 24.84932,5.06758 8.25454,-0.0433 16.13991,-1.63039 24.84932,-5.06758 6.04385,-2.38521 12.50819,-5.64345 19.73591,-9.85501 10.1811,-5.93248 9.30222,47.08199 -5.59987,58.35755 0.43493,-5.5954 0.53152,-9.76824 -1.14742,-14.24453 -2.2221,5.04637 -5.77383,10.57418 -11.00824,15.43647 -6.21603,5.77412 -17.53183,8.39124 -26.8297,8.5304 -9.29788,-0.13916 -20.61368,-2.75628 -26.82971,-8.5304 z" /><path
     style="fill:#000000;stroke:none;stroke-linecap:round;stroke-linejoin:round;stroke-opacity:1"
     id="path3634"
     d="m 197.74934,289.72442 c -3.47852,16.84207 5.45932,31.24829 9.04071,35.60487 0.44898,-7.42419 1.34055,-16.35712 5.31576,-19.95744 0.045,2.516 3.50644,9.65568 6.58234,10.55545 0.2894,-3.8219 2.39852,-7.66614 5.12229,-8.94815 -0.30529,2.75951 1.8329,7.07149 4.42921,8.27815 0.718,-2.04908 2.09158,-4.4006 4.41565,-5.50647 0.96341,2.7591 2.52974,4.73644 4.62629,5.63013 0.94283,-2.36844 1.9083,-3.75234 3.21841,-4.45023 1.31011,0.69789 2.27558,2.08179 3.21841,4.45023 2.09655,-0.89369 3.66288,-2.87103 4.62629,-5.63013 2.32407,1.10587 3.69765,3.45739 4.41565,5.50647 2.59631,-1.20666 4.73451,-5.51864 4.42921,-8.27815 2.72377,1.28201 4.8329,5.12625 5.1223,8.94815 3.0759,-0.89977 6.53733,-8.03945 6.58233,-10.55545 3.97522,3.60032 4.86678,12.53325 5.31577,19.95744 3.58139,-4.35658 12.51923,-18.7628 9.0407,-35.60487 -18.53108,10.11036 -28.56732,13.23299 -42.75065,13.5882 -14.18333,-0.35521 -24.21957,-3.47784 -42.75065,-13.5882 z" /><path
     style="fill:#e00e00;fill-opacity:1;stroke:#00000f;stroke-opacity:1"
     id="path3658"
     d="m 212.00634,346.22875 c 2.41395,-10.18617 16.50909,-18.40635 28.49366,-8.50686 11.98456,-9.89949 26.0797,-1.67931 28.49365,8.50686 8.03077,33.88762 -6.9662,54.63242 -28.49365,54.3401 -21.52745,0.29232 -36.52443,-20.45248 -28.49366,-54.3401 z" /><path
     id="path4370"
     d="m 197.48993,200.92671 c -8.17968,-8.71283 -22.19206,-12.70254 -28.53713,-14.75872"
     style="fill:none;fill-rule:evenodd;stroke:#ffffff;stroke-width:3.5;stroke-linecap:round;stroke-linejoin:miter;stroke-miterlimit:4;stroke-dasharray:none;stroke-opacity:1" /><path
     id="path4372"
     d="m 181.91432,191.83186 c -3.6486,3.65577 -3.43234,10.05377 0.70798,13.56058 5.26527,4.45963 13.77969,-1.00869 14.86763,-4.46573"
     style="fill:none;fill-rule:evenodd;stroke:#ffffff;stroke-width:3.5;stroke-linecap:round;stroke-linejoin:round;stroke-miterlimit:4;stroke-dasharray:none;stroke-opacity:1" /><path
     style="fill:none;fill-rule:evenodd;stroke:#ffffff;stroke-width:3.5;stroke-linecap:round;stroke-linejoin:miter;stroke-miterlimit:4;stroke-dasharray:none;stroke-opacity:1"
     d="m 283.51005,200.92671 c 8.17968,-8.71283 22.19208,-12.70254 28.53714,-14.75872"
     id="path4390" /><path
     style="fill:none;fill-rule:evenodd;stroke:#ffffff;stroke-width:3.5;stroke-linecap:round;stroke-linejoin:round;stroke-miterlimit:4;stroke-dasharray:none;stroke-opacity:1"
     d="m 299.08567,191.83186 c 3.6486,3.65577 3.43234,10.05377 -0.70799,13.56058 -5.26526,4.45963 -13.77969,-1.00869 -14.86763,-4.46573"
     id="path4392" /><path
     style="fill:none;stroke:#ffffff;stroke-width:3.5;stroke-linecap:round;stroke-linejoin:round;stroke-miterlimit:4;stroke-dasharray:none;stroke-opacity:1"
     id="path4394"
     d="m 250.73918,270.85207 c -0.39556,-12.54285 10.90712,2.23101 15.94677,2.49841 3.10706,0.16487 5.92111,-3.10514 6.00815,-10.5919 0.16625,-14.30251 -17.36272,-20.01657 -32.1941,-19.87156 -14.83138,-0.14501 -32.36035,5.56905 -32.1941,19.87156 0.087,7.48676 2.90108,10.75677 6.00815,10.5919 5.03965,-0.2674 16.34233,-15.04126 15.94677,-2.49841" /></svg>