<?xml version="1.0" encoding="UTF-8" standalone="no"?>
<svg
   xmlns:dc="http://purl.org/dc/elements/1.1/"
   xmlns:cc="http://creativecommons.org/ns#"
   xmlns:rdf="http://www.w3.org/1999/02/22-rdf-syntax-ns#"
   xmlns:svg="http://www.w3.org/2000/svg"
   xmlns="http://www.w3.org/2000/svg"
   version="1"
   width="400"
   height="500"
   id="svg2">
  <metadata
     id="metadata51">
    <rdf:RDF>
      <cc:Work
         rdf:about="">
        <dc:format>
          
          image/svg+xml
        
        </dc:format>
        <dc:type
           rdf:resource="http://purl.org/dc/dcmitype/StillImage" />
        <dc:title></dc:title>
      </cc:Work>
    </rdf:RDF>
  </metadata>
  <defs
     id="defs4" />
  <path
     id="path4478"
     d="m 397.5,1.5 0,394.04369 c 0,53.5414 -31.83096,64.7603 -66.96876,66.78922 -38.93743,2.24833 -70.31147,-1.15917 -105.19845,9.81313 C 206.13435,478.18413 201.33214,489.1245 200,498.5 c -1.33214,-9.3755 -6.13435,-20.31587 -25.33279,-26.35396 -34.88698,-10.9723 -66.26102,-7.5648 -105.198454,-9.81313 -35.1378,-2.02892 -66.96876,-13.24782 -66.96876,-66.78922 L 2.499996,1.5 200,1.5 Z"
     style="fill:#0085ca;fill-opacity:1;fill-rule:evenodd;stroke:none;stroke-width:1px;stroke-linecap:butt;stroke-linejoin:miter;stroke-opacity:1" />
  <path
     id="path4454"
     d="m 180.03459,227.73351 c 1.24458,-37.31059 -2.85693,-55.55741 -12.37575,-75.68748 -5.45629,-11.53879 -18.20685,-22.92957 -30.12525,-26.59958 -14.72692,-4.53484 -30.55873,-2.2112 -42.696264,1.7178 -27.18574,8.80021 -40.91754,31.0011 -44.43753,53.7352 -1.48582,16.72547 -1.29435,42.00363 4.44432,54.65032 3.92083,8.22387 8.82007,9.74343 13.41791,7.03464 2.3997,2.30022 5.92565,5.7854 10.29142,1.95406 3.77591,4.71661 8.12217,5.09711 10.55195,2.34488 3.04077,4.0413 9.94159,3.89489 9.11898,-1.17244 -2.17822,-13.41794 -4.40443,-36.84904 0.26054,-56.79818 4.324944,-18.49511 15.245034,-36.61738 36.475894,-35.69426 24.91476,1.0833 39.61279,33.03244 38.03914,75.03612 z"
     style="fill:#ffffff;fill-rule:evenodd;stroke:#000000;stroke-width:1.5;stroke-linecap:butt;stroke-linejoin:miter;stroke-miterlimit:4;stroke-dasharray:none;stroke-opacity:1" />
  <path
     id="path4446"
     d="m 6.774096,312.99591 54.32303,6.31814 21.29931,-14.72062 c 1.22754,-2.99131 2.45302,-7.14549 2.88405,-10.49102 0.52853,-4.10226 0.61993,-10.86824 -1.64647,-14.39075 -0.63486,-0.98672 -2.7609,-4.21963 -10.29142,-7.29519 -16.61359,-6.78521 -25.39838,-8.78968 -53.08545,-11.39871 -3.39377,-0.31981 -8.65785,6.23149 -12.70143,16.8701 -3.30201,8.68756 -4.64764,22.63949 -0.78162,35.10805 z"
     style="fill:#ffcc00;fill-opacity:1;fill-rule:evenodd;stroke:#000000;stroke-width:1.5;stroke-linecap:butt;stroke-linejoin:miter;stroke-miterlimit:4;stroke-dasharray:none;stroke-opacity:1" />
  <path
     id="path4452"
     d="m 97.703286,301.988 c 3.209914,-19.95598 10.044864,-32.71938 19.019574,-43.77107 14.6493,-18.03953 31.58753,-26.16004 47.93975,-29.96234 21.4174,-4.98008 44.82646,-0.50956 64.61444,11.20331 18.26689,10.8125 34.7258,30.80347 54.19275,31.78613 26.23424,1.32426 31.33662,-38.12158 22.92771,-55.23492 -7.04937,-14.3465 -16.6307,-35.49443 -27.09638,-55.75601 -11.4501,2.51346 -22.51672,0.91535 -33.34939,-5.47138 -8.29372,-4.88981 -13.47883,-15.49781 -14.32981,-23.70933 9.18082,5.92006 19.01471,6.37184 29.44125,-3.12651 7.61987,-6.94154 15.00648,-4.08784 22.14608,-3.64759 4.3088,-7.8655 10.36198,-18.23249 22.92771,-15.11144 9.19174,2.28302 15.22024,-5.06055 21.10391,-15.893069 0.75337,13.287649 1.79208,26.404879 -5.21084,39.862939 -6.10464,11.73176 -17.63555,18.30055 -15.63253,22.40662 9.11052,18.67604 23.75919,25.63091 38.56023,41.4262 27.47715,29.32291 21.33358,73.25197 -2.08434,103.9563 l -137.04514,32.8283 z"
     style="fill:#000000;fill-rule:evenodd;stroke:#000000;stroke-width:1px;stroke-linecap:butt;stroke-linejoin:miter;stroke-opacity:1" />
  <path
     id="path4456"
     d="m 68.262026,242.58441 c -7.96654,-12.94694 -6.88399,-30.66122 -6.51355,-44.81325"
     style="fill:none;fill-rule:evenodd;stroke:#000000;stroke-width:1.5;stroke-linecap:round;stroke-linejoin:round;stroke-miterlimit:4;stroke-dasharray:none;stroke-opacity:1" />
  <path
     id="path4458"
     d="m 78.553446,244.53847 c -6.20255,-9.77033 -6.35691,-29.83207 -5.14571,-44.94351"
     style="fill:none;fill-rule:evenodd;stroke:#000000;stroke-width:1.5;stroke-linecap:round;stroke-linejoin:round;stroke-miterlimit:4;stroke-dasharray:none;stroke-opacity:1" />
  <path
     id="path4460"
     d="m 89.105396,246.88335 c -7.45473,-13.83398 -5.38453,-30.17946 -4.88516,-44.68297"
     style="fill:none;fill-rule:evenodd;stroke:#000000;stroke-width:1.5;stroke-linecap:round;stroke-linejoin:round;stroke-miterlimit:4;stroke-dasharray:none;stroke-opacity:1" />
  <path
     id="path4462"
     d="m 4.233806,301.46692 c 5.55127,2.56034 11.41162,4.56896 17.13065,5.73193"
     style="fill:none;fill-rule:evenodd;stroke:#000000;stroke-width:1.5;stroke-linecap:butt;stroke-linejoin:miter;stroke-miterlimit:4;stroke-dasharray:none;stroke-opacity:1" />
  <path
     id="path4464"
     d="m 4.168676,293.9112 c 8.77837,3.79459 21.39195,7.42418 29.50639,9.57492"
     style="fill:none;fill-rule:evenodd;stroke:#000000;stroke-width:1.5;stroke-linecap:butt;stroke-linejoin:miter;stroke-miterlimit:4;stroke-dasharray:none;stroke-opacity:1" />
  <path
     id="path4466"
     d="m 5.731926,284.79222 c 17.630881,4.42922 35.268185,8.85843 52.49923,13.28765"
     style="fill:none;fill-rule:evenodd;stroke:#000000;stroke-width:1.5;stroke-linecap:butt;stroke-linejoin:miter;stroke-miterlimit:4;stroke-dasharray:none;stroke-opacity:1" />
  <path
     id="path4468"
     d="m 8.597886,275.15217 c 17.488605,3.48248 35.572861,7.57708 61.09713,15.89307"
     style="fill:none;fill-rule:evenodd;stroke:#000000;stroke-width:1.5;stroke-linecap:butt;stroke-linejoin:miter;stroke-miterlimit:4;stroke-dasharray:none;stroke-opacity:1" />
  <path
     id="path4470"
     d="M 72.821516,284.9225 C 39.759982,274.01163 26.964418,271.88259 11.203306,269.28997"
     style="fill:none;fill-rule:evenodd;stroke:#000000;stroke-width:1.5;stroke-linecap:butt;stroke-linejoin:miter;stroke-miterlimit:4;stroke-dasharray:none;stroke-opacity:1" />
  <path
     id="path4472"
     d="m 14.134406,264.79561 c 24.033862,2.01397 45.528887,7.79825 61.94389,15.43713"
     style="fill:none;fill-rule:evenodd;stroke:#000000;stroke-width:1.5;stroke-linecap:butt;stroke-linejoin:miter;stroke-miterlimit:4;stroke-dasharray:none;stroke-opacity:1" />
  <path
     id="path4448"
     d="m 35.238316,262.64615 c -9.16804,9.28274 -17.09259,28.17857 -16.08847,45.85541 l -5.78539,1.88893 c -1.99459,-21.07434 5.71319,-39.97955 15.17657,-48.52597 z"
     style="fill:#ffcc00;fill-opacity:1;fill-rule:evenodd;stroke:#000000;stroke-width:1.5;stroke-linecap:butt;stroke-linejoin:miter;stroke-miterlimit:4;stroke-dasharray:none;stroke-opacity:1" />
  <path
     id="path4474"
     d="m 49.171679,299.83853 6.454057,-1.17244 c -0.501019,-6.62344 6.284763,-19.5569 14.06928,-27.48719 l -5.14571,-1.95406 c -6.405859,4.74817 -14.656607,19.51016 -15.377627,30.61369 z"
     style="fill:#ffcc00;fill-opacity:1;fill-rule:evenodd;stroke:#000000;stroke-width:1.5;stroke-linecap:butt;stroke-linejoin:miter;stroke-miterlimit:4;stroke-dasharray:none;stroke-opacity:1" />
  <path
     id="path4476"
     d="m 67.806086,297.23311 c 1.1636,-7.20601 8.62862,-21.40682 13.22251,-20.38742"
     style="fill:none;fill-rule:evenodd;stroke:#000000;stroke-width:1.5;stroke-linecap:butt;stroke-linejoin:miter;stroke-miterlimit:4;stroke-dasharray:none;stroke-opacity:1" />
  <path
     style="fill:#ffffff;fill-rule:evenodd;stroke:none;stroke-width:1px;stroke-linecap:butt;stroke-linejoin:miter;stroke-opacity:1"
     d="m 74.060896,322 c -29.64502,0 -52.75439,10.07069 -71.5609,17.16627 l 0,-25 C 21.306506,307.07069 44.415876,297 74.060896,297 124.7503,297 146.59797,325 200,325 c 53.40203,0 75.2497,-28 125.9391,-28 29.64502,0 52.75439,10.07069 71.5609,17.16627 l 0,25 C 378.69349,332.07069 355.58412,322 325.9391,322 275.2497,322 253.40203,350 200,350 146.59797,350 124.7503,322 74.060896,322 Z"
     id="path4424" />
  <path
     id="path4428"
     d="m 74.060896,372 c -29.64502,0 -52.75439,10.07069 -71.5609,17.16627 l 0,-25 C 21.306506,357.07069 44.415876,347 74.060896,347 124.7503,347 146.59797,375 200,375 c 53.40203,0 75.2497,-28 125.9391,-28 29.64502,0 52.75439,10.07069 71.5609,17.16627 l 0,25 C 378.69349,382.07069 355.58412,372 325.9391,372 275.2497,372 253.40203,400 200,400 146.59797,400 124.7503,372 74.060896,372 Z"
     style="fill:#ffffff;fill-rule:evenodd;stroke:none;stroke-width:1px;stroke-linecap:butt;stroke-linejoin:miter;stroke-opacity:1" />
  <path
     id="path4440"
     d="m 325.93911,422 c 25.00863,0 45.36606,7.16697 62.41277,13.66868 4.20727,-7.34701 6.37768,-14.69401 7.72673,-22.04102 C 377.53165,406.57248 354.84155,397 325.93911,397 275.2497,397 253.40203,425 200,425 c -53.40203,0 -75.2497,-28 -125.939104,-28 -28.90244,0 -51.59255,9.57248 -70.1395,16.62766 1.34905,7.34701 3.51946,14.69401 7.72672,22.04102 C 28.694836,429.16697 49.052266,422 74.060896,422 124.7503,422 146.59797,450 200,450 c 53.40203,0 75.2497,-28 125.93911,-28 z"
     style="fill:#ffffff;fill-rule:evenodd;stroke:none;stroke-width:1px;stroke-linecap:butt;stroke-linejoin:miter;stroke-opacity:1" />
  <path
     id="path4480"
     d="M 2.499996,314.16627 C 21.306506,307.07069 44.415876,297 74.060896,297 124.7503,297 146.59797,325 200,325 c 53.40203,0 75.2497,-28 125.9391,-28 29.64502,0 52.75439,10.07069 71.5609,17.16627 m 0,25 C 378.69349,332.07069 355.58412,322 325.9391,322 275.2497,322 253.40203,350 200,350 c -53.40203,0 -75.2497,-28 -125.939104,-28 -29.64502,0 -52.75439,10.07069 -71.5609,17.16627"
     style="fill:none;fill-rule:evenodd;stroke:#000000;stroke-width:1.5;stroke-linecap:butt;stroke-linejoin:miter;stroke-miterlimit:4;stroke-dasharray:none;stroke-opacity:1" />
  <path
     style="fill:none;fill-rule:evenodd;stroke:#000000;stroke-width:1.5;stroke-linecap:butt;stroke-linejoin:miter;stroke-miterlimit:4;stroke-dasharray:none;stroke-opacity:1"
     d="M 2.499996,364.16627 C 21.306506,357.07069 44.415876,347 74.060896,347 124.7503,347 146.59797,375 200,375 c 53.40203,0 75.2497,-28 125.9391,-28 29.64502,0 52.75439,10.07069 71.5609,17.16627 m 0,25 C 378.69349,382.07069 355.58412,372 325.9391,372 275.2497,372 253.40203,400 200,400 c -53.40203,0 -75.2497,-28 -125.939104,-28 -29.64502,0 -52.75439,10.07069 -71.5609,17.16627"
     id="path4482" />
  <path
     style="fill:none;fill-rule:evenodd;stroke:#000000;stroke-width:1.5;stroke-linecap:butt;stroke-linejoin:miter;stroke-miterlimit:4;stroke-dasharray:none;stroke-opacity:1"
     d="M 11.648116,435.66868 C 28.694836,429.16697 49.052266,422 74.060896,422 124.7503,422 146.59797,450 200,450 c 53.40203,0 75.2497,-28 125.93911,-28 25.00863,0 45.36606,7.16697 62.41277,13.66868 m 7.72673,-22.04102 C 377.53165,406.57248 354.84155,397 325.93911,397 275.2497,397 253.40203,425 200,425 c -53.40203,0 -75.2497,-28 -125.939104,-28 -28.90244,0 -51.59255,9.57248 -70.1395,16.62766"
     id="path4484" />
  <path
     style="fill:none;fill-rule:evenodd;stroke:#000000;stroke-width:1.5;stroke-linecap:butt;stroke-linejoin:miter;stroke-miterlimit:4;stroke-dasharray:none;stroke-opacity:1"
     d="m 397.5,1.5 0,394.04369 c 0,53.5414 -31.83096,64.7603 -66.96876,66.78922 -38.93743,2.24833 -70.31147,-1.15917 -105.19845,9.81313 C 206.13435,478.18413 201.33214,489.1245 200,498.5 c -1.33214,-9.3755 -6.13435,-20.31587 -25.33279,-26.35396 -34.88698,-10.9723 -66.26102,-7.5648 -105.198454,-9.81313 -35.1378,-2.02892 -66.96876,-13.24782 -66.96876,-66.78922 L 2.499996,1.5 200,1.5 Z"
     id="path4438" />
</svg>
