<svg xmlns:dc="http://purl.org/dc/elements/1.1/" xmlns:cc="http://creativecommons.org/ns#" xmlns:rdf="http://www.w3.org/1999/02/22-rdf-syntax-ns#" xmlns:svg="http://www.w3.org/2000/svg" xmlns="http://www.w3.org/2000/svg" id="svg2" version="1.1" x="0" y="0" width="400" height="500" viewBox="30.5 31.5 400 500" enable-background="new 30.5 31.5 412 533" xml:space="preserve">
  <metadata id="metadata4">
    <rdf:RDF>
      <cc:Work rdf:about="">
        <dc:format>
          
          
          
          
          image/svg+xml
        
        
        
        
        </dc:format>
        <dc:type rdf:resource="http://purl.org/dc/dcmitype/StillImage"/>
      </cc:Work>
    </rdf:RDF>
  </metadata>
  <defs id="defs6"/>
  <path id="path8" d="M230.44 531.14C156.12 477.22 105.18 409.12 74.7 322.98 47.06 244.88 35.97 150.23 40.79 33.63l0.02-0.46 379.82 0 0.02 0.46c4.81 116.6-6.28 211.24-33.91 289.35C356.26 409.12 305.32 477.22 231 531.14l-0.28 0.2z" fill="#0085ca"/>
  <path id="path10" d="M419.96 33.21C429.03 252.66 383.7 419.16 230.5 530.31 77.31 419.16 31.99 252.66 41.06 33.21l189.45 0 189.45 0m0.92-0.95-0.92 0-189.45 0-189.45 0-0.92 0-0.04 0.92c-4.82 116.66 6.28 211.36 33.93 289.52 30.51 86.24 81.51 154.41 155.91 208.39l0.56 0.41 0.56-0.41C305.46 477.11 356.46 408.94 386.97 322.7 414.62 244.54 425.72 149.84 420.9 33.18l-0.04-0.92 0 0z"/>
  <path d="m107.83 247.19c33.89 0.11 57.89-26.17 61.33-45.69 3.44 19.52 27.44 45.8 61.33 45.69 33.89 0.11 57.89-26.17 61.33-45.69 3.44 19.52 27.44 45.8 61.33 45.69 33.89 0.11 57.89-26.17 61.33-45.69 6.57-53.19 8.71-109.58 5.83-168.72l-379.83 0C38.51 89.05 39.64 145.76 46.5 201.5c3.44 19.52 27.44 45.8 61.33 45.69z" id="path4230" style="fill-rule:evenodd;fill:#fff"/>
  <path id="path4238" d="m107.83 247.19c33.89 0.11 57.89-26.17 61.33-45.69 3.44 19.52 27.44 45.8 61.33 45.69 33.89 0.11 57.89-26.17 61.33-45.69 3.44 19.52 27.44 45.8 61.33 45.69 33.89 0.11 57.89-26.17 61.33-45.69 6.57-53.19 8.71-109.58 5.83-168.72l-379.83 0C38.51 89.05 39.64 145.76 46.5 201.5c3.44 19.52 27.44 45.8 61.33 45.69z" style="fill:none;stroke-linejoin:round;stroke:#000"/>
</svg>
