<?xml version="1.0" encoding="UTF-8" standalone="no"?>
<svg
   xmlns:dc="http://purl.org/dc/elements/1.1/"
   xmlns:cc="http://creativecommons.org/ns#"
   xmlns:rdf="http://www.w3.org/1999/02/22-rdf-syntax-ns#"
   xmlns:svg="http://www.w3.org/2000/svg"
   xmlns="http://www.w3.org/2000/svg"
   version="1.0"
   id="svg3156"
   height="500"
   width="440">
  <defs
     id="defs3158" />
  <metadata
     id="metadata3161">
    <rdf:RDF>
      <cc:Work
         rdf:about="">
        <dc:format>image/svg+xml</dc:format>
        <dc:type
           rdf:resource="http://purl.org/dc/dcmitype/StillImage" />
        <dc:title></dc:title>
      </cc:Work>
    </rdf:RDF>
  </metadata>
  <g
     transform="translate(-419.4518,-150.34191)"
     id="layer1">
    <path
       style="fill:#0085ca;fill-opacity:1;fill-rule:evenodd;stroke:#000000;stroke-width:1px;stroke-linecap:butt;stroke-linejoin:miter;stroke-opacity:1"
       d="m 821.83984,470.02726 c 17.40504,-39.26455 32.61196,-79.93167 32.61196,-144.94713 l 0,-173.23822 -215,0 -215,0 0,173.23822 c 0,65.01546 15.20692,105.68258 32.61196,144.94713 31.34254,70.70654 80.01787,131.1733 182.38804,178.81465 C 741.82197,601.20056 790.4973,540.7338 821.83984,470.02726 Z"
       id="path4146" />
    <path
       style="fill:#ffffff;stroke:#000000;stroke-opacity:1"
       id="path3414"
       d="m 671.4518,423.36766 139,43.9 -103,-98.9 103,-98.9 -139,43.9 -32,-141 -32,141 -139,-43.9 103,98.9 -103,98.9 139,-43.9 32,141 z" />
  </g>
</svg>
