<?xml version="1.0" encoding="UTF-8"?>
<svg xmlns="http://www.w3.org/2000/svg" xmlns:xlink="http://www.w3.org/1999/xlink" width="900" height="600">
<rect fill="#fff" width="900" height="600"/>
<path d="M0,0V300H900V600H450V0z" fill="#ffd700"/>
<g id="blacklion">
<path fill="#000" d="m244.455 187.628c-10.6341 5.56798-20.7575 5.90049-27.8469 2.55974-7.08968-3.34075 1.18144 4.45417 4.72642 7.79483 3.54498 3.34075 2.36326 6.68141 2.36326 10.0222 0 3.34075-0.0632 7.66876 0.88866 11.6875-7.08949 1.11361-13.886-1.66539-19.7942-5.00614 3.47931 3.82436 2.99693 6.06092 5.61722 9.05854-5.98702 0.0514-11.6343-5.02858-16.5801-7.51932 2.56516 2.99384 4.72892 7.66664 6.92917 11.089-4.82682 0.49439-10.5667-5.2715-12.9107-7.18617 0.75669 1.4971 2.29084 7.99526 3.07293 12.1641-5.77413-1.42496-7.15479-9.868-11.384-9.22617 0.0134 0.93581-1.17387 3.98978 0.0899 6.84461 2.498 5.64251-3.17934 3.31655-5.05587 2.86813-4.95916 0.0565-6.34869 1.40234-5.38586-5.87721-1.18162-2.22686-4.56756-4.42074-4.56756 0.0334 0 4.45436-3.11819 9.9659-6.1516 9.9659-3.0335 0-4.88509-3.7996-6.04179-6.9572-5.44607-4.16822-2.47288-7.69175 2.25363-6.57814 4.72633 1.11343 1.15669-6.68141-2.38791-4.45436-3.54489 2.22704-10.659 2.27359-9.47779-1.06707 1.18145-3.34075 1.8516-5.99321 0.66997-10.4471-1.18163-4.45436 4.34895-3.69653 6.71221-1.46921 2.36326 2.22704 3.41078 4.93603 8.13711 3.8226 4.72652-1.11343 0.35289-4.93603-3.19198-6.07273-3.54489 0-3.19153-4.25376 2.43705-6.93411 3.92383-6.65158 9.72068-7.38262 8.78288-0.50519 0 3.34075 1.59437 10.0453 15.9816 8.42641 10.6341-1.11361 12.4018-9.19449 8.13711-13.4424-2.65584-2.10115-5.46833-6.38898-5.84589-14.403-1.72885 1.41518-4.08657 2.49693-7.29813 2.57562-5.44164 0.32783-7.24078-1.9953-11.9151-3.85899 2.91159-1.52527 7.23837-3.89077 11.481-3.12084 3.49926 0.0362 6.89074-1.83514 8.18181-5.12907 2.36335-5.56779 7.48414-5.60381 12.0841-4.58071 5.1522 1.20339 17.5185 0.60994 17.5185-1.61736-5.67143-1.6821-12.6484-6.6537-15.0386-13.5496-0.0106 5.14348-3.11681 8.53438-7.6805 7.61307-2.20929-0.50539-5.44025-0.33587-7.50113-0.22222 2.52941-1.92723 6.23306-8.28546 3.22616-12.5243-1.379-1.99642-1.69653-5.98306-1.41751-8.43362-0.86521 0.68804-3.5291 4.95617-1.54294 8.23107-3.23318 0.29354-5.76028-3.69653-9.51287-4.91322-0.6702 1.28633 1.52898 4.39636 2.03021 5.8385-1.68775 0.52571-2.82339 1.15934-7.42669-0.9589-1.22301 3.28339-0.59236 4.81522-0.87853 5.98831-1.45667-0.10179-5.02031-0.91512-6.77188-2.69411 0.037 2.10724-1.16787 3.68147-1.66992 5.45243-2.31015-0.45862-4.31516-1.05654-6.33336-3.62726-0.15764 1.66409-1.4636 2.40235-1.22079 5.06201-3.16243-0.14814-6.7825-4.62006-10.7791-7.81774-1.15669 2.82519 3.72813 14.1435 0.18346 13.0305-5.42141-1.36632-11.1956 2.39957-11.3536-1.82499 1.18144-3.34075-0.64553-3.41039-4.19047-0.0696-3.14285 3.46664-9.50179 7.22284-9.45284-3.34074-4.10569-5.76379-2.74082-7.43934 3.56936-6.65813 5.90814-1.11362 8.29597-3.50054 3.6788-4.80996-8.9058 1.72191-10.7579-2.12397-7.00489-5.61416 0.93817-3.11132 0.93817-6.30244 4.48306-5.18892 6.09138 3.76589 8.27149 0 4.72651-2.22732-3.54488-2.22686-2.76529-4.9824 2.92387-6.68122 3.41078-4.47746 7.7106-3.34048 7.7106 1.11361-0.80429 5.33836 2.7653 8.44968 5.12837 6.22236 2.36326-2.22685 11.5374-3.11132 15.0821-4.22447 3.5447-1.11361 14.056-9.79319 14.056-13.1339-7.80914 0.26943-12.533-1.44417-15.2723-3.149-0.35731-2.18899-0.70155-3.88061 0.26395-7.03275-7.70645 3.89898-11.0442 2.0123-13.1933-0.032 1.70068-1.55742 4.45239-7.19042 5.63384-9.30274-4.31359 1.80319-5.72122 3.14513-7.64549 2.27128-0.80559-2.20275 0.62487-4.42748 1.13655-6.17267-4.55777 3.93076-7.53872 3.78326-11.5207 3.16378 4.1128-6.00485 4.87641-9.15552 5.79436-15.2537-2.76021 1.23488-5.74984 1.03427-7.57677 1.14603-0.39003-1.98755-0.94547-5.0296-0.15855-7.95361-5.56909 1.37925-9.09994 2.77882-7.35751-4.09858 0-3.34075-1.36506-7.56522 3.81281-5.92339 2.36326 0 2.22916-4.05203-1.31573-4.05203-9.17402-0.631528-11.3536-3.2144-6.66289-8.57604 1.3402-6.37227 4.43364-7.94446 6.79699-2.96169 2.36326 3.34047 8.94146 6.54489 7.08959 0-4.26426-6.54517-7.05421-12.1457 1.18163-11.1352 7.43177-1.89482 7.38245 2.4332 5.26247 7.037-1.18145 4.0984 3.00874 5.21201 4.19037 2.98497-0.42671-4.24803 2.26481-7.33607 6.01759-2.85862 4.69096 5.48799 6.27462 8.7022-0.21879 12.1697-3.54488 3.34075 8.2714 11.754 12.1091 21.6396 5.714 1.8019 15.2622 7.04735 21.0853 9.13797 3.5447-3.34075 18.4661-10.46 31.9032-10.0222 9.29768 0.297777 11.8163-3.60361 12.9975-6.94408 1.18163-3.34075-3.49556-0.06985-4.83568-3.03152-2.01063 2.46959-5.48163 2.37667-6.95585-0.860947-5.227 5.73053-12.617 8.76501-10.4402-0.275767 1.07892-4.60861 0.39127-7.84148 3.61868-8.07081 20.1156 3.0548 18.8456-8.94235 12.7297-10.4573-6.82996-1.62198-17.8491 7.11403-16.2744-5.36164 0.73932-5.85947 0.4866-3.71953-1.87653-4.83323-2.36326-1.11343 2.76519-5.82031 6.3099-5.82031 5.68943-0.126139 7.40702-2.58282 10.0144-6.32572 0.88613-0.556825 13.0705-0.246774 17.5776-0.722745 5.83056-1.10853 19.9142-5.56973 26.4661-4.18282-1.78389 4.24904-3.80783 3.93732-4.92739 6.7032 4.6107 0.684017 9.86568 2.3642 10.9167 2.7911-2.36418 2.3304-3.70642 3.92928-5.91119 5.58285 5.1316 1.09034 6.38868 0.604651 5.74938 8.88527-0.1038 5.70329-0.51118 13.1561-7.60088 13.1561-7.08971 0 6.48972 5.42916 6.04187 13.1432-0.45545 6.02046-0.7444 14.8648 3.11829 19.9872 2.42237 3.30288 5.89706 10.9957 0.91367 15.3839-1.59853-5.4262-4.37195-9.86154-7.371-13.1949-1.7271 2.2578-3.22385 6.91952-1.4962 9.66111 2.11795 3.48382 2.04536 7.08078 2.04536 11.5351 0 4.45437-1.38694 7.75365-0.97613 15.83-1.96945-0.55555-4.51945-3.05396-5.83777-5.65563-0.66222 2.96696-2.71791 4.46961-3.69977 12.8448-4.52471-3.55596-5.82096-7.75004-5.51738-10.2753 0.10953-7.84139-1.04096-6.76149-3.40431-11.2156-0.66815 2.13477-0.31692 4.90666 0.58764 9.169-3.54451-2.22732-4.75136-2.56888 0.85924 6.40376 4.62381 7.24907 5.97796 27.3698 15.1984 32.0221 5.90787 1.11343 8.63788 6.19936 12.183 8.42641 3.54498 2.22732 10.2434 0.97442 17.7845 10.3778 13.5729 9.78303 23.7914 0.92418 16.2495-12.8338-2.3048-4.08907-11.5484-10.171-12.7297-14.6256-6.67684-0.41206-13.0714-3.35063-11.5725-11.5148-7.74921 0.67787-11.9151-8.10407-6.41962-15.7164-10.5879-3.06495-8.97998-16.7268 3.83747-19.0562 1.02277-12.94 18.564-25.13 27.1773-30.9266 6.96998-4.61923 25.3089-19.2723 14.8004-35.4838-6.65033-10.2818-20.098-3.64822-18.3451 6.53178 0.89969 5.06599 5.90316 6.01686 12.8886 4.20166 0.24531 5.27279-9.83613 15.4162-16.835 7.06009 0.15867 4.53712-0.83974 10.9292-9.69667 13.4092-5.90805 2.22704-5.87268 6.17609-4.59251 12.1697-10.8899-0.263492-16.0306-10.1386-13.6681-16.8192 2.36326-6.68122 9.89062-6.76102 9.89062-10.1017 0-3.34075-8.63548-4.32801-9.67173-9.9188-1.19059-6.55025 1.49878-11.96 6.92001-13.363-2.35254 7.56522 7.02319 11.3024 12.6808 4.43109 9.79457-11.8603 27.0387-14.4427 34.6934-6.00337 5.18397 5.71493 13.0336 19.2262 3.46001 33.4066-5.81209 8.60901-20.847 20.0777-26.7321 23.1091-2.14363 1.22408-9.50087 6.73544-9.54058 9.91418 5.0893-3.40531 9.19498-3.28524 12.6484-4.62237-0.21248 3.83507-14.2841 10.6845-12.5672 16.1025 3.59051-2.75914 14.1372-7.22302 19.6492-12.7848 3.14286 10.4268-24.6208 19.639-20.9717 26.8627 3.15116-4.60722 19.6307-8.40627 26.1853-14.5674-0.41584 6.63762-5.61527 13.5819-15.3859 19.1033-11.2446 6.02646-8.56408 12.2519-5.46759 14.5517 2.04573-9.20715 14.6387-11.7162 22.3626-21.0974 1.69301 4.76637-2.77601 12.492-8.19743 18.5408-5.28712 5.16592-5.04395 9.24086-0.31712 15.9224 4.72643 6.68122 13.0465 18.551 9.5018 24.1195-3.5447 5.56761 8.41621-5.6838 17.3818 3.19113 2.33869 2.54301 5.48496 5.74069 12.8738 6.92607-2.20763 2.86601-5.12716 5.15826-11.5965 2.55724-6.63851-4.69672-10.0846-3.31748-14.3848-0.0231-8.05252 7.20972-19.6224 12.6416-34.2417 0.63154-5.90824-5.5678-8.40227-9.73316-15.312-9.64357 3.5447 7.79484-1.49897 15.2906-1.49897 20.8582 0 5.56761 0.15887 9.64264 9.6117 10.7565 9.45284 1.11343 11.6574 8.17371 16.3834 7.06009 2.13809-0.88317 4.35459-0.302 6.62955-1.00315 0.21184 2.24339 0.99968 5.65942-3.50194 6.77313-5.90823 2.22685-2.31181 2.58965 0.0511 5.93013 1.16066 2.00361 0.60544 4.79915 0.89397 7.71531-0.19362 3.58033 3.27547 5.69183 7.04793 6.19724-2.63682 3.08823-7.8629 3.84172-11.53 0.90836 2.71921 7.01686-1.06516 8.35492-5.79177 5.01435 3.98562 5.75363-3.13352 6.45392-9.04185 4.22688 2.8039 3.20423 6.0332 6.57629 0.61222 8.65389-5.55533 5.48781-5.45679 1.23978-7.81995-2.10096-2.36354-3.34075-4.51862 6.79741-6.79691 8.24353-3.75278 0.43555-5.01938-5.00568-9.74561-6.11957-2.71607-1.74519 1.44965-3.00806 3.11809-4.45418 2.07058-1.44611-1.49897-2.05441-6.22539 0.1727-4.72642 2.22732-6.45499 1.8019-4.87133-4.54709 1.44984-7.61177 3.55578-5.38473 8.17285-3.1346 4.75118-1.03344-7.39307-4.32588 0.66815-9.49763 0.81537-3.48169 3.35177-6.95147 7.75272 0.0823 5.90805 2.22704 5.02806-4.58894 3.84662-7.9295-1.18163-3.34075-11.2307-9.05798-13.6431-14.0178-3.3647 8.05669-7.00628 12.5548-16.7048 14.9036 0.97577-4.27573-0.38279-7.65943 2.4595-10.4564 3.54451-5.56779-1.11578-7.78809-1.11578-13.3556-5.227-5.82031-1.87625-17.5276-0.51139-23.7178z"/>
<g fill="#ed2939" stroke="#ed2939" stroke-width="1.636">
<path d="m222.575 49.6642c-5.83712-2.29188-10.7597-3.45186-16.5967-2.99347-5.83703 0.458414-13.1333-1.83367-14.5926-5.04234-1.45916-3.20886-4.86422-8.70978-9.24227-9.16799-2.18897-0.229419-5.46011 1.20441-7.24234 2.9024 1.59816 0.907082 2.98612 3.57221 4.2022 5.86428 3.07552 5.52041 10.8225 16.9042 21.0373 11.4031 3.89132-2.29207 10.2952-3.65441 13.2137-3.19592 2.91851 0.458201 7.38079 1.26749 9.21105 0.312804l0.008-0.08275z"/>
<path d="m152.743 44.8965c7.05616-9.91141-3.08476-21.6849-7.46253-22.143 0.9729 3.20867 4.37768 8.2512 0.48632 13.7518 3.40506 3.66725 4.86044 6.25183 6.80605 8.0855v0.05757l0.1655 0.24804z"/>
<path d="m138.391 31.3635c-3.30698-11.5407-18.4568-11.5453-21.7688-8.80824 3.17 1.4874 9.41682 2.51974 11.1014 8.93754 5.16947 0.104554 7.91832-0.0127 10.6674-0.129307z"/>
<path d="m119.864 40.8482c-13.9008-4.13414-19.083 3.17052-19.9817 7.23447 3.4818-0.609306 9.13042-3.32671 14.5732 0.844229 4.19601-2.84735 3.29893-6.33311 5.41984-7.98492l-0.0114-0.09376z"/>
<path d="m159.642 192.458c-10.0088-7.34281-23.0858 0.78476-23.011 5.30687 3.48153-0.6091 10.6092-2.11833 16.0528 2.05294 4.19601-2.84763 4.83753-5.70791 6.95863-7.35972z"/>
<path d="m134.429 117.968c-8.06083-9.22913-21.8648-3.34795-23.6852 0.43217 3.5387 0.1236 9.68189-1.36299 14.0236 3.82963 4.75542-1.91302 7.20873-3.0874 9.6625-4.26179h-0.00021z"/>
<path d="m119.42 130.04c-14.926-5.57546-18.14-0.0106-19.7304 3.8601 3.54045-0.0652 10.2868-0.81396 14.9334 4.13839 4.63296-2.16377 2.72881-5.96292 4.7968-7.99849h-0.00023z"/>
<path d="m114.719 148.217c-11.5614 1.37611-12.3612 10.2975-11.0506 14.2608 2.72863-2.12692 6.26373-7.08881 13.1721-5.9365 2.19849-4.4103-3.12309-5.90879-2.12138-8.32398z"/>
<path d="m142.685 207.329c-12.5339-1.83302-15.2797 8.92249-13.9692 12.8855 2.72881-2.12692 6.75045-4.79702 13.6579-3.64462 2.19849-4.41058-0.69088-6.82558 0.31086-9.24086z"/>
<path d="m149.695 227.473c-11.9151 4.09821-9.15776 16.9467-5.98 19.821 1.30012-3.1043 3.82667-9.33691 10.466-11.4705-0.3342-4.8626-4.12619-5.77948-4.4862-8.35039z"/>
<path d="m264.025 238.483c-11.0238-5.91194-18.1003 2.20257-18.37 6.34539 3.35306-1.07362 6.95456-3.26963 12.9772 0.12148 3.71824-3.386 3.54664-4.54515 5.39408-6.46684h-0.00043z"/>
<path d="m254.706 250.157c-11.0276-3.54542-18.8198 5.3028-18.7274 9.45237 3.24777-1.3302 9.56367-3.79766 15.8616-0.88466 3.41041-3.66263 1.19243-6.05121 2.86624-8.10979h-0.00022l-0.061-0.0572 0.061-0.40105z"/>
<path d="m262.04 263.882c-8.94247 8.47739-2.55924 18.6424 1.61276 19.9734-0.22116-3.33077 0.019-9.16143 5.06935-13.75-2.49339-4.26899-5.19819-4.03993-6.68211-6.22366v0.0002z"/>
<path d="m289.488 261.721c4.64376 11.1241-4.11224 15.9704-8.50229 15.6333 1.60425-2.97499 4.02117-5.02091 1.31471-11.1204 4.08491-2.98746 4.90671-3.06283 7.18777-4.51301h-0.00022z"/>
<path d="m179.453 234.225c-1.6375 11.8538-14.7043 14.2284-18.3746 11.9351 2.92987-1.87431 7.61944-6.26919 8.37705-12.8421 5.10814-0.75598 7.25704 1.138 9.99776 0.90687z"/>
<path d="m142.889 158.127c-1.63723 11.8538-14.2176 11.0198-17.8879 8.72567 2.92987-1.87431 6.0549-1.85187 6.81251-8.42447 5.10814-0.75577 8.33531-0.07 11.0756-0.30117h-0.00022z"/>
<path d="m121.591 69.4686c-12.4859-2.10854-13.7983-16.3315-11.191-19.6769 1.84623 2.84781 3.47663 8.62342 10.4069 9.65095 0.55657 4.84441 0.67041 7.43573 0.78426 10.0259v-0.000211z"/>
</g>
<g fill="none" stroke="#ffd700" stroke-width="1.636">
<path fill="#ffd700" stroke-width="0.9541" d="m225.797 29.6172c0 1.31579-0.90549 2.38254-2.02244 2.38254-1.11699 0-2.02244-1.06668-2.02244-2.38254 0-1.31579 0.9055-2.38254 2.02244-2.38254 1.11699 0 2.02244 1.06668 2.02244 2.38254z"/>
<path stroke-width="1.433" d="m219.971 25.0311c2.08369 0.78074 7.29305 1.5613 9.11639 0.520426"/>
<path d="m227.378 94.3445c-2.91852 6.8762-2.95712 16.9651 1.907 22.4662"/>
<path d="m209.867 192.902c3.89132 5.50074 10.2148 4.58385 9.72808 9.16799-1.33753 5.32903 0.5474 12.3193 2.06734 14.9553"/>
<path d="m197.712 138.352c1.45916 5.95913 3.40496 14.669 7.78264 17.8777 4.37768 3.20886 14.5926 7.33432 21.8888 8.70978 7.29647 1.375 13.62 6.41752 16.0518 11.0013 2.43215 4.58385 0.97299 11.0013 0.97299 11.0013"/>
<path d="m200.141 80.1346c-7.296 2.75046-11.1975 9.35539-17.0244 13.4932-3.47553 2.36799-10.5519 6.91259-14.1058 7.59321 3.43793 2.17818 11.3176 4.00317 17.6644 0.83533-2.26628 9.35447 3.31399 9.25102 3.25147 23.9182 3.72267-0.41312 7.78264-8.25093 8.75545-12.3766 0.97299-4.12565-0.59549-8.26108 1.26382-11.7106-0.0524 3.64065 1.19225 6.63125 3.62422 10.2984 2.43216 3.66725 2.89478 7.37117 1.43543 11.0382 6.06987-4.75408 4.77325-14.5101 4.68653-20.679 2.96792 2.71656 3.62588 12.0902 1.63538 18.3866 2.77813-0.80275 5.6416-2.44659 7.02318-10.1848 2.22897 3.5433 4.84012 15.1862 3.67945 17.9774 4.13598 0.0959 7.74404-5.55421 7.3397-11.9572 0.76072 0.58476 2.83631 2.71657 3.59725 3.47043 0.86707-2.44123-0.38491-6.8846-0.0865-10.3113 0.93383 0.86624 2.96599 2.22325 3.72249 3.31276 1.0745 0.99003 3.60261 4.26031 7.31042 5.75806"/>
<path d="m250.726 59.9645c6.32347 3.66725 12.5256 9.51148 12.5256 27.8482"/>
<path d="m245.378 68.2161c6.80983 5.04234 9.24134 11.0013 8.269 18.3358-0.97281 7.33459-4.40733 6.74347-4.37768 12.8356-0.0661 2.6762 2.92174 7.03635 4.86431 9.62601 2.23534 2.89501 3.49132 7.71975 2.82597 10.3326"/>
<path d="m253.34 87.9272c0.4866 5.95932 0.0727 9.14554 2.24975 12.8356 1.953 3.07086 3.88836 13.6816 1.06516 19.9309"/>
<path d="m240.511 86.5519c4.37749 5.50092 0 6.87592-1.45935 11.4603-1.45917 4.58386 3.2522 6.90215 5.30809 12.3424"/>
<path d="m235.163 82.4261c0.97281 6.41771 0 8.70978-1.9458 12.8356-1.9458 4.12564-3.89575 10.2984-0.50588 14.6912"/>
<path d="m223.979 87.01c-6.32366 5.50074-8.01862 17.052-5.37016 24.2405"/>
<path d="m205.489 93.4283c-2.43215 2.75046-4.83863 5.92847-5.58036 8.52423"/>
<path d="m205.489 83.8014c-2.43215 4.12564-8.14062 7.62831-12.5182 9.46161-4.3775 1.83367-6.45177 8.87427-6.45177 8.87427"/>
<path d="m290.615 53.0881c-5.30708 5.56123-7.63413 7.15596-10.7015 11.0022-2.94335 3.59151-3.60261 10.2901-0.6137 14.2331"/>
<path d="m288.666 95.2617c-2.91851 2.75046-3.89132 7.79299-3.89132 8.70978"/>
<path d="m286.237 107.18c-2.43216 3.66725-2.91852 13.7518-2.91852 13.7518"/>
<path d="m291.585 121.395c-5.83703 5.04253-4.86413 11.9184-4.86413 11.9184"/>
<path d="m297.911 140.44c-0.98804 1.41647 2.92406 7.01733 5.83712 6.62516"/>
<path d="m319.311 188.773c-5.83703 2.75027-8.76644 3.72802-14.5926 1.375"/>
<path d="m291.576 223.668c3.89132 4.12565 2.92932 15.0717-2.90771 19.1975-5.83684 4.12564-2.91851 0.91682-2.91851 0.91682"/>
<path d="m274.767 180.396c-1.45898 6.41734-7.5015 10.6752-7.5015 10.6752"/>
<path d="m276.715 183.342c-2.91852 8.2512-10.4198 12.7691-10.4198 12.7691"/>
<path d="m275.81 193.364c-5.35067 7.33459-12.436 11.9184-12.436 11.9184"/>
<path d="m273.935 201.085c-3.40496 5.04253-7.64217 7.85921-7.64217 7.85921"/>
<path d="m274.563 206.654c-3.40514 3.66706-7.78282 5.95931-7.78282 5.95931"/>
<path d="m277.482 210.321c-2.43216 3.20904-4.37768 6.8762-4.37768 6.8762"/>
<path d="m209.386 199.321c3.40497 3.66725 3.40497 4.12564 3.40497 7.33459 0 3.20886 2.91851 7.33432 2.91851 7.33432"/>
<path d="m202.57 204.364c1.45916 2.75046 5.35067 6.87592 5.35067 6.87592"/>
<path d="m192.845 208.483c1.94552 1.8334 4.86413 3.66707 4.86413 3.66707"/>
<path d="m212.785 42.0868c2.91851-3.20867 10.2794-4.7164 12.7122-2.42433 2.43197 2.29207 10.1501 10.2171 10.1501 10.2171"/>
<path d="m252.185 38.42c4.86413-4.12564 11.6741-4.58413 11.6741-4.58413s2.43215 6.41753 0.48639 9.62694c-1.94552 3.20867-12.1608 3.20867-12.1608 3.20867"/>
<path d="m236.133 114.976c-0.4864 5.95913-4.86432 18.3358-4.86432 18.3358"/>
<path d="m239.052 118.642c-0.48638 6.87593-4.86431 16.9605-4.86431 16.9605"/>
<path d="m241.97 125.062c-0.48638 6.87639-3.8915 13.2937-3.8915 13.2937"/>
<path d="m245.378 133.309c-1.9458 6.41752-3.89132 10.5432-3.89132 10.5432"/>
<path d="m247.327 139.729c-0.97299 4.58413-3.40515 9.16798-3.40515 9.16798"/>
<path d="m249.756 143.848c0 2.75046-1.45917 5.95913-1.45917 5.95913"/>
<path d="m185.059 118.642c-0.97281 7.79281-3.34013 9.47824-5.90731 6.02028 0.34598 3.60084-1.81604 5.95387-5.702 4.45649-0.97281 1.24828-3.46971 2.81687-3.46971 2.81687"/>
<path d="m165.119 130.104c-0.97281 3.66725-1.45917 8.70959-5.35049 7.79281"/>
<path d="m140.801 72.8001c3.89132 0.458413 6.80983 0.458413 6.80983 0.458413"/>
<path d="m143.72 78.3012c7.78274 0.916817 7.78274 0.916817 7.78274 0.916817"/>
<path d="m148.578 83.3432c5.35067 2.75046 8.75554 1.37528 8.75554 1.37528"/>
<path d="m153.445 88.8443c3.89132 1.83339 8.26919 0 8.26919 0"/>
<path d="m160.741 95.2617c5.83703 0.916817 8.75554-2.29188 8.75554-2.29188"/>
<path d="m185.142 79.5268c-1.68904 1.28236-3.40506 3.33964-3.18709 5.0537 2.43216 0 10.2286 0.680628 10.2286 0.680628"/>
<path d="m229.816 191.064c-2.43216-7.79281-13.1333-16.9605-13.1333-16.9605"/>
<path d="m222.52 191.064c-0.97899-5.95738-11.674-16.4959-11.674-16.4959"/>
<path d="m217.163 189.235c-0.4866-3.66725-11.1873-13.2937-11.1873-13.2937"/>
<path d="m213.764 188.321c-2.43197-3.20867-11.1873-9.16798-11.1873-9.16798"/>
<path d="m209.386 190.611c0.48639-3.20885-4.37768-5.04253-4.37768-5.04253"/>
<path d="m243.919 184.192c-6.32329 2.75046-13.62-1.37527-14.5926-6.8762-0.97281-5.50092-11.1873-7.33431-11.1873-7.33431"/>
<path d="m227.378 59.5063c0.97299 4.58413 2.43215 9.62694 0.97299 12.8356-1.45917 3.20886 8.75535-4.58413 7.29628-8.2512-1.45935-3.66725 3.89132 1.83339 2.43197 5.95932-1.45916 4.12546 7.29647-5.50092 6.32367-10.0851-0.973-4.58386 2.91851-1.37528 2.91851 2.75046 0 4.12546 4.37749-5.50074 3.40469-7.79299l-0.97281-2.29188"/>
<path d="m240.225 24.2599c2.18898 2.15953 4.84944 2.09607 7.2937 1.658 2.44425-0.438093 9.14076-3.7308 9.9682-4.22687"/>
<path d="m250.246 32.9189c2.43216-2.75046 10.2148-3.20867 10.2148-3.20867"/>
<path d="m186.934 106.284c-5.40988 0.78433-12.2541 2.35303-15.5836 5.09841"/>
<path d="m220.035 24.3227c-2.08073 13.3344 7.4907 12.1577 9.57107 0.784332"/>
<path d="m274.757 36.1701c-2.04167 7.47166 5.90888 12.5262 12.242 12.7811"/>
</g>
</g>
<g id="redlions">
<g id="redlion" fill="#ed2939" stroke="#000" stroke-width="0.2273">
<path d="m550.46 111.251c-5.91802 3.10008-11.5489 3.28723-15.494 1.42575-3.94296-1.86076 0.65859 2.48078 2.6315 4.34155 1.97291 1.85862 1.31432 3.71938 1.31432 5.58015 0 1.86076-0.0336 4.2694 0.49644 6.50946-3.9451 0.6193-7.72878-0.92931-11.016-2.79008 1.93648 2.13149 1.66862 3.37652 3.12509 5.04442-3.32866 0.0307-6.47303-2.79864-9.22454-4.18511 1.42861 1.66576 2.63436 4.2694 3.85582 6.17517-2.68436 0.27358-5.87873-2.93508-7.18234-4.00154 0.42144 0.83145 1.27218 4.45012 1.70791 6.77161-3.20866-0.79216-3.97868-5.49372-6.33089-5.13656 0.009 0.52144-0.65573 2.22077 0.0471 3.81153 1.39218 3.14151-1.76648 1.84719-2.81293 1.59575-2.75651 0.0336-3.53224 0.78145-2.99651-3.27294-0.65574-1.23861-2.53936-2.46078-2.53936 0.0193 0 2.48006-1.73576 5.55014-3.4208 5.55014-1.69076 0-2.72079-2.11505-3.36509-3.87296-3.03008-2.32149-1.3729-4.28583 1.25574-3.66367 2.62865 0.61931 0.64145-3.72224-1.32789-2.48078-1.97291 1.23861-5.9323 1.26432-5.27371-0.5943 0.65859-1.86076 1.03217-3.34009 0.37358-5.81801-0.65859-2.48364 2.41935-2.05934 3.73367-0.82002 1.31718 1.24146 1.8972 2.74864 4.52584 2.12862 2.6315-0.6193 0.19786-2.74864-1.77434-3.38151-1.97005 0-1.77433-2.36864 1.35575-3.86154 2.18221-3.70295 5.40729-4.11011 4.88871-0.28215 0 1.86077 0.88431 5.59444 8.88952 4.69299 5.91516-0.61931 6.90019-5.12014 4.52584-7.48592-1.47576-1.16932-3.04151-3.55724-3.2508-8.0195-0.96289 0.78716-2.27435 1.38932-4.06011 1.43432-3.03008 0.18144-4.0294-1.1136-6.62947-2.15148 1.61862-0.8486 4.02654-2.16506 6.3866-1.73576 1.94791 0.0193 3.83368-1.02432 4.55084-2.85722 1.31718-3.10008 4.16583-3.11937 6.72447-2.55007 2.86864 0.670018 9.74669 0.337866 9.74669-0.901453-3.1558-0.937168-7.03734-3.70581-8.36809-7.54449-0.006 2.86293-1.7329 4.75156-4.27154 4.23868-1.23075-0.28215-3.02722-0.187147-4.1744-0.12286 1.40933-1.07432 3.46795-4.61512 1.79434-6.9759-0.76431-1.11074-0.94289-3.33152-0.78717-4.69584-0.48001 0.382154-1.96434 2.75936-0.85931 4.58441-1.79719 0.162147-3.20294-2.05934-5.29014-2.73722-0.37358 0.717162 0.8486 2.45007 1.12718 3.2508-0.93717 0.292865-1.57076 0.64716-4.13226-0.532871-0.67787 1.82791-0.32929 2.6815-0.48858 3.33438-0.80931-0.05572-2.79293-0.507871-3.76653-1.50147 0.0193 1.17503-0.65002 2.05077-0.92931 3.03865-1.28647-0.256435-2.40221-0.588587-3.52438-2.02005-0.0893 0.926453-0.81503 1.33646-0.68074 2.81793-1.7579-0.08357-3.77224-2.57293-5.99373-4.35297-0.64716 1.57361 2.07006 7.87664 0.10072 7.25448-3.01651-0.758592-6.22803 1.33646-6.31731-1.01574 0.65859-1.86076-0.35716-1.90005-2.33292-0.03929-1.74648 1.93077-5.28443 4.02368-5.25657-1.86076-2.28506-3.20866-1.52647-4.14082 1.98648-3.70581 3.28723-0.62216 4.61512-1.95005 2.04505-2.67864-4.95584 0.957168-5.98516-1.18289-3.89796-3.12794 0.52145-1.7329 0.52145-3.5101 2.49436-2.89079 3.38723 2.09863 4.60369 0 2.62864-1.2386-1.97006-1.2386-1.53719-2.77365 1.62933-3.72224 1.89719-2.4915 4.28868-1.85862 4.28868 0.62216-0.44929 2.97151 1.53719 4.70441 2.85437 3.46581 1.31432-1.24146 6.41731-1.7329 8.39022-2.35506 1.97291-0.619302 7.82092-5.45229 7.82092-7.31305-4.34726 0.150718-6.9759-0.803593-8.4988-1.75219-0.19786-1.21932-0.39072-2.1622 0.14787-3.91725-4.28869 2.17077-6.14445 1.12146-7.34092-0.01643 0.9486-0.86788 2.47793-4.00368 3.13652-5.18157-2.39935 1.00431-3.18366 1.75219-4.25512 1.26432-0.44929-1.22503 0.34858-2.46364 0.63359-3.43724-2.53649 2.19006-4.19654 2.10648-6.41231 1.76362 2.29077-3.3458 2.71507-5.09799 3.2258-8.49666-1.53433 0.689305-3.19795 0.577873-4.21297 0.639303-0.21787-1.10503-0.52716-2.8015-0.0893-4.42798-3.10008 0.767164-5.06442 1.54576-4.09582-2.2822 0-1.86076-0.7586-4.21297 2.12362-3.29794 1.31432 0 1.24147-2.2572-0.73359-2.2572-5.10085-0.351438-6.31731-1.79148-3.70581-4.77727 0.74502-3.54938 2.46649-4.42226 3.78367-1.64933 1.31147 1.86076 4.97228 3.64438 3.94296 0-2.37434-3.64438-3.92581-6.76375 0.65574-6.20017 4.13511-1.05717 4.10725 1.35361 2.93008 3.91725-0.65859 2.2822 1.67433 2.90151 2.33291 1.6629-0.24-2.36578 1.25861-4.08511 3.34581-1.5929 2.60864 3.05794 3.49081 4.84656-0.12 6.77732-1.97291 1.86076 4.60083 6.54589 6.73589 12.051 3.1808 1.00431 8.49094 3.92582 11.7303 5.08942 1.97291-1.86076 10.2738-5.82587 17.7519-5.58015 5.173 0.16429 6.57375-2.00863 7.23234-3.86725 0.65573-1.86076-1.94791-0.03929-2.69293-1.6879-1.1186 1.37289-3.05008 1.32289-3.87011-0.480013-2.90722 3.18937-7.02018 4.88013-5.80944-0.153576 0.60288-2.56721 0.21787-4.36655 2.01434-4.49512 11.1917 1.70219 10.486-4.98085 7.08162-5.82301-3.8001-0.90431-9.92741 3.96225-9.05167-2.98579 0.41001-3.26437 0.26786-2.07291-1.04646-2.69293-1.31432-0.620017 1.53719-3.24223 3.51295-3.24223 3.16437-0.07 4.11869-1.43718 5.56944-3.52152 0.49358-0.310009 7.27162-0.136432 9.77955-0.40144 3.24508-0.619302 11.0803-3.10294 14.724-2.33006-0.9936 2.36578-2.11791 2.19292-2.74007 3.73367 2.56435 0.379296 5.48586 1.31432 6.07159 1.55433-1.31432 1.29718-2.0622 2.1872-3.28723 3.10866 2.85436 0.608587 3.5551 0.337866 3.19794 4.94728-0.0557 3.17794-0.28429 7.32734-4.23011 7.32734-3.94296 0 3.61081 3.02437 3.36223 7.31877-0.25358 3.35366-0.41572 8.27879 1.73576 11.1332 1.3479 1.83862 3.28152 6.12159 0.50787 8.56594-0.89002-3.02151-2.43006-5.49158-4.09868-7.34948-0.96288 1.2586-1.79719 3.85368-0.83431 5.38229 1.18004 1.93934 1.13861 3.94296 1.13861 6.42303s-0.77288 4.31654-0.5443 8.81452c-1.0936-0.310008-2.51436-1.69933-3.24795-3.15008-0.36858 1.65433-1.51218 2.48864-2.05934 7.15448-2.5165-1.98077-3.23651-4.31654-3.06937-5.72301 0.0614-4.36654-0.57787-3.76439-1.89148-6.24445-0.37358 1.1886-0.17857 2.7315 0.32358 5.10585-1.97005-1.24146-2.63935-1.43147 0.48002 3.56581 2.57292 4.03725 3.3258 15.2433 8.45451 17.8326 3.28723 0.619303 4.80727 3.45152 6.78018 4.69298 1.97005 1.2386 5.69801 0.541443 9.89455 5.77873 7.5502 5.44657 13.2368 0.51358 9.04024-7.14876-1.2836-2.2772-6.42302-5.66444-7.08161-8.1445-3.71653-0.228577-7.27163-1.86362-6.44018-6.41231-4.31083 0.379296-6.62946-4.51155-3.57152-8.75024-5.89016-1.7079-4.99442-9.31668 2.1372-10.6139 0.5693-7.20734 10.3267-13.9932 15.1176-17.2212 3.87867-2.57293 14.0825-10.7339 8.23665-19.7634-3.7001-5.72587-11.1832-2.03148-10.2067 3.63867 0.4993 2.82079 3.28152 3.3508 7.17091 2.34078 0.13429 2.93508-5.47443 8.58309-9.36954 3.93153 0.0893 2.52507-0.46572 6.08588-5.39371 7.46663-3.28723 1.24146-3.26723 3.44009-2.55293 6.77732-6.06016-0.147861-8.92024-5.64729-7.60592-9.36668 1.31718-3.72224 5.50229-3.76653 5.50229-5.62515 0-1.86076-4.80512-2.41078-5.37943-5.52443-0.6643-3.64653 0.83146-6.66018 3.85082-7.44163-1.31146 4.21297 3.90654 6.29445 7.05376 2.46649 5.44943-6.60446 15.0447-8.04164 19.3027-3.34295 2.88508 3.18366 7.24877 10.7089 1.92505 18.6055-3.23651 4.7937-11.5989 11.1803-14.8718 12.8689-1.19432 0.680732-5.28729 3.7501-5.31014 5.52158 2.83221-1.89719 5.11442-1.83005 7.03733-2.57507-0.12001 2.1372-7.9495 5.95159-6.99233 8.9681 1.99791-1.53718 7.86592-4.02368 10.9324-7.1209 1.74933 5.80658-13.6975 10.9374-11.666 14.9611 1.75219-2.56721 10.921-4.68227 14.5654-8.11379-0.22858 3.69724-3.12223 7.56449-8.55738 10.6396-6.25874 3.35652-4.76584 6.82233-3.04436 8.10308 1.1386-5.12585 8.14736-6.52375 12.4446-11.7467 0.94002 2.65364-1.54576 6.9559-4.56227 10.3238-2.94079 2.8765-2.80436 5.148-0.17572 8.86738 2.62864 3.72224 7.2602 10.3324 5.28443 13.4325-1.97005 3.10009 4.68227-3.16437 9.67097 1.77719 1.30004 1.41433 3.05223 3.19795 7.16519 3.85582-1.23074 1.59576-2.85436 2.87365-6.45374 1.42576-3.69153-2.61722-5.61086-1.85005-8.00236-0.0143-4.47869 4.01511-10.9182 7.03947-19.0491 0.35144-3.28937-3.10009-4.67655-5.42158-8.52166-5.37158 1.97291 4.34155-0.83145 8.51595-0.83145 11.616 0 3.10294 0.0864 5.37157 5.34586 5.99088 5.25657 0.62215 6.48446 4.55369 9.1131 3.93153 1.19146-0.49144 2.42507-0.16715 3.68867-0.55787 0.12001 1.25003 0.55787 3.15294-1.94791 3.77224-3.28723 1.23861-1.2836 1.4429 0.0279 3.30366 0.64716 1.1136 0.33787 2.67007 0.49644 4.2944-0.10571 1.99506 1.82505 3.17009 3.92296 3.45152-1.46789 1.72148-4.37511 2.14006-6.41445 0.50787 1.51218 3.90654-0.5943 4.65156-3.22295 2.79008 2.21792 3.2058-1.74147 3.59367-5.02799 2.35506 1.55719 1.78576 3.35366 3.66367 0.34072 4.8187-3.09151 3.05508-3.03579 0.69216-4.35297-1.16931-1.31432-1.86077-2.51435 3.78653-3.78081 4.59012-2.09006 0.24286-2.79294-2.78722-5.42158-3.40724-1.51218-0.97359 0.80359-1.67718 1.73576-2.48078 1.14932-0.80645-0.83716-1.14431-3.46581 0.095-2.62864 1.24146-3.59081 1.00431-2.70935-2.53079 0.80645-4.23868 1.97862-2.99936 4.54512-1.74647 2.64507-0.57502-4.11297-2.40792 0.37358-5.28729 0.45215-1.93933 1.86362-3.87296 4.31369 0.0443 3.28723 1.23861 2.79579-2.55578 2.1372-4.41726-0.65573-1.85862-6.24731-5.04228-7.58949-7.8045-1.8722 4.48655-3.89796 6.98948-9.29454 8.29808 0.5443-2.38006-0.21215-4.26368 1.37004-5.82301 1.97005-3.10008-0.62216-4.33583-0.62216-7.43591-2.90722-3.24152-1.04289-9.76241-0.28429-13.2089z"/>
<path d="m538.289 34.4188c-3.24795-1.27503-5.98516-1.92219-9.23311-1.66576-3.24794 0.253578-7.30734-1.02146-8.1195-2.81008-0.81217-1.78576-2.7065-4.84942-5.13943-5.10371-1.21931-0.128575-3.04151 0.670018-4.03225 1.61576 0.89003 0.505013 1.66005 1.98934 2.33792 3.26437 1.71076 3.07508 6.02159 9.41454 11.7053 6.35088 2.16506-1.27503 5.72586-2.03434 7.34948-1.78005 1.62361 0.256435 4.10725 0.705733 5.12871 0.175719l0.003-0.04714z"/>
<path d="m524.455 83.8095c0.81217 3.31795 1.89434 8.17022 4.33012 9.95598s8.11665 4.08511 12.1768 4.84942c4.06011 0.767164 7.57807 3.57438 8.93167 6.12731 1.35361 2.55292 0.54145 6.1273 0.54145 6.1273"/>
<path d="m525.808 51.3893c-4.06011 1.53218-6.23088 5.20942-9.47311 7.51449-1.93363 1.31718-5.87088 3.84796-7.84879 4.22726 1.91434 1.2136 6.29732 2.22935 9.83027 0.465727-1.26146 5.20943 1.84433 5.15085 1.8079 13.3204 2.07292-0.231434 4.33012-4.59584 4.87156-6.89447 0.54145-2.29649-0.33215-4.5987 0.70288-6.52089-0.0307 2.02863 0.66144 3.69438 2.0172 5.73658 1.35075 2.0422 1.61004 4.1044 0.79787 6.14659 3.37652-2.64793 2.6565-8.08022 2.60579-11.5153 1.65147 1.51218 2.0172 6.73304 0.90931 10.2374 1.54575-0.44644 3.13937-1.36146 3.90653-5.67015 1.24146 1.97291 2.69507 8.45451 2.04791 10.0117 2.30221 0.05286 4.30798-3.09437 4.08511-6.66018 0.4243 0.326438 1.57933 1.51218 2.00077 1.93362 0.48287-1.36146-0.215-3.83367-0.0471-5.7423 0.5193 0.48287 1.65147 1.23575 2.07005 1.84434 0.59716 0.550015 2.00363 2.37149 4.06797 3.2058"/>
<path d="m553.951 40.1554c3.52153 2.0422 6.97019 5.29586 6.97019 15.5083"/>
<path d="m550.977 44.7513c3.78939 2.80722 5.13942 6.12731 4.59869 10.2096-0.54144 4.08511-2.45006 3.75582-2.43292 7.14876-0.0393 1.49004 1.62362 3.9201 2.7065 5.36014 1.24432 1.6129 1.9422 4.30012 1.57076 5.75658"/>
<path d="m555.407 55.728c0.27072 3.31795 0.0393 5.09228 1.25004 7.14876 1.08788 1.71076 2.16505 7.61735 0.5943 11.0996"/>
<path d="m548.27 54.9608c2.43578 3.06365 0 3.83082-0.81217 6.38446-0.81216 2.55364 1.81077 3.84225 2.95508 6.87233"/>
<path d="m545.293 52.6643c0.54144 3.57438 0 4.84942-1.08289 7.14876-1.08289 2.29649-2.16792 5.73373-0.28215 8.18093"/>
<path d="m540.962 59.3024c-1.62147 3.82796-1.64361 9.44811 1.06289 12.5118"/>
<path d="m539.068 55.2173c-3.51581 3.06365-4.45869 9.49525-2.9858 13.4989"/>
<path d="m528.785 58.7916c-1.35361 1.53218-2.69293 3.3008-3.1058 4.74656"/>
<path d="m528.785 53.4315c-1.35361 2.29649-4.52869 4.24654-6.96733 5.268-2.43292 1.02146-3.58795 4.94156-3.58795 4.94156"/>
<path d="m576.144 36.3275c-2.95223 3.09722-4.24655 3.98439-5.95445 6.12445-1.6379 2.00077-2.00362 5.73087-0.34072 7.92736"/>
<path d="m575.061 59.8131c-1.62361 1.53218-2.16506 4.33869-2.16506 4.84942"/>
<path d="m573.709 66.4511c-1.35361 2.03934-1.62362 7.65663-1.62362 7.65663"/>
<path d="m576.686 74.3642c-3.24794 2.80722-2.7065 6.63804-2.7065 6.63804"/>
<path d="m580.202 84.9702c-0.54716 0.789306 1.62933 3.90653 3.24794 3.68867"/>
<path d="m592.111 111.89c-3.24794 1.53219-4.87727 2.07577-8.1195 0.76431"/>
<path d="m576.68 131.321c2.16505 2.29935 1.62932 8.39308-1.61862 10.6924-3.24794 2.29649-1.62361 0.51073-1.62361 0.51073"/>
<path d="m567.327 107.222c-0.81217 3.57153-4.1744 5.94302-4.1744 5.94302"/>
<path d="m568.41 108.863c-1.62361 4.59584-5.79801 7.11233-5.79801 7.11233"/>
<path d="m567.908 114.443c-2.97723 4.08511-6.92019 6.63518-6.92019 6.63518"/>
<path d="m566.864 118.746c-1.89148 2.80722-4.25226 4.37512-4.25226 4.37512"/>
<path d="m567.213 121.846c-1.89434 2.04219-4.32797 3.31794-4.32797 3.31794"/>
<path d="m568.837 123.888c-1.35361 1.78577-2.43578 3.82796-2.43578 3.82796"/>
<path d="m531.221 114.187c2.16506 3.06366 5.68087 2.55293 5.413 5.10586-0.74788 2.96865 0.30144 6.86089 1.14932 8.32879"/>
<path d="m530.948 117.761c1.8972 2.04219 1.8972 2.29934 1.8972 4.08511 0 1.78576 1.62361 4.08511 1.62361 4.08511"/>
<path d="m527.162 120.568c0.81217 1.53218 2.97723 3.83082 2.97723 3.83082"/>
<path d="m521.749 122.867c1.08289 1.02145 2.7065 2.04219 2.7065 2.04219"/>
<path d="m532.845 30.2002c1.62361-1.78862 5.72015-2.62578 7.07019-1.35075 1.35361 1.27503 5.64729 5.68944 5.64729 5.68944"/>
<path d="m554.765 28.1572c2.7065-2.29649 6.49589-2.55292 6.49589-2.55292s1.35075 3.57438 0.26786 5.36014c-1.08288 1.78862-6.76375 1.78862-6.76375 1.78862"/>
<path d="m545.834 70.7898c-0.27072 3.31795-2.7065 10.2124-2.7065 10.2124"/>
<path d="m547.458 72.832c-0.27072 3.82796-2.7065 9.44525-2.7065 9.44525"/>
<path d="m549.082 76.4064c-0.27072 3.82796-2.16506 7.40234-2.16506 7.40234"/>
<path d="m550.977 81.0022c-1.08289 3.57152-2.16506 5.87087-2.16506 5.87087"/>
<path d="m552.059 84.5738c-0.54144 2.55293-1.89434 5.10585-1.89434 5.10585"/>
<path d="m553.412 86.8731c0 1.53218-0.81217 3.31795-0.81217 3.31795"/>
<path d="m517.418 72.832c-0.54144 4.33869-1.85862 5.27943-3.28437 3.3508 0.19 2.00648-1.01289 3.31795-3.17509 2.48364-0.54144 0.695019-1.93076 1.5679-1.93076 1.5679"/>
<path d="m506.321 79.2136c-0.54145 2.0422-0.80931 4.84942-2.97437 4.33869"/>
<path d="m492.791 47.3042c2.16506 0.253579 3.78938 0.253579 3.78938 0.253579"/>
<path d="m494.415 50.3678c4.33012 0.510728 4.33012 0.510728 4.33012 0.510728"/>
<path d="m497.122 53.1751c2.97723 1.53218 4.87156 0.767164 4.87156 0.767164"/>
<path d="m499.828 56.2387c2.16506 1.02146 4.60084 0 4.60084 0"/>
<path d="m503.888 59.8131c3.24795 0.510728 4.87156-1.27789 4.87156-1.27789"/>
<path d="m517.463 51.0486c-0.94002 0.714304-1.89433 1.86076-1.77147 2.81508 1.35075 0 5.68944 0.379296 5.68944 0.379296"/>
<path d="m542.316 113.165c-1.35361-4.33869-7.30519-9.44525-7.30519-9.44525"/>
<path d="m538.258 113.165c-0.54144-3.31795-6.49589-9.18811-6.49589-9.18811"/>
<path d="m535.278 112.144c-0.26786-2.0422-6.22231-7.40234-6.22231-7.40234"/>
<path d="m533.387 111.634c-1.35575-1.78576-6.22517-5.10371-6.22517-5.10371"/>
<path d="m530.948 112.912c0.27358-1.78862-2.43292-2.81008-2.43292-2.81008"/>
<path d="m550.164 109.337c-3.51866 1.53218-7.57806-0.76716-8.1195-3.82796-0.54144-3.06365-6.22517-4.08511-6.22517-4.08511"/>
<path d="m540.962 39.9018c0.54145 2.55007 1.35361 5.36014 0.54145 7.14591-0.81217 1.78862 4.87156-2.55293 4.06011-4.59584-0.81217-2.03934 2.16505 1.02146 1.3536 3.32009-0.81216 2.29649 4.06011-3.06365 3.51867-5.61658-0.54144-2.55292 1.62362-0.764306 1.62362 1.53218s2.43292-3.06365 1.89147-4.33869l-0.53858-1.27789"/>
<path d="m548.108 20.272c1.21646 1.20289 2.69793 1.16646 4.05725 0.923596 1.36147-0.245721 5.08371-2.07863 5.54729-2.35506"/>
<path d="m553.683 25.0936c1.35075-1.53218 5.68087-1.78576 5.68087-1.78576"/>
<path d="m499.434 31.7652c3.92582-5.51943-1.7129-12.076-4.14939-12.3332 0.54144 1.78862 2.43578 4.59584 0.27072 7.65949 1.89433 2.0422 2.70364 3.48224 3.78653 4.50369v0.03072l0.0921 0.139289z"/>
<path d="m491.455 24.2286c-1.84148-6.42874-10.271-6.4316-12.1125-4.90513 1.76361 0.828594 5.23728 1.40361 6.17516 4.97513 2.87579 0.05857 4.40512-0.0057 5.9373-0.07z"/>
<path d="m481.148 29.5109c-7.73449-2.3022-10.6196 1.76362-11.1189 4.02939 1.93934-0.340723 5.08085-1.85291 8.10879 0.468584 2.33578-1.58504 1.83291-3.52724 3.01651-4.44798l-0.006-0.05z"/>
<path d="m503.274 113.938c-5.56658-4.08797-12.8411 0.43787-12.8018 2.95793 1.93648-0.34072 5.90444-1.18003 8.93167 1.14146 2.33577-1.58504 2.69293-3.17865 3.8701-4.09939z"/>
<path d="m489.245 72.4584c-4.48083-5.13942-12.1625-1.86362-13.1754 0.240007 1.97005 0.07 5.38514-0.758592 7.80164 2.13434 2.64435-1.06574 4.01225-1.71862 5.37371-2.37435z"/>
<path d="m480.899 79.18c-8.3038-3.1058-10.0924-0.0057-10.9767 2.15149 1.97006-0.03643 5.72301-0.455013 8.30951 2.30506 2.57507-1.20575 1.5179-3.32366 2.66722-4.45655z"/>
<path d="m478.285 89.3003c-6.43446 0.767163-6.87804 5.73372-6.14945 7.94093 1.5179-1.18289 3.48509-3.94796 7.32734-3.30652 1.22432-2.45507-1.73576-3.28937-1.17789-4.63441z"/>
<path d="m493.837 122.22c-6.97019-1.02146-8.4988 4.96942-7.77092 7.17662 1.52075-1.18575 3.75581-2.67293 7.59806-2.03149 1.22503-2.45506-0.38216-3.8001 0.17286-5.14513z"/>
<path d="m497.738 133.442c-6.62946 2.2822-5.09514 9.43668-3.3258 11.0382 0.72573-1.72719 2.12862-5.19799 5.82301-6.3866-0.18644-2.70935-2.29578-3.22008-2.49721-4.65155z"/>
<path d="m561.35 139.57c-6.13302-3.29223-10.0674 1.22789-10.2181 3.53509 1.86362-0.60001 3.86724-1.82219 7.21805 0.0671 2.06791-1.88648 1.97362-2.53078 3.00008-3.60224z"/>
<path d="m556.166 146.073c-6.13873-1.97576-10.4746 2.95223-10.4217 5.26514 1.80504-0.74216 5.32085-2.11505 8.82523-0.49358 1.8972-2.03934 0.66431-3.3708 1.59576-4.51441l-0.0364-0.0336 0.0371-0.22358z"/>
<path d="m560.245 153.716c-4.97228 4.72084-1.4229 10.3824 0.89859 11.1246-0.12286-1.85576 0.0114-5.10371 2.82079-7.65949-1.38646-2.37721-2.89364-2.24863-3.71938-3.46509z"/>
<path d="m575.514 152.513c2.58364 6.19445-2.28507 8.89238-4.72656 8.70594 0.89288-1.65718 2.23506-2.79579 0.73073-6.19159 2.27149-1.66576 2.72865-1.7079 3.99868-2.51435h-0.003z"/>
<path d="m514.296 137.201c-0.90931 6.60161-8.18094 7.9245-10.2231 6.64661 1.63219-1.0436 4.24155-3.49081 4.66227-7.15162 2.84294-0.42144 4.03725 0.63287 5.56087 0.50501z"/>
<path d="m493.955 94.8219c-0.90931 6.59875-7.90735 6.13588-9.95027 4.85799 1.62933-1.0436 3.36795-1.02931 3.78939-4.69013 2.84008-0.42144 4.63727-0.03929 6.16088-0.167862z"/>
<path d="m482.105 45.4484c-6.94518-1.17503-7.67592-9.09596-6.22516-10.9574 1.02717 1.58504 1.93076 4.80227 5.78729 5.37372 0.31215 2.69864 0.37358 4.14154 0.43787 5.58372z"/>
<path d="m518.459 65.954c-3.01079 0.435012-6.81946 1.30861-8.67237 2.83793"/>
<path d="m536.874 20.3056c-1.15503 7.42734 4.16868 6.77161 5.32657 0.437869"/>
<ellipse stroke-width="0.5055" rx="1.14584" ry="1.43229" cx="538.633" cy="23.4212"/>
<path d="m536.841 20.702c1.16075 0.435012 4.05725 0.870738 5.07299 0.290008"/>
<path d="m567.319 26.9044c-1.13574 4.16011 3.28937 6.9759 6.8109 7.11805"/>
</g>
<use xlink:href="#redlion" x="135" y="120"/>
<use xlink:href="#redlion" x="270"/>
</g>
<use xlink:href="#redlions" x="-450" y="300"/>
<use xlink:href="#blacklion" x="450" y="300"/>
</svg>