<?xml version="1.0" encoding="UTF-8" standalone="no"?>
<svg
   xmlns:dc="http://purl.org/dc/elements/1.1/"
   xmlns:cc="http://creativecommons.org/ns#"
   xmlns:rdf="http://www.w3.org/1999/02/22-rdf-syntax-ns#"
   xmlns:svg="http://www.w3.org/2000/svg"
   xmlns="http://www.w3.org/2000/svg"
   id="svg2"
   version="1.1"
   x="0"
   y="0"
   width="400"
   height="500"
   viewBox="30.5 31.5 400 500"
   enable-background="new 30.5 31.5 412 533"
   xml:space="preserve"><metadata
     id="metadata4"><rdf:RDF><cc:Work
         rdf:about=""><dc:format>
          
          
          
          
          image/svg+xml
        
        
        
        
        </dc:format><dc:type
           rdf:resource="http://purl.org/dc/dcmitype/StillImage" /><dc:title></dc:title></cc:Work></rdf:RDF></metadata><defs
     id="defs6" /><path
     id="path8"
     d="M230.44 531.14C156.12 477.22 105.18 409.12 74.7 322.98 47.06 244.88 35.97 150.23 40.79 33.63l0.02-0.46 379.82 0 0.02 0.46c4.81 116.6-6.28 211.24-33.91 289.35C356.26 409.12 305.32 477.22 231 531.14l-0.28 0.2-0.28-0.2z"
     fill="#0085ca"
     style="fill:#32ac60;fill-opacity:1" /><path
     id="path10"
     d="M419.96 33.21C429.03 252.66 383.7 419.16 230.5 530.31 77.31 419.16 31.99 252.66 41.06 33.21l189.45 0 189.45 0m0.92-0.95-0.92 0-189.45 0-189.45 0-0.92 0-0.04 0.92c-4.82 116.66 6.28 211.36 33.93 289.52 30.51 86.24 81.51 154.41 155.91 208.39l0.56 0.41 0.56-0.41C305.46 477.11 356.46 408.94 386.97 322.7 414.62 244.54 425.72 149.84 420.9 33.18l-0.04-0.92 0 0z" /><path
     id="path4272"
     d="m 78.48688,174.07433 c 25.42211,-12.96632 59.75818,-1.1416 80.32008,11.03485 29.73983,17.6115 39.29842,25.93893 67.67925,48.84524 2.06397,3.18499 7.26218,-5.11252 11.70832,-7.68669 4.62478,-2.67746 18.55167,13.73852 16.3505,16.05749 l -6.77416,7.13658 c -2.25461,2.37521 4.63885,4.73809 10.29116,4.55045 4.14023,-0.13691 9.62697,4.11986 11.20523,8.81 3.78256,11.24018 12.29157,15.49205 20.70503,24.08889 5.58408,5.70572 18.8562,14.76761 18.8562,14.76761 2.74616,2.1507 5.02333,5.18284 4.22186,8.30105 -0.86835,3.37807 -2.46652,7.15456 -2.10584,9.41684 0.59454,3.72961 4.94605,6.1935 11.23359,1.47642 7.53033,-5.64938 22.71783,-16.59985 18.7038,-21.90325 -18.56876,-24.5332 -41.85753,-49.11943 -63.84153,-72.18886 -2.48457,-2.6073 -4.51931,-2.72376 -12.28493,1.12312 -21.65718,-22.31178 -42.16226,-38.88008 -61.65443,-55.669 -22.55934,-19.43072 -53.45391,-40.7596 -82.78687,-41.63786 -28.85775,-0.86403 -44.298663,15.68527 -41.82726,43.47712 z"
     style="fill:#ffe000;fill-opacity:1;fill-rule:evenodd;stroke:#000000;stroke-width:1.22858977px;stroke-linecap:butt;stroke-linejoin:miter;stroke-opacity:1" /><path
     style="fill:#ffe000;fill-opacity:1;fill-rule:evenodd;stroke:#000000;stroke-width:1;stroke-linecap:butt;stroke-linejoin:miter;stroke-miterlimit:4;stroke-dasharray:none;stroke-opacity:1"
     d="m 92.540895,266.04517 c 20.960235,-9.7956 48.450345,0.74451 64.770285,11.18476 23.60441,15.10049 31.11658,22.11471 53.47188,41.46718 1.58339,2.63826 6.02699,-3.93944 9.7014,-5.90086 3.82192,-2.04021 14.64744,11.64974 12.79914,13.4672 l -5.68799,5.59303 c -1.8932,1.86156 3.62622,3.96857 8.21114,3.97448 3.35838,0.005 7.68505,3.60712 8.83281,7.45132 2.75073,9.21292 9.52632,12.89562 16.10315,20.09621 4.365,4.77898 14.86546,12.49214 14.86546,12.49214 2.16498,1.81935 3.92527,4.33966 3.18878,6.84383 -0.79788,2.7128 -2.19833,5.72801 -1.96933,7.57098 0.3776,3.03862 3.83451,5.15647 9.06074,1.51015 6.25914,-4.36699 18.8706,-12.8152 15.76646,-17.22435 -14.35981,-20.39659 -32.54244,-40.96795 -49.71026,-60.27391 -1.94022,-2.18198 -3.58565,-2.33319 -9.98514,0.56675 -16.92422,-18.68295 -33.0753,-32.68008 -48.3997,-46.82783 -17.73567,-16.37383 -42.17184,-34.51849 -65.91413,-36.04957 -23.35759,-1.50622 -36.330736,11.47131 -35.104695,34.05849 z"
     id="path4278" /><path
     id="path4280"
     d="m 164.09202,111.39359 c 21.23141,-9.19306 48.40932,2.12778 64.42447,13.02981 23.16356,15.76839 30.47237,22.99427 52.26592,42.97723 1.5074,2.6824 6.13702,-3.76572 9.86595,-5.62141 3.87862,-1.93024 14.30879,12.06326 12.40934,13.8272 l -5.84539,5.42832 c -1.94558,1.80674 3.51142,4.0705 8.0943,4.20734 3.35687,0.1009 7.57891,3.82511 8.61642,7.70052 2.48652,9.28771 9.15419,13.16239 15.52271,20.54786 4.22675,4.90168 14.50267,12.91155 14.50267,12.91155 2.11214,1.88043 3.79974,4.44998 2.99204,6.9321 -0.87502,2.68891 -2.361,5.66289 -2.18472,7.51165 0.29067,3.04817 3.68569,5.26387 9.01392,1.76828 6.38129,-4.18647 19.22886,-12.2711 16.25189,-16.76709 -13.7715,-20.79834 -31.35927,-41.88054 -47.96878,-61.66888 -1.87712,-2.2365 -3.51756,-2.43463 -9.99725,0.28138 -16.3838,-19.15863 -32.12859,-33.61127 -47.04273,-48.19086 -17.26086,-16.873615 -41.16891,-35.708685 -64.8578,-37.917136 -23.30505,-2.172615 -36.6435,10.429156 -36.06296,33.042136 z"
     style="fill:#ffe000;fill-opacity:1;fill-rule:evenodd;stroke:#000000;stroke-width:1;stroke-linecap:butt;stroke-linejoin:miter;stroke-miterlimit:4;stroke-dasharray:none;stroke-opacity:1" /></svg>