<svg xmlns:dc="http://purl.org/dc/elements/1.1/" xmlns:cc="http://creativecommons.org/ns#" xmlns:rdf="http://www.w3.org/1999/02/22-rdf-syntax-ns#" xmlns:svg="http://www.w3.org/2000/svg" xmlns="http://www.w3.org/2000/svg" id="svg2" version="1.1" x="0" y="0" width="400" height="500" viewBox="30.5 31.5 400 500" enable-background="new 30.5 31.5 412 533" xml:space="preserve">
  <metadata id="metadata4">
    <rdf:RDF>
      <cc:Work rdf:about="">
        <dc:format>
          
          
          
          
          
          
          
          
          image/svg+xml
        
        
        
        
        
        
        
        
        </dc:format>
        <dc:type rdf:resource="http://purl.org/dc/dcmitype/StillImage"/>
      </cc:Work>
    </rdf:RDF>
  </metadata>
  <defs id="defs6"/>
  <path d="M230.45 531.13C156.13 477.21 105.19 409.11 74.71 322.97 47.07 244.87 35.98 150.22 40.8 33.62l0.02-0.46 379.82 0 0.02 0.46c4.81 116.6-6.28 211.24-33.91 289.35-30.48 86.14-81.42 154.24-155.74 208.16l-0.28 0.2-0.28-0.2z" id="path4148" fill="#e00e00"/>
  <path d="m359.95 178.48c1.6-1.9 3.76-4.82 0.92-7.08L214.71 54.65c-4.08-3.26-5.82-1.83-1.97 2.75l52.8 62.71c-29.53 14-46.01 29.78-35.2 58 7.56 19.74 30.58 26.66 44.85 24.62-8.64-8.64-18.14-16.97-20.54-25.62-3.51-12.68 2.59-18.62 22.12-27.29 7.22-3.2 11.75-3.03 14.74 0.7l39.79 49.67c2.97 3.71 5.59 1.7 7.86-0.31l64.38 62.84c2.97-13.1 5.85-26.23 7.78-39.74z" id="path4225" style="fill-rule:evenodd;fill:#ffe000"/>
  <path d="m237.04 347.6c1.6-1.9 3.76-4.82 0.92-7.08L91.8 223.77c-4.08-3.26-5.82-1.83-1.97 2.75l52.8 62.71c-29.53 14-46.01 29.78-35.2 58 7.56 19.74 30.58 26.66 44.85 24.62-8.64-8.64-18.14-16.97-20.54-25.62-3.51-12.68 2.59-18.62 22.12-27.29 7.22-3.2 11.75-3.03 14.74 0.7l39.79 49.67c2.97 3.71 5.59 1.7 7.86-0.31l92.89 89.81c7.68-9.55 15.34-19.11 22.42-29.26z" id="path4219" style="fill-rule:evenodd;fill:#ffe000"/>
  <path id="path4223" d="m200.42 176.74c1.6-1.9 3.76-4.82 0.92-7.08L55.18 52.91c-4.08-3.26-5.82-1.83-1.97 2.75l52.8 62.71c-29.53 14-46.01 29.78-35.2 58 7.56 19.74 30.58 26.66 44.85 24.62-8.64-8.64-18.14-16.97-20.54-25.62-3.51-12.68 2.59-18.62 22.12-27.29 7.22-3.2 11.75-3.03 14.74 0.7l39.79 49.67c2.97 3.71 5.59 1.7 7.86-0.31l183.5 179.34c6.44-13.02 12.69-26.11 17.72-39.74z" style="fill-rule:evenodd;fill:#ffe000"/>
  <path id="path10" d="M419.96 33.21C429.03 252.66 383.71 419.16 230.51 530.31 146.04 469.02 94.36 390.9 66.52 296.34 64.43 289.25 62.48 282.07 60.65 274.8 49.2 229.11 42.88 179.78 40.77 126.86 39.57 96.8 39.72 65.58 41.06 33.21l189.45 0 189.45 0m0.92-0.95-0.92 0-189.45 0-189.45 0-0.92 0-0.04 0.92c-4.82 116.66 6.28 211.36 33.93 289.52 30.51 86.24 81.51 154.41 155.91 208.39l0.56 0.41 0.56-0.41C305.46 477.11 356.46 408.94 386.97 322.7 414.62 244.54 425.72 149.84 420.9 33.18l-0.04-0.92 0 0z"/>
  <path id="path4229" d="m411.32 223-51.37-44.51c1.6-1.9 3.76-4.82 0.92-7.08L214.71 54.65c-4.08-3.26-5.82-1.83-1.97 2.75l52.8 62.71c-29.53 14-46.01 29.78-35.2 58 7.56 19.74 30.58 26.66 44.85 24.62-8.64-8.64-18.14-16.97-20.54-25.62-3.51-12.68 2.59-18.62 22.12-27.29 7.22-3.2 11.75-3.03 14.74 0.7l39.79 49.67c2.97 3.71 5.59 1.7 7.86-0.31l64.38 62.84" style="fill:none;stroke:#000"/>
  <path d="M380.85 337.75 200.42 176.74c1.6-1.9 3.76-4.82 0.92-7.08L55.18 52.91c-4.08-3.26-5.82-1.83-1.97 2.75l52.8 62.71c-29.53 14-46.01 29.78-35.2 58 7.56 19.74 30.58 26.66 44.85 24.62-8.64-8.64-18.14-16.97-20.54-25.62-3.51-12.68 2.59-18.62 22.12-27.29 7.22-3.2 11.75-3.03 14.74 0.7l39.79 49.67c2.97 3.71 5.59 1.7 7.86-0.31l183.5 179.34" id="path4231" style="fill:none;stroke:#000"/>
  <path id="path4233" d="M331.55 429.56 237.04 347.6c1.6-1.9 3.76-4.82 0.92-7.08L91.8 223.77c-4.08-3.26-5.82-1.83-1.97 2.75l52.8 62.71c-29.53 14-46.01 29.78-35.2 58 7.56 19.74 30.58 26.66 44.85 24.62-8.64-8.64-18.14-16.97-20.54-25.62-3.51-12.68 2.59-18.62 22.12-27.29 7.22-3.2 11.75-3.03 14.74 0.7l39.79 49.67c2.97 3.71 5.59 1.7 7.86-0.31l92.89 89.81" style="fill:none;stroke:#000"/>
</svg>
