<?xml version="1.0" encoding="UTF-8" standalone="no"?>
<svg
   xmlns:dc="http://purl.org/dc/elements/1.1/"
   xmlns:cc="http://creativecommons.org/ns#"
   xmlns:rdf="http://www.w3.org/1999/02/22-rdf-syntax-ns#"
   xmlns:svg="http://www.w3.org/2000/svg"
   xmlns="http://www.w3.org/2000/svg"
   version="1"
   width="420"
   height="500"
   id="svg2">
  <metadata
     id="metadata51">
    <rdf:RDF>
      <cc:Work
         rdf:about="">
        <dc:format>
          
          image/svg+xml
        
        </dc:format>
        <dc:type
           rdf:resource="http://purl.org/dc/dcmitype/StillImage" />
        <dc:title></dc:title>
      </cc:Work>
    </rdf:RDF>
  </metadata>
  <defs
     id="defs4" />
  <path
     id="path2418"
     d="m 4.4503626,1.5 411.0888574,0 0,300.82465 0,0 c 0,0.0298 0,0.0595 0,0.0903 0,108.64857 -92.02597,196.71263 -205.53922,196.71263 -113.513257,0 -205.5496374,-88.07404 -205.5496374,-196.71263 0,-0.0298 0,-0.0595 0,-0.0903 l 0,0 0,-300.82465 z"
     style="fill:#004899;fill-opacity:1;fill-rule:nonzero" />
  <path
     d="m 4.4503626,1.5 411.0888574,0 0,300.82465 0,0 c 0,0.0298 0,0.0595 0,0.0903 0,108.64857 -92.02597,196.71263 -205.53922,196.71263 -113.513257,0 -205.5496374,-88.07404 -205.5496374,-196.71263 0,-0.0298 0,-0.0595 0,-0.0903 l 0,0 0,-300.82465 z"
     id="path4300"
     style="fill:none;stroke:#000000;stroke-width:1.02142417" />
  <path
     style="fill:none;stroke:#ffffff;stroke-width:12.10532379;stroke-miterlimit:4;stroke-dasharray:none;stroke-opacity:1"
     id="path6774"
     d="m 25.100633,26.497362 369.788217,0 0,270.601878 0,0 c 0,0.0273 0,0.0545 0,0.0802 0,97.73312 -82.78036,176.94975 -184.88935,176.94975 -102.1091,0 -184.898867,-79.22561 -184.898867,-176.94975 0,-0.0273 0,-0.0543 0,-0.0802 l 0,0 0,-270.601878 z" />
  <path
     id="path6776"
     d="m 212.8146,47.149059 c -6.45677,-0.367631 -15.04765,4.479594 -13.2887,10.748212 0.58821,5.538473 0.94201,12.938573 -1.2815,13.221142 -20.18082,2.564616 -46.79991,16.074917 -66.72537,40.519917 -26.49087,32.49959 -32.356957,65.74053 -42.797427,107.2867 -3.14299,12.50701 -3.54137,20.71446 -4.38191,33.20602 -0.4197,6.23724 13.25424,-1.93659 27.842837,-8.19661 14.98321,-6.42937 31.92867,-12.00214 53.14451,-14.2612 2.84529,-0.30297 1.89111,13.5304 -0.50364,13.58905 -26.67924,0.65336 -94.777477,28.81566 -96.816527,40.15201 -2.34033,13.01129 -2.50224,34.25769 4.29928,45.53334 23.89876,39.61969 67.648927,54.41881 114.712737,59.79914 1.74313,9.34749 16.77105,25.43407 22.85836,25.52404 6.40567,0.0947 19.80426,-13.14532 22.67497,-26.11031 36.03514,-0.003 67.52203,-15.34128 83.64063,-24.42775 22.22571,-12.52921 33.4765,-31.04496 36.15308,-50.80973 1.69464,-12.51384 4.25013,-29.79557 -1.47422,-33.11549 -18.02034,-10.45116 -40.59802,-21.06291 -62.73926,-27.74993 -5.71477,-1.72596 -20.79403,-6.72831 -29.97994,-9.07337 -2.79193,-0.71275 -2.02415,-12.73117 1.28533,-12.02567 28.49396,6.07421 50.04362,15.12233 74.86355,27.63804 5.54431,2.79577 5.85491,-17.82787 4.69192,-27.55267 -4.93474,-41.26358 -17.11279,-72.10583 -34.72212,-104.62112 -10.76201,-19.87184 -32.40193,-39.551958 -61.48947,-51.350929 -10.50048,-4.259377 -16.80791,-5.430827 -22.62392,-5.291665 -1.58428,0.03791 -2.3745,-1.803327 -0.24597,-1.924338 6.8506,-0.38947 8.17113,-0.30785 7.75484,-10.935727 -0.21132,-5.394948 -8.45498,-9.406869 -14.85207,-9.771102 z"
     style="fill:#ffe000;fill-opacity:1;fill-rule:evenodd;stroke:#000000;stroke-width:1px;stroke-linecap:butt;stroke-linejoin:miter;stroke-opacity:1" />
  <path
     id="path6778"
     d="m 192.85081,299.87606 c 0.61961,-9.26901 -9.33091,-19.54626 -22.38215,-15.8757 -32.30461,9.08542 -50.75475,14.52308 -82.241367,32.01167 -5.58559,3.1024 1.67941,10.57311 5.20515,16.65648 5.9575,10.27918 26.576147,23.74429 47.351737,32.9225 23.32512,10.30454 46.70707,14.46166 47.12173,8.25848 z"
     style="fill:#004899;fill-opacity:1;fill-rule:evenodd;stroke:#000000;stroke-width:1px;stroke-linecap:butt;stroke-linejoin:miter;stroke-opacity:1" />
  <path
     style="fill:#004899;fill-opacity:1;fill-rule:evenodd;stroke:#000000;stroke-width:1px;stroke-linecap:butt;stroke-linejoin:miter;stroke-opacity:1"
     d="m 229.97429,300.65683 c -0.61117,-17.11263 19.5765,-17.25513 23.42319,-16.39622 28.15716,6.28708 52.13957,18.04221 77.29647,30.18987 5.1,2.46267 1.22161,15.29474 -3.12309,19.51931 -32.81925,31.91184 -94.80948,44.72541 -94.99399,39.55914 z"
     id="path6780" />
  <path
     id="path6782"
     d="m 187.90591,373.74052 -0.88702,15.00626"
     style="fill:none;fill-rule:evenodd;stroke:#000000;stroke-width:1px;stroke-linecap:butt;stroke-linejoin:miter;stroke-opacity:1" />
  <path
     id="path6784"
     d="m 232.57687,373.52893 -0.0247,14.63158"
     style="fill:none;fill-rule:evenodd;stroke:#000000;stroke-width:1px;stroke-linecap:butt;stroke-linejoin:miter;stroke-opacity:1" />
  <path
     id="path6786"
     d="m 208.9103,351.82051 c -3.17575,-4.0662 -1.32661,-3.81518 0,-3.68059 5.6807,0.57633 13.51613,2.89606 13.32022,14.99844 -0.15463,9.5525 -10.53593,14.90079 -16.0106,13.89425 -1.81212,-0.33317 0.94444,-2.44594 2.41434,-4.60075 2.26471,-3.31999 4.82916,-14.78157 0.27604,-20.61135 z"
     style="fill:#004899;fill-opacity:1;fill-rule:evenodd;stroke:#000000;stroke-width:1px;stroke-linecap:butt;stroke-linejoin:miter;stroke-opacity:1" />
  <path
     style="fill:#004899;fill-opacity:1;fill-rule:evenodd;stroke:#000000;stroke-width:1px;stroke-linecap:butt;stroke-linejoin:miter;stroke-opacity:1"
     d="m 209.41464,252.59555 c -3.57748,-3.71766 -1.00584,-3.50469 0.32691,-3.46265 5.6807,0.17918 12.86231,3.04622 12.6664,13.58182 -0.17762,9.5521 -10.22869,13.35527 -16.66442,13.89425 -2.01226,0.16852 -0.95195,-2.34505 1.65154,-4.49178 2.99385,-2.4686 6.79063,-14.56362 2.01957,-19.52164 z"
     id="path6792" />
  <path
     id="path6794"
     d="m 271.65295,257.86939 c -3.79357,-3.49689 -1.32661,-3.81518 0,-3.68059 5.6807,0.57633 12.09951,4.63959 11.68566,14.99844 -0.38138,9.54614 -12.82431,13.26623 -18.62589,11.38793 -1.75292,-0.56752 0.0149,-1.62778 3.50404,-2.74825 5.76552,-1.85151 9.40592,-14.45466 3.43619,-19.95753 z"
     style="fill:#004899;fill-opacity:1;fill-rule:evenodd;stroke:#000000;stroke-width:1px;stroke-linecap:butt;stroke-linejoin:miter;stroke-opacity:1" />
  <path
     style="fill:#004899;fill-opacity:1;fill-rule:evenodd;stroke:#000000;stroke-width:1px;stroke-linecap:butt;stroke-linejoin:miter;stroke-opacity:1"
     d="m 327.51146,282.1655 c -2.63909,-4.43334 -2.7356,-4.31215 -1.41662,-4.11647 5.3538,0.79427 10.65708,9.97463 7.32686,15.8702 -3.12009,5.52358 -8.85214,6.79331 -12.63253,5.28558 -3.08291,-1.22955 -3.08988,-1.94947 0.34391,-1.98545 5.62515,-0.0589 9.66582,-9.53137 6.37838,-15.05386 z"
     id="path6796" />
  <path
     id="path6798"
     d="m 148.71251,261.35324 c -4.11011,-3.11872 -0.78677,-2.95751 0.54485,-3.02677 5.6807,-0.29543 11.00981,0.71665 12.33949,11.18448 1.2039,9.47759 -5.63226,12.93932 -11.65178,12.80454 -1.84203,-0.0412 -1.68295,-0.88844 0.3439,-2.53032 4.77103,-3.86484 3.52151,-14.56362 -1.57646,-18.43193 z"
     style="fill:#004899;fill-opacity:1;fill-rule:evenodd;stroke:#000000;stroke-width:1px;stroke-linecap:butt;stroke-linejoin:miter;stroke-opacity:1" />
  <path
     style="fill:#004899;fill-opacity:1;fill-rule:evenodd;stroke:#000000;stroke-width:1px;stroke-linecap:butt;stroke-linejoin:miter;stroke-opacity:1"
     d="m 90.945413,283.01857 c -4.14285,-3.0751 -1.3334,-3.68843 0,-3.68059 5.35379,0.0315 10.499457,0.36326 12.993307,7.69742 2.2194,6.52703 -4.324617,13.50525 -9.799287,14.65704 -1.80302,0.37933 -0.455,-1.45359 0.99773,-3.62002 2.59162,-3.86484 0.57931,-11.51245 -4.19175,-15.05385 z"
     id="path6800" />
  <path
     id="path6802"
     d="m 208.03853,174.81636 c -3.34694,-3.92649 -0.28529,-3.33814 1.04132,-3.20355 5.6807,0.57633 12.49575,6.18836 12.16993,13.21376 -0.37463,8.07793 -11.24978,13.04829 -15.90163,12.58661 -1.83348,-0.18197 0.49846,-2.1198 2.63228,-3.62002 3.32722,-2.33926 4.28431,-14.01878 0.0581,-18.9768 z"
     style="fill:#004899;fill-opacity:1;fill-rule:evenodd;stroke:#000000;stroke-width:1px;stroke-linecap:butt;stroke-linejoin:miter;stroke-opacity:1" />
  <path
     style="fill:#004899;fill-opacity:1;fill-rule:evenodd;stroke:#000000;stroke-width:1px;stroke-linecap:butt;stroke-linejoin:miter;stroke-opacity:1"
     d="m 210,99.378447 c -4.01631,-3.238609 -1.33321,-3.003143 0,-3.026768 4.37305,-0.07749 11.35041,2.900558 11.03184,12.274181 -0.30244,8.899 -8.02961,13.59315 -13.50428,12.58661 -1.81212,-0.33317 1.00254,-1.24727 2.47244,-3.40208 2.26471,-3.31999 4.66209,-14.6726 0,-18.431943 z"
     id="path6804" />
  <path
     id="path6806"
     d="m 190.28686,233.64307 c 0.0375,1.98973 -7.98473,2.85282 -8.09732,0.73612 -2.39502,-45.02597 2.50407,-91.6514 6.1069,-136.537942 0.14913,-1.857906 8.03856,-1.273899 7.87937,0.559327 -3.79959,43.757015 -6.77901,88.027255 -5.88895,135.242495 z"
     style="fill:#004899;fill-opacity:1;fill-rule:evenodd;stroke:#000000;stroke-width:1px;stroke-linecap:butt;stroke-linejoin:miter;stroke-opacity:1" />
  <path
     id="path6808"
     d="m 234.26999,232.27981 c -0.0607,2.20587 8.28682,2.62253 8.46537,0.55209 3.62717,-42.06103 -2.39393,-86.75726 -5.10445,-134.608117 -0.12869,-2.271865 -8.62256,-2.255147 -8.51376,-0.217941 2.40002,44.938758 6.40283,88.829848 5.15284,134.273968 z"
     style="fill:#004899;fill-opacity:1;fill-rule:evenodd;stroke:#000000;stroke-width:1px;stroke-linecap:butt;stroke-linejoin:miter;stroke-opacity:1" />
  <path
     id="path6810"
     d="m 120.72358,335.58837 c -1.97211,-1.16962 -8.22924,4.31199 -6.62508,5.88895 18.65994,18.34353 53.84574,30.64071 68.34094,31.27853 2.8302,0.12454 4.57943,-10.94471 2.19911,-11.24161 -24.72548,-3.084 -43.62269,-13.89092 -63.91497,-25.92587 z"
     style="fill:#ffe000;fill-opacity:1;fill-rule:evenodd;stroke:#000000;stroke-width:1px;stroke-linecap:butt;stroke-linejoin:miter;stroke-opacity:1" />
  <path
     id="path6812"
     d="m 132.5935,333.9321 c 11.95524,9.64815 34.54711,19.19372 50.70472,21.13351 3.3236,0.39901 4.3838,-9.99384 2.48441,-10.21366 -20.47072,-2.36911 -35.12639,-9.98294 -46.74808,-17.72896 -2.04028,-1.35987 -8.02749,5.52881 -6.44105,6.80911 z"
     style="fill:#ffe000;fill-opacity:1;fill-rule:evenodd;stroke:#000000;stroke-width:1px;stroke-linecap:butt;stroke-linejoin:miter;stroke-opacity:1" />
  <path
     id="path6814"
     d="m 154.7691,317.73747 c 11.17508,6.93056 20.02325,10.03552 31.13546,10.37121 2.95751,0.0893 2.29423,10.09676 0.27829,10.0561 -14.63145,-0.29512 -31.05649,-7.8363 -36.56659,-12.88208 -1.73001,-1.58423 3.14367,-8.79128 5.15284,-7.54523 z"
     style="fill:#ffe000;fill-opacity:1;fill-rule:evenodd;stroke:#000000;stroke-width:1px;stroke-linecap:butt;stroke-linejoin:miter;stroke-opacity:1" />
  <path
     style="fill:#ffe000;fill-opacity:1;fill-rule:evenodd;stroke:#000000;stroke-width:1px;stroke-linecap:butt;stroke-linejoin:miter;stroke-opacity:1"
     d="m 299.84813,335.77989 c 1.23798,-0.79295 8.88621,6.05962 7.42983,7.1185 -18.32031,13.32006 -46.86482,24.29214 -69.28428,28.25031 -2.78979,0.49254 -3.65316,-9.73934 -1.28395,-10.11475 24.84055,-3.9361 41.08099,-11.12589 63.1384,-25.25406 z"
     id="path6816" />
  <path
     style="fill:#ffe000;fill-opacity:1;fill-rule:evenodd;stroke:#000000;stroke-width:1px;stroke-linecap:butt;stroke-linejoin:miter;stroke-opacity:1"
     d="m 289.63243,334.03649 c -13.07925,11.25616 -38.28955,19.80517 -51.90659,20.93376 -3.33603,0.27649 -4.62848,-11.37684 -1.15504,-11.6238 14.79272,-1.05177 31.6357,-6.24587 45.44401,-17.02997 1.93244,-1.50921 9.07379,6.46681 7.61762,7.72001 z"
     id="path6818" />
  <path
     style="fill:#ffe000;fill-opacity:1;fill-rule:evenodd;stroke:#000000;stroke-width:1px;stroke-linecap:butt;stroke-linejoin:miter;stroke-opacity:1"
     d="m 269.37779,317.68961 c -9.56596,4.81329 -20.06679,8.36866 -32.59439,8.26496 -3.2234,-0.0267 -2.82761,10.56645 -0.52481,10.73072 11.56873,0.82524 29.30135,-5.21258 38.62372,-11.75557 1.65256,-1.15986 -3.70434,-8.14591 -5.50452,-7.24011 z"
     id="path6820" />
  <path
     id="path6824"
     d="m 297.85229,224.34233 c -1.16185,-0.11147 -2.20866,1.88632 0,2.76045 6.94865,2.75009 14.27635,6.74212 20.61134,10.94977 2.22213,1.47592 2.58991,-2.47712 0.64412,-4.3247 -4.94239,-4.69293 -12.69099,-8.56383 -21.25546,-9.38552 z"
     style="fill:#004899;fill-opacity:1;fill-rule:evenodd;stroke:#000000;stroke-width:1px;stroke-linecap:butt;stroke-linejoin:miter;stroke-opacity:1" />
  <path
     style="fill:#004899;fill-opacity:1;fill-rule:evenodd;stroke:#000000;stroke-width:1px;stroke-linecap:butt;stroke-linejoin:miter;stroke-opacity:1"
     d="m 295.09184,208.1477 c -1.16178,0.1122 -2.2048,1.87663 0,2.76045 8.69693,3.48621 13.26419,6.09802 20.61134,10.94977 2.22605,1.47 1.43861,-3.67313 -0.73611,-5.24485 -7.37735,-5.33177 -15.62889,-8.87548 -19.87523,-8.46537 z"
     id="path6826" />
  <path
     id="path6828"
     d="m 293.09184,192.1477 c -1.16461,-0.0775 -2.28939,2.12722 0,2.76045 6.94865,1.92196 12.068,3.24556 19.41515,8.09731 2.22605,1.47 3.90612,-2.26981 1.74829,-3.86463 -6.59865,-4.87695 -14.34725,-6.5395 -21.16344,-6.99313 z"
     style="fill:#004899;fill-opacity:1;fill-rule:evenodd;stroke:#000000;stroke-width:1px;stroke-linecap:butt;stroke-linejoin:miter;stroke-opacity:1" />
  <path
     style="fill:#004899;fill-opacity:1;fill-rule:evenodd;stroke:#000000;stroke-width:1px;stroke-linecap:butt;stroke-linejoin:miter;stroke-opacity:1"
     d="m 288.90781,175.96367 c -1.16716,-0.007 -2.13772,2.99482 0.18403,3.49657 6.76462,1.46189 12.7121,1.40526 20.05925,6.25701 2.22605,1.47 2.67211,-2.21986 0.5521,-3.86462 -6.24143,-4.84225 -12.51739,-5.83893 -20.79538,-5.88896 z"
     id="path6830" />
  <path
     id="path6832"
     d="m 282.72378,161.71195 c -1.15932,0.13527 -2.36826,2.57705 0,2.76045 6.49333,0.50286 13.61068,2.54565 20.15127,6.165 2.39216,1.32374 4.33907,-3.15165 2.02434,-4.50873 -8.37008,-4.90719 -16.91613,-5.03041 -22.17561,-4.41672 z"
     style="fill:#004899;fill-opacity:1;fill-rule:evenodd;stroke:#000000;stroke-width:1px;stroke-linecap:butt;stroke-linejoin:miter;stroke-opacity:1" />
  <path
     style="fill:#004899;fill-opacity:1;fill-rule:evenodd;stroke:#000000;stroke-width:1px;stroke-linecap:butt;stroke-linejoin:miter;stroke-opacity:1"
     d="m 276.90781,147.61993 c -1.16688,0.0268 -2.37272,2.64867 0,2.76045 7.59275,0.35771 14.5524,1.12922 21.99156,4.87679 2.3824,1.20017 3.85467,-2.53819 1.47225,-3.77261 -8.34693,-4.32487 -15.17538,-4.0551 -23.46381,-3.86463 z"
     id="path6834" />
  <path
     id="path6836"
     d="m 273.09184,134.44807 c -1.16531,0.0662 -2.35728,2.46801 0,2.76045 5.10835,0.63375 10.04367,0.025 16.93075,3.68059 2.35627,1.25067 3.75767,-2.44707 1.28822,-3.49656 -7.79485,-3.31271 -13.24308,-3.22697 -18.21897,-2.94448 z"
     style="fill:#004899;fill-opacity:1;fill-rule:evenodd;stroke:#000000;stroke-width:1px;stroke-linecap:butt;stroke-linejoin:miter;stroke-opacity:1" />
  <path
     style="fill:#004899;fill-opacity:1;fill-rule:evenodd;stroke:#000000;stroke-width:1px;stroke-linecap:butt;stroke-linejoin:miter;stroke-opacity:1"
     d="m 127.05517,223.64433 c 1.16619,-0.0481 2.30081,2.17006 0,2.76045 -8.26279,2.12023 -12.32705,2.83611 -21.30935,8.62707 -2.24205,1.44547 -4.22416,-2.19318 -1.93233,-3.58858 10.2573,-6.24527 14.90326,-7.45495 23.24168,-7.79894 z"
     id="path6838" />
  <path
     id="path6840"
     d="m 128.59709,207.97427 c 1.16616,0.0489 2.35774,2.47178 0,2.76045 -9.34549,1.14422 -12.6495,2.24806 -20.91896,8.10656 -2.17671,1.54209 -4.16901,-2.10637 -1.93233,-3.58858 8.97567,-5.94802 13.78434,-7.65846 22.85129,-7.27843 z"
     style="fill:#004899;fill-opacity:1;fill-rule:evenodd;stroke:#000000;stroke-width:1px;stroke-linecap:butt;stroke-linejoin:miter;stroke-opacity:1" />
  <path
     style="fill:#004899;fill-opacity:1;fill-rule:evenodd;stroke:#000000;stroke-width:1px;stroke-linecap:butt;stroke-linejoin:miter;stroke-opacity:1"
     d="m 133.10582,189.85658 c 1.16702,0.0195 2.29005,2.12963 0,2.76045 -8.49616,2.34036 -10.58,1.83671 -21.69973,9.01746 -2.24096,1.44714 -4.19193,-2.14156 -1.93233,-3.58858 10.58904,-6.78109 17.27228,-8.29556 23.63206,-8.18933 z"
     id="path6842" />
  <path
     id="path6844"
     d="m 135.89784,175.85181 c 1.1568,0.15543 2.63507,3.59189 0.26026,3.54122 -6.77412,-0.14455 -11.7772,1.31139 -20.52857,5.63412 -2.39175,1.1814 -2.40498,-3.23854 -0.11053,-4.62961 6.51977,-3.95278 14.27467,-5.36589 20.37884,-4.54573 z"
     style="fill:#004899;fill-opacity:1;fill-rule:evenodd;stroke:#000000;stroke-width:1px;stroke-linecap:butt;stroke-linejoin:miter;stroke-opacity:1" />
  <path
     style="fill:#004899;fill-opacity:1;fill-rule:evenodd;stroke:#000000;stroke-width:1px;stroke-linecap:butt;stroke-linejoin:miter;stroke-opacity:1"
     d="m 141.65667,160.69821 c 1.13792,0.25975 2.37467,2.70409 0,2.76045 -7.28301,0.17286 -13.51848,1.39606 -20.13819,4.85334 -2.36455,1.23493 -3.32426,-2.73192 -1.02143,-4.10909 7.07794,-4.23285 15.30416,-4.8413 21.15962,-3.5047 z"
     id="path6846" />
  <path
     id="path6848"
     d="m 147.56795,146.29923 c 1.1479,0.21137 2.24464,2.05744 -0.13013,2.1098 -6.6911,0.14753 -10.68394,0.98872 -18.83689,4.85335 -2.41052,1.14262 -2.98905,-2.69854 -0.63104,-3.97897 7.5988,-4.12624 12.20815,-4.3449 19.59806,-2.98418 z"
     style="fill:#004899;fill-opacity:1;fill-rule:evenodd;stroke:#000000;stroke-width:1px;stroke-linecap:butt;stroke-linejoin:miter;stroke-opacity:1" />
  <path
     style="fill:#004899;fill-opacity:1;fill-rule:evenodd;stroke:#000000;stroke-width:1px;stroke-linecap:butt;stroke-linejoin:miter;stroke-opacity:1"
     d="m 152.47249,134.79195 c 1.05118,0.5073 1.79164,3.82521 -0.52052,3.28096 -4.34878,-1.02363 -10.03329,-1.48372 -15.06316,0.29884 -2.51438,0.89108 -1.98439,-2.1173 0.40999,-3.32832 5.28158,-2.67131 11.05592,-2.23872 15.17369,-0.25148 z"
     id="path6850" />
</svg>
