<?xml version="1.0" encoding="UTF-8" standalone="no"?>
<svg
   xmlns:dc="http://purl.org/dc/elements/1.1/"
   xmlns:cc="http://creativecommons.org/ns#"
   xmlns:rdf="http://www.w3.org/1999/02/22-rdf-syntax-ns#"
   xmlns:svg="http://www.w3.org/2000/svg"
   xmlns="http://www.w3.org/2000/svg"
   id="svg2"
   version="1.1"
   x="0"
   y="0"
   width="400"
   height="500"
   viewBox="30.5 31.5 400 500"
   enable-background="new 30.5 31.5 412 533"
   xml:space="preserve"><metadata
     id="metadata4"><rdf:RDF><cc:Work
         rdf:about=""><dc:format>
          
          
          
          image/svg+xml
        
        
        
        </dc:format><dc:type
           rdf:resource="http://purl.org/dc/dcmitype/StillImage" /><dc:title></dc:title></cc:Work></rdf:RDF></metadata><defs
     id="defs6" /><path
     style="fill:#e00e00"
     id="path8"
     d="M 230.44,531.14 C 156.12,477.22 105.18,409.12 74.699999,322.98 c -27.64,-78.1 -38.73,-172.75 -33.91,-289.35 l 0.02,-0.46 379.820001,0 0.02,0.46 c 4.81,116.6 -6.28,211.24 -33.91,289.35 C 356.26,409.12 305.32,477.22 231,531.14 l -0.28,0.2 -0.28,-0.2 z" /><path
     id="path10"
     d="M 419.96,33.21 C 429.03,252.66 383.7,419.16 230.5,530.31 77.309999,419.16 31.989999,252.66 41.059999,33.21 l 189.450001,0 189.45,0 m 0.92,-0.95 -0.92,0 -189.45,0 -189.450001,0 -0.92,0 -0.04,0.92 c -4.82,116.66 6.28,211.36 33.93,289.52 C 104.54,408.94 155.54,477.11 229.94,531.09 l 0.56,0.41 0.56,-0.41 C 305.46,477.11 356.46,408.94 386.97,322.7 414.62,244.54 425.72,149.84 420.9,33.18 l -0.04,-0.92 0,0 z" /><path
     style="fill:#ffe000;fill-opacity:1;stroke:#000000;stroke-opacity:1"
     id="path2827"
     d="m 173.78178,174.10339 c 4.50112,2.55811 10.27161,-10.82712 10.46716,-14.80721 0.15268,-3.10757 -3.82859,-1.96909 -5.10593,-5.61653 -2.28994,-6.53894 -0.17361,-16.02917 -0.76588,-23.99788 -5.83878,0.33889 -6.14327,-3.25098 -5.61656,-6.51006 0.17369,-6.97347 7.71556,-23.478871 7.14831,-27.061441 -1.99013,-12.569093 -16.74444,-15.134707 -17.3739,-28.007725 -0.0845,-1.726984 1.93692,-2.174188 3.06355,-3.06356 -0.10706,-2.664429 -2.78343,-7.858044 -0.12764,-7.786547 20.99857,0.565304 38.20695,17.940369 38.20695,17.940369 4.00545,3.339831 8.60185,-5.404563 20.50501,-6.064861 34.5795,-1.918211 28.86186,8.257744 36.42083,5.329558 10.56386,-4.092214 18.14767,-16.266621 23.03053,-14.0318 4.4929,2.05634 8.89016,-1.160983 14.50102,-0.6231 2.24236,0.214962 -0.58809,5.379725 0.74826,6.613058 2.11983,1.956401 7.75667,0.814703 5.47999,4.121164 -4.41153,6.406965 -20.00688,19.262866 -19.77347,22.390666 0.99715,13.362199 12.29948,26.098659 -0.30648,38.691169 0.49365,8.93811 -0.16561,20.13545 -9.9096,23.46092 -0.65037,7.69639 5.38242,23.87171 12.47786,21.14422 3.83552,-1.47438 16.44548,-10.7977 23.80903,-23.15384 11.15776,-18.7229 20.80472,-43.54799 28.21452,-48.91785 5.66506,-4.10546 9.72071,-17.895336 20.92168,-16.99938 28.59161,2.287018 22.36305,61.89309 31.19256,95.60618 2.88581,11.01864 -5.11621,9.20472 -5.31476,11.77242 -1.82964,23.66185 -0.19529,51.092 -3.68072,62.99818 -1.8455,6.30419 -8.43609,2.98179 -9.62344,8.46654 -4.5125,20.84465 -14.17865,61.37567 -28.05365,84.57004 -4.96972,8.30771 -7.70804,3.72535 -9.39877,0.46206 -1.98839,-3.83782 1.89577,-22.20975 -0.1203,-24.78689 -1.67698,-2.14368 -11.5935,20.55743 -15.29877,19.61979 -5.63636,-1.42632 -0.58418,-23.90717 -1.69109,-27.62683 -0.83602,-2.80932 -12.40501,19.05144 -15.10153,17.34428 -4.65516,-2.94717 4.8e-4,-21.4969 1.4611,-24.37662 4.72788,-9.32138 11.43325,-26.26556 11.17609,-31.66099 -0.43318,-9.0881 -8.91356,-21.35904 -10.95982,-21.6854 -2.62443,3.65229 -13.03157,35.83801 -13.69317,51.41264 -1.22792,28.90622 15.91367,49.06 22.69082,79.9807 0.62758,2.86334 -2.99106,3.86393 -5.40555,5.19348 -6.75427,3.71927 4.77848,12.33667 0.10549,15.87162 -2.86806,2.16958 -28.78535,-12.93527 -41.82012,-24.92935 -0.76301,-0.7021 -6.47983,12.4437 -5.62495,13.40199 7.16758,8.03449 20.81913,10.03574 24.76376,14.18161 6.83749,7.18629 3.43467,20.03453 0.11814,16.02671 -2.19251,-2.64951 -2.5468,-9.51182 -5.062,-9.99349 -2.42159,-0.46375 -5.76034,4.79849 -8.4712,4.32074 -4.33886,-0.76466 -6.36262,-7.22213 -10.73153,-3.23516 -1.64339,1.49972 9.62143,11.76877 9.65839,15.23211 0.0971,9.0966 1.12838,9.35445 3.50624,8.71087 l 5.88556,-1.59296 c 10.06119,-2.72312 -0.74415,13.4488 -6.19047,13.3862 -9.39862,-0.10803 -10.20818,-8.62724 -15.49819,-14.71965 -3.46117,-3.98616 -6.80395,-8.03987 -6.03006,-4.37798 2.84122,13.44402 -4.94749,17.43617 -4.11955,20.09245 3.31009,10.6197 11.55153,4.80833 11.13178,8.16841 -0.46667,3.73577 -4.6199,5.8905 -9.09891,5.89927 -8.65621,0.017 -12.04501,-6.98605 -12.94672,-15.34002 -0.69942,-6.47982 1.63644,-16.7602 -0.24538,-18.96462 -1.87215,-2.19307 -5.69038,13.56503 -8.50408,14.63157 -2.26654,0.85913 -5.12039,-2.21498 -6.97076,-0.7452 -2.20915,1.75477 -1.65764,6.07295 -0.76178,7.76315 1.48699,2.80549 7.66515,5.53206 5.39181,6.73899 -10.68024,5.6702 -18.15331,-4.69369 -15.26191,-15.96869 2.92212,-11.39482 23.34569,-28.08106 31.93974,-55.98064 1.2789,-4.15179 -6.33732,-16.03155 -11.91582,-14.7931 -4.60304,1.02189 -11.25484,1.55266 -9.70395,5.70523 2.0242,5.41987 9.68337,7.38169 12.29793,17.95181 1.46005,5.9027 -9.43832,11.67991 -9.48699,7.85798 0,0 2.57283,-12.42257 -0.13889,-10.90595 -2.54922,1.42573 -5.01936,3.39447 -7.64765,3.10419 -3.83552,-0.4236 -6.07773,-2.24503 -7.16335,-0.26413 -1.86623,3.40526 -0.41949,12.1643 -1.13379,17.00128 -0.75475,5.11089 -3.90993,0.708 -5.13989,5.90929 -0.23441,0.9913 -0.49581,5.18313 0.9378,6.62494 2.70847,2.72395 6.47028,3.49185 6.10512,5.00275 -0.4639,1.91946 -8.80528,4.43785 -12.92996,0.74956 -6.82517,-6.10307 -2.63345,-14.22711 -3.64799,-21.37701 -0.22498,-1.58549 -0.20362,-4.45868 -2.74741,-3.22515 -5.05975,2.45357 -3.68824,6.43799 -9.42425,9.15844 -3.27428,1.55291 -6.34968,-1.46783 -7.60539,0.0518 -2.66589,3.22622 0.0168,10.62181 2.57031,13.96665 2.10302,2.75469 -12.72545,-1.1538 -13.42886,-11.53751 -0.45213,-6.67433 8.86709,-13.7889 13.10807,-17.61619 1.9128,-1.72622 7.28522,-6.36666 5.74047,-6.34068 -12.49137,0.21002 -17.89348,-6.95571 -18.58501,-3.44259 -0.8483,4.30955 -1.16217,13.53116 -3.49685,12.37443 -12.47381,-6.18019 -4.39199,-23.37308 4.42781,-24.27896 24.29182,-2.49502 38.29643,-0.67527 41.50332,-17.95388 0.62091,-3.34543 1.28435,-12.63278 -1.43356,-14.99584 -1.74082,-1.51353 -3.42142,7.60874 -5.8705,6.89164 -6.2891,-1.84148 -12.06667,-18.01195 -13.37144,-20.12129 -13.23987,-21.40418 -12.97829,-34.08641 -15.42554,-53.68714 -1.189,-9.52302 -3.62004,-26.52498 -7.39308,-26.28973 -6.08702,0.37952 -12.37237,12.41493 -13.09156,17.52048 -2.91256,20.67628 14.21029,34.74859 13.84576,55.43925 -0.14194,8.05648 -2.65674,8.5677 -3.76396,7.04403 -2.03348,-2.79832 -10.51117,-19.36714 -13.42403,-18.4257 -1.76092,0.56913 0.69538,27.76195 -2.00268,28.29563 -5.85558,1.15824 -12.23777,-23.26838 -14.83169,-22.82307 -1.61594,0.27742 -0.64083,20.35474 -0.36661,26.70873 0.23142,5.36251 -4.13476,6.51514 -5.92452,1.55053 -10.18838,-28.26159 -25.249031,-55.67901 -34.195631,-84.64957 -23.08375,-4.90742 -9.87147,-49.61264 -12.12659,-77.48253 -6.8775,1.14002 -10.22169,-2.35803 -7.96745,-10.96114 5.42621,-20.70861 11.26198,-68.72251 15.88165,-80.94564 3.46335,-9.163661 27.026951,-12.456072 32.550321,-4.595339 17.76011,25.275799 29.50558,63.227509 57.05879,78.886659 z" /><path
     style="fill:none;fill-opacity:1;stroke:#000000;stroke-width:1;stroke-miterlimit:4;stroke-dasharray:none;stroke-opacity:1"
     id="path3651"
     d="m 230.66666,121.16362 c -3.6079,-0.12259 -6.557,5.22992 -6.5032,8.97623 0.0408,2.84115 4.47931,7.48631 6.776,12.43214 3.3075,-4.406 5.86029,-8.07737 5.72947,-14.16143 -0.0903,-4.19867 -2.85888,-7.14013 -6.00227,-7.24694 z" /><path
     id="path4326"
     d="m 210.62521,154.07169 c 7.3068,-6.26344 4.35714,-14.87145 9.47229,-21.3319"
     style="fill:none;fill-rule:evenodd;stroke:#000000;stroke-width:1px;stroke-linecap:round;stroke-linejoin:round;stroke-opacity:1" /><path
     id="path4328"
     d="m 242.1225,133.20185 c 5.04177,5.98619 3.42133,12.36862 9.85734,18.02045"
     style="fill:none;fill-rule:evenodd;stroke:#000000;stroke-width:1px;stroke-linecap:round;stroke-linejoin:round;stroke-opacity:1" /><path
     id="path4330"
     d="m 195.30013,87.457636 c 9.90868,12.841424 16.27488,4.676327 34.34667,24.797374 20.20573,-22.125247 30.65195,-14.439116 36.0409,-27.877793"
     style="fill:none;fill-rule:evenodd;stroke:#000000;stroke-width:1px;stroke-linecap:round;stroke-linejoin:round;stroke-opacity:1" /><path
     style="fill:none;fill-rule:evenodd;stroke:#000000;stroke-width:1px;stroke-linecap:round;stroke-linejoin:miter;stroke-opacity:1"
     d="m 260.27083,100.85745 c -1.59381,2.04134 -4.68575,5.20311 -6.93094,5.77579 -3.99202,-0.24578 -8.68231,-0.80272 -11.16652,2.46433 -3.40317,4.47559 -1.60822,10.97794 5.8528,10.39642 6.74357,-0.5256 5.83547,-8.18155 5.31372,-12.86075"
     id="path4334" /><circle
     r="2.809746"
     cy="113.14062"
     cx="247.16669"
     id="path4336"
     style="opacity:1;fill:#000000;fill-opacity:1;fill-rule:evenodd;stroke:none;stroke-width:1;stroke-linecap:round;stroke-linejoin:round;stroke-miterlimit:4;stroke-dasharray:none;stroke-opacity:1" /><path
     id="path4338"
     d="m 198.78141,101.16549 c 1.59381,2.04134 4.68575,5.20311 6.93094,5.77579 3.99202,-0.24578 8.68231,-0.80272 11.16652,2.46433 3.40317,4.47559 1.60822,10.97794 -5.8528,10.39642 -6.74357,-0.5256 -5.83547,-8.18155 -5.31372,-12.86075"
     style="fill:none;fill-rule:evenodd;stroke:#000000;stroke-width:1px;stroke-linecap:round;stroke-linejoin:miter;stroke-opacity:1" /><circle
     transform="scale(-1,1)"
     style="opacity:1;fill:#000000;fill-opacity:1;fill-rule:evenodd;stroke:none;stroke-width:1;stroke-linecap:round;stroke-linejoin:round;stroke-miterlimit:4;stroke-dasharray:none;stroke-opacity:1"
     id="circle4340"
     cx="-211.88556"
     cy="113.44866"
     r="2.809746" /></svg>