<svg xmlns:dc="http://purl.org/dc/elements/1.1/" xmlns:cc="http://creativecommons.org/ns#" xmlns:rdf="http://www.w3.org/1999/02/22-rdf-syntax-ns#" xmlns:svg="http://www.w3.org/2000/svg" xmlns="http://www.w3.org/2000/svg" xml:space="preserve" enable-background="new 30.5 31.5 412 533" viewBox="30.5 31.5 400 500" height="500" width="400" y="0" x="0" version="1.1" id="svg2">
  <metadata id="metadata4">
    <rdf:RDF>
      <cc:Work rdf:about="">
        <dc:format>
          
          
          
          
          
          image/svg+xml
        
        
        
        
        
        </dc:format>
        <dc:type rdf:resource="http://purl.org/dc/dcmitype/StillImage"/>
      </cc:Work>
    </rdf:RDF>
  </metadata>
  <defs id="defs6"/>
  <path id="path4148" d="M230.45 531.13C156.13 477.21 105.19 409.11 74.71 322.97 47.07 244.87 35.98 150.22 40.8 33.62l0.02-0.46 379.82 0 0.02 0.46c4.81 116.6-6.28 211.24-33.91 289.35-30.48 86.14-81.42 154.24-155.74 208.16l-0.28 0.2-0.28-0.2z" fill="#e00e00"/>
  <path d="M419.96 33.21C429.03 252.66 383.71 419.16 230.51 530.31 146.04 469.02 94.36 390.9 66.52 296.34 64.43 289.25 62.48 282.07 60.65 274.8 49.2 229.11 42.88 179.78 40.77 126.86 39.57 96.8 39.72 65.58 41.06 33.21l189.45 0 189.45 0m0.92-0.95-0.92 0-189.45 0-189.45 0-0.92 0-0.04 0.92c-4.82 116.66 6.28 211.36 33.93 289.52 30.51 86.24 81.51 154.41 155.91 208.39l0.56 0.41 0.56-0.41C305.46 477.11 356.46 408.94 386.97 322.7 414.62 244.54 425.72 149.84 420.9 33.18l-0.04-0.92 0 0z" id="path10"/>
  <path id="path4118" d="m161.47 66.65c26.65 19.3 49.57 51.8 42.76 81.28-14.71-25.37-49.46-66.59-78.62-76.53-15.78-5.38-28.93-4.19-33.33 8.73 30.81 4.66 71.48 41.11 77.12 65.32-32.6-29.8-61.76-38.37-81.42-39.92-21.18-1.67-34.29 15.5-33.92 23.25 24.51-3.58 48.04-1.26 66.66 7.61 16.92 8.06 23.46 14.33 30.56 29.35-29.36-4.48-52.7-12.21-70.62 0.27-9.49 6.61-16.16 17.92-13.82 26.93 14.65-10.41 33.5-16.12 56.32-10.03 30.49 9.25 38.81 41.77 43.05 54.38 7.71 22.93 10.99 39.54 24.87 32.53 14.12-7.12 30.6-16.96 45.37-7.24 9.45 6.22 11.88 23.45 5.22 40.97-1.16 3.07 16.42 3.83 15.11 15.3-1.23 10.69-13.32 20.37-20.04 22.56-19.16 6.24-39.07-4.48-69.68 3.56-16.34 4.29-14.67 14.32-11.7 18.01-7.43 10.54-4.95 27.76-0.61 37.23 2.01-7.16 4.34-18.78 8.14-21.2 3.22 2.19 7.12-0.13 9.2-2.34 6.19-6.12 22.49-16.02 39.3-9.96-14.81 10.23-28.15 30.05-34.5 43.16-2.81 5.8-3.47 13.58-0.14 19.65 4.21 7.68 8.72 12.87 17.32 15.86 7.91 10.06 18.36 14.96 31.4 13.81-5.82-3.5-11.94-9.85-14.17-15.74 4.62-3.34 2.85-6.13 0.1-10.49-14.8-23.58 3.3-52.63 18.1-57.17-6.6 19.71-6.14 56.66 7.17 66.27 2.94 2.13 6.52-0.29 8.46-2.56 14.5 4.6 26.53-1.15 29.34-11.56-6.58 1.69-13.49 1.8-18.31-0.75 2.08-2.88 1.58-6.75-0.96-8.67-15.21-11.49-19.15-25.48-14.13-40.26 5.54-16.34 20.75-19.36 31.16-12.52 8.36 5.48 9.21 10.66 13.07 17.24 1.06 1.8 3.46 2.03 6.21 1.18 2.92 8.31-0.92 16.16-5.03 23.24 4.78-1.65 24.52-10.99 16.59-42.08-0.51-1.97 5.91-5.15-1.29-12.85-9.86-10.56-12.59-7.77-19.17-9.53-4.68-1.25-8.66-5.78-6.07-11.07 6.38-13.01 14.25-12.23 23.52-15.91 37.05-14.7 18.46-52.53 7.28-59.63 24-6.42 39.33 7.76 44.65 35.86 13.52-13.1 8.43-34.62-1.2-47.3-9.45-12.44-21.23-17.89-35.3-22.4 23.32-11.79 44.52-4.68 64.46 13.71 1.97-17.91-8.46-32.8-23.61-37-13.46-3.72-23.42-3.5-36.98-1.33 20.84-21.45 37.67-24.65 67.55-16.96-2.56-14.58-22.27-38.54-74.6-11.42 32.44-24.03 47.04-50.64 46.55-69.8-0.39-15.33-8.67-28.46-17.45-34.15 2.36 40.21-15.75 69.7-52.02 86.08 19.4-34.92 23.65-45.25 22.24-68.69-0.64-10.66-11.71-21.39-25.04-23.99 14.41 48.4-16.98 83.69-25.68 87.97 4.75-32.21 12.59-66.46-6.84-82.69-6.13-5.12-19.99-4.84-17.87-1.08 18.99 28.59 6.87 71.36-7.28 81.51-2.89-52.85-30.23-84.49-67.41-78.01z" style="fill:#ffe000;stroke-linecap:round;stroke-linejoin:round;stroke-miterlimit:4;stroke-width:0.95;stroke:#000"/>
</svg>
