<svg xmlns:dc="http://purl.org/dc/elements/1.1/" xmlns:cc="http://creativecommons.org/ns#" xmlns:rdf="http://www.w3.org/1999/02/22-rdf-syntax-ns#" xmlns:svg="http://www.w3.org/2000/svg" xmlns="http://www.w3.org/2000/svg" id="svg2" version="1.1" x="0" y="0" width="400" height="500" viewBox="30.5 31.5 400 500" enable-background="new 30.5 31.5 412 533" xml:space="preserve">
  <metadata id="metadata4">
    <rdf:RDF>
      <cc:Work rdf:about="">
        <dc:format>
          image/svg+xml
        </dc:format>
        <dc:type rdf:resource="http://purl.org/dc/dcmitype/StillImage"/>
      </cc:Work>
    </rdf:RDF>
  </metadata>
  <defs id="defs6"/>
  <path id="path8" d="M230.45 531.13C156.13 477.21 105.19 409.11 74.71 322.97 47.07 244.87 35.98 150.22 40.8 33.62l0.02-0.46 379.82 0 0.02 0.46c4.81 116.6-6.28 211.24-33.91 289.35-30.48 86.14-81.42 154.24-155.74 208.16l-0.28 0.2-0.28-0.2z" fill="#32ac60"/>
  <path id="path10" d="M419.96 33.21C429.03 252.66 383.71 419.16 230.51 530.31 146.04 469.02 94.36 390.9 66.52 296.34 64.43 289.25 62.48 282.07 60.65 274.8 49.2 229.11 42.88 179.78 40.77 126.86 39.57 96.8 39.72 65.58 41.06 33.21l189.45 0 189.45 0m0.92-0.95-0.92 0-189.45 0-189.45 0-0.92 0-0.04 0.92c-4.82 116.66 6.28 211.36 33.93 289.52 30.51 86.24 81.51 154.41 155.91 208.39l0.56 0.41 0.56-0.41C305.46 477.11 356.46 408.94 386.97 322.7 414.62 244.54 425.72 149.84 420.9 33.18l-0.04-0.92 0 0z"/>
  <path id="path3599" d="m233.33 178.03c-1.5 25.71-2.44 46.79-45.75 64.96-5.34-11.64-12.49-33.27-16.01-34.92l-12.35-5.79c-8.45 7.93-12.99 13.32-26.53 21.65-6.29 3.87-8.73 12.62-21.2 19.37l0.84-6.64c-2.56 3.89-7.05 7.1-11.21 9.39l3.81-9.91c-3.39 5.1-7.06 7.58-14.11 10.22l3.59-9.3c-5.05 6.73-8.54 8.7-15.32 10.21l3.58-9.6c-2.34 1.59-4.67 2.47-7.01 3.04 5.51-11.82 13.13-23.53 15.09-34.61 2.38-13.38 10.45-20.64 28.67-32.02l-2.13-19.21c-0.88-7.96-17.56-9.03-24.32-18.99l-8.15 0.08c-0.49-2.55 2.62-4.09 4.95-6.02 4.38-3.65 2.05-8.18 16.84-12.88 4.14-1.32 11.2-0.31 17.28 4.36 4.51 3.46 5.69 10.43 12.61 14.86 5.27 3.37 9.48 4.22 16.16 3.96 3.51-3.75 6.51-10.94 7.01-20.89 1.26-24.69 5.54-23.53 17.08-38.43L202.68 49.03c0.9 3.81 0.83 8.39-0.3 12.2 3.95-3.17 7.85-7.92 12.2-12.35 1.2 4.82 1.43 8.04 0.76 12.12l6.4-6.1c1.56 4.8 2.04 10.22 0.99 15.1l5.41-6.48c0.22 7.11-0.17 10.42-3.2 16.32l5.49-4.88c-0.65 5.02-2.1 10.25-4.73 14.49l6.18-3.43c-1.86 14.16-10.29 29.34-24.02 48.42-1.94 2.7 1.7 17.57-14.03 34.92 2.59 3.2 6.45 9.47 10.37 9.61 10.74 0.38 19.16-0.09 29.13-0.91z" style="fill-rule:evenodd;fill:#fff;stroke-linecap:round;stroke-linejoin:round;stroke-miterlimit:4;stroke:#000"/>
  <path id="path4401" d="m119.42 174.07c10.28 12.79 25.03 21.5 39.8 28.21" style="fill:none;stroke-miterlimit:4;stroke:#000"/>
  <path id="path4403" d="m206.14 202.12-7.71 8.79c-7.97 0.16-20.55 0.26-27.53-3.16" style="fill:none;stroke-miterlimit:4;stroke:#000"/>
  <path id="path4405" d="m98.41 127.12c0.15-0.79 0.36-1.39 1.9-2.46 0.97-0.67 2.98-0.51 3.29 0.44 0.31 0.96-0.13 1.5-2.4 2.2-1.05 0.33-3 0.93-2.79-0.19z" style="fill-rule:evenodd;fill:#000"/>
  <path d="m383.33 174.03c-1.5 25.71-2.44 46.79-45.75 64.96-5.34-11.64-12.49-33.27-16.01-34.92l-12.35-5.79c-8.45 7.93-12.99 13.32-26.53 21.65-6.29 3.87-8.73 12.62-21.2 19.37l0.84-6.64c-2.56 3.89-7.05 7.1-11.21 9.39l3.81-9.91c-3.39 5.1-7.06 7.58-14.11 10.22l3.59-9.3c-5.05 6.73-8.54 8.7-15.32 10.21l3.58-9.6c-2.34 1.59-4.67 2.47-7.01 3.04 5.51-11.82 13.13-23.53 15.09-34.61 2.38-13.38 10.45-20.64 28.67-32.02l-2.13-19.21c-0.88-7.96-17.56-9.03-24.32-18.99l-8.15 0.08c-0.49-2.55 2.62-4.09 4.95-6.02 4.38-3.65 2.05-8.18 16.84-12.88 4.14-1.32 11.2-0.31 17.28 4.36 4.51 3.46 5.69 10.43 12.61 14.86 5.27 3.37 9.48 4.22 16.16 3.96 3.51-3.75 6.51-10.94 7.01-20.89 1.26-24.69 5.54-23.53 17.08-38.43L352.68 45.03c0.9 3.81 0.83 8.39-0.3 12.2 3.95-3.17 7.85-7.92 12.2-12.35 1.2 4.82 1.43 8.04 0.76 12.12l6.4-6.1c1.56 4.8 2.04 10.22 0.99 15.1l5.41-6.48c0.22 7.11-0.17 10.42-3.2 16.32l5.49-4.88c-0.65 5.02-2.1 10.25-4.73 14.49l6.18-3.43c-1.86 14.16-10.29 29.34-24.02 48.42-1.94 2.7 1.7 17.57-14.03 34.92 2.59 3.2 6.45 9.47 10.37 9.61 10.74 0.38 19.16-0.09 29.13-0.91z" id="path4749" style="fill-rule:evenodd;fill:#fff;stroke-linecap:round;stroke-linejoin:round;stroke-miterlimit:4;stroke:#000"/>
  <path d="m269.42 170.07c10.28 12.79 25.03 21.5 39.8 28.21" id="path4751" style="fill:none;stroke-miterlimit:4;stroke:#000"/>
  <path d="m356.14 198.12-7.71 8.79c-7.97 0.16-20.55 0.26-27.53-3.16" id="path4753" style="fill:none;stroke-miterlimit:4;stroke:#000"/>
  <path d="m248.41 123.12c0.15-0.79 0.36-1.39 1.9-2.46 0.97-0.67 2.98-0.51 3.29 0.44 0.31 0.96-0.13 1.5-2.4 2.2-1.05 0.33-3 0.93-2.79-0.19z" id="path4755" style="fill-rule:evenodd;fill:#000"/>
  <path d="m311.19 361.26c-1.5 25.71-2.44 46.79-45.75 64.96-5.34-11.64-12.49-33.27-16.01-34.92l-12.35-5.79c-8.45 7.93-12.99 13.32-26.53 21.65-6.29 3.87-8.73 12.62-21.2 19.37l0.84-6.64c-2.56 3.89-7.05 7.1-11.21 9.39l3.81-9.91c-3.39 5.1-7.06 7.58-14.11 10.22l3.59-9.3c-5.05 6.73-8.54 8.7-15.32 10.21l3.58-9.6c-2.34 1.59-4.67 2.47-7.01 3.04 5.51-11.82 13.13-23.53 15.09-34.61 2.38-13.38 10.45-20.64 28.67-32.02l-2.13-19.21c-0.88-7.96-17.56-9.03-24.32-18.99l-8.15 0.08c-0.49-2.55 2.62-4.09 4.95-6.02 4.38-3.65 2.05-8.18 16.84-12.88 4.14-1.32 11.2-0.31 17.28 4.36 4.51 3.46 5.69 10.43 12.61 14.86 5.27 3.37 9.48 4.22 16.16 3.96 3.51-3.75 6.51-10.94 7.01-20.89 1.26-24.69 5.54-23.53 17.08-38.43l25.92-31.87c0.9 3.81 0.83 8.39-0.3 12.2 3.95-3.17 7.85-7.92 12.2-12.35 1.2 4.82 1.43 8.04 0.76 12.12l6.4-6.1c1.56 4.8 2.04 10.22 0.99 15.1l5.41-6.48c0.22 7.11-0.17 10.42-3.2 16.32l5.49-4.88c-0.65 5.02-2.1 10.25-4.73 14.49l6.18-3.43c-1.86 14.16-10.29 29.34-24.02 48.42-1.94 2.7 1.7 17.57-14.03 34.92 2.59 3.2 6.45 9.47 10.37 9.61 10.74 0.38 19.16-0.09 29.13-0.91z" id="path4757" style="fill-rule:evenodd;fill:#fff;stroke-linecap:round;stroke-linejoin:round;stroke-miterlimit:4;stroke:#000"/>
  <path d="m197.28 357.29c10.28 12.79 25.03 21.5 39.8 28.21" id="path4759" style="fill:none;stroke-miterlimit:4;stroke:#000"/>
  <path d="m283.99 385.34-7.71 8.79c-7.97 0.16-20.55 0.26-27.53-3.16" id="path4761" style="fill:none;stroke-miterlimit:4;stroke:#000"/>
  <path d="m176.26 310.35c0.15-0.79 0.36-1.39 1.9-2.46 0.97-0.67 2.98-0.51 3.29 0.44 0.31 0.96-0.13 1.5-2.4 2.2-1.05 0.33-3 0.93-2.79-0.19z" id="path4763" style="fill-rule:evenodd;fill:#000"/>
</svg>
