<?xml version="1.0" encoding="UTF-8" standalone="no"?>
<!-- Created with Inkscape (http://www.inkscape.org/) -->

<svg
   xmlns:svg="http://www.w3.org/2000/svg"
   xmlns="http://www.w3.org/2000/svg"
   version="1.1"
   width="350"
   height="480"
   id="svg2827">
  <defs
     id="defs2831" />
  <path
     d="M 94.67373,97.88559 C 136.91927,64.350705 209.45468,62.575964 255.59428,97.80279 L 94.67373,97.88559 z"
     id="path3611"
     style="fill:#000000;stroke:#000000;stroke-width:1px;stroke-linecap:butt;stroke-linejoin:miter;stroke-opacity:1" />
  <path
     d="m 59.25754,63.897647 -5.528017,4.790948 -13.537094,-15.325796 9.038355,-7.262748 4.37962,5.876115 9.117557,-6.916569 -4.476384,-5.636918 10.403592,-6.719206 3.620197,5.929125 9.497268,-5.485223 -3.567184,-5.863978 10.372936,-4.909108 8.355254,18.285249 -6.01471,2.985 4.22928,8.855526 9.5312,-4.864001 4.43359,10.443276 11.45811,-4.411236 -4.173,-11.217151 c 2.71829,-0.929585 7.36824,-1.710907 10.51442,-2.500597 l -3.16146,-9.32971 -6.30788,1.706787 c -1.86752,-6.387881 -4.57073,-12.004307 -6.76392,-18.73937 l 17.2448,-4.964038 0.92133,7.323267 13.21982,-2.552755 -1.382,-7.610846 14.62497,-1.690021 0.54814,6.921199 11.487,-0.541624 -0.0112,-6.759286 16.31036,-0.233612 0.0382,6.965909 11.0608,0.857235 0.52124,-6.840572 14.65838,1.889302 -1.04238,6.90572 12.57362,1.8893 1.49841,-6.091366 16.48253,4.039194 c -2.12089,6.357264 -3.50546,12.587383 -6.38454,19.967956 l -7.19889,-2.084745 -1.85739,8.87249 9.99649,2.211206 -3.56159,11.379461 11.14585,4.29172 4.41951,-10.084166 c 3.12625,1.443168 6.19307,3.034397 8.9895,4.488416 l 5.03448,-8.140625 -6.42372,-3.030587 c 2.16616,-6.323479 5.14925,-12.590775 8.18216,-19.2592 l 10.12488,4.769949 -3.49644,6.987305 10.43401,5.883621 3.57085,-6.351233 9.72608,6.509309 -4.33586,5.698792 8.91189,6.925432 4.41683,-5.677396 8.53817,7.486536 -13.16394,15.025683 -5.52801,-4.099946 -30.03557,37.221984 C 210.29381,60.143193 132.25785,64.046208 89.615607,102.1331 L 59.25754,63.897647 z"
     id="path3613"
     style="fill:#c8aa3c;fill-opacity:1;stroke:#000000;stroke-width:0.89999998;stroke-linecap:butt;stroke-linejoin:miter;stroke-miterlimit:4;stroke-opacity:1;stroke-dasharray:none" />
  <path
     d="M 88.27963,99.92189 C 134.91771,57.291842 218.45382,60.496953 262.36547,99.70974"
     id="path3615"
     style="fill:none;stroke:#000000;stroke-width:1px;stroke-linecap:butt;stroke-linejoin:miter;stroke-opacity:1" />
  <path
     d="M 83.672949,94.85454 C 139.04164,49.889723 217.55489,52.854363 266.28178,95.31521"
     id="path3751"
     style="fill:none;stroke:#000000;stroke-width:1px;stroke-linecap:butt;stroke-linejoin:miter;stroke-opacity:1" />
  <path
     d="M 81.277475,91.53773 C 133.25417,46.785363 219.21879,46.279026 269.04579,91.81413"
     id="path3753"
     style="fill:none;stroke:#000000;stroke-width:1.70000005;stroke-linecap:butt;stroke-linejoin:miter;stroke-miterlimit:4;stroke-opacity:1;stroke-dasharray:none" />
  <path
     d="M 77.604873,87.331567 C 137.12384,39.390654 218.90258,41.803463 272.46345,87.657308"
     id="path4312"
     style="fill:none;stroke:#000000;stroke-width:1px;stroke-linecap:butt;stroke-linejoin:miter;stroke-opacity:1" />
  <path
     d="M 89.269268,68.356343 C 107.29869,57.340373 131.67151,47.8792 163.77869,44.326236"
     id="path4314"
     style="fill:none;stroke:#000000;stroke-width:1px;stroke-linecap:butt;stroke-linejoin:miter;stroke-opacity:1" />
  <path
     d="m 164.12182,52.281779 c 0.50424,-12.752235 2.74603,-18.011009 10.94492,-18.176378 9.94458,-0.200578 9.5263,5.211865 9.96769,18.046081 0.42148,-11.642485 4.16428,-24.714462 -10.03284,-24.495763 -13.27938,0.204561 -11.01888,13.007108 -10.87977,24.62606 z"
     id="path4316"
     style="fill:#000000;stroke:#000000;stroke-width:1px;stroke-linecap:butt;stroke-linejoin:miter;stroke-opacity:1" />
  <path
     d="M 87.244457,79.728772 C 84.094493,73.752949 74.429095,61.981005 78.123346,59.507527 83.067211,56.197374 89.852339,70.096438 93.44772,75.853965 90.554452,70.4087 82.505855,52.169985 76.202462,56.111097 c -5.895926,3.686349 7.90378,18.334851 11.041995,23.617675 z"
     id="path4316-6"
     style="fill:#000000;stroke:#000000;stroke-width:0.52611566px;stroke-linecap:butt;stroke-linejoin:miter;stroke-opacity:1" />
  <path
     d="M 260.81423,67.757476 C 242.78481,56.741506 217.86015,47.700523 185.75297,44.147559"
     id="path4314-1"
     style="fill:none;stroke:#000000;stroke-width:1px;stroke-linecap:butt;stroke-linejoin:miter;stroke-opacity:1" />
  <path
     d="m 72.24838,80.343497 c 2.072654,-2.136929 7.692319,-6.700021 9.950431,-8.061691"
     id="path4397"
     style="fill:none;stroke:#000000;stroke-width:1px;stroke-linecap:butt;stroke-linejoin:miter;stroke-opacity:1" />
  <path
     d="m 262.95696,79.728768 c 3.14997,-5.975823 12.81536,-17.747767 9.12111,-20.221245 -4.94386,-3.310153 -11.72899,10.588911 -15.32437,16.346438 2.89327,-5.445265 10.94187,-23.68398 17.24526,-19.742868 5.89592,3.686349 -7.90378,18.334851 -11.042,23.617675 z"
     id="path4316-6-4"
     style="fill:#000000;stroke:#000000;stroke-width:0.52611566px;stroke-linecap:butt;stroke-linejoin:miter;stroke-opacity:1" />
  <path
     d="m 278.15088,80.3236 c -2.07266,-2.136929 -7.69232,-6.700021 -9.95043,-8.061691"
     id="path4397-2"
     style="fill:none;stroke:#000000;stroke-width:1px;stroke-linecap:butt;stroke-linejoin:miter;stroke-opacity:1" />
  <path
     d="m 127.29815,39.855869 c 32.93947,-8.556017 64.54042,-7.755341 96.69497,-0.01744"
     id="path4501"
     style="fill:none;stroke:#000000;stroke-width:1px;stroke-linecap:butt;stroke-linejoin:miter;stroke-opacity:1" />
  <path
     d="m 123.92531,30.815412 c 34.54226,-10.600722 67.52872,-9.679242 101.81052,0.39089"
     id="path4503"
     style="fill:none;stroke:#000000;stroke-width:1.5;stroke-linecap:butt;stroke-linejoin:miter;stroke-miterlimit:4;stroke-opacity:1;stroke-dasharray:none" />
  <path
     d="m 255.04269,52.078496 c 6.0374,3.195823 8.90694,5.334574 11.88809,7.367201"
     id="path4569"
     style="fill:none;stroke:#000000;stroke-width:1px;stroke-linecap:butt;stroke-linejoin:miter;stroke-opacity:1" />
  <path
     d="m 273.3125,63.937501 11.125,8.5625"
     id="path4571"
     style="fill:none;stroke:#000000;stroke-width:1px;stroke-linecap:butt;stroke-linejoin:miter;stroke-opacity:1" />
  <path
     d="M 95.34389,52.343886 C 92.179,53.991165 86.695109,57.539854 83.81713,59.691254"
     id="path4573"
     style="fill:none;stroke:#000000;stroke-width:1px;stroke-linecap:butt;stroke-linejoin:miter;stroke-opacity:1" />
  <path
     d="M 76.539601,64.210669 66.246767,72.388201"
     id="path4575"
     style="fill:none;stroke:#000000;stroke-width:1px;stroke-linecap:butt;stroke-linejoin:miter;stroke-opacity:1" />
  <path
     d="M 59.546067,64.050176 C 69.674313,54.79073 79.432229,48.939386 91.11615,43.892039"
     id="path4577"
     style="fill:none;stroke:#000000;stroke-width:1.5;stroke-linecap:butt;stroke-linejoin:miter;stroke-miterlimit:4;stroke-opacity:1;stroke-dasharray:none" />
  <path
     d="m 107.8125,78.812501 3.4375,5"
     id="path4658"
     style="fill:none;stroke:#000000;stroke-width:1px;stroke-linecap:butt;stroke-linejoin:miter;stroke-opacity:1" />
  <path
     d="m 135,67.937501 2.0625,5.9375"
     id="path4660"
     style="fill:none;stroke:#000000;stroke-width:1px;stroke-linecap:butt;stroke-linejoin:miter;stroke-opacity:1" />
  <path
     d="m 160.625,63.062501 0.9375,6.4375"
     id="path4662"
     style="fill:none;stroke:#000000;stroke-width:1px;stroke-linecap:butt;stroke-linejoin:miter;stroke-opacity:1" />
  <path
     d="m 189.6875,62.875001 -0.25,6.875"
     id="path4664"
     style="fill:none;stroke:#000000;stroke-width:1px;stroke-linecap:butt;stroke-linejoin:miter;stroke-opacity:1" />
  <path
     d="m 214.8125,67.812501 -1.4375,6.125"
     id="path4666"
     style="fill:none;stroke:#000000;stroke-width:1px;stroke-linecap:butt;stroke-linejoin:miter;stroke-opacity:1" />
  <path
     d="m 241.875,78.687501 -2.75,5.25"
     id="path4668"
     style="fill:none;stroke:#000000;stroke-width:1px;stroke-linecap:butt;stroke-linejoin:miter;stroke-opacity:1" />
  <path
     d="m 256.875,82.000001 -2.5625,3.875"
     id="path4670"
     style="fill:none;stroke:#000000;stroke-width:1px;stroke-linecap:butt;stroke-linejoin:miter;stroke-opacity:1" />
  <path
     d="m 230.5625,68.375001 -1.375,4.0625"
     id="path4672"
     style="fill:none;stroke:#000000;stroke-width:1px;stroke-linecap:butt;stroke-linejoin:miter;stroke-opacity:1" />
  <path
     d="m 202.5,60.437501 0,4.3125"
     id="path4674"
     style="fill:none;stroke:#000000;stroke-width:1px;stroke-linecap:butt;stroke-linejoin:miter;stroke-opacity:1" />
  <path
     d="m 175.1875,58.062501 0,4.25"
     id="path4676"
     style="fill:none;stroke:#000000;stroke-width:1px;stroke-linecap:butt;stroke-linejoin:miter;stroke-opacity:1" />
  <path
     d="m 147.125,60.812501 0.75,4.125"
     id="path4678"
     style="fill:none;stroke:#000000;stroke-width:1px;stroke-linecap:butt;stroke-linejoin:miter;stroke-opacity:1" />
  <path
     d="m 119.5625,68.875001 2.1875,3.6875"
     id="path4680"
     style="fill:none;stroke:#000000;stroke-width:1px;stroke-linecap:butt;stroke-linejoin:miter;stroke-opacity:1" />
  <path
     d="m 93.6875,82.375001 2.4375,3.1875"
     id="path4682"
     style="fill:none;stroke:#000000;stroke-width:1px;stroke-linecap:butt;stroke-linejoin:miter;stroke-opacity:1" />
  <path
     d="m 130.1875,51.062501 2.1875,7.25"
     id="path4684"
     style="fill:none;stroke:#000000;stroke-width:1px;stroke-linecap:butt;stroke-linejoin:miter;stroke-opacity:1" />
  <path
     d="m 157.7069,45.309268 0.875,7.6875"
     id="path4686"
     style="fill:none;stroke:#000000;stroke-width:1px;stroke-linecap:butt;stroke-linejoin:miter;stroke-opacity:1" />
  <path
     d="m 191.75,44.937501 -1.0625,7.8125"
     id="path4688"
     style="fill:none;stroke:#000000;stroke-width:1px;stroke-linecap:butt;stroke-linejoin:miter;stroke-opacity:1" />
  <path
     d="M 220.0625,50.875001 218,58.062501"
     id="path4690"
     style="fill:none;stroke:#000000;stroke-width:1px;stroke-linecap:butt;stroke-linejoin:miter;stroke-opacity:1" />
  <path
     d="m 250.4375,62.250001 -4.1875,7.1875"
     id="path4692"
     style="fill:none;stroke:#000000;stroke-width:1px;stroke-linecap:butt;stroke-linejoin:miter;stroke-opacity:1" />
  <path
     d="m 207.625,36.687501 -2.1875,10.25"
     id="path4694"
     style="fill:none;stroke:#000000;stroke-width:1px;stroke-linecap:butt;stroke-linejoin:miter;stroke-opacity:1" />
  <path
     d="m 193.0625,24.937501 -0.5625,9.1875"
     id="path4696"
     style="fill:none;stroke:#000000;stroke-width:1px;stroke-linecap:butt;stroke-linejoin:miter;stroke-opacity:1" />
  <path
     d="m 259.94917,44.207079 c 11.06452,4.616907 23.10304,12.882327 30.85986,20.831592"
     id="path4698"
     style="fill:none;stroke:#000000;stroke-width:1.5;stroke-linecap:butt;stroke-linejoin:miter;stroke-miterlimit:4;stroke-opacity:1;stroke-dasharray:none" />
  <path
     d="m 100.04846,62.80323 3.84375,6.742849"
     id="path2856"
     style="fill:none;stroke:#000000;stroke-width:1px;stroke-linecap:butt;stroke-linejoin:miter;stroke-opacity:1" />
  <path
     d="m 142.62288,36.711334 2.41049,10.35858"
     id="path2858"
     style="fill:none;stroke:#000000;stroke-width:1px;stroke-linecap:butt;stroke-linejoin:miter;stroke-opacity:1" />
  <path
     d="m 157.2161,24.463452 0.65149,10.032839"
     id="path2860"
     style="fill:none;stroke:#000000;stroke-width:1px;stroke-linecap:butt;stroke-linejoin:miter;stroke-opacity:1" />
  <path
     d="m 256.43697,32.932732 c 15.7402,7.133512 30.83967,16.75874 45.01748,29.96822"
     id="path2862"
     style="fill:none;stroke:#000000;stroke-width:1px;stroke-linecap:butt;stroke-linejoin:miter;stroke-opacity:1" />
  <path
     d="m 258.19598,28.632944 c 18.30094,7.805396 33.42086,18.367672 46.51589,30.684852"
     id="path2864"
     style="fill:none;stroke:#000000;stroke-width:0.80000001;stroke-linecap:butt;stroke-linejoin:miter;stroke-miterlimit:4;stroke-opacity:1;stroke-dasharray:none" />
  <path
     d="m 268.42426,33.323622 -2.28019,4.169491"
     id="path2866"
     style="fill:none;stroke:#000000;stroke-width:1px;stroke-linecap:butt;stroke-linejoin:miter;stroke-opacity:1" />
  <path
     d="m 278.84799,39.317266 -2.57336,4.234639"
     id="path2868"
     style="fill:none;stroke:#000000;stroke-width:1px;stroke-linecap:butt;stroke-linejoin:miter;stroke-opacity:1" />
  <path
     d="m 287.80588,45.245761 -3.12712,3.941473"
     id="path2870"
     style="fill:none;stroke:#000000;stroke-width:1px;stroke-linecap:butt;stroke-linejoin:miter;stroke-opacity:1" />
  <path
     d="m 296.79635,52.118908 -3.1597,3.908898"
     id="path2872"
     style="fill:none;stroke:#000000;stroke-width:1px;stroke-linecap:butt;stroke-linejoin:miter;stroke-opacity:1" />
  <path
     d="M 93.0249,32.932728 C 77.2847,40.06624 62.18523,49.691468 48.00742,62.900948"
     id="path2862-4"
     style="fill:none;stroke:#000000;stroke-width:1px;stroke-linecap:butt;stroke-linejoin:miter;stroke-opacity:1" />
  <path
     d="m 91.591631,28.860959 c -18.30094,7.805396 -33.42086,18.367672 -46.51589,30.684852"
     id="path2864-0"
     style="fill:none;stroke:#000000;stroke-width:1px;stroke-linecap:butt;stroke-linejoin:miter;stroke-opacity:1" />
  <path
     d="m 81.721667,33.030451 2.28019,4.169491"
     id="path2866-9"
     style="fill:none;stroke:#000000;stroke-width:1px;stroke-linecap:butt;stroke-linejoin:miter;stroke-opacity:1" />
  <path
     d="m 72.144865,38.340038 2.57336,4.234639"
     id="path2868-4"
     style="fill:none;stroke:#000000;stroke-width:1px;stroke-linecap:butt;stroke-linejoin:miter;stroke-opacity:1" />
  <path
     d="m 62.372621,44.724571 3.12712,3.941473"
     id="path2870-8"
     style="fill:none;stroke:#000000;stroke-width:1px;stroke-linecap:butt;stroke-linejoin:miter;stroke-opacity:1" />
  <path
     d="m 53.382151,51.858311 3.1597,3.908898"
     id="path2872-8"
     style="fill:none;stroke:#000000;stroke-width:1px;stroke-linecap:butt;stroke-linejoin:miter;stroke-opacity:1" />
  <path
     d="m 1.9504306,116.50594 28.1007534,-18.47279 289.898426,0.0461 27.91649,18.42672 c -13.82,8.8901 -22.36073,19.63418 -22.34241,32.70744 l 0.29623,211.35018 C 325.98294,476.87595 188.72615,409.09768 174.81674,476.30403 157.91019,410.46874 24.290983,475.70158 24.183263,359.65148 L 23.987818,149.09216 C 23.972173,132.23779 13.940156,123.75607 1.9504306,116.50594 z"
     id="path5559"
     style="fill:#cc3d14;fill-opacity:1;stroke:#000000;stroke-width:1.5;stroke-linecap:butt;stroke-linejoin:miter;stroke-miterlimit:4;stroke-opacity:1;stroke-dasharray:none" />
  <path
     d="m 91.875,318.125 c 36.52511,-5.07448 74.57825,-3.27289 112.375,-2.625 L 165.75,340 91.875,318.125 z"
     id="path5733"
     style="fill:#b3b3b3;stroke:none" />
  <path
     d="m 44,297.75 c 3.937009,1.91732 7.509397,4.3208 12.375,5 1.377202,9.07282 7.996587,24.20445 18.5625,33.6875 l -8.3125,1.375 C 55.692579,325.41565 47.51305,309.93072 44,297.75 z"
     id="path4909"
     style="fill:#b3b3b3;stroke:#000000;stroke-width:0.69999999;stroke-linecap:butt;stroke-linejoin:miter;stroke-miterlimit:4;stroke-opacity:1;stroke-dasharray:none" />
  <path
     d="m 143.55561,445.60513 c 19.34857,-9.14514 38.84247,-12.51416 62.00106,-0.53098 l 10.37712,-2.61017 c -31.09543,-18.18496 -56.25429,-13.93829 -81.10831,0.81753 l 8.73013,2.32362 z"
     id="path5609"
     style="fill:#b3b3b3;stroke:#000000;stroke-width:0.5;stroke-linecap:butt;stroke-linejoin:miter;stroke-miterlimit:4;stroke-opacity:1;stroke-dasharray:none" />
  <path
     d="m 25.132945,369.02754 0.505826,5.34216 c 23.26704,-0.17688 32.033143,-9.04326 51.184322,-9.24576 16.439417,-0.17383 32.351447,9.09917 48.470337,9.12076 15.49727,0.0207 32.90852,-7.92463 49.38242,-8.86017 19.29237,-1.0956 31.2544,9.46311 49.25212,9.25106 17.29024,-0.20081 28.80215,-9.35527 48.86123,-9.12076 18.81746,0.22 35.36173,9.27216 51.59057,9.47511 l 0.74046,-7.48941 C 309.71426,369.62549 289.10936,358.57861 272.6589,359 c -18.55091,0.4752 -30.5039,8.8422 -48.86123,8.99047 -17.83026,0.14401 -32.48449,-9.02675 -49.12182,-8.86017 -14.33557,0.14353 -29.35957,8.67656 -49.12182,8.86017 -19.21792,0.17855 -31.86786,-9.77506 -48.20975,-9.12077 -15.707627,0.6289 -27.252342,7.95364 -52.211335,10.15784 z"
     id="path2874"
     style="fill:#b3b3b3;stroke:#000000;stroke-width:0.5;stroke-linecap:butt;stroke-linejoin:miter;stroke-miterlimit:4;stroke-opacity:1;stroke-dasharray:none" />
  <path
     d="m 29.501059,391.2516 1.912076,5.24841 c 22.485261,-2.26163 28.864711,-9.43416 45.409958,-9.37607 16.440237,0.0577 32.351447,9.09918 48.470337,9.12077 15.49727,0.0207 32.90851,-7.92464 49.38241,-8.86018 19.29238,-1.0956 31.25441,9.46312 49.25212,9.25107 17.29024,-0.20081 28.80215,-9.35528 48.86123,-9.12077 18.81746,0.22 29.55877,9.91836 45.78761,10.12131 l 2.74045,-7.27067 c -15.40596,2.12497 -32.2079,-9.78686 -48.65836,-9.36547 -18.55089,0.4752 -30.50388,8.8422 -48.86123,8.99047 -17.83025,0.14401 -32.48449,-9.02675 -49.1218,-8.86017 -14.33558,0.14353 -29.35958,8.67656 -49.12183,8.86017 -19.21792,0.17855 -31.86786,-9.77506 -48.20975,-9.12077 -15.707627,0.6289 -26.402236,6.74442 -47.843221,10.3819 z"
     id="path2874-4"
     style="fill:#b3b3b3;stroke:#000000;stroke-width:0.5;stroke-linecap:butt;stroke-linejoin:miter;stroke-miterlimit:4;stroke-opacity:1;stroke-dasharray:none" />
  <path
     d="m 140.34269,412.55191 c 1.17118,-2.59244 11.26885,-6.41552 17.26695,-7.09336 4.31005,-4.64021 6.00558,-5.32029 8.2124,-5.73407 2.21679,-0.41566 4.24559,3.43012 5.01006,4.71646 1.59376,-1.40047 3.38059,-3.10971 4.87422,-3.19653 3.02637,-0.17591 8.32923,2.05014 10.19884,3.12538 0.9034,0.51956 1.09292,2.06381 1.25321,2.94907 1.04207,-0.40058 2.2578,-1.49368 3.60018,-1.28078 2.39562,0.37995 4.63989,1.80937 4.9602,3.97304 2.33861,2.10651 8.07468,1.45257 13.02966,1.43327 -1.54019,2.00224 -2.45638,4.38847 -6.12394,5.08156 1.41694,2.81494 0.79141,5.19222 -0.19544,7.49206 -2.87264,-4.28798 -5.85751,-8.42058 -10.94492,-9.64195 -0.90241,0.77885 -1.32391,1.62396 -2.32704,1.75948 -2.14774,0.29014 -4.50404,0.5537 -7.40555,1.0667 -0.78769,0.13927 -1.78928,-1.18672 -2.70638,-1.61069 -1.16382,-0.53802 0.38148,0.56082 -0.7874,2.35376 -0.86342,1.32438 -4.7528,3.86254 -6.13914,3.9042 -1.11124,0.0334 -2.29394,-1.55171 -3.01062,-3.57246 l -5.9127,0.6831 c 1.65307,0.58717 3.0796,2.05821 2.60414,2.73701 -1.5349,2.19129 -2.23861,1.32595 -7.60609,-2.56527 -4.76279,-0.44152 -12.79575,-1.48446 -16.01654,-3.63073 -0.90491,-0.60302 1.83765,-0.46816 1.81676,-1.18603 -0.0161,-0.55283 -4.01572,-0.95559 -3.65086,-1.76322 z"
     id="path2936"
     style="fill:#b3b3b3;stroke:#000000;stroke-width:0.5;stroke-linecap:butt;stroke-linejoin:miter;stroke-miterlimit:4;stroke-opacity:1;stroke-dasharray:none" />
  <path
     d="m 157.66399,405.45074 c 15.51508,-1.84443 27.59031,1.20162 39.16228,5.27702"
     id="path2938"
     style="fill:none;stroke:#000000;stroke-width:0.5;stroke-linecap:butt;stroke-linejoin:miter;stroke-miterlimit:4;stroke-opacity:1;stroke-dasharray:none" />
  <path
     d="m 157.5017,419.03055 c 18.97346,0.17914 22.39403,-7.24518 33.81786,-4.70269"
     id="path2940"
     style="fill:none;stroke:#000000;stroke-width:0.5;stroke-linecap:butt;stroke-linejoin:miter;stroke-miterlimit:4;stroke-opacity:1;stroke-dasharray:none" />
  <path
     d="m 156.36637,418.86544 c 3.33916,0.44108 4.20621,-4.17208 4.19209,-7.67012"
     id="path2970"
     style="fill:none;stroke:#000000;stroke-width:0.40000001;stroke-linecap:round;stroke-linejoin:miter;stroke-miterlimit:4;stroke-opacity:1;stroke-dasharray:none" />
  <path
     d="m 160.55845,409.46781 c 13.88962,-1.08138 24.24109,0.40365 34.55011,3.57018"
     id="path3744"
     style="fill:none;stroke:#000000;stroke-width:0.40000001;stroke-linecap:round;stroke-linejoin:miter;stroke-miterlimit:4;stroke-opacity:1;stroke-dasharray:none" />
  <path
     d="m 150.90746,409.85937 c 1.07421,0.4907 1.5741,-0.14572 1.26684,-1.08257 2.75297,1.44423 -0.84809,4.12007 -1.26684,1.08257 z"
     id="path3785"
     style="fill:#000000;stroke:none" />
  <path
     d="m 53.297319,309.64272 c 25.207189,6.58671 52.618451,11.26743 72.169091,12.19759 0.91874,5.34918 5.6638,7.41867 9.72271,10.07627 L 66.467182,327.49717 C 62.519871,321.28238 60.84388,325.6397 53.297319,309.64272 z"
     id="path5056"
     style="fill:#b3b3b3;stroke:#000000;stroke-width:0.60000002;stroke-linecap:butt;stroke-linejoin:miter;stroke-miterlimit:4;stroke-opacity:1;stroke-dasharray:none" />
  <path
     d="m 142.11798,419.50649 c 2.79181,1.62919 4.06141,-0.14365 4.93499,-2.28019 l 0.86321,0.30945 c -1.95674,3.7055 -3.88479,3.76756 -5.7982,1.97074 z"
     id="path3829"
     style="fill:#000000;stroke:none" />
  <path
     d="m 222.33653,418.56439 c 2.59138,-7.93269 13.63331,-11.7314 17.76664,-12.1948 2.17092,-3.22091 6.27573,-5.05703 7.72391,-5.07427 2.73358,-0.0326 2.34509,1.95591 3.22601,3.77637 2.03483,-2.5312 2.63462,-4.17814 4.08169,-4.08499 9.46628,0.60938 8.09481,2.53211 9.90177,4.85498 1.7544,-2.35492 3.66324,-1.63885 7.2266,-0.84098 1.66125,0.37197 1.4677,1.34977 2.12218,2.2091 5.41122,0.81163 9.06306,-2.51693 13.19253,-3.9089 -0.47072,2.7354 -0.42788,5.4878 -4.07177,7.23146 1.65083,2.04431 1.30781,4.19939 -0.16287,6.41711 -2.25894,-2.63512 -5.57016,-4.31363 -9.73967,-5.21187 -1.22413,0.33769 -0.87503,1.82073 -1.92709,2.30084 -2.27588,1.03858 -6.90846,1.64851 -9.25873,2.32502 -0.95555,0.27505 -2.06906,-0.75429 -3.50513,-1.59646 -0.55276,0.69838 0.41342,1.06885 -0.51106,2.40096 -1.27694,1.83997 -4.4561,4.7999 -7.0534,6.00196 -1.34291,0.62151 -3.21572,-0.53639 -5.43262,-2.76759 -0.76778,-0.0174 -1.88156,0.5998 -3.97934,1.00318 4.32044,2.84499 4.94617,4.0528 1.32605,4.25748 -1.88287,0.10646 -3.62553,-1.88716 -5.26223,-3.53423 -4.3407,0.87785 -10.04285,1.2641 -13.68114,-1.04238 -0.80566,-0.51074 2.12906,-0.65736 2.13665,-1.7643 0.005,-0.74688 -4.52471,0.48433 -4.11898,-0.75769 z"
     id="path4073"
     style="fill:#b3b3b3;stroke:#000000;stroke-width:0.5;stroke-linecap:butt;stroke-linejoin:miter;stroke-miterlimit:4;stroke-opacity:1;stroke-dasharray:none" />
  <path
     d="m 240.11732,406.36281 c 6.56472,-1.4212 18.49177,-1.42973 34.41459,0.87951"
     id="path4075"
     style="fill:none;stroke:#000000;stroke-width:0.5;stroke-linecap:butt;stroke-linejoin:miter;stroke-miterlimit:4;stroke-opacity:1;stroke-dasharray:none" />
  <path
     d="m 237.8697,422.12871 c 21.06504,-3.56378 19.88066,-11.44813 35.74816,-10.39513"
     id="path4077"
     style="fill:none;stroke:#000000;stroke-width:0.60000002;stroke-linecap:butt;stroke-linejoin:miter;stroke-miterlimit:4;stroke-opacity:1;stroke-dasharray:none" />
  <path
     d="m 237.15307,422.32415 c 0,0 4.22547,-4.32439 1.29179,-8.82133"
     id="path4079"
     style="fill:none;stroke:#000000;stroke-width:0.40000001;stroke-linecap:round;stroke-linejoin:miter;stroke-miterlimit:4;stroke-opacity:1;stroke-dasharray:none" />
  <path
     d="m 229.7626,414.54563 c 1.22519,-0.2163 0.73583,-1.72944 -0.38488,-1.5745 2.38151,-2.85129 4.19167,3.34304 0.38488,1.5745 z"
     id="path3785-9"
     style="fill:#000000;stroke:none" />
  <path
     d="m 239.47089,411.42565 c 13.47017,1.2296 15.3873,-4.26396 35.37931,-1.84267"
     id="path4125"
     style="fill:none;stroke:#000000;stroke-width:0.40000001;stroke-linecap:round;stroke-linejoin:miter;stroke-miterlimit:4;stroke-opacity:1;stroke-dasharray:none" />
  <path
     d="m 229.2617,426.49392 c -2.12662,-1.16949 -1.49802,-2.63682 -0.48356,-4.06989 l -0.59671,-0.25243 c -1.58664,2.77436 -0.80907,3.79512 1.08027,4.32232 z"
     id="path3829-9"
     style="fill:#000000;stroke:none" />
  <path
     d="m 61.837282,411.97845 c 0,-1.96047 -5.366536,-1.00942 -3.702047,-3.54041 1.889013,-2.8724 8.370489,-5.91759 12.639007,-6.50215 2.252163,-2.66866 4.208327,-5.41835 5.822246,-5.08564 6.552516,1.35082 5.071089,2.97772 5.974603,4.40026 0.68322,-1.41355 1.912859,-2.53521 3.283703,-2.39286 3.636212,0.37758 9.242626,1.66466 12.045546,3.63651 1.34378,0.94534 0.39716,1.86935 0.91707,3.05797 3.50091,-2.52507 8.32645,1.27509 11.58111,3.43179 1.09754,0.72728 0.53333,1.59254 1.46732,2.34959 5.04164,4.08655 11.13211,2.94226 16.12338,1.75054 -1.17765,2.07168 -1.60854,4.2367 -4.60668,6.08082 1.1304,2.33602 0.96715,5.10326 0.64493,7.92349 -3.81261,-5.06074 -9.17842,-8.6977 -15.93911,-11.05603 -1.41234,2.97939 -7.00182,1.90153 -10.46469,2.39945 -1.26723,0.18221 -1.72648,-1.8735 -1.91085,-2.67262 -0.48648,0.0116 -0.45871,1.01195 -1.78302,1.64582 -2.63119,1.25941 -6.733122,2.27728 -10.049419,3.42381 -1.959475,0.67744 -2.135281,-1.18471 -2.872842,-4.63213 -1.161724,1.5e-4 -2.80612,-0.1846 -4.733297,-0.2171 0.888679,2.40252 1.384356,5.43558 0.163712,4.86479 -1.874035,-0.87632 -2.591396,-2.44323 -4.005307,-5.45689 -3.56049,-1.12859 -11.921066,-0.82665 -10.595365,-3.40895 l 0,-6e-5 z"
     id="path4265"
     style="fill:#b3b3b3;stroke:#000000;stroke-width:0.5;stroke-linecap:butt;stroke-linejoin:miter;stroke-miterlimit:4;stroke-opacity:1;stroke-dasharray:none" />
  <path
     d="m 70.693626,401.92437 c 25.983994,-2.35489 27.111254,6.48602 43.913184,11.12513"
     id="path4267"
     style="fill:none;stroke:#000000;stroke-width:0.5;stroke-linecap:butt;stroke-linejoin:miter;stroke-miterlimit:4;stroke-opacity:1;stroke-dasharray:none" />
  <path
     d="m 71.97198,415.26071 c 12.75051,2.50341 30.10911,-1.12473 35.9208,0.70272"
     id="path4269"
     style="fill:none;stroke:#000000;stroke-width:0.5;stroke-linecap:butt;stroke-linejoin:miter;stroke-miterlimit:4;stroke-opacity:1;stroke-dasharray:none" />
  <path
     d="m 74.0625,405.5 c 20.79028,0.12433 22.92401,5.22563 37.9375,9.3125"
     id="path4271"
     style="fill:none;stroke:#000000;stroke-width:0.40000001;stroke-linecap:round;stroke-linejoin:miter;stroke-miterlimit:4;stroke-opacity:1;stroke-dasharray:none" />
  <path
     d="m 73.15625,406.3125 c 2.298177,1.7966 1.676462,9.26498 -1.53125,8.8125"
     id="path4273"
     style="fill:none;stroke:#000000;stroke-width:0.40000001;stroke-linecap:round;stroke-linejoin:miter;stroke-miterlimit:4;stroke-opacity:1;stroke-dasharray:none" />
  <path
     d="m 66.056535,407.31989 c 1.264857,0.16337 1.332089,-1.06888 0.49803,-1.39669 2.966423,-0.67553 1.425189,3.90459 -0.49803,1.39669 z"
     id="path3785-8"
     style="fill:#000000;stroke:none" />
  <path
     d="m 65.130257,414.0798 0.772349,0.2994 c -0.07706,0.9609 -0.642155,3.1133 -2.633533,3.89466 1.786905,-1.40863 2.034319,-3.06963 1.861184,-4.19406 z"
     id="path3829-5"
     style="fill:#000000;stroke:none" />
  <path
     d="m 128.29483,182.71706 c 74.83114,43.20471 3.03954,127.32804 -25.63262,136.82516 129.68143,6.02518 105.3227,-11.61724 157.33126,-17.50089 -1.6756,-11.328 45.81916,-65.73256 -57.80597,-140.62586 l -73.89267,21.30159 z"
     id="path5245"
     style="fill:#bfbfbf;fill-opacity:1;stroke:#000000;stroke-width:0.69999999;stroke-linecap:butt;stroke-linejoin:miter;stroke-miterlimit:4;stroke-opacity:1;stroke-dasharray:none" />
  <path
     d="m 231.17887,308.18432 c 0,0 24.10904,-0.60889 19.53382,-11.13694 -1.25979,-2.89892 -20.46191,5.08233 -20.46191,5.08233 -0.54208,1.55534 -0.27455,5.32781 0.92809,6.05461 z"
     id="path4542"
     style="fill:#b3b3b3;stroke:#000000;stroke-width:0.5;stroke-linecap:butt;stroke-linejoin:miter;stroke-miterlimit:4;stroke-opacity:1;stroke-dasharray:none" />
  <path
     d="m 118.74889,181.56801 83.52699,-24.04163 c 2.70169,-0.77763 3.3676,2.92811 1.59099,3.44714 L 119.456,185.63387 c -2.68581,0.78465 -4.53521,-2.96402 -0.70711,-4.06586 z"
     id="path5239"
     style="fill:#b3b3b3;stroke:#000000;stroke-width:0.69999999;stroke-linecap:butt;stroke-linejoin:miter;stroke-miterlimit:4;stroke-opacity:1;stroke-dasharray:none" />
  <path
     d="m 258.3125,292.125 c -1.5183,3.30935 -1.3352,8.10644 0,10.8125 l 11.5625,-6.3125 -11.5625,-4.5 z"
     id="path4614"
     style="fill:#b3b3b3;fill-opacity:1;stroke:#000000;stroke-width:0.5;stroke-linecap:butt;stroke-linejoin:miter;stroke-miterlimit:4;stroke-opacity:1;stroke-dasharray:none" />
  <path
     d="m 286.86353,274.02222 -7.15946,2.65165 c -2.24198,20.19891 -17.81519,40.47044 -38.27215,57.6292 l 5.83363,1.5026 c 27.31146,-23.88107 36.94749,-45.04312 39.59798,-61.78345 z"
     id="path4926"
     style="fill:#b3b3b3;stroke:#000000;stroke-width:0.69999999;stroke-linecap:butt;stroke-linejoin:miter;stroke-miterlimit:4;stroke-opacity:1;stroke-dasharray:none" />
  <path
     d="m 187.375,313.125 3.625,-4.5 4.375,-0.125 5.875,5.25 c -3.55503,4.07156 -7.25595,7.55954 -12.125,6.375 l 2.625,-7.75 c -1.6799,5.78927 -3.01863,3.04915 -4.375,0.75 z"
     id="path5534"
     style="fill:#b3b3b3;stroke:#000000;stroke-width:0.5;stroke-linecap:butt;stroke-linejoin:miter;stroke-miterlimit:4;stroke-opacity:1;stroke-dasharray:none" />
  <path
     d="m 165.41794,332.62369 -7.77818,-190.21172 c -0.0794,-1.94204 2.5242,-1.86434 2.65165,0.17677 l 11.66727,186.85297 -6.54074,3.18198 z"
     id="path5580"
     style="fill:#b3b3b3;stroke:#000000;stroke-width:0.60000002;stroke-linecap:butt;stroke-linejoin:miter;stroke-miterlimit:4;stroke-opacity:1;stroke-dasharray:none" />
  <path
     d="m 55.665291,314.38281 c 33.833082,10.09887 80.611769,18.61273 127.108009,11.4092 2.97231,-0.46049 8.3083,-4.75602 11.15967,-8.80304 1.2099,-1.71725 0.46887,-4.32907 3.16671,-4.81835 29.75823,-5.39697 58.74544,-12.89454 83.37757,-26.47554 -10.75632,20.1723 -25.11347,43.81224 -51.95003,58.06554 -1.62109,10.85982 -37.65998,-2.62466 -56.9221,-4.24264 l -45.25483,8.48529 -55.949826,-11.13694 c -5.92389,-8.30419 -10.936068,-14.06414 -14.735173,-22.48352 z"
     id="path4924"
     style="fill:#b3b3b3;stroke:#000000;stroke-width:0.60000002;stroke-linecap:butt;stroke-linejoin:miter;stroke-miterlimit:4;stroke-opacity:1;stroke-dasharray:none" />
  <path
     d="m 47.200825,306.85225 c -14.375632,6.07267 -14.523438,24.9899 -5.075825,23.27275 4.045573,-0.7353 3.669621,-5.44045 0.667075,-7.17762 -3.083267,-1.78387 -3.076573,-6.26879 6.276168,-11.8969 l -1.867418,-4.19823 z"
     id="path4986"
     style="fill:#b3b3b3;stroke:#000000;stroke-width:0.69999999;stroke-linecap:butt;stroke-linejoin:miter;stroke-miterlimit:4;stroke-opacity:1;stroke-dasharray:none" />
  <path
     d="m 111.94299,302.17391 -0.0442,5.23701 -2.78424,0.0663 1.41421,-10e-6 0.66292,4.33103 c -8.76686,-1.94281 -3.50608,-2.23917 -5.43589,-3.27037 -1.86328,-4.08132 3.86212,-4.21484 6.18719,-6.36396 z"
     id="path5009"
     style="fill:#b3b3b3;stroke:#000000;stroke-width:0.5;stroke-linecap:butt;stroke-linejoin:miter;stroke-miterlimit:4;stroke-opacity:1;stroke-dasharray:none" />
  <path
     d="m 279.4795,286.24749 c 1.24578,-0.44455 1.70733,-1.61262 2.02041,-2.73883 0.71802,-2.58287 0.91048,-6.02806 1.27565,-7.80707"
     id="path4950"
     style="fill:none;stroke:#000000;stroke-width:0.5;stroke-linecap:butt;stroke-linejoin:miter;stroke-miterlimit:4;stroke-opacity:1;stroke-dasharray:none" />
  <path
     d="m 49.625,300.625 c 4.409478,12.24614 10.766144,24.12718 20.5,35.375"
     id="path4974"
     style="fill:none;stroke:#000000;stroke-width:0.5;stroke-linecap:butt;stroke-linejoin:miter;stroke-miterlimit:4;stroke-opacity:1;stroke-dasharray:none" />
  <path
     d="m 66.5,331.4375 c 49.27536,11.99238 129.94847,14.09652 182.6217,-2.10627"
     id="path4976"
     style="fill:none;stroke:#000000;stroke-width:0.5;stroke-linecap:butt;stroke-linejoin:miter;stroke-miterlimit:4;stroke-opacity:1;stroke-dasharray:none" />
  <path
     d="M 260.08186,317.50929 C 189.2912,342.25792 103.15323,336.95154 59.691833,321.90542"
     id="path4978"
     style="fill:none;stroke:#000000;stroke-width:0.5;stroke-linecap:butt;stroke-linejoin:miter;stroke-miterlimit:4;stroke-opacity:1;stroke-dasharray:none" />
  <path
     d="m 24.824685,344.92268 c 22.482905,-1.0189 34.212605,-9.64113 54.467352,-9.0323 15.713343,0.47232 28.177873,8.5796 47.216803,8.73048 28.9134,0.22913 32.80627,-19.20594 83.86828,-1.90794 1.55911,0.52817 3.37558,4.29638 6.25424,2.08475 -3.43658,2.94638 -9.7264,-6.22815 -1.17267,-6.38453 6.67139,-0.12197 6.09481,9.8411 11.20551,5.99364 -4.4458,3.69038 -9.13347,-7.15306 0.26059,-7.16631 4.93594,-0.007 8.55761,10.41832 13.81144,5.86334 -4.36943,4.26593 -15.34707,-6.38774 0,-10.94491 6.2781,-1.86422 9.77714,4.59335 29.98068,3.15252 24.05542,-1.71553 35.14902,10.54575 54.42451,9.41845 l -0.0106,5.27966 c -15.64729,2.19091 -31.21363,-8.86854 -53.51414,-8.71089 -20.81556,0.14716 -28.38868,9.47457 -47.03724,9.23208 -17.08599,-0.22217 -30.84356,-8.07761 -49.90505,-8.27366 -16.97605,-0.17461 -29.68754,8.74632 -49.64156,8.40396 -19.52934,-0.33951 -30.36629,-9.70853 -48.080567,-9.05816 -24.569449,0.71885 -34.114817,9.47125 -52.132358,9.18846 l 0.0048,-5.86864 -3e-5,0 z"
     id="path5611"
     style="fill:#b3b3b3;stroke:#000000;stroke-width:0.5;stroke-linecap:butt;stroke-linejoin:miter;stroke-miterlimit:4;stroke-opacity:1;stroke-dasharray:none" />
  <path
     d="m 269.672,304.42781 c -24.35609,12.15193 -53.61214,17.22879 -86.85665,21.42793"
     id="path4982"
     style="fill:none;stroke:#000000;stroke-width:0.5;stroke-linecap:butt;stroke-linejoin:miter;stroke-miterlimit:4;stroke-opacity:1;stroke-dasharray:none" />
  <path
     d="m 193.42599,317.55349 c 37.02383,-4.06652 58.25139,-12.3583 81.94706,-22.58323"
     id="path4984"
     style="fill:none;stroke:#000000;stroke-width:0.5;stroke-linecap:butt;stroke-linejoin:miter;stroke-miterlimit:4;stroke-opacity:1;stroke-dasharray:none" />
  <path
     d="m 102.13188,308.05173 c 0.51997,0.71202 3.56916,0.37797 5.55044,-2.14755 3.32142,-4.2338 4.59929,-2.8964 6.16102,-4.70254 -3.10003,-0.8178 -4.33737,-1.71262 -7.07107,-0.97228 -1.90081,1.15769 -2.42433,3.18063 -2.43068,4.64039 -0.003,0.6747 -1.35252,2.29372 -2.20971,3.18198 z"
     id="path4994"
     style="fill:#b3b3b3;stroke:#000000;stroke-width:0.5;stroke-linecap:butt;stroke-linejoin:miter;stroke-miterlimit:4;stroke-opacity:1;stroke-dasharray:none" />
  <path
     d="M 121.04699,321.48676 158.0668,153.63034"
     id="path5099"
     style="fill:none;stroke:#000000;stroke-width:0.5;stroke-linecap:butt;stroke-linejoin:miter;stroke-miterlimit:4;stroke-opacity:1;stroke-dasharray:none" />
  <path
     d="M 132.18392,270.3983 121.48893,185.28032"
     id="path5101"
     style="fill:none;stroke:#000000;stroke-width:0.5;stroke-linecap:butt;stroke-linejoin:miter;stroke-miterlimit:4;stroke-opacity:1;stroke-dasharray:none" />
  <path
     d="m 194.80557,304.73467 41.6766,-84.36418 -60.01569,19.26866"
     id="path5111"
     style="fill:none;stroke:#000000;stroke-width:0.30000001;stroke-linecap:butt;stroke-linejoin:miter;stroke-miterlimit:4;stroke-opacity:1;stroke-dasharray:none" />
  <path
     d="m 233.65374,240.34626 11.49446,10.35236"
     id="path5113"
     style="fill:none;stroke:#000000;stroke-width:0.30000001;stroke-linecap:butt;stroke-linejoin:miter;stroke-miterlimit:4;stroke-opacity:1;stroke-dasharray:none" />
  <path
     d="m 251.4198,235.39651 -6.20928,15.29118 -1.03856,21.56676"
     id="path5117"
     style="fill:none;stroke:#000000;stroke-width:0.30000001;stroke-linecap:butt;stroke-linejoin:miter;stroke-miterlimit:4;stroke-opacity:1;stroke-dasharray:none" />
  <path
     d="m 222.25165,183.60094 c 2.89261,2.77815 4.22779,7.18432 2.65165,11.84404"
     id="path5119"
     style="fill:none;stroke:#000000;stroke-width:0.40000001;stroke-linecap:round;stroke-linejoin:miter;stroke-miterlimit:4;stroke-opacity:1;stroke-dasharray:none" />
  <path
     d="m 216.00866,185.60358 c 2.89261,2.77815 4.22779,7.01051 2.46097,11.03464"
     id="path5119-0"
     style="fill:none;stroke:#000000;stroke-width:0.40000001;stroke-linecap:round;stroke-linejoin:miter;stroke-miterlimit:4;stroke-opacity:1;stroke-dasharray:none" />
  <path
     d="m 209.94859,187.39616 c 3.47855,2.62323 3.80272,7.59944 1.93064,10.91348"
     id="path5119-3"
     style="fill:none;stroke:#000000;stroke-width:0.40000001;stroke-linecap:round;stroke-linejoin:miter;stroke-miterlimit:4;stroke-opacity:1;stroke-dasharray:none" />
  <path
     d="m 202.91328,188.86005 c 2.70193,2.20611 3.13137,8.07415 0.97227,10.96016"
     id="path5119-1"
     style="fill:none;stroke:#000000;stroke-width:0.40000001;stroke-linecap:round;stroke-linejoin:miter;stroke-miterlimit:4;stroke-opacity:1;stroke-dasharray:none" />
  <path
     d="m 196.57712,190.45401 c 2.78734,2.93009 2.26637,7.48026 0.94447,10.25007"
     id="path5119-19"
     style="fill:none;stroke:#000000;stroke-width:0.40000001;stroke-linecap:round;stroke-linejoin:miter;stroke-miterlimit:4;stroke-opacity:1;stroke-dasharray:none" />
  <path
     d="m 190.53892,192.30719 c 1.88748,2.11647 2.46693,7.83372 0.48363,10.15373"
     id="path5119-32"
     style="fill:none;stroke:#000000;stroke-width:0.40000001;stroke-linecap:round;stroke-linejoin:miter;stroke-miterlimit:4;stroke-opacity:1;stroke-dasharray:none" />
  <path
     d="m 184.26334,193.80979 c 1.80712,1.6152 2.17598,8.58463 0.43398,9.96306"
     id="path5119-5"
     style="fill:none;stroke:#000000;stroke-width:0.40000001;stroke-linecap:round;stroke-linejoin:miter;stroke-miterlimit:4;stroke-opacity:1;stroke-dasharray:none" />
  <path
     d="m 177.98777,195.48917 c 1.94814,2.29747 1.7092,7.65109 0.39525,9.38009"
     id="path5119-7"
     style="fill:none;stroke:#000000;stroke-width:0.40000001;stroke-linecap:round;stroke-linejoin:miter;stroke-miterlimit:4;stroke-opacity:1;stroke-dasharray:none" />
  <path
     d="m 166.93922,198.22921 c 1.30162,2.68977 0.95742,6.38883 0,8.48529"
     id="path5119-9"
     style="fill:none;stroke:#000000;stroke-width:0.40000001;stroke-linecap:round;stroke-linejoin:miter;stroke-miterlimit:4;stroke-opacity:1;stroke-dasharray:none" />
  <path
     d="m 173.12367,197.03596 c 1.36518,2.30841 1.44404,6.45239 0.10526,8.61241"
     id="path5119-9-4"
     style="fill:none;stroke:#000000;stroke-width:0.40000001;stroke-linecap:round;stroke-linejoin:miter;stroke-miterlimit:4;stroke-opacity:1;stroke-dasharray:none" />
  <path
     d="m 117.77662,181.78898 c 3.68841,-1.14824 3.54957,3.64141 1.32583,3.88909"
     id="path5241"
     style="fill:none;stroke:#000000;stroke-width:0.5;stroke-linecap:butt;stroke-linejoin:miter;stroke-miterlimit:4;stroke-opacity:1;stroke-dasharray:none" />
  <path
     d="m 161.94596,176.7702 c 1.16054,-0.55868 -0.59116,-2.4836 2.59207,-1.62276 1.82222,0.49278 2.42402,5.22027 -3.58221,5.85151 -4.28553,0.4504 -6.80693,-4.21545 -4.25655,-5.28245 3.0793,-1.28828 1.88349,0.79333 2.37259,0.9832 0.8932,0.34674 2.17665,0.38782 2.8741,0.0705 z"
     id="path5243"
     style="fill:#b3b3b3;stroke:#000000;stroke-width:0.5;stroke-linecap:butt;stroke-linejoin:miter;stroke-miterlimit:4;stroke-opacity:1;stroke-dasharray:none" />
  <path
     d="m 41.409286,327.70932 c 5.390503,-1.09941 21.385042,-3.74346 38.449846,-6.80472 C 102.23273,316.891 123.76432,314.36952 123.5,313 c -0.33601,-1.74097 -21.20626,1.62049 -44.08413,5.88992 -16.421181,3.06449 -32.316352,5.6198 -38.673587,6.92714 -1.350825,0.27779 -0.90163,2.21218 0.667003,1.89226 z"
     id="path4988"
     style="fill:#b3b3b3;stroke:#000000;stroke-width:0.5;stroke-linecap:butt;stroke-linejoin:miter;stroke-miterlimit:4;stroke-opacity:1;stroke-dasharray:none" />
  <path
     d="m 173.43649,330.55029 c -6.3381,-0.29418 -4.07803,5.76755 -1.24179,5.91322 5.08381,0.2611 16.62994,-13.54827 19.29103,-15.8028 0.59809,-0.50671 -0.68807,-0.91237 -1.05937,-0.60264 -2.7006,2.2528 -15.18517,18.01191 -16.98987,10.49222 z"
     id="path5475"
     style="fill:#b3b3b3;stroke:#000000;stroke-width:0.5;stroke-linecap:butt;stroke-linejoin:miter;stroke-miterlimit:4;stroke-opacity:1;stroke-dasharray:none" />
  <path
     d="m 181.23451,325.21987 c 1.07313,-0.53896 1.39269,1.24038 1.84644,2.78993 0.39418,1.34615 1.73442,1.85408 0.58113,2.90488 -2.69991,2.45997 -5.38327,-4.21039 -2.42757,-5.69481 z"
     id="path4992-7"
     style="fill:#b3b3b3;stroke:#000000;stroke-width:0.5;stroke-linecap:butt;stroke-linejoin:miter;stroke-miterlimit:4;stroke-opacity:1;stroke-dasharray:none" />
  <path
     d="m 177.43875,312.64793 2.38649,4.15425 1.94454,-5.48008 c 4.85883,-1.53306 8.21651,2.07463 8.92723,4.77297 0.68827,2.61309 -0.78848,4.98439 -2.62837,7.09252 l -3.11504,-1.08656 c 1.77598,-2.41582 3.24874,-5.1906 0.4401,-8.03889 2.80102,2.80688 1.3682,5.67516 -0.44389,8.04269 l 2.91303,1.08276 -5.7395,1.56954 -4.41943,-7.86656 5.27298,9.44867 c -1.87116,0.145 -2.54358,0.80375 -3.28293,1.43382 -2.33916,-4.44145 -7.45036,-11.28236 -2.25521,-15.12513 z"
     id="path5416"
     style="fill:#b3b3b3;stroke:#000000;stroke-width:0.5;stroke-linecap:butt;stroke-linejoin:miter;stroke-miterlimit:4;stroke-opacity:1;stroke-dasharray:none" />
  <path
     d="m 185.67758,322.44344 c -0.86705,1.39399 -2.29209,3.65365 -1.64478,4.33024 1.85302,1.646 4.58508,-1.53922 3.6066,-3.39136 -0.28002,-0.43838 -1.16292,-0.70593 -1.96182,-0.93888 z"
     id="path4992-7-7"
     style="fill:#b3b3b3;stroke:#000000;stroke-width:0.4035053;stroke-linecap:butt;stroke-linejoin:miter;stroke-miterlimit:4;stroke-opacity:1;stroke-dasharray:none" />
  <path
     d="m 112.96431,316.15495 c -0.65249,-1.00814 1.08153,-1.51936 2.57252,-2.13897 1.29529,-0.53828 1.65441,-1.92581 2.82443,-0.89367 2.73907,2.41629 -3.59982,5.80932 -5.39695,3.03264 z"
     id="path4992"
     style="fill:#b3b3b3;stroke:#000000;stroke-width:0.5;stroke-linecap:butt;stroke-linejoin:miter;stroke-miterlimit:4;stroke-opacity:1;stroke-dasharray:none" />
  <path
     d="m 112.375,314.6875 c 1.79911,-0.16283 3.68627,2.13145 2.87316,3.55806 -2.86331,2.63141 -9.11488,6.82511 -10.56066,4.81694 -2.74953,-3.81907 -3.73287,-14.25145 -0.42678,-14.65088 4.41202,-0.53305 6.11136,1.57701 6.9375,2.70136 l -0.29105,-2.55048 c 2.74652,-0.3081 2.78451,1.92841 3.08839,4.55178 -2.51301,0.35548 -4.02425,0.62758 -6.62933,1.0688 -0.28811,1.13822 0.96435,3.12534 -0.79676,4.09917 1.41781,-1.03856 0.81285,-3.07317 0.34463,-6.35049 0.62998,3.18442 0.94097,5.21881 -0.24675,6.42807 l 5.70765,-3.67233 z"
     id="path4990"
     style="fill:#b3b3b3;stroke:#000000;stroke-width:0.5;stroke-linecap:butt;stroke-linejoin:miter;stroke-miterlimit:4;stroke-opacity:1;stroke-dasharray:none" />
  <path
     d="m 272.00089,292.55621 8.73443,6.10214 c 2.39114,1.67052 -8.27058,6.63469 -1.31614,-0.7179 l -7.41829,-5.38424 z"
     id="path5830"
     style="fill:#000000;stroke:#000000;stroke-width:1px;stroke-linecap:butt;stroke-linejoin:miter;stroke-opacity:1" />
  <path
     d="m 272.39052,293.28035 c 1.0842,-0.78068 0.3703,-1.79079 -0.12126,-2.83335 -0.56216,-5.36071 -6.19771,4.81445 0.12126,2.83335 z"
     id="path4992-9-7-8"
     style="fill:#b3b3b3;fill-opacity:1;stroke:#000000;stroke-width:0.55068988;stroke-linecap:butt;stroke-linejoin:miter;stroke-miterlimit:4;stroke-opacity:1;stroke-dasharray:none" />
  <path
     d="m 244.65493,275.33933 c -1.24825,0.0722 -1.00993,-1.16305 -0.97873,-2.28403 0.027,-0.97385 -1.16041,-1.64884 0.32935,-2.03194 3.4876,-0.89684 4.08733,4.11716 0.64938,4.31597 z"
     id="path4992-9-7"
     style="fill:#b3b3b3;stroke:#000000;stroke-width:0.52896786;stroke-linecap:butt;stroke-linejoin:miter;stroke-miterlimit:4;stroke-opacity:1;stroke-dasharray:none" />
  <path
     d="m 229.10748,301.95124 c 5.03387,1.04317 8.80715,-0.41901 12.28248,-1.96171 3.07447,-1.36476 0.45645,-8.1684 0.39328,-12.98941 4.23579,-3.53791 4.77268,-7.89094 5.07882,-12.39764 -1.14252,0.52519 -2.35234,0.61293 -3.5774,0.60158 -0.49256,6.54079 -3.87325,11.81582 -12.71972,13.97517 l -1.45746,12.77201 z"
     id="path4544"
     style="fill:#b3b3b3;stroke:#000000;stroke-width:0.51147252;stroke-linecap:butt;stroke-linejoin:miter;stroke-miterlimit:4;stroke-opacity:1;stroke-dasharray:none" />
  <path
     d="M 157.81655,296.11931 159.23075,180.94929 137.664,299.92"
     id="path5247"
     style="fill:none;stroke:#000000;stroke-width:0.5;stroke-linecap:butt;stroke-linejoin:miter;stroke-miterlimit:4;stroke-opacity:1;stroke-dasharray:none" />
  <path
     d="m 176.3781,309.46595 c 0.85606,3.1168 2.82439,5.23154 3.97747,4.68458 0.84219,-0.39949 1.98089,-2.75884 0.53033,-6.0988 l -4.5078,1.41422 z"
     id="path5414"
     style="fill:#b3b3b3;stroke:#000000;stroke-width:0.5;stroke-linecap:butt;stroke-linejoin:miter;stroke-miterlimit:4;stroke-opacity:1;stroke-dasharray:none" />
  <path
     d="m 173.65124,310.34268 c 6.328,1.20269 7.54845,-0.5449 10.13829,-1.48134 -0.26974,-0.93093 -1.05499,-1.40595 -2.73293,-1.09153 -1.11668,-2.40675 -2.29756,-2.79542 -3.35005,-2.33896 -1.70192,0.73812 -1.35564,3.15404 -4.05531,4.91183 z"
     id="path5249"
     style="fill:#b3b3b3;stroke:#000000;stroke-width:0.5;stroke-linecap:butt;stroke-linejoin:miter;stroke-miterlimit:4;stroke-opacity:1;stroke-dasharray:none" />
  <path
     d="m 216.85996,294.79348 c 2.17917,-1.88741 4.26417,-3.93178 5.74524,-6.98268"
     id="path4546"
     style="fill:none;stroke:#000000;stroke-width:0.40000001;stroke-linecap:round;stroke-linejoin:miter;stroke-miterlimit:4;stroke-opacity:1;stroke-dasharray:none" />
  <path
     d="m 224.81371,289.38986 c 0.89319,-0.88823 -0.0789,-1.44668 -0.8357,-2.09155 -0.65738,-0.56032 -0.29575,-1.8485 -1.55663,-0.96541 -2.95176,2.06739 -0.0677,5.50336 2.39233,3.05696 z"
     id="path4992-9-7-2"
     style="fill:#b3b3b3;stroke:#000000;stroke-width:0.5;stroke-linecap:butt;stroke-linejoin:miter;stroke-miterlimit:4;stroke-opacity:1;stroke-dasharray:none" />
  <path
     d="m 222.77631,290.50634 c 1.02553,-0.56765 1.89965,-0.93738 2.40324,-2.21237 0,0 3.16485,4.39063 3.62596,2.87609 0.3163,-1.03889 1.0093,-5.62766 1.85514,-5.08845 3.09686,1.97421 2.44707,9.58603 -1.30703,9.38044 -3.92595,-0.215 -5.22883,-3.52463 -6.57731,-4.95571 z"
     id="path4540"
     style="fill:#b3b3b3;stroke:#000000;stroke-width:0.48866433;stroke-linecap:butt;stroke-linejoin:miter;stroke-miterlimit:4;stroke-opacity:1;stroke-dasharray:none" />
  <path
     d="m 230.49198,283.32788 -2.34734,4.9026 c 5.10434,1.04303 9.47261,0.189 12.11345,-5.11709 l -9.76611,0.21449 z"
     id="path3766"
     style="fill:#b3b3b3;stroke:#000000;stroke-width:0.5;stroke-linecap:butt;stroke-linejoin:miter;stroke-miterlimit:4;stroke-opacity:1;stroke-dasharray:none" />
  <path
     d="m 229.84375,282.0938 c 0.37473,-1.99877 0.48815,-5.04099 2.5,-5.15625 1.50006,-0.0859 2.7876,2.45151 3.65625,4.09375 l 2.6875,-0.625 c 0.12,0.67894 -0.71159,3.06495 -5.59375,3.6875 -4.09223,0.52182 -6.04542,-0.24124 -6.21875,-1.5 l 2.96875,-0.5 z"
     id="path3742"
     style="fill:#b3b3b3;stroke:#000000;stroke-width:0.5;stroke-linecap:butt;stroke-linejoin:miter;stroke-miterlimit:4;stroke-opacity:1;stroke-dasharray:none" />
  <path
     d="m 188.95963,307.06592 2.22729,0.22996 c 0.72308,-1.10158 0.77686,-3.37207 2.27396,-3.31053 1.13213,0.0466 1.68587,1.90499 2.31631,3.20254 l 2.08984,-0.4389 c -0.0766,0.63807 -0.43137,2.62534 -4.44367,2.574 -3.39166,-0.0434 -4.47843,-1.17907 -4.46373,-2.25699 z"
     id="path3742-8"
     style="fill:#b3b3b3;stroke:#000000;stroke-width:0.5;stroke-linecap:butt;stroke-linejoin:miter;stroke-miterlimit:4;stroke-opacity:1;stroke-dasharray:none" />
  <path
     d="m 271.125,273.625 c -0.38905,3.08315 -2.34554,4.40293 -4,6.0625 -8.25115,-8.35699 0.50892,-4.03396 4,-6.0625 z"
     id="path4743"
     style="fill:#b3b3b3;fill-opacity:1;stroke:#000000;stroke-width:0.5;stroke-linecap:butt;stroke-linejoin:miter;stroke-miterlimit:4;stroke-opacity:1;stroke-dasharray:none" />
  <path
     d="m 268.14941,266.27086 c 1.02279,0.34431 1.11179,-0.72033 1.3467,-1.64419 0.20415,-0.80258 1.35016,-1.08323 0.1986,-1.73698 -2.6959,-1.53041 -4.36228,2.43292 -1.5453,3.38117 z"
     id="path4992-9-7-89"
     style="fill:#b3b3b3;fill-opacity:1;stroke:#000000;stroke-width:0.45327184;stroke-linecap:butt;stroke-linejoin:miter;stroke-miterlimit:4;stroke-opacity:1;stroke-dasharray:none" />
  <path
     d="m 269.0286,266.30721 -2.75424,-1.17691 c -2.79898,5.77083 -3.77308,10.47387 -3.96186,15.9947 1.95177,-0.80956 2.72434,-5.00979 3.53353,-7.50766 0.91398,-2.8213 2.18593,-3.89355 3.18257,-7.31013 z"
     id="path4741"
     style="fill:#b3b3b3;fill-opacity:1;stroke:#000000;stroke-width:0.5;stroke-linecap:butt;stroke-linejoin:miter;stroke-miterlimit:4;stroke-opacity:1;stroke-dasharray:none" />
  <path
     d="m 255.6875,290.375 c 1.83693,1.82112 5.05893,2.9497 8.1875,4.125 2.52521,-0.94719 3.7453,-1.95564 5.3125,-3.0625 -2.74459,-3.8316 -4.0156,-7.16504 -1.6875,-10.6875 -2.41036,3.54487 -1.06303,6.84392 1.6875,10.8125 l 3.5,-1.4375 c -0.56351,-4.65317 0.62094,-12.59879 -4.1875,-12.8125 l -2.8125,-0.125 c -2.72692,-0.1212 -7.74606,7.86188 -10,13.1875 z"
     id="path4616"
     style="fill:#b3b3b3;fill-opacity:1;stroke:#000000;stroke-width:0.5;stroke-linecap:butt;stroke-linejoin:miter;stroke-miterlimit:4;stroke-opacity:1;stroke-dasharray:none" />
  <path
     d="m 263.5625,274.1875 c -1.11825,2.34466 12.56866,0.39072 9.1875,-1 -1.34999,-0.55527 -2.98872,-3.3654 -4.875,-3.75 -1.73769,-0.3543 -3.31716,2.66305 -4.3125,4.75 z"
     id="path4767"
     style="fill:#b3b3b3;fill-opacity:1;stroke:#000000;stroke-width:0.5;stroke-linecap:butt;stroke-linejoin:miter;stroke-miterlimit:4;stroke-opacity:1;stroke-dasharray:none" />
  <path
     d="m 137.61075,304.94029 c 1.43943,0.25816 1.32825,-1.38948 1.44226,-2.86048 0.099,-1.27791 1.56809,-2.00541 -0.11006,-2.70214 -3.92865,-1.63109 -5.2967,4.85148 -1.33218,5.56262 z"
     id="path4992-4-3"
     style="fill:#b3b3b3;stroke:#000000;stroke-width:0.53044975;stroke-linecap:butt;stroke-linejoin:miter;stroke-miterlimit:4;stroke-opacity:1;stroke-dasharray:none" />
  <path
     d="m 139.34338,303.7207 c -1.64984,0.76582 -2.88007,0.48264 -4.06587,0.0884 0.73831,6.45985 2.36038,9.91466 6.62913,11.66726 0.27944,-1.99237 0.26699,-5.11398 0.26516,-6.62913 -2.51432,-0.72801 -2.20039,-2.65542 -2.82842,-5.12652 z"
     id="path5296"
     style="fill:#b3b3b3;stroke:#000000;stroke-width:0.5;stroke-linecap:butt;stroke-linejoin:miter;stroke-miterlimit:4;stroke-opacity:1;stroke-dasharray:none" />
  <path
     d="m 157.09613,300.66693 c -1.43943,0.25816 -1.32825,-1.38948 -1.44226,-2.86048 -0.099,-1.27791 -1.56809,-2.00541 0.11006,-2.70214 3.92865,-1.63109 5.2967,4.85148 1.33218,5.56262 z"
     id="path4992-4"
     style="fill:#b3b3b3;stroke:#000000;stroke-width:0.53044975;stroke-linecap:butt;stroke-linejoin:miter;stroke-miterlimit:4;stroke-opacity:1;stroke-dasharray:none" />
  <path
     d="m 155.87228,300.22938 c 1.38467,0.1471 2.88007,-0.48966 4.06587,-0.88389 0.23396,6.81341 -2.00683,13.62697 -6.27558,15.37957 -0.27944,-1.99237 -0.0902,-5.64431 -0.0884,-7.15946 2.51432,-0.72801 2.64233,-4.86512 2.29809,-7.33622 z"
     id="path5296-4"
     style="fill:#b3b3b3;stroke:#000000;stroke-width:0.5;stroke-linecap:butt;stroke-linejoin:miter;stroke-miterlimit:4;stroke-opacity:1;stroke-dasharray:none" />
  <path
     d="m 142.1718,308.40528 c 5.54518,-1.38256 5.4823,0.93559 5.56847,2.82844 1.46107,-1.8771 2.46442,-4.1476 5.74524,-3.97748 l 0.61872,17.14734 -6.54074,-2.12132 -6.36396,0.97227 0.97227,-14.84925 z"
     id="path5320"
     style="fill:#b3b3b3;stroke:#000000;stroke-width:0.5;stroke-linecap:butt;stroke-linejoin:miter;stroke-miterlimit:4;stroke-opacity:1;stroke-dasharray:none" />
  <path
     d="m 147.74027,312.8247 -0.44195,9.28078"
     id="path5322"
     style="fill:none;stroke:#000000;stroke-width:0.40000001;stroke-linecap:butt;stroke-linejoin:miter;stroke-miterlimit:4;stroke-opacity:1;stroke-dasharray:none" />
  <path
     d="m 145.00023,302.9252 c 0,0 0.0119,4.77566 2.91682,6.0988 2.7208,1.23929 3.61772,-5.22731 3.18198,-6.09879 l -6.0988,-10e-6 z"
     id="path5346"
     style="fill:#b3b3b3;stroke:#000000;stroke-width:0.5;stroke-linecap:butt;stroke-linejoin:miter;stroke-miterlimit:4;stroke-opacity:1;stroke-dasharray:none" />
  <path
     d="m 145.51889,302.36131 c 0.61777,-1.5094 1.16068,-3.86665 2.92702,-3.69307 1.317,0.12945 2.06609,2.27651 2.58164,3.67075 l 2.42832,-0.13541 c 0.005,0.54509 -1.06639,2.29662 -5.40285,2.14275 -3.63481,-0.12899 -5.22188,-0.97972 -5.18878,-1.9839 l 2.65465,-7.9e-4 z"
     id="path3742-4"
     style="fill:#b3b3b3;stroke:#000000;stroke-width:0.41748369;stroke-linecap:butt;stroke-linejoin:miter;stroke-miterlimit:4;stroke-opacity:1;stroke-dasharray:none" />
  <path
     d="M 142.08341,323.25453 159.23075,180.77252 152.7784,325.02229"
     id="path5105"
     style="fill:none;stroke:#000000;stroke-width:0.5;stroke-linecap:butt;stroke-linejoin:miter;stroke-miterlimit:4;stroke-opacity:1;stroke-dasharray:none" />
  <path
     d="m 132.13973,327.89492 c 1.27384,-2.21247 4.13565,-4.13621 7.99914,-5.87783 2.21086,2.48759 5.096,2.73452 8.48528,0.44194 5.38687,5.14903 9.94152,0.60173 11.57887,-1.06065 1.6827,1.95371 2.26426,5.04358 1.41422,6.67331 -9.36021,0.44632 -20.30944,0.43004 -29.47751,-0.17677 z"
     id="path5058"
     style="fill:#b3b3b3;stroke:#000000;stroke-width:0.5;stroke-linecap:butt;stroke-linejoin:miter;stroke-miterlimit:4;stroke-opacity:1;stroke-dasharray:none" />
  <path
     d="m 127.0132,276.23192 c 3.06413,-2.08443 8.19078,-10.65597 9.63434,-9.50174 0.68587,0.5484 -2.55513,2.80648 -4.46362,3.71231 -1.62803,-0.17636 -3.44367,0.0225 -4.86136,-0.57452 -1.82599,-0.76898 2.60667,-1.72311 4.90555,0.22097"
     id="path5604"
     style="fill:none;stroke:#000000;stroke-width:0.40000001;stroke-linecap:butt;stroke-linejoin:miter;stroke-miterlimit:4;stroke-opacity:1;stroke-dasharray:none" />
  <path
     d="m 185,249.75 a 0.46875,0.5625 0 1 1 -0.9375,0 0.46875,0.5625 0 1 1 0.9375,0 z"
     transform="matrix(1.1,0,0,1,-26.4375,-10.09375)"
     id="path5628"
     style="fill:#000000;fill-opacity:1;stroke:none" />
  <path
     d="m 185,249.75 a 0.46875,0.5625 0 1 1 -0.9375,0 0.46875,0.5625 0 1 1 0.9375,0 z"
     transform="matrix(1.1,0,0,1,-18.703125,-12.625)"
     id="path5628-3"
     style="fill:#000000;fill-opacity:1;stroke:none" />
  <path
     d="m 185,249.75 a 0.46875,0.5625 0 1 1 -0.9375,0 0.46875,0.5625 0 1 1 0.9375,0 z"
     transform="matrix(1.1,0,0,1,-11.515625,-14.90625)"
     id="path5628-2"
     style="fill:#000000;fill-opacity:1;stroke:none" />
  <path
     d="m 185,249.75 a 0.46875,0.5625 0 1 1 -0.9375,0 0.46875,0.5625 0 1 1 0.9375,0 z"
     transform="matrix(1.1,0,0,1,-4.4531246,-17.25)"
     id="path5628-20"
     style="fill:#000000;fill-opacity:1;stroke:none" />
  <path
     d="m 185,249.75 a 0.46875,0.5625 0 1 1 -0.9375,0 0.46875,0.5625 0 1 1 0.9375,0 z"
     transform="matrix(1.1,0,0,1,2.015625,-19.25)"
     id="path5628-7"
     style="fill:#000000;fill-opacity:1;stroke:none" />
  <path
     d="m 185,249.75 a 0.46875,0.5625 0 1 1 -0.9375,0 0.46875,0.5625 0 1 1 0.9375,0 z"
     transform="matrix(1.1,0,0,1,9.265625,-21.593751)"
     id="path5628-9"
     style="fill:#000000;fill-opacity:1;stroke:none" />
  <path
     d="m 185,249.75 a 0.46875,0.5625 0 1 1 -0.9375,0 0.46875,0.5625 0 1 1 0.9375,0 z"
     transform="matrix(1.1,0,0,1,17.453125,-24.218751)"
     id="path5628-5"
     style="fill:#000000;fill-opacity:1;stroke:none" />
  <path
     d="m 185,249.75 a 0.46875,0.5625 0 1 1 -0.9375,0 0.46875,0.5625 0 1 1 0.9375,0 z"
     transform="matrix(1.1,0,0,1,24.421875,-26.406251)"
     id="path5628-32"
     style="fill:#000000;fill-opacity:1;stroke:none" />
  <path
     d="m 185,249.75 a 0.46875,0.5625 0 1 1 -0.9375,0 0.46875,0.5625 0 1 1 0.9375,0 z"
     transform="matrix(1.1,0,0,1,33.421876,-29.343751)"
     id="path5628-1"
     style="fill:#000000;fill-opacity:1;stroke:none" />
  <path
     d="m 185,249.75 a 0.46875,0.5625 0 1 1 -0.9375,0 0.46875,0.5625 0 1 1 0.9375,0 z"
     transform="matrix(1.1,0,0,1,30.8125,-9.28125)"
     id="path5628-53"
     style="fill:#000000;fill-opacity:1;stroke:none" />
  <path
     d="m 185,249.75 a 0.46875,0.5625 0 1 1 -0.9375,0 0.46875,0.5625 0 1 1 0.9375,0 z"
     transform="matrix(1.1,0,0,1,48.484376,-14.28125)"
     id="path5628-22"
     style="fill:#000000;fill-opacity:1;stroke:none" />
  <path
     d="m 24.896684,339.99859 c 12.243359,0.4117 26.237797,-6.28826 37.057807,-7.94326 l -3.438583,-4.66635 c -9.467101,1.47422 -21.224272,7.00168 -33.587964,6.81683 l -0.03126,5.79278 z"
     id="path5747"
     style="fill:#b3b3b3;stroke:#000000;stroke-width:0.5;stroke-linecap:butt;stroke-linejoin:miter;stroke-miterlimit:4;stroke-opacity:1;stroke-dasharray:none" />
  <path
     d="m 251.52554,331.99693 c 0,0 14.37352,-1.67572 22.66026,-1.99209 17.96918,-0.68603 27.00961,8.51609 50.85117,9.33268 l 0,-6.34144 c -24.14152,-0.84143 -27.22812,-9.13261 -51.32977,-9.33268 -4.75266,-0.0394 -14.61332,1.04025 -14.61332,1.04025 l -7.56834,7.29328 z"
     id="path5771"
     style="fill:#b3b3b3;stroke:#000000;stroke-width:0.5;stroke-linecap:butt;stroke-linejoin:miter;stroke-miterlimit:4;stroke-opacity:1;stroke-dasharray:none" />
  <path
     d="m 157.97545,153.98183 c 0.97114,0.148 1.96617,0.17649 3.05614,-0.26966"
     id="path2990"
     style="fill:none;stroke:#000000;stroke-width:0.40000001;stroke-linecap:butt;stroke-linejoin:miter;stroke-miterlimit:4;stroke-opacity:1;stroke-dasharray:none" />
  <path
     d="m 157.90803,153.30387 c 0.97114,0.148 1.96617,0.17649 3.05614,-0.26966"
     id="path2990-1"
     style="fill:none;stroke:#000000;stroke-width:0.40000001;stroke-linecap:butt;stroke-linejoin:miter;stroke-miterlimit:4;stroke-opacity:1;stroke-dasharray:none" />
</svg>
