<?xml version="1.0" encoding="UTF-8" standalone="no"?>
<svg
   xmlns:dc="http://purl.org/dc/elements/1.1/"
   xmlns:cc="http://creativecommons.org/ns#"
   xmlns:rdf="http://www.w3.org/1999/02/22-rdf-syntax-ns#"
   xmlns:svg="http://www.w3.org/2000/svg"
   xmlns="http://www.w3.org/2000/svg"
   xmlns:xlink="http://www.w3.org/1999/xlink"
   id="svg2"
   version="1.1"
   x="0"
   y="0"
   width="400"
   height="500"
   viewBox="30.5 31.5 400 500"
   enable-background="new 30.5 31.5 412 533"
   xml:space="preserve"><metadata
     id="metadata4"><rdf:RDF><cc:Work
         rdf:about=""><dc:format>
          
          
          
          image/svg+xml
        
        
        
        </dc:format><dc:type
           rdf:resource="http://purl.org/dc/dcmitype/StillImage" /><dc:title></dc:title></cc:Work></rdf:RDF></metadata><defs
     id="defs6" /><path
     style="fill:#0085ca;fill-opacity:1"
     id="path8"
     d="M 230.56,531.14 C 304.88,477.22 355.82,409.12 386.3,322.98 413.94,244.88 425.03,150.23 420.21,33.63 l -0.02,-0.46 -379.82,0 -0.02,0.46 c -4.81,116.6 6.28,211.24 33.91,289.35 30.48,86.14 81.42,154.24 155.74,208.16 l 0.28,0.2 0.28,-0.2 z" /><path
     id="path10"
     d="M 41.04,33.21 C 31.97,252.66 77.3,419.16 230.5,530.31 383.69,419.16 429.01,252.66 419.94,33.21 l -189.45,0 -189.45,0 m -0.92,-0.95 0.92,0 189.45,0 189.45,0 0.92,0 0.04,0.92 c 4.82,116.66 -6.28,211.36 -33.93,289.52 -30.51,86.24 -81.51,154.41 -155.91,208.39 l -0.56,0.41 -0.56,-0.41 C 155.54,477.11 104.54,408.94 74.03,322.7 46.38,244.54 35.28,149.84 40.1,33.18 l 0.04,-0.92 0,0 z" /><path
     style="fill:#ffffff;stroke:#000000;stroke-opacity:1"
     id="path4045"
     d="m 346.92641,197.62734 c 8.88709,0.75974 23.85566,27.47742 26.6573,47.55453 1.36359,9.77185 -0.59735,32.95029 -3.72245,43.5425 -1.37858,4.6726 -2.93264,14.40465 -3.41631,21.63832 -0.29339,4.38798 -0.58186,8.77629 -0.87277,13.16447 -3.39633,1.89932 -6.79461,3.79521 -10.18904,5.69793 -9.15816,5.13352 -10.21036,5.37608 -10.83468,2.61091 -0.60518,-2.68058 -1.72663,-2.2261 -8.87955,3.3844 -4.50368,3.53251 -13.23489,9.20333 -19.42327,12.63973 -6.18837,3.43641 -13.41817,8.62177 -16.04247,11.51388 -3.47058,3.82476 -6.00885,5.14577 -9.30923,4.86362 -6.11368,-0.52266 -9.06741,-4.6588 -4.87309,-6.83402 2.41734,-1.25365 1.25693,-1.522 -5.54547,-1.33309 -6.71719,0.18653 -10.79458,1.55533 -18.68653,6.38634 -9.27171,5.67563 -29.74809,20.70164 -29.96799,8.74986 l -0.71243,-38.71981 c -0.12631,-6.8676 6.07743,-8.41445 9.3798,-8.13216 2.02386,0.17304 9.24493,2.7058 16.04342,5.61614 14.18024,6.07041 21.10445,6.20485 28.65193,0.57982 1.583,-1.17846 3.16596,-2.35696 4.74897,-3.5354 -1.31571,0.0222 -2.63137,0.0488 -3.94713,0.0669 -3.26554,0.0446 -4.03736,-0.86791 -4.59613,-5.34495 -0.73706,-5.90541 1.66815,-8.11756 11.67561,-10.67449 6.35459,-1.62358 9.96177,-8.5617 8.15737,-15.62408 -1.45172,-5.68184 0.98518,-8.76263 10.7204,-13.68691 7.38586,-3.73587 9.76904,-7.83032 15.50171,-26.46672 4.35197,-14.14779 4.75994,-17.04687 4.45285,-33.17177 -0.29972,-15.73533 -0.0379,-18.12547 2.65096,-21.55214 3.95018,-5.03417 6.11853,-3.23393 4.38654,3.65951 -0.92054,3.66372 -0.63227,6.91217 0.88645,9.72716 1.24959,2.31612 2.11785,5.9628 1.93097,8.14896 -0.18692,2.18616 0.38055,4.54992 1.27243,5.21239 2.55783,1.89984 3.3593,0.17882 2.04565,-4.42345 -0.82024,-2.87383 -0.50353,-5.73509 1.0142,-8.90775 1.76186,-3.6829 1.82403,-5.65247 0.34619,-9.36915 -1.03248,-2.59664 -2.10013,-5.32357 -2.36619,-6.01332 -0.26599,-0.68975 1.02517,-1.1251 2.86198,-0.96807 z m 9.43851,23.72008 c -1.57358,-0.30706 -2.61035,0.41096 -2.78145,2.41219 -0.13839,1.61864 -0.23769,2.84133 0.31985,3.50303 1.49803,1.77814 5.39652,-1.61722 4.3017,-3.7817 -0.56689,-1.12069 -0.89592,-1.94929 -1.8401,-2.13352 z m 0.12176,0.0208 c 0.86379,0.19751 2.005,1.74922 1.77968,3.08143 -0.1802,1.15808 -0.39644,1.73552 -1.90456,2.59145 -1.95046,1.19082 -2.93479,-0.16954 -2.81453,-2.91619 0.13891,-3.1727 1.93506,-2.98634 2.93941,-2.75669 z" /><use
     xlink:href="#path4045"
     height="1052.3622"
     width="744.09448"
     y="0"
     x="0"
     id="use3624"
     transform="matrix(-0.5,0.8660254,-0.8660254,-0.5,544.18893,145.0871)" /><use
     style="fill:#ffffff"
     xlink:href="#path4045"
     height="1052.3622"
     width="744.09448"
     y="0"
     x="0"
     id="use3626"
     transform="matrix(-0.5,-0.8660254,0.8660254,-0.5,146.44537,543.82496)" /></svg>