<svg xmlns:dc="http://purl.org/dc/elements/1.1/" xmlns:cc="http://creativecommons.org/ns#" xmlns:rdf="http://www.w3.org/1999/02/22-rdf-syntax-ns#" xmlns:svg="http://www.w3.org/2000/svg" xmlns="http://www.w3.org/2000/svg" xml:space="preserve" enable-background="new 30.5 31.5 412 533" viewBox="30.5 31.5 400 500" height="500" width="400" y="0" x="0" version="1.1" id="svg2">
  <metadata id="metadata4">
    <rdf:RDF>
      <cc:Work rdf:about="">
        <dc:format>
          
          
          
          image/svg+xml
        
        
        
        </dc:format>
        <dc:type rdf:resource="http://purl.org/dc/dcmitype/StillImage"/>
      </cc:Work>
    </rdf:RDF>
  </metadata>
  <defs id="defs6"/>
  <path d="M230.44 531.14C156.12 477.22 105.18 409.12 74.7 322.98 47.06 244.88 35.97 150.23 40.79 33.63l0.02-0.46 379.82 0 0.02 0.46c4.81 116.6-6.28 211.24-33.91 289.35C356.26 409.12 305.32 477.22 231 531.14l-0.28 0.2-0.28-0.2z" id="path8" fill="#0085ca"/>
  <path d="M419.96 33.21C429.03 252.66 383.7 419.16 230.5 530.31 77.31 419.16 31.99 252.66 41.06 33.21l189.45 0 189.45 0m0.92-0.95-0.92 0-189.45 0-189.45 0-0.92 0-0.04 0.92c-4.82 116.66 6.28 211.36 33.93 289.52 30.51 86.24 81.51 154.41 155.91 208.39l0.56 0.41 0.56-0.41C305.46 477.11 356.46 408.94 386.97 322.7 414.62 244.54 425.72 149.84 420.9 33.18l-0.04-0.92 0 0z" id="path10"/>
  <path id="path3663" d="m242.76 59.14c-5.53-4.24-13.3 6.87-10.2 9.07L350.23 151.69c3.36 2.38 7.39-4.36 4.61-6.49z" style="fill:#ececec;stroke-miterlimit:4;stroke:#000"/>
  <path id="path3661" d="m90.04 294.87c-3.87 5.38 34.81 8.12 53.91 5.13 20.86-3.27 49.97-12.48 52.5-18.5l28.38-67.72c1.66-3.96 1.05-7.46 0.35-9.66-4.02-12.78-1.22-31.08 2.01-44.78 9.63-40.86 32.61-71.38 45.25-92.98 2.34-3.99-9.08-10.18-10.87-7.52C212.45 131.82 160.19 197.39 90.04 294.87Z" style="fill:#fff;stroke-miterlimit:4;stroke:#000"/>
  <path d="m282.82 160.5c-5.38-4.43-13.23 6.78-10.2 9.07l108.9 82.4c3.29 2.49 7.31-4.27 4.61-6.49z" id="path4459" style="fill:#ececec;stroke-miterlimit:4;stroke:#000"/>
  <path d="m139.34 400.54c-3.87 5.38 37.47 11.28 56.68 9.13 26.4-2.96 56.25-9.91 58.49-16.04l25.65-70.22c0.34-0.94 2.01-5.41-0.08-8.57-6.72-10.17-8.91-21.63-5.94-38.97 7.09-40.83 31.56-81.08 44.83-103.73 2.34-3.99-8.1-10.11-9.89-7.45-49.12 72.98-99.59 138.38-169.73 235.86z" id="path4461" style="fill:#fff;stroke-miterlimit:4;stroke:#000"/>
</svg>
