<svg xmlns:dc="http://purl.org/dc/elements/1.1/" xmlns:cc="http://creativecommons.org/ns#" xmlns:rdf="http://www.w3.org/1999/02/22-rdf-syntax-ns#" xmlns:svg="http://www.w3.org/2000/svg" xmlns="http://www.w3.org/2000/svg" version="1.0" width="383" height="500" id="svg3311"><metadata id="metadata9"><rdf:RDF><cc:Work rdf:about=""><dc:format>image/svg+xml</dc:format><dc:type rdf:resource="http://purl.org/dc/dcmitype/StillImage"/><dc:title/></cc:Work></rdf:RDF></metadata><defs id="defs3313"/><path d="m 377.3 5.6 0 389.8 c 0 9.3 -6.5 20 -18.8 25.5 L 194.2 494 c -1.6 0.7 -4.1 0.7 -5.7 0 L 24.3 420.9 C 12 415.4 5.5 404.7 5.5 395.4 l 0 -389.8 371.8 0 z" id="use3296" style="fill:#da291c;fill-opacity:1;fill-rule:evenodd;stroke:#fce300;stroke-width:10.9616375;stroke-linecap:butt;stroke-linejoin:miter;stroke-miterlimit:4;stroke-opacity:1;stroke-dasharray:none;stroke-dashoffset:0"/><path d="m 96.9 32.5 c -26.6 0 -55.2 7.8 -67.7 29.9 -2.7 4.8 -0.4 16.3 8.3 13.4 0 29.3 -1.5 53.1 -4.4 77.5 11.1 12 30.1 6 41.1 -2.3 -1.1 -25.5 17.9 -26.9 17.9 -53.7 0 -9.8 -5.6 -18.7 -14 -18.7 -10.4 0 -8.9 3.3 -12.6 7 -8.1 0 -2.6 -11.7 12.6 -11.7 11.9 0 20.4 9.6 20.4 28.2 0 35.3 -53.7 83 -53.7 111 0 31 8.4 57.3 8.4 86.1 0 35.4 -25.7 70.9 -34.7 102.3 l 36.4 0 41.4 -122.5 c 8.3 17.5 27.4 57 27.4 77.7 0 12.6 -9.2 31.8 -15.1 44.7 l 41.4 0 c 3.2 -6.6 8.7 -9.9 8.4 -30.8 -0.6 -36 -10.1 -70.3 -17.9 -103.5 18.1 -11.7 49.2 -1.2 58.2 -17.3 0.2 4.2 -3.9 12.4 -3.9 25.2 0 14.8 10.6 30 10.6 50.9 0 10.1 -16.7 50.3 -27.4 75.5 l 35.8 0 38.3 -95.9 c -24.2 -32.2 -19.3 -49.1 -14.1 -51.3 6 12.9 -8 11.6 21.7 45.4 11.3 12.9 25.3 25.9 24.6 46.4 -0.9 27 -10.8 37.9 -16.8 55.3 l 43.6 0 3.6 -91.1 c -7.7 -10.6 -12.9 -18.4 -13.1 -26.3 -0.6 -16.6 13 -17.4 12.3 -57 -0.3 -19.8 -6.4 -37.8 -15.1 -53.1 10.7 -14.2 23.4 16 23.8 27.4 2 68.3 -1.5 133.6 -2.5 200.2 l 17.9 0 c 8.8 -32 9.5 -59.6 12.3 -88.9 4.2 -44.8 13.9 -92.5 2.2 -139.8 -2.9 -11.8 -18.8 -33.3 -42.2 -33.8 -24.5 -0.6 -29.5 12.4 -29.6 25.7 l -66.8 0 C 200.4 115.3 195 32.5 96.9 32.5 z m 80.5 68.5 c 5 19.1 11.6 32.3 13.1 63.8 l -13.1 0 c 3 -17.7 1.3 -41.1 0 -63.8 z" id="path2516" style="fill:#fce300;fill-opacity:1;fill-rule:evenodd;stroke:none"/></svg>