<?xml version="1.0" encoding="UTF-8" standalone="no"?>
<svg
   xmlns:dc="http://purl.org/dc/elements/1.1/"
   xmlns:cc="http://creativecommons.org/ns#"
   xmlns:rdf="http://www.w3.org/1999/02/22-rdf-syntax-ns#"
   xmlns:svg="http://www.w3.org/2000/svg"
   xmlns="http://www.w3.org/2000/svg"
   xml:space="preserve"
   enable-background="new 30.5 31.5 412 533"
   viewBox="30.5 31.5 400 500"
   height="500"
   width="400"
   y="0"
   x="0"
   version="1.1"
   id="svg2"><metadata
     id="metadata4"><rdf:RDF><cc:Work
         rdf:about=""><dc:format>
          
          
          image/svg+xml
        
        
        </dc:format><dc:type
           rdf:resource="http://purl.org/dc/dcmitype/StillImage" /><dc:title></dc:title></cc:Work></rdf:RDF></metadata><defs
     id="defs6" /><path
     d="M 230.45,531.13 C 156.13,477.21 105.19,409.11 74.71,322.97 47.07,244.87 35.98,150.22 40.8,33.62 l 0.02,-0.46 379.82,0 0.02,0.46 c 4.81,116.6 -6.28,211.24 -33.91,289.35 -30.48,86.14 -81.42,154.24 -155.74,208.16 l -0.28,0.2 -0.28,-0.2 z"
     id="path8"
     style="fill:#e00e00;fill-opacity:1" /><path
     d="m 133.71945,51.482015 0,4.820145 c -7.1338,1.638845 -6.941,11.08633 0,13.303595 l -1.34965,76.833095 c -16.9669,2.02445 -26.7036,14.1712 -28.24603,27.4748 -0.86763,7.71225 0.57842,16.5813 3.18128,22.5583 2.6993,6.1698 -1.63885,6.07335 -2.31365,8.77265 -0.48202,1.83165 1.06041,1.92805 2.12085,1.54245 7.2302,-2.6029 8.38705,9.06185 8.48345,15.23165 0.1928,17.2561 -8.29065,25.73955 -12.82157,21.69065 -1.44604,-1.34965 -3.374105,0 -2.795685,2.8921 0.192805,0.964 2.506475,2.50645 1.542445,5.88055 -3.66331,13.4 -6.6518,17.25615 -6.169785,28.63165 0.482015,11.56835 4.820145,20.91945 14.846045,29.9813 6.459,5.7842 17.2561,7.42305 29.4029,7.42305 12.14675,0 22.94385,-1.63885 29.40285,-7.42305 10.0259,-9.06185 14.36405,-18.41295 14.84605,-29.9813 0.482,-11.3755 -2.41007,-15.13525 -6.1698,-28.63165 -0.964,-3.3741 1.34965,-4.91655 1.54245,-5.88055 0.57845,-2.8921 -1.25325,-4.24175 -2.79566,-2.8921 -4.53094,4.0489 -13.01439,-4.33815 -12.82159,-21.69065 0.0965,-6.2662 1.15685,-17.83455 8.48345,-15.23165 1.15685,0.3856 2.60285,0.2892 2.12085,-1.54245 -0.6748,-2.6993 -5.01295,-2.60285 -2.31365,-8.77265 2.60285,-5.977 4.0489,-14.84605 3.1813,-22.5583 -1.54245,-13.3036 -11.27915,-25.35395 -28.24605,-27.4748 L 145.4806,69.605755 c 6.941,-2.217265 7.1338,-11.66475 0,-13.303595 l 0,-4.820145 c -3.8561,0 -7.80865,0 -11.76115,0 z"
     style="fill:#aa0000;fill-opacity:1;stroke:none"
     id="path4347" /><path
     d="m 315.41945,51.482015 0,4.820145 c -7.1338,1.638845 -6.941,11.08633 0,13.303595 l -1.34965,76.833095 c -16.9669,2.02445 -26.7036,14.1712 -28.24605,27.4748 -0.8676,7.71225 0.57845,16.5813 3.1813,22.5583 2.6993,6.1698 -1.63885,6.07335 -2.31365,8.77265 -0.482,1.83165 1.06041,1.92805 2.12085,1.54245 7.2302,-2.6029 8.38705,9.06185 8.48345,15.23165 0.1928,17.2561 -8.29065,25.73955 -12.82155,21.69065 -1.44605,-1.34965 -3.3741,0 -2.7957,2.8921 0.1928,0.964 2.50645,2.50645 1.54245,5.88055 -3.6633,13.4 -6.6518,17.25615 -6.1698,28.63165 0.482,11.56835 4.82015,20.91945 14.84605,29.9813 6.459,5.7842 17.2561,7.42305 29.4029,7.42305 12.14675,0 22.94385,-1.63885 29.40285,-7.42305 10.0259,-9.06185 14.36405,-18.41295 14.84605,-29.9813 0.482,-11.3755 -2.41007,-15.13525 -6.1698,-28.63165 -0.964,-3.3741 1.34965,-4.91655 1.54245,-5.88055 0.57845,-2.8921 -1.25325,-4.24175 -2.79567,-2.8921 -4.53093,4.0489 -13.01438,-4.33815 -12.82158,-21.69065 0.0965,-6.2662 1.15685,-17.83455 8.48345,-15.23165 1.15685,0.3856 2.60285,0.2892 2.12085,-1.54245 -0.6748,-2.6993 -5.01295,-2.60285 -2.31365,-8.77265 2.60285,-5.977 4.0489,-14.84605 3.1813,-22.5583 -1.54245,-13.3036 -11.27915,-25.35395 -28.24605,-27.4748 L 327.277,69.70216 c 6.941,-2.21727 7.1338,-11.66475 0,-13.3036 l 0,-4.916545 c -3.9525,0 -7.90505,0 -11.85755,0 z"
     style="fill:#ff0000;fill-opacity:1;stroke:none"
     id="path4377" /><path
     d="M 419.96,33.21 C 429.03,252.66 383.71,419.16 230.51,530.31 146.04,469.02 94.36,390.9 66.52,296.34 64.43,289.25 62.48,282.07 60.65,274.8 49.2,229.11 42.88,179.78 40.77,126.86 39.57,96.8 39.72,65.58 41.06,33.21 l 189.45,0 189.45,0 m 0.92,-0.95 -0.92,0 -189.45,0 -189.45,0 -0.92,0 -0.04,0.92 c -4.82,116.66 6.28,211.36 33.93,289.52 30.51,86.24 81.51,154.41 155.91,208.39 l 0.56,0.41 0.56,-0.41 C 305.46,477.11 356.46,408.94 386.97,322.7 414.62,244.54 425.72,149.84 420.9,33.18 l -0.04,-0.92 0,0 z"
     id="path10" /><path
     d="m 227.51075,217.22361 -7.94361,-0.003 c -0.55497,1.6006 -2.2727,2.54925 -3.83077,2.15353 -1.62425,-0.4096 -2.53596,-1.85772 -2.59935,-2.9749 -0.10154,-1.70889 1.23449,-3.71625 3.44835,-3.56973 0.96136,0.0632 2.39239,0.8015 2.91428,1.96758 l 7.91317,-0.0459"
     id="path4650"
     style="fill:#ffe000;fill-opacity:1;fill-rule:evenodd;stroke:#000000;stroke-width:1.05643237;stroke-miterlimit:4;stroke-dasharray:none" /><path
     style="fill:#ffe000;fill-opacity:1;fill-rule:evenodd;stroke:#000000;stroke-width:1.05643237;stroke-miterlimit:4;stroke-dasharray:none"
     id="path4675"
     d="m 227.51075,229.90081 -7.94361,-0.003 c -0.55497,1.6006 -2.2727,2.54924 -3.83077,2.15353 -1.62425,-0.4096 -2.53596,-1.85772 -2.59935,-2.9749 -0.10154,-1.70889 1.23449,-3.71623 3.44835,-3.56973 0.96136,0.0632 2.39239,0.80152 2.91428,1.96758 l 7.91317,-0.0459" /><path
     d="m 227.51075,242.578 -7.94361,-0.003 c -0.55497,1.6006 -2.2727,2.54925 -3.83077,2.1536 -1.62425,-0.40962 -2.53596,-1.85774 -2.59935,-2.97492 -0.10154,-1.70887 1.23449,-3.71623 3.44835,-3.56971 0.96136,0.0632 2.39239,0.8015 2.91428,1.96758 l 7.91317,-0.0459"
     id="path4677"
     style="fill:#ffe000;fill-opacity:1;fill-rule:evenodd;stroke:#000000;stroke-width:1.05643237;stroke-miterlimit:4;stroke-dasharray:none" /><path
     style="fill:#ffe000;fill-opacity:1;fill-rule:evenodd;stroke:#000000;stroke-width:1.0564326;stroke-miterlimit:4;stroke-dasharray:none"
     id="path4679"
     d="m 232.93502,259.11129 7.94356,-0.003 c 0.55497,1.6006 2.27275,2.54923 3.83082,2.15353 1.62418,-0.40962 2.53596,-1.85774 2.5993,-2.97492 0.10154,-1.70887 -1.23444,-3.71623 -3.4483,-3.56971 -0.96141,0.0632 -2.39239,0.8015 -2.91433,1.96758 l -7.91312,-0.0459" /><path
     d="m 232.93502,246.43415 7.94356,-0.003 c 0.55497,1.6006 2.27275,2.54923 3.83082,2.15353 1.62418,-0.40962 2.53596,-1.85774 2.5993,-2.97492 0.10154,-1.70887 -1.23444,-3.71623 -3.4483,-3.56971 -0.96141,0.0632 -2.39239,0.8015 -2.91433,1.96758 l -7.91312,-0.0459"
     id="path4681"
     style="fill:#ffe000;fill-opacity:1;fill-rule:evenodd;stroke:#000000;stroke-width:1.0564326;stroke-miterlimit:4;stroke-dasharray:none" /><path
     style="fill:#ffe000;fill-opacity:1;fill-rule:evenodd;stroke:#000000;stroke-width:1.0564326;stroke-miterlimit:4;stroke-dasharray:none"
     id="path4683"
     d="m 232.93502,233.75696 7.94356,-0.003 c 0.55497,1.6006 2.27275,2.54925 3.83082,2.15355 1.62418,-0.40962 2.53596,-1.85774 2.5993,-2.97492 0.10154,-1.70887 -1.23444,-3.71623 -3.4483,-3.56973 -0.96141,0.0632 -2.39239,0.80152 -2.91433,1.96758 l -7.91312,-0.0459" /><path
     d="m 232.93502,221.07976 7.94356,-0.003 c 0.55497,1.6006 2.27275,2.54925 3.83082,2.15353 1.62418,-0.4096 2.53596,-1.8577 2.5993,-2.9749 0.10154,-1.70889 -1.23444,-3.71625 -3.4483,-3.56973 -0.96141,0.0632 -2.39239,0.8015 -2.91433,1.96758 l -7.91312,-0.0459"
     id="path4685"
     style="fill:#ffe000;fill-opacity:1;fill-rule:evenodd;stroke:#000000;stroke-width:1.0564326;stroke-miterlimit:4;stroke-dasharray:none" /><path
     style="fill:#ffe000;fill-opacity:1;fill-rule:evenodd;stroke:#000000;stroke-width:1.05643237;stroke-miterlimit:4;stroke-dasharray:none"
     id="path4687"
     d="m 227.51075,255.25519 -7.94361,-0.003 c -0.55497,1.6006 -2.2727,2.54925 -3.83077,2.1536 -1.62425,-0.4096 -2.53596,-1.85774 -2.59935,-2.9749 -0.10154,-1.70894 1.23449,-3.7163 3.44835,-3.56973 0.96136,0.0632 2.39239,0.8015 2.91428,1.96758 l 7.91317,-0.0459" /><path
     d="m 224.61945,195.482 0,4.82015 c -7.1338,1.63885 -6.941,11.08635 0,13.3036 l -1.34965,76.8331 c -16.9669,2.02445 -26.7036,14.1712 -28.24605,27.4748 -0.8676,7.71225 0.57845,16.5813 3.1813,22.5583 2.6993,6.1698 -1.63885,6.07335 -2.31365,8.77265 -0.482,1.83165 1.06041,1.92805 2.12085,1.54245 7.2302,-2.6029 8.38705,9.06185 8.48345,15.23165 0.1928,17.2561 -8.29065,25.73955 -12.82155,21.69065 -1.44605,-1.34965 -3.3741,0 -2.7957,2.8921 0.1928,0.964 2.50645,2.50645 1.54245,5.88055 -3.6633,13.4 -6.6518,17.25615 -6.1698,28.63165 0.482,11.56835 4.82015,20.91945 14.84605,29.9813 6.459,5.7842 17.2561,7.42305 29.4029,7.42305 12.14675,0 22.94385,-1.63885 29.40285,-7.42305 10.0259,-9.06185 14.36405,-18.41295 14.84605,-29.9813 0.482,-11.3755 -2.41007,-15.13525 -6.1698,-28.63165 -0.964,-3.3741 1.34965,-4.91655 1.54245,-5.88055 0.57845,-2.8921 -1.25325,-4.24175 -2.79566,-2.8921 -4.53094,4.0489 -13.01439,-4.33815 -12.82159,-21.69065 0.0965,-6.2662 1.15685,-17.83455 8.48345,-15.23165 1.15685,0.3856 2.60285,0.2892 2.12085,-1.54245 -0.6748,-2.6993 -5.01295,-2.60285 -2.31365,-8.77265 2.60285,-5.977 4.0489,-14.84605 3.1813,-22.5583 -1.54245,-13.3036 -11.27915,-25.35395 -28.24605,-27.4748 l -1.34965,-76.8331 c 6.941,-2.21725 7.1338,-11.66475 0,-13.3036 l 0,-4.82015 c -3.9525,0 -7.90505,0 -11.85755,0 z"
     style="fill:#ffe000;fill-opacity:1;stroke:#000000;stroke-width:0.96402889;stroke-opacity:1"
     id="path4317" /><path
     d="m 217.58205,365.8259 c 2.31365,1.15685 -0.86765,2.02445 0.1928,4.0489 0.7712,1.54245 3.8561,1.63885 3.6633,-1.63885 -0.0965,-1.92805 -1.25325,-4.1453 -3.9525,-4.2417 -7.32665,-0.2892 -7.42305,10.7971 -7.90505,19.28055 -0.6748,14.26765 -2.6993,16.8705 -4.24173,17.93095 -2.21727,1.63885 -5.49497,-2.21725 -3.95252,-2.9885 0.5784,-0.3856 1.44605,-1.0604 1.15685,-2.60285 -0.2892,-1.83165 -4.72375,-2.6993 -4.91655,1.92805 -0.0965,2.60285 2.21725,5.10935 5.59135,5.39855 3.5669,0.2892 6.459,-3.5669 7.51945,-8.67625 1.0604,-4.72375 1.2532,-7.80865 1.44605,-11.66475 0.482,-8.09785 0.8676,-10.98995 1.1568,-13.0144 0.48205,-3.3741 2.6993,-4.5309 4.04895,-3.8561 z"
     style="fill:#e00e00;fill-opacity:1;stroke:#000000;stroke-width:0.96402889;stroke-opacity:1"
     id="path4319" /><path
     d="m 243.418,365.8259 c -2.31365,1.15685 0.86765,2.02445 -0.1928,4.0489 -0.7712,1.54245 -3.8561,1.63885 -3.6633,-1.63885 0.0965,-1.92805 1.25325,-4.1453 3.9525,-4.2417 7.32665,-0.2892 7.42305,10.7971 7.90505,19.28055 0.6748,14.26765 2.6993,16.8705 4.24175,17.93095 2.21725,1.63885 5.49495,-2.21725 3.9525,-2.9885 -0.5784,-0.3856 -1.44605,-1.0604 -1.15685,-2.60285 0.2892,-1.83165 4.72375,-2.6993 4.91655,1.92805 0.0965,2.60285 -2.21725,5.10935 -5.59135,5.39855 -3.5669,0.2892 -6.459,-3.5669 -7.51945,-8.67625 -1.0604,-4.72375 -1.2532,-7.80865 -1.44605,-11.66475 -0.482,-8.09785 -0.8676,-10.98995 -1.1568,-13.0144 -0.48205,-3.3741 -2.6993,-4.5309 -4.04895,-3.8561 z"
     style="fill:#e00e00;fill-opacity:1;stroke:#000000;stroke-width:0.96402889;stroke-opacity:1"
     id="path4321" /><path
     style="fill:#ffe000;fill-opacity:1;fill-rule:evenodd;stroke:#000000;stroke-width:1.05643249;stroke-miterlimit:4;stroke-dasharray:none"
     id="path4705"
     d="m 136.61075,73.223643 -7.94361,-0.0032 c -0.55497,1.600599 -2.2727,2.549245 -3.83077,2.153558 -1.62425,-0.409611 -2.53596,-1.857724 -2.59935,-2.974913 -0.10154,-1.708897 1.23449,-3.716256 3.44835,-3.569728 0.96136,0.06295 2.39239,0.801515 2.91428,1.967584 l 7.91318,-0.04586" /><path
     d="m 136.61075,85.900832 -7.94361,-0.0032 c -0.55497,1.6006 -2.2727,2.549245 -3.83077,2.153559 -1.62425,-0.409612 -2.53596,-1.857725 -2.59935,-2.974913 -0.10154,-1.708896 1.23449,-3.716256 3.44835,-3.569727 0.96136,0.06295 2.39239,0.801514 2.91428,1.967583 l 7.91318,-0.04587"
     id="path4707"
     style="fill:#ffe000;fill-opacity:1;fill-rule:evenodd;stroke:#000000;stroke-width:1.05643249;stroke-miterlimit:4;stroke-dasharray:none" /><path
     style="fill:#ffe000;fill-opacity:1;fill-rule:evenodd;stroke:#000000;stroke-width:1.05643249;stroke-miterlimit:4;stroke-dasharray:none"
     id="path4709"
     d="m 136.61075,98.57802 -7.94361,-0.0032 c -0.55497,1.6006 -2.2727,2.54925 -3.83077,2.15355 -1.62425,-0.4096 -2.53596,-1.857717 -2.59935,-2.974905 -0.10154,-1.708896 1.23449,-3.716255 3.44835,-3.569728 0.96136,0.06295 2.39239,0.801515 2.91428,1.967584 l 7.91318,-0.04586" /><path
     d="m 142.03502,115.11129 7.94356,-0.003 c 0.55497,1.6006 2.27275,2.54923 3.83082,2.15353 1.62418,-0.40962 2.53596,-1.85774 2.5993,-2.97492 0.10154,-1.70887 -1.23444,-3.71623 -3.4483,-3.56971 -0.96141,0.0632 -2.39239,0.8015 -2.91433,1.96758 l -7.91312,-0.0459"
     id="path4711"
     style="fill:#ffe000;fill-opacity:1;fill-rule:evenodd;stroke:#000000;stroke-width:1.05643249;stroke-miterlimit:4;stroke-dasharray:none" /><path
     style="fill:#ffe000;fill-opacity:1;fill-rule:evenodd;stroke:#000000;stroke-width:1.05643249;stroke-miterlimit:4;stroke-dasharray:none"
     id="path4713"
     d="m 142.03502,102.43414 7.94356,-0.003 c 0.55497,1.60061 2.27275,2.54924 3.83082,2.15354 1.62418,-0.40961 2.53596,-1.85774 2.5993,-2.97491 0.10154,-1.708894 -1.23444,-3.716252 -3.4483,-3.569725 -0.96141,0.06295 -2.39239,0.801514 -2.91433,1.967585 l -7.91312,-0.04587" /><path
     d="m 142.03502,89.756944 7.94356,-0.0032 c 0.55497,1.6006 2.27275,2.549244 3.83082,2.153558 1.62418,-0.409612 2.53596,-1.857726 2.5993,-2.974913 0.10154,-1.708897 -1.23444,-3.716256 -3.4483,-3.569728 -0.96141,0.06295 -2.39239,0.801515 -2.91433,1.967584 l -7.91312,-0.04587"
     id="path4715"
     style="fill:#ffe000;fill-opacity:1;fill-rule:evenodd;stroke:#000000;stroke-width:1.05643249;stroke-miterlimit:4;stroke-dasharray:none" /><path
     style="fill:#ffe000;fill-opacity:1;fill-rule:evenodd;stroke:#000000;stroke-width:1.05643249;stroke-miterlimit:4;stroke-dasharray:none"
     id="path4717"
     d="m 142.03502,77.079756 7.94356,-0.0032 c 0.55497,1.600601 2.27275,2.549246 3.83082,2.15356 1.62418,-0.409612 2.53596,-1.857726 2.5993,-2.974914 0.10154,-1.708896 -1.23444,-3.716256 -3.4483,-3.569728 -0.96141,0.06295 -2.39239,0.801516 -2.91433,1.967584 l -7.91312,-0.04587" /><path
     d="m 136.61075,111.2552 -7.94361,-0.003 c -0.55497,1.6006 -2.2727,2.54925 -3.83077,2.1536 -1.62425,-0.40963 -2.53596,-1.85774 -2.59935,-2.97491 -0.10154,-1.70893 1.23449,-3.71629 3.44835,-3.56972 0.96136,0.0631 2.39239,0.8015 2.91428,1.96758 l 7.91318,-0.0459"
     id="path4719"
     style="fill:#ffe000;fill-opacity:1;fill-rule:evenodd;stroke:#000000;stroke-width:1.05643249;stroke-miterlimit:4;stroke-dasharray:none" /><path
     id="path4721"
     style="fill:#ffe000;fill-opacity:1;stroke:#000000;stroke-width:0.96402889;stroke-opacity:1"
     d="m 133.71945,51.482015 0,4.820145 c -7.1338,1.638845 -6.941,11.08633 0,13.303595 l -1.34965,76.833095 c -16.9669,2.02445 -26.7036,14.1712 -28.24603,27.4748 -0.86763,7.71225 0.57842,16.5813 3.18128,22.5583 2.6993,6.1698 -1.63885,6.07335 -2.31365,8.77265 -0.48202,1.83165 1.06041,1.92805 2.12085,1.54245 7.2302,-2.6029 8.38705,9.06185 8.48345,15.23165 0.1928,17.2561 -8.29065,25.73955 -12.82157,21.69065 -1.44604,-1.34965 -3.374105,0 -2.795685,2.8921 0.192805,0.964 2.506475,2.50645 1.542445,5.88055 -3.66331,13.4 -6.6518,17.25615 -6.169785,28.63165 0.482015,11.56835 4.820145,20.91945 14.846045,29.9813 6.459,5.7842 17.2561,7.42305 29.4029,7.42305 12.14675,0 22.94385,-1.63885 29.40285,-7.42305 10.0259,-9.06185 14.36405,-18.41295 14.84605,-29.9813 0.482,-11.3755 -2.41007,-15.13525 -6.1698,-28.63165 -0.964,-3.3741 1.34965,-4.91655 1.54245,-5.88055 0.57845,-2.8921 -1.25325,-4.24175 -2.79566,-2.8921 -4.53094,4.0489 -13.01439,-4.33815 -12.82159,-21.69065 0.0965,-6.2662 1.15685,-17.83455 8.48345,-15.23165 1.15685,0.3856 2.60285,0.2892 2.12085,-1.54245 -0.6748,-2.6993 -5.01295,-2.60285 -2.31365,-8.77265 2.60285,-5.977 4.0489,-14.84605 3.1813,-22.5583 -1.54245,-13.3036 -11.27915,-25.35395 -28.24605,-27.4748 L 145.4806,69.605755 c 6.941,-2.217265 7.1338,-11.66475 0,-13.303595 l 0,-4.820145 c -3.9525,0 -7.90505,0 -11.85755,0 z" /><path
     id="path4723"
     style="fill:#e00e00;fill-opacity:1;stroke:#000000;stroke-width:0.96402889;stroke-opacity:1"
     d="m 126.68205,221.8259 c 2.31365,1.15685 -0.86765,2.02445 0.1928,4.0489 0.7712,1.54245 3.8561,1.63885 3.6633,-1.63885 -0.0965,-1.92805 -1.25325,-4.1453 -3.9525,-4.2417 -7.32665,-0.2892 -7.42305,10.7971 -7.90505,19.28055 -0.6748,14.26765 -2.6993,16.8705 -4.24173,17.93095 -2.21727,1.63885 -5.49497,-2.21725 -3.95252,-2.9885 0.5784,-0.3856 1.44605,-1.0604 1.15685,-2.60285 -0.2892,-1.83165 -4.72375,-2.6993 -4.91655,1.92805 -0.0965,2.60285 2.21725,5.10935 5.59135,5.39855 3.5669,0.2892 6.459,-3.5669 7.51945,-8.67625 1.0604,-4.72375 1.2532,-7.80865 1.44605,-11.66475 0.482,-8.09785 0.8676,-10.98995 1.1568,-13.0144 0.48205,-3.3741 2.6993,-4.5309 4.04895,-3.8561 z" /><path
     id="path4725"
     style="fill:#e00e00;fill-opacity:1;stroke:#000000;stroke-width:0.96402889;stroke-opacity:1"
     d="m 152.518,221.8259 c -2.31365,1.15685 0.86765,2.02445 -0.1928,4.0489 -0.7712,1.54245 -3.8561,1.63885 -3.6633,-1.63885 0.0965,-1.92805 1.25325,-4.1453 3.9525,-4.2417 7.32665,-0.2892 7.42305,10.7971 7.90505,19.28055 0.6748,14.26765 2.6993,16.8705 4.24175,17.93095 2.21725,1.63885 5.49495,-2.21725 3.9525,-2.9885 -0.5784,-0.3856 -1.44605,-1.0604 -1.15685,-2.60285 0.2892,-1.83165 4.72375,-2.6993 4.91655,1.92805 0.0965,2.60285 -2.21725,5.10935 -5.59135,5.39855 -3.5669,0.2892 -6.459,-3.5669 -7.51945,-8.67625 -1.0604,-4.72375 -1.2532,-7.80865 -1.44605,-11.66475 -0.482,-8.09785 -0.8676,-10.98995 -1.1568,-13.0144 -0.48205,-3.3741 -2.6993,-4.5309 -4.04895,-3.8561 z" /><path
     d="m 318.31075,73.22364 -7.94361,-0.0032 c -0.55497,1.600601 -2.2727,2.549245 -3.83077,2.15356 -1.62425,-0.409612 -2.53596,-1.857726 -2.59935,-2.974915 -0.10154,-1.708896 1.23449,-3.716255 3.44835,-3.569727 0.96136,0.06295 2.39239,0.801515 2.91428,1.967583 l 7.91317,-0.04587"
     id="path4743"
     style="fill:#ffe000;fill-opacity:1;fill-rule:evenodd;stroke:#000000;stroke-width:1.05643237;stroke-miterlimit:4;stroke-dasharray:none" /><path
     style="fill:#ffe000;fill-opacity:1;fill-rule:evenodd;stroke:#000000;stroke-width:1.05643237;stroke-miterlimit:4;stroke-dasharray:none"
     id="path4745"
     d="m 318.31075,85.900827 -7.94361,-0.0032 c -0.55497,1.6006 -2.2727,2.549245 -3.83077,2.153559 -1.62425,-0.409612 -2.53596,-1.857725 -2.59935,-2.974913 -0.10154,-1.708896 1.23449,-3.716255 3.44835,-3.569727 0.96136,0.06295 2.39239,0.801514 2.91428,1.967583 l 7.91317,-0.04587" /><path
     d="m 318.31075,98.578014 -7.94361,-0.0032 c -0.55497,1.600596 -2.2727,2.549246 -3.83077,2.153546 -1.62425,-0.4096 -2.53596,-1.857713 -2.59935,-2.974901 -0.10154,-1.708895 1.23449,-3.716254 3.44835,-3.569726 0.96136,0.06295 2.39239,0.801514 2.91428,1.967582 l 7.91317,-0.04587"
     id="path4747"
     style="fill:#ffe000;fill-opacity:1;fill-rule:evenodd;stroke:#000000;stroke-width:1.05643237;stroke-miterlimit:4;stroke-dasharray:none" /><path
     style="fill:#ffe000;fill-opacity:1;fill-rule:evenodd;stroke:#000000;stroke-width:1.05643249;stroke-miterlimit:4;stroke-dasharray:none"
     id="path4749"
     d="m 323.73502,115.11129 7.94356,-0.003 c 0.55497,1.6006 2.27275,2.54923 3.83082,2.15353 1.62418,-0.40962 2.53596,-1.85774 2.5993,-2.97492 0.10154,-1.70887 -1.23444,-3.71623 -3.4483,-3.56971 -0.96141,0.0632 -2.39239,0.8015 -2.91433,1.96758 l -7.91312,-0.0459" /><path
     d="m 323.73502,102.43414 7.94356,-0.003 c 0.55497,1.60061 2.27275,2.54924 3.83082,2.15354 1.62418,-0.40961 2.53596,-1.85774 2.5993,-2.97491 0.10154,-1.708894 -1.23444,-3.716252 -3.4483,-3.569725 -0.96141,0.06295 -2.39239,0.801514 -2.91433,1.967585 l -7.91312,-0.04587"
     id="path4751"
     style="fill:#ffe000;fill-opacity:1;fill-rule:evenodd;stroke:#000000;stroke-width:1.05643249;stroke-miterlimit:4;stroke-dasharray:none" /><path
     style="fill:#ffe000;fill-opacity:1;fill-rule:evenodd;stroke:#000000;stroke-width:1.05643249;stroke-miterlimit:4;stroke-dasharray:none"
     id="path4753"
     d="m 323.73502,89.756944 7.94356,-0.0032 c 0.55497,1.6006 2.27275,2.549244 3.83082,2.153558 1.62418,-0.409612 2.53596,-1.857726 2.5993,-2.974913 0.10154,-1.708897 -1.23444,-3.716256 -3.4483,-3.569728 -0.96141,0.06295 -2.39239,0.801515 -2.91433,1.967584 l -7.91312,-0.04587" /><path
     d="m 323.73502,77.079756 7.94356,-0.0032 c 0.55497,1.600601 2.27275,2.549246 3.83082,2.15356 1.62418,-0.409612 2.53596,-1.857726 2.5993,-2.974914 0.10154,-1.708896 -1.23444,-3.716256 -3.4483,-3.569728 -0.96141,0.06295 -2.39239,0.801516 -2.91433,1.967584 l -7.91312,-0.04587"
     id="path4755"
     style="fill:#ffe000;fill-opacity:1;fill-rule:evenodd;stroke:#000000;stroke-width:1.05643249;stroke-miterlimit:4;stroke-dasharray:none" /><path
     style="fill:#ffe000;fill-opacity:1;fill-rule:evenodd;stroke:#000000;stroke-width:1.05643237;stroke-miterlimit:4;stroke-dasharray:none"
     id="path4757"
     d="m 318.31075,111.25519 -7.94361,-0.003 c -0.55497,1.6006 -2.2727,2.54925 -3.83077,2.1536 -1.62425,-0.4096 -2.53596,-1.85774 -2.59935,-2.97491 -0.10154,-1.70893 1.23449,-3.71629 3.44835,-3.56972 0.96136,0.0632 2.39239,0.8015 2.91428,1.96758 l 7.91317,-0.0459" /><path
     d="m 315.41945,51.482015 0,4.820145 c -7.1338,1.638845 -6.941,11.08633 0,13.303595 l -1.34965,76.833095 c -16.9669,2.02445 -26.7036,14.1712 -28.24605,27.4748 -0.8676,7.71225 0.57845,16.5813 3.1813,22.5583 2.6993,6.1698 -1.63885,6.07335 -2.31365,8.77265 -0.482,1.83165 1.06041,1.92805 2.12085,1.54245 7.2302,-2.6029 8.38705,9.06185 8.48345,15.23165 0.1928,17.2561 -8.29065,25.73955 -12.82155,21.69065 -1.44605,-1.34965 -3.3741,0 -2.7957,2.8921 0.1928,0.964 2.50645,2.50645 1.54245,5.88055 -3.6633,13.4 -6.6518,17.25615 -6.1698,28.63165 0.482,11.56835 4.82015,20.91945 14.84605,29.9813 6.459,5.7842 17.2561,7.42305 29.4029,7.42305 12.14675,0 22.94385,-1.63885 29.40285,-7.42305 10.0259,-9.06185 14.36405,-18.41295 14.84605,-29.9813 0.482,-11.3755 -2.41007,-15.13525 -6.1698,-28.63165 -0.964,-3.3741 1.34965,-4.91655 1.54245,-5.88055 0.57845,-2.8921 -1.25325,-4.24175 -2.79567,-2.8921 -4.53093,4.0489 -13.01438,-4.33815 -12.82158,-21.69065 0.0965,-6.2662 1.15685,-17.83455 8.48345,-15.23165 1.15685,0.3856 2.60285,0.2892 2.12085,-1.54245 -0.6748,-2.6993 -5.01295,-2.60285 -2.31365,-8.77265 2.60285,-5.977 4.0489,-14.84605 3.1813,-22.5583 -1.54245,-13.3036 -11.27915,-25.35395 -28.24605,-27.4748 L 327.1806,69.605755 c 6.941,-2.217265 7.1338,-11.66475 0,-13.303595 l 0,-4.820145 c -3.9525,0 -7.90505,0 -11.85755,0 z"
     style="fill:#ffe000;fill-opacity:1;stroke:#000000;stroke-width:0.96402889;stroke-opacity:1"
     id="path4759" /><path
     d="m 308.38205,221.8259 c 2.31365,1.15685 -0.86765,2.02445 0.1928,4.0489 0.7712,1.54245 3.8561,1.63885 3.6633,-1.63885 -0.0965,-1.92805 -1.25325,-4.1453 -3.9525,-4.2417 -7.32665,-0.2892 -7.42305,10.7971 -7.90505,19.28055 -0.6748,14.26765 -2.6993,16.8705 -4.24173,17.93095 -2.21727,1.63885 -5.49497,-2.21725 -3.95252,-2.9885 0.5784,-0.3856 1.44605,-1.0604 1.15685,-2.60285 -0.2892,-1.83165 -4.72375,-2.6993 -4.91655,1.92805 -0.0965,2.60285 2.21725,5.10935 5.59135,5.39855 3.5669,0.2892 6.459,-3.5669 7.51945,-8.67625 1.0604,-4.72375 1.2532,-7.80865 1.44605,-11.66475 0.482,-8.09785 0.8676,-10.98995 1.1568,-13.0144 0.48205,-3.3741 2.6993,-4.5309 4.04895,-3.8561 z"
     style="fill:#e00e00;fill-opacity:1;stroke:#000000;stroke-width:0.96402889;stroke-opacity:1"
     id="path4761" /><path
     d="m 334.218,221.8259 c -2.31365,1.15685 0.86765,2.02445 -0.1928,4.0489 -0.7712,1.54245 -3.8561,1.63885 -3.6633,-1.63885 0.0965,-1.92805 1.25325,-4.1453 3.9525,-4.2417 7.32665,-0.2892 7.42305,10.7971 7.90505,19.28055 0.6748,14.26765 2.6993,16.8705 4.24175,17.93095 2.21725,1.63885 5.49495,-2.21725 3.9525,-2.9885 -0.5784,-0.3856 -1.44605,-1.0604 -1.15685,-2.60285 0.2892,-1.83165 4.72375,-2.6993 4.91655,1.92805 0.0965,2.60285 -2.21725,5.10935 -5.59135,5.39855 -3.5669,0.2892 -6.459,-3.5669 -7.51945,-8.67625 -1.0604,-4.72375 -1.2532,-7.80865 -1.44605,-11.66475 -0.482,-8.09785 -0.8676,-10.98995 -1.1568,-13.0144 -0.48205,-3.3741 -2.6993,-4.5309 -4.04895,-3.8561 z"
     style="fill:#e00e00;fill-opacity:1;stroke:#000000;stroke-width:0.96402889;stroke-opacity:1"
     id="path4763" /></svg>