<?xml version="1.0" encoding="UTF-8" standalone="no"?>
<svg
   xmlns:dc="http://purl.org/dc/elements/1.1/"
   xmlns:cc="http://creativecommons.org/ns#"
   xmlns:rdf="http://www.w3.org/1999/02/22-rdf-syntax-ns#"
   xmlns:svg="http://www.w3.org/2000/svg"
   xmlns="http://www.w3.org/2000/svg"
   id="svg2"
   version="1.1"
   x="0"
   y="0"
   width="400"
   height="500"
   viewBox="30.5 31.5 400 500"
   enable-background="new 30.5 31.5 412 533"
   xml:space="preserve"><metadata
     id="metadata4"><rdf:RDF><cc:Work
         rdf:about=""><dc:format>
          
          
          
          image/svg+xml
        
        
        
        </dc:format><dc:type
           rdf:resource="http://purl.org/dc/dcmitype/StillImage" /><dc:title></dc:title></cc:Work></rdf:RDF></metadata><defs
     id="defs6" /><path
     fill="#0085ca"
     id="path8"
     d="M230.44 531.14C156.12 477.22 105.18 409.12 74.7 322.98 47.06 244.88 35.97 150.23 40.79 33.63l0.02-0.46 379.82 0 0.02 0.46c4.81 116.6-6.28 211.24-33.91 289.35C356.26 409.12 305.32 477.22 231 531.14l-0.28 0.2-0.28-0.2z" /><path
     id="path10"
     d="M419.96 33.21C429.03 252.66 383.7 419.16 230.5 530.31 77.31 419.16 31.99 252.66 41.06 33.21l189.45 0 189.45 0m0.92-0.95-0.92 0-189.45 0-189.45 0-0.92 0-0.04 0.92c-4.82 116.66 6.28 211.36 33.93 289.52 30.51 86.24 81.51 154.41 155.91 208.39l0.56 0.41 0.56-0.41C305.46 477.11 356.46 408.94 386.97 322.7 414.62 244.54 425.72 149.84 420.9 33.18l-0.04-0.92 0 0z" /><path
     id="path4752"
     d="m 272.72985,241.89728 c 0.73802,-5.60452 9.17786,-9.49597 16.44835,-16.17078 2.55929,-2.3496 0.40497,-10.25217 -0.55067,-11.58523 -4.38906,-6.12251 -14.09792,-10.01073 -19.13777,-13.43947 -14.86455,-10.11273 -19.28623,-17.36738 -22.83495,-29.46943 l -12.03464,-41.04119 c -2.81062,-9.58493 -12.44451,-14.10914 -18.9777,-17.74338 8.77829,-7.23832 17.75014,-11.87476 27.00079,-11.72605 15.8063,0.2541 18.5441,13.94898 23.91498,23.76069 12.67945,23.16325 35.98384,20.06413 44.89845,21.60063 32.36897,5.57902 50.4015,33.58371 88.09971,49.68144 -3.61769,6.16823 -11.23044,7.81484 -19.74915,7.25164 -12.59865,-0.83295 -23.22556,-2.30474 -30.39517,3.54868 -9.23021,7.53574 -10.28492,19.33013 -12.18892,31.78378 -4.03646,10.62194 -10.39072,18.12353 -17.28051,17.74337 -0.0881,-2.59503 -0.14964,-4.56258 1.81405,-7.56797 -4.16584,2.20185 -6.58607,2.99301 -10.75191,2.42024 -0.0858,-4.01155 0.27173,-6.49569 3.57514,-10.17994 -2.31435,0.82985 -5.2833,0.6845 -7.59765,-0.10135 3.83038,-5.74789 8.35066,-6.96258 14.34899,-11.72606 2.03108,-1.61295 1.96138,-7.70177 0.59654,-8.94168 -2.20106,-1.99958 -10.49498,-2.02431 -13.36065,0.78302 -5.04188,4.93924 -4.85655,11.96825 -7.9515,20.07992 -2.37047,6.21287 -7.31302,11.24053 -12.91191,12.49082 -0.35731,-2.71188 -0.0119,-4.5662 0.79017,-6.98825 -2.6451,2.19849 -6.92021,4.06339 -11.75867,3.82143 -0.0649,-3.28056 1.46289,-8.04647 3.18233,-10.14733 -1.88043,1.05038 -3.61854,2.21937 -7.18773,1.86245"
     style="fill:#ffffff;fill-rule:evenodd;stroke:#000000;stroke-width:1px;stroke-linecap:round;stroke-linejoin:round;stroke-opacity:1" /><path
     id="path4754"
     d="m 232.5,108.6843 c 4.75533,-3.24836 8.58475,-1.72315 10.39868,-0.76369"
     style="fill:none;fill-rule:evenodd;stroke:#000000;stroke-width:1px;stroke-linecap:round;stroke-linejoin:miter;stroke-opacity:1" /><ellipse
     ry="1.55467"
     rx="2.1138058"
     cy="108.5752"
     cx="235.46625"
     id="path4756"
     style="opacity:1;fill:#000000;fill-opacity:1;fill-rule:evenodd;stroke:none;stroke-width:0.5;stroke-linecap:round;stroke-linejoin:round;stroke-miterlimit:4;stroke-dasharray:none;stroke-opacity:1" /><path
     style="fill:#ffffff;fill-rule:evenodd;stroke:#000000;stroke-width:1px;stroke-linecap:round;stroke-linejoin:round;stroke-opacity:1"
     d="m 117.22712,241.02448 c 0.73802,-5.60452 9.17786,-9.49597 16.44835,-16.17078 2.55929,-2.3496 0.40497,-10.25217 -0.55067,-11.58523 C 128.73574,207.14596 119.02688,203.25774 113.98703,199.829 99.12248,189.71627 94.7008,182.46162 91.152083,170.35957 l -12.03464,-41.04119 c -2.81062,-9.58493 -12.44451,-14.10914 -18.9777,-17.74338 8.77829,-7.23832 17.75014,-11.874757 27.00079,-11.726047 15.806297,0.254097 18.544097,13.948977 23.914977,23.760687 12.67945,23.16325 35.98384,20.06413 44.89845,21.60063 32.36897,5.57902 50.4015,33.58371 88.09971,49.68144 -3.61769,6.16823 -11.23044,7.81484 -19.74915,7.25164 -12.59865,-0.83295 -23.22556,-2.30474 -30.39517,3.54868 -9.23021,7.53574 -10.28492,19.33013 -12.18892,31.78378 -4.03646,10.62194 -10.39072,18.12353 -17.28051,17.74337 -0.0881,-2.59503 -0.14964,-4.56258 1.81405,-7.56797 -4.16584,2.20185 -6.58607,2.99301 -10.75191,2.42024 -0.0858,-4.01155 0.27173,-6.49569 3.57514,-10.17994 -2.31435,0.82985 -5.2833,0.6845 -7.59765,-0.10135 3.83038,-5.74789 8.35066,-6.96258 14.34899,-11.72606 2.03108,-1.61295 1.96138,-7.70177 0.59654,-8.94168 -2.20106,-1.99958 -10.49498,-2.02431 -13.36065,0.78302 -5.04188,4.93924 -4.85655,11.96825 -7.9515,20.07992 -2.37047,6.21287 -7.31302,11.24053 -12.91191,12.49082 -0.35731,-2.71188 -0.0119,-4.5662 0.79017,-6.98825 -2.6451,2.19849 -6.92021,4.06339 -11.75867,3.82143 -0.0649,-3.28056 1.46289,-8.04647 3.18233,-10.14733 -1.88043,1.05038 -3.61854,2.21937 -7.18773,1.86245"
     id="path4758" /><path
     style="fill:none;fill-rule:evenodd;stroke:#000000;stroke-width:1px;stroke-linecap:round;stroke-linejoin:miter;stroke-opacity:1"
     d="m 76.997273,107.8115 c 4.75533,-3.24836 8.58475,-1.72315 10.39868,-0.76369"
     id="path4760" /><ellipse
     style="opacity:1;fill:#000000;fill-opacity:1;fill-rule:evenodd;stroke:none;stroke-width:0.5;stroke-linecap:round;stroke-linejoin:round;stroke-miterlimit:4;stroke-dasharray:none;stroke-opacity:1"
     id="ellipse4762"
     cx="79.963524"
     cy="107.70241"
     rx="2.1138058"
     ry="1.55467" /><path
     id="path4764"
     d="m 193.41488,417.83833 c 0.73802,-5.60452 9.17786,-9.49597 16.44835,-16.17078 2.55929,-2.3496 0.40497,-10.25217 -0.55067,-11.58523 -4.38906,-6.12251 -14.09792,-10.01073 -19.13777,-13.43947 -14.86455,-10.11273 -19.28623,-17.36738 -22.83494,-29.46943 l -12.03464,-41.04119 c -2.81062,-9.58493 -12.44451,-14.10914 -18.9777,-17.74338 8.77829,-7.23832 17.75014,-11.87476 27.00079,-11.72605 15.80629,0.2541 18.54409,13.94898 23.91497,23.76069 12.67945,23.16325 35.98384,20.06413 44.89845,21.60063 32.36897,5.57902 50.4015,33.58371 88.09971,49.68144 -3.61769,6.16823 -11.23044,7.81484 -19.74915,7.25164 -12.59865,-0.83295 -23.22556,-2.30474 -30.39517,3.54868 -9.23021,7.53574 -10.28492,19.33013 -12.18892,31.78378 -4.03646,10.62194 -10.39072,18.12353 -17.28051,17.74337 -0.0881,-2.59503 -0.14964,-4.56258 1.81405,-7.56797 -4.16584,2.20185 -6.58607,2.99301 -10.75191,2.42024 -0.0858,-4.01155 0.27173,-6.49569 3.57514,-10.17994 -2.31435,0.82985 -5.2833,0.6845 -7.59765,-0.10135 3.83038,-5.74789 8.35066,-6.96258 14.34899,-11.72606 2.03108,-1.61295 1.96138,-7.70177 0.59654,-8.94168 -2.20106,-1.99958 -10.49498,-2.02431 -13.36065,0.78302 -5.04188,4.93924 -4.85655,11.96825 -7.9515,20.07992 -2.37047,6.21287 -7.31302,11.24053 -12.91191,12.49082 -0.35731,-2.71188 -0.0119,-4.5662 0.79017,-6.98825 -2.6451,2.19849 -6.92021,4.06339 -11.75867,3.82143 -0.0649,-3.28056 1.46289,-8.04647 3.18233,-10.14733 -1.88043,1.05038 -3.61854,2.21937 -7.18773,1.86245"
     style="fill:#ffffff;fill-rule:evenodd;stroke:#000000;stroke-width:1px;stroke-linecap:round;stroke-linejoin:round;stroke-opacity:1" /><path
     id="path4766"
     d="m 153.18504,284.62535 c 4.75533,-3.24836 8.58475,-1.72315 10.39868,-0.76369"
     style="fill:none;fill-rule:evenodd;stroke:#000000;stroke-width:1px;stroke-linecap:round;stroke-linejoin:miter;stroke-opacity:1" /><ellipse
     ry="1.55467"
     rx="2.1138058"
     cy="284.51627"
     cx="156.15129"
     id="ellipse4768"
     style="opacity:1;fill:#000000;fill-opacity:1;fill-rule:evenodd;stroke:none;stroke-width:0.5;stroke-linecap:round;stroke-linejoin:round;stroke-miterlimit:4;stroke-dasharray:none;stroke-opacity:1" /></svg>