<?xml version="1.0" encoding="UTF-8" standalone="no"?>
<svg
   xmlns:dc="http://purl.org/dc/elements/1.1/"
   xmlns:cc="http://creativecommons.org/ns#"
   xmlns:rdf="http://www.w3.org/1999/02/22-rdf-syntax-ns#"
   xmlns:svg="http://www.w3.org/2000/svg"
   xmlns="http://www.w3.org/2000/svg"
   xml:space="preserve"
   enable-background="new 30.5 31.5 412 533"
   viewBox="30.5 31.5 400 500"
   height="500"
   width="400"
   y="0"
   x="0"
   version="1.1"
   id="svg2"><metadata
     id="metadata4"><rdf:RDF><cc:Work
         rdf:about=""><dc:format>
          
          
          
          
          
          image/svg+xml
        
        
        
        
        
        </dc:format><dc:type
           rdf:resource="http://purl.org/dc/dcmitype/StillImage" /><dc:title></dc:title></cc:Work></rdf:RDF></metadata><defs
     id="defs6" /><path
     fill="#e00e00"
     id="path4148"
     d="M230.45 531.13C156.13 477.21 105.19 409.11 74.71 322.97 47.07 244.87 35.98 150.22 40.8 33.62l0.02-0.46 379.82 0 0.02 0.46c4.81 116.6-6.28 211.24-33.91 289.35-30.48 86.14-81.42 154.24-155.74 208.16l-0.28 0.2-0.28-0.2z"
     style="fill-opacity:1;fill:#32ac60" /><path
     d="M419.96 33.21C429.03 252.66 383.71 419.16 230.51 530.31 146.04 469.02 94.36 390.9 66.52 296.34 64.43 289.25 62.48 282.07 60.65 274.8 49.2 229.11 42.88 179.78 40.77 126.86 39.57 96.8 39.72 65.58 41.06 33.21l189.45 0 189.45 0m0.92-0.95-0.92 0-189.45 0-189.45 0-0.92 0-0.04 0.92c-4.82 116.66 6.28 211.36 33.93 289.52 30.51 86.24 81.51 154.41 155.91 208.39l0.56 0.41 0.56-0.41C305.46 477.11 356.46 408.94 386.97 322.7 414.62 244.54 425.72 149.84 420.9 33.18l-0.04-0.92 0 0z"
     id="path10" /><path
     style="fill:#000000;fill-rule:evenodd;stroke:none;stroke-width:0.25;stroke-linecap:butt;stroke-linejoin:miter;stroke-opacity:1"
     id="path3457"
     d="m 272.83767,360.30505 c -4.79847,9.85386 -11.53436,30.79501 -11.38321,38.39702 0.0866,4.35219 7.35615,15.21792 7.35615,15.21792 -3.86936,0.2334 -7.73869,0.32288 -11.60803,-2.902 1.56245,18.60904 2.49957,32.46383 1.6005,45.02067 -0.55996,7.82134 -9.02787,-2.62424 -13.30967,-2.77885 -13.05027,-0.47128 -18.0846,4.8812 -20.11782,9.65981 -0.58097,1.36538 -4.83716,1.70474 -4.49651,0.0312 0.79706,-3.9157 0.52993,-8.93929 -0.97865,-11.92621 -1.36637,-2.70538 -5.27814,-5.67313 -6.01252,-6.74776 -3.76135,-5.50405 -16.23161,-0.89119 -20.81969,1.36307 -0.18903,-3.4033 1.00021,-10.37302 15.56972,-16.75687 29.07132,-12.73812 33.50621,-17.09002 35.98487,-22.05527 6.73773,-13.49706 8.25442,-31.97021 9.98564,-49.65977" /><path
     style="fill:#000000;fill-rule:evenodd;stroke:none;stroke-width:0.25;stroke-linecap:butt;stroke-linejoin:miter;stroke-opacity:1"
     id="path3459"
     d="m 221.84932,341.87985 c -9.38916,11.53991 -19.99864,23.18944 -39.81553,23.61507 -23.9038,0.51342 -29.61533,-6.6021 -42.15166,-6.60207 -5.93745,0 -10.15057,1.92329 -7.56698,6.95758 4.21027,-0.33654 7.72559,0.6418 10.20781,3.0471 2.41033,2.33566 5.20368,8.241 5.0785,10.00468 -0.25069,3.53254 -6.41848,6.82163 -7.36383,9.09053 -0.89015,2.13635 -1.61827,7.83088 2.48847,5.48479 2.61614,-1.49455 5.24694,-1.98695 9.64916,-1.32042 4.20676,0.63693 14.49603,6.75717 14.32141,18.53658 -0.0628,4.22807 -1.585,7.4877 -0.55863,13.05178 10.54264,-11.18877 22.07168,-23.48285 30.62343,-41.23753 1.90667,2.37002 4.15103,6.64906 7.77012,6.80522 4.75453,-24.99524 19.13693,-35.69074 28.49045,-40.88204 -3.8838,-2.03077 -7.60045,-4.23699 -11.17272,-6.55127 z" /><path
     style="fill:#ffffff;fill-rule:evenodd;stroke:#000000;stroke-width:1;stroke-linecap:round;stroke-linejoin:round;stroke-miterlimit:4;stroke-dasharray:none;stroke-opacity:1"
     id="path3452"
     d="m 301.06686,142.16466 c -16.62505,34.19001 -35.45673,87.24777 -74.7267,88.51121 -9.28742,0.29881 -19.61428,-13.08936 -19.15323,-25.82784 1.3059,-36.08163 74.00117,-52.12069 74.00117,-103.02126 0,-14.94542 -15.59285,-47.883122 -40.62809,-47.883122 -8.3137,0 -17.05106,3.992909 -26.69847,6.309663 l 0.68154,28.142879 c 2.49634,3.61755 5.78343,7.60907 17.0207,7.04617 9.30615,-0.46616 24.80963,-1.54593 24.95726,14.94533 0.11511,12.86558 -34.41839,29.22025 -50.34981,44.54581 -17.40988,16.74779 -37.56613,39.95045 -38.82622,55.75511 -0.45643,5.72498 -1.3582,9.77096 -3.97839,10.26553 -6.55006,-5.32169 -8.47328,-11.61932 -8.70602,-25.97294 -0.2207,-13.61185 7.74287,-38.54855 4.06281,-43.6752 C 137.30092,121.46242 120.67558,90.83972 112.29132,51.476936 98.64457,56.981026 98.908101,74.172357 100.68327,92.83054 95.132661,89.85054 77.014301,66.436328 72.243605,57.71626 62.417423,73.881028 79.29409,98.38344 86.17324,105.01897 74.792936,102.50363 65.252922,95.51901 56.572778,86.44613 c -0.766635,14.96797 1.11529,30.89491 44.400712,61.81275 -13.833562,0.86068 -27.858608,-1.1509 -42.079108,-6.09422 0.598202,10.53464 3.169122,35.02276 42.949698,47.59292 -6.468675,4.36954 -17.429175,6.26859 -31.631879,6.38441 4.9081,10.54663 9.378133,21.25626 46.722309,19.73364 -8.17041,9.46019 -22.118569,13.7508 -37.580988,16.68656 6.244619,4.63297 6.623126,10.86579 28.729878,11.17273 -5.36521,4.07387 -10.738148,8.14467 -17.992442,11.46292 13.069802,10.20045 26.484662,7.59214 39.177082,6.09422 -5.36202,9.57269 -13.1661,18.91268 -22.78075,25.39255 16.97578,9.91601 30.88437,0.55263 45.27132,-5.80402 -5.56338,14.02082 -12.15678,23.23484 -18.86305,31.92209 13.97213,1.32806 21.30899,-6.46738 29.31027,-13.34925 1.48174,10.16627 -1.68746,17.3951 -7.54523,22.92587 6.82495,1.50109 13.84478,-1.50666 23.21606,-15.52575 30.55792,24.65757 56.37861,55.05735 113.61357,55.57343 9.62558,0.0868 20.28505,-0.0389 30.18087,-7.69031 -5.55106,-3.10397 -9.56416,-6.42765 -9.7217,-10.30213 15.35469,1.29294 19.87912,-2.82927 25.53764,-6.38441 -6.79373,-1.50508 -12.83747,-0.38531 -21.03956,-6.81971 9.94009,-6.35431 21.72584,3.00284 32.35739,-21.32975 -13.35082,-2.11138 -27.45249,3.66113 -40.0477,-6.38443 1.46714,-3.49855 5.42349,-8.61568 6.09422,-12.18842 -5.43025,-12.20397 -17.58621,-25.17605 -11.60801,-34.38878 8.1802,7.30633 16.1582,29.55527 30.90635,23.94155 -3.42704,-8.66958 -3.91455,-12.57723 -3.9177,-17.41205 5.61516,6.18069 10.99705,12.6933 26.40826,4.93342 -5.41537,-6.67547 -15.56452,-10.98406 -14.80023,-20.74934 10.58775,2.82351 19.28884,5.03369 26.40826,1.3059 -9.27605,-5.8849 -14.85666,-12.20455 -17.55714,-18.86304 25.83744,0.80157 28.53251,-1.55126 32.50248,-10.01192 -18.71397,-6.58187 -37.36462,-13.22704 -50.78513,-25.10236 24.47057,-0.14745 53.24177,3.09744 60.79704,-22.05526 -27.10278,3.30093 -26.50133,-1.119 -31.19656,-4.06281 29.47785,-7.05931 34.3889,-17.9472 34.38877,-29.60048 -11.91235,5.05637 -29.84258,14.78 -38.01629,9.28644 11.18102,-9.21275 43.99964,-19.37476 43.82031,-53.10673 -9.65731,3.03886 -16.48085,10.40521 -27.56907,9.8668 0,0 18.57284,-19.44342 20.89445,-32.212261 2.3216,-12.76884 -2.90201,-12.76884 -2.90201,-12.76884 -9.70652,23.326146 -58.02979,51.800911 -91.55831,81.836601 z" /><path
     style="fill:#000000;fill-rule:evenodd;stroke:none;stroke-width:0.25;stroke-linecap:butt;stroke-linejoin:miter;stroke-opacity:1"
     id="path3474"
     d="m 207.69654,59.829022 c -5.48213,0.308462 -5.74745,1.669946 -14.17507,4.169114 -8.17245,2.423495 -23.67965,5.892013 -26.87306,10.684824 -2.09675,3.14691 -0.87617,11.018072 1.21633,6.396349 2.45024,-5.411876 23.70187,-6.507719 37.92946,-4.260552 -5.49075,4.468806 -25.12639,11.841923 -29.87132,12.811393 -5.44826,1.11319 -4.13732,2.96195 1.15645,3.34408 5.09733,0.36795 24.13968,-5.47578 37.51149,-4.29018 l -0.0753,-19.147893 c -0.23488,-2.35024 2.47112,-1.937384 5.20848,-1.978705 1.29304,-0.01952 3.15932,3.739266 6.18804,3.739266 3.72544,0 4.26965,-2.115112 5.23475,-3.918186 1.36166,-2.543954 5.8519,-1.815072 6.09034,-3.445644 l -7.92176,0.231435 c -1.79543,0.05245 -5.1186,0.419071 -6.2531,0.41909 -0.88864,0 -6.10207,0.695031 -9.08472,0.669812 l 0.062,-5.522447 c -1.66297,-0.109724 -4.01218,-0.03446 -6.34316,0.09817 z" /></svg>