<svg xmlns:dc="http://purl.org/dc/elements/1.1/" xmlns:cc="http://creativecommons.org/ns#" xmlns:rdf="http://www.w3.org/1999/02/22-rdf-syntax-ns#" xmlns:svg="http://www.w3.org/2000/svg" xmlns="http://www.w3.org/2000/svg" xml:space="preserve" enable-background="new 30.5 31.5 412 533" viewBox="30.5 31.5 400 500" height="500" width="400" y="0" x="0" version="1.1" id="svg2">
  <metadata id="metadata4">
    <rdf:RDF>
      <cc:Work rdf:about="">
        <dc:format>
          
          
          
          
          
          
          
          image/svg+xml
        
        
        
        
        
        
        
        </dc:format>
        <dc:type rdf:resource="http://purl.org/dc/dcmitype/StillImage"/>
      </cc:Work>
    </rdf:RDF>
  </metadata>
  <defs id="defs6"/>
  <path id="path4148" d="M230.55 531.13C304.87 477.21 355.81 409.11 386.29 322.97 413.93 244.87 425.02 150.22 420.2 33.62l-0.02-0.46-379.82 0-0.02 0.46c-4.81 116.6 6.28 211.24 33.91 289.35 30.48 86.14 81.42 154.24 155.74 208.16l0.28 0.2 0.28-0.2z" fill="#32ac60"/>
  <path d="m41.04 33.21c-9.07 219.45 36.25 385.95 189.45 497.1 84.47-61.29 136.15-139.41 163.99-233.97 2.09-7.09 4.04-14.27 5.87-21.54 11.45-45.69 17.77-95.02 19.88-147.94 1.2-30.06 1.05-61.28-0.29-93.65l-189.45 0-189.45 0m-0.92-0.95 0.92 0 189.45 0 189.45 0 0.92 0 0.04 0.92c4.82 116.66-6.28 211.36-33.93 289.52-30.51 86.24-81.51 154.41-155.91 208.39l-0.56 0.41-0.56-0.41C155.54 477.11 104.54 408.94 74.03 322.7 46.38 244.54 35.28 149.84 40.1 33.18l0.04-0.92 0 0z" id="path10"/>
  <path id="path3647" d="m332.8 302.7c-2.26-2.53-3.34 4.54-4.81 8.27l-13.46 0.1c2.76-6.37 11.25-15.43 14.73-25 2.83-7.79 3.54-15.59 11.05-28.47 0 0-3.89-3.59-4.5-4.3-2.12 4.01-7.47 7.21-11.12 9.34-2.27 1.33-1.72 5.7-2.49 5.84-1.38 0.25-0.91-3.14-4.14-4.95-1.96-1.09-5.63-2-8.31 0.13-2.61 2.07-1.54 3.95-2.91 4.07-0.88 0.08-0.97-3.82-4.09-6.81-3.76-2.68-5.25-5.22-7.48-8.35-5.73-2.98-12.91-0.79-18.87 1.23-7.19 2.44-13.91 3.57-20.9 3.24-8.25-0.4-25.74-1.8-45.07-5.8-8.65-1.79-12.09-4.48-18.56-3.95-7.86 0.64-3.83 5.62-4.81 8.58 4.56 14.06 0.49 35.59 7.17 42.79-0.03 0.55 1.04 5.33-0.98 4.93-2.03-0.4-2.83 1.37-3.36 5.18l-13.07 0.19c0.24-5.1 6.49-8.26 6.04-11.51-0.81-5.75-0.71-9.57-5.3-16.91-1.28 4.36-5.24 11.58-3.31 14.09 1.58 2.06 1.65 6.96-0.09 7.36-4.84 1.12-4.92 4.21-5.85 8.21-0.1 0.42-14.3 0.32-14.3 0.32-1.62-1.62 6.89-9.81 10.14-13.7 6.15-7.35-1.66-29.16 1.4-45.38 0.53-2.82-2.81-3.57-6.79-4.11-10.25-1.39-25.87-52.77-32.83-56.58-21.75-11.9-24.19-11.81-37.71-6.16-4.74 1.98-13.92 6.43-17.82 4.79-2.23-0.94-9.49-7.65-8.75-10.7 1.36-5.59 23.81-29.65 36.66-52.2 0.86-1.51 8.23-1.64 8.51 0.24l1.14 7.48c9.68 0.98 25.88 10.97 48.36 9.98 47.11-2.08 65.54 0.56 107.5 2.84 17.22 0.94 21.75-4.46 37.48-6.17 7.81-0.85 21.4 0.91 29.19 0.12 17.79-1.79 20.6 1.93 23.97 4.95 15.71 14.07 2.43 53.24 11.28 83.93 2.44 8.47 2.32 17.31 0.3 18.85-1.21 0.92-5.58 0.4-8.19-1.08 5.83 17.53-4.14 41.09 0.62 51.76 0.62 1.39 1.58 3-0.3 4.46-2.12-1.02-5.08-2.3-5.06 0.55 0.02 3.13-2.1 6.18-2.1 6.18l-12.87 0.04c2.95-6.59 9.32-10.56 10.12-14.17 1.5-6.79-0.69-12.81-2.4-17.58-2.14 3.29-9.27 10.89-8.53 16.41 0.74 5.5-2.24 10.01-4.54 7.44z" style="fill:#fff;stroke-linecap:round;stroke-linejoin:round;stroke:#000"/>
  <path id="path4717" d="m112.22 146.85c-1.96 3.36-4.58 5.64-8.28 6.1-1.79-6.45-3.76-15.52 4.05-18.76" style="fill:none;stroke-linecap:round;stroke-linejoin:round;stroke:#000"/>
  <path id="path4719" d="m337.35 150.77c15.71 0.87 18.29 13.17 18.09 23.75-0.5 26.36-18.5 40.75 2.33 72.76" style="fill:none;stroke-linecap:round;stroke:#000"/>
  <path id="path4721" d="m335.81 253.31-18.51-25.39c-0.71-0.97-8.98-2.83-10.68-1.74-1.04 0.67-3.05 3.92-3.05 3.92" style="fill:none;stroke-linecap:round;stroke-linejoin:round;stroke:#000"/>
  <path id="path4723" d="m175.84 284.77 11.23-28.91" style="fill:none;stroke:#000"/>
  <path id="path4725" d="m340.45 257.64 5.43 21.21" style="fill:none;stroke:#000"/>
</svg>
