<?xml version="1.0" encoding="UTF-8" standalone="no"?>
<svg
   xmlns:dc="http://purl.org/dc/elements/1.1/"
   xmlns:cc="http://creativecommons.org/ns#"
   xmlns:rdf="http://www.w3.org/1999/02/22-rdf-syntax-ns#"
   xmlns:svg="http://www.w3.org/2000/svg"
   xmlns="http://www.w3.org/2000/svg"
   xml:space="preserve"
   enable-background="new 30.5 31.5 412 533"
   viewBox="30.5 31.5 400 500"
   height="500"
   width="400"
   y="0"
   x="0"
   version="1.1"
   id="svg2"><metadata
     id="metadata4"><rdf:RDF><cc:Work
         rdf:about=""><dc:format>
          
          
          
          
          image/svg+xml
        
        
        
        
        </dc:format><dc:type
           rdf:resource="http://purl.org/dc/dcmitype/StillImage" /><dc:title></dc:title></cc:Work></rdf:RDF></metadata><defs
     id="defs6" /><path
     style="fill:#32ac60"
     d="M 230.44,531.14 C 156.12,477.22 105.18,409.12 74.7,322.98 47.06,244.88 35.97,150.23 40.79,33.63 l 0.02,-0.46 379.82,0 0.02,0.46 c 4.81,116.6 -6.28,211.24 -33.91,289.35 C 356.26,409.12 305.32,477.22 231,531.14 l -0.28,0.2 -0.28,-0.2 z"
     id="path8" /><path
     d="M 419.96,33.21 C 429.03,252.66 383.7,419.16 230.5,530.31 77.31,419.16 31.99,252.66 41.06,33.21 l 189.45,0 189.45,0 m 0.92,-0.95 -0.92,0 -189.45,0 -189.45,0 -0.92,0 -0.04,0.92 c -4.82,116.66 6.28,211.36 33.93,289.52 30.51,86.24 81.51,154.41 155.91,208.39 l 0.56,0.41 0.56,-0.41 C 305.46,477.11 356.46,408.94 386.97,322.7 414.62,244.54 425.72,149.84 420.9,33.18 l -0.04,-0.92 0,0 z"
     id="path10" /><path
     style="fill:#ffe000;fill-opacity:1;fill-rule:evenodd;stroke:#000000;stroke-width:1;stroke-linecap:round;stroke-linejoin:round;stroke-opacity:1;stroke-miterlimit:4;stroke-dasharray:none"
     d="m 230.47376,185.01978 c 9.13136,-34.13398 28.58982,-63.72169 27.74872,-91.174278 -0.51134,-16.690263 -7.31907,-30.688071 -27.74872,-37.46073 -20.42965,6.772659 -27.23738,20.770467 -27.74872,37.46073 -0.8411,27.452588 18.61736,57.040298 27.74872,91.174278"
     id="path4268" /><path
     style="fill:#ffe000;fill-opacity:1;fill-rule:evenodd;stroke:#000000;stroke-width:1;stroke-linecap:round;stroke-linejoin:round;stroke-miterlimit:4;stroke-dasharray:none;stroke-opacity:1"
     d="m 236.81632,185.01978 c 7.06502,-17.9637 18.21476,-41.11933 40.43383,-52.32609 21.83904,-11.01512 47.45327,-0.14279 55.49734,8.12634 18.15585,18.66395 18.57547,38.76808 14.60926,53.94504 -4.01902,15.37907 -29.64274,43.02321 -57.22331,30.68846 5.46135,-3.82811 15.28023,-16.36259 15.45,-28.20883 0.10575,-7.3796 -9.48577,-21.37121 -24.36039,-24.68629 -8.36838,-1.86512 -14.86431,-0.62943 -21.81597,6.17726 -10.98506,10.75595 -12.93269,21.74899 -14.66258,32.84355 6.743,5.40808 9.38837,12.00153 9.31562,18.63124 -0.0862,7.86987 -3.46157,13.60955 -9.31562,18.63128 l 0,179.7719 c 4.51349,2.85502 9.52754,10.19917 9.31562,18.63125 -0.41543,16.52909 -14.63836,23.79387 -23.58636,23.58636 -8.948,0.20751 -23.17093,-7.05727 -23.58636,-23.58636 -0.21192,-8.43208 4.80213,-15.77623 9.31562,-18.63125 l 0,-179.7719 c -5.85405,-5.02173 -9.22932,-10.76141 -9.31562,-18.63128 -0.0728,-6.62971 2.57262,-13.22316 9.31562,-18.63124 -1.72989,-11.09456 -3.67752,-22.0876 -14.66258,-32.84355 -6.95166,-6.80669 -13.44759,-8.04238 -21.81597,-6.17726 -14.87462,3.31508 -24.46614,17.30669 -24.36039,24.68629 0.16977,11.84624 9.98865,24.38072 15.45,28.20883 -27.58057,12.33475 -53.20429,-15.30939 -57.22331,-30.68846 -3.96621,-15.17696 -3.54659,-35.28109 14.60926,-53.94504 8.04407,-8.26913 33.6583,-19.14146 55.49734,-8.12634 22.21907,11.20676 33.36881,34.36239 40.43383,52.32609 l 6.34256,0 z"
     id="path4272" /></svg>