<?xml version="1.0" encoding="UTF-8" standalone="no"?>
<svg
   xmlns:dc="http://purl.org/dc/elements/1.1/"
   xmlns:cc="http://creativecommons.org/ns#"
   xmlns:rdf="http://www.w3.org/1999/02/22-rdf-syntax-ns#"
   xmlns:svg="http://www.w3.org/2000/svg"
   xmlns="http://www.w3.org/2000/svg"
   id="svg2"
   version="1.1"
   x="0"
   y="0"
   width="400"
   height="500"
   viewBox="30.5 31.5 400 500"
   enable-background="new 30.5 31.5 412 533"
   xml:space="preserve"><metadata
     id="metadata4"><rdf:RDF><cc:Work
         rdf:about=""><dc:format>
          
          
          
          
          
          image/svg+xml
        
        
        
        
        
        </dc:format><dc:type
           rdf:resource="http://purl.org/dc/dcmitype/StillImage" /><dc:title></dc:title></cc:Work></rdf:RDF></metadata><defs
     id="defs6" /><path
     style="fill:#e00e00;fill-opacity:1"
     id="path8"
     d="M 230.67,530.86 C 156.35,476.94 105.41,408.84 74.93,322.7 47.29,244.6 36.2,149.95 41.02,33.35 l 0.02,-0.46 379.82,0 0.02,0.46 c 4.81,116.6 -6.28,211.24 -33.91,289.35 -30.48,86.14 -81.42,154.24 -155.74,208.16 l -0.28,0.2 -0.28,-0.2 z" /><path
     id="path4231"
     d="m 393.23313,301.8437 c -6.79081,-5.34836 -14.19277,-11.23503 -19.33347,-15.48283 -15.34358,-12.67851 -37.59799,-32.49778 -43.92409,-38.04177 -7.53872,-6.60678 -9.44924,-16.04692 -13.45051,-23.44595 -1.20238,-2.22339 -25.5123,-20.10927 -38.26841,-30.16393 -3.70829,-2.92294 2.45796,-6.3568 -0.15063,-9.4225 l -3.09883,-3.64185 c -2.93135,-3.44506 -2.75536,-9.26233 5.11744,-19.26428 10.39314,-13.20401 21.53242,-25.12675 33.33834,-36.17933 18.61818,-17.43017 43.25571,-37.08309 60.51631,-47.410765 2.84202,-1.700469 1.61213,-6.286953 -0.64599,-6.317215 -13.0105,-0.174364 -55.3168,16.4414 -78.24981,29.43872 -23.23177,13.16662 -44.08569,28.30452 -64.48466,44.58373 l -4.57632,-4.50788 c -3.19585,-3.14809 -22.06237,21.05045 -33.01698,35.10111 -10.95466,14.05067 -29.82111,38.24926 -25.98863,40.58083 l 5.48785,3.33869 c -10.8125,23.75337 -20.40719,47.66953 -27.51023,73.41096 -7.01168,25.41042 -12.80758,70.49164 -9.46533,83.06666 0.58005,2.18262 5.32803,2.25675 6.28398,-0.91415 5.80613,-19.25823 18.85673,-47.94492 31.21975,-70.25191 7.83948,-14.14505 16.6854,-27.85581 26.95593,-41.1555 7.77979,-10.07441 13.37846,-11.66386 17.43441,-9.66121 l 4.28766,2.11701 c 3.60935,1.78212 5.43559,-5.03536 9.17472,-2.15195 12.86215,9.91873 36.13689,29.13227 38.58639,29.75612 8.15143,2.07592 17.77248,1.62633 26.01832,7.3261 6.91953,4.78288 31.56788,21.53162 47.60572,33.31965 9.23518,6.78799 24.7945,18.87328 32.40127,24.80877 6.39092,-15.01126 13.14648,-32.72103 17.7358,-48.83533 z"
     style="fill:#ffe000;fill-opacity:1;fill-rule:evenodd;stroke:none;stroke-width:0.98065841px;stroke-linecap:butt;stroke-linejoin:round;stroke-opacity:1" /><path
     id="path10"
     d="M 419.96,33.21 C 429.03,252.66 383.7,419.16 230.5,530.31 77.31,419.16 31.99,252.66 41.06,33.21 l 189.45,0 189.45,0 m 0.92,-0.95 -0.92,0 -189.45,0 -189.45,0 -0.92,0 -0.04,0.92 c -4.82,116.66 6.28,211.36 33.93,289.52 30.51,86.24 81.51,154.41 155.91,208.39 l 0.56,0.41 0.56,-0.41 C 305.46,477.11 356.46,408.94 386.97,322.7 414.62,244.54 425.72,149.84 420.9,33.18 l -0.04,-0.92 0,0 z" /><path
     style="fill:none;fill-opacity:1;fill-rule:evenodd;stroke:#000000;stroke-width:0.98065841px;stroke-linecap:butt;stroke-linejoin:round;stroke-opacity:1"
     d="m 393.23313,301.8437 c -6.79081,-5.34836 -14.19277,-11.23503 -19.33347,-15.48283 -15.34358,-12.67851 -37.59799,-32.49778 -43.92409,-38.04177 -7.53872,-6.60678 -9.44924,-16.04692 -13.45051,-23.44595 -1.20238,-2.22339 -25.5123,-20.10927 -38.26841,-30.16393 -3.70829,-2.92294 2.45796,-6.3568 -0.15063,-9.4225 l -3.09883,-3.64185 c -2.93135,-3.44506 -2.75536,-9.26233 5.11744,-19.26428 10.39314,-13.20401 21.53242,-25.12675 33.33834,-36.17933 18.61818,-17.43017 43.25571,-37.08309 60.51631,-47.410765 2.84202,-1.700469 1.61213,-6.286953 -0.64599,-6.317215 -13.0105,-0.174364 -55.3168,16.4414 -78.24981,29.43872 -23.23177,13.16662 -44.08569,28.30452 -64.48466,44.58373 l -4.57632,-4.50788 c -3.19585,-3.14809 -22.06237,21.05045 -33.01698,35.10111 -10.95466,14.05067 -29.82111,38.24926 -25.98863,40.58083 l 5.48785,3.33869 c -10.8125,23.75337 -20.40719,47.66953 -27.51023,73.41096 -7.01168,25.41042 -12.80758,70.49164 -9.46533,83.06666 0.58005,2.18262 5.32803,2.25675 6.28398,-0.91415 5.80613,-19.25823 18.85673,-47.94492 31.21975,-70.25191 7.83948,-14.14505 16.6854,-27.85581 26.95593,-41.1555 7.77979,-10.07441 13.37846,-11.66386 17.43441,-9.66121 l 4.28766,2.11701 c 3.60935,1.78212 5.43559,-5.03536 9.17472,-2.15195 12.86215,9.91873 36.13689,29.13227 38.58639,29.75612 8.15143,2.07592 17.77248,1.62633 26.01832,7.3261 6.91953,4.78288 31.56788,21.53162 47.60572,33.31965 9.23518,6.78799 24.7945,18.87328 32.40127,24.80877"
     id="path4235" /></svg>