<?xml version="1.0" encoding="UTF-8" standalone="no"?>
<!-- Created with Inkscape (http://www.inkscape.org/) -->

<svg
   xmlns:dc="http://purl.org/dc/elements/1.1/"
   xmlns:cc="http://creativecommons.org/ns#"
   xmlns:rdf="http://www.w3.org/1999/02/22-rdf-syntax-ns#"
   xmlns:svg="http://www.w3.org/2000/svg"
   xmlns="http://www.w3.org/2000/svg"
   version="1.1"
   width="410"
   height="480"
   id="svg3212">
  <metadata
     id="metadata10">
    <rdf:RDF>
      <cc:Work
         rdf:about="">
        <dc:format>image/svg+xml</dc:format>
        <dc:type
           rdf:resource="http://purl.org/dc/dcmitype/StillImage" />
        <dc:title></dc:title>
      </cc:Work>
    </rdf:RDF>
  </metadata>
  <defs
     id="defs3216" />
  <path
     d="M -0.00390625,-0.00390625 410.00781,0.06250025 410,375.875 c -4.9e-4,23.58116 -21.25489,41.06384 -50.80633,47.81609 l -110.44124,25.23488 c -13.27721,3.03372 -32.08101,16.83203 -43.73707,31.06981 -11.806,-13.74767 -33.71393,-29.21633 -47.30293,-32.30724 L 51.733427,423.58286 C 17.760939,415.85558 0.01748891,396.70529 0.01657281,379.71891 z"
     id="path3001"
     style="fill:#1883d1;fill-opacity:1;stroke:none" />
  <path
     d="m 36.4375,336 c 2.904444,-1.31824 3.821379,-3.67789 8.875,-4.0625 6.784213,-0.51631 14.355614,8.67737 21.375,15.8125 -4.020833,-0.375 -7.725207,-3.8631 -10.5625,-3 -7.416437,2.25608 -11.899327,-0.24749 -17.625,-2.3125 -2.123271,-0.76577 -4.798964,1.86158 -3.75,2.6875 7.197454,5.66703 26.101061,13.99121 42.6875,14.5 5.389289,-7.3579 19.337459,-17.20592 19.75,-23.875 0.334221,-5.40298 -5.778475,-8.9656 -11.1875,-12.4375 -1.350754,-0.86701 2.286207,-3.593 3.75,-2.8125 2.066655,1.10195 12.98342,6.4732 13.0625,15 0.0471,5.08151 -6.230197,13.78795 -19.75,25 25.51755,7.24787 75.28246,11.96262 115.78125,11.53125 2.4284,6.6469 6.42876,13.48094 15.80735,20.95524 3.64259,-4.25858 6.47584,-9.20197 7.95495,-15.29118 -4.05009,-2.79524 -6.4081,-5.06985 -8.3085,-7.20365 l 50.7791,-4.06587 c 5.38911,5.04643 13.2041,8.80858 21.38998,12.37437 6.35926,-5.53559 12.56737,-13.54067 16.35185,-21.56675 -3.24036,-1.60063 -5.47716,-2.86674 -6.71752,-3.8007 7.71925,-3.41768 11.02058,-8.89937 21.56676,-9.81111 3.82369,-0.33056 18.14728,-1.13247 24.04163,3.09359 l 35.28905,25.30117 c -0.53783,-29.58496 2.91538,-56.52921 0.17678,-76.12447 -14.35202,6.7818 -26.57839,15.90181 -38.61268,25.23311 -10.75183,8.3369 -21.24529,4.8021 -31.10363,-6.89252 0.64846,-1.73821 4.2058,-1.93633 5.94346,-1.27598 1.00505,0.38194 1.24237,-2.17688 0.99502,-2.39214 -1.27066,-1.10582 -14.88831,-5.24595 -21.69934,2.47487 -33.98898,-8.40271 -56.86027,-10.3201 -79.81468,-12.28598 -1.70312,-0.14586 -5.7822,-2.12853 -2.07712,-4.86136 l 6.23138,-4.59619 C 209.94181,284.54618 202.5659,279.10392 194.76372,275.65096 189.67497,280.2378 176.12511,290.231 173.3125,301.125 138.49317,296.58167 101.62725,305.91409 62.865562,317.78448 39.377883,324.97735 34.94186,330.37519 36.4375,336 z"
     id="path3814"
     style="fill:#ffffff;fill-opacity:1;stroke:none" />
  <path
     d="m 63.8125,327.0625 a 3.5625,3.375 0 0 1 -7.125,0 3.5625,3.375 0 1 1 7.125,0 z"
     id="path3816"
     style="fill:#1883d1;fill-opacity:1;stroke:none" />
  <path
     d="m 107.75,340 c -2.65318,0.31807 0.47921,5.92141 2.3125,5.5625 5.70267,-1.11642 8.74812,-0.97464 14.41215,1.2942 1.52024,0.60896 -4.97864,8.52202 -6.85095,7.83394 l -6.8112,-2.50314 c -1.50716,-0.55389 -3.15425,3.04025 -1.625,3.8125 l 9.40625,4.75 c 5.43162,-3.13301 13.25472,-11.42747 18.09375,-17 -9.22372,-3.17241 -18.96251,-4.94583 -28.9375,-3.75 z"
     id="path3818"
     style="fill:#1883d1;fill-opacity:1;stroke:none" />
  <path
     d="m 36.4375,210 c 2.904444,-1.31824 3.821379,-3.67789 8.875,-4.0625 6.784213,-0.51631 14.355614,8.67737 21.375,15.8125 -4.020833,-0.375 -7.725207,-3.8631 -10.5625,-3 -7.416437,2.25608 -11.899327,-0.24749 -17.625,-2.3125 -2.123271,-0.76577 -4.798964,1.86158 -3.75,2.6875 7.197454,5.66703 26.101061,13.99121 42.6875,14.5 5.389289,-7.3579 19.337459,-17.20592 19.75,-23.875 0.334221,-5.40298 -5.778475,-8.9656 -11.1875,-12.4375 -1.350754,-0.86701 2.286207,-3.593 3.75,-2.8125 2.066655,1.10195 12.98342,6.4732 13.0625,15 0.0471,5.08151 -6.230197,13.78795 -19.75,25 25.51755,7.24787 75.28246,11.96262 115.78125,11.53125 2.4284,6.6469 6.42876,13.48094 15.80735,20.95524 3.64259,-4.25858 6.47584,-9.20197 7.95495,-15.29118 -4.05009,-2.79524 -6.4081,-5.06985 -8.3085,-7.20365 l 50.7791,-4.06587 c 5.38911,5.04643 13.2041,8.80858 21.38998,12.37437 6.35926,-5.53559 12.56737,-13.54067 16.35185,-21.56675 -3.24036,-1.60063 -5.47716,-2.86674 -6.71752,-3.8007 7.71925,-3.41768 11.02058,-8.89937 21.56676,-9.81111 3.82369,-0.33056 18.14728,-1.13247 24.04163,3.09359 l 35.28905,25.30117 c -0.53783,-29.58496 2.91538,-56.52921 0.17678,-76.12447 -14.35202,6.7818 -26.57839,15.90181 -38.61268,25.23311 -10.75183,8.3369 -21.24529,4.8021 -31.10363,-6.89252 0.64846,-1.73821 4.2058,-1.93633 5.94346,-1.27598 1.00505,0.38194 1.24237,-2.17688 0.99502,-2.39214 -1.27066,-1.10582 -14.88831,-5.24595 -21.69934,2.47487 -33.98898,-8.40271 -56.86027,-10.3201 -79.81468,-12.28598 -1.70312,-0.14586 -5.7822,-2.12853 -2.07712,-4.86136 l 6.23138,-4.59619 C 209.94181,158.54618 202.5659,153.10392 194.76372,149.65096 189.67497,154.2378 176.12511,164.231 173.3125,175.125 138.49317,170.58167 101.62725,179.91409 62.865562,191.78448 39.377883,198.97735 34.94186,204.37519 36.4375,210 z"
     id="path3779"
     style="fill:#ffffff;fill-opacity:1;stroke:none" />
  <path
     d="m 36.4375,84.000001 c 2.904444,-1.318241 3.821379,-3.677893 8.875,-4.0625 6.784213,-0.516314 14.355614,8.67737 21.375,15.8125 -4.020833,-0.375 -7.725207,-3.863104 -10.5625,-3 -7.416437,2.256079 -11.899327,-0.247496 -17.625,-2.3125 -2.123271,-0.765773 -4.798964,1.861582 -3.75,2.6875 7.197454,5.667025 26.101061,13.991209 42.6875,14.499999 5.389289,-7.3579 19.337459,-17.205922 19.75,-23.874999 0.334221,-5.402978 -5.778475,-8.965606 -11.1875,-12.4375 -1.350754,-0.867009 2.286207,-3.593003 3.75,-2.8125 2.066655,1.101953 12.98342,6.473197 13.0625,15 0.0471,5.081511 -6.230197,13.787945 -19.75,24.999999 25.51755,7.24787 75.28246,11.96262 115.78125,11.53125 2.4284,6.6469 6.42876,13.48094 15.80735,20.95524 3.64259,-4.25858 6.47584,-9.20197 7.95495,-15.29118 -4.05009,-2.79524 -6.4081,-5.06985 -8.3085,-7.20365 l 50.7791,-4.06587 c 5.38911,5.04643 13.2041,8.80858 21.38998,12.37437 6.35926,-5.53559 12.56737,-13.54067 16.35185,-21.56675 -3.24036,-1.60063 -5.47716,-2.86674 -6.71752,-3.8007 7.71925,-3.417683 11.02058,-8.89937 21.56676,-9.811108 3.82369,-0.330565 18.14728,-1.132477 24.04163,3.093592 l 35.28905,25.301166 c -0.53783,-29.584955 2.91538,-56.529209 0.17678,-76.124467 -14.35202,6.781795 -26.57839,15.901803 -38.61268,25.233108 -10.75183,8.336898 -21.24529,4.802095 -31.10363,-6.892525 0.64846,-1.738205 4.2058,-1.93633 5.94346,-1.27598 1.00505,0.381944 1.24237,-2.176879 0.99502,-2.392137 -1.27066,-1.105817 -14.88831,-5.245951 -21.69934,2.474874 -33.98898,-8.402713 -56.86027,-10.320104 -79.81468,-12.28598 -1.70312,-0.14586 -5.7822,-2.128532 -2.07712,-4.861359 l 6.23138,-4.596195 C 209.94181,32.546177 202.5659,27.103922 194.76372,23.650962 189.67497,28.237799 176.12511,38.230996 173.3125,49.125001 138.49317,44.581668 101.62725,53.914091 62.865562,65.784476 39.377883,72.977346 34.94186,78.375186 36.4375,84.000001 z"
     id="path3771"
     style="fill:#ffffff;fill-opacity:1;stroke:none" />
  <path
     d="m 63.0625,75.0625 a 3.5625,3.375 0 1 1 -7.125,0 3.5625,3.375 0 1 1 7.125,0 z"
     transform="translate(0.75,0)"
     id="path3773"
     style="fill:#1883d1;fill-opacity:1;stroke:none" />
  <path
     d="m 107.75,88.000001 c -2.65318,0.31807 0.47921,5.921409 2.3125,5.562499 5.70267,-1.11642 8.74812,-0.97464 14.41215,1.2942 1.52024,0.60896 -4.97864,8.52202 -6.85095,7.83394 l -6.8112,-2.50314 c -1.50716,-0.55389 -3.15425,3.04025 -1.625,3.8125 l 9.40625,4.75 c 5.43162,-3.13301 13.25472,-11.42747 18.09375,-16.999999 -9.22372,-3.172413 -18.96251,-4.945827 -28.9375,-3.75 z"
     id="path3775"
     style="fill:#1883d1;fill-opacity:1;stroke:none" />
  <path
     d="m 63.8125,201.0625 a 3.5625,3.375 0 0 1 -7.125,0 3.5625,3.375 0 1 1 7.125,0 z"
     id="path3781"
     style="fill:#1883d1;fill-opacity:1;stroke:none" />
  <path
     d="m 107.75,214 c -2.65318,0.31807 0.47921,5.92141 2.3125,5.5625 5.70267,-1.11642 8.74812,-0.97464 14.41215,1.2942 1.52024,0.60896 -4.97864,8.52202 -6.85095,7.83394 l -6.8112,-2.50314 c -1.50716,-0.55389 -3.15425,3.04025 -1.625,3.8125 l 9.40625,4.75 c 5.43162,-3.13301 13.25472,-11.42747 18.09375,-17 -9.22372,-3.17241 -18.96251,-4.94583 -28.9375,-3.75 z"
     id="path3783"
     style="fill:#1883d1;fill-opacity:1;stroke:none" />
</svg>
