<svg xmlns:dc="http://purl.org/dc/elements/1.1/" xmlns:cc="http://creativecommons.org/ns#" xmlns:rdf="http://www.w3.org/1999/02/22-rdf-syntax-ns#" xmlns:svg="http://www.w3.org/2000/svg" xmlns="http://www.w3.org/2000/svg" id="svg2" version="1.1" x="0" y="0" width="400" height="500" viewBox="30.5 31.5 400 500" enable-background="new 30.5 31.5 412 533" xml:space="preserve">
  <metadata id="metadata4">
    <rdf:RDF>
      <cc:Work rdf:about="">
        <dc:format>
          
          
          
          
          image/svg+xml
        
        
        
        
        </dc:format>
        <dc:type rdf:resource="http://purl.org/dc/dcmitype/StillImage"/>
      </cc:Work>
    </rdf:RDF>
  </metadata>
  <defs id="defs6"/>
  <path id="path8" d="M230.44 531.14C156.12 477.22 105.18 409.12 74.7 322.98 47.06 244.88 35.97 150.23 40.79 33.63l0.02-0.46 379.82 0 0.02 0.46c4.81 116.6-6.28 211.24-33.91 289.35C356.26 409.12 305.32 477.22 231 531.14l-0.28 0.2-0.28-0.2z" fill="#0085ca"/>
  <path id="path10" d="M419.96 33.21C429.03 252.66 383.7 419.16 230.5 530.31 77.31 419.16 31.99 252.66 41.06 33.21l189.45 0 189.45 0m0.92-0.95-0.92 0-189.45 0-189.45 0-0.92 0-0.04 0.92c-4.82 116.66 6.28 211.36 33.93 289.52 30.51 86.24 81.51 154.41 155.91 208.39l0.56 0.41 0.56-0.41C305.46 477.11 356.46 408.94 386.97 322.7 414.62 244.54 425.72 149.84 420.9 33.18l-0.04-0.92 0 0z"/>
  <path d="m333.5 167.82c0 33.36-18.37 66.45-52.04 86.47-5.76 3.43-11.96 6.52-18.62 9.07-7.98 3.05-8.46 8.95-13.66 10.87-5.02 1.85-9.22-5.88-9.7-14.17-0.32-5.62-0.96-11.19 9.18-13.96C288.07 235.34 313.5 200.72 313.5 167.82 313.5 117.04 276.86 81.5 230.5 81.5c-46.36 0-83 35.54-83 86.32 0 32.89 25.43 67.52 64.84 78.28 10.13 2.77 9.5 8.34 9.18 13.96-0.48 8.29-4.68 16.01-9.7 14.17-5.2-1.91-5.68-7.81-13.66-10.87-6.66-2.55-12.86-5.64-18.62-9.07C145.87 234.28 127.5 201.19 127.5 167.82 127.5 116.24 163.16 61.5 230.5 61.5c67.34 0 103 54.74 103 106.32z" id="path4684" style="fill-rule:evenodd;fill:#ffe000;stroke:#000"/>
  <path id="path4688" d="m309.44 371.87c0 25.57-14.08 50.93-39.88 66.27-4.42 2.63-9.16 5-14.27 6.95-6.11 2.34-6.48 6.86-10.47 8.33-3.84 1.42-7.07-4.5-7.43-10.86-0.25-4.31-0.73-8.58 7.03-10.7 30.2-8.25 49.69-34.79 49.69-59.99 0-38.92-28.08-66.16-63.61-66.16-35.53 0-63.61 27.24-63.61 66.16 0 25.21 19.49 51.74 49.69 59.99 7.77 2.12 7.28 6.39 7.03 10.7-0.37 6.35-3.59 12.27-7.43 10.86-3.98-1.47-4.35-5.99-10.47-8.33-5.11-1.95-9.85-4.32-14.27-6.95-25.8-15.34-39.88-40.7-39.88-66.27 0-39.53 27.33-81.48 78.94-81.48 51.61 0 78.94 41.95 78.94 81.48z" style="fill-rule:evenodd;fill:#ffe000;stroke-miterlimit:4;stroke:#000"/>
</svg>
