<svg xmlns:dc="http://purl.org/dc/elements/1.1/" xmlns:cc="http://creativecommons.org/ns#" xmlns:rdf="http://www.w3.org/1999/02/22-rdf-syntax-ns#" xmlns:svg="http://www.w3.org/2000/svg" xmlns="http://www.w3.org/2000/svg" xml:space="preserve" enable-background="new 30.5 31.5 412 533" viewBox="30.5 31.5 400 500" height="500" width="400" y="0" x="0" version="1.1" id="svg2">
  <metadata id="metadata4">
    <rdf:RDF>
      <cc:Work rdf:about="">
        <dc:format>
          
          
          
          image/svg+xml
        
        
        
        </dc:format>
        <dc:type rdf:resource="http://purl.org/dc/dcmitype/StillImage"/>
      </cc:Work>
    </rdf:RDF>
  </metadata>
  <defs id="defs6"/>
  <path d="M230.44 531.14C156.12 477.22 105.18 409.12 74.7 322.98 47.06 244.88 35.97 150.23 40.79 33.63l0.02-0.46 379.82 0 0.02 0.46c4.81 116.6-6.28 211.24-33.91 289.35C356.26 409.12 305.32 477.22 231 531.14l-0.28 0.2-0.28-0.2z" id="path8" fill="#e00e00"/>
  <path d="M419.96 33.21C429.03 252.66 383.7 419.16 230.5 530.31 77.31 419.16 31.99 252.66 41.06 33.21l189.45 0 189.45 0m0.92-0.95-0.92 0-189.45 0-189.45 0-0.92 0-0.04 0.92c-4.82 116.66 6.28 211.36 33.93 289.52 30.51 86.24 81.51 154.41 155.91 208.39l0.56 0.41 0.56-0.41C305.46 477.11 356.46 408.94 386.97 322.7 414.62 244.54 425.72 149.84 420.9 33.18l-0.04-0.92 0 0z" id="path10"/>
  <path d="m199.16 214.23c-4.4-7.92-3.21-11.1-5.29-17.95-3.66-12.03-18.38-19.06-32.01-24.69-14.94-6.17-24.35-17.94-28.61-35.89-5.13 8.01-3.96 13.78-2.4 21.08-4.06-3.8-7.04-8.95-10.4-15.43-2.8 6.59-2.74 14.35 0.16 22.06-11.74 0.59-29.87 14.88-34.95 25.16-0.6 8.37 3.15 25.39 12.76 34.6 8.89 8.51 20.42 11.34 31.73 14.56-4.5 5.05-7.5 12.72-6.76 18.74 5.2-5.4 10.63-9.57 20-9.74 12.31-0.22 25.93 2.92 35.08-3.99 4.58-3.46 6.89-6.12 13.68-8.37 9.91-3.65 11.43-1.44 29.49 4.3-11.23 15.36-15.95 19.99-20.44 20.82-8.9 1.66-11.55-0.49-18.7-0.69-12.57-0.35-23.91 11.37-33.59 22.5-10.6 12.2-24.75 17.38-43.12 15.72 5.96 7.41 11.81 8.13 19.23 8.98-4.89 2.64-10.72 3.83-17.93 4.96 5.36 4.75 12.73 7.16 20.96 6.86-3.17 11.32 4.61 33.06 12.74 41.14 7.74 3.23 25.08 5.09 36.86-1.1 10.9-5.72 17.24-15.76 23.89-25.45 3.35 5.88 9.67 11.15 15.62 12.36-3.47-6.65-5.7-13.12-2.88-22.06 3.7-11.75 11.01-23.66 7.37-34.53-1.83-5.45-4.6-8.15-4.57-15.3-0.31-10.56 2.27-11.3 13.45-26.59 11.25 15.34 13.84 20.41 13.28 24.94-1.11 8.99-3.95 10.86-6.3 17.62-4.14 11.88 3.61 26.23 11.3 38.82 8.43 13.79 9.09 28.85 1.96 45.86 8.87-3.44 11.32-8.8 14.37-15.62 1.04 5.46 0.41 11.38-0.69 18.59 6.15-3.67 10.67-9.97 12.87-17.91 9.83 6.44 32.91 5.59 43.06 0.28 5.42-6.41 12.43-22.37 10.09-35.47-2.16-12.12-9.81-21.19-17.05-30.46 6.61-1.42 13.55-5.85 16.51-11.15-7.38 1.3-14.23 1.47-21.9-3.92-10.08-7.08-19.23-17.64-30.69-17.45-5.74 0.1-9.16 1.92-15.96-0.26-10.16-2.89-10.76-6.19-21.96-21.48 18.2-5.54 24.32-7.1 28.41-5.08 8.12 4.02 8.95 7.32 14.55 11.77 9.84 7.83 25.95 5.26 40.37 2.16 15.8-3.39 30.23 0.96 43.93 13.31-0.32-9.51-4.57-13.59-9.99-18.72 5.49 0.82 10.88 3.37 17.32 6.8-1.43-7.01-5.89-13.37-12.65-18.07 9.33-7.15 16.15-29.21 14.5-40.55-4.26-7.23-17.01-19.12-30.14-21.25-12.15-1.97-23.25 2.26-34.38 6.02 0.85-6.71-1.04-14.72-5.07-19.27-1.21 7.4-3.32 13.91-10.94 19.38-10.01 7.17-23.01 12.31-26.61 23.2-1.81 5.45-1.21 9.28-5.52 14.98-6.09 8.63-8.59 7.68-26.72 13.2 0-19.02 0.9-24.64 4.03-27.96 6.21-6.59 9.61-6.43 15.5-10.49 10.36-7.14 12.59-23.29 13.83-37.99 1.36-16.11 9.72-28.64 25.53-38.14-9.19-2.47-14.33 0.41-20.82 4.1 2.39-5.01 6.39-9.42 11.55-14.59-7.13-0.67-14.5 1.74-20.97 6.84-4.12-11.01-23.24-23.96-34.57-25.68-8.16 1.96-23.25 10.7-29.1 22.64-5.42 11.05-4.61 22.9-4.25 34.65-6.17-2.76-14.39-3.29-19.91-0.76 6.72 3.32 12.35 7.23 15.35 16.11 3.95 11.67 5.08 25.6 14.44 32.22 4.69 3.32 8.52 3.86 12.72 9.65 6.48 8.34 4.84 10.46 4.84 29.41-18.13-5.77-23.21-8.33-25.42-12.31z" id="path4292" style="fill-rule:evenodd;fill:#ffe000;stroke-width:0.99;stroke:#000"/>
</svg>
