<?xml version="1.0" encoding="UTF-8" standalone="no"?>
<svg
   xmlns:dc="http://purl.org/dc/elements/1.1/"
   xmlns:cc="http://creativecommons.org/ns#"
   xmlns:rdf="http://www.w3.org/1999/02/22-rdf-syntax-ns#"
   xmlns:svg="http://www.w3.org/2000/svg"
   xmlns="http://www.w3.org/2000/svg"
   id="svg2"
   version="1.1"
   x="0"
   y="0"
   width="420"
   height="500"
   viewBox="30.5 31.5 420 500"
   enable-background="new 30.5 31.5 412 533"
   xml:space="preserve"><metadata
     id="metadata4"><rdf:RDF><cc:Work
         rdf:about=""><dc:format>
          
          
          
          
          
          image/svg+xml
        
        
        
        
        
        </dc:format><dc:type
           rdf:resource="http://purl.org/dc/dcmitype/StillImage" /><dc:title></dc:title></cc:Work></rdf:RDF></metadata><defs
     id="defs6" /><path
     style="fill:#ffffff;fill-rule:evenodd"
     id="path4218"
     d="m 440,32.7 c 2.09,102.46 -3.38,187.49 -43.93,296.59 C 368.02,404.77 321.86,474.06 240.5,530.88 159.14,474.06 112.98,404.77 84.93,329.29 44.38,220.19 38.91,135.16 41,32.7 c 133,0.29 266,0 399,0 z" /><path
     style="fill:#32ac60;fill-opacity:1;fill-rule:evenodd;stroke:none;stroke-width:1px;stroke-linecap:butt;stroke-linejoin:miter;stroke-opacity:1"
     d="m 263.49676,103.75811 c 4.42321,1.48688 7.97644,-0.42298 4.75629,-3.64649 C 256.29736,88.14346 257.79891,79.64887 258.10631,76.5 c 0.91708,-9.39407 11.02076,-20.79271 24.30348,-20.79271 12.58683,0 22.89047,11.732681 23.33298,20.79271 0.23148,4.739403 -1.81387,10.915585 -8.88074,19.80391 -1.92311,2.418783 1.77345,5.14612 3.27405,3.567221 C 310.16457,89.319427 316.07294,87.055177 324.23594,87.248417 333.09758,87.458196 342.5,97.696484 342.5,111.5 c 0,13.80352 -9.40242,24.0418 -18.26406,24.25158 -8.163,0.19324 -14.07137,-2.07101 -24.09986,-12.62271 -1.5006,-1.5789 -5.19716,1.14844 -3.27405,3.56722 7.06687,8.88832 9.11222,15.06451 8.88074,19.80391 -0.44251,9.06003 -10.74615,20.79271 -23.33298,20.79271 -13.28272,0 -23.3864,-11.39864 -24.30348,-20.79271 -0.3074,-3.14887 -1.80895,-11.64346 10.14674,-23.61162 3.22015,-3.22351 -0.33308,-5.13337 -4.75629,-3.64649 -10.53618,3.54179 -17.6143,16.72992 -24.99676,27.25811 -7.38246,10.52819 -14.46058,23.71632 -24.99676,27.25811 -4.42321,1.48688 -7.97644,-0.42298 -4.75629,-3.64649 11.95569,-11.96816 10.45414,-20.46275 10.14674,-23.61162 -0.91708,-9.39407 -11.02076,-20.79271 -24.30348,-20.79271 -12.58683,0 -22.89047,11.73268 -23.33298,20.79271 -0.23148,4.7394 1.81387,10.91558 8.88074,19.80391 1.92311,2.41878 -1.77345,5.14612 -3.27405,3.56722 -10.02849,-10.5517 -15.93686,-12.81595 -24.09986,-12.62271 C 143.90242,157.4582 134.5,167.69648 134.5,181.5 c 0,13.80352 9.40242,24.0418 18.26406,24.25158 8.163,0.19324 14.07137,-2.07101 24.09986,-12.62271 1.5006,-1.5789 5.19716,1.14844 3.27405,3.56722 -7.06687,8.88832 -9.11222,15.06451 -8.88074,19.80391 0.44251,9.06003 10.74615,20.79271 23.33298,20.79271 13.28272,0 23.3864,-11.39864 24.30348,-20.79271 0.3074,-3.14887 1.80895,-11.64346 -10.14674,-23.61162 -3.22015,-3.22351 0.33308,-5.13337 4.75629,-3.64649 10.53618,3.54179 17.6143,16.72992 24.99676,27.25811 7.38246,10.52819 14.46058,23.71632 24.99676,27.25811 4.42321,1.48688 7.97644,-0.42298 4.75629,-3.64649 -11.95569,-11.96816 -10.45414,-20.46275 -10.14674,-23.61162 0.91708,-9.39407 11.02076,-20.79271 24.30348,-20.79271 12.58683,0 22.89047,11.73268 23.33298,20.79271 0.23148,4.7394 -1.81387,10.91558 -8.88074,19.80391 -1.92311,2.41878 1.77345,5.14612 3.27405,3.56722 10.02849,-10.5517 15.93686,-12.81595 24.09986,-12.62271 C 333.09758,227.4582 342.5,237.69648 342.5,251.5 c 0,13.80352 -9.40242,24.0418 -18.26406,24.25158 -8.163,0.19324 -14.07137,-2.07101 -24.09986,-12.62271 -1.5006,-1.5789 -5.19716,1.14844 -3.27405,3.56722 7.06687,8.88832 9.11222,15.06451 8.88074,19.80391 -0.44251,9.06003 -10.74615,20.79271 -23.33298,20.79271 -13.28272,0 -23.3864,-11.39864 -24.30348,-20.79271 -0.3074,-3.14887 -1.80895,-11.64346 10.14674,-23.61162 3.22015,-3.22351 -0.33308,-5.13337 -4.75629,-3.64649 -10.53618,3.54179 -17.6143,16.72992 -24.99676,27.25811 -7.38246,10.52819 -14.46058,23.71632 -24.99676,27.25811 -4.42321,1.48688 -7.97644,-0.42298 -4.75629,-3.64649 11.95569,-11.96816 10.45414,-20.46275 10.14674,-23.61162 -0.91708,-9.39407 -11.02076,-20.79271 -24.30348,-20.79271 -12.58683,0 -22.89047,11.73268 -23.33298,20.79271 -0.23148,4.7394 1.81387,10.91558 8.88074,19.80391 1.92311,2.41878 -1.77345,5.14612 -3.27405,3.56722 -10.02849,-10.5517 -15.93686,-12.81595 -24.09986,-12.62271 C 143.90242,297.4582 134.5,307.69648 134.5,321.5 c 0,13.80352 9.40242,24.0418 18.26406,24.25158 8.163,0.19324 14.07137,-2.07101 24.09986,-12.62271 1.5006,-1.5789 5.19716,1.14844 3.27405,3.56722 -7.06687,8.88832 -9.11222,15.06451 -8.88074,19.80391 0.44251,9.06003 10.74615,20.79271 23.33298,20.79271 13.28272,0 23.3864,-11.39864 24.30348,-20.79271 0.3074,-3.14887 1.80895,-11.64346 -10.14674,-23.61162 -3.22015,-3.22351 0.33308,-5.13337 4.75629,-3.64649 10.53618,3.54179 17.6143,16.72992 24.99676,27.25811 7.38246,10.52819 14.46058,23.71632 24.99676,27.25811 4.42321,1.48688 7.97644,-0.42298 4.75629,-3.64649 -11.95569,-11.96816 -10.45414,-20.46275 -10.14674,-23.61162 0.91708,-9.39407 11.02076,-20.79271 24.30348,-20.79271 12.58683,0 22.89047,11.73268 23.33298,20.79271 0.23148,4.7394 -1.81387,10.91558 -8.88074,19.80391 -1.92311,2.41878 1.77345,5.14612 3.27405,3.56722 10.02849,-10.5517 15.93686,-12.81595 24.09986,-12.62271 C 333.09758,367.4582 342.5,377.69648 342.5,391.5 c 0,13.80352 -9.40242,24.0418 -18.26406,24.25158 -8.163,0.19324 -14.07137,-2.07101 -24.09986,-12.62271 -1.5006,-1.5789 -5.19716,1.14844 -3.27405,3.56722 7.06687,8.88832 9.11222,15.06451 8.88074,19.80391 -0.44251,9.06003 -10.74615,20.79271 -23.33298,20.79271 -13.28272,0 -23.3864,-11.39864 -24.30348,-20.79271 -0.3074,-3.14887 -1.80895,-11.64346 10.14674,-23.61162 3.22015,-3.22351 -0.33308,-5.13337 -4.75629,-3.64649 -10.53618,3.54179 -17.6143,16.72992 -24.99676,27.25811 -7.38246,10.52819 -14.46058,23.71632 -24.99676,27.25811 -4.42321,1.48688 -7.97644,-0.42298 -4.75629,-3.64649 11.95569,-11.96816 10.45414,-20.46275 10.14674,-23.61162 -0.91708,-9.39407 -11.02076,-20.79271 -24.30348,-20.79271 -12.58683,0 -22.89047,11.73268 -23.33298,20.79271 -0.23148,4.7394 1.81387,10.91558 8.88074,19.80391 1.92311,2.41878 -1.77345,5.14612 -3.27405,3.56722 -10.02849,-10.5517 -15.93686,-12.81595 -24.09986,-12.62271 -2.69589,0.0638 -5.44183,1.05578 -7.95786,2.79389 C 169.20676,470.42139 201.07191,504.38314 240.5,530.88 320.26596,474.10308 360.73255,413.60294 389.19924,347.5448 440.14437,229.32453 442.03337,109.28978 440,32.7 433.09775,32.863395 135.77155,32.936511 135.77155,32.936511 134.5,35.676658 134.5,38.447913 134.5,41.5 c 0,13.80352 9.40242,24.0418 18.26406,24.25158 8.163,0.19324 14.07137,-2.07101 24.09986,-12.62271 1.5006,-1.5789 5.19716,1.14844 3.27405,3.56722 -7.06687,8.88832 -9.11222,15.06451 -8.88074,19.80391 0.44251,9.06003 10.74615,20.79271 23.33298,20.79271 13.28272,0 23.3864,-11.39864 24.30348,-20.79271 0.3074,-3.14887 1.80895,-11.64346 -10.14674,-23.61162 -3.22015,-3.22351 0.33308,-5.13337 4.75629,-3.64649 10.53618,3.54179 17.6143,16.72992 24.99676,27.25811 7.38246,10.52819 14.46058,23.71632 24.99676,27.25811 z"
     id="path4340" /><path
     id="path4395"
     d="M 135.77155,32.936511 C 134.5,35.676658 134.5,38.447913 134.5,41.5 c 0,13.80352 9.40242,24.0418 18.26406,24.25158 8.163,0.19324 14.07137,-2.07101 24.09986,-12.62271 1.5006,-1.5789 5.19716,1.14844 3.27405,3.56722 -7.06687,8.88832 -9.11222,15.06451 -8.88074,19.80391 0.44251,9.06003 10.74615,20.79271 23.33298,20.79271 13.28272,0 23.3864,-11.39864 24.30348,-20.79271 0.3074,-3.14887 1.80895,-11.64346 -10.14674,-23.61162 -3.22015,-3.22351 0.33308,-5.13337 4.75629,-3.64649 10.53618,3.54179 17.6143,16.72992 24.99676,27.25811 7.38246,10.52819 14.46058,23.71632 24.99676,27.25811 4.42321,1.48688 7.97644,-0.42298 4.75629,-3.64649 C 256.29736,88.14346 257.79891,79.64887 258.10631,76.5 c 0.91708,-9.39407 11.02076,-20.79271 24.30348,-20.79271 12.58683,0 22.89047,11.732681 23.33298,20.79271 0.23148,4.739403 -1.81387,10.915585 -8.88074,19.80391 -1.92311,2.418783 1.77345,5.14612 3.27405,3.567221 C 310.16457,89.319427 316.07294,87.055177 324.23594,87.248417 333.09758,87.458196 342.5,97.696484 342.5,111.5 c 0,13.80352 -9.40242,24.0418 -18.26406,24.25158 -8.163,0.19324 -14.07137,-2.07101 -24.09986,-12.62271 -1.5006,-1.5789 -5.19716,1.14844 -3.27405,3.56722 7.06687,8.88832 9.11222,15.06451 8.88074,19.80391 -0.44251,9.06003 -10.74615,20.79271 -23.33298,20.79271 -13.28272,0 -23.3864,-11.39864 -24.30348,-20.79271 -0.3074,-3.14887 -1.80895,-11.64346 10.14674,-23.61162 3.22015,-3.22351 -0.33308,-5.13337 -4.75629,-3.64649 -10.53618,3.54179 -17.6143,16.72992 -24.99676,27.25811 -7.38246,10.52819 -14.46058,23.71632 -24.99676,27.25811 -4.42321,1.48688 -7.97644,-0.42298 -4.75629,-3.64649 11.95569,-11.96816 10.45414,-20.46275 10.14674,-23.61162 -0.91708,-9.39407 -11.02076,-20.79271 -24.30348,-20.79271 -12.58683,0 -22.89047,11.73268 -23.33298,20.79271 -0.23148,4.7394 1.81387,10.91558 8.88074,19.80391 1.92311,2.41878 -1.77345,5.14612 -3.27405,3.56722 -10.02849,-10.5517 -15.93686,-12.81595 -24.09986,-12.62271 C 143.90242,157.4582 134.5,167.69648 134.5,181.5 c 0,13.80352 9.40242,24.0418 18.26406,24.25158 8.163,0.19324 14.07137,-2.07101 24.09986,-12.62271 1.5006,-1.5789 5.19716,1.14844 3.27405,3.56722 -7.06687,8.88832 -9.11222,15.06451 -8.88074,19.80391 0.44251,9.06003 10.74615,20.79271 23.33298,20.79271 13.28272,0 23.3864,-11.39864 24.30348,-20.79271 0.3074,-3.14887 1.80895,-11.64346 -10.14674,-23.61162 -3.22015,-3.22351 0.33308,-5.13337 4.75629,-3.64649 10.53618,3.54179 17.6143,16.72992 24.99676,27.25811 7.38246,10.52819 14.46058,23.71632 24.99676,27.25811 4.42321,1.48688 7.97644,-0.42298 4.75629,-3.64649 -11.95569,-11.96816 -10.45414,-20.46275 -10.14674,-23.61162 0.91708,-9.39407 11.02076,-20.79271 24.30348,-20.79271 12.58683,0 22.89047,11.73268 23.33298,20.79271 0.23148,4.7394 -1.81387,10.91558 -8.88074,19.80391 -1.92311,2.41878 1.77345,5.14612 3.27405,3.56722 10.02849,-10.5517 15.93686,-12.81595 24.09986,-12.62271 C 333.09758,227.4582 342.5,237.69648 342.5,251.5 c 0,13.80352 -9.40242,24.0418 -18.26406,24.25158 -8.163,0.19324 -14.07137,-2.07101 -24.09986,-12.62271 -1.5006,-1.5789 -5.19716,1.14844 -3.27405,3.56722 7.06687,8.88832 9.11222,15.06451 8.88074,19.80391 -0.44251,9.06003 -10.74615,20.79271 -23.33298,20.79271 -13.28272,0 -23.3864,-11.39864 -24.30348,-20.79271 -0.3074,-3.14887 -1.80895,-11.64346 10.14674,-23.61162 3.22015,-3.22351 -0.33308,-5.13337 -4.75629,-3.64649 -10.53618,3.54179 -17.6143,16.72992 -24.99676,27.25811 -7.38246,10.52819 -14.46058,23.71632 -24.99676,27.25811 -4.42321,1.48688 -7.97644,-0.42298 -4.75629,-3.64649 11.95569,-11.96816 10.45414,-20.46275 10.14674,-23.61162 -0.91708,-9.39407 -11.02076,-20.79271 -24.30348,-20.79271 -12.58683,0 -22.89047,11.73268 -23.33298,20.79271 -0.23148,4.7394 1.81387,10.91558 8.88074,19.80391 1.92311,2.41878 -1.77345,5.14612 -3.27405,3.56722 -10.02849,-10.5517 -15.93686,-12.81595 -24.09986,-12.62271 C 143.90242,297.4582 134.5,307.69648 134.5,321.5 c 0,13.80352 9.40242,24.0418 18.26406,24.25158 8.163,0.19324 14.07137,-2.07101 24.09986,-12.62271 1.5006,-1.5789 5.19716,1.14844 3.27405,3.56722 -7.06687,8.88832 -9.11222,15.06451 -8.88074,19.80391 0.44251,9.06003 10.74615,20.79271 23.33298,20.79271 13.28272,0 23.3864,-11.39864 24.30348,-20.79271 0.3074,-3.14887 1.80895,-11.64346 -10.14674,-23.61162 -3.22015,-3.22351 0.33308,-5.13337 4.75629,-3.64649 10.53618,3.54179 17.6143,16.72992 24.99676,27.25811 7.38246,10.52819 14.46058,23.71632 24.99676,27.25811 4.42321,1.48688 7.97644,-0.42298 4.75629,-3.64649 -11.95569,-11.96816 -10.45414,-20.46275 -10.14674,-23.61162 0.91708,-9.39407 11.02076,-20.79271 24.30348,-20.79271 12.58683,0 22.89047,11.73268 23.33298,20.79271 0.23148,4.7394 -1.81387,10.91558 -8.88074,19.80391 -1.92311,2.41878 1.77345,5.14612 3.27405,3.56722 10.02849,-10.5517 15.93686,-12.81595 24.09986,-12.62271 C 333.09758,367.4582 342.5,377.69648 342.5,391.5 c 0,13.80352 -9.40242,24.0418 -18.26406,24.25158 -8.163,0.19324 -14.07137,-2.07101 -24.09986,-12.62271 -1.5006,-1.5789 -5.19716,1.14844 -3.27405,3.56722 7.06687,8.88832 9.11222,15.06451 8.88074,19.80391 -0.44251,9.06003 -10.74615,20.79271 -23.33298,20.79271 -13.28272,0 -23.3864,-11.39864 -24.30348,-20.79271 -0.3074,-3.14887 -1.80895,-11.64346 10.14674,-23.61162 3.22015,-3.22351 -0.33308,-5.13337 -4.75629,-3.64649 -10.53618,3.54179 -17.6143,16.72992 -24.99676,27.25811 -7.38246,10.52819 -14.46058,23.71632 -24.99676,27.25811 -4.42321,1.48688 -7.97644,-0.42298 -4.75629,-3.64649 11.95569,-11.96816 10.45414,-20.46275 10.14674,-23.61162 -0.91708,-9.39407 -11.02076,-20.79271 -24.30348,-20.79271 -12.58683,0 -22.89047,11.73268 -23.33298,20.79271 -0.23148,4.7394 1.81387,10.91558 8.88074,19.80391 1.92311,2.41878 -1.77345,5.14612 -3.27405,3.56722 -10.02849,-10.5517 -15.93686,-12.81595 -24.09986,-12.62271 -2.69589,0.0638 -5.44183,1.05578 -7.95786,2.79389"
     style="fill:none;fill-opacity:1;fill-rule:evenodd;stroke:#000000;stroke-width:1px;stroke-linecap:butt;stroke-linejoin:miter;stroke-opacity:1" /><path
     style="fill:none;stroke:#000000"
     d="m 440,32.7 c 2.09,102.46 -3.38,187.49 -43.93,296.59 C 368.02,404.77 321.86,474.06 240.5,530.88 159.14,474.06 112.98,404.77 84.93,329.29 44.38,220.19 38.91,135.16 41,32.7 c 133,0.29 266,0 399,0 z"
     id="path4224" /></svg>