<?xml version="1.0" encoding="UTF-8" standalone="no"?>
<svg
   xmlns:dc="http://purl.org/dc/elements/1.1/"
   xmlns:cc="http://creativecommons.org/ns#"
   xmlns:rdf="http://www.w3.org/1999/02/22-rdf-syntax-ns#"
   xmlns:svg="http://www.w3.org/2000/svg"
   xmlns="http://www.w3.org/2000/svg"
   xml:space="preserve"
   enable-background="new 30.5 31.5 412 533"
   viewBox="30.5 31.5 400 500"
   height="500"
   width="400"
   y="0"
   x="0"
   version="1.1"
   id="svg2"><metadata
     id="metadata4"><rdf:RDF><cc:Work
         rdf:about=""><dc:format>
          
          
          
          image/svg+xml
        
        
        
        </dc:format><dc:type
           rdf:resource="http://purl.org/dc/dcmitype/StillImage" /><dc:title></dc:title></cc:Work></rdf:RDF></metadata><defs
     id="defs6" /><path
     d="M 230.56,531.14 C 304.88,477.22 355.82,409.12 386.3,322.98 413.94,244.88 425.03,150.23 420.21,33.63 l -0.02,-0.46 -379.82,0 -0.02,0.46 c -4.81,116.6 6.28,211.24 33.91,289.35 30.48,86.14 81.42,154.24 155.74,208.16 l 0.28,0.2 0.28,-0.2 z"
     id="path8"
     style="fill:#32ac60" /><path
     d="m 332.16117,103.26851 c -1.12208,-9.229789 -4.45999,-13.702571 -1.66445,-16.615936 5.1668,-5.384559 8.92589,-11.593883 10.37206,-13.699496 1.66639,-2.426241 9.69708,-0.140658 14.79768,1.345894 2.54542,0.741855 1.32382,6.936545 1.10244,10.637361 -0.16255,2.717474 -4.94807,12.515938 -6.5123,22.083497 -4.04819,24.76062 1.00809,47.33748 2.31948,71.21925 2.71852,49.50681 4.55702,111.86703 -14.03344,153.30408 -4.76346,10.61748 -10.36532,20.87666 -15.20276,28.31564 -4.02877,6.19543 -14.06891,-9.20522 -12.62259,-14.57458 3.03589,-11.27052 9.27157,-12.33621 8.27279,-19.59261 -0.69881,-5.07701 -1.63712,-11.87869 0.25564,-15.69894 3.82765,-7.72556 5.52364,-12.34245 -3.71588,-12.87282 -3.31069,-0.19004 0.33944,-6.29822 5.46472,-14.57167 2.46396,-3.97743 -10.08782,-0.16959 -8.39547,-3.3468 3.0613,-5.74729 4.78572,-9.34449 7.32986,-13.39484 1.94621,-3.09842 -9.8591,0.99226 -8.27129,-1.44363 4.80052,-7.36455 5.99053,-10.1373 8.8948,-14.53527 2.44536,-3.70306 -11.07817,1.84762 -8.49834,-1.84004 4.52947,-6.47452 6.75019,-9.54962 9.03838,-12.87766 4.09728,-5.95924 -10.71656,-0.3834 -8.88007,-2.99985 5.12489,-7.30142 6.84194,-12.79454 9.16336,-16.22768 2.27449,-3.36374 -10.09707,0.97423 -8.72694,-1.17232 3.14775,-4.93153 5.76005,-9.54908 7.94975,-13.16988 2.3486,-3.88356 -9.05,-0.90016 -7.73756,-2.83349 4.81599,-7.09435 6.22968,-11.14335 8.49952,-14.57112 1.93611,-2.92379 -8.57461,0.76081 -7.49286,-1.14504 4.41203,-7.77323 6.34669,-11.98823 8.26582,-14.9731 2.3944,-3.72407 -9.89026,0.34817 -8.00655,-2.03527 5.48125,-6.93537 7.44344,-10.8388 9.67051,-14.2515 1.71506,-2.62811 -9.28586,0.56292 -8.06137,-1.18866 4.78566,-6.84565 6.69577,-8.78442 9.5144,-13.19331 2.19678,-3.43618 -13.50052,0.0494 -8.76029,-4.14645 10.15575,-8.98944 17.47741,-15.07456 15.67095,-29.93376 z"
     id="path4669"
     style="fill:#ffffff;stroke:#000000;stroke-linecap:round;stroke-linejoin:round;stroke-opacity:1" /><path
     d="m 350.32108,84.720499 a 4.053285,3.9679526 0 0 1 -8.10657,0 4.053285,3.9679526 0 1 1 8.10657,0 z"
     id="path4671"
     style="opacity:0.98999999;fill:#32ac60;fill-opacity:1;fill-rule:nonzero;stroke:#000000;stroke-width:1;stroke-miterlimit:4;stroke-dasharray:none;stroke-opacity:1" /><path
     d="m 325.60579,346.35235 a 4.053285,3.9679526 0 0 1 -8.10657,0 4.053285,3.9679526 0 1 1 8.10657,0 z"
     id="path4673"
     style="opacity:0.98999999;fill:#32ac60;fill-opacity:1;fill-rule:nonzero;stroke:#000000;stroke-width:1;stroke-miterlimit:4;stroke-dasharray:none;stroke-opacity:1" /><path
     style="fill:#ffffff;stroke:#000000;stroke-linecap:round;stroke-linejoin:round;stroke-opacity:1"
     id="path2849"
     d="m 144.16117,103.26851 c -1.12208,-9.229789 -4.45999,-13.702571 -1.66445,-16.615936 5.1668,-5.384559 8.92589,-11.593883 10.37206,-13.699496 1.66639,-2.426241 9.69708,-0.140658 14.79768,1.345894 2.54542,0.741855 1.32382,6.936545 1.10244,10.637361 -0.16255,2.717474 -4.94807,12.515938 -6.5123,22.083497 -4.04819,24.76062 1.00809,47.33748 2.31948,71.21925 2.71852,49.50681 4.55702,111.86703 -14.03344,153.30408 -4.76346,10.61748 -10.36532,20.87666 -15.20276,28.31564 -4.02877,6.19543 -14.06891,-9.20522 -12.62259,-14.57458 3.03589,-11.27052 9.27157,-12.33621 8.27279,-19.59261 -0.69881,-5.07701 -1.63712,-11.87869 0.25564,-15.69894 3.82765,-7.72556 5.52364,-12.34245 -3.71588,-12.87282 -3.31069,-0.19004 0.33944,-6.29822 5.46472,-14.57167 2.46396,-3.97743 -10.08782,-0.16959 -8.39547,-3.3468 3.0613,-5.74729 4.78572,-9.34449 7.32986,-13.39484 1.94621,-3.09842 -9.8591,0.99226 -8.27129,-1.44363 4.80052,-7.36455 5.99053,-10.1373 8.8948,-14.53527 2.44536,-3.70306 -11.07817,1.84762 -8.49834,-1.84004 4.52947,-6.47452 6.75019,-9.54962 9.03838,-12.87766 4.09728,-5.95924 -10.71656,-0.3834 -8.88007,-2.99985 5.12489,-7.30142 6.84194,-12.79454 9.16336,-16.22768 2.27449,-3.36374 -10.09707,0.97423 -8.72694,-1.17232 3.14775,-4.93153 5.76005,-9.54908 7.94975,-13.16988 2.3486,-3.88356 -9.05,-0.90016 -7.73756,-2.83349 4.81599,-7.09435 6.22968,-11.14335 8.49952,-14.57112 1.93611,-2.92379 -8.57461,0.76081 -7.49286,-1.14504 4.41203,-7.77323 6.34669,-11.98823 8.26582,-14.9731 2.3944,-3.72407 -9.89026,0.34817 -8.00655,-2.03527 5.48125,-6.93537 7.44344,-10.8388 9.67051,-14.2515 1.71506,-2.62811 -9.28586,0.56292 -8.06137,-1.18866 4.78566,-6.84565 6.69577,-8.78442 9.5144,-13.19331 2.19678,-3.43618 -13.50052,0.0494 -8.76029,-4.14645 10.15575,-8.98944 17.47741,-15.07456 15.67095,-29.93376 z" /><path
     style="opacity:0.98999999;fill:#32ac60;fill-opacity:1;fill-rule:nonzero;stroke:#000000;stroke-width:1;stroke-miterlimit:4;stroke-dasharray:none;stroke-opacity:1"
     id="path2855"
     d="m 162.32108,84.720499 a 4.053285,3.9679526 0 0 1 -8.10657,0 4.053285,3.9679526 0 1 1 8.10657,0 z" /><path
     style="fill:#ffffff;fill-opacity:1;stroke:#000000;stroke-linecap:round;stroke-linejoin:round;stroke-opacity:1"
     id="path3679"
     d="m 236.32722,108.21631 c 1.76223,-5.14657 2.25282,-6.35447 -2.07962,-20.546954 -1.21231,-3.971372 4.30539,-8.274062 10.91789,-15.386915 1.63872,-1.762721 7.48741,-0.709466 12.95261,0.643538 3.50996,0.868948 5.09598,6.972716 5.24692,9.258429 0.36783,5.57018 -4.38705,14.842686 -5.78484,24.358712 -7.66396,52.17539 4.71906,142.63823 1.83751,211.58716 -1.52188,36.41513 -8.85568,64.29395 -16.33656,85.51556 -4.3978,12.47558 -9.78918,23.93243 -14.66178,30.7697 -2.12234,2.97809 -3.45338,7.00906 -10.25043,1.04795 -3.39226,-2.97506 -6.41816,-7.50683 -3.02488,-14.95085 3.69033,-8.09568 8.53322,-14.59216 9.61624,-32.01812 0.75066,-12.07817 -10.51264,-6.40515 -7.54037,-10.56923 4.73045,-6.62723 4.34483,-7.28603 7.36807,-12.12794 1.78832,-2.86412 -9.40157,-0.64636 -7.8825,-3.24315 5.07014,-8.66721 6.50234,-11.90559 8.24678,-15.17985 1.51604,-2.84556 -9.55026,0.72961 -8.24055,-1.18493 4.62695,-6.76371 5.80603,-10.0296 7.97793,-14.08033 1.19458,-2.22797 -9.99298,1.78864 -8.86873,-0.17413 3.71881,-6.49247 6.86505,-12.83324 7.95575,-15.03736 1.17401,-2.37248 -10.61203,2.5287 -8.46813,-1.5258 5.11013,-9.66415 5.67517,-11.82477 7.45486,-15.5907 1.98043,-4.19069 -9.46109,0.94658 -6.85728,-2.95263 5.64513,-8.45359 7.90674,-12.42782 8.45208,-13.77147 1.0265,-2.52917 -10.59484,2.28168 -7.99652,-1.87403 5.3804,-8.6053 7.47283,-11.89881 8.67909,-16.00821 0.52892,-1.80187 -9.59557,1.67555 -8.06949,-0.87272 5.14459,-8.5905 7.39987,-14.46429 7.6842,-16.13182 0.37535,-2.20133 -9.36906,1.5926 -7.57449,-1.42823 4.30566,-7.24775 5.55337,-9.6124 7.2857,-14.11309 0.5784,-1.50271 -9.23855,1.20486 -7.80523,-0.98087 5.07643,-7.74124 7.70249,-11.19774 8.75698,-13.24263 1.41537,-2.74471 -9.57992,0.39648 -7.33963,-2.69919 5.93973,-8.20764 6.35325,-9.34411 9.00342,-13.90738 2.37668,-4.09235 -11.02115,0.27372 -8.26466,-4.02587 4.1327,-6.44623 6.11515,-8.44756 8.08512,-11.69521 2.5734,-4.24245 -9.42304,-0.83057 -7.35092,-3.78884 4.2762,-6.10492 4.95188,-8.21009 6.94396,-11.56289 2.1535,-3.62447 -9.3226,-0.75801 -7.43722,-3.21167 5.97401,-7.77467 6.98394,-9.20533 9.19741,-12.52705 2.21612,-3.32569 -10.41974,-1.12231 -9.15514,-2.67119 5.88763,-7.21118 8.14628,-10.21071 9.74986,-12.65716 2.44371,-3.72817 -7.93733,-2.15423 -6.90652,-3.90689 4.58865,-7.80195 9.07286,-11.73514 14.48311,-27.53575 z" /><path
     style="opacity:0.98999999;fill:#32ac60;fill-opacity:1;fill-rule:nonzero;stroke:#000000;stroke-width:1;stroke-miterlimit:4;stroke-dasharray:none;stroke-opacity:1"
     id="path2855-7-9"
     d="m 255.0699,82.740267 a 4.0925859,4.0064261 0 0 1 -8.18517,0 4.0925859,4.0064261 0 1 1 8.18517,0 z" /><path
     style="opacity:0.98999999;fill:#32ac60;fill-opacity:1;fill-rule:nonzero;stroke:#000000;stroke-width:1;stroke-miterlimit:4;stroke-dasharray:none;stroke-opacity:1"
     id="path2855-7-9-7"
     d="m 227.66944,425.57136 a 4.053281,3.9679488 0 1 1 -8.10656,0 4.053281,3.9679488 0 1 1 8.10656,0 z" /><path
     style="opacity:0.98999999;fill:#32ac60;fill-opacity:1;fill-rule:nonzero;stroke:#000000;stroke-width:1;stroke-miterlimit:4;stroke-dasharray:none;stroke-opacity:1"
     id="path2855-9"
     d="m 137.60579,346.35235 a 4.053285,3.9679526 0 0 1 -8.10657,0 4.053285,3.9679526 0 1 1 8.10657,0 z" /><path
     d="M 41.04,33.21 C 31.97,252.66 77.3,419.16 230.5,530.31 383.69,419.16 429.01,252.66 419.94,33.21 l -189.45,0 -189.45,0 m -0.92,-0.95 0.92,0 189.45,0 189.45,0 0.92,0 0.04,0.92 c 4.82,116.66 -6.28,211.36 -33.93,289.52 -30.51,86.24 -81.51,154.41 -155.91,208.39 l -0.56,0.41 -0.56,-0.41 C 155.54,477.11 104.54,408.94 74.03,322.7 46.38,244.54 35.28,149.84 40.1,33.18 l 0.04,-0.92 0,0 z"
     id="path10" /></svg>