<?xml version="1.0" encoding="UTF-8" standalone="no"?>
<!-- Created with Inkscape (http://www.inkscape.org/) -->
<!DOCTYPE svg PUBLIC "-//W3C//DTD SVG 1.1//EN"
	"http://www.w3.org/Graphics/SVG/1.1/DTD/svg11.dtd">
<svg
   xmlns:dc="http://purl.org/dc/elements/1.1/"
   xmlns:cc="http://creativecommons.org/ns#"
   xmlns:rdf="http://www.w3.org/1999/02/22-rdf-syntax-ns#"
   xmlns:svg="http://www.w3.org/2000/svg"
   xmlns="http://www.w3.org/2000/svg"
   version="1.1"
   width="1800"
   height="1200.0002"
   id="svg2">
  <defs
     id="defs2509" />
  <g
     id="g3495">
    <path
       d="m 1800,0 -900,0 0,599.99995 900,0 L 1800,0 z"
       id="path3482"
       style="fill:#e9cc0c;fill-opacity:1;fill-rule:evenodd;stroke:none;display:inline" />
    <g
       transform="matrix(0.07588125,0,0,0.0759111,1276.8623,-404.41321)"
       id="g20"
       style="fill-rule:evenodd;display:inline">
      <path
         d="m 2076,10357 199,121 221,108 159,48 139,-30 184,-178 130,-108 147,0 103,111 18,106 -9,27 -55,0 -47,-34 -17,47 -40,42 -69,27 -45,-12 -38,-38 -4,29 -67,72 242,-63 179,-66 120,-8 125,85 34,127 -17,147 -31,41 -51,-156 -33,-53 -24,-3 -3,70 -41,60 -67,46 -87,0 -68,-65 -24,-60 -84,63 -173,65 113,24 274,12 135,72 61,130 -21,151 -102,132 -17,-161 -39,-66 -30,76 -39,46 -89,16 -89,-52 -46,-99 17,-82 -33,10 -109,-4 -233,-74 -63,38 -46,52 -12,120 -30,51 -64,22 -56,-6 -59,-55 42,189 -27,0 -72,-43 -103,-105 -27,-103 33,-72 202,-178 24,-75 -168,-88 -190,-60 -200,-3 -33,-184 -102,-133 292,-66 z"
         id="path22"
         style="fill:#ba2b1a" />
      <path
         d="m 4,10389 -174,-7 -282,192 -181,80 -156,21 -130,-72 -119,-203 -95,-76 -141,15 -58,79 -36,120 11,68 40,-25 40,-51 11,66 39,61 29,15 102,-40 7,40 65,65 90,29 -94,21 -492,-199 -94,4 -94,98 -36,94 4,202 43,44 69,-145 36,91 61,36 76,-18 55,-55 7,-43 101,47 145,22 -127,47 -112,18 -123,7 -79,109 -33,130 76,166 72,73 11,-178 65,76 134,-25 58,-80 -11,-94 348,-134 155,40 -72,102 11,76 83,43 50,0 62,-29 25,25 11,87 -7,69 80,-53 68,-136 -31,-181 -160,-178 170,-121 209,-76 185,-29 33,-330 z"
         id="path24"
         style="fill:#ba2b1a" />
      <path
         d="m 803,7152 c 216,67 23,404 -194,351 -121,-29 -421,-149 -425,144 65,-38 120,-43 152,-33 46,15 130,87 177,108 -18,38 -123,105 -129,157 -102,-110 -172,-116 -191,-130 -58,-43 -217,-10 -291,-21 -237,-35 -425,-372 -319,-606 10,37 93,78 121,106 24,25 124,65 172,42 -120,-143 -164,-211 -154,-339 15,-170 130,-362 209,-499 201,-350 -171,-623 -467,-531 -166,51 -427,160 -575,57 -214,-149 -316,-219 -466,-70 103,8 175,15 224,97 25,41 142,242 239,253 -119,81 -270,276 -391,397 -57,57 -130,124 -219,132 -86,8 -124,-35 -177,-74 -37,170 75,436 258,448 288,20 371,-145 457,-215 -6,33 -268,323 -300,360 -72,80 -207,332 -419,168 -34,160 7,307 181,383 200,87 518,-167 626,-324 -63,134 -309,434 -362,490 -63,68 -163,171 -230,218 -86,60 -161,12 -198,-38 -23,206 40,410 215,435 116,17 231,-9 349,-100 8,-6 303,-368 357,-421 -63,129 -335,540 -425,644 -67,77 -224,221 -319,285 -43,29 -137,-1 -186,-62 1,168 19,319 146,405 152,102 370,48 536,-119 234,-235 515,-738 587,-844 -54,199 -374,856 -485,1006 -103,139 -334,312 -465,420 -52,43 -160,44 -318,-43 31,573 663,454 828,286 464,-472 598,-776 798,-1211 -23,231 -53,314 -104,527 -24,101 -87,277 -134,362 -28,50 -133,166 -206,236 573,61 902,-139 924,-885 35,74 232,511 213,577 -132,182 -271,381 -382,460 -180,127 -293,61 -471,31 36,115 235,281 410,271 -42,87 -33,368 -27,474 6,110 140,380 190,459 -15,-301 133,-497 333,-673 37,189 176,451 255,673 64,178 37,507 -247,522 -79,4 -175,-67 -205,-116 -54,-88 29,-153 41,-224 5,-26 -226,-9 -305,71 -103,104 -132,181 -112,291 -285,-159 -772,-498 -1167,-198 -338,256 -428,645 -178,900 -40,-134 -41,-433 341,-375 395,59 477,381 993,460 409,62 633,-37 953,-416 13,128 -133,341 -214,440 -10,12 180,24 218,-1 9,37 98,123 127,149 106,-100 98,-147 112,-151 43,21 123,20 221,-24 -166,-117 -234,-332 -219,-413 220,252 378,432 776,432 139,0 325,-60 444,-103 59,-21 290,-167 335,-211 168,-167 498,-328 663,-74 36,56 56,116 49,234 73,-226 90,-312 22,-572 -41,-157 -362,-377 -575,-377 -205,-8 -348,59 -524,143 -121,57 -102,131 -241,131 60,-186 23,-208 -35,-282 -89,-113 -248,-100 -399,-38 0,6 121,80 115,149 -6,78 -62,131 -192,148 -142,19 -330,-113 -343,-240 -41,-400 262,-624 262,-959 166,165 352,414 395,620 46,-106 86,-258 86,-431 0,-152 49,-360 -97,-428 184,1 512,-130 596,-281 -392,0 -452,-58 -619,-168 -128,-85 -176,-219 -269,-311 79,-219 173,-459 210,-688 24,309 137,788 436,930 106,50 433,57 480,-62 -273,-116 -408,-918 -452,-1091 21,109 318,710 447,920 150,243 435,533 739,533 197,0 461,-264 382,-515 -105,173 -343,87 -386,45 -294,-286 -587,-771 -723,-1107 124,206 394,670 638,749 168,55 541,-94 492,-444 -31,9 -193,112 -260,53 -311,-271 -559,-708 -683,-903 l 420,414 c 64,63 159,78 259,50 153,-41 288,-223 265,-401 3,10 -114,102 -194,47 -175,-122 -625,-679 -689,-825 7,-5 324,422 560,433 159,7 400,-210 316,-401 -318,229 -655,-451 -813,-645 120,76 382,318 580,306 139,-9 340,-207 264,-382 -211,112 -317,-47 -442,-171 -92,-92 -207,-240 -319,-345 76,-73 70,-59 147,-138 57,-59 209,-193 313,-188 -309,-224 -534,111 -713,127 -181,15 -647,-359 -849,12 -56,102 -44,237 -30,285 38,135 149,289 208,408 44,91 68,210 68,321 0,88 -51,158 -85,222 92,-14 97,-39 145,-94 30,-35 82,-83 109,-159 75,156 144,423 -113,669 -100,96 -207,53 -359,29 -65,-11 -163,29 -247,60 -39,14 -105,106 -105,100 -105,-216 96,-503 142,-652 88,-284 -3,-355 -105,-480 52,31 81,22 139,22 55,0 108,-113 122,-156 -165,83 -204,-3 -314,-162 -42,-60 -162,-141 -217,-156 l -798,-2 5,29 72,40 17,66 -17,57 -67,58 118,118 294,101 69,94 -7,138 -60,108 -99,65 -46,37 z"
         id="path26"
         style="fill:#000000" />
      <path
         d="m 1952,10586 -8,-65 c 14,27 44,74 75,84 35,10 81,19 117,25 22,4 -19,11 -25,12 -23,5 -155,-24 -159,-56 z"
         id="path28"
         style="fill:#000000" />
      <path
         d="m 1912,10726 12,32 c 94,-23 304,25 345,47 69,37 191,86 191,109 0,30 -82,98 -148,151 -86,70 -146,150 -86,267 26,50 235,212 293,159 -61,-14 -83,-117 -84,-166 38,36 119,48 177,-5 58,-53 32,-120 51,-178 6,-19 23,-37 39,-52 51,-51 246,78 379,66 -58,87 90,218 136,218 88,0 143,-24 176,-119 25,68 32,150 20,223 87,-57 176,-188 176,-262 0,-119 -62,-228 -168,-254 -169,-43 -344,-27 -520,-48 21,3 -40,1 -16,9 35,11 103,33 194,36 126,4 224,3 325,34 68,21 235,185 48,425 0,-74 3,-146 -33,-184 -32,-34 -16,-117 24,-149 -74,13 -61,99 -74,144 -20,64 -60,103 -120,101 -37,-1 -102,-43 -116,-78 -19,-46 -24,-138 25,-172 -56,9 -70,41 -110,39 -54,-4 -250,-57 -304,-77 -49,-19 -64,15 -93,55 -20,27 -73,37 -90,-6 -22,51 62,41 45,141 -8,52 -26,70 -62,82 -68,23 -67,2 -109,-42 -34,-35 -51,-107 -150,-89 34,21 92,58 97,81 12,58 54,120 35,185 -55,-1 -165,-148 -180,-196 -42,-139 220,-204 240,-311 2,-15 16,-44 7,-59 -21,-33 -183,-116 -370,-159 -49,-11 -166,-3 -202,2 z"
         id="path30"
         style="fill:#000000" />
      <path
         d="m 2754,10740 -47,-18 c 30,0 53,-5 79,-6 191,-6 312,-58 501,-133 101,-39 241,-69 335,3 104,80 126,346 1,403 -17,-74 -48,-217 -81,-217 4,72 -86,165 -159,168 -76,4 -130,-55 -150,-112 -45,58 -209,109 -278,109 -92,0 -153,-64 -215,-97 54,1 92,22 127,42 111,64 362,-41 375,-146 15,45 17,85 58,127 82,82 144,51 202,-26 14,-19 18,-76 15,-111 -3,-21 -11,-36 -11,-60 0,-15 5,-27 15,-33 14,24 -2,79 28,98 42,29 74,151 98,188 12,-40 18,-109 20,-132 10,-159 -142,-255 -322,-192 -150,54 -324,152 -482,156 -34,0 -90,-4 -109,-11 z"
         id="path32"
         style="fill:#000000" />
      <path
         d="m 2096,10355 -30,18 c 127,91 491,304 647,281 94,-14 161,-92 224,-158 49,-52 104,-113 162,-147 96,-56 255,31 259,206 -45,9 -56,-9 -75,-30 -41,-45 -90,-63 -52,-139 -22,7 -31,9 -34,61 -2,41 51,70 48,98 -4,38 -64,103 -129,82 -32,-11 -56,-68 -99,-62 22,9 34,32 28,52 -11,37 -73,63 -94,68 -42,10 -144,34 -201,43 249,3 289,-50 316,-109 16,30 58,49 102,34 47,-16 84,-58 110,-103 11,30 99,43 107,-10 21,-134 -65,-257 -197,-257 -157,0 -235,131 -320,227 -151,172 -320,92 -480,-5 -113,-68 -213,-99 -292,-150 z"
         id="path34"
         style="fill:#000000" />
      <path
         d="m 459,5774 -66,14 80,170 56,278 779,5 39,-206 98,-278 -92,33 -84,76 -94,8 -31,50 -67,-78 -55,-5 -56,-126 -89,-8 -95,111 -25,25 -61,23 -28,39 -75,-48 -45,-5 -89,-78 z"
         id="path36"
         style="fill:#e9cc0c" />
      <path
         d="m -20,10541 -3,-53 c -14,40 -54,84 -88,104 -20,11 -76,6 -97,-9 2,8 24,27 28,30 22,11 56,11 82,2 23,-8 76,-74 78,-74 z"
         id="path38"
         style="fill:#000000" />
      <path
         d="m 553,6252 -51,1 c 0,-42 -11,-83 -14,-121 -4,-41 -13,-111 -28,-161 -25,-87 -125,-202 -80,-213 77,-17 133,19 178,79 21,-1 78,-1 101,42 24,-42 59,-59 101,-61 8,-15 14,-30 19,-38 25,-39 69,-103 126,-100 57,2 81,29 105,74 12,21 22,48 26,70 31,-3 51,4 69,11 13,6 35,26 44,41 11,-17 19,-26 41,-32 20,-5 21,-8 74,1 25,-30 55,-53 91,-75 20,-13 39,-21 64,-26 31,-7 59,0 55,14 -5,21 -41,72 -58,118 -40,108 -81,245 -86,368 l -39,-1 c 11,-111 37,-236 73,-335 14,-40 29,-72 53,-111 -3,-32 -87,33 -106,57 -13,14 -21,50 -43,38 -27,-14 -39,-17 -65,2 -33,31 -37,37 -35,78 0,17 14,31 21,38 7,7 27,24 60,29 10,2 0,26 -4,27 -22,6 -54,-10 -68,-17 -12,-6 -37,-19 -53,-38 -27,14 -64,31 -86,37 -27,7 -48,-2 -33,-18 14,-14 32,-15 50,-21 18,-6 32,-18 46,-46 6,-13 15,-30 6,-64 -4,-15 -35,-33 -53,-37 -12,-2 -34,-3 -41,-10 -12,-12 -16,-18 -18,-31 -1,-15 -7,-28 -13,-39 -12,-23 -36,-61 -71,-61 -24,0 -54,26 -76,54 -16,22 -25,47 -39,67 -1,2 -8,17 -27,17 -36,-6 -70,10 -71,73 0,42 2,40 22,61 23,24 50,32 68,43 8,5 -2,21 -12,22 -17,1 -50,-8 -66,-18 -19,-11 -25,-31 -38,-37 -27,2 -45,49 -101,59 -49,9 -18,-22 -3,-39 41,-46 87,-30 69,-115 -7,-31 -53,-33 -84,-34 -38,-1 -35,-45 -80,-69 -29,-16 -35,-13 -51,-11 -16,3 4,36 12,44 13,13 16,18 23,31 10,20 17,44 24,59 2,4 9,19 18,63 9,56 15,71 27,133 7,39 19,82 27,128 z"
         id="path40"
         style="fill:#000000" />
      <path
         d="m 506,6222 825,-1 1,30 -830,0 4,-29 z"
         id="path42"
         style="fill:#000000" />
      <path
         d="m 935,6129 386,0"
         id="path44"
         style="fill:none;stroke:#000000;stroke-width:28;stroke-linecap:round" />
      <path
         d="m 736,7033 c -173,-114 -405,12 -573,-18 -178,-33 -346,-129 -210,-370 98,158 226,176 455,178 165,1 329,26 442,117 -10,33 -60,80 -114,93 z"
         id="path46"
         style="fill:#000000" />
      <path
         d="m -46,6689 c -84,146 31,247 185,291 151,43 243,-16 438,-17 77,0 158,17 181,35 45,-16 69,-53 65,-56 -51,-39 -156,-65 -208,-75 -191,-41 -233,-9 -378,-21 C 46,6829 13,6780 -46,6689 z"
         id="path48"
         style="fill:#ba2b1a" />
      <path
         d="m 561,6495 c 17,49 95,103 165,127 71,24 166,37 239,82 133,81 64,304 -47,393 -78,63 -293,86 -447,167 -8,4 -19,-15 -21,-20 -8,-22 50,-100 68,-121 89,-109 338,-89 336,-224 -1,-99 -276,-103 -331,-156 -79,-76 -189,-166 -210,-28 -48,-90 -59,-83 -77,-123 -31,-71 -26,-131 -5,-173 29,-55 76,-64 138,-74 28,-56 83,-92 133,-98 48,-6 107,34 121,84 14,45 12,102 -62,164 z"
         id="path50"
         style="fill:#000000" />
      <path
         d="m 475,6463 c 172,22 161,-178 27,-178 -62,0 -84,58 -104,97 -41,1 -156,-7 -152,119 2,45 34,110 54,132 84,-101 180,50 253,87 36,18 105,34 175,49 108,25 201,91 114,211 -57,78 -271,59 -338,195 -40,81 12,36 77,17 231,-67 432,-125 423,-357 -5,-137 -298,-177 -356,-217 -38,-27 -176,-137 -173,-155 z"
         id="path52"
         style="fill:#ba2b1a" />
      <path
         d="m 911,6396 -150,-16 -124,-6 c -20,64 -26,175 48,209 48,22 142,25 181,-25 33,-43 41,-106 45,-162 z"
         id="path54"
         style="fill:#000000" />
      <path
         d="m 882,6397 -118,-17 -102,-5 c -1,55 -39,171 66,192 142,29 158,-110 154,-170 z"
         id="path56"
         style="fill:#ffffff" />
      <path
         d="m 805,6394 -42,-15 -30,-1 c -25,21 -39,68 -31,95 8,24 30,48 60,46 37,-1 61,-51 54,-47 -76,46 -113,-76 -11,-78 z"
         id="path58"
         style="fill:#000000" />
      <path
         d="m 631,6369 c 138,1 265,20 419,25 3,6 1,11 -8,12 -40,9 -180,1 -198,-2 -41,-6 -174,-12 -216,-16 -6,-1 2,-18 3,-19 z"
         id="path60"
         style="fill:#000000" />
      <path
         d="m -132,10389 -38,-22 c -178,128 -593,446 -762,178 -76,-120 -80,-246 -252,-241 -173,6 -205,182 -185,324 28,2 69,-30 82,-63 5,35 24,97 72,116 35,14 72,-27 103,-26 36,113 188,147 276,82 -80,11 -140,35 -221,-46 -34,-34 -30,-39 -22,-89 -38,28 -112,55 -122,51 -27,-13 -75,-53 -55,-116 9,-28 136,-66 52,-161 39,87 -117,134 -134,212 -19,-28 -10,-119 34,-181 22,-30 58,-48 90,-56 128,-31 173,99 243,212 49,79 115,133 197,132 224,-3 481,-193 642,-306 z"
         id="path62"
         style="fill:#000000" />
      <path
         d="m -1071,10956 c 41,-11 137,-93 174,-108 -45,24 -230,107 -269,102 -68,-8 -211,-22 -206,-96 3,-43 -28,-75 -64,-75 56,34 32,122 5,173 -27,51 -94,42 -133,20 -119,-70 70,-258 -83,-268 47,40 24,111 20,131 -7,37 -51,118 -81,149 -40,-46 -41,-355 146,-375 84,-8 359,149 434,173 30,9 57,15 82,19 96,13 169,-45 205,-61 -61,15 -146,32 -223,14 -87,-21 -175,-73 -234,-105 -159,-87 -229,-92 -244,-92 -98,-5 -197,114 -212,212 -11,69 -35,231 36,272 16,10 25,21 43,22 -6,-74 32,-125 45,-144 10,50 30,69 53,90 35,31 149,24 197,-89 20,16 101,49 177,52 36,1 102,-8 132,-16 z"
         id="path64"
         style="fill:#000000" />
      <path
         d="m -1437,11544 c -18,-19 -29,-162 -11,-152 21,34 37,43 74,43 77,0 193,-48 189,-145 -1,-15 -8,-44 5,-59 44,-32 189,-96 222,-104 66,-16 154,-50 198,21 -53,79 -71,149 34,199 57,28 128,-9 150,-21 22,21 14,169 14,184 42,-5 78,-36 98,-58 100,-112 75,-224 57,-307 -10,-46 -59,-88 -90,-123 -30,-35 -51,-45 -70,-70 48,-72 386,-242 559,-186 l -15,-92 c -69,25 -227,53 -285,74 -51,19 -304,141 -301,190 3,54 142,156 163,222 30,95 23,196 -44,270 -19,20 -42,41 -50,40 4,-54 7,-73 1,-113 -6,-33 -19,-45 -19,-69 1,-35 21,-63 37,-94 -46,21 -45,50 -63,87 -19,40 -35,42 -67,43 -69,4 -161,-56 -79,-149 25,-29 53,-80 54,-116 -9,14 -38,66 -94,24 -26,-20 -56,-25 -104,-12 -103,27 -230,69 -328,119 -45,24 -46,-72 -112,-44 47,25 64,66 72,80 35,63 8,87 -13,115 -27,35 -145,65 -169,21 -17,-32 -20,-65 -19,-110 3,-59 -22,-113 -77,-99 38,23 50,51 50,102 0,55 -9,160 -23,199 -60,-47 -102,-145 -102,-192 0,-68 68,-220 137,-217 94,5 153,-17 240,-35 46,-10 176,-61 215,-100 -55,19 -265,90 -327,96 -122,11 -210,-2 -251,92 -24,54 -64,146 -40,225 13,44 113,218 184,221 z"
         id="path66"
         style="fill:#000000" />
      <path
         d="m 2805,6625 c -27,0 -51,12 -68,30 l -23,-16 c 10,-16 16,-35 16,-56 0,-54 -43,-98 -95,-98 -53,0 -95,44 -95,98 0,35 17,65 42,82 l -13,20 c -11,-6 -24,-9 -38,-9 -52,0 -95,44 -95,99 0,55 43,99 95,99 53,0 95,-44 95,-99 0,-6 0,-12 -2,-18 l 13,0 c 0,876 -658,1595 -1498,1674 -40,-29 -109,-88 -90,-124 25,-51 121,34 121,34 l 0,-306 c 0,0 -106,136 -139,115 -32,-20 48,-175 48,-175 l -106,0 -22,0 -106,0 c 0,0 80,155 47,175 -32,21 -139,-115 -139,-115 l 0,306 c 0,0 97,-85 122,-34 17,35 -45,90 -84,120 C -32,8330 -670,7620 -670,6757 l 26,11 c -1,3 -1,5 -1,7 0,54 42,99 95,99 52,0 95,-45 95,-99 0,-55 -43,-99 -95,-99 -18,0 -35,6 -50,15 l -14,-18 c 33,-16 55,-50 55,-90 0,-54 -42,-98 -95,-98 -52,0 -95,44 -95,98 0,23 8,43 20,60 l -25,14 c -17,-19 -42,-32 -69,-32 -53,0 -95,45 -95,99 0,55 42,99 95,99 47,0 87,-37 93,-85 l 2,1 c 0,0 -12,174 -18,245 -5,72 -5,186 -5,186 0,929 790,1682 1734,1682 945,0 1730,-765 1730,-1694 0,0 11,-90 5,-168 -5,-77 -24,-257 -24,-257 l 16,-2 c 4,51 44,92 95,92 52,0 95,-44 95,-99 0,-54 -43,-99 -95,-99 z"
         id="path68"
         style="fill:#ffffff" />
    </g>
    <path
       d="m 0,0 899.99997,0 0,600 L 0,600 0,0 z"
       id="path16"
       style="fill:#0064ff;fill-opacity:1;fill-rule:evenodd;stroke:none;display:inline" />
    <g
       transform="matrix(0.07647223,0,0,0.07535239,-110.49996,165.04559)"
       id="g70"
       style="fill-rule:evenodd;display:inline">
      <path
         d="m 4833,-1667 -24,-19 120,-77 300,174 222,115 368,-61 206,-45 228,99 93,149 -36,224 -229,398 -9,228 50,264 -79,-33 -95,-104 -63,-156 -108,266 31,284 93,171 186,114 217,-6 192,-46 134,88 103,114 213,-193 -93,-44 -139,-127 -88,-10 -88,36 10,-72 78,-85 165,5 214,93 91,5 124,-108 67,-161 -44,-134 -47,-44 150,-72 73,-91 36,-116 -29,-119 -147,-85 -160,-41 -88,-57 -81,-85 57,-24 39,-57 -3,-69 -72,-64 -30,0 0,-33 790,0 221,239 128,137 165,48 -56,48 -78,10 -109,-25 -101,-45 146,219 -6,208 -172,524 -38,179 109,177 144,-129 173,-16 314,52 181,-48 112,-121 61,-157 11,-223 -73,-299 -72,-95 -73,205 -94,91 -74,44 36,-128 12,-231 -36,-164 -231,-364 -37,-141 43,-125 121,-105 161,-30 355,63 181,56 132,-17 154,-88 171,-122 122,-36 125,39 -112,49 -181,204 -108,99 -102,53 276,161 240,226 184,76 125,-20 -17,155 -85,131 -128,66 -142,0 -194,-89 -193,-121 256,358 197,187 132,73 144,-23 10,134 -132,173 -121,29 -197,-74 -208,-172 41,139 270,412 132,134 91,24 128,-34 -24,197 -72,119 -130,80 -130,-11 -91,-40 -325,-322 130,282 386,519 105,64 145,-12 -49,165 -108,104 -205,49 -184,-74 -269,-310 -295,-453 196,456 341,543 244,253 163,75 181,-15 -115,214 -184,106 -133,12 -150,-48 -278,-202 -332,-477 -466,-940 -1,161 109,479 90,308 99,235 163,203 -185,59 -231,-40 -181,-163 -140,-236 -127,-389 -54,-266 -235,827 215,230 275,199 190,45 253,0 -178,145 -271,96 63,184 -9,311 -111,337 -91,-208 -160,-220 -172,-187 -27,229 -136,356 -84,293 30,193 193,160 190,-18 94,-94 21,-84 -67,-142 178,6 148,133 9,141 -96,151 78,3 181,-81 259,-175 287,-79 289,34 193,93 196,205 49,235 -27,278 -25,-70 -72,-144 -139,-97 -211,-3 -220,100 -280,244 -224,151 -208,60 -274,-3 -229,-90 -205,-157 -199,-202 6,141 90,199 112,163 -224,-25 -37,24 -55,128 -74,-91 -23,-55 -228,-4 115,-113 71,-130 53,-143 -16,-121 -182,283 -151,152 -240,82 -240,23 -141,-26 -165,-66 -279,-220 -220,-174 -226,-106 -202,-12 -121,52 -72,81 -18,99 9,175 -91,-162 -27,-169 33,-175 88,-172 163,-151 220,-103 199,-15 266,59 530,270 -43,-186 36,-149 140,-87 173,-17 -46,154 56,147 169,82 160,-13 121,-82 42,-175 -39,-295 -181,-386 -114,-274 -253,272 -87,119 -101,185 -84,-391 8,-235 61,-254 -174,-30 -176,-96 -40,-58 299,4 215,-123 c 11,-6 27,-19 37,-25 l 200,-214 50,-187 -27,-207 -213,-569 -56,335 -99,339 -128,213 -151,119 -151,66 -122,16 -141,-10 65,-105 83,-155 148,-568 55,-276 33,-313 -266,651 -237,506 -253,319 -227,135 -217,46 -177,-33 -161,-121 -57,-92 -14,-71 186,29 215,-133 275,-309 155,-255 201,-367 158,-398 -95,95 -303,429 -217,236 -203,131 -208,32 -159,-73 -41,-81 -27,-190 102,49 98,-39 188,-156 253,-342 253,-404 -246,232 -207,160 -245,41 -125,-99 -56,-152 -4,-143 80,62 122,-45 170,-156 260,-312 68,-120 -12,-20 -277,169 -161,40 -153,-69 -68,-100 -20,-109 16,-104 92,36 181,-68 165,-165 306,-426 -101,60 -257,161 -165,32 -100,-20 -113,-80 -48,-137 8,-101 161,25 192,-113 230,-217 221,-181 -89,-32 -136,-181 -41,-76 -96,-59 -88,-35 z"
         id="path72"
         style="fill:#ffffff" />
      <path
         d="m 4946,1277 266,-383 0,678 -620,0 150,-67 204,-228 z"
         id="path74"
         style="fill:#ba2b1a" />
      <path
         d="m 4628,-482 -115,-99 537,0 -139,78 -172,36 -111,-15 z"
         id="path76"
         style="fill:#ba2b1a" />
      <path
         d="m 8055,-815 0,-109 40,31 134,38 -27,38 -49,24 -98,-22 z"
         id="path78"
         style="fill:#ba2b1a" />
      <path
         d="m 7444,-581 629,0 -48,228 -136,386 -34,128 -478,0 0,-627 67,-115 z"
         id="path80"
         style="fill:#ba2b1a" />
      <path
         d="m 7377,-804 0,-479 -433,0 0,39 79,39 24,53 -10,56 -52,56 -39,15 115,107 132,55 184,59 z"
         id="path82"
         style="fill:#ba2b1a" />
      <path
         d="m 8301,-1207 0,-80 487,0 0,706 -195,0 -8,-114 -67,-153 -105,-151 -112,-208 z"
         id="path84"
         style="fill:#ba2b1a" />
      <path
         d="m 9442,-1287 -654,0 0,-232 220,47 156,45 169,-24 170,-138 0,253 -61,49 z"
         id="path86"
         style="fill:#ba2b1a" />
      <path
         d="m 9596,-1108 -93,-63 0,553 56,37 574,0 55,-142 -12,-89 -113,29 -169,-60 -298,-265 z"
         id="path88"
         style="fill:#ba2b1a" />
      <path
         d="m 8906,-355 -82,-226 645,0 34,43 0,699 -628,0 59,-212 -28,-304 z"
         id="path90"
         style="fill:#ba2b1a" />
      <path
         d="m 9763,226 -98,-65 445,0 -75,79 -108,31 -164,-45 z"
         id="path92"
         style="fill:#ba2b1a" />
      <path
         d="m 9558,161 -55,0 0,687 652,0 23,-122 -27,-33 -95,39 -125,-29 -161,-194 -181,-270 -31,-78 z"
         id="path94"
         style="fill:#ba2b1a" />
      <path
         d="m 9503,1715 0,-143 640,0 4,102 -137,169 -187,58 -179,-58 -141,-128 z"
         id="path96"
         style="fill:#ba2b1a" />
      <path
         d="m 8926,848 517,0 60,116 0,608 -110,0 -250,-380 -217,-344 z"
         id="path98"
         style="fill:#ba2b1a" />
      <path
         d="m 8919,848 -131,0 0,724 489,0 -243,-524 -115,-200 z"
         id="path100"
         style="fill:#ba2b1a" />
      <path
         d="m 9602,2070 -99,-135 0,361 316,0 -217,-226 z"
         id="path102"
         style="fill:#ba2b1a" />
      <path
         d="m 9196,2296 307,0 0,313 -189,-153 -118,-160 z"
         id="path104"
         style="fill:#ba2b1a" />
      <path
         d="m 8788,2478 0,-182 85,0 108,126 -135,56 -58,0 z"
         id="path106"
         style="fill:#ba2b1a" />
      <path
         d="m 8162,1829 -61,-257 503,0 79,329 105,257 0,138 -394,0 -127,-196 -105,-271 z"
         id="path108"
         style="fill:#ba2b1a" />
      <path
         d="m 8055,848 733,0 0,-571 -166,61 -217,-16 -232,-33 -118,62 0,497 z"
         id="path110"
         style="fill:#ba2b1a" />
      <path
         d="m 6559,34 83,-53 0,117 -58,11 -50,28 25,-103 z"
         id="path112"
         style="fill:#ba2b1a" />
      <path
         d="m 6777,161 600,0 0,687 -735,0 0,-472 89,83 60,-56 156,-119 -84,-40 -86,-83 z"
         id="path114"
         style="fill:#ba2b1a" />
      <path
         d="m 7377,1572 0,-724 678,0 0,550 -51,174 -627,0 z"
         id="path116"
         style="fill:#ba2b1a" />
      <path
         d="m 6690,1572 687,0 0,724 -565,0 36,-116 -5,-175 -153,-433 z"
         id="path118"
         style="fill:#ba2b1a" />
      <path
         d="m 5927,-395 0,-186 141,0 7,123 53,240 -50,-6 -82,-73 -69,-98 z"
         id="path120"
         style="fill:#ba2b1a" />
      <path
         d="m 6054,-1569 -127,8 0,274 417,0 -20,-105 -77,-93 -193,-84 z"
         id="path122"
         style="fill:#ba2b1a" />
      <path
         d="m 5277,-1287 650,0 0,706 -715,0 0,-658 65,-48 z"
         id="path124"
         style="fill:#ba2b1a" />
      <path
         d="m 5076,-1714 136,110 0,299 -97,-98 -84,-151 -150,-98 -80,-33 106,-71 169,42 z"
         id="path126"
         style="fill:#ba2b1a" />
      <path
         d="m 5168,-581 44,0 0,742 -57,0 33,-87 -116,87 -537,0 -39,-141 9,-112 93,36 212,-85 358,-440 z"
         id="path128"
         style="fill:#ba2b1a" />
      <path
         d="m 5212,788 0,-627 654,0 61,60 0,627 -694,0 73,-141 -94,81 z"
         id="path130"
         style="fill:#ba2b1a" />
      <path
         d="m 5927,1572 0,-724 715,0 0,629 -31,-113 -21,208 -518,0 84,-498 -137,273 -92,225 z"
         id="path132"
         style="fill:#ba2b1a" />
      <path
         d="m 7900,2296 -523,0 0,705 678,0 0,-542 -155,-163 z"
         id="path134"
         style="fill:#ba2b1a" />
      <path
         d="m 8340,3001 -285,0 0,401 129,195 62,146 11,0 100,-280 19,-261 -36,-201 z"
         id="path136"
         style="fill:#ba2b1a" />
      <path
         d="m 4520,931 -23,-83 655,0 -194,156 -155,68 -185,-30 -98,-111 z"
         id="path138"
         style="fill:#ba2b1a" />
      <path
         d="m 5451,1572 476,0 -245,547 -111,177 -359,0 0,-336 239,-388 z"
         id="path140"
         style="fill:#ba2b1a" />
      <path
         d="m 5859,2296 68,0 0,-177 -68,177 z"
         id="path142"
         style="fill:#ba2b1a" />
      <path
         d="m 6294,2296 -135,107 -172,56 -60,3 0,-166 367,0 z"
         id="path144"
         style="fill:#ba2b1a" />
      <path
         d="m 6642,2514 0,487 -238,0 31,-114 -152,-30 -189,-94 -48,-66 194,16 147,-30 255,-169 z"
         id="path146"
         style="fill:#ba2b1a" />
      <path
         d="m 7137,3743 -236,-553 -259,282 0,-471 735,0 0,742 -240,0 z"
         id="path148"
         style="fill:#ba2b1a" />
      <path
         d="m 4901,2296 311,0 0,350 -265,55 -249,-59 -99,-105 -49,-99 -7,-49 168,20 190,-113 z"
         id="path150"
         style="fill:#ba2b1a" />
      <path
         d="m 7377,4413 0,-670 281,0 -70,269 8,176 135,147 166,33 158,-60 0,105 -678,0 z"
         id="path152"
         style="fill:#ba2b1a" />
      <path
         d="m 8055,5119 0,-706 264,0 -45,54 90,3 118,-57 306,0 0,636 -95,70 -638,0 z"
         id="path154"
         style="fill:#ba2b1a" />
      <path
         d="m 9503,4413 -715,0 0,-193 225,-76 265,0 225,82 0,187 z"
         id="path156"
         style="fill:#ba2b1a" />
      <path
         d="m 9715,4413 -212,0 0,253 119,45 93,100 64,169 33,-118 -15,-241 -82,-208 z"
         id="path158"
         style="fill:#ba2b1a" />
      <path
         d="m 7880,5119 175,73 0,-73 -175,0 z"
         id="path160"
         style="fill:#ba2b1a" />
      <path
         d="m 7598,5119 -221,0 0,269 28,-2 36,-86 28,-47 157,8 77,19 -6,-34 -71,-70 -28,-57 z"
         id="path162"
         style="fill:#ba2b1a" />
      <path
         d="m 6642,5119 0,-706 735,0 0,706 -183,0 93,-188 25,-136 -32,-38 -256,362 -382,0 z"
         id="path164"
         style="fill:#ba2b1a" />
      <path
         d="m 6404,4413 238,0 0,-374 -139,27 -90,69 -39,133 30,145 z"
         id="path166"
         style="fill:#ba2b1a" />
      <path
         d="m 5927,4218 387,195 -387,0 0,-195 z"
         id="path168"
         style="fill:#ba2b1a" />
      <path
         d="m 5212,4696 0,-283 715,0 0,595 -239,-200 -184,-98 -203,-33 -89,19 z"
         id="path170"
         style="fill:#ba2b1a" />
      <path
         d="m 5050,4413 162,0 0,-151 -162,151 z"
         id="path172"
         style="fill:#ba2b1a" />
      <path
         d="m 6319,5268 -256,-149 579,0 0,153 -323,-4 z"
         id="path174"
         style="fill:#ba2b1a" />
      <path
         d="m 8313,2919 121,-35 99,77 198,102 178,72 113,17 125,-53 164,-176 122,-93 145,0 95,99 28,113 -15,33 -47,6 -56,-37 -31,71 -56,39 -58,5 -51,-44 -29,57 -110,32 -98,10 134,12 168,-36 172,-63 188,-68 141,-3 106,80 42,98 -25,150 -20,4 -65,-110 -55,-40 -3,66 -30,63 -66,50 -86,10 -69,-61 -35,-77 -66,64 -221,71 103,26 351,11 173,89 56,144 -33,135 -56,95 -13,-88 -43,-73 -46,-36 -39,59 -46,50 -112,9 -76,-69 -29,-62 3,-82 -33,36 -29,3 -162,-46 -180,-69 -92,82 -10,129 -40,42 -85,27 -59,-7 -91,-54 26,165 -65,-27 -94,-107 -22,-109 53,-78 145,-120 44,-49 1,-38 -149,-98 -171,-86 -82,-24 -83,7 -18,-154 -44,-138 z"
         id="path176"
         style="fill:#e9cc0c" />
      <path
         d="m 6284,2844 -189,137 -189,113 -157,56 -137,-4 -84,-44 -101,-149 -84,-125 -105,-28 -88,28 -56,61 -24,52 -8,142 29,-2 54,-63 15,63 50,70 112,-34 40,70 108,57 -129,-4 -241,-88 -250,-90 -128,30 -105,122 -12,195 56,68 77,-146 32,84 80,45 75,-21 47,-42 21,-50 72,41 169,26 118,-6 -133,52 -196,43 -169,9 -84,62 -37,104 21,115 72,110 21,15 11,-70 43,-57 c 0,8 2,10 4,17 l 49,70 120,-6 57,-65 7,-112 379,-131 119,-28 87,74 -19,81 28,83 76,38 62,-8 43,-32 29,61 -2,128 53,-19 88,-90 19,-159 -47,-125 -119,-100 -45,-49 16,-36 150,-106 137,-78 36,-5 152,3 52,-313 -148,-40 z"
         id="path178"
         style="fill:#e9cc0c" />
      <path
         d="m 8364,3068 -8,-65 c 13,27 43,74 75,83 34,11 80,19 117,26 21,4 -19,11 -25,12 -24,4 -155,-25 -159,-56 z"
         id="path180"
         style="fill:#000000" />
      <path
         d="m 8373,3194 3,28 c 92,-42 253,71 296,92 72,36 173,98 173,120 0,28 -59,80 -128,132 -90,67 -153,145 -90,259 27,48 173,177 234,125 -64,-13 -54,-85 -55,-132 40,35 166,46 226,-5 61,-52 34,-116 53,-172 7,-19 25,-36 41,-51 55,-49 279,141 416,88 -41,79 76,188 125,188 92,0 150,-24 185,-116 67,17 91,129 79,199 91,-54 126,-165 126,-237 0,-115 -64,-220 -176,-246 -178,-41 -361,-26 -546,-46 22,2 -42,1 -17,8 37,11 109,33 205,35 132,4 234,3 340,33 72,21 229,186 98,394 0,-72 -44,-123 -82,-160 -34,-33 -17,-114 25,-145 -78,13 -63,96 -78,140 -20,61 -63,100 -126,98 -38,-1 -106,-42 -121,-76 -20,-44 -25,-134 26,-167 -58,9 -68,76 -111,73 -56,-3 -267,-90 -323,-110 -52,-18 -67,15 -98,54 -21,26 -77,36 -95,-5 -23,48 66,39 48,135 -9,51 -27,68 -65,80 -72,22 -119,11 -163,-31 -36,-34 -5,-113 -109,-96 36,21 53,40 59,62 13,56 29,110 31,177 -58,-1 -125,-125 -140,-171 -44,-135 210,-204 231,-308 3,-14 2,-24 -8,-38 -22,-33 -200,-141 -343,-199 -49,-20 -108,-13 -146,-9 z"
         id="path182"
         style="fill:#000000" />
      <path
         d="m 9161,3230 -47,-8 c 30,0 53,-5 79,-6 191,-6 312,-58 501,-133 101,-39 241,-81 335,-9 104,80 123,283 23,350 -17,-75 -70,-152 -103,-152 3,72 -86,165 -160,168 -75,4 -129,-55 -149,-112 -45,58 -209,108 -278,108 -92,0 -153,-63 -216,-96 55,1 93,22 128,42 111,64 362,-42 375,-146 15,45 17,85 58,127 82,82 144,50 202,-27 14,-18 18,-75 14,-111 -2,-21 -10,-35 -10,-59 0,-15 5,-27 15,-33 14,24 -2,78 27,98 43,29 82,98 106,135 12,-40 11,-56 13,-79 10,-161 -142,-260 -322,-192 -149,57 -321,135 -480,139 -34,0 -82,1 -111,-4 z"
         id="path184"
         style="fill:#000000" />
      <path
         d="m 8451,2893 -39,8 c 128,91 468,292 624,269 94,-14 160,-92 224,-159 49,-51 104,-113 162,-147 96,-55 255,31 259,206 -45,9 -56,-9 -75,-30 -41,-45 -90,-63 -53,-139 -21,7 -30,10 -33,61 -2,41 51,71 48,99 -4,38 -64,103 -129,81 -33,-11 -42,-67 -84,-62 21,10 25,31 20,51 -11,37 -82,52 -104,57 -42,10 -146,-6 -163,36 250,-14 258,-30 285,-89 16,29 54,48 97,33 48,-16 84,-58 110,-103 12,31 99,44 108,-9 21,-135 -65,-258 -198,-258 -156,0 -235,131 -319,227 -152,173 -321,92 -480,-4 -113,-69 -181,-77 -260,-128 z"
         id="path186"
         style="fill:#000000" />
      <path
         d="m 6884,-1744 -66,13 80,170 56,279 779,5 39,-206 98,-278 -92,33 -84,75 -94,9 -31,50 -67,-78 -55,-6 -56,-125 -89,-8 -95,111 -25,25 -61,22 -28,39 -75,-47 -45,-6 -89,-77 z"
         id="path188"
         style="fill:#e9cc0c" />
      <path
         d="m 6405,3023 -3,-53 c -13,40 -54,83 -88,103 -20,12 -76,6 -97,-8 2,7 24,27 28,29 22,11 56,12 82,3 23,-9 76,-74 78,-74 z"
         id="path190"
         style="fill:#000000" />
      <path
         d="m 6978,-1267 -51,2 c 0,-42 -11,-84 -14,-122 -4,-41 -13,-110 -28,-160 -25,-87 -125,-203 -80,-213 77,-17 133,19 178,79 22,-1 78,-1 101,42 24,-42 59,-60 101,-61 8,-15 14,-30 19,-38 25,-39 69,-103 126,-101 57,3 81,30 105,74 12,22 22,49 26,70 31,-2 51,4 69,12 13,5 35,26 44,41 11,-18 19,-26 41,-32 20,-5 22,-8 74,1 25,-30 55,-53 91,-75 20,-13 39,-21 64,-26 31,-7 59,0 55,14 -5,21 -41,72 -58,117 -40,109 -81,246 -86,369 l -39,-1 c 11,-111 37,-236 73,-335 14,-41 29,-72 53,-111 -3,-32 -86,33 -106,57 -12,14 -21,50 -43,38 -27,-14 -39,-17 -65,2 -33,31 -37,36 -35,78 0,17 14,31 21,38 7,7 27,24 60,29 10,1 0,26 -4,27 -22,5 -54,-10 -68,-17 -12,-7 -37,-20 -53,-38 -26,14 -64,31 -86,37 -27,7 -48,-2 -33,-18 14,-15 32,-15 50,-21 18,-6 32,-19 46,-47 6,-12 15,-29 6,-63 -4,-15 -34,-34 -53,-37 -12,-2 -34,-3 -41,-10 -12,-13 -16,-19 -18,-31 -1,-15 -7,-29 -13,-39 -12,-23 -36,-61 -71,-61 -24,-1 -54,26 -76,54 -16,22 -25,47 -39,67 -1,2 -8,17 -27,17 -36,-6 -70,10 -70,73 -1,41 1,40 21,61 23,23 50,32 68,43 8,4 -2,21 -12,22 -17,0 -49,-9 -66,-19 -19,-11 -25,-30 -38,-37 -27,3 -45,50 -101,60 -49,9 -18,-22 -3,-40 41,-45 87,-29 69,-115 -7,-30 -53,-32 -84,-33 -38,-1 -35,-45 -80,-69 -29,-16 -35,-14 -51,-11 -16,2 4,36 12,44 13,13 16,18 23,31 10,19 17,44 24,59 2,4 9,19 18,62 9,57 15,72 27,134 8,39 19,82 27,127 z"
         id="path192"
         style="fill:#000000" />
      <path
         d="m 6617,1420 -19,-71 c -73,491 -166,1137 -808,1101 81,-89 185,-360 255,-666 86,-380 155,-805 133,-955 -81,340 -331,920 -499,1248 -135,184 -287,580 -740,595 -165,6 -363,-112 -382,-261 127,33 206,27 343,-76 262,-196 400,-451 507,-634 86,-146 374,-705 381,-964 -136,251 -288,473 -414,643 -74,100 -218,257 -259,290 -180,145 -264,170 -375,168 -163,-3 -242,-51 -247,-280 35,27 57,29 105,30 56,1 119,-50 148,-70 166,-133 355,-413 458,-580 18,-30 75,-125 132,-219 73,-120 141,-239 91,-230 -134,181 -319,440 -543,527 -222,88 -374,-29 -389,-303 21,15 27,43 93,39 118,-8 275,-182 337,-262 70,-92 326,-376 269,-444 -25,19 -172,125 -226,153 -77,39 -163,88 -256,58 -172,-54 -205,-148 -195,-328 32,34 135,30 190,3 76,-37 124,-59 232,-188 123,-148 159,-205 256,-339 17,-23 136,-178 76,-176 -151,139 -353,258 -425,275 -79,19 -150,27 -222,-14 -74,-43 -146,-109 -126,-259 0,2 38,9 42,10 40,3 104,6 139,-9 67,-29 132,-75 185,-121 91,-79 230,-221 321,-297 -2,-3 40,-31 86,-70 26,-21 73,-31 73,-36 3,-11 -91,-4 -141,-39 -57,-39 -122,-171 -158,-220 -33,-45 -114,-91 -164,-109 -47,-16 -74,-18 -24,-51 102,-67 227,45 302,102 71,54 175,158 342,158 178,0 254,-42 347,-74 114,-38 237,-21 332,22 131,59 147,174 133,297 -7,83 -114,200 -239,453 -33,67 -28,163 -24,248 4,96 44,215 59,270 -32,-18 -93,-59 -112,-84 -81,-103 -84,-171 -102,-240 -103,91 -142,315 -142,447 0,63 48,237 119,317 55,60 173,152 336,147 97,-3 181,-28 276,-42 65,-9 169,81 233,171 l 27,-29 C 6642,343 6608,310 6588,297 c -54,-36 -81,-52 -131,-42 -103,20 -222,39 -262,39 -110,0 -197,-28 -277,-106 -83,-80 -118,-287 -108,-391 9,-84 29,-158 83,-239 10,38 66,130 94,158 25,24 103,97 152,74 -21,-156 -59,-249 -48,-377 14,-171 159,-364 233,-504 177,-333 -173,-573 -457,-485 -166,51 -405,119 -553,15 -214,-149 -381,-313 -535,-124 75,37 204,80 253,162 25,42 106,231 203,243 -119,80 -248,203 -369,324 -58,58 -120,104 -190,132 -80,32 -140,21 -210,7 -57,170 61,370 244,370 115,0 140,-7 250,-53 25,-10 190,-124 226,-146 -6,34 -251,344 -284,380 -71,80 -284,265 -401,149 -34,160 -21,318 150,403 176,86 429,-110 512,-177 -65,125 -235,317 -287,373 -64,68 -149,151 -216,198 -86,60 -157,-22 -181,-40 -24,206 23,416 199,442 116,16 224,1 343,-90 8,-6 186,-170 241,-223 -64,130 -253,402 -343,506 -67,77 -146,179 -241,243 -43,29 -163,45 -212,-16 1,169 -2,268 125,353 153,103 417,3 583,-164 233,-236 421,-548 494,-653 -54,198 -354,747 -465,897 -103,139 -225,270 -356,379 -52,43 -139,111 -329,44 99,517 689,377 855,209 464,-472 541,-936 741,-1371 -24,231 -79,448 -130,661 -24,101 -71,262 -103,357 -18,54 -91,181 -163,251 560,121 844,-323 899,-1045 z"
         id="path194"
         style="fill:#000000" />
      <path
         d="m 7165,-481 c -173,-114 -405,13 -573,-18 -178,-33 -345,-129 -209,-369 97,157 226,175 454,177 165,2 330,26 442,117 -10,33 -59,81 -114,93 z"
         id="path196"
         style="fill:#000000" />
      <path
         d="m 6383,-825 c -84,146 32,248 185,291 152,43 244,-16 438,-17 77,0 159,17 182,36 44,-17 68,-53 64,-57 -50,-39 -156,-64 -208,-75 -191,-40 -232,-8 -377,-21 -191,-16 -225,-66 -284,-157 z"
         id="path198"
         style="fill:#e9cc0c" />
      <path
         d="m 7951,454 -36,-35 c 0,6 135,-119 175,-134 84,-30 163,-14 229,-4 152,24 345,84 463,-39 246,-256 88,-640 13,-796 -27,77 -52,161 -82,195 -48,55 -93,108 -185,122 33,-65 53,-179 53,-267 0,-111 3,-181 -42,-271 -58,-120 -228,-310 -253,-445 -9,-49 -1,-111 18,-152 175,-372 710,-76 891,-75 252,3 397,-412 707,-188 -105,-5 -210,117 -259,183 -68,90 -129,148 -225,195 126,62 251,181 343,273 56,56 145,133 231,159 86,26 115,19 198,-4 75,175 -109,397 -248,405 -198,13 -344,-108 -464,-184 151,194 425,663 685,507 84,191 -102,421 -258,390 -211,-43 -369,-206 -383,-234 64,146 263,498 433,626 75,56 159,14 223,-18 59,178 -44,368 -186,438 -93,45 -228,14 -317,-73 L 9440,799 c 109,202 232,430 503,721 61,66 193,40 223,31 42,310 -348,461 -523,318 -174,-142 -410,-455 -518,-665 136,336 386,767 680,1053 43,42 265,201 370,29 68,235 -170,436 -366,436 -315,0 -585,-305 -734,-548 -129,-210 -524,-955 -545,-1065 43,173 173,1182 493,1293 -47,119 -358,112 -464,62 -300,-142 -480,-750 -504,-1059 l 17,-81 c 29,236 100,486 192,706 56,137 193,326 300,374 148,67 243,62 377,12 -231,-201 -361,-809 -425,-1141 -24,-125 -36,-212 -93,-343 -8,-19 24,-38 42,-16 13,17 30,31 39,50 179,375 346,739 558,1084 122,198 390,613 706,633 145,9 314,-117 368,-282 -303,70 -490,-229 -680,-491 -83,-115 -243,-419 -295,-534 -80,-181 -167,-359 -269,-524 -10,-15 23,-39 36,-26 44,45 135,212 164,259 79,129 327,537 511,706 109,101 487,137 535,-194 -250,81 -345,-175 -490,-370 -115,-155 -244,-407 -349,-581 -12,-79 -1,-95 13,-84 34,27 106,141 137,179 92,113 195,212 302,298 116,59 180,51 288,-35 85,-68 103,-171 111,-275 -237,81 -288,-74 -420,-229 -71,-83 -243,-374 -256,-498 54,-17 249,258 465,246 132,-7 211,-203 203,-293 -44,20 -120,43 -186,10 -128,-66 -200,-151 -319,-294 -47,-56 -323,-423 -382,-496 -9,-10 20,-9 33,-7 43,8 112,137 306,253 116,77 235,150 377,100 94,-33 189,-120 192,-301 -351,127 -554,-438 -903,-457 -12,-1 -12,-22 1,-23 103,-6 176,-12 287,-156 52,-68 151,-211 268,-230 -280,-64 -373,233 -609,235 -138,1 -175,-39 -290,-64 -129,-28 -304,-62 -436,-19 -44,14 -126,92 -147,138 -18,38 -21,108 -10,153 52,123 144,250 211,353 42,64 64,146 70,211 11,123 11,239 -30,354 57,-34 108,-78 141,-140 25,-45 64,-136 60,-201 168,39 266,685 63,884 -114,112 -318,121 -436,88 -78,-21 -324,-67 -452,108 z"
         id="path200"
         style="fill:#000000" />
      <path
         d="m 6931,-1297 825,0 1,30 -830,-1 4,-29 z"
         id="path202"
         style="fill:#000000" />
      <path
         d="m 7360,-1389 386,0"
         id="path204"
         style="fill:none;stroke:#000000;stroke-width:28;stroke-linecap:round" />
      <path
         d="m 7747,-1275 -58,3 c 92,31 159,159 225,230 36,39 83,97 120,139 30,35 125,60 169,63 -23,35 -96,39 -163,17 -159,-54 -133,-111 -202,-140 -27,-11 -49,0 -35,16 132,150 236,242 229,426 -4,111 -53,249 -84,342 -118,350 -223,455 -19,652 197,189 227,329 179,600 -33,190 -92,384 -131,553 -42,181 -128,427 -176,600 59,60 114,134 174,194 93,93 176,141 290,220 125,86 328,74 447,69 -73,71 -248,166 -427,205 75,159 75,299 58,487 -10,103 -73,246 -92,330 -11,-194 -341,-516 -490,-693 -49,-58 -89,-146 -111,-184 -7,-11 -25,-11 -23,-1 13,116 234,378 315,447 125,105 289,398 307,514 30,-119 140,-299 140,-472 0,-151 7,-288 -53,-405 147,-18 347,-151 458,-270 -390,13 -442,-30 -609,-140 -127,-84 -243,-229 -337,-322 88,-241 125,-398 184,-644 20,-80 112,-414 120,-452 26,-125 33,-351 -24,-474 -105,-228 -300,-250 -262,-450 19,-102 140,-404 182,-555 72,-256 6,-338 -96,-462 52,30 130,51 188,51 55,0 142,-64 156,-108 -166,28 -215,-10 -330,-170 -43,-59 -164,-202 -219,-216 z"
         id="path206"
         style="fill:#000000" />
      <path
         d="m 6991,-1019 c 16,49 95,103 165,127 71,24 166,37 239,82 132,82 64,304 -47,394 -79,63 -293,86 -448,166 -8,4 -18,-14 -20,-20 -8,-22 50,-99 67,-121 90,-108 338,-89 337,-223 -1,-100 -276,-104 -331,-157 -79,-76 -190,-166 -211,-27 -48,-91 -59,-84 -76,-124 -32,-71 -27,-131 -5,-173 28,-55 75,-64 138,-74 27,-55 83,-91 133,-97 47,-6 106,34 121,83 13,46 12,102 -62,164 z"
         id="path208"
         style="fill:#000000" />
      <path
         d="m 6904,-1051 c 172,22 162,-178 27,-178 -61,0 -84,58 -103,97 -42,2 -156,-7 -152,119 2,45 34,110 54,132 84,-100 179,51 253,88 36,18 105,33 174,49 109,24 202,90 115,210 -57,78 -271,59 -338,195 -40,82 12,36 77,17 230,-67 432,-124 423,-357 -5,-137 -299,-177 -356,-216 -39,-27 -176,-137 -174,-156 z"
         id="path210"
         style="fill:#e9cc0c" />
      <path
         d="m 7336,-1122 -150,-16 -124,-7 c -20,65 -26,176 48,210 48,22 142,25 181,-25 33,-44 41,-106 45,-162 z"
         id="path212"
         style="fill:#000000" />
      <path
         d="m 7307,-1121 -118,-18 -102,-4 c -1,55 -39,171 66,192 142,28 158,-110 154,-170 z"
         id="path214"
         style="fill:#ffffff" />
      <path
         d="m 7231,-1125 -43,-14 -30,-1 c -25,21 -39,68 -31,95 8,24 30,47 60,46 37,-2 61,-51 54,-47 -76,46 -113,-76 -10,-79 z"
         id="path216"
         style="fill:#000000" />
      <path
         d="m 7056,-1150 c 138,1 265,20 419,26 3,6 1,10 -8,12 -40,8 -180,0 -198,-2 -41,-6 -174,-12 -216,-16 -6,-1 2,-18 3,-20 z"
         id="path218"
         style="fill:#000000" />
      <path
         d="m 7216,-372 -61,23 c 216,68 39,480 -167,394 -126,-54 -462,-212 -459,108 65,-38 111,-47 143,-37 46,15 139,100 173,133 52,52 225,70 225,53 0,-3 0,-9 -4,-10 -73,-7 -108,-15 -153,-36 -70,-32 -134,-166 -265,-171 -32,-1 -54,5 -102,36 50,-256 376,-27 497,-23 148,5 236,-149 252,-279 8,-66 -27,-162 -79,-191 z"
         id="path220"
         style="fill:#000000" />
      <path
         d="m 6989,292 -60,-18 c -134,112 -291,205 -360,378 -62,159 -68,418 -6,621 67,225 182,514 249,727 86,272 -139,491 -328,606 -208,126 -276,76 -475,76 57,115 277,217 407,219 -42,87 -77,394 -63,500 10,83 76,335 103,416 70,-190 168,-309 310,-450 98,-93 187,-213 270,-313 16,-18 168,-224 101,-224 -82,153 -105,181 -230,322 -29,33 -97,118 -165,189 -55,58 -112,104 -137,129 -59,61 -128,213 -145,255 -21,-112 -72,-282 -72,-429 0,-145 40,-303 65,-423 -118,0 -286,-81 -365,-150 368,45 490,-104 707,-348 178,-200 -8,-615 -82,-767 -38,-94 -89,-250 -114,-340 -32,-116 -44,-268 -32,-398 29,-299 240,-484 422,-578 z"
         id="path222"
         style="fill:#000000" />
      <path
         d="m 6889,3210 25,-44 c 67,272 296,569 323,802 12,136 33,233 -40,357 -44,75 -177,114 -260,110 -179,-8 -287,-140 -271,-281 4,-42 34,-72 34,-104 -97,0 -235,23 -282,120 -25,52 -30,108 -19,167 12,56 35,120 57,171 -48,-27 -462,-243 -502,-259 -474,-194 -703,-13 -861,144 -81,81 -260,349 -70,630 -46,-244 110,-352 295,-359 251,-9 453,193 634,340 98,80 198,162 316,215 222,100 603,26 775,-140 94,-90 212,-326 242,-354 54,25 33,149 5,216 -30,76 -55,149 -111,224 -31,41 -105,85 -70,80 60,-8 116,-9 176,-5 30,1 39,67 109,134 14,-31 34,-66 44,-99 22,-80 197,-12 252,-10 -104,-46 -256,-431 -214,-517 6,-14 15,-12 25,-1 224,254 416,444 783,457 164,5 352,-60 424,-114 147,-110 251,-194 362,-302 157,-154 608,-294 708,153 98,-584 -355,-770 -568,-776 -325,-10 -447,95 -560,168 -162,106 -234,180 -436,146 43,-21 125,-85 136,-141 13,-61 10,-143 -35,-188 -78,-78 -142,-98 -252,-95 101,106 57,266 -54,309 -176,67 -294,19 -400,-122 -118,-157 46,-529 101,-669 69,-172 100,-250 83,-465 l 46,77 c 0,335 -252,600 -229,928 9,127 184,267 323,233 58,-13 154,-63 160,-141 5,-69 -76,-163 -76,-169 151,-48 295,-9 359,120 45,91 7,215 -66,305 139,0 274,-166 395,-223 176,-84 317,-124 522,-115 213,0 529,206 570,373 64,261 19,385 -29,627 8,-114 -2,-184 -52,-278 -142,-268 -495,-151 -663,16 -45,44 -293,238 -345,272 -115,75 -268,117 -407,117 -398,0 -545,-200 -785,-439 16,142 67,296 191,436 7,9 19,49 7,46 -120,-32 -185,-32 -230,-26 -50,7 -4,39 -95,154 -88,-82 -86,-118 -96,-136 -19,-36 -111,-29 -161,-20 -42,7 -126,3 -98,-11 30,-14 82,-70 107,-95 49,-48 199,-286 136,-375 -92,155 -197,435 -548,492 -164,27 -317,35 -437,-8 -409,-146 -518,-538 -953,-569 -386,-27 -287,344 -248,477 -278,-255 -236,-676 103,-933 395,-300 910,28 1196,187 -21,-110 -60,-229 43,-334 79,-80 335,-105 315,-64 -30,65 -62,177 -27,232 30,48 156,127 235,129 326,10 264,-357 201,-535 -80,-222 -231,-459 -268,-648 z"
         id="path224"
         style="fill:#000000" />
      <path
         d="m 6293,2870 -38,-22 c -178,128 -593,447 -762,178 -76,-119 -80,-246 -252,-240 -173,5 -205,182 -185,324 28,1 69,-30 82,-63 5,35 24,97 72,116 35,14 72,-27 103,-26 12,36 68,104 152,108 46,3 102,-7 140,-34 -80,11 -156,43 -237,-38 -34,-34 -30,-39 -22,-89 -38,27 -112,55 -122,50 -27,-13 -74,-53 -54,-116 8,-27 135,-65 51,-160 39,87 -117,134 -134,211 -19,-27 -10,-119 35,-180 21,-30 57,-48 89,-56 128,-31 173,99 243,212 49,79 115,132 197,131 224,-2 481,-192 642,-306 z"
         id="path226"
         style="fill:#000000" />
      <path
         d="m 5332,3418 c 45,-10 74,-34 115,-48 -49,22 -171,35 -212,31 -74,-7 -228,-20 -223,-88 3,-40 -31,-69 -70,-69 61,31 35,112 6,159 -29,47 -102,39 -143,18 -129,-64 74,-238 -91,-246 52,36 27,102 22,120 -8,34 -55,109 -88,137 -43,-42 -43,-327 158,-345 91,-8 388,137 469,159 32,9 62,14 88,17 105,13 170,-22 209,-37 -66,13 -145,11 -228,-6 -94,-19 -188,-67 -253,-97 -171,-80 -247,-85 -262,-84 -107,-5 -214,105 -230,195 -12,64 -38,214 39,251 18,9 27,19 47,20 -7,-68 34,-115 48,-133 11,46 33,64 57,83 38,30 161,22 213,-81 22,14 109,44 191,47 39,2 106,4 138,-3 z"
         id="path228"
         style="fill:#000000" />
      <path
         d="m 4863,3942 c -20,-19 12,-106 32,-95 24,33 54,58 97,58 88,0 161,-41 156,-136 0,-15 -7,-36 9,-50 51,-32 273,-113 312,-123 75,-19 176,-74 230,26 -22,78 -1,163 65,193 64,30 121,-5 146,-17 26,20 17,167 16,182 49,-6 90,-36 113,-58 115,-111 87,-220 66,-303 -12,-45 -68,-86 -103,-121 -35,-35 -64,-46 -90,-66 -47,-35 115,-121 137,-134 134,-73 156,-125 323,-79 l 5,-86 c -27,88 -118,27 -183,53 -56,22 -325,181 -322,230 3,53 164,153 188,219 34,93 27,192 -51,265 -21,20 -48,41 -57,40 5,-54 7,-72 0,-111 -5,-34 -21,-45 -20,-69 0,-34 23,-62 42,-92 -54,20 -52,49 -73,86 -22,39 -41,42 -77,42 -58,0 -131,-86 -91,-147 22,-34 62,-79 62,-114 -10,14 -54,77 -108,23 -36,-36 -54,-54 -119,-34 -117,35 -266,90 -378,140 -90,41 -74,-70 -150,-42 39,12 68,56 75,71 18,36 4,108 -24,137 -34,33 -129,46 -157,3 -19,-31 -23,-64 -21,-108 3,-58 -26,-112 -90,-97 44,22 58,50 58,100 0,54 -29,115 -45,153 -70,-46 -82,-160 -82,-206 0,-68 61,-157 141,-154 109,5 176,-16 276,-35 53,-10 195,-64 241,-102 -64,19 -299,93 -369,98 -141,11 -242,-1 -289,91 -28,54 -45,151 -22,215 16,43 69,146 131,154 z"
         id="path230"
         style="fill:#000000" />
    </g>
    <path
       d="m 900,600.0003 -900,0 0,599.9998 900,0 0,-599.9998 z"
       id="path18"
       style="fill:#e9cc0c;fill-opacity:1;fill-rule:evenodd;stroke:none;display:inline" />
    <path
       d="m 0,600.00026 c 0,28.81215 0,57.62428 0,86.43643 38.31032,17.6488 61.72677,53.59989 77.02852,91.63845 30.55931,45.75231 91.46059,37.20007 137.45625,52.74297 50.33204,13.48194 95.50454,50.15481 110.59576,101.83709 11.83318,41.38021 56.87118,50.4185 93.43701,54.72136 58.37005,7.83615 126.38578,32.30034 146.84066,94.09224 10.2817,45.7339 56.7491,66.3483 98.9,69.4207 28.6843,2.7056 63.0313,25.794 85.1018,29.817 45.73,8.0336 96.7311,15.3097 150.5882,19.2937 -0.1056,-34.6611 -0.0865,-87.9543 0.0518,-128.7821 -49.5842,-23.1463 -115.6429,-9.596 -154.8305,-53.9771 C 724.999,982.12766 714.3353,937.23864 673.7823,918.90637 627.8702,888.50824 570.4315,894.2421 521.04588,874.38466 481.50112,853.75308 484.49588,799.32556 450.14455,772.88441 406.53019,729.72468 343.53304,726.88338 287.54619,713.60612 245.18597,705.69055 232.1292,661.65124 212.88,629.275 c -13.32013,-18.37421 -32.96424,-28.15294 -55.17668,-29.27476 -52.56777,1e-5 -105.13555,1e-5 -157.70332,2e-5 z"
       id="path3816"
       style="fill:#0064ff;fill-opacity:1;fill-rule:evenodd;stroke:none;display:inline" />
    <path
       d="m 900.0001,600.00024 899.9999,0 0,599.99996 -899.9999,0 0,-599.99996 z"
       id="path3480"
       style="fill:#0064ff;fill-opacity:1;fill-rule:evenodd;stroke:none;display:inline" />
    <path
       d="m 1259.2842,845.22444 c -10.9578,0 -21.1778,-1.2565 -30.6602,-3.7695 -9.4825,-2.513 -17.511,-5.4972 -24.0855,-8.9526 l -8.7239,8.2458 -10.7468,0 -1.6437,-60.43 10.8733,0 c 2.4443,5.7328 5.563,11.7797 9.356,18.1407 3.793,6.3611 8.1761,12.0547 13.1491,17.0807 5.1416,5.2616 10.8942,9.5416 17.2581,12.8399 6.3639,3.2984 13.8024,4.9475 22.3155,4.9475 11.4633,0 20.2505,-2.6112 26.3614,-7.8335 6.1108,-5.2224 9.1663,-11.7994 9.1664,-19.7311 -10e-5,-6.5181 -2.592,-11.9957 -7.7755,-16.4328 -5.1839,-4.4369 -13.2125,-8.2653 -24.0857,-11.4852 -7.0803,-2.1203 -13.5916,-4.0836 -19.5338,-5.8899 -5.9426,-1.8061 -11.5267,-3.6516 -16.7525,-5.5364 -12.0534,-4.4763 -21.0091,-10.8766 -26.8671,-19.201 -5.8581,-8.3243 -8.7871,-17.6303 -8.7871,-27.918 0,-6.518 1.5172,-12.781 4.5516,-18.7887 3.0344,-6.0076 7.4595,-11.4066 13.2754,-16.1972 5.5631,-4.4761 12.6854,-8.1278 21.3673,-10.9552 8.6817,-2.8269 18.122,-4.2405 28.3211,-4.2407 9.9459,2e-4 19.2599,1.2763 27.9417,3.8285 8.6816,2.5524 15.5091,5.1243 20.4822,7.7157 l 7.7124,-7.0679 10.9997,0 1.0116,57.0141 -10.8733,0 c -2.5288,-6.1254 -5.4999,-12.3883 -8.9136,-18.7888 -3.4138,-6.4002 -7.0172,-11.7207 -10.81,-15.9616 -4.1304,-4.5546 -8.8926,-8.1867 -14.287,-10.8962 -5.3946,-2.7092 -11.7163,-4.0639 -18.9649,-4.064 -9.1033,1e-4 -16.5419,2.3954 -22.3157,7.1856 -5.7737,4.7906 -8.6606,10.7197 -8.6606,17.7874 0,6.6754 2.5075,12.1333 7.5228,16.3739 5.0152,4.2408 12.833,7.9711 23.4535,11.1908 6.2373,1.9634 12.601,3.9267 19.0913,5.8898 6.4902,1.9634 12.2639,3.8482 17.3213,5.6543 12.2218,4.3979 21.5147,10.4645 27.8787,18.1997 6.3636,7.7355 9.5454,17.3359 9.5457,28.8015 -3e-4,7.225 -1.8124,14.2142 -5.4366,20.9679 -3.6247,6.7538 -8.5134,12.3688 -14.6664,16.8451 -6.7433,4.9475 -14.5399,8.7563 -23.3901,11.4263 -8.8504,2.6701 -19.1758,4.0051 -30.9761,4.0051 l 0,0 z m 260.8318,-129.8127 c -10e-5,9.4239 -2.0863,17.5323 -6.2584,24.3251 -4.1725,6.7931 -9.9252,12.31 -17.2581,16.5506 -7.5861,4.3978 -16.2469,7.5784 -25.982,9.5416 -9.7355,1.9633 -20.672,2.945 -32.8095,2.9449 l -14.6663,0 0,47.0012 c -10e-5,2.8271 0.5689,5.2813 1.7069,7.3623 1.1377,2.0811 3.3082,3.7499 6.5112,5.0064 1.6857,0.6282 4.4251,1.2958 8.2182,2.0026 3.7929,0.7067 6.9958,1.178 9.6089,1.4135 l 0,9.1882 -97.2272,0 0,-9.1882 c 2.4444,-0.2355 5.6896,-0.5693 9.7354,-1.0013 4.0459,-0.4319 6.8695,-0.9619 8.471,-1.5902 3.2874,-1.2565 5.4578,-2.7879 6.5114,-4.5941 1.0535,-1.8062 1.5804,-4.3192 1.5804,-7.539 l 0,-117.9153 c 0,-2.7485 -0.5058,-5.1241 -1.5171,-7.1268 -1.0117,-2.0024 -3.203,-3.6711 -6.5747,-5.0064 -2.3601,-0.9422 -5.4997,-1.7864 -9.4193,-2.5326 -3.9194,-0.7459 -6.8484,-1.2367 -8.7871,-1.4725 l 0,-9.1882 98.9973,0 c 23.1793,2e-4 40.5007,3.4359 51.9641,10.3073 11.4631,6.8717 17.1948,17.3753 17.1949,31.5109 l 0,0 z m -49.309,6.0077 c -10e-5,-12.5651 -2.7184,-21.8907 -8.1549,-27.977 -5.4367,-6.0861 -15.1088,-9.1291 -29.0164,-9.1293 l -10.494,0 0,73.3878 5.3101,0 c 13.8234,1e-4 24.3383,-2.9644 31.5453,-8.8937 7.2065,-5.929 10.8098,-15.0583 10.8099,-27.3878 l 0,0 z m -158.6738,212.0353 c 8.8503,7.5392 15.8672,16.6488 21.0513,27.329 5.1834,10.6804 7.7754,22.8528 7.7755,36.5172 -10e-5,19.39736 -5.2051,36.43876 -15.6143,51.12406 -10.41,14.6853 -25.1394,25.2479 -44.1886,31.6875 0.2527,9.3452 3.2871,17.434 9.1032,24.2662 5.8157,6.8323 12.6853,10.2485 20.6086,10.2485 4.8886,0 9.1663,-0.2749 12.833,-0.8246 3.6663,-0.5498 6.9746,-1.1781 9.925,-1.8848 l 0,10.3662 c -4.8046,1.8847 -11.9269,3.7891 -21.3671,5.7131 -9.4407,1.924 -19.3446,2.886 -29.712,2.8861 -14.1606,-10e-5 -25.8134,-3.9462 -34.9588,-11.8387 -9.1453,-7.8924 -14.2658,-18.9065 -15.3616,-33.0421 -11.9692,-1.0995 -23.0952,-3.8481 -33.3785,-8.2459 -10.2832,-4.3977 -19.3442,-10.3269 -27.1831,-17.7874 -7.6703,-7.3819 -13.7601,-16.1382 -18.2696,-26.2688 -4.5095,-10.1305 -6.7641,-21.282 -6.7641,-33.4545 0,-13.66436 2.5075,-26.05266 7.5227,-37.16496 5.0153,-11.1121 11.9058,-20.6341 20.6719,-28.5659 8.6817,-7.7745 18.9859,-13.7625 30.9129,-17.9641 11.9269,-4.2013 24.6334,-6.302 38.1197,-6.3022 13.4017,2e-4 25.9819,2.042 37.7402,6.1255 11.7582,4.0838 21.9361,9.7773 30.5337,17.0806 l 0,0 z m -32.4934,119.56436 c 3.793,-7.1464 6.5322,-15.2351 8.2182,-24.2663 1.6856,-9.0311 2.5286,-19.2402 2.5287,-30.62726 -10e-5,-9.6593 -0.7377,-19.0635 -2.2125,-28.2125 -1.4752,-9.1488 -3.9829,-17.2964 -7.5229,-24.443 -3.6244,-7.1462 -8.4289,-12.879 -14.4133,-17.1984 -5.9846,-4.3191 -13.4443,-6.4787 -22.3787,-6.4789 -15.2563,2e-4 -26.8462,6.7343 -34.7692,20.2023 -7.9232,13.4683 -11.8847,32.4926 -11.8847,57.0729 0,10.44466 0.8638,20.30046 2.5919,29.56716 1.7279,9.2667 4.4462,17.3555 8.1549,24.2662 3.793,6.9893 8.5974,12.4277 14.4135,16.3149 5.8157,3.8874 12.9802,5.831 21.4936,5.831 8.3445,0 15.5089,-1.9633 21.4937,-5.8899 5.9843,-3.9266 10.7466,-9.306 14.2868,-16.1382 l 0,0 z m 244.9014,-119.56436 c 8.8502,7.5392 15.8671,16.6488 21.0511,27.329 5.1837,10.6804 7.7755,22.8528 7.7757,36.5172 -2e-4,12.17246 -2.1916,23.75586 -6.5745,34.75016 -4.3833,10.9945 -10.7049,20.4575 -18.965,28.3893 -8.6819,8.2457 -18.8809,14.6657 -30.5968,19.2598 -11.7164,4.5941 -25.6662,6.8911 -41.8495,6.8912 -13.0649,-10e-5 -25.4132,-2.0026 -37.045,-6.0078 -11.6318,-4.005 -21.873,-9.8164 -30.7232,-17.434 -8.7661,-7.4604 -15.7199,-16.5308 -20.8615,-27.2111 -5.1417,-10.6803 -7.7125,-22.5778 -7.7125,-35.6927 0,-13.66436 2.5077,-26.05266 7.5228,-37.16496 5.0151,-11.1121 11.9058,-20.6341 20.6718,-28.5659 8.6818,-7.7745 18.9861,-13.7625 30.913,-17.9641 11.9268,-4.2013 24.6333,-6.302 38.1196,-6.3022 13.4019,2e-4 25.9819,2.042 37.7403,6.1255 11.7581,4.0838 21.9362,9.7773 30.5337,17.0806 l 0,0 z m -32.4934,119.56436 c 3.7929,-7.1464 6.5322,-15.2351 8.2183,-24.2663 1.6856,-9.0311 2.5285,-19.2402 2.5286,-30.62726 -10e-5,-9.6593 -0.7377,-19.0635 -2.2127,-28.2125 -1.4751,-9.1488 -3.9826,-17.2964 -7.5227,-24.443 -3.6246,-7.1462 -8.429,-12.879 -14.4134,-17.1984 -5.9846,-4.3191 -13.4441,-6.4787 -22.3787,-6.4789 -15.2564,2e-4 -26.8461,6.7343 -34.7692,20.2023 -7.9231,13.4683 -11.8848,32.4926 -11.8847,57.0729 -10e-5,10.44466 0.8639,20.30046 2.592,29.56716 1.7277,9.2667 4.446,17.3555 8.155,24.2662 3.7928,6.9893 8.5972,12.4277 14.4132,16.3149 5.816,3.8874 12.9804,5.831 21.4937,5.831 8.3445,0 15.509,-1.9633 21.4937,-5.8899 5.9844,-3.9266 10.7466,-9.306 14.2869,-16.1382 l 0,0 z"
       id="text3810"
       style="font-size:61.73328018px;font-style:normal;font-variant:normal;font-weight:bold;font-stretch:normal;text-align:center;line-height:100%;writing-mode:lr-tb;text-anchor:middle;fill:#e9cc0c;fill-opacity:1;fill-rule:evenodd;stroke:#000000;stroke-width:2.32178283;stroke-linecap:butt;stroke-linejoin:miter;stroke-miterlimit:4;stroke-opacity:1;display:inline;font-family:Georgia" />
  </g>
</svg>
