<?xml version="1.0" encoding="utf-8"?>
<!-- Generator: Adobe Illustrator 16.0.0, SVG Export Plug-In . SVG Version: 6.00 Build 0)  -->
<!DOCTYPE svg PUBLIC "-//W3C//DTD SVG 1.1//EN" "http://www.w3.org/Graphics/SVG/1.1/DTD/svg11.dtd">
<svg version="1.1"
	 id="svg6551" sodipodi:docname="Hammerfest_-_kommunevΞ“Β¥pen.svg" inkscape:version="0.47 r22583" sodipodi:version="0.32" xmlns:svg="http://www.w3.org/2000/svg" xmlns:cc="http://creativecommons.org/ns#" xmlns:rdf="http://www.w3.org/1999/02/22-rdf-syntax-ns#" xmlns:dc="http://purl.org/dc/elements/1.1/" xmlns:inkscape="http://www.inkscape.org/namespaces/inkscape" xmlns:sodipodi="http://sodipodi.sourceforge.net/DTD/sodipodi-0.dtd" inkscape:output_extension="org.inkscape.output.svg.inkscape"
	 xmlns="http://www.w3.org/2000/svg" xmlns:xlink="http://www.w3.org/1999/xlink" x="0px" y="0px" width="234px" height="324.052px"
	 viewBox="10.333 57.862 234 324.052" enable-background="new 10.333 57.862 234 324.052" xml:space="preserve">
<g>
	<g id="XMLID_2_">
		<g>
			<path d="M114.354,83.846v-0.348l-0.036,0.348c-15.773,0.869-30.711,3.444-43.493,7.269l7.687,19.651
				c4.696-0.853,9.808-1.705,15.356-2.574L92.165,96.68l-5.982,0.835l-0.417-2.539l14.938-2.138v2.538l-5.982,0.869l1.723,11.948
				c5.547-0.869,10.66-1.288,15.355-1.722l2.521-22.625C114.336,83.846,114.336,83.846,114.354,83.846z M76.373,111.166
				L63.992,78.733c-5.982,1.269-9.391,2.138-9.391,2.138s-3.844,0.853-9.391,2.974l5.13,34.173c2.556-0.853,4.695-1.288,7.251-2.141
				l-4.018-16.521l9.339-2.399l6.208,15.912C71.244,112.47,73.816,111.601,76.373,111.166z M63.992,72.768l-8.104,2.122
				l-0.852-3.392l-2.991,0.836l-2.99,0.869l1.287,3.392l-8.121,2.139l-0.853-3.425l-2.991,0.869l1.705,7.251
				c1.287-0.436,2.574-0.852,3.426-1.288l1.27-0.417c5.564-1.723,9.39-2.574,9.39-2.574s0.853-0.313,2.4-0.747
				c1.566-0.417,3.792-0.939,6.575-1.374l1.288-0.436c1.269-0.417,2.557-0.417,3.826-0.853l-2.122-7.251l-2.99,0.869L63.992,72.768z
				 M205.288,73.203l-2.991-0.869l-2.99-0.835l-0.852,3.392l-1.287-0.417l-5.548-1.27l-0.853-0.434l0.853-3.409l-3.408-0.869
				l-1.704,7.251c1.27,0.435,2.122,0.435,3.409,0.853l1.286,0.436c5.965,0.851,9.392,2.121,9.392,2.121s0.853,0.208,2.399,0.643
				c1.549,0.417,3.792,1.078,6.559,1.931l1.286,0.417c1.271,0.435,2.122,0.853,3.41,1.288l2.14-7.251l-3.427-0.869l-0.853,3.425
				l-0.853-0.435l-5.963-1.705h-0.853v-1.287L205.288,73.203z M112.65,70.195c1.287-0.436,2.573-0.436,3.842-0.436h1.288
				c5.965-0.4,9.391-0.4,9.391-0.4s3.409,0,9.391,0.4h1.269c1.288,0,2.573,0,3.844,0.436v-7.687h-3.409v3.408h-8.105v-3.408h-2.99
				h-2.992v3.408h-8.104v-3.408h-3.426V70.195z M140.405,106.054l-3.424-34.155c-5.965-0.4-9.808-0.4-9.808-0.4s-3.425,0-9.826,0.4
				l-3.409,34.155c2.556,0,5.113,0,7.687-0.435l-0.313-18.33h12.156l-0.331,18.33C135.709,106.054,137.832,106.054,140.405,106.054z
				 M194.192,68.054l-1.286,3.444l3.844,0.835l1.269-3.408l4.695,1.269l5.13,1.304l-0.851,3.392l3.843,1.288l0.853-3.41l7.251,1.705
				l-3.408,11.53l-0.853-0.418c-1.287-0.435-2.14-0.869-3.426-1.304l-5.112,34.572c0.418,0,1.271,0.435,2.122,0.869h0.869
				l-2.139,6.382l-0.853-0.4c-0.434,0-1.287,0-1.704-0.434l-1.721,5.53h-7.253c-11.946-3.408-24.745-5.946-37.563-7.251
				c-10.242-1.269-20.069-2.557-30.728-2.557c-10.679,0-20.486,1.288-30.312,2.557c-13.233,1.305-26.034,3.844-37.998,7.251h-6.817
				l-2.139-5.53c-0.435,0.434-0.852,0.434-1.287,0.434l-1.269,0.4l-2.14-6.382h1.288c0.418-0.435,1.269-0.869,2.122-0.869
				l-5.547-34.572c-0.852,0.435-2.121,0.869-3.409,1.304l-0.852,0.418l-2.991-11.53l7.251-1.705l0.852,3.41l3.843-1.288
				l-0.853-3.392l4.695-1.304l5.13-1.269l0.852,3.408l3.844-0.835l-0.852-3.444l7.251-2.138l2.99,11.53L69.54,77.88
				c-1.287,0-2.138,0.418-3.409,0.418l0.852,2.991c14.504-3.843,34.155-6.817,48.241-7.253l-0.434,2.558
				c-13.651,0.434-32.868,2.99-46.537,7.251l1.723,4.713c13.233-3.844,28.172-6.418,44.38-7.269v2.191l1.043-9.425l0.245-2.157
				c-1.288,0-2.557,0-3.844,0.434h-1.269V60.367h7.67v3.444h3.844v-3.444h5.13h5.112v3.444h3.844v-3.444h7.685v11.964h-1.287
				c-1.269-0.434-2.121-0.434-3.409-0.434l0.209,2.157c-0.069-0.019-0.138-0.019-0.209-0.019l0.435,2.558c0.018,0,0.018,0,0.034,0
				l0.452,4.695c-0.019,0-0.052,0-0.071,0l0.175,1.025l-0.104-1.025c16.207,0.851,31.545,3.425,44.329,7.269l2.14-4.713
				c-14.069-4.261-29.878-6.399-46.92-7.251l-0.261-2.539c17.426,0.853,33.999,3.409,48.031,7.235l1.271-2.991
				c-1.271,0-2.559-0.417-3.844-0.417l-0.852-0.434l2.99-11.53L194.192,68.054z M199.74,80.871c0,0-3.425-0.869-9.392-2.138
				l-12.382,32.433c2.557,0.435,5.113,1.305,7.687,1.705l6.017-15.668l9.322,2.399l-4.243,16.277
				c2.556,0.853,4.695,1.288,7.251,2.141l5.13-34.173C203.583,81.725,200.159,80.871,199.74,80.871z M157.899,108.193
				c0,0,0,0,0.434,0l0,0l0,0H157.899h2.99l0,0l0,0l0,0c5.113,0.869,10.243,1.721,15.374,2.574l7.252-19.651
				c-12.799-3.826-27.322-6.4-43.112-7.269l-0.26-1.478l2.381,24.103C147.658,106.905,152.352,107.324,157.899,108.193z
				 M157.482,110.331c-10.677-1.269-20.068-2.138-30.311-2.138c-9.826,0-19.217,0.869-30.312,2.138
				c-18.347,2.139-34.572,5.982-48.658,11.079l0.417,1.721c14.086-4.679,30.312-8.123,47.824-10.661
				c11.094-1.305,20.486-2.139,30.728-2.139c10.242,0,19.633,0.834,30.729,2.139c17.929,2.538,33.72,5.982,47.807,10.661
				l0.433-1.721C192.054,116.315,175.828,112.47,157.482,110.331z"/>
			<path fill="#FEF200" d="M190.351,78.733c5.965,1.269,9.391,2.138,9.391,2.138c0.418,0,3.844,0.853,9.391,2.974l-5.128,34.173
				c-2.558-0.853-4.697-1.288-7.253-2.141l4.243-16.277l-9.321-2.399l-6.017,15.668c-2.573-0.4-5.132-1.269-7.688-1.705
				L190.351,78.733z"/>
			<path fill="#FEF200" d="M76.373,111.166c-2.557,0.435-5.129,1.305-7.251,1.705l-6.208-15.912l-9.339,2.399l4.018,16.522
				c-2.557,0.851-4.695,1.287-7.252,2.139l-5.13-34.173c5.547-2.122,9.391-2.974,9.391-2.974s3.409-0.869,9.391-2.138
				L76.373,111.166z"/>
			<path d="M139.554,76.594l-0.435-2.557c0.07,0,0.14,0,0.209,0.019l0.261,2.538C139.57,76.594,139.57,76.594,139.554,76.594z"/>
			<path d="M139.97,81.29c0.019,0,0.052,0,0.071,0l0.104,1.026L139.97,81.29z"/>
			<path fill="#FEF200" d="M113.938,106.054l3.409-34.155c6.399-0.4,9.826-0.4,9.826-0.4s3.843,0,9.808,0.4l3.424,34.155
				c-2.573,0-4.695,0-7.268-0.435l0.331-18.33h-12.156l0.313,18.33C119.049,106.054,116.493,106.054,113.938,106.054z"/>
			<path fill="#FEF200" d="M216.384,76.177l-2.14,7.251c-1.287-0.436-2.14-0.852-3.408-1.288l-1.287-0.417
				c-2.765-0.853-5.009-1.514-6.557-1.931c-1.547-0.436-2.4-0.643-2.4-0.643s-3.427-1.269-9.391-2.121l-1.288-0.436
				c-1.288-0.417-2.14-0.417-3.408-0.853l1.702-7.251l3.409,0.869l-0.852,3.409l0.852,0.435l5.547,1.269l1.287,0.417l0.853-3.392
				l2.991,0.835l2.992,0.869l-0.853,2.104v1.288h0.853l5.964,1.705l0.852,0.435l0.853-3.425L216.384,76.177z"/>
			<path fill="#FEF200" d="M206.141,121.41l-0.434,1.721c-14.087-4.679-29.878-8.123-47.807-10.661
				c-11.095-1.305-20.486-2.139-30.728-2.139s-19.634,0.834-30.728,2.139c-17.512,2.538-33.737,5.982-47.824,10.661l-0.417-1.721
				c14.085-5.095,30.312-8.939,48.658-11.079c11.094-1.269,20.486-2.138,30.312-2.138c10.243,0,19.633,0.869,30.312,2.138
				C175.828,112.47,192.054,116.315,206.141,121.41z"/>
			<path fill="#FEF200" d="M186.508,83.846l-2.141,4.713c-12.78-3.844-28.119-6.417-44.327-7.269l-0.453-4.695
				C156.629,77.448,172.438,79.586,186.508,83.846z"/>
			<path fill="#FEF200" d="M158.335,108.193c-0.435,0-0.435,0-0.435,0c-5.546-0.869-10.242-1.288-15.373-1.722l-2.381-24.103
				l0.261,1.478c15.79,0.869,30.31,3.443,43.11,7.269l-7.253,19.651C171.133,109.914,163.447,109.062,158.335,108.193"/>
			<path fill="#FEF200" d="M141.676,62.508v7.687c-1.271-0.436-2.558-0.436-3.844-0.436h-1.269c-5.982-0.4-9.391-0.4-9.391-0.4
				s-3.426,0-9.391,0.4h-1.288c-1.269,0-2.557,0-3.842,0.436v-7.687h3.426v3.408h8.104v-3.408h2.992h2.99v3.408h8.105v-3.408
				H141.676z"/>
			<path fill="#FEF200" d="M115.397,74.056l-1.043,9.425v-2.191c-16.208,0.851-31.146,3.425-44.38,7.269l-1.722-4.713
				c13.668-4.261,32.885-6.816,46.537-7.251l0.434-2.557L115.397,74.056z"/>
			<path d="M114.354,83.499v0.348c-0.019,0-0.019,0-0.036,0L114.354,83.499z"/>
			<path fill="#FEF200" d="M114.319,83.846l-2.521,22.625c-4.694,0.434-9.808,0.853-15.355,1.722l0,0l0,0l0,0h-2.575L92.164,96.68
				l0,0l1.704,11.513c-5.547,0.869-10.66,1.721-15.356,2.574l-7.687-19.651C83.608,87.289,98.547,84.716,114.319,83.846z"/>
			<path fill="#FEF200" d="M66.131,68.49l2.122,7.251c-1.27,0.435-2.557,0.435-3.826,0.853l-1.288,0.435
				c-2.783,0.435-5.009,0.957-6.574,1.375c-1.548,0.434-2.4,0.747-2.4,0.747s-3.826,0.852-9.391,2.574l-1.27,0.417
				c-0.852,0.435-2.138,0.853-3.425,1.288l-1.704-7.251l2.99-0.869l0.853,3.425l8.122-2.139l-1.288-3.392l2.991-0.869l2.99-0.836
				l0.852,3.392l8.104-2.122l-0.852-3.409L66.131,68.49z"/>
		</g>
	</g>
	<path fill="#070704" d="M53.642,99.605c-0.848-3.288,0.552-6.489,3.126-7.154c2.575-0.665,5.35,1.461,6.199,4.748"/>
	<path fill="#070704" d="M121.331,87.751c0-3.608,2.716-6.534,6.063-6.534c3.35,0,6.064,2.926,6.064,6.534"/>
	<path fill="#070704" d="M200.917,99.99c0.803-3.387-0.62-6.711-3.182-7.427c-2.558-0.716-5.285,1.448-6.086,4.833"/>
	<path fill="#FEF200" stroke="#000000" stroke-width="1.3" d="M52.535,129.948c0.065,0.162,0.115,0.294,0.107,0.277
		c0.276,0.661,0.545,1.325,0.813,1.988c0.126,0.314,0.251,0.629,0.378,0.945c17.796-5.976,79.804-23.219,147.045-0.008
		c0.314-0.8,0.745-1.906,0.783-2c0.026-0.067,0.239-0.614,0.476-1.207C132.721,105.484,68.567,124.404,52.535,129.948z"/>
	<path fill="none" stroke="#FEF200" stroke-width="3" d="M51.664,126.397c1.396-0.759,70.031-27.623,151.42,0"/>
	<g id="g8477" transform="matrix(0.8078657,0,0,0.6627913,-993.20018,621.67288)">
		<path fill="none" stroke="#000000" stroke-width="0.5" d="M1403.573-781.789c15.665,0.708,31.295,2.587,46.766,5.679"/>
		<path fill="none" stroke="#000000" stroke-width="0.5" d="M1347.94-779.735c7.119-0.902,14.764-1.356,21.912-1.789"/>
		<path fill="none" stroke="#000000" stroke-width="0.5" d="M1324.134-775.526c7.06-1.428,16.694-3.242,23.806-4.21"/>
		<path fill="none" stroke="#000000" stroke-width="0.5" d="M1404.379-776.725c7.477,0.363,14.946,0.995,22.392,1.895"/>
		<path fill="none" stroke="#000000" stroke-width="0.5" d="M1326.114-770.739c16.774-3.407,33.736-5.451,50.733-6.115"/>
		<path fill="none" stroke="#000000" stroke-width="0.5" d="M1404.797-786.836c15.714,0.807,31.389,2.783,46.901,5.949"/>
		<path fill="none" stroke="#000000" stroke-width="0.5" d="M1347.469-784.661c7.486-0.944,14.994-1.635,22.512-2.064"/>
		<path fill="none" stroke="#000000" stroke-width="0.5" d="M1323.059-780.674c7.426-1.49,16.928-2.997,24.41-3.987"/>
		<line fill="none" stroke="#000000" stroke-width="0.5" x1="1360.416" y1="-791.187" x2="1361.136" y2="-786.517"/>
		<line fill="none" stroke="#000000" stroke-width="0.5" x1="1334.097" y1="-787.398" x2="1335.228" y2="-782.906"/>
		<line fill="none" stroke="#000000" stroke-width="0.5" x1="1321.555" y1="-784.844" x2="1322.891" y2="-780.528"/>
		<line fill="none" stroke="#000000" stroke-width="0.5" x1="1328.752" y1="-781.674" x2="1330.19" y2="-776.564"/>
		<line fill="none" stroke="#000000" stroke-width="0.5" x1="1340.677" y1="-783.787" x2="1342.116" y2="-778.854"/>
		<line fill="none" stroke="#000000" stroke-width="0.5" x1="1354.042" y1="-785.725" x2="1355.07" y2="-780.616"/>
		<line fill="none" stroke="#000000" stroke-width="0.5" x1="1367.248" y1="-786.725" x2="1367.818" y2="-781.674"/>
		<line fill="none" stroke="#000000" stroke-width="0.5" x1="1336.154" y1="-777.621" x2="1337.593" y2="-772.688"/>
		<line fill="none" stroke="#000000" stroke-width="0.5" x1="1347.94" y1="-779.735" x2="1348.696" y2="-774.488"/>
		<line fill="none" stroke="#000000" stroke-width="0.5" x1="1361.65" y1="-781.321" x2="1362.473" y2="-776.211"/>
		<path fill="none" stroke="#000000" stroke-width="0.5" d="M1368.435-776.74"/>
		<path fill="none" stroke="#000000" stroke-width="0.5" d="M1355.687-775.507"/>
		<path fill="none" stroke="#000000" stroke-width="0.5" d="M1343.145-773.744"/>
		<line fill="none" stroke="#000000" stroke-width="0.5" x1="1413.87" y1="-791.691" x2="1413.364" y2="-786.279"/>
		<line fill="none" stroke="#000000" stroke-width="0.5" x1="1427.958" y1="-789.862" x2="1426.937" y2="-785.104"/>
		<line fill="none" stroke="#000000" stroke-width="0.5" x1="1440.914" y1="-787.854" x2="1439.688" y2="-783.095"/>
		<line fill="none" stroke="#000000" stroke-width="0.5" x1="1445.757" y1="-781.871" x2="1444.432" y2="-777.201"/>
		<line fill="none" stroke="#000000" stroke-width="0.5" x1="1433.724" y1="-784.057" x2="1432.5" y2="-779.033"/>
		<line fill="none" stroke="#000000" stroke-width="0.5" x1="1420.56" y1="-785.887" x2="1419.543" y2="-780.777"/>
		<line fill="none" stroke="#000000" stroke-width="0.5" x1="1407.399" y1="-786.836" x2="1406.792" y2="-781.627"/>
		<line fill="none" stroke="#000000" stroke-width="0.5" x1="1438.465" y1="-778.249" x2="1437.037" y2="-772.527"/>
		<path fill="none" stroke="#000000" stroke-width="0.5" d="M1424.902-775.235"/>
		<path fill="none" stroke="#000000" stroke-width="0.5" d="M1425.919-780.168"/>
		<line fill="none" stroke="#000000" stroke-width="0.5" x1="1412.961" y1="-781.472" x2="1412.15" y2="-776.626"/>
		<path fill="none" stroke="#000000" stroke-width="0.5" d="M1401.99-802.929c18.196,0.792,36.347,3.239,54.227,7.44"/>
		<path fill="none" stroke="#000000" stroke-width="0.5" d="M1318.428-795.27c17.243-3.882,34.697-6.382,52.212-7.411"/>
		<path fill="none" stroke="#000000" stroke-width="0.5" d="M1402.929-798.087c17.186,0.553,34.353,2.805,51.167,7.223"/>
		<path fill="none" stroke="#000000" stroke-width="0.5" d="M1320.375-789.843c16.621-3.468,33.372-6.095,50.203-7.424"/>
		<path fill="none" stroke="#000000" stroke-width="0.5" d="M1402.568-807.343c18.369,0.886,36.688,3.261,54.804,7.066"/>
		<path fill="none" stroke="#000000" stroke-width="0.5" d="M1317.14-800.387c18.099-3.919,36.428-6.244,54.798-7.038"/>
		<line fill="none" stroke="#000000" stroke-width="0.5" x1="1360.004" y1="-811.711" x2="1360.776" y2="-806.752"/>
		<line fill="none" stroke="#000000" stroke-width="0.5" x1="1346.126" y1="-809.949" x2="1347.051" y2="-805.508"/>
		<line fill="none" stroke="#000000" stroke-width="0.5" x1="1333.48" y1="-807.746" x2="1334.509" y2="-803.431"/>
		<line fill="none" stroke="#000000" stroke-width="0.5" x1="1318.882" y1="-804.928" x2="1320.115" y2="-800.576"/>
		<line fill="none" stroke="#000000" stroke-width="0.5" x1="1328.34" y1="-802.197" x2="1329.573" y2="-797.264"/>
		<line fill="none" stroke="#000000" stroke-width="0.5" x1="1340.472" y1="-804.311" x2="1341.705" y2="-799.378"/>
		<line fill="none" stroke="#000000" stroke-width="0.5" x1="1353.631" y1="-806.338" x2="1354.659" y2="-801.405"/>
		<line fill="none" stroke="#000000" stroke-width="0.5" x1="1366.85" y1="-807.424" x2="1367.407" y2="-802.814"/>
		<line fill="none" stroke="#000000" stroke-width="0.5" x1="1321.76" y1="-795.503" x2="1323.199" y2="-790.834"/>
		<line fill="none" stroke="#000000" stroke-width="0.5" x1="1335.742" y1="-798.41" x2="1337.181" y2="-793.477"/>
		<line fill="none" stroke="#000000" stroke-width="0.5" x1="1348.284" y1="-800.524" x2="1349.313" y2="-795.415"/>
		<line fill="none" stroke="#000000" stroke-width="0.5" x1="1361.239" y1="-802.109" x2="1362.061" y2="-796.484"/>
		<line fill="none" stroke="#000000" stroke-width="0.5" x1="1368.024" y1="-797.529" x2="1368.847" y2="-791.891"/>
		<line fill="none" stroke="#000000" stroke-width="0.5" x1="1355.275" y1="-796.207" x2="1356.303" y2="-790.834"/>
		<polyline fill="none" stroke="#000000" stroke-width="0.5" points="1328.956,-791.891 1329.67,-789.534 1330.294,-786.87 		"/>
		<line fill="none" stroke="#000000" stroke-width="0.5" x1="1413.765" y1="-811.952" x2="1412.952" y2="-806.684"/>
		<line fill="none" stroke="#000000" stroke-width="0.5" x1="1427.752" y1="-810.121" x2="1426.731" y2="-805.318"/>
		<line fill="none" stroke="#000000" stroke-width="0.5" x1="1440.299" y1="-807.939" x2="1439.276" y2="-803.884"/>
		<line fill="none" stroke="#000000" stroke-width="0.5" x1="1446.785" y1="-802.308" x2="1445.457" y2="-797.637"/>
		<line fill="none" stroke="#000000" stroke-width="0.5" x1="1433.313" y1="-804.845" x2="1432.087" y2="-799.822"/>
		<line fill="none" stroke="#000000" stroke-width="0.5" x1="1420.026" y1="-806.052" x2="1419.132" y2="-801.565"/>
		<line fill="none" stroke="#000000" stroke-width="0.5" x1="1406.792" y1="-807.343" x2="1406.381" y2="-802.957"/>
		<line fill="none" stroke="#000000" stroke-width="0.5" x1="1453.275" y1="-795.971" x2="1451.844" y2="-791.301"/>
		<line fill="none" stroke="#000000" stroke-width="0.5" x1="1438.054" y1="-799.038" x2="1436.625" y2="-794.103"/>
		<line fill="none" stroke="#000000" stroke-width="0.5" x1="1425.506" y1="-800.781" x2="1424.49" y2="-795.847"/>
		<line fill="none" stroke="#000000" stroke-width="0.5" x1="1412.55" y1="-802.261" x2="1411.738" y2="-797.415"/>
		<line fill="none" stroke="#000000" stroke-width="0.5" x1="1405.774" y1="-797.67" x2="1405.167" y2="-792.264"/>
		<line fill="none" stroke="#000000" stroke-width="0.5" x1="1418.42" y1="-797.114" x2="1417.609" y2="-791.257"/>
		<path fill="none" stroke="#000000" stroke-width="0.5" d="M1430.052-789.777"/>
		<path fill="none" stroke="#000000" stroke-width="0.5" d="M1431.276-794.888"/>
		<line fill="none" stroke="#000000" stroke-width="0.5" x1="1444.235" y1="-792.79" x2="1442.906" y2="-787.504"/>
		<path fill="none" stroke="#000000" stroke-width="0.5" d="M1401.744-812.961c14.258,0.529,28.498,2.111,42.582,4.9"/>
		<path fill="none" stroke="#000000" stroke-width="0.5" d="M1315.536-804.675c18.732-4.048,37.661-6.82,56.668-7.94"/>
		<path fill="none" stroke="#000000" stroke-width="0.5" d="M1403.929-792.068c16.639,0.763,33.24,2.922,49.612,6.624"/>
		<path fill="none" stroke="#000000" stroke-width="0.5" d="M1343.886-789.06c7.434-0.966,18.944-2.24,26.411-2.705"/>
		<path fill="none" stroke="#000000" stroke-width="0.5" d="M1320.68-784.977c7.704-1.614,15.442-2.98,23.206-4.084"/>
	</g>
</g>
<g id="g10288" transform="matrix(1.2342234,0,0,-1.2342234,44.018958,1179.65)">
	<path id="rect5514" fill="#F13D24" stroke="#000000" stroke-width="1.5" d="M-25.132,850.739V687.901
		c0-17.216,16.313-31.072,36.577-31.072h40.179c7.151,0,13.246-3.641,15.918-8.861c2.673,5.22,8.766,8.861,15.918,8.861h40.179
		c20.262,0,36.576,13.856,36.576,31.072v162.838H67.542H-25.132L-25.132,850.739z"/>
</g>
<g>
	<g id="XMLID_1_">
		<g>
			<path fill="#FFFFFF" d="M181.264,283.671c0,0.823-1.228,3.313-0.403,8.255c0,0,0.403,2.472,0.824,3.698
				c-0.824,0-1.646-0.402-1.646-0.402s-1.648-0.404-2.894,0.402c-0.42,0.421-1.244,1.262-1.647,2.488c0,0-1.244,6.188-1.646,8.237
				h-7.852h-8.256c-0.402,0-0.822,0-0.822,0.421c0,0,0,0-0.403,0c0,0-2.067,1.664-2.892,5.38h-0.422c0-0.824-0.822-2.068,0-3.716
				c0-0.42,0-0.823-0.402-0.823c0,0-0.42,0-0.824,0c0,0-1.664,1.228-2.066,4.539h-0.422c-0.402-0.421-0.822-1.664-0.402-4.136
				v-0.403c-0.42,0-0.823,0-0.823,0s-2.068,1.647-2.488,4.539h-0.403c0-0.824-0.42-2.472,0-4.136c0,0,0,0-0.42-0.403
				c0-0.824,0.1-2.068,0.319-3.363c0.202-1.294,0.521-2.639,0.925-3.665c1.647-2.471,2.472-3.295,5.363-3.295h7.011
				c0,0,2.893,0,4.96-1.664c2.067-1.631,1.647-4.136,0.823-5.347c0,0-3.715-8.675-5.363-12.391c1.244,0,2.893,0.841,5.784,2.051
				c0.403,0.421,0.823,0.421,1.647,0.421c0.402-0.421,0.822-0.808,0.822-1.228c0.403-0.403,1.647-2.068,3.297-2.473
				c2.066,0,3.715,1.229,3.715,1.229c0.824,0.42,2.067,0.841,2.472,0c0.42-0.824,2.892-2.875,7.431-2.052L181.264,283.671z"/>
			<path fill="#FFFFFF" d="M78.104,306.351h-8.659c-0.42,0-0.841,0.421-0.841,0.421c-0.824,0.42-2.471,2.067-2.875,5.38h-0.42
				c-0.42-0.824-0.824-2.068-0.42-3.716c0-0.42,0-0.823,0-0.823c-0.403,0-0.403,0-0.824,0c0,0-1.647,1.228-2.472,4.539h-0.403
				c0-0.421-0.42-1.664,0-4.136c0,0,0-0.403-0.42-0.403c-0.403,0-0.403,0-0.824,0c0,0-1.647,1.647-2.068,4.539h-0.403
				c-0.42-0.824-0.824-2.472-0.42-4.136c0,0,0,0,0-0.403c0,0,0,0-0.403,0c0.403-1.647,0.403-4.977,1.647-7.028
				c1.647-2.471,2.471-2.471,4.119-2.471h9.499c0.824,0,2.169-0.102,3.564-0.724c1.378-0.604,2.824-1.748,3.867-3.816l5.363-14.845
				c0.403-0.421,2.875-6.204,3.715-10.743c0.824,0,2.875,0,4.943,0.824c2.892,1.664,3.716,4.539,3.716,4.539
				c0.42,0.42,0.42,0.841,1.244,1.244c0,0,0.824,0.42,1.647-0.403c0.824-0.421,4.119-2.488,9.079-1.262
				c-0.824,1.262-2.068,4.136-2.068,7.432c0,0,0,1.244,0,2.488c-0.404-0.421-0.824-0.421-0.824-0.824
				c-0.404,0-0.824-0.823-2.068-0.823c-0.404,0-1.228,0.403-1.648,1.647c-0.824,1.646-1.647,3.295-2.068,7.431v-0.42
				c-0.403-0.403-0.824-1.228-2.051-1.228c-0.824,0-1.648,0.402-2.472,1.646c-1.665,2.472-4.959,8.255-8.271,15.687h-0.404
				c0,0,0,0.387-0.824,0.387H78.104L78.104,306.351z"/>
			<path fill="#FFFFFF" d="M45.908,216.406c-0.404-0.403-0.404-0.403-0.404-0.824c0.404,0,0.824,0,1.648-0.42l0.42,0.841
				C46.731,216.001,45.908,216.406,45.908,216.406z"/>
			<path fill="#FFFFFF" d="M41.789,217.229c-0.42,0.421-2.068,0.421-3.295,0c-0.42,0-0.42,0-0.84,0
				c-0.403-0.403-0.403-0.823-0.403-1.228h0.403h2.068h2.068C41.789,216.406,41.789,216.825,41.789,217.229z"/>
			<path fill="#FFFFFF" d="M41.789,210.218l-0.42,2.472c-0.403-0.42-0.824-1.244-1.227-2.472v-0.42
				c-0.42-0.403-0.42-0.403-0.824-0.823c0-0.404,0-1.229,0-1.648c0.403-0.402,1.227-0.402,1.647-0.822
				c1.647-0.422,0.824-0.824,0.824-0.824s0-1.244-0.42-1.664c-0.403-0.421,0-0.809-1.227-0.421c-0.824,0-1.244,0-2.068,0.421
				c0-0.421-0.42-0.809-0.42-1.631l9.079-1.664c0.42,0,2.488-0.404,3.715-0.824c0.841-0.824,1.665-0.824,1.665-0.824
				s1.228-0.403,2.472-0.403c1.227,0,7.834,0.824,10.726,0.824c0,0,3.715,0.823,5.783,1.647c2.472,1.646,6.187,2.454,7.834,2.454
				c1.244,0,3.295,0.841,5.363,1.244h0.824c1.648,0.841,15.686,4.96,16.51,4.96c0.42,0,3.716,1.228,7.834,0.42
				c3.716-0.823,6.204,0.387,7.431,0.808v0.42c1.244,0.403,4.54,1.244,4.959,1.665c0,0,4.119,1.228,10.306,0.403
				c5.783-1.244,26.832-5.768,26.832-5.768s6.606-1.243,9.499-1.243h0.403c2.894,0,4.54,0,9.499,3.295
				c4.943,2.892,13.197,8.657,17.736,13.215c0,0,2.473,2.471,4.961,5.783c2.471,3.697,8.254,13.196,8.254,13.196
				c0.404,0.404,0.824,1.244,0,2.473c-0.84,1.646-2.067,3.313-2.067,3.313s-1.647,0.823-2.892,2.034l-2.473-9.886
				c0,0-0.822-3.295-0.822-5.768c-0.422-0.421-0.824-1.244-1.244-0.824c-0.824,0-1.244,0.403-1.244,1.212
				c0.42,2.487,1.244,5.8,1.244,5.8l2.471,11.13l3.313,13.618c0,0.42,1.229,5.38,4.539,9.499v0.42
				c2.875,3.716,6.188,8.222,6.592,16.09l-2.051-0.421c-0.422-0.403-0.824-0.403-1.244,0c-0.422,0.421-0.422,0.808,0,1.244
				c0,0,0.822,2.472,0.822,7.011v7.414h-16.089c-0.421,0-0.823,0-0.823,0.421c-0.203,0-0.842,0.42-1.514,1.294
				c-0.673,0.892-1.379,2.236-1.799,4.086h-0.404c0-0.824-0.42-2.068,0-3.716c0-0.42,0-0.823-0.42-0.823h-0.402
				c-0.422,0-2.068,1.228-2.488,4.539h-0.403c-0.421-0.421-0.823-1.664-0.421-4.136v-0.403c-0.402,0-0.823,0-0.823,0
				s-2.052,1.647-2.472,4.539h-0.42c0-0.824-0.404-2.472,0-4.136c0,0,0,0-0.404-0.403c0-1.262,0-3.716,1.244-5.784
				c1.229-3.295,2.875-3.715,5.363-3.715h6.591c0.42,0,2.487,0,3.715-1.646c0.824-1.648-0.823-3.717-0.823-4.138l-4.539-5.767
				c0,0-1.648-2.488-2.472-3.715c-0.824-1.647-2.472-3.296-2.472-3.296c0-0.42-4.959-4.959-5.363-5.362v-0.421l-4.137-2.893
				c0,0-2.891-2.472-4.539-4.118l-0.42-0.42c-1.647-1.665-4.539-4.539-11.129-7.835c-0.422-0.421-1.244,0-1.244,0.402
				c-0.403,0.824,0,1.244,0.42,1.648c6.188,2.892,8.658,5.361,10.306,7.431l0.421,0.42c1.646,1.648,4.539,4.119,4.942,4.119
				c0,0,0.421,0.403,0.823,0.824c-3.698,0-5.767,1.664-6.59,2.488c-0.824-0.422-2.488-1.244-4.959-1.244
				c-2.473,0-4.541,2.066-4.943,3.295c-5.783-2.473-7.852-2.875-8.256-2.875c-1.243,0-2.892,0.402-4.135,2.051
				c-0.824-1.227-2.473-2.874-4.539-2.874c-1.229,0-2.052,0.403-2.473,1.227c-1.244-1.227-3.295-2.892-6.607-3.295l-4.119-11.971
				c0,0-0.823-1.646-0.42-4.539c0-0.42-0.824-0.823-1.228-0.823c-0.823,0-1.244,0.403-1.244,0.823c0,3.295,0.824,5.347,0.824,5.347
				s4.539,11.971,4.539,12.392c0,0.841,2.472,9.499,6.607,13.635c0-0.421,0-0.421,0-0.421l0.824,1.244h-1.647
				c-0.823,0-1.244,0.404-1.647,0.824c0,0.402-0.42,1.228,0.403,2.051c0.421,0.421,0.824,1.646,1.648,2.488h-4.54
				c0,0-0.823-0.421-1.227,0.402c-0.421,0-0.421,0.824-0.421,1.244c0,0.404-0.403,6.188-0.823,9.482c0,0.42-0.421,2.051-2.472,2.051
				h-16.51c-0.42,0-0.824,0.421-1.244,0.421c-0.403,0.42-2.051,2.067-2.471,5.38h-0.42c-0.404-0.824-0.824-2.068-0.404-3.716
				c0-0.42,0-0.823,0-0.823c-0.42,0-0.42,0-0.824,0c0,0-1.647,1.228-2.488,4.539h-0.403c0-0.421-0.42-1.664,0-4.136
				c0,0,0-0.403-0.42-0.403c-0.403,0-0.403,0-0.824,0c0,0-1.647,1.647-2.051,4.539h-0.42c-0.404-0.824-0.824-2.472-0.404-4.136
				c0,0,0,0,0-0.403c0,0,0,0-0.42,0c0.42-1.647,0.824-4.977,2.068-7.432c1.647-2.473,4.119-2.473,5.767-2.473h7.431
				c1.244,0,3.312-0.42,4.136-2.084c0.403-1.631-0.42-3.698-0.824-4.136c0-0.387-2.068-4.927-4.959-8.642l-7.011-11.146
				l-3.312-6.188c-0.403,0-2.471-3.715-4.943-6.188c-2.068-2.067-5.783-5.783-5.783-5.783c-0.404-0.403-0.824-0.403-1.648,0
				c-0.403,0.403-0.403,1.244,0,1.647c0.42,0,3.716,3.715,6.187,5.767c2.068,2.085,4.136,5.801,4.136,5.801s1.228,2.052,2.051,3.716
				c-4.943-0.841-8.255,0.823-9.482,1.646c-0.42-1.244-2.068-3.716-4.96-4.96c-3.295-2.066-6.187-1.244-7.011-1.244
				c0,0-0.824,0.422-2.068,0.422c0.42-1.244,0.42-2.893,0.42-4.539c0-4.54-1.244-7.853-1.647-8.659
				c-0.42-0.42-0.824-0.823-1.665-1.244c-0.403,0-1.227,0-2.051,0.824c0,0-1.244,1.228-2.068,2.067c0-2.472-0.42-6.606-2.068-9.079
				c-0.403-0.823-0.824-1.243-1.227-1.243c-0.42,0-1.244,0-2.068,0.823c0,0.42-0.42,0.823-0.824,1.228
				c0-2.454-0.824-5.768-1.244-6.59c-0.404-1.244-0.824-1.665-2.472-1.665c-0.42,0-1.647,0-2.892,0
				c0.824-0.808,1.647-2.454,1.647-4.522c0-3.715-2.068-8.255-7.834-10.322c0,0-1.244-0.823-2.068,0
				c-0.403,0-0.824,0.421-1.244,1.244c0,0.42,0,0.823,0,1.244c-0.824-0.421-1.647-0.824-2.471,0h-0.404
				c-0.42-0.421-0.42-0.421-0.42-0.421c0-0.403,0-0.403-0.403-0.823c0-0.421-0.824-0.421-1.244-0.421
				c0.42-0.823,0.824-1.646,0.42-2.471c0-1.229-0.841-1.647-2.068-2.068c0,0-0.101,0-0.975-0.05
				c-0.891-0.051-2.539-0.169-5.632-0.37c0,0-0.42,0-0.42-0.421c0.42,0,0.841-0.403,0.841-0.823v-0.387c0-0.824,0-2.068,0-2.068
				c0.403-0.42,0.824-1.243,0.824-1.243c0.404,0.421,0.404,0.823,0.404,0.823c0,0.42,0,1.664,0.824,2.488
				c0.42,0.387,0.824,0.807,1.244,0.807c0,0,1.244-0.42,2.068-0.42c1.227,0,1.647-0.387,1.647-0.808c0.403-0.403,0-0.823,0-1.227
				l-1.244-2.068c0,0,0,0,0-0.42l-1.227-1.665c0,0-0.841-1.244-1.665-1.631c-0.824,0-2.472-0.823-2.472-0.823
				c-0.824-0.42-1.244,0-1.647,0.403C41.789,210.218,41.789,210.218,41.789,210.218z"/>
			<path fill="#231F20" d="M57.608,226.828c-0.134,0.102-0.134,0.304-0.134,0.304S57.524,227.014,57.608,226.828z M181.685,295.624
				c-0.421-1.228-0.824-3.698-0.824-3.698c-0.822-4.942,0.403-7.432,0.403-8.256l2.892-7.834c-4.539-0.823-7.011,1.228-7.431,2.052
				c-0.403,0.841-1.647,0.42-2.472,0c0,0-1.647-1.229-3.715-1.229c-1.648,0.403-2.894,2.068-3.297,2.473
				c0,0.42-0.42,0.807-0.822,1.228c-0.824,0-1.244,0-1.647-0.421c-2.894-1.21-4.54-2.051-5.784-2.051
				c1.648,3.716,5.363,12.391,5.363,12.391c0.824,1.211,1.244,3.716-0.823,5.347c-2.067,1.664-4.96,1.664-4.96,1.664h-7.011
				c-2.892,0-3.716,0.824-5.363,3.295c-0.403,1.026-0.723,2.371-0.925,3.665c-0.219,1.295-0.319,2.539-0.319,3.363
				c0.42,0.403,0.42,0.403,0.42,0.403c-0.42,1.664,0,3.312,0,4.136h0.403c0.42-2.892,2.487-4.539,2.487-4.539s0.404,0,0.824,0v0.403
				c-0.42,2.472,0,3.715,0.402,4.136h0.422c0.402-3.313,2.066-4.539,2.066-4.539c0.404,0,0.824,0,0.824,0
				c0.402,0,0.402,0.403,0.402,0.823c-0.822,1.646,0,2.892,0,3.716h0.422c0.822-3.716,2.892-5.38,2.892-5.38
				c0.403,0,0.403,0,0.403,0c0-0.421,0.42-0.421,0.822-0.421h8.256h7.852c0.402-2.051,1.646-8.237,1.646-8.237
				c0.403-1.228,1.229-2.067,1.647-2.488c1.244-0.808,2.894-0.402,2.894-0.402S180.859,295.624,181.685,295.624z M75.481,297.39
				c-1.396,0.622-2.74,0.724-3.564,0.724h-9.499c-1.648,0-2.472,0-4.119,2.471c-1.244,2.053-1.244,5.381-1.647,7.028
				c0.403,0,0.403,0,0.403,0c0,0.403,0,0.403,0,0.403c-0.403,1.664,0,3.312,0.42,4.136h0.403c0.42-2.892,2.068-4.539,2.068-4.539
				c0.42,0,0.42,0,0.824,0c0.42,0,0.42,0.403,0.42,0.403c-0.42,2.472,0,3.715,0,4.136h0.403c0.824-3.313,2.472-4.539,2.472-4.539
				c0.42,0,0.42,0,0.824,0c0,0,0,0.403,0,0.823c-0.403,1.646,0,2.892,0.42,3.716h0.42c0.403-3.313,2.051-4.96,2.875-5.38
				c0,0,0.42-0.421,0.841-0.421h8.658h8.255c0.824,0,0.824-0.387,0.824-0.387h0.404c3.312-7.432,6.607-13.215,8.271-15.687
				c0.824-1.244,1.647-1.646,2.472-1.646c1.227,0,1.647,0.823,2.051,1.228v0.42c0.42-4.136,1.244-5.783,2.068-7.431
				c0.42-1.244,1.244-1.647,1.648-1.647c1.244,0,1.664,0.823,2.068,0.823c0,0.403,0.42,0.403,0.824,0.824c0-1.244,0-2.488,0-2.488
				c0-3.296,1.244-6.17,2.068-7.432c-4.959-1.228-8.255,0.841-9.079,1.262c-0.824,0.823-1.647,0.403-1.647,0.403
				c-0.824-0.403-0.824-0.824-1.244-1.244c0,0-0.824-2.875-3.716-4.539c-2.068-0.824-4.119-0.824-4.943-0.824
				c-0.84,4.539-3.312,10.322-3.715,10.743l-5.363,14.845C78.305,295.642,76.858,296.785,75.481,297.39z M45.503,215.58
				c0,0.421,0,0.421,0.404,0.824c0,0,0.824-0.403,1.665-0.403l-0.42-0.841C46.329,215.58,45.908,215.58,45.503,215.58z
				 M38.494,217.229c1.228,0.421,2.875,0.421,3.295,0c0-0.403,0-0.823,0-1.228h-2.068h-2.068H37.25c0,0.403,0,0.823,0.403,1.228
				C38.074,217.229,38.074,217.229,38.494,217.229z M41.369,212.69l0.42-2.472c0,0,0,0,0-0.42c0.403-0.403,0.824-0.823,1.647-0.403
				c0,0,1.648,0.823,2.472,0.823c0.824,0.387,1.665,1.631,1.665,1.631l1.227,1.665c0,0.42,0,0.42,0,0.42l1.244,2.067
				c0,0.403,0.403,0.823,0,1.228c0,0.421-0.42,0.808-1.647,0.808c-0.824,0-2.068,0.42-2.068,0.42c-0.42,0-0.824-0.42-1.244-0.807
				c-0.824-0.824-0.824-2.068-0.824-2.488c0,0,0-0.402-0.404-0.824c0,0-0.42,0.824-0.824,1.244c0,0,0,1.244,0,2.068v0.387
				c0,0.42-0.42,0.823-0.841,0.823c0,0.421,0.42,0.421,0.42,0.421c3.094,0.201,4.741,0.319,5.632,0.37
				c0.874,0.05,0.975,0.05,0.975,0.05c1.227,0.421,2.068,0.841,2.068,2.068c0.403,0.823,0,1.646-0.42,2.471
				c0.42,0,1.244,0,1.244,0.421c0.403,0.42,0.403,0.42,0.403,0.823c0,0,0,0,0.42,0.421h0.404c0.824-0.824,1.647-0.421,2.471,0
				c0-0.421,0-0.824,0-1.244c0.42-0.824,0.841-1.244,1.244-1.244c0.824-0.823,2.068,0,2.068,0c5.767,2.067,7.834,6.607,7.834,10.322
				c0,2.068-0.824,3.716-1.647,4.522c1.244,0,2.471,0,2.892,0c1.647,0,2.068,0.421,2.472,1.665c0.42,0.822,1.244,4.136,1.244,6.59
				c0.404-0.403,0.824-0.808,0.824-1.228c0.824-0.823,1.647-0.823,2.068-0.823c0.403,0,0.824,0.42,1.227,1.243
				c1.648,2.473,2.068,6.607,2.068,9.079c0.824-0.841,2.068-2.067,2.068-2.067c0.824-0.824,1.648-0.824,2.051-0.824
				c0.841,0.421,1.244,0.824,1.665,1.244c0.403,0.808,1.647,4.119,1.647,8.659c0,1.646,0,3.295-0.42,4.538
				c1.244,0,2.068-0.421,2.068-0.421c0.824,0,3.716-0.822,7.011,1.244c2.892,1.244,4.54,3.716,4.96,4.96
				c1.227-0.824,4.539-2.487,9.482-1.646c-0.824-1.664-2.051-3.716-2.051-3.716s-2.068-3.716-4.136-5.801
				c-2.471-2.052-5.767-5.767-6.187-5.767c-0.403-0.403-0.403-1.244,0-1.647c0.824-0.403,1.244-0.403,1.648,0
				c0,0,3.715,3.716,5.783,5.783c2.472,2.472,4.54,6.188,4.943,6.188l3.312,6.188l7.011,11.146c2.892,3.715,4.959,8.255,4.959,8.642
				c0.404,0.438,1.228,2.505,0.824,4.136c-0.824,1.664-2.892,2.084-4.136,2.084h-7.431c-1.648,0-4.119,0-5.767,2.473
				c-1.244,2.455-1.648,5.782-2.068,7.432c0.42,0,0.42,0,0.42,0c0,0.403,0,0.403,0,0.403c-0.42,1.664,0,3.312,0.404,4.136h0.42
				c0.404-2.892,2.051-4.539,2.051-4.539c0.42,0,0.42,0,0.824,0c0.42,0,0.42,0.403,0.42,0.403c-0.42,2.472,0,3.715,0,4.136h0.403
				c0.841-3.313,2.488-4.539,2.488-4.539c0.404,0,0.404,0,0.824,0c0,0,0,0.403,0,0.823c-0.42,1.646,0,2.892,0.404,3.716h0.42
				c0.42-3.313,2.068-4.96,2.471-5.38c0.42,0,0.824-0.421,1.244-0.421h16.51c2.051,0,2.472-1.631,2.472-2.051
				c0.42-3.296,0.823-9.078,0.823-9.482c0-0.42,0-1.244,0.421-1.244c0.403-0.823,1.227-0.403,1.227-0.403h4.54
				c-0.824-0.841-1.228-2.066-1.648-2.487c-0.823-0.823-0.403-1.647-0.403-2.051c0.403-0.421,0.824-0.824,1.647-0.824h1.647
				l-0.824-1.244c0,0,0,0,0,0.421c-4.136-4.136-6.607-12.794-6.607-13.635c0-0.421-4.539-12.392-4.539-12.392
				s-0.824-2.052-0.824-5.347c0-0.42,0.421-0.823,1.244-0.823c0.403,0,1.228,0.403,1.228,0.823c-0.403,2.892,0.42,4.539,0.42,4.539
				l4.119,11.971c3.313,0.403,5.363,2.068,6.607,3.295c0.421-0.822,1.244-1.227,2.473-1.227c2.066,0,3.715,1.646,4.539,2.874
				c1.243-1.647,2.892-2.051,4.135-2.051c0.404,0,2.473,0.402,8.256,2.875c0.402-1.229,2.472-3.295,4.943-3.295
				c2.471,0,4.135,0.822,4.959,1.243c0.823-0.823,2.892-2.487,6.59-2.487c-0.402-0.421-0.823-0.824-0.823-0.824
				c-0.403,0-3.296-2.471-4.942-4.119l-0.421-0.42c-1.647-2.068-4.118-4.539-10.306-7.431c-0.42-0.404-0.823-0.824-0.42-1.648
				c0-0.403,0.822-0.823,1.244-0.403c6.59,3.296,9.48,6.17,11.129,7.835l0.42,0.421c1.648,1.646,4.539,4.118,4.539,4.118
				l4.137,2.893v0.421c0.404,0.403,5.363,4.941,5.363,5.362c0,0,1.646,1.647,2.472,3.296c0.823,1.227,2.472,3.715,2.472,3.715
				l4.539,5.767c0,0.421,1.647,2.488,0.823,4.137c-1.228,1.647-3.295,1.647-3.715,1.647h-6.591c-2.488,0-4.137,0.42-5.363,3.715
				c-1.244,2.068-1.244,4.522-1.244,5.784c0.404,0.403,0.404,0.403,0.404,0.403c-0.404,1.664,0,3.312,0,4.136h0.42
				c0.42-2.892,2.472-4.539,2.472-4.539s0.421,0,0.823,0v0.403c-0.402,2.472,0,3.715,0.421,4.136h0.403
				c0.42-3.313,2.066-4.539,2.488-4.539h0.402c0.42,0,0.42,0.403,0.42,0.823c-0.42,1.646,0,2.892,0,3.716h0.404
				c0.42-1.85,1.126-3.194,1.799-4.086c0.672-0.874,1.311-1.294,1.514-1.294c0-0.421,0.402-0.421,0.823-0.421h16.089v-7.414
				c0-4.539-0.822-7.011-0.822-7.011c-0.422-0.438-0.422-0.823,0-1.244c0.42-0.403,0.822-0.403,1.244,0l2.051,0.421
				c-0.403-7.868-3.717-12.374-6.592-16.09v-0.42c-3.312-4.119-4.539-9.079-4.539-9.499l-3.313-13.618l-2.471-11.13
				c0,0-0.824-3.313-1.244-5.801c0-0.808,0.42-1.211,1.244-1.211c0.42-0.42,0.822,0.403,1.244,0.824
				c0,2.472,0.822,5.768,0.822,5.768l2.473,9.886c1.244-1.211,2.892-2.034,2.892-2.034s1.228-1.665,2.067-3.313
				c0.824-1.228,0.404-2.066,0-2.472c0,0-5.783-9.499-8.254-13.197c-2.488-3.313-4.961-5.782-4.961-5.782
				c-4.539-4.558-12.793-10.323-17.736-13.216c-4.959-3.295-6.605-3.295-9.499-3.295h-0.403c-2.893,0-9.499,1.244-9.499,1.244
				s-21.049,4.522-26.832,5.768c-6.187,0.822-10.306-0.403-10.306-0.403c-0.42-0.421-3.715-1.262-4.959-1.665v-0.42
				c-1.227-0.421-3.715-1.631-7.431-0.808c-4.119,0.808-7.414-0.421-7.834-0.421c-0.824,0-14.862-4.118-16.51-4.96h-0.824
				c-2.068-0.402-4.119-1.243-5.363-1.243c-1.647,0-5.363-0.808-7.834-2.454c-2.068-0.824-5.783-1.647-5.783-1.647
				c-2.892,0-9.499-0.824-10.726-0.824c-1.244,0-2.472,0.403-2.472,0.403s-0.824,0-1.665,0.824c-1.227,0.42-3.295,0.824-3.715,0.824
				l-9.079,1.664c0,0.822,0.42,1.21,0.42,1.631c0.824-0.421,1.244-0.421,2.068-0.421c1.227-0.388,0.824,0,1.227,0.421
				c0.42,0.42,0.42,1.664,0.42,1.664s0.824,0.402-0.824,0.823c-0.42,0.42-1.244,0.42-1.647,0.823c0,0.421,0,1.244,0,1.648
				c0.403,0.42,0.403,0.42,0.824,0.822v0.421C40.544,211.446,40.964,212.27,41.369,212.69z M40.142,214.758h2.051
				c0.42-0.421,0.841-1.647,1.665-1.647c0.824,0,1.228,0.403,1.228,1.228c0.42,0,0.824,0,1.244,0
				c-0.42-0.823-0.824-1.228-0.42-1.228c0,0-0.404-0.421-0.824-0.841c-0.824,0-1.648-0.421-2.472-0.824c0,0.824,0,1.665,0,1.665
				c0,0.403-0.42,1.228-1.244,1.228c-0.403,0-1.647-1.228-2.051-2.893c-0.42,0-0.824,0-1.244-0.42
				c-0.824-0.421-0.824-0.808-0.824-1.631c-0.42-1.244-0.42-2.472-0.42-2.893c-0.404-0.823-1.648-2.487-1.228-5.362
				c0-0.42,0.404-0.824,0.824-0.824l9.903-1.647c0.824-0.42,2.068-0.42,2.892-0.841c1.227-0.822,2.471-0.822,2.471-0.822
				c0-0.422,1.244-0.824,2.892-0.824c1.647,0,10.306,1.244,10.726,1.244s4.539,0.823,6.607,2.067
				c2.068,0.823,5.767,2.051,7.011,2.051c1.648,0,3.716,0.422,5.784,1.244h0.824c1.025,0.22,5.044,1.346,8.911,2.473
				c3.867,1.143,7.599,2.285,8.002,2.487c0,0,2.892,1.229,6.607,0.403c1.042-0.185,2.018-0.27,2.892-0.27
				c2.892,0,4.825,0.875,5.767,1.514c1.244,0.403,3.716,1.21,4.959,1.21c0,0,3.716,1.244,9.079,0.421
				c5.783-0.808,26.412-5.347,26.815-5.347c0.42,0,7.027-1.664,9.919-1.664h0.403c2.894,0.42,5.362,0.42,10.728,3.731
				c4.959,3.278,13.215,9.078,18.156,13.618c0,0,2.488,2.471,5.363,6.17c2.488,3.732,8.255,13.214,8.255,13.635
				c0,0,1.647,2.067,0,4.539c-1.228,2.068-2.892,3.295-2.892,3.717c0,0-2.051,1.646-3.717,2.471
				c0.842,2.893,2.893,12.777,2.893,12.777s1.244,4.557,4.136,8.676h0.403c2.893,4.539,7.027,9.886,7.027,19.4
				c0,0.42-0.42,0.823-0.42,1.244c-0.404,0-0.824,0-1.244,0l-1.647-0.824c0.421,1.647,0.421,3.297,0.421,5.768v8.676
				c0,0.403-0.421,1.228-0.824,1.228h-16.93c-0.403,0-0.403,0-0.403,0h-1.243c-0.404,0.421-1.229,2.067-1.648,3.716
				c0,0.42,0,0.823-0.42,0.823h-1.647l-0.403-0.403c0,0-0.42-1.244-0.824-2.893c0,0.824-0.42,1.647-0.822,2.473
				c0,0.42,0,0.823-0.421,0.823h-1.244c0,0-0.403,0-0.403-0.403c0,0-0.824-0.823-0.824-2.893c-0.42,0.824-0.822,1.647-0.822,2.473
				c0,0.42-0.42,0.823-0.824,0.823h-1.244c-0.42,0-0.42-0.403-0.42-0.403c-0.201,0-0.402-0.42-0.555-1.075
				c-0.168-0.673-0.27-1.598-0.27-2.64c-0.404,0-0.824-0.421-0.824-1.244c0,0-0.402-3.716,1.244-7.433
				c1.647-4.117,4.942-4.959,7.432-4.959h6.591c0.42,0,1.244,0,1.664-0.402c0,0-0.42-0.824-0.841-1.648l-4.119-5.767
				c0,0-2.067-2.488-2.471-4.137c-0.824-1.243-2.068-2.471-2.068-2.892c-0.42,0-2.473-2.051-4.539-4.119l-2.893,7.835
				c0,0,0,0,0,0.42c0,0-0.823,2.068,0,7.012l0.42,4.54v-0.422c0.404,0.422,0.404,1.244-0.42,1.664c0,0.404-0.402,0.824-1.646,0.404
				c-0.824-0.404-2.473-0.824-2.473-0.824s-0.42,0-0.823,0.42c-0.42,0-0.42,0.404-0.84,0.824l-1.648,9.079
				c0,0.823-0.403,1.228-1.227,1.228h-8.677h-8.254h-1.228c-0.824,0.421-1.244,2.067-1.665,3.716c0,0.42,0,0.823-0.402,0.823h-1.647
				l-0.421-0.403c0,0-0.823-1.244-0.823-2.893c0,0.824-0.403,1.647-0.824,2.473c0,0.42,0,0.823-0.42,0.823h-1.228
				c0,0-0.42,0-0.42-0.403c0,0-0.824-0.823-0.824-2.893c-0.403,0.824-0.823,1.647-0.823,2.473c0,0.42-0.403,0.823-0.824,0.823
				h-1.244c-0.403,0-0.403-0.403-0.823-0.403c0,0-0.102-0.42-0.202-1.075c-0.101-0.673-0.202-1.598-0.202-2.64
				c-0.42,0-1.244-0.421-1.244-1.244c0,0,0.421-5.38,2.068-8.676c0.623-1.075,1.177-1.983,1.85-2.706
				c1.144-1.178,2.589-1.816,5.161-1.816h7.011c0.421,0,2.488,0,3.716-0.823c0.823-0.824,0-2.892,0-2.892l-5.767-13.618
				c-0.421,0-1.244,0.403-2.067,1.647c0,0.42-0.42,0.807-0.824,0.807c-0.42,0-0.823,0-0.823-0.387
				c-0.824-1.244-2.892-2.893-4.136-3.328c-0.824,0-1.229,1.664-1.229,1.664c0,0.42-0.42,0.841-0.822,0.841
				c-0.842,0.403-1.244,0-1.244-0.421c0,0-1.245-2.893-4.96-3.715c0.622,1.444,1.345,3.514,2.27,5.515
				c0.925,2.017,2.068,3.967,3.515,5.211l1.243,1.665c0.403,0,0.824,1.229,0.403,2.051c-0.403,0.824-1.227,0.824-2.471,0.824
				c0,0-0.421,0-0.825,0c0.825,1.244,1.647,2.471,1.647,2.471c0.422,0.421,0.422,1.244,0.422,1.665
				c-0.422,0.823-1.244,1.229-2.489,1.229c0,0-2.875,0-4.119,0c0,1.664-0.421,8.255-0.824,9.078c0,1.664-1.244,4.539-4.539,4.539
				h-16.089h-1.244h-0.42c-0.403,0.421-1.227,2.067-1.227,3.716c0,0.42-0.42,0.824-0.824,0.824h-1.244
				c-0.42,0-0.42-0.404-0.42-0.404s-0.824-1.244-0.824-2.893c-0.403,0.824-0.824,1.647-0.824,2.473c0,0.42-0.403,0.824-0.824,0.824
				h-0.824c-0.42,0-0.42,0-0.42-0.404c-0.403,0-1.227-0.823-1.227-2.893c-0.42,0.824-0.42,1.647-0.824,2.473
				c0,0.42,0,0.824-0.42,0.824h-1.647l-0.42-0.404c0,0-0.101-0.42-0.202-1.075c-0.101-0.673-0.202-1.598-0.202-2.64
				c-0.42,0-0.824,0-0.824-0.421c-0.42,0-0.42-0.403-0.42-0.823c0,0,0-4.943,2.068-9.079c1.042-1.849,2.589-2.791,4.068-3.244
				c1.496-0.471,2.942-0.471,3.766-0.471c0,0,7.431,0,7.851,0c0.404,0,1.228,0,1.647-0.404c0-0.42-0.42-1.646-0.824-2.066
				c0-0.422-2.068-4.539-4.539-8.677l-6.607-9.885c-0.42,1.227-1.647,3.295-1.647,6.17v3.715c0,0.421,0,1.665-0.824,2.068
				c-0.824,0.42-1.648,0-2.068-0.824c-1.244-1.244-1.648-1.646-1.648-1.646c-0.824,1.646-1.647,3.698-2.068,8.255
				c0,1.244-0.403,2.067-0.824,2.067c-0.403,0.403-1.244,0.403-2.068-0.823c-0.403-1.244-0.824-1.682-0.824-1.682
				c-0.403-0.387-0.403-0.387-0.403-0.387s-0.42,0-0.824,0.387c-1.244,2.505-4.539,8.271-8.255,15.282c0,0,0,0,0.404,0
				c-0.404,0.841-1.228,2.067-3.295,2.067H78.11h-8.255h-1.647c-0.42,0.421-1.244,2.067-1.244,3.716c0,0.42-0.403,0.824-0.824,0.824
				h-1.244c-0.403,0-0.403-0.404-0.403-0.404s-0.824-1.244-0.824-2.893c-0.42,0.824-0.824,1.647-0.824,2.473
				c0,0.42-0.42,0.824-0.824,0.824h-0.824c-0.42,0-0.42,0-0.42-0.404c-0.403,0-1.244-0.823-1.244-2.893
				c-0.403,0.824-0.403,1.647-0.824,2.473c0,0.42,0,0.824-0.403,0.824H56.66l-0.42-0.404c0,0-0.101-0.42-0.219-1.075
				c-0.101-0.673-0.202-1.598-0.202-2.64c-0.824,0-1.227-0.421-1.227-1.244c0,0,0-5.38,2.068-8.676
				c2.051-3.295,3.715-3.295,5.767-3.295h9.499c0.404,0,3.716,0,5.363-3.296l5.363-14.861c0,0,2.471-5.363,3.295-9.482
				c-0.403,0.404-1.647,0.404-2.051,0.824c-0.824,0-1.244,0-1.244-0.42c-0.42-0.404-0.42-0.824-0.42-1.229
				c0,0,1.244-2.067,1.244-5.782c0-2.068-0.319-3.717-0.672-4.96c-0.353-1.244-0.773-2.052-0.975-2.473l-3.312,2.893
				c-0.404,0.402-1.228,0.402-1.648,0.402c-1.227-0.807-1.227-2.051-0.824-2.874c0-2.067-0.403-5.362-1.647-7.852
				c-0.824,1.244-1.647,2.067-1.647,2.067c-0.824,0.808-1.244,1.243-2.068,0.808c-0.824,0-0.824-1.631-0.824-2.034
				c0-2.067-0.824-6.221-1.244-7.027c0,0,0,0,0-0.403c0,0,0,0-0.403,0c-0.824,0-2.068,0-3.715,0.403c-0.42,0-1.648,0-2.068-0.823
				c-0.404-0.824,0-1.244,0.42-2.068c0.824-0.403,1.648-2.051,2.051-4.119c0-2.892-1.647-6.605-6.59-8.255c0,0,0,0-0.42,0
				c0,0.505-0.151,1.009-0.269,1.328c0.05-0.066,0.151-0.101,0.269-0.101c-0.403,0.823-0.403,1.243-1.227,1.665
				c0,0-0.841,0.42-1.665-0.422h-0.403c0,0,0-0.42-0.42-0.42l-0.824,0.842c-0.824,0-2.051,0-2.472-1.665
				c-0.42,0-0.42-0.42-0.42-0.42h-0.403c-0.824,0-1.244,0-1.647-0.388c-0.219-0.202-0.32-0.521-0.32-0.874
				c0-0.37,0.101-0.772,0.32-1.193c0.403-0.42,0.824-1.244,0.824-1.647c0,0,0,0-0.42,0c-0.403,0-4.119-0.42-6.187-0.42
				c0,0,0,0-0.42,0c-0.824-0.403-2.051-0.824-2.051-2.488v-0.421c-0.824,0-1.244,0-2.068-0.402c0,0,0,0-0.42,0
				c0,0-0.403,0-0.403-0.421c-1.244-0.387-1.648-1.631-1.244-2.454c0-0.421,0.42-1.244,2.068-0.823h2.054V214.758z"/>
		</g>
	</g>
	<path d="M54.171,204.013c-1.238-0.824-1.651-2.477-1.651-2.477c-0.413-0.414-0.825-0.826-1.238-0.826
		c-0.413,0.412-0.825,0.826-0.413,1.238c0,0,0,0,0,0.412c-1.237,0.413-2.476,0.827-2.476,0.827c-0.412,0.41-0.412,0.824-0.412,1.236
		c0.412,0.411,0.825,0.411,1.238,0.411c0,0,1.238-0.823,2.476-0.823c0.412,0.412,0.825,0.823,1.651,1.649
		c0.412,0,0.825,0,1.238-0.412S54.585,204.425,54.171,204.013z"/>
	<path id="path337_1_" fill="#1F1A17" d="M65.69,203.153c3.152-0.373,6.483,3.024,4.238,5.772c-1.38,1.708-6.174,1.061-5.252-2.035
		c1.054,0.399,2.836,1.329,3.22-0.342C67.681,204.895,65.971,204.744,65.69,203.153L65.69,203.153L65.69,203.153z"/>
</g>
</svg>
