<?xml version="1.0" encoding="UTF-8" standalone="no"?>
<!-- Created with Inkscape (http://www.inkscape.org/) -->

<svg
   xmlns:dc="http://purl.org/dc/elements/1.1/"
   xmlns:cc="http://creativecommons.org/ns#"
   xmlns:rdf="http://www.w3.org/1999/02/22-rdf-syntax-ns#"
   xmlns:svg="http://www.w3.org/2000/svg"
   xmlns="http://www.w3.org/2000/svg"
   xmlns:sodipodi="http://sodipodi.sourceforge.net/DTD/sodipodi-0.dtd"
   xmlns:inkscape="http://www.inkscape.org/namespaces/inkscape"
   id="svg2"
   version="1.1"
   inkscape:version="0.48.4 r9939"
   width="5670"
   height="3402"
   sodipodi:docname="Flag of Huntingdonshire.svg">
  <metadata
     id="metadata8">
    <rdf:RDF>
      <cc:Work
         rdf:about="">
        <dc:format>image/svg+xml</dc:format>
        <dc:type
           rdf:resource="http://purl.org/dc/dcmitype/StillImage" />
        <dc:title />
      </cc:Work>
    </rdf:RDF>
  </metadata>
  <defs
     id="defs6" />
  <sodipodi:namedview
     pagecolor="#ffffff"
     bordercolor="#666666"
     borderopacity="1"
     objecttolerance="10"
     gridtolerance="10"
     guidetolerance="10"
     inkscape:pageopacity="0"
     inkscape:pageshadow="2"
     inkscape:window-width="1920"
     inkscape:window-height="1005"
     id="namedview4"
     showgrid="false"
     inkscape:zoom="0.1767767"
     inkscape:cx="2704.4178"
     inkscape:cy="1455.1681"
     inkscape:window-x="-9"
     inkscape:window-y="-9"
     inkscape:window-maximized="1"
     inkscape:current-layer="svg2">
    <inkscape:grid
       type="xygrid"
       id="grid3024"
       empspacing="5"
       visible="true"
       enabled="true"
       snapvisiblegridlinesonly="true" />
  </sodipodi:namedview>
  <rect
     style="fill:#008236;fill-opacity:1;fill-rule:nonzero;stroke:none"
     id="rect2987"
     width="5675.001"
     height="3404.0012"
     x="0"
     y="-2" />
  <path
     inkscape:connector-curvature="0"
     style="opacity:1;fill:#facb0f;fill-opacity:1;stroke:#000000;stroke-width:8.35452652000000030;stroke-miterlimit:4"
     d="m 1748.2283,2230.0223 c 32.1418,1.47 88.9492,12.3657 124.8069,54.458 46.8345,54.9779 71.5726,105.0471 4.0755,165.3059 -37.3921,33.3823 -118.3053,20.8318 -174.0909,-46.0782 -41.0257,-49.2068 -30.4459,-122.4301 0.4499,-158.0728 11.0921,-12.7963 33.6306,-16.1218 44.7586,-15.6129 z m 11.2463,51.976 c -6.2179,1.3893 -13.362,2.9157 -17.285,8.3397 -9.8099,13.5634 -17.5251,49.1392 3.9111,78.2829 28.3187,38.501 69.8427,54.2214 88.1239,37.239 28.859,-26.8088 9.4148,-82.3179 -23.2918,-110.7441 -11.4206,-9.9259 -32.8052,-17.2866 -51.4582,-13.1175 z"
     id="path3776-4"
     sodipodi:nodetypes="sssssscssssc" />
  <path
     transform="matrix(0.99576997,0,0,0.99879612,18.312023,-620.24092)"
     style="opacity:1;fill:#ffed00;fill-opacity:1;fill-rule:nonzero;stroke:#000000;stroke-width:8;stroke-linecap:butt;stroke-linejoin:miter;stroke-miterlimit:4;stroke-opacity:1;stroke-dashoffset:44"
     d="m 4308.6936,2480.8751 c 11.2835,557.7392 -571.4204,1351.3297 -1479.3491,1352.5047 -791.8152,1.0247 -1512.7608,-591.4592 -1518.6433,-1321.1161 -0.7584,-94.0759 -38.6805,-151.7126 -63.1955,-190.7994 l 276.0272,-3e-4 c -32.0343,51.7966 -54.222,90.123 -41.814,183.5631 54.3482,409.2764 397.0822,896.3959 1043.8873,894.8606 742.2505,-1.7618 893.5373,-657.3366 927.6915,-923.7326 6.8495,-53.4244 -40.4573,-105.1314 -78.4046,-135.8639 l 1035.1269,1.9427 c -24.3855,12.7898 -102.7291,69.3073 -101.3264,138.6412 z"
     id="path3763"
     inkscape:connector-curvature="0"
     sodipodi:nodetypes="sssccsssccs" />
  <path
     style="fill:#facb0f;fill-opacity:1;stroke:none"
     d="m 3449.3405,1800.3609 c 20.7732,46.5792 829.3275,76.938 884.3721,-11.2309 13.3898,-21.4473 30.2441,-37.341 59.3841,-61.899 -990.8374,-2.1466 -997.566,-1.5859 -997.566,-1.5859 23.5759,25.1798 43.0852,50.6681 53.8098,74.7158 z"
     id="path3770"
     inkscape:connector-curvature="0"
     sodipodi:nodetypes="ssccs" />
  <path
     style="fill:#facb0f;fill-opacity:1;stroke:#000000;stroke-width:12;stroke-linecap:butt;stroke-linejoin:miter;stroke-miterlimit:4;stroke-opacity:1;stroke-dasharray:none"
     d="m 1276.1986,1720.9616 c 0,0 32.5218,45.1297 47.1005,161.7594 5.4313,29.633 168.4084,21.6977 168.7767,-3.3643 -5.6073,-138.4977 34.7646,-149.4236 34.7646,-149.4236 z"
     id="path3006"
     inkscape:connector-curvature="0"
     sodipodi:nodetypes="ccccc" />
  <rect
     style="opacity:1;fill:#ffed00;fill-opacity:1;fill-rule:nonzero;stroke:#000000;stroke-width:12;stroke-linecap:butt;stroke-linejoin:miter;stroke-miterlimit:4;stroke-opacity:1;stroke-dasharray:none;stroke-dashoffset:44"
     id="rect3766"
     width="385.25339"
     height="117.14994"
     x="1203.7695"
     y="1629.6041"
     rx="78.500793"
     ry="57.78212" />
  <path
     style="fill:#facb0f;fill-opacity:1;stroke:#000000;stroke-width:12;stroke-linecap:butt;stroke-linejoin:miter;stroke-miterlimit:4;stroke-opacity:1;stroke-dasharray:none"
     d="m 1666.7881,2329.9715 c 5.6072,28.036 -176.066,139.4551 -186.159,127.1193 32.1479,71.0245 75.1138,124.7628 96.0474,145.3225 19.0643,17.1954 208.3273,-124.2647 194.87,-140.7125 -38.8765,-57.9411 -72.6105,-99.5814 -104.7584,-131.7293 z"
     id="path3768"
     inkscape:connector-curvature="0"
     sodipodi:nodetypes="ccccc" />
  <rect
     style="fill:#ffed00;fill-opacity:1;fill-rule:nonzero;stroke:#000000;stroke-width:12;stroke-miterlimit:4;stroke-dasharray:none"
     id="rect2993"
     width="1110.2257"
     height="157.00159"
     x="3341.8909"
     y="1583.0244"
     ry="78.500793"
     rx="78.500793" />
  <path
     style="fill:#facb0f;stroke:#000000;stroke-width:8.35452652000000030;stroke-miterlimit:4;fill-opacity:1;opacity:1"
     d="M 3337.4062 1952.7188 C 3290.0232 1952.4539 3245.1233 1993.601 3220.0312 2042.875 C 3187.2579 2107.233 3205.6341 2178.6071 3262.4375 2198.625 C 3332.9081 2223.4593 3384.8254 2199.3564 3423.5312 2121.3125 C 3451.9961 2063.9177 3432.5948 1996.8389 3381.125 1965.5625 C 3366.6529 1956.7683 3351.9113 1952.7998 3337.4062 1952.7188 z M 3334.4062 2015.8438 C 3340.7767 2015.7502 3347.1568 2016.9681 3353.1562 2019.9375 C 3375.3065 2030.9005 3379.7072 2059.1403 3368.6875 2098.3438 C 3355.7543 2144.3546 3309.8825 2159.5842 3292.6562 2149.0938 C 3259.0138 2128.6062 3262.2025 2075.8122 3287.4062 2040.5625 C 3296.2069 2028.254 3315.295 2016.1244 3334.4062 2015.8438 z "
     id="path3776" />
  <path
     style="fill:#facb0f;fill-opacity:1;stroke:none;stroke-width:8;stroke-linecap:butt;stroke-linejoin:miter;stroke-miterlimit:4;stroke-opacity:1;stroke-dasharray:none"
     d="m 3429.3003,2009.7634 c 1.5859,100.9725 570.4794,252.4633 810.7516,217.8366 -24.5822,91.9853 -77.7117,172.0761 -77.7117,172.0761 -264.0616,35.9483 -786.6339,-112.8671 -785.048,-209.3461 10.8374,-58.9446 26.1042,-119.243 52.0081,-180.5666 z"
     id="path3774"
     inkscape:connector-curvature="0"
     sodipodi:nodetypes="ccccc" />
  <path
     style="fill:#ffffff;stroke:none;stroke-width:1px;stroke-linecap:butt;stroke-linejoin:miter;stroke-opacity:1"
     d="m 3585.0524,2953.9676 c 545.5687,-504.3338 551.1195,-1093.5163 551.1195,-1093.5163 61.0593,-15.0666 110.2239,-18.2385 110.2239,-18.2385 -30.6618,395.4315 -264.3259,897.1222 -661.3434,1111.7548 z"
     id="path3772"
     inkscape:connector-curvature="0"
     sodipodi:nodetypes="cccc" />
  <path
     style="fill:none;fill-opacity:1;stroke:#000000;stroke-width:12;stroke-linecap:butt;stroke-linejoin:miter;stroke-miterlimit:4;stroke-opacity:1;stroke-dasharray:none"
     d="m 3429.3003,2009.7634 c 1.5859,100.9725 570.4794,252.4633 810.7516,217.8366 -24.5822,91.9853 -77.7117,172.0761 -77.7117,172.0761 -264.0616,35.9483 -786.6339,-112.8671 -785.048,-209.3461 10.8374,-58.9446 26.1042,-119.243 52.0081,-180.5666 z"
     id="path3774-7"
     inkscape:connector-curvature="0"
     sodipodi:nodetypes="ccccc" />
  <path
     style="fill:#facb0f;stroke:#000000;stroke-width:12;stroke-linecap:butt;stroke-linejoin:miter;stroke-opacity:1;stroke-miterlimit:4;stroke-dasharray:none;fill-opacity:1"
     d="m 2479.6916,2669.7552 c -4.4099,-134.7245 11.4877,-250.0339 53.2269,-328.0434 34.5132,-64.5043 136.2413,-176.469 145.077,-250.9159 14.5335,-122.455 -13.0794,-122.6189 -13.0794,-122.6189 l -166.7616,-202.7298 c 38.693,88.2856 48.9736,162.0017 49.5264,239.3071 0.4171,58.3132 -9.5185,147.1038 -39.9974,196.8193 -25.8574,42.1772 -152.8426,46.2487 -195.9096,95.2219 -32.2537,36.6771 -36.3639,121.7772 -34.3333,197.8251 37.0582,-67.0818 45.6542,-87.7624 91.5554,-116.0792 10.6677,-6.581 27.3808,-6.9364 37.6031,0 -14.0871,29.2963 -16.7429,62.6774 -17.9841,94.8253 -4.0462,104.7989 41.7645,162.3858 91.0766,196.3885 z"
     id="path4409"
     inkscape:connector-curvature="0"
     sodipodi:nodetypes="cssccssscscsc" />
  <path
     style="fill:#ffed00;fill-opacity:1;stroke:#000000;stroke-width:12;stroke-linecap:butt;stroke-linejoin:miter;stroke-miterlimit:4;stroke-opacity:1;stroke-dasharray:none"
     d="m 2654.3172,1008.9527 c -51.2167,41.6182 -271.0586,233.3157 -272.8305,430.0549 -3.0708,340.9696 217.9359,408.1251 298.0655,630.9772 19.3131,-321.4133 -125.3736,-338.7991 -122.3441,-550.0529 2.8926,-201.7055 134.8738,-258.1871 136.4152,-508.6671 -13.102,-0.7707 -26.2041,-1.5414 -39.3061,-2.3121 z"
     id="path4400"
     inkscape:connector-curvature="0"
     sodipodi:nodetypes="cscscc" />
  <g
     id="g3787">
    <path
       sodipodi:nodetypes="ssccsssccs"
       inkscape:connector-curvature="0"
       id="path3017"
       d="m 2099.805,854.16252 c -1.6824,54.40388 46.4718,147.49338 45.9928,249.78798 -0.3033,64.7613 -34.3624,139.0355 -31.7192,206.1743 -138.7711,-37.27 -137.9781,-42.0279 -137.9781,-42.0279 -11.8946,-46.7857 -13.3831,-11.5986 -11.8946,-56.3014 1.2054,-36.2026 27.7858,-73.9741 29.3401,-158.5956 1.4689,-79.97255 -38.886,-120.26361 -38.8559,-187.93568 0.021,-46.42862 15.8596,-72.16098 15.8596,-72.16098 99.1222,-38.06293 157.4061,-40.83835 157.4061,-40.83835 -10.7053,24.97879 -26.7764,57.45343 -28.1508,101.89763 z"
       style="fill:#facb0f;stroke:#000000;stroke-width:12;stroke-linecap:butt;stroke-linejoin:miter;stroke-opacity:1;fill-opacity:1;stroke-miterlimit:4;stroke-dasharray:none" />
    <path
       sodipodi:nodetypes="sssccssscs"
       inkscape:connector-curvature="0"
       id="path3009"
       d="m 2169.7744,1418.6607 c 81.4073,-0.7001 118.4549,-23.7483 153.2854,-52.9934 97.0034,-81.4478 119.3894,-112.4053 147.3032,-150.421 61.4632,-83.7065 124.8524,-139.1612 147.0981,-152.3604 l -10.4418,-43.4811 c -9.6478,-0.6568 -21.1149,-2.2428 -21.1149,-2.2428 -125.4267,1.0311 -190.8938,35.6348 -257.7952,110.5579 -115.7095,129.5835 -116.5496,169.0988 -195.1306,170.4589 -84.6311,1.4648 -136.9915,-41.6695 -165.5882,-59.0515 11.8946,107.419 94.0083,180.4654 202.384,179.5334 z"
       style="fill:#ffed00;fill-opacity:1;stroke:#000000;stroke-width:12;stroke-linecap:butt;stroke-linejoin:miter;stroke-miterlimit:4;stroke-opacity:1;stroke-dasharray:none" />
    <path
       sodipodi:nodetypes="ssscsssccs"
       inkscape:connector-curvature="0"
       id="path3013"
       d="m 2590.5261,892.21757 c -49.8316,-9.62678 -235.3942,-145.71345 -284.8457,-179.43038 -98.6867,-67.2864 -184.2131,-56.13784 -228.1169,-36.29424 -98.2699,44.41603 -111.1022,127.81114 -111.1022,127.81114 65.6862,-27.10052 97.2744,-36.75553 166.1325,-36.10183 108.1705,1.0269 83.0993,96.33111 183.6441,143.40824 63.6781,29.81545 103.9863,41.89918 175.6015,43.4077 78.8404,1.66072 135.3658,-2.10683 160.0375,0.13605 l -0.1924,-51.12171 z"
       style="fill:#ffed00;stroke:#000000;stroke-width:12;stroke-linecap:butt;stroke-linejoin:miter;stroke-opacity:1;fill-opacity:1;stroke-miterlimit:4;stroke-dasharray:none" />
  </g>
  <path
     style="fill:#facb0f;stroke:#000000;stroke-width:12;stroke-linecap:butt;stroke-linejoin:miter;stroke-opacity:1;fill-opacity:1;stroke-miterlimit:4;stroke-dasharray:none"
     d="m 2931.988,1526.488 c -26.9146,34.7646 -40.6933,59.0096 -41.4369,106.152 -1.4681,93.0747 39.8272,104.8647 86.8718,157.8509 101.5441,114.3688 111.7761,267.9159 111.0225,281.4814 -1.1214,20.1859 -5.6072,40.3718 -5.6072,40.3718 -75.1365,-115.5082 -127.8442,-131.2084 -127.8442,-131.2084 2.2429,17.943 16.0724,52.7572 15.7002,85.2294 -0.4244,37.0221 -20.9335,102.051 -66.1649,132.3299 -3.3643,-151.3943 -4.2967,-191.9134 -32.5218,-263.5383 -31.6452,-80.3042 -58.637,-114.8024 -62.8006,-168.216 -3.9625,-50.8334 -10.6197,-64.3362 -3.3643,-86.3509 10.0162,-30.3918 8.2475,-80.8119 37.2798,-111.7394 34.5832,-18.2398 88.8656,-42.3624 88.8656,-42.3624 z"
     id="path3821"
     inkscape:connector-curvature="0"
     sodipodi:nodetypes="csssccscssscc" />
  <path
     style="fill:#facb0f;fill-opacity:1;stroke:#000000;stroke-width:12;stroke-linecap:butt;stroke-linejoin:miter;stroke-miterlimit:4;stroke-opacity:1;stroke-dasharray:none"
     d="m 3458.8494,929.00603 c -18.2661,51.27341 -63.4314,171.30317 -67.4032,260.09667 -2.5399,56.7825 29.6046,146.9653 28.5473,215.6901 138.7711,-37.27 135.6627,-68.7392 135.6627,-68.7392 2.6461,-13.0431 4.3824,-24.7143 5.191,-38.676 2.165,-37.3786 0.2647,-137.0492 -1.2896,-172.5061 -3.5029,-79.9093 41.4592,-132.5711 42.0278,-196.65843 0.2692,-30.33531 6.6081,-71.10368 -21.4104,-106.25903 -99.1222,-38.06293 -115.3783,-16.25604 -115.3783,-16.25604 10.7053,24.97879 5.366,91.55148 -5.9473,123.30803 z"
     id="path3017-7"
     inkscape:connector-curvature="0"
     sodipodi:nodetypes="ssccsssccs" />
  <path
     style="fill:#ffed00;fill-opacity:1;stroke:#000000;stroke-width:12;stroke-linecap:butt;stroke-linejoin:miter;stroke-miterlimit:4;stroke-opacity:1;stroke-dasharray:none"
     d="m 3366.6767,1497.4691 c -81.4073,-0.7001 -114.704,-28.912 -153.2854,-52.9934 -41.7778,-26.0764 -121.7432,-84.3523 -162.3698,-139.1479 -59.1182,-79.7364 -187.2707,-212.8716 -187.2707,-212.8716 l 74.1082,13.03 c 127.8056,1.824 191.9986,43.2476 264.932,115.3157 79.695,78.7495 90.3813,161.169 197.5095,168.08 84.4682,5.4491 127.624,-41.6027 156.2207,-58.9847 -11.8946,107.419 -81.4688,168.5039 -189.8445,167.5719 z"
     id="path3009-4"
     inkscape:connector-curvature="0"
     sodipodi:nodetypes="sssccsscs" />
  <path
     style="fill:#facb0f;fill-opacity:1;stroke:#000000;stroke-width:12;stroke-linecap:butt;stroke-linejoin:miter;stroke-miterlimit:4;stroke-opacity:1;stroke-dasharray:none"
     d="m 2898.0478,1064.4436 c 86.7047,107.5137 136.4403,201.9051 163.2031,332.9457 47.6345,233.2359 64.7394,289.0154 64.7394,289.0154 l -34.6818,-30.0575 c -102.1188,-224.276 -206.5497,-413.8701 -351.4427,-617.3369 z"
     id="path3890"
     inkscape:connector-curvature="0"
     sodipodi:nodetypes="cscccc" />
  <path
     style="fill:#ffed00;stroke:#000000;stroke-width:12;stroke-linecap:butt;stroke-linejoin:miter;stroke-opacity:1;stroke-miterlimit:4;stroke-dasharray:none;fill-opacity:1"
     d="m 3046.6205,1564.6705 c 8.8214,214.8914 125.8712,417.1885 222.0338,541.6039 4.9834,6.4475 10.2139,3.5925 11.1017,0 8.065,-32.6353 28.8837,-63.6474 55.5084,-79.2978 5.6458,-3.3187 2.1305,-14.0372 -0.793,-31.7191 -14.47,-87.5192 -119.1186,-247.2705 -227.8359,-366.4931 -14.1745,-15.5442 -33.7087,-37.3374 -60.015,-64.0939 z"
     id="path3816"
     inkscape:connector-curvature="0"
     sodipodi:nodetypes="csssssc" />
  <path
     style="fill:#ffed00;fill-opacity:1;stroke:#000000;stroke-width:12;stroke-linecap:butt;stroke-linejoin:miter;stroke-miterlimit:4;stroke-opacity:1;stroke-dasharray:none"
     d="m 2951.4758,957.54535 c 49.8316,-9.62678 196.185,-108.96426 280.0878,-181.01634 83.0335,-71.30547 165.3634,-110.57066 264.2686,-60.5425 65.8249,33.29545 103.7656,132.97856 102.4919,149.85928 -36.4758,-49.71049 -102.6465,-55.17177 -170.6775,-49.76126 -94.4093,7.50838 -75.1696,88.40133 -191.5739,164.02566 -58.962,38.30581 -107.9512,51.41491 -179.5664,52.92341 -78.8404,1.6607 -128.8261,-37.68335 -159.0486,-41.78425 l -7.1403,-21.88903 z"
     id="path3013-0"
     inkscape:connector-curvature="0"
     sodipodi:nodetypes="ssscsssccs" />
  <path
     style="fill:#ffed00;fill-opacity:1;stroke:#000000;stroke-width:12;stroke-linecap:butt;stroke-linejoin:miter;stroke-miterlimit:4;stroke-opacity:1;stroke-dasharray:none"
     d="m 2927.0032,1087.1756 c 12.6877,18.2384 57.0928,65.1422 57.765,116.6901 0.776,59.5041 -191.9833,304.3624 -185.5568,443.2745 1.4602,31.5627 5.5509,42.8209 5.5509,42.8209 34.891,-128.4624 301.1759,-187.4935 283.093,-452.7903 -13.138,-192.7492 -176.2859,-268.55018 -176.2859,-268.55018 z"
     id="path3819"
     inkscape:connector-curvature="0"
     sodipodi:nodetypes="csscscc" />
  <path
     style="fill:#facb0f;fill-opacity:1;stroke:#000000;stroke-width:12;stroke-linecap:butt;stroke-linejoin:miter;stroke-miterlimit:4;stroke-opacity:1;stroke-dasharray:none"
     d="m 2662.8193,1081.7471 c -69.924,64.1407 -138.3901,126.8114 -187.1428,239.4792 -55.2441,127.6695 -99.3865,270.4055 -170.4902,356.8401 0,32.5121 13.8654,95.8473 13.8654,95.8473 16.6429,-58.0235 22.3926,-87.1269 91.6006,-160.8715 75.1186,-80.0427 201.5739,-161.8113 261.6827,-256.9248 80.0755,-126.7079 86.763,-176.3773 110.5523,-293.2093 z"
     id="path3814"
     inkscape:connector-curvature="0"
     sodipodi:nodetypes="csccsscc" />
  <path
     style="fill:#ffed00;fill-opacity:1;stroke:#000000;stroke-width:12;stroke-linecap:butt;stroke-linejoin:miter;stroke-miterlimit:4;stroke-opacity:1;stroke-dasharray:none"
     d="m 1775.2393,2273.8315 c -9.0292,14.6169 -10.7877,18.172 -1.1214,25.7931 35.847,28.2626 55.6775,51.3689 63.9221,77.3793 2.3138,7.2998 7.6899,7.1895 15.7001,3.3644 297.9837,-142.2944 516.0493,-501.6574 477.7334,-735.6646 -13.7969,12.0364 -43.3252,39.1067 -50.898,45.7812 -240.3875,211.8723 -443.5987,483.4029 -505.3362,583.3466 z"
     id="path3004"
     inkscape:connector-curvature="0"
     sodipodi:nodetypes="sssscss" />
  <path
     style="fill:#facb0f;fill-opacity:1;stroke:#000000;stroke-width:12;stroke-linecap:butt;stroke-linejoin:miter;stroke-miterlimit:4;stroke-opacity:1;stroke-dasharray:none"
     d="m 2529.4625,218.20659 c 191.6061,5.83057 197.6429,39.0846 315.6049,40.46216 100.0067,1.16788 157.7405,-17.36625 263.8711,-15.60683 6.014,0.0997 79.4792,29.47957 79.4792,29.47957 11.5606,101.73341 11.5606,101.73341 11.5606,101.73341 -5.7804,-1.15606 -18.6949,-3.04311 -43.9304,-2.31212 -52.8349,1.53046 -150.4301,41.46138 -227.7441,41.61821 -114.9522,0.23317 -242.3181,-40.26858 -342.1942,-40.46215 -75.5193,-0.14637 -137.5714,25.43335 -137.5714,25.43335 -15.1846,4.42388 -21.9093,-9.06584 -26.5893,-18.49698 24.2773,-131.79101 58.9591,-136.41526 58.9591,-136.41526 16.1849,-8.47779 38.3805,-25.74295 48.5545,-25.43336 z"
     id="path4411"
     inkscape:connector-curvature="0"
     sodipodi:nodetypes="sssccssscccs" />
  <path
     style="fill:#ffed00;fill-opacity:1;stroke:#000000;stroke-width:12;stroke-linecap:butt;stroke-linejoin:miter;stroke-miterlimit:4;stroke-opacity:1;stroke-dasharray:none"
     d="m 2713.9637,851.52812 c 2.1799,-41.41792 5.0288,-83.98078 3.0714,-125.40981 -6.1312,-129.76985 -60.8506,-173.08412 -102.6268,-214.19291 -44.155,-43.44968 -143.4703,-51.83315 -148.7538,-140.70047 -3.0941,-52.04133 35.2409,-136.60776 71.3584,-154.04494 -105.6585,-5.18525 -203.9,49.05505 -205.62,166.76162 -2.6006,177.97087 193.9402,206.29231 333.5232,468.94093 z"
     id="path4405"
     inkscape:connector-curvature="0"
     sodipodi:nodetypes="cssscscc" />
  <path
     style="fill:#ffed00;fill-opacity:1;stroke:#000000;stroke-width:12;stroke-linecap:butt;stroke-linejoin:miter;stroke-miterlimit:4;stroke-opacity:1;stroke-dasharray:none"
     d="m 2892.4659,837.85557 c 0.3854,-24.2773 -3.198,-36.99912 -2.3121,-55.49096 6.1948,-129.30621 83.7626,-175.27941 157.2243,-234.68048 59.2198,-47.8851 135.9121,-76.61951 135.2592,-156.06831 -0.4001,-48.68822 -34.6408,-116.38252 -85.5075,-148.17422 63.3609,-1.23822 124.7663,25.61852 156.2453,56.10305 31.4791,30.48453 42.107,68.54883 47.1805,127.90908 9.6338,112.716 -182.8238,238.95205 -230.7788,314.0152 -44.0437,68.94088 -62.3055,113.2487 -120.8042,135.07362 z"
     id="path4407"
     inkscape:connector-curvature="0"
     sodipodi:nodetypes="cssscssscc" />
  <path
     style="fill:#ffed00;fill-opacity:1;stroke:#000000;stroke-width:12;stroke-linecap:butt;stroke-linejoin:miter;stroke-miterlimit:4;stroke-opacity:1;stroke-dasharray:none"
     d="m 2626.4122,832.78123 c 57.4677,-34.53996 122.6364,-8.02623 165.9731,-7.85008 73.172,-0.30513 106.1766,-39.45294 155.7866,9.85245 30.9513,26.49242 36.9571,66.36235 21.5584,99.31228 -10.093,20.54261 -23.8427,42.49355 -20.3434,60.7067 10.0063,52.07992 50.1339,59.99052 20.1859,110.48862 -35.2324,59.4086 -139.3033,-14.0448 -186.159,-14.0448 -66.9336,0 -102.0677,52.7189 -173.1002,0.6819 -49.8306,-46.0535 -7.0862,-96.77874 -7.4516,-139.15301 -1.7338,-43.80002 -17.0329,-99.44761 23.5502,-119.99406 z"
     id="path3812"
     inkscape:connector-curvature="0"
     sodipodi:nodetypes="ccccsssccc" />
</svg>
