<?xml version="1.0" encoding="UTF-8" standalone="no"?>
<svg
   xmlns:dc="http://purl.org/dc/elements/1.1/"
   xmlns:cc="http://creativecommons.org/ns#"
   xmlns:rdf="http://www.w3.org/1999/02/22-rdf-syntax-ns#"
   xmlns:svg="http://www.w3.org/2000/svg"
   xmlns="http://www.w3.org/2000/svg"
   xml:space="preserve"
   enable-background="new 30.5 31.5 412 533"
   viewBox="30.5 31.5 400 500"
   height="500"
   width="400"
   y="0"
   x="0"
   version="1.1"
   id="svg2"><metadata
     id="metadata4"><rdf:RDF><cc:Work
         rdf:about=""><dc:format>
          
          
          
          
          
          image/svg+xml
        
        
        
        
        
        </dc:format><dc:type
           rdf:resource="http://purl.org/dc/dcmitype/StillImage" /><dc:title></dc:title></cc:Work></rdf:RDF></metadata><defs
     id="defs6" /><path
     id="path4148"
     d="M 230.45,531.13 C 156.13,477.21 105.19,409.11 74.71,322.97 47.07,244.87 35.98,150.22 40.8,33.62 l 0.02,-0.46 379.82,0 0.02,0.46 c 4.81,116.6 -6.28,211.24 -33.91,289.35 -30.48,86.14 -81.42,154.24 -155.74,208.16 l -0.28,0.2 -0.28,-0.2 z"
     style="fill:#000000;fill-opacity:1" /><path
     d="M 419.96,33.21 C 429.03,252.66 383.71,419.16 230.51,530.31 146.04,469.02 94.36,390.9 66.52,296.34 64.43,289.25 62.48,282.07 60.65,274.8 49.2,229.11 42.88,179.78 40.77,126.86 39.57,96.8 39.72,65.58 41.06,33.21 l 189.45,0 189.45,0 m 0.92,-0.95 -0.92,0 -189.45,0 -189.45,0 -0.92,0 -0.04,0.92 c -4.82,116.66 6.28,211.36 33.93,289.52 30.51,86.24 81.51,154.41 155.91,208.39 l 0.56,0.41 0.56,-0.41 C 305.46,477.11 356.46,408.94 386.97,322.7 414.62,244.54 425.72,149.84 420.9,33.18 l -0.04,-0.92 0,0 z"
     id="path10" /><path
     style="fill:#fce300;fill-opacity:1;stroke:#000000;stroke-width:1;stroke-opacity:1;stroke-miterlimit:4;stroke-dasharray:none;stroke-linejoin:round;stroke-linecap:round"
     id="path4015"
     d="m 235.28986,353.23264 c 1.36996,-7.1598 1.27996,-12.57966 6.23982,-18.1695 6.32982,-7.14978 8.51976,0.83 12.03966,2.18996 3.9299,1.51994 2.72992,-5.05986 3.4999,-8.31978 1.24996,-5.27984 7.09982,-11.18968 12.25966,-1.08996 2.35992,4.60986 0.02,29.57916 -1.16998,44.87872 -1.93992,24.7893 -0.22998,44.10876 19.33946,61.94824 2.69992,2.45994 7.1298,2.78992 4.59988,-3.2799 -4.1499,-9.95972 -4.56988,-17.5895 -0.11002,-27.57922 8.07978,-18.12948 28.6392,-15.63956 37.70894,-25.68926 5.96984,-6.61982 0.41,-8.13976 -4.04988,-4.67988 -12.38966,4.46988 -19.76944,-9.09974 -12.23966,-14.06958 12.45964,-8.21978 32.87906,-8.48978 38.5089,-23.57936 2.93992,-7.86976 -2.49992,-6.1998 -6.5698,-3.0399 -8.01978,6.22982 -22.05936,10.09972 -30.59914,10.4497 -29.68914,1.20998 -23.94932,-26.75924 0.14002,-53.2285 21.94934,-24.11928 54.85844,-17.82948 71.22796,-43.44874 2.09994,-3.28992 0.85998,-9.50974 -2.29994,-5.35986 -3.78988,4.98986 -12.84964,9.32974 -13.7896,-4.48986 -0.89998,-13.21962 19.11946,-34.99902 17.72948,-41.26884 -1.39996,-6.31982 -5.51982,0.81998 -8.53974,1.96994 -8.62976,3.2999 -9.93972,-6.00982 -6.23984,-10.3997 8.09978,-9.58972 18.0395,-19.80944 27.46924,-29.65916 4.00988,-4.17988 9.51972,-13.30962 0.87996,-12.03964 -4.74986,0.69996 -16.15954,-0.59998 -16.85952,-11.2697 -0.93996,-14.41958 9.79972,-27.05922 18.71946,-41.368818 1.87996,-3.009914 9.01976,-11.549672 2.29994,-10.399704 -7.70978,1.319964 -10.99968,13.949604 -25.06928,11.379676 -8.47976,-1.549956 -4.08988,-11.159682 -1.19996,-15.979544 2.24994,-3.749894 -0.2,-5.349848 -3.9399,-4.159882 C 362.65624,77.490474 350.2666,90.25011 337.62696,80.700382 322.84738,69.5507 334.03706,53.231162 325.3673,56.401074 311.5877,61.43093 299.41804,76.830492 285.41844,90.6601 c -7.3998,7.309792 -12.38966,-0.35999 -11.05968,-6.569814 1.90994,-8.879748 8.53976,-16.499532 18.27946,-23.529331 5.31986,-3.839891 -0.08,-6.309821 -3.1699,-4.819863 -11.14966,5.369848 -40.04884,20.959404 -44.10874,76.287848 -1.77996,24.2693 -0.66998,47.98862 13.56962,81.54766 6.6598,15.67956 27.7492,44.10876 32.06908,56.25841 3.6299,10.20969 -2.11994,20.01943 -9.29974,21.66937 -17.4795,4.0299 -21.86936,-3.4899 -22.21936,-13.7896 -0.18,-5.21986 -2.84992,-7.87977 -9.18974,-7.87977 -13.18964,0 -26.38924,0 -39.57888,0 -6.3398,0 -9.01974,2.65991 -9.18974,7.87977 -0.35,10.2997 -4.73986,17.8195 -22.21938,13.7896 -7.17978,-1.65994 -12.92962,-11.45968 -9.29972,-21.66937 4.31988,-12.14965 25.40926,-40.57885 32.0691,-56.25841 14.23958,-33.54904 15.34956,-57.26838 13.5696,-81.54766 -4.05988,-55.338444 -32.95906,-70.918 -44.10874,-76.287848 -3.0899,-1.489958 -8.48976,0.969972 -3.1699,4.819863 9.7397,7.039799 16.36952,14.649583 18.27948,23.529331 1.32996,6.209824 -3.6499,13.879606 -11.0597,6.569814 C 161.57196,76.820494 149.4123,61.420932 135.6227,56.391072 126.95294,53.221164 138.14262,69.5307 123.36304,80.690384 110.7234,90.230112 98.333758,77.480472 85.714116,73.460588 81.97422,72.270622 79.52429,73.870576 81.774226,77.62047 84.664144,82.450332 89.05402,92.06006 80.574262,93.600014 66.504662,96.169942 63.214754,83.540302 55.504974,82.22034 c -6.719808,-1.149968 0.419988,7.389788 2.299934,10.399702 8.919746,14.319598 19.65944,26.949238 18.719468,41.368838 -0.69998,10.66968 -12.099656,11.96966 -16.85952,11.26966 -8.649754,-1.26996 -3.129912,7.8598 0.879976,12.03968 9.42973,9.8597 19.379446,20.07942 27.469216,29.65914 3.699896,4.37988 2.389934,13.68962 -6.239822,10.3997 -3.019912,-1.14996 -7.139796,-8.28976 -8.539756,-1.96994 -1.379962,6.26982 18.62947,28.0392 17.729494,41.26882 -0.939972,13.81962 -9.999714,9.47974 -13.789606,4.48988 -3.149912,-4.14988 -4.399876,2.06994 -2.299934,5.35986 16.369534,25.62926 49.278616,19.33944 71.227956,43.44876 24.08934,26.45924 29.82916,54.43844 0.14002,53.22848 -8.53978,-0.34998 -22.57936,-4.21988 -30.59914,-10.4497 -4.06988,-3.1599 -9.50972,-4.83986 -6.5698,3.03992 5.62984,15.08956 26.04926,15.35956 38.5089,23.57932 7.53978,4.96986 -0.47,18.84946 -12.23966,14.0696 -4.45988,-3.4599 -10.01972,-1.93994 -4.04988,4.67987 9.07974,10.04971 29.62916,7.56979 37.70894,25.68927 4.45986,9.98972 4.03988,17.6295 -0.11002,27.57922 -2.52992,6.06982 1.89996,5.74984 4.59988,3.2799 19.57944,-17.84948 21.2894,-37.15894 19.33946,-61.94824 -1.19996,-15.29956 -3.5299,-40.26884 -1.16998,-44.87872 5.15984,-10.09972 11.0097,-4.17988 12.25966,1.08996 0.76998,3.24992 -0.43,9.83974 3.4999,8.31976 3.5199,-1.35996 5.70984,-9.32972 12.03966,-2.18992 4.95986,5.58984 4.86986,11.00968 6.23982,18.16948 0.46998,2.44994 2.16994,2.18994 4.78986,2.18994 2.62992,0 4.32988,0.26 4.78986,-2.18994 z" /></svg>