<?xml version="1.0" encoding="UTF-8" standalone="no"?>
<svg
   xmlns:dc="http://purl.org/dc/elements/1.1/"
   xmlns:cc="http://creativecommons.org/ns#"
   xmlns:rdf="http://www.w3.org/1999/02/22-rdf-syntax-ns#"
   xmlns:svg="http://www.w3.org/2000/svg"
   xmlns="http://www.w3.org/2000/svg"
   xml:space="preserve"
   enable-background="new 30.5 31.5 412 533"
   viewBox="30.5 31.5 400 500"
   height="500"
   width="400"
   y="0"
   x="0"
   version="1.1"
   id="svg2"><metadata
     id="metadata4"><rdf:RDF><cc:Work
         rdf:about=""><dc:format>
          
          
          
          
          image/svg+xml
        
        
        
        
        </dc:format><dc:type
           rdf:resource="http://purl.org/dc/dcmitype/StillImage" /><dc:title></dc:title></cc:Work></rdf:RDF></metadata><defs
     id="defs6" /><path
     id="path4148"
     d="M 230.45,531.13 C 156.13,477.21 105.19,409.11 74.71,322.97 47.07,244.87 35.98,150.22 40.8,33.62 l 0.02,-0.46 379.82,0 0.02,0.46 c 4.81,116.6 -6.28,211.24 -33.91,289.35 -30.48,86.14 -81.42,154.24 -155.74,208.16 l -0.28,0.2 z"
     style="fill:#e00e00" /><path
     d="M 419.96,33.21 C 429.03,252.66 383.71,419.16 230.51,530.31 146.04,469.02 94.36,390.9 66.52,296.34 64.43,289.25 62.48,282.07 60.65,274.8 49.2,229.11 42.88,179.78 40.77,126.86 39.57,96.8 39.72,65.58 41.06,33.21 l 189.45,0 189.45,0 m 0.92,-0.95 -0.92,0 -189.45,0 -189.45,0 -0.92,0 -0.04,0.92 c -4.82,116.66 6.28,211.36 33.93,289.52 30.51,86.24 81.51,154.41 155.91,208.39 l 0.56,0.41 0.56,-0.41 C 305.46,477.11 356.46,408.94 386.97,322.7 414.62,244.54 425.72,149.84 420.9,33.18 l -0.04,-0.92 0,0 z"
     id="path10" /><path
     id="path4329"
     d="M 322.26288,365.81231 C 345.45496,319.2043 363.1413,259.53383 366.86604,190.66281 L 267.07456,178.63403 C 255.40039,144.37522 251.7005,102.89327 249.83421,56.5 c -12.88948,0 -25.77895,0 -38.66843,0 -1.86629,46.39327 -5.56618,87.87522 -17.24035,122.13403 l -99.791478,12.02878 c 3.724739,68.87102 21.411078,128.54149 44.603158,175.1495 17.89567,35.96406 58.24026,98.52921 91.76289,98.52921 33.52262,0 73.86721,-62.56515 91.76288,-98.52921 z"
     style="fill:#ffe000;fill-rule:evenodd;stroke:#000000;stroke-width:1;stroke-linecap:butt;stroke-linejoin:round;stroke-miterlimit:4;stroke-dasharray:none;stroke-opacity:1;fill-opacity:1" /><path
     id="path4313"
     d="M 156.39909,354.19574 C 135.0829,306.87705 126.12786,263.4331 124.52285,225.68283 c -0.45009,-10.5861 9.33639,-10.92649 16.62895,-10.89093 59.56623,0.63805 119.12999,0.29043 178.6964,0 7.29256,-0.0356 17.07904,0.30483 16.62895,10.89093 -1.60501,37.75027 -10.56005,81.19422 -31.87624,128.51291 -13.84693,30.73804 -53.94079,89.30559 -74.10091,89.30559 -20.16012,0 -60.25398,-58.56755 -74.10091,-89.30559 z"
     style="fill:none;fill-rule:evenodd;stroke:#000000;stroke-width:1px;stroke-linecap:butt;stroke-linejoin:miter;stroke-opacity:1" /></svg>