<?xml version="1.0" encoding="UTF-8" standalone="no"?>
<svg
   xmlns:dc="http://purl.org/dc/elements/1.1/"
   xmlns:cc="http://creativecommons.org/ns#"
   xmlns:rdf="http://www.w3.org/1999/02/22-rdf-syntax-ns#"
   xmlns:svg="http://www.w3.org/2000/svg"
   xmlns="http://www.w3.org/2000/svg"
   xml:space="preserve"
   enable-background="new 30.5 31.5 412 533"
   viewBox="30.5 31.5 400 500"
   height="500"
   width="400"
   y="0"
   x="0"
   version="1.1"
   id="svg2"><metadata
     id="metadata4"><rdf:RDF><cc:Work
         rdf:about=""><dc:format>
          
          
          
          image/svg+xml
        
        
        
        </dc:format><dc:type
           rdf:resource="http://purl.org/dc/dcmitype/StillImage" /><dc:title></dc:title></cc:Work></rdf:RDF></metadata><defs
     id="defs6" /><path
     d="M230.56 531.14C304.88 477.22 355.82 409.12 386.3 322.98 413.94 244.88 425.03 150.23 420.21 33.63l-0.02-0.46-379.82 0-0.02 0.46c-4.81 116.6 6.28 211.24 33.91 289.35 30.48 86.14 81.42 154.24 155.74 208.16l0.28 0.2 0.28-0.2z"
     id="path8"
     fill="#32ac60" /><path
     id="path4211"
     style="fill:#ffffff;stroke:#000000;stroke-width:1;stroke-opacity:1;stroke-miterlimit:4;stroke-dasharray:none"
     d="m 369.13171,231.64975 c -29.56735,-58.16214 -85.55987,-90.70878 -95.12427,-98.29042 -7.64326,-6.64949 -15.90266,-14.71828 -15.71479,-19.73155 0.22516,-6.00775 -3.56344,-12.31045 -11.53524,-21.723925 -0.7222,-0.825368 3.77219,-6.409481 4.49439,-7.131681 1.85708,-2.1666 -4.46219,-9.311367 -11.68419,-19.834855 -5.57124,-8.150544 -7.89914,-11.336121 -10.58162,-10.407581 -3.40464,1.23806 -9.09194,3.920516 -13.01246,6.087116 l -6.52547,-5.49379 c 0,0 -0.74826,0.04517 -6.11318,4.275187 l -6.33872,6.9771 2.99196,8.150544 c -17.02328,14.444 -32.99235,27.654515 -54.10076,47.123645 -19.52857,18.01201 -36.62593,31.70879 -35.91649,34.27215 5.19724,15.01149 14.57467,23.96431 29.30728,37.19356 15.59982,14.00802 32.1911,21.03495 39.43105,21.78866 3.29017,0.34249 6.68056,-6.76442 15.86284,-20.07354 8.6664,-12.58688 19.32524,-29.02973 17.62935,-32.24098 -11.90877,-25.95191 -10.62924,-45.03753 1.44424,-55.02256 1.6903,-1.39794 3.611,-1.13492 7.222,-1.23808 1.34124,-0.10316 5.79694,1.02523 8.1699,4.73939 39.20516,62.1092 67.74994,40.73338 123.0643,128.34551 2.82645,4.47677 17.75027,-4.91854 17.02988,-7.7639 z" /><path
     d="M41.04 33.21C31.97 252.66 77.3 419.16 230.5 530.31 383.69 419.16 429.01 252.66 419.94 33.21l-189.45 0-189.45 0m-0.92-0.95 0.92 0 189.45 0 189.45 0 0.92 0 0.04 0.92c4.82 116.66-6.28 211.36-33.93 289.52-30.51 86.24-81.51 154.41-155.91 208.39l-0.56 0.41-0.56-0.41C155.54 477.11 104.54 408.94 74.03 322.7 46.38 244.54 35.28 149.84 40.1 33.18l0.04-0.92 0 0z"
     id="path10" /><path
     d="m 344.63029,359.96282 c -29.21417,-50.20624 -56.86347,-60.67107 -66.46015,-68.27827 -7.66902,-6.67193 -19.12651,-14.76792 -18.938,-19.79807 0.22592,-6.02799 -3.57548,-12.35197 -11.57412,-21.79719 -0.72464,-0.82816 3.78491,-6.4311 4.50955,-7.15574 1.86336,-2.17388 -4.47723,-9.34274 -11.72359,-19.90174 -5.59004,-8.178 -7.92582,-11.37434 -10.6173,-10.44266 -3.41616,1.24224 -9.12262,3.93372 -13.05634,6.10764 l -6.54751,-5.51231 c 0,0 -0.75078,0.0454 -6.13378,4.28961 l -6.36012,7.00063 3.00208,8.178 c -17.08072,14.49272 -33.10363,27.74779 -54.2832,47.28256 -19.59445,18.07273 -36.74945,31.81571 -36.03761,34.38771 5.21476,15.06213 14.62383,24.04511 29.40612,37.319 15.65242,14.05526 32.29966,21.10591 39.56401,21.8621 3.30125,0.34365 6.70308,-6.78718 15.91632,-20.14118 8.69564,-12.62936 19.3904,-29.12761 17.68879,-32.34974 -11.94893,-26.03943 -10.66504,-45.18941 1.44916,-55.20812 1.69598,-1.40262 3.62316,-1.13872 7.24636,-1.24224 1.34572,-0.10352 5.81646,1.02871 8.19742,4.75539 35.71422,50.99641 40.80504,16.8676 97.66459,98.43472 3.03785,4.35791 17.81015,-4.9351 17.08732,-7.7901 z"
     style="fill:#ffffff;stroke:#000000;stroke-width:1;stroke-opacity:1;stroke-miterlimit:4;stroke-dasharray:none"
     id="path4292" /></svg>