<?xml version="1.0" encoding="UTF-8" standalone="no"?>
<svg
   xmlns:dc="http://purl.org/dc/elements/1.1/"
   xmlns:cc="http://creativecommons.org/ns#"
   xmlns:rdf="http://www.w3.org/1999/02/22-rdf-syntax-ns#"
   xmlns:svg="http://www.w3.org/2000/svg"
   xmlns="http://www.w3.org/2000/svg"
   id="svg2"
   version="1.1"
   x="0"
   y="0"
   width="400"
   height="500"
   viewBox="30.5 31.5 400 500"
   enable-background="new 30.5 31.5 412 533"
   xml:space="preserve"><metadata
     id="metadata4"><rdf:RDF><cc:Work
         rdf:about=""><dc:format>
          
          
          
          
          image/svg+xml
        
        
        
        
        </dc:format><dc:type
           rdf:resource="http://purl.org/dc/dcmitype/StillImage" /><dc:title></dc:title></cc:Work></rdf:RDF></metadata><defs
     id="defs6" /><path
     fill="#0085ca"
     id="path8"
     d="M230.44 531.14C156.12 477.22 105.18 409.12 74.7 322.98 47.06 244.88 35.97 150.23 40.79 33.63l0.02-0.46 379.82 0 0.02 0.46c4.81 116.6-6.28 211.24-33.91 289.35C356.26 409.12 305.32 477.22 231 531.14l-0.28 0.2-0.28-0.2z" /><path
     id="path10"
     d="M419.96 33.21C429.03 252.66 383.7 419.16 230.5 530.31 77.31 419.16 31.99 252.66 41.06 33.21l189.45 0 189.45 0m0.92-0.95-0.92 0-189.45 0-189.45 0-0.92 0-0.04 0.92c-4.82 116.66 6.28 211.36 33.93 289.52 30.51 86.24 81.51 154.41 155.91 208.39l0.56 0.41 0.56-0.41C305.46 477.11 356.46 408.94 386.97 322.7 414.62 244.54 425.72 149.84 420.9 33.18l-0.04-0.92 0 0z" /><path
     style="fill:#ffffff;stroke:#000000;stroke-width:0.99000001;stroke-linecap:round;stroke-linejoin:round;stroke-miterlimit:4;stroke-dasharray:none"
     id="path4239"
     d="m 153.59,145.46 c 8.55,-7.79 19.4292,-16.531 31.5892,-25.031 -6.97661,-7.18511 -5.95855,-12.54943 -6.11246,-19.61916 -0.11931,-5.480194 1.51579,-8.435853 0.73596,-25.808232 18.94,2.932263 30.31759,15.753053 38.67759,28.461802 47.02,-31.437604 63.95873,-49.874826 91.30919,-46.038104 28.60954,4.013343 41.11034,28.777465 43.35901,53.297584 1.93133,21.05988 -6.70338,43.80307 -12.0138,64.76721 -8.91735,35.20336 -14.35749,60.64478 16.33833,82.88131 1.10171,0.79809 -0.86255,2.48609 -1.65528,2.14656 -52.68355,-22.56475 -25.66931,-91.22842 -24.27764,-126.00707 0.96863,-24.20665 -6.14866,-42.066137 -25.13071,-41.5618 -13.24822,0.351994 -28.15975,15.48934 -47.0365,28.28 27.8638,18.77075 30.70881,53.6196 35.85218,91.8279 4.79534,35.62286 8.42452,67.78515 9.62801,79.124 3.24038,-4.21295 8.9519,-4.9505 13.52525,-3.77097 26.18128,6.75245 11.81361,36.03715 30.76546,40.77077 -4.8,5.45 -16.72919,8.87569 -22.59829,3.4309 1.2819,5.9128 0.97729,10.55183 -0.2263,17.1737 -1.30765,7.19438 -10.34319,10.3638 -4.40621,20.9383 -12.57948,-0.64981 -10.21191,-16.18807 -12.69659,-20.28299 0.40652,14.35577 -3.19351,21.47426 -7.18002,25.48612 -5.50979,5.54484 -7.21441,10.85995 -3.92259,19.65577 -12.31649,2.022 -13.53408,-10.11961 -11.5162,-14.9218 -7.73633,5.18135 -7.49328,14.46379 -7.39485,22.97243 0.13662,11.81036 -4.87003,23.95762 -19.87654,27.28967 2.0229,-5.1637 0.90631,-8.31702 1.43319,-14.24869 -5.63885,2.8823 -10.30394,18.27241 -8.83839,30.40389 1.70858,14.1432 -1.58945,31.79249 -21.18769,36.81669 5.86982,-18.09269 -2.68826,-20.5857 -5.03741,-29.77901 -2.98639,-11.68707 -4.9053,-25.6711 4.6741,-38.87578 -17.42369,-0.73242 -6.37371,29.32542 -31.51659,40.16759 6.17399,-12.13799 0.44923,-16.41874 -1.66542,-23.18975 -5.90823,-18.91786 9.27625,-36.83814 12.0123,-37.79282 -6.18592,0.01 -11.81309,1.31348 -16.01186,9.48196 -4.81396,9.36527 -2.73186,27.44145 -23.89772,25.82382 9.87035,-7.12815 0.68887,-15.48339 -0.29621,-25.259 -0.49947,-4.95655 0.50806,-10.90625 4.40815,-14.24375 2.63751,-2.25705 4.19981,-3.94777 5.24118,-5.79181 1.14138,-2.02114 -0.12144,-3.94788 1.84736,-7.77804 -4.38802,1.41551 -6.14889,9.71526 -11.98144,14.37434 -5.68727,4.54304 -16.70538,3.94685 -23.35544,0.95367 16.31472,-1.43243 14.57269,-15.59484 16.78665,-21.08334 2.12563,-5.2695 2.99852,-11.66024 14.74534,-18.47747 2.77157,-1.60847 3.62044,-5.10373 3.06679,-7.44479 -5.45852,7.17872 -17.85012,14.0244 -28.04248,7.90939 14.49199,-1.73971 14.85399,-10.80772 18.58939,-16.19 5.4384,-7.83612 11.10564,-7.85169 11.7137,-13.98711 -3.50714,3.87103 -13.83828,9.0421 -20.58138,2.15071 4.13932,0.0382 6.37602,-0.62584 9.19055,-2.3396 2.20429,-1.34219 2.59744,-4.41448 4.11673,-6.65023 1.4036,-2.06551 5.83082,-2.8208 6.81509,-5.01737 0.68848,-13.66199 8.53951,-30.51021 8.7,-66.0201 -0.38697,-0.66069 -7.41119,-1.70857 -7.2171,-0.519 -1.10002,31.43245 -37.41249,25.33116 -42.721,51.35669 -5.18436,-15.79521 11.23167,-23.88257 18.15304,-36.54166 2.41282,-4.413 3.6718,-9.38157 2.45966,-15.42593 -0.44,-0.81892 -9.74,-1.6512 -10,0.32 -1.88553,16.40924 -19.06842,7.71081 -26.7982,31.81389 -6.84338,-16.0393 12.89196,-24.94815 8.9592,-34.4947 -22.63299,-0.5054 -33.68147,-9.33388 -34.4583,-16.37199 -0.37737,-3.419 11.0928,-7.57829 11.0792,-9.5227 -0.4,-1.7826 -15.300299,1.87871 -14.732895,-2.30801 0.233112,-1.72007 1.086102,-5.95493 4.668295,-9.6441 10.5396,-10.85436 54.56661,-45.68026 54.56661,-45.68026 0,0 -4.1632,-9.12853 -0.6232,-12.35853 z" /><path
     style="fill:none;stroke:#000000;stroke-linecap:round"
     id="path4272"
     d="m 180.10498,142.53051 c -11.93328,8.89138 -15.17299,12.31588 -15.01659,13.49849" /><path
     style="fill:#ffffff;stroke:#000000;stroke-width:1.07000005"
     id="path4797"
     d="m 172.95839,157.629 c 0.01,5.98 -8.16,5.98 -8.15,0 -0.01,-5.98 8.16,-5.98 8.15,0 z" /><path
     id="path4648"
     d="m 309.2164,350.44071 c -0.27971,-0.69941 -0.88219,-1.71225 -1.96586,-2.98333"
     style="fill:none;fill-rule:evenodd;stroke:#000000;stroke-width:1px;stroke-linecap:round;stroke-linejoin:miter;stroke-opacity:1" /><path
     id="path4650"
     d="m 326.5455,332.6117 -1.14318,-1.42125"
     style="fill:none;fill-rule:evenodd;stroke:#000000;stroke-width:1px;stroke-linecap:round;stroke-linejoin:miter;stroke-opacity:1" /></svg>