<svg xmlns:dc="http://purl.org/dc/elements/1.1/" xmlns:cc="http://creativecommons.org/ns#" xmlns:rdf="http://www.w3.org/1999/02/22-rdf-syntax-ns#" xmlns:svg="http://www.w3.org/2000/svg" xmlns="http://www.w3.org/2000/svg" id="svg2" version="1.1" x="0" y="0" width="400" height="500" viewBox="30.5 31.5 400 500" enable-background="new 30.5 31.5 412 533" xml:space="preserve">
  <metadata id="metadata4">
    <rdf:RDF>
      <cc:Work rdf:about="">
        <dc:format>
          
          
          
          
          image/svg+xml
        
        
        
        
        </dc:format>
        <dc:type rdf:resource="http://purl.org/dc/dcmitype/StillImage"/>
      </cc:Work>
    </rdf:RDF>
  </metadata>
  <defs id="defs6"/>
  <path id="path8" d="M230.56 531.14C304.88 477.22 355.82 409.12 386.3 322.98 413.94 244.88 425.03 150.23 420.21 33.63l-0.02-0.46-379.82 0-0.02 0.46c-4.81 116.6 6.28 211.24 33.91 289.35 30.48 86.14 81.42 154.24 155.74 208.16l0.28 0.2 0.28-0.2z" fill="#0085ca"/>
  <path id="path10" d="M41.04 33.21C31.97 252.66 77.3 419.16 230.5 530.31 383.69 419.16 429.01 252.66 419.94 33.21l-189.45 0-189.45 0m-0.92-0.95 0.92 0 189.45 0 189.45 0 0.92 0 0.04 0.92c4.82 116.66-6.28 211.36-33.93 289.52-30.51 86.24-81.51 154.41-155.91 208.39l-0.56 0.41-0.56-0.41C155.54 477.11 104.54 408.94 74.03 322.7 46.38 244.54 35.28 149.84 40.1 33.18l0.04-0.92 0 0z"/>
  <path id="path3918" d="m109.67 63.55 10.81-0.04c1.73-10.48-5.04-17.18-14.42-14.77 5.43 2.72 4.68 11.15 3.61 14.81z" style="fill:#ffe000;stroke-miterlimit:4;stroke:#000"/>
  <path id="path3920" d="m98.85 103.6c-0.42-4.88 4.02-9.42-1.65-14.68-13.44 0.56-14.01 10.06-10.96 19.68 2.95-6.93 8.89-6.48 12.61-5z" style="fill:#ffe000;stroke-miterlimit:4;stroke:#000"/>
  <path id="path3922" d="m88.68 72.5c6.81 1.25 7.9-4.81 9.6-10.09-4.06-7.4-14.31-12.87-20.83 2.13 8.03-4.7 10.76 3.7 11.23 7.96z" style="fill:#ffe000;stroke-miterlimit:4;stroke:#000"/>
  <path id="path3916" d="m183.85 190.57 21.88-27.51c-31.69-22.09-59.55-48.44-82.21-74.8-3.5-3.74-4.09-8.38-2.87-13.37 0.93-3.8 5.9-7.27 4.97-10.61-2.23-8.02-6.72-0.47-10.16-1.77-4.76-1.8-5.53-2.74-7.29-0.77-2.37 2.65 3.88 8.9-1.1 10.28-7.14 1.97-1.61-10.43-7.29-11.16-2.55-0.33-4.41 3-5.19 6.41-0.71 3.09-10.23 5.76-7.96 10.5 2.7 5.62 6.71 1.38 10.39 2.54 4.8 1.52 4 5.58 2.21 5.41-7.44-0.68-5.7 0.59-6.08 1.77-1.17 3.63 5.52 5.45 5.41 9.61-0.09 3.62-0.74 9.74 1.33 10.17 3.65 0.76 7.58-5.98 11.38-3.54 6.87 4.41 1.54 12.65 5.75 16.02 12.46 9.97 5.61 16.58-1.33 12.93 2.51 5.41 11.34 10.72 20.33 0.11 3.76 6.42-0.97 12.73-8.84 12.6 5.21 6.13 11.41 10.45 19.56 0.22 2.05 4.67 3.12 11.59-7.62 11.16 5.28 11.32 13.7 8.14 18.01 3.98 8.83 10.9 17.62 22.33 26.74 29.83" style="fill:#ffe000;stroke-miterlimit:4;stroke:#000"/>
  <path id="path3879" d="m105.47 152.38 12.14 0.07c0.63-10.92-6.91-15.85-15.75-12.45 5.1 1.72 6.45 9.5 3.61 12.38z" style="fill:#ffe000;stroke-miterlimit:4;stroke:#000"/>
  <path id="path3877" d="m70.61 158.26c5.16-4.01 10-2.58 11.41 3.83l8.67-11.56c-9.56-7.19-16.66-2.45-20.08 7.73z" style="fill:#ffe000;stroke-miterlimit:4;stroke:#000"/>
  <path id="path3883" d="m85.46 188.79-1.97-13.53c-9.86-0.17-15.2 4.81-14.46 15.74 5.15-7.02 12.86-4.85 16.43-2.2z" style="fill:#ffe000;stroke-miterlimit:4;stroke:#000"/>
  <path id="path3891" d="m208.54 441.37c3.95-4.01 8.67-5.12 12.95-0.04 5.93-1.08 7.21-5.18 4.81-11.67-12.96-6.54-18.05 1.98-17.76 11.71z" style="fill:#ffe000;stroke-miterlimit:4;stroke:#000"/>
  <path id="path3893" d="m206.11 477.37c1.07-7.22 5.47-9.32 12.29-6.78 0.13-6.37-1.66-10.86-5.36-14.88-12.4 2.77-11.02 13.68-6.93 21.66z" style="fill:#ffe000;stroke-miterlimit:4;stroke:#000"/>
  <path id="path3895" d="m246.47 495.87c-5-4.01-3.82-11.64 2.24-18.38-4.75-3.07-9.59-4.05-14.64-0.07-1.93 16.42 5.6 19.61 12.41 18.45z" style="fill:#ffe000;stroke-miterlimit:4;stroke:#000"/>
  <path id="path3889" d="m109.45 321.3c3.12-7.08 6.31-10 14.17-5.89 1.07-4.18 1.97-8.4-0.72-13.44-14.74-3.39-16.99 12.53-13.45 19.34z" style="fill:#ffe000;stroke-miterlimit:4;stroke:#000"/>
  <path id="path3885" d="m109.37 289.26c3.69-4.98 9.94-7.13 13.17-0.89 6.18 0.31 9.01-3.7 9-11.34-10.15-6.52-24.08-2.28-22.18 12.23z" style="fill:#ffe000;stroke-miterlimit:4;stroke:#000"/>
  <path id="path3887" d="m138.34 268.88c6.38 0.04 8.01 2.89 7.95 11.27 3.26 2.42 6.88 3.52 11.89-0.48-1.86-13.31-10.89-18.84-19.84-10.79z" style="fill:#ffe000;stroke-miterlimit:4;stroke:#000"/>
  <path id="path3865" d="m129.16 301.28c-3.01-3.03-7.73-2.51-6.74 0.99 3.21 11.29-1.39 14.42 1.99 17.13 12.81 3.36 8.65-13.1 16.13-11.6 6.14 1.23 4.52 7.82 1.99 12.26-1.82 3.2 4.47 10.85 6.74 11.49 3.16 0.89 5.01-3.62 6.63-6.19 5.27 9.85 1.42 14.86-7.07 16.46 4.73 7.53 12.85 8.65 20.33-2.76 0.8 5.05 0.21 13.16-7.62 13.92 5.88 7.8 10.77 4.2 15.8 2.1 0.85 5.37-1.02 10.39-4.97 15.14 21.63-0.98 17.71-19.98 25.3-30.83 5.02-7.16 16.38-14.08 29.39-1.66-12 9.33-4.9 35.36 23.42 63.75 1.54 1.55 1.92 5.39 1.63 8.39-0.95 10-5.71 24.42-10.14 24.31-9.57-0.24-8.18-7.93-15.03-7.62-6.4 0.28-0.43 7.55-2.98 9.94-1.24 1.17-4.33 1.95-2.32 7.07 0.78 1.99 4.35 0.51 6.74 0.22 2.26-0.27 3.31 7.16 0.66 7.84-3.84 1-8.67-1.81-11.49-0.99-2.45 0.71-5.58 3.64-4.97 5.3 1.48 4.02 6.13 6.17 4.64 13.81-0.89 4.58 5.99 6.87 8.29 1.99 1.64-3.5 0.16-7.25 5.41-6.85 4.22 0.32-1.82 8.95 0.55 12.15 1.52 2.06 5.3-1.29 9.83-1.1 4.38 0.18 7.77 4.62 12.15-0.22 2.64-3.31-1.3-7.57-1.77-11.93-0.48-4.49 3.3-6.65 10.17-5.97 2.17 0.21 3.74 5.14 6.19 0.77l9.72-17.35c13.39-0.18 15.12-10.07 15.8-14.36-7.45 5.25-14.08 4.12-14.14-5.64 9.1 3.71 17.01 0.78 19.45-10.83-7.64 3.55-13.89 1.88-14.58-6.85 13.86 3.73 17.22-4.36 18.78-13.26-14.67 9.83-19.47 0.1-21.32-10.5-0.98-5.59 0.46-22.08 15.8-31.82 11.33 5.13 31.73 13.48 43.42-11.38 6.16-13.09 8.26-29.39 8.07-45.41 13.28-0.02 24.07-11.27 27.4-24.53-7.28 3.77-24.08 11.66-27.62 5.19-4.11-7.5 10.73-30.26 34.58-47.4-15.16-0.98-29 7.4-40.99 13.92 5.02-12.62 28.06-29.79 44.42-41.43-17.25 0.02-36.77 12.92-50.61 21.88 6.36-20.13 39.76-42.22 58.67-51.49-18.03-1.37-42.28 8.51-56.46 15.91 2.38-9.51 31.61-31.22 55.69-45.96-13.8-1.18-27.38 3.36-39.22 9.83 3.12-13.81 21.27-34.24 44.97-48.73-14.78-1.36-24.47 3.85-34.14 7.4 1.89-23.11-24.85-30.3-52.04-20.22-3.02 1.12-1.32 2.23 0.33 3.87 2.75 2.73 9.97 4.85 9.5 6.85-3.07 13.05-12.61 37.62-34.92 29.83 3 6.49 7.48 9.93 12.04 12.71-5.53 5.66-13.29 6.61-21.44 6.74 7.07 6.39 14.55 9.71 21.32 8.73-3.6 9.14-12.71 15.06-19.67 18.89 18.95 1.61 31.21-4.55 40.44-17.79 8.87-12.73 7.8-30.41 11.38-47.18 4.67-19.55 23.64-15.63 23.87 3.65 0.33 27.96-20.62 41.13-30.5 58.78-14.37 25.7-10.31 55.59-1.1 76.04 7.98 17.73 13.53 29.67 14.47 51.46 0.55 12.71-5.59 41.9-21.55 43.31-9.55 0.85-20.96-10.79-21.07-25.73-0.08-10.52-1.39-13.78-3.24-20.12-7.47-25.72-18.87-14.79-27.95-79.22-3.72-26.37-4.44-53.7-3.09-82.21l-47.73 1.88c-1.11 14.76-20.2 37.72-35.91 54.36-4.37 4.63-57.94-12.82-62.65-21.21-2.94-5.25 4.92-13.64 3.65-17.46-1.47-4.39-5.47-1.1-9.5-0.33-2.66 0.51-5.8-5.04-8.62-1.22-2.79 3.79 4.32 7.89-1.44 10.39-4.19 1.82-5.92-0.58-5.64-5.27 0.17-2.77-3.63-6.68-6.73-4.56-7.38 5.04-1.57 6.88-7.4 12.93-3.19 3.3 1.78 4.09 3.76 3.43 1.77-0.6 2.47-3.09 4.53-0.66 2.27 2.67 1.35 4.8-0.08 6.57-2.22-0.62-4.89-1.62-6.44-0.49-4.37 3.18 2.29 7.24 2.32 11.6 0.03 4.39-0.89 10.58 3.2 10.72 5.84 0.2 2.92-8.03 9.61-8.73 7.91 0.79 8.55 13.16 6.96 22.54 4.52-0.09 9.37-1.48 14.47-3.87 1.64 4.18-1.01 9.76-6.3 11.49 6.81 4.97 16.94-1.97 21.44-7.96 2.39 6.27-1.76 11.58-6.52 15.8 6.86 3.12 15.28-3.07 18.67-5.64l31.38 18.23c4.14 2.4 7.4-0.81 11.71-2.32 3.04 5.9 19.32 20.33 34.03 33.59 5.82 5.25 19.41 23.89 27.62 36.9-10.61-7.15-22.99-15.36-33.7-23.2-2.63-1.93-20.11-1.75-22.76 1.22-5.45 6.09-9.61 12.33-17.9 19.45-2.53 2.18-15.63 1.61-22.43-8.4-1.66-2.44 0.13-6.51 5.75-9.17 2.14-1.01 1.52-8.12-1.99-6.74-2.51 0.99-3.65 2.79-7.07 2.69-3.18-0.09-6.1-2.33-7.18-0.81-2.71 3.79 2.11 7.79-2.87 9.17-5.2 1.45-1.38-12.31-7.18-12.93-3.14-0.33-2.77 4.78-5.19 7.84-2.63 3.33-6.85 1.39-6.52 5.75 0.42 5.45 7.29 2.63 10.39 5.75 3.1 3.12 0.22 9.07-3.09 5.75z" style="fill:#ffe000;stroke-miterlimit:4;stroke:#000"/>
  <path id="path3063" d="m210.95 65.46c-2.62-4.46-6.26-7.78-10.9-8.69-2.23-0.44-5.25-0.24-5.87 4.13-0.69 4.93-0.94 9.16 1.3 15.35 1.38 3.83 3.65 5.26 4.17 11.47 0.27 3.25-2.09 9.77-0.73 15.6 2.6 11.17 8.25 11.13 8.25 16.68l0 8.44c0 2.29 5.98 6.9 8.71 9.76 2.08 2.18 10.48-1.29 20.71-2.98 10.23 1.69 18.63 5.15 20.71 2.98 2.73-2.85 8.71-7.47 8.71-9.76l0-8.44c0-5.54 5.65-5.51 8.25-16.68 1.35-5.83-1-12.35-0.73-15.6 0.52-6.22 2.79-7.65 4.17-11.47 2.24-6.2 1.99-10.42 1.3-15.35-0.61-4.37-3.64-4.57-5.87-4.13-4.64 0.91-8.28 4.23-10.9 8.69-7.14-2.56-15.29-4.44-25.63-4.44-10.34 0-18.49 1.88-25.63 4.44z" style="fill:#ffe000;stroke-miterlimit:4;stroke:#000"/>
  <path id="path3837" d="m242.16 128.65c-0.38 3.25 5.8 3.99 5.86 0 0.02-1.73-1.52-3.35-4.22-3.08-2.69 0.36-4.84 1.79-7.21 3.08-2.37-1.29-4.52-2.72-7.21-3.08-2.7-0.28-4.24 1.35-4.22 3.08 0.06 3.99 6.24 3.25 5.86 0" style="fill:none;stroke-linecap:round;stroke-linejoin:round;stroke-miterlimit:4;stroke:#000"/>
  <path id="path3839" d="m236.58 135.23 0-6.58" style="fill:none;stroke-miterlimit:4;stroke:#000"/>
  <path id="path3843" d="m247.12 137.78c0.64 5.76-1.91 7.34-4.51 7.33-2.5 0-3.62-1.57-6.03-1.57-2.26 0-3.3 1.56-5.64 1.56-2.43 0-4.82-1.84-4.22-7.58" style="fill:none;stroke-miterlimit:4;stroke:#000"/>
  <path id="path3845" d="m219.68 139.17c0.85 5.63 1.85 11.04 5.78 12.26 3.13 0.98 6.57-0.7 11.11-0.7 4.63 0.01 8.13 1.69 11.32 0.71 4.01-1.23 4.98-6.69 5.85-12.33" style="fill:none;stroke-miterlimit:4;stroke:#000"/>
  <path id="path3849" d="m220.74 121.93c5.15-7.11 7.57-15.77 9.81-24.88-5 0.94-9.91 0.33-15.66-4.38" style="fill:none;stroke-linecap:round;stroke-miterlimit:4;stroke:#000"/>
  <path id="path3851" d="m207.57 101.89c4.22-1.26 8.19-3.14 11.45-6.29" style="fill:none;stroke-linecap:round;stroke-miterlimit:4;stroke:#000"/>
  <path id="path3853" d="m227.85 106.89c-7.28 1.17-11.17-3.09-14.84-6.84" style="fill:none;stroke-miterlimit:4;stroke:#000"/>
  <path id="path3855" d="m220.19 96.5c-2.45 3.31-0.12 6.78 2.7 7.62 4.62 1.37 8.11-1.68 7.05-6.52z" fill="#000"/>
  <path id="path3857" d="m252.95 122.49c-5.23-7.19-7.65-15.65-9.88-24.77 5 0.94 9.91 0.33 15.66-4.38" style="fill:none;stroke-linecap:round;stroke-miterlimit:4;stroke:#000"/>
  <path d="m253.42 97.18c2.45 3.31 0.12 6.78-2.7 7.62-4.62 1.37-8.11-1.68-7.05-6.52z" id="path5277" fill="#000"/>
  <path id="path3859" d="m266.03 102.57c-4.22-1.26-8.19-3.14-11.45-6.29" style="fill:none;stroke-linecap:round;stroke-miterlimit:4;stroke:#000"/>
  <path id="path3861" d="m245.76 107.57c7.28 1.17 11.17-3.09 14.84-6.84" style="fill:none;stroke-miterlimit:4;stroke:#000"/>
  <path id="path3867" d="m189.25 234.39c12.89-6.7 25.11-16.27 32.62-26.28" style="fill:none;stroke-miterlimit:4;stroke:#000"/>
  <path id="path3869" d="m226.64 338.35c7.91-4.19 24.02-12.17 27.04-20.7 1.36-3.83-0.8-8.75-3.45-13.83" style="fill:none;stroke-miterlimit:4;stroke:#000"/>
  <path id="path3871" d="m237.18 456.02c0.69 4.45-2.32 8.33-5.08 9.61" style="fill:none;stroke-miterlimit:4;stroke:#000"/>
  <path id="path3873" d="m95.61 171.62c-1.31 1.88-3.97 2.93-6.86 1.4" style="fill:none;stroke-miterlimit:4;stroke:#000"/>
  <path id="path3875" d="m109.68 165.69c2.35 2.24 3.89 2.79 6.56 3.59" style="fill:none;stroke-miterlimit:4;stroke:#000"/>
</svg>
