<?xml version="1.0" encoding="UTF-8" standalone="no"?>
<svg
   xmlns:dc="http://purl.org/dc/elements/1.1/"
   xmlns:cc="http://creativecommons.org/ns#"
   xmlns:rdf="http://www.w3.org/1999/02/22-rdf-syntax-ns#"
   xmlns:svg="http://www.w3.org/2000/svg"
   xmlns="http://www.w3.org/2000/svg"
   xml:space="preserve"
   enable-background="new 30.5 31.5 412 533"
   viewBox="30.5 31.5 410 500"
   height="500"
   width="410"
   y="0"
   x="0"
   version="1.1"
   id="svg2"><metadata
     id="metadata4"><rdf:RDF><cc:Work
         rdf:about=""><dc:format>
          
          
          
          image/svg+xml
        
        
        
        </dc:format><dc:type
           rdf:resource="http://purl.org/dc/dcmitype/StillImage" /><dc:title></dc:title></cc:Work></rdf:RDF></metadata><defs
     id="defs6" /><path
     style="fill:#0085ca;fill-rule:evenodd;stroke:none;stroke-width:10;stroke-linecap:butt;stroke-linejoin:miter;stroke-miterlimit:4;stroke-dasharray:none;stroke-opacity:1;fill-opacity:1"
     d="M 433.5,36.800003 C 437.86399,231.32116 396.22306,409.16181 235.5,525.3 74.776941,409.16181 33.136014,231.32116 37.5,36.800003 l 198,0 z"
     id="path4834" /><path
     style="fill:#000000;fill-rule:evenodd;stroke:none;stroke-width:0.5;stroke-linecap:butt;stroke-linejoin:miter;stroke-miterlimit:4;stroke-dasharray:none;stroke-opacity:1"
     d="m 207.12809,144.59009 c 0.28416,-1.78196 9.06716,-3.17142 20.73186,-5.99209 14.49256,-3.50449 32.36521,-7.8264 44.904,-10.7088 4.50198,-1.03492 7.19225,3.47799 10.77613,5.24201 l 21.04425,10.35815 c 0.55417,0.27277 1.56919,0.77048 -1.80288,2.88461 -1.36764,0.85745 -0.64549,3.75173 -1.13485,6.43277 -0.31756,1.73978 -3.78665,0.58152 -3.66339,1.23259 l 3.74275,19.76836 1.22596,7.71635 c 3.71071,-1.95615 7.07092,-1.63374 10.52885,-1.94712 2.50485,-0.22701 4.79479,2.08066 4.90385,3.53366 0.34246,4.56248 0.18388,7.54344 -1.83289,8.51992 -2.9646,1.4354 -2.90569,2.87249 -2.83349,6.51885 0,0 -0.64645,18.89989 0.64904,28.59616 0.66064,4.94468 1.77616,10.44552 0.84789,11.63894 l -0.99725,1.28209 c 0,0 0.46114,1.92138 0.7284,3.62388 0.29064,1.85144 -0.20247,5.62138 -0.20247,5.62138 1.33609,6.4355 5.20774,9.22159 9.33788,11.57858 8.05772,4.59839 18.90543,4.31077 25.70295,13.48921 5.52153,7.45551 4.29778,8.54891 8.55186,10.95791 15.12683,8.56603 14.05029,14.53705 21.05769,17.74038 2.73761,1.25146 5.24027,3.6304 6.49039,3.89423 1.25051,0.26391 5.22176,3.11039 5.38266,4.46391 L 339.22596,305.85096 291.84615,317.75 234.58654,304.26442 178.26442,317.60577 129.875,304.91346 85.163462,313.63942 79.679691,310.6157 c 0.34292,-3.26923 1.533197,-7.77094 4.437036,-10.26663 7.925301,-6.81136 11.629047,-6.42581 15.758273,-9.78657 6.40732,-5.21489 4.93716,-10.80034 7.26766,-16.21721 2.92636,-6.80187 7.8144,-7.09815 12.36673,-8.80171 9.12543,-3.41488 11.73993,-6.81057 18.80823,-12.44246 2.06157,-1.64262 5.36977,-3.32238 7.22029,-4.39391 0,0 -0.0905,-5.46704 0.71244,-7.93782 1.38129,-4.25088 4.17122,-8.76807 5.40866,-16.80288 l 0.43269,-12.98077 c 0.15334,-4.60007 -0.17759,-6.18252 1.44231,-8.79808 -1.99303,-2.04112 -3.47901,-2.98558 -3.46154,-4.01372 0.0623,-3.66888 0.71388,-7.06292 3.23132,-10.69482 3.58312,-5.16937 7.24148,-3.41528 11.09702,-5.29217 0.72614,-0.35349 1.2593,0.45569 2.21084,0.44507 1.52747,-0.0171 1.6243,-2.13256 5.21192,-2.23408 2.5033,-0.52097 6.00102,0.33704 9.7582,0.90975 2.12846,0.32444 4.56287,-3.49726 10.76481,-4.51702 2.01926,-0.33202 3.90412,0.34879 5.38904,0.11798 2.5,-0.38859 3.22457,-1.85698 6.27616,-1.92449 1.2424,-0.0275 3.14426,1.02851 3.43979,-0.66291 l 2.82337,-16.15897 c 0.1642,-0.93976 -1.38506,-1.38969 -1.37381,-1.93475 l 0.1566,-7.58811 c 0.025,-1.21243 -2.27818,-0.58863 -2.26545,-1.94349 z"
     id="path5145" /><path
     id="path4718"
     d="m 120.02729,81.760499 24.88472,0 -19.17347,16.521822 9.28077,29.372129 L 110.5,110.6227 85.980686,127.65445 95.261463,98.282325 76.08799,81.760503 l 24.88472,0 L 110.5,58.71154 Z"
     style="fill:#ffffff;fill-rule:evenodd;stroke:#000000;stroke-width:2.5;stroke-linecap:butt;stroke-linejoin:miter;stroke-opacity:1;stroke-miterlimit:4;stroke-dasharray:none" /><path
     style="fill:#ffffff;fill-rule:evenodd;stroke:#000000;stroke-width:2.5;stroke-linecap:butt;stroke-linejoin:miter;stroke-opacity:1;stroke-miterlimit:4;stroke-dasharray:none"
     d="m 370.02729,81.760499 24.88472,0 -19.17347,16.521822 9.28077,29.372129 L 360.5,110.6227 l -24.51931,17.03175 9.28077,-29.372125 -19.17347,-16.521822 24.88472,0 L 360.5,58.71154 Z"
     id="path4722" /><path
     style="fill:#ffffff;fill-rule:evenodd;stroke:#000000;stroke-width:1px;stroke-linecap:butt;stroke-linejoin:miter;stroke-opacity:1"
     d="m 180.5,451.5 c -11.5075,0 -21.35972,-3.97268 -31.46147,-7.34647 l 15.03818,16.89293 C 169.29231,462.4855 174.6848,463.5 180.5,463.5 c 20,0 35,-12 55,-12 20,0 35,12 55,12 5.8152,0 11.20769,-1.0145 16.42329,-2.45354 l 15.03818,-16.89293 C 311.85972,447.52732 302.0075,451.5 290.5,451.5 c -20,0 -35,-12 -55,-12 -20,0 -35,12 -55,12 z"
     id="path4790" /><path
     id="path4818"
     d="m 290.5,339.5 c 20,0 35,-12 55,-12 14.7103,0 26.71569,6.49179 39.99517,9.92575 l -4.32333,10.77399 C 369.55306,344.64745 358.59891,339.5 345.5,339.5 c -20,0 -35,12 -55,12 -20,0 -35,-12 -55,-12 -20,0 -35,12 -55,12 -20,0 -35,-12 -55,-12 -13.09891,0 -24.05306,5.14745 -35.671844,8.69974 L 85.50483,337.42575 C 98.784312,333.99179 110.7897,327.5 125.5,327.5 c 20,0 35,12 55,12 20,0 35,-12 55,-12 20,0 35,12 55,12 z"
     style="fill:#ffffff;fill-rule:evenodd;stroke:#000000;stroke-width:1px;stroke-linecap:butt;stroke-linejoin:miter;stroke-opacity:1" /><path
     style="fill:#ffffff;fill-rule:evenodd;stroke:#000000;stroke-width:1px;stroke-linecap:butt;stroke-linejoin:miter;stroke-opacity:1"
     d="m 290.5,368 c 20,0 35,-12 55,-12 10.52879,0 19.67188,3.32566 28.88825,6.47547 l -4.97183,10.30457 C 361.8398,370.23743 354.13603,368 345.5,368 c -20,0 -35,12 -55,12 -20,0 -35,-12 -55,-12 -20,0 -35,12 -55,12 -20,0 -35,-12 -55,-12 -8.63603,0 -16.3398,2.23743 -23.91642,4.78004 L 96.611745,362.47547 C 105.82812,359.32566 114.97121,356 125.5,356 c 20,0 35,12 55,12 20,0 35,-12 55,-12 20,0 35,12 55,12 z"
     id="path4820" /><path
     id="path4822"
     d="m 290.5,396.5 c 20,0 35,-12 55,-12 5.79404,0 11.16844,1.00713 16.36635,2.43785 l -7.08293,10.39003 C 351.79016,396.80902 348.70946,396.5 345.5,396.5 c -20,0 -35,12 -55,12 -20,0 -35,-12 -55,-12 -20,0 -35,12 -55,12 -20,0 -35,-12 -55,-12 -3.20946,0 -6.29016,0.30902 -9.28342,0.82788 l -7.08293,-10.39003 C 114.33156,385.50713 119.70596,384.5 125.5,384.5 c 20,0 35,12 55,12 20,0 35,-12 55,-12 20,0 35,12 55,12 z"
     style="fill:#ffffff;fill-rule:evenodd;stroke:#000000;stroke-width:1px;stroke-linecap:butt;stroke-linejoin:miter;stroke-opacity:1" /><path
     id="path4824"
     d="m 290.5,425 c 20,0 35,-12 55,-12 l -8.63762,12.71945 C 320.92037,428.3087 307.52087,437 290.5,437 c -20,0 -35,-12 -55,-12 -20,0 -35,12 -55,12 -17.02087,0 -30.42037,-8.6913 -46.36238,-11.28055 L 125.5,413 c 20,0 35,12 55,12 20,0 35,-12 55,-12 20,0 35,12 55,12 z"
     style="fill:#ffffff;fill-rule:evenodd;stroke:#000000;stroke-width:1px;stroke-linecap:butt;stroke-linejoin:miter;stroke-opacity:1" /><path
     id="path4828"
     d="m 290.5,480 -12.40687,10.55204 C 263.75982,487.36014 251.16327,480 235.5,480 c -15.66327,0 -28.25982,7.36014 -42.59313,10.55204 L 180.5,480 c 20,0 35,-12 55,-12 20,0 35,12 55,12 z"
     style="fill:#ffffff;fill-rule:evenodd;stroke:#000000;stroke-width:1px;stroke-linecap:butt;stroke-linejoin:miter;stroke-opacity:1" /><path
     style="fill:#ffffff;fill-rule:evenodd;stroke:#000000;stroke-width:1px;stroke-linecap:butt;stroke-linejoin:miter;stroke-opacity:1"
     d="m 253.93544,511.53098 10.18976,-8.64547 C 254.99777,499.76268 245.92861,496.5 235.5,496.5 c -10.42861,0 -19.49777,3.26268 -28.6252,6.38551 l 10.18976,8.64547 C 222.90669,509.79342 228.93389,508.5 235.5,508.5 c 6.56611,0 12.59331,1.29342 18.43544,3.03098 z"
     id="path4830" /><path
     style="fill:#ffffff;fill-opacity:1;fill-rule:evenodd;stroke:none;stroke-width:1px;stroke-linecap:butt;stroke-linejoin:miter;stroke-opacity:1"
     d="m 258.61661,249.05592 c -3.39976,1.39071 -8.9616,-0.82707 -13.4859,0.50225 -4.96775,1.45961 -9.55229,1.44724 -14.30031,2.09585 -3.3103,0.45221 -2.04418,-1.598 -2.93542,-1.43294 -2.0942,0.38786 -4.65514,1.38067 -5.96259,0.80971 l -1.7374,-0.75872 c -1.20955,-0.52821 -4.04773,2.47165 -3.72251,1.07086 0.40025,-1.72396 11.59998,-3.3989 17.64368,-5.2523 3.3583,-1.02988 4.31744,-2.88962 6.47615,-4.33444 3.15724,-2.11313 16.22427,-1.68244 16.82778,-2.60065 0.35897,-0.54615 -2.80175,-0.86442 -6.82436,-0.62063 -3.19535,0.19366 -7.22737,0.78342 -9.69747,1.69149 -5.77652,2.1236 -9.79175,4.78681 -16.92977,5.76224 -10.13225,1.38461 -14.4311,1.39381 -20.4993,3.62052 -3.67725,1.34935 -4.76559,0.50234 -5.04833,-0.50993 -0.13817,-0.49468 1.9391,-0.62047 3.79402,-1.21033 2.20215,-0.70029 4.4789,-1.45441 5.9457,-2.10423 3.56054,-1.57738 5.81758,-3.47646 7.64899,-5.66026 -1.6079,0.43276 -4.00243,1.28586 -3.62052,-0.30596 0.22851,-0.95246 2.56164,-0.6509 4.64094,-1.73708 2.25086,-1.17581 5.24765,-4.28311 7.29148,-3.61721 4.43269,1.44421 3.95188,-1.78706 7.69999,-0.61193 2.93214,0.9193 3.46638,-0.67654 10.65759,-6.62911 2.84189,-2.35239 11.85284,-5.32041 21.72314,-5.04834 4.18052,0.11523 5.77462,0.96712 9.33177,3.05959 0.86803,0.51061 0.88941,2.91595 -1.73377,1.68278 -2.87131,-1.34981 -5.66513,-2.76994 -5.3033,-1.78476 0.76894,2.09362 12.0271,5.59525 18.35758,7.49601 1.43934,0.43217 3.07882,1.64198 2.75364,2.75364 -0.23971,0.81948 -5.68654,-0.95037 -4.79337,-0.20398 4.88747,4.08433 12.99544,1.81027 17.23573,3.36556 -2.56193,-2.62268 -7.09153,-2.39833 -10.19866,-5.09933 -1.34632,-1.66222 -1.98397,-4.32701 -4.28344,-4.58939 -1.94749,-0.22222 -3.82922,0.15997 -5.60926,-1.78477 -2.63049,-2.87389 -5.18155,-6.72245 -7.547,-7.49601 -2.31403,-0.75674 -4.85045,-0.008 -7.29204,0.10198 -1.61115,0.0728 -2.62896,-2.15597 -5.40529,-1.83575 -0.52044,0.06 -1.57869,0.25454 -3.21257,0.96887 -1.37373,0.60059 -2.85023,-1.6847 -4.18145,-1.07086 -9.72768,4.48555 -16.86178,11.37585 -25.29267,14.07415 0,0 -4.43791,1.89294 -6.88409,1.83576 -0.89436,-0.0209 -2.65165,-1.01987 -2.65165,-1.01987 -3.4076,-0.8686 -6.40925,5.84751 -9.48475,8.26091 -3.65885,2.87116 -4.81816,2.93257 -6.52714,4.13045 -1.34672,0.94396 -3.94182,2.31618 -5.76411,1.84083 -9.62049,-2.50956 -9.75888,0.95447 -13.9394,0.68402 -3.87553,-0.25072 -7.28303,1.44874 -10.53035,1.20696 l -5.90896,-0.43994 c -2.81473,-0.20957 -8.32252,4.16654 -13.75591,2.58741 l -4.67362,-1.32644 c -4.41372,-1.25268 -11.47756,5.95566 -15.92664,10.05603 -5.83765,3.03067 -11.37731,6.12508 -17.62089,8.07329 -3.87377,2.17796 -7.08,5.20631 -7.30116,10.76632 -0.72818,3.12913 -1.48419,6.23044 -3.01134,8.56061 -2.18247,3.45913 -6.056563,5.03867 -9.355382,7.2574 l -7.188916,3.92411 c -3.415752,2.21414 -5.809112,5.21155 -5.930959,8.43387 1.250257,2.58247 2.243001,-0.23351 3.364677,-0.36058 1.18029,-0.13371 0.530293,-1.58439 1.298077,-1.80288 2.128412,-0.60568 3.378566,-1.54273 3.894231,-2.88462 0.199748,-0.51979 -1.786854,-0.21669 -1.53042,-1.00961 0.69774,-2.15749 1.162283,-1.57853 2.395804,-2.37981 2.139423,-1.38974 5.107357,-0.13215 6.775223,-1.51805 2.484605,-2.06456 3.361065,-1.78725 6.089685,-3.11333 1.71578,-0.83386 -0.51271,-1.17202 -0.69853,-1.69728 -0.29633,-0.83766 1.80848,-1.08698 2.68939,-1.53192 1.27563,-0.64431 1.72216,-1.82183 2.0841,-2.9181 0.55847,-1.69159 3.11369,-3.55188 5.68686,-3.56716 4.33305,-0.0257 5.8952,-5.08336 9.60885,-4.69262 1.92752,0.20281 1.70328,-1.60118 1.00961,-1.80289 -2.30329,-0.66975 -5.18596,0.19198 -6.27041,1.58654 -2.44267,3.14116 -6.89942,4.21181 -7.14305,3.06597 -0.65421,-3.07683 0.26074,-6.13497 0.72116,-6.74385 0.48166,-0.63696 0.74301,-0.35006 1.12185,-0.3817 0.24108,-0.0201 3.42637,-3.78523 1.90699,-3.80099 -0.71118,-0.007 -2.38156,0.8521 -1.94711,-0.28847 0.78642,-2.0646 7.70091,-3.14968 11.56471,-3.95759 3.36184,-0.70295 0.80936,-0.50012 3.5074,-1.95587 2.38299,-1.28576 4.0212,-3.26458 7.03019,-4.39179 5.70176,-2.13596 2.48981,-4.1697 4.36917,-4.72974 l 2.30257,-0.68616 c 1.04509,-0.31143 0.96729,-2.39672 3.43679,-2.45042 4.67975,-0.10178 8.28393,2.64584 12.35648,1.22446 4.7774,-1.66739 8.78625,-2.43813 12.76442,-3.17308 1.39271,0.78214 2.43953,1.55226 4.83173,1.22596 3.58912,-0.48956 6.42624,-1.91912 9.51923,-3.02884 -0.23882,0.83229 -0.87835,2.23319 0,2.01923 1.875,-0.45673 4.46613,-1.33433 6.49189,-1.57416 2.29826,-0.2721 4.03467,-0.59159 5.11869,0.49243 0.45563,0.45563 -1.18651,2.69909 -2.62453,1.71689 -0.84644,-0.57814 -3.53407,4.5574 -5.61317,6.31837 -3.60245,3.05123 -7.26293,4.85192 -8.1325,4.80128 -0.8072,-0.047 -1.94681,-0.40127 -2.30769,1.22596 -1.10849,4.99822 -4.57537,10.01366 -8.39887,14.23147 -4.05593,4.47421 -18.67668,6.69436 -27.88754,9.83757 -0.42035,0.14344 0.67741,1.26458 0.67741,1.26458 l -9.25914,2.39218 c -1.85576,3.19301 -5.12087,6.16872 -8.84695,7.75859 l 4.5324,1.58291 c 4.18386,-1.65849 11.40546,-2.90275 12.54808,-4.97596 -2.8618,-0.18042 -2.81831,-0.73541 -2.33065,-1.13095 1.50113,-1.21757 3.44357,-0.70746 5.63906,-1.70975 3.09058,-1.41093 6.11761,-4.16578 8.43508,-4.81739 3.03007,-0.85197 4.35192,-0.10191 6.27217,-0.051 3.64926,0.0967 10.15366,-6.0319 12.9013,-9.43375 l 5.35429,-6.62913 c 2.71158,-3.3572 4.63624,-2.00657 9.68873,-9.0768 3.11059,-4.29233 6.8905,-6.23252 10.55561,-6.62912 0,0 6.46101,-1.0979 10.70859,-2.19272 4.31338,-1.11178 5.52945,2.14386 10.24964,0.96888 0,0 1.02815,-0.50708 1.5298,-0.35696 3.424,1.02467 9.18257,-0.13856 10.68491,-0.22253 2.71604,-0.1518 3.19903,1.40422 4.45221,0.64171 3.01343,-1.83356 8.69573,-0.44858 14.24994,-2.36673 2.23465,-0.77174 4.06873,-1.30765 7.02214,-0.75509 0.30802,0.0576 0.10618,0.67765 -0.73881,0.95534 -1.55538,0.51114 -2.95964,0.40305 -3.65067,1.83073 -0.52099,1.07638 2.65108,-0.9263 8.01,-1.46025 0.94043,-0.0937 2.72929,1.26844 3.53092,0.24516 0.81346,-1.03839 1.48109,-1.19893 2.94523,-1.36701 3.91515,-0.44944 9.04149,-2.40031 14.48721,-4.81449 1.25262,-0.5553 1.42033,1.60122 0.58824,1.90787 -3.03136,1.11713 -5.67554,3.03859 -8.75228,5.3543 -2.18558,1.64497 -5.42384,1.45935 -6.27218,2.2437 -3.27806,3.03078 -10.72561,3.91287 -8.97481,4.28344 1.80086,0.38117 3.65449,-1.35539 4.33443,-0.23129 1.06672,1.76354 -7.81932,3.3118 -12.61797,4.99991 -1.31258,0.46175 -4.56677,2.21746 -4.56677,2.21746 -1.64622,0.77862 -2.91417,-0.6743 -3.36556,0 -2.7624,4.12659 -7.5617,5.26924 -7.72111,6.10787 -0.31645,1.66488 -2.0055,0.86203 -2.42655,2.05105 l -1.08836,3.07347 c -0.46253,1.30616 -3.19506,1.08912 -3.77562,1.67253 -3.33018,3.34651 -4.8994,4.24253 -8.00895,9.46513 -2.26303,3.80084 -5.82555,6.18433 -9.81908,9.34777 -0.98169,0.77763 2.0737,0.62618 1.12186,1.27483 -2.06728,1.40881 -3.92145,2.3869 -3.87549,2.65165 0.27694,1.59537 5.48693,-1.02815 8.8692,-2.19784 2.77691,-0.96034 6.14908,-2.03482 7.29567,-6.01208 0.69487,-2.41034 1.10655,-5.92766 2.90661,-6.8331 4.78913,-2.40895 6.10452,-6.99347 9.22979,-9.43375 9.31433,-7.27284 26.74653,-9.54669 35.10299,-6.74862 3.46731,1.16099 7.73985,3.14777 10.71371,2.25396 2.35513,-0.70785 3.71334,-1.29984 5.42473,-2.40949 1.89803,-1.23067 8.60069,0.80001 7.58881,-0.40792 -0.70713,-0.84414 -3.22075,-1.89808 -4.78975,-1.418 -2.06041,0.63044 -3.09962,1.11906 -6.36178,0.57117 -3.62706,-0.60917 -4.86754,0.2781 -6.98245,-0.13805 -4.50774,-0.88697 -13.23969,-4.87167 -13.23969,-4.87167 -0.88394,-0.33683 -1.02357,-2.09336 1.66059,-2.28232 5.71847,-0.40258 4.35965,-2.09707 6.57813,-3.05959 5.61347,-2.43548 8.82404,-2.28226 10.96506,-3.99604 l 7.5455,-6.03983 c 1.25581,-1.00522 2.51332,-0.12619 4.5384,-2.96742 0.5013,-0.70333 0.0486,-1.07631 3.0193,-1.5313 3.67503,-0.56286 4.60743,0.29159 5.28642,-0.40132 0.66327,-0.67686 2.95876,-1.39527 4.98603,-0.91063 3.58272,0.85647 6.20984,3.30794 10.29914,3.02972 0.16456,-1.0896 0.42841,-3.39774 0.031,-5.60952 -0.20781,-1.15655 -5.73975,-3.10504 -7.01922,-2.74719 -2.71992,0.76072 2.6661,0.9041 5.27344,3.83581 0.4428,0.49789 0.44174,1.05028 -0.32157,0.9522 -0.86526,-0.11119 -2.33571,-1.05464 -3.96552,-1.53986 -2.42819,-0.72292 -5.16612,-1.04442 -6.42874,-1.04518 -7.5151,-0.005 -6.97836,1.37941 -9.02114,0.97505 -1.02122,-0.20214 -1.58812,-1.05431 -3.27956,-0.62685 -1.71136,0.43249 -3.29717,1.14789 -5.13176,1.64159 -2.67311,0.41148 -6.59887,-1.77184 -8.01928,-0.78583 -3.88414,2.69624 -5.2084,2.95153 -8.70026,3.56078"
     id="path4878" /><path
     style="fill:#ffffff;fill-opacity:1;fill-rule:evenodd;stroke:none;stroke-width:1px;stroke-linecap:butt;stroke-linejoin:miter;stroke-opacity:1"
     d="m 214.63789,150.36219 c 1.84847,0.85743 1.96649,0.69972 2.3525,-1.41681 0.31597,-1.73253 0.57628,-3.52876 0.36057,-5.17375 -0.14903,-1.13648 -3.15613,-0.15469 -3.03685,0.51099 0.64335,3.59032 -1.57494,5.19883 0.32378,6.07957 z"
     id="path4882" /><path
     style="fill:#ffffff;fill-opacity:1;fill-rule:evenodd;stroke:none;stroke-width:1px;stroke-linecap:butt;stroke-linejoin:miter;stroke-opacity:1"
     d="m 220.42099,142.91243 c -1.47066,0.83842 -0.97885,4.44923 -1.46236,6.67687 -0.15482,0.71325 2.19137,-0.30471 3.29,-0.40826 2.89223,-0.2726 2.78443,-0.49542 3.10277,-1.64239 0.66688,-2.40271 0.70729,-3.68491 0.90581,-6.11077 0.0838,-1.02374 -3.77646,0.31029 -5.83622,1.48455 z"
     id="path4884" /><path
     style="fill:#ffffff;fill-opacity:1;fill-rule:evenodd;stroke:none;stroke-width:1px;stroke-linecap:butt;stroke-linejoin:miter;stroke-opacity:1"
     d="m 232.52069,140.36877 c -0.16475,1.82755 -0.33638,3.58564 -0.49425,5.27786 -0.0696,0.74623 2.4325,0.76595 3.00079,-0.87128 0.63163,-1.81972 0.50427,-3.63945 0.64104,-5.45918 0.0474,-0.63118 -3.04221,-0.11631 -3.14758,1.0526 z"
     id="path4886" /><path
     style="fill:#ffffff;fill-opacity:1;fill-rule:evenodd;stroke:none;stroke-width:1px;stroke-linecap:butt;stroke-linejoin:miter;stroke-opacity:1"
     d="m 238.22837,138.90385 c -1.09627,2.22591 -0.5173,3.59558 -0.86176,5.7721 -0.24363,1.53941 4.73964,-0.70932 6.58587,-1.5013 1.74721,-0.74949 1.9516,-3.70816 1.91755,-5.74554 -0.0216,-1.29054 -3.05694,-0.0959 -4.75705,0.39305 -0.98567,0.28346 -2.22057,-0.2666 -2.88461,1.08169 z"
     id="path4888" /><path
     style="fill:#ffffff;fill-opacity:1;fill-rule:evenodd;stroke:none;stroke-width:1px;stroke-linecap:butt;stroke-linejoin:miter;stroke-opacity:1"
     d="m 252.14844,135.29808 c 0.0392,2.69303 -1.39358,4.47259 -0.4345,5.58894 0.83845,0.97594 2.34509,0.99675 2.74039,-0.50481 0.48575,-1.84513 0.3577,-3.56257 0.38788,-5.40791 0.01,-0.61135 -2.71468,-1.11233 -2.69377,0.32378 z"
     id="path4890" /><path
     style="fill:#ffffff;fill-opacity:1;fill-rule:evenodd;stroke:none;stroke-width:1px;stroke-linecap:butt;stroke-linejoin:miter;stroke-opacity:1"
     d="m 257.04173,134.7394 c 0.13445,2.02363 -0.74924,4.32289 -0.18029,5.49677 0.41556,0.85739 4.91113,-0.98957 6.67943,-2.30588 1.57135,-1.16971 0.0165,-3.46576 0.5303,-5.3886 0.18144,-0.67899 -1.72301,-0.2346 -3.58013,0.30637 -1.63914,0.47748 -3.55299,0.33082 -3.44931,1.89134 z"
     id="path4892" /><path
     style="fill:#ffffff;fill-opacity:1;fill-rule:evenodd;stroke:none;stroke-width:1px;stroke-linecap:butt;stroke-linejoin:miter;stroke-opacity:1"
     d="m 277.3149,137.64183 c 1.87788,0.19174 1.41481,-2.64441 2.00536,-4.84667 0.2469,-0.92075 -2.53767,-2.39992 -2.65439,-0.81439 -0.17095,2.33476 -0.5983,5.5337 0.64903,5.66106 z"
     id="path4894" /><path
     style="fill:#ffffff;fill-opacity:1;fill-rule:evenodd;stroke:none;stroke-width:1px;stroke-linecap:butt;stroke-linejoin:miter;stroke-opacity:1"
     d="m 285.04875,136.48361 c -0.75189,1.67657 -0.19478,5.02634 0.61479,5.13512 1.39132,0.18695 1.11295,-2.68235 1.41169,-3.85485 0.39781,-1.56136 -1.51671,-2.41696 -2.02648,-1.28027 z"
     id="path4896" /><path
     style="fill:#ffffff;fill-opacity:1;fill-rule:evenodd;stroke:none;stroke-width:1px;stroke-linecap:butt;stroke-linejoin:miter;stroke-opacity:1"
     d="m 289.46635,137.89423 c -0.81468,0.29319 -0.8767,1.67703 -0.82779,2.84822 0.0255,0.60958 -1.03382,0.95495 -1.11827,0.32848 -0.13464,-0.99877 -0.37309,-1.67576 0.10455,-3.37886 0.37712,-1.34467 2.26998,0.048 1.84151,0.20216 z"
     id="path4898" /><path
     style="fill:#ffffff;fill-opacity:1;fill-rule:evenodd;stroke:none;stroke-width:1px;stroke-linecap:butt;stroke-linejoin:miter;stroke-opacity:1"
     d="m 279.96387,133.73041 c -0.25418,1.73613 -0.82056,3.8505 -0.2076,4.33385 0.51314,0.40466 1.35862,-2.25336 1.90518,-3.65238 0.23744,-0.60777 -1.6009,-1.34186 -1.69758,-0.68147 z"
     id="path4900" /><path
     style="fill:#ffffff;fill-opacity:1;fill-rule:evenodd;stroke:none;stroke-width:1px;stroke-linecap:butt;stroke-linejoin:miter;stroke-opacity:1"
     d="m 160.43087,195.14834 c 1.42219,-0.0941 4.05731,-0.039 4.18807,-0.59436 0.41234,-1.75129 2.51233,-8.0149 1.99271,-11.92196 l -2.21084,-0.44507 c -2.56881,0.80147 -5.94072,1.23484 -7.68896,2.4124 -4.53974,4.19163 -2.59123,8.69902 -2.81101,11.57115 -0.14849,1.94059 2.73399,-0.771 6.53003,-1.02216 z"
     id="path4967" /><path
     style="fill:#ffffff;fill-opacity:1;fill-rule:evenodd;stroke:none;stroke-width:1px;stroke-linecap:butt;stroke-linejoin:miter;stroke-opacity:1"
     d="m 185.60254,179.92324 c -1.60386,1.14431 -0.41082,0.74272 -0.94986,9.16063 -0.0151,0.2357 0.32817,0.31832 0.62332,0.79084 0.16643,0.26645 -0.26141,1.234 0.15373,1.06351 3.0457,-1.25077 9.42049,-2.25868 9.52503,-3.28877 l 0.87495,-8.6216 c 0.14386,-1.41756 -1.54638,-2.137 -3.13568,-2.04415 -2.69791,0.15761 -4.84164,1.33434 -7.09149,2.93954 z"
     id="path4973" /><path
     style="fill:#ffffff;fill-opacity:1;fill-rule:evenodd;stroke:none;stroke-width:1px;stroke-linecap:butt;stroke-linejoin:miter;stroke-opacity:1"
     d="m 216.21752,174.22582 c -2.09822,3.44003 -1.42411,6.77794 -1.01987,9.90797 0.29532,2.28662 3.02844,2.10014 3.8245,0.86689 1.10508,-1.71198 6.42831,-1.88151 6.55624,-3.40705 0.23934,-2.85425 0.34245,-3.85875 1.28289,-6.14481 0.46954,-1.14136 -1.89423,-3.23108 -3.41078,-3.07343 -2.33266,0.24249 -6.60613,0.8227 -7.23298,1.85043 z"
     id="path4975" /><path
     style="fill:#ffffff;fill-opacity:1;fill-rule:evenodd;stroke:none;stroke-width:1px;stroke-linecap:butt;stroke-linejoin:miter;stroke-opacity:1"
     d="m 211.8321,164.70535 c -0.84204,0.22606 -0.24015,2.30494 -1.28434,4.07166 -0.47116,0.79717 -0.0726,3.98577 0.41625,4.15952 0.60103,0.21363 1.69143,0.64214 2.47075,0.25563 2.74414,-1.36112 4.8072,-3.57674 7.8763,-2.73691 1.38233,0.37825 1.2782,-5.11853 1.60845,-7.65849 0.30326,-2.33238 -7.47619,0.93911 -11.08742,1.90863 z"
     id="path4977" /><path
     style="fill:#ffffff;fill-opacity:1;fill-rule:evenodd;stroke:none;stroke-width:1px;stroke-linecap:butt;stroke-linejoin:miter;stroke-opacity:1"
     d="m 212.546,162.25768 c 0.0972,1.12511 0.99281,0.1953 2.954,-0.46658 1.65275,-0.55778 3.98193,-0.85305 4.33804,-2.44004 0.31542,-1.40566 0.96383,-3.70236 0.0853,-3.77061 -3.46755,-0.26938 -4.23494,2.13484 -6.57236,3.26501 -1.17369,0.56749 -0.90657,2.2358 -0.80495,3.41222 z"
     id="path4979" /><path
     style="fill:#ffffff;fill-opacity:1;fill-rule:evenodd;stroke:none;stroke-width:1px;stroke-linecap:butt;stroke-linejoin:miter;stroke-opacity:1"
     d="m 223.41995,154.8942 c 0.50258,-0.89971 4.50832,-1.20893 7.0532,-2.27281 0.90054,-0.37647 0.92574,2.2927 0.94987,4.28199 0.0127,1.04557 -4.51177,2.4003 -8.08172,3.27452 -1.10938,0.27167 -1.25334,-2.89917 0.0787,-5.2837 z"
     id="path4981" /><path
     style="fill:#ffffff;fill-opacity:1;fill-rule:evenodd;stroke:none;stroke-width:1px;stroke-linecap:butt;stroke-linejoin:miter;stroke-opacity:1"
     d="m 227.96124,160.62445 c -2.68436,0.12056 -3.10996,3.61862 -3.0982,5.48538 0.006,0.98516 -0.38894,1.83134 -0.95792,3.06189 -0.61828,1.33717 3.64543,1.85998 5.77462,2.67269 1.93887,0.74006 3.403,-4.17283 5.91522,-4.23244 1.07034,-0.0254 1.49249,-2.42556 1.68939,-4.14802 0.20391,-1.78373 0.47158,-5.25274 -0.77151,-5.18375 -3.10574,0.17237 -5.5663,2.21017 -8.5516,2.34425 z"
     id="path4983" /><path
     style="fill:#ffffff;fill-opacity:1;fill-rule:evenodd;stroke:none;stroke-width:1px;stroke-linecap:butt;stroke-linejoin:miter;stroke-opacity:1"
     d="m 237.01183,156.23241 c -0.87651,0.0818 -0.54378,0.58659 -2.38574,1.18091 -1.442,0.46527 -0.68097,-2.5462 -0.66291,-4.02847 0.0139,-1.14065 3.27325,-2.55874 5.04689,-2.90229 2.29593,-0.44472 7.22773,-1.83606 7.32115,-1.40015 0.24718,1.15345 0.35068,3.75973 -0.18498,4.03942 l -5.74841,3.00138 c -2.66899,1.39354 -2.93834,0.0674 -3.386,0.1092 z"
     id="path4985" /><path
     style="fill:#ffffff;fill-opacity:1;fill-rule:evenodd;stroke:none;stroke-width:1px;stroke-linecap:butt;stroke-linejoin:miter;stroke-opacity:1"
     d="m 174.50646,190.29304 c 1.16998,-0.28265 3.68276,-0.22086 6.67868,0.16392 0.44524,0.0572 0.0298,1.15215 -0.68514,1.18215 -1.53873,0.0646 -3.72191,0.82074 -5.83622,0.76798 -0.74422,-0.0186 -0.88761,-1.93763 -0.15732,-2.11405 z"
     id="path4987" /><path
     style="fill:#ffffff;fill-opacity:1;fill-rule:evenodd;stroke:none;stroke-width:1px;stroke-linecap:butt;stroke-linejoin:miter;stroke-opacity:1"
     d="m 203.86908,184.66706 c 2.76429,-0.53752 3.01141,-0.0222 4.67467,-0.0176 0.9876,0.003 1.33273,1.67838 0.50993,1.76372 -1.96304,0.20361 -5.88317,1.18082 -6.03104,0.0233 -0.0863,-0.67536 0.0172,-1.60824 0.84644,-1.76949 z"
     id="path4989" /><path
     style="fill:#ffffff;fill-opacity:1;fill-rule:evenodd;stroke:none;stroke-width:1px;stroke-linecap:butt;stroke-linejoin:miter;stroke-opacity:1"
     d="m 236.8093,178.53981 c -1.12326,0.007 -1.93638,3.26186 -1e-5,2.17887 2.56246,-1.43315 8.5054,-1.28425 7.19955,-2.14315 -2.36924,-0.91354 -4.6954,-0.0514 -7.19954,-0.0357 z"
     id="path4991" /><path
     style="fill:#ffffff;fill-opacity:1;fill-rule:evenodd;stroke:none;stroke-width:1px;stroke-linecap:butt;stroke-linejoin:miter;stroke-opacity:1"
     d="m 250.65843,168.46129 c -0.5368,2.74945 0.84282,5.37084 -1.06797,6.74868 -1.68425,1.21448 2.44856,2.61296 4.35402,2.44912 2.82452,-0.24286 5.05711,-1.70603 7.58561,-1.92535 2.38155,-0.20658 4.44136,0.34406 5.11834,-0.6177 1.43323,-2.03612 1.17562,-4.59855 1.04175,-8.83796 -0.0253,-0.80172 -0.54595,-2.36775 -3.08004,-1.72571 -1.20777,0.306 -4.25658,1.04129 -7.58284,1.92899 -2.89272,0.77199 -6.1986,1.10783 -6.36887,1.97993 z"
     id="path4993" /><path
     style="fill:#ffffff;fill-opacity:1;fill-rule:evenodd;stroke:none;stroke-width:1px;stroke-linecap:butt;stroke-linejoin:miter;stroke-opacity:1"
     d="m 271.4804,163.81513 c -0.12036,-1.66267 6.26623,1.42722 9.42137,2.3166 0.75093,0.21167 0.93468,5.9459 0.0925,10.42595 -0.16057,0.85414 -5.8795,0.29671 -8.68413,-1.70466 -2.03632,-1.45311 -0.54904,-7.16068 -0.82972,-11.03789 z"
     id="path4995" /><path
     style="fill:#ffffff;fill-opacity:1;fill-rule:evenodd;stroke:none;stroke-width:1px;stroke-linecap:butt;stroke-linejoin:miter;stroke-opacity:1"
     d="m 284.01669,169.08271 c 0.0369,-1.07917 4.25851,-0.64674 6.753,0.31403 1.24364,0.479 -1.35882,1.49871 -2.60066,2.34569 -0.4543,0.30985 -0.0768,6.69513 -1.12185,6.8331 -0.92177,0.12169 -1.81387,1.07749 -2.6855,0.75387 -0.46281,-0.17184 -0.53895,-0.43647 -0.70339,-1.00223 -0.12626,-0.43443 -0.88925,0.13586 -1.27863,0.0686 -0.33068,-0.0571 -0.39192,-0.64932 0.43508,-1.911 1.21457,-1.85296 1.10956,-4.70353 1.20195,-7.40209 z"
     id="path4997" /><path
     style="fill:#ffffff;fill-opacity:1;fill-rule:evenodd;stroke:none;stroke-width:1px;stroke-linecap:butt;stroke-linejoin:miter;stroke-opacity:1"
     d="m 239.72542,159.30584 c -0.49509,2.75171 -0.92508,5.50343 -0.50993,8.25514 0.27916,1.85039 4.03093,1.73294 7.4064,0.16969 1.55019,-0.71791 3.98301,-2.13245 5.99505,-2.71113 2.40602,-0.692 4.65537,-0.63569 6.327,-1.06816 1.95317,-0.5053 3.08942,-1.46641 2.33636,-1.85101 -2.12682,-1.0862 -0.44751,-4.49911 -0.80639,-6.98031 -0.32404,-2.24034 -0.98601,-1.88698 -2.18694,-1.88819 -3.74891,-0.004 -3.46547,1.54605 -4.69138,2.60065 -0.57388,0.49368 -1.46785,0.44301 -1.06727,2.93354 l 0.50923,3.61549 c 0.3047,2.16342 -2.37964,1.85562 -2.45056,0.845 -0.20397,-2.90662 0.9052,-8.85972 -0.61192,-8.71985 -2.47672,0.22834 -1.96919,1.97512 -3.5877,1.45115 -1.40029,-0.45334 -6.37249,1.73918 -6.66195,3.34799 z"
     id="path4999" /><path
     style="fill:#ffffff;fill-opacity:1;fill-rule:evenodd;stroke:none;stroke-width:1px;stroke-linecap:butt;stroke-linejoin:miter;stroke-opacity:1"
     d="m 247.96817,153.16849 c -0.3694,1.88209 6.15447,-0.65407 8.4917,-0.61192 0.95754,0.0173 0.89597,-1.465 1.04982,-2.6531 0.12156,-0.93875 -1.24989,-3.45652 -1.78766,-3.34078 l -6.99991,1.50647 c -1.899,0.40868 -0.42423,3.41945 -0.75395,5.09933 z"
     id="path5001" /><path
     style="fill:#ffffff;fill-opacity:1;fill-rule:evenodd;stroke:none;stroke-width:1px;stroke-linecap:butt;stroke-linejoin:miter;stroke-opacity:1"
     d="m 258.05389,146.58891 c 2.59809,-2.09305 6.25891,-2.4083 9.64134,-2.91828 1.43188,-0.21589 2.62198,1.48636 2.21821,3.64602 -0.19278,1.03116 0.19812,2.42237 -3.06321,2.99838 l -6.0427,1.06725 c -1.37256,0.46746 -1.14711,-0.97021 -1.73452,-1.99549 -0.71486,-1.24774 -1.51883,-2.39531 -1.01912,-2.79788 z"
     id="path5003" /><path
     style="fill:#ffffff;fill-opacity:1;fill-rule:evenodd;stroke:none;stroke-width:1px;stroke-linecap:butt;stroke-linejoin:miter;stroke-opacity:1"
     d="m 270.72933,143.18619 c -0.22529,1.71074 1.17424,0.73672 1.27483,1.32582 l -0.0765,3.67153 c -0.0378,1.8164 5.34565,2.05672 5.37979,1.4788 0.13554,-2.2947 0.0182,-3.6907 -0.15299,-6.04271 -0.0538,-0.73886 -1.62944,-1.04876 -3.31366,-1.16079 -1.42774,-0.095 -2.99807,-0.13382 -3.11148,0.72735 z"
     id="path5005" /><path
     style="fill:#ffffff;fill-opacity:1;fill-rule:evenodd;stroke:none;stroke-width:1px;stroke-linecap:butt;stroke-linejoin:miter;stroke-opacity:1"
     d="m 280.36706,145.07294 c 2.54966,0.57112 6.17748,2.14061 5.85329,3.22713 -0.21757,0.72921 -0.53683,0.84634 -0.50993,1.45331 0.0261,0.58966 1.12937,2.77171 0.33144,2.70265 -2.20745,-0.19107 -3.9773,0.24112 -6.64367,-1.92681 -0.70372,-0.57217 -0.34994,-5.75169 0.96887,-5.45628 z"
     id="path5007" /><path
     style="fill:#ffffff;fill-opacity:1;fill-rule:evenodd;stroke:none;stroke-width:1px;stroke-linecap:butt;stroke-linejoin:miter;stroke-opacity:1"
     d="m 288.27102,148.38751 c 1.99534,0.55091 5.58971,1.16152 4.66588,3.13609 -0.55244,1.18078 -1.21515,1.09383 -0.94337,2.16721 0.22117,0.87351 0.7959,2.43807 0,2.37118 -1.43683,-0.12075 -2.43751,-1.13413 -4.13046,-1.96324 -0.69416,-0.33996 -0.30421,-5.90787 0.40795,-5.71124 z"
     id="path5009" /><path
     style="fill:#ffffff;fill-opacity:1;fill-rule:evenodd;stroke:none;stroke-width:1px;stroke-linecap:butt;stroke-linejoin:miter;stroke-opacity:1"
     d="m 263.32923,162.65529 c -1.09364,0.14044 -0.39315,-0.92801 -0.0968,-2.01414 0.15276,-0.55992 -0.85888,-1.43034 -0.73722,-2.19404 0.29377,-1.84403 -0.0354,-3.88298 1.00962,-5.48076 0.81225,-1.24183 4.21354,-2.33629 5.625,-2.16347 0.63492,0.0777 1.06741,1.3527 1.65865,1.3702 0.59207,0.0175 0.21593,-2.35123 1.875,-1.65866 1.36096,0.56812 2.52529,1.50317 3.68892,1.7118 0.73543,0.13186 2.91659,-0.74515 3.16204,0.54925 0.68838,3.63018 0.4363,6.00587 -0.36057,9.71011 -0.18597,0.86447 -1.71926,0.39466 -2.79722,-0.79327 -0.46876,-0.51659 -2.52329,0.68948 -3.69317,0.36057 -1.20698,-0.33934 -0.43874,-3.00982 -0.41447,-4.38081 0.0105,-0.5916 -1.28089,-1.33922 -1.4037,-0.15442 -0.20372,1.96524 -0.94408,3.45557 -1.94711,4.2985 -1.32527,1.11373 -3.57587,0.58319 -5.56895,0.83914 z"
     id="path5011" /><path
     style="fill:#ffffff;fill-opacity:1;fill-rule:evenodd;stroke:none;stroke-width:1px;stroke-linecap:butt;stroke-linejoin:miter;stroke-opacity:1"
     d="m 283.79255,154.06846 c -0.47187,-0.56404 -2.0431,-0.41805 -1.88087,0.9761 0.37417,3.2155 -2.03842,7.55216 -0.43269,9.35678 l 2.72293,3.0602 c 0.42586,0.47861 2.03512,0.56536 2.60419,-0.93967 0.89418,-2.36487 1.87821,-4.06364 1.90124,-6.70966 0.0195,-2.23519 -3.26632,-3.77332 -4.9148,-5.74375 z"
     id="path5013" /><path
     style="fill:#ffffff;fill-opacity:1;fill-rule:evenodd;stroke:none;stroke-width:1px;stroke-linecap:butt;stroke-linejoin:miter;stroke-opacity:1"
     d="m 290.73894,157.18765 c -0.0359,-0.41774 2.26097,-0.0266 2.40529,1.18735 l 1.22596,10.3125 c 0.2206,1.85567 -3.14595,-0.57886 -4.96067,-1.09995 -1.69877,-0.4878 1.68413,-6.27697 1.32942,-10.3999 z"
     id="path5015" /><path
     style="fill:#ffffff;fill-opacity:1;fill-rule:evenodd;stroke:none;stroke-width:1px;stroke-linecap:butt;stroke-linejoin:miter;stroke-opacity:1"
     d="m 298.07356,159.27389 c 1.29651,3.75 2.37546,7.53861 2.78702,11.28861 0.2623,2.39 -5.2057,0.48777 -5.12019,-0.9375 l 0.21634,-3.60577 -0.9375,-6.05769 c -0.0487,-0.31489 2.39354,-2.5989 3.05433,-0.68765 z"
     id="path5017" /><path
     style="fill:#ffffff;fill-opacity:1;fill-rule:evenodd;stroke:none;stroke-width:1px;stroke-linecap:butt;stroke-linejoin:miter;stroke-opacity:1"
     d="m 296.60577,171.64423 c 0.97285,0.37087 2.27325,0.97563 3.17308,1.73077 0.33966,0.28504 1.32942,0.0466 1.32942,0.0466 1.00956,3.93572 0.43192,9.79168 -0.25279,9.72245 -1.99425,-0.20162 -7.74255,-0.003 -6.25952,-2.9924 l 0.88437,-1.7825 c 1.04708,-2.11044 -0.26063,-7.25335 1.12544,-6.72495 z"
     id="path5019" /><path
     style="fill:#ffffff;fill-opacity:1;fill-rule:evenodd;stroke:none;stroke-width:1px;stroke-linecap:butt;stroke-linejoin:miter;stroke-opacity:1"
     d="m 237.06788,170.51859 c -0.93628,0.20752 -1.60956,-0.0386 -2.36169,0.90549 -0.84645,1.06248 -1.33662,3.06558 0.21203,3.66057 0.78752,0.30257 1.57945,0.4847 2.33651,-0.74974 1.25907,-2.05305 -0.30199,-2.13541 0.14688,-2.92755 0.51612,-0.91079 2.17969,0.89984 1.36227,3.07559 -0.61829,1.64573 -1.08021,2.64391 -3.26388,2.52273 -2.03113,-0.11271 -3.49735,-1.82232 -3.22766,-3.43183 0.45572,-2.71968 2.04235,-3.81097 3.69093,-3.99648 1.85562,-0.2088 1.56566,0.83903 1.10461,0.94122 z"
     id="path5021" /><path
     style="fill:#ffffff;fill-opacity:1;fill-rule:evenodd;stroke:none;stroke-width:1px;stroke-linecap:butt;stroke-linejoin:miter;stroke-opacity:1"
     d="m 200.5,182.23177 c 1.75324,1.462 4.61089,1.59919 5.55242,-0.2932 0.5479,-1.10125 1.63482,-2.44875 1.12486,-4.69551 -0.30955,-1.3638 -2.05439,-2.17248 -3.7088,-2.04334 -2.64099,0.20615 -4.15394,2.11438 -4.20553,3.88074 -0.0366,1.25402 0.50791,2.54329 1.23705,3.15131 z"
     id="path5023" /><path
     style="fill:#000000;fill-opacity:1;fill-rule:evenodd;stroke:none;stroke-width:1px;stroke-linecap:butt;stroke-linejoin:miter;stroke-opacity:1"
     d="m 203.35627,177.09311 c -1.4206,0.0587 -2.06789,2.09626 -1.89108,2.97649 0.37505,1.86717 2.11065,1.73503 2.75868,1.21693 1.11757,-0.8935 1.1784,-4.27788 -0.8676,-4.19342 z"
     id="path5025" /><path
     style="fill:#ffffff;fill-opacity:1;fill-rule:evenodd;stroke:none;stroke-width:1px;stroke-linecap:butt;stroke-linejoin:miter;stroke-opacity:1"
     d="m 171.64939,180.74274 c -2.67386,0.4344 -2.68622,2.08091 -2.70336,3.82378 -0.011,1.11514 0.44023,2.73852 1.42408,3.55353 2.32591,1.92673 4.85842,0.84078 6.3659,-0.34496 1.13815,-0.89524 1.0759,-3.59576 0.54274,-5.00062 -0.52537,-1.38434 -2.41463,-2.67768 -5.62936,-2.03173 z"
     id="path5029" /><path
     style="fill:#000000;fill-opacity:1;fill-rule:evenodd;stroke:none;stroke-width:1px;stroke-linecap:butt;stroke-linejoin:miter;stroke-opacity:1"
     d="m 173.46326,182.05545 c -1.6259,-0.0713 -2.57322,2.44489 -2.27642,3.50398 0.6354,2.26735 2.39143,1.96743 3.16664,1.42927 1.79302,-1.24473 0.38847,-4.8772 -0.89022,-4.93325 z"
     id="path5027" /><path
     style="fill:#ffffff;fill-opacity:1;fill-rule:evenodd;stroke:none;stroke-width:1px;stroke-linecap:butt;stroke-linejoin:miter;stroke-opacity:1"
     d="m 303.3125,182.22403 c 0.12393,1.54379 0.69716,2.27686 1.84913,3.35414 0.98563,0.92173 0.43372,-1.7253 0.49972,-3.74351 0.037,-1.13154 -2.45248,-0.90158 -2.34885,0.38937 z"
     id="path5031" /><path
     style="fill:#ffffff;fill-opacity:1;fill-rule:evenodd;stroke:none;stroke-width:1px;stroke-linecap:butt;stroke-linejoin:miter;stroke-opacity:1"
     d="m 313.91346,180.08173 -0.28846,7.90899 c -0.0706,1.93446 2.95418,0.47971 2.95418,0.47971 l 1.38768,-5.74443 c -0.011,-1.39935 -2.9747,-3.12942 -4.0534,-2.64427 z"
     id="path5033" /><path
     style="fill:#ffffff;fill-opacity:1;fill-rule:evenodd;stroke:none;stroke-width:1px;stroke-linecap:butt;stroke-linejoin:miter;stroke-opacity:1"
     d="m 150.42788,239.64904 c -2.7603,-0.0609 -2.07437,2.28054 -2.01923,3.46153 0.0839,1.79692 0.46763,3.52254 1.00962,5.26443 0.4572,1.46937 5.17432,1.09679 5.3726,-0.54087 l 0.97355,-8.04086 c 0.0574,-0.47408 -3.52372,-0.10424 -5.33654,-0.14423 z"
     id="path5037" /><path
     style="fill:#ffffff;fill-opacity:1;fill-rule:evenodd;stroke:none;stroke-width:1px;stroke-linecap:butt;stroke-linejoin:miter;stroke-opacity:1"
     d="m 160.95673,238.56731 c -1.37113,0.94205 -2.47731,0.60035 -3.35336,4.61538 -0.47029,2.15537 -0.8701,3.81817 -0.25241,4.6875 1.42098,1.99987 4.55698,-1.37921 7.93269,-1.55048 1.37267,-0.0696 2.68043,-0.20419 4.32692,0 1.17562,0.14579 1.64637,-5.18663 1.69472,-6.99519 0.028,-1.04758 -3.28397,-0.31657 -3.42548,-1.11779 -0.2031,-1.14992 0.75803,-2.34011 2.74038,-1.94712 2.90107,0.57513 5.06573,0.30863 7.31971,0.14423 2.11606,-0.15434 2.88153,-5.90261 3.20914,-9.12259 0.075,-0.73677 -3.55918,-0.40726 -3.82212,-0.0361 -0.3287,0.46404 -0.72596,0.73525 -1.15384,0.79327 -0.46875,0.0636 -0.40432,-0.59035 -1.00962,-0.9375 -0.52035,-0.29843 -3.37772,0.84815 -6.41827,1.80289 -1.5783,0.49558 -0.40292,3.16304 -0.93749,5.40865 -0.1303,0.54734 0.67546,2.56944 -2.92066,3.18817 -2.73551,0.47066 -0.82903,-1.73127 0.46873,-2.82759 0.38477,-0.32505 0.28579,-4.56607 0.36058,-5.04808 0.29678,-1.91274 -9.25312,0.54989 -14.63943,1.51442 -1.39363,0.24956 -0.67583,3.24346 -1.29807,6.02164 -0.28272,1.26231 13.50491,-0.19253 11.17788,1.40629 z"
     id="path5039" /><path
     style="fill:#ffffff;fill-opacity:1;fill-rule:evenodd;stroke:none;stroke-width:1px;stroke-linecap:butt;stroke-linejoin:miter;stroke-opacity:1"
     d="m 180.35577,236.65625 c -1.88481,2.47029 -6.8827,0.91127 -6.95914,2.59616 -0.19946,4.39657 -2.03122,7.41002 -0.82932,7.3197 4.06116,-0.3052 5.63617,-1.38465 8.4375,-2.09134 2.16607,-0.54644 6.64568,-0.0331 6.49038,-1.65866 -0.20906,-2.1884 0.77186,-5.94574 -0.57692,-5.76923 -4.4521,0.58264 -6.03077,-1.09353 -6.5625,-0.39663 z"
     id="path5041" /><path
     style="fill:#ffffff;fill-opacity:1;fill-rule:evenodd;stroke:none;stroke-width:1px;stroke-linecap:butt;stroke-linejoin:miter;stroke-opacity:1"
     d="m 189.15385,243.11058 c -0.48985,1.31952 1.07157,0.79995 3.24506,0.68272 1.61007,-0.0868 3.72642,0.1285 4.83186,0.47112 1.19656,0.37086 0.7944,-0.58959 3.05576,-2.48302 0.98474,-0.82452 0.18449,-3.95412 0.87453,-5.3415 0.59823,-1.20278 -6.47837,-0.58894 -9.69952,-0.75721 -1.90983,-0.0998 -1.39405,4.96681 -2.30769,7.42789 z"
     id="path5043" /><path
     style="fill:#ffffff;fill-opacity:1;fill-rule:evenodd;stroke:none;stroke-width:1px;stroke-linecap:butt;stroke-linejoin:miter;stroke-opacity:1"
     d="m 198.45673,225.44231 c -0.0862,3.9022 -2.27379,8.69045 -4.39904,8.87019 -3.41308,0.28865 -5.70261,0.39516 -10.67307,0.64904 -1.92358,0.0982 -1.02385,-4.13155 -0.32453,-6.45433 0.33476,-1.11187 3.95178,-2.33346 3.75,-3.78606 -0.0626,-0.45108 -6.74219,0.59434 -10.24038,0.97356 -0.88805,0.0963 -0.58206,-6.02683 1.40625,-8.6899 0.64019,-0.85745 5.80767,-0.88573 8.36539,-2.66827 0.8861,-0.61755 4.04012,0.90782 6.5625,0.72115 0.95838,-0.0709 0.25603,2.06367 -0.33023,4.0937 -0.48424,1.67677 -0.76324,3.28219 -1.07603,3.51447 -4.25143,3.15718 -2.19513,3.57426 -1.55048,3.4976 2.55621,-0.304 8.53682,-1.9527 8.50962,-0.72115 z"
     id="path5045" /><path
     style="fill:#ffffff;fill-opacity:1;fill-rule:evenodd;stroke:none;stroke-width:1px;stroke-linecap:butt;stroke-linejoin:miter;stroke-opacity:1"
     d="m 205.37981,223.13461 c -0.0519,2.33955 -3.72395,0.55962 -5.05207,5.44224 -0.45454,1.67103 -2.02264,4.64131 -1.33014,5.12267 2.08715,1.45081 11.01906,-2.31682 11.03365,-0.0721 0.0142,2.18694 -6.28252,0.42549 -6.67067,1.76683 -0.98565,3.4061 -0.80885,6.26681 -0.0721,6.20192 4.22487,-0.3721 7.54219,-5.96364 11.97116,-10.34856 1.09056,-1.07971 1.76705,-6.94389 1.4423,-8.11298 -0.432,-1.5552 -4.0625,0.43269 -6.09375,0.64904 -0.80849,0.0861 -2.86105,1.02795 -3.85817,-1.15384 0.97541,-0.45971 2.75543,-0.53372 2.8125,-1.44231 0.20207,-3.21706 -0.47043,-6.77077 0.64904,-8.83414 0.97368,-1.79464 -3.99643,1.09121 -4.9399,0.36058 -0.69733,-0.54002 -1.18594,-1.13715 -2.05529,-0.97356 -1.07759,0.20278 -1.13035,1.09179 -3.20914,1.76683 -0.99759,-0.33447 -1.64814,-0.0865 -2.63221,0.93752 -1.62267,1.68845 -2.54458,4.98948 -3.82212,8.58172 -0.90483,2.54423 11.85093,-0.97389 11.82691,0.10814 z"
     id="path5047" /><path
     style="fill:#ffffff;fill-opacity:1;fill-rule:evenodd;stroke:none;stroke-width:1px;stroke-linecap:butt;stroke-linejoin:miter;stroke-opacity:1"
     d="m 173.46875,226.05529 c -3.27263,0.63624 -11.4293,3.0417 -11.57452,0.79327 -0.19114,-2.9593 0.0257,-5.90325 2.16346,-8.61779 0.78376,-0.99525 2.09135,-0.41986 3.13702,-0.61298 l 4.06398,-0.24084 c 0.7873,-0.0467 2.45332,-0.76547 2.31824,-1.56204 -0.73395,-4.32815 0.6123,-8.45102 1.62259,-8.68991 1.32423,-0.31313 3.75897,0.56531 2.70433,-1.15385 l -7.9327,1.15385 c -1.30958,0.19048 -3.26523,0.4861 -3.17307,-2.45192 0.07,-2.23176 0.41271,-5.49706 1.65865,-5.87741 3.56405,-1.08798 6.75373,-1.72528 10.24039,-2.48798 2.07377,-0.45363 2.49863,1.40041 2.27163,2.19952 -0.6309,2.22106 -0.43652,4.96676 -2.19952,6.02164 -0.70667,0.42283 0.40626,2.05451 1.15385,2.01923 2.93216,-0.13835 1.93573,-1.46946 1.83894,-2.37981 -0.2592,-2.43784 -0.52388,-4.19526 0.6851,-5.55289 -0.97385,-3.13116 0.6573,-2.71041 1.58653,-2.84855 2.08645,-0.31016 1.34826,-0.86611 2.49881,-1.17556 4.48362,-1.20592 10.62329,-2.59398 10.91466,-1.24031 0.54956,2.55323 -0.66862,4.47711 -1.08173,6.63461 -0.26616,1.39 -7.22467,2.6524 -10.88943,3.82212 -3.58338,1.14374 -2.08513,3.41562 0.21635,1.80289 0.74278,-0.52049 2.65683,-1.68979 2.37981,-0.57693 -0.29161,1.17148 -0.14423,3.79808 -0.21635,5.69712 -0.11441,3.01264 -4.57578,4.03349 -8.22115,3.96634 -1.74501,-0.0321 -3.1379,0.30665 -4.47116,1.22597 -0.51835,0.35742 -0.68265,0.55416 -0.65397,0.97634 0.0278,0.40979 0.61405,1.05246 0.40156,1.90827 -0.67315,2.71128 -0.46699,7.05798 -1.4423,7.2476 z"
     id="path5049" /><path
     style="fill:#ffffff;fill-opacity:1;fill-rule:evenodd;stroke:none;stroke-width:1px;stroke-linecap:butt;stroke-linejoin:miter;stroke-opacity:1"
     d="m 189.98317,211.84856 c -0.24266,2.60678 3.39382,0.50311 11.43029,-0.6851 1.94281,-0.28725 1.87771,-5.29153 2.19952,-8.07692 0.14688,-1.2713 -1.61461,-0.0518 -3.17308,0.61298 -2.32622,0.99227 -1.11943,-1.51506 -2.99278,-1.15384 -2.49404,0.4809 -4.46568,1.79765 -6.0577,2.92067 -1.81766,1.28218 -1.16519,3.79257 -1.40625,6.38221 z"
     id="path5051" /><path
     style="fill:#ffffff;fill-opacity:1;fill-rule:evenodd;stroke:none;stroke-width:1px;stroke-linecap:butt;stroke-linejoin:miter;stroke-opacity:1"
     d="m 206.53366,210.80289 c -2.05249,0.52126 -2.09474,-2.1248 -1.3702,-3.53366 l 0.72116,-3.17307 c 0.19618,-0.86322 1.75965,-1.79563 3.74204,-2.66094 1.37306,-0.59934 2.15383,-1.29779 4.40699,-1.37753 0.67071,-0.0237 0.75878,1.02207 1.40625,0.72116 1.28464,-0.59704 4.14806,-1.33722 4.14664,-0.54087 -0.002,1.294 0.0347,2.6389 0.46875,3.75 0.49691,1.27202 0.44418,2.89356 0.18029,4.36298 -0.20549,1.14422 -6.50472,0.53441 -8.8702,1.51443 -2.14606,0.88911 -4.83172,0.9375 -4.83172,0.9375 z"
     id="path5053" /><path
     style="fill:#ffffff;fill-opacity:1;fill-rule:evenodd;stroke:none;stroke-width:1px;stroke-linecap:butt;stroke-linejoin:miter;stroke-opacity:1"
     d="m 221.96635,207.15849 c 0.10478,1.52913 9.7023,0.62136 11.93766,-0.15298 1.13636,-0.39364 2.75948,-0.96234 2.94285,-1.96673 0.40384,-2.2119 1.6391,-7.47144 0.77215,-7.31866 -2.73877,0.48264 -4.62692,0.0361 -7.35427,-0.10998 -2.79207,-0.1496 -4.84743,1.52615 -7.14455,2.15909 -0.84864,0.23383 -1.32261,4.92618 -1.15384,7.38926 z"
     id="path5055" /><path
     style="fill:#ffffff;fill-opacity:1;fill-rule:evenodd;stroke:none;stroke-width:1px;stroke-linecap:butt;stroke-linejoin:miter;stroke-opacity:1"
     d="m 225.57212,209.57692 c -4.71728,-0.6769 -6.28777,0.0429 -9.15866,0.54087 -0.96336,0.1671 -1.15717,1.88385 -1.91105,2.23557 -0.57978,0.2705 -1.31702,0.55447 -1.69472,0.82933 -1.02485,0.74581 -1.02318,1.47446 -1.80289,8.1851 -0.0887,0.76367 1.80413,0.0156 4.64782,-0.12635 2.79242,-0.1394 4.61875,-0.78518 6.09738,-1.46019 0.38723,-0.17678 1.10955,2.25994 0.14423,2.12741 -2.05487,-0.28212 -3.09786,1.51701 -3.56971,3.17307 -0.56664,1.98878 -1.97476,4.69456 0.0361,5.625 3.96223,1.8334 6.88753,-0.83231 11.75481,-2.19952 0.78018,-0.21915 2.53941,-1.04018 2.41587,-2.1274 -0.22028,-1.93845 -0.48394,-2.997 0.54085,-4.79568 0.40143,-0.70456 -4.7123,-1.1475 -4.56597,-0.31428 0.23394,1.33207 -0.6627,0.26695 -4.08787,0.71092 -1.21848,0.15794 -1.37925,-2.2976 -0.50481,-2.45192 l 1.22596,-0.21635 c 0.87835,-0.15501 0.24604,-2.48495 0.71336,-4.81885 0.55952,-2.79444 1.84649,-4.6115 -0.28066,-4.91673 z"
     id="path5057" /><path
     style="fill:#ffffff;fill-opacity:1;fill-rule:evenodd;stroke:none;stroke-width:1px;stroke-linecap:butt;stroke-linejoin:miter;stroke-opacity:1"
     d="m 235.8125,225.94712 c -1.50064,1.01902 -2.06288,-0.24673 -1.51442,-2.88462 0.31669,-1.52317 1.15532,-1.72544 1.94711,-2.01923 1.61963,-0.60096 5.66817,-0.68016 4.75962,-1.80289 -0.48053,-0.59381 -13.1287,0.9334 -13.23318,-0.43269 -0.26078,-3.41 0.75873,-6.34224 2.05529,-8.14904 0.74996,-1.0451 2.87262,-1.61821 4.57933,-2.41586 2.21146,-1.03354 5.07363,-1.47551 5.66106,-0.82933 l 0.72116,0.79327 c 0.76465,0.84113 7.99675,-1.90428 7.64422,-1.00962 -2.15154,5.46023 -1.61602,9.32893 -2.23557,9.23077 -1.87821,-0.29757 -1.51758,0.40024 -1.47836,1.04567 0.0404,0.66489 1.37002,0.42093 1.76682,1.22597 0.15088,0.3061 -2.06726,0.94289 -4.73013,2.62763 -2.05094,1.29758 -4.39503,3.56885 -5.94295,4.61997 z"
     id="path5059" /><path
     style="fill:#ffffff;fill-opacity:1;fill-rule:evenodd;stroke:none;stroke-width:1px;stroke-linecap:butt;stroke-linejoin:miter;stroke-opacity:1"
     d="m 248.49893,217.06817 c 1.26052,0.97497 2.26245,-0.20235 3.78425,-0.87188 1.43749,-0.63244 3.67386,0.0121 4.36054,-0.0816 1.66419,-0.22703 2.48033,-0.93415 4.21107,-0.84427 1.79678,0.0933 2.55636,1.73144 4.84848,1.81089 2.49807,0.0866 5.53391,-1.07158 5.59,-1.95149 l 0.5988,-9.39388 c 0.0808,-1.26746 -2.20205,-0.52159 -4.32542,-0.92013 -0.42208,-0.0792 -1.08271,0.67415 -1.93658,0.6703 -1.6648,-0.008 -3.92028,-0.69915 -5.5868,-0.66879 -2.9786,0.0543 -5.95824,0.2191 -8.93281,0.73353 -0.70287,0.12155 -0.88154,3.2578 -1.63978,4.93808 -1.6275,3.60658 -2.21341,5.61886 -0.97175,6.57925 z"
     id="path5061" /><path
     style="fill:#ffffff;fill-opacity:1;fill-rule:evenodd;stroke:none;stroke-width:1px;stroke-linecap:butt;stroke-linejoin:miter;stroke-opacity:1"
     d="m 273.67308,206.1875 -0.65779,9.70133 c -0.051,0.75207 4.13306,1.90962 4.1237,0.63591 l -0.0765,-10.40936 c -0.008,-1.03444 -3.34905,-0.71788 -3.38942,0.0721 z"
     id="path5063" /><path
     style="fill:#ffffff;fill-opacity:1;fill-rule:evenodd;stroke:none;stroke-width:1px;stroke-linecap:butt;stroke-linejoin:miter;stroke-opacity:1"
     d="m 198.99759,201.39182 c 0.78893,1.42143 1.4947,-0.98844 10.38462,-1.29807 3.51209,-0.12233 3.09093,-6.04488 3.38942,-9.66346 0.0925,-1.12112 -8.52343,-0.21096 -13.08894,2.52403 -0.43437,0.26022 0.41223,1.42727 0.43269,2.05529 0.0928,2.84972 -2.18971,4.45091 -1.11779,6.38221 z"
     id="path5065" /><path
     style="fill:#ffffff;fill-opacity:1;fill-rule:evenodd;stroke:none;stroke-width:1px;stroke-linecap:butt;stroke-linejoin:miter;stroke-opacity:1"
     d="m 165.35577,198.4351 c 0.79819,-0.0899 -0.61298,4.86778 -0.21635,8.11297 0.0812,0.66456 -5.36565,1.41437 -9.12259,1.69472 -0.84717,0.0632 -1.60122,-1.89824 -1.33414,-2.92068 0.40561,-1.55278 0.97604,-2.9967 1.00962,-4.97596 0.0144,-0.84951 6.4423,-1.54812 9.66346,-1.91105 z"
     id="path5067" /><path
     style="fill:#ffffff;fill-opacity:1;fill-rule:evenodd;stroke:none;stroke-width:1px;stroke-linecap:butt;stroke-linejoin:miter;stroke-opacity:1"
     d="m 172.09857,208.63943 c 0.51965,-1.26864 -12.90942,0.73602 -17.0553,1.65865 -0.44112,0.0982 -0.66937,1.66308 -1.06048,2.49793 -0.61231,1.30703 -1.11993,2.6079 -0.59817,3.84822 -0.86203,2.27106 4.53863,-1.54142 14.56766,-0.96916 1.32875,0.0758 4.08774,-0.22839 3.96599,-0.79766 -0.44472,-2.07933 -0.61628,-4.2933 0.1803,-6.23798 z"
     id="path5069" /><path
     style="fill:#ffffff;fill-rule:evenodd;stroke:none;stroke-width:1px;stroke-linecap:butt;stroke-linejoin:miter;stroke-opacity:1;fill-opacity:1"
     d="m 161.38942,218.87981 -8.22115,0.28846 -1.22596,3.67788 -0.86539,6.41827 8.79808,-1.80288 z"
     id="path5071" /><path
     style="fill:#ffffff;fill-opacity:1;fill-rule:evenodd;stroke:none;stroke-width:1px;stroke-linecap:butt;stroke-linejoin:miter;stroke-opacity:1"
     d="m 213.85336,198.07452 c -0.13054,0.60637 1.80318,0.0863 4.35043,-0.16394 3.22252,-0.31654 6.74189,0.26012 9.67602,-1.63895 1.23547,-0.79964 1.81463,-1.26466 2.84855,-7.7524 0.17833,-1.11901 -0.76791,-0.77623 -0.97356,-1.83894 -0.32456,-1.67719 -2.80718,1.00244 -7.57211,1.26202 -3.08384,0.168 -3.62225,0.64476 -5.625,1.29807 -1.48045,0.48294 -2.054,5.81321 -2.70433,8.83414 z"
     id="path5073" /><path
     style="fill:#ffffff;fill-opacity:1;fill-rule:evenodd;stroke:none;stroke-width:1px;stroke-linecap:butt;stroke-linejoin:miter;stroke-opacity:1"
     d="m 232.17068,186.86058 c 0.27644,0.45683 0.55288,0.86528 0.82932,1.22596 0.77219,1.00748 -1.67157,7.39837 -0.64904,7.53606 3.98814,0.53699 6.31115,-0.53412 9.55529,-1.58654 1.24527,-0.40397 1.57706,0.7655 1.00962,1.33414 -1.43481,1.43783 -3.34484,1.57406 -3.67789,4.21874 -0.25427,2.0191 -0.31921,3.6592 -0.25241,5.44472 0.0698,1.86605 8.54723,-0.21424 13.23318,-0.4327 2.28698,-0.10662 2.33678,-2.17056 4.14663,-2.74038 0.72814,-0.22925 0.19052,-7.0484 -0.50481,-7.03125 -1.36415,0.0336 -3.13051,0.16355 -4.6161,0.0859 -2.99668,-0.15648 -5.57761,-0.4535 -5.62428,-1.0595 -0.0863,-1.12046 1.49304,-1.36405 2.45193,-2.95673 l 0.9375,-7.89664 c 0.11734,-0.98838 -4.3199,0.49896 -8.89442,1.54211 -4.43643,1.01166 -5.52279,-0.18764 -6.07742,0.41891 -0.34781,0.38038 -0.46315,1.22163 -0.82802,1.30589 -0.74248,0.17147 -1.26588,0.21651 -1.03908,0.59131 z"
     id="path5075" /><path
     style="fill:#ffffff;fill-opacity:1;fill-rule:evenodd;stroke:none;stroke-width:1px;stroke-linecap:butt;stroke-linejoin:miter;stroke-opacity:1"
     d="m 250.09135,191.62019 c 0.86172,-2.00204 0.76323,-5.26611 1.00961,-8.07692 0.0962,-1.09771 0.003,-1.97214 2.59616,-2.30769 4.74596,-0.61421 9.2347,-1.39562 14.44676,-3.06619 1.28791,-0.4128 0.63026,1.20031 1.42013,0.97462 1.12488,-0.32141 1.18312,-0.20137 1.08022,0.50503 -0.5472,3.75641 0.5241,9.86821 -0.68329,10.17339 -3.07913,0.77827 -3.70033,2.02821 -11.28786,1.94199 -2.8608,-0.0325 -9.41964,1.80249 -8.58173,-0.14423 z"
     id="path5077" /><path
     style="fill:#ffffff;fill-opacity:1;fill-rule:evenodd;stroke:none;stroke-width:1px;stroke-linecap:butt;stroke-linejoin:miter;stroke-opacity:1"
     d="m 259.48535,194.30883 c 3.46194,-0.46214 6.29518,-1.25414 8.9233,-1.92449 2.63974,-0.67333 2.33696,0.33028 2.3157,2.45992 l -0.0801,8.02593 c -0.0106,1.0667 -4.10135,-0.54137 -5.7991,-0.12673 -2.63832,0.64435 -7.5113,0.93292 -6.96532,0.0546 2.34826,-3.77757 -0.96757,-8.14575 1.60554,-8.48925 z"
     id="path5079" /><path
     style="fill:#ffffff;fill-opacity:1;fill-rule:evenodd;stroke:none;stroke-width:1px;stroke-linecap:butt;stroke-linejoin:miter;stroke-opacity:1"
     d="m 272.95192,202.94231 c -0.2954,0.71833 1.51704,1.30396 3.5837,1.82055 2.57899,0.64467 5.56808,1.06817 5.51522,0.19356 l -0.15661,-2.59104 c -0.0812,-1.34351 0.36572,-2.67822 0.59217,-4.01733 0.25525,-1.5094 -1.9433,-2.65366 -0.88063,-2.76151 2.43353,-0.24697 5.1019,-0.95151 5.99358,1.6674 0.48852,1.43483 -1.94224,-1.25592 -3.18108,0.64029 l 0.57692,9.51923 -2.95673,0.0721 c -1.28344,0.0313 -3.00899,2.34275 -3.03322,3.04923 -0.0899,2.62293 -0.31581,6.30837 1.01399,8.41713 0.89992,1.42707 -2.56959,0.22108 -3.84761,-0.0131 -1.2198,-0.22353 -1.96401,0.77381 -0.72991,1.39644 1.57178,0.79299 2.83816,2.00104 3.78788,3.36392 2.94123,4.22078 6.52611,2.56958 10.02041,4.84411 1.03719,0.67513 2.26836,3.17825 2.76663,2.47305 l 0.84714,-1.19897 c 0.33754,-0.47773 1.33994,0.56959 1.34395,-0.41234 0,0 -0.52452,-3.16418 0.0947,-4.5185 0.73227,-1.60151 -0.18258,-2.40535 -0.64103,-2.92687 -0.392,-0.44591 0.88982,-0.61689 1.93473,-0.77214 1.77902,-0.26432 6.68367,0.25104 5.33654,-0.79327 -0.78351,-0.60739 -1.74308,-1.24995 -1.7104,-1.94712 l 0.20985,-4.4769 c 0.0411,-0.87747 -0.84218,-1.54013 -1.73077,-2.23345 -0.44244,-0.34522 -0.19185,-1.19771 -0.28846,-1.79851 -0.0887,-0.5517 -4.46372,-0.63359 -5.22293,0.007 -2.31547,1.95447 -1.52969,4.23725 -1.43068,6.13056 0.15548,2.97344 -1.80962,1.0985 -2.04173,0.45306 -0.44754,-1.2445 0.001,-1.75389 0.53606,-4.42953 0.37885,-1.89569 1.2684,-3.20939 -2.73164,-4.17769 -0.59917,-0.14504 -0.57805,-1.67217 0.20397,-1.30171 3.90446,1.84963 3.27364,0.29419 6.38765,1.2937 1.30255,0.41808 0.0841,-5.26231 0.23022,-8.12279 0.0329,-0.6438 -0.89056,-1.88303 -1.55667,-1.78251 -0.79327,0.11972 -1.88588,0.0508 -2.63477,-0.39045 -0.47944,-0.28252 -0.33226,-0.51156 -0.50481,-1.36432 -0.0897,-0.44337 1.45774,-0.27777 1.53992,-0.7394 0.35458,-1.99174 0.20616,-4.65488 0.0597,-7.1263 -0.0485,-0.8185 1.86714,-1.27736 1.84875,-0.84863 l -0.31395,7.32152 c -0.0974,2.27071 1.49009,2.76197 2.08335,2.87587 l 3.16432,0.60753 c 0.64758,0.12433 1.68252,0.0182 1.73077,-0.93749 l 0.27607,-5.46764 c 0.0551,-1.09101 2.06358,-0.34864 1.96826,0.47418 -0.22363,1.93037 -0.29501,3.89059 -0.43269,5.55289 -0.11533,1.39247 1.39547,1.39262 2.84863,1.44405 1.37376,0.0486 2.80517,0.0489 2.6875,-0.5998 -0.45205,-2.49184 -0.74593,-4.82956 -1.17493,-7.37676 -0.21195,-1.25844 0.0641,-1.9034 0.38761,-2.86699 0.44112,-1.314 -3.60664,-1.16607 -5.32567,-0.98487 -1.19968,0.12645 -0.37581,0.97342 -1.86187,1.09411 -0.48304,0.0392 -0.60874,-1.77565 -0.55143,-2.26471 0.13637,-1.1639 -4.08876,-1.55588 -5.2768,-1.76426 -0.81701,-0.1433 -0.24343,2.11909 -1.84588,1.95949 -1.00002,-0.0996 -1.28608,-1.77577 -1.55379,-2.33756 -0.73045,-1.53288 -5.0215,-2.29779 -9.11566,-2.66027 -0.81748,-0.0724 -1.14603,1.85248 -1.22596,2.73238 -0.31446,3.46189 -0.54981,6.48636 0.69204,9.48861 0.82802,2.0018 -2.91263,0.28904 -4.35243,0.20397 -1.04053,-0.0615 -2.91438,-0.0714 -2.38418,2.70689 0.39932,2.09248 1.40378,4.74805 0.43269,6.20193"
     id="path5081" /><path
     style="fill:#ffffff;fill-opacity:1;fill-rule:evenodd;stroke:none;stroke-width:1px;stroke-linecap:butt;stroke-linejoin:miter;stroke-opacity:1"
     d="m 271.85707,180.75189 0.0124,9.2264 c 0.003,2.17321 4.45003,3.60608 4.61326,2.9276 0.76381,-3.17496 -0.10235,-5.25356 -0.12461,-8.22914 -0.0107,-1.42543 0.39138,-2.42342 0.61192,-3.6094 0.0387,-0.20818 -1.25316,-0.89559 -2.54783,-1.02117 -1.28145,-0.1243 -2.56565,0.31012 -2.56512,0.70571 z"
     id="path5085" /><path
     style="fill:#ffffff;fill-opacity:1;fill-rule:evenodd;stroke:none;stroke-width:1px;stroke-linecap:butt;stroke-linejoin:miter;stroke-opacity:1"
     d="m 310.59329,189.94992 c -0.17474,3.0918 1.78495,0.77144 1.50054,3.67714 -0.21313,2.17755 0.62839,5.52636 0.0889,5.85371 -0.86858,0.52699 -2.4452,1.46029 -3.17382,1.40007 -0.84017,-0.78801 -1.66177,-4.35741 -1.80214,-7.02507 -0.0419,-0.79619 -0.24642,-2.41313 0.22493,-3.5317 0.57794,-1.3715 3.22453,-1.48721 3.16163,-0.37415 z"
     id="path5087" /><path
     style="fill:#ffffff;fill-opacity:1;fill-rule:evenodd;stroke:none;stroke-width:1px;stroke-linecap:butt;stroke-linejoin:miter;stroke-opacity:1"
     d="m 297.47115,199.55288 c -1.06484,-0.36683 -1.96054,0.46221 -1.94711,1.15385 l 0.14423,7.42788 c 0.006,0.31292 1.40591,0.24154 2.63686,0.82113 1.81702,0.85555 4.6108,1.35651 4.3977,0.34584 -0.48911,-2.31969 -0.79174,-5.03065 -0.37083,-8.10604 0.1225,-0.89505 -3.24381,-1.0856 -4.86085,-1.64266 z"
     id="path5089" /><path
     style="fill:#ffffff;fill-opacity:1;fill-rule:evenodd;stroke:none;stroke-width:1px;stroke-linecap:butt;stroke-linejoin:miter;stroke-opacity:1"
     d="m 307.03776,200.61712 c -1.49791,-0.436 -2.3675,0.55458 -2.60566,1.92161 -1.24398,7.14059 1.18975,4.92366 0.3642,7.98807 -0.37376,1.38738 -2.07239,1.18856 -3.28668,1.86262 -0.92304,0.51238 -0.72511,1.80066 -0.50481,3.02885 0.28846,1.44239 0.25587,4.54737 0.61041,4.65838 0.7026,0.21998 1.68874,3.14658 2.4738,2.78188 0.99591,-0.46265 1.56842,-1.24572 3.10896,-1.26671 0.52546,-0.007 0.24711,-4.53465 0.36072,-8.27004 0.0286,-0.94037 -0.8354,-1.23084 -0.59819,-2.44603 0.15961,-0.81761 1.84407,0.72922 3.08784,0.97975 0.57075,0.11496 1.95841,0.28185 2.19842,-0.15552 0.46655,-0.85022 0.34389,-1.23715 0.37224,-2.04657 0.0394,-1.12408 0.56153,-2.89128 0.47571,-3.94225 -0.12734,-1.55958 -1.5385,-2.2618 -1.55744,-3.19717 -0.0262,-1.29217 -2.74624,-1.38653 -4.49952,-1.89687 z"
     id="path5091" /><path
     style="fill:#000000;fill-opacity:1;fill-rule:evenodd;stroke:none;stroke-width:1px;stroke-linecap:butt;stroke-linejoin:miter;stroke-opacity:1"
     d="m 291.56132,218.95192 c -3.67089,-0.46572 -6.5552,-1.10079 -8.97293,-0.78014 -1.60727,0.21317 -1.02899,2.19956 0.17123,2.07822 3.80748,-0.38493 5.58002,0.36691 8.36538,0.86538 2.373,0.42468 1.4271,-2.03776 0.43632,-2.16346 z"
     id="path5093" /><path
     style="fill:#ffffff;fill-opacity:1;fill-rule:evenodd;stroke:none;stroke-width:1px;stroke-linecap:butt;stroke-linejoin:miter;stroke-opacity:1"
     d="m 299.41827,222.27798 c -1.70105,-0.77798 -2.34532,0.35224 -2.8125,0.7969 -1.69428,1.61259 0.0443,4.75959 0.0721,7.27127 0.005,0.46387 0.80957,0.88822 2.09936,1.33233 0.69924,0.24076 0.72299,0.34744 0.62866,0.89813 -0.19453,1.13566 3.23812,0.17668 3.36319,-0.63667 0.28109,-1.82802 -0.17002,-4.655 -0.0933,-7.18454 0.0181,-0.59461 -2.15515,-1.97323 -3.25756,-2.47742 z"
     id="path5095" /><path
     style="fill:#ffffff;fill-opacity:1;fill-rule:evenodd;stroke:none;stroke-width:1px;stroke-linecap:butt;stroke-linejoin:miter;stroke-opacity:1"
     d="m 306.1505,223.77853 c -0.53721,-0.0528 -1.63922,1.74682 -1.57341,3.00485 0.12285,2.34873 0.0154,6.61419 0.75101,6.68923 3.02921,0.30898 8.98118,1.58106 8.95906,0.27458 -0.0455,-2.68892 -0.501,-4.28267 -0.73427,-6.71834 -0.1088,-1.13597 -2.26813,-2.7462 -3.67789,-2.88462 z"
     id="path5097" /><path
     style="fill:#ffffff;fill-opacity:1;fill-rule:evenodd;stroke:none;stroke-width:1px;stroke-linecap:butt;stroke-linejoin:miter;stroke-opacity:1"
     d="m 312.82736,222.92702 c -2.10154,-0.65506 -4.81653,-0.27605 -4.17832,-2.02873 0.94532,-2.5961 0.18781,-7.59034 1.08098,-7.89408 1.03937,-0.35345 2.59516,1.39327 3.63639,2.4818 -0.11169,2.46334 0.383,7.72842 -0.53905,7.44101 z"
     id="path5099" /><path
     style="fill:#ffffff;fill-rule:evenodd;stroke:none;stroke-width:1px;stroke-linecap:butt;stroke-linejoin:miter;stroke-opacity:1"
     d="m 311.66476,237.99038 c -2.10676,-1.65424 -4.00654,-1.70818 -11.04678,-2.50291 -0.78519,-0.0886 -0.54602,1.18787 -0.16098,1.23321 1.7746,0.20899 3.14709,0.73798 4.40764,0.89236 1.68284,0.20612 3.08638,0.0438 4.21168,0.44512 2.69069,0.95966 3.68518,0.83102 2.58844,-0.0678 z"
     id="path5101" /><path
     style="fill:#ffffff;fill-rule:evenodd;stroke:none;stroke-width:1px;stroke-linecap:butt;stroke-linejoin:miter;stroke-opacity:1"
     d="m 295.09135,239 c -2.20338,-0.18459 -3.15378,-0.0671 -5.03345,0.48806 -0.84473,0.2495 2.55434,1.38561 5.87409,1.31482 0.83056,-0.0177 1.40547,-1.61471 -0.84064,-1.80288 z"
     id="path5103" /><path
     style="fill:#ffffff;fill-rule:evenodd;stroke:none;stroke-width:1px;stroke-linecap:butt;stroke-linejoin:miter;stroke-opacity:1"
     d="m 303.35771,238.82607 c -0.58077,-0.0368 -1.73611,0.5562 -2.15819,1.0014 -0.54133,0.57097 6.37533,1.08241 5.09511,-0.24349 -0.87536,-0.90659 -0.84098,-0.62522 -2.93692,-0.75791 z"
     id="path5105" /><path
     style="fill:#ffffff;fill-rule:evenodd;stroke:none;stroke-width:1px;stroke-linecap:butt;stroke-linejoin:miter;stroke-opacity:1"
     d="m 359.63624,291.13499 c 0.0382,1.01909 1.24821,1.9871 2.43958,2.04519 2.16231,0.70127 4.46018,0.72015 6.09919,3.07315 5.01212,7.1955 14.21932,11.21462 17.92595,11.11205 2.40844,-0.0666 -1.59596,-1.17746 -4.2548,-3.3173 -1.75138,-1.40951 -4.25643,-2.20731 -6.85097,-4.47116 l -4.75962,-6.34616 c -3.27571,-4.36762 -8.48557,-6.08173 -11.89903,-8.29326 l -10.52885,-13.41346 c -5.67237,-5.84194 -15.50598,-6.72653 -23.72596,-11.03366 -3.75789,-2.33187 -7.74441,-5.12109 -9.08654,-10.60096 l -2.3798,-0.36057 c 0.42135,1.94711 -0.1003,3.89423 1.51442,5.84134 2.77053,2.06364 6.42752,3.59541 8.29327,6.20192 2.38288,3.32896 4.04619,3.26017 6.20192,4.83174 0.69829,0.50906 2.00605,-0.0267 2.59615,0.43269 3.97985,3.09807 7.40385,3.43536 11.32212,5.04808 0.74843,0.30805 3.16583,2.7453 1.00962,2.16346 0,0 -2.8322,-1.29614 -4.39904,-1.3702 -0.99872,-0.0472 -3.10096,0.64904 -3.10096,0.64904 -3.816,0.65152 -9.4174,-5.90056 -12.69231,-4.90384 l -4.97596,1.51442 c -6.10078,1.85676 -13.24699,-0.38269 -19.90385,-3.82212 -0.98579,-0.50933 -4.90413,-0.50311 5.625,4.11058 5.25401,2.30222 8.39985,3.18056 11.25,3.17308 3.05155,-0.008 6.87887,-0.87401 10.02403,0.43269 4.37995,1.81972 9.17724,3.1622 12.98078,2.8125 1.72991,-0.15905 3.41346,-0.0226 5.12019,1.15385 1.94378,1.33987 5.25674,4.29887 8.36539,4.61538 0.55775,0.0568 0.30811,2.64311 1.80288,2.88462 1.92502,0.31102 2.67141,1.47459 3.37834,2.39573 0.74698,0.97332 4.1624,0.45521 3.61686,2.07542"
     id="path5107" /><path
     style="fill:#ffffff;fill-rule:evenodd;stroke:none;stroke-width:1px;stroke-linecap:butt;stroke-linejoin:miter;stroke-opacity:1"
     d="m 341.38942,284.43269 c -3.30877,0.44526 -5.66105,-0.52315 -8.54567,0.39664 -2.70858,0.86365 -5.75482,0.52957 -7.35577,1.73076 -0.65264,0.48968 -0.80497,0.94669 -1.40285,2.13875 -0.35711,0.71203 -0.34186,-1.35974 -3.21254,0.24107 -2.60278,1.45141 0.33773,-1.52561 2.41587,-2.70433 5.65542,-3.04353 11.6172,-3.32431 17.52404,-4.11058 0.44897,-0.0598 1.5582,2.17564 0.57692,2.30769 z"
     id="path5111" /><path
     style="fill:#ffffff;fill-rule:evenodd;stroke:none;stroke-width:1px;stroke-linecap:butt;stroke-linejoin:miter;stroke-opacity:1"
     d="m 313.12019,291.64423 c -2.20601,-0.20518 -4.42307,0.50743 -6.63461,1.22596 -0.64103,0.20827 -0.61597,1.88687 0,1.65866 5.33654,-1.97717 10.16927,-1.26985 7.44592,-2.25361 -0.58192,-0.21021 -0.22248,-0.57624 -0.81131,-0.63101 z"
     id="path5113" /><path
     style="fill:#ffffff;fill-rule:evenodd;stroke:none;stroke-width:1px;stroke-linecap:butt;stroke-linejoin:miter;stroke-opacity:1"
     d="m 299.90505,294.20433 c 1.02345,0.038 2.85148,1.29641 -0.34255,1.40625 -6.05304,0.20816 -15.81156,0.80262 -25.3125,0.72115 -1.80016,-0.0154 -9.44786,4.5375 -14.27885,6.5625 -1.0494,0.43988 -3.86136,-1.92003 -2.01923,-2.16346 5.94971,-0.78622 13.84966,-6.59901 15.50481,-6.5625 l 9.80769,0.21634 c 2.98865,0.0659 2.42856,-0.99462 3.42548,-0.9375 0,0 2.60367,0.31909 3.91138,0.41213 3.09556,0.22024 9.30377,0.34509 9.30377,0.34509 z"
     id="path5115" /><path
     style="fill:#ffffff;fill-rule:evenodd;stroke:none;stroke-width:1px;stroke-linecap:butt;stroke-linejoin:miter;stroke-opacity:1"
     d="m 251.78606,284.75722 c 4.03606,-0.59786 5.85774,-0.65959 8.25721,-1.76684 1.52496,-0.7037 3.46851,-2.57744 4.29086,-2.09134 1.41092,0.83401 2.66827,1.52367 4.00241,1.80288 0.58444,0.12231 0.9272,1.42086 -0.61298,1.26202 -1.5558,-0.16044 -2.67229,-2.06824 -5.04807,-1.44231 -1.83082,0.48235 -0.22035,2.4881 -3.10097,3.2452 -0.9267,0.24355 -3.7145,0.98308 -5.52913,0.70568 -2.23837,-0.34216 -3.7113,-1.50022 -2.25933,-1.71529 z"
     id="path5117" /><path
     style="fill:#ffffff;fill-rule:evenodd;stroke:none;stroke-width:1px;stroke-linecap:butt;stroke-linejoin:miter;stroke-opacity:1"
     d="m 225.82452,260.94111 c 1.06545,-0.44606 -2.61168,-1.59739 -3.98437,-1.08174 -4.25694,1.5991 -6.71613,2.86761 -11.97116,5.60698 -1.02928,0.53655 5.71011,-0.16029 6.16586,-0.37861 4.67004,-2.2371 5.93812,-2.53416 9.78967,-4.14663 z"
     id="path5119" /><path
     style="fill:#ffffff;fill-rule:evenodd;stroke:none;stroke-width:1px;stroke-linecap:butt;stroke-linejoin:miter;stroke-opacity:1"
     d="m 202.65745,269.10818 c 0.58732,0.78779 -1.72089,1.33589 -2.23557,1.3161 l -2.8125,-0.10818 c -0.68871,-0.0265 4.11454,-2.46011 5.04807,-1.20792 z"
     id="path5121" /><path
     style="fill:#ffffff;fill-opacity:1;fill-rule:evenodd;stroke:none;stroke-width:1px;stroke-linecap:butt;stroke-linejoin:miter;stroke-opacity:1"
     d="m 173.46875,282.52163 c -2.01546,0.37975 -1.01067,2.38584 0.46875,2.48799 7.92038,0.54687 7.72178,-4.17368 16.76682,-3.78607 5.96197,0.25549 9.48081,-0.17895 12.3678,-1.98317 1.31578,-0.8223 2.97495,-3.72757 1.37019,-2.88461 -5.33073,2.80014 -10.76703,1.26474 -16.91107,2.52404 -3.38572,0.69394 -6.53295,2.73164 -9.79682,3.82655 -3.19419,1.07154 -2.88051,-0.44572 -4.26567,-0.18473 z"
     id="path5123" /><path
     style="fill:#ffffff;fill-rule:evenodd;stroke:none;stroke-width:1px;stroke-linecap:butt;stroke-linejoin:miter;stroke-opacity:1"
     d="m 207.97596,277.22115 3.53366,2.74039 c 0.36908,0.28623 -0.7226,0.94806 -3.96635,-1.11779 -3.03441,-1.93253 -0.49854,-2.34478 0.43269,-1.6226 z"
     id="path5125" /><path
     style="fill:#ffffff;fill-rule:evenodd;stroke:none;stroke-width:1px;stroke-linecap:butt;stroke-linejoin:miter;stroke-opacity:1"
     d="m 184.50241,290.8149 c 3.65206,-0.44898 -0.2602,2.43496 -1.11779,2.27164 -3.05182,-0.58121 -6.30237,-0.32353 -9.44712,-0.57693 -3.09598,-0.24947 1.14627,-1.49982 2.37981,-1.83894 0.77109,-0.21199 5.22103,0.50863 8.1851,0.14423 z"
     id="path5127" /><path
     style="fill:#ffffff;fill-rule:evenodd;stroke:none;stroke-width:1px;stroke-linecap:butt;stroke-linejoin:miter;stroke-opacity:1"
     d="m 167.30288,274.12019 c 1.92528,-0.21042 0.79665,1.87921 -0.74589,1.83714 -2.67103,-0.0729 -6.08062,1.59752 -5.62063,1.09409 2.156,-2.35961 4.37066,-2.7131 6.36652,-2.93123 z"
     id="path5131" /><path
     style="fill:#ffffff;fill-rule:evenodd;stroke:none;stroke-width:1px;stroke-linecap:butt;stroke-linejoin:miter;stroke-opacity:1"
     d="m 154.36949,260.66811 c 0.0803,0.8873 3.04308,0.19172 5.0007,0.0386 1.37615,-0.10764 1.37336,-1.82363 -0.29735,-1.55216 -1.43496,0.23317 -4.75725,0.91801 -4.70335,1.51356 z"
     id="path5133" /><path
     style="fill:#ffffff;fill-rule:evenodd;stroke:none;stroke-width:1px;stroke-linecap:butt;stroke-linejoin:miter;stroke-opacity:1"
     d="m 107.87981,295.28425 c -2.68882,0.67244 -5.4026,1.12936 -8.030307,2.43005 -1.055443,0.52243 -1.172502,2.47155 -0.33508,2.15108 8.699607,-3.32923 10.104497,-5.01607 8.365387,-4.58113 z"
     id="path5135" /><path
     style="fill:#ffffff;fill-rule:evenodd;stroke:none;stroke-width:1px;stroke-linecap:butt;stroke-linejoin:miter;stroke-opacity:1"
     d="m 146.40255,268.35096 c -1.66622,0.0565 -4.82777,0.0152 -5.20543,0.50481 -1.64016,2.12624 2.8051,1.11769 4.77273,1.02123 2.66813,-0.13079 0.86178,-1.54059 0.4327,-1.52604 z"
     id="path5137" /><path
     style="fill:#ffffff;fill-rule:evenodd;stroke:none;stroke-width:1px;stroke-linecap:butt;stroke-linejoin:miter;stroke-opacity:1"
     d="m 149.99519,268.27885 4.39904,-0.64904 c 1.22748,-0.1811 1.00685,1.57936 -0.55505,1.64478 -4.65487,0.19495 -5.49361,-0.75235 -3.84399,-0.99574 z"
     id="path5139" /><path
     style="fill:#ffffff;fill-rule:evenodd;stroke:none;stroke-width:1px;stroke-linecap:butt;stroke-linejoin:miter;stroke-opacity:1"
     d="m 148.40764,267.98015 c 2.58481,-0.6637 1.36259,-1.30318 0.71634,-1.3275 -0.54072,-0.0203 -0.76884,-0.20496 -0.97751,0.1208 -0.24816,0.3874 -0.20149,1.32553 0.26117,1.20673 z"
     id="path5141" /><path
     style="fill:#ffffff;fill-rule:evenodd;stroke:none;stroke-width:1px;stroke-linecap:butt;stroke-linejoin:miter;stroke-opacity:1"
     d="m 258.40574,225.84151 c -0.13298,-0.061 -0.6814,-1.06869 0.56463,-0.67033 1.61941,0.51774 5.52176,1.05107 8.50078,2.36247 1.51737,0.66797 0.80351,3.1691 -0.0721,2.59616 -2.98077,-1.95042 -6.0434,-2.93437 -8.99331,-4.2883 z"
     id="path5143" /><path
     id="path5035"
     d="m 207.12809,144.59009 c 0.28416,-1.78196 9.06716,-3.17142 20.73186,-5.99209 14.49256,-3.50449 32.36521,-7.8264 44.904,-10.7088 4.50198,-1.03492 7.19225,3.47799 10.77613,5.24201 l 21.04425,10.35815 c 0.55417,0.27277 1.56919,0.77048 -1.80288,2.88461 -1.36764,0.85745 -0.64549,3.75173 -1.13485,6.43277 -0.31756,1.73978 -3.78665,0.58152 -3.66339,1.23259 l 3.74275,19.76836 1.22596,7.71635 c 3.71071,-1.95615 7.07092,-1.63374 10.52885,-1.94712 2.50485,-0.22701 4.79479,2.08066 4.90385,3.53366 0.34246,4.56248 0.18388,7.54344 -1.83289,8.51992 -2.9646,1.4354 -2.90569,2.87249 -2.83349,6.51885 0,0 -0.64645,18.89989 0.64904,28.59616 0.66064,4.94468 1.77616,10.44552 0.84789,11.63894 l -0.99725,1.28209 c 0,0 0.46114,1.92138 0.7284,3.62388 0.29064,1.85144 -0.20247,5.62138 -0.20247,5.62138 1.33609,6.4355 5.20774,9.22159 9.33788,11.57858 8.05772,4.59839 18.90543,4.31077 25.70295,13.48921 3.6114,4.87634 5.05838,6.59832 6.31866,8.17957 0.66659,0.83635 1.62314,2.4523 3.13464,3.21103 14.69414,7.37612 13.14885,14.10436 20.15625,17.30769 2.73761,1.25146 5.24027,3.6304 6.49039,3.89423 1.25051,0.26391 5.22176,3.11039 5.38266,4.46391 L 339.22596,305.85096 291.84615,317.75 234.58654,304.26442 178.26442,317.60577 129.875,304.91346 85.163462,313.63942 79.679691,310.6157 c 0.34292,-3.26923 1.533197,-7.77094 4.437036,-10.26663 7.925301,-6.81136 11.629047,-6.42581 15.758273,-9.78657 6.40732,-5.21489 4.93716,-10.80034 7.26766,-16.21721 2.92636,-6.80187 7.8144,-7.09815 12.36673,-8.80171 9.12543,-3.41488 11.73993,-6.81057 18.80823,-12.44246 2.06157,-1.64262 5.36977,-3.32238 7.22029,-4.39391 0,0 -0.0905,-5.46704 0.71244,-7.93782 1.38129,-4.25088 4.17122,-8.76807 5.40866,-16.80288 l 0.43269,-12.98077 c 0.15334,-4.60007 -0.17759,-6.18252 1.44231,-8.79808 -1.99303,-2.04112 -3.47901,-2.98558 -3.46154,-4.01372 0.0623,-3.66888 0.71388,-7.06292 3.23132,-10.69482 3.58312,-5.16937 7.24148,-3.41528 11.09702,-5.29217 0.72614,-0.35349 1.2593,0.45569 2.21084,0.44507 1.52747,-0.0171 1.6243,-2.13256 5.21192,-2.23408 2.5033,-0.52097 6.00102,0.33704 9.7582,0.90975 2.12846,0.32444 4.56287,-3.49726 10.76481,-4.51702 2.01926,-0.33202 3.90412,0.34879 5.38904,0.11798 2.5,-0.38859 3.22457,-1.85698 6.27616,-1.92449 1.2424,-0.0275 3.14426,1.02851 3.43979,-0.66291 l 2.82337,-16.15897 c 0.1642,-0.93976 -1.38506,-1.38969 -1.37381,-1.93475 l 0.1566,-7.58811 c 0.025,-1.21243 -2.27818,-0.58863 -2.26545,-1.94349 z"
     style="fill:none;fill-rule:evenodd;stroke:#000000;stroke-width:0.5;stroke-linecap:butt;stroke-linejoin:miter;stroke-miterlimit:4;stroke-dasharray:none;stroke-opacity:1" /><path
     style="fill:#ffffff;fill-rule:evenodd;stroke:#000000;stroke-width:1px;stroke-linecap:butt;stroke-linejoin:miter;stroke-opacity:1"
     d="m 290.5,323 c 20,0 35,-12 55,-12 16.94509,0 30.30098,8.61408 46.1496,11.24561 l 4.56016,-11.42697 C 378.29062,309.31721 364.04473,299 345.5,299 c -20,0 -35,12 -55,12 -20,0 -35,-12 -55,-12 -20,0 -35,12 -55,12 -20,0 -35,-12 -55,-12 -18.54473,0 -32.790626,10.31721 -50.709762,11.81864 l 4.560157,11.42697 C 95.199018,319.61408 108.55491,311 125.5,311 c 20,0 35,12 55,12 20,0 35,-12 55,-12 20,0 35,12 55,12 z"
     id="path4816" /><path
     id="path4706"
     d="M 433.5,36.800003 C 437.86399,231.32116 396.22306,409.16181 235.5,525.3 74.776941,409.16181 33.136014,231.32116 37.5,36.800003 l 198,0 z"
     style="fill:none;fill-rule:evenodd;stroke:#000000;stroke-width:5;stroke-linecap:butt;stroke-linejoin:miter;stroke-miterlimit:4;stroke-dasharray:none;stroke-opacity:1" /></svg>