<?xml version="1.0" encoding="UTF-8" standalone="no"?>
<!-- Created with Inkscape (http://www.inkscape.org/) -->

<svg
   xmlns:dc="http://purl.org/dc/elements/1.1/"
   xmlns:cc="http://creativecommons.org/ns#"
   xmlns:rdf="http://www.w3.org/1999/02/22-rdf-syntax-ns#"
   xmlns:svg="http://www.w3.org/2000/svg"
   xmlns="http://www.w3.org/2000/svg"
   xmlns:sodipodi="http://sodipodi.sourceforge.net/DTD/sodipodi-0.dtd"
   xmlns:inkscape="http://www.inkscape.org/namespaces/inkscape"
   id="svg2985"
   version="1.1"
   inkscape:version="0.48.1 "
   width="3000"
   height="1800"
   sodipodi:docname="Flag of Somerset.svg">
  <metadata
     id="metadata2991">
    <rdf:RDF>
      <cc:Work
         rdf:about="">
        <dc:format>image/svg+xml</dc:format>
        <dc:type
           rdf:resource="http://purl.org/dc/dcmitype/StillImage" />
        <dc:title />
      </cc:Work>
    </rdf:RDF>
  </metadata>
  <defs
     id="defs2989" />
  <sodipodi:namedview
     pagecolor="#ffffff"
     bordercolor="#666666"
     borderopacity="1"
     objecttolerance="10"
     gridtolerance="10"
     guidetolerance="10"
     inkscape:pageopacity="0"
     inkscape:pageshadow="2"
     inkscape:window-width="1920"
     inkscape:window-height="1005"
     id="namedview2987"
     showgrid="false"
     inkscape:zoom="0.35355339"
     inkscape:cx="-230.39612"
     inkscape:cy="960.44596"
     inkscape:window-x="-9"
     inkscape:window-y="-9"
     inkscape:window-maximized="1"
     inkscape:current-layer="svg2985"
     showguides="true"
     inkscape:guide-bbox="true">
    <inkscape:grid
       type="xygrid"
       id="grid3864"
       empspacing="5"
       visible="true"
       enabled="true"
       snapvisiblegridlinesonly="true" />
  </sodipodi:namedview>
  <rect
     style="fill:#f9d616;fill-opacity:1;fill-rule:nonzero;stroke:none"
     id="rect3862"
     width="3000.0005"
     height="1800.0002"
     x="0"
     y="0" />
  <g
     id="g3153"
     transform="translate(25.76722,2.927815)">
    <g
       transform="matrix(1.02,0,0,1.02,-22.518083,-0.66467)"
       id="g10834" />
    <path
       sodipodi:nodetypes="ccccc"
       inkscape:connector-curvature="0"
       id="path3132"
       d="m 1949.4934,1091.1255 22.6274,-12.3744 -27.7539,74.4229 -15.5563,-9.3691 z"
       style="fill:#ce1126;fill-opacity:1;stroke:none" />
    <path
       sodipodi:nodetypes="cccccc"
       inkscape:connector-curvature="0"
       id="path3821"
       d="m 1795.2377,214.96903 c -8.3289,-35.50735 14.5989,-67.08313 9.5578,-92.06979 -228.1677,189.37255 -345.0684,450.26287 -345.0684,450.26287 68.4074,36.60833 51.6729,120.78379 -17.1499,130.42775 31.8434,22.66996 124.3631,19.53501 182.7088,-7.31257 z"
       style="fill:#ce1126;fill-opacity:1;stroke:#000000;stroke-width:8.15999985;stroke-linecap:butt;stroke-linejoin:miter;stroke-miterlimit:4;stroke-opacity:1;stroke-dasharray:none" />
    <path
       inkscape:connector-curvature="0"
       id="path3035"
       d="m 1904.4084,155.15728 c 0.6636,-4.30431 0.8253,-5.9027 1.2982,-8.01491"
       style="fill:none;stroke:#0000ff;stroke-width:8.15999985;stroke-linecap:butt;stroke-linejoin:miter;stroke-miterlimit:4;stroke-opacity:1;stroke-dasharray:none" />
    <path
       sodipodi:nodetypes="cccsc"
       inkscape:connector-curvature="0"
       id="path3833-1-4"
       d="m 869.3026,865.16562 c 11.03648,-19.20508 41.7621,-36.53774 63.06996,-29.02529 6.58953,3.79061 15.71291,14.39692 16.75032,16.7902 0.96807,2.1937 -33.09555,22.73885 -34.82017,21.73759 -6.22664,-3.61499 -18.4535,-11.11053 -45.00011,-9.5025 z"
       style="fill:#0072c6;fill-opacity:1;stroke:#000000;stroke-width:8.15999985;stroke-linecap:butt;stroke-linejoin:miter;stroke-miterlimit:4;stroke-opacity:1;stroke-dasharray:none" />
    <path
       sodipodi:nodetypes="cccsc"
       inkscape:connector-curvature="0"
       id="path3833-1-7"
       d="m 862.08424,975.1366 c -6.14195,-18.25244 0.23656,-41.36221 30.82491,-60.45841 7.30296,-2.11123 19.75868,-1.79817 22.20145,-0.88335 41.63123,6.25794 -7.48461,32.12706 -10.89646,32.72078 -6.12648,1.06613 -30.37345,5.24209 -42.1299,28.62098 z"
       style="fill:#0072c6;fill-opacity:1;stroke:#000000;stroke-width:8.15999985;stroke-linecap:butt;stroke-linejoin:miter;stroke-miterlimit:4;stroke-opacity:1;stroke-dasharray:none" />
    <path
       sodipodi:nodetypes="cccsc"
       inkscape:connector-curvature="0"
       id="path3833-1"
       d="m 907.46078,1043.902 c -11.43772,-17.2643 -10.02702,-47.59424 11.92464,-63.94698 6.85642,-3.28328 19.41028,-5.72517 21.97022,-5.22445 2.35618,0.44482 4.98027,33.40673 3.38802,34.60733 -4.96521,3.7439 -27.85493,11.6242 -37.28288,34.5641 z"
       style="fill:#0072c6;fill-opacity:1;stroke:#000000;stroke-width:8.15999985;stroke-linecap:butt;stroke-linejoin:miter;stroke-miterlimit:4;stroke-opacity:1;stroke-dasharray:none" />
    <path
       sodipodi:nodetypes="cccsc"
       inkscape:connector-curvature="0"
       id="path3833-1-0"
       d="m 1097.1781,1034.0231 c 27.8764,-17.2642 32.7124,-55.1559 7.473,-66.2483 -6.8565,-3.28328 -19.4103,-5.72517 -21.9702,-5.22445 -2.3562,0.44482 -4.9803,33.40671 -3.388,34.60735 4.9651,3.7439 17.9917,10.9667 17.8852,36.8654 z"
       style="fill:#0072c6;fill-opacity:1;stroke:#000000;stroke-width:8.15999985;stroke-linecap:butt;stroke-linejoin:miter;stroke-miterlimit:4;stroke-opacity:1;stroke-dasharray:none" />
    <path
       inkscape:transform-center-y="9.8309628"
       inkscape:transform-center-x="11.862484"
       sodipodi:nodetypes="cccsc"
       inkscape:connector-curvature="0"
       id="path3833-1-8-4"
       d="m 1055.9783,1173.7621 c 9.8563,-14.2711 40.9192,-17.2523 63.691,-2.1212 5.2665,5.4823 14.1951,11.5963 14.5218,14.1843 9.5346,20.4316 -31.9734,20.9638 -37.7204,16.6925 -6.0165,-4.4715 -16.2501,-29.0585 -40.4924,-28.7556 z"
       style="fill:#0072c6;fill-opacity:1;stroke:#000000;stroke-width:8.15999985;stroke-linecap:butt;stroke-linejoin:miter;stroke-miterlimit:4;stroke-opacity:1;stroke-dasharray:none" />
    <path
       sodipodi:nodetypes="ccscssccc"
       inkscape:connector-curvature="0"
       id="path10780"
       d="m 1081.8262,1206.8599 c -6.4162,-2.4897 -11.7934,-2.7548 -16.4385,-7.5618 -5.2234,-0.6774 -14.3469,1.9086 -24.4658,8.1792 -10.119,6.2706 -21.2335,16.2258 -21.2335,21.0815 6.0554,-2.6361 7.7104,-2.1877 12.1646,-2.3015 4.1515,-0.1059 7.263,-0.3765 10.1919,0.6576 9.7706,3.4497 20.3839,15.1236 20.3839,15.1236 0,0 25.7886,-5.7338 28.9319,-8.8769 10.3772,-10.3773 -5.3162,-28.4109 -9.5345,-26.3017 z"
       style="fill:#0072c6;fill-opacity:1;stroke:#000000;stroke-width:8.15999985;stroke-linecap:butt;stroke-linejoin:miter;stroke-miterlimit:4;stroke-opacity:1;stroke-dasharray:none" />
    <path
       sodipodi:nodetypes="cccsc"
       inkscape:connector-curvature="0"
       id="path3833"
       d="m 1038.0996,1329.163 c -6.2264,-35.5661 17.9216,-71.3435 55.5625,-71.3435 7.514,1.153 12.9625,6.6914 14.7947,8.548 1.6954,1.6955 -4.5835,37.7147 -6.5754,37.8088 -6.2116,0.2936 -43.3402,-5.1553 -63.7818,24.9867 z"
       style="fill:#0072c6;fill-opacity:1;stroke:#000000;stroke-width:8.15999985;stroke-linecap:butt;stroke-linejoin:miter;stroke-miterlimit:4;stroke-opacity:1;stroke-dasharray:none" />
    <path
       sodipodi:nodetypes="cscssssc"
       inkscape:connector-curvature="0"
       id="path3831"
       d="m 1199.5266,1343.9577 c 6.439,8.4629 11.3764,13.9638 15.4523,24.0003 1.0218,2.5163 11.7687,16.7673 2.6301,38.1375 6.2923,-1.9726 14.2081,-10.3961 20.3838,-19.7263 4.8827,-7.3766 12.9662,-27.0664 10.155,-35.1223 -2.2759,-6.5223 -1.8692,-7.0839 -3.5796,-11.8921 -1.1405,-3.2064 -21.5055,-23.2072 -23.0139,-21.6988 -6.4148,6.4147 -23.0351,16.2277 -22.0277,26.3017 z"
       style="fill:#0072c6;fill-opacity:1;stroke:#000000;stroke-width:8.15999985;stroke-linecap:butt;stroke-linejoin:miter;stroke-miterlimit:4;stroke-opacity:1;stroke-dasharray:none" />
    <path
       sodipodi:nodetypes="csscssc"
       inkscape:connector-curvature="0"
       id="path3829"
       d="m 1372.7893,1498.1516 c -11.2901,-5.6541 -33.1807,-6.0544 -40.4389,-3.2877 -10.8952,4.1532 -20.2637,12.2652 -24.0003,17.4249 -2.8012,3.8678 -6.0204,14.7948 -4.6029,26.3017 12.825,-11.5079 26.9796,-8.1197 28.6032,-8.2193 11.7474,-0.7203 33.7416,5.0535 39.4525,-0.6574 8.0514,-8.0514 9.4072,-28.7553 0.9864,-31.5622 z"
       style="fill:#0072c6;fill-opacity:1;stroke:#000000;stroke-width:8.15999985;stroke-linecap:butt;stroke-linejoin:miter;stroke-miterlimit:4;stroke-opacity:1;stroke-dasharray:none" />
    <path
       sodipodi:nodetypes="cscssc"
       inkscape:connector-curvature="0"
       id="path3827"
       d="m 1359.3096,1558.3169 c -12.0209,-7.5967 -26.7391,-6.8875 -39.564,0.9465 -19.6161,11.9822 -26.1537,38.707 -22.9026,50.6706 7.529,-11.0271 20.8722,-17.7331 29.5894,-17.4249 13.7807,0.4874 13.2199,-1.2009 22.0401,-3.4818 11.235,-2.9054 22.9513,-20.9356 10.8371,-30.7104 z"
       style="fill:#0072c6;fill-opacity:1;stroke:#000000;stroke-width:8.15999985;stroke-linecap:butt;stroke-linejoin:miter;stroke-miterlimit:4;stroke-opacity:1;stroke-dasharray:none" />
    <path
       sodipodi:nodetypes="cssssc"
       inkscape:connector-curvature="0"
       id="path3825"
       d="m 1366.2139,1674.3733 c -2.1637,-12.7879 -2.0066,-34.6345 6.9041,-48.0007 5.3496,-8.0244 28.0203,-36.5535 38.4664,-29.5895 5.783,3.8553 12.8969,14.1079 14.4659,20.3839 6.114,24.4561 -15.6778,22.3165 -34.521,32.5484 -8.5572,4.6466 -15.4986,13.3073 -25.3154,24.6579 z"
       style="fill:#0072c6;fill-opacity:1;stroke:#000000;stroke-width:8.15999985;stroke-linecap:butt;stroke-linejoin:miter;stroke-miterlimit:4;stroke-opacity:1;stroke-dasharray:none" />
    <path
       sodipodi:nodetypes="cscssc"
       inkscape:connector-curvature="0"
       id="path3823"
       d="m 1595.0551,1537.8665 c 26.5646,-1.2044 47.3426,22.7001 53.9346,34.8716 1.4275,2.6356 3.7196,13.4837 3.7196,13.4837 0,0 -18.1637,-7.4289 -21.3879,-8.3693 -11.1602,-3.2551 -46.4844,2.3356 -52.0747,-3.2547 -18.1382,-18.1381 3.2251,-28.8668 15.8084,-36.7313 z"
       style="fill:#0072c6;fill-opacity:1;stroke:#000000;stroke-width:8.15999985;stroke-linecap:butt;stroke-linejoin:miter;stroke-miterlimit:4;stroke-opacity:1;stroke-dasharray:none" />
    <path
       sodipodi:nodetypes="cccc"
       inkscape:connector-curvature="0"
       id="path3832-9"
       d="m 1608.0739,936.29333 c 0,0 29.757,-8.3117 46.4954,2.78976 -12.0889,4.69587 -30.687,26.03734 -30.687,26.03734 z"
       style="fill:#ce1126;fill-opacity:1;stroke:#000000;stroke-width:8.15999985;stroke-linecap:butt;stroke-linejoin:miter;stroke-miterlimit:4;stroke-opacity:1;stroke-dasharray:none" />
    <path
       sodipodi:nodetypes="cccc"
       inkscape:connector-curvature="0"
       id="path3832"
       d="m 1653.1743,1034.3218 c 0,0 31.6169,-4.5921 44.6356,9.2991 -12.0888,4.6959 -26.9673,19.528 -26.9673,19.528 z"
       style="fill:#ce1126;fill-opacity:1;stroke:#000000;stroke-width:8.15999985;stroke-linecap:butt;stroke-linejoin:miter;stroke-miterlimit:4;stroke-opacity:1;stroke-dasharray:none" />
    <path
       sodipodi:nodetypes="cccc"
       inkscape:connector-curvature="0"
       id="path3832-3-6"
       d="m 1452.1196,370.15186 c 0,0 34.2413,28.51776 42.3481,52.50752 -15.084,-10.16883 -29.2382,-11.9685 -42.4624,-16.55789 z"
       style="fill:#ce1126;fill-opacity:1;stroke:#000000;stroke-width:8.15999985;stroke-linecap:butt;stroke-linejoin:miter;stroke-miterlimit:4;stroke-opacity:1;stroke-dasharray:none" />
    <path
       sodipodi:nodetypes="cccc"
       inkscape:connector-curvature="0"
       id="path3832-3-1"
       d="m 1438.6482,489.18999 c 0,0 29.8759,23.13012 26.4438,41.21959 -11.355,-6.89246 -33.1329,-8.4474 -33.1329,-8.4474 z"
       style="fill:#ce1126;fill-opacity:1;stroke:#000000;stroke-width:8.15999985;stroke-linecap:butt;stroke-linejoin:miter;stroke-miterlimit:4;stroke-opacity:1;stroke-dasharray:none" />
    <path
       sodipodi:nodetypes="cccc"
       inkscape:connector-curvature="0"
       id="path3832-3"
       d="m 1414.7055,601.86446 c 0,0 29.5917,17.35888 29.3294,35.76919 -12.3733,-4.83183 -34.0932,-2.60929 -34.0932,-2.60929 z"
       style="fill:#ce1126;fill-opacity:1;stroke:#000000;stroke-width:8.15999985;stroke-linecap:butt;stroke-linejoin:miter;stroke-miterlimit:4;stroke-opacity:1;stroke-dasharray:none" />
    <path
       inkscape:connector-curvature="0"
       d="m 2025.602,858.56946 c -0.5062,9.29482 -0.1161,17.32186 -1.3948,26.15364 m 27.1671,-1.7035 c 0,0 9.2056,1.31509 43.3979,30.24701 0,0 -11.8358,-89.42593 -74.96,-192.00273 -5.2603,101.26171 -47.3431,168.33115 -47.3431,168.33115 29.6537,0.54473 39.0681,-2.26257 51.833,-5.72529 -4.8362,66.30785 -15.7167,102.3937 -36.3613,144.98896 9.9575,20.8609 9.9186,42.8843 14.0641,64.2102 44.4519,-59.5049 54.1484,-176.29648 43.9495,-239.67864"
       style="fill:#ce1126;fill-opacity:1;stroke:#000000;stroke-width:8.15999985;stroke-linecap:round;stroke-linejoin:miter;stroke-miterlimit:4;stroke-opacity:1;stroke-dasharray:none"
       id="path3838" />
    <path
       sodipodi:nodetypes="cccsc"
       inkscape:connector-curvature="0"
       id="path3833-1-8"
       d="m 889.83238,332.51892 c 23.26027,-10.33268 42.73036,-3.78237 63.53491,14.00695 3.23617,6.87878 7.23574,17.80523 6.71747,20.36168 2.49797,22.40814 -30.55117,9.03568 -34.62979,3.15051 -4.26995,-6.16126 -15.04932,-30.89297 -35.62259,-37.51914 z"
       style="fill:#0072c6;fill-opacity:1;stroke:#000000;stroke-width:8.15999985;stroke-linecap:butt;stroke-linejoin:miter;stroke-miterlimit:4;stroke-opacity:1;stroke-dasharray:none" />
    <path
       sodipodi:nodetypes="sccssssscscsccscssscscsssssssssccsscccccccccccccccccccccsscsssscssccssccccccccscscccssccscsssccsscsscccsssccsssscccscssssssscssss"
       inkscape:connector-curvature="0"
       id="path3820"
       d="m 1959.3463,1072.6805 c -32.6659,39.0122 -75.9995,54.634 -108.9115,44.2065 -32.9121,-10.4275 -57.4951,-45.277 -45.6856,-89.0745 26.1682,-97.04987 174.5703,-47.0395 152.5048,66.9533 -25.6909,132.7212 -171.3346,108.5675 -265.9534,-2.7897 -14.8202,-17.442 -30.1315,-36.2745 -42.1411,-57.264 0,0 0.4089,-47.41543 -54.4528,-109.7283 -7.7286,-13.38763 -12.7772,-13.19585 -6.6259,-25.49842 85.8166,-120.65016 174.1284,-250.16315 217.5982,-377.54224 36.1887,-114.1394 27.9015,-251.75805 100.43,-368.24316 l -0.4024,-1.44313 c 1.8678,-7.2267 2.1871,-13.10743 7.816,-32.48578 -194.2614,141.74336 -369.9247,342.07086 -422.3754,448.9427 77.3113,29.29052 60.2281,161.18519 -49.4711,134.38783 -8.9614,-3.0236 -25.6122,-14.29059 -25.6905,-14.35591 -10.3191,-58.22281 -3.7436,-72.68877 -2.4285,-102.27824 0,0 21.0413,-78.24768 26.3017,-105.86451 0,0 24.099,-97.05795 -3.9453,-172.27641 -12.2807,-32.93848 27.6168,-48.65822 46.4783,-49.10265 -10.4315,-20.187 -10.867,-60.46428 7.6514,-78.05224 3.4811,-3.30625 2.4216,-8.81228 2.4216,-8.81228 0,0 -13.1367,22.89515 -73.6271,45.50419 -24.5566,9.17834 -54.0651,32.23627 -59.3214,45.04199 l -1.82,-1.80132 c -232.4794,-121.10284 -30.2213,73.9259 -62.3037,170.17298 -8.0894,61.23772 -46.768,130.69215 -87.6437,171.56784 -10.121,10.12089 -10.1833,31.6269 -14.8785,43.70563 -10.0532,25.86159 -8.6699,58.55652 -16.7383,82.76172 -6.6217,19.86478 -13.0188,38.10627 -13.0188,58.58414 11.4063,20.52819 12.8864,24.04426 6.2725,26.97532 -35.0614,15.53795 -79.8272,48.00742 -89.8609,51.05168 -8.9133,2.7043 -23.9556,10.33391 -32.2197,14.46594 -9.1337,5.47537 -25.6441,9.86316 -25.6441,9.86316 0,0 -21.71588,-14.91562 -36.82249,-33.53472 -2.61805,-3.22678 -11.64934,-6.38898 -13.80842,-8.54807 -5.15534,-5.15534 -3.011,-10.38233 -8.54806,-13.15087 -8.69849,-1.33091 -20.38385,-2.63017 -20.38385,-2.63017 -0.96185,-2.728 -8.54808,-1.47047 -16.4386,2.63017 12.07933,5.52729 18.81826,12.14885 21.04139,21.04139 -13.96871,2.67692 -28.49301,7.45164 -36.82242,15.78105 -1.49438,7.83863 6.80236,14.76852 10.52068,19.7263 -10.39487,5.44678 -17.22424,7.74544 -19.7263,17.75368 -0.72095,5.33447 17.13299,9.05775 24.32911,15.1235 -10.3065,9.30508 -20.38385,21.04991 -20.38385,30.90454 3.21141,4.20465 6.22809,2.63019 11.17824,2.63019 -10.15024,17.50191 -3.94526,28.93191 -3.94526,28.93191 0,0 14.71904,-9.7242 31.5621,-9.20561 -5.55233,9.11883 -0.65755,33.53468 -0.65755,33.53468 -0.42535,0.2127 23.37738,2.5795 38.79506,-1.315 11.03075,-24.74478 31.24412,-56.09065 53.91862,-61.80914 12.0434,-1.11528 19.8783,7.61302 23.6716,17.09613 1.8838,8.5299 -1.9727,19.27124 -1.9727,25.6442 4.4363,8.5392 14.7663,6.4719 21.0414,11.17821 12.1167,-3.34763 13.8084,-29.58943 13.8084,-29.58943 0,0 6.9614,-0.46457 26.3018,5.91789 5.5762,-3.89868 7.8905,-12.89248 7.8905,-17.75367 -0.7599,-9.65972 -34.0241,-21.76178 -32.8772,-34.19227 0.8812,-9.55111 33.4934,-18.17825 49.9733,-23.67157 24.9865,-8.32881 42.1281,-13.80841 75.5062,-13.36127 67.0194,65.00908 70.5872,52.98722 147.0203,105.88112 -5.7128,9.9959 -11.3275,15.977 -18.5982,23.2477 -17.7957,17.7957 -86.8061,49.5654 -66.9533,89.271 8.3064,16.6128 39.8447,75.6052 31.6168,92.0608 -6.7002,13.4006 -55.0328,28.9113 -66.0233,34.4066 -29.2321,2.1227 -34.6697,0.6679 -62.3927,0.6872 -4.4504,0 -39.7761,-34.8766 -51.4052,-59.7676 -2.6083,-5.5829 -15.4689,0.7219 -15.4689,0.7219 0,0 4.6592,18.195 4.6592,21.7069 -0.4932,0.1475 -11.6512,0.4248 -18.84,0.075 -7.1889,-0.3492 -10.4085,-1.3249 -21.3267,-2.3679 -13.0942,-1.251 -13.1668,8.5391 -13.1668,8.5391 9.2261,6.1397 10.9397,12.2795 16.4096,18.4192 L 1063.4441,1240 c 0,0 4.8461,2.5558 5.4199,9.1299 -8.3003,3.5129 -19.5751,20.3042 -17.2831,25.6055 12.4792,1.0005 19.5281,-5.4195 39.0562,-3.7196 -3.7196,9.9014 -9.6596,27.2571 -4.7061,32.9786 2.4739,5.9463 8.2727,9.9338 20.6533,10.7345 8.0526,-5.0753 16.9649,-14.1048 22.2304,-15.9841 11.7867,-4.207 51.0272,-5.4716 57.1611,-2.96 2.6021,1.2157 11.5287,31.0644 2.475,50.9536 -4.3825,9.6277 12.2013,12.2007 21.9186,17.9723 0,0 9.2524,-17.1457 9.4118,-29.5877 7.2361,1.5996 26.8546,14.7753 26.8546,14.7753 0,0 9.5157,-10.8227 7.0835,-19.736 -0.9435,-3.4578 -22.7986,-27.2958 -23.193,-36.8987 -0.5578,-13.5797 30.1817,-13.9748 83.2319,-19.9561 19.9037,-2.2441 70.4316,12.0724 106.9394,22.3178 32.6112,9.1519 50.6137,5.5794 50.215,5.5794 0,0 -24.9581,-9.7994 -52.1378,-51.1533 0.682,-6.0417 6.4996,-14.8702 13.0817,-26.0291 37.5428,0 88.2054,78.9065 110.6588,101.36 5.8786,5.8785 12.4857,35.3364 13.0188,47.4253 0.2085,4.7269 -5.3233,7.8567 -7.4393,12.0887 -11.2449,22.49 -26.951,46.7474 -41.2076,69.1983 -28.0568,41.7493 -40.8321,57.9759 -55.2497,54.4794 -7.4411,-1.8046 -19.4949,-0.015 -38.0527,-6.4262 -20.5231,-7.0893 -41.7365,-17.9694 -48.6816,-14.9617 -21.9429,9.5025 7.0882,14.6506 0,28.8271 -3.2843,6.5685 -33.24,21.7768 -33.4768,39.0561 6.9043,2.3015 12.3764,2.5014 19.0148,12.2204 -16.2249,26.8357 -16.2249,26.8357 -16.2249,26.8357 4.3131,10.3262 13.4579,11.6014 16.9589,8.3196 16.0937,-15.0864 37.2962,-18.7118 41.6252,-18.5486 5.9904,0.2258 -14.2272,12.2886 -17.9834,16.4433 -3.7562,4.1546 1.2718,5.9278 4.9646,9.5941 8.4998,8.4383 25.0076,-9.3989 33.4767,-0.9299 7.2157,7.2157 -11.0631,28.7859 -6.9743,36.9637 14.9915,4.4106 31.5044,1.8723 34.1874,-3.8274 15.0199,-31.9073 44.2945,-67.4477 60.1981,-77.7718 10.2897,-0.061 48.0259,8.8038 71.2787,27.4186 4.6945,3.7583 16.2031,-6.7021 29.095,-15.1139 -4.4105,-11.3952 -13.6359,-8.4996 -13.2543,-20.7294 -1,-1.5307 12.596,-11.6738 18.3347,-16.4796 1.169,-0.9791 3.3201,-4.2375 -2.2566,-5.3871 -22.8235,0.7108 -58.0572,-4.8162 -63.8126,-7.2901 6.3972,-14.6003 13.4161,-46.2646 37.7974,-74.9373 20.0126,-23.535 46.5323,-62.0989 79.0422,-86.4813 18.0674,-13.5506 33.1479,-38.7275 49.285,-54.8646 2.0678,-2.0677 9.5071,-6.7172 7.4393,-4.6494 -8.5472,8.547 -64.0026,15.0395 -73.4627,5.5794 -6.0063,-6.0063 -17.8046,-32.0262 -20.458,-39.9861 -1.0959,-3.2876 -8.115,-9.299 -4.6494,-9.299 14.9318,0 32.9592,-69.74 38.5911,-82.2968 72.3816,13.608 139.6322,90.3875 241.3109,52.5398 121.7703,-45.3265 126.4676,-144.0209 91.6636,-221.2291 -41.1906,-91.37587 -181.7268,-132.87614 -233.0096,12 -14.5631,41.1416 5.9665,96.9194 47.8746,122.5301 39.5131,24.1472 102.1242,28.6839 135.3172,0.6825"
       style="fill:#ce1126;fill-opacity:1;stroke:#000000;stroke-width:8.15999985;stroke-linecap:butt;stroke-linejoin:miter;stroke-miterlimit:4;stroke-opacity:1;stroke-dasharray:none" />
    <path
       inkscape:connector-curvature="0"
       d="m 1905.9194,151.31533 c -192.7424,138.81879 -349.0312,411.47438 -349.0312,411.47438 65.8956,48.83508 45.9359,138.31014 17.1169,180.82687 -32.0006,50.85004 -91.6326,55.67147 -135.4689,46.0275 -5.7365,-2.26795 -12.0217,-6.01902 -16.32,-7.29937 125.4461,82.78744 143.2464,184.84312 143.2464,184.84312 44.932,-78.90523 102.3363,-101.27995 179.4881,-73.66312 -26.3018,-87.23412 22.8315,-144.19105 103.0519,-163.04063 -48.9774,-62.64554 -14.5994,-145.26039 74.7468,-189.40125 -70.8824,-71.79796 -41.0068,-191.11936 43.1588,-251.175 -41.6981,-24.41264 -68.9524,-83.608 -59.9888,-138.5925 z m -483.5383,631.03681 c -26.8628,-7.9467 -32.5824,-7.91546 -32.5824,-7.91546 22.0585,3.844 28.6206,5.34858 32.5824,7.91546 z"
       style="fill:#ce1126;fill-opacity:1;stroke:#000000;stroke-width:8.15999985;stroke-linecap:butt;stroke-linejoin:miter;stroke-miterlimit:4;stroke-opacity:1;stroke-dasharray:none"
       id="path3037" />
    <path
       sodipodi:nodetypes="ccc"
       inkscape:connector-curvature="0"
       id="path3010"
       d="m 1433.3826,292.36409 c 0,0 3.1233,1.75183 14.2822,12.91071 -21.1252,-0.54473 -32.1664,-0.0564 -32.1664,-0.0564"
       style="fill:none;stroke:#000000;stroke-width:8.15999985;stroke-linecap:butt;stroke-linejoin:miter;stroke-miterlimit:4;stroke-opacity:1;stroke-dasharray:none" />
    <path
       sodipodi:nodetypes="cccsc"
       inkscape:connector-curvature="0"
       id="path3833-1-8-2"
       d="m 894.43676,583.91401 c 18.03941,17.95505 38.56501,18.78642 64.34908,9.59558 5.47844,-5.27039 13.11486,-14.04928 13.5433,-16.6223 10.33232,-20.04018 -25.31298,-19.34609 -31.22367,-15.30456 -6.188,4.23111 -25.08555,23.4856 -46.66871,22.33128 z"
       style="fill:#0072c6;fill-opacity:1;stroke:#000000;stroke-width:8.15999985;stroke-linecap:butt;stroke-linejoin:miter;stroke-miterlimit:4;stroke-opacity:1;stroke-dasharray:none" />
    <path
       sodipodi:nodetypes="cccsc"
       inkscape:connector-curvature="0"
       id="path3833-1-9"
       d="m 868.89004,520.43014 c -5.13398,-20.0629 6.15853,-48.24758 32.26289,-56.48473 7.55438,-0.84962 20.2139,0.96648 22.46745,2.28009 2.07943,1.19389 -6.26635,33.18952 -8.16457,33.80071 -5.91932,1.90574 -30.12743,1.83225 -46.56577,20.40393 z"
       style="fill:#0072c6;fill-opacity:1;stroke:#000000;stroke-width:8.15999985;stroke-linecap:butt;stroke-linejoin:miter;stroke-miterlimit:4;stroke-opacity:1;stroke-dasharray:none" />
    <path
       sodipodi:nodetypes="cccsc"
       inkscape:connector-curvature="0"
       id="path3833-1-48"
       d="m 853.69336,422.29095 c 2.29434,-20.58189 27.75762,-39.99134 55.08803,-38.46264 7.36653,1.87735 15.93517,6.73876 17.57839,8.76455 1.52271,1.85223 -17.60072,28.82753 -19.59242,28.72778 -6.21075,-0.31093 -31.12934,-10.5864 -53.074,0.97031 z"
       style="fill:#0072c6;fill-opacity:1;stroke:#000000;stroke-width:8.15999985;stroke-linecap:butt;stroke-linejoin:miter;stroke-miterlimit:4;stroke-opacity:1;stroke-dasharray:none" />
    <path
       sodipodi:nodetypes="ssscss"
       inkscape:connector-curvature="0"
       id="path3353"
       d="m 1297.7173,419.42089 c -0.6794,4.43847 -6.6927,17.65135 -1.6273,20.69044 11.6229,6.97334 34.5442,10.27975 40.3004,3.30284 8.6069,-10.43232 7.5449,-29.89499 5.7299,-43.7538 -1.5486,-3.09745 -30.7246,-7.9613 -33.7089,-7.20679 -6.8746,1.73809 -7.1747,3.9774 -10.6941,26.96731 z"
       style="fill:#ce1126;fill-opacity:1;stroke:#000000;stroke-width:8.15999985;stroke-linecap:butt;stroke-linejoin:miter;stroke-miterlimit:4;stroke-opacity:1;stroke-dasharray:none" />
    <path
       sodipodi:nodetypes="cssssc"
       inkscape:connector-curvature="0"
       id="path3787"
       d="m 1292.3704,573.08801 c 21.0373,-10.64285 52.229,-109.02974 41.8457,-117.16826 -9.9047,-7.76351 -25.4453,-9.55318 -38.1261,-10.22899 -13.9043,-0.741 -24.2139,58.88321 -55.1468,91.05043 -7.7793,8.08955 -1.0409,19.64158 4.9318,22.39822 26.6608,12.30486 25.9792,14.0166 46.4954,13.9486 z"
       style="fill:#ce1126;fill-opacity:1;stroke:#000000;stroke-width:8.15999985;stroke-linecap:butt;stroke-linejoin:miter;stroke-miterlimit:4;stroke-opacity:1;stroke-dasharray:none" />
    <path
       sodipodi:nodetypes="cc"
       inkscape:connector-curvature="0"
       id="path3790"
       d="m 1659.6837,1082.677 c -1.3996,-16.1581 -5.8982,-33.0511 -9.2991,-48.3551"
       style="fill:none;stroke:#000000;stroke-width:8.15999985;stroke-linecap:butt;stroke-linejoin:miter;stroke-miterlimit:4;stroke-opacity:1;stroke-dasharray:none" />
    <path
       sodipodi:nodetypes="cc"
       inkscape:connector-curvature="0"
       id="path3792"
       d="m 1659.6837,1129.1724 c 0.3678,19.4002 -0.5971,33.4081 -5.5795,48.3551"
       style="fill:none;stroke:#000000;stroke-width:8.15999985;stroke-linecap:butt;stroke-linejoin:miter;stroke-miterlimit:4;stroke-opacity:1;stroke-dasharray:none" />
    <path
       sodipodi:nodetypes="cscssssccccsssssscccsssscscccssssscc"
       inkscape:connector-curvature="0"
       id="path3016"
       d="m 1176.1321,720.01332 c -10.6674,7.63969 -27.5729,1.91918 -36.2665,9.29907 -11.9943,10.18178 -5.569,29.75703 -4.6495,48.35517 -17.3267,-12.0888 -61.1581,-90.02573 -76.2524,-127.39726 -6.4865,-16.05993 -24.9745,-49.13599 -35.8013,-68.11568 -10.1538,-17.79951 -20.6539,-21.53472 -20.6458,-27.59577 0.012,-9.01844 -1.4874,-7.76845 -7.11625,0.0729 -10.76213,14.99231 -17.47762,37.53381 -23.6154,42.16888 -7.39855,-0.0127 -9.30335,0.55344 -16.07786,0.65532 0.19981,-5.47757 2.73671,-22.11327 0.96688,-27.70239 -4.68692,0 -25.07214,3.50939 -30.68692,2.63701 -0.57898,-4.64895 1.5066,-13.42898 1.47182,-17.21573 -0.009,-0.94894 24.80065,-18.15556 30.60996,-30.90695 6.39325,-14.03316 4.17649,-26.69869 12.55374,-36.49885 3.48716,-4.07945 -8.35134,-5.59967 -10.58442,-5.14513 -9.2694,1.88673 -27.62776,13.88685 -28.93662,15.83907 -2.45825,3.66654 -4.20566,4.63265 -9.28398,6.28076 -2.2116,0.71774 -7.69256,-1.67767 -11.8714,-3.72352 -1.97062,-6.38769 7.48581,-21.84739 11.25371,-27.74785 -6.46108,-1.48339 -16.28593,-2.24166 -31.71168,-0.61432 -0.14259,-6.50936 2.09118,-18.94284 5.99558,-20.25298 31.79051,-10.66754 61.15315,-9.88985 77.92854,-7.8767 1.85931,0.22312 -9.26775,-2.65398 -13.94861,-3.95211 -33.57759,-9.31198 -48.26124,-5.95046 -63.23366,-12.55375 -10.55478,-4.65495 7.44155,-17.34105 23.24766,-25.10747 -4.13849,-9.39125 -18.4289,-18.33627 -14.87851,-19.52806 8.12076,-2.72598 15.38826,-7.47325 23.61741,-15.09355 9.93741,1.35508 22.39065,5.24432 27.75996,7.18934 6.09718,-13.88871 -7.82501,-28.04105 -8.60164,-34.17408 7.32475,-2.21025 6.34431,1.40484 13.74648,-1.37316 6.519,-2.44657 16.2653,41.70868 17.87035,48.10099 5.90422,23.51426 26.40146,29.80389 28.36226,43.24067 3.4997,23.98348 7.1205,65.23978 39.521,103.68463 20.5651,24.40162 149.5714,95.7946 155.0124,106.67662 7.5276,15.05524 -16.8598,70.75009 -25.7553,78.37487 z"
       style="fill:#ce1126;fill-opacity:1;stroke:#000000;stroke-width:8.15999985;stroke-linecap:butt;stroke-linejoin:miter;stroke-miterlimit:4;stroke-opacity:1;stroke-dasharray:none" />
    <path
       sodipodi:nodetypes="cssssssc"
       inkscape:connector-curvature="0"
       id="path3355"
       d="m 1287.7209,585.17681 c -4.8562,26.0954 -13.4429,46.41375 -25.1075,69.74303 -6.866,13.73187 -13.6327,33.77486 -19.528,45.56543 -5.4042,10.80823 -42.0926,6.44092 -62.6721,3.30109 -10.2086,-1.55753 -13.3168,-8.77795 -11.7205,-17.24969 4.7722,-25.32713 18.3196,-56.23165 31.2792,-80.94614 12.9595,-24.71449 25.3313,-39.51934 31.4715,-40.08644 33.482,-3.09229 42.0594,4.42068 56.2774,19.67272 z"
       style="fill:#ce1126;fill-opacity:1;stroke:#000000;stroke-width:8.15999985;stroke-linecap:butt;stroke-linejoin:miter;stroke-miterlimit:4;stroke-opacity:1;stroke-dasharray:none" />
    <path
       sodipodi:nodetypes="sssssss"
       inkscape:connector-curvature="0"
       id="path3357"
       d="m 1240.8968,706.28066 c -9.2393,3.44896 -58.2554,-2.07576 -58.2554,-2.07576 -8.568,0.52853 -16.4077,23.57621 -20.7881,44.28321 -6.0474,28.58695 1.1818,49.22298 6.5955,55.75653 11.0195,13.29887 20.6627,2.28929 41.1599,-20.06774 13.2009,-14.39875 6.8147,-11.49323 7.9839,-27.13653 1.3151,-17.59512 39.063,-56.64237 23.3042,-50.75971 z"
       style="fill:#ce1126;fill-opacity:1;stroke:#000000;stroke-width:8.15999985;stroke-linecap:butt;stroke-linejoin:miter;stroke-miterlimit:4;stroke-opacity:1;stroke-dasharray:none" />
    <path
       sodipodi:nodetypes="cscsc"
       inkscape:connector-curvature="0"
       id="path3359"
       d="m 1221.2325,888.09401 c -4.69,11.55761 58.1803,70.18671 87.8622,82.37492 5.7113,2.34518 13.7519,2.26206 21.4019,-4.03026 28.1447,-28.91049 54.8126,-45.19385 64.1636,-60.44395 8.191,-13.35848 -56.0941,-59.86863 -65.791,-75.32247"
       style="fill:#ce1126;fill-opacity:1;stroke:#000000;stroke-width:8.15999985;stroke-linecap:butt;stroke-linejoin:miter;stroke-miterlimit:4;stroke-opacity:1;stroke-dasharray:none" />
    <path
       sodipodi:nodetypes="csssssssc"
       inkscape:connector-curvature="0"
       id="path3361"
       d="m 1498.8098,1005.4948 c -1.0691,-11.34053 1.2928,-10.15947 -6.7618,-19.63667 -19.1931,-22.58297 -77.3772,-72.7367 -84.1889,-75.33205 -7.7228,-2.94253 -6.4809,-4.63569 -15.9887,1.04808 -14.5041,8.67062 -25.7273,21.07788 -39.0561,34.40655 -7.5087,7.50872 -20.8693,23.0618 -26.8077,30.79975 -5.3538,6.97616 85.3976,47.81514 120.8749,67.76454 5.1191,2.8786 17.5217,-1.854 17.5217,-1.854 10.444,-8.824 20.5202,-32.3093 34.4066,-37.1962 z"
       style="fill:#ce1126;fill-opacity:1;stroke:#000000;stroke-width:8.15999985;stroke-linecap:butt;stroke-linejoin:miter;stroke-miterlimit:4;stroke-opacity:1;stroke-dasharray:none" />
    <path
       sodipodi:nodetypes="cc"
       inkscape:connector-curvature="0"
       id="path3363"
       d="m 996.42749,417.09613 c -24.9133,-15.19797 -55.56934,-29.37203 -69.51055,-42.0783"
       style="fill:none;stroke:#000000;stroke-width:8.15999985;stroke-linecap:round;stroke-linejoin:miter;stroke-miterlimit:4;stroke-opacity:1;stroke-dasharray:none" />
    <path
       sodipodi:nodetypes="cccc"
       inkscape:connector-curvature="0"
       id="path4133"
       d="m 1219.8376,889.48887 c 65.0957,-2.26926 105.833,-1.42625 118.0983,-19.76052 -20.0336,-12.51319 -36.611,-11.7442 -45.5656,-31.61684 42.3923,-7.98561 57.207,-5.42609 74.3926,-66.02339"
       style="fill:none;stroke:#000000;stroke-width:8.15999985;stroke-linecap:butt;stroke-linejoin:miter;stroke-miterlimit:4;stroke-opacity:1;stroke-dasharray:none" />
    <path
       sodipodi:nodetypes="cc"
       inkscape:connector-curvature="0"
       id="path5822"
       d="m 1351.4195,276.4477 c 2.0668,-5.2212 6.979,-11.91035 9.9965,-16.73834"
       style="fill:none;stroke:#000000;stroke-width:8.15999985;stroke-linecap:butt;stroke-linejoin:miter;stroke-miterlimit:4;stroke-opacity:1;stroke-dasharray:none" />
    <path
       sodipodi:nodetypes="cc"
       inkscape:connector-curvature="0"
       id="path6332"
       d="m 1417.4428,689.55886 c -26.5023,-12.90245 -40.2184,-14.06484 -40.2184,-14.06484"
       style="fill:none;stroke:#000000;stroke-width:8.15999985;stroke-linecap:butt;stroke-linejoin:miter;stroke-miterlimit:4;stroke-opacity:1;stroke-dasharray:none" />
    <path
       sodipodi:nodetypes="csssssc"
       inkscape:connector-curvature="0"
       id="path6334"
       d="m 1099.9088,589.09769 c 0.2388,-2.27315 4.3538,-24.42382 -2.6303,-28.93192 -6.3484,-4.09781 -20.3683,-12.78603 -33.8937,-22.52039 -13.5255,-9.73437 -27.8081,-21.05796 -28.2442,-19.23363 -4.0933,17.12384 -10.8968,23.03758 -5.628,25.83705 13.6827,7.27001 40.8803,24.78355 54.0616,41.49878 3.968,5.03191 12.8988,2.66296 16.3346,3.35011 z"
       style="fill:#ce1126;fill-opacity:1;stroke:#000000;stroke-width:8.15999985;stroke-linecap:butt;stroke-linejoin:miter;stroke-miterlimit:4;stroke-opacity:1;stroke-dasharray:none" />
    <path
       sodipodi:nodetypes="cscssssc"
       inkscape:connector-curvature="0"
       id="path6336"
       d="m 1100.895,573.64541 c 0.2389,3.51839 -1.1872,18.33161 -0.6575,21.69893 1.9727,12.53982 13.0677,17.99923 35.5074,44.38419 1.9782,1.97835 14.1814,9.16144 18.4113,4.93158 2.4625,-2.46266 7.9704,-23.97111 8.8795,-30.85092 0.5221,-3.95234 -1.8043,-4.97164 -3.6193,-8.27293 -6.034,-10.9751 -33.3142,-25.24195 -40.7677,-31.89085 -3.951,-3.52461 -12.321,-1.78643 -17.7537,0 z"
       style="fill:#ce1126;fill-opacity:1;stroke:#000000;stroke-width:8.15999985;stroke-linecap:butt;stroke-linejoin:miter;stroke-miterlimit:4;stroke-opacity:1;stroke-dasharray:none" />
    <path
       sodipodi:nodetypes="csssssc"
       inkscape:connector-curvature="0"
       id="path6338"
       d="m 1188.6771,625.92012 c -0.6091,-5.97031 -9.0252,-10.5207 -16.4386,-10.5207 -5.0439,0 -9.2793,-1.265 -9.9473,2.8768 -1.4541,9.01628 -8.8374,26.06435 -6.2967,33.64438 2.5406,7.58004 11.9556,14.34955 13.9077,14.64406 4.5823,0.69133 9.2633,-9.1737 13.8433,-24.53472 1.5446,-5.18035 6.2359,-10.24021 4.9316,-16.10982 z"
       style="fill:#ce1126;fill-opacity:1;stroke:#000000;stroke-width:8.15999985;stroke-linecap:butt;stroke-linejoin:miter;stroke-miterlimit:4;stroke-opacity:1;stroke-dasharray:none" />
    <path
       sodipodi:nodetypes="csssssscc"
       inkscape:connector-curvature="0"
       id="path3028"
       d="m 1508.9008,1000.7199 c -7.3884,1.5588 -29.1655,16.9059 -36.165,30.9045 -6.0701,12.1402 -17.7536,30.9109 -21.6988,44.0555 -0.825,2.7486 -3.298,14.7292 -3.7141,21.3387 -0.416,6.6096 1.4334,10.8373 5.0291,10.2234 38.5355,-6.5792 59.8365,-9.4885 63.1243,-13.8085 6.3618,-8.3593 12.0047,-18.2433 15.1234,-28.2744 4.8652,-15.6481 14.1688,-35.7412 13.8084,-51.2883 -0.7899,-3.2482 -24.0217,-14.22773 -35.5073,-13.1509 z"
       style="fill:#ce1126;fill-opacity:1;stroke:#000000;stroke-width:8.15999985;stroke-linecap:butt;stroke-linejoin:miter;stroke-miterlimit:4;stroke-opacity:1;stroke-dasharray:none" />
    <path
       sodipodi:nodetypes="cssssssc"
       inkscape:connector-curvature="0"
       id="path3030"
       d="m 1505.6131,1099.3515 c -23.6387,5.1745 -61.601,6.2194 -64.4392,13.1508 -4.74,11.5758 -19.7365,62.1881 -17.5307,81.9965 0.8005,7.1879 2.1841,7.6467 12.2703,12.6898 6.6456,3.3228 46.3461,-14.6249 51.2884,-17.0961 8.7294,-4.3647 12.3914,-1.0922 13.8084,-9.8632 5.0866,-31.4859 12.0717,-64.7645 11.7897,-71.1123 -0.428,-9.6345 -2.0172,-6.3597 -7.1869,-9.7655 z"
       style="fill:#ce1126;fill-opacity:1;stroke:#000000;stroke-width:8.15999985;stroke-linecap:butt;stroke-linejoin:miter;stroke-miterlimit:4;stroke-opacity:1;stroke-dasharray:none" />
    <path
       sodipodi:nodetypes="csssssssc"
       inkscape:connector-curvature="0"
       id="path3032"
       d="m 1542.4355,1258.477 c -8.043,-11.9647 -13.7923,-18.379 -22.3565,-28.2743 -5.9708,-6.8989 -14.7636,-21.2768 -17.7536,-30.2471 -1.5138,-4.5413 -3.1035,-10.5206 -7.8905,-10.5206 -6.2257,0 -52.451,18.6785 -55.3226,21.0948 -4.2676,3.5913 -10.0233,4.4015 -4.514,14.4124 12.5318,22.7714 42.9371,54.1141 64.4393,62.4666 4.4236,1.7183 9.5269,-5.2103 18.5156,-12.8947 8.9886,-7.6844 23.4222,-13.7007 24.8823,-16.0371 z"
       style="fill:#ce1126;fill-opacity:1;stroke:#000000;stroke-width:8.15999985;stroke-linecap:butt;stroke-linejoin:miter;stroke-miterlimit:4;stroke-opacity:1;stroke-dasharray:none" />
    <path
       sodipodi:nodetypes="cscsssssc"
       inkscape:connector-curvature="0"
       id="path3034"
       d="m 1606.2172,1340.0124 c 1.1103,-5.3879 4.9783,-4.3145 -0.6804,-13.4446 -9.2428,-14.9128 -41.2281,-52.1355 -49.9505,-60.8578 -2.9252,-2.9254 -9.8861,-6.6855 -16.4385,-3.2877 -17.0961,8.8652 -31.5375,20.9574 -32.8771,24.3291 -1.2725,3.2025 -7.2706,6.8909 -3.1295,11.8798 8.4286,10.1541 25.2585,36.9337 37.9792,47.2992 2.427,1.9775 4.4265,4.2313 12.6068,3.07 10.8894,-1.5461 25.1382,-7.0743 52.49,-8.988 z"
       style="fill:#ce1126;fill-opacity:1;stroke:#000000;stroke-width:8.15999985;stroke-linecap:butt;stroke-linejoin:miter;stroke-miterlimit:4;stroke-opacity:1;stroke-dasharray:none" />
    <g
       transform="matrix(1.02,0,0,1.02,-22.518083,-0.66467)"
       id="g3810">
      <path
         style="fill:none;stroke:#000000;stroke-width:8;stroke-linecap:butt;stroke-linejoin:miter;stroke-miterlimit:4;stroke-opacity:1;stroke-dasharray:none"
         d="M 1945.8548,284.42649 C 1798.8745,328.26272 1576.3595,584.1566 1576.3595,584.1566"
         id="path2997"
         inkscape:connector-curvature="0"
         sodipodi:nodetypes="cc" />
      <path
         style="fill:none;stroke:#000000;stroke-width:8;stroke-linecap:butt;stroke-linejoin:miter;stroke-miterlimit:4;stroke-opacity:1;stroke-dasharray:none"
         d="m 1900.4298,532.42814 c -103.144,-2.5786 -309.4322,100.56549 -309.4322,100.56549"
         id="path3005"
         inkscape:connector-curvature="0"
         sodipodi:nodetypes="cc" />
      <path
         style="fill:none;stroke:#000000;stroke-width:8;stroke-linecap:butt;stroke-linejoin:miter;stroke-miterlimit:4;stroke-opacity:1;stroke-dasharray:none"
         d="M 1830.8076,715.5089 C 1713.4812,671.67266 1583.2618,683.27637 1583.2618,683.27637"
         id="path3007"
         inkscape:connector-curvature="0"
         sodipodi:nodetypes="cc" />
      <path
         style="fill:none;stroke:#000000;stroke-width:8;stroke-linecap:butt;stroke-linejoin:miter;stroke-miterlimit:4;stroke-opacity:1;stroke-dasharray:none"
         d="M 1729.6298,872.72543 C 1709.5303,839.9452 1615.992,758.9561 1566.2796,730.22526"
         id="path3009"
         inkscape:connector-curvature="0"
         sodipodi:nodetypes="cc" />
      <path
         style="fill:none;stroke:#000000;stroke-width:8;stroke-linecap:butt;stroke-linejoin:miter;stroke-miterlimit:4;stroke-opacity:1;stroke-dasharray:none"
         d="M 1556.1864,946.2938 C 1571.658,836.7032 1536.8469,760.63444 1536.8469,760.63444"
         id="path3011"
         inkscape:connector-curvature="0"
         sodipodi:nodetypes="cc" />
    </g>
    <path
       sodipodi:nodetypes="cssscsc"
       inkscape:connector-curvature="0"
       id="path11523"
       d="m 1570.7099,1402.4791 c 27.096,-41.8296 50.1491,-56.373 38.1375,-57.2063 -3.8065,-0.2642 -12.3313,-2.7112 -17.7536,0 -7.1951,3.5975 -32.4821,4.6928 -39.4527,8.548 -12.3914,6.8533 -10.9027,15.7561 -17.0961,32.8772 -1.969,3.9381 -7.1107,23.4809 -4.6028,23.6716 37.6535,2.8621 39.5917,-4.2865 40.7677,-7.8905 z"
       style="fill:#ce1126;fill-opacity:1;stroke:#000000;stroke-width:8.15999985;stroke-linecap:butt;stroke-linejoin:miter;stroke-miterlimit:4;stroke-opacity:1;stroke-dasharray:none" />
    <path
       sodipodi:nodetypes="cscsccsc"
       inkscape:connector-curvature="0"
       id="path11525"
       d="m 1561.5044,1416.2874 c -3.9001,-1.1812 -33.1041,-10.719 -37.4801,-0.6575 -5.0612,11.6367 -9.9729,24.4937 -18.4111,38.1375 -2.9444,4.4164 -20.2555,22.6475 -17.0962,29.5895 3.3311,7.3198 13.8023,2.2984 27.6168,7.233 1.8487,0.9243 11.7257,7.4533 13.1508,4.6028 3.8706,-7.7411 2.0693,-14.9991 5.918,-26.3018 7.9511,-23.3508 14.2546,-29.402 26.3018,-52.6035 z"
       style="fill:#ce1126;fill-opacity:1;stroke:#000000;stroke-width:8.15999985;stroke-linecap:butt;stroke-linejoin:miter;stroke-miterlimit:4;stroke-opacity:1;stroke-dasharray:none" />
    <path
       sodipodi:nodetypes="cc"
       inkscape:connector-curvature="0"
       id="path3039"
       d="m 1396.1321,1584.2899 c 45.3705,-31.5621 53.5898,-45.6993 53.5898,-45.6993"
       style="fill:none;stroke:#000000;stroke-width:8.15999985;stroke-linecap:round;stroke-linejoin:miter;stroke-miterlimit:4;stroke-opacity:1;stroke-dasharray:none" />
    <path
       sodipodi:nodetypes="csc"
       inkscape:connector-curvature="0"
       id="path3041"
       d="m 1348.789,1533.9878 c 7.5617,5.2603 12.7626,5.3167 19.0687,4.9315 20.3701,-1.2442 81.5354,-26.9593 81.5354,-26.9593"
       style="fill:none;stroke:#000000;stroke-width:8.15999985;stroke-linecap:round;stroke-linejoin:miter;stroke-miterlimit:4;stroke-opacity:1;stroke-dasharray:none" />
    <path
       sodipodi:nodetypes="csssssc"
       inkscape:connector-curvature="0"
       id="path9253"
       d="m 1366.2139,993.48696 c -12.1615,-10.39557 -37.5277,24.63404 -34.1923,26.30174 5.5582,2.7791 25.1288,11.6472 38.8671,19.003 13.7384,7.3558 21.6444,13.1992 27.5448,7.2987 3.0695,-3.0694 35.7898,-10.8958 25.6441,-21.0413 -8.8624,-8.8625 -25.4419,-9.5471 -35.5073,-17.0962 -7.6966,-5.7725 -14.0967,-8.56609 -22.3564,-14.46594 z"
       style="fill:#ce1126;fill-opacity:1;stroke:#000000;stroke-width:8.15999985;stroke-linecap:butt;stroke-linejoin:miter;stroke-miterlimit:4;stroke-opacity:1;stroke-dasharray:none" />
    <path
       sodipodi:nodetypes="csssscssc"
       inkscape:connector-curvature="0"
       id="path9255"
       d="m 1327.4188,1023.0764 c -5.6452,-0.2413 -15.7992,8.9069 -21.6989,14.466 -12.4331,11.7152 -30.8064,30.9384 -31.5622,41.4252 -0.4005,5.5578 2.4841,9.8994 12.6449,9.9428 17.5099,0.074 56.7665,4.497 61.4013,2.5531 17.0841,-7.1654 18.742,-12.645 31.8184,-29.592 -4.6782,3.4385 8.3082,-11.9333 5.9178,-13.1508 -10.7206,-5.4604 -26.902,-14.4375 -36.1649,-19.0689 -7.6376,-3.8188 -13.6345,-6.5754 -22.3564,-6.5754 z"
       style="fill:#ce1126;fill-opacity:1;stroke:#000000;stroke-width:8.15999985;stroke-linecap:butt;stroke-linejoin:miter;stroke-miterlimit:4;stroke-opacity:1;stroke-dasharray:none" />
    <path
       sodipodi:nodetypes="cscssscccc"
       inkscape:connector-curvature="0"
       id="path9263"
       d="m 1352.4054,1139.4616 c -4.4262,-12.1403 -3.1423,-40.6223 -9.2056,-46.6856 -3.8723,-3.8724 -23.9466,-1.6259 -30.9045,-3.9452 -13.1887,-1.4621 -30.8366,-0.033 -39.4527,3.2877 -8.1362,3.1354 -6.0365,9.1659 -1.3149,25.6442 1.425,4.9737 2.4729,16.7817 4.6027,21.0414 1.7417,3.4833 7.0152,5.4821 8.548,8.548 4.8542,3.1328 15.6582,5.4386 21.0414,7.233 10.8168,-0.4814 37.8333,6.6413 43.3979,2.6302 1.67,-4.6892 1.3021,-11.9609 3.2877,-17.7537 z"
       style="fill:#ce1126;fill-opacity:1;stroke:#000000;stroke-width:8.15999985;stroke-linecap:butt;stroke-linejoin:miter;stroke-miterlimit:4;stroke-opacity:1;stroke-dasharray:none" />
    <path
       sodipodi:nodetypes="csssssc"
       inkscape:connector-curvature="0"
       id="path9265"
       d="m 1364.8988,1219.0244 c -1.7698,-14.9781 -5.4695,-48.426 -17.0961,-57.8639 -3.4928,-2.8353 -19.0043,-5.9178 -30.247,-5.9178 -5.4471,0 -25.0005,-5.1347 -26.9593,-3.2878 -8.2536,7.782 11.3765,30.6063 15.1235,38.7952 1.652,3.6104 15.4576,8.8822 24.9866,14.4658 10.131,5.9366 31.1834,24.6185 34.1923,13.8085 z"
       style="fill:#ce1126;fill-opacity:1;stroke:#000000;stroke-width:8.15999985;stroke-linecap:butt;stroke-linejoin:miter;stroke-miterlimit:4;stroke-opacity:1;stroke-dasharray:none" />
    <path
       sodipodi:nodetypes="csscccsc"
       inkscape:connector-curvature="0"
       id="path9267"
       d="m 1297.1718,1238.0932 c 8.4926,-1.0744 17.8901,-1.0204 26.9593,-3.2877 8.2024,-2.0506 22.3332,-0.6341 29.5894,-2.6302 2.5915,-0.7128 4.5506,-5.3648 2.6302,-9.2056 -11.4659,-10.4386 -38.9311,-25.7123 -50.6309,-31.5621 -2.9692,-1.4847 -10.7177,2.7286 -13.1509,3.9453 -8.5449,7.2314 -12.2565,12.8853 -14.1952,18.7539 -3.1421,9.5112 11.7039,25.76 18.7981,23.9864 z"
       style="fill:#ce1126;fill-opacity:1;stroke:#000000;stroke-width:8.15999985;stroke-linecap:butt;stroke-linejoin:miter;stroke-miterlimit:4;stroke-opacity:1;stroke-dasharray:none" />
    <path
       sodipodi:nodetypes="csccssc"
       inkscape:connector-curvature="0"
       id="path9269"
       d="m 1237.3352,1268.9977 c 8.8606,-5.5964 19.0222,-12.4623 26.9594,-17.7537 7.9989,-5.3326 18.4616,-7.5869 25.6442,-11.1782 -2.9491,-8.0599 -12.1167,-21.3223 -15.1235,-24.3292 -7.2758,-7.2757 -39.9143,12.2244 -51.2884,15.7812 -3.3912,1.0604 4.9781,17.1891 7.8905,23.0139 1.7971,3.5943 1.5316,12.2729 5.9178,14.466 z"
       style="fill:#ce1126;fill-opacity:1;stroke:#000000;stroke-width:8.15999985;stroke-linecap:butt;stroke-linejoin:miter;stroke-miterlimit:4;stroke-opacity:1;stroke-dasharray:none" />
    <path
       inkscape:connector-curvature="0"
       id="path9271"
       d="m 1285.336,683.12642 c -18.9358,-5.42666 -28.6757,20.31978 -39.4526,23.01402"
       style="fill:#ff0000;stroke:#000000;stroke-width:8.15999985;stroke-linecap:butt;stroke-linejoin:miter;stroke-miterlimit:4;stroke-opacity:1;stroke-dasharray:none" />
    <path
       sodipodi:nodetypes="cssccssscsc"
       inkscape:connector-curvature="0"
       id="path9273"
       d="m 1218.2666,771.89479 c 10.9543,3.97011 30.4689,15.56325 45.3704,23.01403 5.6077,2.80383 9.9007,1.27755 17.0962,-2.63018 2.1595,-1.17279 3.0681,-3.06942 1.3152,-4.6028 0.4707,-9.57913 -2.1797,-23.50154 -0.6576,-29.58946 0.095,-14.18953 7.4008,-26.62339 5.2602,-30.90455 -2.7185,-5.43704 -6.7558,-6.84083 -12.4933,-9.2056 -11.745,-4.84083 -23.7693,-10.53022 -26.2752,-8.60207 -5.3896,4.1473 -6.438,5.48037 -9.8897,11.23224 -2.4804,7.44151 -10.3475,12.1469 -13.8084,19.06876 -5.3901,10.78034 -7.4267,19.37958 -5.9178,32.21963 z"
       style="fill:#ce1126;fill-opacity:1;stroke:#000000;stroke-width:8.15999985;stroke-linecap:butt;stroke-linejoin:miter;stroke-miterlimit:4;stroke-opacity:1;stroke-dasharray:none" />
    <path
       sodipodi:nodetypes="csssssssc"
       inkscape:connector-curvature="0"
       id="path9275"
       d="m 1200.5129,822.52565 c 21.0716,-5.31166 29.8832,-6.72232 48.0007,-13.15087 5.2605,-1.86654 12.1782,-1.98174 17.0961,-5.26035 8.5964,-5.73092 1.5632,-6.16075 -1.4704,-7.94185 -25.5035,-14.97388 -38.8952,-20.58792 -47.1879,-24.27779 -3.3353,-1.48404 -10.696,3.127 -13.1507,3.94526 -3.3068,1.10226 -38.5404,24.58392 -34.1924,28.93193 2.6444,2.64439 7.9399,3.99464 11.1783,7.23297 4.9519,4.9519 13.4235,13.67206 19.7263,10.5207 z"
       style="fill:#ce1126;fill-opacity:1;stroke:#000000;stroke-width:8.15999985;stroke-linecap:butt;stroke-linejoin:miter;stroke-miterlimit:4;stroke-opacity:1;stroke-dasharray:none" />
    <path
       sodipodi:nodetypes="cssssssc"
       inkscape:connector-curvature="0"
       id="path9277"
       d="m 1124.8954,851.45756 c 6.714,5.789 28.4348,-7.36759 38.1375,-11.17823 11.7198,-4.60281 14.7525,-5.17469 18.1557,-9.53837 2.3008,-2.9501 12.2091,-10.71042 6.8309,-14.79075 -4.4738,-3.39425 -13.584,-5.34753 -21.0064,-7.54763 -5.3971,-1.59974 -6.2549,0.0629 -8.583,0.9722 -2.6919,1.05131 -27.1727,18.46384 -39.9655,25.95744 -7.4559,4.3674 -4.1002,11.12595 6.4308,16.12534 z"
       style="fill:#ce1126;fill-opacity:1;stroke:#000000;stroke-width:8.15999985;stroke-linecap:butt;stroke-linejoin:miter;stroke-miterlimit:4;stroke-opacity:1;stroke-dasharray:none" />
    <path
       sodipodi:nodetypes="cssssssssc"
       inkscape:connector-curvature="0"
       id="path9279"
       d="m 1121.2789,851.12879 c -2.9695,-3.03701 -3.9615,-4.02581 -6.5393,-6.68721 -2.0234,-2.08896 -6.7416,-1.73504 -10.7944,-0.94169 0,0 -19.3488,11.93265 -41.3351,23.31914 -2.9096,1.5069 -11.8221,3.70417 -15.6336,11.26904 -2.4012,4.76568 3.5609,3.76599 5.2603,5.58914 4.5143,4.84294 10.7922,11.89447 18.0824,18.08243 8.3179,7.06011 7.9618,-4.34518 17.0962,-12.8221 6.2563,-5.80588 29.0354,-19.75901 31.4857,-24.86638 1.1882,-2.4766 5.6656,-10.58239 2.3778,-12.94237 z"
       style="fill:#ce1126;fill-opacity:1;stroke:#000000;stroke-width:8.15999985;stroke-linecap:butt;stroke-linejoin:miter;stroke-miterlimit:4;stroke-opacity:1;stroke-dasharray:none" />
    <path
       sodipodi:nodetypes="csssccsccsccscc"
       inkscape:connector-curvature="0"
       id="path10244"
       d="m 1284.9311,358.74447 c 0,0 -32.9188,-16.86531 -55.3295,-22.31777 -11.6377,-2.83143 -20.5382,-3.34855 -30.2219,-3.25467 -13.6845,0.13266 -18.7013,1.12609 -30.222,3.71962 -14.5747,3.28105 -28.8271,-0.9299 -28.8271,-0.9299 0,0 1.7017,-10.34383 4.6495,-15.80843 -8.8064,5.1649 -22.9453,8.89113 -31.6168,9.76403 -18.0847,1.82045 -34.4066,-8.36916 -34.4066,-8.36916 2.0169,5.27054 18.4707,20.54925 29.757,28.36216 3.5989,2.15932 12.9853,9.47837 26.0375,16.27338 2.8038,1.4597 16.7383,6.50934 16.7383,6.50934 l -8.8341,-18.59814 c 25.5724,0.15498 58.4868,1.43957 67.8831,3.71962 25.0701,6.08333 53.5138,15.70432 90.201,28.36218 z"
       style="fill:#0072c6;fill-opacity:1;stroke:#000000;stroke-width:8.15999985;stroke-linecap:butt;stroke-linejoin:miter;stroke-miterlimit:4;stroke-opacity:1;stroke-dasharray:none" />
    <path
       sodipodi:nodetypes="ccccc"
       inkscape:connector-curvature="0"
       id="path10240"
       d="m 1312.3634,269.00845 c 8.7667,17.07896 18.266,26.38685 29.2921,40.45095 -18.9365,5.14859 -28.2757,7.32949 -54.3995,11.15889 0,0 -18.5687,-25.7055 -26.0375,-44.86802 32.2459,-1.60181 51.1449,-6.74182 51.1449,-6.74182 z"
       style="fill:#f9d616;fill-opacity:1;stroke:#000000;stroke-width:8.15999985;stroke-linecap:butt;stroke-linejoin:miter;stroke-miterlimit:4;stroke-opacity:1;stroke-dasharray:none" />
    <path
       sodipodi:nodetypes="cc"
       inkscape:connector-curvature="0"
       id="path10242"
       d="m 1311.4334,269.47339 c -11.4128,9.32252 -14.1854,36.4922 -24.1775,51.1449"
       style="fill:none;stroke:#000000;stroke-width:8.15999985;stroke-linecap:butt;stroke-linejoin:miter;stroke-miterlimit:4;stroke-opacity:1;stroke-dasharray:none" />
    <path
       sodipodi:nodetypes="ccsccscccccscccccccsccsccsc"
       inkscape:connector-curvature="0"
       id="path3788"
       d="m 1194.2652,469.86835 c 17.5916,-7.03689 33.1364,-28.80185 29.7691,-42.57464 21.7402,-6.33354 28.7895,-10.38021 49.738,-13.21979 32.9116,-4.46121 76.2889,-4.61298 98.5701,12.08879 11.7708,6.08723 18.1575,10.97904 33.4766,19.993 2.1714,-9.61058 -17.0665,-42.49901 -25.1075,-51.60983 -1.3566,-1.53711 -5.5795,-9.11256 -11.1589,-12.0888 12.0889,-12.59467 34.8892,-17.20328 44.4032,-17.20328 -20.6784,-18.59136 -74.6251,-28.12968 -74.6251,-28.12968 0,0 43.3922,-22.21655 46.9603,-23.0152 -33.4766,-20.56092 -81.9902,-5.81217 -92.9907,-4.64954 -5.5871,-8.84172 -12.9895,-16.89188 -19.528,-25.57244 -25.3566,-33.66342 -100.1853,-59.7587 -163.1988,-52.07479 30.4128,13.72031 42.3992,21.08161 53.9346,36.03391 -14.9729,-3.71963 -19.1339,1.383 -19.1339,1.383 0,0 14.9495,54.62808 30.7579,72.31212 7.4392,-20.18119 8.7784,-25.62812 15.8083,-39.05609 10.5856,10.58554 47.9661,34.52386 73.0766,39.42958 15.8114,19.78423 26.4235,38.6826 26.4235,38.6826 0,0 -22.2655,-1.56728 -24.1776,-0.92991 -21.4687,7.15624 -29.9073,6.23071 -53.9346,12.0888 -8.8246,-16.10576 -13.1037,-45.56544 -11.6238,-49.75002 -6.053,5.57944 -7.0959,10.94342 -8.8341,13.48364 -11.9658,17.48559 -9.5001,29.02592 -13.0187,43.70563 -16.7365,2.55632 -23.2477,10.69393 -23.2477,10.69393 0,0 25.3546,12.1477 29.2921,19.52805 8.5082,15.94747 11.6856,23.43338 8.3691,40.45096 z"
       style="fill:#ce1126;fill-opacity:1;stroke:#000000;stroke-width:8.15999985;stroke-linecap:butt;stroke-linejoin:miter;stroke-miterlimit:4;stroke-opacity:1;stroke-dasharray:none" />
    <path
       sodipodi:nodetypes="cc"
       inkscape:connector-curvature="0"
       id="path10754"
       d="m 916.68796,893.44098 c 29.01306,6.23563 77.00789,8.01838 103.45214,-2.55725"
       style="fill:none;stroke:#000000;stroke-width:6.11999989;stroke-linecap:round;stroke-linejoin:miter;stroke-miterlimit:4;stroke-opacity:1;stroke-dasharray:none" />
    <path
       sodipodi:nodetypes="csc"
       inkscape:connector-curvature="0"
       id="path10756"
       d="m 996.89245,920.1758 c -20.80667,12.63124 -33.32652,18.05045 -39.60823,21.03915 -25.17542,11.97794 -29.90232,8.40791 -43.1535,16.38961"
       style="fill:none;stroke:#000000;stroke-width:7.13999987;stroke-linecap:round;stroke-linejoin:miter;stroke-miterlimit:4;stroke-opacity:1;stroke-dasharray:none" />
    <path
       sodipodi:nodetypes="cc"
       inkscape:connector-curvature="0"
       id="path10776"
       d="m 1069.9905,1248.285 c 22.8605,2.3085 53.8781,4.2741 89.7546,-2.63"
       style="fill:none;stroke:#000000;stroke-width:6.11999989;stroke-linecap:round;stroke-linejoin:miter;stroke-miterlimit:4;stroke-opacity:1;stroke-dasharray:none" />
    <path
       sodipodi:nodetypes="cc"
       inkscape:connector-curvature="0"
       id="path10778"
       d="m 1098.9224,1198.9694 c 25.7395,22.426 55.1923,32.8771 79.5628,33.8635"
       style="fill:none;stroke:#000000;stroke-width:6.11999989;stroke-linecap:round;stroke-linejoin:miter;stroke-miterlimit:4;stroke-opacity:1;stroke-dasharray:none" />
  </g>
</svg>
