<svg xmlns:dc="http://purl.org/dc/elements/1.1/" xmlns:cc="http://creativecommons.org/ns#" xmlns:rdf="http://www.w3.org/1999/02/22-rdf-syntax-ns#" xmlns:svg="http://www.w3.org/2000/svg" xmlns="http://www.w3.org/2000/svg" version="1" width="400" height="500" id="svg2">
  <metadata id="metadata51">
    <rdf:RDF>
      <cc:Work rdf:about="">
        <dc:format>
          
          image/svg+xml
        
        </dc:format>
        <dc:type rdf:resource="http://purl.org/dc/dcmitype/StillImage"/>
      </cc:Work>
    </rdf:RDF>
  </metadata>
  <defs id="defs4">
    <clipPath id="clipPath2516">
      <path d="M0 0 0 0 0 0 0 0Z" id="path2518"/>
    </clipPath>
    <clipPath id="clipPath2500">
      <path d="M0 0 0 0 0 0 0 0Z" id="path2502"/>
    </clipPath>
  </defs>
  <path id="path2418" d="m396.64 1.45-393.73 0 0 301.05 0 0c0 0.03 0 0.06 0 0.09 0 108.73 88.14 196.86 196.86 196.86 108.72 0 196.87-88.14 196.87-196.86 0-0.03 0-0.06 0-0.09l0 0 0-301.05z" style="fill-rule:nonzero;fill:#e00e00"/>
  <path id="path3343" d="m207.98 468.65c0-25.1-1.8-35.4 5.2-39.4 3.2-1.8 8.6-7 12.9-8.7 8.7-3.6 10.2-5.7 13-11.3 2.9-6-1.4-14.6-8.6-10.3-4.9 2.9-9.3-3.5-6-7.5 5.3-6.2 12-10.6 17.8-13.2 23.3-10.5 19.7-25 18.1-26.5-6-6-12 0-18 1-8.1 1.3-5.4-7.6-2.4-10.2l23.4-20.2c5.1-4.4 9.9-16.5 9.7-22.8-0.1-4.6 1.6-14.1-10.9-14.4-10.5-0.3-8.8 5-16 9.6-4 2.6-13.7-2.3-4.6-14.2 15.3-20.1 9.3-35.5 4.2-39.4-8.1-6.2-14 5.1-20.7 8.9-6 3.4-8.1-2.9-8.1-6l-0.2-16.2c0.3-11.7-7.9-17.2-17-17.2-9.1 0-17.3 5.5-17.4 17.3l-0.2 16.2c0 3.1-2 9.4-8.1 6-6.6-3.7-12.6-15-20.7-8.9-5.1 3.9-11 19.3 4.2 39.4 9.1 11.9-0.6 16.8-4.6 14.2-7.1-4.6-5.5-9.8-16-9.6-12.4 0.3-10.8 9.7-10.9 14.4-0.2 6.2 4.7 18.4 9.7 22.8l23.4 20.2c3 2.6 5.7 11.5-2.4 10.2-6-1-11.9-7-18-1-1.4 1.4-5.1 16 18.1 26.5 5.9 2.6 12.6 7 17.8 13.2 3.3 3.9-1.2 10.4-6 7.5-7.1-4.3-11.5 4.3-8.6 10.3 2.8 5.6 4.3 7.7 13 11.3 4.4 1.8 9.7 6.9 12.9 8.7 7.1 4 5.2 14.3 5.2 39.4 5.5 0 11 0 16.5 0z" style="fill:#ffe000;stroke:#000"/>
  <path d="m396.64 1.45-393.73 0 0 301.05 0 0c0 0.03 0 0.06 0 0.09 0 108.73 88.14 196.86 196.86 196.86 108.72 0 196.87-88.14 196.87-196.86 0-0.03 0-0.06 0-0.09l0 0 0-301.05z" id="path4300" style="fill:none;stroke:#000"/>
  <path id="path4192" d="m319.08 293.15c0-25.1-1.8-35.4 5.2-39.4 3.2-1.8 8.6-7 12.9-8.7 8.7-3.6 10.2-5.7 13-11.3 2.9-6-1.4-14.6-8.6-10.3-4.9 2.9-9.3-3.5-6-7.5 5.3-6.2 12-10.6 17.8-13.2 23.3-10.5 19.7-25 18.1-26.5-6-6-12 0-18 1-8.1 1.3-5.4-7.6-2.4-10.2l23.5-20.2c5.1-4.4 9.9-16.5 9.7-22.8-0.1-4.6 1.6-14.1-10.9-14.4-10.5-0.3-8.8 5-16 9.6-4 2.6-13.7-2.3-4.6-14.2 15.3-20.1 9.3-35.5 4.2-39.4-8.1-6.2-14 5.1-20.7 8.9-6 3.4-8.1-2.9-8.1-6l-0.2-16.2c0-11.8-8.3-17.3-17.3-17.3-9.1 0-17.3 5.5-17.4 17.3l0 16.3c0 3.1-2 9.4-8.1 6-6.6-3.7-12.6-15-20.7-8.9-5.1 3.9-11 19.3 4.2 39.4 9.1 11.9-0.6 16.8-4.6 14.2-7.1-4.6-5.5-9.8-16-9.6-12.4 0.3-10.8 9.7-10.9 14.4-0.2 6.2 4.7 18.4 9.7 22.8l23.4 20.2c3 2.6 5.7 11.5-2.4 10.2-6-1-11.9-7-18-1-1.4 1.4-5.1 16 18.1 26.5 5.9 2.6 12.6 7 17.8 13.2 3.3 3.9-1.2 10.4-6 7.5-7.1-4.3-11.5 4.3-8.6 10.3 2.8 5.6 4.3 7.7 13 11.3 4.4 1.8 9.7 6.9 12.9 8.7 7.1 4 5.2 14.3 5.2 39.4 5.5 0 11 0 16.5 0z" style="fill:#ffe000;stroke:#000"/>
  <path id="path4194" d="m96.98 293.15c0-25.1-1.8-35.4 5.2-39.4 3.2-1.8 8.6-7 12.9-8.7 8.7-3.6 10.2-5.7 13-11.3 2.9-6-1.4-14.6-8.6-10.3-4.9 2.9-9.3-3.5-6-7.5 5.3-6.2 12-10.6 17.8-13.2 23.3-10.5 19.7-25 18.1-26.5-6-6-12 0-18 1-8.1 1.3-5.4-7.6-2.4-10.2l23.4-20.2c5.1-4.4 9.9-16.5 9.7-22.8-0.1-4.6 1.6-14.1-10.9-14.4-10.5-0.3-8.8 5-16 9.6-4 2.6-13.7-2.3-4.6-14.2 15.3-20.1 9.3-35.5 4.2-39.4-8.1-6.2-14 5.1-20.7 8.9-6 3.4-8.1-2.9-8.1-6l-0.2-16.2c0.1-11.8-8.1-17.3-17.2-17.3-9.1 0-17.3 5.5-17.4 17.3l0 16.3c0 3.1-2 9.4-8.1 6-6.6-3.7-12.6-15-20.7-8.9-5.1 3.9-11 19.3 4.2 39.4 9.1 11.9-0.6 16.8-4.6 14.2-7.1-4.6-5.5-9.8-16-9.6-12.4 0.3-10.8 9.7-10.9 14.4-0.2 6.2 4.7 18.4 9.7 22.8l23.4 20.2c3 2.6 5.7 11.5-2.4 10.2-6-1-11.9-7-18-1-1.4 1.4-5.1 16 18.1 26.5 5.9 2.6 12.6 7 17.8 13.2 3.3 3.9-1.2 10.4-6 7.5-7.1-4.3-11.5 4.3-8.6 10.3 2.8 5.6 4.3 7.7 13 11.3 4.4 1.8 9.7 6.9 12.9 8.7 7.1 4 5.2 14.3 5.2 39.4 5.5 0 11 0 16.5 0z" style="fill:#ffe000;stroke:#000"/>
</svg>
