<?xml version="1.0" encoding="UTF-8" standalone="no"?>
<svg
   xmlns:dc="http://purl.org/dc/elements/1.1/"
   xmlns:cc="http://creativecommons.org/ns#"
   xmlns:rdf="http://www.w3.org/1999/02/22-rdf-syntax-ns#"
   xmlns:svg="http://www.w3.org/2000/svg"
   xmlns="http://www.w3.org/2000/svg"
   id="svg2"
   version="1.1"
   x="0"
   y="0"
   width="400"
   height="500"
   viewBox="30.5 31.5 400 500"
   enable-background="new 30.5 31.5 412 533"
   xml:space="preserve"><metadata
     id="metadata4"><rdf:RDF><cc:Work
         rdf:about=""><dc:format>
          
          
          
          image/svg+xml
        
        
        
        </dc:format><dc:type
           rdf:resource="http://purl.org/dc/dcmitype/StillImage" /><dc:title></dc:title></cc:Work></rdf:RDF></metadata><defs
     id="defs6" /><path
     style="fill:#ffffff"
     id="path8"
     d="M 230.44,531.14 C 156.12,477.22 105.18,409.12 74.7,322.98 47.06,244.88 35.97,150.23 40.79,33.63 l 0.02,-0.46 379.82,0 0.02,0.46 c 4.81,116.6 -6.28,211.24 -33.91,289.35 C 356.26,409.12 305.32,477.22 231,531.14 l -0.28,0.2 -0.28,-0.2 z" /><path
     style="fill:#000000;stroke:none;stroke-width:1;stroke-linecap:round;stroke-linejoin:round;stroke-miterlimit:4;stroke-dasharray:none;stroke-opacity:1"
     id="path3008"
     d="m 256.87815,135.46355 c 3.5835,-2.28286 6.8273,-1.13836 13.03,-2.0046 4.0328,-0.5632 3.17779,-5.83784 12.52885,-6.1809 4.31186,-0.15819 7.02589,-0.21084 9.68897,-4.34334 1.48583,-2.30567 5.89048,-4.56003 9.22456,-4.93336 9.4186,-1.05462 7.92036,-9.63526 16.92664,-12.80013 6.31748,-2.22001 3.94852,-8.485203 10.28684,-12.65856 15.17083,-9.98899 5.27054,-15.823828 15.1808,-21.560894 6.69354,14.32999 -4.48353,43.987104 2.50576,73.335514 2.94903,12.38312 8.64159,22.28618 8.84186,37.15458 0.85246,63.28933 -22.28715,111.38172 -38.24287,136.07759 -41.6435,64.45481 -129.0854,64.05454 -176.2391,-4.67743 -21.24383,-30.96533 -38.92105,-89.39447 -38.17369,-116.85195 0.55816,-20.50584 6.70258,-29.11046 9.77496,-52.99104 12.01165,4.71822 14.43784,-9.28263 11.82985,-9.166 -2.29786,0.10272 0.22094,5.17643 -4.74494,7.28433 -6.99672,2.96994 -8.97561,-5.77685 -5.55178,-7.85519 5.67639,-3.4457 7.56465,1.85759 9.23202,-1.55671 1.00709,-2.06224 -7.58444,-2.96536 -10.23596,-0.0377 1.48575,-4.16475 6.14804,-5.92335 9.15443,-6.37888 7.67867,-1.16351 15.22205,-0.49865 17.36425,3.85454 3.55772,7.22971 2.16819,0.1673 5.48498,-1.68982 3.16529,-1.77229 7.63652,-2.13543 9.89818,-3.54657 1.2491,-0.77936 -6.00565,-0.45627 -10.41498,1.95963 -4.3206,2.36728 -5.09743,-1.71949 -10.37005,-2.62942 -4.4392,-0.7661 -10.19243,-0.63913 -13.91028,0.73569 2.58348,-5.09611 12.00102,-6.21261 13.77214,-7.5832 4.18126,-3.2357 7.96182,-12.3778 13.51348,-8.22887 5.62496,4.2037 5.60849,6.95084 12.69266,10.38608 1.05747,27.16751 21.82111,38.51977 34.47524,41.61022 -3.75427,5.2269 -12.21958,7.24841 -19.2109,6.34795 3.84228,15.38242 20.77865,39.83769 36.57644,53.82326 27.61486,24.44705 88.02556,21.70921 103.55541,-17.90512 5.70237,-14.54589 6.35648,-33.20215 2.5987,-41.10684 -8.8673,-18.65289 -35.84764,-3.22756 -61.04247,-25.88285 z" /><path
     style="fill:#ffffff;fill-opacity:1;stroke:none"
     id="path3800"
     d="m 137.54737,137.55182 c -1.43179,4.2002 0.34939,7.32555 3.68694,8.30131 4.58013,1.33904 8.90861,-0.65676 9.65942,-4.58283 0.72625,-3.79763 -1.90274,-2.9926 -2.82442,-0.26499 -0.8318,2.46163 -3.75683,3.40399 -5.56561,2.82313 -1.91042,-0.6135 -3.6775,-3.20014 -2.72165,-5.34758 1.50412,-3.37919 -1.11446,-4.21525 -2.23468,-0.92904 z" /><path
     style="fill:#ffffff;fill-opacity:1;stroke:none"
     id="path3802"
     d="m 142.39838,118.54244 c -1.97743,1.58313 -7.00729,0.29581 -4.91224,-2.50371 2.05344,-2.74392 7.9565,0.0665 4.91224,2.50371 z" /><path
     id="path10"
     d="M 419.96,33.21 C 429.03,252.66 383.7,419.16 230.5,530.31 77.31,419.16 31.99,252.66 41.06,33.21 l 189.45,0 189.45,0 m 0.92,-0.95 -0.92,0 -189.45,0 -189.45,0 -0.92,0 -0.04,0.92 c -4.82,116.66 6.28,211.36 33.93,289.52 30.51,86.24 81.51,154.41 155.91,208.39 l 0.56,0.41 0.56,-0.41 C 305.46,477.11 356.46,408.94 386.97,322.7 414.62,244.54 425.72,149.84 420.9,33.18 l -0.04,-0.92 0,0 z" /><path
     style="fill:#000000;stroke:#ffffff;stroke-width:1.5;stroke-miterlimit:4;stroke-dasharray:none;stroke-opacity:1"
     id="path3796"
     d="m 187.53177,190.32388 c 17.1758,25.15618 33.64491,45.27581 69.47011,45.47651 48.62703,0.27243 66.14795,-35.10633 62.45051,-62.56892 -1.47859,8.35307 -1.64525,15.63045 -6.09968,22.21698 -4.09755,6.05884 -10.46335,11.43045 -23.09113,13.23373 -18.5455,2.64834 -27.62972,-4.502 -29.6444,-12.59141 -8.42546,6.38083 -21.51652,10.62914 -36.28526,9.05719 -20.28864,-2.15945 -21.19218,-17.32195 -36.80015,-14.82408 z" /><path
     style="fill:#000000;stroke:#ffffff;stroke-width:1.5;stroke-linejoin:round;stroke-miterlimit:4;stroke-dasharray:none;stroke-opacity:1"
     id="path3798"
     d="m 102.69658,212.0546 c 14.2717,77.40508 40.65881,107.58522 57.5955,122.24895 62.55255,54.15779 126.76121,25.82301 151.53185,-11.58113 22.50261,-33.97938 43.075,-69.44903 44.07598,-140.81492 15.48105,50.20635 -10.71126,95.70953 -7.26728,119.0604 -3.75707,1.82008 -10.86597,7.31141 -15.87401,16.01025 -18.73751,32.54654 -46.18825,70.57835 -113.19816,77.25019 -2.67989,-10.06972 -14.22187,-16.48127 -32.04774,-21.20535 -33.18163,-11.4831 -51.52323,-36.38101 -59.29778,-54.57287 -2.48325,-5.81059 -8.70626,-10.12528 -15.59226,-14.17477 -2.22398,-20.80283 -12.11173,-55.2465 -9.9261,-92.22075 z" /></svg>