<svg xmlns:dc="http://purl.org/dc/elements/1.1/" xmlns:cc="http://creativecommons.org/ns#" xmlns:rdf="http://www.w3.org/1999/02/22-rdf-syntax-ns#" xmlns:svg="http://www.w3.org/2000/svg" xmlns="http://www.w3.org/2000/svg" id="svg2" version="1.1" x="0" y="0" width="400" height="500" viewBox="30.5 31.5 400 500" enable-background="new 30.5 31.5 412 533" xml:space="preserve">
  <metadata id="metadata4">
    <rdf:RDF>
      <cc:Work rdf:about="">
        <dc:format>
          
          
          
          
          
          
          
          image/svg+xml
        
        
        
        
        
        
        
        </dc:format>
        <dc:type rdf:resource="http://purl.org/dc/dcmitype/StillImage"/>
      </cc:Work>
    </rdf:RDF>
  </metadata>
  <defs id="defs6"/>
  <path d="M230.55 531.13C304.87 477.21 355.81 409.11 386.29 322.97 413.93 244.87 425.02 150.22 420.2 33.62l-0.02-0.46-379.82 0-0.02 0.46c-4.81 116.6 6.28 211.24 33.91 289.35 30.48 86.14 81.42 154.24 155.74 208.16l0.28 0.2 0.28-0.2z" id="path4148" fill="#0085ca"/>
  <path id="path10" d="m41.04 33.21c-9.07 219.45 36.25 385.95 189.45 497.1 84.47-61.29 136.15-139.41 163.99-233.97 2.09-7.09 4.04-14.27 5.87-21.54 11.45-45.69 17.77-95.02 19.88-147.94 1.2-30.06 1.05-61.28-0.29-93.65l-189.45 0-189.45 0m-0.92-0.95 0.92 0 189.45 0 189.45 0 0.92 0 0.04 0.92c4.82 116.66-6.28 211.36-33.93 289.52-30.51 86.24-81.51 154.41-155.91 208.39l-0.56 0.41-0.56-0.41C155.54 477.11 104.54 408.94 74.03 322.7 46.38 244.54 35.28 149.84 40.1 33.18l0.04-0.92 0 0z"/>
  <path id="path3947" d="m189.96 69.59 48.5 0 0-22.29 5.71 0 0 22.29 65.62 0c-9.17 8.49-12.63 37.52-10.16 46.18-8.86-7.64-40.15-12.37-55.46-11.77l0 19.79 57.42 0C262 235.34 302.85 284.9 328.8 343.65 302.56 333.4 275.57 325.54 246.77 321l0 30.49c36.87 1.53 68.73 3.2 102.35 1.07-9.75 18.61-21.19 36.22-37.63 50.82-65.86 0.97-138.39 4.05-191.84-15.67-6.77-24.36 1.3-84.22 9.28-98.95 2-3.7 5.73-2.65 8.37 0.16-4.98 11.17-4.33 28.87-2.5 43.69 36.42 18.64 64.1 16.58 100.54 18.39l0-31.21c-15.6-1.64-30.97-3.67-47.07 13.86-24.59-64.97-58.05-135.98-11.5-209.85l61.7 0 0-19.79c-25.82-1.01-51.33 1.05-57.94 6.94-5.09-9.89 3.92-36 9.44-41.36z" style="fill-rule:evenodd;fill:#fff;stroke:#000"/>
</svg>
