<svg xmlns:dc="http://purl.org/dc/elements/1.1/" xmlns:cc="http://creativecommons.org/ns#" xmlns:rdf="http://www.w3.org/1999/02/22-rdf-syntax-ns#" xmlns:svg="http://www.w3.org/2000/svg" xmlns="http://www.w3.org/2000/svg" xml:space="preserve" enable-background="new 30.5 31.5 412 533" viewBox="30.5 31.5 400 500" height="500" width="400" y="0" x="0" version="1.1" id="svg2">
  <metadata id="metadata4">
    <rdf:RDF>
      <cc:Work rdf:about="">
        <dc:format>
          
          image/svg+xml
        
        </dc:format>
        <dc:type rdf:resource="http://purl.org/dc/dcmitype/StillImage"/>
      </cc:Work>
    </rdf:RDF>
  </metadata>
  <defs id="defs6"/>
  <path d="M230.55 531.13C304.87 477.21 355.81 409.11 386.29 322.97 413.93 244.87 425.02 150.22 420.2 33.62l-0.02-0.46-379.82 0-0.02 0.46c-4.81 116.6 6.28 211.24 33.91 289.35 30.48 86.14 81.42 154.24 155.74 208.16l0.28 0.2 0.28-0.2z" id="path8" fill="#32ac60"/>
  <path d="m41.04 33.21c-9.07 219.45 36.25 385.95 189.45 497.1 84.47-61.29 136.15-139.41 163.99-233.97 2.09-7.09 4.04-14.27 5.87-21.54 11.45-45.69 17.77-95.02 19.88-147.94 1.2-30.06 1.05-61.28-0.29-93.65l-189.45 0-189.45 0m-0.92-0.95 0.92 0 189.45 0 189.45 0 0.92 0 0.04 0.92c4.82 116.66-6.28 211.36-33.93 289.52-30.51 86.24-81.51 154.41-155.91 208.39l-0.56 0.41-0.56-0.41C155.54 477.11 104.54 408.94 74.03 322.7 46.38 244.54 35.28 149.84 40.1 33.18l0.04-0.92 0 0z" id="path10"/>
  <path id="path4248" d="m235.66 493.15 0-17.56 6.62-4.31-1.85-19.41c-0.56-5.88 2.73-11.17 7.24-15.71 16.4-16.52 31.35-35.08 44.82-53.91 3.69-5.16 0.65-8.47-2.46-8.47l-9.4 0c-5.31 0-7.58-3.88-4.47-6.62 21.82-19.22 41.66-40.02 53.14-64.07 2.82-5.92 2.13-16.31-9.55-13.55l-13.71 3.23c-4.63 1.09-7.07-3.67-4.93-7.7 16.28-30.63 41.8-55.02 48.67-92.1 2.43-13.13-3.19-24.67-16.33-19.71-7.72 2.91-14.11 7.92-20.64 12.01-7.89 4.95-13.85 2.51-11.09-10.32 3.16-14.7 11.53-27.2 14.79-43.43 2.9-14.45-11.68-27.5-29.42-23.1-5.95 1.47-10.77 4.45-16.02 7.86-0.09-9.88-0.47-20.59-5.39-27.42-3.01-4.18-9.03-5.65-15.71-6.47-1.59-0.19-1.89-1.86-2.16-3.85C246.17 65.97 239.31 62.66 230.5 61.43c-8.81 1.23-15.67 4.54-17.33 17.1-0.26 1.99-0.57 3.66-2.16 3.85-6.68 0.81-12.7 2.29-15.71 6.47-4.92 6.82-5.3 17.53-5.39 27.42-5.25-3.4-10.07-6.38-16.02-7.86-17.74-4.4-32.32 8.65-29.42 23.1 3.26 16.23 11.63 28.73 14.79 43.43 2.76 12.83-3.2 15.27-11.09 10.32-6.53-4.1-12.92-9.1-20.64-12.01-13.14-4.95-18.76 6.59-16.33 19.71 6.87 37.09 32.39 61.48 48.67 92.1 2.14 4.03-0.29 8.79-4.93 7.7l-13.71-3.23c-11.68-2.76-12.37 7.64-9.55 13.55 11.48 24.06 31.32 44.85 53.14 64.07 3.12 2.75 0.85 6.62-4.47 6.62l-9.4 0c-3.11 0-6.16 3.31-2.46 8.47 13.47 18.83 28.42 37.39 44.82 53.91 4.51 4.54 7.8 9.84 7.24 15.71l-1.85 19.41 6.62 4.31 0 17.56c3.44 0 6.88 0 10.33 0z" style="fill-rule:evenodd;fill:#ffe000;stroke-linejoin:round;stroke:#000"/>
  <path id="path4264" d="m230.5 93.46 0 362.26" style="fill:none;stroke-linecap:round;stroke:#000"/>
  <path id="path4268" d="M159.12 313.87 230.5 383.02" style="fill:none;stroke-linecap:round;stroke:#000"/>
  <path id="path4270" d="M139.86 208.67 230.5 317.56 321.14 208.67" style="fill:none;stroke-linecap:round;stroke:#000"/>
  <path d="M253.68 101.47 230.5 133.82 207.32 101.47" id="path4278" style="fill:none;stroke-linecap:round;stroke:#000"/>
  <path d="M288.95 141.83 230.5 231.01 172.05 141.83" id="path4280" style="fill:none;stroke-linecap:round;stroke:#000"/>
  <path d="M301.88 313.87 230.5 383.02" id="path4290" style="fill:none;stroke:#000"/>
  <path d="M262.15 394.11 230.5 429.38 198.85 394.11" id="path4292" style="fill:none;stroke:#000"/>
</svg>
