<svg xmlns:dc="http://purl.org/dc/elements/1.1/" xmlns:cc="http://creativecommons.org/ns#" xmlns:rdf="http://www.w3.org/1999/02/22-rdf-syntax-ns#" xmlns:svg="http://www.w3.org/2000/svg" xmlns="http://www.w3.org/2000/svg" xml:space="preserve" enable-background="new 30.5 31.5 412 533" viewBox="30.5 31.5 420 500" height="500" width="420" y="0" x="0" version="1.1" id="svg2">
  <metadata id="metadata4">
    <rdf:RDF>
      <cc:Work rdf:about="">
        <dc:format>
          
          
          
          
          
          image/svg+xml
        
        
        
        
        
        </dc:format>
        <dc:type rdf:resource="http://purl.org/dc/dcmitype/StillImage"/>
      </cc:Work>
    </rdf:RDF>
  </metadata>
  <defs id="defs6"/>
  <path d="m440 32.7c2.09 102.46-3.38 187.49-43.93 296.59C368.02 404.77 321.86 474.06 240.5 530.88 159.14 474.06 112.98 404.77 84.93 329.29 44.38 220.19 38.91 135.16 41 32.7c133 0.29 266 0 399 0z" id="path4218" style="fill-rule:evenodd;fill:#ffe000"/>
  <path id="path4224" d="m440 32.7c2.09 102.46-3.38 187.49-43.93 296.59C368.02 404.77 321.86 474.06 240.5 530.88 159.14 474.06 112.98 404.77 84.93 329.29 44.38 220.19 38.91 135.16 41 32.7c133 0.29 266 0 399 0z" style="fill:none;stroke:#000"/>
  <path id="path4576" d="m240.53 200.55c-13.49-0.02-31.49-7.22-40.24-13.06-1.32-0.88-3.17-0.05-3.33 0.21-0.38 0.65-0.88 2.09 0.11 3.33 6.57 8.2 21 29.77 26.84 41.36 6.03 11.95 13.04 45.97 13.74 60.55 0.08 1.7 1.05 2.5 2.86 2.5 1.81 0 2.78-0.8 2.86-2.5 0.7-14.57 7.75-48.6 13.79-60.55 5.85-11.58 20.26-33.15 26.84-41.36 0.99-1.24 0.49-2.68 0.11-3.33-0.1-0.17-0.84-0.58-1.72-0.63-0.53-0.03-1.12 0.09-1.61 0.41-8.74 5.84-26.75 13.04-40.24 13.06zm63.37-145.74c9.52 0.21 18.76 8.37 23.46 21.48 12.48 34.8-23.53 67.78-25.74 82.39 24.29-5.15 34.91-65.24 54.46-91.08 11.52-15.21 24.2-9.62 37.14-8.01 5.44 0.68 18.17 4.73 21.9 1.61 2.7-2.25 5.68-5.25 8.27-3.02 1.99 2.78-1.21 5.51-3.69 8.01-3.43 3.45-0.51 16.47-0.31 21.95 0.47 13.03 3.95 24.75-11.23 36.31-26.6 20.25-81.17 32.78-89.88 51.23 15.6 2.62 49.99-34.51 82.18-16.33 18.72 10.56 16.94 34.42 1.04 44.83-8.02 5.25-16.56 8.27-23.83 8.53-15.19 0.53-23.6 2.21-12.69 14.72 2.99 3.43 8.58 4.72 13.16 4.74-5.23 6-27.31 2.95-34.38 0.84-14-4.19-25.07-22.51-14.15-28.25 10.62-5.57 21.98-11.99 19.45-19.09-3.92-11.01-23.14-1.77-38.12 4.22 7.69 12.78-3.56 16.5-12.74 8.32-6.45 4.61-24.04 34.38-27.67 43.79-1.87 4.85-12.47 36.92-11.45 49.57 17.21-2.13 20.42 15.24 4.74 18.41-1.64 16.64 18.43 24.45 27.31 24.76 15.07 0.53 12.12-24.8 8.84-37.24-3.38-12.79-1.14-28.06 14.04-28.4 13.07-0.29 24.84 18.27 22.52 27.57-3.33-3.61-6.51-9.35-12.11-7.33-16.75 6.03 5.07 36.86 15.65 49.26 5.07 5.93 7.01 23.23 5.15 33.34-4.6 25.08-16.34 38.93-38.18 31.52-35.25-11.97-39.15-67.6-54.31-78.28-12.5 18.74 31.66 72.01 30.16 110.27-0.8 20.46-10.94 34.99-21.59 44.06-4.48 3.82-16.92 10.97-17.17 16.17-0.18 3.77 0 8.3-3.65 8.73-3.65-0.43-3.41-4.97-3.59-8.73-0.25-5.21-12.73-12.36-17.21-16.17-10.65-9.07-20.74-23.6-21.54-44.06-1.48-38.26 42.66-91.53 30.16-110.27-15.15 10.68-19.11 66.32-54.35 78.28-21.84 7.41-33.53-6.44-38.12-31.52-1.85-10.11 0.03-27.4 5.1-33.34 10.59-12.41 32.46-43.23 15.71-49.26-5.6-2.01-8.78 3.72-12.11 7.33-2.32-9.29 9.45-27.87 22.52-27.57 15.19 0.34 17.42 15.6 14.04 28.4-3.28 12.44-6.23 37.77 8.84 37.24 8.87-0.31 28.9-8.12 27.26-24.76-15.69-3.17-12.43-20.55 4.79-18.41 1.02-12.65-9.57-44.72-11.45-49.57-3.63-9.41-21.22-39.18-27.67-43.79-9.19 8.17-20.44 4.46-12.74-8.32-14.98-5.98-34.26-15.23-38.18-4.22-2.53 7.1 8.83 13.51 19.45 19.09 10.92 5.74-0.15 24.06-14.15 28.25-7.07 2.11-29.1 5.17-34.33-0.84 4.58-0.02 10.17-1.31 13.16-4.74 10.91-12.51 2.45-14.19-12.74-14.72-7.27-0.26-15.75-3.28-23.77-8.53C63.66 193.76 61.87 169.91 80.6 159.35 112.8 141.18 147.19 178.3 162.78 175.68 154.07 157.23 99.45 144.71 72.86 124.45 57.68 112.9 61.14 101.18 61.62 88.15 61.82 82.67 64.79 69.65 61.36 66.2 58.88 63.7 55.62 60.97 57.62 58.19c2.59-2.23 5.57 0.77 8.27 3.02 3.73 3.11 16.51-0.93 21.95-1.61 12.94-1.6 25.58-7.2 37.09 8.01 19.55 25.84 30.22 85.93 54.51 91.08-2.21-14.61-38.28-47.59-25.8-82.39 4.71-13.12 13.98-21.27 23.51-21.48 7.41-0.17 14.98 4.5 20.75 15.4 4.48 8.47 3.84 15.25 5.35 22.36 3.01 14.13 8.25 22 19.77 10.04 3.15-3.27 5.48-5.89 5.1-10.45 4.51 8.72 2.63 19.46 1.72 27.46-1.66 14.51-17.94 26.34-24.6 15.97-6.48-10.09-13.21-15.63-19.14-10.98-9.86 7.75 1.23 24.55 8.69 37.03 12.07-8.78 16.76 2.1 9.41 11.97 5.08 5.92 15.81 12.84 36.31 12.85 20.54 0 31.27-6.92 36.35-12.85-7.35-9.86-2.64-20.74 9.41-11.97 7.46-12.48 18.55-29.28 8.69-37.03-5.93-4.66-12.71 0.88-19.19 10.98-6.66 10.38-22.94-1.45-24.6-15.97-0.91-8-2.8-18.75 1.72-27.46-0.38 4.57 1.95 7.18 5.1 10.45 11.52 11.96 16.75 4.09 19.77-10.04 1.51-7.11 0.92-13.89 5.41-22.36 5.77-10.9 13.34-15.56 20.75-15.4z" style="fill:#e00e00;stroke-width:0.98;stroke:#000"/>
</svg>
