<?xml version="1.0" encoding="UTF-8" standalone="no"?>
<!-- Created with Inkscape (http://www.inkscape.org/) -->

<svg
   xmlns:svg="http://www.w3.org/2000/svg"
   xmlns="http://www.w3.org/2000/svg"
   version="1.1"
   width="390"
   height="480"
   id="svg4228">
  <defs
     id="defs4232" />
  <path
     d="M 0.00351796,0.00350638 390.01124,-0.03065059 C 389.99631,270.00335 389.99205,273.98676 389.99209,273.99895 390.99231,548.63218 0.01014203,548.63782 0.0068261,273.99819 L 0.00351796,0.00350638 z"
     id="path2902"
     style="fill:#000000;fill-opacity:1;stroke:none" />
  <path
     d="m 225.10183,267.41835 -7.38116,-44.86942"
     id="path4058"
     style="fill:none;stroke:#f2f2f2;stroke-width:1.61765635;stroke-linecap:butt;stroke-linejoin:miter;stroke-miterlimit:4;stroke-opacity:1;stroke-dasharray:none" />
  <path
     d="m 175.18632,42.1189 c -2.32721,3.747788 -5.32654,10.280404 -3.05223,14.040031 7.50447,12.405137 33.19403,-7.026834 45.41651,-3.052176 2.42514,-2.901152 5.30666,-12.321523 -2.31969,-13.063339 -16.22108,-1.577849 -32.82755,17.410903 -40.04459,2.075484 z"
     id="path3915"
     style="fill:#e6e6e6;stroke:#000000;stroke-width:1.07843757px;stroke-linecap:butt;stroke-linejoin:miter;stroke-opacity:1" />
  <path
     d="m 174.88107,39.982366 c -1.45577,2.526934 -2.98036,4.263041 -4.76141,9.553328 -10.44863,1.620333 -32.57133,2.322921 -39.25103,-8.149326 7.96096,2.636888 23.11554,6.933115 26.79815,2.502794 -6.97094,0.579171 -15.00318,-1.535938 -16.84803,-3.967833 13.3993,2.736607 29.00997,-3.941326 34.06232,0.06102 z"
     id="path3917"
     style="fill:#e6e6e6;stroke:none" />
  <path
     d="m 221.2084,49.66502 c 0.69116,7.109004 -1.1434,11.619855 -4.04887,14.708052 -2.03971,2.168063 -4.83071,1.818118 -6.7336,1.787627 l -0.0509,7.482757 -4.53841,0.006 c 0.0227,-5.253102 -0.2256,-14.216234 -0.56981,-23.469038 -0.1234,-3.316482 4.57897,-3.440256 5.69767,-1.642045 1.2289,1.97527 3.80577,1.7209 5.23416,-0.422345 0.7475,-1.121621 4.41556,-1.570911 5.00897,1.548235 z"
     id="path3919"
     style="fill:#e6e6e6;stroke:#000000;stroke-width:1.50981319;stroke-linecap:butt;stroke-linejoin:miter;stroke-miterlimit:4;stroke-opacity:1;stroke-dasharray:none" />
  <path
     d="m 320.10394,72.823861 c -6.12057,9.841809 1.75911,20.898129 1.64519,25.534789 -0.008,0.35257 0.9362,-0.81107 2.15586,-1.68568 1.07081,-0.76803 2.48142,-1.22707 2.40948,-1.50719 -2.33747,-9.095172 -7.72785,-7.896256 -6.21053,-22.341919 z"
     id="path3923"
     style="fill:#e6e6e6;stroke:none" />
  <path
     d="m 309.11616,91.25909 c -0.88529,11.71787 5.35023,9.89226 6.5495,19.68046 0.0765,0.62792 -1.30523,0.24035 -2.7395,0.40128 -1.5034,0.16878 -2.67521,0.95126 -2.63228,0.48382 0.57029,-6.21041 -5.72004,-12.66353 -1.17772,-20.56556 z"
     id="path3925"
     style="fill:#e6e6e6;stroke:none" />
  <path
     d="m 315.81042,113.045 c -0.16221,-1.12654 -5.44782,-0.49463 -5.66185,0.59517 -2.87569,14.64421 1.27459,18.35158 9.46277,25.7675 0.519,0.47011 4.34001,-4.51982 8.11256,-8.85236 4.9355,-5.66785 10.40944,-11.23044 9.41127,-11.46041 -10.78261,-2.48349 -10.17051,-15.10573 -10.01115,-22.58608 0.0293,-1.35247 -5.48517,3.86107 -5.79921,5.18871 -2.79038,11.79815 5.46198,14.37064 3.60158,26.6761 -11.49146,-3.24484 -8.45582,-10.74309 -9.11597,-15.32863 z"
     id="path3927"
     style="fill:#e6e6e6;stroke:none" />
  <path
     d="m 337.65302,121.25297 c 0.14846,-0.64948 -3.65668,4.46304 -8.20887,9.48869 -4.72912,5.22095 -9.46864,10.71557 -9.59646,11.62946 -1.51859,10.85133 6.32157,18.63139 13.94204,20.84834 l 8.80559,-24.25836 c -6.00374,-2.25285 -6.21959,-12.12179 -4.9423,-17.70813 z"
     id="path3929"
     style="fill:#e6e6e6;stroke:none" />
  <path
     d="m 344.23548,139.56539 c -8.06013,18.29001 -14.00363,43.07833 -20.50307,64.05605 l 4.7913,-1.98558 c 2.5938,-8.05342 4.78235,-17.9798 8.46017,-24.94907 13.42103,0.74139 16.799,-1.45288 23.39507,-29.95609 -10.39913,-1.25747 -13.22685,-5.01425 -16.14347,-7.16531 z"
     id="path3931"
     style="fill:#e6e6e6;stroke:none" />
  <path
     d="m 347.51605,141.01201 c -1.79975,-1.5866 3.40339,-9.13021 6.30201,-6.88535 2.41345,1.86921 9.51903,6.47136 5.99988,10.11543 -2.47323,2.56089 -9.26608,-0.55389 -12.30189,-3.23008 z"
     id="path3933"
     style="fill:#e6e6e6;stroke:none" />
  <path
     d="m 349.3602,133.15567 c 1.08955,0.73384 -2.74214,5.84137 -3.58793,4.80719 -2.71234,-3.31678 -2.86908,-4.90274 -2.28788,-5.84877 0.47258,-0.769 2.96733,-0.91698 5.87581,1.04158 z"
     id="path3935"
     style="fill:#e6e6e6;stroke:none" />
  <path
     d="m 165.44865,282.52582 8.98896,-45.98079"
     id="path4050"
     style="fill:#ececec;stroke:#f2f2f2;stroke-width:1.61765635;stroke-linecap:butt;stroke-linejoin:miter;stroke-miterlimit:4;stroke-opacity:1;stroke-dasharray:none" />
  <path
     d="m 184.18199,281.23096 7.2516,-51.2793"
     id="path4052"
     style="fill:none;stroke:#f2f2f2;stroke-width:1.61765635;stroke-linecap:butt;stroke-linejoin:miter;stroke-miterlimit:4;stroke-opacity:1;stroke-dasharray:none" />
  <path
     d="m 243.05817,253.51944 -7.25159,-34.53153"
     id="path4060"
     style="fill:none;stroke:#f2f2f2;stroke-width:1.61765635;stroke-linecap:butt;stroke-linejoin:miter;stroke-miterlimit:4;stroke-opacity:1;stroke-dasharray:none" />
  <path
     d="m 15.581918,260.85733 c -2.26374,-0.56845 -3.267248,4.94005 -1.467589,5.61143 16.855909,6.2878 36.825945,16.40929 47.687606,27.44121 10.830708,11.00031 16.388563,51.58426 57.834675,59.65368 42.23291,8.22251 103.85168,4.02306 160.42275,5.86023 27.19486,0.88314 53.21197,-55.06056 47.40488,-65.00558 -2.57148,-4.40377 0.32656,-21.6322 2.35433,-28.98553 7.628,-5.80737 10.91418,-17.00297 12.60404,-25.55336 14.14736,-5.86111 19.8578,-35.7382 22.48864,-43.5097 l -94.65943,34.18624 c -2.2187,10.91364 -8.58779,15.73922 -15.1939,17.61105 -14.96367,4.23999 -30.17001,15.83279 -36.43069,29.00651 C 167.25788,288.20005 113.5842,275.13022 105.8818,272.33907 99.82741,270.1452 94.976656,267.2844 92.759837,262.32491 50.872412,253.2605 60.724559,265.2636 54.429861,270.61249 z"
     id="path3937"
     style="fill:#e6e6e6;stroke:#000000;stroke-width:1.61765635;stroke-linecap:butt;stroke-linejoin:miter;stroke-miterlimit:4;stroke-opacity:1;stroke-dasharray:none" />
  <path
     d="m 80.67381,283.90711 c 48.73412,25.14139 160.94556,23.68564 249.36062,-18.6902"
     id="path3991"
     style="fill:none;stroke:#000000;stroke-width:1.61765635;stroke-linecap:round;stroke-linejoin:miter;stroke-miterlimit:4;stroke-opacity:1;stroke-dasharray:none" />
  <path
     d="m 101.57636,292.15371 c -0.99213,-2.43396 2.73795,-3.61826 3.65394,-1.34291 l 26.73714,66.41544 c 4.67506,11.6131 7.61212,7.87198 17.94685,38.21337 l -6.83688,0 c -15.49445,-28.26527 -8.63559,-22.65775 -14.52847,-37.11455 z"
     id="path3766"
     style="fill:#e6e6e6;stroke:#000000;stroke-width:1.40197003;stroke-linecap:butt;stroke-linejoin:miter;stroke-miterlimit:4;stroke-opacity:1;stroke-dasharray:none" />
  <path
     d="M 273.58875,221.7094 C 219.51261,166.99771 236.45304,125.9834 248.28496,103.45517 202.11116,88.118558 122.59411,167.07586 131.8454,224.63945 l 4.39514,27.34749 c 46.88666,-19.08369 92.29111,-40.716 137.34821,-30.27754 z"
     id="path3943"
     style="fill:#e6e6e6;stroke:#000000;stroke-width:1.07843757px;stroke-linecap:butt;stroke-linejoin:miter;stroke-opacity:1" />
  <path
     d="m 121.02895,297.52549 c -1.04625,-2.4323 2.87542,-3.61719 3.84059,-1.34291 l 25.90499,61.04366 c 4.92607,11.60806 8.00081,7.87198 18.86344,38.21337 l -7.18613,0 c -16.28568,-28.26527 -9.05563,-22.6667 -15.27031,-37.11455 z"
     id="path3766-1"
     style="fill:#e6e6e6;stroke:#000000;stroke-width:1.40197003;stroke-linecap:butt;stroke-linejoin:miter;stroke-miterlimit:4;stroke-opacity:1;stroke-dasharray:none" />
  <path
     d="m 140.68497,301.06604 c -1.03504,-2.41589 2.69929,-3.60232 3.6539,-1.34291 l 24.29539,57.50311 c 4.87227,11.53185 7.61212,7.87198 17.94685,38.21337 l -6.83688,0 c -15.49445,-28.26527 -8.3805,-22.76427 -14.52834,-37.11455 z"
     id="path3766-7"
     style="fill:#e6e6e6;stroke:#000000;stroke-width:1.40197003;stroke-linecap:butt;stroke-linejoin:miter;stroke-miterlimit:4;stroke-opacity:1;stroke-dasharray:none" />
  <path
     d="m 160.38172,303.01945 c -1.07614,-2.43499 2.9812,-3.62017 3.97274,-1.34291 l 24.1861,55.5497 c 5.06053,11.62296 8.27611,7.87198 19.51235,38.21337 l -7.43321,0 c -16.8461,-28.26527 -9.40383,-22.65112 -15.79586,-37.11455 z"
     id="path3766-4"
     style="fill:#e6e6e6;stroke:#000000;stroke-width:1.40197003;stroke-linecap:butt;stroke-linejoin:miter;stroke-miterlimit:4;stroke-opacity:1;stroke-dasharray:none" />
  <path
     d="m 178.81688,301.79859 c -1.07952,-2.42879 2.9378,-3.6143 3.93291,-1.34291 l 24.871,56.77056 c 5.07869,11.59277 8.1931,7.87198 19.31657,38.21337 l -7.3587,0 c -16.67709,-28.26527 -9.22515,-22.68838 -15.63728,-37.11455 z"
     id="path3766-0"
     style="fill:#e6e6e6;stroke:#000000;stroke-width:1.40197003;stroke-linecap:butt;stroke-linejoin:miter;stroke-miterlimit:4;stroke-opacity:1;stroke-dasharray:none" />
  <path
     d="m 196.64167,300.69977 c -1.12269,-2.4111 2.91358,-3.59791 3.9493,-1.34291 l 26.57824,57.86938 c 5.28582,11.509 8.22728,7.87198 19.39718,38.21337 l -7.38939,0 c -16.74671,-28.26527 -9.03391,-22.79343 -15.70248,-37.11455 z"
     id="path3766-9"
     style="fill:#e6e6e6;stroke:#000000;stroke-width:1.40197003;stroke-linecap:butt;stroke-linejoin:miter;stroke-miterlimit:4;stroke-opacity:1;stroke-dasharray:none" />
  <path
     d="m 213.40837,298.50226 c -1.15349,-2.41702 3.05106,-3.60326 4.11523,-1.34291 l 28.28158,60.06689 c 5.4317,11.53626 8.57325,7.87198 20.21282,38.21337 l -7.7001,0 c -17.45082,-28.26527 -9.5119,-22.7579 -16.36277,-37.11455 z"
     id="path3766-48"
     style="fill:#e6e6e6;stroke:#000000;stroke-width:1.40197003;stroke-linecap:butt;stroke-linejoin:miter;stroke-miterlimit:4;stroke-opacity:1;stroke-dasharray:none" />
  <path
     d="m 229.68662,296.06053 c -1.17358,-2.41916 3.12474,-3.60494 4.20818,-1.34304 l 29.93735,62.50875 c 5.52925,11.5448 8.76657,7.87198 20.66867,38.21337 l -7.87374,0 c -17.84435,-28.26527 -9.76055,-22.74583 -16.73186,-37.11455 z"
     id="path3766-8"
     style="fill:#e6e6e6;stroke:#000000;stroke-width:1.40197003;stroke-linecap:butt;stroke-linejoin:miter;stroke-miterlimit:4;stroke-opacity:1;stroke-dasharray:none" />
  <path
     d="m 91.512929,171.48966 c 31.657531,22.0471 38.991381,57.68589 53.005851,92.71713 -41.58132,-36.97844 -66.342705,-13.65423 -78.559172,-9.84146 z"
     id="path4092"
     style="fill:#f2f2f2;stroke:none" />
  <path
     d="m 103.55093,99.50884 0.77696,-37.639304 c 0.0275,-1.331942 2.59796,-1.31677 2.58986,0.431644 l -0.17266,37.29408 c -0.21131,1.8913 -3.20779,0.70533 -3.19416,-0.0865 z"
     id="path3971"
     style="fill:#e6e6e6;stroke:#000000;stroke-width:1.07843757px;stroke-linecap:butt;stroke-linejoin:miter;stroke-opacity:1" />
  <path
     d="m 84.10909,86.91412 c 0.480228,-5.017052 -1.181147,-8.75617 -5.118697,-12.138429 -6.247326,-5.366319 0.0542,-13.728211 9.970968,-12.56084 -6.918218,7.642031 2.01603,20.11349 -4.852271,24.699269 z"
     id="path3973"
     style="fill:#e6e6e6;stroke:none" />
  <path
     d="m 80.129412,78.811561 c 1.837217,0.008 3.518029,9.389962 1.048488,9.237227 C 58.199617,86.62716 48.817421,63.193564 47.868871,57.38045 50.821515,65.682765 60.284224,74.214085 67.810962,77.408727 59.845312,69.923743 54.985485,62.286597 54.887118,54.013626 56.822321,66.254473 70.959041,78.768774 80.129412,78.811561 z"
     id="path3975"
     style="fill:#e6e6e6;stroke:none" />
  <path
     d="m 87.071725,73.63945 c -0.392212,-2.040834 -1.516116,-10.331865 1.680396,-11.978494 8.999187,1.866718 8.68658,15.48213 21.811609,10.145682 0.67919,-0.276135 -0.32092,-2.115298 -0.57244,-0.76846 -0.19514,1.044259 -2.09206,1.046182 -2.61601,-0.619465 -1.39978,-4.449795 4.55,-5.329926 4.77225,-2.20779 0.0899,1.263145 -0.27452,1.434084 0.57456,2.85314 1.99685,3.337083 4.31555,10.160701 -2.47832,12.828017 C 95.384582,89.725889 95.372804,76.712582 87.071725,73.63945 z"
     id="path3977"
     style="fill:#e6e6e6;stroke:#000000;stroke-width:1.50981319;stroke-miterlimit:4;stroke-opacity:1;stroke-dasharray:none" />
  <path
     d="m 269.47482,311.18704 c 14.46229,-3.66443 24.36381,-11.9644 30.73309,-17.87005"
     id="path3981"
     style="fill:none;stroke:#000000;stroke-width:1.83334422;stroke-linecap:round;stroke-linejoin:miter;stroke-miterlimit:4;stroke-opacity:1;stroke-dasharray:none" />
  <path
     d="m 267.48924,336.2224 c 7.95903,-4.8644 16.32846,-11.16496 25.20807,-19.25134"
     id="path3983"
     style="fill:none;stroke:#000000;stroke-width:1.83334422;stroke-linecap:round;stroke-linejoin:miter;stroke-miterlimit:4;stroke-opacity:1;stroke-dasharray:none" />
  <path
     d="M 104.41422,310.84175 C 97.280463,307.6294 89.504691,302.06792 84.817592,296.94272"
     id="path3985"
     style="fill:none;stroke:#000000;stroke-width:1.83334422;stroke-linecap:round;stroke-linejoin:miter;stroke-miterlimit:4;stroke-opacity:1;stroke-dasharray:none" />
  <path
     d="m 91.378573,314.29491 c 3.44071,6.18248 12.955877,12.13116 19.337627,14.58948"
     id="path3987"
     style="fill:none;stroke:#000000;stroke-width:1.83334422;stroke-linecap:round;stroke-linejoin:miter;stroke-miterlimit:4;stroke-opacity:1;stroke-dasharray:none" />
  <path
     d="m 42.991299,268.02263 c 0.218317,-1.21967 10.466523,0.18735 9.884644,2.71587 l -3.064666,13.31713 c -0.447048,1.94263 -9.225814,-2.59112 -8.805541,-4.93931 z"
     id="path3989"
     style="fill:#e6e6e6;stroke:#000000;stroke-width:1.61765635;stroke-linecap:butt;stroke-linejoin:miter;stroke-miterlimit:4;stroke-opacity:1;stroke-dasharray:none" />
  <path
     d="m 218.67037,277.17351 c 45.37308,-7.53471 85.92194,-24.0341 123.77382,-37.2941"
     id="path3993"
     style="fill:none;stroke:#000000;stroke-width:1.61765635;stroke-linecap:round;stroke-linejoin:miter;stroke-miterlimit:4;stroke-opacity:1;stroke-dasharray:none" />
  <path
     d="m 278.71199,235.99468 18.56063,-7.2516 -2.76244,18.12905 -18.73334,6.64731 z"
     id="path3907"
     style="fill:none;stroke:#000000;stroke-width:1.50981319;stroke-linecap:butt;stroke-linejoin:miter;stroke-miterlimit:4;stroke-opacity:1;stroke-dasharray:none" />
  <path
     d="m 269.56111,224.59922 c -2.98157,1.12814 -1.59365,6.69721 1.89928,5.43873 l 94.22785,-33.75453 c 2.92544,-1.0479 0.81482,-8.36002 -2.115,-7.2516 z"
     id="path3939"
     style="fill:#e6e6e6;stroke:#000000;stroke-width:1.07843757px;stroke-linecap:butt;stroke-linejoin:miter;stroke-opacity:1" />
  <path
     d="m 317.55996,222.18206 18.56063,-7.2516 -2.76244,18.12905 -18.73334,6.64731 z"
     id="path3907-7"
     style="fill:none;stroke:#000000;stroke-width:1.50981319;stroke-linecap:butt;stroke-linejoin:miter;stroke-miterlimit:4;stroke-opacity:1;stroke-dasharray:none" />
  <path
     d="m 324.1857,268.02263 c -2.57414,29.88199 -25.24124,66.58229 -44.78313,85.63812"
     id="path3995"
     style="fill:none;stroke:#000000;stroke-width:1.83334422;stroke-linecap:butt;stroke-linejoin:miter;stroke-miterlimit:4;stroke-opacity:1;stroke-dasharray:none" />
  <path
     d="m 317.96747,292.61153 2.6248,-7.66096 7.0811,-1.70919 c 2.93232,-0.70779 4.65269,6.58458 0.73254,7.56942 -4.37389,1.09873 -7.15581,1.64075 -10.43844,1.80073 z"
     id="path3997"
     style="fill:#e6e6e6;stroke:#000000;stroke-width:1.40197003;stroke-linecap:butt;stroke-linejoin:miter;stroke-miterlimit:4;stroke-opacity:1;stroke-dasharray:none" />
  <path
     d="m 154.78297,297.08425 3.54055,0.48832 c 10.09628,-72.63987 25.34525,-98.29669 37.73969,-122.62272 22.74861,-44.64729 62.31782,-79.08058 96.32697,-116.898558 l -0.85459,-4.761414 C 258.13867,93.03435 223.1379,113.35276 189.34851,177.75785 174.491,206.07731 163.75264,226.0516 154.78297,297.08425 z"
     id="path3999"
     style="fill:#e6e6e6;stroke:#000000;stroke-width:1.61765635;stroke-linecap:butt;stroke-linejoin:miter;stroke-miterlimit:4;stroke-opacity:1;stroke-dasharray:none" />
  <path
     d="m 205.01951,93.84424 -17.09305,77.95494 c -10.74939,10.99826 -9.14348,21.18876 -7.42431,31.94154 -16.41424,8.55421 -20.91605,28.99895 -13.49963,43.90828 -19.42704,10.15438 -15.00178,38.9322 -11.98126,52.77406 C 78.958712,207.26874 161.32434,115.349 205.01951,93.84424 z"
     id="path3921"
     style="fill:#e6e6e6;stroke:#000000;stroke-width:1.61765635;stroke-linecap:butt;stroke-linejoin:miter;stroke-miterlimit:4;stroke-opacity:1;stroke-dasharray:none" />
  <path
     d="m 187.64421,172.36128 16.68908,-77.44261 c 22.74143,-15.722187 58.58566,-33.089111 80.92652,-35.15383 -4.48513,2.953169 -15.43763,6.914457 -14.45312,19.806251 -21.16791,0.179818 -23.68332,18.137139 -22.84508,25.225969 -25.86506,3.76409 -26.37357,19.59481 -24.69079,30.68507 -13.31195,0.96334 -31.56428,19.72551 -25.68629,32.76206 -6.08289,-0.36752 -7.40581,1.83447 -9.94032,4.11709 z"
     id="path3945"
     style="fill:#e6e6e6;stroke:#000000;stroke-width:1.61765635;stroke-linecap:butt;stroke-linejoin:miter;stroke-miterlimit:4;stroke-opacity:1;stroke-dasharray:none" />
  <path
     d="m 198.64203,280.28137 10.02949,-1.31544 1.23641,-196.46382 c 0.0128,-1.974848 -4.20228,-2.049143 -4.31644,0 -3.67851,66.04231 -4.58983,131.23286 -6.94946,197.77926 z"
     id="path3947"
     style="fill:#e6e6e6;stroke:#000000;stroke-width:1.61765635;stroke-linecap:butt;stroke-linejoin:miter;stroke-miterlimit:4;stroke-opacity:1;stroke-dasharray:none" />
  <path
     d="m 200.1498,73.672585 15.58233,-0.08624 c 0.18478,0.10263 -0.0763,8.013459 -2.07186,9.927818 -1.65398,1.586839 -9.87698,1.776439 -11.52489,-0.04316 -2.31052,-2.551241 -1.86912,-6.562815 -1.98558,-9.798301 z"
     id="path3951-2"
     style="fill:#e6e6e6;stroke:#000000;stroke-width:1.07843757px;stroke-linecap:butt;stroke-linejoin:miter;stroke-opacity:1" />
  <path
     d="m 321.79246,84.14151 a 4.4434,4.8962307 0 1 1 -8.8868,0 4.4434,4.8962307 0 1 1 8.8868,0 z"
     transform="matrix(1.0205081,0,0,1.0170498,-29.303136,-32.154561)"
     id="path4001"
     style="fill:#e6e6e6;fill-opacity:1;stroke:#000000;stroke-width:1.05856085;stroke-linecap:butt;stroke-linejoin:round;stroke-miterlimit:4;stroke-opacity:1;stroke-dasharray:none" />
  <path
     d="m 321.79246,84.14151 a 4.4434,4.8962307 0 1 1 -8.8868,0 4.4434,4.8962307 0 1 1 8.8868,0 z"
     transform="matrix(0.87312555,0,0,0.83921881,-121.52077,229.57925)"
     id="path4001-4"
     style="fill:#e6e6e6;fill-opacity:1;stroke:#000000;stroke-width:1.76379144;stroke-linecap:butt;stroke-linejoin:round;stroke-miterlimit:4;stroke-opacity:1;stroke-dasharray:none" />
  <path
     d="m 166.97118,76.994433 2.36233,3.349461 C 149.27186,101.79776 130.53044,132.79709 114.56485,163.12398 93.012306,204.06372 77.957852,245.473 74.77562,287.2338 l -4.202283,-0.65054 c 2.108095,-36.47696 10.609434,-64.62225 29.321093,-103.92477 15.42141,-32.3914 36.60022,-76.33843 67.07675,-105.664057 z"
     id="path4046"
     style="fill:#e6e6e6;stroke:#000000;stroke-width:1.61765635;stroke-linecap:butt;stroke-linejoin:miter;stroke-miterlimit:4;stroke-opacity:1;stroke-dasharray:none" />
  <path
     d="m 164.95144,80.36925 c -28.00125,16.2598 -50.48618,29.59619 -66.31385,42.84619 -2.482445,21.87395 -5.931516,43.16805 -6.592713,65.04201 l 3.822794,0.17008 c -0.26272,-6.5169 2.757769,-8.76564 7.078969,-9.32346 -2.31522,-8.01171 4.27962,-27.68663 19.68289,-30.21509 -2.65179,-11.7884 1.01128,-27.69645 18.47447,-29.69709 -1.18489,-20.52774 7.91891,-22.81641 16.57505,-25.89864 1.81999,-4.257474 4.23842,-8.776886 7.27239,-12.924 z"
     id="path3979"
     style="fill:#e6e6e6;stroke:#000000;stroke-width:1.07843757px;stroke-linecap:butt;stroke-linejoin:round;stroke-opacity:1" />
  <path
     d="m 106.75034,272.55707 0.59904,-163.55206 c 0.007,-2.00088 -4.07929,-2.19059 -4.14375,0 l -4.70096,159.72986 c 2.11404,1.64211 5.35304,2.73716 8.24567,3.8222 z"
     id="path3949"
     style="fill:#e6e6e6;stroke:#000000;stroke-width:1.40197003;stroke-linecap:butt;stroke-linejoin:miter;stroke-miterlimit:4;stroke-opacity:1;stroke-dasharray:none" />
  <path
     d="m 97.464746,97.82541 15.582314,-0.0865 c 0.18491,0.1029 -0.0763,8.01354 -2.07186,9.92788 -1.65387,1.58679 -9.87698,1.77648 -11.52489,-0.0426 -2.310465,-2.55134 -1.869078,-6.56286 -1.985564,-9.79832 z"
     id="path3951"
     style="fill:#e6e6e6;stroke:#000000;stroke-width:1.07843757px;stroke-linecap:butt;stroke-linejoin:miter;stroke-opacity:1" />
  <path
     d="m 71.387116,283.83049 c -8.811507,-20.43388 -3.765075,-31.9368 11.185932,-37.21736 -10.853156,-12.98969 -6.438183,-27.12577 9.792694,-35.01556 -3.899561,-5.66722 -4.138981,-16.39183 8.323008,-21.44833 0.30348,-7.43721 0.2411,-9.61979 0.48813,-16.74556 0.62299,-17.96968 0.9818,-39.06566 1.4232,-54.61443 -67.679645,40.77178 -88.674089,121.6701 -31.212934,165.04124 z"
     id="path3941"
     style="fill:#e6e6e6;stroke:#000000;stroke-width:1.61765635;stroke-linecap:butt;stroke-linejoin:miter;stroke-miterlimit:4;stroke-opacity:1;stroke-dasharray:none" />
  <path
     d="m 321.79246,84.14151 a 4.4434,4.8962307 0 1 1 -8.8868,0 4.4434,4.8962307 0 1 1 8.8868,0 z"
     transform="matrix(0.85957708,0,0,0.78284421,-200.3125,222.92725)"
     id="path4001-51"
     style="fill:#e6e6e6;fill-opacity:1;stroke:#000000;stroke-width:1.84053099;stroke-linecap:butt;stroke-linejoin:round;stroke-miterlimit:4;stroke-opacity:1;stroke-dasharray:none" />
  <path
     d="m 321.79246,84.14151 a 4.4434,4.8962307 0 1 1 -8.8868,0 4.4434,4.8962307 0 1 1 8.8868,0 z"
     transform="matrix(1.0205081,0,0,1.0170498,-152.92586,-8.5004812)"
     id="path4001-5"
     style="fill:#e6e6e6;fill-opacity:1;stroke:#000000;stroke-width:1.05856085;stroke-linecap:butt;stroke-linejoin:round;stroke-miterlimit:4;stroke-opacity:1;stroke-dasharray:none" />
  <path
     d="M 204.92093,89.280262 174.42682,236.59897"
     id="path4048"
     style="fill:none;stroke:#000000;stroke-width:1.61765635;stroke-linecap:round;stroke-linejoin:miter;stroke-miterlimit:4;stroke-opacity:1;stroke-dasharray:none" />
  <path
     d="m 191.26101,229.90851 10.05731,-63.14948"
     id="path4054"
     style="fill:none;stroke:#000000;stroke-width:1.61765635;stroke-linecap:butt;stroke-linejoin:miter;stroke-miterlimit:4;stroke-opacity:1;stroke-dasharray:none" />
  <path
     d="m 209.56264,165.89575 8.2013,56.97689"
     id="path4056"
     style="fill:none;stroke:#000000;stroke-width:1.61765635;stroke-linecap:butt;stroke-linejoin:miter;stroke-miterlimit:4;stroke-opacity:1;stroke-dasharray:none" />
  <path
     d="M 235.93756,219.67362 210.25335,88.89039"
     id="path4062"
     style="fill:none;stroke:#000000;stroke-width:1.61765635;stroke-linecap:round;stroke-linejoin:miter;stroke-miterlimit:4;stroke-opacity:1;stroke-dasharray:none" />
  <path
     d="m 202.61318,149.36371 c 0.11642,2.85726 -1.60321,9.64024 3.41002,10.6616 4.13641,0.84285 2.34814,-7.12356 5.91345,-10.94217 3.19987,2.24143 6.31435,16.58854 -7.25159,18.08591 -7.63875,0.84316 -10.92439,-9.84711 -2.07188,-17.80534 z"
     id="path4064"
     style="fill:#e6e6e6;stroke:#000000;stroke-width:1.61765635;stroke-linecap:butt;stroke-linejoin:miter;stroke-miterlimit:4;stroke-opacity:1;stroke-dasharray:none" />
  <path
     d="m 204.88413,89.458232 c 1.54875,1.376728 5.64141,0.491359 5.55486,-0.183078"
     id="path4084"
     style="fill:none;stroke:#000000;stroke-width:1.61765635;stroke-linecap:butt;stroke-linejoin:miter;stroke-miterlimit:4;stroke-opacity:1;stroke-dasharray:none" />
  <path
     d="m 273.98209,48.577252 c -2.63065,-2.249992 -7.69168,6.870602 -5.64307,7.459593 8.13335,1.197894 11.89851,-1.25828 13.63799,-2.534204 2.32557,-1.705821 5.07906,-6.817256 3.51514,-6.011907 -3.25208,1.674712 -7.92996,4.148612 -11.51006,1.086518 z"
     id="path4086"
     style="fill:#e6e6e6;stroke:#000000;stroke-width:1.07843757px;stroke-linecap:butt;stroke-linejoin:miter;stroke-opacity:1" />
  <path
     d="m 272.81307,46.377142 c -3.36149,1.609174 -5.317,5.507645 -5.73146,8.665504 -2.69654,2.035303 -13.1898,1.558244 -18.45977,-0.10458 9.87122,-0.282707 8.92946,-1.495886 11.72033,-2.716442 -2.87389,0.555085 -7.13649,0.349359 -9.03438,-0.885134 14.58367,-0.24322 14.35685,-5.227071 21.50528,-4.959343 z"
     id="path4088"
     style="fill:#e6e6e6;stroke:none" />
  <path
     d="m 281.64631,54.170572 c 4.78281,-2.83033 3.59589,-6.782574 7.23025,-5.81149 1.81878,0.48595 1.86202,1.395135 0.82428,3.668981 -1.38305,3.030555 -2.21882,-1.254349 -8.05453,2.142509 z"
     id="path4090"
     style="fill:#e6e6e6;stroke:none" />
  <path
     d="M 84.231289,248.08025 102.93921,108.90276"
     id="path4094"
     style="fill:none;stroke:#000000;stroke-width:1.61765635;stroke-linecap:butt;stroke-linejoin:miter;stroke-miterlimit:4;stroke-opacity:1;stroke-dasharray:none" />
  <path
     d="m 107.95372,111.59488 10.85734,136.34198"
     id="path4096"
     style="fill:#f2f2f2;stroke:#000000;stroke-width:1.61765635;stroke-linecap:butt;stroke-linejoin:miter;stroke-miterlimit:4;stroke-opacity:1;stroke-dasharray:none" />
  <path
     d="m 107.05402,206.71561 0.30381,0.221 5.93347,39.17165"
     id="path4098"
     style="fill:none;stroke:#000000;stroke-width:1.61765635;stroke-linecap:butt;stroke-linejoin:round;stroke-miterlimit:4;stroke-opacity:1;stroke-dasharray:none" />
  <path
     d="m 100.49061,206.99593 -0.64921,-0.1392 -8.351202,37.96439"
     id="path4100"
     style="fill:none;stroke:#000000;stroke-width:1.61765635;stroke-linecap:butt;stroke-linejoin:round;stroke-miterlimit:4;stroke-opacity:1;stroke-dasharray:none" />
  <path
     d="m 91.457915,244.81219 -3.133097,17.27789"
     id="path4102"
     style="fill:none;stroke:#f2f2f2;stroke-width:1.61765635;stroke-linecap:butt;stroke-linejoin:miter;stroke-miterlimit:4;stroke-opacity:1;stroke-dasharray:none" />
  <path
     d="m 113.27625,246.0932 3.21576,28.47995"
     id="path4104"
     style="fill:none;stroke:#f2f2f2;stroke-width:1.61765635;stroke-linecap:butt;stroke-linejoin:miter;stroke-miterlimit:4;stroke-opacity:1;stroke-dasharray:none" />
  <path
     d="m 118.85823,248.30142 2.28049,27.29655"
     id="path4106"
     style="fill:none;stroke:#f2f2f2;stroke-width:1.61765635;stroke-linecap:butt;stroke-linejoin:miter;stroke-miterlimit:4;stroke-opacity:1;stroke-dasharray:none" />
  <path
     d="m 100.4122,181.40388 c -0.83003,3.47493 6.10724,9.08855 6.7296,0.21026 0.43754,-6.2416 4.76468,-0.17182 4.75269,3.04864 -0.0169,4.53728 -3.18799,8.01013 -9.53323,7.62354 -3.62131,-0.22073 -5.691801,-4.11495 -6.145148,-7.9571 -0.510043,-4.32274 4.754148,-5.26169 4.196088,-2.92534 z"
     id="path4108"
     style="fill:#f2f2f2;stroke:#000000;stroke-width:1.61765635;stroke-linecap:butt;stroke-linejoin:miter;stroke-miterlimit:4;stroke-opacity:1;stroke-dasharray:none" />
  <rect
     width="8.9736948"
     height="13.812599"
     x="200.16762"
     y="223.47707"
     id="rect4110"
     style="fill:#e6e6e6;fill-opacity:1;stroke:#000000;stroke-width:1.4902277;stroke-linejoin:round;stroke-miterlimit:4;stroke-opacity:1;stroke-dasharray:none" />
  <rect
     width="7.3822875"
     height="12.603995"
     x="100.1954"
     y="229.88515"
     transform="matrix(0.99999507,0.00314068,-0.00270661,0.99999634,0,0)"
     id="rect4112"
     style="fill:#f2f2f2;stroke:#000000;stroke-width:1.2592243;stroke-linecap:round;stroke-linejoin:round;stroke-miterlimit:4;stroke-opacity:1;stroke-dasharray:none" />
</svg>
