<?xml version="1.0" encoding="UTF-8" standalone="no"?>
<svg
   xmlns:dc="http://purl.org/dc/elements/1.1/"
   xmlns:cc="http://creativecommons.org/ns#"
   xmlns:rdf="http://www.w3.org/1999/02/22-rdf-syntax-ns#"
   xmlns:svg="http://www.w3.org/2000/svg"
   xmlns="http://www.w3.org/2000/svg"
   id="svg2"
   version="1.1"
   x="0"
   y="0"
   width="400"
   height="500"
   viewBox="30.5 31.5 400 500"
   enable-background="new 30.5 31.5 412 533"
   xml:space="preserve"><metadata
     id="metadata4"><rdf:RDF><cc:Work
         rdf:about=""><dc:format>
          
          
          
          image/svg+xml
        
        
        
        </dc:format><dc:type
           rdf:resource="http://purl.org/dc/dcmitype/StillImage" /><dc:title></dc:title></cc:Work></rdf:RDF></metadata><defs
     id="defs6" /><path
     id="path8"
     d="M 230.44,531.14 C 156.12,477.22 105.18,409.12 74.7,322.98 47.06,244.88 35.97,150.23 40.79,33.63 l 0.02,-0.46 379.82,0 0.02,0.46 c 4.81,116.6 -6.28,211.24 -33.91,289.35 C 356.26,409.12 305.32,477.22 231,531.14 l -0.28,0.2 -0.28,-0.2 z"
     style="fill:#32ac60" /><path
     id="path10"
     d="M 419.96,33.21 C 429.03,252.66 383.7,419.16 230.5,530.31 77.31,419.16 31.99,252.66 41.06,33.21 l 189.45,0 189.45,0 m 0.92,-0.95 -0.92,0 -189.45,0 -189.45,0 -0.92,0 -0.04,0.92 c -4.82,116.66 6.28,211.36 33.93,289.52 30.51,86.24 81.51,154.41 155.91,208.39 l 0.56,0.41 0.56,-0.41 C 305.46,477.11 356.46,408.94 386.97,322.7 414.62,244.54 425.72,149.84 420.9,33.18 l -0.04,-0.92 0,0 z" /><path
     id="path4283"
     d="m 242.75236,74.80664 c 6.12248,3.72164 9.35352,8.30579 9.35752,14.91533 0.005,8.13243 -3.44982,11.49945 -8.9744,17.65599 -2.48192,2.76583 -0.85282,5.76467 1.17311,7.81345 2.04878,2.02593 5.04762,3.65503 7.81345,1.17311 6.15654,-5.52458 9.52356,-8.97932 17.65599,-8.9744 6.60954,0.004 11.19369,3.23504 14.91533,9.35752 2.41256,3.96891 5.07561,9.48942 11.5319,12.25236 -6.45629,2.76294 -9.11934,8.28345 -11.5319,12.25236 -3.72164,6.12248 -8.30579,9.35352 -14.91533,9.35752 -8.13243,0.005 -11.49945,-3.44982 -17.65599,-8.9744 -2.76583,-2.48192 -5.76467,-0.85282 -7.81345,1.17311 -2.02593,2.04878 -3.65503,5.04762 -1.17311,7.81345 5.52458,6.15654 8.97932,9.52356 8.9744,17.65599 -0.004,6.60954 -3.23504,11.19369 -9.35752,14.91533 -3.96891,2.41256 -9.48942,5.07561 -12.25236,11.5319 -2.76294,-6.45629 -8.28345,-9.11934 -12.25236,-11.5319 -6.12248,-3.72164 -9.35352,-8.30579 -9.35752,-14.91533 -0.005,-8.13243 3.44982,-11.49945 8.9744,-17.65599 2.48192,-2.76583 0.85282,-5.76467 -1.17311,-7.81345 -2.04878,-2.02593 -5.04762,-3.65503 -7.81345,-1.17311 -6.15654,5.52458 -9.52356,8.97932 -17.65599,8.9744 -6.60954,-0.004 -11.19369,-3.23504 -14.91533,-9.35752 -2.41256,-3.96891 -5.07561,-9.48942 -11.5319,-12.25236 6.45629,-2.76294 9.11934,-8.28345 11.5319,-12.25236 3.72164,-6.12248 8.30579,-9.35352 14.91533,-9.35752 8.13243,-0.005 11.49945,3.44982 17.65599,8.9744 2.76583,2.48192 5.76467,0.85282 7.81345,-1.17311 2.02593,-2.04878 3.65503,-5.04762 1.17311,-7.81345 -5.52458,-6.15654 -8.97932,-9.52356 -8.9744,-17.65599 0.004,-6.60954 3.23504,-11.19369 9.35752,-14.91533 3.96891,-2.41256 9.48942,-5.07561 12.25236,-11.5319 2.76294,6.45629 8.28345,9.11934 12.25236,11.5319 z"
     style="fill:#ffffff;fill-rule:evenodd;stroke:#000000;stroke-width:1px;stroke-linecap:butt;stroke-linejoin:miter;stroke-opacity:1" /><path
     style="fill:#ffffff;fill-rule:evenodd;stroke:#000000;stroke-width:1px;stroke-linecap:butt;stroke-linejoin:miter;stroke-opacity:1"
     d="m 156.5271,184.80664 c 6.12248,3.72164 9.35352,8.30579 9.35752,14.91533 0.005,8.13243 -3.44982,11.49945 -8.9744,17.65599 -2.48192,2.76583 -0.85282,5.76467 1.17311,7.81345 2.04878,2.02593 5.04762,3.65503 7.81345,1.17311 6.15654,-5.52458 9.52356,-8.97932 17.65599,-8.9744 6.60954,0.004 11.19369,3.23504 14.91533,9.35752 2.41256,3.96891 5.07561,9.48942 11.5319,12.25236 -6.45629,2.76294 -9.11934,8.28345 -11.5319,12.25236 -3.72164,6.12248 -8.30579,9.35352 -14.91533,9.35752 -8.13243,0.005 -11.49945,-3.44982 -17.65599,-8.9744 -2.76583,-2.48192 -5.76467,-0.85282 -7.81345,1.17311 -2.02593,2.04878 -3.65503,5.04762 -1.17311,7.81345 5.52458,6.15654 8.97932,9.52356 8.9744,17.65599 -0.004,6.60954 -3.23504,11.19369 -9.35752,14.91533 -3.96891,2.41256 -9.48942,5.07561 -12.25236,11.5319 -2.76294,-6.45629 -8.28345,-9.11934 -12.25236,-11.5319 -6.12248,-3.72164 -9.35352,-8.30579 -9.35752,-14.91533 -0.005,-8.13243 3.44982,-11.49945 8.9744,-17.65599 2.48192,-2.76583 0.85282,-5.76467 -1.17311,-7.81345 -2.04878,-2.02593 -5.04762,-3.65503 -7.81345,-1.17311 -6.15654,5.52458 -9.52356,8.97932 -17.65599,8.9744 -6.60954,-0.004 -11.19369,-3.23504 -14.91533,-9.35752 -2.41256,-3.96891 -5.07561,-9.48942 -11.5319,-12.25236 6.45629,-2.76294 9.11934,-8.28345 11.5319,-12.25236 3.72164,-6.12248 8.30579,-9.35352 14.91533,-9.35752 8.13243,-0.005 11.49945,3.44982 17.65599,8.9744 2.76583,2.48192 5.76467,0.85282 7.81345,-1.17311 2.02593,-2.04878 3.65503,-5.04762 1.17311,-7.81345 -5.52458,-6.15654 -8.97932,-9.52356 -8.9744,-17.65599 0.004,-6.60954 3.23504,-11.19369 9.35752,-14.91533 3.96891,-2.41256 9.48942,-5.07561 12.25236,-11.5319 2.76294,6.45629 8.28345,9.11934 12.25236,11.5319 z"
     id="path4293" /><path
     id="path4295"
     d="m 328.97762,184.80664 c 6.12248,3.72164 9.35352,8.30579 9.35752,14.91533 0.005,8.13243 -3.44982,11.49945 -8.9744,17.65599 -2.48192,2.76583 -0.85282,5.76467 1.17311,7.81345 2.04878,2.02593 5.04762,3.65503 7.81345,1.17311 6.15654,-5.52458 9.52356,-8.97932 17.65599,-8.9744 6.60954,0.004 11.19369,3.23504 14.91533,9.35752 2.41256,3.96891 5.07561,9.48942 11.5319,12.25236 -6.45629,2.76294 -9.11934,8.28345 -11.5319,12.25236 -3.72164,6.12248 -8.30579,9.35352 -14.91533,9.35752 -8.13243,0.005 -11.49945,-3.44982 -17.65599,-8.9744 -2.76583,-2.48192 -5.76467,-0.85282 -7.81345,1.17311 -2.02593,2.04878 -3.65503,5.04762 -1.17311,7.81345 5.52458,6.15654 8.97932,9.52356 8.9744,17.65599 -0.004,6.60954 -3.23504,11.19369 -9.35752,14.91533 -3.96891,2.41256 -9.48942,5.07561 -12.25236,11.5319 -2.76294,-6.45629 -8.28345,-9.11934 -12.25236,-11.5319 -6.12248,-3.72164 -9.35352,-8.30579 -9.35752,-14.91533 -0.005,-8.13243 3.44982,-11.49945 8.9744,-17.65599 2.48192,-2.76583 0.85282,-5.76467 -1.17311,-7.81345 -2.04878,-2.02593 -5.04762,-3.65503 -7.81345,-1.17311 -6.15654,5.52458 -9.52356,8.97932 -17.65599,8.9744 -6.60954,-0.004 -11.19369,-3.23504 -14.91533,-9.35752 C 260.11934,247.28345 257.45629,241.76294 251,239 c 6.45629,-2.76294 9.11934,-8.28345 11.5319,-12.25236 3.72164,-6.12248 8.30579,-9.35352 14.91533,-9.35752 8.13243,-0.005 11.49945,3.44982 17.65599,8.9744 2.76583,2.48192 5.76467,0.85282 7.81345,-1.17311 2.02593,-2.04878 3.65503,-5.04762 1.17311,-7.81345 -5.52458,-6.15654 -8.97932,-9.52356 -8.9744,-17.65599 0.004,-6.60954 3.23504,-11.19369 9.35752,-14.91533 3.96891,-2.41256 9.48942,-5.07561 12.25236,-11.5319 2.76294,6.45629 8.28345,9.11934 12.25236,11.5319 z"
     style="fill:#ffffff;fill-rule:evenodd;stroke:#000000;stroke-width:1px;stroke-linecap:butt;stroke-linejoin:miter;stroke-opacity:1" /><path
     style="fill:#ffffff;fill-rule:evenodd;stroke:#000000;stroke-width:1px;stroke-linecap:butt;stroke-linejoin:miter;stroke-opacity:1"
     d="m 242.75236,294.9319 c 6.12248,3.72164 9.35352,8.30579 9.35752,14.91533 0.005,8.13243 -3.44982,11.49945 -8.9744,17.65599 -2.48192,2.76583 -0.85282,5.76467 1.17311,7.81345 2.04878,2.02593 5.04762,3.65503 7.81345,1.17311 6.15654,-5.52458 9.52356,-8.97932 17.65599,-8.9744 6.60954,0.004 11.19369,3.23504 14.91533,9.35752 2.41256,3.96891 5.07561,9.48942 11.5319,12.25236 -6.45629,2.76294 -9.11934,8.28345 -11.5319,12.25236 -3.72164,6.12248 -8.30579,9.35352 -14.91533,9.35752 -8.13243,0.005 -11.49945,-3.44982 -17.65599,-8.9744 -2.76583,-2.48192 -5.76467,-0.85282 -7.81345,1.17311 -2.02593,2.04878 -3.65503,5.04762 -1.17311,7.81345 5.52458,6.15654 8.97932,9.52356 8.9744,17.65599 -0.004,6.60954 -3.23504,11.19369 -9.35752,14.91533 -3.96891,2.41256 -9.48942,5.07561 -12.25236,11.5319 -2.76294,-6.45629 -8.28345,-9.11934 -12.25236,-11.5319 -6.12248,-3.72164 -9.35352,-8.30579 -9.35752,-14.91533 -0.005,-8.13243 3.44982,-11.49945 8.9744,-17.65599 2.48192,-2.76583 0.85282,-5.76467 -1.17311,-7.81345 -2.04878,-2.02593 -5.04762,-3.65503 -7.81345,-1.17311 -6.15654,5.52458 -9.52356,8.97932 -17.65599,8.9744 -6.60954,-0.004 -11.19369,-3.23504 -14.91533,-9.35752 -2.41256,-3.96891 -5.07561,-9.48942 -11.5319,-12.25236 6.45629,-2.76294 9.11934,-8.28345 11.5319,-12.25236 3.72164,-6.12248 8.30579,-9.35352 14.91533,-9.35752 8.13243,-0.005 11.49945,3.44982 17.65599,8.9744 2.76583,2.48192 5.76467,0.85282 7.81345,-1.17311 2.02593,-2.04878 3.65503,-5.04762 1.17311,-7.81345 -5.52458,-6.15654 -8.97932,-9.52356 -8.9744,-17.65599 0.004,-6.60954 3.23504,-11.19369 9.35752,-14.91533 3.96891,-2.41256 9.48942,-5.07561 12.25236,-11.5319 2.76294,6.45629 8.28345,9.11934 12.25236,11.5319 z"
     id="path4297" /></svg>