<?xml version="1.0" encoding="UTF-8" standalone="no"?>
<svg
   xmlns:dc="http://purl.org/dc/elements/1.1/"
   xmlns:cc="http://creativecommons.org/ns#"
   xmlns:rdf="http://www.w3.org/1999/02/22-rdf-syntax-ns#"
   xmlns:svg="http://www.w3.org/2000/svg"
   xmlns="http://www.w3.org/2000/svg"
   xml:space="preserve"
   enable-background="new 30.5 31.5 412 533"
   viewBox="30.5 31.5 400 500"
   height="500"
   width="400"
   y="0"
   x="0"
   version="1.1"
   id="svg2"><metadata
     id="metadata4"><rdf:RDF><cc:Work
         rdf:about=""><dc:format>
          
          
          
          image/svg+xml
        
        
        
        </dc:format><dc:type
           rdf:resource="http://purl.org/dc/dcmitype/StillImage" /><dc:title></dc:title></cc:Work></rdf:RDF></metadata><defs
     id="defs6" /><path
     d="M 230.44,531.14 C 156.12,477.22 105.18,409.12 74.699999,322.98 c -27.64,-78.1 -38.73,-172.75 -33.91,-289.35 l 0.02,-0.46 379.820001,0 0.02,0.46 c 4.81,116.6 -6.28,211.24 -33.91,289.35 C 356.26,409.12 305.32,477.22 231,531.14 l -0.28,0.2 -0.28,-0.2 z"
     id="path8"
     style="fill:#e00e00" /><path
     d="M 419.96,33.21 C 429.03,252.66 383.7,419.16 230.5,530.31 77.309999,419.16 31.989999,252.66 41.059999,33.21 l 189.450001,0 189.45,0 m 0.92,-0.95 -0.92,0 -189.45,0 -189.450001,0 -0.92,0 -0.04,0.92 c -4.82,116.66 6.28,211.36 33.93,289.52 C 104.54,408.94 155.54,477.11 229.94,531.09 l 0.56,0.41 0.56,-0.41 C 305.46,477.11 356.46,408.94 386.97,322.7 414.62,244.54 425.72,149.84 420.9,33.18 l -0.04,-0.92 0,0 z"
     id="path10" /><path
     id="path4208"
     style="fill:#ffe000;fill-opacity:1;stroke:#000000;stroke-opacity:1"
     d="m 196.1,108.58 c -54.12507,6.7121 -43.30729,-30.083446 -76.1,-20.4 3.7,-23.6 27.5,-13.4 35.4,-3.7 10.1,12.4 13.3,16.1 38.7,15.1 1.4,3.2 2.2,6.8 2,9 z" /><path
     id="path4206"
     style="fill:#ffe000;fill-opacity:1;stroke:#000000;stroke-opacity:1"
     d="m 176.5,111.28 c 0.8,4.4 4.3,8.8 8.3,7 7.5,-3.4 5.8,-11.6 4.9,-16.7 -3.1,-19.4 -20.9,-11.7 -22.2,-17.7 -1.8,-6.4 0.9,-11.2 12.8,-10.8 3.5,0.1 9.8,4 16.8,5.5 8,1.6 16.8,0.7 21,-0.8 16.6,-5.9 24.8,-4.8 35.5,-2.8 19.2,3.6 22.4,2.9 40.5,-0.6 l 27.4,-6.4 c 4.5,-1.1 32.4,17.2 34.1,26.6 -11.4,-0.6 -15.6,8.9 -44.3,5.1 2.9,2.1 11.8,7.6 25.6,7.4 12.1,-0.1 11.8,-4 17.8,-5.2 7,2.2 13.5,9.5 16.5,17.8 -2.8,4.2 -18.9,7.3 -28.1,7.1 6.9,7 16.7,6.5 25.2,3.6 7,9.7 8.9,21.2 7.2,29.1 l -15.5,-2 c 4.3,9.1 16.8,9.9 17.2,14.7 3.3,38.4 -6.9,116.2 -81.3,117.6 -33.6,0.7 -53.5,-15.4 -64,-25.7 -2.4,-1.2 -6.3,-3.8 -21.6,-2 0,0 -13.4,-12.9 -13.9,-17.2 -0.4,-3.9 10.8,-2.5 16.6,-4.3 0,0 -3.1,-7.2 -28.9,-6.5 0,0 -24.5,-18.6 -20,-22.5 16.2,-13.9 42.7,0.2 54.8,9.2 -6.3,-14.5 -17.2,-29.3 -41.1,-29.6 -18.7,-0.3 -45.2,10.9 -43,49.7 1,16.9 11.9,51.7 57,63.3 42.9,11 46.2,-3.2 80.8,9 7.5,-7.8 20.4,-8.4 27.1,-7.7 19.1,2.1 27.1,15.7 27.4,20.4 -14.6,-4.2 -24.8,-1 -29.1,8.1 18.9,12.8 26.1,72.2 -41.8,72.8 -22.2,0.2 -40.4,-12 -53.3,-9.2 -14.6,4.4 -19.2,20.4 -9.4,31.9 9.9,9.7 32,14.4 46.5,1.2 16.6,-15.1 47.5,-20.8 57.1,-0.2 -26.1,-0.3 -31.6,17.8 -34.6,23.1 -4.2,-4.9 -10.4,-0.8 -7.9,3.8 11.6,21 -16.2,40.7 -32.2,30.9 21.3,-13.5 10.8,-29.3 -0.8,-29.7 -33.5,-1 -57.3,-14.4 -57.6,-45.2 -0.3,-26.4 19.9,-38.7 40.1,-39.5 27.1,-1 51.5,22.7 70.4,0.4 9.1,-11.1 4.2,-26.9 -12.5,-26.3 -9.4,0.3 -20.7,9.6 -20.4,22.1 -9.5,-3.5 -15.9,-22.1 -10,-29.5 -42,1.2 -76.1,-6.1 -95,-20.5 -55.6,-42.5 -53.7,-106.7 -36,-133 -5.2,2.1 -10.7,5.9 -15.3,12.7 3,-33.6 25.8,-55.1 69.5,-55.1 111,0.1 85.2,100.5 145,103.6 35.8,1.8 39.5,-37.5 39.6,-51.7 0.3,-36 -28.6,-57.8 -57.6,-70.9 12.3,10 28.8,29.5 34.8,48.4 -11.7,-3.9 -25.6,-5.1 -37.9,-5.1 -6.7,-19.9 -16.4,-32.5 -32,-39.7 -23.6,5.1 -22.8,-1.4 -37.4,-0.8 -8.7,-0.5 -8.9,3.1 -25,2.4 -18.9,-1.5 -16.03109,-17.16054 -12.61206,-19.58392 C 174.09773,109.58804 176,108.68 176.5,111.28 Z" /><path
     id="path4210"
     style="fill:#e00e00;fill-opacity:1;stroke:#000000;stroke-linecap:round;stroke-linejoin:round;stroke-opacity:1"
     d="m 255.9207,96.499119 c 0,0 -1.41334,5.462331 -10.93461,4.635341 -7.7586,-0.67389 -10.32091,-10.794056 -8.89418,-11.634606 3.51047,-1.47726 8.9203,-0.857748 11.57643,1.096463 3.37136,2.480432 5.88401,5.560038 8.25236,5.902802 z" /><path
     id="path4226"
     d="m 231.01657,91.487278 c 1.25359,-1.285936 8.01979,-4.507504 13.26449,-2.489433 5.30867,2.042685 7.94496,6.461119 11.24353,7.393005 6.4904,1.833616 9.39527,0.308042 9.39527,0.308042"
     style="fill:none;fill-rule:evenodd;stroke:#000000;stroke-width:1px;stroke-linecap:round;stroke-linejoin:round;stroke-opacity:1" /></svg>