<?xml version="1.0" encoding="UTF-8" standalone="no"?>
<svg
   xmlns:dc="http://purl.org/dc/elements/1.1/"
   xmlns:cc="http://creativecommons.org/ns#"
   xmlns:rdf="http://www.w3.org/1999/02/22-rdf-syntax-ns#"
   xmlns:svg="http://www.w3.org/2000/svg"
   xmlns="http://www.w3.org/2000/svg"
   id="svg2"
   version="1.1"
   x="0"
   y="0"
   width="400"
   height="500"
   viewBox="30.5 31.5 400 500"
   enable-background="new 30.5 31.5 412 533"
   xml:space="preserve"><metadata
     id="metadata4"><rdf:RDF><cc:Work
         rdf:about=""><dc:format>
          
          image/svg+xml
        
        </dc:format><dc:type
           rdf:resource="http://purl.org/dc/dcmitype/StillImage" /><dc:title></dc:title></cc:Work></rdf:RDF></metadata><defs
     id="defs6" /><path
     fill="#ffe000"
     id="path8"
     d="M230.55 531.13C304.87 477.21 355.81 409.11 386.29 322.97 413.93 244.87 425.02 150.22 420.2 33.62l-0.02-0.46-379.82 0-0.02 0.46c-4.81 116.6 6.28 211.24 33.91 289.35 30.48 86.14 81.42 154.24 155.74 208.16l0.28 0.2 0.28-0.2z" /><path
     id="path10"
     d="m41.04 33.21c-9.07 219.45 36.25 385.95 189.45 497.1 84.47-61.29 136.15-139.41 163.99-233.97 2.09-7.09 4.04-14.27 5.87-21.54 11.45-45.69 17.77-95.02 19.88-147.94 1.2-30.06 1.05-61.28-0.29-93.65l-189.45 0-189.45 0m-0.92-0.95 0.92 0 189.45 0 189.45 0 0.92 0 0.04 0.92c4.82 116.66-6.28 211.36-33.93 289.52-30.51 86.24-81.51 154.41-155.91 208.39l-0.56 0.41-0.56-0.41C155.54 477.11 104.54 408.94 74.03 322.7 46.38 244.54 35.28 149.84 40.1 33.18l0.04-0.92 0 0z" /><path
     id="path4219"
     style="fill:#000000;stroke:none"
     d="m 117.26156,200.16606 c 8.72,-5.61 20.22999,8 21.75,9.4 1.28999,1.2 8.25,-0.14 9.75,1.39 2.88999,2.94 5.23999,6.86 7.85999,11.25 2.82,5.21 4.55,12.09 1.06,15.61 -12.12,12.2 -16.71,16.84 -25.46,24.3 -6.94,5.92 -6.59999,18.65 -6.67,18.93 1.41,8.9 1,21.67 4.55,26.71 1.68,2.39 3.92,2.78 6.32,3.46 2.6,0.73 2,-2.49 0.85,-2.66 -4.34,-0.65 -6.19,-5.84 -4.91,-7.78 0.3,-0.45 2,-0.93 2.04,-0.2 0.19,3.15 3.5,6.69 5.59,6.03 0.4,-0.13 1.62,-0.93 0.68,-1.85 -1.65999,-1.62 -2.9,-3.24 -3.09,-4.86 -0.3,-2.59 1.45,-2.5 2.41,-1.4 0.93,1.07 0.84,1.88 4.78,1.71 1.69,-0.07 2.12,-1.96 1.39,-2.33 -4.08,-2.07 -5.83,-3.84 -4.7,-7.14 3.74,-12.5 32.64,-4.32 53.52,-26.17 2.33,-2.43 -2.53,13.41 -4.28,20.25 -1.92,7.5 -0.92598,14.52302 -8.67598,15.08302 -8.2,0.59 -15.95,2.35 -19.03,9.37 -1.15,2.63 1.39,4.6 3.53,1.51 1.33,-1.92 2.8,-4.87 5.98,-5.76 0.98,-0.27 3.08,0.65 1.72,1.47 -2.7,1.64 -4.03,2.79 -4.82,4.89 -0.5,1.33 0.34,4.43 3.07,1 1.51,-1.9 2.61,-2.65 5.14,-3.29 0.55,-0.14 2.75,0 1.51,1.26 -0.93,0.94 -2.61,2.47 -2.4,3.57 0.25,1.33 1.98,0.81 2.49,0.33 l 1.1,-1.06 c 2.39,-2.29 1.78,1.81 3.59,1.81 l 15.71,0 c 5.55,0 4.68,-5.28 7.59,-8.26 8.38,-8.58 20.76598,-24.83302 25.11598,-35.21302 1.7,-4.08 3.05,-4.7 8.62,-5.73 10.8,-1.99 28.54,-5.52 29.22,-2.69 2.34,9.75 8.96,12.18 7.14,16.71 -3.11,7.74 -5.16,22.23302 -9.92,22.38302 -3.8,0.11 -7.13,0.17 -10.7,1.03 -7.77,1.86 -10.78,4.48 -11.21,7.62 -0.28,2.01 2.5,3.13 2.92,1.98 1.14,-3.2 3.44,-5.13 7.08,-6.02 0.69,-0.17 3.48,0.34 1.53,1.21 -2.53,1.13 -4.45,1.26 -5.62,4.38 -0.41,1.1 0.42,2.73 1.42,1.64 2.42,-2.63 3.49,-3.2 5.94,-3.85 1.51,-0.4 2.57,0.73 0.84,1.03 -1.34,0.23 -2.02,1.37 -3.03,2.8 -0.68,0.96 0.88,1.39 2,0.7 1.54,-0.94 3.61,-2.89 3.66,-0.68 0.02,0.99 -0.19,0.96 0.86,0.96 l 19.55,0 c 6.11,0 18.45,-21.84302 27.31,-32.59302 2.3,-2.8 -2.6,-22.24 0.46,-19.76 9.32,7.52 13.26,10.23 22.73,16.04 3.47,2.13 0.81588,22.23302 -1.65412,22.04302 -12.66,-0.96 -21.49,6.32 -23.09,10.14 -1.3,3.1 2.14,3.02 2.96,1.53 1.75,-3.17 3.69,-4.56 6.71,-5.65 1.28,-0.46 2.07,0.67 1.29,1.06 -1.93,0.97 -3.71,1.31 -5.05,3.85 -1.16,2.2 1.27,3.61 2.1,1.98 0.71,-1.42 1.16,-1.9 2.73,-2.16 2.7,-0.44 -0.57,1.21 -0.91,2.2 -0.68,2 1.75,1.33 2.7,1.32 l 29.49,0 c 2.54,0 7.80412,-22.09302 11.73412,-33.86302 1.11,-3.31 -9.58,-12.28 -6.44,-11.95 5.2,0.54 8.47001,0.9 5.9,-3.03 -2.49,-3.8 -7.92,-9.02 -4.5,-8.38 2.34,0.44 7.51,2.43 5.74,-1.16 -2.41,-4.9 -6.38,-11.7 -3.88,-9.93 4.86,3.42 7.12,4.76 8.3,1.63 4.05,-10.64 8.74,-34.77 5.04001,-48.66 -3.67001,-13.81 -19.94,-33.67 -33.99001,-42.69 -15.56999,-9.99 -42.39999,-9.16 -61.77999,-9.47 -16.21001,-0.26 -22.96001,-6.54 -30.89001,-11.64 -11.18,-7.19 -12.8,-14.44 -36.71,-12.73 -17.38,1.24 -27.31,10.95 -39.44,8.28 -23.08,-5.07 -28.07,5.26 -32.06,-0.36 -1.84,-2.59 -6.26,-7.75 -13.49,-6.63 -5,0.77 -10.19,6.89 -7.62,13.81 1.27,3.42 -16.13,14.74 -21.569995,21.38 -3.12,2.99 0.6,7.03 -1.24,9 -6.66,6.53 -14.01,12.38 -21.58,18.01 2.68,3 6.08,5.35 8.54,5.67 2.63,0.34 4.92,-0.3 7.45,-1.79 7.02,-4.1 13.959995,-6.6 23.129995,-3.49 2.51,0.85 3.69,4.5 1.16,6.13 l -16.839995,10.87 c 6.969995,4.56 15.559995,0.28 21.899995,-3.79 z" /><path
     id="path4221"
     style="fill:#ffe000;fill-opacity:1;stroke:none"
     d="m 98.281555,164.75606 c 0.17,1.51 2.079995,2.32 5.459995,1.28 1.83,-0.56 1.78,-5.87 -1.29,-5.59 -3.539995,0.33 -4.489995,1.54 -4.169995,4.3 z" /><path
     id="path4223"
     style="fill:#000000;stroke:none"
     d="m 108.33155,193.15606 c -7.26,1.54 -10.549995,2.41 -15.139995,7.34 -7.27,7.81 -17.21,10.04 -22.23,3.88 18.98,-2.12 17.06,-11.46 27.13,-12.85 2.559995,-0.35 5.929995,-0.73 10.249995,1.62 z" /></svg>