<?xml version="1.0" encoding="UTF-8" standalone="no"?>
<svg
   xmlns:dc="http://purl.org/dc/elements/1.1/"
   xmlns:cc="http://creativecommons.org/ns#"
   xmlns:rdf="http://www.w3.org/1999/02/22-rdf-syntax-ns#"
   xmlns:svg="http://www.w3.org/2000/svg"
   xmlns="http://www.w3.org/2000/svg"
   id="svg2"
   version="1.1"
   x="0"
   y="0"
   width="400"
   height="500"
   viewBox="30.5 31.5 400 500"
   enable-background="new 30.5 31.5 412 533"
   xml:space="preserve"><metadata
     id="metadata4"><rdf:RDF><cc:Work
         rdf:about=""><dc:format>
          
          
          
          image/svg+xml
        
        
        
        </dc:format><dc:type
           rdf:resource="http://purl.org/dc/dcmitype/StillImage" /><dc:title></dc:title></cc:Work></rdf:RDF></metadata><defs
     id="defs6" /><path
     id="path8"
     d="M 230.44,531.14 C 156.12,477.22 105.18,409.12 74.7,322.98 47.06,244.88 35.97,150.23 40.79,33.63 l 0.02,-0.46 379.82,0 0.02,0.46 c 4.81,116.6 -6.28,211.24 -33.91,289.35 C 356.26,409.12 305.32,477.22 231,531.14 l -0.28,0.2 -0.28,-0.2 z"
     style="fill:#0085ca;fill-opacity:1" /><path
     style="fill:#ffffff;fill-rule:evenodd;stroke:none;stroke-width:1px;stroke-linecap:round;stroke-linejoin:round;stroke-opacity:1"
     d="m 135.50387,392.78354 c 6.00286,11.79312 20.99522,19.3182 41.59947,11.44372 8.52072,-3.25643 24.83352,-20.29283 28.14537,-38.66122 1.01761,-5.6439 2.01568,-11.40502 2.62896,-19.47486 0.12482,-1.64237 7.06872,-1.89996 7.11366,-0.30929 0.93575,33.1201 -7.70714,42.98901 -12.75592,53.54981 -6.09059,12.73996 -12.97377,22.66356 -10.95781,39.66413 2.24583,18.93898 22.79445,36.7695 39.2224,43.01781 l 0,-422.18051 c -19.1696,8.984202 -40.26437,28.734227 -49.68518,49.79565 -9.02914,20.18578 -10.39462,45.50454 -2.78361,61.23937 10.68892,22.09803 21.15019,43.0797 26.90821,62.16724 7.85865,26.05101 12.39139,51.5548 12.99018,78.5596 0.0319,1.43827 -7.45057,1.31351 -7.5776,0 -1.71076,-17.68926 -1.58725,-32.79177 -8.19619,-58.14648 -11.00638,-42.22519 -45.9204,-109.83477 -88.4541,-109.90106 -46.65325,4.48114 -51.75054,59.23059 -45.89477,85.64835 5.49147,24.77423 37.94102,69.71082 80.22316,69.25438 -13.56864,-16.79816 -21.12373,-42.26427 -3.81642,-57.79692 7.11766,-6.38782 19.40789,-3.53404 25.776,1.75141 14.23867,11.81794 21.34445,33.89483 25.20711,65.47885 0.69957,5.7202 -7.45984,3.13214 -12.83552,3.71147 -5.27613,0.5686 -4.47719,33.094 -0.15465,33.094 l 8.81476,0 c 0.5126,23.60356 -17.37251,28.27069 -21.49563,29.07324 -27.71823,5.39527 -15.05746,-21.9425 -20.87706,-18.86668 -16.61119,8.77948 -19.7602,24.89153 -13.14482,37.88799 z"
     id="path5464" /><path
     style="fill:#ffe000;fill-opacity:1;fill-rule:evenodd;stroke:none;stroke-width:1px;stroke-linecap:butt;stroke-linejoin:miter;stroke-opacity:1"
     d="m 230.5,306.5 78.62492,-70 80.84988,75.71717 c -6.33543,19.02422 -13.48964,37.63905 -22.15309,55.49926 L 309.12492,306.5 230.5,380.5 Z"
     id="path5458" /><path
     id="path5456"
     d="m 230.5,233 0,-74 78.62492,-70 106.99304,99.20545 c -2.96715,23.48711 -6.02418,46.94613 -11.27669,69.71906 L 309.12492,159 Z"
     style="fill:#ffe000;fill-opacity:1;fill-rule:evenodd;stroke:none;stroke-width:1px;stroke-linecap:butt;stroke-linejoin:miter;stroke-opacity:1" /><path
     style="fill:none;fill-rule:evenodd;stroke:#000000;stroke-width:1px;stroke-linecap:butt;stroke-linejoin:miter;stroke-opacity:1"
     d="M 404.84127,257.92451 309.12492,159 230.5,233 m 0,-74 78.62492,-70 106.99304,99.20545"
     id="path5436" /><path
     id="path5438"
     d="M 367.82171,367.71643 309.12492,306.5 230.5,380.5 m 0,-74 78.62492,-70 80.84988,75.71717"
     style="fill:none;fill-rule:evenodd;stroke:#000000;stroke-width:1px;stroke-linecap:butt;stroke-linejoin:miter;stroke-opacity:1" /><path
     id="path5452"
     d="m 230.5,59.83313 c -19.1696,8.984202 -40.26437,28.734227 -49.68518,49.79565 -9.02914,20.18578 -10.39462,45.50454 -2.78361,61.23937 10.68892,22.09803 21.15019,43.0797 26.90821,62.16724 7.85865,26.05101 12.39139,51.5548 12.99018,78.5596 0.0319,1.43827 -7.45057,1.31351 -7.5776,0 -1.71076,-17.68926 -1.58725,-32.79177 -8.19619,-58.14648 -11.00638,-42.22519 -45.9204,-109.83477 -88.4541,-109.90106 -46.65325,4.48114 -51.75054,59.23059 -45.89477,85.64835 5.49147,24.77423 37.94102,69.71082 80.22316,69.25438 -13.56864,-16.79816 -21.12373,-42.26427 -3.81642,-57.79692 7.11766,-6.38782 19.40789,-3.53404 25.776,1.75141 14.23867,11.81794 21.34445,33.89483 25.20711,65.47885 0.69957,5.7202 -7.45984,3.13214 -12.83552,3.71147 -5.27613,0.5686 -4.47719,33.094 -0.15465,33.094 l 8.81476,0 c 0.5126,23.60356 -17.37251,28.27069 -21.49563,29.07324 -27.71823,5.39527 -15.05746,-21.9425 -20.87706,-18.86668 -16.61119,8.77948 -19.7602,24.89153 -13.14482,37.88799 6.00286,11.79312 20.99522,19.3182 41.59947,11.44372 8.52072,-3.25643 24.83352,-20.29283 28.14537,-38.66122 1.01761,-5.6439 2.01568,-11.40502 2.62896,-19.47486 0.12482,-1.64237 7.06872,-1.89996 7.11366,-0.30929 0.93575,33.1201 -7.70714,42.98901 -12.75592,53.54981 -6.09059,12.73996 -12.97377,22.66356 -10.95781,39.66413 2.24583,18.93898 22.79445,36.7695 39.2224,43.01781"
     style="fill:none;fill-rule:evenodd;stroke:#000000;stroke-width:1px;stroke-linecap:round;stroke-linejoin:round;stroke-opacity:1" /><path
     id="path5422"
     d="m 230.5,530.80095 0,-497.890974"
     style="fill:none;fill-rule:evenodd;stroke:#000000;stroke-width:1px;stroke-linecap:round;stroke-linejoin:miter;stroke-opacity:1" /><path
     id="path10"
     d="M 419.96,33.21 C 429.03,252.66 383.7,419.16 230.5,530.31 77.31,419.16 31.99,252.66 41.06,33.21 l 189.45,0 189.45,0 m 0.92,-0.95 -0.92,0 -189.45,0 -189.45,0 -0.92,0 -0.04,0.92 c -4.82,116.66 6.28,211.36 33.93,289.52 30.51,86.24 81.51,154.41 155.91,208.39 l 0.56,0.41 0.56,-0.41 C 305.46,477.11 356.46,408.94 386.97,322.7 414.62,244.54 425.72,149.84 420.9,33.18 l -0.04,-0.92 0,0 z" /></svg>