<?xml version="1.0" encoding="UTF-8" standalone="no"?>
<svg
   xmlns:dc="http://purl.org/dc/elements/1.1/"
   xmlns:cc="http://creativecommons.org/ns#"
   xmlns:rdf="http://www.w3.org/1999/02/22-rdf-syntax-ns#"
   xmlns:svg="http://www.w3.org/2000/svg"
   xmlns="http://www.w3.org/2000/svg"
   id="svg2"
   version="1.1"
   x="0"
   y="0"
   width="400"
   height="500"
   viewBox="30.5 31.5 400 500"
   enable-background="new 30.5 31.5 412 533"
   xml:space="preserve"><metadata
     id="metadata4"><rdf:RDF><cc:Work
         rdf:about=""><dc:format>
          
          
          
          image/svg+xml
        
        
        
        </dc:format><dc:type
           rdf:resource="http://purl.org/dc/dcmitype/StillImage" /><dc:title></dc:title></cc:Work></rdf:RDF></metadata><defs
     id="defs6" /><path
     id="path8"
     d="M 230.44,531.14 C 156.12,477.22 105.18,409.12 74.7,322.98 47.06,244.88 35.97,150.23 40.79,33.63 l 0.02,-0.46 379.82,0 0.02,0.46 c 4.81,116.6 -6.28,211.24 -33.91,289.35 C 356.26,409.12 305.32,477.22 231,531.14 l -0.28,0.2 -0.28,-0.2 z"
     style="fill:#32ac60" /><path
     id="path5207"
     d="m 225.62078,227.21132 c -3.04799,-2.0927 -10.17367,-1.90627 -14.35335,2.94701 -3.48526,4.04696 -2.702,10.82997 -0.39368,13.963 L 96.503981,374.82878 c 2.093161,3.87423 15.192049,29.5027 26.816679,45.57413 41.07156,-48.35578 83.04763,-96.01051 124.67738,-143.90591 3.41788,1.86074 10.24439,1.71412 13.77969,-2.2892 4.23968,-4.80097 3.45516,-11.88578 0.96733,-14.62079 l 53.21557,-66.71544 c 24.90459,-30.23297 47.57241,-63.56725 78.0663,-83.82181 2.39521,-1.59094 4.10973,-6.53458 -3.97423,-6.53669 -31.85624,-0.008 -62.79194,16.51491 -85.26614,38.85075 l -32.25617,32.05757 c -1.08925,1.08254 -7.03024,3.20514 -10.5087,-0.15683 -5.0507,-4.88155 -11.03776,-12.2981 -18.34835,-18.86748 C 211.70009,125.6655 188.41062,108.32987 155.71354,91.404577 129.12356,77.64058 83.08869,70.025546 73.061939,73.704024 c -1.749594,0.641867 -1.089547,2.219962 -0.279548,2.698948 31.246689,18.477352 78.474269,47.466168 111.166329,79.340968 21.72467,21.18159 45.15692,43.97509 45.28681,62.62752 0.0229,3.28886 -0.94113,6.8168 -3.61475,8.83986"
     style="fill:#ffffff;fill-rule:evenodd;stroke:none;stroke-width:1px;stroke-linecap:butt;stroke-linejoin:miter;stroke-opacity:1;fill-opacity:1" /><path
     style="fill:none;fill-rule:evenodd;stroke:#000000;stroke-width:1px;stroke-linecap:butt;stroke-linejoin:miter;stroke-opacity:1"
     d="m 225.62078,227.21132 c -3.04799,-2.0927 -10.17367,-1.90627 -14.35335,2.94701 -3.48526,4.04696 -2.702,10.82997 -0.39368,13.963 L 96.503981,374.82878 m 26.816679,45.57413 c 41.07156,-48.35578 83.04763,-96.01051 124.67738,-143.90591 3.41788,1.86074 10.24439,1.71412 13.77969,-2.2892 4.23968,-4.80097 3.45516,-11.88578 0.96733,-14.62079 l 53.21557,-66.71544 c 24.90459,-30.23297 47.57241,-63.56725 78.0663,-83.82181 2.39521,-1.59094 4.10973,-6.53458 -3.97423,-6.53669 -31.85624,-0.008 -62.79194,16.51491 -85.26614,38.85075 l -32.25617,32.05757 c -1.08925,1.08254 -7.03024,3.20514 -10.5087,-0.15683 -5.0507,-4.88155 -11.03776,-12.2981 -18.34835,-18.86748 C 211.70009,125.6655 188.41062,108.32987 155.71354,91.404577 129.12356,77.64058 83.08869,70.025546 73.061939,73.704024 c -1.749594,0.641867 -1.089547,2.219962 -0.279548,2.698948 31.246689,18.477352 78.474269,47.466168 111.166329,79.340968 21.72467,21.18159 45.15692,43.97509 45.28681,62.62752 0.0229,3.28886 -0.94113,6.8168 -3.61475,8.83986"
     id="path5189" /><circle
     transform="matrix(0.75366294,0.65726111,-0.65726111,0.75366294,0,0)"
     r="9.9584665"
     cy="180.87004"
     cx="344.00879"
     id="path5201"
     style="fill:#32ac60;fill-opacity:1;fill-rule:evenodd;stroke:#000000;stroke-width:1;stroke-linecap:round;stroke-linejoin:round;stroke-miterlimit:4;stroke-dasharray:none;stroke-opacity:1" /><path
     id="path10"
     d="M 419.96,33.21 C 429.03,252.66 383.7,419.16 230.5,530.31 77.31,419.16 31.99,252.66 41.06,33.21 l 189.45,0 189.45,0 m 0.92,-0.95 -0.92,0 -189.45,0 -189.45,0 -0.92,0 -0.04,0.92 c -4.82,116.66 6.28,211.36 33.93,289.52 30.51,86.24 81.51,154.41 155.91,208.39 l 0.56,0.41 0.56,-0.41 C 305.46,477.11 356.46,408.94 386.97,322.7 414.62,244.54 425.72,149.84 420.9,33.18 l -0.04,-0.92 0,0 z" /></svg>