<?xml version="1.0" encoding="utf-8"?>
<!-- Generator: Adobe Illustrator 15.0.0, SVG Export Plug-In . SVG Version: 6.00 Build 0)  -->
<!DOCTYPE svg PUBLIC "-//W3C//DTD SVG 1.1//EN" "http://www.w3.org/Graphics/SVG/1.1/DTD/svg11.dtd">
<svg version="1.1" id="OL" xmlns="http://www.w3.org/2000/svg" xmlns:xlink="http://www.w3.org/1999/xlink" x="0px" y="0px"
	 width="720.001px" height="432.001px" viewBox="0 0 720.001 432.001" enable-background="new 0 0 720.001 432.001"
	 xml:space="preserve">
<rect fill="#1F29A5" width="720.001" height="432.001"/>
<g>
	<path fill="#FFFFFF" d="M512.126,96.333l-13.332,119.666h-78.668v129.666c-13.484,6.835-35.393,11.28-60.125,11.28
		c-24.732,0-46.638-4.445-60.123-11.279L299.876,216h-78.667L207.876,96.333h57V117.5h66.5V96.333h57.25V117.5h66.5V96.333H512.126
		 M527.773,82.333h-15.646h-57h-14v14v7.167h-38.5v-7.167v-14h-14h-57.25h-14v14v7.167h-38.5v-7.167v-14h-14h-57h-15.646
		l1.732,15.55l13.333,119.667l1.387,12.45h12.527h64.667l0.002,115.665v8.6l7.671,3.889c16.04,8.129,40.261,12.791,66.452,12.791
		c26.194,0,50.416-4.663,66.456-12.793l7.67-3.888v-8.6V229.999h64.668h12.527l1.387-12.45l13.332-119.666L527.773,82.333
		L527.773,82.333z"/>
</g>
<g>
	<path fill="#FFFFFF" d="M720.005,163.257c-2.14-0.845-4.203-1.772-6.175-2.783c-19.773-10.134-53.18-10.134-72.953,0
		c-24.032,12.316-61.688,12.317-85.724,0c-19.773-10.133-53.181-10.134-72.954,0c-24.034,12.317-61.689,12.316-85.722,0
		c-19.772-10.133-53.182-10.134-72.953,0c-24.035,12.316-61.689,12.317-85.724,0c-19.773-10.133-53.182-10.134-72.953,0
		c-24.035,12.317-61.688,12.317-85.724,0c-19.771-10.133-53.181-10.134-72.953,0c-1.971,1.01-4.033,1.937-6.171,2.781l0-15.349
		c24.044-12.21,61.547-12.172,85.51,0.109c19.771,10.133,53.18,10.133,72.953,0c24.032-12.318,61.687-12.319,85.723,0
		c19.772,10.132,53.181,10.133,72.954,0c24.035-12.317,61.69-12.317,85.723,0c19.773,10.133,53.181,10.133,72.952,0
		c24.033-12.319,61.688-12.318,85.724,0c19.773,10.133,53.181,10.132,72.954,0c23.963-12.282,61.466-12.318,85.509-0.109
		L720.005,163.257z"/>
</g>
</svg>
