<?xml version="1.0" encoding="UTF-8" standalone="no"?>
<svg
   xmlns:dc="http://purl.org/dc/elements/1.1/"
   xmlns:cc="http://creativecommons.org/ns#"
   xmlns:rdf="http://www.w3.org/1999/02/22-rdf-syntax-ns#"
   xmlns:svg="http://www.w3.org/2000/svg"
   xmlns="http://www.w3.org/2000/svg"
   id="svg2"
   version="1.1"
   x="0"
   y="0"
   width="400"
   height="500"
   viewBox="30.5 31.5 400 500"
   enable-background="new 30.5 31.5 412 533"
   xml:space="preserve"><metadata
     id="metadata4"><rdf:RDF><cc:Work
         rdf:about=""><dc:format>
          
          
          
          image/svg+xml
        
        
        
        </dc:format><dc:type
           rdf:resource="http://purl.org/dc/dcmitype/StillImage" /><dc:title></dc:title></cc:Work></rdf:RDF></metadata><defs
     id="defs6" /><path
     style="fill:#ffffff"
     fill="#e00e00"
     id="path8"
     d="M230.44 531.14C156.12 477.22 105.18 409.12 74.7 322.98 47.06 244.88 35.97 150.23 40.79 33.63l0.02-0.46 379.82 0 0.02 0.46c4.81 116.6-6.28 211.24-33.91 289.35C356.26 409.12 305.32 477.22 231 531.14l-0.28 0.2-0.28-0.2z" /><path
     id="path10"
     d="M419.96 33.21C429.03 252.66 383.7 419.16 230.5 530.31 77.31 419.16 31.99 252.66 41.06 33.21l189.45 0 189.45 0m0.92-0.95-0.92 0-189.45 0-189.45 0-0.92 0-0.04 0.92c-4.82 116.66 6.28 211.36 33.93 289.52 30.51 86.24 81.51 154.41 155.91 208.39l0.56 0.41 0.56-0.41C305.46 477.11 356.46 408.94 386.97 322.7 414.62 244.54 425.72 149.84 420.9 33.18l-0.04-0.92 0 0z" /><path
     style="fill:#0085ca;fill-opacity:1;stroke:#000000;stroke-opacity:1"
     id="path2827"
     d="m 51.283615,111.94207 c 4.050394,-3.40011 6.057052,9.01578 11.296743,9.2607 11.656586,0.54489 23.128747,3.67174 34.547016,7.55306 C 96.345931,116.68142 75.230261,104.05985 60.609995,99.988542 54.326209,98.238696 54.887506,86.350605 67.700909,86.575453 138.56796,87.801785 198.57634,98.951244 240.17567,129.4783 c 14.97476,18.92391 33.89022,19.10967 55.95828,31.00036 l -7.61873,66.33553 -7.61873,3.15258 c 2.35534,28.15428 6.50523,50.00342 14.44932,78.1577 7.16221,2.65295 16.9438,12.99807 18.19301,15.56586 0.10934,0.22476 -5.31487,1.57281 -11.23106,2.69283 0.90876,5.53984 7.6354,14.28327 11.16538,14.31796 l 53.46249,0.52544 c -26.39931,21.51719 -48.831,47.76993 -60.42443,86.95865 -6.8203,-19.76595 -10.8314,-39.82596 -13.13575,-60.03037 -0.42024,-3.68463 -17.5713,-25.55383 -23.51299,-23.51299 -9.87189,3.39077 -24.76283,5.32191 -24.30114,4.86023 -2.65442,-15.43306 -3.42184,-29.45089 -4.20343,-43.47933 -10.46983,-15.36782 -20.66395,-30.79079 -28.7673,-46.6319 l -5.12293,5.51701 C 197.66373,254.8237 186.94342,240.6318 189.34032,222.74211 171.86438,208.65181 159.97495,185.6481 141.08863,169.76818 110.95888,144.43459 68.57957,136.93767 54.698909,127.63929 50.480249,124.8133 48.998226,113.86055 51.283615,111.94207 Z" /><path
     style="fill:none;stroke:#000000;stroke-width:1;stroke-linecap:round;stroke-linejoin:round;stroke-miterlimit:4;stroke-dasharray:none;stroke-opacity:1"
     id="path3609"
     d="m 112.30155,107.26172 a 4.4554658,4.5004704 0 1 1 -8.91093,0 4.4554658,4.5004704 0 1 1 8.91093,0 z" /><path
     id="path4212"
     d="m 97.65313,114.87336 c 5.19023,3.58177 10.19866,9.24837 11.78261,13.86188 1.27612,3.71692 -3.26854,3.38665 -6.85394,3.6195"
     style="fill:none;fill-rule:evenodd;stroke:#000000;stroke-width:1px;stroke-linecap:round;stroke-linejoin:miter;stroke-opacity:1" /><path
     id="path4214"
     d="m 123.61741,152.16908 c 9.33681,-3.54779 17.23452,-7.10476 21.34621,-15.13838 3.05035,-5.95993 1.85791,-13.46696 0.65346,-23.63331"
     style="fill:none;fill-rule:evenodd;stroke:#000000;stroke-width:1px;stroke-linecap:round;stroke-linejoin:miter;stroke-opacity:1" /><path
     id="path4216"
     d="m 149.21109,148.90181 c 12.15203,3.2256 18.08603,6.52599 22.87093,13.28693 2.00118,2.8276 -6.28229,6.30334 -12.41565,5.66328 -3.31639,-0.34609 -9.06612,-5.70303 -13.17802,-10.01965"
     style="fill:none;fill-rule:evenodd;stroke:#000000;stroke-width:1px;stroke-linecap:round;stroke-linejoin:miter;stroke-opacity:1" /></svg>