<?xml version="1.0" encoding="UTF-8" standalone="no"?>
<svg
   xmlns:dc="http://purl.org/dc/elements/1.1/"
   xmlns:cc="http://creativecommons.org/ns#"
   xmlns:rdf="http://www.w3.org/1999/02/22-rdf-syntax-ns#"
   xmlns:svg="http://www.w3.org/2000/svg"
   xmlns="http://www.w3.org/2000/svg"
   version="1"
   width="420"
   height="500"
   id="svg2">
  <metadata
     id="metadata51">
    <rdf:RDF>
      <cc:Work
         rdf:about="">
        <dc:format>
          
          image/svg+xml
        
        </dc:format>
        <dc:type
           rdf:resource="http://purl.org/dc/dcmitype/StillImage" />
        <dc:title></dc:title>
      </cc:Work>
    </rdf:RDF>
  </metadata>
  <defs
     id="defs4" />
  <path
     id="path2418"
     d="m 4.4503626,1.5 411.0888574,0 0,300.82465 0,0 c 0,0.0298 0,0.0595 0,0.0903 0,108.64857 -92.02597,196.71263 -205.53922,196.71263 -113.513257,0 -205.5496374,-88.07404 -205.5496374,-196.71263 0,-0.0298 0,-0.0595 0,-0.0903 l 0,0 0,-300.82465 z"
     style="fill:#ffe000;fill-opacity:1;fill-rule:nonzero" />
  <path
     style="fill:#00823c;fill-opacity:1;stroke:none;stroke-width:1;stroke-linejoin:bevel;stroke-miterlimit:4;stroke-dasharray:none;stroke-opacity:1"
     id="path4675"
     d="m 323.11686,255.54603 c 4.00624,-1.5425 7.24787,6.98449 5.12317,8.82354 -45.87863,39.71071 -39.73046,86.175 -58.04965,122.91205 -4.20124,8.42511 39.46635,4.68101 88.32301,50.55035 -31.97481,33.38859 -79.04644,55.35182 -124.08891,59.99147 -55.7404,5.7416 -117.73578,-8.36593 -163.789877,-51.13919 14.56179,-19.76104 38.624237,-37.68328 70.384997,-50.44283 7.04143,-2.82882 -5.61103,-43.4097 -9.45889,-66.61403 -1.70602,-10.28813 -32.418059,-13.61435 -42.125829,-58.44698 -0.58028,-2.67989 7.80132,-6.91167 8.63519,-3.72816 3.317099,12.6639 9.219719,21.12825 16.421269,29.10736 23.77628,26.34346 30.04716,0.66983 30.99241,-7.04373 3.18439,-25.9857 4.11076,-33.46179 0.08,-49.36238 -0.83859,-3.30803 5.21892,-6.60089 6.33936,-4.69582 14.35058,24.40026 5.28707,57.59544 3.0382,69.83588 -3.04424,16.56966 3.94986,25.92723 6.01566,36.6933 3.06212,15.95842 2.5791,17.54659 11.12601,35.77078 6.6064,14.08653 16.33786,13.28641 18.0789,-2.34791 3.78986,-34.03255 0.71827,-44.66865 -3.58968,-73.21514 -1.71507,-11.36485 -19.08269,-50.599 -28.95413,-67.64794 -0.88266,-1.52443 9.17452,-4.63307 10.14784,-2.24938 6.425,15.73508 2.32195,10.35243 14.58004,27.67652 9.01805,12.74501 14.13032,18.03513 20.66161,-3.52188 6.82293,-22.51958 16.12073,-29.35114 24.18347,-42.30392 -12.97706,-32.83691 18.14163,-33.94501 28.40969,-50.48005 9.67781,19.40096 25.25668,22.44063 20.54164,40.41469 -4.86793,18.24152 -22.952,26.1387 -33.65776,15.27429 -1.03263,-1.04793 -4.36541,-3.09663 -6.37153,-0.16093 -1.89861,2.77836 -5.71597,7.89691 -2.58269,8.56987 4.01998,0.8634 4.51645,5.40237 4.58676,7.91901 0.23556,8.4316 0.17203,14.235 3.16134,26.83005 2.23614,9.42167 6.68424,12.93677 13.38308,-2.34791 5.8518,-13.35201 18.99215,-37.32543 23.00951,-33.57511 2.28491,-9.38175 -2.44708,-14.2922 2.52573,-23.20402 7.7627,-13.9116 25.77747,-10.60435 40.91059,-20.46709 10.17961,12.019 13.8883,21.91784 14.08746,32.40114 0.35883,18.8878 -28.34942,35.39472 -35.69783,23.58723 -8.29387,-13.32667 -11.33025,-7.60521 -19.00846,-10.90851 1.35835,4.99751 -25.97003,40.55078 -24.38382,54.80751 3.45372,31.04171 -4.34262,49.77731 -14.28554,94.95533 -2.11676,9.61803 1.00473,7.0756 8.41473,-1.04728 22.38671,-24.54039 17.45176,-66.35546 28.76714,-85.16174 12.94016,-21.10049 0.54535,-33.45573 4.01449,-54.46977 0.60909,-3.68951 11.12587,-2.81934 11.50105,2.57334 1.1335,16.29252 6.8923,12.85378 4.19448,32.10939 -1.08421,7.73841 2.99968,11.02889 8.92205,2.44516 10.2054,-14.79141 11.49788,-17.1319 15.48375,-18.66656" />
  <path
     d="m 228.12536,233.28346 c -13.67939,14.6073 -20.07394,37.90683 -18.72628,51.24626 0.86391,8.55118 -0.24542,15.62884 0.43367,26.00497 1.87561,28.65819 4.31942,32.15073 3.38898,63.96781 -0.31014,10.60548 3.03371,10.56571 5.45336,1.57131 7.03799,-26.16183 13.69665,-38.85697 18.08042,-62.38857 2.02295,-10.85899 0.9031,-20.36238 0.33204,-29.88401 -1.4948,-24.92356 -7.8435,-42.904 -8.96219,-50.51777 z"
     id="path3802"
     style="fill:#ffe000;fill-opacity:1;stroke:#000000;stroke-width:1;stroke-linejoin:bevel;stroke-miterlimit:4;stroke-dasharray:none;stroke-opacity:1" />
  <path
     d="m 44.054073,260.6366 c 5.48572,-14.37731 10.95716,-29.91016 19.48765,-43.89823 4.05026,-6.64151 20.88555,-12.00773 26.76616,-7.16133 3.82204,3.14987 6.42598,7.66102 8.68726,11.26249 5.282797,-2.11311 8.882807,-6.41387 15.848387,-6.33936 2.68358,1.96235 0.95643,8.61062 0,8.68727 -3.90081,0.31262 -9.77128,1.59206 -14.32224,5.4002 -2.570787,2.15117 -0.099,6.49323 1.19269,7.4394 5.4083,3.96173 0.36197,19.92508 -3.540597,23.4356 -18.70981,17.50964 -24.42351,0.99634 -54.11931,1.17396 z"
     id="path3804"
     style="fill:#00823c;fill-opacity:1;stroke:#000000;stroke-width:1;stroke-linejoin:bevel;stroke-miterlimit:4;stroke-dasharray:none;stroke-opacity:1" />
  <path
     d="m 48.749893,239.975 c 4.80551,-11.87696 6.08242,-17.62273 13.27309,-27.6252 5.50112,-7.65224 18.3507,-9.20019 24.05866,-8.53261 4.40188,0.51483 4.2174,4.1024 7.63071,0.93916 2.22772,-2.06451 2.14604,-15.53106 -4.55063,-16.91598 -2.81601,-0.58238 -4.05068,1.39035 -5.14669,2.90539 -5.66672,2.79676 -10.95977,6.14188 -18.42847,6.72389 -5.71982,0.44574 -10.81766,0.28781 -18.51149,-4.73163 -7.17091,3.32619 -13.47508,11.35921 -18.86939,19.17946 z"
     id="path3806"
     style="fill:#00823c;fill-opacity:1;stroke:#000000;stroke-width:1;stroke-linejoin:bevel;stroke-miterlimit:4;stroke-dasharray:none;stroke-opacity:1" />
  <path
     d="m 28.792663,160.61566 c 8.38922,-3.68734 15.00868,-9.11381 21.01379,-15.144 4.78709,-4.80711 16.60322,-9.55598 28.99667,-4.46104 7.33617,3.01589 10.46404,4.74464 10.4482,15.96578 -0.0126,8.90418 1.406625,18.04549 -2.069145,23.61827 -7.83083,12.55534 -25.49559,17.33778 -36.2752,8.21768 -8.90176,-7.53134 -17.844985,-16.65804 -22.114315,-28.19669 z"
     id="path3808"
     style="fill:#00823c;fill-opacity:1;stroke:#000000;stroke-width:1;stroke-linejoin:bevel;stroke-miterlimit:4;stroke-dasharray:none;stroke-opacity:1" />
  <path
     d="m 45.829913,99.682547 c 10.29338,-2.601016 18.24965,-10.208664 32.37434,-7.803047 -1.609252,6.945557 -0.976827,21.77381 18.376549,22.64635 0.28558,4.12731 0.774028,20.19856 -5.343809,31.22787 -1.94276,-4.03176 -11.67595,-13.85811 -30.79712,-9.6293 -0.56419,-7.17897 -4.61192,-22.76526 -14.60996,-36.441873 z"
     id="path3810"
     style="fill:#00823c;fill-opacity:1;stroke:#000000;stroke-width:1;stroke-linejoin:bevel;stroke-miterlimit:4;stroke-dasharray:none;stroke-opacity:1" />
  <path
     d="m 82.520833,57.844937 c 3.56703,13.902737 -2.24985,28.671683 0.16602,42.501703 1.80205,10.31615 12.11464,11.20716 22.246977,8.63316 5.6572,-1.43715 4.35295,-8.18072 7.80305,-11.123499 l 18.42847,20.420739 -29.88401,-0.83011 c -2.240787,13.71439 1.46647,7.36743 -8.633157,47.81441 -1.52019,6.08807 3.99565,13.86459 13.779847,12.11963 11.44324,-2.04084 42.31381,-11.54617 39.18125,-44.16193 -0.5952,-6.19726 0.0943,-11.25975 -10.12736,-14.27791 1.38124,-2.51601 5.90202,-2.0253 2.9884,-10.29338 -1.9329,-5.48512 -5.73544,-9.335623 -15.60609,-17.266316 3.84873,0.432144 10.53471,-2.234408 12.78372,-10.127359 -5.84987,-4.29283 -10.65252,-9.987739 -9.79531,-23.077093 -9.33813,-7.92347 -28.373367,-3.837157 -43.331807,-0.332045 z"
     id="path3812"
     style="fill:#00823c;fill-opacity:1;stroke:#000000;stroke-width:1;stroke-linejoin:bevel;stroke-miterlimit:4;stroke-dasharray:none;stroke-opacity:1" />
  <path
     d="m 127.18082,170.65706 c 2.25792,19.24754 -7.00717,21.095 -9.13124,40.2604 -1.93299,17.44136 5.19731,32.2922 16.43621,28.05777 5.05162,-1.90328 8.39106,-5.47486 12.61769,-9.6293 4.25733,-4.18462 5.11221,3.06192 18.09643,-1.82625 7.89058,-2.97057 9.46327,-20.08869 2.9884,-30.38207 l -8.3011,-7.88606 c 4.41282,-1.55245 3.58064,-3.10802 3.48645,-5.06367 -0.69847,-14.50259 -5.49269,-27.24802 -14.942,-37.52103 -1.69715,-1.84509 -4.50276,8.34783 -3.15443,10.79144 5.19346,9.41222 8.95428,18.21257 11.62156,30.21605 -7.58986,-7.95383 -17.13491,-15.97653 -29.71797,-17.01728 z"
     id="path3814"
     style="fill:#00823c;fill-opacity:1;stroke:#000000;stroke-width:1;stroke-linejoin:bevel;stroke-miterlimit:4;stroke-dasharray:none;stroke-opacity:1" />
  <path
     d="m 192.59358,160.77873 c -11.07549,8.10121 -19.82558,23.83541 -22.413,35.86082 6.92837,4.9918 8.04833,14.65299 6.97294,18.76051 4.9456,9.53283 46.65662,2.5895 41.67158,-12.28565 -3.33106,-9.93974 -2.59997,-8.65595 -1.16215,-12.61769 2.2408,-6.17428 -19.53529,-14.83132 -25.06937,-29.71799 z"
     id="path3816"
     style="fill:#00823c;fill-opacity:1;stroke:#000000;stroke-width:1;stroke-linejoin:bevel;stroke-miterlimit:4;stroke-dasharray:none;stroke-opacity:1" />
  <path
     d="m 159.88721,74.281141 c -5.58942,12.673032 -14.86059,21.989041 -16.43621,39.679319 -0.48987,5.5001 2.96167,15.61621 6.97293,19.09256 2.02788,1.75745 10.01281,1.9208 13.28178,-0.33204 3.7636,-2.59372 5.25933,-4.36726 11.28951,-2.65636 3.43413,-5.3342 19.52918,-20.25194 17.9304,-27.39367 -3.69795,-16.518752 -25.35074,-12.650431 -33.03841,-28.389809 z"
     id="path3818"
     style="fill:#00823c;fill-opacity:1;stroke:#000000;stroke-width:1;stroke-linejoin:bevel;stroke-miterlimit:4;stroke-dasharray:none;stroke-opacity:1" />
  <path
     d="m 147.00989,21.032456 c -6.22535,15.906151 -10.41601,21.127523 -15.6136,30.875007 -8.71009,16.334794 5.97498,35.273907 21.60077,26.061793 2.86991,-1.691946 1.22879,-5.912923 3.99145,-10.565592 1.17374,2.526768 3.13344,5.755167 6.33934,7.982891 7.8388,5.447023 17.17483,-0.107942 21.13119,-6.574146 -7.15966,-7.696845 -8.23471,-18.804199 -5.1654,-26.766165 C 164.45764,34.1176 163.52352,26.27612 147.00989,21.032456 Z"
     id="path3820"
     style="fill:#00823c;fill-opacity:1;stroke:#000000;stroke-width:1;stroke-linejoin:bevel;stroke-miterlimit:4;stroke-dasharray:none;stroke-opacity:1" />
  <path
     d="m 205.59022,93.935039 c -7.27504,22.265131 -24.58204,26.267821 -30.75761,48.366931 -1.64222,13.09344 5.35446,22.13225 10.56559,19.72244 4.67898,-2.16372 7.83407,-8.67786 15.02662,-2.5827 2.67234,2.26461 9.84838,-1.56864 14.79184,3.28707 3.37112,4.27311 6.23956,8.59702 10.80037,19.72244 2.06251,5.03117 7.89133,-0.0382 5.4002,-8.45248 -1.87706,-6.3402 -5.31478,-11.63996 -8.45248,-17.13973 5.70766,-4.30866 11.48303,-21.45309 10.09602,-28.17492 -9.41411,-6.81277 -11.31354,-17.11149 -11.26997,-20.19202 -11.51275,-9.886216 -11.37475,-10.177694 -16.20058,-14.557031 z"
     id="path3822"
     style="fill:#00823c;fill-opacity:1;stroke:#000000;stroke-width:1;stroke-linejoin:bevel;stroke-miterlimit:4;stroke-dasharray:none;stroke-opacity:1" />
  <path
     d="m 248.37706,162.43896 c 5.97835,2.63986 11.31248,-6.17414 11.45554,-8.46714 -1.30591,-7.69842 -2.67591,-15.22892 0.33204,-25.06936 0.88378,4.06165 5.52747,4.54115 8.71617,4.64863 8.84867,0.29827 12.19538,-10.39448 16.68524,-16.27019 3.34938,-4.3832 -1.01353,-18.814319 -4.94531,-24.479383 -5.62645,-8.106792 -12.16685,-7.474348 -15.97349,-21.342755 -18.30847,3.830611 -24.53724,12.307262 -31.71026,20.420738 0.18421,-6.827604 -4.75581,-9.997291 -9.79531,-24.903338 16.54786,-1.468865 20.79394,-19.537416 16.60223,-26.729583 C 224.75941,14.536073 213.5,24.43495 199.40049,11.026661 c -5.67058,9.114004 -10.38643,18.539571 -14.44393,29.053895 -4.93492,12.788 -0.79921,27.495263 10.62543,33.86854 5.25599,2.932077 15.59828,0.455984 18.92653,-2.822378 6.8733,5.290611 8.00651,22.559504 15.93814,25.235383 -9.80352,14.007779 0.56193,34.929789 12.45167,30.216049 7.02931,-2.7868 11.23241,-5.15893 10.62542,-0.99613 -1.79501,12.31046 -4.42127,24.44753 -5.14669,36.85694 z"
     id="path3824"
     style="fill:#00823c;fill-opacity:1;stroke:#000000;stroke-width:1;stroke-linejoin:bevel;stroke-miterlimit:4;stroke-dasharray:none;stroke-opacity:1" />
  <path
     d="m 292.705,15.177217 c -7.13896,4.666887 -14.16094,5.945633 -21.41687,7.803046 -19.53276,5.000105 -15.39827,29.218526 -7.30497,43.829877 6.88763,-1.483028 8.85764,4.035199 12.78371,6.806912 13.0513,9.213917 23.86559,-3.301193 23.9072,-10.127358 0.0377,-6.178288 3.16119,-5.471542 5.31271,-7.637023 7.76901,-7.819397 -13.84574,-25.94452 -13.28178,-40.675454 z"
     id="path3826"
     style="fill:#00823c;fill-opacity:1;stroke:#000000;stroke-width:1;stroke-linejoin:bevel;stroke-miterlimit:4;stroke-dasharray:none;stroke-opacity:1" />
  <path
     d="m 344.00588,45.393268 c -12.90163,6.105214 -26.86168,6.105992 -36.69092,17.266315 -6.01965,6.834843 -7.27779,16.533351 -5.47874,23.907205 l -12.94973,12.700703 c 0.85675,2.937179 0.61458,12.454539 2.57334,8.799179 3.62504,-6.76489 7.74178,-12.300484 12.6177,-15.938136 5.06606,-1.886197 7.23198,8.022986 10.57309,12.841676 2.64936,3.82103 8.59497,3.39301 12.91349,2.11312 4.59443,-9.813385 13.82933,-13.593967 18.66589,-18.900669 2.24564,-2.46393 -2.16935,-5.588921 -1.4589,-12.919403 0.87874,-9.066885 2.29055,-21.539175 -0.76522,-29.86999 z"
     id="path3828"
     style="fill:#00823c;fill-opacity:1;stroke:#000000;stroke-width:1;stroke-linejoin:bevel;stroke-miterlimit:4;stroke-dasharray:none;stroke-opacity:1" />
  <path
     d="m 331.88626,257.07164 c 0.59355,-4.77697 -0.66685,-25.27846 8.13509,-32.20831 18.13387,-14.27698 29.77162,5.09141 31.37821,12.11962 2.21182,9.67595 3.23406,18.58234 2.49033,30.38208 -18.35921,-0.81633 -31.61884,2.68843 -42.00363,-10.29339 z"
     id="path3830"
     style="fill:#00823c;fill-opacity:1;stroke:#000000;stroke-width:1;stroke-linejoin:bevel;stroke-miterlimit:4;stroke-dasharray:none;stroke-opacity:1" />
  <path
     d="m 353.13711,206.10281 c -1.38756,-0.19277 -3.36487,8.74194 -0.16603,9.13122 7.24953,0.88223 19.08365,5.57853 24.73732,23.0771 1.18124,3.65603 18.85112,0.40948 16.27019,-5.47873 -4.12487,-9.41059 -8.83712,-21.94436 -9.96134,-30.5481 -0.36325,-2.77988 -6.22063,-3.88034 -7.63703,-1.4942 -2.80197,4.72032 -11.08574,7.00174 -23.24311,5.31271 z"
     id="path3832"
     style="fill:#00823c;fill-opacity:1;stroke:#000000;stroke-width:1;stroke-linejoin:bevel;stroke-miterlimit:4;stroke-dasharray:none;stroke-opacity:1" />
  <path
     d="m 326.11699,167.50264 c -2.13474,-1.32945 1.77833,-6.06103 4.19205,-5.85228 7.45886,0.64505 5.59976,9.12647 14.69297,9.0067 -0.77174,-4.89664 -0.97467,-9.47787 1.90926,-13.28178 1.53303,-2.02207 3.73202,-3.18558 6.97294,-3.40346 7.16645,3.9954 10.88829,1.16787 13.53081,-0.8301 2.57046,-1.94349 8.45251,-1.4243 11.78758,2.65635 5.53981,6.77828 11.73146,11.2937 17.59836,15.44007 -4.89467,12.64969 -16.34959,21.56751 -23.07709,26.56357 -12.00329,8.91402 -30.71337,8.05769 -35.52877,-0.83012 -1.59246,-2.93921 1.694,-4.96429 0.6641,-10.29338 -0.69757,-3.60945 1.87783,-4.76304 2.82237,-7.13896 -7.30878,-0.47789 -9.93333,-8.52965 -15.56458,-12.03661 z"
     id="path3834"
     style="fill:#00823c;fill-opacity:1;stroke:#000000;stroke-width:1;stroke-linejoin:bevel;stroke-miterlimit:4;stroke-dasharray:none;stroke-opacity:1" />
  <path
     d="m 282.57765,194.31524 c -2.88469,-2.7815 -2.75049,-7.47145 -1.49421,-9.87833 3.12266,-5.98261 7.0865,-13.58487 8.46714,-21.25085 -11.28206,-4.85503 -15.4252,-19.39379 -11.78758,-27.47668 5.0057,-11.12278 16.4228,-19.66268 24.40527,-20.25471 6.55656,-0.48629 11.84009,-0.66019 16.27019,-3.6525 2.32791,-1.57239 11.68929,-0.25537 10.4594,3.15442 -1.89631,5.25738 -2.21249,10.75059 -1.10172,15.88951 2.46638,11.41069 2.37535,29.45724 -12.18006,39.06386 -4.60977,3.04247 -10.10142,4.32692 -13.61383,1.66023 -2.39185,-1.81594 -5.69282,-7.60777 -6.97294,-3.32045 -3.12114,10.45323 -6.95424,20.10206 -12.45166,26.0655 z"
     id="path3836"
     style="fill:#00823c;fill-opacity:1;stroke:#000000;stroke-width:1;stroke-linejoin:bevel;stroke-miterlimit:4;stroke-dasharray:none;stroke-opacity:1" />
  <path
     d="m 332.9643,132.55814 c 0.54256,-7.99547 1.96846,-14.99402 0.21302,-22.74526 -1.18191,-5.21884 5.4436,-16.669319 23.21364,-16.76637 16.57144,-0.0905 12.16573,8.22708 27.05339,7.34528 0.97778,13.30429 -10.02121,22.04289 -10.80037,39.91446 -0.4972,11.40433 -21.74431,15.1868 -29.23148,5.048 -1.33964,-1.81407 -0.9219,-6.08152 -10.4482,-12.79611 z"
     id="path3838"
     style="fill:#00823c;fill-opacity:1;stroke:#000000;stroke-width:1;stroke-linejoin:bevel;stroke-miterlimit:4;stroke-dasharray:none;stroke-opacity:1" />
  <path
     d="m 4.4503626,1.5 411.0888574,0 0,300.82465 0,0 c 0,0.0298 0,0.0595 0,0.0903 0,108.64857 -92.02597,196.71263 -205.53922,196.71263 -113.513257,0 -205.5496374,-88.07404 -205.5496374,-196.71263 0,-0.0298 0,-0.0595 0,-0.0903 l 0,0 0,-300.82465 z"
     id="path4300"
     style="fill:none;stroke:#000000;stroke-width:1.02142417" />
  <path
     d="m 323.11686,255.54603 c 4.00624,-1.5425 7.24787,6.98449 5.12317,8.82354 -45.87863,39.71071 -39.73046,86.175 -58.04965,122.91205 -4.20124,8.42511 39.46635,4.68101 88.32301,50.55035 m -287.878787,8.85228 c 14.56179,-19.76104 38.624237,-37.68328 70.384997,-50.44283 7.04143,-2.82882 -5.61103,-43.4097 -9.45889,-66.61403 -1.70602,-10.28813 -32.418059,-13.61435 -42.125829,-58.44698 -0.58028,-2.67989 7.80132,-6.91167 8.63519,-3.72816 3.317099,12.6639 9.219719,21.12825 16.421269,29.10736 23.77628,26.34346 30.04716,0.66983 30.99241,-7.04373 3.18439,-25.9857 4.11076,-33.46179 0.08,-49.36238 -0.83859,-3.30803 5.21892,-6.60089 6.33936,-4.69582 14.35058,24.40026 5.28707,57.59544 3.0382,69.83588 -3.04424,16.56966 3.94986,25.92723 6.01566,36.6933 3.06212,15.95842 2.5791,17.54659 11.12601,35.77078 6.6064,14.08653 16.33786,13.28641 18.0789,-2.34791 3.78986,-34.03255 0.71827,-44.66865 -3.58968,-73.21514 -1.71507,-11.36485 -19.08269,-50.599 -28.95413,-67.64794 -0.88266,-1.52443 9.17452,-4.63307 10.14784,-2.24938 6.425,15.73508 2.32195,10.35243 14.58004,27.67652 9.01805,12.74501 14.13032,18.03513 20.66161,-3.52188 6.82293,-22.51958 16.12073,-29.35114 24.18347,-42.30392 -12.97706,-32.83691 18.14163,-33.94501 28.40969,-50.48005 9.67781,19.40096 25.25668,22.44063 20.54164,40.41469 -4.86793,18.24152 -22.952,26.1387 -33.65776,15.27429 -1.03263,-1.04793 -4.36541,-3.09663 -6.37153,-0.16093 -1.89861,2.77836 -5.71597,7.89691 -2.58269,8.56987 4.01998,0.8634 4.51645,5.40237 4.58676,7.91901 0.23556,8.4316 0.17203,14.235 3.16134,26.83005 2.23614,9.42167 6.68424,12.93677 13.38308,-2.34791 5.8518,-13.35201 18.99215,-37.32543 23.00951,-33.57511 2.28491,-9.38175 -2.44708,-14.2922 2.52573,-23.20402 7.7627,-13.9116 25.77747,-10.60435 40.91059,-20.46709 10.17961,12.019 13.8883,21.91784 14.08746,32.40114 0.35883,18.8878 -28.34942,35.39472 -35.69783,23.58723 -8.29387,-13.32667 -11.33025,-7.60521 -19.00846,-10.90851 1.35835,4.99751 -25.97003,40.55078 -24.38382,54.80751 3.45372,31.04171 -4.34262,49.77731 -14.28554,94.95533 -2.11676,9.61803 1.00473,7.0756 8.41473,-1.04728 22.38671,-24.54039 17.45176,-66.35546 28.76714,-85.16174 12.94016,-21.10049 0.54535,-33.45573 4.01449,-54.46977 0.60909,-3.68951 11.12587,-2.81934 11.50105,2.57334 1.1335,16.29252 6.8923,12.85378 4.19448,32.10939 -1.08421,7.73841 2.99968,11.02889 8.92205,2.44516 10.2054,-14.79141 11.49788,-17.1319 15.48375,-18.66656"
     id="path4458"
     style="fill:none;fill-opacity:1;stroke:#000000;stroke-width:1;stroke-linejoin:bevel;stroke-miterlimit:4;stroke-dasharray:none;stroke-opacity:1" />
</svg>
