<?xml version="1.0" encoding="UTF-8" standalone="no"?>
<svg
   xmlns:dc="http://purl.org/dc/elements/1.1/"
   xmlns:cc="http://creativecommons.org/ns#"
   xmlns:rdf="http://www.w3.org/1999/02/22-rdf-syntax-ns#"
   xmlns:svg="http://www.w3.org/2000/svg"
   xmlns="http://www.w3.org/2000/svg"
   id="svg2"
   version="1.1"
   x="0"
   y="0"
   width="400"
   height="500"
   viewBox="30.5 31.5 400 500"
   enable-background="new 30.5 31.5 412 533"
   xml:space="preserve"><metadata
     id="metadata4"><rdf:RDF><cc:Work
         rdf:about=""><dc:format>
          
          
          
          image/svg+xml
        
        
        
        </dc:format><dc:type
           rdf:resource="http://purl.org/dc/dcmitype/StillImage" /><dc:title></dc:title></cc:Work></rdf:RDF></metadata><defs
     id="defs6" /><path
     style="fill:#32ac60"
     id="path8"
     d="M 230.56,531.14 C 304.88,477.22 355.82,409.12 386.3,322.98 413.94,244.88 425.03,150.23 420.21,33.63 l -0.02,-0.46 -379.82,0 -0.02,0.46 c -4.81,116.6 6.28,211.24 33.91,289.35 30.48,86.14 81.42,154.24 155.74,208.16 l 0.28,0.2 0.28,-0.2 z" /><path
     id="path10"
     d="M 41.04,33.21 C 31.97,252.66 77.3,419.16 230.5,530.31 383.69,419.16 429.01,252.66 419.94,33.21 l -189.45,0 -189.45,0 m -0.92,-0.95 0.92,0 189.45,0 189.45,0 0.92,0 0.04,0.92 c 4.82,116.66 -6.28,211.36 -33.93,289.52 -30.51,86.24 -81.51,154.41 -155.91,208.39 l -0.56,0.41 -0.56,-0.41 C 155.54,477.11 104.54,408.94 74.03,322.7 46.38,244.54 35.28,149.84 40.1,33.18 l 0.04,-0.92 0,0 z" /><path
     style="fill:#ffffff;stroke:#000000;stroke-width:1;stroke-linecap:round;stroke-linejoin:round;stroke-miterlimit:4;stroke-dasharray:none;stroke-opacity:1"
     id="path2998"
     d="m 181.70341,416.40577 c 2.66868,-3.24621 1.75935,-8.01397 9.86436,-16.18493 6.04543,-6.09463 -2.73264,-18.8487 -1.43856,-32.59125 1.25468,-13.32327 -2.01963,-36.58305 -4.99662,-45.99165 -2.96077,-9.35732 0.13949,-23.12135 -2.48515,-33.07357 0,0 5.92708,2.52608 6.86528,5.0521 1.54696,4.16496 6.46745,19.58957 6.56331,27.43434 0.0499,4.08498 -0.78443,9.89015 0.42584,16.77613 2.36757,13.47067 7.92124,29.346 5.48234,50.84961 -0.0406,15.24598 -4.7169,10.75492 -10.05107,20.76848 -0.58194,1.09245 -1.49801,5.48284 -1.76553,6.36444 -0.79497,2.61969 4.78902,3.55738 7.62329,3.9202 4.5774,0.58596 13.47947,-0.96387 13.50956,-3.02579 0.17824,-12.21024 5.3539,-14.67672 4.454,-19.07572 -4.87897,-23.84999 2.35711,-65.97126 -2.21797,-76.55955 2.36066,-14.0115 4.49179,-18.74708 4.0687,-35.84213 2.61217,-7.18796 18.09274,0.0353 44.725,-1.51581 -0.24828,7.00015 1.28854,12.36374 1.28854,12.36374 3.65139,10.02077 3.78394,16.23043 4.43773,22.03247 1.30807,11.60893 -0.50838,18.10484 0.0297,23.56079 3.07657,31.19765 -16.85248,52.97029 -25.0566,59.13855 -2.03543,1.53034 -7.91429,7.00186 -8.96834,12.79859 -0.15842,0.87154 -0.41301,3.35066 0.0971,4.00966 0,0 3.62263,1.33567 5.52126,1.42502 6.31179,0.29702 15.81587,-0.99815 18.71859,-2.99273 2.6547,-1.82419 1.16988,-8.09527 8.07298,-12.56773 8.57643,-5.55661 2.87795,-13.8787 7.99499,-29.52668 5.34845,-16.35564 13.41626,-28.57162 14.95907,-36.90487 2.20984,-11.93609 -3.48141,-13.59496 -2.47558,-38.09514 0.15923,-3.87837 2.48761,-14.90935 1.27746,-18.18323 2.50667,-0.15243 6.11492,-1.11011 7.31603,-1.32384 7.02474,12.35015 21.47302,27.83463 21.46882,48.51508 -0.007,21.24431 -2.82963,31.82368 -9.1711,57.39856 -1.24492,7.1877 -9.05832,13.59866 -14.96421,18.12026 -3.79142,2.90275 -8.78206,10.40364 -9.40073,13.06579 -0.62204,2.67669 3.92015,3.57771 6.98264,3.54949 5.34737,-0.0493 14.52626,-0.23298 15.24561,-3.06136 5.36505,-21.09461 20.29766,-13.95711 19.34735,-24.7925 -1.71771,-19.58522 1.86582,-37.61839 12.24546,-56.13536 6.24466,-11.14029 1.84906,-21.95412 0.37215,-26.17927 -1.67847,-4.80178 -8.30349,-16.0237 -4.32313,-24.30504 8.53836,-17.76451 18.9114,-47.16618 24.7195,-47.80605 18.10125,-1.99416 20.50394,-14.53208 20.86314,-16.43738 0.48856,-2.5915 -7.27277,-1.80303 -15.30447,-5.99896 -4.53378,-2.36853 -5.12689,-4.94508 -13.04808,-11.70245 -15.69141,-13.38619 -27.00012,-15.50944 -46.60184,-13.96827 -3.93764,0.30959 -16.81454,7.52052 -53.00853,6.25417 -13.93693,-0.48762 -25.5424,-2.54453 -34.30726,-5.01608 -13.22637,-3.72962 -17.81417,-9.42598 -38.61318,-10.88505 -8.05211,-0.56486 -18.4493,-24.98003 -29.88548,-38.07306 6.74837,3.10781 13.8617,2.92418 18.24824,0.94721 8.34786,-3.76231 9.84278,-5.37152 3.68087,-8.05598 -5.13385,-2.23657 -9.08509,-3.32085 -22.63992,-0.0766 -0.0214,-2.48578 14.52682,-16.30358 47.26018,4.20409 6.96931,4.36633 59.64036,27.18606 81.2114,22.06617 16.21619,-3.84891 48.07056,-24.97525 48.03011,-40.90371 -0.13389,-4.21203 -2.69534,-5.39896 -4.37488,-1.046 -2.45924,6.37394 -8.60658,16.24738 -16.69343,18.39765 -2.1006,0.55858 -4.4739,-2.57058 -5.21814,-6.4588 -0.90956,-4.75164 -3.62582,-8.46878 -8.06623,-9.94599 -2.10298,-0.69956 -2.90347,0.34659 -0.37801,2.646 2.30064,2.0946 2.79071,5.33468 2.31601,10.59051 -0.25039,2.77226 2.10397,5.35123 1.09957,7.44349 -2.0729,4.31805 -13.56353,14.18461 -21.1457,11.09006 -11.53031,-4.70565 2.26324,-18.03983 -1.03695,-26.42623 -3.67861,-6.13915 -7.87163,-8.98143 -6.74073,-3.72812 2.44252,11.3465 -1.11299,12.06499 -3.2112,19.57418 -0.92077,3.29521 -2.5726,11.42585 -9.40431,9.09518 -8.56816,-2.92299 -28.12435,-6.52612 -29.35123,-11.44792 -1.80054,-7.22296 20.1715,-7.47687 24.08113,-18.87496 0.90105,-2.62652 -0.82832,-3.9 -3.47782,-0.83524 -2.74347,3.17339 -13.00428,5.17721 -16.89125,5.32451 -10.93001,0.41419 -13.13088,12.08396 -17.61357,10.10971 -22.01266,-9.69463 -26.43104,-13.74051 -38.51578,-14.72729 11.94884,-2.29963 17.03892,-8.43946 27.93297,-10.3658 10.1849,-1.80095 20.22913,-0.0646 23.69623,-0.0794 22.22289,-0.0954 44.44529,-0.0429 64.69415,-8.59088 22.71434,-9.588797 26.5296,-10.815194 30.02356,-16.995168 4.52946,-8.011508 10.85596,-15.001494 11.1193,-21.394838 0.21722,-5.273399 -2.31038,-7.168003 -3.50575,-2.097244 -0.75392,5.044631 -9.1861,10.462531 -12.2353,15.300305 -6.47887,10.279204 -13.71405,10.026366 -14.68214,7.418895 -2.58878,-6.973275 8.33314,-17.034187 8.85188,-25.426259 0.1975,-3.195483 -2.33171,-1.802337 -3.5283,0.03882 -3.01101,4.632942 -5.26311,6.870594 -9.19576,12.243382 -3.01997,4.12589 -3.96642,12.399126 -6.86166,18.873277 -3.79089,8.47692 -40.64415,13.02648 -42.58788,10.18352 -2.70903,-5.706851 1.10249,-12.675415 3.82958,-20.369564 1.36056,-3.838452 2.16357,-9.498956 0.9444,-12.938816 -0.84444,-2.382872 -2.89629,-3.853688 -3.00508,-2.694129 -1.19489,12.738416 -10.16324,17.62094 -11.3083,30.382541 -0.23551,2.624606 -1.87521,7.685578 -10.49992,7.382558 -6.26693,-0.22019 -22.5254,0.84053 -22.68152,-0.57629 -1.14943,-10.431283 14.3935,-19.491354 11.8009,-30.87122 -0.62762,-2.755048 -2.12718,-5.815189 -2.84567,-2.601661 -2.48794,11.127852 -11.92717,15.107518 -18.75051,22.08751 -4.05989,4.153119 -0.40033,13.638091 -12.41286,16.036531 -14.34432,2.86401 -26.10896,15.7154 -33.8314,12.00403 -9.39594,-4.51544 -23.2202,-23.853955 -17.54268,-43.504981 0.68561,-2.372825 0.55685,-6.638018 -2.48753,-3.250714 -8.435,9.385126 -9.46964,27.203213 -2.29287,40.169455 0,0 -15.06419,-15.678908 -14.06716,-33.480202 0.10393,-1.855583 -1.99656,-1.509413 -2.38973,-0.973757 -11.83204,16.120024 15.4257,48.400729 19.84151,50.530799 -10.97313,-0.46279 -22.96573,1.50469 -26.43446,1.01529 -9.75083,-1.37574 -13.7215,-4.55211 -18.16451,-2.24201 -3.60693,1.87538 -8.51801,6.16178 -7.15335,11.51605 0.47263,1.85445 4.08309,2.19952 3.57845,3.70561 -0.39669,1.18386 -2.18131,2.08664 -3.06711,3.24743 -1.9005,2.49038 -0.88262,5.95804 1.32245,8.63617 2.99641,3.63927 6.4633,3.90605 11.91299,5.53435 5.06468,1.51326 8.65988,8.44303 19.64922,10.1808 3.25718,1.81492 -2.40347,17.40899 -8.29571,27.7441 -2.61628,4.58904 -2.81721,14.49724 -1.94343,15.91057 0.65064,1.05241 6.56202,1.42614 7.26989,3.57391 0.77592,2.35423 -2.12311,17.90298 -0.58072,19.40864 1.40577,1.37233 5.51381,3.05881 5.88847,4.29444 0.55572,1.83281 3.01663,12.02694 5.39113,13.09684 1.59597,0.71911 8.66915,-3.24381 9.40126,-2.26259 7.45731,9.99568 19.32911,35.90176 35.31826,36.27382 1.23766,20.264 2.99603,20.92197 6.60921,27.3293 8.75467,15.52485 2.87848,23.65213 9.1151,40.89333 1.35435,3.74413 4.74306,19.27189 2.55201,32.92453 -0.78943,4.91899 -8.37766,11.56545 -11.07083,15.95277 -8.12959,13.24352 -5.2751,14.85034 0.53883,15.24453 3.90926,0.26505 12.16713,-0.10575 14.51566,-2.96252 z" /><path
     style="fill:#000000;fill-opacity:1;stroke:none;stroke-opacity:1"
     id="path4035"
     d="m 122.67474,137.91189 c -2.50759,3.62989 -9.14694,1.76358 -10.68763,-1.87688 -1.41225,-3.33698 13.63369,-2.38771 10.68763,1.87688 z" /><path
     id="path4268"
     d="m 121.96598,111.31356 c 3.54714,6.54128 7.27963,10.06218 11.58084,14.34127"
     style="fill:none;fill-rule:evenodd;stroke:#000000;stroke-width:1px;stroke-linecap:round;stroke-linejoin:miter;stroke-opacity:1" /><path
     id="path4270"
     d="m 167.18775,419.36829 c 0.85976,-3.65006 2.0332,-5.76595 4.11813,-8.59923"
     style="fill:none;fill-rule:evenodd;stroke:#000000;stroke-width:1px;stroke-linecap:round;stroke-linejoin:miter;stroke-opacity:1" /><path
     id="path4272"
     d="m 197.7909,419.72967 c -0.19513,-2.99486 0.20982,-5.2818 1.48933,-8.38557"
     style="fill:none;fill-rule:evenodd;stroke:#000000;stroke-width:1px;stroke-linecap:round;stroke-linejoin:miter;stroke-opacity:1" /><path
     id="path4274"
     d="m 239.67958,419.03949 c 0.62441,-2.88207 1.6619,-6.12469 3.43447,-8.9726"
     style="fill:none;fill-rule:evenodd;stroke:#000000;stroke-width:1px;stroke-linecap:round;stroke-linejoin:miter;stroke-opacity:1" /><path
     id="path4276"
     d="m 291.22637,420.55424 c 0.86091,-3.09269 2.50134,-6.92524 4.23728,-9.21001"
     style="fill:none;fill-rule:evenodd;stroke:#000000;stroke-width:1px;stroke-linecap:round;stroke-linejoin:miter;stroke-opacity:1" /><path
     id="path4278"
     d="m 262.33019,283.71067 7.90261,-0.71322"
     style="fill:none;fill-rule:evenodd;stroke:#000000;stroke-width:1px;stroke-linecap:round;stroke-linejoin:miter;stroke-opacity:1" /><path
     id="path4280"
     d="m 288.22709,280.76911 c -1.71286,0.24019 -3.47435,0.38314 -5.29038,0.417"
     style="fill:none;fill-rule:evenodd;stroke:#000000;stroke-width:1px;stroke-linecap:round;stroke-linejoin:miter;stroke-opacity:1" /></svg>