<svg xmlns:dc="http://purl.org/dc/elements/1.1/" xmlns:cc="http://creativecommons.org/ns#" xmlns:rdf="http://www.w3.org/1999/02/22-rdf-syntax-ns#" xmlns:svg="http://www.w3.org/2000/svg" xmlns="http://www.w3.org/2000/svg" xml:space="preserve" enable-background="new 30.5 31.5 412 533" viewBox="30.5 31.5 400 500" height="500" width="400" y="0" x="0" version="1.1" id="svg2">
  <metadata id="metadata4">
    <rdf:RDF>
      <cc:Work rdf:about="">
        <dc:format>
          
          
          
          
          
          
          
          image/svg+xml
        
        
        
        
        
        
        
        </dc:format>
        <dc:type rdf:resource="http://purl.org/dc/dcmitype/StillImage"/>
      </cc:Work>
    </rdf:RDF>
  </metadata>
  <defs id="defs6"/>
  <path id="path4148" d="M230.55 531.13C304.87 477.21 355.81 409.11 386.29 322.97 413.93 244.87 425.02 150.22 420.2 33.62l-0.02-0.46-379.82 0-0.02 0.46c-4.81 116.6 6.28 211.24 33.91 289.35 30.48 86.14 81.42 154.24 155.74 208.16l0.28 0.2 0.28-0.2z" fill="#32ac60"/>
  <path d="m41.04 33.21c-9.07 219.45 36.25 385.95 189.45 497.1 84.47-61.29 136.15-139.41 163.99-233.97 2.09-7.09 4.04-14.27 5.87-21.54 11.45-45.69 17.77-95.02 19.88-147.94 1.2-30.06 1.05-61.28-0.29-93.65l-189.45 0-189.45 0m-0.92-0.95 0.92 0 189.45 0 189.45 0 0.92 0 0.04 0.92c4.82 116.66-6.28 211.36-33.93 289.52-30.51 86.24-81.51 154.41-155.91 208.39l-0.56 0.41-0.56-0.41C155.54 477.11 104.54 408.94 74.03 322.7 46.38 244.54 35.28 149.84 40.1 33.18l0.04-0.92 0 0z" id="path10"/>
  <path id="path3718" d="m128.38 279.08-12.49 16.8c-7.39-15.62-8.8-37.35-2.14-55.55l-16.04 10.84c-1.03-18.34 3.55-36.99 16.59-53.08l-19.01 4.2c5.63-21.42 18.97-35.27 34.56-43.54l-19.29-2.27c10.46-18.79 23.57-26.11 44.62-31.22l-16.04-8.77c17.73-12.37 33.64-13.14 51.48-10.95-3.33-4.22-7.39-9.65-12.68-15.21 14.14-2.58 34.44-1.85 52.56 7.49-3.22-8.89-5.25-12.06-7.21-16.23 22.08 3.02 36.87 11.35 45.65 24.54 1.19-4.68 1.67-11.97 1.02-17.96 16.79 8.18 28.56 19.19 34.49 36.11 3.05-3.67 5.18-10.2 7.02-15.68 15.08 12.8 20.88 29.51 20 48.86 4.09-3.07 10.55-12.05 12.18-14.24 8.98 17.18 9.12 34.38 4.02 54.2l15.68-10.28c2.51 17.7-3.15 36.08-16.84 49.55l20.45-3.79c-9.05 24.77-19.96 35.46-34.66 44.58l17.82 2.82c-10.28 15.83-24.99 24.49-44.33 30.7l18.5 7.77c-14.73 12.77-33.42 15.52-52.02 12.77l14.38 14.66c-18.43 4.94-37.87 2.14-56.14-8.1l10.11 19.38c-21.14-3.3-36.05-11.07-48.52-26.59l0.82 22.48c-16.84-7.23-28.94-20.29-37.21-42.37l-5.58 19.38c-11.61-10.6-21.86-31.1-21.73-51.3z" style="fill:#fff;stroke-miterlimit:4;stroke:#000"/>
  <path id="path3720" d="m249.85 220.46a19.35 19.82 0 0 1-38.7 0 19.35 19.82 0 1 1 38.7 0z" style="fill:#32ac60;stroke:#000"/>
</svg>
