<?xml version="1.0" encoding="UTF-8" standalone="no"?>
<svg
   xmlns:dc="http://purl.org/dc/elements/1.1/"
   xmlns:cc="http://creativecommons.org/ns#"
   xmlns:rdf="http://www.w3.org/1999/02/22-rdf-syntax-ns#"
   xmlns:svg="http://www.w3.org/2000/svg"
   xmlns="http://www.w3.org/2000/svg"
   xml:space="preserve"
   enable-background="new 30.5 31.5 412 533"
   viewBox="30.5 31.5 400 500"
   height="500"
   width="400"
   y="0"
   x="0"
   version="1.1"
   id="svg2"><metadata
     id="metadata4"><rdf:RDF><cc:Work
         rdf:about=""><dc:format>
          
          
          
          image/svg+xml
        
        
        
        </dc:format><dc:type
           rdf:resource="http://purl.org/dc/dcmitype/StillImage" /><dc:title></dc:title></cc:Work></rdf:RDF></metadata><defs
     id="defs6" /><path
     style="fill:#32ac60"
     d="M 230.44,531.14 C 156.12,477.22 105.18,409.12 74.7,322.98 47.06,244.88 35.97,150.23 40.79,33.63 l 0.02,-0.46 379.82,0 0.02,0.46 c 4.81,116.6 -6.28,211.24 -33.91,289.35 C 356.26,409.12 305.32,477.22 231,531.14 l -0.28,0.2 -0.28,-0.2 z"
     id="path8" /><path
     style="fill:#ffe000;fill-opacity:1;fill-rule:evenodd;stroke:#000000;stroke-width:1;stroke-linecap:butt;stroke-linejoin:round;stroke-miterlimit:4;stroke-dasharray:none;stroke-opacity:1"
     d="m 222.11861,476.8983 -15.81516,-22.47454 12.58727,-49.45649 -9.04534,0.0758 -10.20414,40.0394 -4.88639,0 -15.62731,-42.26654 19.42783,-46.95887 -8.63874,0 -16.4447,39.92722 -5.64649,0 -12.12914,-43.00257 29.1772,-52.21184 -10.12011,0 -22.56438,40.37831 -5.5379,0 -3.72244,-46.41338 36.6241,-46.66517 -10.08099,0 -28.11863,35.48269 -4.80057,0.15369 3.61194,-46.09716 45.10994,-43.72191 -10.94861,-0.0724 -33.86416,32.44926 -4.01769,0 8.02031,-44.2452 52.67944,-37.6938 -14.18612,0 -37.2838,27.10291 -4.01768,0 17.7456,-42.80078 52.20357,-39.290576 -12.81653,-0.123265 -33.02648,24.297221 -4.49589,0 31.74283,-45.456782 30.73815,-0.159522 0,-12.870839 c 4.50173,0 9.00347,0 13.5052,0 l 0,12.870839 30.73815,0.159522 31.74283,45.456782 -4.49589,0 -33.02648,-24.297221 -12.81653,0.123265 52.20357,39.290576 17.7456,42.80078 -4.01768,0 -37.2838,-27.10291 -14.18612,0 52.67944,37.6938 8.02031,44.2452 -4.01769,0 -33.86416,-32.44926 -10.94861,0.0724 45.10994,43.72191 3.61194,46.09716 -4.80057,-0.15369 -28.11863,-35.48269 -10.08099,0 36.6241,46.66517 -3.72244,46.41338 -5.5379,0 -22.56438,-40.37831 -10.12011,0 29.1772,52.21184 -12.12914,43.00257 -5.64649,0 -16.4447,-39.92722 -8.63874,0 19.42783,46.95887 -15.62731,42.26654 -4.88639,0 -10.20414,-40.0394 -9.04534,-0.0758 12.58727,49.45649 -15.81516,22.47454 c -5.58759,0 -11.17519,0 -16.76278,0 z"
     id="path4295" /><path
     d="M 419.96,33.21 C 429.03,252.66 383.7,419.16 230.5,530.31 77.31,419.16 31.99,252.66 41.06,33.21 l 189.45,0 189.45,0 m 0.92,-0.95 -0.92,0 -189.45,0 -189.45,0 -0.92,0 -0.04,0.92 c -4.82,116.66 6.28,211.36 33.93,289.52 30.51,86.24 81.51,154.41 155.91,208.39 l 0.56,0.41 0.56,-0.41 C 305.46,477.11 356.46,408.94 386.97,322.7 414.62,244.54 425.72,149.84 420.9,33.18 l -0.04,-0.92 0,0 z"
     id="path10" /></svg>