<svg xmlns:dc="http://purl.org/dc/elements/1.1/" xmlns:cc="http://creativecommons.org/ns#" xmlns:rdf="http://www.w3.org/1999/02/22-rdf-syntax-ns#" xmlns:svg="http://www.w3.org/2000/svg" xmlns="http://www.w3.org/2000/svg" xml:space="preserve" enable-background="new 30.5 31.5 412 533" viewBox="30.5 31.5 400 500" height="500" width="400" y="0" x="0" version="1.1" id="svg2">
  <metadata id="metadata4">
    <rdf:RDF>
      <cc:Work rdf:about="">
        <dc:format>
          
          
          
          
          
          
          
          
          image/svg+xml
        
        
        
        
        
        
        
        
        </dc:format>
        <dc:type rdf:resource="http://purl.org/dc/dcmitype/StillImage"/>
      </cc:Work>
    </rdf:RDF>
  </metadata>
  <defs id="defs6"/>
  <path id="path4148" d="M230.55 531.13C304.87 477.21 355.81 409.11 386.29 322.97 413.93 244.87 425.02 150.22 420.2 33.62l-0.02-0.46-379.82 0-0.02 0.46c-4.81 116.6 6.28 211.24 33.91 289.35 30.48 86.14 81.42 154.24 155.74 208.16l0.28 0.2z" fill="#0085ca"/>
  <path d="m41.04 33.21c-9.07 219.45 36.25 385.95 189.45 497.1 84.47-61.29 136.15-139.41 163.99-233.97 2.09-7.09 4.04-14.27 5.87-21.54 11.45-45.69 17.77-95.02 19.88-147.94 1.2-30.06 1.05-61.28-0.29-93.65l-189.45 0-189.45 0m-0.92-0.95 0.92 0 189.45 0 189.45 0 0.92 0 0.04 0.92c4.82 116.66-6.28 211.36-33.93 289.52-30.51 86.24-81.51 154.41-155.91 208.39l-0.56 0.41-0.56-0.41C155.54 477.11 104.54 408.94 74.03 322.7 46.38 244.54 35.28 149.84 40.1 33.18l0.04-0.92 0 0z" id="path10"/>
  <path id="path2827" d="m154.86 274.76c3.45-12.15 12.77-24.23 21.02-35.78 6.56-9.24 12.01-20.02 11.67-33.74-0.36-14.48-1.08-23.76-10.84-32.31-8.34-7.31-20.58-12.38-38.02-17.19-24.66-6.8-55.35-11.17-54.01-23.64-4.84-0.15-11.89 6.79-16.99 24.55-7.62-57.32 4.31-80.35 40.75-89.1 16.51-3.96 35.41-4.11 65.06-4.94 7.58-9.77 67.04-13.5 109.65-2.82 14.99 3.76 33.53 12.28 50.24 23.62 21.31 14.47 33.49 28.34 39.22 47.97-3.79-2.67-8.82-5.79-12.79-7.1 14.61 35.09 1.37 76.97 9.7 122.58-5.24-3.29-9.63-12.98-11.96-19.59-0.62 21.67 1.89 59.43 11.42 95.73-5.8 0.96-20.4-7.19-24.36-13.12 2.02 29.25-1.17 63.71-11.1 88.59-7.04 17.64-19.09 33.55-31.55 47.36-7.92 8.78-16.59 16.67-25.62 23.53 7.81-10.95 21.47-36.05 28.33-53.98 7.34-19.18 6.33-37.77-2.21-51.34-7.69 17.47-25.51 33.28-43.86 45.06-30.73 19.72-50.98 46.67-21.51 93.19-36.3-18.49-65.48-75.11-40.16-142.04-20.27 22.77-55.55 45.32-34.66 92.74-27.24-24.71-36.39-58.1-32.74-83.06 2.49-17.09 11.18-35.23 16.12-47.89-9.07 5.18-18.73 17.58-27.12 27.91 0.42-4.28 3.47-14.54 10.3-25.37 13.17-20.86 36.03-47.29 51.61-60.63-7.34 2.12-15.71 4.42-25.58 10.82z" style="fill:#fff;stroke-linecap:round;stroke-linejoin:round;stroke-miterlimit:4;stroke-width:1.14;stroke:#000"/>
  <path id="path5304" d="m84.67 132.02c34.15 3.83 69.48 12.36 104.21 18.54" style="fill:none;stroke-linejoin:round;stroke:#000"/>
  <circle r="10.65" cy="87.66" cx="205.51" id="path5308" style="fill:#0085ca;stroke-linecap:round;stroke-linejoin:round;stroke-miterlimit:4;stroke-width:1.25;stroke:#000"/>
  <path id="path5306" d="m186.77 76.03c8.41 5.22 41.59-0.32 53.81-1.74" style="fill-rule:evenodd;fill:#fff;stroke-linecap:round;stroke:#000"/>
</svg>
