<?xml version="1.0" encoding="UTF-8" standalone="no"?>
<svg
   xmlns:dc="http://purl.org/dc/elements/1.1/"
   xmlns:cc="http://creativecommons.org/ns#"
   xmlns:rdf="http://www.w3.org/1999/02/22-rdf-syntax-ns#"
   xmlns:svg="http://www.w3.org/2000/svg"
   xmlns="http://www.w3.org/2000/svg"
   id="svg2"
   version="1.1"
   x="0"
   y="0"
   width="400"
   height="500"
   viewBox="30.5 31.5 400 500"
   enable-background="new 30.5 31.5 412 533"
   xml:space="preserve"><metadata
     id="metadata4"><rdf:RDF><cc:Work
         rdf:about=""><dc:format>
          
          
          
          
          image/svg+xml
        
        
        
        
        </dc:format><dc:type
           rdf:resource="http://purl.org/dc/dcmitype/StillImage" /><dc:title></dc:title></cc:Work></rdf:RDF></metadata><defs
     id="defs6" /><path
     id="path8"
     d="M 230.56,531.14 C 304.88,477.22 355.82,409.12 386.3,322.98 413.94,244.88 425.03,150.23 420.21,33.63 l -0.02,-0.46 -379.82,0 -0.02,0.46 c -4.81,116.6 6.28,211.24 33.91,289.35 30.48,86.14 81.42,154.24 155.74,208.16 l 0.28,0.2 0.28,-0.2 z"
     style="fill:#ffe000;fill-opacity:1" /><path
     id="path10"
     d="M 41.04,33.21 C 31.97,252.66 77.3,419.16 230.5,530.31 383.69,419.16 429.01,252.66 419.94,33.21 l -189.45,0 -189.45,0 m -0.92,-0.95 0.92,0 189.45,0 189.45,0 0.92,0 0.04,0.92 c 4.82,116.66 -6.28,211.36 -33.93,289.52 -30.51,86.24 -81.51,154.41 -155.91,208.39 l -0.56,0.41 -0.56,-0.41 C 155.54,477.11 104.54,408.94 74.03,322.7 46.38,244.54 35.28,149.84 40.1,33.18 l 0.04,-0.92 0,0 z" /><path
     style="fill:#000000;fill-rule:evenodd;stroke:none"
     id="path3256"
     d="m 251.5464,441.31 -42.0928,0 0,-126.5544 -10.66112,-7.53632 0,-12.40736 c -73.34096,-38.2328 -74.71952,-80.69328 -74.71952,-94.57104 0,-50.824 18.7488,-59.27936 18.7488,-83.35872 0,-24.07936 -15.16448,-24.998416 -9.00672,-35.659504 6.2496,-10.844896 25.36592,7.628192 25.36592,26.009394 0,22.51699 -9.55814,43.37955 -9.55814,63.04739 0,61.66896 58.45212,74.9952 80.87718,74.9952 22.42506,0 80.87718,-13.32624 80.87718,-74.9952 0,-19.75968 -9.55814,-40.5304 -9.55814,-63.04739 0,-18.381202 19.11632,-36.946194 25.36592,-26.009394 6.15776,10.661088 -9.00672,11.48824 -9.00672,35.659504 0,24.07936 18.7488,32.53472 18.7488,83.35872 0,13.87776 -1.37856,56.33824 -74.62755,94.66304 l 0,12.4072 -10.66109,7.53632 z m -30.88032,-21.0464 c 0,5.4224 4.41152,9.83392 9.83392,9.83392 5.4224,0 9.83392,-4.41152 9.83392,-9.83392 0,-5.42256 -4.41152,-9.83392 -9.83392,-9.83392 -5.4224,0 -9.83392,4.41136 -9.83392,9.83392 z" /></svg>