<svg xmlns:dc="http://purl.org/dc/elements/1.1/" xmlns:cc="http://creativecommons.org/ns#" xmlns:rdf="http://www.w3.org/1999/02/22-rdf-syntax-ns#" xmlns:svg="http://www.w3.org/2000/svg" xmlns="http://www.w3.org/2000/svg" id="svg2" version="1.1" x="0" y="0" width="400" height="500" viewBox="30.5 31.5 400 500" enable-background="new 30.5 31.5 412 533" xml:space="preserve">
  <metadata id="metadata4">
    <rdf:RDF>
      <cc:Work rdf:about="">
        <dc:format>
          
          
          
          
          image/svg+xml
        
        
        
        
        </dc:format>
        <dc:type rdf:resource="http://purl.org/dc/dcmitype/StillImage"/>
      </cc:Work>
    </rdf:RDF>
  </metadata>
  <defs id="defs6"/>
  <path id="path8" d="M230.56 531.14C304.88 477.22 355.82 409.12 386.3 322.98 413.94 244.88 425.03 150.23 420.21 33.63l-0.02-0.46-379.82 0-0.02 0.46c-4.81 116.6 6.28 211.24 33.91 289.35 30.48 86.14 81.42 154.24 155.74 208.16l0.28 0.2 0.28-0.2z" fill="#fff"/>
  <path id="path10" d="M41.04 33.21C31.97 252.66 77.3 419.16 230.5 530.31 383.69 419.16 429.01 252.66 419.94 33.21l-189.45 0-189.45 0m-0.92-0.95 0.92 0 189.45 0 189.45 0 0.92 0 0.04 0.92c4.82 116.66-6.28 211.36-33.93 289.52-30.51 86.24-81.51 154.41-155.91 208.39l-0.56 0.41-0.56-0.41C155.54 477.11 104.54 408.94 74.03 322.7 46.38 244.54 35.28 149.84 40.1 33.18l0.04-0.92 0 0z"/>
  <path id="path4641" d="m228.22 521.8c-1.49 0.39-2.8 0.44-4.22 0.22 3.49-8.9 5.67-19.72 6.5-30.95 0.83 11.23 3.01 22.05 6.5 30.95-1.42 0.22-2.73 0.17-4.22-0.22-0.34 1.6-1.36 3.39-2.28 4.7-0.92-1.31-1.94-3.1-2.28-4.7z" style="fill-rule:evenodd;fill:#000"/>
  <circle r="2.59" cy="486.94" cx="230.5" id="path4649" fill="#000"/>
  <circle id="circle4651" cx="226.5" cy="492.36" r="2.59" fill="#000"/>
  <circle id="circle4655" cx="234.5" cy="492.36" r="2.59" fill="#000"/>
  <path id="path4753" d="m40.66 32.72c-1.48 44.85-1.75 90.43 2.58 138.78 124.84 0 249.67 0 374.51 0 4.34-48.34 4.06-93.92 2.58-138.78-126.56 0-253.12 0-379.68 0z" style="fill-rule:evenodd;fill:#e00e00;stroke:#000"/>
  <path d="m195.72 466.8c-1.49 0.39-2.8 0.44-4.22 0.22 3.49-8.9 5.67-19.72 6.5-30.95 0.83 11.23 3.01 22.05 6.5 30.95-1.42 0.22-2.73 0.17-4.22-0.22-0.34 1.6-1.36 3.39-2.28 4.7-0.92-1.31-1.94-3.1-2.28-4.7z" id="path4767" style="fill-rule:evenodd;fill:#000"/>
  <circle id="circle4769" cx="198" cy="431.94" r="2.59" fill="#000"/>
  <circle r="2.59" cy="437.36" cx="194" id="circle4771" fill="#000"/>
  <circle r="2.59" cy="437.36" cx="202" id="circle4773" fill="#000"/>
  <path id="path4775" d="m228.22 406.8c-1.49 0.39-2.8 0.44-4.22 0.22 3.49-8.9 5.67-19.72 6.5-30.95 0.83 11.23 3.01 22.05 6.5 30.95-1.42 0.22-2.73 0.17-4.22-0.22-0.34 1.6-1.36 3.39-2.28 4.7-0.92-1.31-1.94-3.1-2.28-4.7z" style="fill-rule:evenodd;fill:#000"/>
  <circle r="2.59" cy="371.94" cx="230.5" id="circle4777" fill="#000"/>
  <circle id="circle4779" cx="226.5" cy="377.36" r="2.59" fill="#000"/>
  <circle id="circle4781" cx="234.5" cy="377.36" r="2.59" fill="#000"/>
  <path d="m195.72 346.8c-1.49 0.39-2.8 0.44-4.22 0.22 3.49-8.9 5.67-19.72 6.5-30.95 0.83 11.23 3.01 22.05 6.5 30.95-1.42 0.22-2.73 0.17-4.22-0.22-0.34 1.6-1.36 3.39-2.28 4.7-0.92-1.31-1.94-3.1-2.28-4.7z" id="path4783" style="fill-rule:evenodd;fill:#000"/>
  <circle id="circle4785" cx="198" cy="311.94" r="2.59" fill="#000"/>
  <circle r="2.59" cy="317.36" cx="194" id="circle4787" fill="#000"/>
  <circle r="2.59" cy="317.36" cx="202" id="circle4789" fill="#000"/>
  <path id="path4791" d="m228.22 286.8c-1.49 0.39-2.8 0.44-4.22 0.22 3.49-8.9 5.67-19.72 6.5-30.95 0.83 11.23 3.01 22.05 6.5 30.95-1.42 0.22-2.73 0.17-4.22-0.22-0.34 1.6-1.36 3.39-2.28 4.7-0.92-1.31-1.94-3.1-2.28-4.7z" style="fill-rule:evenodd;fill:#000"/>
  <circle r="2.59" cy="251.94" cx="230.5" id="circle4793" fill="#000"/>
  <circle id="circle4795" cx="226.5" cy="257.36" r="2.59" fill="#000"/>
  <circle id="circle4797" cx="234.5" cy="257.36" r="2.59" fill="#000"/>
  <path d="m195.72 226.8c-1.49 0.39-2.8 0.44-4.22 0.22 3.49-8.9 5.67-19.72 6.5-30.95 0.83 11.23 3.01 22.05 6.5 30.95-1.42 0.22-2.73 0.17-4.22-0.22-0.34 1.6-1.36 3.39-2.28 4.7-0.92-1.31-1.94-3.1-2.28-4.7z" id="path4799" style="fill-rule:evenodd;fill:#000"/>
  <circle id="circle4801" cx="198" cy="191.94" r="2.59" fill="#000"/>
  <circle r="2.59" cy="197.36" cx="194" id="circle4803" fill="#000"/>
  <circle r="2.59" cy="197.36" cx="202" id="circle4805" fill="#000"/>
  <path id="path4807" d="m163.22 286.8c-1.49 0.39-2.8 0.44-4.22 0.22 3.49-8.9 5.67-19.72 6.5-30.95 0.83 11.23 3.01 22.05 6.5 30.95-1.42 0.22-2.73 0.17-4.22-0.22-0.34 1.6-1.36 3.39-2.28 4.7-0.92-1.31-1.94-3.1-2.28-4.7z" style="fill-rule:evenodd;fill:#000"/>
  <circle r="2.59" cy="251.94" cx="165.5" id="circle4809" fill="#000"/>
  <circle id="circle4811" cx="161.5" cy="257.36" r="2.59" fill="#000"/>
  <circle id="circle4813" cx="169.5" cy="257.36" r="2.59" fill="#000"/>
  <path d="m130.72 226.8c-1.49 0.39-2.8 0.44-4.22 0.22 3.49-8.9 5.67-19.72 6.5-30.95 0.83 11.23 3.01 22.05 6.5 30.95-1.42 0.22-2.73 0.17-4.22-0.22-0.34 1.6-1.36 3.39-2.28 4.7-0.92-1.31-1.94-3.1-2.28-4.7z" id="path4815" style="fill-rule:evenodd;fill:#000"/>
  <circle id="circle4817" cx="133" cy="191.94" r="2.59" fill="#000"/>
  <circle r="2.59" cy="197.36" cx="129" id="circle4819" fill="#000"/>
  <circle r="2.59" cy="197.36" cx="137" id="circle4821" fill="#000"/>
  <path id="path4823" d="m98.22 286.8c-1.49 0.39-2.8 0.44-4.22 0.22 3.49-8.9 5.67-19.72 6.5-30.95 0.83 11.23 3.01 22.05 6.5 30.95-1.42 0.22-2.73 0.17-4.22-0.22-0.34 1.6-1.36 3.39-2.28 4.7-0.92-1.31-1.94-3.1-2.28-4.7z" style="fill-rule:evenodd;fill:#000"/>
  <circle r="2.59" cy="251.94" cx="100.5" id="circle4825" fill="#000"/>
  <circle id="circle4827" cx="96.5" cy="257.36" r="2.59" fill="#000"/>
  <circle id="circle4829" cx="104.5" cy="257.36" r="2.59" fill="#000"/>
  <path d="m65.72 226.8c-1.49 0.39-2.8 0.44-4.22 0.22 3.49-8.9 5.67-19.72 6.5-30.95 0.83 11.23 3.01 22.05 6.5 30.95-1.42 0.22-2.73 0.17-4.22-0.22-0.34 1.6-1.36 3.39-2.28 4.7-0.92-1.31-1.94-3.1-2.28-4.7z" id="path4831" style="fill-rule:evenodd;fill:#000"/>
  <circle id="circle4833" cx="68" cy="191.94" r="2.59" fill="#000"/>
  <circle r="2.59" cy="197.36" cx="64" id="circle4835" fill="#000"/>
  <circle r="2.59" cy="197.36" cx="72" id="circle4837" fill="#000"/>
  <path id="path4839" d="m130.72 346.8c-1.49 0.39-2.8 0.44-4.22 0.22 3.49-8.9 5.67-19.72 6.5-30.95 0.83 11.23 3.01 22.05 6.5 30.95-1.42 0.22-2.73 0.17-4.22-0.22-0.34 1.6-1.36 3.39-2.28 4.7-0.92-1.31-1.94-3.1-2.28-4.7z" style="fill-rule:evenodd;fill:#000"/>
  <circle r="2.59" cy="311.94" cx="133" id="circle4841" fill="#000"/>
  <circle id="circle4843" cx="129" cy="317.36" r="2.59" fill="#000"/>
  <circle id="circle4845" cx="137" cy="317.36" r="2.59" fill="#000"/>
  <path d="m163.22 406.8c-1.49 0.39-2.8 0.44-4.22 0.22 3.49-8.9 5.67-19.72 6.5-30.95 0.83 11.23 3.01 22.05 6.5 30.95-1.42 0.22-2.73 0.17-4.22-0.22-0.34 1.6-1.36 3.39-2.28 4.7-0.92-1.31-1.94-3.1-2.28-4.7z" id="path4847" style="fill-rule:evenodd;fill:#000"/>
  <circle id="circle4849" cx="165.5" cy="371.94" r="2.59" fill="#000"/>
  <circle r="2.59" cy="377.36" cx="161.5" id="circle4851" fill="#000"/>
  <circle r="2.59" cy="377.36" cx="169.5" id="circle4853" fill="#000"/>
  <path id="path4855" d="m265.28 466.8c1.49 0.39 2.8 0.44 4.22 0.22-3.49-8.9-5.67-19.72-6.5-30.95-0.83 11.23-3.01 22.05-6.5 30.95 1.42 0.22 2.73 0.17 4.22-0.22 0.34 1.6 1.36 3.39 2.28 4.7 0.92-1.31 1.94-3.1 2.28-4.7z" style="fill-rule:evenodd;fill:#000"/>
  <circle transform="scale(-1,1)" r="2.59" cy="431.94" cx="-263" id="circle4857" fill="#000"/>
  <circle transform="scale(-1,1)" id="circle4859" cx="-267" cy="437.36" r="2.59" fill="#000"/>
  <circle transform="scale(-1,1)" id="circle4861" cx="-259" cy="437.36" r="2.59" fill="#000"/>
  <path id="path4863" d="m265.28 346.8c1.49 0.39 2.8 0.44 4.22 0.22-3.49-8.9-5.67-19.72-6.5-30.95-0.83 11.23-3.01 22.05-6.5 30.95 1.42 0.22 2.73 0.17 4.22-0.22 0.34 1.6 1.36 3.39 2.28 4.7 0.92-1.31 1.94-3.1 2.28-4.7z" style="fill-rule:evenodd;fill:#000"/>
  <circle transform="scale(-1,1)" r="2.59" cy="311.94" cx="-263" id="circle4865" fill="#000"/>
  <circle transform="scale(-1,1)" id="circle4867" cx="-267" cy="317.36" r="2.59" fill="#000"/>
  <circle transform="scale(-1,1)" id="circle4869" cx="-259" cy="317.36" r="2.59" fill="#000"/>
  <path id="path4871" d="m265.28 226.8c1.49 0.39 2.8 0.44 4.22 0.22-3.49-8.9-5.67-19.72-6.5-30.95-0.83 11.23-3.01 22.05-6.5 30.95 1.42 0.22 2.73 0.17 4.22-0.22 0.34 1.6 1.36 3.39 2.28 4.7 0.92-1.31 1.94-3.1 2.28-4.7z" style="fill-rule:evenodd;fill:#000"/>
  <circle transform="scale(-1,1)" r="2.59" cy="191.94" cx="-263" id="circle4873" fill="#000"/>
  <circle transform="scale(-1,1)" id="circle4875" cx="-267" cy="197.36" r="2.59" fill="#000"/>
  <circle transform="scale(-1,1)" id="circle4877" cx="-259" cy="197.36" r="2.59" fill="#000"/>
  <path d="m297.78 286.8c1.49 0.39 2.8 0.44 4.22 0.22-3.49-8.9-5.67-19.72-6.5-30.95-0.83 11.23-3.01 22.05-6.5 30.95 1.42 0.22 2.73 0.17 4.22-0.22 0.34 1.6 1.36 3.39 2.28 4.7 0.92-1.31 1.94-3.1 2.28-4.7z" id="path4879" style="fill-rule:evenodd;fill:#000"/>
  <circle transform="scale(-1,1)" id="circle4881" cx="-295.5" cy="251.94" r="2.59" fill="#000"/>
  <circle transform="scale(-1,1)" r="2.59" cy="257.36" cx="-299.5" id="circle4883" fill="#000"/>
  <circle transform="scale(-1,1)" r="2.59" cy="257.36" cx="-291.5" id="circle4885" fill="#000"/>
  <path id="path4887" d="m330.28 226.8c1.49 0.39 2.8 0.44 4.22 0.22-3.49-8.9-5.67-19.72-6.5-30.95-0.83 11.23-3.01 22.05-6.5 30.95 1.42 0.22 2.73 0.17 4.22-0.22 0.34 1.6 1.36 3.39 2.28 4.7 0.92-1.31 1.94-3.1 2.28-4.7z" style="fill-rule:evenodd;fill:#000"/>
  <circle transform="scale(-1,1)" r="2.59" cy="191.94" cx="-328" id="circle4889" fill="#000"/>
  <circle transform="scale(-1,1)" id="circle4891" cx="-332" cy="197.36" r="2.59" fill="#000"/>
  <circle transform="scale(-1,1)" id="circle4893" cx="-324" cy="197.36" r="2.59" fill="#000"/>
  <path d="m362.78 286.8c1.49 0.39 2.8 0.44 4.22 0.22-3.49-8.9-5.67-19.72-6.5-30.95-0.83 11.23-3.01 22.05-6.5 30.95 1.42 0.22 2.73 0.17 4.22-0.22 0.34 1.6 1.36 3.39 2.28 4.7 0.92-1.31 1.94-3.1 2.28-4.7z" id="path4895" style="fill-rule:evenodd;fill:#000"/>
  <circle transform="scale(-1,1)" id="circle4897" cx="-360.5" cy="251.94" r="2.59" fill="#000"/>
  <circle transform="scale(-1,1)" r="2.59" cy="257.36" cx="-364.5" id="circle4899" fill="#000"/>
  <circle transform="scale(-1,1)" r="2.59" cy="257.36" cx="-356.5" id="circle4901" fill="#000"/>
  <path id="path4903" d="m395.28 226.8c1.49 0.39 2.8 0.44 4.22 0.22-3.49-8.9-5.67-19.72-6.5-30.95-0.83 11.23-3.01 22.05-6.5 30.95 1.42 0.22 2.73 0.17 4.22-0.22 0.34 1.6 1.36 3.39 2.28 4.7 0.92-1.31 1.94-3.1 2.28-4.7z" style="fill-rule:evenodd;fill:#000"/>
  <circle transform="scale(-1,1)" r="2.59" cy="191.94" cx="-393" id="circle4905" fill="#000"/>
  <circle transform="scale(-1,1)" id="circle4907" cx="-397" cy="197.36" r="2.59" fill="#000"/>
  <circle transform="scale(-1,1)" id="circle4909" cx="-389" cy="197.36" r="2.59" fill="#000"/>
  <path d="m330.28 346.8c1.49 0.39 2.8 0.44 4.22 0.22-3.49-8.9-5.67-19.72-6.5-30.95-0.83 11.23-3.01 22.05-6.5 30.95 1.42 0.22 2.73 0.17 4.22-0.22 0.34 1.6 1.36 3.39 2.28 4.7 0.92-1.31 1.94-3.1 2.28-4.7z" id="path4911" style="fill-rule:evenodd;fill:#000"/>
  <circle transform="scale(-1,1)" id="circle4913" cx="-328" cy="311.94" r="2.59" fill="#000"/>
  <circle transform="scale(-1,1)" r="2.59" cy="317.36" cx="-332" id="circle4915" fill="#000"/>
  <circle transform="scale(-1,1)" r="2.59" cy="317.36" cx="-324" id="circle4917" fill="#000"/>
  <path id="path4919" d="m297.78 406.8c1.49 0.39 2.8 0.44 4.22 0.22-3.49-8.9-5.67-19.72-6.5-30.95-0.83 11.23-3.01 22.05-6.5 30.95 1.42 0.22 2.73 0.17 4.22-0.22 0.34 1.6 1.36 3.39 2.28 4.7 0.92-1.31 1.94-3.1 2.28-4.7z" style="fill-rule:evenodd;fill:#000"/>
  <circle transform="scale(-1,1)" r="2.59" cy="371.94" cx="-295.5" id="circle4921" fill="#000"/>
  <circle transform="scale(-1,1)" id="circle4923" cx="-299.5" cy="377.36" r="2.59" fill="#000"/>
  <circle transform="scale(-1,1)" id="circle4925" cx="-291.5" cy="377.36" r="2.59" fill="#000"/>
</svg>
