<?xml version="1.0" encoding="UTF-8" standalone="no"?>
<svg
   xmlns:dc="http://purl.org/dc/elements/1.1/"
   xmlns:cc="http://creativecommons.org/ns#"
   xmlns:rdf="http://www.w3.org/1999/02/22-rdf-syntax-ns#"
   xmlns:svg="http://www.w3.org/2000/svg"
   xmlns="http://www.w3.org/2000/svg"
   xml:space="preserve"
   enable-background="new 30.5 31.5 412 533"
   viewBox="30.5 31.5 400 500"
   height="500"
   width="400"
   y="0"
   x="0"
   version="1.1"
   id="svg2"><metadata
     id="metadata4"><rdf:RDF><cc:Work
         rdf:about=""><dc:format>
          
          
          
          
          image/svg+xml
        
        
        
        
        </dc:format><dc:type
           rdf:resource="http://purl.org/dc/dcmitype/StillImage" /><dc:title></dc:title></cc:Work></rdf:RDF></metadata><defs
     id="defs6" /><path
     style="fill:#0085ca;fill-opacity:1"
     fill="#e00e00"
     id="path4148"
     d="M230.45 531.13C156.13 477.21 105.19 409.11 74.71 322.97 47.07 244.87 35.98 150.22 40.8 33.62l0.02-0.46 379.82 0 0.02 0.46c4.81 116.6-6.28 211.24-33.91 289.35-30.48 86.14-81.42 154.24-155.74 208.16l-0.28 0.2-0.28-0.2z" /><path
     d="M419.96 33.21C429.03 252.66 383.71 419.16 230.51 530.31 146.04 469.02 94.36 390.9 66.52 296.34 64.43 289.25 62.48 282.07 60.65 274.8 49.2 229.11 42.88 179.78 40.77 126.86 39.57 96.8 39.72 65.58 41.06 33.21l189.45 0 189.45 0m0.92-0.95-0.92 0-189.45 0-189.45 0-0.92 0-0.04 0.92c-4.82 116.66 6.28 211.36 33.93 289.52 30.51 86.24 81.51 154.41 155.91 208.39l0.56 0.41 0.56-0.41C305.46 477.11 356.46 408.94 386.97 322.7 414.62 244.54 425.72 149.84 420.9 33.18l-0.04-0.92 0 0z"
     id="path10" /><path
     id="path4295"
     d="m 76.613076,79.556256 c -1.822987,0.128168 -1.361593,3.157016 0.871274,3.702914 5.613292,1.372355 11.493123,2.548189 17.42548,2.777186 0.0279,1.148776 0.52867,2.232884 0.87127,2.777186 l -17.915568,0.653456 c -1.490437,0.05436 1.190953,2.418655 3.488578,2.504581 6.887562,0.257579 10.710474,0.2543 16.65963,0.544878 1.30125,1.93635 4.85593,4.493873 6.75238,5.009823 l -1.0891,41.30625 c -0.40231,15.25844 -1.40078,29.7065 -15.138381,47.5637 -5.459123,7.09618 -15.660277,13.70512 -12.960201,28.64313 0.879289,4.86461 2.301867,14.59384 6.316737,14.59384 l 109.562705,0 c 5.47836,0 19.16532,-18.58751 26.24713,-26.90058 1.23234,-1.44659 1.28928,-10.06887 0,-9.25729 l -27.33622,17.20766 c -7.60251,4.78564 -14.41586,0.45834 -21.2373,-2.61382 -2.51724,-1.13368 -0.83543,-3.14949 0.32673,-2.83164 l 12.74237,3.48509 c 2.94986,0.8068 11.03547,-9.3148 8.38602,-9.80183 -5.86009,-1.07722 -11.27879,-2.18161 -16.77153,-4.90108 -1.77036,-0.8765 -0.44255,-3.62582 1.63314,-2.94038 4.8961,1.61679 9.16526,2.26576 14.37602,2.17818 3.66412,-0.0616 11.86498,-8.81645 7.73255,-9.25729 -5.20745,-0.55551 -8.38534,-0.74192 -13.06844,-2.50508 -1.37084,-0.51611 -0.77482,-3.6182 1.74172,-2.83097 4.29291,1.34293 8.92399,1.44228 13.50492,1.63314 2.69405,0.11225 9.56131,-10.30392 5.88109,-10.12856 -4.70767,0.22432 -8.24147,0.36269 -13.28643,-0.65346 -1.97195,-0.39719 -1.82512,-3.12822 0.54405,-2.83164 5.29604,0.66298 8.78504,0.45884 13.83147,-0.32672 2.55919,-0.39838 6.92625,-13.52424 4.46528,-12.63347 -5.37505,1.94553 -9.48601,2.42558 -14.48493,2.72222 -1.63352,0.0969 -1.29448,-2.52137 0.21782,-2.94005 5.22635,-1.4469 8.68257,-1.97721 15.57403,-6.20782 2.28051,-1.39999 3.6102,-13.05205 1.52472,-11.65329 -5.30337,3.55704 -8.13731,5.10889 -14.37585,7.40517 -2.06405,0.75973 -2.29564,-2.51727 0.10791,-3.48444 6.97324,-2.80598 13.41324,-7.64368 15.90158,-10.23747 1.20571,-1.25679 4.49364,-16.8974 1.19801,-13.72256 -3.70267,3.56696 -7.79195,7.74384 -12.63398,10.45628 -1.88859,1.05796 -2.63783,-1.40325 -0.76237,-2.94055 7.34969,-6.02445 11.96016,-11.25873 16.4458,-21.78284 0.7591,-1.78097 1.56928,-27.476851 -1.74254,-22.217491 -11.56502,18.365881 -20.06336,40.462701 -43.23697,54.999171 -11.07783,6.94896 -24.91541,8.85762 -30.60351,22.97985 -7.54946,18.74355 -27.93357,49.41514 -32.78168,45.8508 -4.1303,-3.03661 5.27923,-15.54094 5.8811,-30.6035 l 1.96037,-74.60284 c 0.008,-11.525612 1.63221,-20.524602 -2.66828,-24.123398 -3.86644,-3.235566 -10.43714,-5.41692 -16.06411,-4.846462 -2.7735,0.281176 -6.00607,1.661913 -6.643469,4.029642 -4.687422,2.457589 -9.691399,6.212444 -17.371025,6.752374 z"
     style="fill:#ffffff;fill-rule:evenodd;stroke:#000000;stroke-width:1px;stroke-linecap:butt;stroke-linejoin:round;stroke-opacity:1" /><path
     id="path4297"
     d="m 93.984101,72.803882 c -0.264233,3.707817 10.104569,6.202302 16.390849,10.509742"
     style="fill:none;fill-rule:evenodd;stroke:#000000;stroke-width:1px;stroke-linecap:round;stroke-linejoin:miter;stroke-opacity:1" /><path
     id="path4299"
     d="m 94.90983,86.036356 c -0.35504,-3.488517 4.09598,-5.705223 6.26228,-7.405829"
     style="fill:none;fill-rule:evenodd;stroke:#000000;stroke-width:1px;stroke-linecap:butt;stroke-linejoin:miter;stroke-opacity:1" /><path
     id="path4301"
     d="m 95.7811,88.813542 c 0.5548,1.244558 1.03137,1.811884 2.23264,3.702915"
     style="fill:none;fill-rule:evenodd;stroke:#000000;stroke-width:1px;stroke-linecap:butt;stroke-linejoin:miter;stroke-opacity:1" /><path
     id="path4303"
     d="m 104.76612,97.52628 c 0.92573,0.37771 1.96036,0.49147 2.77718,0.49009"
     style="fill:none;fill-rule:evenodd;stroke:#000000;stroke-width:1px;stroke-linecap:round;stroke-linejoin:miter;stroke-opacity:1" /><path
     id="path4305"
     d="m 110.37495,83.313624 c -4.39257,3.718237 -10.47843,0.493949 -9.20284,-4.683097"
     style="fill:none;fill-rule:evenodd;stroke:#000000;stroke-width:1;stroke-linecap:butt;stroke-linejoin:miter;stroke-miterlimit:4;stroke-dasharray:none;stroke-opacity:1" /><path
     id="path4307"
     d="m 103.63395,79.746945 c -0.74313,1.665228 -0.56051,3.171081 0.76349,3.817627 0.71682,0.350045 2.56896,-0.337837 2.72691,-1.690664 z"
     style="fill:#000000;fill-opacity:1;fill-rule:evenodd;stroke:none;stroke-width:1px;stroke-linecap:butt;stroke-linejoin:miter;stroke-opacity:1" /><path
     style="fill:#ffffff;fill-rule:evenodd;stroke:#000000;stroke-width:1px;stroke-linecap:butt;stroke-linejoin:round;stroke-opacity:1"
     d="m 250.61308,79.556256 c -1.82299,0.128168 -1.3616,3.157016 0.87127,3.702914 5.61329,1.372355 11.49312,2.548189 17.42548,2.777186 0.0279,1.148776 0.52867,2.232884 0.87127,2.777186 l -17.91557,0.653456 c -1.49043,0.05436 1.19095,2.418655 3.48858,2.504581 6.88756,0.257579 10.71047,0.2543 16.65963,0.544878 1.30125,1.93635 4.85593,4.493873 6.75238,5.009823 l -1.0891,41.30625 c -0.40231,15.25844 -1.40078,29.7065 -15.13838,47.5637 -5.45912,7.09618 -15.66028,13.70512 -12.9602,28.64313 0.87929,4.86461 2.30187,14.59384 6.31674,14.59384 l 109.5627,0 c 5.47836,0 19.16532,-18.58751 26.24713,-26.90058 1.23234,-1.44659 1.28928,-10.06887 0,-9.25729 l -27.33622,17.20766 c -7.60251,4.78564 -14.41586,0.45834 -21.2373,-2.61382 -2.51724,-1.13368 -0.83543,-3.14949 0.32673,-2.83164 l 12.74237,3.48509 c 2.94986,0.8068 11.03547,-9.3148 8.38602,-9.80183 -5.86009,-1.07722 -11.27879,-2.18161 -16.77153,-4.90108 -1.77036,-0.8765 -0.44255,-3.62582 1.63314,-2.94038 4.8961,1.61679 9.16526,2.26576 14.37602,2.17818 3.66412,-0.0616 11.86498,-8.81645 7.73255,-9.25729 -5.20745,-0.55551 -8.38534,-0.74192 -13.06844,-2.50508 -1.37084,-0.51611 -0.77482,-3.6182 1.74172,-2.83097 4.29291,1.34293 8.92399,1.44228 13.50492,1.63314 2.69405,0.11225 9.56131,-10.30392 5.88109,-10.12856 -4.70767,0.22432 -8.24147,0.36269 -13.28643,-0.65346 -1.97195,-0.39719 -1.82512,-3.12822 0.54405,-2.83164 5.29604,0.66298 8.78504,0.45884 13.83147,-0.32672 2.55919,-0.39838 6.92625,-13.52424 4.46528,-12.63347 -5.37505,1.94553 -9.48601,2.42558 -14.48493,2.72222 -1.63352,0.0969 -1.29448,-2.52137 0.21782,-2.94005 5.22635,-1.4469 8.68257,-1.97721 15.57403,-6.20782 2.28051,-1.39999 3.6102,-13.05205 1.52472,-11.65329 -5.30337,3.55704 -8.13731,5.10889 -14.37585,7.40517 -2.06405,0.75973 -2.29564,-2.51727 0.10791,-3.48444 6.97324,-2.80598 13.41324,-7.64368 15.90158,-10.23747 1.20571,-1.25679 4.49364,-16.8974 1.19801,-13.72256 -3.70267,3.56696 -7.79195,7.74384 -12.63398,10.45628 -1.88859,1.05796 -2.63783,-1.40325 -0.76237,-2.94055 7.34969,-6.02445 11.96016,-11.25873 16.4458,-21.78284 0.7591,-1.78097 1.56928,-27.476851 -1.74254,-22.217491 -11.56502,18.365881 -20.06336,40.462701 -43.23697,54.999171 -11.07783,6.94896 -24.91541,8.85762 -30.60351,22.97985 -7.54946,18.74355 -27.93357,49.41514 -32.78168,45.8508 -4.1303,-3.03661 5.27923,-15.54094 5.8811,-30.6035 l 1.96037,-74.60284 c 0.008,-11.525612 1.63221,-20.524602 -2.66828,-24.123398 -3.86644,-3.235566 -10.43714,-5.41692 -16.06411,-4.846462 -2.7735,0.281176 -6.00607,1.661913 -6.64347,4.029642 -4.68742,2.457589 -9.6914,6.212444 -17.37102,6.752374 z"
     id="path4309" /><path
     style="fill:none;fill-rule:evenodd;stroke:#000000;stroke-width:1px;stroke-linecap:round;stroke-linejoin:miter;stroke-opacity:1"
     d="m 267.9841,72.803882 c -0.26423,3.707817 10.10457,6.202302 16.39085,10.509742"
     id="path4311" /><path
     style="fill:none;fill-rule:evenodd;stroke:#000000;stroke-width:1px;stroke-linecap:butt;stroke-linejoin:miter;stroke-opacity:1"
     d="m 268.90983,86.036356 c -0.35504,-3.488517 4.09598,-5.705223 6.26228,-7.405829"
     id="path4313" /><path
     style="fill:none;fill-rule:evenodd;stroke:#000000;stroke-width:1px;stroke-linecap:butt;stroke-linejoin:miter;stroke-opacity:1"
     d="m 269.7811,88.813542 c 0.5548,1.244558 1.03137,1.811884 2.23264,3.702915"
     id="path4315" /><path
     style="fill:none;fill-rule:evenodd;stroke:#000000;stroke-width:1px;stroke-linecap:round;stroke-linejoin:miter;stroke-opacity:1"
     d="m 278.76612,97.52628 c 0.92573,0.37771 1.96036,0.49147 2.77718,0.49009"
     id="path4317" /><path
     style="fill:none;fill-rule:evenodd;stroke:#000000;stroke-width:1;stroke-linecap:butt;stroke-linejoin:miter;stroke-miterlimit:4;stroke-dasharray:none;stroke-opacity:1"
     d="m 284.37495,83.313624 c -4.39257,3.718237 -10.47843,0.493949 -9.20284,-4.683097"
     id="path4319" /><path
     style="fill:#000000;fill-opacity:1;fill-rule:evenodd;stroke:none;stroke-width:1px;stroke-linecap:butt;stroke-linejoin:miter;stroke-opacity:1"
     d="m 277.63395,79.746945 c -0.74313,1.665228 -0.56051,3.171081 0.76349,3.817627 0.71682,0.350045 2.56896,-0.337837 2.72691,-1.690664 z"
     id="path4321" /><path
     id="path4323"
     d="m 170.71942,279.13083 c -1.82299,0.12817 -1.3616,3.15702 0.87127,3.70291 5.61329,1.37236 11.49312,2.54819 17.42548,2.77719 0.0279,1.14878 0.52867,2.23288 0.87127,2.77719 l -17.91557,0.65345 c -1.49043,0.0544 1.19095,2.41866 3.48858,2.50458 6.88756,0.25758 10.71047,0.2543 16.65963,0.54488 1.30125,1.93635 4.85593,4.49387 6.75238,5.00982 l -1.0891,41.30625 c -0.40231,15.25844 -1.40078,29.7065 -15.13838,47.5637 -5.45912,7.09618 -15.66028,13.70512 -12.9602,28.64313 0.87929,4.86461 2.30187,14.59384 6.31674,14.59384 l 109.5627,0 c 5.47836,0 19.16532,-18.58751 26.24713,-26.90058 1.23234,-1.44659 1.28928,-10.06887 0,-9.25729 l -27.33622,17.20766 c -7.60251,4.78564 -14.41586,0.45834 -21.2373,-2.61382 -2.51724,-1.13368 -0.83543,-3.14949 0.32673,-2.83164 l 12.74237,3.48509 c 2.94986,0.8068 11.03547,-9.3148 8.38602,-9.80183 -5.86009,-1.07722 -11.27879,-2.18161 -16.77153,-4.90108 -1.77036,-0.8765 -0.44255,-3.62582 1.63314,-2.94038 4.8961,1.61679 9.16526,2.26576 14.37602,2.17818 3.66412,-0.0616 11.86498,-8.81645 7.73255,-9.25729 -5.20745,-0.55551 -8.38534,-0.74192 -13.06844,-2.50508 -1.37084,-0.51611 -0.77482,-3.6182 1.74172,-2.83097 4.29291,1.34293 8.92399,1.44228 13.50492,1.63314 2.69405,0.11225 9.56131,-10.30392 5.88109,-10.12856 -4.70767,0.22432 -8.24147,0.36269 -13.28643,-0.65346 -1.97195,-0.39719 -1.82512,-3.12822 0.54405,-2.83164 5.29604,0.66298 8.78504,0.45884 13.83147,-0.32672 2.55919,-0.39838 6.92625,-13.52424 4.46528,-12.63347 -5.37505,1.94553 -9.48601,2.42558 -14.48493,2.72222 -1.63352,0.0969 -1.29448,-2.52137 0.21782,-2.94005 5.22635,-1.4469 8.68257,-1.97721 15.57403,-6.20782 2.28051,-1.39999 3.6102,-13.05205 1.52472,-11.65329 -5.30337,3.55704 -8.13731,5.10889 -14.37585,7.40517 -2.06405,0.75973 -2.29564,-2.51727 0.10791,-3.48444 6.97324,-2.80598 13.41324,-7.64368 15.90158,-10.23747 1.20571,-1.25679 4.49364,-16.8974 1.19801,-13.72256 -3.70267,3.56696 -7.79195,7.74384 -12.63398,10.45628 -1.88859,1.05796 -2.63783,-1.40325 -0.76237,-2.94055 7.34969,-6.02445 11.96016,-11.25873 16.4458,-21.78284 0.7591,-1.78097 1.56928,-27.47685 -1.74254,-22.21749 -11.56502,18.36588 -20.06336,40.4627 -43.23697,54.99917 -11.07783,6.94896 -24.91541,8.85762 -30.60351,22.97985 -7.54946,18.74355 -27.93357,49.41514 -32.78168,45.8508 -4.1303,-3.03661 5.27923,-15.54094 5.8811,-30.6035 l 1.96037,-74.60284 c 0.008,-11.52561 1.63221,-20.5246 -2.66828,-24.12339 -3.86644,-3.23557 -10.43714,-5.41692 -16.06411,-4.84647 -2.7735,0.28118 -6.00607,1.66192 -6.64347,4.02965 -4.68742,2.45759 -9.6914,6.21244 -17.37102,6.75237 z"
     style="fill:#ffffff;fill-rule:evenodd;stroke:#000000;stroke-width:1px;stroke-linecap:butt;stroke-linejoin:round;stroke-opacity:1" /><path
     id="path4325"
     d="m 188.09044,272.37846 c -0.26423,3.70781 10.10457,6.2023 16.39085,10.50974"
     style="fill:none;fill-rule:evenodd;stroke:#000000;stroke-width:1px;stroke-linecap:round;stroke-linejoin:miter;stroke-opacity:1" /><path
     id="path4327"
     d="m 189.01617,285.61093 c -0.35504,-3.48852 4.09598,-5.70522 6.26228,-7.40583"
     style="fill:none;fill-rule:evenodd;stroke:#000000;stroke-width:1px;stroke-linecap:butt;stroke-linejoin:miter;stroke-opacity:1" /><path
     id="path4329"
     d="m 189.88744,288.38812 c 0.5548,1.24455 1.03137,1.81188 2.23264,3.70291"
     style="fill:none;fill-rule:evenodd;stroke:#000000;stroke-width:1px;stroke-linecap:butt;stroke-linejoin:miter;stroke-opacity:1" /><path
     id="path4331"
     d="m 198.87246,297.10085 c 0.92573,0.37771 1.96036,0.49147 2.77718,0.49009"
     style="fill:none;fill-rule:evenodd;stroke:#000000;stroke-width:1px;stroke-linecap:round;stroke-linejoin:miter;stroke-opacity:1" /><path
     id="path4333"
     d="m 204.48129,282.8882 c -4.39257,3.71824 -10.47843,0.49395 -9.20284,-4.6831"
     style="fill:none;fill-rule:evenodd;stroke:#000000;stroke-width:1;stroke-linecap:butt;stroke-linejoin:miter;stroke-miterlimit:4;stroke-dasharray:none;stroke-opacity:1" /><path
     id="path4335"
     d="m 197.74029,279.32152 c -0.74313,1.66523 -0.56051,3.17108 0.76349,3.81763 0.71682,0.35004 2.56896,-0.33784 2.72691,-1.69067 z"
     style="fill:#000000;fill-opacity:1;fill-rule:evenodd;stroke:none;stroke-width:1px;stroke-linecap:butt;stroke-linejoin:miter;stroke-opacity:1" /></svg>