<?xml version="1.0" encoding="UTF-8" standalone="no"?>
<svg
   xmlns:dc="http://purl.org/dc/elements/1.1/"
   xmlns:cc="http://creativecommons.org/ns#"
   xmlns:rdf="http://www.w3.org/1999/02/22-rdf-syntax-ns#"
   xmlns:svg="http://www.w3.org/2000/svg"
   xmlns="http://www.w3.org/2000/svg"
   xml:space="preserve"
   enable-background="new 30.5 31.5 412 533"
   viewBox="30.5 31.5 400 500"
   height="500"
   width="400"
   y="0"
   x="0"
   version="1.1"
   id="svg2"><metadata
     id="metadata4"><rdf:RDF><cc:Work
         rdf:about=""><dc:format>
          
          
          
          
          
          
          image/svg+xml
        
        
        
        
        
        
        </dc:format><dc:type
           rdf:resource="http://purl.org/dc/dcmitype/StillImage" /><dc:title></dc:title></cc:Work></rdf:RDF></metadata><defs
     id="defs6" /><path
     style="fill:#ffe000;fill-opacity:1"
     fill="#0085ca"
     id="path4148"
     d="M230.45 531.13C156.13 477.21 105.19 409.11 74.71 322.97 47.07 244.87 35.98 150.22 40.8 33.62l0.02-0.46 379.82 0 0.02 0.46c4.81 116.6-6.28 211.24-33.91 289.35-30.48 86.14-81.42 154.24-155.74 208.16l-0.28 0.2-0.28-0.2z" /><path
     d="M419.96 33.21C429.03 252.66 383.71 419.16 230.51 530.31 146.04 469.02 94.36 390.9 66.52 296.34 64.43 289.25 62.48 282.07 60.65 274.8 49.2 229.11 42.88 179.78 40.77 126.86 39.57 96.8 39.72 65.58 41.06 33.21l189.45 0 189.45 0m0.92-0.95-0.92 0-189.45 0-189.45 0-0.92 0-0.04 0.92c-4.82 116.66 6.28 211.36 33.93 289.52 30.51 86.24 81.51 154.41 155.91 208.39l0.56 0.41 0.56-0.41C305.46 477.11 356.46 408.94 386.97 322.7 414.62 244.54 425.72 149.84 420.9 33.18l-0.04-0.92 0 0z"
     id="path10" /><path
     style="fill:#000000;fill-opacity:1;stroke:none;stroke-width:0.95732421;stroke-opacity:1"
     id="path2827"
     d="m 210.99538,87.565356 c -0.96725,-6.311353 -31.04829,-8.103807 -42.41176,-8.477165 -2.00081,-0.06703 -4.43237,-1.885924 -4.83446,-3.628254 l -9.5062,0.555243 c 12.91428,-11.35386 32.9654,-4.068733 50.18762,-8.405413 9.22861,-9.487081 16.33419,-9.457587 23.48543,-9.247536 21.85572,0.641962 22.53779,13.268518 30.51229,22.525842 -1.95296,0.679697 -3.69529,0.229758 -5.40889,-0.344637 0.6893,5.159978 0.87035,11.118775 0.44038,15.623527 -1.76764,-0.212282 -3.70228,-0.996042 -5.40889,-2.268858 -0.17261,5.185506 -0.69052,12.672195 -1.67109,16.005195 -1.81891,-1.57958 -3.69993,-4.21478 -4.5998,-5.79054 -0.80494,4.96934 -1.92597,10.30215 -3.31808,13.6776 -2.17444,-1.24536 -3.68696,-3.09258 -5.03683,-4.88275 -13.12491,16.96374 -21.22598,33.88264 -21.15895,49.51576 0.10531,23.67465 25.73286,19.62512 44.26666,40.41821 1.30195,1.45518 3.59953,1.33068 4.53769,0.52658 40.21719,-34.66477 93.0575,-82.07851 116.52114,-85.55607 16.13128,-2.39082 23.68447,22.7115 22.2419,38.00054 -5.61045,59.46217 -35.45114,133.9802 -51.86926,199.04951 -6.39496,-24.97661 10.60497,-77.47267 6.88095,-80.58398 -3.40808,-2.85283 -9.70252,28.05812 -15.99205,45.28997 -5.84931,-18.89759 6.33341,-61.01147 4.56234,-62.67715 -4.78661,-4.49947 -9.42889,25.46007 -14.5793,42.52913 -8.12767,-18.80183 4.45894,-50.98824 -1.3233,-56.55985 -1.69449,-1.63708 -19.12185,47.6244 -36.85148,71.81594 -3.66656,-0.84246 -6.08863,-3.14004 -8.37659,-5.59078 -10.21468,29.61961 18.35426,59.58291 48.68228,80.36645 0,0 -13.77342,-2.96495 -19.93863,-5.05193 4.66218,4.50903 8.9429,9.76018 12.78748,14.94881 l -20.63749,-8.1422 c 4.54157,6.18468 10.62661,12.77713 13.34158,19.00672 l -59.19271,-35.12032 c -9.42007,6.18432 -12.64625,14.86724 -11.52619,21.99928 -17.38501,-14.4556 -8.84563,19.26139 -0.17227,23.92357 -20.2474,1.81891 -6.62471,20.07505 1.39764,26.89121 -8.51057,-0.30632 -15.66179,7.4672 -16.06388,13.62276 -1.87629,-7.10337 -8.73076,-16.6192 -19.90277,-6.63426 -4.4994,-13.62276 -9.39133,-13.63231 -16.23622,-11.69853 49.98194,-31.47681 32.68307,-83.68934 30.03125,-87.30795 -6.69166,9.42006 -19.94107,5.26528 -21.47277,17.9881 -7.87874,-17.2414 -21.70251,10.93265 -14.66616,24.44047 -16.24584,-0.95727 -21.13777,12.13891 -18.50513,29.85898 -2.45075,-4.04947 -9.72639,-7.12249 -16.06388,-4.53776 2.44119,-11.26771 -4.2601,-17.72007 -12.04315,-17.28925 3.17834,-6.17477 1.04348,-12.96219 -6.28964,-15.8916 36.21558,1.81891 55.28552,-26.5083 66.35215,-53.2559 -6.1932,-10.66032 -15.7281,-25.72683 -20.68705,-33.79709 l -5.15113,11.97008 c -14.58003,-15.85331 -28.92267,-49.44653 -40.06588,-73.42751 -0.21063,24.97661 0.45184,63.9596 -5.85691,74.9975 -4.20071,-12.4694 -5.84182,-26.34975 -7.88305,-32.06482 -1.11639,-3.1257 -3.13564,-3.98025 -3.0959,1.35191 0.0442,5.92368 6.12551,30.97454 0.85041,48.34684 -7.22258,-14.40695 -9.72576,-36.05362 -12.53443,-44.19125 -1.08922,-3.15582 -3.4658,-2.33443 -3.35989,0.60361 0.30387,8.43015 8.33879,42.06866 2.28118,66.1135 -27.349959,-82.51518 -32.213428,-145.2179 -40.091849,-214.22743 -6.016174,-26.58454 16.781752,-29.34623 33.468379,-13.96682 19.35985,17.84322 47.97658,49.74946 69.61265,60.52094 -0.17851,-50.50905 47.2649,-63.22209 41.34251,-101.866174 z" /><path
     style="fill:#ffe000;fill-opacity:1;stroke:none"
     id="path2831"
     d="m 229.1526,71.11663 c -0.57309,3.710567 -11.44036,2.566641 -11.1077,-1.169236 0.34381,-3.861249 11.70002,-2.665855 11.1077,1.169236 z" /></svg>