<svg xmlns:dc="http://purl.org/dc/elements/1.1/" xmlns:cc="http://creativecommons.org/ns#" xmlns:rdf="http://www.w3.org/1999/02/22-rdf-syntax-ns#" xmlns:svg="http://www.w3.org/2000/svg" xmlns="http://www.w3.org/2000/svg" xml:space="preserve" enable-background="new 30.5 31.5 412 533" viewBox="30.5 31.5 400 500" height="500" width="400" y="0" x="0" version="1.1" id="svg2">
  <metadata id="metadata4">
    <rdf:RDF>
      <cc:Work rdf:about="">
        <dc:format>
          
          
          
          image/svg+xml
        
        
        
        </dc:format>
        <dc:type rdf:resource="http://purl.org/dc/dcmitype/StillImage"/>
      </cc:Work>
    </rdf:RDF>
  </metadata>
  <defs id="defs6"/>
  <path d="M230.44 531.14C156.12 477.22 105.18 409.12 74.7 322.98 47.06 244.88 35.97 150.23 40.79 33.63l0.02-0.46 379.82 0 0.02 0.46c4.81 116.6-6.28 211.24-33.91 289.35C356.26 409.12 305.32 477.22 231 531.14l-0.28 0.2-0.28-0.2z" id="path8" fill="#0085ca"/>
  <path d="M419.96 33.21C429.03 252.66 383.7 419.16 230.5 530.31 77.31 419.16 31.99 252.66 41.06 33.21l189.45 0 189.45 0m0.92-0.95-0.92 0-189.45 0-189.45 0-0.92 0-0.04 0.92c-4.82 116.66 6.28 211.36 33.93 289.52 30.51 86.24 81.51 154.41 155.91 208.39l0.56 0.41 0.56-0.41C305.46 477.11 356.46 408.94 386.97 322.7 414.62 244.54 425.72 149.84 420.9 33.18l-0.04-0.92 0 0z" id="path10"/>
  <path id="path3807-8" d="m111.58 57.96c-6.84-1.49-12.93 7.47-1.22 10.79 9.85 2.79 7.38 10.3 2.71 9.12-1.94-0.49-4.59-4.41-7.91-2.92-2.45 1.1-4.93 4.03 0.74 8.01 19.41 13.66 29.48 45.68 29.9 71.89 0.52 32.63-11.35 58.96-24.99 62.61-5.44 1.46-11.13-19.83-10.05-30.85 0.99-10.04 12.42 2.32 13.03-1.68-5.05-13.11-11.41-23.85-16.93-37-4.53-10.77-8.92-21.9-15.47-28.03-8.31-7.28-0.37 10.43 0.79 24.49 1.41 17.19-0.45 35.94-0.89 53.14-1.05 41.06 11.74 78.2 22.03 75.59 13.84-3.51 37.89-21.84 47.8-51.7 5.8-17.49 7.14-40.48 5.16-68.58-1.28-18.23-1.94-39.13-6.17-62.91-0.77-4.33-9.77-6.52-12.26-8.13-3.29-2.13-1.81-6.77 1.83-5.33 3.82 1.51 6.57-5.3 0.44-7.64z" style="fill:#fff;stroke-miterlimit:4;stroke:#000"/>
  <path d="m205.58 129.96c-6.84-1.49-12.93 7.47-1.22 10.79 9.85 2.79 7.38 10.3 2.71 9.12-1.94-0.49-4.59-4.41-7.91-2.92-2.45 1.1-4.93 4.03 0.74 8.01 19.41 13.66 29.48 45.68 29.9 71.89 0.52 32.63-11.35 58.96-24.99 62.61-5.44 1.46-11.13-19.83-10.05-30.85 0.99-10.04 12.42 2.32 13.03-1.68-5.05-13.11-11.41-23.85-16.93-37-4.53-10.77-8.92-21.9-15.47-28.03-8.31-7.28-0.37 10.43 0.79 24.49 1.41 17.19-0.45 35.94-0.89 53.14-1.05 41.06 11.74 78.2 22.03 75.59 13.84-3.51 37.89-21.84 47.8-51.7 5.8-17.49 7.14-40.48 5.16-68.58-1.28-18.23-1.94-39.13-6.17-62.91-0.77-4.33-9.77-6.52-12.26-8.13-3.29-2.13-1.81-6.77 1.83-5.33 3.82 1.51 6.57-5.3 0.44-7.64z" id="path4649" style="fill:#fff;stroke-miterlimit:4;stroke:#000"/>
  <path id="path4651" d="m299.58 201.96c-6.84-1.49-12.93 7.47-1.22 10.79 9.85 2.79 7.38 10.3 2.71 9.12-1.94-0.49-4.59-4.41-7.91-2.92-2.45 1.1-4.93 4.03 0.74 8.01 19.41 13.66 29.48 45.68 29.9 71.89 0.52 32.63-11.35 58.96-24.99 62.61-5.44 1.46-11.13-19.83-10.05-30.85 0.99-10.04 12.42 2.32 13.03-1.68-5.05-13.11-11.41-23.85-16.93-37-4.53-10.77-8.92-21.9-15.47-28.03-8.31-7.28-0.37 10.43 0.79 24.49 1.41 17.19-0.45 35.94-0.89 53.14-1.05 41.06 11.74 78.2 22.03 75.59 13.84-3.51 37.89-21.84 47.8-51.7 5.8-17.49 7.14-40.48 5.16-68.58-1.28-18.23-1.94-39.13-6.17-62.91-0.77-4.33-9.77-6.52-12.26-8.13-3.29-2.13-1.81-6.77 1.83-5.33 3.82 1.51 6.57-5.3 0.44-7.64z" style="fill:#fff;stroke-miterlimit:4;stroke:#000"/>
</svg>
