<?xml version="1.0" encoding="UTF-8" standalone="no"?>
<svg
   xmlns:dc="http://purl.org/dc/elements/1.1/"
   xmlns:cc="http://creativecommons.org/ns#"
   xmlns:rdf="http://www.w3.org/1999/02/22-rdf-syntax-ns#"
   xmlns:svg="http://www.w3.org/2000/svg"
   xmlns="http://www.w3.org/2000/svg"
   xml:space="preserve"
   enable-background="new 30.5 31.5 412 533"
   viewBox="30.5 31.5 400 500"
   height="500"
   width="400"
   y="0"
   x="0"
   version="1.1"
   id="svg2"><metadata
     id="metadata4"><rdf:RDF><cc:Work
         rdf:about=""><dc:format>
          
          
          
          image/svg+xml
        
        
        
        </dc:format><dc:type
           rdf:resource="http://purl.org/dc/dcmitype/StillImage" /><dc:title></dc:title></cc:Work></rdf:RDF></metadata><defs
     id="defs6" /><path
     d="M 230.56,531.14 C 304.88,477.22 355.82,409.12 386.3,322.98 413.94,244.88 425.03,150.23 420.21,33.63 l -0.02,-0.46 -379.819998,0 -0.02,0.46 c -4.81,116.6 6.28,211.24 33.91,289.35 C 104.74,409.12 155.68,477.22 230,531.14 l 0.28,0.2 z"
     id="path8"
     style="fill:#0085ca;fill-opacity:1" /><path
     id="path4236"
     d="M 292.27127,32.674574 230.5,187.49816 168.72873,32.674574"
     style="fill:#ffffff;fill-rule:evenodd;stroke:none;stroke-width:1px;stroke-linecap:butt;stroke-linejoin:bevel;stroke-opacity:1" /><path
     id="path4232"
     d="m 230.5,187.5 190.20566,-60.53132 c -2.04957,40.99149 -6.07728,80.7042 -13.46282,118.82248 z"
     style="fill:#ffffff;fill-rule:evenodd;stroke:none;stroke-width:1px;stroke-linecap:butt;stroke-linejoin:bevel;stroke-opacity:1" /><path
     style="fill:#ffffff;fill-rule:evenodd;stroke:none;stroke-width:1px;stroke-linecap:butt;stroke-linejoin:bevel;stroke-opacity:1"
     d="M 230.5,187.49816 40.060882,126.887 c 2.04957,40.99149 6.06569,80.70236 13.45123,118.82064 C 112.50808,226.30449 171.50403,206.90131 230.5,187.49816 Z"
     id="path4234" /><path
     id="path4242"
     d="m 326.1106,437.46237 c -25.79235,33.58925 -56.62206,65.31325 -95.60481,93.46666 -38.98274,-28.15157 -69.81245,-59.87557 -95.6048,-93.46482 L 230.5058,187.49908 Z"
     style="fill:#ffffff;fill-rule:evenodd;stroke:none;stroke-width:1px;stroke-linecap:butt;stroke-linejoin:bevel;stroke-opacity:1" /><path
     style="fill:none;fill-rule:evenodd;stroke:#000000;stroke-width:1px;stroke-linecap:butt;stroke-linejoin:bevel;stroke-opacity:1"
     d="M 292.27127,33.176414 230.5,188.1 168.72873,32.674574"
     id="path4246" /><path
     style="fill:none;fill-rule:evenodd;stroke:#000000;stroke-width:1px;stroke-linecap:butt;stroke-linejoin:bevel;stroke-opacity:1"
     d="M 407.24284,245.79116 229.9,187.5 420.20566,126.96868"
     id="path4248" /><path
     id="path4250"
     d="M 53.512112,245.70764 C 112.50808,226.30449 172.10403,206.90315 231.1,187.5 L 40.060882,126.887"
     style="fill:none;fill-rule:evenodd;stroke:#000000;stroke-width:1px;stroke-linecap:butt;stroke-linejoin:bevel;stroke-opacity:1" /><path
     style="fill:none;fill-rule:evenodd;stroke:#000000;stroke-width:1px;stroke-linecap:butt;stroke-linejoin:bevel;stroke-opacity:1"
     d="M 134.90099,437.46421 230.5,186.9 326.1106,436.96421"
     id="path4252" /><path
     d="m 41.040002,33.21 c -9.07,219.45 36.26,385.95 189.459998,497.1 153.19,-111.15 198.51,-277.65 189.44,-497.1 -126.3,0 -252.6,0 -378.899998,0 m -0.92,-0.95 0.92,0 c 126.299998,0 252.599998,0 378.899998,0 l 0.92,0 0.04,0.92 c 4.82,116.66 -6.28,211.36 -33.93,289.52 -30.51,86.24 -81.51,154.41 -155.91,208.39 l -0.56,0.41 -0.56,-0.41 C 155.54,477.11 104.54,408.94 74.030002,322.7 c -27.65,-78.16 -38.75,-172.86 -33.93,-289.52 l 0.04,-0.92 0,0 z"
     id="path10" /></svg>