<?xml version="1.0" encoding="UTF-8" standalone="no"?>
<svg
   xmlns:dc="http://purl.org/dc/elements/1.1/"
   xmlns:cc="http://creativecommons.org/ns#"
   xmlns:rdf="http://www.w3.org/1999/02/22-rdf-syntax-ns#"
   xmlns:svg="http://www.w3.org/2000/svg"
   xmlns="http://www.w3.org/2000/svg"
   id="svg2"
   version="1.1"
   x="0"
   y="0"
   width="400"
   height="500"
   viewBox="30.5 31.5 400 500"
   enable-background="new 30.5 31.5 412 533"
   xml:space="preserve"><metadata
     id="metadata4"><rdf:RDF><cc:Work
         rdf:about=""><dc:format>
          
          
          
          
          image/svg+xml
        
        
        
        
        </dc:format><dc:type
           rdf:resource="http://purl.org/dc/dcmitype/StillImage" /><dc:title></dc:title></cc:Work></rdf:RDF></metadata><defs
     id="defs6" /><path
     id="path8"
     d="M 230.56,531.14 C 304.88,477.22 355.82,409.12 386.3,322.98 413.94,244.88 425.03,150.23 420.21,33.63 l -0.02,-0.46 -379.82,0 -0.02,0.46 c -4.81,116.6 6.28,211.24 33.91,289.35 30.48,86.14 81.42,154.24 155.74,208.16 l 0.28,0.2 0.28,-0.2 z"
     style="fill:#ffe000;fill-opacity:1" /><path
     id="path10"
     d="M 41.04,33.21 C 31.97,252.66 77.3,419.16 230.5,530.31 383.69,419.16 429.01,252.66 419.94,33.21 l -189.45,0 -189.45,0 m -0.92,-0.95 0.92,0 189.45,0 189.45,0 0.92,0 0.04,0.92 c 4.82,116.66 -6.28,211.36 -33.93,289.52 -30.51,86.24 -81.51,154.41 -155.91,208.39 l -0.56,0.41 -0.56,-0.41 C 155.54,477.11 104.54,408.94 74.03,322.7 46.38,244.54 35.28,149.84 40.1,33.18 l 0.04,-0.92 0,0 z" /><path
     style="fill:#000000;fill-opacity:1;stroke:#000000;stroke-width:1;stroke-linecap:round;stroke-linejoin:round;stroke-miterlimit:4;stroke-dasharray:none;stroke-opacity:1"
     id="path2985"
     d="m 84.11007,54.496899 -0.032,16.116029 c 13.67911,13.272697 26.42582,26.27952 34.34917,39.308282 15.82743,2.32755 47.33189,17.40989 60.26169,34.38615 13.6002,17.85648 16.75274,30.5114 16.25482,113.13878 -0.32396,53.76104 1.55167,81.55681 -32.66135,78.87976 -24.5845,-1.92364 -38.00993,-26.04943 -42.78555,-38.36162 l 18.95232,0.032 -68.98749,-72.39161 c 6.8095,22.81618 28.47735,151.2146 98.234,148.33923 47.16125,-1.944 58.23542,-33.96064 54.63025,-129.7815 -2.25274,-59.87495 7.18847,-99.53679 -16.08592,-119.35421 C 179.40839,101.96191 135.73249,77.893316 84.11007,54.496899 Z" /><path
     d="m 376.89112,54.493818 0.032,16.116339 c -13.67937,13.272953 -26.42633,26.280027 -34.34984,39.309033 -15.82773,2.3276 -47.33279,17.41023 -60.26285,34.38682 -13.60046,17.85682 -16.75305,30.51199 -16.25513,113.14096 0.32397,53.76208 -1.5517,81.55838 32.66199,78.88129 24.58497,-1.92369 38.01066,-26.04994 42.78637,-38.36237 l -18.95269,0.032 68.98881,-72.393 c -6.80962,22.81662 -28.47789,151.21752 -98.23588,148.34209 -47.16216,-1.94404 -58.23654,-33.9613 -54.6313,-129.78401 2.25277,-59.87609 -7.18861,-99.5387 16.08622,-119.3565 26.83214,-22.84672 70.50888,-46.915784 122.1323,-70.312652 z"
     id="path4912"
     style="fill:#000000;fill-opacity:1;stroke:#000000;stroke-width:1;stroke-linecap:round;stroke-linejoin:round;stroke-miterlimit:4;stroke-dasharray:none;stroke-opacity:1" /></svg>