<?xml version="1.0" encoding="UTF-8" standalone="no"?>
<svg
   xmlns:dc="http://purl.org/dc/elements/1.1/"
   xmlns:cc="http://creativecommons.org/ns#"
   xmlns:rdf="http://www.w3.org/1999/02/22-rdf-syntax-ns#"
   xmlns:svg="http://www.w3.org/2000/svg"
   xmlns="http://www.w3.org/2000/svg"
   xml:space="preserve"
   enable-background="new 30.5 31.5 412 533"
   viewBox="30.5 31.5 400 500"
   height="500"
   width="400"
   y="0"
   x="0"
   version="1.1"
   id="svg2"><metadata
     id="metadata4"><rdf:RDF><cc:Work
         rdf:about=""><dc:format>
          
          
          
          
          image/svg+xml
        
        
        
        
        </dc:format><dc:type
           rdf:resource="http://purl.org/dc/dcmitype/StillImage" /><dc:title></dc:title></cc:Work></rdf:RDF></metadata><defs
     id="defs6" /><path
     style="fill:#ffffff"
     fill="#0085ca"
     d="M230.44 531.14C156.12 477.22 105.18 409.12 74.7 322.98 47.06 244.88 35.97 150.23 40.79 33.63l0.02-0.46 379.82 0 0.02 0.46c4.81 116.6-6.28 211.24-33.91 289.35C356.26 409.12 305.32 477.22 231 531.14l-0.28 0.2-0.28-0.2z"
     id="path8" /><path
     id="path4344"
     d="m 421.62581,92.79129 -28.97687,29.41828 -48.08912,-47.367545 -47.36757,48.089135 48.08914,47.36754 -47.36756,48.08913 -48.08913,-47.36754 -47.36755,48.08913 48.08913,47.36756 -47.36755,48.08913 -48.08913,-47.36756 -47.36755,48.08913 48.08913,47.36756 -42.44871,43.09534 c 29.88199,49.61032 73.42009,93.93794 117.09491,124.87815 183.08464,-129.402 189.90914,-342.02266 191.16843,-437.83744 z"
     style="fill:#0085ca;fill-rule:evenodd;stroke:none;stroke-width:1px;stroke-linecap:butt;stroke-linejoin:miter;stroke-opacity:0.94117647;fill-opacity:1" /><path
     style="fill:none;fill-rule:evenodd;stroke:#000000;stroke-width:1px;stroke-linecap:butt;stroke-linejoin:miter;stroke-opacity:1"
     d="m 421.62581,92.79129 -28.97687,29.41828 -48.08912,-47.367545 -47.36757,48.089135 48.08914,47.36754 -47.36756,48.08913 -48.08913,-47.36754 -47.36755,48.08913 48.08913,47.36756 -47.36755,48.08913 -48.08913,-47.36756 -47.36755,48.08913 48.08913,47.36756 -42.44871,43.09534"
     id="path4348" /><path
     d="M419.96 33.21C429.03 252.66 383.7 419.16 230.5 530.31 77.31 419.16 31.99 252.66 41.06 33.21l189.45 0 189.45 0m0.92-0.95-0.92 0-189.45 0-189.45 0-0.92 0-0.04 0.92c-4.82 116.66 6.28 211.36 33.93 289.52 30.51 86.24 81.51 154.41 155.91 208.39l0.56 0.41 0.56-0.41C305.46 477.11 356.46 408.94 386.97 322.7 414.62 244.54 425.72 149.84 420.9 33.18l-0.04-0.92 0 0z"
     id="path10" /></svg>