<?xml version="1.0" encoding="UTF-8" standalone="no"?>
<svg
   xmlns:dc="http://purl.org/dc/elements/1.1/"
   xmlns:cc="http://creativecommons.org/ns#"
   xmlns:rdf="http://www.w3.org/1999/02/22-rdf-syntax-ns#"
   xmlns:svg="http://www.w3.org/2000/svg"
   xmlns="http://www.w3.org/2000/svg"
   xml:space="preserve"
   enable-background="new 30.5 31.5 412 533"
   viewBox="30.5 31.5 400 500"
   height="500"
   width="400"
   y="0"
   x="0"
   version="1.1"
   id="svg2"><metadata
     id="metadata4"><rdf:RDF><cc:Work
         rdf:about=""><dc:format>
          
          
          
          image/svg+xml
        
        
        
        </dc:format><dc:type
           rdf:resource="http://purl.org/dc/dcmitype/StillImage" /><dc:title></dc:title></cc:Work></rdf:RDF></metadata><defs
     id="defs6" /><path
     style="fill:#ffffff;fill-opacity:1"
     d="M 230.44,531.14 C 156.12,477.22 105.18,409.12 74.7,322.98 47.06,244.88 35.97,150.23 40.79,33.63 l 0.02,-0.46 379.82,0 0.02,0.46 c 4.81,116.6 -6.28,211.24 -33.91,289.35 C 356.26,409.12 305.32,477.22 231,531.14 l -0.28,0.2 -0.28,-0.2 z"
     id="path8" /><path
     d="M 419.96,33.21 C 429.03,252.66 383.7,419.16 230.5,530.31 77.31,419.16 31.99,252.66 41.06,33.21 l 189.45,0 189.45,0 m 0.92,-0.95 -0.92,0 -189.45,0 -189.45,0 -0.92,0 -0.04,0.92 c -4.82,116.66 6.28,211.36 33.93,289.52 30.51,86.24 81.51,154.41 155.91,208.39 l 0.56,0.41 0.56,-0.41 C 305.46,477.11 356.46,408.94 386.97,322.7 414.62,244.54 425.72,149.84 420.9,33.18 l -0.04,-0.92 0,0 z"
     id="path10" /><path
     style="fill:#0085ca;fill-opacity:1;stroke:#000000;stroke-linecap:round;stroke-linejoin:round;stroke-opacity:1"
     id="path2827-1"
     d="m 211.39312,67.14774 c 3.14071,2.379563 5.71667,0.09848 8.49778,-3.062029 1.67296,-1.901184 -4.73372,-5.993205 -6.67005,-7.902004 -1.47971,-1.458676 2.9908,-6.615759 4.81382,-5.54967 1.99473,1.166509 10.44736,8.234012 11.32247,12.338422 0.90662,4.252223 -2.823,6.827913 -5.77045,9.449609 -6.78834,6.038087 -22.27457,18.085013 -16.32616,18.120668 18.8742,0.113133 19.15266,-6.782662 40.43673,-8.61772 16.93451,-1.46005 34.1453,12.175087 43.34633,16.631194 20.3383,9.84996 60.84591,29.27889 78.24808,36.988 l -2.01882,27.71867 c -0.61158,8.39704 0.53373,16.5197 16.05796,21.23499 -3.19163,18.42881 -4.63226,37.70806 -5.87249,58.0223 l -8.90844,8.65208 c -0.76196,-18.07629 -0.30031,-38.16907 -0.18332,-55.36641 -12.4704,-7.64565 -24.95323,-11.91287 -35.95361,-21.16826 l 12.79607,25.167 c -14.35535,14.48029 -25.97405,28.50783 -39.64467,41.89119 l -10.10594,-0.0453 c 8.40699,-17.23337 31.36589,-37.25958 29.89265,-40.89316 -7.56375,-18.65513 -30.24438,-21.11055 -32.78123,-34.31444 -12.10219,1.19897 -21.695,2.62209 -38.26576,2.92734 -0.89939,22.20488 -0.65406,45.1862 -0.18663,69.66909 l -9.07868,5.85036 c -6.19752,-25.17383 -6.21081,-49.12259 -9.76618,-75.66509 -0.3715,-2.77346 -28.66788,-5.96919 -28.40685,-3.30718 l 2.23893,33.91418 -9.24489,10.06061 -5.06489,-49.00509 c -0.65234,-6.31167 0.80412,-7.03467 6.88627,-8.23716 8.62192,-1.70462 21.47567,-1.78069 29.54884,-3.4594 -9.56282,-6.36151 -18.89308,-15.63422 -25.84112,-23.65969 -3.05504,1.70919 -6.96527,5.98797 -9.31907,6.05289 -3.56485,0.0983 -5.72389,-11.9435 -11.08393,-12.20904 -5.81407,-0.28804 -15.46767,-0.50054 -16.43063,-0.33469 -2.26075,0.38935 -2.27474,5.2824 -3.63931,5.51177 -4.58674,0.77099 -12.18914,-0.81883 -14.19763,-3.02491 -2.29102,-2.51641 0.95262,-11.69305 5.214,-14.9214 6.98596,-5.29246 21.64531,-6.18634 33.04249,-14.383921 -11.75424,-3.21339 -16.86387,-5.966119 -19.34798,-12.987947 -0.77891,-2.201754 1.7482,-5.332457 3.14976,-3.024537 1.52025,2.503387 1.24763,2.26666 3.25112,3.803583 3.84329,2.948257 5.77373,0.950074 5.46515,-2.944627 l -0.26118,-3.296446 c -0.19845,-2.504719 5.02541,-3.956074 5.26727,-2.009079 l 0.8072,6.497926 c 0.29282,2.357187 5.4894,4.152841 7.98064,4.600447 3.63379,0.652889 5.33917,-1.388338 9.35908,-7.2983 3.17542,-4.668418 -4.31619,-6.258391 -7.16963,-10.468052 -1.15395,-1.702422 4.37159,-7.340034 6.11759,-5.075211 1.74599,2.264824 4.52377,4.646726 7.79931,7.128444 z" /><path
     d="m 147.42452,225.88725 c 3.14071,2.37956 6.95099,-1.75298 9.7321,-4.91351 1.67296,-1.90118 -4.73372,-5.9932 -6.67005,-7.902 -1.47971,-1.45868 2.9908,-6.61576 4.81382,-5.54967 1.99473,1.16651 10.44736,8.23401 11.32247,12.33842 0.90662,4.25222 -3.90303,10.22229 -6.85048,12.84399 -6.78834,6.03809 -20.88596,17.93072 -14.93755,17.96638 18.8742,0.11313 18.38121,-7.09125 39.66528,-8.9263 16.93451,-1.46005 33.37385,11.09505 42.57488,15.55116 20.3383,9.84996 60.22875,27.11883 77.63092,34.82794 l -2.48169,34.19886 c -0.60936,8.3972 19.10664,12.13405 17.75515,16.91486 -4.76188,16.84484 -4.42561,31.44726 -4.32959,52.93072 l -10.75992,9.42353 c -0.76196,-18.07629 -1.38034,-36.31758 -1.26335,-53.51492 -12.4704,-7.64565 -24.18178,-9.44423 -35.18216,-18.69962 l 11.71604,25.167 c -14.35535,14.48029 -25.51118,25.42203 -39.1818,38.80539 l -10.10594,-0.0453 c 8.40699,-17.23337 28.5355,-35.21386 26.80685,-38.7331 -8.02663,-16.34078 -18.36404,-15.5561 -24.44956,-36.62879 -12.10219,1.19897 -24.62652,1.69634 -41.19728,2.00159 -0.89939,22.20488 -2.35125,49.35204 -1.88382,73.83493 l -9.07868,5.85036 c -6.19752,-25.17383 -5.43936,-50.66549 -8.99473,-77.20799 -0.3715,-2.77346 -27.12498,-3.65484 -26.86395,-0.99283 l 1.77606,33.45131 -9.24489,10.06061 -6.91637,-51.01086 c -0.85253,-6.28776 0.80412,-7.03467 6.88627,-8.23716 8.62192,-1.70462 18.69845,0.22508 26.77162,-1.45363 -9.56282,-6.36151 -16.57873,-14.55419 -23.52677,-22.57966 -3.05504,1.70919 -9.5882,6.60513 -11.942,6.67005 -3.56485,0.0983 -5.5696,-13.33211 -10.92964,-13.59765 -5.81407,-0.28804 -15.77625,-1.1177 -16.73921,-0.95185 -2.260755,0.38935 -2.274745,5.2824 -3.639315,5.51177 -4.58674,0.77099 -10.183368,0.2612 -12.191858,-1.94488 -2.29102,-2.51641 1.106911,-12.31021 5.368291,-15.53856 6.98596,-5.29246 25.348272,-5.41489 36.745452,-13.61247 -11.75424,-3.21339 -23.03547,-7.04615 -25.51959,-14.06798 -0.77891,-2.20175 3.29111,-5.02387 4.69267,-2.71595 1.52025,2.50338 3.3601,4.60184 5.71976,5.50077 3.689,1.40536 5.26243,-0.5893 5.00228,-4.48753 l -0.26118,-3.9136 c -0.16731,-2.50699 5.02541,-3.95608 5.26727,-2.00908 l 0.8072,6.49792 c 0.29282,2.35719 5.4894,4.15284 7.98064,4.60045 3.63379,0.65289 5.33917,-1.38834 9.35908,-7.2983 3.17542,-4.66842 -4.31619,-6.25839 -7.16963,-10.46805 -1.15395,-1.70242 4.37159,-7.34004 6.11759,-5.07521 1.74599,2.26482 4.52377,4.64672 7.79931,7.12844 z"
     id="path4282"
     style="fill:#0085ca;fill-opacity:1;stroke:#000000;stroke-linecap:round;stroke-linejoin:round;stroke-opacity:1" /></svg>