<svg xmlns:dc="http://purl.org/dc/elements/1.1/" xmlns:cc="http://creativecommons.org/ns#" xmlns:rdf="http://www.w3.org/1999/02/22-rdf-syntax-ns#" xmlns:svg="http://www.w3.org/2000/svg" xmlns="http://www.w3.org/2000/svg" id="svg2" version="1.1" x="0" y="0" width="400" height="500" viewBox="30.5 31.5 400 500" enable-background="new 30.5 31.5 412 533" xml:space="preserve">
  <metadata id="metadata4">
    <rdf:RDF>
      <cc:Work rdf:about="">
        <dc:format>
          image/svg+xml
        </dc:format>
        <dc:type rdf:resource="http://purl.org/dc/dcmitype/StillImage"/>
      </cc:Work>
    </rdf:RDF>
  </metadata>
  <defs id="defs6"/>
  <path id="path8" d="M230.55 531.13C304.87 477.21 355.81 409.11 386.29 322.97 413.93 244.87 425.02 150.22 420.2 33.62l-0.02-0.46-379.82 0-0.02 0.46c-4.81 116.6 6.28 211.24 33.91 289.35 30.48 86.14 81.42 154.24 155.74 208.16l0.28 0.2 0.28-0.2z" fill="#32ac60"/>
  <path id="path10" d="m41.04 33.21c-9.07 219.45 36.25 385.95 189.45 497.1 84.47-61.29 136.15-139.41 163.99-233.97 2.09-7.09 4.04-14.27 5.87-21.54 11.45-45.69 17.77-95.02 19.88-147.94 1.2-30.06 1.05-61.28-0.29-93.65l-189.45 0-189.45 0m-0.92-0.95 0.92 0 189.45 0 189.45 0 0.92 0 0.04 0.92c4.82 116.66-6.28 211.36-33.93 289.52-30.51 86.24-81.51 154.41-155.91 208.39l-0.56 0.41-0.56-0.41C155.54 477.11 104.54 408.94 74.03 322.7 46.38 244.54 35.28 149.84 40.1 33.18l0.04-0.92 0 0z"/>
  <path id="path5670" d="M372.69 73.12C266.48 38.35 193.06 61.95 165.36 74.45l-11.22-11.24-31.64 18.72 4.35 9.46c-7.8 4.2-56.53 29.36-63.79 34.02-5.02 3.22 4.23 16.55 12.09 30.53 7.97 14.17 15.26 27.24 19.55 24.24 6.59-4.61 59.49-41.68 59.49-41.68L219.68 255.97c24.76 47.57 45.91 97.01 60.5 138.66 2.2 6.1 25.71-2.19 41.4-13.1 17.63-12.25 27.06-26.67 23.85-29.54-15.22-14.9-38.39-40.72-56.72-66.85-12.48-17.78-21.98-36.09-32.64-52.22-33.6-51.1-66.84-113.83-66.84-113.83 37.4-24.99 75.82-41.61 183.46-45.96z" style="fill:#fff;stroke:#000"/>
</svg>
