<svg xmlns:dc="http://purl.org/dc/elements/1.1/" xmlns:cc="http://creativecommons.org/ns#" xmlns:rdf="http://www.w3.org/1999/02/22-rdf-syntax-ns#" xmlns:svg="http://www.w3.org/2000/svg" xmlns="http://www.w3.org/2000/svg" id="svg2" version="1.1" x="0" y="0" width="400" height="500" viewBox="30.5 31.5 400 500" enable-background="new 30.5 31.5 412 533" xml:space="preserve">
  <metadata id="metadata4">
    <rdf:RDF>
      <cc:Work rdf:about="">
        <dc:format>
          
          
          image/svg+xml
        
        
        </dc:format>
        <dc:type rdf:resource="http://purl.org/dc/dcmitype/StillImage"/>
      </cc:Work>
    </rdf:RDF>
  </metadata>
  <defs id="defs6"/>
  <path d="M230.55 531.13C304.87 477.21 355.81 409.11 386.29 322.97 413.93 244.87 425.02 150.22 420.2 33.62l-0.02-0.46-379.82 0-0.02 0.46c-4.81 116.6 6.28 211.24 33.91 289.35 30.48 86.14 81.42 154.24 155.74 208.16l0.28 0.2 0.28-0.2z" id="path4148" fill="#0085ca"/>
  <path id="path10" d="m41.04 33.21c-9.07 219.45 36.25 385.95 189.45 497.1 84.47-61.29 136.15-139.41 163.99-233.97 2.09-7.09 4.04-14.27 5.87-21.54 11.45-45.69 17.77-95.02 19.88-147.94 1.2-30.06 1.05-61.28-0.29-93.65l-189.45 0-189.45 0m-0.92-0.95 0.92 0 189.45 0 189.45 0 0.92 0 0.04 0.92c4.82 116.66-6.28 211.36-33.93 289.52-30.51 86.24-81.51 154.41-155.91 208.39l-0.56 0.41-0.56-0.41C155.54 477.11 104.54 408.94 74.03 322.7 46.38 244.54 35.28 149.84 40.1 33.18l0.04-0.92 0 0z"/>
  <path id="path4313" d="m121.66 360.71 0.11-107.8c0.01-9.19 2.95-16.99 16.93-27.04 3.72-2.68 6.38-8.17 6.38-14.73l0-126.72c0-3.91-1.38-4.84-3.68-6.95-2.3-2.1-3.26-4.55-3.25-8.66 0.03-5.27 5.56-12.31 13.09-12.31 7.52 0 13.06 7.05 13.09 12.31 0.02 4.12-0.95 6.56-3.25 8.66-2.3 2.11-3.68 3.04-3.68 6.95l0 126.72c0 6.56 2.65 12.05 6.38 14.73 13.98 10.04 16.92 17.85 16.93 27.04l0.11 107.8c-19.71 0-39.43 0-59.14 0z" style="fill:#fff;stroke-width:0.96;stroke:#000"/>
  <path id="path5093" d="m173.11 360.71 0-110c0-6.86-6.45-19.78-21.88-19.78-15.43 0-21.88 12.93-21.88 19.78l0 110" style="fill:none;stroke-miterlimit:4;stroke-width:0.96;stroke:#000"/>
  <path id="path5103" d="m280.19 360.71 0.11-107.8c0.01-9.19 2.95-16.99 16.93-27.04 3.72-2.68 6.38-8.17 6.38-14.73l0-126.72c0-3.91-1.38-4.84-3.68-6.95-2.3-2.1-3.26-4.55-3.25-8.66 0.03-5.27 5.56-12.31 13.09-12.31 7.52 0 13.06 7.05 13.09 12.31 0.02 4.12-0.95 6.56-3.25 8.66-2.3 2.11-3.68 3.04-3.68 6.95l0 126.72c0 6.56 2.65 12.05 6.38 14.73 13.98 10.04 16.92 17.85 16.93 27.04l0.11 107.8c-19.71 0-39.43 0-59.14 0z" style="fill:#fff;stroke-width:0.96;stroke:#000"/>
  <path id="path5105" d="m331.64 360.71 0-110c0-6.86-6.45-19.78-21.88-19.78-15.43 0-21.88 12.93-21.88 19.78l0 110" style="fill:none;stroke-miterlimit:4;stroke-width:0.96;stroke:#000"/>
  <path id="path5107" d="m200.93 460.28 0.11-107.8c0.01-9.19 2.95-16.99 16.93-27.04 3.72-2.68 6.38-8.17 6.38-14.73l0-226.3c0-3.91-1.38-4.84-3.68-6.95-2.3-2.1-3.26-4.55-3.25-8.66 0.03-5.27 5.57-12.31 13.09-12.31 7.52 0 13.06 7.05 13.09 12.31 0.02 4.12-0.95 6.56-3.25 8.66-2.3 2.11-3.68 3.04-3.68 6.95l0 226.3c0 6.56 2.65 12.05 6.38 14.73 13.98 10.04 16.92 17.85 16.93 27.04l0.11 107.8c-19.71 0-39.43 0-59.14 0z" style="fill:#fff;stroke-width:0.96;stroke:#000"/>
  <path id="path5109" d="m252.38 460.28 0-110c0-6.86-6.45-19.78-21.88-19.78-15.43 0-21.88 12.93-21.88 19.78l0 110" style="fill:none;stroke-miterlimit:4;stroke-width:0.96;stroke:#000"/>
</svg>
