<svg xmlns:dc="http://purl.org/dc/elements/1.1/" xmlns:cc="http://creativecommons.org/ns#" xmlns:rdf="http://www.w3.org/1999/02/22-rdf-syntax-ns#" xmlns:svg="http://www.w3.org/2000/svg" xmlns="http://www.w3.org/2000/svg" xml:space="preserve" enable-background="new 30.5 31.5 412 533" viewBox="30.5 31.5 400 500" height="500" width="400" y="0" x="0" version="1.1" id="svg2">
  <metadata id="metadata4">
    <rdf:RDF>
      <cc:Work rdf:about="">
        <dc:format>
          
          
          
          image/svg+xml
        
        
        
        </dc:format>
        <dc:type rdf:resource="http://purl.org/dc/dcmitype/StillImage"/>
      </cc:Work>
    </rdf:RDF>
  </metadata>
  <defs id="defs6"/>
  <path d="m230.44 531.14c-74.32-53.92-125.26-122.02-155.74-208.16-27.64-78.1-38.73-172.75-33.91-289.35l0.02-0.46 379.82 0 0.02 0.46c4.81 116.6-6.28 211.24-33.91 289.35-30.48 86.14-81.42 154.24-155.74 208.16l-0.28 0.2-0.28-0.2z" id="path8" fill="#ffe000"/>
  <path id="path4673" d="M230.5 530.73C285.68 490.43 326.45 444.83 357.61 387.69 314.66 430.36 206.48 399.58 207.37 306.71c0.32-33.99 18.03-66.5 44.43-67.52 29.44-1.14 40.46 25.76 33.11 41.82 26.82-5.71 50.29-36.71 51.83-82.32 1.83-54.26-57.39-83.98-106.24-89.32-54.14-5.91-101.44 18.67-122.46 35.72-19.22 15.59-49.04 58.55-56.36 90.28 23.92 123.98 74.48 219.02 178.81 295.37" style="fill-rule:evenodd;fill:#0085ca"/>
  <path d="m419.96 33.21c9.07 219.45-36.26 385.95-189.46 497.1C77.31 419.16 31.99 252.66 41.06 33.21l189.45 0 189.45 0m0.92-0.95-0.92 0-189.45 0-189.45 0-0.92 0-0.04 0.92c-4.82 116.66 6.28 211.36 33.93 289.52 30.51 86.24 81.51 154.41 155.91 208.39l0.56 0.41 0.56-0.41c74.4-53.98 125.4-122.15 155.91-208.39 27.65-78.16 38.75-172.86 33.93-289.52l-0.04-0.92 0 0z" id="path10"/>
  <path d="m357.78 387.51c-42.95 42.67-151.3 12.07-150.41-80.8 0.32-33.99 18.03-66.5 44.43-67.52 29.44-1.14 40.46 25.76 33.11 41.82 26.82-5.71 50.29-36.71 51.83-82.32 1.83-54.26-57.39-83.98-106.24-89.32-54.14-5.91-101.4 18.72-122.46 35.72-19.24 15.54-49.04 58.55-56.36 90.28" id="path4675" style="fill:none;stroke-linecap:round;stroke-linejoin:round;stroke:#000"/>
</svg>
