<svg xmlns:dc="http://purl.org/dc/elements/1.1/" xmlns:cc="http://creativecommons.org/ns#" xmlns:rdf="http://www.w3.org/1999/02/22-rdf-syntax-ns#" xmlns:svg="http://www.w3.org/2000/svg" xmlns="http://www.w3.org/2000/svg" xml:space="preserve" enable-background="new 30.5 31.5 412 533" viewBox="30.5 31.5 400 500" height="500" width="400" y="0" x="0" version="1.1" id="svg2">
  <metadata id="metadata4">
    <rdf:RDF>
      <cc:Work rdf:about="">
        <dc:format>
          
          
          
          
          
          
          image/svg+xml
        
        
        
        
        
        
        </dc:format>
        <dc:type rdf:resource="http://purl.org/dc/dcmitype/StillImage"/>
      </cc:Work>
    </rdf:RDF>
  </metadata>
  <defs id="defs6"/>
  <path id="path4148" d="M230.55 531.13C304.87 477.21 355.81 409.11 386.29 322.97 413.93 244.87 425.02 150.22 420.2 33.62l-0.02-0.46-379.82 0-0.02 0.46c-4.81 116.6 6.28 211.24 33.91 289.35 30.48 86.14 81.42 154.24 155.74 208.16l0.28 0.2 0.28-0.2z" fill="#0085ca"/>
  <path d="m41.04 33.21c-9.07 219.45 36.25 385.95 189.45 497.1 84.47-61.29 136.15-139.41 163.99-233.97 2.09-7.09 4.04-14.27 5.87-21.54 11.45-45.69 17.77-95.02 19.88-147.94 1.2-30.06 1.05-61.28-0.29-93.65l-189.45 0-189.45 0m-0.92-0.95 0.92 0 189.45 0 189.45 0 0.92 0 0.04 0.92c4.82 116.66-6.28 211.36-33.93 289.52-30.51 86.24-81.51 154.41-155.91 208.39l-0.56 0.41-0.56-0.41C155.54 477.11 104.54 408.94 74.03 322.7 46.38 244.54 35.28 149.84 40.1 33.18l0.04-0.92 0 0z" id="path10"/>
  <path d="m274.67 201.96 19.03 23.19c1.84 2.25 5.31 0.6 8.65-3.09 1.66-1.84 5.27-4.41 3.94-6.8-4.52-8.08-17.64-26.01-14.46-28.7l66.15-56.03c1.48-1.26 7.16-3.31 8.01 1.75 3.56 21.28 8.35 41.18 5.38 42.27l-7.35 1.14c-2.97 0.46-4.03 2.18-3 5.29l11.79 35.65c0.9 2.71 2.97 2.99 4.98 0.52 8.95-11 15.53-22.08 21.27-33.73 0.99-2.01-0.83-4.74-3.13-5.63-1.93-0.75-3.16-1.38-5.49-2.38 0.82-18.3 1.97-58.54-7.89-87.01-27.45-12.41-67.64-14.91-85.94-15.76-0.79-2.42-1.3-3.7-1.88-5.69-0.68-2.37-3.23-4.43-5.32-3.63-12.12 4.66-23.75 10.21-35.52 18.12-2.64 1.77-2.55 3.86 0.07 5l34.44 14.98c3.01 1.31 4.81 0.41 5.54-2.51l1.8-7.22c1.35-2.86 20.73 3.72 41.6 9.19 4.96 1.3 2.4 6.77 1.01 8.13l-61.8 60.79c-2.97 2.92-19.63-11.76-27.27-17-2.26-1.55-5.14 1.81-7.13 3.3-3.99 2.99-5.94 6.29-3.87 8.33l21.36 21.06-8.87 8.85c-13.37-8.19-27.89-8.38-41.83 0.73l-7.86-9.32 22.37-19.99c2.17-1.94 0.38-5.33-3.45-8.51-1.91-1.59-4.62-5.08-6.96-3.65-7.88 4.86-25.24 18.71-28.07 15.65l-58.76-63.74c-1.32-1.43-3.61-7.02 1.41-8.08 21.12-4.45 40.79-10.07 42-7.15l1.45 7.3c0.59 2.95 2.35 3.94 5.41 2.78l35.13-13.28c2.67-1.01 2.86-3.09 0.32-4.99-11.37-8.48-22.71-14.59-34.59-19.84-2.05-0.91-4.7 1.03-5.5 3.36-0.67 1.96-1.25 3.21-2.15 5.59-18.32-0.05-58.58 0.49-86.6 11.54-11.24 27.95-12.06 68.21-12.14 86.52-2.38 0.89-3.64 1.46-5.6 2.11-2.34 0.78-4.29 3.41-3.4 5.47 5.16 11.92 11.2 23.3 19.6 34.73 1.88 2.56 3.97 2.39 4.99-0.28l13.52-35.03c1.18-3.06 0.2-4.83-2.74-5.43l-7.29-1.5c-2.91-1.23 2.84-20.87 7.44-41.95 1.09-5.01 6.67-2.68 8.08-1.35l63.33 59.2c3.04 2.84-10.93 20.11-15.84 27.96-1.45 2.32 2.03 5.06 3.6 6.98 3.16 3.86 6.54 5.67 8.49 3.51l20.14-22.23 11.94 9.15c-9.46 20 2.38 43.82 22.21 49.02l-1.56 8.5-33.98-1.79c-3.29-0.17-4.56 3.98-4.02 9.61 0.27 2.8-0.34 7.79 2.68 8.5 10.23 2.39 35.27 5.12 35.1 9.84l-3.65 98.27c-0.08 2.2-2.7 8.54-7.59 5.37-20.55-13.3-40.88-24.5-39.52-27.82l4.67-7.03c1.89-2.84 1.26-5.04-2.14-6.56l-38.89-17.39c-2.96-1.32-4.78 0.2-4.24 3.77 2.37 15.91 6.62 29.9 11.99 43.62 0.93 2.37 4.6 2.93 7.11 1.69 2.1-1.04 3.57-1.59 6.2-2.78 14.7 14.68 47.54 46.43 78.93 59.94 31.39-13.51 64.23-45.26 78.93-59.94 2.63 1.19 4.09 1.74 6.2 2.78 2.51 1.24 6.18 0.68 7.11-1.69 5.37-13.72 9.62-27.71 11.99-43.62 0.53-3.56-1.28-5.09-4.24-3.77l-38.89 17.39c-3.4 1.52-4.02 3.72-2.14 6.56l4.67 7.03c1.36 3.32-18.97 14.52-39.52 27.82-4.88 3.16-7.51-3.17-7.59-5.37l-3.65-98.27c-0.18-4.72 24.87-7.44 35.1-9.84 3.02-0.71 2.41-5.69 2.68-8.5 0.54-5.63-0.73-9.79-4.02-9.61l-33.98 1.79-1.56-8.5c17.85-5.57 31.68-23.92 22.48-50.15z" id="path4252" style="fill-rule:evenodd;fill:#fff;stroke:#000"/>
  <circle r="19.06" cy="225.15" cx="230.5" id="path4260" style="fill:#0085ca;stroke-linecap:round;stroke-linejoin:round;stroke-miterlimit:4;stroke:#000"/>
</svg>
