<svg xmlns:dc="http://purl.org/dc/elements/1.1/" xmlns:cc="http://creativecommons.org/ns#" xmlns:rdf="http://www.w3.org/1999/02/22-rdf-syntax-ns#" xmlns:svg="http://www.w3.org/2000/svg" xmlns="http://www.w3.org/2000/svg" id="svg2" version="1.1" x="0" y="0" width="420" height="500" viewBox="30.5 31.5 420 500" enable-background="new 30.5 31.5 412 533" xml:space="preserve">
  <metadata id="metadata4">
    <rdf:RDF>
      <cc:Work rdf:about="">
        <dc:format>
          
          
          
          
          image/svg+xml
        
        
        
        
        </dc:format>
        <dc:type rdf:resource="http://purl.org/dc/dcmitype/StillImage"/>
      </cc:Work>
    </rdf:RDF>
  </metadata>
  <defs id="defs6"/>
  <path id="path4218" d="m440 32.7c2.09 102.46-3.38 187.49-43.93 296.59C368.02 404.77 321.86 474.06 240.5 530.88 159.14 474.06 112.98 404.77 84.93 329.29 44.38 220.19 38.91 135.16 41 32.7c133 0.29 266 0 399 0z" style="fill-rule:evenodd;fill:#ffe000"/>
  <path id="path4325" d="M124.77 274.87C82.95 163.2 190.13 159.34 162.61 68.16 147.53 94.29 123.54 104.19 106.16 107.96 85.45 112.45 62.18 113.02 42.89 138.52 51.9 244.43 85.78 425.66 240.5 530.88c39.59-27.54 73.39-60.3 101.18-98.47-23.3-80.63 81.59-141.32 23.88-225.7-13.16 98.15-132.05 85.27-131.79 162.95-63.05-88.19 81.79-111.29 25.32-239.58-13.09 94.74-122.43 60.99-134.32 144.79z" style="fill-rule:evenodd;fill:#e00e00"/>
  <path d="M341.68 432.41C318.38 351.79 423.27 291.09 365.56 206.71 352.39 304.86 233.5 291.98 233.77 369.66 170.72 281.47 315.55 258.37 259.09 130.08 246 224.82 136.66 191.07 124.77 274.87 82.95 163.2 190.13 159.34 162.61 68.16 147.53 94.29 123.54 104.19 106.16 107.96c-20.7 4.49-43.98 5.06-63.26 30.56" id="path4358" style="fill:none;stroke:#000"/>
  <path d="m440 32.7c2.09 102.46-3.38 187.49-43.93 296.59C368.02 404.77 321.86 474.06 240.5 530.88 159.14 474.06 112.98 404.77 84.93 329.29 44.38 220.19 38.91 135.16 41 32.7c133 0.29 266 0 399 0z" id="path4224" style="fill:none;stroke:#000"/>
</svg>
