<?xml version="1.0" encoding="UTF-8" standalone="no"?>
<svg
   xmlns:dc="http://purl.org/dc/elements/1.1/"
   xmlns:cc="http://creativecommons.org/ns#"
   xmlns:rdf="http://www.w3.org/1999/02/22-rdf-syntax-ns#"
   xmlns:svg="http://www.w3.org/2000/svg"
   xmlns="http://www.w3.org/2000/svg"
   id="svg2"
   version="1.1"
   x="0"
   y="0"
   width="400"
   height="500"
   viewBox="30.5 31.5 400 500"
   enable-background="new 30.5 31.5 412 533"
   xml:space="preserve"><metadata
     id="metadata4"><rdf:RDF><cc:Work
         rdf:about=""><dc:format>
          
          
          
          
          image/svg+xml
        
        
        
        
        </dc:format><dc:type
           rdf:resource="http://purl.org/dc/dcmitype/StillImage" /><dc:title></dc:title></cc:Work></rdf:RDF></metadata><defs
     id="defs6" /><path
     style="fill:#0085ca;fill-opacity:1"
     d="M 230.45,531.13 C 156.13,477.21 105.19,409.11 74.71,322.97 47.07,244.87 35.98,150.22 40.8,33.62 l 0.02,-0.46 379.82,0 0.02,0.46 c 4.81,116.6 -6.28,211.24 -33.91,289.35 -30.48,86.14 -81.42,154.24 -155.74,208.16 l -0.28,0.2 z"
     id="path4148" /><path
     id="path10"
     d="M 419.96,33.21 C 429.03,252.66 383.71,419.16 230.51,530.31 146.04,469.02 94.36,390.9 66.52,296.34 64.43,289.25 62.48,282.07 60.65,274.8 49.2,229.11 42.88,179.78 40.77,126.86 39.57,96.8 39.72,65.58 41.06,33.21 l 189.45,0 189.45,0 m 0.92,-0.95 -0.92,0 -189.45,0 -189.45,0 -0.92,0 -0.04,0.92 c -4.82,116.66 6.28,211.36 33.93,289.52 30.51,86.24 81.51,154.41 155.91,208.39 l 0.56,0.41 0.56,-0.41 C 305.46,477.11 356.46,408.94 386.97,322.7 414.62,244.54 425.72,149.84 420.9,33.18 l -0.04,-0.92 0,0 z" /><path
     style="fill:#ffe000;fill-opacity:1;fill-rule:evenodd;stroke:#000000;stroke-width:1px;stroke-linecap:butt;stroke-linejoin:round;stroke-opacity:1"
     d="m 230.5,66.5 c 5.21922,0 17.16713,10.171309 33.65739,23 l -22.48706,0 -1.96037,93.63975 c -0.11625,5.55291 -2.17536,7.88267 -9.20996,11.97852 -7.0346,-4.09585 -9.09371,-6.42561 -9.20996,-11.97852 L 219.32967,89.5 l -22.48706,0 c 16.49026,-12.828691 28.43817,-23 33.65739,-23"
     id="path4245" /><path
     id="path4247"
     d="m 230.5,376.5 c 5.21922,0 17.16713,-10.17131 33.65739,-23 l -22.48706,0 -1.96037,-93.63975 c -0.11625,-5.55291 -2.17536,-7.88267 -9.20996,-11.97852 -7.0346,4.09585 -9.09371,6.42561 -9.20996,11.97852 l -1.96037,93.63975 -22.48706,0 c 16.49026,12.82869 28.43817,23 33.65739,23"
     style="fill:#ffe000;fill-opacity:1;fill-rule:evenodd;stroke:#000000;stroke-width:1px;stroke-linecap:butt;stroke-linejoin:round;stroke-opacity:1" /><path
     id="path4255"
     d="m 96.499999,144 c 2.6469,-4.49823 17.472471,-9.63733 36.891981,-17.34363 l -11.40421,19.38071 79.71021,49.17854 c 4.72688,2.91632 5.69053,5.87251 5.65302,14.01255 -7.09761,3.98565 -10.14981,4.57879 -14.9946,1.86285 L 110.6578,165.29161 99.253599,184.67233 C 96.560009,163.95401 93.853099,148.49824 96.499999,144"
     style="fill:#ffe000;fill-opacity:1;fill-rule:evenodd;stroke:#000000;stroke-width:1px;stroke-linecap:butt;stroke-linejoin:round;stroke-opacity:1" /><path
     style="fill:#ffe000;fill-opacity:1;fill-rule:evenodd;stroke:#000000;stroke-width:1px;stroke-linecap:butt;stroke-linejoin:round;stroke-opacity:1"
     d="m 364.5,144 c -2.6469,-4.49823 -17.47247,-9.63733 -36.89198,-17.34363 l 11.40421,19.38071 -79.71021,49.17854 c -4.72688,2.91632 -5.69053,5.87251 -5.65302,14.01255 7.09761,3.98565 10.14981,4.57879 14.9946,1.86285 l 81.6986,-45.79941 11.40421,19.38072 C 364.43999,163.95401 367.1469,148.49824 364.5,144"
     id="path4257" /><path
     style="fill:#ffe000;fill-opacity:1;fill-rule:evenodd;stroke:#000000;stroke-width:1px;stroke-linecap:butt;stroke-linejoin:round;stroke-opacity:1"
     d="m 364.5,299 c -2.6469,4.49823 -17.47247,9.63733 -36.89198,17.34363 l 11.40421,-19.38071 -79.71021,-49.17854 c -4.72688,-2.91632 -5.69053,-5.87251 -5.65302,-14.01255 7.09761,-3.98565 10.14981,-4.57879 14.9946,-1.86285 l 81.6986,45.79941 11.40421,-19.38072 C 364.43999,279.04599 367.1469,294.50176 364.5,299"
     id="path4259" /><path
     id="path4261"
     d="m 96.499999,299 c 2.6469,4.49823 17.472471,9.63733 36.891981,17.34363 l -11.40421,-19.38071 79.71021,-49.17854 c 4.72688,-2.91632 5.69053,-5.87251 5.65302,-14.01255 -7.09761,-3.98565 -10.14981,-4.57879 -14.9946,-1.86285 l -81.6986,45.79941 -11.404211,-19.38072 c -2.69358,20.71832 -5.40049,36.17409 -2.75359,40.67233"
     style="fill:#ffe000;fill-opacity:1;fill-rule:evenodd;stroke:#000000;stroke-width:1px;stroke-linecap:butt;stroke-linejoin:round;stroke-opacity:1" /></svg>