<?xml version="1.0" encoding="UTF-8" standalone="no"?>
<svg
   xmlns:dc="http://purl.org/dc/elements/1.1/"
   xmlns:cc="http://creativecommons.org/ns#"
   xmlns:rdf="http://www.w3.org/1999/02/22-rdf-syntax-ns#"
   xmlns:svg="http://www.w3.org/2000/svg"
   xmlns="http://www.w3.org/2000/svg"
   id="svg2"
   version="1.1"
   x="0"
   y="0"
   width="400"
   height="500"
   viewBox="30.5 31.5 400 500"
   enable-background="new 30.5 31.5 412 533"
   xml:space="preserve"><metadata
     id="metadata4"><rdf:RDF><cc:Work
         rdf:about=""><dc:format>
          
          
          
          
          
          image/svg+xml
        
        
        
        
        
        </dc:format><dc:type
           rdf:resource="http://purl.org/dc/dcmitype/StillImage" /><dc:title></dc:title></cc:Work></rdf:RDF></metadata><defs
     id="defs6" /><path
     style="fill:#e00e00;fill-opacity:1"
     id="path8"
     d="M 230.67,530.86 C 156.35,476.94 105.41,408.84 74.93,322.7 47.29,244.6 36.2,149.95 41.02,33.35 l 0.02,-0.46 379.82,0 0.02,0.46 c 4.81,116.6 -6.28,211.24 -33.91,289.35 -30.48,86.14 -81.42,154.24 -155.74,208.16 l -0.28,0.2 -0.28,-0.2 z" /><path
     id="path10"
     d="M 419.96,33.21 C 429.03,252.66 383.7,419.16 230.5,530.31 77.31,419.16 31.99,252.66 41.06,33.21 l 189.45,0 189.45,0 m 0.92,-0.95 -0.92,0 -189.45,0 -189.45,0 -0.92,0 -0.04,0.92 c -4.82,116.66 6.28,211.36 33.93,289.52 30.51,86.24 81.51,154.41 155.91,208.39 l 0.56,0.41 0.56,-0.41 C 305.46,477.11 356.46,408.94 386.97,322.7 414.62,244.54 425.72,149.84 420.9,33.18 l -0.04,-0.92 0,0 z" /><path
     id="path4557"
     d="m 115.7786,348.85066 c 13.22777,-0.70124 25.82574,0.35359 36.78678,1.10294 5.88457,0.4023 8.39708,8.80674 5.82825,11.90444 -5.31935,6.41453 -9.56997,9.75937 -20.33189,16.57728 -1.74598,1.10612 7.20046,12.36262 8.82614,10.72467 7.86709,-7.92649 14.27351,-12.51336 22.96595,-17.47093 4.28111,-2.44165 15.79484,20.82315 24.81576,35.05176 1.39583,2.20163 7.5311,-3.17431 10.70533,-5.67044 3.17424,-2.49613 9.8453,-7.19071 8.03489,-9.06634 -11.70021,-12.12169 -31.594,-28.79665 -28.21168,-32.3813 6.86747,-7.27829 12.83565,-12.42248 22.3937,-18.19862 1.9751,-1.1936 -6.85437,-12.54209 -8.34102,-11.10616 -9.16334,8.85075 -13.41618,12.19279 -20.90414,15.84957 -3.61609,1.76594 -11.19106,-2.65752 -10.19442,-8.47101 1.85644,-10.82865 3.80199,-23.32009 7.60262,-36.00949 C 133.83809,278.09144 87.574384,242.9343 61.933776,218.66156 79.47591,249.30272 102.7325,302.552 115.7786,348.85066 Z"
     style="fill:#ffffff;fill-rule:evenodd;stroke:#000000;stroke-width:1px;stroke-linecap:round;stroke-linejoin:round;stroke-opacity:1" /><path
     id="path4565"
     d="m 335.52512,345.925 c -19.26578,-19.89845 -49.64134,-46.53817 -44.92095,-52.213 7.96445,-9.57482 16.84716,-15.25686 31.43086,-23.44558 3.01421,-1.69213 -13.21535,-23.93547 -15.5098,-21.857 -14.14039,12.8101 -16.54786,16.41469 -27.49894,22.40176 -4.04376,2.21076 -6.16635,0.19338 -8.24782,-3.19844 -9.3213,-15.18937 -11.37885,-44.16875 1.0091,-69.65157 C 201.6024,158.21125 144.29992,116.6618 107.08063,79.099387 c 24.79169,46.707413 47.41635,113.774963 64.49103,192.606863 28.01416,-4.24757 55.06992,6.33658 66.79925,19.75398 2.61919,2.99614 3.91391,5.62271 0.60041,8.82586 -8.97341,8.67464 -13.13093,9.90098 -29.56721,19.59108 -2.66687,1.57237 13.74234,23.6835 16.25445,21.30904 12.15593,-11.48796 20.22289,-18.27855 31.73332,-23.03455 6.82203,-2.81879 23.22102,34.10576 36.48838,58.41822 1.8701,3.42697 17.86854,-9.13256 22.73965,-12.71702 4.8711,-3.58447 21.62083,-15.12306 18.90521,-17.92786 z"
     style="fill:#ffffff;fill-rule:evenodd;stroke:#000000;stroke-width:1;stroke-linecap:round;stroke-linejoin:round;stroke-miterlimit:4;stroke-dasharray:none;stroke-opacity:1" /><path
     style="fill:#ffffff;fill-rule:evenodd;stroke:#000000;stroke-width:1px;stroke-linecap:round;stroke-linejoin:round;stroke-opacity:1"
     d="m 296.85435,210.83561 c 13.22777,-0.70124 25.82574,0.35359 36.78678,1.10294 5.88457,0.4023 8.39708,8.80674 5.82825,11.90444 -5.31935,6.41453 -9.56997,9.75937 -20.33189,16.57728 -1.74598,1.10612 7.20046,12.36262 8.82614,10.72467 7.86709,-7.92649 14.27351,-12.51336 22.96595,-17.47093 4.28111,-2.44165 15.79484,20.82315 24.81576,35.05176 1.39583,2.20163 7.5311,-3.17431 10.70533,-5.67044 3.17424,-2.49613 9.8453,-7.19071 8.03489,-9.06634 -11.70021,-12.12169 -31.594,-28.79665 -28.21168,-32.3813 6.86747,-7.27829 12.83565,-12.42248 22.3937,-18.19862 1.9751,-1.1936 -6.85437,-12.54209 -8.34102,-11.10616 -9.16334,8.85075 -13.41618,12.19279 -20.90414,15.84957 -3.61609,1.76594 -11.19106,-2.65752 -10.19442,-8.47101 1.85644,-10.82865 3.80199,-23.32009 7.60262,-36.00949 -41.91678,-23.59559 -88.18049,-58.75273 -113.82109,-83.025474 17.54213,30.641164 40.79872,83.890444 53.84482,130.189104 z"
     id="path4567" /></svg>