<?xml version="1.0" encoding="utf-8"?>
<!-- Generator: Adobe Illustrator 15.0.0, SVG Export Plug-In . SVG Version: 6.00 Build 0)  -->
<!DOCTYPE svg PUBLIC "-//W3C//DTD SVG 1.1//EN" "http://www.w3.org/Graphics/SVG/1.1/DTD/svg11.dtd">
<svg version="1.1" id="Calque_1" xmlns="http://www.w3.org/2000/svg" xmlns:xlink="http://www.w3.org/1999/xlink" x="0px" y="0px"
	 width="575.489px" height="175.74px" viewBox="0 0 575.489 175.74" enable-background="new 0 0 575.489 175.74"
	 xml:space="preserve">
<path fill="#006EA9" d="M575.443,159.429c0,9.1-7.615,16.476-17.008,16.476H17.018c-9.393,0-17.008-7.376-17.008-16.476V16.632
	c0-9.101,7.615-16.475,17.008-16.475h541.417c9.393,0,17.008,7.374,17.008,16.475V159.429z"/>
<path fill="#FFFFFF" d="M20.943,155.661l6.897-20.492h4.439l6.645,20.492h-4.16l-1.452-4.535h-6.701l-1.48,4.535H20.943z
	 M27.644,147.655h4.747l-2.29-7.334L27.644,147.655z"/>
<path fill="#FFFFFF" d="M41.018,151.687v-16.518h3.909v15.426c0,0.709,0.195,1.139,0.587,1.287c0.279,0.113,0.66,0.168,1.144,0.168
	h7.008v3.611h-8.404C42.433,155.661,41.018,154.337,41.018,151.687"/>
<path fill="#FFFFFF" d="M55.76,142.056v-1.764c0-1.959,0.531-3.35,1.592-4.17c0.967-0.729,2.28-1.102,3.937-1.121h1.409
	c0.717,0,1.769,0.076,3.156,0.225c1.386,0.15,2.499,0.346,3.336,0.588v3.08c-2.121-0.188-3.811-0.281-5.067-0.281h-2.025
	c-0.838,0-1.452,0.113-1.842,0.336c-0.392,0.225-0.587,0.775-0.587,1.652v1.008c0,0.783,0.158,1.307,0.475,1.568
	c0.316,0.262,0.884,0.391,1.703,0.391h3.239c2.122,0,3.546,0.85,4.272,2.55c0.372,0.856,0.558,1.817,0.558,2.882v1.371
	c0,2.502-0.828,4.135-2.485,4.9c-0.856,0.41-1.908,0.615-3.155,0.615c-3.369,0-6.003-0.279-7.902-0.84v-3.08
	c2.048,0.207,3.835,0.309,5.361,0.309c1.526,0,2.416-0.018,2.667-0.057c0.251-0.037,0.507-0.111,0.768-0.223
	c0.558-0.242,0.838-0.738,0.838-1.484v-1.092c0-0.971-0.308-1.568-0.922-1.791c-0.242-0.093-0.549-0.141-0.922-0.141h-3.127
	C57.519,147.487,55.76,145.677,55.76,142.056"/>
<path fill="#FFFFFF" d="M70.95,155.661l6.897-20.492h4.439l6.646,20.492h-4.16l-1.452-4.535h-6.701l-1.48,4.535H70.95z
	 M77.651,147.655h4.747l-2.29-7.334L77.651,147.655z"/>
<path fill="#FFFFFF" d="M91.053,137.688c0.744-1.229,1.777-2.043,3.099-2.436c0.726-0.205,1.545-0.307,2.457-0.307
	c2.662,0,5.035,0.307,7.12,0.924v3.078c-0.279-0.037-0.535-0.064-0.767-0.084c-0.233-0.018-0.508-0.041-0.824-0.07
	c-0.317-0.027-0.666-0.055-1.047-0.084c-0.382-0.027-0.759-0.051-1.131-0.068c-0.875-0.057-1.657-0.084-2.345-0.084
	c-0.689,0-1.225,0.041-1.606,0.125c-0.382,0.084-0.749,0.252-1.103,0.504c-0.353,0.252-0.614,0.631-0.782,1.135
	c-0.372,1.082-0.558,2.809-0.558,5.179s0.274,4.084,0.823,5.136c0.549,1.055,1.597,1.582,3.142,1.582
	c1.749,0,3.518-0.055,5.305-0.168l0.893-0.055v3.051c-1.675,0.523-3.835,0.783-6.477,0.783h-0.643
	c-2.494-0.018-4.277-0.913-5.347-2.688c-1.07-1.771-1.605-4.408-1.605-7.908S90.122,139.22,91.053,137.688"/>
<path fill="#FFFFFF" d="M107.555,135.925c0.465-0.279,0.926-0.475,1.382-0.588c0.456-0.111,0.819-0.168,1.089-0.168
	c0.269,0,1.614,0.033,4.034,0.098c2.42,0.066,4.226,0.184,5.417,0.352v3.246h-8.069c-0.689,0-1.117,0.168-1.285,0.504
	c-0.111,0.262-0.167,0.617-0.167,1.064v3.191l8.265,0.28v3.247l-8.265,0.253v3.19c0,0.709,0.196,1.139,0.586,1.287
	c0.28,0.113,0.661,0.168,1.145,0.168h7.79v3.221c-0.931,0.131-3.23,0.262-6.896,0.391l-1.815,0.084h-0.517
	c-0.195,0-0.451-0.014-0.768-0.041c-0.316-0.029-0.697-0.127-1.144-0.295c-0.447-0.168-0.838-0.391-1.173-0.673
	c-0.745-0.671-1.117-1.706-1.117-3.106v-12.205C106.047,137.728,106.55,136.56,107.555,135.925"/>
<path fill="#FFFFFF" d="M129.808,137.688c0.744-1.229,1.777-2.043,3.099-2.436c0.726-0.205,1.545-0.307,2.457-0.307
	c2.662,0,5.035,0.307,7.12,0.924v3.078c-0.279-0.037-0.535-0.064-0.767-0.084c-0.233-0.018-0.508-0.041-0.824-0.07
	c-0.317-0.027-0.666-0.055-1.047-0.084c-0.382-0.027-0.759-0.051-1.131-0.068c-0.875-0.057-1.657-0.084-2.345-0.084
	c-0.689,0-1.225,0.041-1.606,0.125c-0.382,0.084-0.749,0.252-1.103,0.504c-0.353,0.252-0.614,0.631-0.782,1.135
	c-0.372,1.082-0.558,2.809-0.558,5.179s0.274,4.084,0.823,5.136c0.549,1.055,1.597,1.582,3.142,1.582
	c1.749,0,3.518-0.055,5.305-0.168l0.893-0.055v3.051c-1.675,0.523-3.835,0.783-6.477,0.783h-0.643
	c-2.494-0.018-4.277-0.913-5.347-2.688c-1.07-1.771-1.605-4.408-1.605-7.908S128.876,139.22,129.808,137.688"/>
<polygon fill="#FFFFFF" points="144.885,155.661 144.885,135.169 148.794,135.169 148.794,143.96 155.802,143.96 155.802,135.169 
	159.712,135.169 159.712,155.661 155.802,155.661 155.802,147.544 148.794,147.544 148.794,155.661 "/>
<path fill="#FFFFFF" d="M161.889,155.661l6.897-20.492h4.439l6.645,20.492h-4.16l-1.452-4.535h-6.701l-1.48,4.535H161.889z
	 M168.59,147.655h4.747l-2.29-7.334L168.59,147.655z"/>
<polygon fill="#FFFFFF" points="181.434,155.661 183.221,135.169 188.665,135.169 192.072,149.167 195.451,135.169 200.867,135.169 
	202.766,155.661 198.913,155.661 197.573,141.972 194.278,155.661 189.922,155.661 186.488,141.972 185.287,155.661 "/>
<path fill="#FFFFFF" d="M205.334,155.662v-20.493h8.795c2.029,0,3.5,0.57,4.412,1.709c0.838,1.025,1.256,2.566,1.256,4.619
	c0,1.193-0.125,2.221-0.377,3.078c-0.251,0.859-0.558,1.518-0.921,1.975c-0.363,0.457-0.824,0.807-1.382,1.049
	c-0.726,0.336-1.536,0.504-2.429,0.504c-0.652,0-1.703-0.084-3.156-0.252c-1.451-0.168-2.215-0.27-2.289-0.307v8.118H205.334z
	 M213.823,138.642h-4.579v5.99h4.579c0.447,0,0.81-0.084,1.089-0.252c0.633-0.373,0.95-1.324,0.95-2.855
	C215.843,139.603,215.163,138.642,213.823,138.642"/>
<path fill="#FFFFFF" d="M219.156,155.661l6.897-20.492h4.439l6.645,20.492h-4.16l-1.452-4.535h-6.701l-1.48,4.535H219.156z
	 M225.857,147.655h4.747l-2.29-7.334L225.857,147.655z"/>
<path fill="#FFFFFF" d="M238.533,151.56c-0.279-0.961-0.46-1.922-0.544-2.883s-0.126-2.08-0.126-3.359
	c0-1.277,0.051-2.408,0.153-3.387c0.102-0.98,0.298-1.922,0.587-2.828c0.288-0.904,0.684-1.656,1.186-2.254
	c1.061-1.268,2.643-1.902,4.747-1.902c1.582,0,2.927,0.061,4.035,0.182c1.107,0.121,2.378,0.359,3.811,0.713v3.053
	c-0.018,0-0.172-0.02-0.46-0.057c-0.289-0.037-0.671-0.08-1.145-0.127c-0.475-0.045-0.992-0.088-1.55-0.125
	c-1.34-0.111-2.597-0.168-3.769-0.168c-1.49,0-2.476,0.5-2.96,1.498c-0.485,0.999-0.726,2.832-0.726,5.5
	c0,2.67,0.223,4.451,0.67,5.348c0.465,0.914,1.415,1.371,2.848,1.371c0.558,0,1.131-0.107,1.717-0.322
	c0.587-0.213,1.028-0.424,1.327-0.629l0.446-0.336v-3.668h-2.848v-2.49c1.099-0.449,2.718-0.672,4.859-0.672
	c0.595,0,1.228,0.018,1.898,0.055v11.591h-2.792l-1.061-1.372c-0.652,0.615-1.35,1.018-2.094,1.203
	c-2.029,0.504-3.742,0.449-5.138-0.168c-0.819-0.354-1.466-0.829-1.94-1.428C239.188,153.302,238.812,152.522,238.533,151.56"/>
<polygon fill="#FFFFFF" points="255.538,155.661 255.538,135.169 259.502,135.169 267.6,148.411 267.6,135.169 271.508,135.169 
	271.508,155.661 267.6,155.661 259.475,142.56 259.475,155.661 "/>
<path fill="#FFFFFF" d="M275.893,135.925c0.465-0.279,0.926-0.475,1.381-0.588c0.457-0.111,0.82-0.168,1.09-0.168
	s1.613,0.033,4.033,0.098c2.421,0.066,4.227,0.184,5.418,0.352v3.246h-8.069c-0.688,0-1.117,0.168-1.285,0.504
	c-0.11,0.262-0.167,0.617-0.167,1.064v3.191l8.266,0.28v3.247l-8.266,0.253v3.19c0,0.709,0.196,1.139,0.586,1.287
	c0.28,0.113,0.661,0.168,1.145,0.168h7.791v3.221c-0.932,0.131-3.23,0.262-6.896,0.391l-1.814,0.084h-0.518
	c-0.195,0-0.451-0.014-0.768-0.041c-0.316-0.029-0.697-0.127-1.145-0.295s-0.838-0.391-1.173-0.673
	c-0.745-0.671-1.117-1.706-1.117-3.106v-12.205C274.385,137.728,274.887,136.56,275.893,135.925"/>
<rect x="289.155" y="145.892" fill="#FFFFFF" width="8.767" height="3.304"/>
<path fill="#FFFFFF" d="M299.429,155.661l6.897-20.492h4.438l6.646,20.492h-4.16l-1.452-4.535h-6.701l-1.479,4.535H299.429z
	 M306.13,147.655h4.747l-2.29-7.334L306.13,147.655z"/>
<path fill="#FFFFFF" d="M328.161,135.169c1.786,0,3.117,0.459,3.992,1.372c1.062,1.084,1.592,2.753,1.592,5.011
	c0,2.633-0.55,4.377-1.647,5.236c-0.354,0.279-0.624,0.457-0.81,0.531c-0.188,0.074-0.456,0.168-0.811,0.279l3.882,8.062h-4.412
	l-3.378-7.754l-3.435-0.393v8.146h-3.91v-20.492H328.161z M323.163,144.437h4.635c0.726,0,1.242-0.187,1.55-0.561
	c0.307-0.373,0.46-1.129,0.46-2.268s-0.167-1.918-0.502-2.338s-0.838-0.629-1.508-0.629h-4.635V144.437z"/>
<path fill="#FFFFFF" d="M336.453,155.661v-20.492h8.684c4.729,0,7.092,3.443,7.092,10.33c0,4.256-1.015,7.205-3.043,8.848
	c-1.08,0.877-2.43,1.314-4.049,1.314H336.453z M348.32,145.472c0-3.396-0.54-5.496-1.62-6.299c-0.484-0.354-1.107-0.531-1.87-0.531
	h-4.468v13.521h4.468C347.156,152.163,348.32,149.933,348.32,145.472"/>
<path fill="#FFFFFF" d="M355.801,135.925c0.466-0.279,0.926-0.475,1.383-0.588c0.455-0.111,0.818-0.168,1.089-0.168
	c0.27,0,1.614,0.033,4.034,0.098c2.42,0.066,4.226,0.184,5.417,0.352v3.246h-8.069c-0.688,0-1.117,0.168-1.284,0.504
	c-0.112,0.262-0.168,0.617-0.168,1.064v3.191l8.265,0.28v3.247l-8.265,0.253v3.19c0,0.709,0.195,1.139,0.587,1.287
	c0.279,0.113,0.66,0.168,1.145,0.168h7.79v3.221c-0.931,0.131-3.229,0.262-6.896,0.391l-1.815,0.084h-0.517
	c-0.195,0-0.451-0.014-0.768-0.041c-0.316-0.029-0.698-0.127-1.145-0.295c-0.447-0.168-0.838-0.391-1.173-0.673
	c-0.745-0.671-1.117-1.706-1.117-3.106v-12.205C354.293,137.728,354.796,136.56,355.801,135.925"/>
<polygon fill="#FFFFFF" points="370.208,155.661 370.208,135.169 374.173,135.169 382.272,148.411 382.272,135.169 386.18,135.169 
	386.18,155.661 382.272,155.661 374.147,142.56 374.147,155.661 "/>
<polygon fill="#FFFFFF" points="389.139,155.661 389.139,135.169 393.104,135.169 401.202,148.411 401.202,135.169 405.111,135.169 
	405.111,155.661 401.202,155.661 393.077,142.56 393.077,155.661 "/>
<path fill="#FFFFFF" d="M409.494,135.925c0.466-0.279,0.926-0.475,1.383-0.588c0.455-0.111,0.818-0.168,1.089-0.168
	c0.27,0,1.614,0.033,4.034,0.098c2.42,0.066,4.225,0.184,5.417,0.352v3.246h-8.069c-0.688,0-1.117,0.168-1.284,0.504
	c-0.112,0.262-0.168,0.617-0.168,1.064v3.191l8.265,0.28v3.247l-8.265,0.253v3.19c0,0.709,0.195,1.139,0.587,1.287
	c0.279,0.113,0.659,0.168,1.145,0.168h7.79v3.221c-0.931,0.131-3.229,0.262-6.896,0.391l-1.815,0.084h-0.517
	c-0.195,0-0.451-0.014-0.768-0.041c-0.316-0.029-0.698-0.127-1.145-0.295c-0.447-0.168-0.838-0.391-1.174-0.673
	c-0.744-0.671-1.116-1.706-1.116-3.106v-12.205C407.986,137.728,408.489,136.56,409.494,135.925"/>
<path fill="#FFFFFF" d="M430.881,151.687v-16.518h3.909v15.426c0,0.709,0.194,1.139,0.586,1.287
	c0.278,0.113,0.661,0.168,1.146,0.168h7.007v3.611h-8.403C432.295,155.661,430.881,154.337,430.881,151.687"/>
<path fill="#FFFFFF" d="M445.22,150.595c-0.14-0.652-0.247-1.399-0.321-2.24c-0.074-0.84-0.111-1.852-0.111-3.037
	s0.069-2.305,0.209-3.359c0.14-1.054,0.33-1.949,0.572-2.688c0.242-0.736,0.567-1.366,0.978-1.889
	c0.409-0.523,0.823-0.934,1.242-1.232s0.936-0.531,1.55-0.699c0.968-0.281,1.987-0.419,3.058-0.419s1.852,0.017,2.346,0.054
	c0.491,0.039,1.014,0.117,1.563,0.238c0.549,0.122,1.019,0.295,1.41,0.518c0.391,0.225,0.786,0.51,1.186,0.854
	c0.4,0.345,0.731,0.784,0.992,1.315c0.26,0.531,0.493,1.145,0.698,1.834c0.409,1.381,0.614,2.996,0.614,4.844s-0.07,3.27-0.21,4.268
	c-0.14,1-0.321,1.857-0.544,2.576c-0.224,0.719-0.526,1.334-0.908,1.848s-0.781,0.924-1.2,1.233
	c-0.419,0.306-0.927,0.544-1.521,0.712c-1.378,0.41-3.193,0.541-5.445,0.393c-1.154-0.057-1.992-0.195-2.513-0.42
	c-0.521-0.225-0.973-0.463-1.354-0.715s-0.702-0.559-0.963-0.924c-0.261-0.363-0.513-0.801-0.754-1.314
	C445.55,151.831,445.36,151.249,445.22,150.595 M449.003,141.343c-0.094,0.494-0.168,1.088-0.224,1.777
	c-0.056,0.691-0.084,1.559-0.084,2.604s0.036,1.936,0.112,2.674c0.074,0.736,0.199,1.367,0.377,1.889
	c0.177,0.523,0.441,0.916,0.796,1.176c0.632,0.467,1.638,0.701,3.016,0.701c1.303,0,2.279-0.242,2.932-0.729
	c0.911-0.689,1.368-2.65,1.368-5.879c0-2.184-0.117-3.629-0.35-4.34c-0.232-0.709-0.446-1.213-0.642-1.512
	c-0.195-0.297-0.471-0.531-0.824-0.699c-0.577-0.242-1.256-0.363-2.039-0.363c-0.781,0-1.325,0.014-1.633,0.041
	c-0.307,0.027-0.633,0.09-0.977,0.182c-0.345,0.094-0.614,0.238-0.81,0.434c-0.196,0.197-0.392,0.463-0.587,0.799
	S449.096,140.849,449.003,141.343"/>
<path fill="#FFFFFF" d="M472.486,135.169c1.786,0,3.117,0.459,3.992,1.372c1.062,1.084,1.592,2.753,1.592,5.011
	c0,2.633-0.55,4.377-1.647,5.236c-0.354,0.279-0.624,0.457-0.81,0.531c-0.187,0.074-0.456,0.168-0.81,0.279l3.881,8.062h-4.412
	l-3.378-7.754l-3.435-0.393v8.146h-3.91v-20.492H472.486z M467.488,144.437h4.635c0.726,0,1.242-0.187,1.55-0.561
	c0.307-0.373,0.46-1.129,0.46-2.268s-0.167-1.918-0.502-2.338s-0.838-0.629-1.508-0.629h-4.635V144.437z"/>
<path fill="#FFFFFF" d="M489.434,135.169c1.786,0,3.117,0.459,3.992,1.372c1.062,1.084,1.592,2.753,1.592,5.011
	c0,2.633-0.55,4.377-1.647,5.236c-0.354,0.279-0.624,0.457-0.81,0.531c-0.188,0.074-0.456,0.168-0.811,0.279l3.882,8.062h-4.412
	l-3.378-7.754l-3.435-0.393v8.146h-3.91v-20.492H489.434z M484.436,144.437h4.635c0.726,0,1.242-0.187,1.55-0.561
	c0.307-0.373,0.46-1.129,0.46-2.268s-0.167-1.918-0.502-2.338s-0.838-0.629-1.508-0.629h-4.635V144.437z"/>
<path fill="#FFFFFF" d="M496.972,155.661l6.896-20.492h4.439l6.646,20.492h-4.16l-1.452-4.535h-6.701l-1.479,4.535H496.972z
	 M503.673,147.655h4.747l-2.29-7.334L503.673,147.655z"/>
<rect x="517.047" y="135.169" fill="#FFFFFF" width="3.909" height="20.492"/>
<polygon fill="#FFFFFF" points="523.888,155.661 523.888,135.169 527.853,135.169 535.952,148.411 535.952,135.169 539.86,135.169 
	539.86,155.661 535.952,155.661 527.827,142.56 527.827,155.661 "/>
<path fill="#FFFFFF" d="M544.243,135.925c0.466-0.279,0.926-0.475,1.383-0.588c0.455-0.111,0.818-0.168,1.089-0.168
	c0.27,0,1.614,0.033,4.034,0.098c2.42,0.066,4.226,0.184,5.417,0.352v3.246h-8.069c-0.688,0-1.117,0.168-1.284,0.504
	c-0.112,0.262-0.168,0.617-0.168,1.064v3.191l8.265,0.28v3.247l-8.265,0.253v3.19c0,0.709,0.195,1.139,0.587,1.287
	c0.279,0.113,0.66,0.168,1.145,0.168h7.79v3.221c-0.931,0.131-3.229,0.262-6.896,0.391l-1.815,0.084h-0.517
	c-0.195,0-0.451-0.014-0.768-0.041c-0.316-0.029-0.698-0.127-1.145-0.295c-0.447-0.168-0.838-0.391-1.173-0.673
	c-0.745-0.671-1.117-1.706-1.117-3.106v-12.205C542.735,137.728,543.238,136.56,544.243,135.925"/>
<path fill="#FFFFFF" d="M20.7,62.862v-0.25c0-24.869,19.375-45.239,45.875-45.239c15.75,0,25.25,4.249,34.375,11.997L88.825,43.991
	c-6.75-5.623-12.75-8.872-22.875-8.872c-14,0-25.125,12.371-25.125,27.243v0.25c0,15.996,11,27.743,26.5,27.743
	c7,0,13.25-1.749,18.125-5.248V72.61H66.075V55.988h38v37.991c-9,7.623-21.375,13.872-37.375,13.872
	C39.45,107.852,20.7,88.731,20.7,62.862"/>
<path fill="#FFFFFF" d="M114.324,39.368h19v13.497c3.875-9.248,10.125-15.247,21.375-14.747v19.871h-1
	c-12.625,0-20.375,7.623-20.375,23.619v24.744h-19V39.368z"/>
<path fill="#FFFFFF" d="M153.181,87.106v-0.25c0-14.622,11.125-21.37,27-21.37c6.75,0,11.625,1.125,16.375,2.749v-1.124
	c0-7.873-4.875-12.247-14.375-12.247c-7.25,0-12.375,1.374-18.5,3.624l-4.75-14.497c7.375-3.249,14.625-5.373,26-5.373
	c10.375,0,17.875,2.749,22.625,7.498c5,4.999,7.25,12.372,7.25,21.369v38.866h-18.375v-7.248c-4.625,5.124-11,8.498-20.25,8.498
	C163.556,107.602,153.181,100.354,153.181,87.106 M196.806,82.732v-3.375c-3.25-1.499-7.5-2.499-12.125-2.499
	c-8.125,0-13.125,3.249-13.125,9.248v0.25c0,5.124,4.25,8.123,10.375,8.123C190.806,94.479,196.806,89.605,196.806,82.732"/>
<path fill="#FFFFFF" d="M224.93,39.368h19v9.498c4.375-5.623,10-10.748,19.625-10.748c14.375,0,22.75,9.498,22.75,24.87v43.364h-19
	V68.986c0-8.998-4.25-13.622-11.5-13.622s-11.875,4.624-11.875,13.622v37.366h-19V39.368z"/>
<path fill="#FFFFFF" d="M293.553,72.985v-0.25c0-22.37,14.625-34.617,30.5-34.617c10.125,0,16.375,4.624,20.875,9.998V15.124h19
	v91.228h-19v-9.623c-4.625,6.25-11,10.873-20.875,10.873C308.428,107.602,293.553,95.354,293.553,72.985 M345.178,72.985v-0.25
	c0-11.123-7.375-18.496-16.25-18.496s-16.375,7.248-16.375,18.496v0.25c0,11.122,7.5,18.496,16.375,18.496
	S345.178,84.107,345.178,72.985"/>
<path fill="#FFFFFF" d="M456.677,96.613l8.125-12.498c7.25,5.248,14.875,7.998,21.125,7.998c5.5,0,8-2,8-4.999v-0.25
	c0-4.124-6.5-5.499-13.875-7.749c-9.375-2.748-20-7.123-20-20.121v-0.25c0-13.621,11-21.245,24.5-21.245c8.5,0,17.75,2.874,25,7.749
	l-7.25,13.121c-6.625-3.873-13.25-6.248-18.125-6.248c-4.625,0-7,2-7,4.624v0.25c0,3.749,6.375,5.499,13.625,7.999
	c9.375,3.124,20.25,7.623,20.25,19.871v0.25c0,14.871-11.125,21.621-25.625,21.621C476.052,106.736,465.552,103.611,456.677,96.613"
	/>
<path fill="#FFFFFF" d="M520.3,86.49V54.746h-8V38.498h8V21.377h19v17.121h15.75v16.248H539.3v28.619
	c0,4.374,1.875,6.498,6.125,6.498c3.5,0,6.625-0.874,9.375-2.374v15.247c-4,2.375-8.625,3.875-15,3.875
	C528.175,106.611,520.3,101.986,520.3,86.49"/>
<rect x="413.562" y="88.364" fill="#FFFFFF" width="34.197" height="17.123"/>
<rect x="414.114" y="52.916" fill="#FFFFFF" width="34.196" height="17.121"/>
<rect x="414.114" y="18.002" fill="#FFFFFF" width="34.196" height="17.122"/>
<rect x="387.977" y="18.002" fill="#FFFFFF" width="19.259" height="87.484"/>
<rect x="20.244" y="117.33" fill="#90D2F5" width="178.709" height="7.086"/>
<rect x="198.956" y="117.33" fill="#B5D22A" width="178.712" height="7.086"/>
<rect x="377.667" y="117.33" fill="#FCDC00" width="178.709" height="7.086"/>
</svg>
