<?xml version="1.0" encoding="UTF-8" standalone="no"?>
<svg
   xmlns:dc="http://purl.org/dc/elements/1.1/"
   xmlns:cc="http://creativecommons.org/ns#"
   xmlns:rdf="http://www.w3.org/1999/02/22-rdf-syntax-ns#"
   xmlns:svg="http://www.w3.org/2000/svg"
   xmlns="http://www.w3.org/2000/svg"
   id="svg2"
   version="1.1"
   x="0"
   y="0"
   width="400"
   height="500"
   viewBox="30.5 31.5 400 500"
   enable-background="new 30.5 31.5 412 533"
   xml:space="preserve"><metadata
     id="metadata4"><rdf:RDF><cc:Work
         rdf:about=""><dc:format>
          
          
          
          
          image/svg+xml
        
        
        
        
        </dc:format><dc:type
           rdf:resource="http://purl.org/dc/dcmitype/StillImage" /><dc:title></dc:title></cc:Work></rdf:RDF></metadata><defs
     id="defs6" /><path
     style="fill:#e00e00"
     d="M 230.45,531.13 C 156.13,477.21 105.19,409.11 74.71,322.97 47.07,244.87 35.98,150.22 40.8,33.62 l 0.02,-0.46 379.82,0 0.02,0.46 c 4.81,116.6 -6.28,211.24 -33.91,289.35 -30.48,86.14 -81.42,154.24 -155.74,208.16 l -0.28,0.2 -0.28,-0.2 z"
     id="path4148" /><path
     id="path10"
     d="M 419.96,33.21 C 429.03,252.66 383.71,419.16 230.51,530.31 146.04,469.02 94.36,390.9 66.52,296.34 64.43,289.25 62.48,282.07 60.65,274.8 49.2,229.11 42.88,179.78 40.77,126.86 39.57,96.8 39.72,65.58 41.06,33.21 l 189.45,0 189.45,0 m 0.92,-0.95 -0.92,0 -189.45,0 -189.45,0 -0.92,0 -0.04,0.92 c -4.82,116.66 6.28,211.36 33.93,289.52 30.51,86.24 81.51,154.41 155.91,208.39 l 0.56,0.41 0.56,-0.41 C 305.46,477.11 356.46,408.94 386.97,322.7 414.62,244.54 425.72,149.84 420.9,33.18 l -0.04,-0.92 0,0 z" /><path
     id="path4392"
     d="m 188.63849,323.42306 c 1.38619,-2.83307 1.60951,-5.78769 1.58531,-8.61197 -0.0396,-4.62381 -4.83267,-10.70336 -11.54771,-10.68576 -6.05932,0.0159 -9.69295,4.1876 -11.11156,7.64219 -1.1522,2.80562 -1.18811,7.3396 0.0935,9.51634 -2.36804,-1.37908 -4.65877,-1.71141 -7.54154,-1.39008 -4.27876,0.47695 -10.32255,4.44736 -10.32255,12.31228 0,7.86492 6.04379,11.83533 10.32255,12.31228 2.88277,0.32134 5.1735,-0.011 7.54154,-1.39007 -1.2816,2.17675 -1.24569,6.71071 -0.0935,9.51633 1.41861,3.4546 5.05224,7.62629 11.11156,7.64219 6.71506,0.0176 11.50811,-6.06195 11.54771,-10.68576 0.0242,-2.82428 -0.19912,-5.7789 -1.58531,-8.61197 l 33.15551,-0.077 -0.077,33.1555 c -2.83308,-1.3862 -5.78769,-1.60951 -8.61197,-1.58531 -4.62381,0.0396 -10.70336,4.83266 -10.68576,11.5477 0.0159,6.05933 4.18759,9.69296 7.64219,11.11156 2.80562,1.1522 7.33958,1.1881 9.51633,-0.0935 -1.37907,2.36804 -1.71141,4.65877 -1.39007,7.54155 0.47694,4.27876 4.44735,10.32255 12.31227,10.32255 7.86493,0 11.83533,-6.04379 12.31228,-10.32255 0.32134,-2.88278 -0.011,-5.17351 -1.39007,-7.54155 2.17674,1.2816 6.71071,1.2457 9.51633,0.0935 3.45459,-1.4186 7.6263,-5.05223 7.64219,-11.11156 0.0176,-6.71504 -6.06195,-11.50813 -10.68576,-11.5477 -2.82428,-0.0242 -5.7789,0.19911 -8.61197,1.58531 l -0.077,-33.1555 33.1555,0.077 c -1.38619,2.83307 -1.60951,5.78769 -1.5853,8.61197 0.0396,4.62381 4.83265,10.70336 11.54771,10.68576 6.05932,-0.0159 9.69295,-4.18759 11.11155,-7.64219 1.15219,-2.80562 1.18811,-7.33958 -0.0935,-9.51633 2.36806,1.37907 4.65878,1.71141 7.54156,1.39007 4.27875,-0.47695 10.32254,-4.44736 10.32254,-12.31228 0,-7.86492 -6.04379,-11.83533 -10.32254,-12.31228 -2.88279,-0.32133 -5.17351,0.011 -7.54156,1.39008 1.28161,-2.17674 1.2457,-6.71072 0.0935,-9.51634 -1.41861,-3.45459 -5.05224,-7.6263 -11.11155,-7.64219 -6.71504,-0.0176 -11.50813,6.06195 -11.54771,10.68576 -0.0242,2.82428 0.19911,5.7789 1.5853,8.61197 l -33.1555,0.077 0.077,-33.1555 c 2.83307,1.38619 5.78769,1.60951 8.61197,1.58531 4.62381,-0.0396 10.70336,-4.83267 10.68576,-11.54771 -0.0159,-6.05932 -4.1876,-9.69295 -7.64219,-11.11156 -2.80562,-1.1522 -7.3396,-1.18811 -9.51634,0.0935 1.37908,-2.36804 1.71141,-4.65877 1.39008,-7.54155 C 242.33532,257.54379 238.36491,251.5 230.49999,251.5 c -7.86492,0 -11.83533,6.04379 -12.31228,10.32255 -0.32134,2.88277 0.011,5.1735 1.39007,7.54155 -2.17675,-1.2816 -6.7107,-1.24569 -9.51633,-0.0935 -3.45459,1.4186 -7.62629,5.05224 -7.64219,11.11156 -0.0176,6.71505 6.06195,11.50811 10.68576,11.54771 2.82428,0.0242 5.7789,-0.19912 8.61197,-1.58531 l 0.077,33.1555 z"
     style="fill:#ffe000;fill-opacity:1;fill-rule:evenodd;stroke:#000000;stroke-width:1px;stroke-linecap:butt;stroke-linejoin:round;stroke-opacity:1" /><path
     style="fill:#ffe000;fill-opacity:1;fill-rule:evenodd;stroke:#000000;stroke-width:1px;stroke-linecap:butt;stroke-linejoin:round;stroke-opacity:1"
     d="m 283.6385,166.42306 c 1.38619,-2.83307 1.60951,-5.78769 1.58531,-8.61197 -0.0396,-4.62381 -4.83267,-10.70336 -11.54771,-10.68576 -6.05932,0.0159 -9.69295,4.1876 -11.11156,7.64219 -1.1522,2.80562 -1.18811,7.3396 0.0935,9.51634 -2.36804,-1.37908 -4.65877,-1.71141 -7.54154,-1.39008 -4.27876,0.47695 -10.32255,4.44736 -10.32255,12.31228 0,7.86492 6.04379,11.83533 10.32255,12.31228 2.88277,0.32134 5.1735,-0.011 7.54154,-1.39007 -1.2816,2.17675 -1.24569,6.71071 -0.0935,9.51633 1.41861,3.4546 5.05224,7.62629 11.11156,7.64219 6.71506,0.0176 11.50811,-6.06195 11.54771,-10.68576 0.0242,-2.82428 -0.19912,-5.7789 -1.58531,-8.61197 l 33.15551,-0.077 -0.077,33.1555 c -2.83308,-1.3862 -5.78769,-1.60951 -8.61197,-1.58531 -4.62381,0.0396 -10.70336,4.83266 -10.68576,11.5477 0.0159,6.05933 4.18759,9.69296 7.64219,11.11156 2.80562,1.1522 7.33958,1.1881 9.51633,-0.0935 -1.37907,2.36804 -1.71141,4.65877 -1.39007,7.54155 0.47694,4.27876 4.44735,10.32255 12.31227,10.32255 7.86493,0 11.83533,-6.04379 12.31228,-10.32255 0.32134,-2.88278 -0.011,-5.17351 -1.39007,-7.54155 2.17674,1.2816 6.71071,1.2457 9.51633,0.0935 3.45459,-1.4186 7.6263,-5.05223 7.64219,-11.11156 0.0176,-6.71504 -6.06195,-11.50813 -10.68576,-11.5477 -2.82428,-0.0242 -5.7789,0.19911 -8.61197,1.58531 l -0.077,-33.1555 33.1555,0.077 c -1.38619,2.83307 -1.60951,5.78769 -1.5853,8.61197 0.0396,4.62381 4.83265,10.70336 11.54771,10.68576 6.05932,-0.0159 9.69295,-4.18759 11.11155,-7.64219 1.15219,-2.80562 1.18811,-7.33958 -0.0935,-9.51633 2.36806,1.37907 4.65878,1.71141 7.54156,1.39007 4.27875,-0.47695 10.32254,-4.44736 10.32254,-12.31228 0,-7.86492 -6.04379,-11.83533 -10.32254,-12.31228 -2.88279,-0.32133 -5.17351,0.011 -7.54156,1.39008 1.28161,-2.17674 1.2457,-6.71072 0.0935,-9.51634 -1.41861,-3.45459 -5.05224,-7.6263 -11.11155,-7.64219 -6.71504,-0.0176 -11.50813,6.06195 -11.54771,10.68576 -0.0242,2.82428 0.19911,5.7789 1.5853,8.61197 l -33.1555,0.077 0.077,-33.1555 c 2.83307,1.38619 5.78769,1.60951 8.61197,1.58531 4.62381,-0.0396 10.70336,-4.83267 10.68576,-11.54771 -0.0159,-6.05932 -4.1876,-9.69295 -7.64219,-11.11156 -2.80562,-1.1522 -7.3396,-1.18811 -9.51634,0.0935 1.37908,-2.36804 1.71141,-4.65877 1.39008,-7.54155 C 337.33533,100.54379 333.36492,94.5 325.5,94.5 c -7.86492,0 -11.83533,6.04379 -12.31228,10.32255 -0.32134,2.88277 0.011,5.1735 1.39007,7.54155 -2.17675,-1.2816 -6.7107,-1.24569 -9.51633,-0.0935 -3.45459,1.4186 -7.62629,5.05224 -7.64219,11.11156 -0.0176,6.71505 6.06195,11.50811 10.68576,11.54771 2.82428,0.0242 5.7789,-0.19912 8.61197,-1.58531 l 0.077,33.1555 z"
     id="path4396" /><path
     id="path4398"
     d="m 93.6385,166.42306 c 1.38619,-2.83307 1.60951,-5.78769 1.58531,-8.61197 -0.0396,-4.62381 -4.83267,-10.70336 -11.54771,-10.68576 -6.05932,0.0159 -9.69295,4.1876 -11.11156,7.64219 -1.1522,2.80562 -1.18811,7.3396 0.0935,9.51634 -2.36804,-1.37908 -4.65877,-1.71141 -7.54154,-1.39008 -4.27876,0.47695 -10.32255,4.44736 -10.32255,12.31228 0,7.86492 6.04379,11.83533 10.32255,12.31228 2.88277,0.32134 5.1735,-0.011 7.54154,-1.39007 -1.2816,2.17675 -1.24569,6.71071 -0.0935,9.51633 1.41861,3.4546 5.05224,7.62629 11.11156,7.64219 6.71506,0.0176 11.50811,-6.06195 11.54771,-10.68576 0.0242,-2.82428 -0.19912,-5.7789 -1.58531,-8.61197 l 33.15551,-0.077 -0.077,33.1555 c -2.83308,-1.3862 -5.78769,-1.60951 -8.61197,-1.58531 -4.62381,0.0396 -10.70336,4.83266 -10.68576,11.5477 0.0159,6.05933 4.18759,9.69296 7.64219,11.11156 2.80562,1.1522 7.33958,1.1881 9.51633,-0.0935 -1.37907,2.36804 -1.71141,4.65877 -1.39007,7.54155 0.47694,4.27876 4.44735,10.32255 12.31227,10.32255 7.86493,0 11.83533,-6.04379 12.31228,-10.32255 0.32134,-2.88278 -0.011,-5.17351 -1.39007,-7.54155 2.17674,1.2816 6.71071,1.2457 9.51633,0.0935 3.45459,-1.4186 7.6263,-5.05223 7.64219,-11.11156 0.0176,-6.71504 -6.06195,-11.50813 -10.68576,-11.5477 -2.82428,-0.0242 -5.7789,0.19911 -8.61197,1.58531 l -0.077,-33.1555 33.1555,0.077 c -1.38619,2.83307 -1.60951,5.78769 -1.5853,8.61197 0.0396,4.62381 4.83265,10.70336 11.54771,10.68576 6.05932,-0.0159 9.69295,-4.18759 11.11155,-7.64219 1.15219,-2.80562 1.18811,-7.33958 -0.0935,-9.51633 2.36806,1.37907 4.65878,1.71141 7.54156,1.39007 4.27875,-0.47695 10.32254,-4.44736 10.32254,-12.31228 0,-7.86492 -6.04379,-11.83533 -10.32254,-12.31228 -2.88279,-0.32133 -5.17351,0.011 -7.54156,1.39008 1.28161,-2.17674 1.2457,-6.71072 0.0935,-9.51634 -1.41861,-3.45459 -5.05224,-7.6263 -11.11155,-7.64219 -6.71504,-0.0176 -11.50813,6.06195 -11.54771,10.68576 -0.0242,2.82428 0.19911,5.7789 1.5853,8.61197 l -33.1555,0.077 0.077,-33.1555 c 2.83307,1.38619 5.78769,1.60951 8.61197,1.58531 4.62381,-0.0396 10.70336,-4.83267 10.68576,-11.54771 -0.0159,-6.05932 -4.1876,-9.69295 -7.64219,-11.11156 -2.80562,-1.1522 -7.3396,-1.18811 -9.51634,0.0935 1.37908,-2.36804 1.71141,-4.65877 1.39008,-7.54155 C 147.33533,100.54379 143.36492,94.5 135.5,94.5 c -7.86492,0 -11.83533,6.04379 -12.31228,10.32255 -0.32134,2.88277 0.011,5.1735 1.39007,7.54155 -2.17675,-1.2816 -6.7107,-1.24569 -9.51633,-0.0935 -3.45459,1.4186 -7.62629,5.05224 -7.64219,11.11156 -0.0176,6.71505 6.06195,11.50811 10.68576,11.54771 2.82428,0.0242 5.7789,-0.19912 8.61197,-1.58531 l 0.077,33.1555 z"
     style="fill:#ffe000;fill-opacity:1;fill-rule:evenodd;stroke:#000000;stroke-width:1px;stroke-linecap:butt;stroke-linejoin:round;stroke-opacity:1" /></svg>