<svg xmlns:dc="http://purl.org/dc/elements/1.1/" xmlns:cc="http://creativecommons.org/ns#" xmlns:rdf="http://www.w3.org/1999/02/22-rdf-syntax-ns#" xmlns:svg="http://www.w3.org/2000/svg" xmlns="http://www.w3.org/2000/svg" id="svg2" version="1.1" x="0" y="0" width="400" height="500" viewBox="30.5 31.5 400 500" enable-background="new 30.5 31.5 412 533" xml:space="preserve">
  <metadata id="metadata4">
    <rdf:RDF>
      <cc:Work rdf:about="">
        <dc:format>
          
          
          
          
          
          
          
          
          image/svg+xml
        
        
        
        
        
        
        
        
        </dc:format>
        <dc:type rdf:resource="http://purl.org/dc/dcmitype/StillImage"/>
      </cc:Work>
    </rdf:RDF>
  </metadata>
  <defs id="defs6"/>
  <path d="M230.55 531.13C304.87 477.21 355.81 409.11 386.29 322.97 413.93 244.87 425.02 150.22 420.2 33.62l-0.02-0.46-379.82 0-0.02 0.46c-4.81 116.6 6.28 211.24 33.91 289.35C104.73 409.11 155.67 477.21 229.99 531.13l0.28 0.2 0.28-0.2z" id="path4148" fill="#0085ca"/>
  <path id="path10" d="m41.04 33.21c-9.07 219.45 36.25 385.95 189.45 497.1 84.47-61.29 136.15-139.41 163.99-233.97 2.09-7.09 4.04-14.27 5.87-21.54 11.45-45.69 17.77-95.02 19.88-147.94 1.2-30.06 1.05-61.28-0.29-93.65l-189.45 0-189.45 0m-0.92-0.95 0.92 0 189.45 0 189.45 0 0.92 0 0.04 0.92c4.82 116.66-6.28 211.36-33.93 289.52-30.51 86.24-81.51 154.41-155.91 208.39l-0.56 0.41-0.56-0.41C155.54 477.11 104.54 408.94 74.03 322.7c-27.65-78.16-38.75-172.86-33.93-289.52l0.04-0.92 0 0z"/>
  <path id="path4148-8" d="m230.33 531.17c74.32-53.92 125.26-122.02 155.74-208.16 27.64-78.1 38.73-172.75 33.91-289.35l-0.02-0.46-379.82 0-0.02 0.46c-4.81 116.6 6.28 211.24 33.91 289.35 30.48 86.14 81.42 154.24 155.74 208.16l0.28 0.2 0.28-0.2z" fill="#0085ca"/>
  <path id="path4251" d="M420.81 91.4C421.38 73.04 420.81 53.3 419.94 33.21l-58.53-0.52c2.23 14.47-8.37 26.81-22.71 26.37 2.62 14.48-7.99 26.82-22.71 26.37 2.23 14.47-8.37 26.81-23.1 26.36 2.23 14.47-8.37 26.81-23.1 26.36 2.23 14.47-8.37 26.81-22.71 26.37 4.49 11.97-3.8 25.53-16.56 25.53-12.76 0-21.06-13.56-16.56-25.53-14.34 0.44-24.94-11.9-22.71-26.37C176.49 138.6 165.89 126.26 168.12 111.79 153.39 112.23 142.79 99.9 145.01 85.43 130.29 85.87 119.68 73.54 122.3 59.06 107.96 59.5 97.36 47.16 99.59 32.69l-58.76 0.56c-0.95 20.39-2.21 41.04-1.22 59.19 1.51-0.12 3.5 0 3.8 0.01 12.24 0.46 20.05 13.83 15.66 25.52 14.34-0.44 24.94 11.9 22.71 26.37 14.73-0.45 25.33 11.89 23.1 26.36 14.73-0.45 25.33 11.89 23.1 26.36 14.73-0.45 25.33 11.89 22.71 26.37 14.34-0.44 24.94 11.9 22.71 26.37 24.54-0.47 26.82 28.9 11.08 37.04 11.49 8.4 12.5 26.74 0 34.47 11.49 8.4 12.5 26.74 0 34.47 11.49 8.4 12.5 26.74 0 34.47 11.49 8.4 12.5 26.74 0 34.47 11.49 8.4 12.5 26.74 0 34.47 11.49 8.4 12.5 26.74 0 34.47 15 13.01 30.27 25.54 45.83 37.53 15.68-12.15 31.3-24.4 46.17-37.97-12.5-7.74-11.49-26.1 0-34.51-12.5-7.74-11.49-26.1 0-34.51-12.5-7.74-11.49-26.1 0-34.51-12.5-7.74-11.49-26.1 0-34.51-12.5-7.74-11.49-26.1 0-34.51-12.5-7.74-11.49-26.1 0-34.51-15.74-8.15-13.46-37.56 11.08-37.08-2.23-14.49 8.37-26.84 22.71-26.4-2.62-14.49 7.99-26.85 22.71-26.4-2.23-14.49 8.37-26.84 23.1-26.39-2.23-14.49 8.37-26.84 23.1-26.39-2.23-14.49 8.37-26.84 22.71-26.4-4.38-11.7 3.47-24.25 15.65-25.55" style="fill-rule:evenodd;fill:#fff"/>
  <path d="m40.82 33.25c-9.07 219.45 36.25 385.95 189.45 497.1 84.47-61.29 136.15-139.41 163.99-233.97 2.09-7.09 4.04-14.27 5.87-21.54 11.45-45.69 17.77-95.02 19.88-147.94 1.2-30.06 1.05-61.28-0.29-93.65l-189.45 0-189.45 0m-0.92-0.95 0.92 0 189.45 0 189.45 0 0.92 0 0.04 0.92c4.82 116.66-6.28 211.36-33.93 289.52-30.51 86.24-81.51 154.41-155.91 208.39l-0.56 0.41-0.56-0.41c-74.4-53.98-125.4-122.15-155.91-208.39-27.65-78.16-38.75-172.86-33.93-289.52l0.04-0.92 0 0z" id="path10-3"/>
  <path d="m361.41 32.69c2.23 14.47-8.37 26.81-22.71 26.37 2.62 14.48-7.99 26.82-22.71 26.37 2.23 14.47-8.37 26.81-23.1 26.36 2.23 14.47-8.37 26.81-23.1 26.36 2.23 14.47-8.37 26.81-22.71 26.37 4.49 11.97-3.8 25.53-16.56 25.53-12.76 0-21.06-13.56-16.56-25.53-14.34 0.44-24.94-11.9-22.71-26.37C176.49 138.6 165.89 126.26 168.12 111.79 153.39 112.23 142.79 99.9 145.01 85.43 130.29 85.87 119.68 73.54 122.3 59.06 107.96 59.5 97.36 47.16 99.59 32.69m-59.92 59.75c1.51-0.12 3.45 0 3.75 0.01 12.24 0.46 20.05 13.83 15.66 25.52 14.34-0.44 24.94 11.9 22.71 26.37 14.73-0.45 25.33 11.89 23.1 26.36 14.73-0.45 25.33 11.89 23.1 26.36 14.73-0.45 25.33 11.89 22.71 26.37 14.34-0.44 24.94 11.9 22.71 26.37 24.54-0.47 26.82 28.9 11.08 37.04 11.49 8.4 12.5 26.74 0 34.47 11.49 8.4 12.5 26.74 0 34.47 11.49 8.4 12.5 26.74 0 34.47 11.49 8.4 12.5 26.74 0 34.47 11.49 8.4 12.5 26.74 0 34.47 11.49 8.4 12.5 26.74 0 34.47m92-0.45c-12.5-7.74-11.49-26.1 0-34.51-12.5-7.74-11.49-26.1 0-34.51-12.5-7.74-11.49-26.1 0-34.51-12.5-7.74-11.49-26.1 0-34.51-12.5-7.74-11.49-26.1 0-34.51-12.5-7.74-11.49-26.1 0-34.51-15.74-8.15-13.46-37.56 11.08-37.08-2.23-14.49 8.37-26.84 22.71-26.4-2.62-14.49 7.99-26.85 22.71-26.4-2.23-14.49 8.37-26.84 23.1-26.39-2.23-14.49 8.37-26.84 23.1-26.39-2.23-14.49 8.37-26.84 22.71-26.4-4.38-11.7 3.47-24.25 15.65-25.55 0.63-0.07 2.78-0.35 4.13-0.01" id="path4241" style="fill:none;stroke-width:1.01;stroke:#000"/>
</svg>
