<?xml version="1.0" encoding="UTF-8" standalone="no"?>
<svg
   xmlns:dc="http://purl.org/dc/elements/1.1/"
   xmlns:cc="http://creativecommons.org/ns#"
   xmlns:rdf="http://www.w3.org/1999/02/22-rdf-syntax-ns#"
   xmlns:svg="http://www.w3.org/2000/svg"
   xmlns="http://www.w3.org/2000/svg"
   id="svg2"
   version="1.1"
   x="0"
   y="0"
   width="400"
   height="500"
   viewBox="30.5 31.5 400 500"
   enable-background="new 30.5 31.5 412 533"
   xml:space="preserve"><metadata
     id="metadata4"><rdf:RDF><cc:Work
         rdf:about=""><dc:format>
          
          
          
          image/svg+xml
        
        
        
        </dc:format><dc:type
           rdf:resource="http://purl.org/dc/dcmitype/StillImage" /><dc:title></dc:title></cc:Work></rdf:RDF></metadata><defs
     id="defs6" /><path
     id="path8"
     d="M 230.44,531.14 C 156.12,477.22 105.18,409.12 74.7,322.98 47.06,244.88 35.97,150.23 40.79,33.63 l 0.02,-0.46 379.82,0 0.02,0.46 c 4.81,116.6 -6.28,211.24 -33.91,289.35 C 356.26,409.12 305.32,477.22 231,531.14 l -0.28,0.2 -0.28,-0.2 z"
     style="fill:#32ac60" /><path
     id="path10"
     d="M 419.96,33.21 C 429.03,252.66 383.7,419.16 230.5,530.31 77.31,419.16 31.99,252.66 41.06,33.21 l 189.45,0 189.45,0 m 0.92,-0.95 -0.92,0 -189.45,0 -189.45,0 -0.92,0 -0.04,0.92 c -4.82,116.66 6.28,211.36 33.93,289.52 30.51,86.24 81.51,154.41 155.91,208.39 l 0.56,0.41 0.56,-0.41 C 305.46,477.11 356.46,408.94 386.97,322.7 414.62,244.54 425.72,149.84 420.9,33.18 l -0.04,-0.92 0,0 z" /><path
     id="path4385"
     d="m 195.79645,92.483009 c -0.14015,13.441151 8.86774,29.622001 27.15533,34.039091 0.67988,11.37589 -8.98461,22.12358 -16.47404,22.25633 l -73.86047,1.30919 c -4.03278,0.0715 -4.83,5.44232 -0.4364,5.78228 8.00416,0.61934 13.3638,0.36755 19.2561,0.60005 31.6965,1.25067 56.02266,5.50953 56.02266,5.50953 4.48104,0.34076 9.57413,3.57263 12.11006,8.50978 3.06797,5.97297 3.47597,19.07001 4.25489,28.80231 1.00094,12.50643 1.92666,26.32937 3.27299,40.03956 0.21161,2.15486 1.93494,4.89434 3.40243,5.45499 1.46749,-0.56065 3.19082,-3.30013 3.40243,-5.45499 1.34633,-13.71019 2.27205,-27.53313 3.27299,-40.03956 0.77892,-9.7323 1.18692,-22.82934 4.25489,-28.80231 2.53593,-4.93715 7.62902,-8.16902 12.11006,-8.50978 0,0 24.32616,-4.25886 56.02266,-5.50953 5.8923,-0.2325 11.25194,0.0193 19.2561,-0.60005 4.3936,-0.33996 3.59638,-5.71078 -0.4364,-5.78228 l -73.86047,-1.30919 c -7.48943,-0.13275 -17.15392,-10.88044 -16.47404,-22.25633 18.28759,-4.41709 27.29548,-20.59794 27.15533,-34.039091 -0.20569,-19.7263 -16.24594,-34.703552 -34.70355,-34.703552 -18.45761,0 -34.49786,14.977252 -34.70355,34.703552 z"
     style="fill:#ffe000;fill-rule:evenodd;stroke:#000000;stroke-width:1px;stroke-linecap:round;stroke-linejoin:round;stroke-opacity:1;fill-opacity:1" /><circle
     r="25.850245"
     cy="92.483009"
     cx="230.5"
     id="path4381"
     style="fill:#32ac60;fill-opacity:1;fill-rule:evenodd;stroke:#000000;stroke-width:1;stroke-linecap:round;stroke-linejoin:round;stroke-miterlimit:4;stroke-dasharray:none;stroke-opacity:1" /><path
     style="fill:#ffe000;fill-rule:evenodd;stroke:#000000;stroke-width:1px;stroke-linecap:round;stroke-linejoin:round;stroke-opacity:1;fill-opacity:1"
     d="m 149.85182,356.95569 c 8.20105,-1.33528 23.6846,-9.25116 36.40947,-20.0981 14.77677,-12.59602 27.17262,-31.10944 25.00754,-36.5941 L 154.56565,156.62108 c -2.07726,-0.14348 -4.15713,-0.16505 -6.23803,-0.19323 L 91.60511,300.26352 c -2.35563,5.97336 8.68476,23.84348 23.46153,36.4395 12.72487,10.84694 26.58413,18.91742 34.78518,20.2527"
     id="path4397" /><path
     style="fill:#32ac60;fill-rule:evenodd;stroke:#000000;stroke-width:1px;stroke-linecap:round;stroke-linejoin:round;stroke-opacity:1;fill-opacity:1"
     d="m 205.60886,302.03376 c 2.0727,0 1.23842,-1.85793 0.98145,-2.51227 L 151.55243,159.37587 96.51454,299.52149 c -0.25697,0.65434 -1.09124,2.51227 0.98146,2.51227 39.07378,-0.0722 61.17512,-0.0161 108.11286,0 z"
     id="path4409" /><path
     id="path4413"
     d="m 311.14818,356.95569 c -8.20105,-1.33528 -23.6846,-9.25116 -36.40947,-20.0981 -14.77677,-12.59602 -27.17262,-31.10944 -25.00754,-36.5941 l 56.70318,-143.64241 c 2.07726,-0.14348 4.15713,-0.16505 6.23803,-0.19323 l 56.72251,143.83567 c 2.35563,5.97336 -8.68476,23.84348 -23.46153,36.4395 -12.72487,10.84694 -26.58413,18.91742 -34.78518,20.2527"
     style="fill:#ffe000;fill-rule:evenodd;stroke:#000000;stroke-width:1px;stroke-linecap:round;stroke-linejoin:round;stroke-opacity:1;fill-opacity:1" /><path
     id="path4415"
     d="m 255.39114,302.03376 c -2.0727,0 -1.23842,-1.85793 -0.98145,-2.51227 l 55.03788,-140.14562 55.03789,140.14562 c 0.25697,0.65434 1.09124,2.51227 -0.98146,2.51227 -39.07378,-0.0722 -61.17512,-0.0161 -108.11286,0 z"
     style="fill:#32ac60;fill-rule:evenodd;stroke:#000000;stroke-width:1px;stroke-linecap:round;stroke-linejoin:round;stroke-opacity:1;fill-opacity:1" /><path
     id="path4417"
     d="m 148.60037,157.09727 0.70915,-1.99106 c 1.60687,-0.51941 3.20552,-0.98749 4.52764,0.27274 l 0.65459,2.45475 c -1.96379,0.34484 -3.92759,0.22537 -5.89138,-0.73643 z"
     style="fill:#ffe000;fill-opacity:1;fill-rule:evenodd;stroke:none;stroke-width:1px;stroke-linecap:butt;stroke-linejoin:miter;stroke-opacity:1" /><path
     style="fill:#ffe000;fill-opacity:1;fill-rule:evenodd;stroke:none;stroke-width:1px;stroke-linecap:butt;stroke-linejoin:miter;stroke-opacity:1"
     d="m 312.52236,157.39728 -0.75006,-2.12743 c -1.38878,-2.15723 -2.92118,-1.63335 -4.52764,0.27274 l -0.73641,2.37293 z"
     id="path4419" /></svg>