<?xml version="1.0" encoding="UTF-8" standalone="no"?>
<svg
   xmlns:dc="http://purl.org/dc/elements/1.1/"
   xmlns:cc="http://creativecommons.org/ns#"
   xmlns:rdf="http://www.w3.org/1999/02/22-rdf-syntax-ns#"
   xmlns:svg="http://www.w3.org/2000/svg"
   xmlns="http://www.w3.org/2000/svg"
   id="svg2"
   version="1.1"
   x="0"
   y="0"
   width="420"
   height="500"
   viewBox="30.5 31.5 420 500"
   enable-background="new 30.5 31.5 412 533"
   xml:space="preserve"><metadata
     id="metadata4"><rdf:RDF><cc:Work
         rdf:about=""><dc:format>
          
          
          
          
          image/svg+xml
        
        
        
        
        </dc:format><dc:type
           rdf:resource="http://purl.org/dc/dcmitype/StillImage" /><dc:title></dc:title></cc:Work></rdf:RDF></metadata><defs
     id="defs6" /><path
     id="path4218"
     d="m 41,32.7 c -2.09,102.46 3.38,187.49 43.93,296.59 28.05,75.48 74.21,144.77 155.57,201.59 C 321.86,474.06 368.02,404.77 396.07,329.29 436.62,220.19 442.09,135.16 440,32.7 c -133,0.29 -266,0 -399,0 z"
     style="fill:#0085ca;fill-opacity:1;fill-rule:evenodd" /><path
     style="fill:#ffffff;fill-rule:evenodd;stroke:none;stroke-width:1px;stroke-linecap:butt;stroke-linejoin:miter;stroke-opacity:1"
     d="m 421.73555,243.89774 c 5.29813,-21.83189 10.07125,-47.91615 14.60065,-84.96922 -18.41621,3.2296 -83.10949,4.50914 -104.85132,3.12591 -66.72229,-4.24492 -123.44278,-14.31179 -168.71469,-26.42041 -15.37828,-4.11314 -47.18287,-12.94659 -47.27958,-29.89681 l -0.15545,-27.244575 c 4.38337,-0.223402 7.86341,-2.736444 7.87966,-6.043082 0.0131,-2.665721 -2.58431,-5.129923 -6.01423,-5.129923 l -19.27608,0 c -2.28667,0 -5.44463,1.966556 -5.44083,5.751732 0.003,2.552051 3.24699,4.843581 6.37354,4.974468 l 0,59.7563 c 0,51.04842 24.57764,75.93887 40.87163,84.48879 57.39979,30.1193 201.41457,25.52553 282.0067,21.60682"
     id="path4723" /><path
     id="path4702"
     d="m 436.3362,158.92852 c -18.41621,3.2296 -83.10949,4.50914 -104.85132,3.12591 -66.72229,-4.24492 -123.44278,-14.31179 -168.71469,-26.42041 -15.37828,-4.11314 -47.18287,-12.94659 -47.27958,-29.89681 l -0.15545,-27.244575 c 4.38337,-0.223402 7.86341,-2.736444 7.87966,-6.043082 0.0131,-2.665721 -2.58431,-5.129923 -6.01423,-5.129923 l -19.27608,0 c -2.28667,0 -5.44463,1.966556 -5.44083,5.751732 0.003,2.552051 3.24699,4.843581 6.37354,4.974468 l 0,59.7563 c 0,51.04842 24.57764,75.93887 40.87163,84.48879 57.39979,30.1193 201.41457,25.52553 282.0067,21.60682"
     style="fill:none;fill-rule:evenodd;stroke:#000000;stroke-width:1px;stroke-linecap:butt;stroke-linejoin:miter;stroke-opacity:1" /><path
     style="fill:#ffffff;fill-rule:evenodd;stroke:none;stroke-width:1px;stroke-linecap:butt;stroke-linejoin:miter;stroke-opacity:1"
     d="m 378.83572,396.83264 c 12.83416,-22.64738 7.7762,-42.70349 18.56166,-71.56707 -86.45304,1.9043 -146.70581,-2.52818 -191.97772,-14.6368 -15.37828,-4.11314 -46.71532,-7.35563 -46.83989,-25.98247 l -0.15545,-23.24457 c 3.82486,0 7.47721,-2.06688 7.54455,-5.37288 0.0543,-2.66572 -1.76182,-5.80013 -5.67912,-5.80013 l -19.27608,0 c -2.28667,0 -5.44463,1.96656 -5.44083,5.75173 0.003,2.55205 2.91189,4.84358 6.37355,4.97447 l 0,59.7563 c 0,47.03647 40.12939,70.02226 54.53169,73.83509 28.49673,7.54415 61.62964,8.20814 166.30982,5.98967"
     id="path4700" /><path
     id="path4558"
     d="m 397.39738,325.26557 c -86.45304,1.9043 -146.70581,-2.52818 -191.97772,-14.6368 -15.37828,-4.11314 -46.71532,-7.35563 -46.83989,-25.98247 l -0.15545,-23.24457 c 3.82486,0 7.47721,-2.06688 7.54455,-5.37288 0.0543,-2.66572 -1.76182,-5.80013 -5.67912,-5.80013 l -19.27608,0 c -2.28667,0 -5.44463,1.96656 -5.44083,5.75173 0.003,2.55205 2.91189,4.84358 6.37355,4.97447 l 0,59.7563 c 0,47.03647 40.12939,70.02226 54.53169,73.83509 28.49673,7.54415 61.62964,8.20814 166.30982,5.98967"
     style="fill:none;fill-rule:evenodd;stroke:#000000;stroke-width:1px;stroke-linecap:butt;stroke-linejoin:miter;stroke-opacity:1" /><path
     d="m 41,32.7 c -2.09,102.46 3.38,187.49 43.93,296.59 28.05,75.48 74.21,144.77 155.57,201.59 C 321.86,474.06 368.02,404.77 396.07,329.29 436.62,220.19 442.09,135.16 440,32.7 c -133,0.29 -266,0 -399,0 z"
     id="path4224"
     style="fill:none;stroke:#000000" /></svg>