<svg xmlns:dc="http://purl.org/dc/elements/1.1/" xmlns:cc="http://creativecommons.org/ns#" xmlns:rdf="http://www.w3.org/1999/02/22-rdf-syntax-ns#" xmlns:svg="http://www.w3.org/2000/svg" xmlns="http://www.w3.org/2000/svg" id="svg2" version="1.1" x="0" y="0" width="400" height="500" viewBox="30.5 31.5 400 500" enable-background="new 30.5 31.5 412 533" xml:space="preserve">
  <metadata id="metadata4">
    <rdf:RDF>
      <cc:Work rdf:about="">
        <dc:format>
          
          
          
          
          image/svg+xml
        
        
        
        
        </dc:format>
        <dc:type rdf:resource="http://purl.org/dc/dcmitype/StillImage"/>
      </cc:Work>
    </rdf:RDF>
  </metadata>
  <defs id="defs6"/>
  <path d="M230.55 531.13C304.87 477.21 355.81 409.11 386.29 322.97 413.93 244.87 425.02 150.22 420.2 33.62l-0.02-0.46-379.82 0-0.02 0.46c-4.81 116.6 6.28 211.24 33.91 289.35 30.48 86.14 81.42 154.24 155.74 208.16l0.28 0.2 0.28-0.2z" id="path4148" fill="#0085ca"/>
  <path id="path10" d="m41.04 33.21c-9.07 219.45 36.25 385.95 189.45 497.1 84.47-61.29 136.15-139.41 163.99-233.97 2.09-7.09 4.04-14.27 5.87-21.54 11.45-45.69 17.77-95.02 19.88-147.94 1.2-30.06 1.05-61.28-0.29-93.65l-189.45 0-189.45 0m-0.92-0.95 0.92 0 189.45 0 189.45 0 0.92 0 0.04 0.92c4.82 116.66-6.28 211.36-33.93 289.52-30.51 86.24-81.51 154.41-155.91 208.39l-0.56 0.41-0.56-0.41C155.54 477.11 104.54 408.94 74.03 322.7 46.38 244.54 35.28 149.84 40.1 33.18l0.04-0.92 0 0z"/>
  <path id="path2829" d="m196.34 215.06c-31.01 2.67-43.51 3.93-52.84 18.68-11.89 18.74-14.7 83.13-16.31 117.67-30.04-59.06-30.16-125.68-16.99-148.91 9.33-16.55 35.99-25.42 33.93-27.41-8.6-8.66-16.03-2.72-21.33-1.12-3.24 2.29-12.51 6.53-19.88 10.32 7.47-7.98 12.02-15.08 15.06-18.08 9.74-22.6 12.33-19.3 42.11-18.8 12.38 0.2 16.31-7.98 15.62-15.65-0.59-6.68-2.12-11.68-3.79-21.15-7.27-40.71 123.35-51.08 210.57-26.75-68.13 2.91-145.6 28.02-143.96 60.43 1.89 37.38 63.09 75.73 138.85 104.34-40.88-8.1-80.49-23.95-88.36-15.78-7.47 7.78 11.56 52.82 28.17 84.52l-68.29-92.22c-1.98-2.68-40.6-11.12-52.55-10.09z" style="fill:#fff;stroke-linecap:round;stroke-linejoin:round;stroke-miterlimit:4;stroke:#000"/>
  <path id="path2833" d="m130.78 159.41a1.9 1.86 0 0 1-3.8 0 1.9 1.86 0 1 1 3.8 0z" fill="#000"/>
  <path id="path4260" d="m144.22 175.2c15.61 13.34 31.93 31.79 54.48 39.75" style="fill:none;stroke-linecap:round;stroke-miterlimit:4;stroke:#000"/>
  <path id="path4262" d="m117.87 166.42 6.05 1.87-1.18 5.64" style="fill:none;stroke-miterlimit:4;stroke:#000"/>
</svg>
