<svg xmlns:dc="http://purl.org/dc/elements/1.1/" xmlns:cc="http://creativecommons.org/ns#" xmlns:rdf="http://www.w3.org/1999/02/22-rdf-syntax-ns#" xmlns:svg="http://www.w3.org/2000/svg" xmlns="http://www.w3.org/2000/svg" xml:space="preserve" enable-background="new 30.5 31.5 412 533" viewBox="30.5 31.5 400 500" height="500" width="400" y="0" x="0" version="1.1" id="svg2">
  <metadata id="metadata4">
    <rdf:RDF>
      <cc:Work rdf:about="">
        <dc:format>
          
          
          
          image/svg+xml
        
        
        
        </dc:format>
        <dc:type rdf:resource="http://purl.org/dc/dcmitype/StillImage"/>
      </cc:Work>
    </rdf:RDF>
  </metadata>
  <defs id="defs6"/>
  <path d="M230.44 531.14C156.12 477.22 105.18 409.12 74.7 322.98 47.06 244.88 35.97 150.23 40.79 33.63l0.02-0.46 379.82 0 0.02 0.46c4.81 116.6-6.28 211.24-33.91 289.35C356.26 409.12 305.32 477.22 231 531.14l-0.28 0.2-0.28-0.2z" id="path8" fill="#0085ca"/>
  <path id="path4619" d="m212.5 64.5-27.13 5.44c-1.4 100.14-5.89 148.82-58.72 194.01-18.95 16.21-44.41 22.74-63.04 24.9 13.23 46.15 32.4 91.07 60.55 133.74 25.5 0.29 47.69-9.42 60.77-21.35C207.61 380.56 212.5 354.01 212.5 326.75Z" style="fill-rule:evenodd;fill:#fff"/>
  <path d="m248.5 64.5 27.13 5.44c1.4 100.14 5.89 148.82 58.72 194.01 18.95 16.21 44.41 22.74 63.04 24.9-13.23 46.15-32.4 91.07-60.55 133.74-25.5 0.29-47.69-9.42-60.77-21.35C253.39 380.56 248.5 354.01 248.5 326.75Z" id="path4621" style="fill-rule:evenodd;fill:#fff"/>
  <path d="m124.16 422.59c25.5 0.29 47.69-9.42 60.77-21.35C207.61 380.56 212.5 354.01 212.5 326.75L212.5 64.5 185.37 69.94c-1.4 100.14-5.89 148.82-58.72 194.01-18.95 16.21-44.41 22.74-63.04 24.9" id="path4623" style="fill:none;stroke:#000"/>
  <path id="path4625" d="M336.84 422.59C311.34 422.89 289.14 413.17 276.07 401.24 253.39 380.56 248.5 354.01 248.5 326.75l0-262.25 27.13 5.44c1.4 100.14 5.89 148.82 58.72 194.01 18.95 16.21 44.41 22.74 63.04 24.9" style="fill:none;stroke:#000"/>
  <path d="M419.96 33.21C429.03 252.66 383.7 419.16 230.5 530.31 77.31 419.16 31.99 252.66 41.06 33.21l189.45 0 189.45 0m0.92-0.95-0.92 0-189.45 0-189.45 0-0.92 0-0.04 0.92c-4.82 116.66 6.28 211.36 33.93 289.52 30.51 86.24 81.51 154.41 155.91 208.39l0.56 0.41 0.56-0.41C305.46 477.11 356.46 408.94 386.97 322.7 414.62 244.54 425.72 149.84 420.9 33.18l-0.04-0.92 0 0z" id="path10"/>
</svg>
