<svg xmlns:dc="http://purl.org/dc/elements/1.1/" xmlns:cc="http://creativecommons.org/ns#" xmlns:rdf="http://www.w3.org/1999/02/22-rdf-syntax-ns#" xmlns:svg="http://www.w3.org/2000/svg" xmlns="http://www.w3.org/2000/svg" id="svg2" version="1.1" x="0" y="0" width="400" height="500" viewBox="30.5 31.5 400 500" enable-background="new 30.5 31.5 412 533" xml:space="preserve">
  <metadata id="metadata4">
    <rdf:RDF>
      <cc:Work rdf:about="">
        <dc:format>
          
          
          
          
          image/svg+xml
        
        
        
        
        </dc:format>
        <dc:type rdf:resource="http://purl.org/dc/dcmitype/StillImage"/>
      </cc:Work>
    </rdf:RDF>
  </metadata>
  <defs id="defs6"/>
  <path id="path8" d="M230.56 531.14C304.88 477.22 355.82 409.12 386.3 322.98 413.94 244.88 425.03 150.23 420.21 33.63l-0.02-0.46-379.82 0-0.02 0.46c-4.81 116.6 6.28 211.24 33.91 289.35 30.48 86.14 81.42 154.24 155.74 208.16l0.28 0.2z" fill="#0085ca"/>
  <path id="path4321" d="m147.83 200.63c-10.83-3.76-11.61-8.34-17.51-11.68-9.44-5.36-20.63-7.97-29.76 1.57 12.03 6.41 12.26 17.51 19.86 25.42 6.28 6.54 15.04 11.9 30.08 6.9" style="fill-rule:evenodd;fill:#fff;stroke-linecap:round;stroke-linejoin:round;stroke:#000"/>
  <path id="path10" d="M41.04 33.21C31.97 252.66 77.3 419.16 230.5 530.31 383.69 419.16 429.01 252.66 419.94 33.21l-189.45 0-189.45 0m-0.92-0.95 0.92 0 189.45 0 189.45 0 0.92 0 0.04 0.92c4.82 116.66-6.28 211.36-33.93 289.52-30.51 86.24-81.51 154.41-155.91 208.39l-0.56 0.41-0.56-0.41C155.54 477.11 104.54 408.94 74.03 322.7 46.38 244.54 35.28 149.84 40.1 33.18l0.04-0.92 0 0z"/>
  <path d="m313.17 200.63c10.83-3.76 11.61-8.34 17.51-11.68 9.44-5.36 20.63-7.97 29.76 1.57-12.03 6.41-12.26 17.51-19.86 25.42-6.28 6.54-15.04 11.9-30.08 6.9" id="path4399" style="fill-rule:evenodd;fill:#fff;stroke-linecap:round;stroke-linejoin:round;stroke:#000"/>
  <path id="path4205" d="m183.72 148.01c-10.9 8.86-16.08 26.11-31.6 43.04-5.08 5.54-4.9 14.01-4.38 19.33 0.51 5.18 1.82 13.22 4.93 16.94-1.31 5.23 0.4 13.97 0.97 20.39 1.7 19.32 10.99 28.3 13.84 43.04 2.47 12.81 3.56 26.35 11.01 37.81 8.78 13.51 20.38 30.02 23.17 40.15 1.69 6.15 6.56 11.82 13.55 12.15-0.28 7.87 8.69 12.13 15.29 12.13 6.6 0 15.57-4.27 15.29-12.13 6.99-0.33 11.86-6 13.55-12.15 2.79-10.14 14.4-26.65 23.17-40.15 7.45-11.46 8.53-25 11.01-37.81 2.84-14.75 12.14-23.72 13.84-43.04 0.56-6.42 2.28-15.16 0.97-20.39 3.11-3.72 4.42-11.75 4.93-16.94 0.53-5.32 0.7-13.79-4.38-19.33C293.36 174.12 288.18 156.87 277.28 148.01 264.39 137.54 243.64 130.59 230.5 130.59c-13.14 0-33.89 6.95-46.78 17.42z" style="fill-rule:evenodd;fill:#fff;stroke:#000"/>
  <path id="path4199" d="m209.95 343.21c3.24-10.28 1.28-18.53-3.38-34.54-6.85-23.53-6.83-39.35-10.57-59.93-2.61-14.35-18.09-18.42-27.02-26.91-3.18-3.02-5.42-7.73-6.21-11.11" style="fill:none;stroke-linecap:round;stroke:#000"/>
  <path id="path4201" d="M199.55 275.78C180.68 274.95 169.66 263.09 174.62 241.42" style="fill:none;stroke:#000"/>
  <path id="path4203" d="m196.42 251.63c-5.45-9.93-33.72-8.78-43.74-24.31" style="fill:none;stroke:#000"/>
  <path id="path4209" d="m215.21 380.87c6.86 0.31 9.88-0.81 11.95-3.67 2.71-3.73 3.24-14.97-1.2-15.91-4.94-1.04-10.92 0.15-14.82-5.34" style="fill:none;stroke-linecap:round;stroke:#000"/>
  <ellipse transform="matrix(-0.95064174,0.31029065,0.31029065,0.95064174,0,0)" id="ellipse4213" cx="-97.2" cy="302.76" rx="6.96" ry="8.89" style="fill:none;stroke-linecap:round;stroke-linejoin:round;stroke-miterlimit:4;stroke-width:0.95;stroke:#000"/>
  <ellipse ry="4.97" rx="3.89" cy="302.76" cx="-97.2" id="ellipse4215" transform="matrix(-0.95064174,0.31029065,0.31029065,0.95064174,0,0)" fill="#000"/>
  <path id="path4217" d="m133.09 104.32c-3.08-5.46-13.1-4.26-13.28 1.71-5.03-4.76-14.45-2.7-15.38 3.55-6.36-3.13-12.84-0.29-13.2 7.12-7.56-1.38-12.36 5.21-9.81 10.06-6.09-1.11-12.62 6.74-8.53 12.66-8.63 0.46-9.2 9.94-4.75 13.75-6.21 1.87-7.51 9.06-3.78 12.71-4.29 2.13-3.59 9.98 0.62 11.38-4.05 1.82-3.45 9.3 0.36 11.01-4.57 3.19-2.01 14.5 3.13 15.56-4.31 1.94-2.35 11.58 2.3 11.89-4.28 2.89-1.42 13.03 3.07 13.39-3.04 2.92-1.24 11.95 3.75 12.24-3.42 2.75-0.05 9.65 3.21 8.93-1.99 3.54-0.24 9.1 4.62 9.29-2.05 4.29-0.45 8.98 5.28 8.79-2.22 3.89 0.94 9.2 5.82 9.02-2.5 4.39 2.51 8.53 6.16 7.59-0.64 4.14 2.31 8.57 7.37 6.97-0.02 4.62 4.18 7.05 8.15 5.12 0.38 4.5 6.81 5.23 9 2.26 2.02 4.73 7.34 3.23 9.36 0.8 2.68 3.37 9.88 0.68 9.5-2.94 2.77 2.86 8.31-0.11 7.41-3.22 4.68 0 3.26-5.2 1.67-4.64-35.54 12.66-57.81-47.73-60.53-72.22-2.63-23.73 3.55-40.87 17.43-43.59 11.65-2.29 25.91 5.07 39.12 19.04 6.98 7.38 20.13 2.57 19.42-5.65 7.44 7.25 19.9 1.42 17.68-7.84 8.99 6.17 21.49-4.64 16.77-13.73 10.84 1.28 14.81-12.77 7.16-18.02 6.55-2.85 3.55-14.52-4.7-14.81 2.03-7.01-5-14.48-13.52-10.13 1.21-7.82-8.23-13.39-13.8-8.92-0.7-5.58-8.38-9.83-14.55-4.67-0.53-6.5-10.66-8.29-15.11-2.85-2.8-5.97-14.2-6.8-17.43-1.62z" style="fill-rule:evenodd;fill:#fff;stroke-linecap:round;stroke-linejoin:round;stroke:#000"/>
  <path id="path4313" d="m230.5 218.99c-10.54 0-14.4-7.87-11.62-13.71" style="fill:none;stroke-linecap:round;stroke:#000"/>
  <path id="path4315" d="m219.11 213.68c-12.04 2.02-17.54-9.04-11.01-17.64" style="fill:none;stroke-linecap:round;stroke:#000"/>
  <path id="path4317" d="m205.63 207.29c-10.76 0.99-16.82-11.99-5.39-18.1" style="fill:none;stroke-linecap:round;stroke:#000"/>
  <path id="path4319" d="m147.99 213.29c-21.11-0.95-20.68-24.36-47.43-22.77" style="fill:none;stroke:#000"/>
  <path d="m251.05 343.21c-3.24-10.28-1.28-18.53 3.38-34.54 6.85-23.53 6.83-39.35 10.57-59.93 2.61-14.35 18.09-18.42 27.02-26.91 3.18-3.02 5.42-7.73 6.21-11.11" id="path4375" style="fill:none;stroke-linecap:round;stroke:#000"/>
  <path d="m261.45 275.78c18.86-0.83 29.89-12.69 24.93-34.36" id="path4377" style="fill:none;stroke:#000"/>
  <path d="m264.53 251.63c5.45-9.93 33.77-8.78 43.79-24.31" id="path4379" style="fill:none;stroke:#000"/>
  <path d="m245.79 380.87c-6.86 0.31-9.88-0.81-11.95-3.67-2.71-3.73-3.24-14.97 1.2-15.91 4.94-1.04 10.92 0.15 14.82-5.34" id="path4383" style="fill:none;stroke-linecap:round;stroke:#000"/>
  <ellipse ry="8.89" rx="6.96" cy="159.72" cx="341.05" id="ellipse4385" transform="matrix(0.95064174,0.31029065,-0.31029065,0.95064174,0,0)" style="fill:none;stroke-linecap:round;stroke-linejoin:round;stroke-miterlimit:4;stroke-width:0.95;stroke:#000"/>
  <ellipse transform="matrix(0.95064174,0.31029065,-0.31029065,0.95064174,0,0)" id="ellipse4387" cx="341.05" cy="159.72" rx="3.89" ry="4.97" fill="#000"/>
  <path d="m327.91 104.32c3.08-5.46 13.1-4.26 13.28 1.71 5.03-4.76 14.45-2.7 15.38 3.55 6.36-3.13 12.84-0.29 13.2 7.12 7.56-1.38 12.36 5.21 9.81 10.06 6.09-1.11 12.62 6.74 8.53 12.66 8.63 0.46 9.2 9.94 4.75 13.75 6.21 1.87 7.51 9.06 3.78 12.71 4.29 2.13 3.59 9.98-0.62 11.38 4.05 1.82 3.45 9.3-0.36 11.01 4.57 3.19 2.01 14.5-3.13 15.56 4.31 1.94 2.35 11.58-2.3 11.89 4.28 2.89 1.42 13.03-3.07 13.39 3.04 2.92 1.24 11.95-3.75 12.24 3.42 2.75 0.05 9.65-3.21 8.93 1.99 3.54 0.24 9.1-4.62 9.29 2.05 4.29 0.45 8.98-5.28 8.79 2.22 3.89-0.94 9.2-5.82 9.02 2.5 4.39-2.51 8.53-6.16 7.59 0.64 4.14-2.31 8.57-7.37 6.97 0.02 4.62-4.18 7.05-8.15 5.12-0.38 4.5-6.81 5.23-9 2.26-2.02 4.73-7.34 3.23-9.36 0.8-2.68 3.37-9.88 0.68-9.5-2.94-2.77 2.86-8.31-0.11-7.41-3.22-4.68 0-3.26-5.2-1.67-4.64 35.54 12.66 57.81-47.73 60.53-72.22 2.63-23.73-3.55-40.87-17.43-43.59-11.65-2.29-25.91 5.07-39.12 19.04-6.98 7.38-20.13 2.57-19.42-5.65-7.44 7.25-19.9 1.42-17.68-7.84-8.99 6.17-21.49-4.64-16.77-13.73-10.84 1.28-14.81-12.77-7.16-18.02-6.55-2.85-3.55-14.52 4.7-14.81-2.03-7.01 5-14.48 13.52-10.13-1.21-7.82 8.23-13.39 13.8-8.92 0.7-5.58 8.38-9.83 14.55-4.67 0.53-6.5 10.66-8.29 15.11-2.85 2.8-5.97 14.2-6.8 17.43-1.62z" id="path4389" style="fill-rule:evenodd;fill:#fff;stroke-linecap:round;stroke-linejoin:round;stroke:#000"/>
  <path d="m230.5 218.99c10.54 0 14.4-7.87 11.62-13.71" id="path4391" style="fill:none;stroke-linecap:round;stroke:#000"/>
  <path d="m241.89 213.68c12.04 2.02 17.54-9.04 11.01-17.64" id="path4393" style="fill:none;stroke-linecap:round;stroke:#000"/>
  <path d="m255.37 207.29c10.76 0.99 16.82-11.99 5.39-18.1" id="path4395" style="fill:none;stroke-linecap:round;stroke:#000"/>
  <path d="m313.01 213.29c21.11-0.95 20.68-24.36 47.43-22.77" id="path4397" style="fill:none;stroke:#000"/>
</svg>
