<?xml version="1.0" encoding="UTF-8" standalone="no"?>
<svg
   xmlns:dc="http://purl.org/dc/elements/1.1/"
   xmlns:cc="http://creativecommons.org/ns#"
   xmlns:rdf="http://www.w3.org/1999/02/22-rdf-syntax-ns#"
   xmlns:svg="http://www.w3.org/2000/svg"
   xmlns="http://www.w3.org/2000/svg"
   xml:space="preserve"
   enable-background="new 30.5 31.5 412 533"
   viewBox="30.5 31.5 400 500"
   height="500"
   width="400"
   y="0"
   x="0"
   version="1.1"
   id="svg2"><metadata
     id="metadata4"><rdf:RDF><cc:Work
         rdf:about=""><dc:format>
          
          
          
          image/svg+xml
        
        
        
        </dc:format><dc:type
           rdf:resource="http://purl.org/dc/dcmitype/StillImage" /><dc:title></dc:title></cc:Work></rdf:RDF></metadata><defs
     id="defs6" /><path
     style="fill:#ffffff;fill-opacity:1"
     d="M 230.44,531.14 C 156.12,477.22 105.18,409.12 74.7,322.98 47.06,244.88 35.97,150.23 40.79,33.63 l 0.02,-0.46 379.82,0 0.02,0.46 c 4.81,116.6 -6.28,211.24 -33.91,289.35 C 356.26,409.12 305.32,477.22 231,531.14 l -0.28,0.2 z"
     id="path8" /><path
     id="path4305"
     d="m 373.64142,354.99201 c -10.02208,-5.46515 -19.49369,-12.46733 -26.8465,-22.83496 -16.36783,-23.079 -11.66304,-42.87138 -29.343,-59.34275 -17.18814,-16.01318 -34.56867,-12.65018 -56.13377,-34.77427 -20.09015,-20.6109 -14.3177,-54.60311 -33.32669,-76.21936 -23.43951,-26.65446 -42.93153,-17.11915 -58.01311,-36.743 C 153.48807,103.62084 162.43278,91.701677 152.32298,69.197552 146.67602,56.627564 131.65004,44.240311 119.37116,32.525476 l 103.9916,0.617161 c -0.0287,9.024237 -0.19063,26.283886 10.49173,37.95539 20.63003,22.540287 41.56741,21.680556 55.85305,38.881133 22.31054,26.86294 7.38487,47.29998 26.83791,71.46086 17.8262,22.14032 31.99236,13.56008 50.31352,32.07452 14.77425,14.93011 5.28485,33.79124 33.93782,61.55401 -6.58205,25.99 -17.07671,56.26454 -27.15537,79.92346 z M 39.66703,56.105406 c 21.08797,13.658642 39.95,30.917372 53.65556,50.953204 20.77281,30.36729 13.60603,48.07281 29.75153,65.87095 16.60262,18.30205 35.42431,16.04456 48.75571,29.9323 25.20884,26.26084 23.83724,63.48826 39.37047,81.39035 17.3792,20.02958 30.54238,12.31684 52.91057,35.30599 15.64387,16.07815 11.70101,41.30496 33.61977,67.21759 13.1891,15.59232 28.64359,23.96027 43.18575,29.49269 -17.21194,25.69786 -36.869,49.76561 -56.36433,68.83536 C 264.50563,468.83646 249.58728,453.18849 237.72271,434.02281 224.42905,412.54864 227.37496,391.87969 217.49973,377.20979 202.71658,355.24906 180.00415,363.14966 158.92882,339.60042 129.75031,306.9968 143.81651,287.42019 126.86747,264.88653 110.93402,243.70308 89.8847,244.98964 72.39849,226.32948 60.46662,213.59657 51.68271,193.82528 43.27961,173.05738 40.13865,135.70617 38.73537,96.365638 39.66703,56.105406 Z"
     style="fill:#0085ca;fill-opacity:1;fill-rule:evenodd;stroke:none;stroke-width:1px;stroke-linecap:butt;stroke-linejoin:miter;stroke-opacity:1" /><path
     style="fill:none;fill-rule:evenodd;stroke:#000000;stroke-width:1px;stroke-linecap:butt;stroke-linejoin:miter;stroke-opacity:1"
     d="m 223.36276,33.142637 c -0.0287,9.024237 -0.19063,26.283886 10.49173,37.95539 20.63003,22.540287 41.56741,21.680556 55.85305,38.881133 22.31054,26.86294 7.38487,47.29998 26.83791,71.46086 17.8262,22.14032 31.99236,13.56008 50.31352,32.07452 14.77425,14.93011 5.28485,33.79124 33.93782,61.55401 m -27.15537,79.92346 c -10.02208,-5.46515 -19.49369,-12.46733 -26.8465,-22.83496 -16.36783,-23.079 -11.66304,-42.87138 -29.343,-59.34275 -17.18814,-16.01318 -34.56867,-12.65018 -56.13377,-34.77427 -20.09015,-20.6109 -14.3177,-54.60311 -33.32669,-76.21936 -23.43951,-26.65446 -42.93153,-17.11915 -58.01311,-36.743 C 153.48807,103.62084 162.43278,91.701677 152.32298,69.197552 146.67602,56.627564 131.65004,44.240311 119.37116,32.525476 m -79.70413,23.57993 c 21.08797,13.658642 39.95,30.917372 53.65556,50.953204 20.77281,30.36729 13.60603,48.07281 29.75153,65.87095 16.60262,18.30205 35.42431,16.04456 48.75571,29.9323 25.20884,26.26084 23.83724,63.48826 39.37047,81.39035 17.3792,20.02958 30.54238,12.31684 52.91057,35.30599 15.64387,16.07815 11.70101,41.30496 33.61977,67.21759 13.1891,15.59232 28.64359,23.96027 43.18575,29.49269 m -56.36433,68.83536 C 264.50563,468.83646 249.58728,453.18849 237.72271,434.02281 224.42905,412.54864 227.37496,391.87969 217.49973,377.20979 202.71658,355.24906 180.00415,363.14966 158.92882,339.60042 129.75031,306.9968 143.81651,287.42019 126.86747,264.88653 110.93402,243.70308 89.8847,244.98964 72.39849,226.32948 60.46662,213.59657 51.68271,193.82528 43.27961,173.05738"
     id="path4246" /><path
     d="M 419.96,33.21 C 429.03,252.66 383.7,419.16 230.5,530.31 77.31,419.16 31.99,252.66 41.06,33.21 l 189.45,0 189.45,0 m 0.92,-0.95 -0.92,0 -189.45,0 -189.45,0 -0.92,0 -0.04,0.92 c -4.82,116.66 6.28,211.36 33.93,289.52 30.51,86.24 81.51,154.41 155.91,208.39 l 0.56,0.41 0.56,-0.41 C 305.46,477.11 356.46,408.94 386.97,322.7 414.62,244.54 425.72,149.84 420.9,33.18 l -0.04,-0.92 0,0 z"
     id="path10" /></svg>