<?xml version="1.0" encoding="UTF-8" standalone="no"?>
<svg
   xmlns:dc="http://purl.org/dc/elements/1.1/"
   xmlns:cc="http://creativecommons.org/ns#"
   xmlns:rdf="http://www.w3.org/1999/02/22-rdf-syntax-ns#"
   xmlns:svg="http://www.w3.org/2000/svg"
   xmlns="http://www.w3.org/2000/svg"
   xml:space="preserve"
   enable-background="new 30.5 31.5 412 533"
   viewBox="30.5 31.5 420 500"
   height="500"
   width="420"
   y="0"
   x="0"
   version="1.1"
   id="svg2"><metadata
     id="metadata4"><rdf:RDF><cc:Work
         rdf:about=""><dc:format>
          
          
          
          
          image/svg+xml
        
        
        
        
        </dc:format><dc:type
           rdf:resource="http://purl.org/dc/dcmitype/StillImage" /><dc:title></dc:title></cc:Work></rdf:RDF></metadata><defs
     id="defs6" /><path
     style="fill-rule:evenodd;fill:#e00e00"
     d="m440 32.7c2.09 102.46-3.38 187.49-43.93 296.59C368.02 404.77 321.86 474.06 240.5 530.88 159.14 474.06 112.98 404.77 84.93 329.29 44.38 220.19 38.91 135.16 41 32.7c133 0.29 266 0 399 0z"
     id="path4218" /><path
     style="fill:none;stroke:#000"
     id="path4224"
     d="m440 32.7c2.09 102.46-3.38 187.49-43.93 296.59C368.02 404.77 321.86 474.06 240.5 530.88 159.14 474.06 112.98 404.77 84.93 329.29 44.38 220.19 38.91 135.16 41 32.7c133 0.29 266 0 399 0z" /><path
     style="fill:#ffffff;stroke:#000000;stroke-linecap:round;stroke-linejoin:round;stroke-opacity:1"
     id="path2883"
     d="m 196.66101,349.56141 21.10169,-7.62712 4.19492,-24.53389 c -15.61769,-4.94378 -43.84418,-30.62234 -43.84418,-30.62234 -14.26643,-13.22727 -29.05426,-49.5482 -24.42023,-71.358 l 8.46356,-39.83324 c 0,0 -9.1766,-5.05471 -12.44543,-8.99309 -3.68749,-4.44279 -7.38508,-15.66793 -7.38508,-15.66793 l -12.45762,-4.8305 c 15.60765,-22.69997 39.56427,-29.38486 53.77118,-13.98305 9.88179,10.71291 11.42193,22.52542 20.35895,34.24168 6.54668,8.58257 14.37938,14.14963 37.73427,25.12272 13.35358,6.27406 42.37664,27.46148 58.29963,50.93024 17.53077,25.83845 31.24025,57.78036 42.56054,89.99351 l -17.28813,8.51695 -31.39831,-26.94916 -20.33898,5.33899 -8.00848,38.77118 -21.10169,5.59322 3.30508,-6.10169 -8.51695,-0.38136 7.27755,-8.70763 -8.35806,-1.77966 16.84323,-6.54661 -6.22882,-16.01695 c -11.75821,10.6635 -21.31098,26.49949 -29.61864,39.27967 l -19.0678,5.72033 5.72034,-7.24576 -12.58474,-3.55932 8.77118,-5.08475 z" /><path
     style="fill:#000000;fill-opacity:1;stroke:none"
     id="path2885"
     d="m 159.55084,137.61013 c -2.60002,-0.42746 -3.8601,4.57905 -6.99152,1.04872 -0.62251,-6.22028 5.51255,-7.50747 8.64406,-6.32415 4.4477,1.68069 2.30036,5.92531 -1.65254,5.27543 z" /></svg>