<svg xmlns:dc="http://purl.org/dc/elements/1.1/" xmlns:cc="http://creativecommons.org/ns#" xmlns:rdf="http://www.w3.org/1999/02/22-rdf-syntax-ns#" xmlns:svg="http://www.w3.org/2000/svg" xmlns="http://www.w3.org/2000/svg" xml:space="preserve" enable-background="new 30.5 31.5 412 533" viewBox="30.5 31.5 400 500" height="500" width="400" y="0" x="0" version="1.1" id="svg2">
  <metadata id="metadata4">
    <rdf:RDF>
      <cc:Work rdf:about="">
        <dc:format>
          
          
          
          
          
          image/svg+xml
        
        
        
        
        
        </dc:format>
        <dc:type rdf:resource="http://purl.org/dc/dcmitype/StillImage"/>
      </cc:Work>
    </rdf:RDF>
  </metadata>
  <defs id="defs6"/>
  <path id="path4148" d="M230.45 531.13C156.13 477.21 105.19 409.11 74.71 322.97 47.07 244.87 35.98 150.22 40.8 33.62l0.02-0.46 379.82 0 0.02 0.46c4.81 116.6-6.28 211.24-33.91 289.35-30.48 86.14-81.42 154.24-155.74 208.16l-0.28 0.2-0.28-0.2z" fill="#ffe000"/>
  <path d="m398.13 253.13c-6.15-15.13-6.33-24.65-3.83-35.6C399.12 196.3 386.09 173.96 360.5 166.5c9.7 15.2 7.91 33.54-0.32 45.77-8.5 12.62-17.67 20.72-18.05 37.09-0.2 8.82 4.82 22.15 8.36 27.15-12.28-3.67-21.34-11-26.37-23.37-6.15-15.13-2.33-24.65 0.17-35.6C329.12 196.3 316.09 173.96 290.5 166.5c9.7 15.2 7.91 33.54-0.32 45.77-8.5 12.62-17.67 20.72-18.05 37.09-0.2 8.82 4.82 22.15 8.36 27.15-12.28-3.67-21.34-11-26.37-23.37-6.15-15.13-2.33-24.65 0.17-35.6C259.12 196.3 246.09 173.96 220.5 166.5c9.7 15.2 7.91 33.54-0.32 45.77-8.5 12.62-17.67 20.72-18.05 37.09-0.2 8.82 4.82 22.15 8.36 27.15-12.28-3.67-21.34-11-26.37-23.37-6.15-15.13-2.33-24.65 0.17-35.6C189.12 196.3 176.09 173.96 150.5 166.5c9.7 15.2 7.91 33.54-0.32 45.77-8.5 12.62-17.67 20.72-18.05 37.09-0.2 8.82 4.82 22.15 8.36 27.15-12.28-3.67-21.34-11-26.37-23.37-6.15-15.13-2.33-24.65 0.17-35.6 4.83-21.22-8.2-43.57-33.72-51.03 9.78 15.2 7.99 33.54-0.24 45.77-8.5 12.62-19.43 22.52-22.2 38.86-0.84 4.93-1.25 9.9-1.25 9.9C81.35 374.47 142.05 467.64 230.5 530.86 312.07 470.93 375.98 388.25 403.7 262.8c-1.63-2.38-4.38-6.75-5.57-9.67z" id="path4257" style="fill-rule:evenodd;fill:#0085ca"/>
  <path id="path4261" d="m403.7 262.8c-1.63-2.38-4.38-6.75-5.57-9.67-6.15-15.13-6.33-24.65-3.83-35.6C399.12 196.3 386.09 173.96 360.5 166.5c9.7 15.2 7.91 33.54-0.32 45.77-8.5 12.62-17.67 20.72-18.05 37.09-0.2 8.82 4.82 22.15 8.36 27.15-12.28-3.67-21.34-11-26.37-23.37-6.15-15.13-2.33-24.65 0.17-35.6C329.12 196.3 316.09 173.96 290.5 166.5c9.7 15.2 7.91 33.54-0.32 45.77-8.5 12.62-17.67 20.72-18.05 37.09-0.2 8.82 4.82 22.15 8.36 27.15-12.28-3.67-21.34-11-26.37-23.37-6.15-15.13-2.33-24.65 0.17-35.6C259.12 196.3 246.09 173.96 220.5 166.5c9.7 15.2 7.91 33.54-0.32 45.77-8.5 12.62-17.67 20.72-18.05 37.09-0.2 8.82 4.82 22.15 8.36 27.15-12.28-3.67-21.34-11-26.37-23.37-6.15-15.13-2.33-24.65 0.17-35.6C189.12 196.3 176.09 173.96 150.5 166.5c9.7 15.2 7.91 33.54-0.32 45.77-8.5 12.62-17.67 20.72-18.05 37.09-0.2 8.82 4.82 22.15 8.36 27.15-12.28-3.67-21.34-11-26.37-23.37-6.15-15.13-2.33-24.65 0.17-35.6 4.83-21.22-8.2-43.57-33.72-51.03 9.78 15.2 7.99 33.54-0.24 45.77-8.5 12.62-19.43 22.52-22.2 38.86-0.84 4.93-1.25 9.9-1.25 9.9" style="fill:none;stroke:#000"/>
  <path d="M419.96 33.21C429.03 252.66 383.71 419.16 230.51 530.31 146.04 469.02 94.36 390.9 66.52 296.34 64.43 289.25 62.48 282.07 60.65 274.8 49.2 229.11 42.88 179.78 40.77 126.86 39.57 96.8 39.72 65.58 41.06 33.21l189.45 0 189.45 0m0.92-0.95-0.92 0-189.45 0-189.45 0-0.92 0-0.04 0.92c-4.82 116.66 6.28 211.36 33.93 289.52 30.51 86.24 81.51 154.41 155.91 208.39l0.56 0.41 0.56-0.41C305.46 477.11 356.46 408.94 386.97 322.7 414.62 244.54 425.72 149.84 420.9 33.18l-0.04-0.92 0 0z" id="path10"/>
</svg>
