<?xml version="1.0" encoding="UTF-8" standalone="no"?>
<svg
   xmlns:dc="http://purl.org/dc/elements/1.1/"
   xmlns:cc="http://creativecommons.org/ns#"
   xmlns:rdf="http://www.w3.org/1999/02/22-rdf-syntax-ns#"
   xmlns:svg="http://www.w3.org/2000/svg"
   xmlns="http://www.w3.org/2000/svg"
   xml:space="preserve"
   enable-background="new 30.5 31.5 412 533"
   viewBox="30.5 31.5 400 500"
   height="500"
   width="400"
   y="0"
   x="0"
   version="1.1"
   id="svg2"><metadata
     id="metadata4"><rdf:RDF><cc:Work
         rdf:about=""><dc:format>
          
          
          
          image/svg+xml
        
        
        
        </dc:format><dc:type
           rdf:resource="http://purl.org/dc/dcmitype/StillImage" /><dc:title></dc:title></cc:Work></rdf:RDF></metadata><defs
     id="defs6" /><path
     style="fill:#ffe000;fill-opacity:1"
     d="M 230.56,531.14 C 304.88,477.22 355.82,409.12 386.3,322.98 413.94,244.88 425.03,150.23 420.21,33.63 l -0.02,-0.46 -379.82,0 -0.02,0.46 c -4.81,116.6 6.28,211.24 33.91,289.35 30.48,86.14 81.42,154.24 155.74,208.16 l 0.28,0.2 0.28,-0.2 z"
     id="path8" /><path
     d="M 41.04,33.21 C 31.97,252.66 77.3,419.16 230.5,530.31 383.69,419.16 429.01,252.66 419.94,33.21 l -189.45,0 -189.45,0 m -0.92,-0.95 0.92,0 189.45,0 189.45,0 0.92,0 0.04,0.92 c 4.82,116.66 -6.28,211.36 -33.93,289.52 -30.51,86.24 -81.51,154.41 -155.91,208.39 l -0.56,0.41 -0.56,-0.41 C 155.54,477.11 104.54,408.94 74.03,322.7 46.38,244.54 35.28,149.84 40.1,33.18 l 0.04,-0.92 0,0 z"
     id="path10" /><path
     style="fill:#000000;stroke:#000000;stroke-opacity:1"
     id="path4248"
     d="m 132.95241,299.05755 c 3.71856,-2.40766 -19.97739,-5.56771 -19.38312,-11.4905 1.41314,-14.08423 74.84404,-57.05174 116.98864,-78.83322 55.00923,24.56574 112.73928,70.91496 114.37182,79.12063 0.90815,4.56467 -4.54874,6.51841 -22.78284,6.49378 -6.87353,-0.009 16.21763,13.35929 29.05304,12.95588 13.99709,-0.43992 15.4742,-6.64622 15.26277,-19.77563 -0.44996,-27.94167 -65.47016,-77.53539 -106.52989,-96.36456 13.73639,-11.43257 28.06049,-12.81764 28.29833,-23.8983 0.25349,-11.80976 -2.23125,-10.318 -7.80141,-10.32673 -10.07585,-7.93461 -25.19413,-21.8867 -35.58406,-26.21136 1.07996,-6.08923 -10.08227,-8.87694 -9.91526,-11.31159 0.81157,-11.83102 26.11069,-18.50923 24.08566,-37.497613 -2.40324,-22.534871 -38.13921,-26.277285 -57.30879,-27.872735 -12.57097,-1.046259 -27.99,-1.478902 -38.09043,3.771469 -5.48136,2.849304 -18.00845,16.63367 -18.50822,26.166843 -0.26166,4.991231 18.9421,11.4126 22.41681,4.411143 4.88254,-9.838223 6.25991,-16.75908 33.80566,-14.178304 15.494,1.451641 30.58962,3.758894 30.68867,8.987415 0.178,9.396059 -24.97502,21.152822 -24.71408,37.323762 0.0718,4.45068 5.06815,9.04832 3.08688,11.63395 -6.55058,8.54872 -39.38108,21.227 -38.44487,31.98083 0.74593,8.56821 19.26964,19.30217 28.80089,25.45976 -44.29837,21.68523 -98.48826,60.03539 -111.32236,96.33619 -4.91723,13.90819 12.32381,21.52708 23.51549,20.26458 8.76935,-0.98926 13.40743,-2.87029 20.01067,-7.14569 z" /><path
     style="fill:#ffe000;fill-opacity:1;stroke:#000000;stroke-opacity:1"
     id="path4250"
     d="m 208.8022,162.82532 c 7.56012,-6.82973 20.25587,-15.61097 22.73386,-14.6181 7.86544,3.15149 24.62455,14.42679 23.15093,15.79395 -5.04269,4.67838 -21.98874,17.32555 -23.75259,16.05125 -7.80402,-5.63806 -24.08781,-15.46043 -22.1322,-17.2271 z" /><path
     d="m 168.02767,409.19407 c 2.67503,-1.79745 -16.16392,-3.15591 -15.33583,-10.3652 1.15498,-10.05519 68.10344,-51.73055 78.78507,-46.70636 47.42778,22.30803 74.6144,39.8642 75.18406,42.74955 0.65583,3.32184 -0.53204,5.97657 -14.72334,10.89596 -4.7248,1.63784 11.79717,9.67093 21.1365,9.42559 12.1834,-0.32006 13.89594,-4.83394 13.88114,-14.38707 -0.0284,-18.32206 -35.4416,-48.53935 -65.31313,-62.23783 9.99339,-8.31737 13.47134,-5.31351 13.64437,-13.37482 0.18441,-8.5918 -1.62327,-7.50652 -5.67565,-7.51285 -7.33033,-5.77256 -20.18057,-17.00294 -27.73941,-20.14919 0.78569,-4.43002 -4.4035,-4.91521 -4.28198,-6.68647 0.59043,-8.60722 21.15597,-14.85433 19.68275,-28.66867 -1.74839,-16.39445 -30.06119,-20.96856 -44.00729,-22.12927 -9.14562,-0.76119 -23.14043,0.62124 -30.48862,4.44099 -3.98779,2.07288 -13.10142,12.10122 -13.46501,19.03674 -0.19036,3.63121 13.78067,8.30285 16.30856,3.20918 3.55209,-7.15744 4.55417,-12.19247 24.5941,-10.31493 11.27211,1.0561 22.25437,2.7347 22.3264,6.53848 0.12957,6.83579 -18.16963,15.38898 -17.9798,27.15358 0.0522,3.23793 3.87388,6.74183 2.24577,8.46387 -3.51473,3.71749 -31.1721,14.00617 -30.74643,22.34079 0.31914,6.24892 19.73181,14.80779 16.32437,16.3623 -34.33652,15.66465 -56.51062,33.95842 -69.10827,58.97708 -6.15811,12.22986 10.03365,20.21898 20.19361,18.13718 7.53298,-1.54353 9.92898,-2.08819 14.55806,-5.19863 z"
     id="path4264"
     style="fill:#000000;stroke:#000000;stroke-width:1;stroke-miterlimit:4;stroke-dasharray:none;stroke-opacity:1" /><path
     d="m 215.70521,319.70547 c 8.97058,-4.85545 14.81651,-9.35718 16.94617,-7.91399 7.61456,5.16013 13.84542,9.20746 12.36824,10.87313 -3.32041,3.74413 -12.05664,8.93758 -14.55946,7.35744 -5.92261,-3.73923 -16.87028,-9.17163 -14.75495,-10.31658 z"
     id="path4266"
     style="fill:#ffe000;fill-opacity:1;stroke:#000000;stroke-width:0.72751468;stroke-opacity:1" /></svg>