<?xml version="1.0" encoding="UTF-8" standalone="no"?>
<svg
   xmlns:dc="http://purl.org/dc/elements/1.1/"
   xmlns:cc="http://creativecommons.org/ns#"
   xmlns:rdf="http://www.w3.org/1999/02/22-rdf-syntax-ns#"
   xmlns:svg="http://www.w3.org/2000/svg"
   xmlns="http://www.w3.org/2000/svg"
   id="svg2"
   version="1.1"
   x="0"
   y="0"
   width="400"
   height="500"
   viewBox="30.5 31.5 400 500"
   enable-background="new 30.5 31.5 412 533"
   xml:space="preserve"><metadata
     id="metadata4"><rdf:RDF><cc:Work
         rdf:about=""><dc:format>
          
          
          
          
          
          image/svg+xml
        
        
        
        
        
        </dc:format><dc:type
           rdf:resource="http://purl.org/dc/dcmitype/StillImage" /><dc:title></dc:title></cc:Work></rdf:RDF></metadata><defs
     id="defs6" /><path
     style="fill-opacity:1;fill:#32ac60"
     d="M230.45 531.13C156.13 477.21 105.19 409.11 74.71 322.97 47.07 244.87 35.98 150.22 40.8 33.62l0.02-0.46 379.82 0 0.02 0.46c4.81 116.6-6.28 211.24-33.91 289.35-30.48 86.14-81.42 154.24-155.74 208.16l-0.28 0.2-0.28-0.2z"
     id="path4148"
     fill="#e00e00" /><path
     style="fill:#ffffff;fill-opacity:1"
     id="path2827"
     d="m 379.20866,63.152392 c -7.55699,8.71133 -15.39858,20.843228 -21.13648,28.684168 -21.9196,29.9535 -38.15547,20.21031 -66.5135,36.62958 -18.21059,11.91016 -19.3459,27.09992 -42.90619,47.50177 -28.06792,24.30517 -38.46924,10.05865 -68.79114,30.57006 -28.92602,19.56716 -53.77452,71.41175 -113.080656,91.67198 12.60013,41.51537 31.48974,86.40756 54.382276,119.34887 47.6999,-23.92425 66.17998,-68.83168 85.38018,-108.12285 6.75315,-13.8196 16.78654,-29.3567 26.94888,-39.05564 17.86907,-17.05425 29.34717,-13.69632 49.69766,-48.0474 17.91461,-30.23939 27.88525,-62.55559 47.2023,-74.66873 23.66487,-14.83949 26.57027,-14.58078 36.61051,-29.45401 20.0486,-29.699216 10.46445,-44.296657 42.2454,-74.730038 3.22175,-3.08514 10.76165,-10.312457 10.76165,-10.312457 0,0 -4.80565,2.338891 -10.22579,5.490574 -11.30774,6.623643 -22.6699,15.381394 -30.5751,24.494123 z" /><path
     id="path10"
     d="M419.96 33.21C429.03 252.66 383.71 419.16 230.51 530.31 146.04 469.02 94.36 390.9 66.52 296.34 64.43 289.25 62.48 282.07 60.65 274.8 49.2 229.11 42.88 179.78 40.77 126.86 39.57 96.8 39.72 65.58 41.06 33.21l189.45 0 189.45 0m0.92-0.95-0.92 0-189.45 0-189.45 0-0.92 0-0.04 0.92c-4.82 116.66 6.28 211.36 33.93 289.52 30.51 86.24 81.51 154.41 155.91 208.39l0.56 0.41 0.56-0.41C305.46 477.11 356.46 408.94 386.97 322.7 414.62 244.54 425.72 149.84 420.9 33.18l-0.04-0.92 0 0z" /><path
     d="m 121.16297,417.55882 c 47.6999,-23.92425 66.17998,-68.83168 85.38018,-108.12285 6.75315,-13.8196 16.78654,-29.3567 26.94888,-39.05564 17.86907,-17.05425 29.34717,-13.69632 49.69766,-48.0474 17.91461,-30.23939 27.88525,-62.55559 47.2023,-74.66873 23.66487,-14.83949 26.57027,-14.58078 36.61051,-29.45401 20.0486,-29.699216 10.46445,-44.296657 42.2454,-74.730038 3.22175,-3.08514 10.76165,-10.312457 10.76165,-10.312457 0,0 -4.80565,2.338891 -10.22579,5.490574 -11.30774,6.623643 -22.6699,15.381394 -30.5751,24.494123 -7.55699,8.71133 -15.39858,20.843228 -21.13648,28.684168 -21.9196,29.9535 -38.15547,20.21031 -66.5135,36.62958 -18.21059,11.91016 -19.3459,27.09992 -42.90619,47.50177 -28.06792,24.30517 -38.46924,10.05865 -68.79114,30.57006 -22.76445,15.39913 -43.00349,50.78933 -79.5,75.04293 -9.878378,6.56463 -20.94778,12.31339 -33.580656,16.62905"
     id="path4211"
     style="fill:none;fill-opacity:1;stroke:#000000;stroke-opacity:1" /></svg>