<?xml version="1.0" encoding="UTF-8" standalone="no"?>
<svg
   xmlns:dc="http://purl.org/dc/elements/1.1/"
   xmlns:cc="http://creativecommons.org/ns#"
   xmlns:rdf="http://www.w3.org/1999/02/22-rdf-syntax-ns#"
   xmlns:svg="http://www.w3.org/2000/svg"
   xmlns="http://www.w3.org/2000/svg"
   xml:space="preserve"
   enable-background="new 30.5 31.5 412 533"
   viewBox="30.5 31.5 450 500"
   height="500"
   width="450"
   y="0"
   x="0"
   version="1.1"
   id="svg2"><metadata
     id="metadata4"><rdf:RDF><cc:Work
         rdf:about=""><dc:format>
          
          
          
          
          image/svg+xml
        
        
        
        
        </dc:format><dc:type
           rdf:resource="http://purl.org/dc/dcmitype/StillImage" /><dc:title></dc:title></cc:Work></rdf:RDF></metadata><defs
     id="defs6" /><path
     style="fill:#000000;fill-rule:evenodd;stroke:#000000;stroke-width:1px;stroke-linecap:butt;stroke-linejoin:miter;stroke-opacity:1"
     d="m 477.5,34.5 0,381.27273 c 0,32.64085 -1.54377,45.44774 -15.83251,60.72583 -17.2746,18.47069 -41.98735,24.00585 -71.97169,24.00585 l -69.66433,0 c -36.39506,0 -54.64513,17.17837 -64.53147,30.99559 -9.88634,-13.81722 -28.13641,-30.99559 -64.53147,-30.99559 l -69.66433,0 c -29.984337,0 -54.697089,-5.53516 -71.971688,-24.00585 C 35.04377,461.22047 33.5,448.41358 33.5,415.77273 L 33.5,34.5 c 0,0 148,0 222,0 74,0 222,0 222,0 z"
     id="path5778" /><path
     style="fill:none;fill-rule:evenodd;stroke:#000000;stroke-width:1px;stroke-linecap:butt;stroke-linejoin:miter;stroke-opacity:1"
     d="m 255.5,117.5 0,35.67469"
     id="path4983" /><path
     id="path5043"
     d="m 255.5,34.5 -222,0 0,164.36956 c 19.13735,-6.61512 66.80245,-27.01188 83.37383,-34.6314 34.34846,-15.79341 35.10529,-20.34519 72.29638,-39.49417 l 66.32979,-0.95497 66.32979,0.95497 c 37.19109,19.14898 37.94792,23.70076 72.29638,39.49417 16.57138,7.61952 64.23648,28.01628 83.37383,34.6314 l 0,-164.36956 -222,0"
     style="fill:#e00e00;fill-opacity:1;fill-rule:evenodd;stroke:#000000;stroke-width:1px;stroke-linecap:butt;stroke-linejoin:miter;stroke-opacity:1" /><path
     style="fill:#ffffff;fill-rule:evenodd;stroke:#000000;stroke-width:1.5;stroke-linecap:butt;stroke-linejoin:miter;stroke-miterlimit:4;stroke-dasharray:none;stroke-opacity:1"
     d="m 179.47454,118.15931 -5.80937,14.00615 -37.48237,0 -5.88896,14.6428 -25.14741,0 -12.09622,28.04073 120.32559,2.51815 42.1242,34.06042 42.1242,-34.06042 120.32559,-2.51815 -12.09622,-28.04073 -25.14741,0 -5.88896,-14.6428 -37.48237,0 -5.80937,-14.00615 c 0,0 -50.68364,0 -76.02546,0 -25.34182,0 -76.02546,0 -76.02546,0 z"
     id="path4991" /><path
     style="fill:none;fill-rule:evenodd;stroke:#000000;stroke-width:1.5;stroke-linecap:butt;stroke-linejoin:miter;stroke-miterlimit:4;stroke-dasharray:none;stroke-opacity:1"
     d="M 223.88042,118.15931 213.3758,177.36714"
     id="path4999" /><path
     style="fill:none;fill-rule:evenodd;stroke:#000000;stroke-width:1.5;stroke-linecap:butt;stroke-linejoin:miter;stroke-miterlimit:4;stroke-dasharray:none;stroke-opacity:1"
     d="m 255.5,118.15931 0,93.26825"
     id="path5001" /><path
     style="fill:#ffffff;fill-rule:evenodd;stroke:none;stroke-width:1px;stroke-linecap:butt;stroke-linejoin:miter;stroke-opacity:1"
     d="m 299.9,407.80203 c 22.2,0 22.2,-8.15431 44.4,-8.15431 22.2,0 22.2,8.15431 44.4,8.15431 22.2,0 22.2,-8.15431 44.4,-8.15431 22.2,0 22.2,8.15431 44.4,8.15431 l 0,-82 c -22.2,0 -22.2,-8.15431 -44.4,-8.15431 -22.2,0 -22.2,8.15431 -44.4,8.15431 -22.2,0 -22.2,-8.15431 -44.4,-8.15431 -22.2,0 -22.2,8.15431 -44.4,8.15431 -22.2,0 -22.2,-8.15431 -44.4,-8.15431 -22.2,0 -22.2,8.15431 -44.4,8.15431 -22.2,0 -22.2,-8.15431 -44.4,-8.15431 -22.2,0 -22.2,8.15431 -44.4,8.15431 -22.2,0 -22.2,-8.15431 -44.4,-8.15431 -22.2,0 -22.2,8.15431 -44.4,8.15431 l 0,82 c 22.2,0 22.2,-8.15431 44.4,-8.15431 22.2,0 22.2,8.15431 44.4,8.15431 22.2,0 22.2,-8.15431 44.4,-8.15431 22.2,0 22.2,8.15431 44.4,8.15431 22.2,0 22.2,-8.15431 44.4,-8.15431 22.2,0 22.2,8.15431 44.4,8.15431 z"
     id="path5025" /><path
     id="path5035"
     d="m 287.11958,118.15931 10.50462,59.20783"
     style="fill:none;fill-rule:evenodd;stroke:#000000;stroke-width:1.5;stroke-linecap:butt;stroke-linejoin:miter;stroke-miterlimit:4;stroke-dasharray:none;stroke-opacity:1" /><path
     id="path5037"
     d="m 255.5,168.77163 36.93947,-20.5955 51.02305,-1.36787 -5.95669,-14.29607 -47.31724,3.05905 -34.68859,17.60345 -34.68859,-17.60345 -47.31724,-3.05905 -5.95669,14.29607 51.02305,1.36787 36.93947,20.5955"
     style="fill:#000000;fill-rule:evenodd;stroke:#000000;stroke-width:1.5;stroke-linecap:butt;stroke-linejoin:miter;stroke-miterlimit:4;stroke-dasharray:none;stroke-opacity:1" /><path
     style="fill:none;fill-rule:evenodd;stroke:#000000;stroke-width:1.5;stroke-linecap:butt;stroke-linejoin:miter;stroke-miterlimit:4;stroke-dasharray:none;stroke-opacity:1"
     d="m 167.53748,146.80826 -37.24364,0"
     id="path5039" /><path
     style="fill:none;fill-rule:evenodd;stroke:#000000;stroke-width:1.5;stroke-linecap:butt;stroke-linejoin:miter;stroke-miterlimit:4;stroke-dasharray:none;stroke-opacity:1"
     d="m 343.46252,146.80826 37.24364,0"
     id="path5041" /><path
     id="path4145"
     d="m 33.5,407.80203 c 22.2,0 22.2,-8.15431 44.4,-8.15431 22.2,0 22.2,8.15431 44.4,8.15431 22.2,0 22.2,-8.15431 44.4,-8.15431 22.2,0 22.2,8.15431 44.4,8.15431 22.2,0 22.2,-8.15431 44.4,-8.15431 22.2,0 22.2,8.15431 44.4,8.15431 22.2,0 22.2,-8.15431 44.4,-8.15431 22.2,0 22.2,8.15431 44.4,8.15431 22.2,0 22.2,-8.15431 44.4,-8.15431 22.2,0 22.2,8.15431 44.4,8.15431 m 0,-82 c -22.2,0 -22.2,-8.15431 -44.4,-8.15431 -22.2,0 -22.2,8.15431 -44.4,8.15431 -22.2,0 -22.2,-8.15431 -44.4,-8.15431 -22.2,0 -22.2,8.15431 -44.4,8.15431 -22.2,0 -22.2,-8.15431 -44.4,-8.15431 -22.2,0 -22.2,8.15431 -44.4,8.15431 -22.2,0 -22.2,-8.15431 -44.4,-8.15431 -22.2,0 -22.2,8.15431 -44.4,8.15431 -22.2,0 -22.2,-8.15431 -44.4,-8.15431 -22.2,0 -22.2,8.15431 -44.4,8.15431"
     style="fill:none;fill-rule:evenodd;stroke:#000000;stroke-width:1px;stroke-linecap:butt;stroke-linejoin:miter;stroke-opacity:1" /><path
     id="path5776"
     d="m 477.5,34.5 0,381.27273 c 0,32.64085 -1.54377,45.44774 -15.83251,60.72583 -17.2746,18.47069 -41.98735,24.00585 -71.97169,24.00585 l -69.66433,0 c -36.39506,0 -54.64513,17.17837 -64.53147,30.99559 -9.88634,-13.81722 -28.13641,-30.99559 -64.53147,-30.99559 l -69.66433,0 c -29.984337,0 -54.697089,-5.53516 -71.971688,-24.00585 C 35.04377,461.22047 33.5,448.41358 33.5,415.77273 L 33.5,34.5 c 0,0 148,0 222,0 74,0 222,0 222,0 z"
     style="fill:none;fill-rule:evenodd;stroke:#000000;stroke-width:1px;stroke-linecap:butt;stroke-linejoin:miter;stroke-opacity:1" /></svg>