<?xml version="1.0" encoding="UTF-8" standalone="no"?>
<svg
   xmlns:dc="http://purl.org/dc/elements/1.1/"
   xmlns:cc="http://creativecommons.org/ns#"
   xmlns:rdf="http://www.w3.org/1999/02/22-rdf-syntax-ns#"
   xmlns:svg="http://www.w3.org/2000/svg"
   xmlns="http://www.w3.org/2000/svg"
   id="svg2"
   version="1.1"
   x="0"
   y="0"
   width="400"
   height="500"
   viewBox="30.5 31.5 400 500"
   enable-background="new 30.5 31.5 412 533"
   xml:space="preserve"><metadata
     id="metadata4"><rdf:RDF><cc:Work
         rdf:about=""><dc:format>
          
          
          
          image/svg+xml
        
        
        
        </dc:format><dc:type
           rdf:resource="http://purl.org/dc/dcmitype/StillImage" /><dc:title></dc:title></cc:Work></rdf:RDF></metadata><defs
     id="defs6" /><path
     id="path8"
     d="M 230.44,531.14 C 156.12,477.22 105.18,409.12 74.7,322.98 47.06,244.88 35.97,150.23 40.79,33.63 l 0.02,-0.46 379.82,0 0.02,0.46 c 4.81,116.6 -6.28,211.24 -33.91,289.35 C 356.26,409.12 305.32,477.22 231,531.14 l -0.28,0.2 -0.28,-0.2 z"
     style="fill:#0085ca;fill-opacity:1" /><path
     style="opacity:1;fill:#ffffff;fill-opacity:1;fill-rule:evenodd;stroke:none;stroke-width:1px;stroke-linecap:butt;stroke-linejoin:miter;stroke-opacity:1"
     id="path4270"
     d="M 371.68301,359.71906 C 310.87657,325.69818 234.44273,264.86581 236.52499,180.68069 c 39.75645,34.01098 51.69669,11.66453 51.65179,-5.77395 -0.0448,-17.43851 -10.39953,-37.75668 -49.39241,-7.53125 31.38018,-41.84604 3.56669,-47.63513 -8.28437,-47.63513 -11.85106,0 -39.66455,5.78909 -8.28437,47.63513 -38.99288,-30.22543 -49.34756,-9.90726 -49.39241,7.53125 -0.0449,17.43848 11.89534,39.78493 51.65179,5.77395 2.08226,84.18512 -74.35158,145.01749 -135.15802,179.03837 50.95435,114.27788 140.23336,169.28715 141.18301,171.13549 0.94965,-1.84834 90.22866,-56.85761 141.18301,-171.13549 z" /><path
     id="path10"
     d="M 419.96,33.21 C 429.03,252.66 383.7,419.16 230.5,530.31 77.31,419.16 31.99,252.66 41.06,33.21 l 189.45,0 189.45,0 m 0.92,-0.95 -0.92,0 -189.45,0 -189.45,0 -0.92,0 -0.04,0.92 c -4.82,116.66 6.28,211.36 33.93,289.52 30.51,86.24 81.51,154.41 155.91,208.39 l 0.56,0.41 0.56,-0.41 C 305.46,477.11 356.46,408.94 386.97,322.7 414.62,244.54 425.72,149.84 420.9,33.18 l -0.04,-0.92 0,0 z" /><path
     d="M 371.68301,359.71906 C 310.87657,325.69818 234.44273,264.86581 236.52499,180.68069 c 39.75645,34.01098 51.69669,11.66453 51.65179,-5.77395 -0.0448,-17.43851 -10.39953,-37.75668 -49.39241,-7.53125 31.38018,-41.84604 3.56669,-47.63513 -8.28437,-47.63513 -11.85106,0 -39.66455,5.78909 -8.28437,47.63513 -38.99288,-30.22543 -49.34756,-9.90726 -49.39241,7.53125 -0.0449,17.43848 11.89534,39.78493 51.65179,5.77395 2.08226,84.18512 -74.35158,145.01749 -135.15802,179.03837"
     id="path4268"
     style="opacity:1;fill:none;fill-opacity:1;fill-rule:evenodd;stroke:#000000;stroke-width:1px;stroke-linecap:butt;stroke-linejoin:miter;stroke-opacity:1" /></svg>