<?xml version="1.0" encoding="UTF-8" standalone="no"?>
<svg
   xmlns:dc="http://purl.org/dc/elements/1.1/"
   xmlns:cc="http://creativecommons.org/ns#"
   xmlns:rdf="http://www.w3.org/1999/02/22-rdf-syntax-ns#"
   xmlns:svg="http://www.w3.org/2000/svg"
   xmlns="http://www.w3.org/2000/svg"
   xml:space="preserve"
   enable-background="new 30.5 31.5 412 533"
   viewBox="30.5 31.5 440 500"
   height="500"
   width="440"
   y="0"
   x="0"
   version="1.1"
   id="svg2"><metadata
     id="metadata4"><rdf:RDF><cc:Work
         rdf:about=""><dc:format>
          
          
          
          
          image/svg+xml
        
        
        
        
        </dc:format><dc:type
           rdf:resource="http://purl.org/dc/dcmitype/StillImage" /><dc:title></dc:title></cc:Work></rdf:RDF></metadata><defs
     id="defs6" /><path
     style="fill:#ffe000;fill-opacity:1;fill-rule:evenodd;stroke:none;stroke-width:1px;stroke-linecap:round;stroke-linejoin:round;stroke-opacity:1"
     d="m 300.60647,500 110.63962,0 C 451.15447,500 468.5,475.11388 468.5,444.7286 l 0,-411.2286 -218,0 -218,0 0,411.2286 C 32.5,475.11388 49.84553,500 89.75392,500 l 110.63961,0 c 29.82016,0 42.71323,18.77085 50.10647,30.3 7.39324,-11.52915 20.28631,-30.3 50.10647,-30.3 z"
     id="path4384" /><path
     id="path4226"
     d="m 396.48557,325.92067 1.64537,9.78554 -148.47203,3.35196 -79.95406,-12.02761 c 13.99052,-12.60892 21.98112,-10.06016 31.25208,-10.74599 l 46.43448,9.76012 c 1.95651,4.18382 10.46541,-2.28001 16.15631,-4.16458 l -0.67815,-6.58141 72.13043,4.06908 -0.48798,4.67068 7.80176,-0.18661 -0.18026,2.78436 z"
     style="fill:#e00e00;fill-opacity:1;fill-rule:evenodd;stroke:none;stroke-width:1px;stroke-linecap:butt;stroke-linejoin:miter;stroke-opacity:1" /><path
     id="path4895"
     d="m 180.5,471.50002 c -28,0 -42,13 -70,13 -28,0 -42,-13 -70,-13 -0.81267,0 -1.61355,0.0109 -2.40332,0.0322 -2.16841,-3.95783 -3.36952,-8.30258 -4.23059,-12.78334 C 35.99323,458.58777 38.19936,458.5 40.5,458.5 c 28,0 42,13 70,13 28,0 42,-13 70,-13 28,0 42,13 70,13 28,0 42,-13 70,-13 28,0 42,13 70,13 28,0 42,-13 70,-13 2.30064,0 4.50677,0.0878 6.63391,0.24888 -0.86107,4.48076 -2.06218,8.82551 -4.23059,12.78334 -0.78977,-0.0213 -1.59065,-0.0322 -2.40332,-0.0322 -28,0 -42,13 -70,13 -28,0 -42,-13 -70,-13 -28,0 -42,13 -70,13 -28,0 -42,-13 -70,-13 z"
     style="fill:#e00e00;fill-opacity:1;fill-rule:evenodd;stroke:none;stroke-width:1px;stroke-linecap:butt;stroke-linejoin:miter;stroke-opacity:1" /><path
     style="fill:#e00e00;fill-opacity:1;fill-rule:evenodd;stroke:none;stroke-width:1px;stroke-linecap:butt;stroke-linejoin:miter;stroke-opacity:1"
     d="m 180.5,433.5 c -28,0 -42,13 -70,13 -28,0 -42,-13 -70,-13 -2.78655,0 -5.43444,0.12875 -7.97127,0.36063 l -0.10102,-12.9907 C 34.99525,420.6322 37.67644,420.5 40.5,420.5 c 28,0 42,13 70,13 28,0 42,-13 70,-13 28,0 42,13 70,13 28,0 42,-13 70,-13 28,0 42,13 70,13 28,0 42,-13 70,-13 2.82356,0 5.50475,0.1322 8.07229,0.36993 l -0.10102,12.9907 C 465.93444,433.62875 463.28655,433.5 460.5,433.5 c -28,0 -42,13 -70,13 -28,0 -42,-13 -70,-13 -28,0 -42,13 -70,13 -28,0 -42,-13 -70,-13 z"
     id="path4893" /><path
     id="path4891"
     d="m 180.5,395.5 c -28,0 -42,13 -70,13 -28,0 -42,-13 -70,-13 -2.78655,0 -5.43444,0.12875 -7.97127,0.36063 l -0.10102,-12.9907 C 34.99525,382.6322 37.67644,382.5 40.5,382.5 c 28,0 42,13 70,13 28,0 42,-13 70,-13 28,0 42,13 70,13 28,0 42,-13 70,-13 28,0 42,13 70,13 28,0 42,-13 70,-13 2.82356,0 5.50475,0.1322 8.07229,0.36993 l -0.10102,12.9907 C 465.93444,395.62875 463.28655,395.5 460.5,395.5 c -28,0 -42,13 -70,13 -28,0 -42,-13 -70,-13 -28,0 -42,13 -70,13 -28,0 -42,-13 -70,-13 z"
     style="fill:#e00e00;fill-opacity:1;fill-rule:evenodd;stroke:none;stroke-width:1px;stroke-linecap:butt;stroke-linejoin:miter;stroke-opacity:1" /><path
     style="fill:none;fill-rule:evenodd;stroke:#000000;stroke-width:1px;stroke-linecap:butt;stroke-linejoin:miter;stroke-opacity:1"
     d="M 32.42771,382.86993 C 34.99525,382.6322 37.67644,382.5 40.5,382.5 c 28,0 42,13 70,13 28,0 42,-13 70,-13 28,0 42,13 70,13 28,0 42,-13 70,-13 28,0 42,13 70,13 28,0 42,-13 70,-13 2.82356,0 5.50475,0.1322 8.07229,0.36993 m -0.10102,12.9907 C 465.93444,395.62875 463.28655,395.5 460.5,395.5 c -28,0 -42,13 -70,13 -28,0 -42,-13 -70,-13 -28,0 -42,13 -70,13 -28,0 -42,-13 -70,-13 -28,0 -42,13 -70,13 -28,0 -42,-13 -70,-13 -2.78655,0 -5.43444,0.12875 -7.97127,0.36063"
     id="path4879" /><path
     id="path4883"
     d="M 32.42771,420.86993 C 34.99525,420.6322 37.67644,420.5 40.5,420.5 c 28,0 42,13 70,13 28,0 42,-13 70,-13 28,0 42,13 70,13 28,0 42,-13 70,-13 28,0 42,13 70,13 28,0 42,-13 70,-13 2.82356,0 5.50475,0.1322 8.07229,0.36993 m -0.10102,12.9907 C 465.93444,433.62875 463.28655,433.5 460.5,433.5 c -28,0 -42,13 -70,13 -28,0 -42,-13 -70,-13 -28,0 -42,13 -70,13 -28,0 -42,-13 -70,-13 -28,0 -42,13 -70,13 -28,0 -42,-13 -70,-13 -2.78655,0 -5.43444,0.12875 -7.97127,0.36063"
     style="fill:none;fill-rule:evenodd;stroke:#000000;stroke-width:1px;stroke-linecap:butt;stroke-linejoin:miter;stroke-opacity:1" /><path
     style="fill:none;fill-rule:evenodd;stroke:#000000;stroke-width:1px;stroke-linecap:butt;stroke-linejoin:miter;stroke-opacity:1"
     d="M 33.86609,458.74888 C 35.99323,458.58777 38.19936,458.5 40.5,458.5 c 28,0 42,13 70,13 28,0 42,-13 70,-13 28,0 42,13 70,13 28,0 42,-13 70,-13 28,0 42,13 70,13 28,0 42,-13 70,-13 2.30064,0 4.50677,0.0878 6.63391,0.24888 m -4.23059,12.78334 c -0.78977,-0.0213 -1.59065,-0.0322 -2.40332,-0.0322 -28,0 -42,13 -70,13 -28,0 -42,-13 -70,-13 -28,0 -42,13 -70,13 -28,0 -42,-13 -70,-13 -28,0 -42,13 -70,13 -28,0 -42,-13 -70,-13 -0.81267,0 -1.61355,0.0109 -2.40332,0.0322"
     id="path4887" /><path
     style="fill:none;fill-rule:evenodd;stroke:#000000;stroke-width:6;stroke-linecap:round;stroke-linejoin:miter;stroke-miterlimit:4;stroke-dasharray:none;stroke-opacity:1"
     d="m 58.17548,287.99759 102.61539,31.9976"
     id="path4897" /><path
     style="fill:#e00e00;fill-opacity:1;fill-rule:evenodd;stroke:#000000;stroke-width:1.5;stroke-linecap:butt;stroke-linejoin:miter;stroke-miterlimit:4;stroke-dasharray:none;stroke-opacity:1"
     d="m 137.50722,314.97596 c 3.22111,6.88449 2.31361,14.56528 3.48557,23.63221 1.34067,10.37215 6.20293,13.39512 9.55048,19.79808 l 38.20192,-2.85817 43.70914,8.64423 40.08413,1.32452 40.57212,-9.31537 46.07932,2.20479 33.94952,5.64663 16.24279,-5.50721 c 1.11406,-4.23712 2.03812,-13.3579 1.8125,-21.88942 -0.28233,-10.67592 -0.27534,-13.82274 -2.71875,-19.37981 -2.11264,-4.8048 -12.79528,1.39683 -11.72476,8.26778 0.29333,1.88269 1.8307,7.42542 1.33775,7.48704 -47.63615,2.43564 -95.45622,5.4689 -139.28366,3.27643 -22.12745,-1.15775 -41.39598,-0.97147 -66.15625,-6.48317 l -20.35577,-4.53125 c -11.75152,-2.61592 -23.09775,-6.40073 -34.78605,-10.31731 z"
     id="path4899" /><path
     style="fill:#e00e00;fill-opacity:1;fill-rule:evenodd;stroke:#000000;stroke-width:1.29999995;stroke-linecap:butt;stroke-linejoin:miter;stroke-miterlimit:4;stroke-dasharray:none;stroke-opacity:1"
     d="m 141.80473,312.2425 c 15.53432,-27.79675 33.64171,-56.88004 50.57513,-85.37634 l 52.15252,-86.75656 c -5.11466,21.10034 -9.45706,44.51748 -13.80218,67.92644 -4.97224,26.7875 -6.47625,52.65357 -5.71804,86.85515 -30.94501,-2.07609 -60.57315,2.79924 -83.20743,17.35131 z"
     id="path4901" /><path
     style="fill:#000000;fill-opacity:1;fill-rule:evenodd;stroke:none;stroke-width:0.60000002;stroke-linecap:butt;stroke-linejoin:miter;stroke-miterlimit:4;stroke-dasharray:none;stroke-opacity:1"
     d="m 205.61538,204.97115 20.4952,34.4375 c 3.85212,-32.38674 11.00841,-64.30145 17.28846,-96.34134 -11.41217,17.08747 -25.04113,40.8253 -37.78366,61.90384 z"
     id="path4943" /><path
     style="fill:#e00e00;fill-opacity:1;fill-rule:evenodd;stroke:#000000;stroke-width:1.29999995;stroke-linecap:butt;stroke-linejoin:miter;stroke-miterlimit:4;stroke-dasharray:none;stroke-opacity:1"
     d="M 195.1403,158.64395 64.70969,286.21554 c 16.49069,-4.99705 31.87886,-8.17884 45.74437,-8.28131 10.54888,-0.078 21.09762,2.53866 31.64643,4.92935 5.99819,-21.66014 10.74853,-42.92684 23.06936,-67.72927 9.99015,-20.11065 19.9803,-37.66297 29.97045,-56.49036 z"
     id="path4903" /><path
     style="fill:none;fill-rule:evenodd;stroke:#000000;stroke-width:1.79999995;stroke-linecap:butt;stroke-linejoin:miter;stroke-miterlimit:4;stroke-dasharray:none;stroke-opacity:1"
     d="M 142.10049,282.86358 177.6904,320.6224"
     id="path4905" /><path
     style="fill:none;fill-rule:evenodd;stroke:#000000;stroke-width:1.79999995;stroke-linecap:round;stroke-linejoin:miter;stroke-miterlimit:4;stroke-dasharray:none;stroke-opacity:1"
     d="m 225.01216,294.89119 22.37925,31.1535"
     id="path4907" /><path
     style="fill:none;fill-rule:evenodd;stroke:#000000;stroke-width:1.7;stroke-linecap:butt;stroke-linejoin:miter;stroke-miterlimit:4;stroke-dasharray:none;stroke-opacity:1"
     d="m 269.67207,97.717186 37.26589,5.520874 -36.67437,-22.477839 61.91264,4.535002"
     id="path4915" /><path
     style="fill:#e00e00;fill-opacity:1;fill-rule:evenodd;stroke:#000000;stroke-width:1.29999995;stroke-linecap:butt;stroke-linejoin:miter;stroke-miterlimit:4;stroke-dasharray:none;stroke-opacity:1"
     d="m 252.46154,296.71154 c 16.92756,-6.12329 50.12726,-18.02711 84.35096,-19.65866 13.42503,-0.64001 35.30041,-0.72009 52.42308,6.69231 -14.96251,-18.28934 -34.09393,-49.50918 -41.6875,-87.55769 -7.82479,-39.20707 -10.67063,-79.79407 -8.78365,-118.091346 -21.08149,13.128543 -46.9663,32.489006 -70.54808,47.124996 0.96251,6.45578 7.23282,19.19414 -1.88222,21.68029 3.47477,0.58556 5.56003,3.08997 5.4375,6.48317 -0.11237,3.11168 -3.02609,3.8602 -6.27403,3.90385 2.79782,2.43572 4.56805,4.94966 4.53125,10.875 -0.0153,2.4708 -1.8079,6.51553 -6.41347,9.62019 3.18446,4.90767 5.17451,8.81905 4.8101,15.75481 -0.33294,6.33678 -3.21793,11.31267 -8.01683,15.61539 5.56412,2.92328 7.29394,9.29681 5.15865,16.9399 -2.206,7.89622 -5.41882,11.78402 -8.64422,15.40625 1.59296,4.00836 4.04362,11.06837 4.18269,18.40385 0.168,8.86178 -3.14688,11.12305 -6.27404,13.66346 2.69388,2.36465 4.83097,5.29386 4.60096,10.03846 -0.25782,5.31827 -4.21646,9.59912 -6.97115,13.10577 z"
     id="path4937" /><path
     style="fill:#000000;fill-rule:evenodd;stroke:#000000;stroke-width:1px;stroke-linecap:butt;stroke-linejoin:miter;stroke-opacity:1"
     d="M 250.40677,329.47975 275.29153,46.649118 c 0.11316,-1.286081 -2.76114,-1.369396 -2.85902,-0.394348 l -27.90013,279.39557 z"
     id="path4909" /><path
     style="fill:none;fill-rule:evenodd;stroke:#000000;stroke-width:1.79999995;stroke-linecap:round;stroke-linejoin:miter;stroke-miterlimit:4;stroke-dasharray:none;stroke-opacity:1"
     d="m 193.98446,160.15505 c 28.20423,-28.97982 50.85346,-50.99746 75.88478,-76.042871"
     id="path4911" /><path
     style="fill:none;fill-rule:evenodd;stroke:#000000;stroke-width:1.79999995;stroke-linecap:round;stroke-linejoin:miter;stroke-miterlimit:4;stroke-dasharray:none;stroke-opacity:1"
     d="M 244.13803,140.94759 268.6862,99.688926"
     id="path4913" /><path
     style="fill:none;fill-rule:evenodd;stroke:#000000;stroke-width:1.79999995;stroke-linecap:butt;stroke-linejoin:miter;stroke-miterlimit:4;stroke-dasharray:none;stroke-opacity:1"
     d="M 342.2321,75.633697 C 368.82143,141.52145 388.50188,209.71215 391.52561,283.4551"
     id="path4917" /><path
     style="fill:#e00e00;fill-opacity:1;fill-rule:evenodd;stroke:#000000;stroke-width:1.29999995;stroke-linecap:round;stroke-linejoin:round;stroke-miterlimit:4;stroke-dasharray:none;stroke-opacity:1"
     d="m 359.38624,120.49078 c 6.86176,-1.73363 15.26852,-1.39984 21.78773,2.07033 9.97533,5.30985 16.95826,9.89343 26.71708,5.61946 -7.71645,-10.4852 -15.25091,-22.70309 -16.26686,-36.575779 -10.43735,-4.803782 -14.70345,-3.508341 -22.18207,-3.94348 -10.39047,-0.604564 -9.5943,-11.055462 -25.43544,-7.788373 z"
     id="path4919" /><path
     style="fill:none;fill-rule:evenodd;stroke:#000000;stroke-width:2.4000001;stroke-linecap:butt;stroke-linejoin:miter;stroke-miterlimit:4;stroke-dasharray:none;stroke-opacity:1"
     d="m 351.00635,99.19599 c 17.1519,0.386063 34.35242,8.65193 44.95567,8.97142"
     id="path4921" /><path
     style="fill:none;fill-rule:evenodd;stroke:#000000;stroke-width:2.4000001;stroke-linecap:butt;stroke-linejoin:miter;stroke-miterlimit:4;stroke-dasharray:none;stroke-opacity:1"
     d="m 371.24133,87.981719 c 4.821,12.522991 7.70773,22.910831 9.93264,34.579391"
     id="path4923" /><path
     style="fill:none;fill-rule:evenodd;stroke:#000000;stroke-width:1.79999995;stroke-linecap:butt;stroke-linejoin:miter;stroke-miterlimit:4;stroke-dasharray:none;stroke-opacity:1"
     d="m 348.73885,93.477944 c 8.04682,0.406919 14.36062,2.051706 20.60468,3.746306 l -3.84489,-10.376282"
     id="path4925" /><path
     style="fill:none;fill-rule:evenodd;stroke:#000000;stroke-width:1.79999995;stroke-linecap:round;stroke-linejoin:round;stroke-miterlimit:4;stroke-dasharray:none;stroke-opacity:1"
     d="m 376.34321,88.055659 4.535,12.421961 c 4.2721,1.21059 8.54421,2.07437 12.81631,2.76044"
     id="path4927" /><path
     style="fill:none;fill-rule:evenodd;stroke:#000000;stroke-width:1.79999995;stroke-linecap:butt;stroke-linejoin:miter;stroke-miterlimit:4;stroke-dasharray:none;stroke-opacity:1"
     d="m 399.04286,114.50162 c -5.21104,-1.44127 -10.61981,-2.52599 -15.30563,-3.17943 2.31552,5.54867 3.41844,10.18789 4.73218,14.98522"
     id="path4929" /><path
     style="fill:none;fill-rule:evenodd;stroke:#000000;stroke-width:1.79999995;stroke-linecap:butt;stroke-linejoin:round;stroke-miterlimit:4;stroke-dasharray:none;stroke-opacity:1"
     d="m 374.07571,119.80067 c -0.34526,-3.10569 -1.69238,-8.10052 -2.85903,-11.43609 -4.63397,-2.34271 -12.16402,-3.15447 -17.64707,-3.15478"
     id="path4931" /><path
     style="fill:none;fill-rule:evenodd;stroke:#000000;stroke-width:2.20000005;stroke-linecap:round;stroke-linejoin:miter;stroke-miterlimit:4;stroke-dasharray:none;stroke-opacity:1"
     d="M 252.60096,298.38461 395.09135,283.04808"
     id="path4933" /><path
     style="fill:none;fill-rule:evenodd;stroke:#000000;stroke-width:1.79999995;stroke-linecap:butt;stroke-linejoin:miter;stroke-miterlimit:4;stroke-dasharray:none;stroke-opacity:1"
     d="m 278.25481,315.53365 c -4.28579,-65.00356 6.14874,-129.86958 -10.03846,-190.3125"
     id="path4935" /><path
     style="fill:#000000;fill-opacity:1;fill-rule:evenodd;stroke:#000000;stroke-width:1px;stroke-linecap:round;stroke-linejoin:round;stroke-opacity:1"
     d="m 307.25481,150.52644 11.57211,-5.01923 c -1.08851,-17.96234 -0.8832,-35.92468 0.76683,-53.887019 l -12.96635,8.574519 c -2.232,14.92755 -1.70836,42.48905 0.62741,50.33173 z"
     id="path4939" /><path
     style="fill:#000000;fill-opacity:1;fill-rule:evenodd;stroke:#000000;stroke-width:1px;stroke-linecap:round;stroke-linejoin:round;stroke-opacity:1"
     d="m 322.9399,174.08894 c -4.29888,2.36611 -9.28786,4.58238 -12.89663,6.97116 1.00441,9.44736 1.04323,41.00096 19.51923,66.15625 6.9268,0.25043 12.53618,-1.84281 16.87019,-4.53125 -12.46499,-21.37899 -20.52477,-44.19859 -23.49279,-68.59616 z"
     id="path4941" /><path
     style="fill:none;fill-rule:evenodd;stroke:#000000;stroke-width:1.5;stroke-linecap:butt;stroke-linejoin:miter;stroke-miterlimit:4;stroke-dasharray:none;stroke-opacity:1"
     d="m 139.8077,323.48077 c 81.43103,26.41118 193.53541,22.08974 258.49038,15.19711"
     id="path4945" /><path
     style="fill:none;fill-rule:evenodd;stroke:#000000;stroke-width:1.29999995;stroke-linecap:butt;stroke-linejoin:miter;stroke-miterlimit:4;stroke-dasharray:none;stroke-opacity:1"
     d="M 398.15865,345.64904 C 336.33706,352.58212 221.27272,360.44 140.92308,333.24038"
     id="path4947" /><path
     style="fill:none;fill-rule:evenodd;stroke:#000000;stroke-width:1.20000005;stroke-linecap:butt;stroke-linejoin:miter;stroke-miterlimit:4;stroke-dasharray:none;stroke-opacity:1"
     d="m 141.0625,340.90865 c 41.352,11.18219 73.56699,12.91732 109.4375,17.98558 48.60733,-1.45498 96.19407,-0.22178 145.84615,-5.85577"
     id="path4949" /><path
     style="fill:none;fill-rule:evenodd;stroke:#000000;stroke-width:1px;stroke-linecap:butt;stroke-linejoin:miter;stroke-opacity:1"
     d="m 143.08414,347.04327 c 10.58319,3.41815 16.58387,3.62479 22.72595,4.87981"
     id="path4953" /><path
     style="fill:none;fill-rule:evenodd;stroke:#000000;stroke-width:1.79999995;stroke-linecap:butt;stroke-linejoin:miter;stroke-miterlimit:4;stroke-dasharray:none;stroke-opacity:1"
     d="m 384.21635,283.46635 c -1.07574,14.83778 -4.2269,28.75314 -8.64423,42.10577"
     id="path4957" /><path
     style="fill:none;fill-rule:evenodd;stroke:#000000;stroke-width:4;stroke-linecap:round;stroke-linejoin:round;stroke-miterlimit:4;stroke-dasharray:none;stroke-opacity:1"
     d="m 413.63462,325.71154 -55.35097,-1.11539"
     id="path4959" /><path
     id="path4174"
     d="m 396.27644,357.70914 c 2.01081,-7.88727 4.48612,-20.36615 0.20913,-31.78847"
     style="fill:none;fill-rule:evenodd;stroke:#000000;stroke-width:1.5;stroke-linecap:butt;stroke-linejoin:miter;stroke-miterlimit:4;stroke-dasharray:none;stroke-opacity:1" /><path
     id="path4176"
     d="m 162.82156,321.54081 11.07507,2.91592"
     style="fill:none;fill-rule:evenodd;stroke:#000000;stroke-width:2;stroke-linecap:round;stroke-linejoin:miter;stroke-miterlimit:4;stroke-dasharray:none;stroke-opacity:1" /><path
     id="path4180"
     d="m 348.31358,325.58274 -2.09002,-9.00341 c 1.17256,-3.21045 4.09068,-6.15235 7.66827,-8.99279 -2.66006,-2.64048 -2.55993,-3.64988 -2.26563,-5.47236 -0.38615,-1.22759 -1.3308,-3.00066 -1.08053,-4.14783 -1.06225,-1.94897 7.7823,-1.23804 11.57212,-1.95193 l 2.57933,2.71875 -2.16106,2.16106 -3.06876,6.50009 5.7178,8.62731 c 0.46253,3.35139 -1.0537,5.84532 -2.50962,8.36539 -4.41062,1.78419 -6.44939,6.54038 -14.3619,1.19572 z"
     style="fill:#e00e00;fill-opacity:1;fill-rule:evenodd;stroke:none;stroke-width:1px;stroke-linecap:butt;stroke-linejoin:miter;stroke-opacity:1" /><path
     style="fill:#e00e00;fill-opacity:1;fill-rule:evenodd;stroke:none;stroke-width:1px;stroke-linecap:butt;stroke-linejoin:miter;stroke-opacity:1"
     d="m 180.5,357.5 c -28,0 -42,13 -70,13 -28,0 -42,-13 -70,-13 -2.78655,0 -5.43444,0.12875 -7.97127,0.36063 l -0.10102,-12.9907 C 34.99525,344.6322 37.67644,344.5 40.5,344.5 c 28,0 42,13 70,13 28,0 42,-13 70,-13 28,0 42,13 70,13 28,0 42,-13 70,-13 28,0 42,13 70,13 28,0 42,-13 70,-13 2.82356,0 5.50475,0.1322 8.07229,0.36993 l -0.10102,12.9907 C 465.93444,357.62875 463.28655,357.5 460.5,357.5 c -28,0 -42,13 -70,13 -28,0 -42,-13 -70,-13 -28,0 -42,13 -70,13 -28,0 -42,-13 -70,-13 z"
     id="path4889" /><path
     id="path4881"
     d="M 32.42771,344.86993 C 34.99525,344.6322 37.67644,344.5 40.5,344.5 c 28,0 42,13 70,13 28,0 42,-13 70,-13 28,0 42,13 70,13 28,0 42,-13 70,-13 28,0 42,13 70,13 28,0 42,-13 70,-13 2.82356,0 5.50475,0.1322 8.07229,0.36993 m -0.10102,12.9907 C 465.93444,357.62875 463.28655,357.5 460.5,357.5 c -28,0 -42,13 -70,13 -28,0 -42,-13 -70,-13 -28,0 -42,13 -70,13 -28,0 -42,-13 -70,-13 -28,0 -42,13 -70,13 -28,0 -42,-13 -70,-13 -2.78655,0 -5.43444,0.12875 -7.97127,0.36063"
     style="fill:none;fill-rule:evenodd;stroke:#000000;stroke-width:1px;stroke-linecap:butt;stroke-linejoin:miter;stroke-opacity:1" /><path
     id="path4404"
     d="m 300.60647,500 110.63962,0 C 451.15447,500 468.5,475.11388 468.5,444.7286 l 0,-411.2286 -218,0 -218,0 0,411.2286 C 32.5,475.11388 49.84553,500 89.75392,500 l 110.63961,0 c 29.82016,0 42.71323,18.77085 50.10647,30.3 7.39324,-11.52915 20.28631,-30.3 50.10647,-30.3 z"
     style="fill:none;fill-rule:evenodd;stroke:#000000;stroke-width:1px;stroke-linecap:round;stroke-linejoin:round;stroke-opacity:1" /><path
     id="path4186"
     d="M 268.21635,125.22115 344.0625,74.052884"
     style="fill:none;fill-rule:evenodd;stroke:#000000;stroke-width:2;stroke-linecap:round;stroke-linejoin:miter;stroke-miterlimit:4;stroke-dasharray:none;stroke-opacity:1" /><path
     id="path4188"
     d="m 276.57316,174.41787 c 4.95766,2.26435 4.94472,30.0866 5.32369,44.46275 0.15675,5.9461 2.02095,15.0723 0.98589,17.05554 -1.2134,2.32494 -3.28776,2.27492 -5.12654,2.95761"
     style="fill:none;fill-rule:evenodd;stroke:#000000;stroke-width:1.8;stroke-linecap:butt;stroke-linejoin:round;stroke-miterlimit:4;stroke-dasharray:none;stroke-opacity:1" /><path
     id="path4190"
     d="m 173.79206,324.66586 c 2.25691,-3.34793 6.4787,-6.86292 15.02285,-7.80769 10.01312,-1.1072 19.90146,-0.43428 27.81736,1.79249 9.7228,2.73506 17.81835,6.32905 25.92837,6.8025 6.85522,0.4002 6.36944,5.60839 5.60801,10.15747"
     style="fill:none;fill-rule:evenodd;stroke:#000000;stroke-width:2;stroke-linecap:butt;stroke-linejoin:miter;stroke-miterlimit:4;stroke-dasharray:none;stroke-opacity:1" /><path
     id="path4192"
     d="m 180.94377,327.12914 c 2.64402,-3.25629 6.48277,-5.71369 13.30924,-6.40815 13.56344,-1.37982 24.92161,3.60955 37.26589,5.91522 2.21207,0.41317 3.60216,1.92273 2.95761,3.35196 l -2.2675,5.02793"
     style="fill:none;fill-rule:evenodd;stroke:#000000;stroke-width:2;stroke-linecap:butt;stroke-linejoin:round;stroke-miterlimit:4;stroke-dasharray:none;stroke-opacity:1" /><path
     id="path4194"
     d="m 238.12423,335.8048 c 1.67401,-6.09777 2.14872,-11.15896 7.80238,-9.50963"
     style="fill:none;fill-rule:evenodd;stroke:#000000;stroke-width:2;stroke-linecap:butt;stroke-linejoin:miter;stroke-miterlimit:4;stroke-dasharray:none;stroke-opacity:1" /><path
     id="path4196"
     d="m 249.65891,335.60762 0.74786,-6.12787 c 0.34168,-2.79975 7.74501,-5.53518 13.14095,-7.59964 -1.36975,-4.37619 -2.21602,-7.76114 0.9042,-7.53155 11.4611,0.84333 18.38799,1.54896 27.50081,2.42895 15.62268,1.50862 29.96275,2.38994 43.04727,2.59027 l -0.48798,4.67068 7.80176,-0.18661 -1.16613,11.16425"
     style="fill:none;fill-rule:evenodd;stroke:#000000;stroke-width:2;stroke-linecap:butt;stroke-linejoin:round;stroke-miterlimit:4;stroke-dasharray:none;stroke-opacity:1" /><path
     id="path4204"
     d="m 251.05314,335.95618 c 0.57619,-1.44128 4.1157,-4.2428 7.42084,-4.535 3.8117,-0.33699 3.13054,2.9608 4.00124,4.97514"
     style="fill:none;fill-rule:evenodd;stroke:#000000;stroke-width:2;stroke-linecap:butt;stroke-linejoin:round;stroke-miterlimit:4;stroke-dasharray:none;stroke-opacity:1" /><path
     id="path4206"
     d="m 277.76116,336.76179 c 0.18523,-1.97034 -0.25948,-5.52795 -7.79333,-5.88634 -8.39665,-0.39943 -7.43388,4.15541 -7.49261,5.52087"
     style="fill:none;fill-rule:evenodd;stroke:#000000;stroke-width:2;stroke-linecap:butt;stroke-linejoin:miter;stroke-miterlimit:4;stroke-dasharray:none;stroke-opacity:1" /><path
     id="path4208"
     d="m 285.44599,337.08643 c -0.62853,-1.53565 -0.0655,-5.69734 2.89121,-6.66411 5.18021,-1.6938 5.92665,0.19834 24.06511,-0.8285 8.78146,-0.49713 9.84615,3.88968 9.91522,6.50674"
     style="fill:none;fill-rule:evenodd;stroke:#000000;stroke-width:2;stroke-linecap:butt;stroke-linejoin:miter;stroke-miterlimit:4;stroke-dasharray:none;stroke-opacity:1" /><path
     id="path4210"
     d="m 330.40166,335.70621 c -0.0871,-1.97344 0.66837,-7.53426 5.17334,-7.57924 3.46978,-0.0346 5.04036,4.84784 5.32866,7.65596"
     style="fill:none;fill-rule:evenodd;stroke:#000000;stroke-width:2;stroke-linecap:butt;stroke-linejoin:miter;stroke-miterlimit:4;stroke-dasharray:none;stroke-opacity:1" /><path
     id="path4212"
     d="m 341.83776,329.29806 c 6.44102,0.6402 12.91058,0.52886 19.32305,1.97174 3.32693,0.7486 4.85377,3.32288 7.0306,3.05021 l 5.46169,-0.68413 c 4.92193,-0.61652 0.0532,-5.53181 -1.842,-6.11837 -3.83881,-1.18808 -6.82187,-1.49144 -12.80171,-1.7723 -2.71631,-0.12758 -6.08568,-6.19487 -1.68749,-10.65462"
     style="fill:none;fill-rule:evenodd;stroke:#000000;stroke-width:1.89999998;stroke-linecap:butt;stroke-linejoin:miter;stroke-miterlimit:4;stroke-dasharray:none;stroke-opacity:1" /><path
     id="path4214"
     d="m 357.3219,315.09059 c -1.94105,2.28898 -2.90235,9.48462 3.70785,9.10612 1.13198,-0.0648 4.27561,-1.46849 4.49178,-5.9404 0.15133,-3.1304 -1.21668,-6.14981 -4.36072,-8.97142 -1.36281,-1.16955 -2.89371,-1.48977 -4.73218,-1.57739 -3.19116,-0.15209 -5.4697,1.27795 -7.74754,4.05403 -3.38327,4.1233 -4.05449,12.4629 2.61475,14.14162"
     style="fill:none;fill-rule:evenodd;stroke:#000000;stroke-width:1.89999998;stroke-linecap:round;stroke-linejoin:miter;stroke-miterlimit:4;stroke-dasharray:none;stroke-opacity:1" /><path
     id="path4220"
     d="m 358.59755,300.70783 c -2.371,0.0483 -4.38761,-0.0806 -6.58038,-0.12149 -2.3309,-0.0434 -2.185,-3.63198 1.24284,-3.50829 3.48467,0.12574 4.59729,-1.18422 7.14985,-1.4819 1.66515,-0.19419 4.15639,1.42911 4.04327,3.20673 -0.16667,2.61915 -2.88705,1.84451 -5.85558,1.90495 z"
     style="fill:none;fill-rule:evenodd;stroke:#000000;stroke-width:1.89999998;stroke-linecap:butt;stroke-linejoin:miter;stroke-miterlimit:4;stroke-dasharray:none;stroke-opacity:1" /><path
     id="path4222"
     d="m 351.91857,303.18343 c -0.0815,1.73705 1.87905,4.13321 4.64948,4.00123 3.40441,-0.16217 5.16734,-2.12607 5.11253,-3.83395 -0.0587,-1.82915 -1.54443,-3.01033 -5.22269,-2.42 -1.87137,0.30033 -4.42993,-0.0793 -4.53932,2.25272 z"
     style="fill:none;fill-rule:evenodd;stroke:#000000;stroke-width:1.89999998;stroke-linecap:butt;stroke-linejoin:miter;stroke-miterlimit:4;stroke-dasharray:none;stroke-opacity:1" /><path
     id="path4224"
     d="m 263.54772,321.88011 c 16.57626,2.40925 50.35932,3.42624 70.9643,2.15835"
     style="fill:none;fill-rule:evenodd;stroke:#000000;stroke-width:2;stroke-linecap:butt;stroke-linejoin:miter;stroke-miterlimit:4;stroke-dasharray:none;stroke-opacity:1" /><path
     id="path4228"
     d="m 351.29584,325.90315 -8.12716,-0.3021"
     style="fill:none;fill-rule:evenodd;stroke:#000000;stroke-width:2;stroke-linecap:round;stroke-linejoin:miter;stroke-miterlimit:4;stroke-dasharray:none;stroke-opacity:1" /><path
     id="path4230"
     d="m 356.69111,323.8866 c 2.5046,0.57085 5.06665,0.6822 7.67378,0.43281"
     style="fill:none;fill-rule:evenodd;stroke:#000000;stroke-width:2;stroke-linecap:butt;stroke-linejoin:miter;stroke-miterlimit:4;stroke-dasharray:none;stroke-opacity:1" /><path
     id="path4232"
     d="m 407.43502,315.93106 c -4.18979,-2.27641 -13.1083,5.37585 -10.94945,9.98961"
     style="fill:none;fill-rule:evenodd;stroke:#000000;stroke-width:1;stroke-linecap:butt;stroke-linejoin:miter;stroke-miterlimit:4;stroke-dasharray:none;stroke-opacity:1" /><path
     id="path4234"
     d="m 65.54768,285.69796 -3.95633,2.0905"
     style="fill:none;fill-rule:evenodd;stroke:#000000;stroke-width:1.39999998;stroke-linecap:butt;stroke-linejoin:miter;stroke-miterlimit:4;stroke-dasharray:none;stroke-opacity:1" /><path
     id="path4293"
     d="m 155.41024,197.98589 9.75961,17.14842 c 13.29065,-26.97385 19.91361,-36.69524 28.81461,-54.97926 -4.23236,3.81571 -25.61412,23.9321 -38.57422,37.83084 z"
     style="fill:#000000;fill-opacity:1;fill-rule:evenodd;stroke:none;stroke-width:0.60000002;stroke-linecap:butt;stroke-linejoin:miter;stroke-miterlimit:4;stroke-dasharray:none;stroke-opacity:1" /></svg>