<?xml version="1.0" encoding="UTF-8" standalone="no"?>
<svg
   xmlns:dc="http://purl.org/dc/elements/1.1/"
   xmlns:cc="http://creativecommons.org/ns#"
   xmlns:rdf="http://www.w3.org/1999/02/22-rdf-syntax-ns#"
   xmlns:svg="http://www.w3.org/2000/svg"
   xmlns="http://www.w3.org/2000/svg"
   xml:space="preserve"
   enable-background="new 30.5 31.5 412 533"
   viewBox="30.5 31.5 400 500"
   height="500"
   width="400"
   y="0"
   x="0"
   version="1.1"
   id="svg2"><metadata
     id="metadata4"><rdf:RDF><cc:Work
         rdf:about=""><dc:format>
          
          
          image/svg+xml
        
        
        </dc:format><dc:type
           rdf:resource="http://purl.org/dc/dcmitype/StillImage" /><dc:title></dc:title></cc:Work></rdf:RDF></metadata><defs
     id="defs6" /><path
     style="fill:#0085ca;fill-opacity:1"
     d="M 230.44,531.14 C 156.12,477.22 105.18,409.12 74.7,322.98 47.06,244.88 35.97,150.23 40.79,33.63 l 0.02,-0.46 379.82,0 0.02,0.46 c 4.81,116.6 -6.28,211.24 -33.91,289.35 C 356.26,409.12 305.32,477.22 231,531.14 l -0.28,0.2 -0.28,-0.2 z"
     id="path8" /><path
     d="M 419.96,33.21 C 429.03,252.66 383.7,419.16 230.5,530.31 77.31,419.16 31.99,252.66 41.06,33.21 l 189.45,0 189.45,0 m 0.92,-0.95 -0.92,0 -189.45,0 -189.45,0 -0.92,0 -0.04,0.92 c -4.82,116.66 6.28,211.36 33.93,289.52 30.51,86.24 81.51,154.41 155.91,208.39 l 0.56,0.41 0.56,-0.41 C 305.46,477.11 356.46,408.94 386.97,322.7 414.62,244.54 425.72,149.84 420.9,33.18 l -0.04,-0.92 0,0 z"
     id="path10" /><path
     id="path4355"
     d="m 74.54622,96.38098 c -6.48289,-10.184201 -5.9513,-18.117188 -5.29791,-28.273891 0.12955,-2.014714 2.45528,-1.821534 3.44938,-1.107481 0.24705,0.177456 1.60324,-0.284969 2.83718,0.370796 4.78267,2.541766 9.62993,4.991118 14.02354,7.862245 7.16573,4.682649 13.48371,9.763354 18.4621,13.931164 15.21545,12.738127 22.11936,20.653667 31.84672,31.192777 l 11.38808,2.83074 c 4.26984,1.06136 16.05117,19.30723 15.27457,19.90906 l -4.75508,3.68494 c 4.89918,9.14806 6.71052,19.24649 18.84555,29.86546 10.1265,8.86137 21.75647,13.51928 32.10005,18.49897 -3.90929,3.32942 -12.51002,6.74197 -23.66532,5.09069 -0.34651,9.34188 -2.71,18.49409 -8.76134,24.54489 -2.27734,-9.96339 -5.31366,-19.96396 -10.25806,-30.23991 -4.48501,-9.32117 -17.53975,-14.67605 -18.03349,-13.30955 l -2.03448,5.63083 c -1.24877,3.45622 -16.68891,-8.09751 -16.45006,-10.43718 l 0.32654,-3.19873 c 0.11477,-1.12453 -12.33222,-11.4488 -13.49149,-8.77973 -1.30133,2.99617 -1.62333,4.43333 -2.89778,3.87453 -5.42051,-2.37671 -7.6349,-6.11127 -7.57191,-11.61601 0.0376,-3.29707 -14.62863,-14.23849 -20.4673,-24.19251 -6.51825,-11.11259 -7.62409,-14.8856 -14.86948,-36.132164 z"
     style="fill:#ffffff;fill-rule:evenodd;stroke:#000000;stroke-width:1;stroke-linecap:round;stroke-linejoin:round;stroke-miterlimit:4;stroke-dasharray:none;stroke-opacity:1" /><path
     id="path4357"
     d="m 74.54622,96.38098 c 2.81838,2.063073 7.00665,3.242835 9.30373,2.826206 2.62288,-0.475705 4.81555,-2.530491 6.35532,-4.043016"
     style="fill:none;fill-rule:evenodd;stroke:#000000;stroke-width:1;stroke-linecap:round;stroke-linejoin:miter;stroke-miterlimit:4;stroke-dasharray:none;stroke-opacity:1" /><path
     id="path4359"
     d="m 88.65285,107.31008 c 0.0382,2.99208 -0.0813,5.96805 0.74472,9.04055 0.55799,2.07548 9.10554,1.79353 8.50323,0.45109 -0.98362,-2.19234 -1.26432,-3.36162 -1.70271,-4.76038"
     style="fill:none;fill-rule:evenodd;stroke:#000000;stroke-width:1;stroke-linecap:round;stroke-linejoin:miter;stroke-miterlimit:4;stroke-dasharray:none;stroke-opacity:1" /><path
     id="path4361"
     d="m 72.69769,66.999608 c 1.2375,4.315556 2.25494,7.124985 3.09082,10.063794"
     style="fill:none;fill-rule:evenodd;stroke:#000000;stroke-width:1;stroke-linecap:round;stroke-linejoin:miter;stroke-miterlimit:4;stroke-dasharray:none;stroke-opacity:1" /><circle
     transform="matrix(0.99482926,0.10156152,-0.10156152,0.99482926,0,0)"
     r="2.4574146"
     cy="71.205444"
     cx="90.213058"
     id="circle4363"
     style="opacity:0.98000004;fill:#000000;fill-opacity:1;stroke:#000000;stroke-width:1;stroke-linecap:round;stroke-linejoin:round;stroke-miterlimit:4;stroke-dasharray:none;stroke-opacity:1" /><path
     style="fill:#ffffff;fill-rule:evenodd;stroke:#000000;stroke-width:1;stroke-linecap:round;stroke-linejoin:round;stroke-miterlimit:4;stroke-dasharray:none;stroke-opacity:1"
     d="m 211.20329,248.31815 c -6.48289,-10.1842 -5.9513,-18.11719 -5.29791,-28.27389 0.12954,-2.01471 2.45528,-1.82153 3.44938,-1.10748 0.24705,0.17746 1.60324,-0.28497 2.83718,0.3708 4.78267,2.54176 9.62993,4.99111 14.02354,7.86224 7.16573,4.68265 13.48371,9.76336 18.4621,13.93117 15.21545,12.73812 22.11936,20.65366 31.84672,31.19277 l 11.38808,2.83074 c 4.26984,1.06136 16.05117,19.30723 15.27457,19.90906 l -4.75508,3.68494 c 4.89918,9.14806 6.71052,19.24649 18.84555,29.86546 10.1265,8.86137 21.75647,13.51928 32.10005,18.49897 -3.90929,3.32942 -12.51002,6.74197 -23.66532,5.09069 -0.34651,9.34188 -2.71,18.49409 -8.76134,24.54489 -2.27734,-9.96339 -5.31366,-19.96396 -10.25806,-30.23991 -4.48501,-9.32117 -17.53975,-14.67605 -18.03349,-13.30955 l -2.03448,5.63083 c -1.24877,3.45622 -16.68891,-8.09751 -16.45006,-10.43718 l 0.32654,-3.19873 c 0.11477,-1.12453 -12.33222,-11.4488 -13.49149,-8.77973 -1.30133,2.99617 -1.62333,4.43333 -2.89778,3.87453 -5.42051,-2.37671 -7.6349,-6.11127 -7.57191,-11.61601 0.0376,-3.29707 -14.62863,-14.23849 -20.4673,-24.19251 -6.51825,-11.11259 -7.62409,-14.8856 -14.86949,-36.13216 z"
     id="path4365" /><path
     style="fill:none;fill-rule:evenodd;stroke:#000000;stroke-width:1;stroke-linecap:round;stroke-linejoin:miter;stroke-miterlimit:4;stroke-dasharray:none;stroke-opacity:1"
     d="m 211.20329,248.31815 c 2.81838,2.06308 7.00665,3.24284 9.30372,2.82621 2.62289,-0.47571 4.81556,-2.53049 6.35533,-4.04302"
     id="path4367" /><path
     style="fill:none;fill-rule:evenodd;stroke:#000000;stroke-width:1;stroke-linecap:round;stroke-linejoin:miter;stroke-miterlimit:4;stroke-dasharray:none;stroke-opacity:1"
     d="m 225.30991,259.24725 c 0.0382,2.99208 -0.0813,5.96805 0.74472,9.04055 0.558,2.07548 9.10555,1.79353 8.50324,0.45109 -0.98362,-2.19234 -1.26432,-3.36162 -1.70271,-4.76038"
     id="path4369" /><path
     style="fill:none;fill-rule:evenodd;stroke:#000000;stroke-width:1;stroke-linecap:round;stroke-linejoin:miter;stroke-miterlimit:4;stroke-dasharray:none;stroke-opacity:1"
     d="m 209.35476,218.93678 c 1.2375,4.31556 2.25493,7.12499 3.09082,10.06379"
     id="path4371" /><circle
     style="opacity:0.98000004;fill:#000000;fill-opacity:1;stroke:#000000;stroke-width:1;stroke-linecap:round;stroke-linejoin:round;stroke-miterlimit:4;stroke-dasharray:none;stroke-opacity:1"
     id="circle4373"
     cx="241.5945"
     cy="208.47787"
     r="2.4574146"
     transform="matrix(0.99482926,0.10156152,-0.10156152,0.99482926,0,0)" /><path
     id="path4375"
     d="m 236.22685,140.83909 c -6.48289,-10.1842 -5.9513,-18.11719 -5.29791,-28.27389 0.12954,-2.01471 2.45528,-1.82153 3.44938,-1.10748 0.24705,0.17746 1.60324,-0.28497 2.83718,0.3708 4.78267,2.54176 9.62993,4.99111 14.02354,7.86224 7.16573,4.68265 13.48371,9.76336 18.4621,13.93117 15.21545,12.73812 22.11936,20.65366 31.84672,31.19277 l 11.38808,2.83074 c 4.26984,1.06136 16.05117,19.30723 15.27457,19.90906 l -4.75508,3.68494 c 4.89918,9.14806 6.71052,19.24649 18.84555,29.86546 10.1265,8.86137 21.75647,13.51928 32.10005,18.49897 -3.90929,3.32942 -12.51002,6.74197 -23.66532,5.09069 -0.34651,9.34188 -2.71,18.49409 -8.76134,24.54489 -2.27734,-9.96339 -5.31366,-19.96396 -10.25806,-30.23991 -4.48501,-9.32117 -17.53975,-14.67605 -18.03349,-13.30955 l -2.03448,5.63083 c -1.24877,3.45622 -16.68891,-8.09751 -16.45006,-10.43718 l 0.32654,-3.19873 c 0.11477,-1.12453 -12.33222,-11.4488 -13.49149,-8.77973 -1.30133,2.99617 -1.62333,4.43333 -2.89778,3.87453 -5.42051,-2.37671 -7.6349,-6.11127 -7.57191,-11.61601 0.0376,-3.29707 -14.62863,-14.23849 -20.4673,-24.19251 -6.51825,-11.11259 -7.62409,-14.8856 -14.86949,-36.13216 z"
     style="fill:#ffffff;fill-rule:evenodd;stroke:#000000;stroke-width:1;stroke-linecap:round;stroke-linejoin:round;stroke-miterlimit:4;stroke-dasharray:none;stroke-opacity:1" /><path
     id="path4377"
     d="m 236.22685,140.83909 c 2.81838,2.06308 7.00665,3.24284 9.30372,2.82621 2.62289,-0.47571 4.81556,-2.53049 6.35533,-4.04302"
     style="fill:none;fill-rule:evenodd;stroke:#000000;stroke-width:1;stroke-linecap:round;stroke-linejoin:miter;stroke-miterlimit:4;stroke-dasharray:none;stroke-opacity:1" /><path
     id="path4379"
     d="m 250.33347,151.76819 c 0.0382,2.99208 -0.0813,5.96805 0.74472,9.04055 0.558,2.07548 9.10555,1.79353 8.50324,0.45109 -0.98362,-2.19234 -1.26432,-3.36162 -1.70271,-4.76038"
     style="fill:none;fill-rule:evenodd;stroke:#000000;stroke-width:1;stroke-linecap:round;stroke-linejoin:miter;stroke-miterlimit:4;stroke-dasharray:none;stroke-opacity:1" /><path
     id="path4381"
     d="m 234.37832,111.45772 c 1.2375,4.31556 2.25493,7.12499 3.09082,10.06379"
     style="fill:none;fill-rule:evenodd;stroke:#000000;stroke-width:1;stroke-linecap:round;stroke-linejoin:miter;stroke-miterlimit:4;stroke-dasharray:none;stroke-opacity:1" /><circle
     transform="matrix(0.99482926,0.10156152,-0.10156152,0.99482926,0,0)"
     r="2.4574146"
     cy="99.01313"
     cx="255.57294"
     id="circle4383"
     style="opacity:0.98000004;fill:#000000;fill-opacity:1;stroke:#000000;stroke-width:1;stroke-linecap:round;stroke-linejoin:round;stroke-miterlimit:4;stroke-dasharray:none;stroke-opacity:1" /><path
     style="fill:#ffffff;fill-rule:evenodd;stroke:#000000;stroke-width:1;stroke-linecap:round;stroke-linejoin:round;stroke-miterlimit:4;stroke-dasharray:none;stroke-opacity:1"
     d="m 105.46769,255.03543 c -6.48289,-10.1842 -5.9513,-18.11719 -5.29791,-28.27389 0.12954,-2.01471 2.45528,-1.82153 3.44938,-1.10748 0.24705,0.17746 1.60324,-0.28497 2.83718,0.3708 4.78267,2.54176 9.62993,4.99111 14.02354,7.86224 7.16573,4.68265 13.48371,9.76336 18.4621,13.93117 15.21545,12.73812 22.11936,20.65366 31.84672,31.19277 l 11.38808,2.83074 c 4.26984,1.06136 16.05117,19.30723 15.27457,19.90906 l -4.75508,3.68494 c 4.89918,9.14806 6.71052,19.24649 18.84555,29.86546 10.1265,8.86137 21.75647,13.51928 32.10005,18.49897 -3.90929,3.32942 -12.51002,6.74197 -23.66532,5.09069 -0.34651,9.34188 -2.71,18.49409 -8.76134,24.54489 -2.27734,-9.96339 -5.31366,-19.96396 -10.25806,-30.23991 -4.48501,-9.32117 -17.53975,-14.67605 -18.03349,-13.30955 l -2.03448,5.63083 c -1.24877,3.45622 -16.68891,-8.09751 -16.45006,-10.43718 l 0.32654,-3.19873 c 0.11477,-1.12453 -12.33222,-11.4488 -13.49149,-8.77973 -1.30133,2.99617 -1.62333,4.43333 -2.89778,3.87453 -5.42051,-2.37671 -7.6349,-6.11127 -7.57191,-11.61601 0.0376,-3.29707 -14.62863,-14.23849 -20.4673,-24.19251 -6.51825,-11.11259 -7.62409,-14.8856 -14.86949,-36.13216 z"
     id="path4385" /><path
     style="fill:none;fill-rule:evenodd;stroke:#000000;stroke-width:1;stroke-linecap:round;stroke-linejoin:miter;stroke-miterlimit:4;stroke-dasharray:none;stroke-opacity:1"
     d="m 105.46769,255.03543 c 2.81838,2.06308 7.00665,3.24284 9.30372,2.82621 2.62289,-0.47571 4.81556,-2.53049 6.35533,-4.04302"
     id="path4387" /><path
     style="fill:none;fill-rule:evenodd;stroke:#000000;stroke-width:1;stroke-linecap:round;stroke-linejoin:miter;stroke-miterlimit:4;stroke-dasharray:none;stroke-opacity:1"
     d="m 119.57431,265.96453 c 0.0382,2.99208 -0.0813,5.96805 0.74472,9.04055 0.558,2.07548 9.10555,1.79353 8.50324,0.45109 -0.98362,-2.19234 -1.26432,-3.36162 -1.70271,-4.76038"
     id="path4389" /><path
     style="fill:none;fill-rule:evenodd;stroke:#000000;stroke-width:1;stroke-linecap:round;stroke-linejoin:miter;stroke-miterlimit:4;stroke-dasharray:none;stroke-opacity:1"
     d="m 103.61916,225.65406 c 1.2375,4.31556 2.25493,7.12499 3.09082,10.06379"
     id="path4391" /><circle
     style="opacity:0.98000004;fill:#000000;fill-opacity:1;stroke:#000000;stroke-width:1;stroke-linecap:round;stroke-linejoin:round;stroke-miterlimit:4;stroke-dasharray:none;stroke-opacity:1"
     id="circle4393"
     cx="137.08784"
     cy="225.89911"
     r="2.4574146"
     transform="matrix(0.99482926,0.10156152,-0.10156152,0.99482926,0,0)" /></svg>