<svg xmlns:dc="http://purl.org/dc/elements/1.1/" xmlns:cc="http://creativecommons.org/ns#" xmlns:rdf="http://www.w3.org/1999/02/22-rdf-syntax-ns#" xmlns:svg="http://www.w3.org/2000/svg" xmlns="http://www.w3.org/2000/svg" id="svg2" version="1.1" x="0" y="0" width="400" height="500" viewBox="30.5 31.5 400 500" enable-background="new 30.5 31.5 412 533" xml:space="preserve">
  <metadata id="metadata4">
    <rdf:RDF>
      <cc:Work rdf:about="">
        <dc:format>
          
          
          
          image/svg+xml
        
        
        
        </dc:format>
        <dc:type rdf:resource="http://purl.org/dc/dcmitype/StillImage"/>
      </cc:Work>
    </rdf:RDF>
  </metadata>
  <defs id="defs6"/>
  <path d="M230.45 531.13C156.13 477.21 105.19 409.11 74.71 322.97 47.07 244.87 35.98 150.22 40.8 33.62l0.02-0.46 379.82 0 0.02 0.46c4.81 116.6-6.28 211.24-33.91 289.35-30.48 86.14-81.42 154.24-155.74 208.16l-0.28 0.2-0.28-0.2z" id="path4148" fill="#0085ca"/>
  <path id="path10" d="M419.96 33.21C429.03 252.66 383.71 419.16 230.51 530.31 146.04 469.02 94.36 390.9 66.52 296.34 64.43 289.25 62.48 282.07 60.65 274.8 49.2 229.11 42.88 179.78 40.77 126.86 39.57 96.8 39.72 65.58 41.06 33.21l189.45 0 189.45 0m0.92-0.95-0.92 0-189.45 0-189.45 0-0.92 0-0.04 0.92c-4.82 116.66 6.28 211.36 33.93 289.52 30.51 86.24 81.51 154.41 155.91 208.39l0.56 0.41 0.56-0.41C305.46 477.11 356.46 408.94 386.97 322.7 414.62 244.54 425.72 149.84 420.9 33.18l-0.04-0.92 0 0z"/>
  <path d="m225.23 367.7c-24.34 7.07-45.21 30.15-65.78 55.54-0.4 0.5-2.26 2.85-3.49-0.22-4.81-12-17.21-22.63-31.15-33.33-4.05-3.11-0.7-9.71-1.63-18.31-0.91-8.43-3.22-15.49-6.22-25.04-0.31-0.99 1-4.94 5.01-2.45 42.12 26.18 89.11 29.58 112.83 4.41-13.74-0.99-33.26-15.4-49.66-19.17-3.63-0.22-7.26-3.48-10.89-0.65l-9.8 20.04c-3.92 8.02-13.52-0.13-10.84-5.45 3.79-7.53 8.41-17.48 8.66-24.61 0.74-21.39-17.66-48.35-23.31-73.4-2.25-9.98 16.31-6.17 17.64-3.92 9.66 16.32 2.25 33.78 14.38 52.71 10.93 17.07 35.86 30.71 54.24 28.97 16.51-1.56 25.01-42.91 24.4-65.35-1.42-52.43-40.59-90.73-70.36-108.69-28.07-16.94-59.65-17.31-101.29-18.95-4.65-0.18 1.75-6.97 2.05-11.7 0.51-8.19 4.03-10.37 6.66-9.87 21.8 4.21 42.3 13.46 60.74 13.84 15.8 0.33 10.63-9.82 5.23-14.59-10.01-8.85-19.68-11.91-29.11-19.32-4.03-3.17 2.19-7.12 7.16-7.96 3.94-0.67 7.49-7.14 9.78-4.24 4.3 5.45 5.06 13.51 13.41 14.85 4.84 0.78 3.76-5.08 4.23-9.15 0.38-2.25 2.8-0.45 6.04 1.12 2.56 1.24 7.06-0.91 7.07 0.44 0.09 15.77-0.45 34.83 7.82 41.42 32.04 25.52 55.5 51.71 73.61 80.52 3.69 5.88 11.22 3.51 12.85-6.1 1.74-10.24 1.79-20.44 1.09-30.71-0.1-1.52 3.51-1.74 7.23-0.9 4.03 0.91 8.37 0.02 8.45 1.55 0.33 6.79-5.4 20 1.31 20.04l7.84 0c2.87 0 2.07 3.41 4.81 5.84 2.33 2.06 2.55 5.22 0.64 6.14-13.42 6.46-31.22 9.07-32.89 24.4 2.61 38.69-4.33 73.41-12.42 107.38-1.33 5.6 5.71-1.22 9.58-3.7 28.35-24.71 74.1-61.7 79.61-87.3 9.27-43.08-25.26-97.98-52.71-117.96-20.16-14.67-42.96-21.25-65.51-29.57-4.11-1.52-2.27-4.85 1.74-8.12 4.27-3.49 3.75-12.26 8.04-9.24 19.1 13.44 38.75 26.58 56.7 29.35 10.38 1.6 11.8-6.28 7.02-11.71-5.55-6.3-12.96-12.3-14.5-17.68-1.22-4.28 6.57-2.35 10.72-2.26 2.51 0.06 7.45-6.02 8.36-1.15 1.35 7.24 1.84 13.46 6.89 21.13 3.5 5.32 6.51-1.93 6.32-11.36-0.08-3.74 2.32-1.61 5.56 1.29 1.62 1.45 7.72 0.67 6.15 3.64-5.75 10.91-17.62 27.53-12.23 35.01 15.26 21.17 30.94 37.38 41.93 69.77 1.2 3.53 5.55 2.57 8.06-0.22 12.08-13.4 8.6-26.07 9.8-42.91 0.4-5.67 10.43-5.93 10.67-1.31l-0.82 17.02c-0.24 4.92 6.82-3.75 10.19-6.66 1.56-1.35 4.6-2.87 6.2 5.55 0.68 3.56 7.79 6.96 1.42 10.67-6.71 3.91-15.35 6.94-17.04 10.17-6.81 13.01-20.85 26.69-21.35 33.5-2.32 31.71-4.59 44.55-19.33 59.14l-66.43 68.88c-4.42 4.59-4.05 12.42-0.22 16.28 2.47 2.49 5.11 8.38 2.18 8.28-3.58-0.12-7.61-2.57-13.29 0-4.89 2.21-5.84 4.89-8.12 5.31-2.8 0.51-4.12-3.71-8.65-3.13-9.37 1.2-10.41 5.93-11.98 5.23-1.99-0.89-1.92-4.85-0.73-8.09 1.87-5.1-6.24-4.29-10.6-3.02z" id="path3420" style="fill-rule:evenodd;fill:#fff;stroke:#000"/>
</svg>
