<?xml version="1.0" encoding="UTF-8" standalone="no"?>
<svg
   xmlns:dc="http://purl.org/dc/elements/1.1/"
   xmlns:cc="http://creativecommons.org/ns#"
   xmlns:rdf="http://www.w3.org/1999/02/22-rdf-syntax-ns#"
   xmlns:svg="http://www.w3.org/2000/svg"
   xmlns="http://www.w3.org/2000/svg"
   xml:space="preserve"
   enable-background="new 30.5 31.5 412 533"
   viewBox="30.5 31.5 400 500"
   height="500"
   width="400"
   y="0"
   x="0"
   version="1.1"
   id="svg2"><metadata
     id="metadata4"><rdf:RDF><cc:Work
         rdf:about=""><dc:format>
          
          
          
          
          
          image/svg+xml
        
        
        
        
        
        </dc:format><dc:type
           rdf:resource="http://purl.org/dc/dcmitype/StillImage" /><dc:title></dc:title></cc:Work></rdf:RDF></metadata><defs
     id="defs6" /><path
     d="M 230.67,530.86 C 156.35,476.94 105.41,408.84 74.93,322.7 47.29,244.6 36.2,149.95 41.02,33.35 l 0.02,-0.46 379.82,0 0.02,0.46 c 4.81,116.6 -6.28,211.24 -33.91,289.35 -30.48,86.14 -81.42,154.24 -155.74,208.16 l -0.28,0.2 -0.28,-0.2 z"
     id="path8"
     style="fill:#0085ca;fill-opacity:1" /><path
     id="path4306"
     d="M 278.40985,491.30054 278.5,407.82119 c 0,-4.46661 5.5,-4.46661 5.5,-11.08951 l 0,-194.8365 c 0,-5.19677 -5.12385,-5.43799 -5.06423,-11.24352 0.0412,-4.01616 0.99615,-6.0755 3.85053,-10.62744 4.94374,-7.88389 13.73399,-16.19315 26.33758,-16.48024 17.38914,-0.3961 25.65603,8.82868 31.88233,16.48024 l 56.98775,0 c -7.44434,-7.75239 -36.2849,-9.82833 -40.81555,-14.01591 -12.17688,-11.25484 -26.05816,-23.22821 -55.29352,-22.64107 -19.88786,0.39941 -28.88035,4.55741 -36.81101,13.55385 -0.13986,-19.14994 -2.3862,-26.28625 -6.46887,-35.27081 -3.90662,-8.59715 -12.38937,-14.94003 -18.10501,-14.94003 7.60283,23.16491 4.28763,35.67808 3.78107,49.14177 -0.35144,10.25215 -3.78106,24.1722 -3.78106,35.26171 l 0,205.61795 c 0,6.6229 5.5,6.6229 5.5,11.08951 l 0,111.20311"
     style="fill:none;fill-opacity:1;fill-rule:evenodd;stroke:#000000;stroke-width:1px;stroke-linecap:butt;stroke-linejoin:round;stroke-opacity:1" /><path
     style="fill:#ffe000;fill-opacity:1;fill-rule:evenodd;stroke:#000000;stroke-width:1px;stroke-linecap:butt;stroke-linejoin:round;stroke-opacity:1"
     d="m 278.5,407.82119 c 0,-4.46661 5.5,-4.46661 5.5,-11.08951 l 0,-194.8365 c 0,-5.19677 -5.12385,-5.43799 -5.06423,-11.24352 0.0412,-4.01616 0.99615,-6.0755 3.85053,-10.62744 4.94374,-7.88389 13.73399,-16.19315 26.33758,-16.48024 17.38914,-0.3961 25.65603,8.82868 31.88233,16.48024 l 56.98775,0 c -7.44434,-7.75239 -36.2849,-9.82833 -40.81555,-14.01591 -12.17688,-11.25484 -26.05816,-23.22821 -55.29352,-22.64107 -19.88786,0.39941 -28.88035,4.55741 -36.81101,13.55385 -0.13986,-19.14994 -2.3862,-26.28625 -6.46887,-35.27081 -3.90662,-8.59715 -12.38937,-14.94003 -18.10501,-14.94003 7.60283,23.16491 4.28763,35.67808 3.78107,49.14177 -0.35144,10.25215 -3.78106,24.1722 -3.78106,35.26171 l 0,205.61795 c 0,6.6229 5.5,6.6229 5.5,11.08951 l 0,111.20311 c 11.04935,-8.37721 21.86114,-17.7046 32.40984,-27.72376 z"
     id="path4300" /><path
     style="fill:#ffe000;fill-opacity:1;fill-rule:evenodd;stroke:none;stroke-width:1px;stroke-linecap:butt;stroke-linejoin:round;stroke-opacity:1"
     d="m 182.5,407.82119 c 0,-4.46661 -5.5,-4.46661 -5.5,-11.08951 l 0,-194.8365 c 0,-5.19677 5.12385,-5.43799 5.06423,-11.24352 -0.0412,-4.01616 -0.99615,-6.0755 -3.85053,-10.62744 -4.94374,-7.88389 -13.73399,-16.19315 -26.33758,-16.48024 -17.38914,-0.3961 -25.65603,8.82868 -31.88233,16.48024 l -56.98775,0 c 7.44434,-7.75239 36.2849,-9.82833 40.81555,-14.01591 12.17688,-11.25484 26.05816,-23.22821 55.29352,-22.64107 19.88786,0.39941 28.88035,4.55741 36.81101,13.55385 0.13986,-19.14994 2.3862,-26.28625 6.46887,-35.27081 3.90662,-8.59715 12.38937,-14.94003 18.10501,-14.94003 -7.60283,23.16491 -4.28763,35.67808 -3.78107,49.14177 0.35144,10.25215 3.78106,24.1722 3.78106,35.26171 l 0,205.61795 c 0,6.6229 -5.5,6.6229 -5.5,11.08951 l 0,111.20311 c -11.04935,-8.37721 -21.86114,-17.7046 -32.40984,-27.72376 z"
     id="path4304" /><path
     d="M 419.96,33.21 C 429.03,252.66 383.7,419.16 230.5,530.31 77.31,419.16 31.99,252.66 41.06,33.21 l 189.45,0 189.45,0 m 0.92,-0.95 -0.92,0 -189.45,0 -189.45,0 -0.92,0 -0.04,0.92 c -4.82,116.66 6.28,211.36 33.93,289.52 30.51,86.24 81.51,154.41 155.91,208.39 l 0.56,0.41 0.56,-0.41 C 305.46,477.11 356.46,408.94 386.97,322.7 414.62,244.54 425.72,149.84 420.9,33.18 l -0.04,-0.92 0,0 z"
     id="path10" /><path
     id="path4284"
     d="M 182.59015,491.30054 182.5,407.82119 c 0,-4.46661 -5.5,-4.46661 -5.5,-11.08951 l 0,-194.8365 c 0,-5.19677 5.12385,-5.43799 5.06423,-11.24352 -0.0412,-4.01616 -0.99615,-6.0755 -3.85053,-10.62744 -4.94374,-7.88389 -13.73399,-16.19315 -26.33758,-16.48024 -17.38914,-0.3961 -25.65603,8.82868 -31.88233,16.48024 l -56.98775,0 c 7.44434,-7.75239 36.2849,-9.82833 40.81555,-14.01591 12.17688,-11.25484 26.05816,-23.22821 55.29352,-22.64107 19.88786,0.39941 28.88035,4.55741 36.81101,13.55385 0.13986,-19.14994 2.3862,-26.28625 6.46887,-35.27081 3.90662,-8.59715 12.38937,-14.94003 18.10501,-14.94003 -7.60283,23.16491 -4.28763,35.67808 -3.78107,49.14177 0.35144,10.25215 3.78106,24.1722 3.78106,35.26171 l 0,205.61795 c 0,6.6229 -5.5,6.6229 -5.5,11.08951 l 0,111.20311"
     style="fill:none;fill-rule:evenodd;stroke:#000000;stroke-width:1px;stroke-linecap:butt;stroke-linejoin:round;stroke-opacity:1" /></svg>