<?xml version="1.0" encoding="UTF-8" standalone="no"?>
<svg
   xmlns:dc="http://purl.org/dc/elements/1.1/"
   xmlns:cc="http://creativecommons.org/ns#"
   xmlns:rdf="http://www.w3.org/1999/02/22-rdf-syntax-ns#"
   xmlns:svg="http://www.w3.org/2000/svg"
   xmlns="http://www.w3.org/2000/svg"
   xml:space="preserve"
   enable-background="new 30.5 31.5 412 533"
   viewBox="30.5 31.5 400 500"
   height="500"
   width="400"
   y="0"
   x="0"
   version="1.1"
   id="svg2"><metadata
     id="metadata4"><rdf:RDF><cc:Work
         rdf:about=""><dc:format>
          
          
          image/svg+xml
        
        
        </dc:format><dc:type
           rdf:resource="http://purl.org/dc/dcmitype/StillImage" /><dc:title></dc:title></cc:Work></rdf:RDF></metadata><defs
     id="defs6" /><path
     style="fill:#ffffff;fill-opacity:1"
     d="M 230.44,531.14 C 156.12,477.22 105.18,409.12 74.7,322.98 47.06,244.88 35.97,150.23 40.79,33.63 l 0.02,-0.46 379.82,0 0.02,0.46 c 4.81,116.6 -6.28,211.24 -33.91,289.35 C 356.26,409.12 305.32,477.22 231,531.14 l -0.28,0.2 -0.28,-0.2 z"
     id="path8" /><path
     style="fill:#0085ca;fill-opacity:1;fill-rule:evenodd;stroke:none;stroke-width:1px;stroke-linecap:butt;stroke-linejoin:miter;stroke-opacity:1"
     d="m 409.73227,110.3197 c -5.47021,12.74698 -12.38484,18.04432 -25.30287,25.47451 -13.62481,7.83672 -14.47725,19.79807 -19.15263,28.4638 -2.70973,5.02243 -11.28916,13.44126 -23.09389,19.47167 -8.18942,4.18354 -11.82325,10.11204 -17.44088,22.11114 -4.15602,8.87715 -11.83417,16.29767 -22.62233,21.51785 -7.49521,3.62678 -14.49186,9.8952 -15.87509,19.05283 -1.27208,8.42179 -5.70949,12.98491 -12.98842,16.3042 -4.29979,1.96075 -12.35713,4.56955 -8.81396,21.9549 2.32959,11.43064 9.09197,20.02813 0.1819,39.21758 -3.36585,7.24897 -3.64679,13.31339 1.77333,28.56501 1.71089,4.81425 5.0415,20.6203 -0.5625,30.56502 -4.0989,7.2738 -6.31203,14.24975 -2.28966,26.76602 2.59386,8.07124 6.6001,16.96485 -0.64319,34.49228 -3.56815,8.63427 -3.07835,20.89644 -1.22724,27.40825 1.70109,5.98409 5.58865,17.51105 12.32957,23.45835 -13.95875,12.47119 -28.21833,24.70574 -43.6025,35.75177 -14.10192,-10.26964 -28.0129,-21.37564 -41.25853,-33.64085 -3.52317,-8.58054 -13.37532,-31.31285 -7.24929,-45.65237 4.34406,-10.16839 9.34306,-20.32665 8.29763,-33.0058 -0.93251,-11.30971 -9.64406,-20.72097 -4.49863,-38.74231 1.64024,-5.74477 4.31152,-9.52688 4.06298,-20.94368 -0.31009,-14.24395 -11.49102,-20.5643 -2.26913,-41.21015 8.29109,-18.562 -3.25007,-21.52187 -0.67398,-38.72319 2.59412,-17.32175 -10.67962,-15.66017 -18.69274,-29.51044 -4.31689,-7.46152 -5.43116,-16.02214 -10.05374,-22.60913 -3.85812,-5.49767 -10.80784,-9.35139 -19.60923,-13.53335 -9.18045,-4.36207 -15.17526,-12.9495 -16.90915,-20.50572 -2.0531,-8.94732 -7.08232,-16.02581 -18.08263,-20.49406 -7.34082,-2.98179 -17.1362,-8.66615 -20.96842,-17.50898 -4.98841,-11.51074 -9.5174,-24.0611 -20.0561,-29.2581 C 49.91197,119.37828 39.90411,117.08559 39.8662,107.6252 39.7714,83.971194 39.42931,61.157881 40.69834,32.866824 l 60.32136,-0.09439 c 0.32986,7.342416 -1.69535,25.001738 17.46358,35.168797 l 0,-4.9e-5 c 12.54345,6.656425 19.13038,10.907872 26.47265,26.710987 4.20681,9.054521 6.52557,17.366101 19.68948,23.721701 13.04766,6.29948 18.82614,12.35759 21.99967,23.08876 4.6208,15.62503 16.59572,20.08791 23.37842,23.09389 12.32977,5.46435 18.33488,21.07419 19.69249,26.20855 0.48361,1.82897 1.52654,2.34128 1.89876,1.5057 7.84681,-17.61507 16.16502,-25.15279 22.851,-27.95305 12.47965,-5.22681 17.47419,-10.79948 21.00727,-18.39343 7.47028,-16.05654 10.96824,-21.26021 19.41366,-25.21527 12.50626,-5.85679 21.92628,-15.67706 24.63401,-21.639593 8.18364,-18.020704 12.58833,-24.055657 22.56217,-28.501766 12.3732,-5.515688 19.40344,-12.903662 21.53551,-17.484956 2.10998,-4.533831 2.91384,-13.043477 2.60425,-19.771591 l 53.97149,-0.42594 1.26632,60.760147 c -6.18726,3.550257 -9.02526,10.375939 -11.72816,16.674379 z"
     id="path4276" /><path
     d="M 419.96,33.21 C 429.03,252.66 383.7,419.16 230.5,530.31 77.31,419.16 31.99,252.66 41.06,33.21 l 189.45,0 189.45,0 m 0.92,-0.95 -0.92,0 -189.45,0 -189.45,0 -0.92,0 -0.04,0.92 c -4.82,116.66 6.28,211.36 33.93,289.52 30.51,86.24 81.51,154.41 155.91,208.39 l 0.56,0.41 0.56,-0.41 C 305.46,477.11 356.46,408.94 386.97,322.7 414.62,244.54 425.72,149.84 420.9,33.18 l -0.04,-0.92 0,0 z"
     id="path10" /><path
     id="path4298"
     d="m 189.14338,497.25403 c -3.52317,-8.58054 -13.37532,-31.31285 -7.24929,-45.65237 4.34406,-10.16839 9.34306,-20.32665 8.29763,-33.0058 -0.93251,-11.30971 -9.64406,-20.72097 -4.49863,-38.74231 1.64024,-5.74477 4.31152,-9.52688 4.06298,-20.94368 -0.31009,-14.24395 -11.49102,-20.5643 -2.26913,-41.21015 8.29109,-18.562 -3.25007,-21.52187 -0.67398,-38.72319 2.59412,-17.32175 -10.67962,-15.66017 -18.69274,-29.51044 -4.31689,-7.46152 -5.43116,-16.02214 -10.05374,-22.60913 -3.85812,-5.49767 -10.80784,-9.35139 -19.60923,-13.53335 -9.18045,-4.36207 -15.17526,-12.9495 -16.90915,-20.50572 -2.0531,-8.94732 -7.08232,-16.02581 -18.08263,-20.49406 -7.34082,-2.98179 -17.1362,-8.66615 -20.96842,-17.50898 -4.98841,-11.51074 -9.5174,-24.0611 -20.0561,-29.2581 C 49.91197,119.37828 39.90411,117.08559 39.8662,107.6252 m 61.1535,-74.852766 c 0.32986,7.342416 -1.69535,25.001738 17.46358,35.168797 l 0,-4.9e-5 c 12.54345,6.656425 19.13038,10.907872 26.47265,26.710987 4.20681,9.054521 6.52557,17.366101 19.68948,23.721701 13.04766,6.29948 18.82614,12.35759 21.99967,23.08876 4.6208,15.62503 16.59572,20.08791 23.37842,23.09389 12.32977,5.46435 18.33488,21.07419 19.69249,26.20855 0.48361,1.82897 1.52654,2.34128 1.89876,1.5057 7.84681,-17.61507 16.16502,-25.15279 22.851,-27.95305 12.47965,-5.22681 17.47419,-10.79948 21.00727,-18.39343 7.47028,-16.05654 10.96824,-21.26021 19.41366,-25.21527 12.50626,-5.85679 21.92628,-15.67706 24.63401,-21.639593 8.18364,-18.020704 12.58833,-24.055657 22.56217,-28.501766 12.3732,-5.515688 19.40344,-12.903662 21.53551,-17.484956 2.10998,-4.533831 2.91384,-13.043477 2.60425,-19.771591 m 55.23781,60.334207 c -6.18726,3.550257 -9.02526,10.375939 -11.72816,16.674379 -5.47021,12.74698 -12.38484,18.04432 -25.30287,25.47451 -13.62481,7.83672 -14.47725,19.79807 -19.15263,28.4638 -2.70973,5.02243 -11.28916,13.44126 -23.09389,19.47167 -8.18942,4.18354 -11.82325,10.11204 -17.44088,22.11114 -4.15602,8.87715 -11.83417,16.29767 -22.62233,21.51785 -7.49521,3.62678 -14.49186,9.8952 -15.87509,19.05283 -1.27208,8.42179 -5.70949,12.98491 -12.98842,16.3042 -4.29979,1.96075 -12.35713,4.56955 -8.81396,21.9549 2.32959,11.43064 9.09197,20.02813 0.1819,39.21758 -3.36585,7.24897 -3.64679,13.31339 1.77333,28.56501 1.71089,4.81425 5.0415,20.6203 -0.5625,30.56502 -4.0989,7.2738 -6.31203,14.24975 -2.28966,26.76602 2.59386,8.07124 6.6001,16.96485 -0.64319,34.49228 -3.56815,8.63427 -3.07835,20.89644 -1.22724,27.40825 1.70109,5.98409 5.58865,17.51105 12.32957,23.45835"
     style="fill:none;fill-opacity:1;fill-rule:evenodd;stroke:#000000;stroke-width:1px;stroke-linecap:butt;stroke-linejoin:miter;stroke-opacity:1" /></svg>