<?xml version="1.0" encoding="UTF-8" standalone="no"?>
<svg
   xmlns:dc="http://purl.org/dc/elements/1.1/"
   xmlns:cc="http://creativecommons.org/ns#"
   xmlns:rdf="http://www.w3.org/1999/02/22-rdf-syntax-ns#"
   xmlns:svg="http://www.w3.org/2000/svg"
   xmlns="http://www.w3.org/2000/svg"
   id="svg2"
   height="500"
   width="430"
   version="1">
  <metadata
     id="metadata51">
    <rdf:RDF>
      <cc:Work
         rdf:about="">
        <dc:format>
          image/svg+xml
        </dc:format>
        <dc:type
           rdf:resource="http://purl.org/dc/dcmitype/StillImage" />
        <dc:title></dc:title>
      </cc:Work>
    </rdf:RDF>
  </metadata>
  <defs
     id="defs4" />
  <path
     id="path4217"
     d="m 1.5,1.5 12,347.8004 C 15.41579,404.82655 98.36748,498.5 215,498.5 c 116.63252,10e-6 199.58421,-93.67344 201.5,-149.19959 L 428.5,1.5 c -142.33333,0 -284.66667,0 -427,0 z"
     style="fill:#e00e00;fill-opacity:1;fill-rule:evenodd;stroke:#000000;stroke-width:1px;stroke-linecap:butt;stroke-linejoin:miter;stroke-opacity:1" />
  <path
     id="path4239"
     d="m 369.61024,359.92067 c 6.37939,3.4255 19.2516,14.20073 19.59907,7.35737 0.35845,-7.05945 1.15761,-26.96219 2.00311,-43.6578 0.81873,-16.16697 3.04779,-44.35967 0.65487,-44.78994 -2.35177,-0.42287 -30.68872,20.59506 -32.84888,22.08078 l -36.26695,24.94367 c -4.83863,3.32791 13.19702,12.71022 21.8222,18.19627 -17.26266,25.90513 -56.61991,62.32738 -105.08155,68.16593 l -9.49427,-234.71071 c 45.19089,0 79.00446,-1.34992 120.00129,7.15961 2.74427,0.56962 3.46295,-39.97173 0,-39.37785 -41.30641,7.08388 -73.10592,6.51286 -116.16624,6.51286 29.09151,-12.09453 41.45727,-33.31582 41.45727,-61.29944 0,-25.3377 -22.80999,-56.94143 -60.29016,-56.94143 -37.48017,0 -60.29016,31.603731 -60.29016,56.941422 0,27.983628 12.36576,49.204918 41.45727,61.299448 -43.06032,0 -74.85983,0.57102 -116.16625,-6.51286 -3.46295,-0.59388 -2.74426,39.94747 0,39.37785 40.99684,-8.50953 74.81041,-7.15961 120.0013,-7.15961 l -9.49427,234.71071 C 142.04625,406.3784 102.689,369.95615 85.42634,344.05102 c 8.62518,-5.48605 26.66083,-14.86836 21.8222,-18.19627 L 70.98159,300.91108 c -2.16016,-1.48572 -30.49712,-22.50365 -32.84888,-22.08078 -2.39293,0.43027 -0.16386,28.62297 0.65487,44.78994 0.8455,16.69561 1.64466,36.59835 2.0031,43.6578 0.34748,6.84336 13.21969,-3.93187 19.59908,-7.35737 29.87756,60.44422 97.61129,94.32008 154.61024,94.32008 56.99895,0 124.73268,-33.87586 154.61024,-94.32008 z"
     style="fill:#ffe000;fill-opacity:0.94117647;fill-rule:evenodd;stroke:#000000;stroke-width:1px;stroke-linecap:round;stroke-linejoin:round;stroke-opacity:1" />
  <path
     style="fill:#e00e00;fill-opacity:1;fill-rule:evenodd;stroke:#000000;stroke-width:1px;stroke-linecap:butt;stroke-linejoin:round;stroke-opacity:1"
     d="m 227.50754,112.91411 -0.15564,14.31922 c 13.96087,-5.18197 23.19575,-18.31053 23.19575,-33.331124 0,-19.204284 -15.60194,-35.547653 -35.54765,-35.547653 -19.94571,0 -35.54765,16.343369 -35.54765,35.547653 0,15.020594 9.23488,28.149154 23.19575,33.331124 l -0.15564,-14.31922 c 8.33836,0 16.67672,0 25.01508,0 z"
     id="path4235" />
</svg>
