<?xml version="1.0" encoding="UTF-8" standalone="no"?>
<svg
   xmlns:dc="http://purl.org/dc/elements/1.1/"
   xmlns:cc="http://creativecommons.org/ns#"
   xmlns:rdf="http://www.w3.org/1999/02/22-rdf-syntax-ns#"
   xmlns:svg="http://www.w3.org/2000/svg"
   xmlns="http://www.w3.org/2000/svg"
   version="1"
   width="400"
   height="500"
   id="svg2">
  <metadata
     id="metadata51">
    <rdf:RDF>
      <cc:Work
         rdf:about="">
        <dc:format>
          
          image/svg+xml
        
        </dc:format>
        <dc:type
           rdf:resource="http://purl.org/dc/dcmitype/StillImage" />
        <dc:title></dc:title>
      </cc:Work>
    </rdf:RDF>
  </metadata>
  <defs
     id="defs4" />
  <path
     id="path2418"
     d="m 396.64,1.45 -393.73,0 0,301.05 0,0 0,0.09 c 0,108.73 88.14,196.86 196.86,196.86 108.72,0 196.87,-88.14 196.87,-196.86 l 0,-0.09 0,0 z"
     style="fill:#004899;fill-opacity:1;fill-rule:nonzero" />
  <path
     d="m 281.29838,196.69294 -1.66846,13.78726 73.18745,-20.982 -12.61948,-12.07385 27.57702,-5.26158 2.59687,15.11451 14.3993,-27.48705 -23.06104,-12.9069 4.70906,14.41142 -46.4435,9.83464 15.58425,14.04831 -36.32364,8.92638 1.82099,-16.52307 -30.85192,6.81347 38.77558,-57.41722 -24.15863,3.40369 29.89197,-37.764915 9.57463,15.260245 47.30116,-57.536259 9.18219,8.328998 L 384,21 l -36.1976,15.887966 13.85913,5.46072 -33.44879,44.883176 -9.67275,-17.983904 -58.19298,73.155822 24.80846,-1.42924 -37.54438,58.51984 z"
     id="path2849"
     style="fill:#ffffff;stroke:#000000;stroke-linecap:round;stroke-linejoin:round;stroke-opacity:1" />
  <path
     style="fill:#ffffff;stroke:#000000;stroke-linecap:round;stroke-linejoin:round;stroke-opacity:1"
     id="path5341"
     d="m 279.76675,253.6525 -1.084,-20.99824 69.74538,23.89857 -12.35334,15.80993 28.12373,11.7089 1.92529,-18.08461 19.05308,27.96557 -31.90838,15.26487 6.44122,-15.00293 -42.10288,-15.12893 9.0633,-18.91452 -31.75537,-9.50485 0.72691,18.28808 -29.05495,-6.41456 31.74829,65.60766 -25.10882,-0.681 18.94849,35.79516 11.37982,-16.07789 25.25171,45.88273 11.70911,-12.48128 1.61828,47.8972 -35.7683,-20.32123 14.91665,-7.36788 -18.83964,-31.16742 -9.98159,15.59433 -42.20037,-72.3901 25.82766,0.57492 -31.47659,-69.60489 z" />
  <path
     style="fill:#ffffff;stroke:#000000;stroke-linecap:round;stroke-linejoin:round;stroke-opacity:1"
     id="path5355"
     d="m 118.70162,196.69294 1.66846,13.78726 -73.18745,-20.982 12.61948,-12.07385 -27.57702,-5.26158 -2.59687,15.11451 -14.3993,-27.48705 23.06104,-12.9069 -4.70906,14.41142 46.4435,9.83464 -15.58425,14.04831 36.32364,8.92638 -1.82099,-16.52307 30.85192,6.81347 -38.77558,-57.41722 24.15863,3.40369 L 85.2858,92.616035 75.71117,107.87628 28.41001,50.340021 19.22782,58.669019 16,21 l 36.1976,15.887966 -13.85913,5.46072 33.44879,44.883176 9.67275,-17.983904 58.19298,73.155822 -24.80846,-1.42924 37.54438,58.51984 z" />
  <path
     d="m 120.23325,253.6525 1.084,-20.99824 -69.74538,23.89857 12.35334,15.80993 -28.12373,11.7089 -1.92529,-18.08461 -19.05308,27.96557 31.90838,15.26487 -6.44122,-15.00293 42.10288,-15.12893 -9.0633,-18.91452 31.75537,-9.50485 -0.72691,18.28808 29.05495,-6.41456 -31.74829,65.60766 25.10882,-0.681 -18.94849,35.79516 -11.37982,-16.07789 -25.25171,45.88273 -11.70911,-12.48128 -1.61828,47.8972 35.7683,-20.32123 -14.91665,-7.36788 18.83964,-31.16742 9.98159,15.59433 42.20037,-72.3901 -25.82766,0.57492 31.47659,-69.60489 z"
     id="path5357"
     style="fill:#ffffff;stroke:#000000;stroke-linecap:round;stroke-linejoin:round;stroke-opacity:1" />
  <path
     style="fill:#ffffff;fill-rule:evenodd;stroke:none;stroke-width:1;stroke-linecap:butt;stroke-linejoin:miter;stroke-miterlimit:4;stroke-dasharray:none;stroke-opacity:1"
     d="m 156.19312,1.4368115 c 1.73936,15.2448345 7.67787,18.2215915 7.67787,38.5480705 0,23.813958 -8.15111,23.813958 -8.15111,47.627916 0,23.813962 8.15111,23.813962 8.15111,47.627922 0,23.81395 -8.15111,23.81395 -8.15111,47.62791 0,23.81396 8.15111,23.81396 8.15111,47.62792 0,23.81394 -8.15111,23.81394 -8.15111,47.62791 0,23.81396 8.15111,23.81396 8.15111,47.62791 0,23.81396 -8.15111,23.81396 -8.15111,47.62792 0,23.81395 8.15111,23.81395 8.15111,47.62792 0,23.81394 -8.15111,23.81394 -8.15111,47.62789 0,14.03699 2.83206,19.79997 5.15749,27.04307 31.96194,6.72425 66.17548,3.39732 81.62889,-1.03632 -2.2526,-6.78051 -4.81868,-12.64514 -4.81868,-26.00675 0,-23.81395 8.15111,-23.81395 8.15111,-47.62789 0,-23.81397 -8.15111,-23.81397 -8.15111,-47.62792 0,-23.81396 8.15111,-23.81396 8.15111,-47.62792 0,-23.81395 -8.15111,-23.81395 -8.15111,-47.62791 0,-23.81397 8.15111,-23.81397 8.15111,-47.62791 0,-23.81396 -8.15111,-23.81396 -8.15111,-47.62792 0,-23.81396 8.15111,-23.81396 8.15111,-47.62791 0,-23.81396 -8.15111,-23.81396 -8.15111,-47.627922 0,-23.813958 8.15111,-23.813958 8.15111,-47.627916 0,-20.314613 -5.93158,-23.299755 -7.67482,-38.5213847 z"
     id="path5569" />
  <path
     id="path5571"
     d="m 156.19312,1.4368115 c 1.73936,15.2448345 7.67787,18.2215915 7.67787,38.5480705 0,23.813958 -8.15111,23.813958 -8.15111,47.627916 0,23.813962 8.15111,23.813962 8.15111,47.627922 0,23.81395 -8.15111,23.81395 -8.15111,47.62791 0,23.81396 8.15111,23.81396 8.15111,47.62792 0,23.81394 -8.15111,23.81394 -8.15111,47.62791 0,23.81396 8.15111,23.81396 8.15111,47.62791 0,23.81396 -8.15111,23.81396 -8.15111,47.62792 0,23.81395 8.15111,23.81395 8.15111,47.62792 0,23.81394 -8.15111,23.81394 -8.15111,47.62789 0,14.03699 2.83206,19.79997 5.15749,27.04307 m 81.62889,-1.03632 c -2.2526,-6.78051 -4.81868,-12.64514 -4.81868,-26.00675 0,-23.81395 8.15111,-23.81395 8.15111,-47.62789 0,-23.81397 -8.15111,-23.81397 -8.15111,-47.62792 0,-23.81396 8.15111,-23.81396 8.15111,-47.62792 0,-23.81395 -8.15111,-23.81395 -8.15111,-47.62791 0,-23.81397 8.15111,-23.81397 8.15111,-47.62791 0,-23.81396 -8.15111,-23.81396 -8.15111,-47.62792 0,-23.81396 8.15111,-23.81396 8.15111,-47.62791 0,-23.81396 -8.15111,-23.81396 -8.15111,-47.627922 0,-23.813958 8.15111,-23.813958 8.15111,-47.627916 0,-20.314613 -5.93158,-23.299755 -7.67482,-38.5213847"
     style="fill:none;fill-rule:evenodd;stroke:#000000;stroke-width:1;stroke-linecap:butt;stroke-linejoin:miter;stroke-miterlimit:4;stroke-dasharray:none;stroke-opacity:1" />
  <path
     d="m 396.64,1.45 -393.73,0 0,301.05 0,0 c 0,0.03 0,0.06 0,0.09 0,108.73 88.14,196.86 196.86,196.86 108.72,0 196.87,-88.14 196.87,-196.86 0,-0.03 0,-0.06 0,-0.09 l 0,0 0,-301.05 z"
     id="path4300"
     style="fill:none;stroke:#000000" />
</svg>
