<?xml version="1.0" encoding="UTF-8" standalone="no"?>
<svg
   xmlns:dc="http://purl.org/dc/elements/1.1/"
   xmlns:cc="http://creativecommons.org/ns#"
   xmlns:rdf="http://www.w3.org/1999/02/22-rdf-syntax-ns#"
   xmlns:svg="http://www.w3.org/2000/svg"
   xmlns="http://www.w3.org/2000/svg"
   xml:space="preserve"
   enable-background="new 30.5 31.5 412 533"
   viewBox="30.5 31.5 440 500"
   height="500"
   width="440"
   y="0"
   x="0"
   version="1.1"
   id="svg2"><metadata
     id="metadata4"><rdf:RDF><cc:Work
         rdf:about=""><dc:format>
          
          
          
          
          
          
          image/svg+xml
        
        
        
        
        
        
        </dc:format><dc:type
           rdf:resource="http://purl.org/dc/dcmitype/StillImage" /><dc:title></dc:title></cc:Work></rdf:RDF></metadata><defs
     id="defs6" /><path
     id="path5489"
     d="m 33,33 435,0 C 468,224.09983 378.1584,420.8119 250.5,530.3 122.8416,420.8119 33,224.09983 33,33 Z"
     style="fill:#e00e00;fill-opacity:1;fill-rule:evenodd;stroke:#000000;stroke-width:1px;stroke-linecap:butt;stroke-linejoin:miter;stroke-opacity:1" /><path
     style="fill:#ffe000;fill-opacity:1;fill-rule:evenodd;stroke:#000000;stroke-width:1px;stroke-linecap:butt;stroke-linejoin:miter;stroke-opacity:1"
     d="m 250.5,72.481812 c 13.05682,-0.164117 28.1965,2.248542 38.20153,5.070266 l -0.93201,8.004395 c 10.67239,3.070575 21.67282,7.624175 31.25004,13.267561 l 4.2829,-6.673075 c 10.9021,6.232524 20.63541,14.181061 29.32298,22.632461 9.35962,9.1052 18.37397,21.5057 23.4643,30.56944 l -6.31294,5.00858 c 5.38704,9.71123 10.19151,20.7816 12.98616,31.54083 l 7.74257,-1.71048 c 3.33375,12.10728 4.62867,24.60687 4.82756,36.72547 0.21424,13.05608 -2.14027,28.20491 -4.92356,38.22071 l -8.00792,-0.90127 c -3.02956,10.68411 -7.5409,21.70192 -13.14747,31.30075 l 6.64392,4.32797 c -6.30615,10.85968 -13.99141,20.75827 -22.50139,29.38847 -9.16835,9.29779 -21.51989,18.66662 -30.61788,23.6955 l -4.96574,-6.3467 c -9.74745,5.32122 -20.77098,9.81859 -31.54887,12.54038 l 1.68177,7.74885 c -12.11954,3.2889 -25.32573,5.3564 -37.44595,5.3564 -12.12022,0 -25.32641,-2.0675 -37.44595,-5.3564 l 1.68177,-7.74885 c -10.77789,-2.72179 -21.80142,-7.21916 -31.54887,-12.54038 l -4.96574,6.3467 c -9.09799,-5.02888 -21.44953,-14.39771 -30.61788,-23.6955 -8.50998,-8.6302 -16.19524,-18.52879 -22.50139,-29.38847 l 6.64392,-4.32797 c -5.60657,-9.59883 -10.11791,-20.61664 -13.14747,-31.30075 l -8.00792,0.90127 c -2.78329,-10.0158 -5.1378,-25.16463 -4.92356,-38.22071 0.19889,-12.1186 1.49381,-24.61819 4.82756,-36.72547 l 7.74257,1.71048 c 2.79465,-10.75923 7.59912,-21.8296 12.98616,-31.54083 l -6.31294,-5.00858 c 5.09033,-9.06374 14.10468,-21.46424 23.4643,-30.56944 8.68757,-8.4514 18.42088,-16.399937 29.32298,-22.632461 l 4.2829,6.673075 c 9.57722,-5.643386 20.57765,-10.196986 31.25004,-13.267561 l -0.93201,-8.004395 C 222.3035,74.730354 237.44318,72.317695 250.5,72.481812"
     id="path5511" /><path
     id="path5513"
     d="m 245.5,167.09146 0,11.16485 -9,-8.82297 0,-42.34929 c 0,-2.90794 -7,-2.58397 -7,-0.31014 l 0,56.05689 12.51342,12.21043 0,9.80364 -21.51342,-20.69599 0,-29.30775 c 0,-2.89166 -7,-2.79867 -7,-0.46521 l 0,52.87801 28.51342,27.97315 0,13.41105 -37.51342,-36.83081 0,-39.2885 c 0,-2.54317 -7,-2.40241 -7,-0.31014 l 0,71.95131 39,38.53426 c 5.84727,5.77744 5.51342,12.06124 5.51342,22.48478 0,10.03033 -5.71362,18.01056 -14.73281,15.66182 C 158.99564,303.05841 142.40474,247.17388 142.44324,215.36507 142.51549,155.67534 190.52487,107.3083 250.5,107.3083 c 59.97513,0 107.98451,48.36704 108.05676,108.05677 0.0385,31.80881 -16.5524,87.69334 -84.83737,105.47578 -9.01919,2.34874 -14.73281,-5.63149 -14.73281,-15.66182 0,-10.42354 -0.33385,-16.70734 5.51342,-22.48478 l 39,-38.53426 0,-71.95131 c 0,-2.09227 -7,-2.23303 -7,0.31014 l 0,39.2885 -37.51342,36.83081 0,-13.41105 28.51342,-27.97315 0,-52.87801 c 0,-2.33346 -7,-2.42645 -7,0.46521 l 0,29.30775 -21.51342,20.69599 0,-9.80364 12.51342,-12.21043 0,-56.05689 c 0,-2.27383 -7,-2.5978 -7,0.31014 l 0,42.34929 -9,8.82297 0,-11.16485 c 0,-1.77508 -3.14636,-1.51629 -5,-1.51629 -1.85364,0 -5,-0.25879 -5,1.51629 z"
     style="fill:#e00e00;fill-opacity:1;fill-rule:evenodd;stroke:#000000;stroke-width:1px;stroke-linecap:butt;stroke-linejoin:miter;stroke-opacity:1" /></svg>