<?xml version="1.0" encoding="UTF-8" standalone="no"?>
<svg
   xmlns:dc="http://purl.org/dc/elements/1.1/"
   xmlns:cc="http://creativecommons.org/ns#"
   xmlns:rdf="http://www.w3.org/1999/02/22-rdf-syntax-ns#"
   xmlns:svg="http://www.w3.org/2000/svg"
   xmlns="http://www.w3.org/2000/svg"
   id="svg2"
   version="1.1"
   x="0"
   y="0"
   width="400"
   height="500"
   viewBox="30.5 31.5 400 500"
   enable-background="new 30.5 31.5 412 533"
   xml:space="preserve"><metadata
     id="metadata4"><rdf:RDF><cc:Work
         rdf:about=""><dc:format>
          
          
          
          image/svg+xml
        
        
        
        </dc:format><dc:type
           rdf:resource="http://purl.org/dc/dcmitype/StillImage" /><dc:title></dc:title></cc:Work></rdf:RDF></metadata><defs
     id="defs6" /><path
     id="path8"
     d="M 230.44,531.14 C 156.12,477.22 105.18,409.12 74.7,322.98 47.06,244.88 35.97,150.23 40.79,33.63 l 0.02,-0.46 379.82,0 0.02,0.46 c 4.81,116.6 -6.28,211.24 -33.91,289.35 C 356.26,409.12 305.32,477.22 231,531.14 l -0.28,0.2 -0.28,-0.2 z"
     style="fill:#32ac60" /><path
     id="path10"
     d="M 419.96,33.21 C 429.03,252.66 383.7,419.16 230.5,530.31 77.31,419.16 31.99,252.66 41.06,33.21 l 189.45,0 189.45,0 m 0.92,-0.95 -0.92,0 -189.45,0 -189.45,0 -0.92,0 -0.04,0.92 c -4.82,116.66 6.28,211.36 33.93,289.52 30.51,86.24 81.51,154.41 155.91,208.39 l 0.56,0.41 0.56,-0.41 C 305.46,477.11 356.46,408.94 386.97,322.7 414.62,244.54 425.72,149.84 420.9,33.18 l -0.04,-0.92 0,0 z" /><path
     id="path4462"
     d="m 133.1576,254.14697 87.07976,-36.06963 0,15.71062 -36.14665,14.9724 9.67069,24.7184 26.47596,-10.96669 0,12.10689 20.48932,0 0,-20.59385 87.07975,-36.06963 0,17.22495 -33.68869,13.95432 9.87124,24.90406 23.81745,-9.86554 0,10.44569 20.48937,0 0,-18.93264 36.18086,-14.98659 -10.11918,-24.80137 -26.06168,10.79512 0,-17.22495 43.91704,-18.19104 -9.54473,-24.77057 -34.37231,14.23747 0,-15.71059 49.77277,-20.61656 -9.0131,-25.19953 -40.75967,16.88321 0,-38.71488 -20.48937,7.17128 0,40.03059 -87.07975,36.0696 0,-16.19345 47.87013,-19.82844 -10.08055,-24.88622 -37.78958,15.65294 0,-38.0163 -20.48932,7.17128 0,39.33197 -87.07976,36.06964 0,-16.4259 45.19856,-18.72184 -9.74869,-24.76707 -35.44987,14.68381 0,-37.34189 -20.48936,7.17128 0,38.6576 -48.267167,19.99289 8.974734,25.08767 39.292433,-16.27546 0,16.4259 -42.045131,17.41563 10.12378,24.86834 31.921351,-13.22226 0,16.19345 -35.91304,14.87566 9.614956,24.95019 26.298084,-10.89301 0,11.98504 20.48936,0 z"
     style="fill:#ffffff;fill-rule:evenodd;stroke:#000000;stroke-width:1;stroke-linecap:butt;stroke-linejoin:miter;stroke-opacity:1;stroke-miterlimit:4;stroke-dasharray:none" /><path
     id="path4468"
     d="m 133.1576,209.02064 87.07976,-36.06959 0,16.19345 -87.07976,36.06959 z"
     style="fill:#32ac60;fill-opacity:1;fill-rule:evenodd;stroke:#000000;stroke-width:1;stroke-linecap:butt;stroke-linejoin:miter;stroke-opacity:1;stroke-miterlimit:4;stroke-dasharray:none" /><path
     style="fill:#32ac60;fill-opacity:1;fill-rule:evenodd;stroke:#000000;stroke-width:1;stroke-linecap:butt;stroke-linejoin:miter;stroke-opacity:1;stroke-miterlimit:4;stroke-dasharray:none"
     d="m 240.72668,209.59038 87.07975,-36.06963 0,16.19345 -87.07975,36.06959 z"
     id="path4470" /></svg>