<?xml version="1.0" encoding="UTF-8" standalone="no"?>
<svg
   xmlns:dc="http://purl.org/dc/elements/1.1/"
   xmlns:cc="http://creativecommons.org/ns#"
   xmlns:rdf="http://www.w3.org/1999/02/22-rdf-syntax-ns#"
   xmlns:svg="http://www.w3.org/2000/svg"
   xmlns="http://www.w3.org/2000/svg"
   xml:space="preserve"
   enable-background="new 30.5 31.5 412 533"
   viewBox="30.5 31.5 430 500"
   height="500"
   width="430"
   y="0"
   x="0"
   version="1.1"
   id="svg2"><metadata
     id="metadata4"><rdf:RDF><cc:Work
         rdf:about=""><dc:format>
          
          
          
          
          
          
          image/svg+xml
        
        
        
        
        
        
        </dc:format><dc:type
           rdf:resource="http://purl.org/dc/dcmitype/StillImage" /><dc:title></dc:title></cc:Work></rdf:RDF></metadata><defs
     id="defs6" /><path
     id="path4497"
     d="m 459,33 0,278.52836 c 0,90.28213 0.98574,137.21141 -41.79736,176.8314 C 375.15063,527.30272 340.62712,530 288.13508,530 L 245.5,530 202.86492,530 C 150.37288,530 115.84937,527.30272 73.797356,488.35976 31.014259,448.73977 32,401.81049 32,311.52836 L 32,33 c 142.33333,0 284.66667,0 427,0 z"
     style="fill:#e00e00;fill-rule:evenodd;stroke:none;stroke-width:1px;stroke-linecap:butt;stroke-linejoin:miter;stroke-opacity:1;fill-opacity:1" /><path
     style="fill:#ffe000;fill-opacity:1;fill-rule:evenodd;stroke:none;stroke-width:1px;stroke-linecap:round;stroke-linejoin:round;stroke-opacity:1"
     d="m 180.63821,279.3198 c 27.52858,-19.36926 50.6359,-41.12612 70.84716,-66.4426 35.96704,-45.05204 62.06492,-94.96773 82.02202,-117.952468 29.52364,-34.002602 54.92277,-53.219579 64.57946,-61.745324 L 377.60829,32.9138 c -14.77073,10.797408 -47.62888,43.565969 -47.62888,43.565969 0,0 -0.7097,-19.702754 -1.96155,-43.456051 l -16.66075,0.07655 -0.33826,10.342527 -20.33812,24.194411 -0.57461,-34.313947 -21.7248,0.315849 c 0,0 -20.12119,13.969817 -25.70764,17.160033 l -0.68303,-17.199611 -15.85601,-0.07534 0.6277,38.545227 -28.05459,-22.435006 -0.45333,-16.009738 -16.67461,-0.358853 -34.54892,21.552187 -0.30517,-21.785456 -14.31678,0.157925 -0.0106,5.249822 -49.445227,30.472602 0.397646,-35.808832 -24.707938,-0.08259 -2.07162,90.942262 -24.771064,-22.08001 0,31.59672 25.724728,33.5711 -5.746155,192.3452 -19.010533,20.05227 c 0.0739,14.63389 4.69307,47.09326 5.55655,47.54277 C 83.75088,358.14838 126.1783,317.6381 180.63821,279.3198 Z"
     id="path4422-4" /><path
     style="fill:#ffe000;fill-opacity:1;fill-rule:evenodd;stroke:#000000;stroke-width:1px;stroke-linecap:butt;stroke-linejoin:miter;stroke-opacity:1"
     d="m 57.268509,470.04212 c 29.507806,-57.19149 48.591081,-80.84613 77.670011,-109.01195 37.82981,-36.64192 77.87307,-62.15342 113.37679,-95.57557 30.97264,-29.15673 59.53607,-80.85753 93.77134,-134.37791 27.37792,-42.800216 60.58098,-70.986629 91.73547,-98.006833 l -21.34472,-0.04246 c -16.85073,14.072052 -46.76794,39.059332 -72.30951,71.564003 -35.63556,45.35046 -59.01593,96.47499 -102.54051,141.31991 -42.49958,43.78882 -74.19432,54.87469 -129.25384,111.2083 -24.842391,25.41725 -48.41315,57.97675 -64.02112,88.98797 3.312952,8.83001 7.648481,16.5547 12.916089,23.93454 z"
     id="path4424" /><path
     style="fill:none;fill-opacity:1;fill-rule:evenodd;stroke:none;stroke-width:1px;stroke-linecap:round;stroke-linejoin:round;stroke-opacity:1"
     d="m 180.63821,279.3198 c 27.52858,-19.36926 50.6359,-41.12612 70.84716,-66.4426 35.96704,-45.05204 62.06492,-94.96773 82.02202,-117.952471 29.52364,-34.002602 54.92277,-53.219579 64.57946,-61.745324 l -20.47856,-0.265608 c -14.77073,10.797408 -47.62888,43.565969 -47.62888,43.565969 0,0 -0.7097,-19.702754 -1.96155,-43.456051 l -16.66075,0.07655 -0.33826,10.342527 -20.33812,24.194411 -0.57461,-34.313947 -21.7248,0.315849 c 0,0 -20.12119,13.969817 -25.70764,17.160033 l -0.68303,-17.199611 -15.85601,-0.07534 0.6277,38.545227 -28.05459,-22.435006 -0.45333,-16.009738 -16.67461,-0.358853 -34.54892,21.552187 -0.30517,-21.785456 -14.31678,0.157925 -0.0106,5.249822 -49.445227,30.472602 0.397646,-35.808832 -24.707938,-0.08259 -2.07162,90.942265 -24.771063,-22.08001 0,31.59672 25.724727,33.5711 -5.746155,192.3452 -19.010532,20.05227 c 0.07392,14.63389 4.693068,47.09326 5.556551,47.54277 C 83.75088,358.14838 126.1783,317.6381 180.63821,279.3198 Z"
     id="path4422" /><path
     id="path4261"
     d="m 365.80254,342.37185 c 1.4339,-0.65013 3.22795,1.68248 7.17108,8.4685 3.94314,6.78601 5.25075,9.32293 3.98001,10.2524 l -12.41342,9.07967 c 2.78636,7.60471 4.34927,16.97002 3.7778,26.02503 l 14.39196,5.32169 c 1.47668,0.54603 1.10892,3.46709 -0.86605,11.063 -1.97496,7.59591 -2.83158,10.31839 -4.38847,10.08432 l -15.20869,-2.28671 c -3.37293,7.36333 -8.89529,14.99462 -15.67397,21.00011 l 6.35466,14.08215 c 0.64662,1.43548 -1.69039,3.22382 -8.48605,7.15029 -6.79566,3.92651 -9.33576,5.22788 -10.26213,3.95487 l -9.04921,-12.43564 c -7.61151,2.76772 -16.92289,4.19293 -25.73704,3.62673 l -5.09889,14.54941 c -0.54319,1.47772 -3.46396,1.11867 -11.06538,-0.83493 -7.60145,-1.95358 -10.32632,-2.80254 -10.09663,-4.36009 l 2.24393,-15.21506 c -7.3728,-3.69688 -15.01959,-8.85306 -20.99288,-15.6754 l -13.95502,6.45987 c -1.42776,0.66349 -3.24352,-1.65228 -7.24982,-8.40119 -4.00634,-6.74891 -5.33755,-9.27349 -4.07555,-10.21481 l 12.32812,-9.19514 c -2.85724,-7.57836 -4.39209,-16.8723 -3.90516,-25.93225 l -14.53008,-5.31612 c -1.47854,-0.54095 -1.12396,-3.46225 0.81802,-11.06666 1.94196,-7.60443 2.78687,-10.33131 4.34466,-10.10328 l 15.56315,2.27814 c 3.34093,-7.37792 8.77401,-14.85152 15.52679,-20.91119 l -6.56615,-13.23378 c -0.69976,-1.41034 1.62483,-3.25737 8.33967,-7.32053 6.71484,-4.0632 9.22796,-5.41558 10.18002,-4.16166 l 9.12659,12.02023 c 7.55396,-2.92114 17.0644,-4.41953 26.12814,-4.00914 l 5.2898,-14.40375 c 0.54275,-1.47788 3.46465,-1.11653 11.06488,0.84175 7.60022,1.95827 10.32461,2.8089 10.09394,4.36631 l -2.2533,15.21367 c 7.37075,3.35673 15.01413,8.86233 21.05933,15.62808 z"
     style="fill:#ffe000;fill-opacity:1;fill-rule:evenodd;stroke:#000000;stroke-width:1px;stroke-linecap:butt;stroke-linejoin:miter;stroke-opacity:1" /><circle
     r="46.915161"
     cy="392.44968"
     cx="303.00427"
     id="circle4275"
     style="opacity:0.98999999;fill:#e00e00;fill-opacity:1;fill-rule:evenodd;stroke:#000000;stroke-width:1;stroke-linecap:round;stroke-linejoin:round;stroke-miterlimit:4;stroke-dasharray:none;stroke-opacity:1" /><circle
     style="opacity:0.98999999;fill:#ffe000;fill-opacity:1;fill-rule:evenodd;stroke:#000000;stroke-width:1;stroke-linecap:round;stroke-linejoin:round;stroke-miterlimit:4;stroke-dasharray:none;stroke-opacity:1"
     id="circle4503"
     cx="303.00427"
     cy="392.44968"
     r="34.052231" /><path
     style="fill:#ffe000;fill-opacity:1;fill-rule:evenodd;stroke:#000000;stroke-width:1;stroke-linecap:butt;stroke-linejoin:miter;stroke-miterlimit:4;stroke-dasharray:none;stroke-opacity:1"
     d="m 412.35942,234.52581 c 0.8076,-0.84208 2.68426,0.26896 7.26578,3.85282 4.58139,3.58379 6.17963,4.96948 5.56113,5.95887 l -6.04185,9.66511 c 4.01091,4.46558 7.66468,10.4795 9.76435,16.86747 l 11.36812,-0.30045 c 1.16641,-0.0309 1.71753,2.08037 2.44978,7.85077 0.73235,5.77038 0.89239,7.87949 -0.24338,8.14707 l -11.09451,2.61365 c -0.29359,5.9952 -1.99259,12.76661 -5.00354,18.76514 l 8.24946,7.94024 c 0.84015,0.80978 -0.27559,2.68367 -3.87062,7.25629 -3.59496,4.57273 -4.98455,6.16749 -5.97244,5.54662 l -9.65024,-6.06555 c -4.47542,4.00001 -10.49013,7.54415 -16.71095,9.58116 l 0.49706,11.41509 c 0.0331,1.16632 -2.07549,1.72334 -7.84377,2.47182 -5.76829,0.74852 -7.87698,0.91459 -8.14777,-0.22035 l -2.64479,-11.08713 c -6.09099,-0.51402 -12.77217,-1.95669 -18.76057,-5.00657 l -7.82386,8.28689 c -0.79975,0.84965 -2.6867,-0.24392 -7.30138,-3.78481 -4.61474,-3.54087 -6.2258,-4.91147 -5.61658,-5.90666 l 5.95137,-9.7211 c -4.0525,-4.42798 -7.66729,-10.40044 -9.82652,-16.76861 l -11.46155,0.34231 c -1.16632,0.0353 -1.72656,-2.07289 -2.48389,-7.84003 -0.75732,-5.76713 -0.92664,-7.87615 0.20806,-8.1481 l 11.33601,-2.71713 c 0.26766,-5.99638 1.94853,-12.63469 4.92679,-18.66341 l -8.16149,-7.29827 c -0.8697,-0.77784 0.22124,-2.68869 3.72303,-7.33314 3.50178,-4.64447 4.85874,-6.26696 5.859,-5.66622 l 9.58924,5.75834 c 4.39354,-4.0897 10.52504,-7.739 16.87466,-9.95196 l -0.32553,-11.36743 c -0.033,-1.1663 2.07657,-1.72208 7.84535,-2.46696 5.76876,-0.745 7.87751,-0.90975 8.14758,0.22548 l 2.63801,11.08869 c 5.99584,0.28048 12.77092,1.96453 18.79323,4.95574 z"
     id="path4279" /><circle
     r="32.408203"
     cy="286.19992"
     cx="382.9173"
     id="circle4513"
     style="opacity:0.98999999;fill:#e00e00;fill-opacity:1;fill-rule:evenodd;stroke:#000000;stroke-width:1;stroke-linecap:round;stroke-linejoin:round;stroke-miterlimit:4;stroke-dasharray:none;stroke-opacity:1" /><circle
     style="opacity:0.98999999;fill:#ffe000;fill-opacity:1;fill-rule:evenodd;stroke:#000000;stroke-width:1;stroke-linecap:round;stroke-linejoin:round;stroke-miterlimit:4;stroke-dasharray:none;stroke-opacity:1"
     id="circle4511"
     cx="382.9173"
     cy="286.19992"
     r="19.957302" /><circle
     r="11.337449"
     cy="286.19992"
     cx="382.9173"
     id="circle4281"
     style="opacity:0.98999999;fill:#e00e00;fill-opacity:1;fill-rule:evenodd;stroke:#000000;stroke-width:1;stroke-linecap:round;stroke-linejoin:round;stroke-miterlimit:4;stroke-dasharray:none;stroke-opacity:1" /><path
     id="path4285"
     d="m 454.30219,33.006577 c -42.6569,26.58466 -69.86644,65.389421 -88.42852,90.325473 -34.21087,45.95842 -51.38382,84.98014 -82.50822,123.53562 -39.45225,48.87165 -90.14305,78.98459 -132.46064,119.24769 -39.89985,37.96273 -62.482225,75.11419 -78.072142,121.28412 2.00566,2.48463 21.484666,18.62478 22.431554,18.15134 8.876718,-46.58961 38.483278,-85.11786 65.225568,-116.38964 34.24305,-40.04298 66.15579,-59.06022 104.80005,-94.68896 22.05518,-20.33417 38.90729,-37.9092 55.14719,-65.06742 19.90034,-32.02972 40.17046,-68.73562 67.16431,-103.89831 24.21828,-31.547178 46.85624,-59.64851 71.38753,-73.03387 L 459,32.999999 Z"
     style="fill:#ffe000;fill-opacity:1;fill-rule:evenodd;stroke:none;stroke-width:1px;stroke-linecap:butt;stroke-linejoin:miter;stroke-opacity:1" /><path
     id="path4291"
     d="m 84.256181,133.08191 0.214685,41.90149 18.930804,-20.59504 z"
     style="fill:#e00e00;fill-opacity:1;fill-rule:evenodd;stroke:#000000;stroke-width:1px;stroke-linecap:butt;stroke-linejoin:miter;stroke-opacity:1" /><path
     id="path4293"
     d="m 124.59233,153.02865 7.08478,6.5712 0.13232,-17.37819 z"
     style="fill:#e00e00;fill-opacity:1;fill-rule:evenodd;stroke:#000000;stroke-width:1px;stroke-linecap:butt;stroke-linejoin:miter;stroke-opacity:1" /><path
     id="path4295"
     d="M 132.25501,47.976509 C 111.29532,63.835767 83.196859,88.113624 83.196859,88.113624 l 0.278544,26.114566 30.606417,28.88917 17.86042,-19.61539 z"
     style="fill:#e00e00;fill-opacity:1;fill-rule:evenodd;stroke:#000000;stroke-width:1px;stroke-linecap:butt;stroke-linejoin:miter;stroke-opacity:1" /><path
     id="path4297"
     d="m 148.96238,68.048678 0.51055,31.254953 32.7991,22.236669 -0.59005,-77.587561 z"
     style="fill:#e00e00;fill-opacity:1;fill-rule:evenodd;stroke:#000000;stroke-width:1px;stroke-linecap:butt;stroke-linejoin:miter;stroke-opacity:1" /><path
     id="path4299"
     d="m 149.67698,112.20917 3.64968,162.7691 28.16245,-20.16949 c -0.75828,-128.1196 -0.36344,-114.45774 -0.36344,-114.45774 z"
     style="fill:#e00e00;fill-opacity:1;fill-rule:evenodd;stroke:#000000;stroke-width:1px;stroke-linecap:butt;stroke-linejoin:miter;stroke-opacity:1" /><path
     id="path4301"
     d="m 225.75772,119.73875 -23.24801,22.83523 2.79877,90.987 c 8.18691,-6.53245 16.05383,-13.59822 22.98453,-22.22435 z"
     style="fill:#e00e00;fill-opacity:1;fill-rule:evenodd;stroke:#000000;stroke-width:1px;stroke-linecap:butt;stroke-linejoin:miter;stroke-opacity:1" /><path
     id="path4305"
     d="m 249.04358,184.81267 -3.55743,-69.41902 25.53918,18.85013 0.39188,20.66793 c -6.4612,10.96366 -14.24129,20.60844 -22.37363,29.90096 z"
     style="fill:#e00e00;fill-opacity:1;fill-rule:evenodd;stroke:#000000;stroke-width:1px;stroke-linecap:butt;stroke-linejoin:miter;stroke-opacity:1" /><path
     id="path4307"
     d="m 268.69175,48.413803 -24.19227,19.894435 0.58377,39.556102 25.52946,11.67665 z"
     style="fill:#e00e00;fill-opacity:1;fill-rule:evenodd;stroke:#000000;stroke-width:1px;stroke-linecap:butt;stroke-linejoin:miter;stroke-opacity:1" /><path
     id="path4309"
     d="m 310.82682,57.902832 -19.78283,26.752688 0.8013,38.14001 18.87785,-22.59223 z"
     style="fill:#e00e00;fill-opacity:1;fill-rule:evenodd;stroke:#000000;stroke-width:1px;stroke-linecap:butt;stroke-linejoin:miter;stroke-opacity:1" /><path
     id="path4311"
     d="m 199.34107,61.756777 26.51401,30.161338 -0.0585,14.431775 -24.16481,17.35853 z"
     style="fill:#e00e00;fill-opacity:1;fill-rule:evenodd;stroke:#000000;stroke-width:1px;stroke-linecap:butt;stroke-linejoin:miter;stroke-opacity:1" /><path
     id="path4313"
     d="M 115.1065,167.0938 85.396134,211.15915 84.907825,327.90712 C 99.494243,314.89214 113.85732,301.2056 128.44374,289.45147 l 2.18315,-104.93164 z"
     style="fill:#e00e00;fill-opacity:1;fill-rule:evenodd;stroke:#000000;stroke-width:1px;stroke-linecap:butt;stroke-linejoin:miter;stroke-opacity:1" /><path
     id="path4392"
     d="m 132.39834,38.440291 -0.14333,9.536218"
     style="fill:none;fill-rule:evenodd;stroke:#000000;stroke-width:1px;stroke-linecap:butt;stroke-linejoin:miter;stroke-opacity:1" /><path
     id="path4394"
     d="m 131.94224,121.50197 -0.13281,20.71969"
     style="fill:none;fill-rule:evenodd;stroke:#000000;stroke-width:1px;stroke-linecap:butt;stroke-linejoin:miter;stroke-opacity:1" /><path
     id="path4396"
     d="M 124.59233,153.02865 115.1065,167.0938"
     style="fill:none;fill-rule:evenodd;stroke:#000000;stroke-width:1px;stroke-linecap:butt;stroke-linejoin:miter;stroke-opacity:1" /><path
     id="path4398"
     d="m 114.08182,143.11736 -10.68015,11.271"
     style="fill:none;fill-rule:evenodd;stroke:#000000;stroke-width:1px;stroke-linecap:butt;stroke-linejoin:miter;stroke-opacity:1" /><path
     id="path4400"
     d="m 83.475403,114.22819 0.780778,18.85372"
     style="fill:none;fill-rule:evenodd;stroke:#000000;stroke-width:1px;stroke-linecap:butt;stroke-linejoin:miter;stroke-opacity:1" /><path
     id="path4402"
     d="m 225.79658,106.34989 -0.0389,13.38886"
     style="fill:none;fill-rule:evenodd;stroke:#000000;stroke-width:1px;stroke-linecap:butt;stroke-linejoin:miter;stroke-opacity:1" /><path
     id="path4404"
     d="m 245.08325,107.86434 0.4029,7.52931"
     style="fill:none;fill-rule:evenodd;stroke:#000000;stroke-width:1px;stroke-linecap:butt;stroke-linejoin:miter;stroke-opacity:1" /><path
     id="path4408"
     d="m 268.38132,33.639101 0.31043,14.774702"
     style="fill:none;fill-rule:evenodd;stroke:#000000;stroke-width:1px;stroke-linecap:butt;stroke-linejoin:miter;stroke-opacity:1" /><path
     id="path4410"
     d="m 311.01885,43.442792 -0.19203,14.46004"
     style="fill:none;fill-rule:evenodd;stroke:#000000;stroke-width:1px;stroke-linecap:butt;stroke-linejoin:miter;stroke-opacity:1" /><path
     id="path4412"
     d="m 198.70775,49.634408 0.63332,12.122369"
     style="fill:none;fill-rule:evenodd;stroke:#000000;stroke-width:1px;stroke-linecap:butt;stroke-linejoin:miter;stroke-opacity:1" /><path
     id="path4414"
     d="m 181.57981,33.265817 0.10217,10.686922"
     style="fill:none;fill-rule:evenodd;stroke:#000000;stroke-width:1px;stroke-linecap:butt;stroke-linejoin:miter;stroke-opacity:1" /><path
     id="path4416"
     d="m 149.47293,99.303631 0.20405,12.905539"
     style="fill:none;fill-rule:evenodd;stroke:#000000;stroke-width:1px;stroke-linecap:butt;stroke-linejoin:miter;stroke-opacity:1" /><path
     style="fill:none;fill-opacity:1;fill-rule:evenodd;stroke:#000000;stroke-width:1px;stroke-linecap:butt;stroke-linejoin:miter;stroke-opacity:1"
     d="m 95.264222,505.55082 c 9.070968,-46.22539 38.643048,-85.30469 65.225568,-116.38964 34.24305,-40.04298 66.15579,-59.06022 104.80005,-94.68896 22.05518,-20.33417 38.90729,-37.9092 55.14719,-65.06742 19.90034,-32.02972 40.17046,-68.73562 67.16431,-103.89831 24.21828,-31.547178 46.85624,-59.64851 71.38753,-73.03387 m -4.68668,-19.466043 c -42.6569,26.58466 -69.86644,65.389421 -88.42852,90.325473 -34.21087,45.95842 -51.38382,84.98014 -82.50822,123.53562 -39.45225,48.87165 -90.14305,78.98459 -132.46064,119.24769 -39.89985,37.96273 -62.482225,75.11419 -78.072142,121.28412"
     id="path4428" /><path
     style="fill:none;fill-rule:evenodd;stroke:#000000;stroke-width:1px;stroke-linecap:butt;stroke-linejoin:miter;stroke-opacity:1"
     d="m 459,33 0,278.52836 c 0,90.28213 0.98574,137.21141 -41.79736,176.8314 C 375.15063,527.30272 340.62712,530 288.13508,530 L 245.5,530 202.86492,530 C 150.37288,530 115.84937,527.30272 73.797356,488.35976 31.014259,448.73977 32,401.81049 32,311.52836 L 32,33 c 142.33333,0 284.66667,0 427,0 z"
     id="path4495" /><path
     id="path4501"
     d="m 58.642821,33.021475 -2.07162,90.942265 -24.771063,-22.08001 0,31.59672 25.724727,33.5711 -5.746155,192.3452 -19.010532,20.05227 m 5.556551,47.54277 C 83.75088,358.14838 126.1783,317.6381 180.63821,279.3198 c 27.52858,-19.36926 50.6359,-41.12612 70.84716,-66.4426 35.96704,-45.05204 62.06492,-94.96773 82.02202,-117.952471 29.52364,-34.002602 54.92277,-53.219579 64.57946,-61.745324 m -20.47856,-0.265608 c -14.77073,10.797408 -47.62888,43.565969 -47.62888,43.565969 0,0 -0.7097,-19.702754 -1.96155,-43.456051 m -16.66075,0.07655 -0.33826,10.342527 -20.33812,24.194411 -0.57461,-34.313947 m -21.7248,0.315849 c 0,0 -20.12119,13.969817 -25.70764,17.160033 l -0.68303,-17.199611 m -15.85601,-0.07534 0.6277,38.545227 -28.05459,-22.435006 -0.45333,-16.009738 m -16.67461,-0.358853 -34.54892,21.552187 -0.30517,-21.785456 m -14.31678,0.157925 -0.0106,5.249822 -49.445227,30.472602 0.397646,-35.808832"
     style="fill:none;fill-opacity:1;fill-rule:evenodd;stroke:#000000;stroke-width:1px;stroke-linecap:round;stroke-linejoin:round;stroke-opacity:1" /><circle
     r="14.341648"
     cy="392.44968"
     cx="303.00427"
     id="circle4505"
     style="opacity:0.98999999;fill:#e00e00;fill-opacity:1;fill-rule:evenodd;stroke:#000000;stroke-width:1;stroke-linecap:round;stroke-linejoin:round;stroke-miterlimit:4;stroke-dasharray:none;stroke-opacity:1" /><circle
     style="opacity:0.98999999;fill:#ffe000;fill-opacity:1;fill-rule:evenodd;stroke:#000000;stroke-width:1;stroke-linecap:round;stroke-linejoin:round;stroke-miterlimit:4;stroke-dasharray:none;stroke-opacity:1"
     id="circle4507"
     cx="303.00427"
     cy="392.44968"
     r="4.6785355" /><circle
     style="opacity:0.98999999;fill:#ffe000;fill-opacity:1;fill-rule:evenodd;stroke:#000000;stroke-width:1;stroke-linecap:round;stroke-linejoin:round;stroke-miterlimit:4;stroke-dasharray:none;stroke-opacity:1"
     id="circle4509"
     cx="382.9173"
     cy="286.19992"
     r="4.6331215" /></svg>