<svg xmlns:dc="http://purl.org/dc/elements/1.1/" xmlns:cc="http://creativecommons.org/ns#" xmlns:rdf="http://www.w3.org/1999/02/22-rdf-syntax-ns#" xmlns:svg="http://www.w3.org/2000/svg" xmlns="http://www.w3.org/2000/svg" xml:space="preserve" enable-background="new 30.5 31.5 412 533" viewBox="30.5 31.5 400 500" height="500" width="400" y="0" x="0" version="1.1" id="svg2">
  <metadata id="metadata4">
    <rdf:RDF>
      <cc:Work rdf:about="">
        <dc:format>
          
          image/svg+xml
        
        </dc:format>
        <dc:type rdf:resource="http://purl.org/dc/dcmitype/StillImage"/>
      </cc:Work>
    </rdf:RDF>
  </metadata>
  <defs id="defs6"/>
  <path d="M230.55 531.13C304.87 477.21 355.81 409.11 386.29 322.97 413.93 244.87 425.02 150.22 420.2 33.62l-0.02-0.46-379.82 0-0.02 0.46c-4.81 116.6 6.28 211.24 33.91 289.35 30.48 86.14 81.42 154.24 155.74 208.16l0.28 0.2 0.28-0.2z" id="path8" fill="#ffe000"/>
  <path d="m41.04 33.21c-9.07 219.45 36.25 385.95 189.45 497.1 84.47-61.29 136.15-139.41 163.99-233.97 2.09-7.09 4.04-14.27 5.87-21.54 11.45-45.69 17.77-95.02 19.88-147.94 1.2-30.06 1.05-61.28-0.29-93.65l-189.45 0-189.45 0m-0.92-0.95 0.92 0 189.45 0 189.45 0 0.92 0 0.04 0.92c4.82 116.66-6.28 211.36-33.93 289.52-30.51 86.24-81.51 154.41-155.91 208.39l-0.56 0.41-0.56-0.41C155.54 477.11 104.54 408.94 74.03 322.7 46.38 244.54 35.28 149.84 40.1 33.18l0.04-0.92 0 0z" id="path10"/>
  <path id="path3857" d="m328.65 190.84 6.26 8.46 6.42 0 0-33.2-6.42 0-6.26 7.2-21.56 0 27.04-25.37 0.31-69.06-12.37-0.16 0.16 14.41c-61.15 0-122.31 0-183.46 0l0.16-14.41-12.37 0.16 0.31 69.06 27.04 25.37-21.56 0-6.26-7.2-6.42 0 0 33.2 6.42 0 6.26-8.46c66.96-0.01 131.7-0.26 196.3 0z" style="fill:#000;stroke-width:0.99;stroke:#000"/>
  <path id="path3935" d="m236.79 203.32a29.39 29.39 0 1 0 58.78 0 29.39 29.39 0 1 0-58.78 0z" fill="#ffe000"/>
  <path id="path3875" d="m242.04 203.32a24.14 24.14 0 0 0 48.29 0 24.14 24.14 0 1 0-48.29 0z" style="fill:#ffe000;stroke-miterlimit:4;stroke-width:8.22;stroke:#000"/>
  <path id="path3879" d="m266.18 178.93 0 47.92" style="fill:none;stroke-miterlimit:4;stroke-width:7.93;stroke:#000"/>
  <path id="path3883" d="m291.55 203.52-50.27 0" style="fill:none;stroke-miterlimit:4;stroke-width:7.93;stroke:#000"/>
  <rect transform="scale(-1,1)" id="rect3893" y="197.08" x="-272.62" height="12.88" width="12.88" fill="#000"/>
  <path id="path3937" d="m165.46 203.32a29.36 29.36 0 1 0 58.72 0 29.36 29.36 0 1 0-58.72 0z" fill="#ffe000"/>
  <path id="path3909" d="m170.71 203.32a24.11 24.11 0 0 0 48.22 0 24.11 24.11 0 1 0-48.22 0z" style="fill:#ffe000;stroke-miterlimit:4;stroke-width:8.22;stroke:#000"/>
  <path id="path3911" d="m194.82 178.93 0 47.92" style="fill:none;stroke-miterlimit:4;stroke-width:7.93;stroke:#000"/>
  <path id="path3913" d="m220.19 203.52-50.27 0" style="fill:none;stroke-miterlimit:4;stroke-width:7.93;stroke:#000"/>
  <rect transform="scale(-1,1)" id="rect3915" y="197.08" x="-201.26" height="12.88" width="12.88" fill="#000"/>
  <path id="path3917" d="m328.65 360.84 6.26 8.46 6.42 0 0-33.2-6.42 0-6.26 7.2-21.56 0 27.04-25.37 0.31-69.06-12.37-0.16 0.16 14.41c-61.15 0-122.31 0-183.46 0l0.16-14.41-12.37 0.16 0.31 69.06 27.04 25.37-21.56 0-6.26-7.2-6.42 0 0 33.2 6.42 0 6.26-8.46c67.64-0.12 140.75-0.23 196.3 0z" style="fill:#000;stroke-width:0.99;stroke:#000"/>
  <path id="path3939" d="m236.85 373.32a29.33 29.33 0 1 0 58.66 0 29.33 29.33 0 1 0-58.66 0z" fill="#ffe000"/>
  <path id="path3919" d="m242.1 373.32a24.08 24.08 0 0 0 48.16 0 24.08 24.08 0 1 0-48.16 0z" style="fill:#ffe000;stroke-miterlimit:4;stroke-width:8.22;stroke:#000"/>
  <path id="path3921" d="m266.18 348.93 0 47.92" style="fill:none;stroke-miterlimit:4;stroke-width:7.93;stroke:#000"/>
  <path id="path3923" d="m291.55 373.52-50.27 0" style="fill:none;stroke-miterlimit:4;stroke-width:7.93;stroke:#000"/>
  <rect transform="scale(-1,1)" id="rect3925" y="367.08" x="-272.62" height="12.88" width="12.88" fill="#000"/>
  <path id="path3941" d="m165.49 373.32a29.33 29.33 0 1 0 58.66 0 29.33 29.33 0 1 0-58.66 0z" fill="#ffe000"/>
  <path id="path3927" d="m170.74 373.32a24.08 24.08 0 0 0 48.16 0 24.08 24.08 0 1 0-48.16 0z" style="fill:#ffe000;stroke-miterlimit:4;stroke-width:8.22;stroke:#000"/>
  <path id="path3929" d="m194.82 348.93 0 47.92" style="fill:none;stroke-miterlimit:4;stroke-width:7.93;stroke:#000"/>
  <path id="path3931" d="m220.19 373.52-50.27 0" style="fill:none;stroke-miterlimit:4;stroke-width:7.93;stroke:#000"/>
  <rect transform="scale(-1,1)" id="rect3933" y="367.08" x="-201.26" height="12.88" width="12.88" fill="#000"/>
</svg>
