<?xml version="1.0" encoding="UTF-8" standalone="no"?>
<svg
   xmlns:dc="http://purl.org/dc/elements/1.1/"
   xmlns:cc="http://creativecommons.org/ns#"
   xmlns:rdf="http://www.w3.org/1999/02/22-rdf-syntax-ns#"
   xmlns:svg="http://www.w3.org/2000/svg"
   xmlns="http://www.w3.org/2000/svg"
   id="svg2"
   version="1.1"
   x="0"
   y="0"
   width="400"
   height="500"
   viewBox="30.5 31.5 400 500"
   enable-background="new 30.5 31.5 412 533"
   xml:space="preserve"><metadata
     id="metadata4"><rdf:RDF><cc:Work
         rdf:about=""><dc:format>
          
          
          
          
          
          
          
          
          image/svg+xml
        
        
        
        
        
        
        
        
        </dc:format><dc:type
           rdf:resource="http://purl.org/dc/dcmitype/StillImage" /><dc:title></dc:title></cc:Work></rdf:RDF></metadata><defs
     id="defs6" /><path
     style="fill:#0085ca"
     d="M 230.55,531.13 C 304.87,477.21 355.81,409.11 386.29,322.97 413.93,244.87 425.02,150.22 420.2,33.62 l -0.02,-0.46 -379.82,0 -0.02,0.46 c -4.81,116.6 6.28,211.24 33.91,289.35 30.48,86.14 81.42,154.24 155.74,208.16 l 0.28,0.2 z"
     id="path4148" /><path
     id="path10"
     d="m 41.04,33.21 c -9.07,219.45 36.25,385.95 189.45,497.1 84.47,-61.29 136.15,-139.41 163.99,-233.97 2.09,-7.09 4.04,-14.27 5.87,-21.54 11.45,-45.69 17.77,-95.02 19.88,-147.94 1.2,-30.06 1.05,-61.28 -0.29,-93.65 l -189.45,0 -189.45,0 m -0.92,-0.95 0.92,0 189.45,0 189.45,0 0.92,0 0.04,0.92 c 4.82,116.66 -6.28,211.36 -33.93,289.52 -30.51,86.24 -81.51,154.41 -155.91,208.39 l -0.56,0.41 -0.56,-0.41 C 155.54,477.11 104.54,408.94 74.03,322.7 46.38,244.54 35.28,149.84 40.1,33.18 l 0.04,-0.92 0,0 z" /><rect
     y="115.5"
     x="73.5"
     height="18"
     width="314"
     id="rect4323"
     style="fill:#ffffff;fill-opacity:1;stroke:#000000;stroke-width:1;stroke-linecap:round;stroke-linejoin:round;stroke-miterlimit:4;stroke-dasharray:none;stroke-opacity:1" /><path
     style="fill:#ffffff;fill-rule:evenodd;stroke:#000000;stroke-width:1px;stroke-linecap:butt;stroke-linejoin:miter;stroke-opacity:1"
     d="m 189.3107,396.5 c -5.29786,-78.78204 5.05913,-139.5269 10.98158,-204.58457 3.98817,-43.80977 -22.44046,-52.92998 -37.16846,-57.0198 l 0,-20.48488 C 173.15525,97.66958 205.22804,91.5 230.5,91.5 c 25.27196,0 57.34475,6.16958 67.37618,22.91075 l 0,20.48488 c -14.728,4.08982 -41.15663,13.21003 -37.16846,57.0198 5.92245,65.05767 16.27944,125.80253 10.98158,204.58457 -27.45953,0 -54.91907,0 -82.3786,0"
     id="path4150" /></svg>