<?xml version="1.0" encoding="UTF-8" standalone="no"?>
<svg
   xmlns:dc="http://purl.org/dc/elements/1.1/"
   xmlns:cc="http://creativecommons.org/ns#"
   xmlns:rdf="http://www.w3.org/1999/02/22-rdf-syntax-ns#"
   xmlns:svg="http://www.w3.org/2000/svg"
   xmlns="http://www.w3.org/2000/svg"
   id="svg2"
   version="1.1"
   x="0"
   y="0"
   width="400"
   height="500"
   viewBox="30.5 31.5 400 500"
   enable-background="new 30.5 31.5 412 533"
   xml:space="preserve"><metadata
     id="metadata4"><rdf:RDF><cc:Work
         rdf:about=""><dc:format>
          
          
          
          
          image/svg+xml
        
        
        
        
        </dc:format><dc:type
           rdf:resource="http://purl.org/dc/dcmitype/StillImage" /><dc:title></dc:title></cc:Work></rdf:RDF></metadata><defs
     id="defs6" /><path
     id="path8"
     d="m 230.99616,531.14 c 74.32,-53.92 125.26,-122.02 155.74,-208.16 27.64,-78.1 38.73,-172.75 33.91,-289.35 l -0.02,-0.46 -379.82,0 -0.02,0.46 c -4.81,116.6 6.28,211.24 33.91,289.35 30.48,86.14 81.42,154.24 155.74,208.16 l 0.28,0.2 0.28,-0.2 z"
     style="fill:#32ac60;fill-opacity:1" /><path
     id="path4339"
     d="m 165.55455,32.750948 -0.0546,14.74905 c 0,21.22456 13.04969,30.92789 29.729,30.68234 17.74669,-0.26127 31.14308,-16.26768 61.82196,-15.54134 C 292.4226,63.478438 307.16047,96.557858 308,116.5 c -0.83953,19.94214 -15.5774,49.02156 -50.94904,49.859 -30.67888,0.72634 -44.07527,-15.28007 -61.82196,-15.54134 -16.67931,-0.24555 -29.729,9.45778 -29.729,30.68234 0,21.22456 13.04969,30.92789 29.729,30.68234 17.74669,-0.26127 31.14308,-16.26768 61.82196,-15.54134 35.37164,0.83744 50.10951,29.91686 50.94904,49.859 -0.83953,19.94214 -15.5774,49.02156 -50.94904,49.859 -30.67888,0.72634 -44.07527,-15.28007 -61.82196,-15.54134 -16.67931,-0.24555 -29.729,9.45778 -29.729,30.68234 0,21.22456 13.04969,30.92789 29.729,30.68234 17.74669,-0.26127 31.14308,-16.26768 61.82196,-15.54134 35.37164,0.83744 50.10951,31.91686 50.94904,51.859 -0.83953,19.94214 -15.5774,51.02156 -50.94904,51.859 -30.67888,0.72634 -44.07527,-13.28007 -61.82196,-13.54134 -16.67931,-0.24555 -27.72191,7.0725 -34.96578,27.04585 l -6.26242,17.26722 -15.36479,-18.79462 c 5.37557,-20.30712 12.7525,-32.12138 28.60958,-41.50526 9.95638,-5.89197 24.90044,-8.58825 41.26787,-4.84691 15.59571,3.56494 30.69008,12.18869 46.37744,11.9765 16.07232,-0.2174 30.3909,-11.79954 30.6091,-29.46044 -0.2182,-17.6609 -14.53678,-29.24304 -30.6091,-29.46044 -15.68736,-0.21219 -30.78173,10.41156 -46.37744,13.9765 -16.36743,3.74134 -31.31149,1.04506 -41.26787,-4.84691 C 151.38851,348.78527 143,335.5772 143,311.5 c 0,-24.0772 8.38851,-37.28527 24.24559,-46.66915 9.95638,-5.89197 24.90044,-8.58825 41.26787,-4.84691 15.59571,3.56494 30.69008,14.18869 46.37744,13.9765 16.07232,-0.2174 30.3909,-9.79954 30.6091,-27.46044 -0.2182,-17.6609 -14.53678,-27.24304 -30.6091,-27.46044 -15.68736,-0.21219 -30.78173,10.41156 -46.37744,13.9765 -16.36743,3.74134 -31.31149,1.04506 -41.26787,-4.84691 C 151.38851,218.78527 143,205.5772 143,181.5 c 0,-24.0772 8.38851,-37.28527 24.24559,-46.66915 9.95638,-5.89197 24.90044,-8.58825 41.26787,-4.84691 15.59571,3.56494 30.69008,14.18869 46.37744,13.9765 C 270.96322,143.74304 285.2818,134.1609 285.5,116.5 285.2818,98.839098 270.96322,85.256958 254.8909,85.039558 239.20354,84.827368 224.10917,95.451118 208.51346,99.01606 192.14603,102.7574 177.20197,100.06112 167.24559,94.169148 151.38851,84.785268 143,71.577198 143,47.499998 l 0.1091,-14.694501 z"
     style="fill:#ffffff;fill-rule:evenodd;stroke:none;stroke-width:1px;stroke-linecap:butt;stroke-linejoin:miter;stroke-opacity:1" /><path
     id="path10"
     d="M 419.96,33.21 C 429.03,252.66 383.7,419.16 230.5,530.31 77.31,419.16 31.99,252.66 41.06,33.21 l 189.45,0 189.45,0 m 0.92,-0.95 -0.92,0 -189.45,0 -189.45,0 -0.92,0 -0.04,0.92 c -4.82,116.66 6.28,211.36 33.93,289.52 30.51,86.24 81.51,154.41 155.91,208.39 l 0.56,0.41 0.56,-0.41 C 305.46,477.11 356.46,408.94 386.97,322.7 414.62,244.54 425.72,149.84 420.9,33.18 l -0.04,-0.92 0,0 z" /><path
     style="fill:none;fill-rule:evenodd;stroke:#000000;stroke-width:1px;stroke-linecap:butt;stroke-linejoin:miter;stroke-opacity:1"
     d="m 138.63601,442.33611 c 5.37557,-20.30712 12.7525,-32.12138 28.60958,-41.50526 9.95638,-5.89197 24.90044,-8.58825 41.26787,-4.84691 15.59571,3.56494 30.69008,12.18869 46.37744,11.9765 16.07232,-0.2174 30.3909,-11.79954 30.6091,-29.46044 -0.2182,-17.6609 -14.53678,-29.24304 -30.6091,-29.46044 -15.68736,-0.21219 -30.78173,10.41156 -46.37744,13.9765 -16.36743,3.74134 -31.31149,1.04506 -41.26787,-4.84691 C 151.38851,348.78527 143,335.5772 143,311.5 c 0,-24.0772 8.38851,-37.28527 24.24559,-46.66915 9.95638,-5.89197 24.90044,-8.58825 41.26787,-4.84691 15.59571,3.56494 30.69008,14.18869 46.37744,13.9765 16.07232,-0.2174 30.3909,-9.79954 30.6091,-27.46044 -0.2182,-17.6609 -14.53678,-27.24304 -30.6091,-27.46044 -15.68736,-0.21219 -30.78173,10.41156 -46.37744,13.9765 -16.36743,3.74134 -31.31149,1.04506 -41.26787,-4.84691 C 151.38851,218.78527 143,205.5772 143,181.5 c 0,-24.0772 8.38851,-37.28527 24.24559,-46.66915 9.95638,-5.89197 24.90044,-8.58825 41.26787,-4.84691 15.59571,3.56494 30.69008,14.18869 46.37744,13.9765 C 270.96322,143.74304 285.2818,134.1609 285.5,116.5 285.2818,98.839098 270.96322,85.256958 254.8909,85.039558 239.20354,84.827368 224.10917,95.451118 208.51346,99.01606 192.14603,102.7574 177.20197,100.06112 167.24559,94.169148 151.38851,84.785268 143,71.577198 143,47.499998 l 0.1091,-14.694501 m 22.44545,-0.05455 -0.0546,14.74905 c 0,21.22456 13.04969,30.92789 29.729,30.68234 17.74669,-0.26127 31.14308,-16.26768 61.82196,-15.54134 C 292.4226,63.478438 307.16047,96.557858 308,116.5 c -0.83953,19.94214 -15.5774,49.02156 -50.94904,49.859 -30.67888,0.72634 -44.07527,-15.28007 -61.82196,-15.54134 -16.67931,-0.24555 -29.729,9.45778 -29.729,30.68234 0,21.22456 13.04969,30.92789 29.729,30.68234 17.74669,-0.26127 31.14308,-16.26768 61.82196,-15.54134 35.37164,0.83744 50.10951,29.91686 50.94904,49.859 -0.83953,19.94214 -15.5774,49.02156 -50.94904,49.859 -30.67888,0.72634 -44.07527,-15.28007 -61.82196,-15.54134 -16.67931,-0.24555 -29.729,9.45778 -29.729,30.68234 0,21.22456 13.04969,30.92789 29.729,30.68234 17.74669,-0.26127 31.14308,-16.26768 61.82196,-15.54134 35.37164,0.83744 50.10951,31.91686 50.94904,51.859 -0.83953,19.94214 -15.5774,51.02156 -50.94904,51.859 -30.67888,0.72634 -44.07527,-13.28007 -61.82196,-13.54134 -16.67931,-0.24555 -27.72191,7.0725 -34.96578,27.04585 l -6.26242,17.26722"
     id="path4311" /></svg>