<svg xmlns:dc="http://purl.org/dc/elements/1.1/" xmlns:cc="http://creativecommons.org/ns#" xmlns:rdf="http://www.w3.org/1999/02/22-rdf-syntax-ns#" xmlns:svg="http://www.w3.org/2000/svg" xmlns="http://www.w3.org/2000/svg" id="svg2" version="1.1" x="0" y="0" width="400" height="500" viewBox="30.5 31.5 400 500" enable-background="new 30.5 31.5 412 533" xml:space="preserve">
  <metadata id="metadata4">
    <rdf:RDF>
      <cc:Work rdf:about="">
        <dc:format>
          
          
          
          
          image/svg+xml
        
        
        
        
        </dc:format>
        <dc:type rdf:resource="http://purl.org/dc/dcmitype/StillImage"/>
      </cc:Work>
    </rdf:RDF>
  </metadata>
  <defs id="defs6"/>
  <path id="path8" d="M230.56 531.14C304.88 477.22 355.82 409.12 386.3 322.98 413.94 244.88 425.03 150.23 420.21 33.63l-0.02-0.46-379.82 0-0.02 0.46c-4.81 116.6 6.28 211.24 33.91 289.35 30.48 86.14 81.42 154.24 155.74 208.16l0.28 0.2 0.28-0.2z" fill="#e00e00"/>
  <path d="m42.82 166.58c1.75 20.9 4.43 43.78 7.55 60.92l40.52 0c-1.01-23.93 21.22-49.9 55.28-50.66 36.59-0.81 60.41 24.96 60.01 50.66l48.65 0c-0.4-25.7 23.42-51.47 60.01-50.66 34.06 0.76 56.29 26.73 55.28 50.66l40.39 0c3.58-19.62 5.73-40.14 7.7-60.78C367.64 138.58 307.34 126.5 230.5 126.5c-76.84 0-137.12 11.94-187.68 40.08z" id="path4220" style="fill-rule:evenodd;fill:#fff"/>
  <path id="path4222" d="m249.82 358.5c-0.26-22.27 19.36-38.62 44.77-39.09 18.18-0.34 44.56 12.16 44.59 39.09l32.93 0c6.04-14.07 11.58-27.94 16.19-41.4C345.95 290.62 302.01 279.5 230.5 279.5c-71.51 0-115.45 11.12-157.8 37.6 4.55 14.5 10.45 27.88 16.19 41.4l32.93 0c0.03-26.92 26.41-39.42 44.59-39.09 25.41 0.47 45.03 16.82 44.77 39.09 12.88 0 25.76 0 38.64 0z" style="fill-rule:evenodd;fill:#fff"/>
  <path id="path10" d="M41.04 33.21C31.97 252.66 77.3 419.16 230.5 530.31 383.69 419.16 429.01 252.66 419.94 33.21l-189.45 0-189.45 0m-0.92-0.95 0.92 0 189.45 0 189.45 0 0.92 0 0.04 0.92c4.82 116.66-6.28 211.36-33.93 289.52-30.51 86.24-81.51 154.41-155.91 208.39l-0.56 0.41-0.56-0.41C155.54 477.11 104.54 408.94 74.03 322.7 46.38 244.54 35.28 149.84 40.1 33.18l0.04-0.92 0 0z"/>
  <path id="path4228" d="m50.37 227.5 40.52 0c-1.01-23.93 21.22-49.9 55.28-50.66 36.59-0.81 60.41 24.96 60.01 50.66l48.65 0c-0.4-25.7 23.42-51.47 60.01-50.66 34.06 0.76 56.29 26.73 55.28 50.66l40.39 0M418.2 166.72C367.64 138.58 307.34 126.5 230.5 126.5c-76.84 0-137.12 11.94-187.68 40.08" style="fill:none;stroke:#000"/>
  <path d="M388.3 317.1C345.95 290.62 302.01 279.5 230.5 279.5c-71.51 0-115.45 11.12-157.8 37.6M88.89 358.5l32.93 0c0.03-26.92 26.41-39.42 44.59-39.09 25.41 0.47 45.03 16.82 44.77 39.09 12.88 0 25.76 0 38.64 0-0.26-22.27 19.36-38.62 44.77-39.09 18.18-0.34 44.56 12.16 44.59 39.09l32.93 0" id="path4230" style="fill:none;stroke:#000"/>
</svg>
