<svg xmlns:dc="http://purl.org/dc/elements/1.1/" xmlns:cc="http://creativecommons.org/ns#" xmlns:rdf="http://www.w3.org/1999/02/22-rdf-syntax-ns#" xmlns:svg="http://www.w3.org/2000/svg" xmlns="http://www.w3.org/2000/svg" xml:space="preserve" enable-background="new 30.5 31.5 412 533" viewBox="30.5 31.5 400 500" height="500" width="400" y="0" x="0" version="1.1" id="svg2">
  <metadata id="metadata4">
    <rdf:RDF>
      <cc:Work rdf:about="">
        <dc:format>
          
          
          
          
          image/svg+xml
        
        
        
        
        </dc:format>
        <dc:type rdf:resource="http://purl.org/dc/dcmitype/StillImage"/>
      </cc:Work>
    </rdf:RDF>
  </metadata>
  <defs id="defs6"/>
  <path d="M230.44 531.14C156.12 477.22 105.18 409.12 74.7 322.98 47.06 244.88 35.97 150.23 40.79 33.63l0.02-0.46 379.82 0 0.02 0.46c4.81 116.6-6.28 211.24-33.91 289.35C356.26 409.12 305.32 477.22 231 531.14l-0.28 0.2-0.28-0.2z" id="path8" fill="#32ac60"/>
  <path d="M419.96 33.21C429.03 252.66 383.7 419.16 230.5 530.31 77.31 419.16 31.99 252.66 41.06 33.21l189.45 0 189.45 0m0.92-0.95-0.92 0-189.45 0-189.45 0-0.92 0-0.04 0.92c-4.82 116.66 6.28 211.36 33.93 289.52 30.51 86.24 81.51 154.41 155.91 208.39l0.56 0.41 0.56-0.41C305.46 477.11 356.46 408.94 386.97 322.7 414.62 244.54 425.72 149.84 420.9 33.18l-0.04-0.92 0 0z" id="path10"/>
  <path d="m191.96 234.08c2.14 2.05 7.89 6.8 8.1 6.62 12.5-12.21 19.09-62.47 15.14-65.41-7.34-5.47-21.59-14.88-30.7-17.13-3.38-9.83-5.99-18.84-12.91-27.45-41.88-52.15-79-69.4-99.7-79.12-5.39-2.53-7.92 4.85-6.16 7.5 5.41 8.13 13.52 19.28 18.92 37.06-1.21 0.3-11.55-9.68-17.49-12.28-1.71-0.75-4.44 0.29-4.22-2.53 0.8-10.64-4.39-9.71-6.5-5.99-2.12 3.73-4.2 7.86-2.93 10.37 3.64 7.21 21.7 17.4 35.16 50.02 13.46 32.62 17.32 59.03 21.18 95.05-6.55 4.75-19.51 20.85-22.76 31.47 2.53 4.4 13.65 16.88 15.65 16.31 1.98-9.21 4.37-14.68 9.9-21.15-0.8 25.68 1.6 46.31 10.5 72.1-2.91 4.43-7.15 16.95-8.95 23.98 2.07 4.13 18.97 27.41 24.58 27.15 0.45-3.92-0.85-7.81 1.82-12.23 5.13 5.22 10.19 10.52 15.87 15.19 0 0-2.13 14.55 0.99 30.52 2.44 12.51 12.88 27.11 22.93 36.93-2.82-17.23 16.62-21.88 8.46-43.25 18.35 1.63 19.91-17.44 30.59-21.01-14.63-12.37-31.91-16.56-47.79-19.48-2.73-0.5-2.56-8.61-3.49-16.71 3.89 2.06 7.82 7.09 10.38 9.97 2-1.9 4.14-9.1 4.13-12.25-6.13-5.45-12.21-11.21-18.73-13.56-3.26-49.5 16.1-65.81 28.04-100.71z" id="path2827" style="fill:#fff;stroke-linecap:round;stroke-linejoin:round;stroke-miterlimit:4;stroke:#000"/>
  <circle id="path4427" cx="103.32" cy="91.48" r="5.64" style="fill:none;stroke-linecap:round;stroke-linejoin:round;stroke-miterlimit:4;stroke:#000"/>
  <circle r="2.49" cy="91.48" cx="103.32" id="circle4429" fill="#000"/>
  <path d="m84.65 96.14 3.98 18.11c0.48 2.2 3.44 1.85 4.18-0.23 1.5-4.18 1.8-8.54 1.9-12.92" id="path4431" style="fill:none;stroke-linecap:round;stroke-miterlimit:4;stroke:#000"/>
  <path d="m87.55 132.95c7.7 2.71 17.36 4.26 23.81 2.28 7.78-2.39 10.54-11.57 18.39-19.46" id="path4433" style="fill:none;stroke-linecap:round;stroke-miterlimit:4;stroke:#000"/>
  <path d="m111.13 144.81c2.78 8.49 2.63 18.71 1.37 24.47 5.61 4.23 11.87 9.91 18.7 13.07 2.58-6.98-0.3-23.79-3.34-33.14" id="path4435" style="fill:none;stroke-linecap:round;stroke-miterlimit:4;stroke:#000"/>
  <path id="path4445" d="m269.04 234.08c-2.14 2.05-7.89 6.8-8.1 6.62-12.5-12.21-19.09-62.47-15.14-65.41 7.34-5.47 21.59-14.88 30.7-17.13 3.38-9.83 5.99-18.84 12.91-27.45 41.88-52.15 79-69.4 99.7-79.12 5.39-2.53 7.92 4.85 6.16 7.5-5.41 8.13-13.52 19.28-18.92 37.06 1.21 0.3 11.55-9.68 17.49-12.28 1.71-0.75 4.44 0.29 4.22-2.53-0.8-10.64 4.39-9.71 6.5-5.99 2.12 3.73 4.2 7.86 2.93 10.37-3.64 7.21-21.7 17.4-35.16 50.02-13.46 32.62-17.32 59.03-21.18 95.05 6.55 4.75 19.51 20.85 22.76 31.47-2.53 4.4-13.65 16.88-15.65 16.31-1.98-9.21-4.37-14.68-9.9-21.15 0.8 25.68-1.6 46.31-10.5 72.1 2.91 4.43 7.15 16.95 8.95 23.98-2.07 4.13-18.97 27.41-24.58 27.15-0.45-3.92 0.85-7.81-1.82-12.23-5.13 5.22-10.19 10.52-15.87 15.19 0 0 2.13 14.55-0.99 30.52-2.44 12.51-12.88 27.11-22.93 36.93 2.82-17.23-16.62-21.88-8.46-43.25-18.35 1.63-19.91-17.44-30.59-21.01 14.63-12.37 31.91-16.56 47.79-19.48 2.74-0.5 2.56-8.61 3.49-16.71-3.89 2.06-7.82 7.09-10.38 9.97-2-1.9-4.14-9.1-4.13-12.25 6.13-5.45 12.21-11.21 18.73-13.56 3.26-49.5-16.1-65.81-28.04-100.71z" style="fill:#fff;stroke-linecap:round;stroke-linejoin:round;stroke-miterlimit:4;stroke:#000"/>
  <circle transform="scale(-1,1)" r="5.64" cy="91.48" cx="-357.68" id="circle4447" style="fill:none;stroke-linecap:round;stroke-linejoin:round;stroke-miterlimit:4;stroke:#000"/>
  <path id="path4451" d="m376.35 96.14-3.98 18.11c-0.48 2.2-3.44 1.85-4.18-0.23-1.5-4.18-1.8-8.54-1.9-12.92" style="fill:none;stroke-linecap:round;stroke-miterlimit:4;stroke:#000"/>
  <path id="path4453" d="m373.45 132.95c-7.7 2.71-17.36 4.26-23.81 2.28-7.78-2.39-10.54-11.57-18.39-19.46" style="fill:none;stroke-linecap:round;stroke-miterlimit:4;stroke:#000"/>
  <path id="path4455" d="m349.87 144.81c-2.78 8.49-2.63 18.71-1.37 24.47-5.61 4.23-11.87 9.91-18.7 13.07-2.58-6.98 0.3-23.79 3.34-33.14" style="fill:none;stroke-linecap:round;stroke-miterlimit:4;stroke:#000"/>
  <circle id="circle4149" cx="357.68" cy="91.48" r="2.49" fill="#000"/>
</svg>
