<svg xmlns:dc="http://purl.org/dc/elements/1.1/" xmlns:cc="http://creativecommons.org/ns#" xmlns:rdf="http://www.w3.org/1999/02/22-rdf-syntax-ns#" xmlns:svg="http://www.w3.org/2000/svg" xmlns="http://www.w3.org/2000/svg" id="svg2" xml:space="preserve" enable-background="new 30.5 31.5 412 533" viewBox="30.5 31.5 400 500" height="500" width="400" y="0" x="0" version="1.1">
  <metadata id="metadata4">
    <rdf:RDF>
      <cc:Work rdf:about="">
        <dc:format>
          image/svg+xml
        </dc:format>
        <dc:type rdf:resource="http://purl.org/dc/dcmitype/StillImage"/>
      </cc:Work>
    </rdf:RDF>
  </metadata>
  <defs id="defs6"/>
  <path id="path8" d="M230.45 531.13C156.13 477.21 105.19 409.11 74.71 322.97 47.07 244.87 35.98 150.22 40.8 33.62l0.02-0.46 379.82 0 0.02 0.46c4.81 116.6-6.28 211.24-33.91 289.35-30.48 86.14-81.42 154.24-155.74 208.16l-0.28 0.2z" fill="#e00e00"/>
  <path id="path12" d="M419.96 33.21C429.03 252.66 383.71 419.16 230.51 530.31 146.04 469.02 94.36 390.9 66.52 296.34 64.43 289.25 62.48 282.07 60.65 274.8 49.2 229.11 42.88 179.78 40.77 126.86 39.57 96.8 39.72 65.58 41.06 33.21l189.45 0 189.45 0m0.92-0.95-0.92 0-189.45 0-189.45 0-0.92 0-0.04 0.92c-4.82 116.66 6.28 211.36 33.93 289.52 30.51 86.24 81.51 154.41 155.91 208.39l0.56 0.41 0.56-0.41C305.46 477.11 356.46 408.94 386.97 322.7 414.62 244.54 425.72 149.84 420.9 33.18l-0.04-0.92 0 0z"/>
  <path id="path4225" d="m216.09 249.66-0.04 4.54c-0.08 8.89-4.32 7.8-4.1 16.61l3.27 128.69c0.16 6.17 2.6 9.21 4.4 12.31 2.89 4.97 5.29 9.63 6.66 16.37 2.33 11.38 1.26 15.04 4.22 14.86 2.83-0.16 6.95-4.55 8.51-7.83 7.34-15.45 11.41-35.42 11.41-97.86l0-79.99c0-3.39-4.71-5.38-7.66-7.71 6.82 0 8.47 0 8.71-1.74 0.18-1.28 0.21-2.58 0.31-3.87 4.4-55.87 6.29-107.83 0.06-164.92l-16.16 0 0-9.62-10.38 0 0 9.62-16.16 0c-6.21 56.85-4.49 110.06-0.11 165.75 0.12 1.52 0.09 1.43 0.29 2.95 0.24 1.84 3.95 1.84 6.75 1.84z" style="fill-rule:evenodd;fill:#fff;stroke-linejoin:round;stroke:#000"/>
  <path id="path4237" d="m216.09 249.66 26.68 0" style="fill:none;stroke:#000"/>
  <path id="path4241" d="m208.24 236.68 44.3 0" style="fill:none;stroke:#000"/>
  <path id="path4245" d="m207.42 95.42 46.15 0" style="fill:none;stroke:#000"/>
  <path id="path4247" d="m230.5 443.04c3.05-11.87 5.84-20.58 5.84-38.53l0-126.34c0-8.41 4.13-10.06 6.64-10.02l7.44 0.11" style="fill:none;stroke:#000"/>
  <path d="m139.11 250.16-0.04 4.54c-0.08 8.89-4.39 7.81-4.1 16.61l3.27 96.69c0.21 6.17 2.6 9.21 4.4 12.31 2.89 4.97 5.29 9.63 6.66 16.37 2.33 11.38 1.26 13.04 4.22 12.86 6.72-2.03 13.28-18.95 14.25-22.09 1.86-6.34 5.67-19.02 5.67-49.59l0-79.99c0-3.39-4.71-5.38-7.66-7.71 6.82 0 8.47 0 8.71-1.74 0.18-1.28 0.21-2.58 0.31-3.87 4.4-55.87 6.29-107.83 0.06-164.92l-16.16 0 0-9.62-10.38 0 0 9.62-16.16 0c-6.21 56.85-4.49 110.06-0.11 165.75 0.12 1.52 0.09 1.43 0.29 2.95 0.24 1.84 3.95 1.84 6.75 1.84z" id="path4263" style="fill-rule:evenodd;fill:#fff;stroke-linejoin:round;stroke:#000"/>
  <path d="m139.11 250.16 26.68 0" id="path4265" style="fill:none;stroke:#000"/>
  <path d="m131.27 237.18 44.3 0" id="path4267" style="fill:none;stroke:#000"/>
  <path d="m130.45 95.92 46.15 0" id="path4269" style="fill:none;stroke:#000"/>
  <path d="m153.53 409.54c3.05-11.87 5.84-20.58 5.84-38.53l0-92.34c0-8.41 4.13-10.06 6.64-10.02l7.44 0.11" id="path4271" style="fill:none;stroke:#000"/>
  <path id="path4283" d="m293.11 250.16-0.04 4.54c-0.08 8.89-4.39 7.81-4.1 16.61l3.27 96.69c0.21 6.17 2.6 9.21 4.4 12.31 2.89 4.97 5.29 9.63 6.66 16.37 2.33 11.38 1.26 13.04 4.22 12.86 8.13-4.89 12.64-13.94 15.56-21.76 2.54-6.87 4.36-18.38 4.36-49.93l0-79.99c0-3.39-4.71-5.38-7.66-7.71 6.82 0 8.47 0 8.71-1.74 0.18-1.28 0.21-2.58 0.31-3.87 4.4-55.87 6.29-107.83 0.06-164.92l-16.16 0 0-9.62-10.38 0 0 9.62-16.16 0c-6.21 56.85-4.49 110.06-0.11 165.75 0.12 1.52 0.09 1.43 0.29 2.95 0.24 1.84 3.95 1.84 6.75 1.84z" style="fill-rule:evenodd;fill:#fff;stroke-linejoin:round;stroke:#000"/>
  <path id="path4285" d="m293.11 250.16 26.68 0" style="fill:none;stroke:#000"/>
  <path id="path4287" d="m285.27 237.18 44.3 0" style="fill:none;stroke:#000"/>
  <path id="path4289" d="m284.45 95.92 46.15 0" style="fill:none;stroke:#000"/>
  <path id="path4291" d="m307.53 409.54c3.05-11.87 5.84-20.58 5.84-38.53l0-92.34c0-8.41 4.13-10.06 6.64-10.02l7.44 0.11" style="fill:none;stroke:#000"/>
</svg>
