<?xml version="1.0" encoding="UTF-8" standalone="no"?>
<svg
   xmlns:dc="http://purl.org/dc/elements/1.1/"
   xmlns:cc="http://creativecommons.org/ns#"
   xmlns:rdf="http://www.w3.org/1999/02/22-rdf-syntax-ns#"
   xmlns:svg="http://www.w3.org/2000/svg"
   xmlns="http://www.w3.org/2000/svg"
   xml:space="preserve"
   enable-background="new 30.5 31.5 412 533"
   viewBox="30.5 31.5 400 500"
   height="500"
   width="400"
   y="0"
   x="0"
   version="1.1"
   id="svg2"><metadata
     id="metadata4"><rdf:RDF><cc:Work
         rdf:about=""><dc:format>
          
          
          
          
          image/svg+xml
        
        
        
        
        </dc:format><dc:type
           rdf:resource="http://purl.org/dc/dcmitype/StillImage" /><dc:title></dc:title></cc:Work></rdf:RDF></metadata><defs
     id="defs6" /><path
     style="fill:#ffe000;fill-opacity:1"
     d="M 230.56,531.14 C 304.88,477.22 355.82,409.12 386.3,322.98 413.94,244.88 425.03,150.23 420.21,33.63 l -0.02,-0.46 -379.82,0 -0.02,0.46 c -4.81,116.6 6.28,211.24 33.91,289.35 30.48,86.14 81.42,154.24 155.74,208.16 l 0.28,0.2 0.28,-0.2 z"
     id="path8" /><path
     d="M 41.04,33.21 C 31.97,252.66 77.3,419.16 230.5,530.31 383.69,419.16 429.01,252.66 419.94,33.21 l -189.45,0 -189.45,0 m -0.92,-0.95 0.92,0 189.45,0 189.45,0 0.92,0 0.04,0.92 c 4.82,116.66 -6.28,211.36 -33.93,289.52 -30.51,86.24 -81.51,154.41 -155.91,208.39 l -0.56,0.41 -0.56,-0.41 C 155.54,477.11 104.54,408.94 74.03,322.7 46.38,244.54 35.28,149.84 40.1,33.18 l 0.04,-0.92 0,0 z"
     id="path10" /><path
     id="path5041"
     d="m 104.2985,70.636444 c 11.99951,34.213796 33.92767,47.288366 67.29371,44.811836 l 4.02715,-11.19385 27.50292,-0.1561 5.55674,12.67447 c 19.10585,6.69768 27.79681,8.04366 27.81512,10.7272 -0.0183,2.68354 -8.70927,4.02952 -27.81512,10.7272 l -5.55674,12.67447 -27.50292,-0.1561 -4.02715,-11.19385 c -33.36604,-2.47653 -55.2942,10.59804 -67.29371,44.81184 C 77.552186,173.55361 64.74682,146.24192 64.74682,127.5 c 0,-18.74192 12.805366,-46.053611 39.55168,-56.863556 z"
     style="fill:#000000;fill-rule:evenodd;stroke:#000000;stroke-width:1.01171243px;stroke-linecap:butt;stroke-linejoin:round;stroke-opacity:1" /><path
     style="fill:#000000;fill-rule:evenodd;stroke:#000000;stroke-width:1.012;stroke-linecap:butt;stroke-linejoin:round;stroke-opacity:1;stroke-miterlimit:4;stroke-dasharray:none"
     d="m 169.2985,162.63644 c 11.99952,34.2138 33.92767,47.28837 67.29371,44.81184 l 4.02715,-11.19385 27.50292,-0.1561 5.55674,12.67447 c 19.10585,6.69768 27.79681,8.04366 27.81512,10.7272 -0.0183,2.68354 -8.70927,4.02952 -27.81512,10.7272 l -5.55674,12.67447 -27.50292,-0.1561 -4.02715,-11.19385 c -33.36604,-2.47653 -55.29419,10.59804 -67.29371,44.81184 -26.74632,-10.80995 -39.55168,-38.12164 -39.55168,-56.86356 0,-18.74192 12.80536,-46.05361 39.55168,-56.86356 z"
     id="path5043" /><path
     id="path5045"
     d="m 234.2985,254.63644 c 11.99952,34.2138 33.92767,47.28837 67.29371,44.81184 l 4.02715,-11.19385 27.50292,-0.1561 5.55674,12.67447 c 19.10585,6.69768 27.79681,8.04366 27.81512,10.7272 -0.0183,2.68354 -8.70927,4.02952 -27.81512,10.7272 l -5.55674,12.67447 -27.50292,-0.1561 -4.02715,-11.19385 c -33.36604,-2.47653 -55.29419,10.59804 -67.29371,44.81184 -26.74632,-10.80995 -39.55168,-38.12164 -39.55168,-56.86356 0,-18.74192 12.80536,-46.05361 39.55168,-56.86356 z"
     style="fill:#000000;fill-rule:evenodd;stroke:#000000;stroke-width:1.012;stroke-linecap:butt;stroke-linejoin:round;stroke-opacity:1;stroke-miterlimit:4;stroke-dasharray:none" /></svg>