<?xml version="1.0" encoding="UTF-8" standalone="no"?>
<!-- Created with Inkscape (http://www.inkscape.org/) -->

<svg
   xmlns:dc="http://purl.org/dc/elements/1.1/"
   xmlns:cc="http://creativecommons.org/ns#"
   xmlns:rdf="http://www.w3.org/1999/02/22-rdf-syntax-ns#"
   xmlns:svg="http://www.w3.org/2000/svg"
   xmlns="http://www.w3.org/2000/svg"
   version="1.1"
   width="420"
   height="480"
   id="svg4228">
  <metadata
     id="metadata25">
    <rdf:RDF>
      <cc:Work
         rdf:about="">
        <dc:format>image/svg+xml</dc:format>
        <dc:type
           rdf:resource="http://purl.org/dc/dcmitype/StillImage" />
        <dc:title></dc:title>
      </cc:Work>
    </rdf:RDF>
  </metadata>
  <defs
     id="defs4232" />
  <path
     d="m 1.3601572,1.3551602 c 139.1302028,0 278.2604228,0 417.3906328,0 C 418.73988,115.60885 398.18687,349.23633 209.936,478.24675 23.611691,349.17824 1.4472591,115.63298 1.3601572,1.3551602 z"
     id="path4240-0"
     style="color:#000000;fill:#ffffff;fill-opacity:1;fill-rule:nonzero;stroke:#808080;stroke-width:2.49001861;stroke-miterlimit:4;stroke-opacity:1;stroke-dasharray:none;marker:none;visibility:visible;display:inline;overflow:visible;enable-background:accumulate" />
  <path
     d="m 155.87769,211.26358 c 10.69339,-6.83781 22.79934,-11.63498 35.79546,-15.14666 l 1.15469,-11.68291 29.81808,0.068 1.08675,11.75076 c 12.32251,3.53647 24.52521,7.91212 36.33881,15.01077 l 9.16961,-7.67517 20.98816,21.46368 -6.72435,9.10184 c 6.11352,11.3005 12.13478,22.66704 14.73927,36.47426 l 10.8675,1.42661 0.0646,29.88576 -10.9353,1.15477 c -3.27294,13.23396 -8.05289,25.52629 -15.41826,36.203 l 7.13125,8.76196 -21.46274,21.2599 -8.28692,-7.13146 c -10.00084,7.12233 -22.20358,12.40971 -36.81398,15.69012 l -1.42666,10.66348 -29.13896,-0.20383 -1.01872,-11.00349 c -14.10159,-2.93435 -26.41873,-8.00938 -36.67872,-15.55417 l -9.23701,7.33582 -20.78465,-20.98845 7.40392,-9.78076 c -8.46596,-12.0223 -12.64785,-24.04494 -14.46741,-36.06713 l -11.81847,-1.29053 0.13669,-29.81806 11.41102,-1.5623 c 3.05221,-14.30112 7.94628,-26.327 15.35063,-35.25193 l -8.28647,-9.57727 21.46345,-21.19193 9.57724,7.67521 -3e-5,0 z"
     id="path3782"
     style="fill:#f9423a;fill-opacity:1;stroke:none" />
  <path
     d="m 259.04562,43.37168 c 9.4508,-6.100697 20.15003,-10.380869 31.63601,-13.514041 l 1.0205,-10.423629 26.35319,0.06032 0.96047,10.484163 c 10.89068,3.155296 21.6754,7.059316 32.11625,13.392878 l 8.1041,-6.84795 18.54929,19.150251 -5.94298,8.120736 c 5.40316,10.082474 10.72472,20.223829 13.02656,32.542861 l 9.60474,1.272833 0.0575,26.664518 -9.66463,1.03025 c -2.89263,11.80759 -7.11712,22.77497 -13.62664,32.30086 l 6.30262,7.8175 -18.96879,18.96838 -7.32398,-6.36278 c -8.83869,6.35464 -19.62348,11.07211 -32.5362,13.99898 l -1.26085,9.51409 -25.75294,-0.18183 -0.90037,-9.81747 c -12.46291,-2.61815 -23.34881,-7.14615 -32.41653,-13.87771 l -8.16367,6.54514 -18.3695,-18.72619 6.54357,-8.72652 c -7.48216,-10.7265 -11.17818,-21.45323 -12.78631,-32.17962 l -10.44511,-1.15147 0.1208,-26.604094 10.0851,-1.393892 c 2.69751,-12.75964 7.02283,-23.489315 13.56683,-31.45222 l -7.32354,-8.545018 18.96932,-18.907721 8.46441,6.847951 -3e-5,0 z"
     id="path3770"
     style="fill:#f9423a;fill-opacity:1;stroke:none" />
  <path
     d="M 67.463438,43.37168 C 77.004221,37.270983 87.805316,32.990811 99.40065,29.857639 l 1.03022,-10.423629 26.6041,0.06032 0.96961,10.484163 c 10.99437,3.155296 21.88178,7.059316 32.42203,13.392878 l 8.18126,-6.84795 18.7259,19.150251 -5.99956,8.120736 c 5.4546,10.082474 10.82683,20.223829 13.15058,32.542861 l 9.69619,1.272833 0.058,26.664518 -9.75665,1.03025 c -2.92017,11.80759 -7.18488,22.77497 -13.75638,32.30086 l 6.36263,7.8175 -19.14939,18.96838 -7.39372,-6.36278 c -8.92284,6.35464 -19.81031,11.07211 -32.84597,13.99898 l -1.27286,9.51409 -25.99813,-0.18183 -0.90894,-9.81747 C 86.938004,188.92445 75.948451,184.39645 66.794404,177.66489 l -8.241405,6.54514 -18.544388,-18.72619 6.605866,-8.72652 C 39.061081,146.03082 35.329872,135.30409 33.706432,124.5777 l -10.544558,-1.15147 0.121942,-26.604094 10.181125,-1.393892 c 2.723184,-12.75964 7.089703,-23.489315 13.695999,-31.45222 l -7.393273,-8.545018 19.149929,-18.907721 8.545007,6.847951 -2.9e-5,0 z"
     id="path2827-9"
     style="fill:#f9423a;fill-opacity:1;stroke:none" />
  <path
     d="m 101.03686,51.189318 c -21.033856,4.01902 -41.98965,21.66843 -46.36028,46.299818 l 34.118639,-0.242468 0.05832,-10.362614 12.362801,-0.05818 -0.18196,-35.633795 -2e-5,0 z"
     id="path2829-4"
     style="fill:#ffffff;fill-opacity:1;stroke:none" />
  <path
     d="m 127.32187,51.189318 c 21.03385,4.01902 41.98966,21.66843 46.36041,46.299818 l -34.1188,-0.242468 -0.058,-10.362614 -12.3627,-0.05818 0.18184,-35.633795 5e-5,0 z"
     id="path2829-1-8"
     style="fill:#ffffff;fill-opacity:1;stroke:none" />
  <path
     d="m 127.32187,169.95275 c 21.03385,-4.01868 41.98966,-21.66835 46.36041,-46.29991 l -34.1188,0.24262 -0.058,10.36296 -12.3627,0.058 0.18184,35.63392 5e-5,0 z"
     id="path2829-1-7-8"
     style="fill:#ffffff;fill-opacity:1;stroke:none" />
  <path
     d="m 54.979628,121.95821 c 4.018744,21.03397 21.66817,41.98959 46.299712,46.36055 l -0.24246,-34.11883 -10.362889,-0.058 -0.05828,-12.36282 -35.633913,0.18184 0,4e-5 z"
     id="path2829-0-2"
     style="fill:#ffffff;fill-opacity:1;stroke:none" />
  <rect
     width="17.206831"
     height="15.883286"
     x="106.64435"
     y="101.66769"
     id="rect2919-4"
     style="fill:#ffffff;fill-opacity:1;stroke:none" />
  <path
     d="m 291.03686,51.189318 c -21.03386,4.01902 -41.98965,21.66843 -46.36028,46.299818 l 34.11864,-0.242468 0.0583,-10.362614 12.3628,-0.05818 -0.18196,-35.633795 -2e-5,0 z"
     id="path3772"
     style="fill:#ffffff;fill-opacity:1;stroke:none" />
  <path
     d="m 317.32187,51.189318 c 21.03385,4.01902 41.98966,21.66843 46.36041,46.299818 l -34.1188,-0.242468 -0.058,-10.362614 -12.3627,-0.05818 0.18184,-35.633795 5e-5,0 z"
     id="path3774"
     style="fill:#ffffff;fill-opacity:1;stroke:none" />
  <path
     d="m 317.32187,169.95275 c 21.03385,-4.01868 41.98966,-21.66835 46.36041,-46.29991 l -34.1188,0.24262 -0.058,10.36296 -12.3627,0.058 0.18184,35.63392 5e-5,0 z"
     id="path3776"
     style="fill:#ffffff;fill-opacity:1;stroke:none" />
  <path
     d="m 244.97963,121.95821 c 4.01874,21.03397 21.66817,41.98959 46.29971,46.36055 l -0.24246,-34.11883 -10.36289,-0.058 -0.0583,-12.36282 -35.63391,0.18184 0,4e-5 z"
     id="path3778"
     style="fill:#ffffff;fill-opacity:1;stroke:none" />
  <rect
     width="17.206831"
     height="15.883286"
     x="296.64435"
     y="101.66769"
     id="rect3780"
     style="fill:#ffffff;fill-opacity:1;stroke:none" />
  <path
     d="m 193.50702,220.02557 c -23.5749,4.50456 -47.06231,24.28621 -51.96095,51.89321 l 38.24043,-0.27173 0.0649,-11.61453 13.85627,-0.0648 -0.20396,-39.93861 -2e-5,0 z"
     id="path3784"
     style="fill:#ffffff;fill-opacity:1;stroke:none" />
  <path
     d="m 222.96747,220.02557 c 23.57485,4.50456 47.06231,24.28621 51.96106,51.89321 l -38.24061,-0.27173 -0.0646,-11.61453 -13.85622,-0.0648 0.2038,-39.93861 6e-5,0 z"
     id="path3786"
     style="fill:#ffffff;fill-opacity:1;stroke:none" />
  <path
     d="m 222.96747,353.13652 c 23.57485,-4.50414 47.06231,-24.28602 51.96106,-51.8933 l -38.24061,0.27199 -0.0646,11.61487 -13.85622,0.0646 0.2038,39.93877 6e-5,0 z"
     id="path3788"
     style="fill:#ffffff;fill-opacity:1;stroke:none" />
  <path
     d="m 141.88573,299.34388 c 4.50427,23.57508 24.28583,47.06224 51.89309,51.96127 l -0.27177,-38.24062 -11.61481,-0.0646 -0.0649,-13.8563 -39.93875,0.20374 0,4e-5 z"
     id="path3790"
     style="fill:#ffffff;fill-opacity:1;stroke:none" />
  <rect
     width="19.285549"
     height="17.802111"
     x="199.79195"
     y="276.6022"
     id="rect3792"
     style="fill:#ffffff;fill-opacity:1;stroke:none" />
</svg>
