<?xml version="1.0" encoding="UTF-8" standalone="no"?>
<!-- Created with Inkscape (http://www.inkscape.org/) -->

<svg
   xmlns:svg="http://www.w3.org/2000/svg"
   xmlns="http://www.w3.org/2000/svg"
   version="1.1"
   width="456"
   height="480"
   id="svg3486">
  <defs
     id="defs3490" />
  <g
     id="g3498">
    <path
       d="M 214,474.1888 C 164.91719,451.61577 130.25156,426.17321 95.204775,387 62.199181,350.1083 34.807329,300.71571 23.504895,257.71179 7.2646653,195.92038 0.04594228,128.63415 0.01383974,38.75 L 0,0 228.11562,0 456.23124,0 455.71211,53.75 c -0.51441,53.26227 -1.50342,73.22288 -5.26447,106.25 -5.23481,45.96871 -13.76938,88.31247 -23.46935,116.44178 -22.66212,65.71875 -73.46376,130.15533 -134.81457,170.99822 -14.41876,9.59896 -60.12076,32.64664 -64.50233,32.52875 C 227.02262,479.95157 220.875,477.35059 214,474.1888 z"
       id="path3502"
       style="fill:#cbb279" />
    <path
       d="M 214,474.1888 C 164.91719,451.61577 130.25156,426.17321 95.204775,387 62.199181,350.1083 34.807329,300.71571 23.504895,257.71179 7.2646653,195.92038 0.04594228,128.63415 0.01383974,38.75 L 0,0 228.11562,0 456.23124,0 455.71211,53.75 c -0.51441,53.26227 -1.50342,73.22288 -5.26447,106.25 -5.23481,45.96871 -13.76938,88.31247 -23.46935,116.44178 -22.66212,65.71875 -73.46376,130.15533 -134.81457,170.99822 -14.41876,9.59896 -60.12076,32.64664 -64.50233,32.52875 C 227.02262,479.95157 220.875,477.35059 214,474.1888 z m 18.51719,-86.21662 c 0.84653,-1.36971 28.11666,-23.25652 37.08474,-29.76395 10.86493,-7.88381 23.28817,-14.00489 41.20733,-20.30335 19.1599,-6.73457 25.46936,-10.26401 32.90171,-18.40488 5.96701,-6.53584 9.37686,-12.4755 12.89723,-22.46585 2.5281,-7.17442 2.0213,-9.02323 -2.48064,-9.04946 -1.44516,-0.008 -3.11808,-0.34592 -3.71761,-0.75 -1.52403,-1.02719 -4.64904,-36.17498 -3.99494,-44.93203 0.37135,-4.9716 2.30869,-12.5481 6.26471,-24.5 5.35453,-16.17702 5.73014,-17.93533 5.7737,-27.02762 0.0446,-9.31314 -0.0703,-9.84197 -2.71422,-12.48807 -2.22209,-2.22396 -3.10017,-2.55175 -4.5,-1.67991 -0.95656,0.59576 -5.11459,6.66539 -9.24007,13.48807 -4.12548,6.82268 -10.47607,16.67987 -14.11243,21.90487 -10.85634,15.59922 -11.49747,17.2746 -15.41948,40.2936 -1.3863,8.13648 -3.22468,16.91148 -4.08529,19.5 -1.88929,5.68261 -6.10799,13.2064 -7.40503,13.2064 -3.18682,0 -1.64414,-14.16741 3.37556,-31 6.49761,-21.78848 8.25157,-40.76331 5.13018,-55.49963 -2.0492,-9.6744 -1.86782,-14.94712 0.93992,-27.32261 4.27041,-18.82245 5.03164,-25.57033 3.60415,-31.94902 -0.69634,-3.11155 -4.63586,-12.19843 -8.7545,-20.19305 L 297.78378,104.5 l 0.79888,-12 c 1.2524,-18.812187 1.04625,-24.520563 -1.04154,-28.84183 -3.81283,-7.891712 -6.60252,-5.658028 -14.78946,11.84183 -10.12135,21.634741 -11.74197,30.44267 -8.06921,43.85566 3.76477,13.74901 1.53925,33.90841 -5.73976,51.99249 -2.80395,6.96618 -2.90467,7.85282 -3.87953,34.15185 -1.05594,28.48641 -2.71422,40.4014 -6.95815,49.99552 -1.15776,2.61729 -2.11115,6.61401 -2.11866,8.8816 -0.0416,12.56701 -4.2713,11.03569 -5.89886,-2.13563 -0.66636,-5.39267 -0.34381,-9.64262 1.61211,-21.24149 4.65938,-27.63071 4.58713,-47.94014 -0.22274,-62.61712 -4.11299,-12.55047 -4.22932,-21.05468 -0.53869,-39.38288 6.49531,-32.25671 5.48306,-38.765 -10.05399,-64.642835 -5.0384,-8.391734 -9.36928,-17.374915 -12.30296,-25.518992 -0.92361,-2.564006 -2.31097,-4.904226 -3.08302,-5.20049 -2.13292,-0.81848 -6.28042,4.805359 -8.06103,10.930436 -2.5065,8.622059 -2.07852,15.218401 1.43955,22.187664 3.67163,7.273466 4.7168,14.201314 3.22275,21.361793 -0.61768,2.960334 -4.83025,13.013474 -9.36126,22.340304 l -8.23821,16.95788 -0.34051,12.54212 c -0.2859,10.53045 0.17056,15.58958 2.84583,31.54212 3.49233,20.82456 3.48886,23.16797 -0.0649,43.80752 -2.53989,14.75116 -2.52395,26.65273 0.0467,34.85339 1.0929,3.4865 1.9929,8.18444 2,10.43987 0.0139,4.43424 -1.69328,10.39922 -2.97635,10.39922 -2.02144,0 -5.38352,-12.45522 -6.98719,-25.88485 -0.599,-5.0162 -2.90565,-14.05569 -5.74144,-22.5 L 188.54195,218.5 l -0.094,-18 c -0.10038,-19.22178 0.23033,-17.45509 -6.44773,-34.4449 -4.13315,-10.51523 -4.42446,-15.1098 -1.57585,-24.85384 4.76238,-16.29036 5.60011,-28.74069 3.07504,-45.70126 -2.69664,-18.112999 -11.4662,-40.605673 -16.09303,-41.27633 -1.21105,-0.17554 -3.00062,1.101062 -4.90639,3.5 L 159.5,61.5 158.85271,82 c -0.68369,21.65251 -1.67836,27.51338 -6.44913,38 -1.37619,3.025 -3.66299,7.18289 -5.08177,9.23975 -5.4385,7.88439 -6.74286,23.24604 -3.36417,39.62031 1.90919,9.25258 1.90911,9.54538 -0.007,25.5 -1.0661,8.87697 -1.94112,17.9579 -1.94451,20.17984 -0.0101,6.632 2.65684,14.89996 9.60044,29.76304 7.73515,16.55741 9.98419,25.35609 8.94993,35.01385 -0.48504,4.52923 -1.14363,6.68321 -2.04344,6.68321 -2.21577,0 -10.28298,-9.7826 -13.47064,-16.335 -4.41882,-9.0831 -6.08656,-16.63449 -6.888,-31.18839 -0.6682,-12.13423 -0.96099,-13.53386 -4.28848,-20.5 -3.01288,-6.30752 -8.22069,-13.93099 -18.2041,-26.64814 -1.01098,-1.28781 -4.08661,-6.72605 -6.83474,-12.08497 C 103.23204,168.33293 101.48714,166 98.921738,166 c -3.176157,0 -7.71369,4.85755 -9.466175,10.13379 -2.36145,7.10966 -1.372935,12.73259 4.980334,28.32944 3.092991,7.59308 6.870193,19.48559 9.045793,28.48067 3.33701,13.79696 3.68601,16.46297 3.27273,25 -0.41197,8.50977 -0.8819,10.43205 -4.29186,17.5561 -4.950494,10.34251 -5.128886,15.50806 -0.83192,24.08932 12.45321,24.86975 30.03666,38.79042 71.86936,56.89841 22.15918,9.59198 45.79184,22.52009 53.29865,29.15672 4.04347,3.57476 4.76606,3.86889 5.71854,2.32773 z"
       id="path3500"
       style="fill:#0097d9" />
  </g>
</svg>
