<?xml version="1.0" encoding="UTF-8" standalone="no"?>
<svg
   xmlns:dc="http://purl.org/dc/elements/1.1/"
   xmlns:cc="http://creativecommons.org/ns#"
   xmlns:rdf="http://www.w3.org/1999/02/22-rdf-syntax-ns#"
   xmlns:svg="http://www.w3.org/2000/svg"
   xmlns="http://www.w3.org/2000/svg"
   id="svg2"
   version="1.1"
   x="0"
   y="0"
   width="400"
   height="500"
   viewBox="30.5 31.5 400 500"
   enable-background="new 30.5 31.5 412 533"
   xml:space="preserve"><metadata
     id="metadata4"><rdf:RDF><cc:Work
         rdf:about=""><dc:format>
          
          
          
          
          image/svg+xml
        
        
        
        
        </dc:format><dc:type
           rdf:resource="http://purl.org/dc/dcmitype/StillImage" /><dc:title></dc:title></cc:Work></rdf:RDF></metadata><defs
     id="defs6" /><path
     d="M 230.55,531.13 C 304.87,477.21 355.81,409.11 386.29,322.97 413.93,244.87 425.02,150.22 420.2,33.62 l -0.02,-0.46 -379.82,0 -0.02,0.46 c -4.81,116.6 6.28,211.24 33.91,289.35 30.48,86.14 81.42,154.24 155.74,208.16 l 0.28,0.2 0.28,-0.2 z"
     id="path4148"
     style="fill:#0085ca" /><path
     id="path10"
     d="m 41.04,33.21 c -9.07,219.45 36.25,385.95 189.45,497.1 84.47,-61.29 136.15,-139.41 163.99,-233.97 2.09,-7.09 4.04,-14.27 5.87,-21.54 11.45,-45.69 17.77,-95.02 19.88,-147.94 1.2,-30.06 1.05,-61.28 -0.29,-93.65 l -189.45,0 -189.45,0 m -0.92,-0.95 0.92,0 189.45,0 189.45,0 0.92,0 0.04,0.92 c 4.82,116.66 -6.28,211.36 -33.93,289.52 -30.51,86.24 -81.51,154.41 -155.91,208.39 l -0.56,0.41 -0.56,-0.41 C 155.54,477.11 104.54,408.94 74.03,322.7 46.38,244.54 35.28,149.84 40.1,33.18 l 0.04,-0.92 0,0 z" /><path
     style="fill:#ffffff;fill-rule:evenodd;stroke:#000000;stroke-width:1;stroke-linecap:round;stroke-linejoin:round;stroke-opacity:1;stroke-miterlimit:4;stroke-dasharray:none"
     d="m 226.17003,62.315072 -0.15609,14.203604 -63.21384,0 -0.31218,7.023756 c 5.77067,2.475659 10.02835,12.745464 8.11636,24.505118 -3.08914,18.99989 -6.54472,29.10024 -14.04752,47.60547 11.17454,-4.36245 21.1998,-8.56991 31.26723,-11.76497 12.77747,-4.05517 27.27356,-4.32618 37.1754,-4.31162 l -0.52754,23.41253 -76.78174,0 -0.22315,8.37519 c 5.46471,1.7714 13.77551,1.53901 9.70239,29.92083 -2.53092,17.63564 -7.63728,32.38063 -15.50182,49.0827 17.04705,-6.30756 31.70643,-12.05882 42.31169,-14.58737 7.53264,-1.79598 16.1014,-3.73951 39.54478,-4.02543 l -0.45107,25.66461 -90.94444,0 -0.22317,8.37519 c 6.86946,1.14706 17.82201,5.28503 14.37323,36.78852 -1.93883,17.71051 -12.97333,50.01806 -22.08655,68.59313 33.11609,-13.93985 68.09431,-23.57006 97.5429,-23.91962 l -0.87172,62.18814 c 6.42455,0 12.84909,0 19.27364,0 l -0.87172,-62.18814 c 29.44859,0.34956 64.42681,9.97977 97.5429,23.91962 -9.11322,-18.57507 -20.14772,-50.88262 -22.08655,-68.59313 -3.44878,-31.50349 7.50377,-35.64146 14.37323,-36.78852 l -0.22317,-8.37519 -90.94444,0 -0.45107,-25.66461 c 23.44338,0.28592 32.01214,2.22945 39.54478,4.02543 10.60526,2.52855 25.26464,8.27981 42.31169,14.58737 -7.86454,-16.70207 -12.9709,-31.44706 -15.50182,-49.0827 -4.07312,-28.38182 4.23768,-28.14943 9.70239,-29.92083 l -0.22315,-8.37519 -76.78174,0 -0.52754,-23.41253 c 9.90184,-0.0146 24.39793,0.25645 37.1754,4.31162 10.06743,3.19506 20.09269,7.40252 31.26723,11.76497 -7.5028,-18.50523 -10.95838,-28.60558 -14.04752,-47.60547 -1.91199,-11.759654 2.34569,-22.029459 8.11636,-24.505118 l -0.31218,-7.023756 -63.21384,0 -0.15609,-14.203604 z"
     id="path4503" /></svg>