<?xml version="1.0" encoding="UTF-8" standalone="no"?>
<svg
   xmlns:dc="http://purl.org/dc/elements/1.1/"
   xmlns:cc="http://creativecommons.org/ns#"
   xmlns:rdf="http://www.w3.org/1999/02/22-rdf-syntax-ns#"
   xmlns:svg="http://www.w3.org/2000/svg"
   xmlns="http://www.w3.org/2000/svg"
   id="svg2"
   version="1.1"
   x="0"
   y="0"
   width="400"
   height="500"
   viewBox="30.5 31.5 400 500"
   enable-background="new 30.5 31.5 412 533"
   xml:space="preserve"><metadata
     id="metadata4"><rdf:RDF><cc:Work
         rdf:about=""><dc:format>
          
          
          
          image/svg+xml
        
        
        
        </dc:format><dc:type
           rdf:resource="http://purl.org/dc/dcmitype/StillImage" /><dc:title></dc:title></cc:Work></rdf:RDF></metadata><defs
     id="defs6" /><path
     style="fill:#ffe000;stroke-linecap:round;stroke-linejoin:round"
     id="path8"
     d="M230.44 531.14C156.12 477.22 105.18 409.12 74.7 322.98 47.06 244.88 35.97 150.23 40.79 33.63l0.02-0.46 379.82 0 0.02 0.46c4.81 116.6-6.28 211.24-33.91 289.35C356.26 409.12 305.32 477.22 231 531.14l-0.28 0.2-0.28-0.2z" /><path
     style="fill-rule:evenodd;fill:#32ac60"
     id="path4372"
     d="m197.5 201.5 0-32-22-22 0-33 22 22 0-33-22-22 0-33 22 22 0-37.8 66 0 0 37.8 22-22 0 33-22 22 0 33 22-22 0 33-22 22 0 32 32 0 22-22 33 0-22 22 33 0 22-22 33 0-22 22 20.02 0c-3.09 26.11-7.43 46.65-11.86 66l-8.16 0 6.46 6.46C400.13 278.33 397.04 289.5 397.04 289.5l-13.54 0-22-22-33 0 22 22-33 0-22-22-32 0 0 32 22 22 0 33-22-22 0 33 22 22 0 33-22-22 0 106.2c-6.24 5.79-27.65 22.64-33 26.24-13.53-10.07-21.89-16.55-33-26.16l0-106.27-22 22 0-33 22-22 0-33-22 22 0-33 22-22 0-32-32 0-22 22-33 0 22-22-33 0-22 22-13.5 0c-1.34-5.16-3.2-11.96-4.02-15.49L66.5 267.5l-8.12 0c-5-20.96-9.01-43.77-11.78-66l19.9 0-22-22 33 0 22 22 33 0-22-22 33 0 22 22 32 0" /><path
     style="stroke-linecap:round;stroke-linejoin:round"
     id="path10"
     d="M419.96 33.21C429.03 252.66 383.7 419.16 230.5 530.31 77.31 419.16 31.99 252.66 41.06 33.21l189.45 0 189.45 0m0.92-0.95-0.92 0-189.45 0-189.45 0-0.92 0-0.04 0.92c-4.82 116.66 6.28 211.36 33.93 289.52 30.51 86.24 81.51 154.41 155.91 208.39l0.56 0.41 0.56-0.41C305.46 477.11 356.46 408.94 386.97 322.7 414.62 244.54 425.72 149.84 420.9 33.18l-0.04-0.92 0 0z" /><path
     style="fill:none;stroke:#000000;stroke-linecap:round;stroke-linejoin:round"
     d="m 197.5,201.5 0,-32 -22,-22 0,-33 22,22 0,-33 -22,-22 0,-33 22,22 0,-37.8 66,0 0,37.8 22,-22 0,33 -22,22 0,33 22,-22 0,33 -22,22 0,32 32,0 22,-22 33,0 -22,22 33,0 22,-22 33,0 -22,22 20.02,0 -11.86,66 -8.16,0 6.46,6.46 -3.92,15.54 -13.54,0 -22,-22 -33,0 22,22 -33,0 -22,-22 -32,0 0,32 22,22 0,33 -22,-22 0,33 22,22 0,33 -22,-22 0,106.2 m -66,0.08 0,-106.27 -22,22 0,-33 22,-22 0,-33 -22,22 0,-33 22,-22 0,-32 -32,0 -22,22 -33,0 22,-22 -33,0 -22,22 -13.5,0 m -4.01,-15.5 6.51,-6.51 -8.12,0 m -11.78,-66 19.9,0 -22,-22 33,0 22,22 33,0 -22,-22 33,0 22,22 32,0"
     id="path4384" /></svg>