<?xml version="1.0" encoding="UTF-8" standalone="no"?>
<svg
   xmlns:dc="http://purl.org/dc/elements/1.1/"
   xmlns:cc="http://creativecommons.org/ns#"
   xmlns:rdf="http://www.w3.org/1999/02/22-rdf-syntax-ns#"
   xmlns:svg="http://www.w3.org/2000/svg"
   xmlns="http://www.w3.org/2000/svg"
   id="svg2"
   version="1.1"
   x="0"
   y="0"
   width="400"
   height="500"
   viewBox="30.5 31.5 400 500"
   enable-background="new 30.5 31.5 412 533"
   xml:space="preserve"><metadata
     id="metadata4"><rdf:RDF><cc:Work
         rdf:about=""><dc:format>
          
          
          
          
          
          image/svg+xml
        
        
        
        
        
        </dc:format><dc:type
           rdf:resource="http://purl.org/dc/dcmitype/StillImage" /><dc:title></dc:title></cc:Work></rdf:RDF></metadata><defs
     id="defs6" /><path
     fill="#32ac60"
     id="path8"
     d="M230.44 531.14C156.12 477.22 105.18 409.12 74.7 322.98 47.06 244.88 35.97 150.23 40.79 33.63l0.02-0.46 379.82 0 0.02 0.46c4.81 116.6-6.28 211.24-33.91 289.35C356.26 409.12 305.32 477.22 231 531.14l-0.28 0.2-0.28-0.2z" /><path
     id="path10"
     d="M419.96 33.21C429.03 252.66 383.7 419.16 230.5 530.31 77.31 419.16 31.99 252.66 41.06 33.21l189.45 0 189.45 0m0.92-0.95-0.92 0-189.45 0-189.45 0-0.92 0-0.04 0.92c-4.82 116.66 6.28 211.36 33.93 289.52 30.51 86.24 81.51 154.41 155.91 208.39l0.56 0.41 0.56-0.41C305.46 477.11 356.46 408.94 386.97 322.7 414.62 244.54 425.72 149.84 420.9 33.18l-0.04-0.92 0 0z" /><path
     style="fill:#ffe000;stroke:#000000;stroke-linejoin:round;stroke-miterlimit:4"
     id="path4310"
     d="m 285.0954,156.0074 c -8.42,0.38 -15.2454,-3.9274 -15.2454,-3.9274 0.17,0.11 4.95,-2.96 4.95,-2.96 0,0 -8.66,0.69 -16.8,-2.72 l 3.35,-1.46 c -5.6,-1.96 -10.17,-5.08 -13.72,-8.73 l 4.16,-0.83 c -4.84,-1.95 -8.82,-6.47 -12.81,-10.96 l 4.14,0.03 c -0.62,0.37 -8.4,-11.88 -7.52,-12.85 l 3.17,0.42 c 0,0 -6.92,-9.6 -6.54,-15.05 l 4.68,2.19 c -2.69,-4 -3.55,-9.04 -4.27,-13.76 l 3.8,1.63 c 0,0 -2.37,-10.95 -1.31,-13.03 l 2.93,2.59 c 0,0 0.95,-12.84 1.71,-14.93 2.41,-0.27 12.36,3.81 12.36,3.81 l 0.57,-3.6 c 5.18,0.27 14.4,9.91 13.73,10.16 l -0.15,-4.34 c 3.51,0.71 10.97,10.53 10.97,10.53 l 0.66,-3.68 c 3.77,2.71 6.81,17.1 6.81,17.1 l 2.14,-3.36 c 3.5,4.53 3.5,12.32 3.38,15.44 l 2.74,-2.93 c 1.73,2 0.84,15.86 0.84,15.86 l 3.22,-3.54 0.09,13.84 4.38,0.05 -0.03,-13.58 3.68,1.51 c -2.71,-4.05 -3.31,-10.12 -2.84,-14.27 l 3.83,3.31 c 0.01,-6.92 3.38,-16.72 7.13,-19.86 l 1.96,4.86 c 0,0 4.44,-13.92 10.83,-17.97 0.01,0.16 1.28,6.39 1.28,6.39 3.66,-5.93 11.83,-12.67 18.1,-14.97 l -0.76,6.06 c 3.9,-4.38 14.48,-8.62 19.6,-10.33 l -1.35,6.4 c 4.47,-3.05 11.76,-6.51 18.14,-7.52 l -0.45,7.74 c 0,0 13.38,-5.61 19.74,-5.14 -0.22,9.56 -1.8,14.96 -5.59,21.69 0.02,0 5.22,-1.6 5.22,-1.6 -0.33,5.24 -3.16,14.98 -5.37,18.36 l 4.3,-0.82 c 0.34,5.02 -4.96,14.22 -8.09,16.11 l 5.37,0.45 c 0,0 -3.19,8.17 -9.85,14.43 l 4.47,0.74 c -0.15,4.2 -17.01,11.97 -17.01,11.97 l 3.99,2.51 c -9.45,3.5 -15.66,3.38 -20.29,3.14 l 1.57,4.45 c 0,0 -12.09,0.8 -15.28,-0.52 0.28,3.88 0.36,3.64 0.36,3.64 l -13.17,0.14 -0.07,4 13.37,0.12 -1.67,5.24 c 3.06,0.78 16.53,1.45 16.53,1.45 -1.29,1.29 -4.56,3.91 -4.56,3.91 6.44,2.04 13.96,7.28 18.47,13.45 0.63,0.76 -6.46,1.23 -6.46,1.23 7.89,5.22 14.72,13.84 14.25,13.56 l -5.06,0.83 c 0,0 9.71,10.51 9.3,17.19 l -3.63,-1.11 c 0,0 5.59,11.48 4.84,18.21 -5.55,2.06 -17.36,0.56 -17.36,0.56 l 1.81,2.34 c -4.84,2.39 -16.95,-0.04 -16.95,-0.04 l 1.74,3.01 c 0,0.96 -14.39,-1.13 -17.92,-4.68 l 0.72,3.94 c -6.86,-2.3 -9.9,-5.69 -12.64,-7.28 0,0 -0.84,3.7 -0.57,3.24 -5.37,-0.57 -12.32,-7.61 -13.62,-9.64 l -2.71,3.21 c -2.14,-3.82 -4.08,-11.34 -3.3,-14.73 l -3.72,4.05 c -2.39,-5.37 -2.78,-14.52 -1.62,-18.95 l -4.15,3.12 c -0.37,-3.81 -0.48,-12.46 2.18,-15.51 l -3.95,2.39 c 0,0 -4.4192,-13.2746 -1.1892,-19.6746 -19.08,11.16 -34.0908,40.7046 -44.7608,79.7946 -6.51,23.83 -7.27,53.03 -8.24,79.77 8.63,-77 29.73,-96.92 51.95,-96.45 18.67,0.4 29.91,20.18 31.22,35.68 7.28,-19.54 18.69,-18.26 27.07,-14.87 -5.24,3.37 -9.69,5.1 -11.86,9.8 10.07,-0.73 19.02,4.23 20.27,10.38 -5.85,-1.07 -14.09,-2.26 -20.64,0.43 7.94,4.87 15.71,13.93 17,25.28 1.01,8.96 -3.69,18.23 -8.46,25.17 -10.05,14.63 -11.02,31.34 -24.4,33.61 -5.46,0.93 -15.12,0.01 -18.69,-1.67 -8.9,-4.19 -11.46,-23.57 -20.28,-33.15 -12.11,-13.17 -14.78,-41 8.65,-48.52 -3.6,-3.06 -10.24,-1.33 -15.7,0.35 1.28,-5.57 10.14,-12.31 14.92,-13.25 -1.92,-1.7 -8.35,-2.53 -12.18,-2.71 4.85,-10.91 24.53,-6.26 32.92,11.8 -0.61,-14.21 -7.83,-28.16 -20.28,-27.9 -20.11,0.43 -39.95,34.88 -42.98,131.18 9.23,-11.43 21.81,-17.74 30.11,-31.49 10.92,24.38 -1.77,39.42 -14.42,53.21 22.32,-4.41 31.28,9.71 44.66,6.2 -8.57,18.02 -30.72,25.47 -49.31,19.31 8.77,8.53 13.39,21.95 9.61,30.77 -8.26,-8.62 -17.39,-13.42 -27.05,-14.87 10.09,21.2 1.7,31.81 -11.68,44.58 -13.37,-12.77 -21.77,-23.38 -11.68,-44.58 -9.66,1.44 -18.79,6.24 -27.05,14.87 -3.78,-8.82 0.84,-22.24 9.61,-30.77 -18.59,6.17 -40.74,-1.29 -49.31,-19.31 13.38,3.51 22.34,-10.61 44.66,-6.2 -12.65,-13.79 -25.34,-28.83 -14.42,-53.21 8.3,13.76 20.87,20.07 30.11,31.49 -3.03,-96.29 -22.87,-130.75 -42.98,-131.18 -12.45,-0.26 -23.67,11.68 -24.28,25.9 8.39,-18.06 28.06,-20.71 32.92,-9.8 -4.5,-1.14 -11.14,0.57 -13.73,3.37 4.77,0.94 11.41,3.48 12.69,9.05 -5.46,-1.68 -12.1,-0.76 -15.7,2.3 22.73,3.23 20.04,33.53 10.65,48.52 -6.91,11.04 -8.95,24.77 -17.85,28.96 -3.57,1.68 -13.25,2.75 -18.69,1.67 -9.19,-1.83 -17.44,-15.45 -27.49,-30.08 -4.77,-6.94 -7.05,-16.65 -6.04,-25.61 1.29,-11.34 8.62,-18.86 16.56,-23.73 -6.55,-2.7 -12.81,-1.73 -18.66,-0.65 1.25,-6.15 8.44,-11.11 18.5,-10.38 -2.16,-4.7 -6.4,-7.76 -11.64,-11.12 8.38,-3.4 19.79,-4.67 27.07,14.87 1.31,-15.5 16.55,-33.28 35.22,-33.68 22.23,-0.48 41.32,19.45 49.95,96.45 -0.97,-26.74 -1.73,-55.94 -8.24,-79.77 -10.67,-39.09 -30.6627,-67.5436 -49.43412,-84.04627 3.23,6.4 1.48412,23.92627 1.48412,23.92627 l -3.95,-2.39 c 2.67,3.05 2.55,11.7 2.18,15.51 l -4.15,-3.12 c 1.16,4.43 0.77,13.58 -1.62,18.95 l -3.72,-4.05 c 0.78,3.39 -1.16,10.91 -3.3,14.73 l -2.71,-3.21 c -1.3,2.03 -8.25,9.08 -13.62,9.64 0.27,0.46 -0.57,-3.24 -0.57,-3.24 -2.74,1.59 -5.78,4.97 -12.64,7.28 l 0.72,-3.94 c -3.53,3.55 -17.92,5.64 -17.92,4.68 l 1.74,-3.01 c 0,0 -12.11,2.43 -16.95,0.04 l 1.81,-2.34 c 0,0 -11.81,1.5 -17.36,-0.56 -0.76,-6.72 4.84,-18.21 4.84,-18.21 l -3.63,1.11 c -0.41,-6.68 9.3,-17.19 9.3,-17.19 l -5.06,-0.83 c -0.47,0.27 6.36,-8.34 14.25,-13.56 0,0 -7.09,-0.46 -6.46,-1.23 4.52,-6.16 12.04,-11.4 18.47,-13.45 0,0 -3.28,-2.62 -4.56,-3.91 0,0 13.47,-0.67 16.53,-1.45 l -1.67,-5.24 13.37,-0.12 -0.07,-4 -13.17,-0.14 c 0,0 0.08,0.24 0.36,-3.64 -3.19,1.32 -15.28,0.52 -15.28,0.52 l 1.57,-4.45 c -4.63,0.24 -10.84,0.36 -20.29,-3.14 l 3.99,-2.51 c 0,0 -16.86,-7.77 -17.01,-11.97 l 4.47,-0.74 c -6.66,-6.26 -9.85,-14.43 -9.85,-14.43 l 5.37,-0.45 c -3.1,-1.89 -8.4,-11.09 -8.06,-16.11 l 4.3,0.82 c -2.21,-3.38 -5.04,-13.12 -5.37,-18.36 0,0 5.19,1.6 5.22,1.6 -3.78,-6.72 -5.37,-12.13 -5.59,-21.69 6.35,-0.47 19.74,5.14 19.74,5.14 l -0.45,-7.74 c 6.38,1.02 13.67,4.47 18.14,7.52 l -1.35,-6.4 c 5.12,1.71 15.7,5.94 19.6,10.33 l -0.76,-6.06 c 6.27,2.29 14.44,9.04 18.1,14.97 0,0 1.26,-6.24 1.28,-6.39 6.38,4.04 10.83,17.97 10.83,17.97 l 1.96,-4.86 c 3.75,3.13 7.11,12.94 7.13,19.86 l 3.83,-3.31 c 0.46,4.16 -0.13,10.23 -2.84,14.27 l 3.68,-1.51 -0.03,13.58 4.38,-0.05 0.09,-13.84 3.22,3.54 c 0,0 -0.88,-13.86 0.84,-15.86 l 2.74,2.93 c -0.12,-3.12 -0.12,-10.91 3.38,-15.44 l 2.14,3.36 c 0,0 3.03,-14.39 6.81,-17.1 l 0.66,3.68 c 0,0 7.46,-9.82 10.97,-10.53 l -0.15,4.34 c -0.67,-0.25 8.54,-9.89 13.73,-10.16 l 0.57,3.6 c 0,0 9.95,-4.08 12.36,-3.81 0.75,2.1 1.71,14.93 1.71,14.93 l 2.93,-2.59 c 1.06,2.08 -1.31,13.03 -1.31,13.03 l 3.8,-1.63 c -0.72,4.73 -1.59,9.76 -4.27,13.76 l 4.68,-2.19 c 0.38,5.45 -6.54,15.05 -6.54,15.05 l 3.17,-0.42 c 0.88,0.97 -6.89,13.22 -7.52,12.85 l 4.14,-0.03 c -3.99,4.49 -7.98,9.01 -12.81,10.96 l 4.16,0.83 c -3.55,3.65 -8.12,6.77 -13.72,8.73 l 3.35,1.46 c -8.13,3.41 -16.8,2.72 -16.8,2.72 0,0 4.78,3.08 4.95,2.96 0,0 -7.47,2.78 -15.9,2.4 28.3855,28.4263 44.33026,61.43406 51.4082,94.5845 3.73206,17.47956 4.4318,34.6955 7.8418,69.1555 3.41,-34.46 1.71161,-48.83891 8.1976,-75.0317 6.22268,-25.1294 18.3096,-59.3201 46.3778,-87.2009 z" /><path
     style="fill:none;stroke-linecap:round;stroke:#000"
     d="m218.94 327.33 2.44 34.96"
     id="path4306" /><path
     style="fill:none;stroke-linecap:round;stroke:#000"
     d="m230.5 318.22 0 31.75"
     id="path4308" /><path
     style="fill:none;stroke-linecap:round;stroke:#000"
     id="path4312"
     d="m240.06 327.33-2.44 34.96" /></svg>