<?xml version="1.0" encoding="UTF-8" standalone="no"?>
<svg
   xmlns:dc="http://purl.org/dc/elements/1.1/"
   xmlns:cc="http://creativecommons.org/ns#"
   xmlns:rdf="http://www.w3.org/1999/02/22-rdf-syntax-ns#"
   xmlns:svg="http://www.w3.org/2000/svg"
   xmlns="http://www.w3.org/2000/svg"
   xml:space="preserve"
   enable-background="new 30.5 31.5 412 533"
   viewBox="30.5 31.5 400 500"
   height="500"
   width="400"
   y="0"
   x="0"
   version="1.1"
   id="svg2"><metadata
     id="metadata4"><rdf:RDF><cc:Work
         rdf:about=""><dc:format>
          
          
          
          
          image/svg+xml
        
        
        
        
        </dc:format><dc:type
           rdf:resource="http://purl.org/dc/dcmitype/StillImage" /><dc:title></dc:title></cc:Work></rdf:RDF></metadata><defs
     id="defs6" /><path
     style="fill:#e00e00"
     id="path4148"
     d="M 230.45,531.13 C 156.13,477.21 105.19,409.11 74.71,322.97 47.07,244.87 35.98,150.22 40.8,33.62 l 0.02,-0.46 379.82,0 0.02,0.46 c 4.81,116.6 -6.28,211.24 -33.91,289.35 -30.48,86.14 -81.42,154.24 -155.74,208.16 l -0.28,0.2 -0.28,-0.2 z" /><path
     id="path4369"
     d="m 303.23513,188.00023 0,-29.34841 -28.20685,0.0644 c 1.15676,2.36416 1.34293,4.82978 1.32293,7.1866 -0.033,3.8585 -4.0328,8.93168 -9.6364,8.91708 -5.05643,-0.0132 -8.08862,-3.49448 -9.27243,-6.37727 -0.96152,-2.34128 -0.99147,-6.12478 0.078,-7.94127 -1.97609,1.15003 -3.88767,1.42815 -6.29331,1.16003 -3.57056,-0.39805 -8.61402,-3.71128 -8.61402,-10.27444 0,-6.56316 5.04346,-9.87639 8.61402,-10.27444 2.40564,-0.26812 4.31722,0.009 6.29331,1.16003 -1.06945,-1.81649 -1.03949,-5.59999 -0.078,-7.94127 1.18381,-2.88279 4.216,-6.36387 9.27243,-6.37727 5.6036,-0.0147 9.6034,5.05858 9.6364,8.91708 0.0202,2.35682 -0.16617,4.82244 -1.32293,7.1866 l 28.20685,0.0644 -0.0644,-28.20685 c -2.36416,1.15676 -4.82978,1.34313 -7.1866,1.32293 -3.8585,-0.033 -8.93178,-4.0328 -8.91708,-9.6364 0.0134,-5.05643 3.49448,-8.088616 6.37727,-9.272426 2.34128,-0.9615 6.12478,-0.99146 7.94127,0.078 -1.15103,-1.97609 -1.42815,-3.88768 -1.16003,-6.293314 C 300.62361,88.543458 303.93684,83.5 310.5,83.5 c 6.56316,0 9.87639,5.043458 10.27444,8.61402 0.26812,2.405634 -0.01,4.317224 -1.16003,6.293314 1.81649,-1.06948 5.59999,-1.03952 7.94127,-0.078 2.88279,1.18381 6.36407,4.215996 6.37727,9.272426 0.0146,5.6036 -5.05858,9.6034 -8.91708,9.6364 -2.35682,0.02 -4.82244,-0.16617 -7.1866,-1.32293 l -0.0644,28.20685 28.20685,-0.0644 c -1.15676,-2.36416 -1.34313,-4.82978 -1.32293,-7.1866 0.033,-3.8585 4.0328,-8.93178 9.6364,-8.91708 5.05643,0.0134 8.08862,3.49448 9.27243,6.37727 0.96149,2.34128 0.99145,6.12478 -0.078,7.94127 1.97609,-1.15103 3.88767,-1.42815 6.29331,-1.16003 3.57056,0.39805 8.61402,3.71128 8.61402,10.27444 0,6.56316 -5.04346,9.87639 -8.61402,10.27444 -2.40564,0.26812 -4.31722,-0.01 -6.29331,-1.16003 1.06947,1.81649 1.03952,5.59999 0.078,7.94127 -1.18381,2.88279 -4.216,6.36407 -9.27243,6.37727 -5.6036,0.0146 -9.6034,-5.05858 -9.6364,-8.91708 -0.02,-2.35682 0.16617,-4.82244 1.32293,-7.1866 l -28.20685,-0.0644 -0.31267,29.34841 42.14788,196.03665 C 329.90245,441.39491 285.48167,491.14113 230.5,530.92608 Z"
     style="fill:#ffe000;fill-opacity:1;fill-rule:evenodd;stroke:none;stroke-width:0.83448553px;stroke-linecap:butt;stroke-linejoin:round;stroke-opacity:1" /><path
     id="path4357"
     d="m 157.76487,188.00023 0,-29.34841 28.20685,0.0644 c -1.15676,2.36416 -1.34293,4.82978 -1.32293,7.1866 0.033,3.8585 4.0328,8.93168 9.6364,8.91708 5.05643,-0.0132 8.08862,-3.49448 9.27243,-6.37727 0.96152,-2.34128 0.99147,-6.12478 -0.078,-7.94127 1.97609,1.15003 3.88767,1.42815 6.29331,1.16003 3.57056,-0.39805 8.61402,-3.71128 8.61402,-10.27444 0,-6.56316 -5.04346,-9.87639 -8.61402,-10.27444 -2.40564,-0.26812 -4.31722,0.009 -6.29331,1.16003 1.06945,-1.81649 1.03949,-5.59999 0.078,-7.94127 -1.18381,-2.88279 -4.216,-6.36387 -9.27243,-6.37727 -5.6036,-0.0147 -9.6034,5.05858 -9.6364,8.91708 -0.0202,2.35682 0.16617,4.82244 1.32293,7.1866 l -28.20685,0.0644 0.0644,-28.20685 c 2.36416,1.15676 4.82978,1.34313 7.1866,1.32293 3.8585,-0.033 8.93178,-4.0328 8.91708,-9.6364 -0.0134,-5.05643 -3.49448,-8.088618 -6.37727,-9.272428 -2.34128,-0.961493 -6.12478,-0.991453 -7.94127,0.078 1.15103,-1.976092 1.42815,-3.887676 1.16003,-6.293312 C 160.37639,88.543458 157.06316,83.5 150.5,83.5 c -6.56316,0 -9.87639,5.043458 -10.27444,8.61402 -0.26812,2.405636 0.01,4.31722 1.16003,6.293312 -1.81649,-1.069477 -5.59999,-1.039518 -7.94127,-0.078 -2.88279,1.18381 -6.36407,4.215998 -6.37727,9.272428 -0.0146,5.6036 5.05858,9.6034 8.91708,9.6364 2.35682,0.02 4.82244,-0.16617 7.1866,-1.32293 l 0.0644,28.20685 -28.20685,-0.0644 c 1.15676,-2.36416 1.34313,-4.82978 1.32293,-7.1866 -0.033,-3.8585 -4.0328,-8.93178 -9.6364,-8.91708 -5.05643,0.0134 -8.08862,3.49448 -9.27243,6.37727 -0.96149,2.34128 -0.99145,6.12478 0.078,7.94127 -1.97609,-1.15103 -3.88767,-1.42815 -6.29331,-1.16003 -3.57056,0.39805 -8.61402,3.71128 -8.61402,10.27444 0,6.56316 5.04346,9.87639 8.61402,10.27444 2.40564,0.26812 4.31722,-0.01 6.29331,-1.16003 -1.06947,1.81649 -1.03952,5.59999 -0.078,7.94127 1.18381,2.88279 4.216,6.36407 9.27243,6.37727 5.6036,0.0146 9.6034,-5.05858 9.6364,-8.91708 0.02,-2.35682 -0.16617,-4.82244 -1.32293,-7.1866 l 28.20685,-0.0644 0.31267,29.34841 -42.14788,196.03665 c 29.69763,57.35803 74.11841,107.10425 129.10008,146.8892 z"
     style="fill:#ffe000;fill-opacity:1;fill-rule:evenodd;stroke:none;stroke-width:0.83448553px;stroke-linecap:butt;stroke-linejoin:round;stroke-opacity:0.60606061" /><path
     style="fill:none;fill-rule:evenodd;stroke:#000000;stroke-width:1;stroke-linecap:butt;stroke-linejoin:round;stroke-miterlimit:4;stroke-dasharray:none;stroke-opacity:1"
     d="m 230.5,530.92608 -72.73513,-342.92585 0,-29.34841 28.20685,0.0644 c -1.15676,2.36416 -1.34293,4.82978 -1.32293,7.1866 0.033,3.8585 4.0328,8.93168 9.6364,8.91708 5.05643,-0.0132 8.08862,-3.49448 9.27243,-6.37727 0.96152,-2.34128 0.99147,-6.12478 -0.078,-7.94127 1.97609,1.15003 3.88767,1.42815 6.29331,1.16003 3.57056,-0.39805 8.61402,-3.71128 8.61402,-10.27444 0,-6.56316 -5.04346,-9.87639 -8.61402,-10.27444 -2.40564,-0.26812 -4.31722,0.009 -6.29331,1.16003 1.06945,-1.81649 1.03949,-5.59999 0.078,-7.94127 -1.18381,-2.88279 -4.216,-6.36387 -9.27243,-6.37727 -5.6036,-0.0147 -9.6034,5.05858 -9.6364,8.91708 -0.0202,2.35682 0.16617,4.82244 1.32293,7.1866 l -28.20685,0.0644 0.0644,-28.20685 c 2.36416,1.15676 4.82978,1.34313 7.1866,1.32293 3.8585,-0.033 8.93178,-4.0328 8.91708,-9.6364 -0.0134,-5.05643 -3.49448,-8.088618 -6.37727,-9.272428 -2.34128,-0.961493 -6.12478,-0.991453 -7.94127,0.078 1.15103,-1.976092 1.42815,-3.887676 1.16003,-6.293312 C 160.37639,88.543458 157.06316,83.5 150.5,83.5 c -6.56316,0 -9.87639,5.043458 -10.27444,8.61402 -0.26812,2.405636 0.01,4.31722 1.16003,6.293312 -1.81649,-1.069477 -5.59999,-1.039518 -7.94127,-0.078 -2.88279,1.18381 -6.36407,4.215998 -6.37727,9.272428 -0.0146,5.6036 5.05858,9.6034 8.91708,9.6364 2.35682,0.02 4.82244,-0.16617 7.1866,-1.32293 l 0.0644,28.20685 -28.20685,-0.0644 c 1.15676,-2.36416 1.34313,-4.82978 1.32293,-7.1866 -0.033,-3.8585 -4.0328,-8.93178 -9.6364,-8.91708 -5.05643,0.0134 -8.08862,3.49448 -9.27243,6.37727 -0.96149,2.34128 -0.99145,6.12478 0.078,7.94127 -1.97609,-1.15103 -3.88767,-1.42815 -6.29331,-1.16003 -3.57056,0.39805 -8.61402,3.71128 -8.61402,10.27444 0,6.56316 5.04346,9.87639 8.61402,10.27444 2.40564,0.26812 4.31722,-0.01 6.29331,-1.16003 -1.06947,1.81649 -1.03952,5.59999 -0.078,7.94127 1.18381,2.88279 4.216,6.36407 9.27243,6.37727 5.6036,0.0146 9.6034,-5.05858 9.6364,-8.91708 0.02,-2.35682 -0.16617,-4.82244 -1.32293,-7.1866 l 28.20685,-0.0644 0.31267,29.34841 -42.14788,196.03665"
     id="path4367" /><path
     d="M 419.96,33.21 C 429.03,252.66 383.71,419.16 230.51,530.31 146.04,469.02 94.36,390.9 66.52,296.34 64.43,289.25 62.48,282.07 60.65,274.8 49.2,229.11 42.88,179.78 40.77,126.86 39.57,96.8 39.72,65.58 41.06,33.21 l 189.45,0 189.45,0 m 0.92,-0.95 -0.92,0 -189.45,0 -189.45,0 -0.92,0 -0.04,0.92 c -4.82,116.66 6.28,211.36 33.93,289.52 30.51,86.24 81.51,154.41 155.91,208.39 l 0.56,0.41 0.56,-0.41 C 305.46,477.11 356.46,408.94 386.97,322.7 414.62,244.54 425.72,149.84 420.9,33.18 l -0.04,-0.92 0,0 z"
     id="path10" /><path
     style="fill:none;fill-rule:evenodd;stroke:#000000;stroke-width:0.83448553px;stroke-linecap:butt;stroke-linejoin:round;stroke-opacity:1"
     d="m 230.5,530.92608 72.73513,-342.92585 0,-29.34841 -28.20685,0.0644 c 1.15676,2.36416 1.34293,4.82978 1.32293,7.1866 -0.033,3.8585 -4.0328,8.93168 -9.6364,8.91708 -5.05643,-0.0132 -8.08862,-3.49448 -9.27243,-6.37727 -0.96152,-2.34128 -0.99147,-6.12478 0.078,-7.94127 -1.97609,1.15003 -3.88767,1.42815 -6.29331,1.16003 -3.57056,-0.39805 -8.61402,-3.71128 -8.61402,-10.27444 0,-6.56316 5.04346,-9.87639 8.61402,-10.27444 2.40564,-0.26812 4.31722,0.009 6.29331,1.16003 -1.06945,-1.81649 -1.03949,-5.59999 -0.078,-7.94127 1.18381,-2.88279 4.216,-6.36387 9.27243,-6.37727 5.6036,-0.0147 9.6034,5.05858 9.6364,8.91708 0.0202,2.35682 -0.16617,4.82244 -1.32293,7.1866 l 28.20685,0.0644 -0.0644,-28.20685 c -2.36416,1.15676 -4.82978,1.34313 -7.1866,1.32293 -3.8585,-0.033 -8.93178,-4.0328 -8.91708,-9.6364 0.0134,-5.05643 3.49448,-8.088616 6.37727,-9.272426 2.34128,-0.9615 6.12478,-0.99146 7.94127,0.078 -1.15103,-1.97609 -1.42815,-3.88768 -1.16003,-6.293314 C 300.62361,88.543458 303.93684,83.5 310.5,83.5 c 6.56316,0 9.87639,5.043458 10.27444,8.61402 0.26812,2.405634 -0.01,4.317224 -1.16003,6.293314 1.81649,-1.06948 5.59999,-1.03952 7.94127,-0.078 2.88279,1.18381 6.36407,4.215996 6.37727,9.272426 0.0146,5.6036 -5.05858,9.6034 -8.91708,9.6364 -2.35682,0.02 -4.82244,-0.16617 -7.1866,-1.32293 l -0.0644,28.20685 28.20685,-0.0644 c -1.15676,-2.36416 -1.34313,-4.82978 -1.32293,-7.1866 0.033,-3.8585 4.0328,-8.93178 9.6364,-8.91708 5.05643,0.0134 8.08862,3.49448 9.27243,6.37727 0.96149,2.34128 0.99145,6.12478 -0.078,7.94127 1.97609,-1.15103 3.88767,-1.42815 6.29331,-1.16003 3.57056,0.39805 8.61402,3.71128 8.61402,10.27444 0,6.56316 -5.04346,9.87639 -8.61402,10.27444 -2.40564,0.26812 -4.31722,-0.01 -6.29331,-1.16003 1.06947,1.81649 1.03952,5.59999 0.078,7.94127 -1.18381,2.88279 -4.216,6.36407 -9.27243,6.37727 -5.6036,0.0146 -9.6034,-5.05858 -9.6364,-8.91708 -0.02,-2.35682 0.16617,-4.82244 1.32293,-7.1866 l -28.20685,-0.0644 -0.31267,29.34841 42.14788,196.03665"
     id="path4363" /></svg>