<?xml version="1.0" encoding="UTF-8" standalone="no"?>
<svg
   xmlns:dc="http://purl.org/dc/elements/1.1/"
   xmlns:cc="http://creativecommons.org/ns#"
   xmlns:rdf="http://www.w3.org/1999/02/22-rdf-syntax-ns#"
   xmlns:svg="http://www.w3.org/2000/svg"
   xmlns="http://www.w3.org/2000/svg"
   id="svg2"
   version="1.1"
   x="0"
   y="0"
   width="400"
   height="500"
   viewBox="30.5 31.5 400 500"
   enable-background="new 30.5 31.5 412 533"
   xml:space="preserve"><metadata
     id="metadata4"><rdf:RDF><cc:Work
         rdf:about=""><dc:format>
          
          
          
          image/svg+xml
        
        
        
        </dc:format><dc:type
           rdf:resource="http://purl.org/dc/dcmitype/StillImage" /><dc:title></dc:title></cc:Work></rdf:RDF></metadata><defs
     id="defs6" /><path
     id="path8"
     d="M 230.44,531.14 C 156.12,477.22 105.18,409.12 74.7,322.98 47.06,244.88 35.97,150.23 40.79,33.63 l 0.02,-0.46 379.82,0 0.02,0.46 c 4.81,116.6 -6.28,211.24 -33.91,289.35 C 356.26,409.12 305.32,477.22 231,531.14 l -0.28,0.2 z"
     style="fill:#0085ca;fill-opacity:1" /><path
     id="path10"
     d="M 419.96,33.21 C 429.03,252.66 383.7,419.16 230.5,530.31 77.31,419.16 31.99,252.66 41.06,33.21 l 189.45,0 189.45,0 m 0.92,-0.95 -0.92,0 -189.45,0 -189.45,0 -0.92,0 -0.04,0.92 c -4.82,116.66 6.28,211.36 33.93,289.52 30.51,86.24 81.51,154.41 155.91,208.39 l 0.56,0.41 0.56,-0.41 C 305.46,477.11 356.46,408.94 386.97,322.7 414.62,244.54 425.72,149.84 420.9,33.18 l -0.04,-0.92 0,0 z" /><path
     style="fill:#ffffff;fill-opacity:1;stroke:#000000;stroke-width:0.99400002;stroke-linecap:round;stroke-linejoin:round;stroke-miterlimit:4;stroke-dasharray:none;stroke-opacity:1"
     id="path3923"
     d="m 301.26463,209 c 4.29709,-3.25525 -9.52783,-19.82915 -13.71581,-17.3816 l -4.38492,2.56265 -35.25023,-25.10383 c 1.58087,-9.2658 0.55007,-21.07137 -6.81284,-26.4978 -23.4989,-17.31856 -38.08664,-28.46903 -47.31563,-36.23352 -8.78033,-7.387038 -6.09989,-22.549606 5.39276,-22.577002 l 97.34828,-0.232058 c 5.87059,-0.01399 6.66834,2.077201 6.84571,7.889969 l 22.8577,-0.11603 0,-13.691415 c 0,-15.205313 -20.6703,-17.23473 -27.86242,-17.211654 l -108.48706,0.348086 c -21.92803,0.07036 -31.75381,17.679243 -31.19276,31.856731 1.06067,26.802973 35.89954,45.239223 53.83742,59.597293 5.28046,4.22666 5.46075,15.17414 -1.5274,19.8097 l -52.1245,34.57662 c -5.13675,3.40745 10.42162,20.48189 15.57818,18.60106 l 3.63588,-2.05566 28.10237,20.95533 c -32.01368,19.26803 -87.99019,63.68046 -88.56239,113.40661 -0.48103,41.80335 49.71898,45.83397 65.37303,22.34801 -22.12701,0 -37.96753,0.50037 -38.15254,-18.83467 -0.3334,-34.84236 63.35823,-84.77267 85.65254,-98.4757 22.29431,13.70303 85.98594,63.63334 85.65254,98.4757 -0.18501,19.33504 -16.02553,18.83467 -38.15254,18.83467 15.65405,23.48596 65.85406,19.45534 65.37303,-22.34801 -0.5722,-49.72615 -56.54871,-94.13858 -88.48377,-113.37196 z" /><path
     style="fill:#0085ca;fill-opacity:1;stroke:#000000;stroke-width:0.9939813;stroke-linecap:round;stroke-linejoin:round;stroke-opacity:1"
     id="path3925"
     d="M 230.5,188.13838 201.5,209 230.5,229.07335 259.5,209 Z" /></svg>