<?xml version="1.0" encoding="UTF-8" standalone="no"?>
<svg
   xmlns:dc="http://purl.org/dc/elements/1.1/"
   xmlns:cc="http://creativecommons.org/ns#"
   xmlns:rdf="http://www.w3.org/1999/02/22-rdf-syntax-ns#"
   xmlns:svg="http://www.w3.org/2000/svg"
   xmlns="http://www.w3.org/2000/svg"
   id="svg2"
   version="1.1"
   x="0"
   y="0"
   width="420"
   height="500"
   viewBox="30.5 31.5 420 500"
   enable-background="new 30.5 31.5 412 533"
   xml:space="preserve"><metadata
     id="metadata4"><rdf:RDF><cc:Work
         rdf:about=""><dc:format>
          
          
          
          
          image/svg+xml
        
        
        
        
        </dc:format><dc:type
           rdf:resource="http://purl.org/dc/dcmitype/StillImage" /><dc:title></dc:title></cc:Work></rdf:RDF></metadata><defs
     id="defs6" /><path
     id="path4218"
     d="m 41,32.7 c -2.09,102.46 3.38,187.49 43.93,296.59 28.05,75.48 74.21,144.77 155.57,201.59 C 321.86,474.06 368.02,404.77 396.07,329.29 436.62,220.19 442.09,135.16 440,32.7 c -133,0.29 -266,0 -399,0 z"
     style="fill:#000000;fill-opacity:1;fill-rule:evenodd" /><path
     d="m 41,32.7 c -2.09,102.46 3.38,187.49 43.93,296.59 28.05,75.48 74.21,144.77 155.57,201.59 C 321.86,474.06 368.02,404.77 396.07,329.29 436.62,220.19 442.09,135.16 440,32.7 c -133,0.29 -266,0 -399,0 z"
     id="path4224"
     style="fill:none;stroke:#000000" /><path
     id="path4495"
     d="m 142.5,403.5 0,-131 -17,0 0,-55 37,0 0,32 22,0 0,-118 -24,0 0,-84 36,0 0,47 26,0 0,-47 c 12,0 24,0 36,0 l 0,47 26,0 0,-47 36,0 0,84 -24,0 0,118 22,0 0,-32 37,0 0,55 -17,0 0,131 c -65.33333,0 -130.66667,0 -196,0 z"
     style="fill:#ffe000;fill-opacity:1;fill-rule:evenodd;stroke:#000000;stroke-width:1;stroke-linecap:butt;stroke-linejoin:miter;stroke-miterlimit:4;stroke-dasharray:none;stroke-opacity:1" /><path
     style="fill:none;fill-rule:evenodd;stroke:#000000;stroke-width:1.5;stroke-linecap:butt;stroke-linejoin:miter;stroke-miterlimit:4;stroke-dasharray:none;stroke-opacity:1"
     d="m 255.5,341.5 -5,0 0,48 c -6.66667,0 -13.33333,0 -20,0 l 0,-48 -5,0 15,-20 z"
     id="path4509" /><path
     id="path4511"
     d="m 249.87503,165.00004 -3.12501,0 0,25.99994 -12.50004,0 0,-25.99994 -3.12501,0 L 240.5,148.5 Z"
     style="fill:none;fill-rule:evenodd;stroke:#000000;stroke-width:1.5;stroke-linecap:butt;stroke-linejoin:miter;stroke-miterlimit:4;stroke-dasharray:none;stroke-opacity:1" /></svg>