<svg xmlns:dc="http://purl.org/dc/elements/1.1/" xmlns:cc="http://creativecommons.org/ns#" xmlns:rdf="http://www.w3.org/1999/02/22-rdf-syntax-ns#" xmlns:svg="http://www.w3.org/2000/svg" xmlns="http://www.w3.org/2000/svg" xml:space="preserve" enable-background="new 30.5 31.5 412 533" viewBox="30.5 31.5 400 500" height="500" width="400" y="0" x="0" version="1.1" id="svg2">
  <metadata id="metadata4">
    <rdf:RDF>
      <cc:Work rdf:about="">
        <dc:format>
          
          
          
          
          
          image/svg+xml
        
        
        
        
        
        </dc:format>
        <dc:type rdf:resource="http://purl.org/dc/dcmitype/StillImage"/>
      </cc:Work>
    </rdf:RDF>
  </metadata>
  <defs id="defs6"/>
  <path id="path4148" d="M230.45 531.13C156.13 477.21 105.19 409.11 74.71 322.97 47.07 244.87 35.98 150.22 40.8 33.62l0.02-0.46 379.82 0 0.02 0.46c4.81 116.6-6.28 211.24-33.91 289.35-30.48 86.14-81.42 154.24-155.74 208.16l-0.28 0.2-0.28-0.2z" fill="#e00e00"/>
  <path id="path4412" d="m137.89 222.28 160.8 164.66c3.62 3.71-4.87 12-8.51 8.31l-15.33-15.56c-12.98-13.18-20.47-17.03-27.82-9.86-7.35 7.18-3.67 14.75 9.19 28.04l15.19 15.69c3.61 3.73-4.88 12.02-8.51 8.31L102.12 257.21C86.24 240.95 80.47 221.66 81.35 200.16c21.52-0.36 40.66 5.85 56.54 22.12z" style="fill-rule:evenodd;fill:#ffe000;stroke:#000"/>
  <path d="M419.96 33.21C429.03 252.66 383.71 419.16 230.51 530.31 146.04 469.02 94.36 390.9 66.52 296.34 64.43 289.25 62.48 282.07 60.65 274.8 49.2 229.11 42.88 179.78 40.77 126.86 39.57 96.8 39.72 65.58 41.06 33.21l189.45 0 189.45 0m0.92-0.95-0.92 0-189.45 0-189.45 0-0.92 0-0.04 0.92c-4.82 116.66 6.28 211.36 33.93 289.52 30.51 86.24 81.51 154.41 155.91 208.39l0.56 0.41 0.56-0.41C305.46 477.11 356.46 408.94 386.97 322.7 414.62 244.54 425.72 149.84 420.9 33.18l-0.04-0.92 0 0z" id="path10"/>
  <path d="M141.38 101.11 353.46 316.32c3.64 3.7-4.81 12.03-8.47 8.35l-15.4-15.49c-13.04-13.12-20.54-16.94-27.86-9.73-7.32 7.21-3.6 14.77 9.32 28l15.26 15.63c3.63 3.71-4.83 12.04-8.47 8.35L105.77 136.2C89.81 120.01 83.97 100.75 84.74 79.25c21.51-0.46 40.69 5.67 56.64 21.86z" id="path4416" style="fill-rule:evenodd;fill:#ffe000;stroke:#000"/>
  <path d="m120.57 264.66 54.38 55.69c3.5 3.58 8.51-1.31 5.01-4.89l-31.5-32.26c-8.33-8.53-21.85-23.78-17.78-32.52 8.84-3.86 23.76 10.01 32.09 18.55l31.5 32.26c3.5 3.58 8.51-1.31 5.01-4.89l-54.38-55.69c-13.84-14.17-28.7-26.49-52.78-29.71 2.65 24.14 14.61 39.3 28.45 53.47z" id="path4410" style="fill-rule:evenodd;fill:#e00e00;stroke:#000"/>
  <path d="M242.54 84.04 379.35 224.7c3.62 3.72-4.87 12-8.51 8.31l-15.33-15.56c-12.98-13.18-20.47-17.03-27.82-9.86-7.35 7.18-3.67 14.75 9.19 28.04l15.19 15.69c3.61 3.73-4.89 12.03-8.51 8.31L206.77 118.98c-15.85-16.29-21.64-35.55-20.77-57.05 21.52-0.36 40.69 5.82 56.54 22.12z" id="path4422" style="fill-rule:evenodd;fill:#ffe000;stroke:#000"/>
  <path d="m148.47 119.7 54.64 55.44c3.52 3.57-1.47 8.48-4.99 4.91l-31.65-32.12c-8.37-8.5-23.36-22.3-32.18-18.4-4.03 8.76 9.56 23.95 17.93 32.44l31.65 32.12c3.52 3.57-1.47 8.48-4.99 4.91L124.25 143.56C110.35 129.46 98.32 114.36 95.56 90.23 119.65 93.34 134.57 105.59 148.47 119.7Z" id="path4418" style="fill-rule:evenodd;fill:#e00e00;stroke:#000"/>
  <path id="path4420" d="m225.22 126.42 54.38 55.69c3.5 3.58 8.51-1.31 5.01-4.89l-31.5-32.26c-8.33-8.53-21.85-23.78-17.78-32.52 8.84-3.86 23.76 10.01 32.09 18.55l31.5 32.26c3.5 3.58 8.51-1.31 5.01-4.89L249.55 102.67C235.71 88.5 220.85 76.18 196.77 72.96c2.65 24.14 14.61 39.3 28.45 53.47z" style="fill-rule:evenodd;fill:#e00e00;stroke:#000"/>
</svg>
