<?xml version="1.0" encoding="UTF-8" standalone="no"?>
<svg
   xmlns:dc="http://purl.org/dc/elements/1.1/"
   xmlns:cc="http://creativecommons.org/ns#"
   xmlns:rdf="http://www.w3.org/1999/02/22-rdf-syntax-ns#"
   xmlns:svg="http://www.w3.org/2000/svg"
   xmlns="http://www.w3.org/2000/svg"
   xml:space="preserve"
   enable-background="new 30.5 31.5 412 533"
   viewBox="30.5 31.5 400 500"
   height="500"
   width="400"
   y="0"
   x="0"
   version="1.1"
   id="svg2"><metadata
     id="metadata4"><rdf:RDF><cc:Work
         rdf:about=""><dc:format>
          
          
          
          
          image/svg+xml
        
        
        
        
        </dc:format><dc:type
           rdf:resource="http://purl.org/dc/dcmitype/StillImage" /><dc:title></dc:title></cc:Work></rdf:RDF></metadata><defs
     id="defs6" /><path
     fill="#e00e00"
     id="path4148"
     d="M230.45 531.13C156.13 477.21 105.19 409.11 74.71 322.97 47.07 244.87 35.98 150.22 40.8 33.62l0.02-0.46 379.82 0 0.02 0.46c4.81 116.6-6.28 211.24-33.91 289.35-30.48 86.14-81.42 154.24-155.74 208.16l-0.28 0.2-0.28-0.2z" /><path
     d="M419.96 33.21C429.03 252.66 383.71 419.16 230.51 530.31 146.04 469.02 94.36 390.9 66.52 296.34 64.43 289.25 62.48 282.07 60.65 274.8 49.2 229.11 42.88 179.78 40.77 126.86 39.57 96.8 39.72 65.58 41.06 33.21l189.45 0 189.45 0m0.92-0.95-0.92 0-189.45 0-189.45 0-0.92 0-0.04 0.92c-4.82 116.66 6.28 211.36 33.93 289.52 30.51 86.24 81.51 154.41 155.91 208.39l0.56 0.41 0.56-0.41C305.46 477.11 356.46 408.94 386.97 322.7 414.62 244.54 425.72 149.84 420.9 33.18l-0.04-0.92 0 0z"
     id="path10" /><path
     style="fill:#ffe000;fill-opacity:1;stroke:#000000;stroke-opacity:1"
     id="path4636"
     d="m 75.154551,196.94574 c 1.751404,-2.39989 -1.581111,-4.7249 -3.658122,-3.27133 -4.486127,3.13955 -6.470011,7.85313 -6.324515,12.39788 0.253267,7.91106 7.035957,15.96597 15.495042,15.76552 7.08501,-0.16789 13.665064,-3.78157 15.694392,-12.85816 10.959372,-1.26474 26.718872,-1.83989 43.777332,-2.2552 17.50079,-0.42607 33.57444,-0.50338 51.47699,6.54175 -6.05281,28.73104 -17.48563,60.81415 -27.44849,85.88314 11.72412,-5.03581 18.93781,-15.5654 24.43653,-28.52229 6.96978,-16.42319 11.84226,-34.33344 18.3362,-54.72415 l 33.98087,7.96822 c 1.69672,36.92293 -25.09614,74.03344 -59.87831,88.92208 16.20247,11.75254 43.33289,15.27604 65.82039,14.91978 4.38792,-0.0695 8.7716,-7.37035 13.15741,-11.16465 74.3325,-6.30529 98.99388,-21.7093 99.35273,-40.18673 0.23301,-11.99803 -11.44791,-15.2195 -23.16511,-17.35602 l -1.11019,-33.52178 16.83462,-1.67499 0.10297,-15.50242 -15.52636,-0.71341 23.21212,-109.030941 c 9.42122,-6.020362 21.40074,-9.453713 44.92269,-9.123146 7.2513,0.101906 7.31961,-9.058209 0.75447,-11.171546 -7.86792,-2.532704 -17.87807,-3.118625 -25.28908,-2.636769 C 363.06775,76.73859 350.7191,83.620192 338.27826,93.547409 315.85086,111.44344 222.67993,196.49178 222.67993,196.49178 l -10.58812,-2.85475 3.40732,-11.74729 c 0.98115,-3.38266 -9.04978,-6.84492 -10.0183,-4.34499 l -5.40259,13.94511 c -27.06646,-0.47365 -83.57731,2.4905 -109.224926,8.97242 0.7813,8.63975 -5.123681,13.83887 -10.525649,13.63268 -4.353138,-0.16616 -8.468364,-3.52625 -8.429987,-8.67535 0.01837,-2.46446 0.969738,-5.33988 3.256873,-8.47387 z" /><path
     style="fill:#e00e00;fill-opacity:1;stroke:#000000;stroke-opacity:1"
     id="path4638"
     d="m 266.12619,242.19947 c -7.01037,-1.67092 -5.82953,-10.81565 3.48912,-11.46459 l 48.91233,-3.4062 1.21091,27.64923 z" /><path
     style="fill:#e00e00;fill-opacity:1;stroke:#000000;stroke-opacity:1"
     id="path4640"
     d="m 250.54748,203.7586 -8.81618,-0.29922 c -1.43237,-0.0486 -2.94078,-2.63147 -1.17709,-4.19937 l 98.81516,-88.17339 -20.36968,95.61051 -51.86579,-2.09213 -0.99164,-7.89868 c -0.20715,-1.64997 -12.13014,-2.64318 -13.06613,-0.0239 z" /></svg>