<?xml version="1.0" encoding="UTF-8" standalone="no"?>
<svg
   xmlns:dc="http://purl.org/dc/elements/1.1/"
   xmlns:cc="http://creativecommons.org/ns#"
   xmlns:rdf="http://www.w3.org/1999/02/22-rdf-syntax-ns#"
   xmlns:svg="http://www.w3.org/2000/svg"
   xmlns="http://www.w3.org/2000/svg"
   xmlns:xlink="http://www.w3.org/1999/xlink"
   xmlns:sodipodi="http://sodipodi.sourceforge.net/DTD/sodipodi-0.dtd"
   xmlns:inkscape="http://www.inkscape.org/namespaces/inkscape"
   height="811.37903"
   width="1217.1"
   version="1.0"
   id="svg2"
   inkscape:version="0.48.1 "
   sodipodi:docname="Aa.svg">
  <metadata
     id="metadata65">
    <rdf:RDF>
      <cc:Work
         rdf:about="">
        <dc:format>image/svg+xml</dc:format>
        <dc:type
           rdf:resource="http://purl.org/dc/dcmitype/StillImage" />
      </cc:Work>
    </rdf:RDF>
  </metadata>
  <defs
     id="defs63" />
  <sodipodi:namedview
     pagecolor="#ffffff"
     bordercolor="#666666"
     borderopacity="1"
     objecttolerance="10"
     gridtolerance="10"
     guidetolerance="10"
     inkscape:pageopacity="0"
     inkscape:pageshadow="2"
     inkscape:window-width="1280"
     inkscape:window-height="1004"
     id="namedview61"
     showgrid="false"
     fit-margin-top="0"
     fit-margin-left="0"
     fit-margin-right="0"
     fit-margin-bottom="0"
     inkscape:zoom="0.31398496"
     inkscape:cx="606.77"
     inkscape:cy="406.22501"
     inkscape:window-x="-8"
     inkscape:window-y="-8"
     inkscape:window-maximized="1"
     inkscape:current-layer="svg2" />
  <rect
     height="405.69"
     width="1217.1"
     y="0"
     x="0"
     id="rect4"
     style="fill:#ff0000" />
  <rect
     height="405.69"
     width="1217.1"
     y="405.689"
     x="0"
     id="rect6"
     style="fill:#ffffff" />
  <g
     transform="matrix(0.43756,0,0,0.43756,447.05,175.719)"
     id="g8"
     style="fill-rule:evenodd;stroke:#000000">
    <path
       d="m 39.793,67.481 h 658.6 v 621.31 c -13.79,159.03 -155.09,293.61 -327.6,295.11 -173,1.5 -319.54,-131.72 -327.98,-288.8 L 39.799,67.481 z"
       id="path10"
       inkscape:connector-curvature="0"
       style="fill:#ffffff;stroke-width:10" />
    <path
       id="b"
       d="m 151.84,120.28 c -25.16,0.48 -45.43,21.15 -45.43,46.53 0,25.68 20.73,46.53 46.31,46.53 25.58,0 46.34,-20.85 46.34,-46.53 0,-25.68 -20.76,-46.53 -46.34,-46.53 h -0.88 z m -0.75,18.53 c 0.31,-0.01 0.63,0 0.94,0 15.75,0 28.5,12.7 28.5,28.35 0,15.65 -12.75,28.34 -28.5,28.34 -15.74,0 -28.53,-12.69 -28.53,-28.34 0,-15.35 12.27,-27.86 27.59,-28.35 z"
       inkscape:connector-curvature="0"
       style="fill:#fe0000;fill-rule:nonzero;stroke:#000000;stroke-width:5" />
    <path
       d="M 151.94,213.85 H 583.97 V 707.82 H 488.94 V 480.42 H 415.11 V 825.77 H 320.89 V 480.42 H 247.46 V 707.53 H 151.94 V 213.85 z"
       id="path13"
       inkscape:connector-curvature="0"
       style="fill:#fe0000;stroke-width:5" />
  </g>
  <use
     xlink:href="#b"
     transform="matrix(0.43756,0,0,0.43756,541.56,175.719)"
     id="use15"
     x="0"
     y="0"
     width="1237.5"
     height="831.25" />
  <use
     xlink:href="#b"
     transform="matrix(0.43756,0,0,0.43756,636.08,175.719)"
     id="use17"
     x="0"
     y="0"
     width="1237.5"
     height="831.25" />
  <g
     transform="matrix(0.43756,0,0,0.43756,447.05,175.719)"
     id="g19"
     style="fill:none;stroke:#000000;stroke-width:13">
    <path
       d="M 152,334.51 H 583"
       id="path21"
       inkscape:connector-curvature="0" />
    <path
       d="M 152,368.51 H 583"
       id="path23"
       inkscape:connector-curvature="0" />
    <path
       d="m 153.97,540.51 h 92.78"
       id="path25"
       inkscape:connector-curvature="0" />
    <path
       d="m 153.97,574.15 h 92.78"
       id="path27"
       inkscape:connector-curvature="0" />
    <path
       d="m 489.97,540.51 h 92.78"
       id="path29"
       inkscape:connector-curvature="0" />
    <path
       d="m 489.97,574.15 h 92.78"
       id="path31"
       inkscape:connector-curvature="0" />
    <path
       d="m 322.48,628.24 h 92.77"
       id="path33"
       inkscape:connector-curvature="0" />
    <path
       d="m 322.48,661.89 h 92.77"
       id="path35"
       inkscape:connector-curvature="0" />
    <path
       d="m 152.48,678.24 h 92.77"
       id="path37"
       inkscape:connector-curvature="0" />
    <path
       d="m 491.07,678.24 h 92.78"
       id="path39"
       inkscape:connector-curvature="0" />
    <path
       d="m 322.48,796.38 h 92.77"
       id="path41"
       inkscape:connector-curvature="0" />
  </g>
  <g
     id="c"
     transform="matrix(0.43756,0,0,0.43756,447.05,175.719)">
    <g
       id="a">
      <rect
         height="53.466"
         width="14.497"
         y="709.35999"
         x="149.5"
         id="rect45" />
      <path
         d="m 156.65,709.75 c -0.09,2.22 0.53,7.5 0.85,10.61 0.33,3.1 -1.06,5.35 -1.25,8.25 -0.18,2.65 0.4,5.32 1.17,8.24 0.78,2.98 0.39,5.51 -0.73,8.76 -1.15,3.3 -1.91,6.5 -1.25,9.8 0.67,3.33 1.68,5.44 1.56,7.39"
         id="path47"
         inkscape:connector-curvature="0"
         style="fill:none;stroke:#ffffff;stroke-width:3" />
    </g>
    <use
       xlink:href="#a"
       transform="translate(22,0)"
       id="use49"
       x="0"
       y="0"
       width="1237.5"
       height="831.25" />
    <use
       xlink:href="#a"
       transform="translate(42.945,0)"
       id="use51"
       x="0"
       y="0"
       width="1237.5"
       height="831.25" />
    <use
       xlink:href="#a"
       transform="translate(64.352,0)"
       id="use53"
       x="0"
       y="0"
       width="1237.5"
       height="831.25" />
    <use
       xlink:href="#a"
       transform="translate(86,0)"
       id="use55"
       x="0"
       y="0"
       width="1237.5"
       height="831.25" />
  </g>
  <use
     xlink:href="#c"
     transform="matrix(0.98515,0,0,1,81.553097,51.658)"
     id="use57"
     x="0"
     y="0"
     width="1237.5"
     height="831.25" />
  <use
     xlink:href="#c"
     transform="matrix(0.99505,0,0,1,149.9907,0.04828528)"
     id="use59"
     x="0"
     y="0"
     width="1237.5"
     height="831.25" />
</svg>
