<?xml version="1.0" encoding="UTF-8" standalone="no"?>
<svg
   xmlns:dc="http://purl.org/dc/elements/1.1/"
   xmlns:cc="http://creativecommons.org/ns#"
   xmlns:rdf="http://www.w3.org/1999/02/22-rdf-syntax-ns#"
   xmlns:svg="http://www.w3.org/2000/svg"
   xmlns="http://www.w3.org/2000/svg"
   xmlns:xlink="http://www.w3.org/1999/xlink"
   id="svg3579"
   height="500"
   width="500"
   version="1.1">
  <metadata
     id="metadata12">
    <rdf:RDF>
      <cc:Work
         rdf:about="">
        <dc:format>image/svg+xml</dc:format>
        <dc:type
           rdf:resource="http://purl.org/dc/dcmitype/StillImage" />
        <dc:title></dc:title>
      </cc:Work>
    </rdf:RDF>
  </metadata>
  <defs
     id="defs3583" />
  <path
     style="fill:#0085ca;fill-opacity:1;stroke:#000000;stroke-width:1.5;stroke-miterlimit:4;stroke-dasharray:none;stroke-opacity:1"
     id="path3018"
     d="m 496.65849,250.00099 a 246.65835,246.88405 0 0 1 -493.3167005,0 246.65835,246.88405 0 1 1 493.3167005,0 z" />
  <path
     style="fill:#ffffff;fill-opacity:1;stroke:#000000;stroke-width:1.5;stroke-miterlimit:4;stroke-dasharray:none;stroke-opacity:1"
     id="path3018-1"
     d="m 484.45778,250.00107 a 234.45779,234.67252 0 0 1 -468.91558,0 234.45779,234.67252 0 1 1 468.91558,0 z" />
  <path
     style="fill:#0085ca;fill-opacity:1;stroke:#000000;stroke-width:1.5;stroke-miterlimit:4;stroke-dasharray:none;stroke-opacity:1"
     id="path3018-1-7"
     d="m 475.51037,250.00088 a 225.5101,225.71623 0 1 1 -451.02016,0 225.5101,225.71623 0 1 1 451.02016,0 z" />
  <path
     style="fill:#ffffff;fill-opacity:1;stroke:#000000;stroke-width:1.5;stroke-miterlimit:4;stroke-dasharray:none;stroke-opacity:1"
     id="path3018-1-7-4"
     d="m 426.05687,250.00092 a 176.05666,176.21769 0 1 1 -352.11329,0 176.05666,176.21769 0 1 1 352.11329,0 z" />
  <path
     style="fill:#0085ca;fill-opacity:1;stroke:#000000;stroke-width:1.5;stroke-miterlimit:4;stroke-dasharray:none;stroke-opacity:1"
     id="path3018-1-7-4-0"
     d="m 420.43275,250.00088 a 170.4325,170.58842 0 0 1 -340.865,0 170.4325,170.58842 0 1 1 340.865,0 z" />
  <path
     style="fill:#ffffff;stroke:#000000;stroke-width:1.5;stroke-linecap:butt;stroke-linejoin:miter;stroke-miterlimit:4;stroke-dasharray:none;stroke-opacity:1"
     id="path3860"
     d="m 267.92941,45.076641 c -2.34297,-1.596616 -5.25111,-2.658782 -8.34754,-5.565713 -5.35297,-5.025607 -7.08685,15.172173 -3.52534,14.502682 3.43269,-0.645482 6.54404,-1.082609 10.91906,-0.603836 -0.24677,3.080151 -0.49171,6.707586 -2.92125,10.223995 -2.91614,4.221004 18.0596,6.37261 15.73501,1.900434 -1.28606,-2.474344 -2.22132,-5.926275 -2.32,-9.620101 3.02907,0.602697 5.81543,2.930372 8.40611,4.84836 5.85158,4.331959 9.24639,-15.358909 2.01623,-13.561725 -3.04018,0.755587 -6.2168,0.4853 -7.9908,-0.19172 0.73169,-3.54756 2.35196,-7.439725 6.34691,-11.099186 5.03011,-4.60736 -19.49284,-10.142991 -17.96617,-2.347569 0.5789,2.954561 0.92856,5.726402 -0.35222,11.514379 z" />
  <path
     style="fill:#ffffff;stroke:#000000;stroke-width:1.5;stroke-linecap:butt;stroke-linejoin:miter;stroke-miterlimit:4;stroke-dasharray:none;stroke-opacity:1"
     id="path3862"
     d="m 250.26631,64.868933 c -7.83836,-3.2484 -7.02523,-11.557249 -15.23603,-16.232653 12.54544,-9.964165 3.19166,-18.639045 -5.89533,-19.263696 -6.95869,-0.478349 -18.60922,-0.109722 -24.16285,6.227461 6.23462,10.32831 9.23015,21.4163 7.22397,34.458601 -0.76798,4.991812 12.29633,0.476555 13.45146,-3.155325 0.74645,-2.347694 -3.20935,-1.635424 -4.15187,-3.321352 -3.76447,-6.733451 2.08022,-9.257543 -4.56685,-25.324886 -1.41383,-3.418177 11.62741,-1.450599 11.37581,2.573987 -0.2694,4.299095 -3.09263,6.868881 -6.97504,9.797785 7.10234,4.523139 12.58843,12.235898 17.93528,17.270936 2.12536,2.001533 18.71265,0.165485 11.00145,-3.030858 z" />
  <path
     style="fill:#ffffff;stroke:#000000;stroke-width:1.5;stroke-linecap:butt;stroke-linejoin:miter;stroke-miterlimit:4;stroke-dasharray:none;stroke-opacity:1"
     id="path3864"
     d="m 174.34086,44.749827 c -7.64746,9.560069 -7.17558,17.737104 1.52667,28.064664 3.52234,4.180241 11.20558,8.116146 16.43949,5.871399 3.20392,-1.373838 8.14886,-5.078198 16.79219,-4.109845 0.84534,-8.535715 -7.86496,-9.998815 -8.68943,-17.496622 -0.6664,-6.057302 1.01261,-12.075126 -1.29169,-23.720057 -10.88101,7.694176 -18.28334,3.273344 -24.77723,11.390461 z" />
  <path
     style="fill:#0085ca;fill-opacity:0.98823529;stroke:#000000;stroke-width:1.5;stroke-linecap:butt;stroke-linejoin:miter;stroke-miterlimit:4;stroke-dasharray:none;stroke-opacity:1"
     id="path3866"
     d="m 182.05512,50.379896 c -4.15948,7.554073 1.56183,7.665458 5.02186,6.642497 9.23722,-2.730858 12.24241,-7.293064 8.87743,-10.212886 -4.54419,-3.942872 -11.73792,-0.354284 -13.89929,3.570389 z" />
  <path
     style="fill:#0085ca;fill-opacity:0.98823529;stroke:#000000;stroke-width:1.5;stroke-linecap:butt;stroke-linejoin:miter;stroke-miterlimit:4;stroke-dasharray:none;stroke-opacity:1"
     id="path3868"
     d="m 191.81037,72.885121 c -3.10395,-0.344154 -9.08681,-4.234712 -8.34482,-7.244216 1.3132,-5.324012 16.7743,-6.321244 15.62434,-0.2822 -0.58407,3.069433 -4.21796,7.865626 -7.27952,7.526416 z" />
  <path
     style="fill:#ffffff;stroke:#000000;stroke-width:1.5;stroke-linecap:butt;stroke-linejoin:miter;stroke-miterlimit:4;stroke-dasharray:none;stroke-opacity:1"
     id="path3870"
     d="m 152.71303,97.493775 17.41333,-11.185426 c 5.21962,-3.352597 0.80974,-11.237136 -0.53939,-13.656478 -3.63352,-6.51463 -8.6367,-0.444343 -8.11391,-6.926282 0.93579,-11.61356 -7.34094,-15.452007 -15.05752,-12.953482 -4.80759,1.5566 -10.31547,6.998559 -19.40855,14.829188 8.93147,2.891496 17.46648,15.629706 20.15273,22.507214 0.92127,2.357754 -0.14376,4.846814 0.0567,6.147529 0.58422,3.760342 1.56401,4.043672 5.49479,1.237737 z" />
  <path
     style="fill:#0085ca;fill-opacity:0.98823529;stroke:#000000;stroke-width:1.5;stroke-linecap:butt;stroke-linejoin:miter;stroke-miterlimit:4;stroke-dasharray:none;stroke-opacity:1"
     id="path3872"
     d="M 153.02851,85.144383 141.34462,67.530444 c -1.61365,-2.432507 1.12068,-5.281567 4.63838,-5.636569 3.46227,-0.348999 5.48798,1.331302 5.10777,6.869441 -0.3426,4.989495 -6.10074,8.22009 1.23282,7.397796 15.04331,-1.686538 6.29817,17.415167 0.70492,8.983271 z" />
  <path
     style="fill:#ffffff;stroke:#000000;stroke-width:1.5;stroke-linecap:butt;stroke-linejoin:miter;stroke-miterlimit:4;stroke-dasharray:none;stroke-opacity:1"
     id="path3874"
     d="m 120.67739,71.053237 c -3.5452,8.074394 -17.971,5.067244 -19.14007,16.909358 -1.38659,14.038295 9.0798,15.752875 14.79557,12.036159 9.9696,-6.483158 17.13309,-0.643812 12.68176,6.516826 -3.82748,6.15761 -8.28164,-0.61231 -17.144,2.81834 3.98394,3.43617 11.05721,9.4629 13.68012,6.45833 6.28725,-7.2021 13.54647,-5.81429 15.79385,-13.8561 1.70708,-6.110627 -0.58928,-15.490227 -10.33383,-15.969942 -5.23143,-0.257342 -8.57046,4.716589 -13.73843,5.049328 -7.9374,0.511178 -6.40238,-8.936821 -0.93947,-10.920681 6.36953,-2.313132 8.71455,-1.200063 13.73893,-0.234863 -2.96665,-8.738313 -7.67513,-8.085775 -9.39443,-8.806755 z" />
  <path
     style="fill:#ffffff;stroke:#000000;stroke-width:1.5;stroke-linecap:butt;stroke-linejoin:miter;stroke-miterlimit:4;stroke-dasharray:none;stroke-opacity:1"
     id="path3876"
     d="m 89.73574,99.176553 c 3.02665,3.976607 8.99913,20.165567 28.29995,25.775177 -8.2004,6.02762 -13.58916,19.87583 -21.9001,21.13661 -11.8395,1.79565 -27.25342,-5.14813 -24.89432,-23.60274 1.20864,-9.45392 12.32744,-10.55454 18.49447,-23.309047 z" />
  <path
     style="fill:#0085ca;fill-opacity:0.98823529;stroke:#000000;stroke-width:1.5;stroke-linecap:butt;stroke-linejoin:miter;stroke-miterlimit:4;stroke-dasharray:none;stroke-opacity:1"
     id="path3878"
     d="m 82.39676,127.53503 c -1.40263,-1.39403 -1.8855,-8.03466 1.29166,-11.5079 3.15742,-3.45155 9.21906,-2.60319 9.74624,-0.93929 0.93862,2.96117 -9.06861,14.40498 -11.0379,12.44719 z" />
  <path
     style="fill:#0085ca;fill-opacity:0.98823529;stroke:#000000;stroke-width:1.5;stroke-linecap:butt;stroke-linejoin:miter;stroke-miterlimit:4;stroke-dasharray:none;stroke-opacity:1"
     id="path3880"
     d="m 102.59408,122.48561 c 2.17259,3.77101 2.08328,9.88943 -1.29168,12.68216 -4.1588,3.44072 -9.30927,3.42012 -11.6252,0 -1.30222,-1.92318 10.41317,-17.02679 12.91688,-12.68216 z" />
  <path
     style="fill:#ffffff;stroke:#000000;stroke-width:1.5;stroke-linecap:butt;stroke-linejoin:miter;stroke-miterlimit:4;stroke-dasharray:none;stroke-opacity:1"
     id="path3882"
     d="m 50.22208,166.52017 c -5.13301,-0.69524 -10.31505,9.76338 -6.22365,10.21613 10.03314,1.11079 21.27107,6.60872 31.82234,12.21224 3.66738,1.9478 9.79325,-10.57836 4.93196,-10.68568 -10.67882,-0.2358 -22.86941,-7.36801 -23.95492,-9.51154 -2.76645,-5.46257 6.89009,-10.17328 13.03435,-6.69297 5.44287,3.08287 12.4637,6.72024 20.31454,0.58677 2.95827,-2.31109 8.28909,-11.63312 5.16683,-12.56445 -5.54373,-1.65344 -7.10176,10.71424 -18.78803,4.69723 -2.07502,-1.06841 -12.76756,-10.29094 -23.13287,-3.1706 -3.78314,2.59873 -6.66734,7.15133 -3.17055,14.91287 z" />
  <path
     style="fill:#ffffff;stroke:#000000;stroke-width:1.5;stroke-linecap:butt;stroke-linejoin:miter;stroke-miterlimit:4;stroke-dasharray:none;stroke-opacity:1"
     id="path3884"
     d="m 41.89621,190.70502 c -6.1116,1.63113 -5.00794,-4.88897 -2.81894,-6.81894 5.65212,-4.98287 4.99962,0.40091 6.45655,1.32038 l 27.00144,17.03993 c 3.5596,2.24625 0.47953,11.54206 -4.48364,12.45494 -13.32071,2.45063 -27.97908,-0.61081 -31.45103,3.72118 -1.60055,1.99758 -2.59958,5.29338 -4.81445,2.34878 -1.6402,-2.18131 -0.76488,-9.64025 1.67258,-13.5905 2.43648,-3.94903 4.56785,-2.35378 6.09756,0.94854 0.96591,2.08495 4.7481,-0.5567 10.84087,-1.55591 4.09694,-0.67174 9.00654,1.00804 12.74178,-1.77215 -4.78377,-5.61222 -17.48924,-15.09799 -21.24272,-14.09625 z" />
  <path
     style="fill:#ffffff;stroke:#000000;stroke-width:1.5;stroke-linecap:butt;stroke-linejoin:miter;stroke-miterlimit:4;stroke-dasharray:none;stroke-opacity:1"
     id="path3886"
     d="m 55.67958,228.98302 c -23.05683,-1.12237 -25.40794,1.74348 -26.35988,5.43335 -2.4779,9.6044 -1.3467,21.86353 -0.21057,31.26709 0.88055,7.28596 17.60309,3.321 26.4044,4.98174 -1.66723,-6.23602 -9.83988,-2.47739 -18.43314,-9.21633 -1.23539,-0.96873 -1.49647,-7.50409 2.57397,-7.72215 6.52586,-0.34946 15.97494,0.25237 26.32131,3.48756 l 0.16674,-16.77277 c -10.67856,2.64728 -17.92254,4.7953 -26.9856,3.90233 -4.25751,-0.41923 -3.63963,-6.82417 -0.83031,-8.05414 6.08925,-2.66587 15.58611,-2.38487 17.35385,-7.30668 z" />
  <path
     style="fill:#ffffff;fill-opacity:1;stroke:#000000;stroke-width:1.5;stroke-miterlimit:4;stroke-dasharray:none;stroke-opacity:1"
     id="path3888"
     d="m 57.42337,285.03 a 4.276181,4.0685995 0 0 1 -8.55236,0 4.276181,4.0685995 0 1 1 8.55236,0 z" />
  <use
     xlink:href="#path3888"
     height="480"
     width="480"
     y="0"
     x="0"
     style="fill:#ffffff"
     id="use3901"
     transform="translate(27.890785,74.719472)" />
  <use
     xlink:href="#path3888"
     height="480"
     width="480"
     y="0"
     x="0"
     id="use3903"
     transform="translate(398.30745,7.0577711)" />
  <path
     style="fill:#ffffff;stroke:#000000;stroke-width:1.54414773;stroke-linecap:butt;stroke-linejoin:miter;stroke-miterlimit:4;stroke-dasharray:none;stroke-opacity:1"
     id="path3905"
     d="m 43.41121,304.20207 c -4.65501,2.69248 -6.41183,0.4064 -6.16471,-0.88059 0.7872,-4.10099 7.37023,-14.16819 10.45082,-4.16878 0.71579,2.32319 4.96015,-1.2219 12.50593,10.62724 7.57183,-1.18557 15.80242,-2.27174 20.13846,8.04383 2.07164,4.9277 3.89227,12.26758 6.90263,14.00588 2.99378,1.72856 2.71612,4.47997 -0.35119,5.05921 -6.06361,1.14488 -20.15343,-0.26147 -30.2127,20.21338 -1.36364,2.77583 -1.94863,-3.74662 -2.10416,-12.74615 -4.29576,-2.68126 -8.62903,-6.23524 -9.2862,-13.00694 -1.10191,-11.35346 5.07699,-14.69253 8.27867,-18.63374 1.99513,-2.45625 -7.66617,-9.95422 -10.15755,-8.51334 z" />
  <path
     style="fill:#0085ca;fill-opacity:0.98823529;stroke:#000000;stroke-width:1.54414773;stroke-linecap:butt;stroke-linejoin:miter;stroke-miterlimit:4;stroke-dasharray:none;stroke-opacity:1"
     id="path3006"
     d="m 57.15012,336.43552 c -1.44787,0.681 -8.73808,-8.28215 4.81445,-13.38664 10.06247,-3.78964 16.15033,3.52798 14.91314,4.10988 z" />
  <path
     style="fill:#ffffff;stroke:#000000;stroke-width:1.5;stroke-linecap:butt;stroke-linejoin:miter;stroke-miterlimit:4;stroke-dasharray:none;stroke-opacity:1"
     id="path3776"
     d="m 95.31353,357.33717 c 5.9273,-2.01761 15.46722,5.92811 11.39045,14.56116 -2.64708,5.60432 -7.34801,10.49913 -12.21232,15.9696 -6.64844,7.47719 0.83895,12.29096 7.2802,8.22001 7.2329,-4.57146 11.97585,-11.17029 16.20496,-19.37516 2.41777,-0.87866 9.48772,4.40044 10.56834,10.21568 -15.04937,6.71706 -15.71454,12.00764 -18.43611,15.73501 -5.82429,7.97791 3.55135,9.72136 7.98504,5.98884 5.63261,-4.74108 11.47287,-11.23981 19.14064,-12.44712 4.61972,-0.72732 11.71631,2.71331 14.09104,9.6289 -8.45922,-3.56553 -13.66207,-1.54263 -16.32217,1.29165 -5.4018,5.75575 -8.01972,10.62558 -14.44335,13.50389 -3.61484,1.61996 -8.92125,0.6619 -11.39067,-1.46776 -3.22949,-2.78532 -4.78851,-5.03264 -7.27394,-8.58042 -2.02543,-2.89124 -5.61674,-0.12167 -6.76393,-1.28454 -1.24255,-1.26046 0.65688,-3.72771 -2.39801,-6.09883 -2.6731,-2.07492 -5.24293,-4.27659 -7.99796,-6.60133 -5.87524,-4.95776 -2.95706,-10.63579 -0.10713,-13.42562 12.26995,-12.01544 19.64527,-16.69567 10.68575,-25.83396 z" />
  <path
     style="fill:#ffffff;stroke:#000000;stroke-width:1.5;stroke-linecap:butt;stroke-linejoin:miter;stroke-miterlimit:4;stroke-dasharray:none;stroke-opacity:1"
     id="path3778"
     d="m 132.30244,429.08459 c -6.32265,-0.8566 -12.35756,0.236 -8.80674,2.81832 4.44202,3.22956 14.98881,9.94391 14.79554,7.04513 l 0.11788,-4.69675 c 0.0498,-2.00201 11.26199,-7.47114 17.61344,-11.62504 4.07959,-2.66846 1.17933,11.79298 0.41108,19.84459 0,0 -1.41652,-0.74299 -2.81184,-0.51487 -1.39541,0.22813 -2.5937,4.91167 -1.23928,5.91655 3.45579,2.56455 9.91331,5.27692 15.324,5.34281 4.23103,0.0507 -1.41412,-2.41219 -1.07428,-7.45585 0.57467,-8.52559 0.52566,-21.17052 1.25038,-31.35321 0.22041,-3.09637 -5.62846,-5.36763 -7.28014,-4.22732 -13.54096,9.34853 -25.78031,19.24658 -28.29992,18.90564 z" />
  <path
     style="fill:#ffffff;stroke:#000000;stroke-width:1.5;stroke-linecap:butt;stroke-linejoin:miter;stroke-miterlimit:4;stroke-dasharray:none;stroke-opacity:1"
     id="path3780"
     d="m 186.4703,422.17885 c 2.33583,-1.91873 17.04464,2.16323 16.35059,6.61051 -6.81534,1.44765 -9.82965,4.81315 -9.08436,10.34286 0.70947,5.26582 -1.03372,9.03469 -3.54279,10.38423 -9.12377,4.90764 -1.85183,9.60913 -3.99282,12.79942 -2.7586,0.57218 -12.64748,-3.62829 -14.09067,-6.1061 1.34785,-2.81491 7.3126,-1.15293 6.22343,-11.0378 -0.7616,-3.93719 0.9379,-8.26073 5.16661,-9.98126 3.33263,-1.35607 5.29087,-5.6988 2.97001,-13.01186 z" />
  <path
     style="fill:#ffffff;stroke:#000000;stroke-width:1.5;stroke-linecap:butt;stroke-linejoin:miter;stroke-miterlimit:4;stroke-dasharray:none;stroke-opacity:1"
     id="path3782"
     d="m 209.87109,453.08794 c -0.76878,4.60683 -1.28454,8.84704 0.66426,14.44772 0.8088,2.32453 8.57057,-0.89863 10.37928,0.91324 4.82745,4.8365 10.86652,2.27045 13.29348,-0.57292 4.1055,-4.80969 6.24725,-14.92374 -0.7557,-18.10944 -15.29947,-6.96003 -14.51639,-12.18872 -7.47286,-14.36459 5.69242,-1.75819 10.4043,9.18664 17.02181,12.78715 3.32217,-3.52262 3.14309,-9.73106 2.20721,-12.42672 -11.25884,1.26092 -10.93505,-6.85534 -23.79575,-5.25926 -12.50377,1.55166 -11.34878,12.93284 -7.63931,17.10446 5.79285,6.51464 14.26718,5.26733 14.74928,11.51682 0.37799,4.90635 -6.75467,6.87057 -10.01645,4.42553 -4.4039,-2.31373 -3.433,-5.42285 -8.63525,-10.46199 z" />
  <path
     style="fill:#ffffff;stroke:#000000;stroke-width:1.5;stroke-linecap:butt;stroke-linejoin:miter;stroke-miterlimit:4;stroke-dasharray:none;stroke-opacity:1"
     id="path3784"
     d="m 249.72831,437.49493 c 1.02813,-4.69311 10.44409,-7.27173 14.79605,-1.14781 3.06961,4.32013 2.7658,12.01504 9.27622,21.57823 3.60956,5.3022 11.3008,4.16998 11.15557,-2.29559 -0.16802,-7.46824 -1.72886,-16.46109 -5.40171,-19.28264 -4.12265,-3.16719 -4.52837,-4.08474 -0.7044,-5.85365 15.25798,-7.0559 8.24013,0.94583 9.51164,4.82094 3.62901,11.06005 1.24226,23.80511 9.51116,26.62835 2.50807,0.85606 1.50216,6.50146 -1.05664,5.39456 -6.03644,-2.61174 -8.67437,-1.46878 -11.39011,0.11559 -14.16029,8.25502 -19.11306,0.77841 -20.19727,-2.52485 l -7.04558,-21.46354 c -2.75959,-8.69232 -9.24386,-2.36663 -8.45493,-5.96844 z" />
  <path
     style="fill:#ffffff;stroke:#000000;stroke-width:1.5;stroke-linecap:butt;stroke-linejoin:miter;stroke-miterlimit:4;stroke-dasharray:none;stroke-opacity:1"
     id="path3786"
     d="m 299.48131,430.06517 c 8.86308,7.7752 11.41497,19.224 11.03582,30.21536 -0.19194,5.5499 4.60716,-1.06916 14.05544,-1.38901 14.95766,-0.50638 18.67287,-16.71901 16.14662,-27.66863 -2.3558,-10.21075 -10.21666,-16.48948 -19.3992,-13.42863 -5.75696,1.91887 -10.45542,5.83759 -14.70247,6.1879 -8.56029,0.70507 -13.04845,0.89689 -7.13621,6.08301 z" />
  <path
     style="fill:#0085ca;fill-opacity:0.98823529;stroke:#000000;stroke-width:1.5;stroke-linecap:butt;stroke-linejoin:miter;stroke-miterlimit:4;stroke-dasharray:none;stroke-opacity:1"
     id="path3788"
     d="m 311.02455,436.13015 14.79605,-5.63668 c 4.25581,-1.62142 -5.35992,-7.89824 -12.44723,-4.22715 -6.86104,3.55356 -4.28086,10.59997 -2.34882,9.86383 z" />
  <path
     style="fill:#0085ca;fill-opacity:0.98823529;stroke:#000000;stroke-width:1.5;stroke-linecap:butt;stroke-linejoin:miter;stroke-miterlimit:4;stroke-dasharray:none;stroke-opacity:1"
     id="path3790"
     d="m 329.22572,439.53526 -13.62122,4.93211 c -3.32906,1.20539 0.8131,9.86985 8.80677,7.39783 8.55576,-2.64567 7.94041,-13.46157 4.81445,-12.32994 z" />
  <path
     style="fill:#ffffff;stroke:#000000;stroke-width:1.5;stroke-linecap:butt;stroke-linejoin:miter;stroke-miterlimit:4;stroke-dasharray:none;stroke-opacity:1"
     id="path3792"
     d="m 352.40695,433.59702 c 7.49699,-0.53687 16.18773,2.17584 19.13866,-8.39665 1.5155,-5.43132 -1.68906,-15.53708 -11.25147,-19.09358 -2.62928,-0.97783 -7.71875,-0.68902 -9.73893,1.80907 -2.12576,2.62804 -0.58704,7.08975 4.05564,8.02519 3.34316,0.67407 8.01356,5.0325 4.00171,5.06123 -9.39607,0.0679 -9.46677,7.14778 -11.1932,5.00332 -3.78769,-4.70339 -0.88796,-9.18155 -7.7717,-12.42237 -4.00645,-1.88654 -0.29835,-6.7953 6.49454,-8.34221 6.28613,-1.43128 10.3409,-6.48557 14.73195,-7.7605 10.37677,-3.01326 23.99408,11.99672 23.19848,20.12862 -2.06782,21.13635 -18.71823,17.27716 -20.06686,21.73894 -1.1115,3.67756 -4.78372,1.10456 -6.72664,-0.75878 -1.19577,-1.14756 -4.35746,-0.4447 -4.87218,-4.99228 z" />
  <path
     style="fill:#ffffff;stroke:#000000;stroke-width:1.5;stroke-linecap:butt;stroke-linejoin:miter;stroke-miterlimit:4;stroke-dasharray:none;stroke-opacity:1"
     id="path3794"
     d="m 373.1132,389.4019 c 0.99974,-13.59974 19.82456,-10.86557 28.77072,-10.33754 -2.41727,5.25985 -2.69637,11.72077 1.20418,13.74183 3.34487,1.73318 6.43493,0.70686 10.79415,-3.07212 -7.79744,-8.99983 -15.27788,-18.32386 -25.40804,-18.26704 0.61426,-6.17958 4.12428,-9.99447 9.54898,-13.53457 2.62848,9.12611 13.26532,16.2833 20.59181,23.91349 1.49024,1.55172 5.3424,0.37715 7.68769,2.7805 -4.93113,5.95603 -8.67049,12.32208 -14.9115,17.64532 -9.90949,8.45306 -21.26624,-1.53103 -19.18065,-15.11163 -7.93949,-1.00421 -15.18624,-3.7e-4 -19.09734,2.24176 z" />
  <path
     style="fill:#ffffff;stroke:#000000;stroke-width:1.5;stroke-linecap:butt;stroke-linejoin:miter;stroke-miterlimit:4;stroke-dasharray:none;stroke-opacity:1"
     id="path3796"
     d="m 427.98094,379.29608 c -2.37839,-14.78506 -8.38481,-23.7071 -18.78842,-32.40952 -2.35517,-1.97013 -0.63769,-10.37495 2.46606,-10.45104 19.44454,-0.47586 20.92384,6.92611 39.69013,3.17064 0.64751,4.72837 -2.6281,5.02535 -3.38666,11.1735 -0.45605,3.69586 -3.43125,3.55056 -5.17981,1.49995 -2.98812,-3.50531 -13.75517,-3.51968 -21.8469,-3.74911 4.10371,4.55223 8.00753,18.27103 12.68222,18.43558 3.67295,0.12941 -0.84381,11.72304 -5.63662,12.33 z" />
  <path
     style="fill:#ffffff;stroke:#000000;stroke-width:1.5;stroke-linecap:butt;stroke-linejoin:miter;stroke-miterlimit:4;stroke-dasharray:none;stroke-opacity:1"
     id="path3798"
     d="m 425.51485,295.806 c -0.12492,9.77888 -7.5476,21.13939 -5.89118,26.99975 2.5635,9.07006 15.53121,6.15725 16.2708,4.65083 0.59488,-1.21079 2.24006,-0.0672 2.14136,0.61132 -0.96131,6.59412 12.191,8.43688 17.67749,0.35434 4.82285,-7.10447 7.43243,-12.96011 9.13941,-22.51729 0.41714,-2.33752 -1.91693,-0.26213 -3.14891,0.36666 -8.24016,4.20525 -6.35264,-0.3967 -18.50198,-3.28677 -5.05327,-1.20184 -11.03208,-0.25111 -11.80679,-4.64605 -0.78217,-4.44074 -5.8462,-5.15956 -5.8802,-2.53279 z" />
  <path
     style="fill:#0085ca;fill-opacity:0.98823529;stroke:#000000;stroke-width:1.5;stroke-linecap:butt;stroke-linejoin:miter;stroke-miterlimit:4;stroke-dasharray:none;stroke-opacity:1"
     id="path3800"
     d="m 430.32288,308.94357 c 3.78223,1.84606 10.08078,5.55361 23.99626,7.97093 -0.56323,5.02757 -4.716,7.30951 -6.89183,6.64249 -6.3436,-1.94485 -5.08695,-8.61445 -6.72555,-9.29961 -1.76981,-0.73984 -5.12518,5.62455 -8.3865,5.31436 -3.63066,-0.3458 -4.86967,-7.21987 -1.99238,-10.62817 z" />
  <path
     style="fill:#ffffff;stroke:#000000;stroke-width:1.5;stroke-linecap:butt;stroke-linejoin:miter;stroke-miterlimit:4;stroke-dasharray:none;stroke-opacity:1"
     id="path3802"
     d="m 435.7382,280.5218 c 0.95674,4.97528 -2.96318,4.64706 -4.76976,1.57164 -2.61358,-4.44959 -1.84923,-11.39597 5.58194,-13.58675 5.35327,-1.57871 13.42036,-1.82613 19.18011,-3.81958 4.77106,-1.65131 8.23149,-7.53938 0,-7.805 -5.41729,-0.17493 -11.74382,-0.0482 -17.85198,0 -1.83285,0.007 -2.23908,4.19799 -5.89533,3.98534 -0.99661,-7.19831 -0.65729,-14.24148 0,-16.44024 3.17415,0.35991 3.51149,3.00612 5.48039,2.98884 l 18.93123,-0.1664 c 5.10208,-0.0456 9.43298,-6.11454 0.16645,-9.63181 -6.60495,-2.50677 -25.993,3.10535 -26.90228,-14.44775 -0.23259,-4.48827 4.3613,-3.87576 4.80993,-0.0491 0.79775,6.80587 15.96239,3.58574 25.15874,3.81948 8.69415,0.22105 11.20429,7.45177 10.91192,15.5011 -0.0572,1.63683 -2.12217,1.44211 -2.10435,2.81469 0.0237,1.72777 2.4242,-0.22671 2.53798,5.40728 0.0935,4.5626 -1.87505,2.9792 -1.95517,4.72276 -0.0698,1.49511 1.85815,0.96597 1.87372,2.36179 0.13714,12.22047 -5.40468,18.26208 -12.66978,18.89452 -8.78961,0.76513 -23.70526,-2.47679 -22.48336,3.87824 z" />
  <path
     style="fill:#ffffff;stroke:#000000;stroke-width:1.5;stroke-linecap:butt;stroke-linejoin:miter;stroke-miterlimit:4;stroke-dasharray:none;stroke-opacity:1"
     id="path3804"
     d="m 428.09818,200.45635 c -3.31759,2.70434 0.124,11.42263 3.17056,12.21227 7.52215,1.95044 30.96106,4.19397 31.94001,6.34101 2.04839,4.49303 5.6586,3.04774 5.63617,1.05677 -0.0558,-5.07551 -0.10948,-8.35939 -1.87887,-11.15517 -0.93992,-1.48679 -3.76516,-0.98534 -4.81446,1.409 -10.48519,1.79805 -10.91386,-3.49491 -23.13285,-3.99231 l 16.20509,-15.85284 c 1.26256,-1.2352 5.83399,0.49122 5.87106,-3.17044 0.0525,-5.25284 -2.94841,-10.28488 -5.40164,-14.32565 -1.08833,-2.1435 -4.01147,3.48621 -2.81787,7.28011 0.6702,1.97694 -16.51798,13.46505 -24.7772,20.19725 z" />
  <path
     style="fill:#ffffff;stroke:#000000;stroke-width:1.5;stroke-linecap:butt;stroke-linejoin:miter;stroke-miterlimit:4;stroke-dasharray:none;stroke-opacity:1"
     id="path3806"
     d="m 429.41866,186.44231 c 15.12789,3.57591 -5.08853,7.79251 -7.07443,4.97226 -4.44381,-6.31096 -4.86135,-16.1979 -8.33726,-19.49273 -3.70198,-3.50907 24.04268,-10.30732 33.34902,-20.78405 4.99646,2.90905 5.87686,8.93369 3.75772,12.68171 -8.19308,-1.64368 -19.77801,7.44486 -28.2994,11.5079 -0.39963,5.72289 3.30912,10.3361 6.60435,11.11491 z" />
  <path
     style="fill:#ffffff;stroke:#000000;stroke-width:1.5;stroke-linecap:butt;stroke-linejoin:miter;stroke-miterlimit:4;stroke-dasharray:none;stroke-opacity:1"
     id="path3806-1"
     d="m 418.53244,160.49245 c 2.05319,1.16079 -6.29214,4.55515 -7.39955,3.26351 -5.17112,-6.03253 -9.78712,-14.27172 -12.28971,-17.69152 -1.36019,-1.85782 -0.31402,-2.94111 2.99058,-3.59019 6.3169,-1.24049 26.83444,-14.71681 27.74377,-21.12254 3.78607,1.71868 7.38853,8.49945 7.06085,13.428 -12.14492,-0.21946 -20.56555,10.18948 -28.24784,15.01304 0.2425,5.73208 8.22621,9.6165 10.1419,10.6997 z" />
  <path
     style="fill:#ffffff;stroke:#000000;stroke-width:1.5;stroke-linecap:butt;stroke-linejoin:miter;stroke-miterlimit:4;stroke-dasharray:none;stroke-opacity:1"
     id="path3826"
     d="m 386.06644,126.18875 c 0.41948,5.51063 6.5599,12.43719 11.12633,13.36804 0.0803,-5.99982 2.74879,-11.1424 6.22311,-10.45783 6.86823,1.35344 10.20702,-4.74475 10.13421,-9.1377 -0.0708,-4.21874 8.13549,-4.5104 11.29241,-4.89896 -1.34188,-4.90913 -7.35362,-10.70953 -11.04302,-12.70418 0.067,5.72506 -2.78734,10.5602 -6.17473,10.96068 -6.08562,0.71824 -8.22456,3.58807 -8.97994,7.98531 -0.92644,5.38798 -9.76416,4.16136 -12.57837,4.88464 z" />
  <path
     style="fill:#ffffff;stroke:#000000;stroke-width:1.5;stroke-linecap:butt;stroke-linejoin:miter;stroke-miterlimit:4;stroke-dasharray:none;stroke-opacity:1"
     id="path3828"
     d="m 399.21143,104.63715 c -0.7153,0.53305 -2.28873,-0.0475 -1.92536,-2.10564 1.34802,-7.649042 -3.96907,-15.537437 -11.34356,-15.156176 -4.65082,0.24047 -12.3056,4.05333 -13.03446,15.500076 -0.32296,5.07454 2.16311,8.92266 5.28437,8.22003 7.00101,-1.57621 2.52627,-10.8785 5.63618,-11.860012 3.4136,-1.077357 15.4377,9.988932 10.92056,10.450702 -10.41599,1.06518 -12.39184,16.00693 -14.79554,13.15171 -6.72159,-7.98443 -21.44978,-17.54365 -20.784,-21.9584 1.5222,-10.100266 6.48344,-21.583713 19.14006,-24.542231 12.17412,-2.845262 17.71204,6.731915 22.19337,11.615705 2.20517,2.402704 4.87065,0.806289 4.46227,3.532467 -0.57636,3.851714 -1.91931,10.294969 -5.75389,13.151769 z" />
  <path
     style="fill:#ffffff;stroke:#000000;stroke-width:1.5;stroke-linecap:butt;stroke-linejoin:miter;stroke-miterlimit:4;stroke-dasharray:none;stroke-opacity:1"
     id="path3830"
     d="m 354.47246,55.670391 c 2.98754,-1.352561 15.94265,6.451711 17.37885,10.803238 -3.91454,1.640458 -10.0825,2.140522 -9.62891,7.750086 0.3049,3.770956 -0.0749,7.891922 -5.75395,9.393932 -4.76574,1.260928 -7.9282,5.094913 -5.98878,12.682189 -5.02038,0.083 -14.01627,-4.238309 -15.85234,-7.632757 2.3494,-1.31671 10.62749,-4.517428 10.21623,-10.450972 -0.35974,-5.188602 1.93449,-9.326377 6.10613,-10.450787 3.63143,-0.979047 5.19565,-6.35881 3.52277,-12.094929 z" />
  <path
     style="fill:none;stroke:#000000;stroke-width:1;stroke-linecap:round;stroke-linejoin:miter;stroke-opacity:1;stroke-miterlimit:4;stroke-dasharray:none"
     id="path3832"
     d="m 200.03169,412.60942 c 38.11337,-14.46308 38.78965,0.97442 66.88299,0.3738" />
  <path
     style="fill:none;stroke:#000000;stroke-width:1;stroke-linecap:round;stroke-linejoin:miter;stroke-opacity:1;stroke-miterlimit:4;stroke-dasharray:none"
     id="path3834"
     d="m 264.75578,363.82779 c 14.42287,-8.24036 20.97276,11.11933 39.9592,10.0677" />
  <path
     style="fill:none;stroke:#000000;stroke-width:1;stroke-linecap:round;stroke-linejoin:miter;stroke-opacity:1;stroke-miterlimit:4;stroke-dasharray:none"
     id="path3836"
     d="m 238.51732,355.52467 c 15.27027,-1.46109 16.87232,-6.72622 27.36889,-6.58349 16.10928,0.21966 31.05897,14.47397 55.41492,15.55095" />
  <path
     style="fill:none;stroke:#000000;stroke-width:1;stroke-linecap:round;stroke-linejoin:miter;stroke-opacity:1;stroke-miterlimit:4;stroke-dasharray:none"
     id="path3838"
     d="m 153.07726,349.83611 c 17.54663,-8.81928 28.00881,10.47353 49.44593,9.38002" />
  <path
     style="fill:none;stroke:#000000;stroke-width:1;stroke-linecap:round;stroke-linejoin:miter;stroke-opacity:1;stroke-miterlimit:4;stroke-dasharray:none"
     id="path3840"
     d="m 383.94631,336.20059 c 3.66566,-0.48844 8.72676,0.62865 11.59729,2.36212" />
  <path
     style="fill:none;stroke:#000000;stroke-width:1.5;stroke-linecap:round;stroke-linejoin:miter;stroke-miterlimit:4;stroke-dasharray:none;stroke-opacity:1"
     id="path3842"
     d="m 370.67689,332.67779 c -28.96473,-1.80044 -38.00322,19.25397 -59.65234,18.55324 -27.11664,-0.8773 -32.05171,-13.32339 -54.72012,-12.68163 -20.31363,0.57497 -30.78861,13.42749 -50.02353,12.91668 -27.3479,-0.72614 -40.66503,-24.5734 -64.96575,-12.09507" />
  <path
     style="fill:none;stroke:#000000;stroke-width:1;stroke-linecap:round;stroke-linejoin:miter;stroke-opacity:1;stroke-miterlimit:4;stroke-dasharray:none"
     id="path3844"
     d="m 358.91478,344.23226 c 8.95101,-1.30572 20.61111,-0.009 30.55577,3.48746" />
  <path
     style="fill:none;stroke:#000000;stroke-width:1.5;stroke-linecap:butt;stroke-linejoin:miter;stroke-miterlimit:4;stroke-dasharray:none;stroke-opacity:1"
     id="path3846"
     d="m 385.48488,352.86755 c -45.05885,-14.28173 -79.77573,30.27197 -102.79434,27.73299 -23.92971,-2.63968 -32.38321,-16.5966 -49.32097,-15.77642 -18.29619,0.88635 -27.49432,10.23391 -42.34696,7.47332 -42.63351,-7.92496 -45.17727,-53.30674 -90.33934,-39.1915" />
  <path
     style="fill:none;stroke:#000000;stroke-width:1;stroke-linecap:butt;stroke-linejoin:miter;stroke-opacity:1;stroke-miterlimit:4;stroke-dasharray:none"
     id="path3848"
     d="m 109.98275,346.39115 c 36.93747,-4.09575 47.8388,31.19227 73.73317,33.87722 20.8963,2.16675 32.38876,-5.28071 48.15895,-3.65363 20.51601,2.11713 28.44273,13.44748 49.81926,13.61757 33.47948,0.26593 47.27778,-32.66924 92.41557,-24.03793" />
  <path
     style="fill:none;stroke:#000000;stroke-width:1.5;stroke-linecap:butt;stroke-linejoin:miter;stroke-miterlimit:4;stroke-dasharray:none;stroke-opacity:1"
     id="path3850"
     d="m 121.35856,361.29549 c 22.58481,-1.37797 32.46587,20.91399 63.35387,27.60816 17.99758,2.318 27.34465,-2.67731 44.17313,-2.3249 24.13012,0.5052 24.76881,11.17874 52.47693,11.95668 37.52733,-2.18552 38.53813,-23.54873 80.04336,-19.26336" />
  <path
     style="fill:none;stroke:#000000;stroke-width:1;stroke-linecap:butt;stroke-linejoin:miter;stroke-opacity:1;stroke-miterlimit:4;stroke-dasharray:none"
     id="path3852"
     d="m 149.17437,387.57519 c 20.26908,7.03853 42.34878,11.59903 78.38271,9.2995 22.91744,-1.46195 37.24539,9.53127 55.13346,8.9679 26.40225,-0.83197 34.57709,-15.67883 59.11935,-12.41382" />
  <path
     style="fill:#ffffff;stroke:#000000;stroke-width:1.5;stroke-linecap:butt;stroke-linejoin:miter;stroke-miterlimit:4;stroke-dasharray:none;stroke-opacity:1"
     id="path3854"
     d="m 339.79397,60.132636 c -0.80668,1.916629 -7.25162,-8.431344 -9.39377,-10.098781 -3.14782,-2.449654 -8.70053,2.518406 -5.75393,5.284328 10.18245,9.559098 16.63799,21.582679 6.34105,26.538292 -11.84365,5.69956 -15.51322,-6.768813 -25.71619,-4.110028 -5.05212,1.31641 -3.34587,-14.332784 0.23454,-15.969945 2.46803,-1.128332 0.64457,5.43933 9.2767,10.216159 5.19893,2.876805 12.47279,-0.654705 6.1061,-6.458458 -9.71897,-8.859704 -11.04068,-14.061597 -9.15899,-19.140498 2.66375,-7.190124 12.49794,-5.945206 16.67451,-4.109888 4.1385,1.818944 6.66026,6.201872 9.60246,5.552258 3.77124,-0.832744 3.98889,7.068362 1.78752,12.296561 z" />
  <path
     style="fill:#ffffff;stroke:#000000;stroke-width:1.25;stroke-linecap:butt;stroke-linejoin:miter;stroke-miterlimit:4;stroke-dasharray:none;stroke-opacity:1"
     id="path3869"
     d="m 179.97749,169.9256 c -1.31167,-0.0225 -10.99789,8.77836 -11.1555,17.02671 l -0.58723,30.76567 c -0.096,4.99249 -6.6193,4.80496 -6.81059,0.70453 -0.18387,-3.95168 -0.99507,-7.55924 -3.17056,-9.86392 -3.06036,-3.24215 -11.33202,-1.99957 -12.56445,0.70488 -1.59251,3.49427 -1.55542,6.23368 -2.70064,8.45451 -3.0419,5.89879 -9.80383,3.01628 -10.92056,-0.23491 -1.01105,-2.94242 -0.97705,-6.69992 -3.05331,-8.80678 -3.52333,-3.57612 -7.96759,-0.69287 -8.21949,-0.11784 -2.29783,5.23717 0.43618,12.02556 -4.16954,17.26893 -13.83013,15.74538 -22.724045,20.3981 -36.904995,25.46225 0.279481,17.28297 2.135605,31.49188 6.992425,46.11207 12.53947,-1.68768 24.68621,1.84916 31.84757,4.27571 L 352.59349,325.867 c 14.87971,-42.63346 55.28298,-22.41074 58.51042,-20.50381 8.02353,-22.47827 9.38254,-41.42499 9.00926,-55.00085 -24.97235,1.76849 -26.77755,-10.57266 -31.06579,-15.84088 -5.05802,-6.21446 -4.54073,-16.24004 -8.42327,-27.84279 -2.4269,-7.252 -14.06872,-8.05939 -15.2856,-2.82891 -2.46819,10.60761 -13.39218,11.5453 -14.50615,4.23922 -1.92989,-2.0905 -1.19875,-5.33694 -1.76167,-8.10233 -0.82267,-4.04091 -9.58107,-2.04811 -10.68557,2.52446 l -2.11395,8.74836 c -1.31652,5.44915 -11.493,5.67081 -11.74222,-0.70452 -0.45348,-11.58943 3.91326,-23.79293 1.93204,-35.57339 -0.60242,-3.58157 -7.49231,-2.78556 -10.2356,-2.83033 z" />
  <path
     style="fill:#ffffff;stroke:#000000;stroke-width:1.25;stroke-linecap:butt;stroke-linejoin:miter;stroke-miterlimit:4;stroke-dasharray:none;stroke-opacity:1"
     id="path3865"
     d="M 170.76268,172.02272 320.46341,171.884 c 6.37266,-0.003 7.60704,-6.3112 8.39326,-12.48323 1.58385,-12.43002 -4.54699,-17.63738 -2.98879,-23.08307 2.29452,-8.02189 3.61699,-17.0376 3.65313,-27.73303 0.0244,-7.02753 -25.58612,-8.24604 -26.90228,-3.98564 -2.45866,7.9592 -1.03719,16.30647 -2.98922,21.58847 -3.55269,9.61241 -28.2254,10.61154 -30.888,-0.99614 -2.02685,-8.83486 0.92143,-14.28904 -1.16256,-20.92441 -1.73381,-5.518223 -30.95177,-8.638896 -35.20583,-1.66046 -5.03713,8.26251 0.56096,21.81028 -5.15631,26.35575 -4.6303,3.68046 -16.73144,12.88135 -32.37456,-0.11795 -4.14755,-3.44632 -1.25689,-13.52436 -2.82317,-19.09739 -2.04319,-7.26997 -22.02528,-5.13164 -23.24915,-1.1625 -3.31201,10.74373 2.83055,22.93118 -1.35678,32.36599 -1.84137,4.14855 -1.72219,8.9605 -1.64281,13.25107 0.18915,10.1788 0.93435,17.82358 4.99234,17.81978 z" />
  <path
     style="fill:none;stroke:#000000;stroke-width:1.23532093;stroke-linecap:butt;stroke-linejoin:miter;stroke-miterlimit:4;stroke-dasharray:none;stroke-opacity:1"
     id="path3867"
     d="m 211.75306,135.55922 c 39.9571,-1.92906 9.11672,-28.31264 31.01042,-36.776151" />
  <path
     style="fill:none;stroke:#000000;stroke-width:1.23532093;stroke-linecap:round;stroke-linejoin:miter;stroke-miterlimit:4;stroke-dasharray:none;stroke-opacity:1"
     id="path3871"
     d="m 176.35998,105.67938 c -5.69507,7.47683 -1.73809,17.93049 -2.72354,29.01848 -0.35544,4.00312 -9.40405,33.39159 5.0494,34.40609" />
  <path
     style="fill:none;stroke:#000000;stroke-width:1.23532093;stroke-linecap:butt;stroke-linejoin:miter;stroke-miterlimit:4;stroke-dasharray:none;stroke-opacity:1"
     id="path3873"
     d="m 308.37107,102.66935 c -9.23394,14.20118 6.77937,31.04177 -21.64376,30.80546" />
  <g
     id="g3897"
     transform="matrix(1.029433,0,0,1.029433,3.3691495,6.7038186)">
    <path
       style="fill:#000000;fill-opacity:1;stroke:none"
       id="path3885"
       d="m 251.66351,136.73953 a 1.2262357,1.28327 0 1 1 -2.45247,0 1.2262357,1.28327 0 1 1 2.45247,0 z" />
    <path
       style="fill:#ffffff;fill-opacity:1;stroke:none"
       id="path3887"
       transform="matrix(2.8265305,0,0,2.4234234,-460.63093,-194.22759)"
       d="m 252.04849,136.58626 a 0.349335,0.39567533 0 1 1 -0.69867,0 0.349335,0.39567533 0 1 1 0.69867,0 z" />
  </g>
  <use
     xlink:href="#path3885"
     height="480"
     width="480"
     y="0"
     x="0"
     id="use3889"
     transform="matrix(-0.73527777,-0.7204849,0.7204849,-0.73527777,268.84586,447.51163)" />
  <use
     xlink:href="#path3887"
     height="480"
     width="480"
     y="0"
     x="0"
     id="use3891"
     transform="matrix(-0.73527777,-0.7204849,0.7204849,-0.73527777,268.84586,447.51163)" />
  <use
     xlink:href="#path3885"
     height="480"
     width="480"
     y="0"
     x="0"
     id="use3893"
     transform="matrix(0.53263343,-0.88092789,0.88092789,0.53263343,-72.83886,265.64844)" />
  <use
     xlink:href="#path3887"
     height="480"
     width="480"
     y="0"
     x="0"
     id="use3895"
     transform="matrix(0.53263343,-0.88092789,0.88092789,0.53263343,-72.83886,265.64844)" />
  <use
     xlink:href="#g3897"
     height="480"
     width="480"
     y="0"
     x="0"
     id="use3902"
     transform="matrix(-0.86708782,-0.49815532,0.49815532,-0.86708782,376.67266,443.22238)" />
  <use
     xlink:href="#g3897"
     height="480"
     width="480"
     y="0"
     x="0"
     id="use3904"
     transform="matrix(0.25045237,-0.59127095,0.59127095,0.25045237,51.307934,282.62279)" />
  <use
     xlink:href="#g3897"
     height="480"
     width="480"
     y="0"
     x="0"
     id="use3906"
     transform="matrix(0.61049779,0,0,0.61111111,119.08226,93.325243)" />
  <use
     xlink:href="#g3897"
     height="480"
     width="480"
     y="0"
     x="0"
     id="use3908"
     transform="matrix(0.83766681,0.54618157,-0.54618157,0.83766681,141.92647,-72.375138)" />
  <use
     xlink:href="#g3897"
     height="480"
     width="480"
     y="0"
     x="0"
     id="use3910"
     transform="matrix(-0.44119097,0.77167372,-0.87236469,-0.39026738,522.20475,68.709664)" />
  <path
     style="fill:#ffffff;stroke:#000000;stroke-width:1.5;stroke-linecap:butt;stroke-linejoin:miter;stroke-miterlimit:4;stroke-dasharray:none;stroke-opacity:1"
     id="path3912"
     d="m 116.92012,301.0905 c 15.09437,5.23283 19.82943,12.07608 27.8296,21.7238 6.3142,-1.44932 12.0991,-1.6497 19.86886,1.49018 15.25427,6.16393 26.26277,16.56297 43.17691,16.9385 18.39808,0.40866 32.48395,-13.62226 49.48753,-14.44782 16.3703,-0.79459 34.30429,13.70557 54.13715,12.78707 14.38306,-0.66571 25.20019,-9.17136 42.92694,-14.07298 15.06382,-15.85385 35.98064,-47.89082 48.24274,-79.91955 l 8.46917,-18.59968 c 1.28068,-2.81162 0.38904,-17.99793 -1.82683,-14.61378 l -24.24502,37.03272 c -51.58195,78.78563 -222.66049,58.89782 -271.82486,-1.5126 -7.94477,-9.76205 -14.86612,-19.02732 -20.11787,-28.29615 -7.29623,32.49806 15.23446,58.25807 23.87568,81.49029 z" />
  <path
     style="fill:none;stroke:#000000;stroke-width:1.5;stroke-linecap:round;stroke-linejoin:miter;stroke-miterlimit:4;stroke-dasharray:none;stroke-opacity:1"
     id="path3057"
     d="m 102.45731,246.11534 c 40.30712,54.22428 208.54926,109.85363 300.87965,-2.35247" />
  <path
     style="fill:none;stroke:#000000;stroke-width:1.5;stroke-linecap:butt;stroke-linejoin:miter;stroke-miterlimit:4;stroke-dasharray:none;stroke-opacity:1"
     id="path3059"
     d="m 102.46725,246.13431 c 0.92234,26.30019 26.50541,46.80082 32.90188,65.87618" />
  <path
     style="fill:none;stroke:#000000;stroke-width:1.5;stroke-linecap:butt;stroke-linejoin:miter;stroke-miterlimit:4;stroke-dasharray:none;stroke-opacity:1"
     id="path3061"
     d="m 391.2215,257.14261 c -8.43237,19.12224 -24.6969,50.08052 -44.85135,70.95565" />
  <path
     style="fill:none;stroke:#000000;stroke-width:1.25;stroke-linecap:butt;stroke-linejoin:miter;stroke-miterlimit:4;stroke-dasharray:none;stroke-opacity:1"
     id="path3063"
     d="M 380.1336,279.60597 C 318.65751,321.09203 223.36881,348.83572 108.73748,267.84235" />
  <path
     style="fill:none;stroke:#000000;stroke-width:1.25;stroke-linecap:butt;stroke-linejoin:miter;stroke-miterlimit:4;stroke-dasharray:none;stroke-opacity:1"
     id="path3065"
     d="m 371.25327,295.19623 c -18.40963,16.39554 -62.52031,32.44273 -96.79575,35.06182" />
  <path
     style="fill:none;stroke:#000000;stroke-width:1.25;stroke-linecap:butt;stroke-linejoin:miter;stroke-miterlimit:4;stroke-dasharray:none;stroke-opacity:1"
     id="path3067"
     d="M 239.09881,331.94336 C 199.48987,322.81871 158.52428,311.85439 120.73847,287.41202" />
  <path
     style="fill:none;stroke:#000000;stroke-width:1;stroke-linecap:butt;stroke-linejoin:miter;stroke-miterlimit:4;stroke-dasharray:none;stroke-opacity:1"
     id="path3069"
     d="M 223.68588,338.15108 C 196.54251,334.68712 156.32092,318.52321 132.73374,306.0371" />
  <path
     style="fill:none;stroke:#000000;stroke-width:1;stroke-linecap:butt;stroke-linejoin:miter;stroke-opacity:1;stroke-miterlimit:4;stroke-dasharray:none"
     id="path3071"
     d="m 295.97586,338.00476 c 21.63389,-4.97124 42.49454,-13.38947 61.94257,-23.66411" />
  <path
     style="fill:none;stroke:#000000;stroke-width:1.25;stroke-linecap:round;stroke-linejoin:miter;stroke-miterlimit:4;stroke-dasharray:none;stroke-opacity:1"
     id="path3841"
     d="m 117.56136,246.84078 c 36.69474,-13.77755 65.56194,-15.67066 66.14887,-21.56347 l 0.59286,-5.95473 c 0.41777,-4.19714 11.86807,-5.36618 12.78093,-1.38318 0.75007,3.27234 1.36356,6.57874 3.32139,9.54887 2.09935,3.18522 11.33439,3.71611 15.26946,-1.43303 1.86814,-2.44408 2.67529,-5.54424 3.40559,-8.92438 1.06207,-4.91908 13.90298,-7.52664 16.43934,-1.40903 l 3.99288,9.6289 c 1.65134,3.98268 12.29625,5.12037 16.43948,-0.58714 1.29732,-1.78738 2.39022,-3.71925 2.93557,-7.28052 0.96923,-6.32884 14.73096,-5.59501 15.73502,-1.29165 l 1.64383,7.04554 c 1.29711,5.55947 15.09335,5.33976 15.73517,0.93932 l 0.82214,-5.63615 c 0.82834,-5.68025 15.80441,-4.30186 15.85221,0.7045 0.0291,3.10398 -0.39176,8.73363 2.70114,9.51127 13.95516,3.51049 44.83915,11.38975 57.85397,16.93933" />
  <path
     style="fill:#ffffff;fill-opacity:1;stroke:#000000;stroke-width:1.25;stroke-linecap:round;stroke-miterlimit:4;stroke-dasharray:none;stroke-opacity:1"
     id="path3843"
     d="m 211.74489,190.45577 a 9.30519,8.7744749 0 0 1 -18.61038,0 9.30519,8.7744749 0 1 1 18.61038,0 z" />
  <use
     xlink:href="#path3843"
     height="480"
     width="480"
     y="0"
     x="0"
     style="fill:none"
     id="use3863"
     transform="matrix(0.84667695,0,0,0.79136602,31.903871,41.115432)" />
  <path
     style="fill:#ffffff;fill-opacity:1;stroke:#000000;stroke-width:1.25;stroke-linecap:round;stroke-miterlimit:4;stroke-dasharray:none;stroke-opacity:1"
     id="path3875"
     d="m 306.72236,192.58724 a 9.5587932,8.8967119 29.775865 0 1 -16.59355,-9.49396 9.5587932,8.8967119 29.775865 1 1 16.59355,9.49396 z" />
  <path
     style="fill:none;stroke:#000000;stroke-width:1;stroke-linecap:round;stroke-linejoin:miter;stroke-opacity:1;stroke-miterlimit:4;stroke-dasharray:none"
     id="path3895"
     d="m 237.02266,212.04416 c 3.2429,-3.05469 1.84279,-13.06984 1.99291,-24.07908 0.2177,-15.9274 27.80539,-16.80991 28.14727,0.50271 l 0.37176,18.83972 c -0.47411,1.13062 1.24251,2.17526 2.70103,0.91741" />
  <path
     style="fill:none;stroke:#000000;stroke-width:1;stroke-linecap:round;stroke-linejoin:miter;stroke-opacity:1;stroke-miterlimit:4;stroke-dasharray:none"
     id="path3897"
     d="m 242.7519,185.88901 c 2.15902,-9.02272 20.84324,-8.09482 20.92461,1.57782 l 0.16649,19.76165" />
  <path
     style="fill:none;stroke:#000000;stroke-width:1;stroke-linecap:round;stroke-linejoin:miter;stroke-opacity:1;stroke-miterlimit:4;stroke-dasharray:none"
     id="path3899"
     d="m 243.78996,196.06045 2.98932,-0.043" />
  <path
     style="fill:none;stroke:#000000;stroke-width:1;stroke-linecap:round;stroke-linejoin:miter;stroke-opacity:1;stroke-miterlimit:4;stroke-dasharray:none"
     id="path3901"
     d="m 244.0805,200.33678 6.85006,-0.0813" />
  <path
     style="fill:none;stroke:#000000;stroke-width:1;stroke-linecap:round;stroke-linejoin:miter;stroke-opacity:1;stroke-miterlimit:4;stroke-dasharray:none"
     id="path3903"
     d="m 244.3298,206.60582 c 4.88239,-0.20849 8.8064,0.71551 8.59367,-2.57432" />
  <path
     style="fill:none;stroke:#000000;stroke-width:1.5;stroke-linecap:butt;stroke-linejoin:miter;stroke-miterlimit:4;stroke-dasharray:none;stroke-opacity:1"
     id="path3906"
     d="m 112.71492,247.94521 c 32.7655,-7.10892 52.92308,-3.64665 98.33017,-9.34253 46.47913,-5.82994 103.76837,-7.31146 174.19293,11.05532" />
  <path
     style="fill:none;stroke:#000000;stroke-width:1;stroke-linecap:butt;stroke-linejoin:miter;stroke-opacity:1;stroke-miterlimit:4;stroke-dasharray:none"
     id="path3908"
     d="m 269.1038,241.55534 7.51509,-6.5757" />
  <path
     style="fill:none;stroke:#000000;stroke-width:1;stroke-linecap:butt;stroke-linejoin:miter;stroke-opacity:1;stroke-miterlimit:4;stroke-dasharray:none"
     id="path3910"
     d="m 275.67945,244.49091 9.98118,-9.62891" />
  <path
     style="fill:none;stroke:#000000;stroke-width:1.02943325px;stroke-linecap:butt;stroke-linejoin:miter;stroke-opacity:1"
     id="path3913"
     d="m 278.4977,250.59702 16.67451,-15.26503" />
  <path
     style="fill:none;stroke:#000000;stroke-width:1;stroke-linecap:butt;stroke-linejoin:miter;stroke-opacity:1;stroke-miterlimit:4;stroke-dasharray:none"
     id="path3915"
     d="m 283.78217,257.40803 22.07568,-21.13667" />
  <path
     style="fill:none;stroke:#000000;stroke-width:1;stroke-linecap:butt;stroke-linejoin:miter;stroke-opacity:1;stroke-miterlimit:4;stroke-dasharray:none"
     id="path3917"
     d="m 290.9451,258.69973 23.71992,-22.07609" />
  <path
     style="fill:none;stroke:#000000;stroke-width:1.02943325px;stroke-linecap:butt;stroke-linejoin:miter;stroke-opacity:1"
     id="path3919"
     d="m 294.23274,266.21481 30.88293,-27.83" />
  <path
     style="fill:none;stroke:#000000;stroke-width:1;stroke-linecap:butt;stroke-linejoin:miter;stroke-opacity:1;stroke-miterlimit:4;stroke-dasharray:none"
     id="path3921"
     d="m 297.40336,263.63137 3.5228,5.0496" />
  <path
     style="fill:none;stroke:#000000;stroke-width:1;stroke-linecap:butt;stroke-linejoin:miter;stroke-opacity:1;stroke-miterlimit:4;stroke-dasharray:none"
     id="path3923"
     d="m 302.33505,259.16928 5.51947,8.80713" />
  <path
     style="fill:none;stroke:#000000;stroke-width:1;stroke-linecap:butt;stroke-linejoin:miter;stroke-opacity:1;stroke-miterlimit:4;stroke-dasharray:none"
     id="path3925"
     d="m 307.03227,255.05923 7.86777,13.26943" />
  <path
     style="fill:none;stroke:#000000;stroke-width:1;stroke-linecap:butt;stroke-linejoin:miter;stroke-opacity:1;stroke-miterlimit:4;stroke-dasharray:none"
     id="path3927"
     d="m 311.96396,250.71481 4.46227,6.81046" />
  <path
     style="fill:none;stroke:#000000;stroke-width:1;stroke-linecap:butt;stroke-linejoin:miter;stroke-opacity:1;stroke-miterlimit:4;stroke-dasharray:none"
     id="path3929"
     d="m 318.77508,244.60862 4.93169,7.98496" />
  <path
     style="fill:none;stroke:#000000;stroke-width:1;stroke-linecap:butt;stroke-linejoin:miter;stroke-opacity:1;stroke-miterlimit:4;stroke-dasharray:none"
     id="path3931"
     d="m 322.65007,240.38134 5.79336,9.354" />
  <path
     style="fill:none;stroke:#000000;stroke-width:1.02943325px;stroke-linecap:butt;stroke-linejoin:miter;stroke-opacity:1"
     id="path3933"
     d="m 332.27897,238.85479 5.63622,16.08717" />
  <path
     style="fill:none;stroke:#000000;stroke-width:1;stroke-linecap:butt;stroke-linejoin:miter;stroke-opacity:1;stroke-miterlimit:4;stroke-dasharray:none"
     id="path3935"
     d="m 340.85077,239.79409 7.39775,17.49629" />
  <path
     style="fill:none;stroke:#000000;stroke-width:1;stroke-linecap:butt;stroke-linejoin:miter;stroke-opacity:1;stroke-miterlimit:4;stroke-dasharray:none"
     id="path3937"
     d="m 363.98407,244.72592 -6.34112,8.45488" />
  <path
     style="fill:none;stroke:#000000;stroke-width:1;stroke-linecap:butt;stroke-linejoin:miter;stroke-opacity:1;stroke-miterlimit:4;stroke-dasharray:none"
     id="path3939"
     d="m 361.40023,258.22985 10.33384,-11.74238" />
  <path
     style="fill:none;stroke:#000000;stroke-width:1;stroke-linecap:butt;stroke-linejoin:miter;stroke-opacity:1;stroke-miterlimit:4;stroke-dasharray:none"
     id="path3941"
     d="m 219.31537,265.51036 c 16.79663,-16.51107 18.87632,-14.93215 19.14011,-29.3567" />
  <path
     style="fill:none;stroke:#000000;stroke-width:1;stroke-linecap:butt;stroke-linejoin:miter;stroke-opacity:1;stroke-miterlimit:4;stroke-dasharray:none"
     id="path3943"
     d="m 230.4705,236.27136 c -0.92649,11.40722 0.23946,8.38485 -20.31464,29.82615" />
  <path
     style="fill:none;stroke:#000000;stroke-width:1;stroke-linecap:butt;stroke-linejoin:miter;stroke-opacity:1;stroke-miterlimit:4;stroke-dasharray:none"
     id="path3945"
     d="m 206.63309,261.8703 c 15.15395,-17.69027 16.34258,-12.53372 16.90949,-24.65951" />
  <path
     style="fill:none;stroke:#000000;stroke-width:1;stroke-linecap:butt;stroke-linejoin:miter;stroke-opacity:1;stroke-miterlimit:4;stroke-dasharray:none"
     id="path3947"
     d="m 204.28476,255.7642 c 11.64276,-12.56388 12.90171,-11.39915 13.26897,-17.73164" />
  <path
     style="fill:none;stroke:#000000;stroke-width:1;stroke-linecap:butt;stroke-linejoin:miter;stroke-opacity:1;stroke-miterlimit:4;stroke-dasharray:none"
     id="path3949"
     d="m 211.91762,239.32422 -6.69339,9.51163" />
  <path
     style="fill:none;stroke:#000000;stroke-width:1;stroke-linecap:butt;stroke-linejoin:miter;stroke-opacity:1;stroke-miterlimit:4;stroke-dasharray:none"
     id="path3951"
     d="m 201.1143,239.79409 3.87495,5.28405" />
  <path
     style="fill:none;stroke:#000000;stroke-width:1;stroke-linecap:butt;stroke-linejoin:miter;stroke-opacity:1;stroke-miterlimit:4;stroke-dasharray:none"
     id="path3953"
     d="m 197.12148,240.61587 c 0.35278,0.70488 3.5228,5.40171 3.5228,5.40171" />
  <path
     style="fill:none;stroke:#000000;stroke-width:1;stroke-linecap:butt;stroke-linejoin:miter;stroke-opacity:1;stroke-miterlimit:4;stroke-dasharray:none"
     id="path3955"
     d="m 195.47758,247.30923 -4.69674,-6.69336" />
  <path
     style="fill:none;stroke:#000000;stroke-width:1;stroke-linecap:butt;stroke-linejoin:miter;stroke-opacity:1;stroke-miterlimit:4;stroke-dasharray:none"
     id="path3957"
     d="m 190.19374,249.42307 -5.1668,-8.33726" />
  <path
     style="fill:none;stroke:#000000;stroke-width:1;stroke-linecap:butt;stroke-linejoin:miter;stroke-opacity:1;stroke-miterlimit:4;stroke-dasharray:none"
     id="path3959"
     d="m 185.4965,251.65415 -7.04561,-9.8639" />
  <path
     style="fill:none;stroke:#000000;stroke-width:1;stroke-linecap:butt;stroke-linejoin:miter;stroke-opacity:1;stroke-miterlimit:4;stroke-dasharray:none"
     id="path3961"
     d="m 177.04203,248.71859 -4.57954,-6.57615" />
  <path
     style="fill:none;stroke:#000000;stroke-width:1;stroke-linecap:butt;stroke-linejoin:miter;stroke-opacity:1;stroke-miterlimit:4;stroke-dasharray:none"
     id="path3963"
     d="m 170.877,253.88528 -8.16112,-11.27279" />
  <path
     style="fill:none;stroke:#000000;stroke-width:1;stroke-linecap:butt;stroke-linejoin:miter;stroke-opacity:1;stroke-miterlimit:4;stroke-dasharray:none"
     id="path3965"
     d="m 152.79357,251.71259 6.10619,-9.27627" />
  <path
     style="fill:none;stroke:#000000;stroke-width:1;stroke-linecap:butt;stroke-linejoin:miter;stroke-opacity:1;stroke-miterlimit:4;stroke-dasharray:none"
     id="path3967"
     d="m 144.69135,251.30193 6.69282,-8.22002" />
  <path
     style="fill:none;stroke:#000000;stroke-width:1;stroke-linecap:butt;stroke-linejoin:miter;stroke-opacity:1;stroke-miterlimit:4;stroke-dasharray:none"
     id="path3969"
     d="m 138.87856,251.24308 7.0456,-7.98509" />
  <path
     style="fill:none;stroke:#000000;stroke-width:1;stroke-linecap:butt;stroke-linejoin:miter;stroke-miterlimit:4;stroke-dasharray:none;stroke-opacity:1"
     id="path3971"
     d="m 142.51857,259.63915 -15.19929,2.15955" />
  <path
     style="fill:none;stroke:#000000;stroke-width:1;stroke-linecap:butt;stroke-linejoin:miter;stroke-opacity:1;stroke-miterlimit:4;stroke-dasharray:none"
     id="path3973"
     d="m 152.26521,261.51806 -12.20408,8.7952" />
  <path
     style="fill:none;stroke:#000000;stroke-width:1;stroke-linecap:butt;stroke-linejoin:miter;stroke-opacity:1;stroke-miterlimit:4;stroke-dasharray:none"
     id="path3975"
     d="m 158.72353,263.39648 -14.14995,10.09895" />
  <path
     style="fill:none;stroke:#000000;stroke-width:1;stroke-linecap:butt;stroke-linejoin:miter;stroke-opacity:1;stroke-miterlimit:4;stroke-dasharray:none"
     id="path3977"
     d="m 174.34086,259.75641 -23.83725,15.85237" />
  <path
     style="fill:none;stroke:#000000;stroke-width:1;stroke-linecap:butt;stroke-linejoin:miter;stroke-opacity:1;stroke-miterlimit:4;stroke-dasharray:none"
     id="path3979"
     d="m 173.75414,267.03694 -7.80892,4.9906" />
  <path
     style="fill:none;stroke:#000000;stroke-width:1;stroke-linecap:butt;stroke-linejoin:miter;stroke-opacity:1;stroke-miterlimit:4;stroke-dasharray:none"
     id="path3981"
     d="m 176.80703,272.6732 -14.73678,8.92434" />
  <path
     style="fill:none;stroke:#000000;stroke-width:1;stroke-linecap:butt;stroke-linejoin:miter;stroke-opacity:1;stroke-miterlimit:4;stroke-dasharray:none"
     id="path3983"
     d="m 192.60097,268.50473 -17.26186,11.68391" />
  <path
     style="fill:none;stroke:#000000;stroke-width:1.25;stroke-linecap:round;stroke-linejoin:round;stroke-miterlimit:4;stroke-dasharray:none;stroke-opacity:1"
     id="path3985"
     d="m 148.62471,257.40803 c 5.63925,-3.20588 12.34241,-4.81328 21.8412,-1.87876 7.95954,2.45872 17.43076,0.55724 27.12559,-0.47004 -5.44651,11.289 4.71801,11.16482 9.48345,16.5841 2.91694,3.31678 3.6335,7.54366 6.3688,7.3709 12.9228,-0.8152 15.49202,6.33005 18.78842,6.10611 18.19506,-1.23655 16.35241,1.09269 24.65942,15.97016" />
  <path
     style="fill:none;stroke:#000000;stroke-width:1.02943325px;stroke-linecap:butt;stroke-linejoin:miter;stroke-opacity:1"
     id="path3987"
     d="m 177.15924,287.821 13.97382,-10.56793" />
  <path
     style="fill:none;stroke:#000000;stroke-width:1;stroke-linecap:butt;stroke-linejoin:miter;stroke-opacity:1;stroke-miterlimit:4;stroke-dasharray:none"
     id="path3989"
     d="m 195.00819,274.55196 5.63609,-3.5227" />
  <path
     style="fill:none;stroke:#000000;stroke-width:1;stroke-linecap:butt;stroke-linejoin:miter;stroke-opacity:1;stroke-miterlimit:4;stroke-dasharray:none"
     id="path3991"
     d="m 189.95867,283.47652 16.79171,-11.27291" />
  <path
     style="fill:none;stroke:#000000;stroke-width:1.02943325px;stroke-linecap:butt;stroke-linejoin:miter;stroke-opacity:1"
     id="path3993"
     d="m 193.31685,281.65208 3.09304,11.62759" />
  <path
     style="fill:none;stroke:#000000;stroke-width:1.02943325px;stroke-linecap:butt;stroke-linejoin:miter;stroke-opacity:1"
     id="path3995"
     d="m 198.06098,277.95756 4.57991,16.08737" />
  <path
     style="fill:none;stroke:#000000;stroke-width:1.02943325px;stroke-linecap:butt;stroke-linejoin:miter;stroke-opacity:1"
     id="path3997"
     d="m 203.11028,274.78712 5.51901,20.43211" />
  <path
     style="fill:none;stroke:#000000;stroke-width:1.54414773;stroke-linecap:round;stroke-linejoin:miter;stroke-miterlimit:4;stroke-dasharray:none;stroke-opacity:1"
     id="path3999"
     d="m 211.09536,278.4271 c 0,0.46989 0,12.56445 0,12.56445" />
  <path
     style="fill:none;stroke:#000000;stroke-width:1.02943325px;stroke-linecap:butt;stroke-linejoin:miter;stroke-opacity:1"
     id="path4001"
     d="m 215.48874,289.6626 -1.98284,6.79137" />
  <path
     style="fill:none;stroke:#000000;stroke-width:1.02943325px;stroke-linecap:butt;stroke-linejoin:miter;stroke-opacity:1"
     id="path4003"
     d="m 217.96488,297.5677 3.34673,-8.98338" />
  <path
     style="fill:none;stroke:#000000;stroke-width:1.02943325px;stroke-linecap:butt;stroke-linejoin:miter;stroke-opacity:1"
     id="path4005"
     d="m 223.01428,297.68491 5.81229,-14.56057" />
  <path
     style="fill:none;stroke:#000000;stroke-width:1.02943325px;stroke-linecap:butt;stroke-linejoin:miter;stroke-opacity:1"
     id="path4007"
     d="m 231.29267,289.40655 -3.69888,9.98107" />
  <path
     style="fill:none;stroke:#000000;stroke-width:1.02943325px;stroke-linecap:butt;stroke-linejoin:miter;stroke-opacity:1"
     id="path4009"
     d="m 234.63361,293.89702 -2.34261,6.01904" />
  <path
     style="fill:none;stroke:#000000;stroke-width:1.25;stroke-linecap:round;stroke-linejoin:miter;stroke-miterlimit:4;stroke-dasharray:none;stroke-opacity:1"
     id="path4011"
     d="m 243.50488,248.95312 c 15.38286,7.63268 10.6918,22.48531 17.96616,32.05734 8.86075,11.6593 20.15747,5.95014 21.6062,18.64556" />
  <path
     style="fill:none;stroke:#000000;stroke-width:1;stroke-linecap:butt;stroke-linejoin:miter;stroke-opacity:1;stroke-miterlimit:4;stroke-dasharray:none"
     id="path4013"
     d="m 238.10327,254.11982 c 1.97537,-1.93263 4.36596,-3.31136 7.2806,-3.99232" />
  <path
     style="fill:none;stroke:#000000;stroke-width:1;stroke-linecap:butt;stroke-linejoin:miter;stroke-opacity:1;stroke-miterlimit:4;stroke-dasharray:none"
     id="path4015"
     d="m 234.93271,259.87368 c 5.4386,0.48433 7.19943,-4.41298 13.15168,-8.10233" />
  <path
     style="fill:none;stroke:#000000;stroke-width:1;stroke-linecap:butt;stroke-linejoin:miter;stroke-opacity:1;stroke-miterlimit:4;stroke-dasharray:none"
     id="path4017"
     d="m 228.59204,264.80586 c 13.99102,1.56808 13.81962,-6.58696 22.89794,-8.80717" />
  <path
     style="fill:none;stroke:#000000;stroke-width:1;stroke-linecap:butt;stroke-linejoin:miter;stroke-opacity:1;stroke-miterlimit:4;stroke-dasharray:none"
     id="path4019"
     d="m 223.42489,268.09366 c 14.1874,4.11238 16.82278,-4.77049 31.47056,-4.34494" />
  <path
     style="fill:none;stroke:#000000;stroke-width:1;stroke-linecap:butt;stroke-linejoin:miter;stroke-opacity:1;stroke-miterlimit:4;stroke-dasharray:none"
     id="path4021"
     d="m 220.48932,274.19978 c 20.12438,3.79839 21.43586,-6.71336 35.81511,-5.98885" />
  <path
     style="fill:none;stroke:#000000;stroke-width:1;stroke-linecap:butt;stroke-linejoin:miter;stroke-opacity:1;stroke-miterlimit:4;stroke-dasharray:none"
     id="path4023"
     d="m 238.69042,278.89699 c 4.77523,-2.25776 9.55046,-3.29896 14.32615,-3.5228" />
  <path
     style="fill:none;stroke:#000000;stroke-width:1;stroke-linecap:round;stroke-linejoin:miter;stroke-opacity:1;stroke-miterlimit:4;stroke-dasharray:none"
     id="path4025"
     d="m 249.49377,281.59754 c 1.76992,-0.20838 3.39942,-0.29692 6.22332,-1.4089" />
  <path
     style="fill:none;stroke:#000000;stroke-width:1.02943325px;stroke-linecap:round;stroke-linejoin:miter;stroke-opacity:1"
     id="path4027"
     d="m 250.78542,284.76817 c 3.62685,2.71889 8.58153,1.80476 11.39011,0.46952" />
  <path
     style="fill:none;stroke:#000000;stroke-width:1;stroke-linecap:butt;stroke-linejoin:miter;stroke-opacity:1;stroke-miterlimit:4;stroke-dasharray:none"
     id="path4029"
     d="m 257.12607,251.18424 13.62172,15.38282" />
  <path
     style="fill:none;stroke:#000000;stroke-width:1.02943325px;stroke-linecap:butt;stroke-linejoin:miter;stroke-opacity:1"
     id="path4031"
     d="m 270.0433,277.01814 c 15.38391,4.4584 20.8508,12.28238 24.13066,22.01732" />
  <path
     style="fill:none;stroke:#000000;stroke-width:1.02943325px;stroke-linecap:butt;stroke-linejoin:miter;stroke-opacity:1"
     id="path4033"
     d="m 280.25946,273.73036 c 9.13956,5.49629 15.87148,13.72224 20.31455,24.54168" />
  <path
     style="fill:none;stroke:#000000;stroke-width:1.02943325px;stroke-linecap:butt;stroke-linejoin:miter;stroke-opacity:1"
     id="path4035"
     d="m 300.80892,285.59032 c 3.37715,2.80718 6.08706,6.28119 7.28005,11.2728" />
  <path
     style="fill:none;stroke:#000000;stroke-width:1.02943325px;stroke-linecap:butt;stroke-linejoin:miter;stroke-opacity:1"
     id="path4037"
     d="m 315.95675,280.65825 c 2.67846,4.06738 5.09429,8.18745 6.22337,12.56445" />
  <path
     style="fill:none;stroke:#000000;stroke-width:1.02943325px;stroke-linecap:butt;stroke-linejoin:miter;stroke-opacity:1"
     id="path4039"
     d="m 322.18012,281.24537 c 3.46033,2.65362 5.85458,5.84072 6.81059,9.74618" />
  <path
     style="fill:none;stroke:#000000;stroke-width:1.25;stroke-linecap:round;stroke-linejoin:round;stroke-miterlimit:4;stroke-dasharray:none;stroke-opacity:1"
     id="path4041"
     d="m 253.25102,239.44187 c 1.46844,8.93693 11.03874,-2.0144 24.3073,23.83734 3.22331,6.28023 10.4213,6.18745 16.07835,9.60089 6.73603,4.06414 10.78015,9.38669 14.57004,8.83478 11.2459,-1.63713 14.1332,-11.34859 23.48517,-16.43949 5.6575,-3.07961 20.47092,0.23497 30.53052,-2.11344" />
  <path
     style="fill:none;stroke:#000000;stroke-width:1;stroke-linecap:butt;stroke-linejoin:miter;stroke-opacity:1;stroke-miterlimit:4;stroke-dasharray:none"
     id="path4043"
     d="m 327.69906,274.84584 11.85997,-10.8621" />
  <path
     style="fill:none;stroke:#000000;stroke-width:1;stroke-linecap:butt;stroke-linejoin:miter;stroke-opacity:1;stroke-miterlimit:4;stroke-dasharray:none"
     id="path4045"
     d="m 331.45671,276.95919 13.44562,-12.85783" />
  <path
     style="fill:none;stroke:#000000;stroke-width:1;stroke-linecap:butt;stroke-linejoin:miter;stroke-opacity:1;stroke-miterlimit:4;stroke-dasharray:none"
     id="path4047"
     d="m 336.85848,277.95756 5.98887,-5.40159" />
  <path
     style="fill:none;stroke:#000000;stroke-width:1;stroke-linecap:butt;stroke-linejoin:miter;stroke-opacity:1;stroke-miterlimit:4;stroke-dasharray:none"
     id="path4049"
     d="m 349.77519,269.62031 1.64389,10.27457" />
  <path
     style="fill:none;stroke:#000000;stroke-width:1;stroke-linecap:butt;stroke-linejoin:miter;stroke-opacity:1;stroke-miterlimit:4;stroke-dasharray:none"
     id="path4051"
     d="m 354.12015,269.62031 1.23272,7.86735" />
  <path
     style="fill:none;stroke:#000000;stroke-width:1;stroke-linecap:butt;stroke-linejoin:miter;stroke-opacity:1;stroke-miterlimit:4;stroke-dasharray:none"
     id="path4053"
     d="m 365.09911,260.34373 2.52506,-3.4056" />
  <path
     style="fill:none;stroke:#000000;stroke-width:1;stroke-linecap:butt;stroke-linejoin:miter;stroke-opacity:1;stroke-miterlimit:4;stroke-dasharray:none"
     id="path4055"
     d="m 181.03423,263.74872 3.99271,-2.46567" />
  <path
     style="fill:none;stroke:#000000;stroke-width:1;stroke-linecap:butt;stroke-linejoin:miter;stroke-opacity:1;stroke-miterlimit:4;stroke-dasharray:none"
     id="path4057"
     d="m 180.38873,267.97641 7.69107,-5.04935" />
  <path
     style="fill:none;stroke:#000000;stroke-width:1;stroke-linecap:butt;stroke-linejoin:miter;stroke-opacity:1;stroke-miterlimit:4;stroke-dasharray:none"
     id="path4059"
     d="m 183.20697,270.44208 5.10777,-3.34672" />
  <path
     style="fill:none;stroke:#000000;stroke-width:1;stroke-linecap:round;stroke-linejoin:miter;stroke-opacity:1;stroke-miterlimit:4;stroke-dasharray:none"
     id="path4061"
     d="m 82.08399,273.6544 6.31049,-3.90233" />
  <path
     style="fill:none;stroke:#000000;stroke-width:1;stroke-linecap:round;stroke-linejoin:miter;stroke-opacity:1;stroke-miterlimit:4;stroke-dasharray:none"
     id="path4063"
     d="m 82.41616,279.30084 12.28885,-7.47315" />
  <path
     style="fill:none;stroke:#000000;stroke-width:1;stroke-linecap:round;stroke-linejoin:miter;stroke-opacity:1;stroke-miterlimit:4;stroke-dasharray:none"
     id="path4065"
     d="m 83.08044,284.28251 11.87362,-7.88807" />
  <path
     style="fill:none;stroke:#000000;stroke-width:1.02943325;stroke-linecap:butt;stroke-linejoin:miter;stroke-miterlimit:4;stroke-dasharray:none;stroke-opacity:1"
     id="path4067"
     d="m 238.31197,291.62862 -0.75187,2.57854" />
  <use
     xlink:href="#path4067"
     height="480"
     width="480"
     y="0"
     x="0"
     id="use4071"
     transform="translate(2.9891731,0.66426087)" />
  <use
     xlink:href="#path4067"
     height="480"
     width="480"
     y="0"
     x="0"
     id="use4073"
     transform="translate(6.0935669,1.4776367)" />
  <use
     xlink:href="#use4073"
     height="480"
     width="480"
     y="0"
     x="0"
     id="use4075"
     transform="matrix(-0.13289458,-1.3897167,0.51694469,0.83108099,191.74456,380.67176)" />
  <path
     style="fill:none;stroke:#000000;stroke-width:1.5;stroke-linecap:butt;stroke-linejoin:miter;stroke-miterlimit:4;stroke-dasharray:none;stroke-opacity:1"
     id="path4077"
     d="m 354.44056,325.52618 c 21.53629,-6.18568 43.81404,-5.74385 50.1421,-1.88599" />
  <path
     style="fill:none;stroke:#000000;stroke-width:1;stroke-linecap:round;stroke-linejoin:miter;stroke-opacity:1;stroke-miterlimit:4;stroke-dasharray:none"
     id="path4079"
     d="m 374.87297,312.21865 c 5.84162,-4.51903 23.96173,-4.57807 32.20754,1.51943" />
  <path
     style="fill:none;stroke:#000000;stroke-width:1;stroke-linecap:butt;stroke-linejoin:miter;stroke-opacity:1;stroke-miterlimit:4;stroke-dasharray:none"
     id="path4083"
     d="m 388.88961,275.14915 c 5.38873,2.26774 8.56109,8.81091 10.62814,8.22024 7.60238,-2.17339 10.96271,1.78729 15.52709,7.39004" />
  <path
     style="fill:none;stroke:#000000;stroke-width:1;stroke-linecap:butt;stroke-linejoin:miter;stroke-opacity:1;stroke-miterlimit:4;stroke-dasharray:none"
     id="path4085"
     d="m 386.81346,277.88911 10.21322,10.04707" />
  <path
     style="fill:none;stroke:#000000;stroke-width:1;stroke-linecap:butt;stroke-linejoin:miter;stroke-opacity:1;stroke-miterlimit:4;stroke-dasharray:none"
     id="path4087"
     d="m 384.32283,282.70511 8.96742,8.13703" />
  <path
     style="fill:none;stroke:#000000;stroke-width:1;stroke-linecap:butt;stroke-linejoin:miter;stroke-opacity:1;stroke-miterlimit:4;stroke-dasharray:none"
     id="path4089"
     d="m 412.22154,270.99734 6.48069,4.52223" />
  <path
     style="fill:none;stroke:#000000;stroke-width:1;stroke-linecap:butt;stroke-linejoin:miter;stroke-opacity:1;stroke-miterlimit:4;stroke-dasharray:none"
     id="path4091"
     d="m 413.55009,262.44528 6.11408,4.35003" />
  <path
     style="fill:none;stroke:#000000;stroke-width:1.33826387;stroke-linecap:butt;stroke-linejoin:miter;stroke-miterlimit:4;stroke-dasharray:none;stroke-opacity:1"
     id="path4093"
     d="m 399.97176,252.72357 c 7.12961,0.0546 16.26718,3.33646 20.30407,7.81172" />
  <path
     style="fill:none;stroke:#000000;stroke-width:1.5;stroke-linecap:butt;stroke-linejoin:miter;stroke-miterlimit:4;stroke-dasharray:none;stroke-opacity:1"
     id="path4106"
     d="m 129.30178,332.45414 c 5.82533,-5.46147 12.11703,-9.10818 18.38469,-10.14419" />
  <path
     style="fill:none;stroke:#000000;stroke-width:1.5;stroke-linecap:butt;stroke-linejoin:miter;stroke-miterlimit:4;stroke-dasharray:none;stroke-opacity:1"
     id="path4108"
     d="m 95.70148,323.80627 c 14.60978,-10.22635 41.51315,-4.72147 48.44956,-0.66429" />
  <path
     style="fill:none;stroke:#000000;stroke-width:1;stroke-linecap:butt;stroke-linejoin:miter;stroke-miterlimit:4;stroke-dasharray:none;stroke-opacity:1"
     id="path4110"
     d="m 91.13468,310.60383 c 17.8994,-5.25662 31.44929,-1.71381 45.89633,3.65354" />
  <path
     style="fill:none;stroke:#000000;stroke-width:1;stroke-linecap:butt;stroke-linejoin:miter;stroke-opacity:1;stroke-miterlimit:4;stroke-dasharray:none"
     id="path3940"
     d="m 289.67462,183.06268 c 12.77195,-2.2356 17.58504,6.11233 15.86099,11.3631" />
</svg>
