<?xml version="1.0" encoding="UTF-8" standalone="no"?>
<svg
   xmlns:dc="http://purl.org/dc/elements/1.1/"
   xmlns:cc="http://creativecommons.org/ns#"
   xmlns:rdf="http://www.w3.org/1999/02/22-rdf-syntax-ns#"
   xmlns:svg="http://www.w3.org/2000/svg"
   xmlns="http://www.w3.org/2000/svg"
   version="1"
   width="400"
   height="500"
   id="svg2">
  <metadata
     id="metadata51">
    <rdf:RDF>
      <cc:Work
         rdf:about="">
        <dc:format>
          
          image/svg+xml
        
        </dc:format>
        <dc:type
           rdf:resource="http://purl.org/dc/dcmitype/StillImage" />
        <dc:title></dc:title>
      </cc:Work>
    </rdf:RDF>
  </metadata>
  <defs
     id="defs4" />
  <path
     id="path2418"
     d="m 396.64,1.45 -393.73,0 0,301.05 0,0 0,0.09 c 0,108.73 88.14,196.86 196.86,196.86 108.72,0 196.87,-88.14 196.87,-196.86 l 0,-0.09 0,0 z"
     style="fill:#0064b4;fill-opacity:1;fill-rule:nonzero" />
  <path
     d="m 354.4382,294.87056 c 0.60796,1.63951 0.53659,6.65499 -0.0442,4.0448 7.64545,-2.94668 9.76316,7.80121 21.86995,0.43689 -13.8425,1.41285 -10.42481,-5.20466 -21.82579,-4.48169 z"
     id="path2826"
     style="fill:#ffbf00;fill-opacity:1;stroke:#000000;stroke-width:1;stroke-linecap:butt;stroke-linejoin:miter;stroke-miterlimit:4;stroke-dasharray:none;stroke-opacity:1" />
  <path
     d="m 341.35439,303.33024 c 0.72869,-0.35775 1.65753,-1.55155 2.04064,-2.35023 10.62292,8.37268 11.39502,-13.10907 1.12766,-8.77519 -0.26335,-1.58582 -0.23212,-2.69974 -0.77943,-3.78902 16.38329,-4.47981 15.16575,26.99873 -2.38887,14.91444 z"
     id="path2824"
     style="fill:#ffbf00;fill-opacity:1;stroke:#000000;stroke-width:1;stroke-linecap:butt;stroke-linejoin:miter;stroke-miterlimit:4;stroke-dasharray:none;stroke-opacity:1" />
  <path
     d="m 331.53577,284.27608 c 1.06648,1.7613 2.24287,2.09805 2.49827,3.78374 12.06999,-3.98831 11.64059,19.9841 -0.72983,13.34224 -1.07407,1.21656 -1.05025,1.66705 -2.66849,2.3869 18.19269,12.31515 24.66378,-24.89174 0.90005,-19.51288 z"
     id="path2822"
     style="fill:#ffbf00;fill-opacity:1;stroke:#000000;stroke-width:1;stroke-linecap:butt;stroke-linejoin:miter;stroke-miterlimit:4;stroke-dasharray:none;stroke-opacity:1" />
  <path
     d="m 321.70984,302.40708 c 13.86126,2.2508 14.56964,-20.26376 1.98275,-17.88926 -0.31501,-1.42181 -0.95095,-4.17892 -2.13346,-5.16061 19.99247,-4.06979 22.56466,32.76754 -3.52086,26.38492 1.26439,-1.53702 0.81547,0.0496 3.67157,-3.33505 z"
     id="path3602"
     style="fill:#ffbf00;fill-opacity:1;stroke:#000000;stroke-width:1;stroke-linecap:butt;stroke-linejoin:miter;stroke-miterlimit:4;stroke-dasharray:none;stroke-opacity:1" />
  <path
     d="m 304.98986,303.37402 c 2.86247,-1.57281 3.06649,-1.51087 4.03504,-3.1816 13.39525,10.29778 18.09457,-24.82624 1.10279,-21.3375 -0.26688,-3.30767 -2.75913,-4.61493 -3.35606,-5.76523 30.78344,-4.60725 20.7233,47.62887 -1.78177,30.28433 z"
     id="path3600"
     style="fill:#ffbf00;fill-opacity:1;stroke:#000000;stroke-width:1;stroke-linecap:butt;stroke-linejoin:miter;stroke-miterlimit:4;stroke-dasharray:none;stroke-opacity:1" />
  <path
     d="m 70.97808,338.5562 c 2.14022,1.50509 2.07996,1.19379 4.42518,2.16174 -8.24525,8.63897 -2.63762,16.30273 -15.40041,31.99198 2.65194,-7.15949 5.34811,-13.85902 6.10072,-18.29792 0.95868,-5.6543 0.39044,-10.30436 4.87451,-15.8558 z"
     id="path2825"
     style="fill:#ffbf00;fill-opacity:1;stroke:#000000;stroke-width:1.18934023;stroke-linecap:butt;stroke-linejoin:miter;stroke-miterlimit:4;stroke-dasharray:none;stroke-opacity:1" />
  <path
     d="m 84.43628,334.49401 c -1.56556,0.28405 -1.5837,-0.0873 -3.25504,-0.13409 -0.22971,8.01364 -16.06794,1.60849 -8.16995,-4.4702 -3.55622,-2.86295 -1.64708,-0.66037 -2.79767,-2.41045 -14.52015,10.42494 15.64816,22.59596 14.22266,7.01474 z"
     id="path2823"
     style="fill:#ffbf00;fill-opacity:1;stroke:#000000;stroke-width:1.18934023;stroke-linecap:butt;stroke-linejoin:miter;stroke-miterlimit:4;stroke-dasharray:none;stroke-opacity:1" />
  <path
     d="m 87.77665,325.94694 c -0.60371,11.37509 -22.88105,1.31829 -13.25308,-7.03181 -1.53574,-1.36583 -0.98654,-2.51224 -1.85888,-3.96102 -17.53441,13.37259 16.40877,33.71923 19.45742,10.09305 -2.04235,0.73129 -2.39136,0.80338 -4.34546,0.89978 z"
     id="path2821"
     style="fill:#ffbf00;fill-opacity:1;stroke:#000000;stroke-width:1.18934023;stroke-linecap:butt;stroke-linejoin:miter;stroke-miterlimit:4;stroke-dasharray:none;stroke-opacity:1" />
  <path
     d="m 98.13945,315.53761 c -0.89285,0.80911 -2.41028,1.16731 -4.01038,0.98452 1.19407,13.00774 -28.47516,1.37265 -16.15361,-8.21198 -1.80404,-1.60347 -1.60283,-1.86431 -2.86483,-3.42993 -17.51005,15.89109 23.45436,33.31199 23.02882,10.65739 z"
     id="path2819"
     style="fill:#ffbf00;fill-opacity:1;stroke:#000000;stroke-width:1.18934023;stroke-linecap:butt;stroke-linejoin:miter;stroke-miterlimit:4;stroke-dasharray:none;stroke-opacity:1" />
  <path
     d="m 105.30469,304.73495 c -1.96505,0.85886 -2.47467,1.6097 -4.82188,1.69862 -2.14551,13.8641 -27.86603,2.04739 -19.65018,-8.06174 -1.67412,-2.15807 -1.99604,-4.46297 -2.58826,-7.38911 -17.29509,20.60585 24.20573,39.87017 27.06032,13.75223 z"
     id="path2817"
     style="fill:#ffbf00;fill-opacity:1;stroke:#000000;stroke-width:1.18934023;stroke-linecap:butt;stroke-linejoin:miter;stroke-miterlimit:4;stroke-dasharray:none;stroke-opacity:1" />
  <path
     d="m 251.77592,181.2997 c 0.0437,0.40795 7.99639,-5.03689 11.60273,-15.19001 -3.06225,-0.91669 -10.1991,0.14009 -13.81383,2.17391 -0.48796,-2.24037 1.33979,-3.43639 3.18124,-4.90063 -22.89027,0.98074 -22.70242,6.1923 -31.69772,10.67769 -4.31091,2.14957 -3.58434,-4.75671 -0.0688,-7.46617 6.11102,-4.70983 22.68148,-3.88027 40.98612,-12.58306 -1.12045,-1.15631 -5.59817,-1.29059 -7.12656,-1.46161 3.49976,-2.754 3.02072,-2.25088 6.49925,-5.37494 5.89858,-5.29754 6.69213,-12.26993 12.20377,-16.09013 -2.50299,-0.55164 -10.22362,-1.93189 -13.29664,-1.18923 7.49309,-4.7442 9.51287,-17.61186 7.64431,-21.41338 -2.49274,2.18313 -17.07,8.0742 -18.50098,8.18599 1.08028,-1.85891 2.2862,-6.1438 1.78479,-8.45244 -2.62947,3.61529 -17.28975,10.33607 -32.8878,26.75693 -4.85108,5.10699 -10.42779,0.32646 -4.0406,-5.6028 8.53036,-7.91877 14.37709,-9.09958 21.20161,-15.55853 5.48507,-5.19126 7.05898,-10.5505 8.6645,-14.957567 l -4.06932,0.885321 c -0.97573,-5.432722 5.0239,-15.18432 1.05034,-19.414988 -1.65806,5.243518 -4.87079,0.777527 -10.51849,10.210093 0.0827,-5.636918 -0.21846,-8.706175 -1.23309,-12.411181 -1.13573,-4.147182 -1.68483,-8.578807 0.95357,-10.632526 -4.52715,-1.361427 -8.18391,0.216226 -10.12517,3.161319 -1.30185,-2.325801 1.74882,-4.985057 1.72774,-8.329896 -0.0436,-6.917294 -1.30982,-12.448588 1.25154,-16.539687 -3.13063,0.271206 -9.66802,3.212793 -9.89875,9.819739 -7.73626,-13.378583 6.24648,-21.274825 0.91609,-27.257046 -1.59973,7.316779 -21.92704,5.618836 -26.8302,32.11373 -2.49643,-0.947154 -4.34563,-4.246772 -3.82646,-6.596535 -6.29718,2.705261 -10.81389,14.768433 -8.56823,26.92538 -1.57096,-2.370142 -4.11827,-5.961397 -5.69375,-7.274196 -2.76935,2.101661 -5.62849,10.238073 -2.46497,19.301709 -3.25959,-0.134401 -3.98752,-2.536269 -6.68455,-3.969211 -2.8041,18.583592 16.53802,28.277882 20.23551,40.407172 2.78469,9.13493 -4.07403,8.44984 -4.92933,3.88359 -4.99298,-26.65658 -20.41731,-16.81013 -24.23393,-33.321527 -2.63552,2.830797 -4.00498,5.164527 -4.29191,8.881187 -5.99869,-4.21363 -11.38559,-10.323175 -11.60197,-15.531588 -9.76016,21.917408 -0.52434,28.278028 1.29045,34.932458 -3.48656,-1.78202 -9.13081,-6.23608 -10.57424,-8.46148 -1.60591,5.5458 -2.88139,19.5063 8.40076,29.87021 -2.10962,0.2977 -3.21513,0.4716 -4.40281,1.7407 5.45347,1.34359 5.56769,1.64764 7.8025,3.50491 8.57075,7.12282 24.39363,3.97142 31.15032,10.62068 3.55255,3.49607 0.60563,8.15384 -3.6069,4.90017 -11.78139,-9.09973 -16.62918,-0.0538 -30.14243,-5.77168 -0.30552,1.93183 2.11687,4.2083 5.38466,6.26612 -4.29049,0.075 -8.32361,-4.1481 -13.49843,-6.1143 4.34434,7.03108 4.00091,10.2961 5.74313,14.69347 2.44567,6.17288 5.75526,10.58925 12.6427,11.85498 -4.61157,2.07558 -8.30701,3.15185 -11.40204,9.5122 18.5904,-5.41195 18.01155,3.20627 31.53344,3.19326 15.17335,-0.0146 17.11395,-15.83737 28.17999,-18.83462 -4.63389,21.46646 -1.49358,39.3073 5.54003,53.91438 4.8512,10.55391 8.26082,20.18715 10.27065,29.25978 3.89947,17.60273 2.52962,33.09513 -3.80427,49.10695 -4.02475,10.17441 -9.71526,19.66688 -18.11541,30.93546 -2.09108,0.15926 -5.85988,0.72672 -9.03165,0.20405 -2.92899,-0.48267 -4.91938,1.03173 -6.9983,1.19006 6.14818,-9.92601 9.41603,-17.56818 27.3085,-34.23838 -3.6611,-3.20364 -20.28023,-5.75742 -25.96313,0.64092 -4.67896,5.26802 -16.6174,19.62132 -24.48332,31.96987 -1.1007,1.72796 -0.87134,0.71124 -1.74886,-0.38245 -0.6657,-0.82969 -2.04313,-0.51465 -2.86613,-0.44049 5.51764,-6.83995 12.11061,-19.43378 14.86542,-26.37806 8.23264,-20.75271 3.45865,-37.77311 -1.56996,-45.4398 -17.35316,-26.45689 -51.22258,-37.43724 -68.43952,-63.95118 25.59199,7.91603 23.35495,-11.10161 38.34991,-10.23527 0.1561,-1.99259 -2.65424,-3.99287 -4.37365,-4.12787 4.5945,-3.5997 5.93172,-7.73856 6.40124,-10.75829 -4.1489,-1.01842 -7.84003,1.29253 -7.84003,1.29253 -0.21381,-1.20021 -0.27235,-1.45554 -0.65443,-2.64271 -6.05664,7.02436 -16.33982,4.06885 -24.27682,10.35692 -3.69071,2.92397 -7.51661,-1.68066 -2.69521,-5.50408 4.40705,-3.49482 15.1048,-3.26657 20.1615,-6.05743 6.25979,-3.45486 6.93379,-8.11161 12.16159,-9.63172 -4.17514,-1.2624 -8.91639,-0.21677 -10.21284,-0.12908 9.53931,-4.05702 0.65476,-15.63663 6.59528,-24.69467 -2.92883,0.42767 -8.14914,2.47382 -8.82475,3.27611 8.94027,-4.7169 2.54454,-10.78339 4.65963,-19.77305 -3.15491,1.03896 -8.74458,4.43249 -8.94223,6.64187 l -1.62689,-2.4386 c -0.97187,3.01266 -3.91139,5.00069 -6.10592,6.04066 -2.31858,1.09876 -3.96847,4.35995 -3.96847,4.35995 0,0 -0.78814,-4.3093 -1.75316,-3.22075 -3.70658,4.18107 -8.58346,12.55345 -9.12704,18.88963 -0.44994,5.24454 -8.11317,3.47699 -6.02128,-3.08118 3.99726,-12.53158 21.19143,-17.73163 14.73754,-37.82008 -2.08637,0.24973 -6.06556,3.99484 -7.10393,4.77495 -1.14364,-3.65359 -1.02289,-8.7912 -3.13709,-9.79465 -4.28314,-2.03285 -8.6217,-7.75387 -8.95371,-11.46903 -7.82348,5.45856 -4.32631,13.48122 -3.9031,16.70063 0.64856,4.93359 -5.98321,6.13686 -5.31936,0.021 2.46127,-22.674821 -14.17802,-26.577959 -19.30583,-30.99558 0.70734,5.192141 2.3868,8.91238 -2.41257,16.32734 -1.77443,2.74148 -2.23184,7.42305 -1.33042,12.07888 -2.06841,-3.68347 -5.79071,-7.20766 -7.69494,-7.41089 1.23147,4.19458 1.26979,9.97038 -0.78344,14.46533 -1.90895,4.17911 -0.33898,12.53043 2.95194,16.01729 -3.8059,-0.34575 -7.65357,-3.85211 -11.26749,-4.04187 2.96658,4.73771 3.05412,8.6966 4.38798,11.44813 3.41841,7.05164 7.69105,9.18404 13.242,11.33268 6.78595,2.62668 13.83808,4.14274 18.38103,9.41173 5.49382,6.37182 -4.26013,7.97092 -7.07977,3.52737 -1.94696,-3.06827 -5.10107,-5.65255 -7.91257,-7.5237 -5.99523,-3.99004 -12.56259,-2.82308 -17.89416,-8.53171 -1.45696,2.61694 -0.0349,6.02665 0.33139,7.62894 -4.002,-4.50926 -8.688,-4.06963 -12.5301,-7.3134 1.52436,4.60279 -0.91076,9.06223 0.36005,13.24616 1.27251,4.18958 2.55771,6.25513 5.20497,8.36661 -2.45937,-0.25804 -6.70028,-4.91629 -11.12713,-3.93543 5.72648,6.44131 7.04531,20.22639 15.50774,20.25567 -1.15283,1.26787 -3.16058,3.09901 -2.95949,8.11539 6.61036,-6.54358 12.47848,-1.57905 18.42767,-2.76644 5.89491,-1.17656 7.47621,-3.59641 13.06604,-4.54066 7.6539,-1.29291 8.88258,9.41565 0.46892,7.82092 -11.98972,-2.27253 -18.93365,3.10293 -26.50593,1.99369 0,0 1.33453,2.485 3.01366,3.09546 2.55137,0.92758 -4.36789,0.36769 -7.24213,7.20575 8.13743,-1.84996 12.33486,3.88984 17.30835,6.17875 2.72637,1.25474 6.5076,0.8734 6.5076,0.8734 -1.49244,1.94683 -0.78181,3.34289 -0.76409,4.91218 3.18551,-1.95838 7.3009,-1.90874 11.90657,-1.93842 12.72962,-0.082 19.48896,-10.33143 20.98619,-15.33336 8.49488,23.26898 48.65193,42.16018 65.39058,63.25246 8.56383,10.79124 11.8063,26.53074 4.99796,44.03441 -3.22006,8.27849 -10.08069,19.91931 -13.76256,25.82838 -0.31573,0.50672 -1.60937,1.28267 -1.84234,0.29032 -0.32453,-1.38235 -3.67191,0.15884 -2.73023,-1.25347 8.40903,-12.61164 12.92546,-23.73049 13.874,-33.94361 1.23991,-13.35036 -2.84075,-24.0262 -6.64701,-28.91965 -9.07829,-11.67134 -19.75633,-17.10915 -29.93198,-18.02114 -16.38405,-1.46842 -31.96459,6.11757 -33.51932,21.74131 -1.87962,18.88853 14.35679,25.21358 24.47411,22.7645 8.77106,-2.12319 9.88165,-10.38132 8.15022,-16.53345 -2.07956,-7.3891 -15.82728,-16.90413 -26.96364,-6.58919 3.4803,-11.88908 11.29422,-14.30884 23.99698,-14.39709 14.79507,-0.10278 33.45251,13.56547 33.71676,34.03997 0.17696,13.71119 -3.86243,22.209 -14.08672,37.84024 -2.90326,-2.41859 -6.50526,-3.11679 -10.3215,-3.14065 -28.14014,-0.17597 -33.49089,44.57321 -53.59887,66.59927 22.46221,-0.0563 66.22553,-4.10547 109.2819,-2.74377 19.0296,0.60182 23.42783,28.83446 28.86635,35.33025 5.43853,6.49579 29.65259,-0.10918 26.48863,-5.37956 l -17.8446,-29.72473 c 41.72972,1.26153 71.74688,7.82207 76.27027,8.56325 17.16684,2.81284 63.96883,-74.48097 55.35759,-73.15544 -13.61272,2.09542 -31.51344,10.28247 -62.00337,10.62758 7.82686,-11.68657 17.45889,-27.30954 20.92671,-33.32076 3.21045,-5.56508 -26.96753,-4.47258 -29.66706,-0.20242 -6.8687,10.86501 -11.06407,19.14331 -17.52109,32.25116 l -9.22578,0.1413 c 6.45443,-29.29863 22.98963,-58.12718 40.1355,-68.60472 7.30884,-4.46631 10.31986,-4.90454 16.17589,-3.59541 -5.6446,1.35638 -9.34507,6.72305 -10.35179,9.07275 -2.38285,5.5616 -1.94424,14.45206 2.3951,18.36094 8.19935,7.38599 26.23929,2.1203 23.09934,-18.46409 -1.4231,-9.32932 -4.17224,-14.52907 -16.82599,-15.95829 -4.27786,-0.48317 -11.07617,2.42315 -15.5229,4.43963 -12.56041,5.69584 -25.32981,20.89187 -35.6829,42.9235 -3.53356,7.5195 -5.83982,19.70374 -8.48655,29.14603 -0.56832,2.02752 -2.44574,3.39847 -2.5938,1.13397 -1.27077,-19.43615 16.14067,-61.4304 36.31004,-77.57551 17.7592,-14.21582 26.50779,-25.3368 32.501,-32.88352 7.33127,-9.23161 11.97555,-19.99 13.80735,-18.61867 5.7888,4.33363 0.76306,6.76045 6.5785,14.22216 4.46767,5.7324 10.16452,5.10539 12.80961,12.42337 1.12248,-2.06952 1.40968,-5.39146 0.35769,-6.94434 9.88242,1.95597 13.88355,-2.85988 17.94737,-1.6587 -0.73588,-1.54127 -2.46489,-4.33075 -4.81741,-6.77393 5.55089,1.26376 11.01162,-4.46583 14.37404,-5.55536 -2.43082,-1.7574 -5.94753,-3.51408 -8.82883,-3.86527 1.1856,-1.47749 5.3253,-3.99174 5.3253,-3.99174 -8.81916,-0.95667 -8.77072,-4.29039 -13.50905,-5.62183 -4.60469,-1.29389 -8.69912,-0.80436 -11.64934,-1.60236 -3.59094,-0.97131 -1.40114,-6.63681 2.85653,-5.00054 12.1261,4.6602 26.21636,9.41233 30.98374,3.96062 -1.37874,-0.5012 -3.29558,-2.81575 -3.23916,-3.88482 12.48036,1.1867 19.05998,-8.65159 21.58761,-11.98605 -2.72338,-2.21163 -8.82906,-2.38449 -11.65352,-2.66054 7.13546,-6.30591 5.82695,-13.20805 10.58206,-18.49752 -1.82644,-1.23863 -9.01005,0.19536 -12.56022,1.83012 1.75345,-1.92749 5.81135,-8.36601 5.08245,-10.16753 -8.54504,5.9124 -17.60794,3.01851 -29.4027,9.98499 -4.45956,2.63399 -7.95715,-2.92661 -0.88007,-6.39113 7.98218,-3.90759 13.89112,1.47165 21.23077,-5.24675 6.50532,-5.9547 10.05366,-21.40001 13.49302,-26.75333 -2.59078,-0.21726 -7.32183,0.3676 -10.07876,1.68391 4.99456,-11.54247 2.36071,-18.01803 0.83164,-22.92238 -4.7788,1.50536 -6.10257,3.90719 -9.62558,5.46371 7.25689,-16.43604 -1.53756,-24.911859 -3.16778,-32.555289 -5.61152,9.523779 -13.49973,12.474767 -16.6464,25.250899 -0.63004,-3.86018 -0.52463,-9.18451 -2.25696,-11.789845 -4.97716,8.008555 -13.99976,10.164595 -16.14776,24.462435 -5.44945,-2.09322 0.83947,-14.24484 -4.52472,-16.93251 -0.637,6.5876 -7.2729,12.11382 -7.28804,22.72265 -0.0113,7.89782 7.63994,17.03208 8.71666,32.49787 0.50792,7.29605 -6.99305,7.35161 -7.47989,3.12719 -0.7405,-6.42546 0.44419,-14.06803 -1.43954,-18.11857 -4.72525,-10.1606 -7.13664,-13.35064 -7.2059,-18.70404 -3.1257,0.89847 -4.17436,5.10412 -4.81585,6.87636 0.12802,-9.999 -10.09354,-10.78763 -12.34768,-15.85272 -1.21854,4.05383 -4.24982,6.27082 -4.30711,8.89128 -0.0391,1.78681 0.33729,3.43878 0.66781,5.00655 -1.93285,-0.0862 -2.88441,-0.35013 -4.94159,-1.80768 4.1779,6.34927 5.17485,17.52929 4.77951,26.41004 -1.22805,-2.08847 -4.47831,-4.76434 -7.22466,-4.16277 5.69177,5.10949 0.79612,13.14403 8.27203,20.12441 5.69642,5.31883 11.41611,9.19045 13.29603,11.57714 2.30168,2.92214 -0.51537,6.89498 -3.05586,3.15103 -5.38949,-7.94254 -15.16112,-8.30915 -16.34886,-11.43999 -1.44686,1.81071 3.08196,6.78081 1.63171,9.09394 -2.39138,-3.67473 -11.78811,-5.18203 -15.94469,-3.83522 6.80607,2.87256 2.44632,12.94637 7.63939,19.0632 -2.47836,-0.0372 -6.43172,1.26857 -7.41651,4.32606 13.35782,1.23891 17.71183,19.75704 40.92551,10.65255 -4.82572,14.74824 -20.8193,28.88306 -34.97579,40.84749 -16.95877,14.33282 -35.38254,28.73422 -48.68607,92.28804 0,0 -8.97926,-0.76647 -12.99096,-0.89892 -4.45957,-0.14724 -13.38408,0.22709 -13.38408,0.22709 21.42249,-36.61057 22.21486,-53.76009 18.61023,-75.98168 -1.23404,-7.60755 -5.38775,-17.6822 -9.11599,-27.51945 -6.89045,-18.18103 -13.76361,-38.18388 -8.19591,-58.87456 0,0 4.73348,7.10259 7.20388,9.80966 5.39584,5.91277 9.33573,10.23796 20.57761,10.40895 10.36774,0.1577 20.11416,-6.60917 20.11416,-6.60917 l -4.3663,-2.25742 c 5.80387,-0.84917 8.77301,-3.4145 13.39176,-16.89703 -2.59006,0.0819 -6.86739,0.91209 -6.86739,0.91209 z"
     id="path3599-7"
     style="fill:#ffbf00;fill-opacity:1;stroke:#000000;stroke-width:1;stroke-linecap:round;stroke-linejoin:round;stroke-miterlimit:4;stroke-dasharray:none;stroke-opacity:1" />
  <path
     d="m 271.20319,315.4264 c 8.00888,2.90042 24.06926,1.07267 30.20596,-0.28347"
     id="path2852"
     style="fill:none;stroke:#000000;stroke-width:1;stroke-linecap:butt;stroke-linejoin:miter;stroke-miterlimit:4;stroke-dasharray:none;stroke-opacity:1" />
  <path
     d="m 84.17084,290.15106 c 5.90636,-7.18624 18.1162,-3.61355 20.02825,5.36789 2.40854,11.31362 -18.63041,8.51762 -20.02825,-5.36789 z"
     id="path2828"
     style="fill:#0064b4;fill-opacity:1;stroke:#000000;stroke-width:1.18934023;stroke-linecap:butt;stroke-linejoin:miter;stroke-miterlimit:4;stroke-dasharray:none;stroke-opacity:1" />
  <path
     d="m 198.64571,315.55255 c -5.94136,3.68092 -19.00208,3.55678 -25.33603,-0.0491"
     id="path2854"
     style="fill:none;stroke:#000000;stroke-width:1;stroke-linecap:butt;stroke-linejoin:miter;stroke-miterlimit:4;stroke-dasharray:none;stroke-opacity:1" />
  <path
     d="m 200.88679,437.68986 c -3.65792,-11.83119 27.37981,-5.68794 27.47944,-3.44864"
     id="path3628"
     style="fill:none;stroke:#000000;stroke-width:1;stroke-linecap:butt;stroke-linejoin:miter;stroke-miterlimit:4;stroke-dasharray:none;stroke-opacity:1" />
  <path
     d="m 342.41615,339.27459 c -22.40133,23.39552 -73.84657,44.22111 -60.3566,71.8522"
     id="path3626"
     style="fill:none;stroke:#000000;stroke-width:1;stroke-linecap:butt;stroke-linejoin:miter;stroke-miterlimit:4;stroke-dasharray:none;stroke-opacity:1" />
  <path
     d="m 305.9973,277.77332 c 6.40206,2.45853 6.67162,22.34958 -5.20258,23.59039 -4.00765,0.41878 -6.96831,-2.64247 -6.74599,-9.31949 0.191,-5.7362 3.80117,-11.1761 11.94857,-14.2709 z"
     id="path2828-1"
     style="fill:#0064b4;fill-opacity:1;stroke:#000000;stroke-width:1;stroke-linecap:butt;stroke-linejoin:miter;stroke-miterlimit:4;stroke-dasharray:none;stroke-opacity:1" />
  <path
     d="m 396.64,1.45 -393.73,0 0,301.05 0,0 c 0,0.03 0,0.06 0,0.09 0,108.73 88.14,196.86 196.86,196.86 108.72,0 196.87,-88.14 196.87,-196.86 0,-0.03 0,-0.06 0,-0.09 l 0,0 0,-301.05 z"
     id="path4300"
     style="fill:none;stroke:#000000" />
  <path
     style="fill:none;fill-rule:evenodd;stroke:#000000;stroke-width:1;stroke-linecap:round;stroke-linejoin:miter;stroke-miterlimit:4;stroke-dasharray:none;stroke-opacity:1"
     d="m 201.91429,177.9785 c 10.96787,0.37452 17.32303,11.20453 35.64421,6.70129"
     id="path5072" />
  <path
     style="fill:none;fill-rule:evenodd;stroke:#000000;stroke-width:1;stroke-linecap:round;stroke-linejoin:miter;stroke-miterlimit:4;stroke-dasharray:none;stroke-opacity:1"
     d="m 201.61999,173.96129 c 6.87723,-20.69119 25.318,-23.49224 33.52761,-34.069"
     id="path5074" />
  <path
     style="fill:none;fill-rule:evenodd;stroke:#000000;stroke-width:1;stroke-linecap:round;stroke-linejoin:miter;stroke-miterlimit:4;stroke-dasharray:none;stroke-opacity:1"
     d="m 187.84347,100.53539 c -2.60802,10.46877 8.54694,15.78572 8.71848,23.48043"
     id="path5076" />
  <path
     style="fill:none;fill-rule:evenodd;stroke:#000000;stroke-width:1;stroke-linecap:round;stroke-linejoin:miter;stroke-miterlimit:4;stroke-dasharray:none;stroke-opacity:1"
     d="m 204.19061,126.09637 c 2.50567,-12.59662 12.66299,-15.82466 13.96938,-28.533189"
     id="path5078" />
  <path
     style="fill:none;fill-rule:evenodd;stroke:#000000;stroke-width:1;stroke-linecap:round;stroke-linejoin:miter;stroke-miterlimit:4;stroke-dasharray:none;stroke-opacity:1"
     d="m 199.83138,79.72994 c -5.03718,23.85154 2.19087,42.75387 1.18888,63.7043 -0.90114,18.84194 -2.81074,24.07855 -4.26016,35.66648"
     id="path5080" />
  <path
     style="fill:none;fill-rule:evenodd;stroke:#000000;stroke-width:1;stroke-linecap:round;stroke-linejoin:miter;stroke-miterlimit:4;stroke-dasharray:none;stroke-opacity:1"
     d="m 161.29176,140.26389 c 5.04011,14.78273 27.42732,12.88575 32.39706,31.70354"
     id="path5082" />
  <path
     style="fill:none;fill-rule:evenodd;stroke:#000000;stroke-width:1;stroke-linecap:round;stroke-linejoin:miter;stroke-miterlimit:4;stroke-dasharray:none;stroke-opacity:1"
     d="m 191.31105,176.02944 c -13.35548,-0.49038 -12.2132,11.0534 -32.19891,8.52033"
     id="path5084" />
  <path
     style="fill:none;fill-rule:evenodd;stroke:#000000;stroke-width:1px;stroke-linecap:round;stroke-linejoin:round;stroke-opacity:1"
     d="M 83.91531,206.5441 C 68.82642,180.59778 77.30289,167.54453 65.28948,143.83054"
     id="path5086" />
  <path
     style="fill:none;fill-rule:evenodd;stroke:#000000;stroke-width:1px;stroke-linecap:round;stroke-linejoin:round;stroke-opacity:1"
     d="m 103.63095,160.47489 c -3.34259,13.7636 -18.69446,13.6057 -20.11193,37.44981"
     id="path5088" />
  <path
     style="fill:none;fill-rule:evenodd;stroke:#000000;stroke-width:1px;stroke-linecap:round;stroke-linejoin:round;stroke-opacity:1"
     d="m 108.88185,197.9247 c -3.76978,2.83273 -10.79152,8.85065 -22.4897,3.26943"
     id="path5090" />
  <path
     style="fill:none;fill-rule:evenodd;stroke:#000000;stroke-width:1px;stroke-linecap:round;stroke-linejoin:round;stroke-opacity:1"
     d="m 75.59313,197.82563 c -9.70231,-16.52467 -22.26198,-1.68254 -32.5952,-15.3564"
     id="path5092" />
  <path
     style="fill:none;fill-rule:evenodd;stroke:#000000;stroke-width:1px;stroke-linecap:round;stroke-linejoin:round;stroke-opacity:1"
     d="m 57.26452,215.85702 c 12.85258,-1.6822 11.05206,-10.88976 21.69711,-10.89809"
     id="path5094" />
  <path
     style="fill:none;fill-rule:evenodd;stroke:#000000;stroke-width:1px;stroke-linecap:round;stroke-linejoin:miter;stroke-opacity:1"
     d="m 318.81873,211.49778 c 8.04295,-15.5466 24.42119,-17.22976 32.69428,-22.78692"
     id="path5096" />
  <path
     style="fill:none;fill-rule:evenodd;stroke:#000000;stroke-width:1px;stroke-linecap:round;stroke-linejoin:miter;stroke-opacity:1"
     d="m 318.81873,211.49778 c 0.73848,-8.66845 2.22232,-19.02584 -3.96294,-26.87589 -4.80309,-6.09586 -7.17485,-11.47012 -6.85308,-18.28757"
     id="path5098" />
  <path
     style="fill:none;fill-rule:evenodd;stroke:#000000;stroke-width:1px;stroke-linecap:round;stroke-linejoin:miter;stroke-opacity:1"
     d="m 318.81873,211.49778 c 4.55895,-10.30275 16.85447,-44.76225 26.12142,-70.44422 3.10836,-8.61433 12.12098,-26.05343 12.12098,-26.05343"
     id="path5100" />
  <path
     style="fill:none;fill-rule:evenodd;stroke:#000000;stroke-width:1px;stroke-linecap:round;stroke-linejoin:miter;stroke-opacity:1"
     d="m 358.34908,142.34443 c -2.70801,10.86969 -12.64839,9.67598 -22.58877,23.67858"
     id="path5102" />
  <path
     style="fill:none;fill-rule:evenodd;stroke:#000000;stroke-width:1px;stroke-linecap:round;stroke-linejoin:miter;stroke-opacity:1"
     d="m 330.70756,139.57037 c -0.25012,13.07642 4.46498,12.97516 5.05275,26.45264"
     id="path5104" />
  <path
     style="fill:none;fill-rule:evenodd;stroke:#000000;stroke-width:1px;stroke-linecap:butt;stroke-linejoin:miter;stroke-opacity:1"
     d="m 83.69974,285.05967 c -0.17205,1.72269 0.0275,4.23025 0.44633,5.68583"
     id="path5106" />
  <path
     style="fill:none;fill-rule:evenodd;stroke:#000000;stroke-width:1px;stroke-linecap:butt;stroke-linejoin:miter;stroke-opacity:1"
     d="m 305.9973,277.77332 c -1.94149,-0.75716 -2.82251,-1.17937 -5.34997,-1.58518"
     id="path5108" />
</svg>
