<svg xmlns:dc="http://purl.org/dc/elements/1.1/" xmlns:cc="http://creativecommons.org/ns#" xmlns:rdf="http://www.w3.org/1999/02/22-rdf-syntax-ns#" xmlns:svg="http://www.w3.org/2000/svg" xmlns="http://www.w3.org/2000/svg" xml:space="preserve" enable-background="new 30.5 31.5 412 533" viewBox="30.5 31.5 400 500" height="500" width="400" y="0px" x="0px" version="1.1"><metadata><rdf:RDF><cc:Work rdf:about=""><dc:format>image/svg+xml</dc:format><dc:type rdf:resource="http://purl.org/dc/dcmitype/StillImage"/><dc:title/></cc:Work></rdf:RDF></metadata><defs/><path d="M 230.44 531.14 C 156.12 477.22 105.18 409.12 74.7 322.98 47.06 244.88 35.97 150.23 40.79 33.63 l 0.02 -0.46 379.82 0 0.02 0.46 C 425.46 150.23 414.37 244.87 386.74 322.98 356.26 409.12 305.32 477.22 231 531.14 l -0.28 0.2 -0.28 -0.2 z" style="fill:#ffffff"/><path d="M 419.95 33.22 C 429.02 252.67 383.7 419.17 230.5 530.32 77.31 419.17 31.98 252.67 41.05 33.22 c 0 0 105.43 0 189.45 0 84.02 0 189.45 0 189.45 0 m 0.92 -0.95 -0.92 0 -189.45 0 -189.45 0 -0.92 0 -0.04 0.92 c -4.82 116.66 6.28 211.36 33.93 289.52 30.51 86.24 81.51 154.41 155.91 208.39 l 0.56 0.41 0.56 -0.41 c 74.4 -53.98 125.4 -122.15 155.91 -208.39 27.65 -78.16 38.75 -172.86 33.93 -289.52 l -0.04 -0.92 0 0 z"/><path style="fill:#000000;stroke:none" d="m 201.57 321.63 c -0.6 7.25 6.9 15 4 27.7 -2.5 11.2 -12.1 16.2 -29.2 16.7 l 0.2 -6.3 -5.5 -0.1 c -0.7 -13.9 10.31 -17.41 9.65 -27.11 -0.24 -3.6 -0.71 -6.89 -2.75 -8.59 l -5.3 6.4 c 0 0 -23.37 -19.4 -23.4 -19.2 -1.7 -1.8 -3.4 -3.6 -4.6 -7 l -4.9 4.5 c -9.6 -10.3 -18.87 -18.91 -17.87 -32.31 -7.54 3.63 -3.5 10.63 -18.2 11.08 -13.99 0.44 -22.51 -16.01 -22.68 -25.71 -0.13 -7.3 4.89 -18.1 4.39 -26.1 -0.7 -9.4 -1.55 -10.6 -5.75 -22.17 -0.2 -10.1 3.9 -10.57 6 -15.47 L 99.76 139.17 C 138.79 110.98 154.88 89.15 161.57 89.38 c 0.36 0.2 91.88 21.98 102.02 23.95 6.63 1.29 19.9 33.62 26.15 35.32 3.01 1.14 43.73 13.88 49.53 23.18 5.6 8.8 37.4 50.6 35.2 58.4 l -19.3 71.5 c -1.3 4.6 2.5 10 5.1 16.7 -3.1 4.6 -17 6 -17 6 0 0 -0.6 4.9 0 11.3 2 19.2 -17.2 22.9 -30.2 23.7 l -0.2 -5.8 -5.4 0 c 0.1 -13.3 4.9 -15 9.4 -21.1 2.48 -3.37 3.69 -8.28 3.58 -8.19 0 0 -9.86 5.43 -9.73 5.39 l -8.14 -4.1 c -0.76 8.18 0.1 11.8 0.3 18.3 0.1 3.7 -7.3 18.8 -32.5 17.8 l -0.1 -5.7 -5.2 0 c -1.9 -17.3 17.4 -22.6 18.5 -31.5 1.02 -2.23 -5.91 2.9 -13.5 5.3 l -2.8 -7.1 -8.2 7.6 c 0 0 -8.5 -4.98 -10.98 -4.42 -1.29 1.3 0.18 10.62 -0.12 22.02 -0.2 11 -12.6 15.7 -30.8 16.8 l 0.1 -5.6 -5.4 0 c 0.1 -13.3 7.3 -15.4 9.8 -23.4 1.2 -3.9 1.35 -12.93 0.03 -13.76 -2.63 -1.67 -12.03 3.96 -12.03 3.96 0 0 -6.78 -3.52 -8.1 -4.3 z"/><path style="fill:#ffffff;fill-opacity:1;stroke:none" d="m 108.47 263.68 c 0.37 4.07 -3.09 7.09 -5.06 6.84 -2.9 -0.36 -0.51 -4.55 0.41 -8.28 0.8 -3.22 4.34 -1.96 4.65 1.44 z"/><path style="fill:#ffe000;fill-opacity:1;stroke:#000000;stroke-width:1;stroke-linecap:butt;stroke-linejoin:miter;stroke-miterlimit:4;stroke-dasharray:none;stroke-opacity:1" d="m 170.34 213.73 c 1.75 0.03 3.59 9.69 1.69 15.49 -2.4 7.3 -8.48 12.6 -16.58 12.9 -26.2 -1.52 -8.96 -56.2 -37.38 -56.59 -20.5 -0.29 -22.33 6.28 -34.92 16.28 -7.28 -4.89 -9.13 -17.91 -4.94 -28.22 4.27 -10.51 8.51 -18.4 11.27 -23.84 7.01 -13.83 16.18 -18.21 19.61 -17.24 32.28 9.13 36.82 49.36 42.52 87.36 1.3 8.4 8.16 11.4 11.79 5.91 5.26 -7.95 4.84 -12.09 6.94 -12.06 z"/><path style="fill:#ffffff;fill-opacity:1;stroke:none" d="m 115.42 210.12 c -2.97 -2.4 3.97 -3.38 6.52 -3.29 2.04 0.07 1.35 3.61 -2.09 4.38 -1.78 0.34 -3.23 0.04 -4.44 -1.08 z"/></svg>