<svg xmlns:dc="http://purl.org/dc/elements/1.1/" xmlns:cc="http://creativecommons.org/ns#" xmlns:rdf="http://www.w3.org/1999/02/22-rdf-syntax-ns#" xmlns:svg="http://www.w3.org/2000/svg" xmlns="http://www.w3.org/2000/svg" id="svg2" version="1.1" x="0" y="0" width="400" height="500" viewBox="30.5 31.5 400 500" enable-background="new 30.5 31.5 412 533" xml:space="preserve">
  <metadata id="metadata4">
    <rdf:RDF>
      <cc:Work rdf:about="">
        <dc:format>
          
          
          
          
          image/svg+xml
        
        
        
        
        </dc:format>
        <dc:type rdf:resource="http://purl.org/dc/dcmitype/StillImage"/>
      </cc:Work>
    </rdf:RDF>
  </metadata>
  <defs id="defs6"/>
  <path d="M230.45 531.13C156.13 477.21 105.19 409.11 74.71 322.97 47.07 244.87 35.98 150.22 40.8 33.62l0.02-0.46 379.82 0 0.02 0.46c4.81 116.6-6.28 211.24-33.91 289.35-30.48 86.14-81.42 154.24-155.74 208.16l-0.28 0.2-0.28-0.2z" id="path4148" fill="#e00e00"/>
  <path id="path10" d="M419.96 33.21C429.03 252.66 383.71 419.16 230.51 530.31 146.04 469.02 94.36 390.9 66.52 296.34 64.43 289.25 62.48 282.07 60.65 274.8 49.2 229.11 42.88 179.78 40.77 126.86 39.57 96.8 39.72 65.58 41.06 33.21l189.45 0 189.45 0m0.92-0.95-0.92 0-189.45 0-189.45 0-0.92 0-0.04 0.92c-4.82 116.66 6.28 211.36 33.93 289.52 30.51 86.24 81.51 154.41 155.91 208.39l0.56 0.41 0.56-0.41C305.46 477.11 356.46 408.94 386.97 322.7 414.62 244.54 425.72 149.84 420.9 33.18l-0.04-0.92 0 0z"/>
  <path id="path4337" d="m124.59 178.77c-20.54 0-50.64-13.99-63.99-38.52-7.07-12.99-9.12-29.72-8.12-43.97l14.48 0c0.23 18.9 1.89 35.3 21.1 45.28 16.64 8.65 19.19 11.22 50.47 11.22 61.31 0 122.62 0 183.93 0 31.28 0 33.82-2.57 50.47-11.22 19.22-9.99 20.87-26.39 21.1-45.28l14.48 0c1.01 14.25-1.04 30.98-8.12 43.97-13.34 24.51-43.45 38.52-63.99 38.52-70.61 0-141.22 0-211.83 0z" style="fill:#ffe000;stroke-miterlimit:4;stroke:#000"/>
  <path id="path4345" d="m135.84 278.38c-18.35 0-45.26-12.51-57.19-34.42-6.31-11.61-8.15-26.56-7.25-39.3l12.94 0c0.2 16.89 1.69 31.55 18.86 40.47 14.88 7.73 17.15 10.03 45.1 10.03 54.8 0 109.58 0 164.38 0 27.96 0 30.23-2.3 45.1-10.03 17.17-8.93 18.65-23.58 18.86-40.47l12.94 0c0.9 12.74-0.93 27.69-7.25 39.3-11.92 21.91-38.83 34.42-57.19 34.42-63.1 0-126.21 0-189.31 0z" style="fill:#ffe000;stroke-miterlimit:4;stroke:#000"/>
  <path id="path4347" d="m155.99 366.54c-14.45 0-35.63-9.85-45.01-27.1-4.97-9.13-6.41-20.9-5.71-30.94l10.18 0c0.16 13.3 1.33 24.84 14.84 31.86 11.71 6.09 13.5 7.89 35.51 7.89 43.13 0 86.26 0 129.39 0 22.01 0 23.8-1.8 35.51-7.89 13.52-7.03 14.68-18.57 14.84-31.86l10.18 0c0.71 10.03-0.74 21.8-5.71 30.94-9.38 17.25-30.56 27.1-45.01 27.1-49.67 0-99.34 0-149.02 0z" style="fill:#ffe000;stroke-miterlimit:4;stroke:#000"/>
</svg>
