<?xml version="1.0" encoding="UTF-8" standalone="no"?>
<svg
   xmlns:dc="http://purl.org/dc/elements/1.1/"
   xmlns:cc="http://creativecommons.org/ns#"
   xmlns:rdf="http://www.w3.org/1999/02/22-rdf-syntax-ns#"
   xmlns:svg="http://www.w3.org/2000/svg"
   xmlns="http://www.w3.org/2000/svg"
   id="svg2"
   version="1.1"
   x="0"
   y="0"
   width="400"
   height="500"
   viewBox="30.5 31.5 400 500"
   enable-background="new 30.5 31.5 412 533"
   xml:space="preserve"><metadata
     id="metadata4"><rdf:RDF><cc:Work
         rdf:about=""><dc:format>
          
          
          
          
          image/svg+xml
        
        
        
        
        </dc:format><dc:type
           rdf:resource="http://purl.org/dc/dcmitype/StillImage" /><dc:title></dc:title></cc:Work></rdf:RDF></metadata><defs
     id="defs6" /><path
     style="fill:#e00e00"
     d="M 230.45,531.13 C 156.13,477.21 105.19,409.11 74.71,322.97 47.07,244.87 35.98,150.22 40.8,33.62 l 0.02,-0.46 379.82,0 0.02,0.46 c 4.81,116.6 -6.28,211.24 -33.91,289.35 -30.48,86.14 -81.42,154.24 -155.74,208.16 l -0.28,0.2 z"
     id="path4148" /><path
     id="path10"
     d="M 419.96,33.21 C 429.03,252.66 383.71,419.16 230.51,530.31 146.04,469.02 94.36,390.9 66.52,296.34 64.43,289.25 62.48,282.07 60.65,274.8 49.2,229.11 42.88,179.78 40.77,126.86 39.57,96.8 39.72,65.58 41.06,33.21 l 189.45,0 189.45,0 m 0.92,-0.95 -0.92,0 -189.45,0 -189.45,0 -0.92,0 -0.04,0.92 c -4.82,116.66 6.28,211.36 33.93,289.52 30.51,86.24 81.51,154.41 155.91,208.39 l 0.56,0.41 0.56,-0.41 C 305.46,477.11 356.46,408.94 386.97,322.7 414.62,244.54 425.72,149.84 420.9,33.18 l -0.04,-0.92 0,0 z" /><path
     id="path4339"
     d="m 209.06219,307.31101 6.80201,-6.45509"
     style="fill:none;fill-rule:evenodd;stroke:#000000;stroke-width:1px;stroke-linecap:round;stroke-linejoin:miter;stroke-opacity:1" /><path
     style="fill:none;fill-rule:evenodd;stroke:#000000;stroke-width:1px;stroke-linecap:round;stroke-linejoin:miter;stroke-opacity:1"
     d="m 251.93607,307.31101 -6.80201,-6.45509"
     id="path4343" /><path
     id="path4375"
     d="m 219.09949,215.11479 c 3.30815,7.05799 6.40051,15.42491 6.40051,30.02316 l 0,37.46478 c -4.11463,-6.33189 -8.80441,-11.57906 -16.43781,-18.1656 -19.54514,-16.12415 -27.84534,-17.14844 -37.67167,-17.32375 -11.59687,-0.2069 -20.26451,7.26908 -20.43562,15.3741 -0.25603,12.12742 7.98671,11.40734 7.98671,23.38659 0,11.97925 -8.24274,11.25917 -7.98671,23.38659 0.17111,8.10502 8.83875,15.581 20.43562,15.3741 9.82633,-0.17531 18.12653,-1.1996 37.67167,-17.32375 -16.12415,19.54514 -17.14844,27.84534 -17.32375,37.67167 -0.2069,11.59687 7.26908,20.26451 15.3741,20.43562 12.12742,0.25603 11.40734,-7.98671 23.38659,-7.98671 11.97925,0 11.25917,8.24274 23.38659,7.98671 8.10502,-0.17111 15.581,-8.83875 15.3741,-20.43562 -0.17531,-9.82633 -1.1996,-18.12653 -17.32375,-37.67167 19.54514,16.12415 27.84534,17.14844 37.67167,17.32375 11.59687,0.2069 20.26451,-7.26908 20.43562,-15.3741 0.25603,-12.12742 -7.98671,-11.40734 -7.98671,-23.38659 0,-11.97925 8.24274,-11.25917 7.98671,-23.38659 -0.17111,-8.10502 -8.83875,-15.581 -20.43562,-15.3741 -9.82633,0.17531 -18.12653,1.1996 -37.67167,17.32375 -7.6334,6.58654 -12.32318,11.83371 -16.43781,18.1656 l 0,-37.46478 c 0,-14.59825 3.09236,-22.96517 6.40051,-30.02316 3.95533,-8.43877 20.82126,-19.25091 29.28222,-24.00338 l 32.40377,-18.80588 c -3.411,6.73707 -5.59513,13.42709 -7.46009,23.33533 -4.1347,24.9981 -0.85422,32.69101 3.9266,41.2777 5.64224,10.13388 16.45896,13.87777 23.5548,9.95735 10.6174,-5.86606 5.85707,-12.63367 16.21781,-18.64679 10.36073,-6.01313 13.87548,1.47739 24.23584,-4.83155 6.92406,-4.2164 9.03914,-15.46561 3.03901,-25.39177 -5.08407,-8.41069 -10.13635,-15.0753 -33.89287,-23.88599 24.99809,4.13471 32.69101,0.85422 41.2777,-3.9266 10.13387,-5.64223 13.87777,-16.45896 9.95735,-23.5548 -5.86606,-10.6174 -12.63367,-5.85707 -18.6468,-16.2178 -6.01312,-10.36073 1.47739,-13.87548 -4.83155,-24.23585 -4.2164,-6.92405 -15.46561,-9.039133 -25.39176,-3.039 -8.4107,5.08406 -15.0753,10.13635 -23.88599,33.89287 4.1347,-24.9981 0.85422,-32.69101 -3.9266,-41.277703 -5.64224,-10.133882 -16.45896,-13.87778 -23.5548,-9.957362 -10.6174,5.866072 -5.85707,12.633685 -16.21781,18.646805 -10.36073,6.01313 -13.87548,-1.47739 -24.23584,4.83155 -6.92406,4.2164 -9.03914,15.46561 -3.03901,25.39177 5.08407,8.41069 10.13635,15.0753 33.89288,23.88599 9.5283,3.29586 16.42062,4.71812 23.96239,5.09846 l -32.40291,18.80588 C 260.53563,185.3459 239.59148,200 230.5,200 c -9.09148,0 -30.03563,-14.6541 -35.66311,-17.53598 l -32.40291,-18.80588 c 7.54177,-0.38034 14.43409,-1.8026 23.96239,-5.09846 23.75653,-8.81069 28.80881,-15.4753 33.89288,-23.88599 6.00013,-9.92616 3.88505,-21.17537 -3.03901,-25.39177 -10.36036,-6.30894 -13.87511,1.18158 -24.23584,-4.83155 -10.36074,-6.01313 -5.60041,-12.780736 -16.21781,-18.646808 -7.09584,-3.920418 -17.91256,-0.17652 -23.5548,9.957358 -4.78082,8.5867 -8.0613,16.27961 -3.9266,41.27771 -8.81069,-23.75652 -15.47529,-28.80881 -23.88599,-33.89287 -9.92615,-6.00014 -21.17536,-3.88506 -25.39176,3.039 -6.30894,10.36037 1.18157,13.87512 -4.83155,24.23585 -6.01313,10.36073 -12.78074,5.6004 -18.6468,16.2178 -3.92042,7.09584 -0.17652,17.91257 9.95735,23.5548 8.58669,4.78082 16.27961,8.06131 41.2777,3.9266 -23.75652,8.81069 -28.8088,15.4753 -33.89287,23.88599 -6.00013,9.92616 -3.88505,21.17537 3.03901,25.39177 10.36036,6.30894 13.87511,-1.18158 24.23584,4.83155 10.36074,6.01312 5.60041,12.78073 16.21781,18.64679 7.09584,3.92042 17.91256,0.17653 23.5548,-9.95735 4.78082,-8.58669 8.0613,-16.2796 3.9266,-41.2777 -1.86496,-9.90824 -4.04909,-16.59826 -7.46009,-23.33533 l 32.4029,18.80588 c 8.46009,4.75247 25.32602,15.56461 29.28135,24.00338 z"
     style="fill:#ffffff;fill-rule:evenodd;stroke:#000000;stroke-width:1px;stroke-linecap:round;stroke-linejoin:round;stroke-opacity:1" /><path
     id="path4381"
     d="m 209.06219,307.31101 2.589,-2.5524"
     style="fill:none;fill-rule:evenodd;stroke:#000000;stroke-width:1px;stroke-linecap:round;stroke-linejoin:miter;stroke-opacity:1" /><path
     style="fill:none;fill-rule:evenodd;stroke:#000000;stroke-width:1px;stroke-linecap:round;stroke-linejoin:miter;stroke-opacity:1"
     d="m 251.93607,307.31101 -2.589,-2.5524"
     id="path4385" /><path
     style="fill:none;fill-rule:evenodd;stroke:#000000;stroke-width:1px;stroke-linecap:round;stroke-linejoin:miter;stroke-opacity:1"
     d="m 127.79414,174.11981 3.5303,-0.86872"
     id="path4387" /><path
     id="path4389"
     d="m 149.31519,137.03863 0.86872,3.5303"
     style="fill:none;fill-rule:evenodd;stroke:#000000;stroke-width:1px;stroke-linecap:round;stroke-linejoin:miter;stroke-opacity:1" /><path
     style="fill:none;fill-rule:evenodd;stroke:#000000;stroke-width:1px;stroke-linecap:round;stroke-linejoin:miter;stroke-opacity:1"
     d="m 311.68481,137.03863 -0.86872,3.5303"
     id="path4391" /><path
     id="path4393"
     d="m 333.20586,174.11981 -3.5303,-0.86872"
     style="fill:none;fill-rule:evenodd;stroke:#000000;stroke-width:1px;stroke-linecap:round;stroke-linejoin:miter;stroke-opacity:1" /></svg>