<?xml version="1.0" encoding="UTF-8" standalone="no"?>
<svg
   xmlns:dc="http://purl.org/dc/elements/1.1/"
   xmlns:cc="http://creativecommons.org/ns#"
   xmlns:rdf="http://www.w3.org/1999/02/22-rdf-syntax-ns#"
   xmlns:svg="http://www.w3.org/2000/svg"
   xmlns="http://www.w3.org/2000/svg"
   id="svg2815"
   height="500"
   width="430"
   version="1.1">
  <metadata
     id="metadata11">
    <rdf:RDF>
      <cc:Work
         rdf:about="">
        <dc:format>image/svg+xml</dc:format>
        <dc:type
           rdf:resource="http://purl.org/dc/dcmitype/StillImage" />
        <dc:title></dc:title>
      </cc:Work>
    </rdf:RDF>
  </metadata>
  <defs
     id="defs2819" />
  <path
     d="m 340.37985,393.4619 c 61.90345,-66.26301 83.81131,-135.41311 84.50111,-242.06155 0.28614,-44.24033 -8.01697,-98.666672 -17.65319,-144.52826 -128.15185,0 -256.3037,0 -384.455545,0 C 13.136013,52.733678 4.8328992,107.16002 5.1190428,151.40035 5.8088381,258.04879 27.7167,327.19889 89.620151,393.4619 120.04362,426.02795 167.10004,468.35668 215,496.86203 262.89996,468.35668 309.95638,426.02795 340.37985,393.4619 Z"
     id="path4223"
     style="fill:#e00e00;fill-opacity:1;stroke:#000000;stroke-width:1.02081037;stroke-opacity:1" />
  <path
     style="fill:#ffffff;stroke:#000000;stroke-opacity:1"
     id="path2842"
     d="m 218.60556,450.25634 c 48.6145,-16.49798 44.79668,-45.88909 104.38123,-75.59349 -5.23569,-26.19703 -34.10789,-21.64549 -51.90271,-47.54268 -2.55832,-3.72318 14.69402,-2.47048 23.97883,2.54585 16.1994,8.75213 42.80397,-18.4344 44.57516,-26.91224 3.42985,-16.41761 -42.7016,-11.08897 -52.86107,-6.81165 -24.17251,10.17708 -35.59471,2.68111 -35.59471,2.68111 0,0 10.3891,-27.21039 22.50563,-25.81593 19.11059,2.19931 83.26917,-21.59323 75.42726,-32.78873 -1.76482,-2.51948 -21.59262,4.88227 -19.58015,-2.13319 7.87909,-27.46587 13.67454,-63.09451 21.40572,-84.11296 15.91893,-43.27795 51.50287,-63.68677 40.11498,-63.64796 -20.12856,0.0686 -32.72863,20.9835 -33.47319,9.38761 -1.02903,-28.381866 14.92351,-47.418167 7.57723,-44.027879 C 333.1662,70.249248 331.732,123.56748 328.97379,157.33974 314.92455,139.92614 290.87472,118.15845 289.20022,83.17764 288.48058,68.14475 292.61408,58.167674 309.95107,35.770225 313.99134,30.550707 292.9439,26.171356 287.42282,29.949909 271.04346,41.159721 259.74952,79.641646 260.40434,105.3324 246.84425,96.0449 214.67187,98.82939 206.24102,86.744935 191.20319,65.190214 185.36876,53.069865 195.73105,33.04782 c 2.81117,-5.43178 -6.4167,-10.276413 -13.92198,-5.656218 -27.86529,17.153652 -17.80805,58.340393 -11.39628,66.957292 -13.70672,0.02237 -39.30784,3.698416 -42.11223,3.004056 C 112.93998,75.144868 95.405895,47.900422 82.573905,29.933434 c -3.14858,-4.408548 -8.3884,-5.805111 -9.16054,0.890443 -1.75693,15.235059 -3.4497,50.839522 13.46258,71.316743 -22.8337,6.58037 -54.81427,11.07716 -61.83409,25.32285 13.35483,2.96242 65.18177,7.28333 85.127115,0.93877 88.5282,-24.06966 131.19364,-3.26675 163.89315,14.55081 62.41103,34.00701 52.39565,119.33572 -40.78621,118.70667 -67.19006,-0.45361 -115.19386,-66.92532 -139.400385,-92.65568 -2.36853,-2.51767 -12.82634,5.92455 -9.05759,8.51905 8.21038,5.65222 3.86958,10.32797 0.46773,11.92226 -2.65349,1.24357 -1.85769,9.28463 0.93546,10.42026 10.86295,4.41663 11.49693,21.17075 -0.37419,31.82396 -3.33785,2.9954 -2.94545,11.07883 0.46774,13.33041 6.76362,4.46172 19.033285,18.37843 -0.46774,31.63624 -2.0221,1.37476 -8.28719,-0.78653 -7.95143,7.97944 0.11157,2.91277 -0.11436,6.60089 -4.58377,9.76313 -4.58604,3.24479 -0.37223,11.34742 2.71284,8.70683 16.74219,-14.33004 32.656725,-26.29265 50.977495,-30.60572 38.76073,-9.12499 81.15765,4.37599 86.17776,22.90791 0.62577,-0.65157 -2.86932,-2.28364 -4.31951,3.52069 -27.36921,-1.71738 -123.154985,15.97725 -125.539135,21.30989 -4.3936,9.82712 -4.45304,36.67062 7.20307,33.30234 11.647685,-3.3659 12.883165,-9.81541 25.210755,-6.61829 3.50224,0.90833 7.15738,4.14977 5.75306,6.52443 -4.4134,7.46297 -23.699925,2.85522 -30.402535,2.91013 -8.19305,0.0673 -3.94901,17.14869 3.92895,14.73853 14.025685,-4.29094 26.265715,-5.84709 37.231445,-0.84487 18.58424,8.47748 42.81302,16.55416 59.13767,5.515 z" />
  <path
     style="fill:none;stroke:#000000;stroke-width:1.5;stroke-linecap:round;stroke-linejoin:miter;stroke-miterlimit:4;stroke-dasharray:none;stroke-opacity:1"
     id="path3871"
     d="m 168.57726,324.39621 c 12.51304,-0.92532 10.43792,-9.37358 20.08678,-10.44439 5.52779,-0.61345 7.23441,3.91238 20.19055,2.38889" />
  <path
     style="fill:none;stroke:#000000;stroke-width:1.5;stroke-linecap:round;stroke-linejoin:round;stroke-miterlimit:4;stroke-dasharray:none;stroke-opacity:1"
     id="path3873"
     d="m 176.1973,322.43677 c 11.68407,0.87176 11.21497,13.20199 17.63494,7.62004 7.24518,-6.29948 6.54487,-8.32909 11.50646,-13.29709" />
  <path
     style="fill:none;stroke:#000000;stroke-width:1.5;stroke-linecap:round;stroke-linejoin:miter;stroke-miterlimit:4;stroke-dasharray:none;stroke-opacity:1"
     id="path3877"
     d="m 102.99658,329.32302 c -4.143605,-1.98819 -6.524485,-3.90021 -11.356535,-1.78645 -4.08367,1.78641 -1.70088,6.32128 0.25521,9.8253 1.73233,3.10326 3.81196,0.0211 5.48685,-1.276 2.629285,-2.03606 -0.30444,-3.64441 -2.16922,-4.72125" />
  <path
     style="fill:#000000;fill-opacity:1;stroke:#000000;stroke-width:2;stroke-linecap:round;stroke-linejoin:round;stroke-miterlimit:4;stroke-dasharray:none;stroke-opacity:1"
     id="path3879"
     d="m 182.11582,321.48354 c 0.32352,-4.00299 9.68455,-3.10426 13.90955,-5.03929 -6.26365,6.1187 -0.857,10.58874 -3.34455,10.82987 -2.8055,0.27199 -2.33363,-5.15338 -10.565,-5.79058 z" />
</svg>
