<?xml version="1.0" encoding="UTF-8" standalone="no"?>
<svg
   xmlns:dc="http://purl.org/dc/elements/1.1/"
   xmlns:cc="http://creativecommons.org/ns#"
   xmlns:rdf="http://www.w3.org/1999/02/22-rdf-syntax-ns#"
   xmlns:svg="http://www.w3.org/2000/svg"
   xmlns="http://www.w3.org/2000/svg"
   id="svg2"
   version="1.1"
   x="0"
   y="0"
   width="400"
   height="500"
   viewBox="30.5 31.5 400 500"
   enable-background="new 30.5 31.5 412 533"
   xml:space="preserve"><metadata
     id="metadata4"><rdf:RDF><cc:Work
         rdf:about=""><dc:format>
          
          
          
          
          
          image/svg+xml
        
        
        
        
        
        </dc:format><dc:type
           rdf:resource="http://purl.org/dc/dcmitype/StillImage" /><dc:title></dc:title></cc:Work></rdf:RDF></metadata><defs
     id="defs6" /><path
     style="fill:#0085ca;fill-rule:evenodd"
     id="path5899"
     d="m 30.5,61.44 c 8.44,27.77 15,66.61 15,109.14 l 0,125.74 c 0,66.8 24.73,126.72 70.47,167.86 27.6,24.82 72.7,55.18 114.53,66.32 41.83,-11.14 86.93,-41.5 114.53,-66.33 45.74,-41.14 70.47,-101.05 70.47,-167.85 l 0,-125.74 c 0,-42.53 6.56,-81.37 15,-109.14 C 381.06,42.1 302.78,35.5 230.5,35.5 c -72.28,0 -150.56,6.6 -200,25.94 z" /><path
     style="fill:#ffffff;fill-rule:evenodd;stroke:#000000;stroke-miterlimit:4"
     id="path4292"
     d="m 138.23,407.8 150.37,-165.13 -5.84,-5.84 -150.37,165.13 5.84,5.84" /><path
     style="fill:#ffffff;fill-rule:evenodd;stroke:#000000;stroke-miterlimit:4"
     d="m 337.53,260.42 c 5.6,37.87 -27.66,57.99 -55.08,55.08 9.91,-9.01 12.26,-27.79 4.18,-40.66 -5.11,-8.14 -15.72,-10.41 -19.86,-15.18 -4.67,-5.39 -3.91,-13.13 -1.29,-15.76 2.45,-2.46 10.82,-3.82 16.21,0.85 4.77,4.13 6.99,15.05 14.76,20.7 12.86,9.34 30.39,4.67 41.08,-5.02"
     id="path4306" /><path
     style="fill:#ffffff;fill-rule:evenodd;stroke:#000000;stroke-miterlimit:4"
     d="M 322.77,407.8 172.4,242.67 l 5.84,-5.84 150.37,165.13 -5.84,5.84"
     id="path4345" /><path
     style="fill:#ffffff;fill-rule:evenodd;stroke:#000000;stroke-miterlimit:4"
     id="path4347"
     d="m 123.47,260.42 c -5.6,37.87 27.66,57.99 55.08,55.08 -9.91,-9.01 -12.26,-27.79 -4.18,-40.66 5.11,-8.14 15.72,-10.41 19.86,-15.18 4.67,-5.39 3.91,-13.13 1.29,-15.76 -2.45,-2.46 -10.82,-3.82 -16.21,0.85 -4.77,4.13 -6.99,15.05 -14.76,20.7 -12.86,9.34 -30.39,4.67 -41.08,-5.02" /><path
     style="fill:#ffffff;fill-rule:evenodd"
     id="path4351"
     d="M 47.69,330.46 C 44.19,305.52 45.78,278.86 45.6,251.9 L 230.5,35.5 415.4,251.9 c -0.18,26.95 1.41,53.62 -2.09,78.56 L 230.5,116.5 Z" /><path
     style="fill:none;stroke:#000000"
     d="M 413.31,330.46 230.5,116.5 47.69,330.46 M 45.6,251.9 230.5,35.5 415.4,251.9"
     id="path4355" /><path
     style="fill:none;stroke:#000000"
     d="m 30.5,61.44 c 8.44,27.77 15,66.61 15,109.14 l 0,125.74 c 0,66.8 24.73,126.72 70.47,167.86 27.6,24.82 72.7,55.18 114.53,66.32 41.83,-11.14 86.93,-41.5 114.53,-66.33 45.74,-41.14 70.47,-101.05 70.47,-167.85 l 0,-125.74 c 0,-42.53 6.56,-81.37 15,-109.14 C 381.06,42.1 302.78,35.5 230.5,35.5 c -72.28,0 -150.56,6.6 -200,25.94 z"
     id="path5943" /></svg>