<svg xmlns:dc="http://purl.org/dc/elements/1.1/" xmlns:cc="http://creativecommons.org/ns#" xmlns:rdf="http://www.w3.org/1999/02/22-rdf-syntax-ns#" xmlns:svg="http://www.w3.org/2000/svg" xmlns="http://www.w3.org/2000/svg" xml:space="preserve" enable-background="new 30.5 31.5 412 533" viewBox="30.5 31.5 400 500" height="500" width="400" y="0" x="0" version="1.1" id="svg2">
  <metadata id="metadata4">
    <rdf:RDF>
      <cc:Work rdf:about="">
        <dc:format>
          
          
          
          
          
          
          
          image/svg+xml
        
        
        
        
        
        
        
        </dc:format>
        <dc:type rdf:resource="http://purl.org/dc/dcmitype/StillImage"/>
      </cc:Work>
    </rdf:RDF>
  </metadata>
  <defs id="defs6"/>
  <path id="path4148" d="M230.45 531.13C156.13 477.21 105.19 409.11 74.71 322.97 47.07 244.87 35.98 150.22 40.8 33.62l0.02-0.46 379.82 0 0.02 0.46c4.81 116.6-6.28 211.24-33.91 289.35-30.48 86.14-81.42 154.24-155.74 208.16l-0.28 0.2-0.28-0.2z" fill="#0085ca"/>
  <path d="M419.96 33.21C429.03 252.66 383.71 419.16 230.51 530.31 146.04 469.02 94.36 390.9 66.52 296.34 64.43 289.25 62.48 282.07 60.65 274.8 49.2 229.11 42.88 179.78 40.77 126.86 39.57 96.8 39.72 65.58 41.06 33.21l189.45 0 189.45 0m0.92-0.95-0.92 0-189.45 0-189.45 0-0.92 0-0.04 0.92c-4.82 116.66 6.28 211.36 33.93 289.52 30.51 86.24 81.51 154.41 155.91 208.39l0.56 0.41 0.56-0.41C305.46 477.11 356.46 408.94 386.97 322.7 414.62 244.54 425.72 149.84 420.9 33.18l-0.04-0.92 0 0z" id="path10"/>
  <path id="path4461" d="m219.14 426.03c3.1-10.38 17.37-24.18 17.59-27.6l0.91-14.18c0.17-2.7-4.02-4.99-3.94-9.1 0.11-6.08 4.77-6.38 5.23-9.4 0.56-3.67-1.11-4.56-2.65-6.67-1.54 4.18-3.38 8.25-6.52 11.83l-5.16-10.01-2.43 6.22c3.95 5.45 0.14 11.72-1.97 13.04-3.14 3.13-5.66 6.78-7.58 10.92 2.09 6.92-0.47 14.16-3.49 18.28 0.44-4.45-0.87-8.61-2.65-12.06-0.99 8.48-3.25 17.8-6.07 23.81-4.65 0.16-8.27 0.69-9.93 8.8-2.96-2.8-4.5-8.2-1.06-12.44-2.48-1.91-5.03-6.14-7.43-5.16-3.06 1.24-4 3.64-5.61 6.67-2.33-6.81 0.16-10.63 3.49-14.71-0.96-1.13-1.29-2.15-3.19-2.88-2.74-1.06-5.31 0.06-7.96 1.37 2.05-4.93 1.62-10.33 14.41-8.19 8.39 1.4 8.01-4.15 18.43-4.63 5.63-0.26 9.05-8.09 11.22-11.91-1.95-1.86-3.76-6.77 1.97-10.01 2.42-1.37 3.08-7.13 3.19-10.01l-8.65 7.43c-19.12-14.34-45.57-16.94-64.38-36.1-10.25-10.43-18.63-36.91-18.88-55.36-0.17-12.3 0.28-19.38-4.7-27.3-3.39-5.38-8.87-8.14-13.5-7.74-8.08 0.71-14.58 2.96-22.98 5.69-2.74 0.89-5.68-1.58-5.95-3.68-2.24 0.9-3.43 2.1-4.66 3.75-2.62-5.88 1.21-10.15 5.46-12.44 7.87-4.24 11.59-4.55 18.58-8.72 4.56-2.72 7.13-5.87 11.11-9.4 3.5-3.1 6.03-7.18 12.86-9.71 29.75-11.03 40 17.32 41.71 25.25 3.53 16.4 10.45 22.19 14.86 24.49 2.51-28.42-17.91-50.15-29.12-59.99-9.68-8.49-23.14-16.47-29.04-25.48-2.23-3.4-2-6.98-2.2-10.47-10.94-5.61-18.28-14.62-23.66-25.63-3.22-6.59-5.6-13.82-7.58-20.32C71.57 98.32 64.25 81.55 63.83 62.55c4.87 3.38 10.11 8.17 14.41 13.95 0.28-5.4 0.54-9.14 3.03-15.09 4.73 4.63 8.97 9.6 12.29 15.24 1.41-4.02 3.73-7.85 6.98-11.68 2.47 2.01 5.15 4.67 7.43 8.49 1.51-3.03 3.1-6.06 6.52-8.8 2.78 3.79 5.54 8.95 6.9 13.35 1.9-3.2 4.75-6.2 9.48-8.8 1.96 4.28 3.41 8.49 4.1 12.59 2.02-3.24 5.06-5.22 8.04-7.28 1.08 4.35 1.9 8.7 1.97 13.04 2.7-1.69 5.74-2.96 9.25-3.64 0.46 5.46 0.74 10.92 0 16.38 3.19-1.82 6.37-2.87 9.56-3.49 0.32 5.92 0.32 12.36-1.97 18.28 2.33-1.67 5.36-2.83 9.1-3.49l-2.58 16.46 7.74-1.37-1.52 11.22c2.31-1.07 5.09-1.68 8.42-1.74-0.09 3.2-0.64 6.23-1.74 9.02 2.26-0.44 4.59-0.6 7.05-0.23-0.06 3.04-0.37 6.03-1.44 8.87 2.48-1.07 4.95-1.56 7.43-1.21 0.61 3.34 0.9 6.52 0.3 9.25 2.96-1.58 6.14-2.77 9.71-3.34 0.05 3.18 0.31 6.41-0.61 9.4 3.29-1.54 6.83-2.7 10.92-3.03 0.14 2.76 0.53 5.93-0.53 8.49 3.36-1.28 6.72-1.59 10.09-1.67-0.59 2.84-0.98 5.82-2.73 7.89 3.62-0.45 5.81-1.25 11.68-0.76-1.41 3.3-2.46 7.34-5.31 9.4 4.27-0.35 8.54-0.6 12.82 0.83-0.25 2.66-0.99 5.2-2.05 7.66 3.04-0.15 5.96-0.3 8.8-0.46 7.49-14.31 7.05-30.31 13.2-46.41 3.59-9.39 10.34-16.37 15.62-16.08 11.09-20.23 28.94-35.15 49.44-43.53l14.11-5.76c23.15-22.38 47.59-22.82 69.62-22.45-5.32 5.04-11.31 9.42-18.05 13.04 4.79 0.88 9.56 2.82 13.95 6.37-4.82 4.69-10.45 8.35-16.68 11.22 5.12 0.7 9.99 2.95 14.71 7.28-5.2 2.99-10.83 5.31-16.99 6.83 4.5 2.58 8.97 5.18 12.29 8.95-6.81 2.23-13.62 4.42-20.63 5.46 2.82 2.6 5.37 5.24 6.98 8.04-5.91 2.02-11.94 3.28-18.05 4.1 3.42 2.31 4.9 5.16 6.52 7.89-5.16 0.68-10.31 0.47-15.47 0.15 2.11 2.1 3.65 4.29 4.85 6.52-3.94 0.91-7.89 1.06-11.83 0.76 2.7 2.08 4.13 5.13 4.7 7.74-4.51 1.01-9.15 0.39-13.8-0.61 1.84 2.48 2.96 4.95 3.79 7.43-3.34 1.47-6.67 1.5-10.01 1.06 1.58 2.48 3.24 4.95 3.64 7.43-3.89 0.82-7.79 0.59-11.68 0 2.69 2.22 4.19 4.88 5.26 7.1-3.46 1.31-6.11 1.44-9.66 1.85 2.13 2.44 4.18 4.9 5.31 7.74-2.78 1.14-5.56 1.27-8.34 1.21 2.46 2.53 4.76 5.11 6.22 8.04-2.46 1.76-5.07 2.63-7.74 3.19 2.09 2.57 3.86 4.75 5.76 7.89-2.4 1.38-5.17 2.64-7.89 3.34 2.52 2.24 5.35 4.42 7.13 7.28-2.78 1.91-6.11 3.17-8.19 4.02 2.1 1.45 4.52 3.89 5.92 5.99-1.31 1.34-4.06 3.85-5.95 4.53 2.28 1.32 4.57 4.7 5.68 6.24-1.87 1.74-4.53 2.79-7.07 3.6 2.07 1.76 4.87 4.74 6.41 7.59-1.86 2.32-4.64 3.28-7.02 4.16 1.78 2 3.96 4.95 4.92 7.56-2.45 1.4-4.75 1.9-7.13 2.28 1.45 3.24 2.92 6.47 3.19 9.71-2.47 0.6-5.06 0.36-7.74-0.46 1.12 3 2.19 8.18 1.85 11.52-2.16 0.25-5.17-0.19-7-0.6 0.52 3.76 1.08 7.55 0.61 10.92-1.88 0.01-4.03 0.2-6.14-0.81 0.3 3.54 0.9 6.22-0.08 9.76-2.34-0.06-5.22-0.88-7.27-2.65 0.11 4.4-0.5 8.58-1.68 10.99 2.61 2.45 5.5 4.48 6.9 7.58l13.73 0.46 44.74 22.45c-7.4 2.25-15.31 3.91-24.12 4.55 4.85 3.19 13.87 9.14 16.23 13.8-12.02-0.34-23.8-2.16-35.26-5.61 3.38 3.49 4.65 6.22 7.05 9.71-17.54-5.13-35.09-11.89-52.63-18.81-5.85 5.15-10.21 11.13-14.26 17.29l-3.64-6.22c-1.27 1.57-2.87 3.57-2.96 6.29-0.06 1.91 4.39 4.15 4.32 9.02-0.08 6.06-4.29 7.28-4.25 11.22l0.15 14.26c0.06 5.21 9.98 4.54 7.36 17.9-1.27-2.49-3.24-3.94-5.31-5.23l3.56 20.7c7.09-0.04 1.5 12.55-1.21 14.41-0.17-3.39-0.54-6.78-2.12-10.16-2.13-4.54-6.94-6.25-8.95-2.12-1.43 2.94-2.1 6.07-5.01 8.65-2.65-2.98-4.31-8.72-3.79-14.11-4.78 1.67-9.17 3.99-10.96 10.65-3.98-3.11-5.98-11.65 2.62-14.37z" style="fill-rule:evenodd;fill:#fff;stroke-linecap:round;stroke-linejoin:round;stroke-miterlimit:4;stroke:#000"/>
  <path id="path4465" d="m190.17 403.36c2.23-2.37 7.82-6.18 10.92-6.6M236.5 412.68 236.5 412.68 236.5 412.68" style="fill:none;stroke-linecap:round;stroke-miterlimit:4;stroke:#000"/>
  <path id="path4467" d="m236.5 412.68c-2.41 3.58-3.39 10.13-3.41 14.56" style="fill:none;stroke-linecap:round;stroke-miterlimit:4;stroke:#000"/>
  <path id="path4469" d="m263.57 347.85c20.53 0.77 41.48 1.34 64.61 0.91" style="fill:none;stroke-linecap:round;stroke-miterlimit:4;stroke:#000"/>
  <path id="path4471" d="m309.15 356.95c-5.72-2.14-9.74-5.13-13.73-8.04" style="fill:none;stroke-miterlimit:4;stroke:#000"/>
  <path id="path4473" d="m286.93 313.72c-2.82 0.15-5.64 0.24-8.27-0.61-0.19 3.82-0.62 7.61-2.81 11.22-3.49-0.28-5.65-1.99-7.43-3.45-1.05 3.57-1.59 7.18-4.7 10.58-3.18-1.27-4.36-3.3-6.14-5.46-0.25 4.03-0.77 8.16-4.02 11.91-4.29-1.97-5.85-5.12-7.58-8.76-0.2 4.17-1.07 8.22-4.25 12.1-5.88-7.87-11.02-16.32-15.47-25.33l0-9.78" style="fill:none;stroke-linecap:round;stroke-linejoin:round;stroke-miterlimit:4;stroke:#000"/>
  <path id="path4475" d="m226.26 315.92c-4.46-1.25-8.78-2.98-13.04-4.93M335.62 164.33 335.62 164.33 335.62 164.33" style="fill:none;stroke-linecap:round;stroke-miterlimit:4;stroke:#000"/>
  <path id="path4477" d="m335.62 164.33c-2.06-0.24-4.12-1.32-5.29-2.12" style="fill:none;stroke-linecap:round;stroke-miterlimit:4;stroke:#000"/>
  <path id="path4479" d="m341.84 155.83c-1.91-0.19-4.55-1.05-5.72-1.89" style="fill:none;stroke-linecap:round;stroke-miterlimit:4;stroke:#000"/>
  <path id="path4481" d="m350.94 148.7c-3.66-0.29-6.88-0.94-9.56-2.05" style="fill:none;stroke-linecap:round;stroke-miterlimit:4;stroke:#000"/>
  <path id="path4483" d="m357.91 141.42c-5.32-0.34-11.14-0.59-13.95-2.05" style="fill:none;stroke-linecap:round;stroke-miterlimit:4;stroke:#000"/>
  <path id="path4485" d="m366.86 133.38c-6.46 0.42-14.56-0.35-19.05-2.41" style="fill:none;stroke-linecap:round;stroke-miterlimit:4;stroke:#000"/>
  <path id="path4487" d="m377.93 121.25c-6.67 1.02-18.34 1.61-24.44-0.12" style="fill:none;stroke-linecap:round;stroke-miterlimit:4;stroke:#000"/>
  <path id="path4489" d="m386.28 106.84c-12.31 3.45-20.17 4.75-29.46 6.13" style="fill:none;stroke-linecap:round;stroke-miterlimit:4;stroke:#000"/>
  <path id="path4491" d="M388.55 92.74C377.87 97.65 367.12 100.8 356.5 102.68" style="fill:none;stroke-linecap:round;stroke-miterlimit:4;stroke:#000"/>
  <path id="path4493" d="m391.28 75.14c-11.86 7.3-25.15 13.41-36.18 16.06" style="fill:none;stroke-linecap:round;stroke-miterlimit:4;stroke:#000"/>
  <path id="path4495" d="m186.83 153.86-1.82 2.55" style="fill:none;stroke-linecap:round;stroke-miterlimit:4;stroke:#000"/>
  <path id="path4497" d="m181.22 145.21c-0.95 1.55-3.55 3.98-5.32 5.73" style="fill:none;stroke-linecap:round;stroke-miterlimit:4;stroke:#000"/>
  <path id="path4499" d="m174.54 137.93c-1.07 2.44-2.55 4.57-4.44 6.36" style="fill:none;stroke-linecap:round;stroke-miterlimit:4;stroke:#000"/>
  <path id="path4501" d="m168.33 128.08c-1.93 4.02-4.12 6.59-6.37 8.82" style="fill:none;stroke-linecap:round;stroke-miterlimit:4;stroke:#000"/>
  <path id="path4503" d="m161.8 115.11c-1.37 4.36-3.46 8.42-5.64 12.45" style="fill:none;stroke-linecap:round;stroke-miterlimit:4;stroke:#000"/>
  <path id="path4505" d="m154.22 100.32c-1.49 6.32-3.36 12.48-6.53 18.13" style="fill:none;stroke-linecap:round;stroke-miterlimit:4;stroke:#000"/>
  <path id="path4507" d="m144.97 87.58c-0.12 8.26-1.9 16.13-4.14 23.9" style="fill:none;stroke-linecap:round;stroke-miterlimit:4;stroke:#000"/>
  <path id="path4509" d="m134.96 81.82c0.28 8.78-0.11 17.51-2.29 26.12" style="fill:none;stroke-linecap:round;stroke-miterlimit:4;stroke:#000"/>
  <path id="path4511" d="m121.38 78.02c2.17 9.47 2.73 18.94 2.6 28.41" style="fill:none;stroke-linecap:round;stroke-miterlimit:4;stroke:#000"/>
  <path id="path4513" d="m107.96 73.47c4.17 10.6 5.55 20.6 5.51 29.85" style="fill:none;stroke-linecap:round;stroke-miterlimit:4;stroke:#000"/>
  <path id="path4515" d="m93.55 76.66c4.92 7.99 8.74 16.2 10.38 24.84" style="fill:none;stroke-linecap:round;stroke-miterlimit:4;stroke:#000"/>
  <path id="path4517" d="m78.23 76.51c7.11 8.5 13.78 17.08 17.98 26.07" style="fill:none;stroke-linecap:round;stroke-miterlimit:4;stroke:#000"/>
  <path id="path4519" d="m78.88 240.96c12.03-4.72 26.51-7.9 32.88-7.65" style="fill:none;stroke-linecap:round;stroke-miterlimit:4;stroke:#000"/>
  <path id="path4521" d="m97.16 224.5 7.77 2.92-3.64 4.25 10.47 1.64-8.61 1.2 6.9 4.32M121.27 217.86l5.46-0.34M121.27 217.86l5.46-0.34M121.27 217.86l5.46-0.34" style="fill:none;stroke-linecap:round;stroke-linejoin:round;stroke-miterlimit:4;stroke:#000"/>
  <path id="path4523" d="m121.27 217.86 5.46-0.34c0.86-1.78 2.96-2.55 5.25-2.71 2.6-0.18 5.08 1.1 6.23 2.75 0.4 0 2.89 0.34 3.3 0.34" style="fill:none;stroke-linecap:round;stroke-linejoin:round;stroke-miterlimit:4;stroke:#000"/>
  <circle r="2.27" cy="218.96" cx="132.65" id="path4525" fill="#000"/>
  <path id="path4527" d="m126.73 217.52c-0.79 3.33 2.27 6.81 5.8 7.01 4.01 0.23 6.64-3.74 5.69-6.98M178.79 254.19 178.79 254.19 178.79 254.19" style="fill:none;stroke-miterlimit:4;stroke:#000"/>
  <path id="path4529" d="m178.79 254.19c7.08 2.96 14.97 3.82 18.44 8.29" style="fill:none;stroke-miterlimit:4;stroke:#000"/>
  <path id="path4531" d="m190.59 270.09c9.25-7.9 9.79-13.53 12.98-19.84 9.79 0.72 37.45-25.9 43.78-53.93" style="fill:none;stroke-miterlimit:4;stroke:#000"/>
  <path id="path4533" d="m263.57 347.85-14.75-0.15" style="fill:none;stroke-linecap:round;stroke-miterlimit:4;stroke:#000"/>
</svg>
