<?xml version="1.0" encoding="UTF-8" standalone="no"?>
<svg
   xmlns:dc="http://purl.org/dc/elements/1.1/"
   xmlns:cc="http://creativecommons.org/ns#"
   xmlns:rdf="http://www.w3.org/1999/02/22-rdf-syntax-ns#"
   xmlns:svg="http://www.w3.org/2000/svg"
   xmlns="http://www.w3.org/2000/svg"
   xmlns:xlink="http://www.w3.org/1999/xlink"
   id="svg2"
   version="1.1"
   x="0"
   y="0"
   width="400"
   height="500"
   viewBox="30.5 31.5 400 500"
   enable-background="new 30.5 31.5 412 533"
   xml:space="preserve"><metadata
     id="metadata4"><rdf:RDF><cc:Work
         rdf:about=""><dc:format>
          
          
          
          
          
          
          
          
          image/svg+xml
        
        
        
        
        
        
        
        
        </dc:format><dc:type
           rdf:resource="http://purl.org/dc/dcmitype/StillImage" /><dc:title></dc:title></cc:Work></rdf:RDF></metadata><defs
     id="defs6" /><path
     style="fill:#0085ca"
     d="M 230.45,531.13 C 156.13,477.21 105.19,409.11 74.71,322.97 47.07,244.87 35.98,150.22 40.8,33.62 l 0.02,-0.46 379.82,0 0.02,0.46 c 4.81,116.6 -6.28,211.24 -33.91,289.35 -30.48,86.14 -81.42,154.24 -155.74,208.16 l -0.28,0.2 z"
     id="path4148" /><use
     xlink:href="#path4385-5"
     height="480"
     width="390"
     y="0"
     x="0"
     id="use3774"
     transform="matrix(0.37564431,-0.99404129,0.98210452,0.38020999,-262.29655,480.55288)" /><path
     style="fill:#ffe000;fill-opacity:1;stroke:#000000;stroke-opacity:1"
     id="path4385-5"
     d="m 185.57511,417.6862 c 2.55341,-0.47865 1.28597,-11.05562 -1.01223,-10.52547 -8.8896,2.05056 -12.43958,11.59073 -13.76216,16.49862 5.91544,-4.75297 8.70914,-4.83616 14.77439,-5.97315 z" /><path
     id="path10"
     d="M 419.96,33.21 C 429.03,252.66 383.71,419.16 230.51,530.31 146.04,469.02 94.36,390.9 66.52,296.34 64.43,289.25 62.48,282.07 60.65,274.8 49.2,229.11 42.88,179.78 40.77,126.86 39.57,96.8 39.72,65.58 41.06,33.21 l 189.45,0 189.45,0 m 0.92,-0.95 -0.92,0 -189.45,0 -189.45,0 -0.92,0 -0.04,0.92 c -4.82,116.66 6.28,211.36 33.93,289.52 30.51,86.24 81.51,154.41 155.91,208.39 l 0.56,0.41 0.56,-0.41 C 305.46,477.11 356.46,408.94 386.97,322.7 414.62,244.54 425.72,149.84 420.9,33.18 l -0.04,-0.92 0,0 z" /><path
     style="fill:#ffe000;fill-opacity:1;stroke:#000000;stroke-width:1;stroke-miterlimit:4;stroke-dasharray:none;stroke-opacity:1"
     id="path4385-2-2"
     d="m 118.08015,202.8278 c 0.47584,3.47317 10.74978,-0.5284 9.6404,-3.87221 -2.37884,-7.16991 -10.35196,-9.61254 -14.80011,-9.47065 5.76537,5.5162 4.46661,8.2838 5.15971,13.34286 z" /><path
     d="m 87.0635,222.666 c 4.35626,0.59347 3.42378,-12.46618 -1.01616,-12.29276 -9.5203,0.37191 -15.46833,8.68968 -16.97737,13.82292 8.81044,-4.7863 11.64814,-2.39457 17.99353,-1.53016 z"
     id="path4255"
     style="fill:#ffe000;fill-opacity:1;stroke:#000000;stroke-width:1;stroke-miterlimit:4;stroke-dasharray:none;stroke-opacity:1" /><path
     style="fill:#ffe000;fill-opacity:1;stroke:#000000;stroke-width:1;stroke-miterlimit:4;stroke-dasharray:none;stroke-opacity:1"
     id="path4259"
     d="m 98.14056,262.41377 c 3.85987,-2.10489 -4.63404,-12.0687 -8.10662,-9.29663 -7.44599,5.94404 -7.30425,16.16873 -5.47597,21.19712 4.25709,-9.07798 7.96027,-8.83443 13.58259,-11.90049 z" /><path
     style="fill:#ffe000;fill-opacity:1;stroke:#000000;stroke-opacity:1"
     id="use3772"
     d="m 112.0036,277.71297 c 1.20202,-3.66074 10.31638,4.25324 8.52729,7.5552 -3.83626,7.08018 -12.09217,7.04579 -16.37734,5.37035 6.76922,-4.10308 6.09918,-7.59326 7.85005,-12.92555 z" /><use
     xlink:href="#use3776"
     height="480"
     width="390"
     y="0"
     x="0"
     id="use3778"
     transform="matrix(0.84686732,-0.16184547,0.15900296,0.85098409,-14.300011,83.016247)" /><use
     xlink:href="#use3774"
     height="480"
     width="390"
     y="0"
     x="0"
     id="use3776"
     transform="matrix(-0.8267395,0.56258492,0.56258492,0.8267395,174.14767,-54.228468)" /><path
     style="fill:#ffe000;fill-opacity:1;stroke:#000000;stroke-linecap:round;stroke-linejoin:round;stroke-opacity:1"
     id="path3697"
     d="m 257.75917,176.81246 c -3.9897,-14.30748 -17.7042,-15.9118 -17.61775,-32.58383 0.12741,-24.57046 63.56846,-20.85692 102.37872,-40.78652 13.10458,-6.729372 25.30248,-18.167764 27.50346,-30.274021 1.58697,-8.728936 -3.30432,-14.821895 -7.18717,-15.140575 6.38464,3.319877 5.0148,9.536952 -1.48312,9.977396 -3.62852,0.245949 -8.18593,-2.099339 -8.22656,-7.400524 -0.0472,-6.156197 3.83817,-10.695814 15.79883,-10.603642 15.97446,0.122123 22.46658,15.781342 22.96023,25.924647 1.07117,22.009729 -42.20307,56.403299 -91.43384,70.344909 33.34758,-4.36083 78.96185,-33.57318 92.09495,-56.762237 7.90548,40.498347 -42.46228,65.788177 -81.5441,78.340627 18.54781,-4.00935 50.58851,-12.20893 78.9229,-44.79657 8.05869,23.24104 -29.0917,56.47385 -78.44621,69.07623 6.70755,0.18355 31.89354,-10.52331 30.76271,4.32204 -1.04916,13.7732 -19.74027,10.74741 -38.94099,14.23915 17.05303,0.0177 30.02724,-4.88552 28.97849,7.01615 -0.38311,6.62394 -3.4415,11.31368 -8.77636,11.99123 16.8341,3.57156 51.35674,0.67829 65.48675,-1.91179 l -19.00424,59.74577 c -43.15785,8.57423 -45.06431,36.33935 -69.40678,37.69067 -6.12769,-6.77369 -7.93946,-9.26613 -12.45763,-14.23728 6.52949,12.9098 17.16283,24.26834 17.05281,39.71353 l -8.40438,-0.53932 c -3.73684,11.7653 -8.16549,22.49287 -13.25825,32.22429 l -6.0224,-7.46057 c -2.59214,7.98202 -5.72588,12.1728 -8.80887,16.71888 l -5.84262,-4.94376 c -18.9521,16.33134 -12.6104,20.08058 0,19.68514 8.9218,-0.27977 11.5087,1.59255 11.73544,4.95685 0.10349,1.53555 -1.66871,0.86889 -5.24862,4.49706 -3.10138,3.1432 0.95928,5.99658 -2.02779,7.83607 -5.36411,3.3033 -9.43244,-14.64653 -21.82362,-9.59495 -11.26631,4.593 13.66508,13.36396 13.09773,19.87541 -0.21434,2.45996 -1.56854,1.30894 -5.37832,4.19087 -3.36313,2.54405 -0.732,6.8497 -4.91117,6.60717 -10.42925,-0.60524 -8.33276,-20.26245 -15.57464,-21.97221 -11.46193,-2.70611 -2.07395,31.22418 -13.81327,32.42462 -2.2766,0.2328 -0.12211,-2.14662 -6.40314,-3.19931 -8.47652,-1.42064 -4.89479,2.63043 -7.17165,0.1731 -7.64946,-8.25577 18.44734,-25.49175 14.28581,-34.22254 -4.32041,-9.06412 -19.29921,8.13935 -30.89986,2.66197 -4.61358,-2.17835 -1.43271,-4.38411 -2.25382,-10.01658 -0.50789,-3.48396 -3.06163,-4.69989 -1.96409,-7.22598 3.27716,-7.54273 20.01014,2.59368 29.96947,3.96619 13.12754,1.79674 24.33698,-13.10727 31.90678,-20.21187 l -10.16949,0.6356 c 3.01312,-5.11671 7.61059,-9.78075 12.26695,-14.42797 l -7.18221,0.19068 c 5.49498,-6.74742 12.48003,-11.35286 14.42797,-23.19915 -2.14535,1.42738 -3.95233,2.96754 -8.86825,3.47139 -8.96712,-17.93494 -24.49294,-24.4509 -34.60628,-37.66243 -17.41,7.84263 -29.61812,6.70019 -41.88709,5.66285 l 4.58421,-4.76398 c -13.02941,-5.51648 -22.9027,-13.66304 -33.1681,-21.48286 l 7.01114,-4.6741 -10.42683,-6.47182 5.57296,-4.85387 c -6.02232,-5.54313 -9.92033,-21.58004 -14.02229,-19.86491 -4.15164,1.73591 0.5464,17.71669 -7.27677,23.92372 -2.08802,1.65667 -1.82894,-0.87072 -4.7148,-3.12799 -5.1211,-4.00563 -8.58575,-3.00087 -6.23541,-7.98993 3.86974,-8.21429 15.83525,-19.26851 7.89004,-25.03036 -5.24303,-3.80223 -9.34709,16.28727 -18.76028,16.78278 -3.65331,0.19231 -2.04688,-2.35527 -6.725,-7.23419 -3.68611,-3.84432 -6.42423,-4.42903 -5.20793,-7.53116 5.51244,-11.44918 24.91016,-5.15282 24.94048,-14.51164 0.0226,-6.97559 -36.07727,-3.60977 -29.737,-11.76155 3.07581,-3.95462 3.41605,-8.24538 2.92745,-13.1506 -0.62594,-6.28398 9.62035,-3.5964 16.65793,1.42328 8.09817,5.77618 13.36156,14.56783 16.35378,15.12943 6.77777,1.2721 -10.72221,-18.84794 -6.20216,-23.38642 2.41769,-2.42755 5.12778,0.43189 8.33414,-0.43246 3.52479,-0.95019 6.18593,-6.33866 8.38675,-4.20173 3.94162,3.8272 3.4466,9.71823 2.61763,16.73059 -1.46984,12.43365 -4.37295,28.7753 12.12174,45.80641 l 4.04489,-7.01114 8.89876,12.85376 2.6067,-7.82012 c 7.19847,8.90655 14.12368,16.44679 21.75253,27.50526 -14.34154,-27.77394 1.01668,-53.75039 -3.59546,-79.36974 l -9.52797,6.11228 c 7.19332,-31.90386 -9.64327,-51.14916 -15.73013,-49.52744 -15.94184,4.24739 -33.60905,15.54799 -46.61108,2.13665 16.99346,-2.00913 25.18341,-5.65208 34.42922,-10.37108 1.06533,-0.54374 -3.36798,-6.38561 -4.73611,-5.65678 -7.76868,4.13856 -29.15667,13.57529 -29.15192,-3.59919 7.01251,9.83643 19.6562,3.48817 25.58169,-0.90261 -17.14366,-19.33282 -27.95582,-24.47312 -41.82203,-9.72458 -1.52318,-14.54953 -2.1797,-37.466636 14.55509,-38.072034 7.17208,-0.259458 14.37977,5.752844 20.02118,5.783894 3.19368,0.0179 4.25553,-2.42882 8.51695,-2.47881 4.23107,-0.0486 4.0472,3.943 13.66525,3.05085 -1.39887,-6.63336 0.0513,-13.525727 1.19227,-20.389976 5.57609,8.108713 11.23467,16.18993 15.41553,24.763716 2.24455,-6.57228 5.71129,-12.872959 10.11223,-18.96604 3.68613,10.336942 6.86152,20.67389 8.40438,31.01083 20.62643,13.28085 40.9004,34.58764 60.08909,60.80819 l -8.6291,-2.92131 c 3.99997,5.00368 8.82734,10.73153 11.25761,15.73521 7.81367,-5.47022 13.84555,-9.76036 11.75333,-17.26329 z" /><path
     style="fill:#000000;fill-opacity:1;stroke:none"
     id="path4533"
     d="m 138.66172,111.12199 c -1.60125,4.04006 -6.64531,2.29692 -6.64195,0.4767 -2.34696,-3.24307 10.96604,-2.46837 16.40907,1.25788 -2.81628,-1.30523 -9.25011,-3.03902 -9.76712,-1.73458 z" /><path
     id="path4247"
     d="m 213.18502,267.95462 c 5.14417,5.26235 15.25847,13.97324 20.03634,10.51475 2.80168,-2.02802 1.16219,-7.0037 -4.90922,-13.69271 6.51434,7.05535 16.47194,16.23778 23.61209,13.42267 7.10725,-2.80214 -2.69029,-12.1929 -7.72226,-15.52013 8.44447,6.57483 16.67561,14.03715 23.99241,10.46772 5.46399,-2.66554 -3.02509,-10.95818 -12.23394,-17.20501 14.36182,9.7033 24.73252,15.8362 31.49444,10.63461 6.33189,-4.8708 -6.21733,-14.22944 -16.11308,-17.30834 12.0576,3.9867 28.75655,7.49595 33.64476,1.47203 4.26888,-5.26068 -5.74468,-11.3241 -16.8651,-13.03982"
     style="fill:none;fill-rule:evenodd;stroke:#000000;stroke-width:1px;stroke-linecap:round;stroke-linejoin:round;stroke-opacity:1" /><path
     id="path4249"
     d="m 288.12146,237.70039 c 15.69238,3.04205 29.16486,6.79694 32.9195,0.40798 4.40889,-7.50224 -10.75445,-9.78551 -22.05085,-11.72154 8.2041,1.11553 18.91799,3.15572 24.51325,3.31009"
     style="fill:none;fill-rule:evenodd;stroke:#000000;stroke-width:1px;stroke-linecap:butt;stroke-linejoin:miter;stroke-opacity:1" /><path
     id="path4251"
     d="m 246.00584,194.07575 c -10.63179,7.66633 -32.27949,19.04911 -43.24835,30.60459 -12.11333,12.76116 -11.98352,26.34278 -8.86265,39.14222"
     style="fill:none;fill-rule:evenodd;stroke:#000000;stroke-width:1px;stroke-linecap:round;stroke-linejoin:miter;stroke-opacity:1" /><path
     id="path4253"
     d="m 148.42884,112.85657 c -5.56225,-3.20354 -11.09705,-3.19644 -15.97694,-2.17508"
     style="fill:none;fill-rule:evenodd;stroke:#000000;stroke-width:1px;stroke-linecap:round;stroke-linejoin:miter;stroke-opacity:1" /></svg>