<svg xmlns:dc="http://purl.org/dc/elements/1.1/" xmlns:cc="http://creativecommons.org/ns#" xmlns:rdf="http://www.w3.org/1999/02/22-rdf-syntax-ns#" xmlns:svg="http://www.w3.org/2000/svg" xmlns="http://www.w3.org/2000/svg" id="svg2" version="1.1" x="0" y="0" width="400" height="500" viewBox="30.5 31.5 400 500" enable-background="new 30.5 31.5 412 533" xml:space="preserve">
  <metadata id="metadata4">
    <rdf:RDF>
      <cc:Work rdf:about="">
        <dc:format>
          
          
          
          
          
          
          image/svg+xml
        
        
        
        
        
        
        </dc:format>
        <dc:type rdf:resource="http://purl.org/dc/dcmitype/StillImage"/>
      </cc:Work>
    </rdf:RDF>
  </metadata>
  <defs id="defs6"/>
  <path fill="#e00e00" d="M230.45 531.13C156.13 477.21 105.19 409.11 74.71 322.97 47.07 244.87 35.98 150.22 40.8 33.62l0.02-0.46 379.82 0 0.02 0.46c4.81 116.6-6.28 211.24-33.91 289.35-30.48 86.14-81.42 154.24-155.74 208.16l-0.28 0.2-0.28-0.2z" id="path4148"/>
  <path id="path10" d="M419.96 33.21C429.03 252.66 383.71 419.16 230.51 530.31 146.04 469.02 94.36 390.9 66.52 296.34 64.43 289.25 62.48 282.07 60.65 274.8 49.2 229.11 42.88 179.78 40.77 126.86 39.57 96.8 39.72 65.58 41.06 33.21l189.45 0 189.45 0m0.92-0.95-0.92 0-189.45 0-189.45 0-0.92 0-0.04 0.92c-4.82 116.66 6.28 211.36 33.93 289.52 30.51 86.24 81.51 154.41 155.91 208.39l0.56 0.41 0.56-0.41C305.46 477.11 356.46 408.94 386.97 322.7 414.62 244.54 425.72 149.84 420.9 33.18l-0.04-0.92 0 0z"/>
  <path id="path4230" d="m226.88 460.96c-11.74-21.17-41.38-28.75-65.77-50.98-13.71-12.5-26.86-23.6-26.03-55.29 0.52-19.64 11.12-33.78 4.42-63.61 11.87 5.63 13.27 20.5 13.14 31.57-0.1 8.55-0.61 17.49 4 25.57 4.54 7.94 11.19 14.61 19.41 20.79-1.3-11.86-8.72-25.91-10.9-41.01-2.2-15.19 6.95-29.01 9.67-45.4 1.3-7.8-0.14-15.5-2.46-23.26 8.98 4.64 13.56 11.44 13.71 20.33 0.16 9.72-5.73 19.53-2.77 28.96 4.08 13 11.49 22.59 19.87 29.42 1.77-12.46-8.24-29.25-4.62-45.9 5.32-24.44 29.08-25.54 31.96-63.32 6.99 9.27 11.83 23.71 11 33.15-1.43 16.11-13.15 25.26-13.08 38.49 0.09 17.07 23.73 30.24 17.1 51.75 11.1-6.36 13.81-19.82 13.86-25.57 0.1-11.76-7.22-20.78-5.85-31.11 1.23-9.28 14.5-24.23 29.71-27.21-7.99 12.15-12.52 20.82-11.23 33.37 0.96 9.29 12.07 20.09 12.48 32.04 0.45 13.33-11.64 24.22-7.39 32.5 11.38-5.89 16.79-11.95 17.44-21.08 0.95-13.58 1.7-27.73 17.13-38.22-4.28 21.51 0.7 39.51 4.47 60.43 2.75 15.24-2.78 31.37-23.64 39.53-18.84 7.37-36.79 16.49-52.37 30.34-7.11 6.33-11.06 14.51-13.25 23.72" style="fill-rule:evenodd;fill:#ffe000;stroke:#000"/>
  <path d="M139.5 254.93C130.1 235.85 105.71 230.61 85.27 211.98 73.78 201.51 64.97 193.1 65.23 166.53c0.21-21.12 11.41-29.54 3.09-51.28 9.97 4.76 11.93 12.78 10.51 24.66-0.85 7.12-0.51 14.22 3.36 20.98 3.8 6.65 9.1 13.02 16.93 16.32-6.59-11.81-9.43-21.1-10.51-33.68-1.11-12.82 6.4-21.37 8.68-35.1 1.09-6.54-0.44-14.39-2.39-20.89 5.1 2.53 11.41 9.62 11.54 17.08 0.14 8.15-4.18 16.53-1.7 24.43 3.42 10.89 7.85 17.15 14.88 22.88 1.48-10.44-7.06-18.86-2.62-34.69 5.67-20.18 22.49-19.33 25.53-53.66 5.94 8.23 10.72 18.79 10.02 28.74-0.95 13.52-12.9 19.27-11.61 32.32 1.59 16.05 19.73 21.13 14.17 39.16 9.3-5.33 12.32-17.17 11.62-21.43-1.61-9.73-7.16-14.53-6.01-23.19 1.03-7.78 10.45-16.07 23.19-21.37-4.65 8.88-9.01 14.67-7.93 25.2 0.8 7.79 10.34 15.73 10.68 25.74 0.38 11.17-8.65 19.86-5.09 26.79 7.49-4.38 12.11-10.19 12.86-17.83 1.43-14.52 2.85-22.38 15.79-31.18-7.2 28.39-2.54 31.09 1.56 51.29 2.58 12.72-0.51 24.61-20.41 32.01-15.89 5.91-27.72 13.59-40.78 25.21-5.96 5.3-9.27 12.16-11.1 19.88" id="path4238" style="fill-rule:evenodd;fill:#ffe000;stroke-miterlimit:4;stroke:#000"/>
  <path id="path4263" d="m309.5 254.93c-9.4-19.07-33.79-24.32-54.23-42.95-11.49-10.47-20.3-18.88-20.04-45.45 0.21-21.12 11.41-29.54 3.09-51.28 9.97 4.76 11.93 12.78 10.51 24.66-0.85 7.12-0.51 14.22 3.36 20.98 3.8 6.65 9.1 13.02 16.93 16.32-6.59-11.81-9.43-21.1-10.51-33.68-1.11-12.82 6.4-21.37 8.68-35.1 1.09-6.54-0.44-14.39-2.39-20.89 5.1 2.53 11.41 9.62 11.54 17.08 0.14 8.15-4.18 16.53-1.7 24.43 3.42 10.89 7.85 17.15 14.88 22.88 1.48-10.44-7.06-18.86-2.62-34.69 5.67-20.18 22.49-19.33 25.53-53.66 5.94 8.23 10.72 18.79 10.02 28.74-0.95 13.52-12.9 19.27-11.61 32.32 1.59 16.05 19.73 21.13 14.17 39.16 9.3-5.33 12.32-17.17 11.62-21.43-1.61-9.73-7.16-14.53-6.01-23.19 1.03-7.78 10.45-16.07 23.19-21.37-4.65 8.88-9.01 14.67-7.93 25.2 0.8 7.79 10.34 15.73 10.68 25.74 0.38 11.17-8.65 19.86-5.09 26.79 7.49-4.38 12.11-10.19 12.86-17.83 1.43-14.52 2.85-22.38 15.79-31.18-7.2 28.39-2.54 31.09 1.56 51.29 2.58 12.72-0.51 24.61-20.41 32.01-15.89 5.91-27.72 13.59-40.78 25.21-5.96 5.3-9.27 12.16-11.1 19.88" style="fill-rule:evenodd;fill:#ffe000;stroke-miterlimit:4;stroke:#000"/>
</svg>
