<?xml version="1.0" encoding="UTF-8" standalone="no"?>
<svg
   xmlns:dc="http://purl.org/dc/elements/1.1/"
   xmlns:cc="http://creativecommons.org/ns#"
   xmlns:rdf="http://www.w3.org/1999/02/22-rdf-syntax-ns#"
   xmlns:svg="http://www.w3.org/2000/svg"
   xmlns="http://www.w3.org/2000/svg"
   id="svg2"
   version="1.1"
   x="0"
   y="0"
   width="400"
   height="500"
   viewBox="30.5 31.5 400 500"
   enable-background="new 30.5 31.5 412 533"
   xml:space="preserve"><metadata
     id="metadata4"><rdf:RDF><cc:Work
         rdf:about=""><dc:format>
          
          
          
          image/svg+xml
        
        
        
        </dc:format><dc:type
           rdf:resource="http://purl.org/dc/dcmitype/StillImage" /><dc:title></dc:title></cc:Work></rdf:RDF></metadata><defs
     id="defs6" /><path
     id="path8"
     d="M 230.44,531.14 C 156.12,477.22 105.18,409.12 74.7,322.98 47.06,244.88 35.97,150.23 40.79,33.63 l 0.02,-0.46 379.82,0 0.02,0.46 c 4.81,116.6 -6.28,211.24 -33.91,289.35 C 356.26,409.12 305.32,477.22 231,531.14 l -0.28,0.2 -0.28,-0.2 z"
     style="fill:#32ac60" /><path
     id="path10"
     d="M 419.96,33.21 C 429.03,252.66 383.7,419.16 230.5,530.31 77.31,419.16 31.99,252.66 41.06,33.21 l 189.45,0 189.45,0 m 0.92,-0.95 -0.92,0 -189.45,0 -189.45,0 -0.92,0 -0.04,0.92 c -4.82,116.66 6.28,211.36 33.93,289.52 30.51,86.24 81.51,154.41 155.91,208.39 l 0.56,0.41 0.56,-0.41 C 305.46,477.11 356.46,408.94 386.97,322.7 414.62,244.54 425.72,149.84 420.9,33.18 l -0.04,-0.92 0,0 z" /><path
     style="fill:#ffffff;fill-rule:evenodd;stroke:#000000;stroke-width:1;stroke-linecap:round;stroke-linejoin:round;stroke-opacity:1;stroke-miterlimit:4;stroke-dasharray:none"
     d="m 236.33756,458.38353 13.73238,-93.68537 46.99526,0 0.61034,-14.3427 c -8.55584,-4.4645 -16.56528,-9.47539 -23.49763,-15.56336 -7.94098,-6.97375 -12.20655,-16.80155 -12.20655,-26.24411 l 0,-89.28902 c 0,-13.29215 0.11018,-50.99292 39.67131,-67.87046 l 101.27744,-43.20687 c 2.52024,-1.07518 1.80854,-6.1034 -0.87849,-6.1034 -114.36109,0 -228.72216,0 -343.08325,0 -2.68702,0 -3.39872,5.02822 -0.87847,6.1034 l 101.27743,43.20687 c 39.56113,16.87754 39.67131,54.57831 39.67131,67.87046 l 0,89.28902 c 0,9.44256 -4.26557,19.27036 -12.20655,26.24411 -6.93235,6.08797 -14.94179,11.09886 -23.49763,15.56336 l 0.61034,14.3427 46.99526,0 13.73238,93.68537 c 3.8917,0 7.78342,0 11.67512,0 z"
     id="path4204" /></svg>