<?xml version="1.0" encoding="UTF-8" standalone="no"?>
<svg
   xmlns:dc="http://purl.org/dc/elements/1.1/"
   xmlns:cc="http://creativecommons.org/ns#"
   xmlns:rdf="http://www.w3.org/1999/02/22-rdf-syntax-ns#"
   xmlns:svg="http://www.w3.org/2000/svg"
   xmlns="http://www.w3.org/2000/svg"
   xml:space="preserve"
   enable-background="new 30.5 31.5 412 533"
   viewBox="30.5 31.5 400 500"
   height="500"
   width="400"
   y="0"
   x="0"
   version="1.1"
   id="svg2"><metadata
     id="metadata4"><rdf:RDF><cc:Work
         rdf:about=""><dc:format>
          
          
          
          
          
          
          image/svg+xml
        
        
        
        
        
        
        </dc:format><dc:type
           rdf:resource="http://purl.org/dc/dcmitype/StillImage" /><dc:title></dc:title></cc:Work></rdf:RDF></metadata><defs
     id="defs6" /><path
     fill="#e00e00"
     id="path4148"
     d="M230.45 531.13C156.13 477.21 105.19 409.11 74.71 322.97 47.07 244.87 35.98 150.22 40.8 33.62l0.02-0.46 379.82 0 0.02 0.46c4.81 116.6-6.28 211.24-33.91 289.35-30.48 86.14-81.42 154.24-155.74 208.16l-0.28 0.2-0.28-0.2z" /><path
     d="M419.96 33.21C429.03 252.66 383.71 419.16 230.51 530.31 146.04 469.02 94.36 390.9 66.52 296.34 64.43 289.25 62.48 282.07 60.65 274.8 49.2 229.11 42.88 179.78 40.77 126.86 39.57 96.8 39.72 65.58 41.06 33.21l189.45 0 189.45 0m0.92-0.95-0.92 0-189.45 0-189.45 0-0.92 0-0.04 0.92c-4.82 116.66 6.28 211.36 33.93 289.52 30.51 86.24 81.51 154.41 155.91 208.39l0.56 0.41 0.56-0.41C305.46 477.11 356.46 408.94 386.97 322.7 414.62 244.54 425.72 149.84 420.9 33.18l-0.04-0.92 0 0z"
     id="path10" /><path
     style="fill:#ffe000;fill-opacity:1;stroke:#000000;stroke-opacity:1"
     id="path3788"
     d="m 120.64235,76.681635 c -0.005,-3.408832 3.57748,-0.924662 10.24495,-0.700052 2.97517,0.100225 9.98178,-1.477743 13.5392,-0.4929 8.59238,2.378733 19.02724,-2.601609 19.02724,2.527471 l 0,128.519566 c 0,4.83609 3.50494,8.88243 9.38527,5.04583 2.4991,-1.63053 3.80633,3.49522 3.14318,9.8207 -0.3313,3.16013 0.87856,12.23352 -0.4761,13.49462 -5.67053,5.27892 -10.20321,9.80168 -10.39756,17.35771 -0.19113,7.43094 0.35766,35.34381 0.0109,48.2843 -0.826,30.82488 -0.11655,59.09677 0,67.4142 0.0287,2.05024 -7.89489,0.95489 -14.17418,0.86203 -2.51167,-0.0371 -8.13197,1.25363 -13.63875,1.25839 -4.8334,0.004 -9.30535,-2.50779 -10.79957,-2.5264 -7.79321,-0.0971 -9.09834,-0.79106 -9.09834,-5.745 l 0,-34.01067 c 0,-7.43521 -2.88651,-17.1947 -12.0032,-28.30943 -1.6939,-6.57972 -1.12163,-20.84508 0,-25.8937 8.65758,2.4275 11.7051,1.17956 11.69726,-7.18794 l -0.0715,-76.30602 c -0.0108,-11.49024 -5.33284,-16.19888 -13.4872,-29.75882 -1.98735,-3.30477 3.48804,-20.38241 6.00623,-19.81247 3.4733,0.78611 11.20049,3.91521 11.18007,-8.85938 z" /><path
     style="fill:#ffe000;fill-opacity:1;stroke:#000000;stroke-opacity:1"
     id="path3790"
     d="m 209.36121,80.336439 c -0.0159,-6.064642 8.92723,-0.623318 13.14921,-1.451135 10.08624,-1.977641 12.06394,1.192034 20.73389,-0.06287 8.32123,-1.204431 13.9893,-0.156406 13.83932,2.658864 -0.55414,10.401613 -0.58702,11.941842 -0.28367,25.988242 0.25537,11.82445 0.7788,21.47155 0.65928,30.8615 -0.0466,3.66182 5.32422,-0.79822 8.54288,-3.46662 1.98861,-1.64865 2.0949,8.47993 2.25163,11.18298 0.40448,6.97586 3.63968,11.39804 -0.49241,16.26643 -6.31596,7.44138 -9.43539,8.48123 -10.58423,22.41282 -0.86532,10.49346 -0.86654,63.34415 -1.13811,94.64537 -0.0888,10.23143 0.18192,23.33948 0.19056,24.01239 0.0837,6.52033 9.14692,-0.32998 9.17408,2.88989 0.0606,7.18598 -0.9259,4.39186 -0.87007,8.89083 0.0564,4.54437 1.47833,7.45246 -0.27625,9.95415 -13.76999,19.63335 -13.30828,27.4109 -14.13808,40.41282 -0.36891,5.78039 -4.47262,4.0108 -10.18543,5.01464 -5.04819,0.88701 -13.22143,0.86026 -17.92693,0.27191 -10.32609,-1.29112 -15.97696,0.96307 -15.95526,-3.33995 l 0.21586,-42.80633 c 0.0545,-10.79888 0.44323,-24.13332 -12.45369,-33.7164 -2.2865,-1.69899 1.44799,-27.89653 5.33106,-26.60662 3.52225,1.17005 6.90677,-1.97047 6.90677,-7.5041 l 0,-104.09608 c 0,-9.29749 -3.07407,-17.49559 -7.93269,-24.02441 -2.20774,-2.96667 -2.77126,-23.44486 -0.18119,-23.00406 5.51,0.93775 11.49146,0.54543 11.47687,-5.01779 z" /><path
     style="fill:#ffe000;fill-opacity:1;stroke:#000000;stroke-opacity:1"
     id="path3792"
     d="m 298.64621,82.135895 c 0.11543,-7.723298 10.56128,-3.684361 13.97368,-3.542232 8.06885,0.336074 6.97507,-2.487451 16.77137,-0.893619 5.4675,0.889547 12.5568,-1.298658 12.53468,3.398235 -0.0209,4.438061 -1.5669,27.076231 0.0553,40.660951 0.46781,3.9175 0.0803,20.04583 0.99827,27.46889 4.79234,0.0535 6.63769,-1.17357 10.70381,-2.79371 3.32868,-1.32631 5.06315,19.91547 2.07289,22.68605 -7.27256,6.73829 -10.99071,14.93462 -11.03111,25.73381 l -0.27626,73.8416 c 0.25141,7.88307 5.62404,2.72651 9.65491,-0.15001 1.55821,-1.11197 2.41407,22.53867 0.3273,24.28046 -6.0509,5.05058 -10.44534,14.65444 -10.52069,20.55706 l -0.70565,55.27832 c -0.0592,4.63715 -13.11474,2.59789 -25.3648,4.15647 -6.0623,0.77131 -19.53853,0.35395 -19.57045,-2.80975 l -0.36089,-35.77485 c -0.0456,-4.52251 -2.94156,-3.8857 -5.62365,-7.51407 -1.37406,-1.85885 -1.35005,-10.06738 0.29783,-10.43543 3.20905,-0.71672 4.79102,-5.73434 4.88579,-12.91785 0.0556,-4.21563 -0.34524,-14.2793 -0.39816,-21.66255 -0.0705,-9.83987 -0.22411,-29.63278 -0.8733,-32.54162 -1.20353,-5.39273 -2.09698,-4.63823 -7.7907,-8.68731 -1.87775,-1.33536 -3.00792,-29.03666 0.14997,-29.34604 7.77999,-0.76221 9.1648,-6.74956 9.16503,-12.39001 l 0.003,-63.48407 c 1.3e-4,-3.34397 0.80162,-8.78727 -2.90957,-10.18984 -2.03429,-0.76881 -1.91768,-14.39339 -0.2937,-14.92305 2.27092,-0.74066 3.79012,-5.59361 3.85785,-10.12569 z" /></svg>