<?xml version="1.0" encoding="UTF-8" standalone="no"?>
<svg
   xmlns:dc="http://purl.org/dc/elements/1.1/"
   xmlns:cc="http://creativecommons.org/ns#"
   xmlns:rdf="http://www.w3.org/1999/02/22-rdf-syntax-ns#"
   xmlns:svg="http://www.w3.org/2000/svg"
   xmlns="http://www.w3.org/2000/svg"
   xml:space="preserve"
   enable-background="new 30.5 31.5 412 533"
   viewBox="30.5 31.5 400 500"
   height="500"
   width="400"
   y="0"
   x="0"
   version="1.1"
   id="svg2"><metadata
     id="metadata4"><rdf:RDF><cc:Work
         rdf:about=""><dc:format>
          
          
          
          
          
          image/svg+xml
        
        
        
        
        
        </dc:format><dc:type
           rdf:resource="http://purl.org/dc/dcmitype/StillImage" /><dc:title></dc:title></cc:Work></rdf:RDF></metadata><defs
     id="defs6" /><path
     id="path4148"
     d="M 230.45,531.13 C 156.13,477.21 105.19,409.11 74.71,322.97 47.07,244.87 35.98,150.22 40.8,33.62 l 0.02,-0.46 379.82,0 0.02,0.46 c 4.81,116.6 -6.28,211.24 -33.91,289.35 -30.48,86.14 -81.42,154.24 -155.74,208.16 l -0.28,0.2 -0.28,-0.2 z"
     style="fill:#32ac60;fill-opacity:1" /><path
     id="path4471"
     d="m 328.65252,433.5 c 8.91561,-11.95008 17.36744,-25.29148 25.6969,-39 C 306.15898,375.52222 263.368,348.66492 230.5,307.5 c -32.868,41.16492 -75.65898,68.02222 -123.84942,87 8.32946,13.70852 16.78129,27.04992 25.6969,39 32.88189,-12.31252 75.87062,-39 98.15252,-64 22.2819,25 65.27063,51.68748 98.15252,64 z"
     style="fill:#ffffff;fill-rule:evenodd;stroke:none;stroke-width:1px;stroke-linecap:butt;stroke-linejoin:miter;stroke-opacity:1" /><path
     style="fill:#ffffff;fill-rule:evenodd;stroke:none;stroke-width:1px;stroke-linecap:butt;stroke-linejoin:miter;stroke-opacity:1"
     d="m 61.21093,278.5 c -3.44251,-14.01748 -6.88501,-29.44056 -10.32751,-47 81.21967,-42 140.16994,-106 179.61658,-198 39.44664,92 98.39691,156 179.61658,198 -3.4425,17.55944 -6.88501,32.98252 -10.32751,47 C 330.16976,246.57206 269.14048,199.00176 230.5,125.5 191.85952,199.00176 130.83024,246.57206 61.21093,278.5 Z"
     id="path4552" /><path
     style="fill:#ffffff;fill-rule:evenodd;stroke:none;stroke-width:1px;stroke-linecap:butt;stroke-linejoin:miter;stroke-opacity:1"
     d="M 90.04161,361.5 C 84.17873,348.29733 78.31588,333.98229 72.45302,317.24559 135.72576,292.0385 192.70583,245.55094 230.5,189.5 c 37.79417,56.05094 94.77424,102.5385 158.04699,127.74559 -5.86287,16.7367 -11.72573,31.05174 -17.5886,44.25441 C 307.21134,334.86628 267.23965,304.68315 230.5,254.5 c -36.73966,50.18315 -76.71134,80.36628 -140.45839,107 z"
     id="path4554" /><path
     id="path4558"
     d="M 399.78907,278.5 C 330.16976,246.57206 269.14048,199.00176 230.5,125.5 191.85952,199.00176 130.83024,246.57206 61.21093,278.5 m -10.32751,-47 c 81.21967,-42 140.16994,-106 179.61658,-198 39.44664,92 98.39691,156 179.61658,198"
     style="fill:none;fill-rule:evenodd;stroke:#000000;stroke-width:1px;stroke-linecap:butt;stroke-linejoin:miter;stroke-opacity:1" /><path
     d="M 419.96,33.21 C 429.03,252.66 383.71,419.16 230.51,530.31 146.04,469.02 94.36,390.9 66.52,296.34 64.43,289.25 62.48,282.07 60.65,274.8 49.2,229.11 42.88,179.78 40.77,126.86 39.57,96.8 39.72,65.58 41.06,33.21 l 189.45,0 189.45,0 m 0.92,-0.95 -0.92,0 -189.45,0 -189.45,0 -0.92,0 -0.04,0.92 c -4.82,116.66 6.28,211.36 33.93,289.52 30.51,86.24 81.51,154.41 155.91,208.39 l 0.56,0.41 0.56,-0.41 C 305.46,477.11 356.46,408.94 386.97,322.7 414.62,244.54 425.72,149.84 420.9,33.18 l -0.04,-0.92 0,0 z"
     id="path10" /><path
     id="path4560"
     d="M 370.95839,361.5 C 307.21134,334.86628 267.23965,304.68315 230.5,254.5 193.76034,304.68315 153.78866,334.86628 90.04161,361.5 M 72.45302,317.24559 C 135.72576,292.0385 192.70583,245.55094 230.5,189.5 c 37.79417,56.05094 94.77424,102.5385 158.04699,127.74559"
     style="fill:none;fill-rule:evenodd;stroke:#000000;stroke-width:1px;stroke-linecap:butt;stroke-linejoin:miter;stroke-opacity:1" /><path
     style="fill:none;fill-rule:evenodd;stroke:#000000;stroke-width:1px;stroke-linecap:butt;stroke-linejoin:miter;stroke-opacity:1"
     d="M 354.34942,394.5 C 306.15898,375.52222 263.368,348.66492 230.5,307.5 c -32.868,41.16492 -75.65898,68.02222 -123.84942,87 m 25.6969,39 c 32.88189,-12.31252 75.87062,-39 98.15252,-64 22.2819,25 65.27063,51.68748 98.15252,64"
     id="path4562" /></svg>