<?xml version="1.0" encoding="UTF-8" standalone="no"?>
<svg
   xmlns:dc="http://purl.org/dc/elements/1.1/"
   xmlns:cc="http://creativecommons.org/ns#"
   xmlns:rdf="http://www.w3.org/1999/02/22-rdf-syntax-ns#"
   xmlns:svg="http://www.w3.org/2000/svg"
   xmlns="http://www.w3.org/2000/svg"
   id="svg2"
   version="1.1"
   x="0"
   y="0"
   width="400"
   height="500"
   viewBox="30.5 31.5 400 500"
   enable-background="new 30.5 31.5 412 533"
   xml:space="preserve"><metadata
     id="metadata4"><rdf:RDF><cc:Work
         rdf:about=""><dc:format>
          
          
          
          
          image/svg+xml
        
        
        
        
        </dc:format><dc:type
           rdf:resource="http://purl.org/dc/dcmitype/StillImage" /><dc:title></dc:title></cc:Work></rdf:RDF></metadata><defs
     id="defs6" /><path
     id="path8"
     d="M 230.56,531.14 C 304.88,477.22 355.82,409.12 386.3,322.98 413.94,244.88 425.03,150.23 420.21,33.63 l -0.02,-0.46 -379.82,0 -0.02,0.46 c -4.81,116.6 6.28,211.24 33.91,289.35 30.48,86.14 81.42,154.24 155.74,208.16 l 0.28,0.2 0.28,-0.2 z"
     style="fill:#ffffff;fill-opacity:1" /><path
     id="path10"
     d="M 41.04,33.21 C 31.97,252.66 77.3,419.16 230.5,530.31 383.69,419.16 429.01,252.66 419.94,33.21 l -189.45,0 -189.45,0 m -0.92,-0.95 0.92,0 189.45,0 189.45,0 0.92,0 0.04,0.92 c 4.82,116.66 -6.28,211.36 -33.93,289.52 -30.51,86.24 -81.51,154.41 -155.91,208.39 l -0.56,0.41 -0.56,-0.41 C 155.54,477.11 104.54,408.94 74.03,322.7 46.38,244.54 35.28,149.84 40.1,33.18 l 0.04,-0.92 0,0 z" /><path
     style="fill:#32ac60;fill-opacity:1;fill-rule:evenodd;stroke:#000000;stroke-width:1;stroke-linecap:butt;stroke-linejoin:miter;stroke-miterlimit:4;stroke-dasharray:none;stroke-opacity:1"
     d="m 209.50597,255.67533 c -6.16218,16.2376 6.73177,5.30074 5.83907,14.25793 -0.7108,7.13128 -14.75344,12.22803 -18.19052,20.31964 -1.56636,3.68763 -2.12575,9.57209 2.19058,10.22837 4.83875,0.73573 8.75734,1.54239 7.22391,5.80544 -2.57283,7.15254 -11.11197,10.36954 -14.34997,18.18069 -2.48968,6.00613 -3.35641,19.56443 3.94257,19.26366 7.7006,-0.31734 9.84651,3.47826 9.31843,8.46905 -0.39136,3.69845 -5.99785,18.04515 4.17627,17.27906 3.76064,-0.28315 6.01703,1.11726 7.94917,4.22226 2.87634,4.62257 6.25535,14.99762 12.89452,14.99762 6.63917,0 10.01818,-10.37505 12.89452,-14.99762 1.93214,-3.105 4.18855,-4.50541 7.94917,-4.22226 10.17412,0.76609 4.56763,-13.58061 4.17627,-17.27906 -0.52808,-4.99079 1.61783,-8.78639 9.31843,-8.46905 7.29898,0.30077 6.43225,-13.25753 3.94257,-19.26366 -3.238,-7.81115 -11.77714,-11.02815 -14.34997,-18.18069 -1.53343,-4.26305 2.38516,-5.06971 7.22391,-5.80544 4.31633,-0.65628 3.75694,-6.54074 2.19058,-10.22837 -3.43706,-8.09161 -17.47972,-13.18836 -18.19052,-20.31964 -0.8927,-8.95719 12.00125,1.97967 5.83907,-14.25793 -2.63271,-6.93737 -13.1268,-25.07378 -20.99403,-25.07378 -7.86723,0 -18.36132,18.13641 -20.99403,25.07378 z"
     id="path4299" /><path
     id="path4301"
     d="m 254.4725,237.35406 c 13.18084,11.27245 7.25415,-4.53764 15.3712,-0.67512 6.46235,3.07513 6.5125,17.99349 12.95714,23.95507 2.93708,2.71687 8.27874,5.22891 10.35249,1.3937 2.32482,-4.29931 4.40565,-7.70989 7.89465,-4.82972 5.85385,4.83234 5.99497,13.94371 12.24324,19.6235 4.80447,4.36735 17.25461,9.75843 19.43569,2.79704 2.30104,-7.34455 6.59262,-8.08018 11.10495,-5.8992 3.34389,1.61617 14.93516,11.72809 17.64934,1.90741 1.00324,-3.62995 3.08102,-5.27799 6.65146,-6.04581 5.3154,-1.14297 16.20691,-0.81661 18.44795,-7.05643 2.241,-6.23987 -6.36944,-12.91761 -9.74294,-17.18128 -2.26612,-2.864 -2.82057,-5.45735 -1.28507,-8.89615 4.15425,-9.3035 -11.22191,-8.87697 -14.82998,-9.75754 -4.86883,-1.18825 -7.71171,-4.48631 -4.81416,-11.61657 2.74631,-6.75832 -10.28889,-10.52037 -16.77413,-10.2077 -8.43418,0.40651 -14.34006,7.34619 -21.93074,7.34985 -4.52422,0.002 -3.95969,-3.95288 -3.01787,-8.74891 0.84018,-4.27822 -4.87907,-5.73876 -8.87366,-5.51132 -8.76498,0.49901 -18.29521,11.97659 -25.23741,10.2374 -8.71969,-2.18434 5.91157,-10.61106 -11.4293,-10.30046 -7.40868,0.13268 -27.99633,3.8736 -30.6519,11.26756 -2.65549,7.39394 10.84768,23.37863 16.47905,28.19468 z"
     style="fill:#32ac60;fill-opacity:1;fill-rule:evenodd;stroke:#000000;stroke-width:1;stroke-linecap:butt;stroke-linejoin:miter;stroke-miterlimit:4;stroke-dasharray:none;stroke-opacity:1" /><path
     style="fill:#32ac60;fill-opacity:1;fill-rule:evenodd;stroke:#000000;stroke-width:1;stroke-linecap:butt;stroke-linejoin:miter;stroke-miterlimit:4;stroke-dasharray:none;stroke-opacity:1"
     d="m 206.5275,237.35406 c -13.18084,11.27245 -7.25415,-4.53764 -15.3712,-0.67512 -6.46235,3.07513 -6.51249,17.99349 -12.95714,23.95507 -2.93708,2.71687 -8.27874,5.22891 -10.35249,1.3937 -2.32481,-4.29931 -4.40565,-7.70989 -7.89465,-4.82972 -5.85385,4.83234 -5.99497,13.94371 -12.24325,19.6235 -4.80446,4.36735 -17.2546,9.75843 -19.43568,2.79704 -2.30105,-7.34455 -6.59262,-8.08018 -11.10495,-5.8992 -3.34389,1.61617 -14.93513,11.72809 -17.64934,1.90741 -1.00325,-3.62995 -3.08101,-5.27799 -6.65147,-6.04581 -5.31537,-1.14297 -16.20688,-0.81661 -18.44792,-7.05643 -2.24103,-6.23987 6.36938,-12.91761 9.74294,-17.18128 2.26608,-2.864 2.82057,-5.45735 1.28506,-8.89615 -4.15424,-9.3035 11.22191,-8.87697 14.82997,-9.75754 4.86884,-1.18825 7.71172,-4.48631 4.81419,-11.61657 -2.74638,-6.75832 10.28886,-10.52037 16.7741,-10.2077 8.43417,0.40651 14.34005,7.34619 21.93074,7.34985 4.52422,0.002 3.95969,-3.95288 3.01787,-8.74891 -0.84018,-4.27822 4.87907,-5.73876 8.87365,-5.51132 8.76498,0.49901 18.29522,11.97659 25.23742,10.2374 8.71969,-2.18434 -5.91157,-10.61106 11.4293,-10.30046 7.40868,0.13268 27.99633,3.8736 30.6519,11.26756 2.65551,7.39394 -10.84768,23.37863 -16.47905,28.19468 z"
     id="path4303" /><path
     style="fill:#32ac60;fill-opacity:1;fill-rule:evenodd;stroke:#000000;stroke-width:1;stroke-linecap:butt;stroke-linejoin:miter;stroke-miterlimit:4;stroke-dasharray:none;stroke-opacity:1"
     d="m 271.40582,182.40813 c 14.77229,-8.94122 -2.02474,-8.27479 4.16119,-14.74244 4.92499,-5.14924 19.04412,-0.53853 26.69238,-4.76981 3.48558,-1.92834 7.52826,-6.19391 4.55006,-9.35185 -3.3386,-3.54024 -5.91322,-6.57234 -2.10098,-8.97144 6.3962,-4.02531 15.05402,-1.31383 22.37456,-5.44733 5.62893,-3.17844 14.61296,-13.26526 8.7128,-17.50082 -6.22487,-4.4686 -5.58037,-8.75548 -2.1096,-12.3404 2.57201,-2.65658 15.75084,-10.457448 7.31405,-16.089816 -3.11847,-2.081845 -4.02772,-4.560694 -3.63872,-8.175877 0.5791,-5.381951 4.28836,-15.576688 -0.91095,-19.643629 -5.19928,-4.066941 -14.20076,1.988139 -19.28496,3.846158 -3.41508,1.248064 -6.0399,0.962522 -8.81148,-1.56284 -7.49821,-6.832244 -11.896,7.837251 -13.85509,10.973294 -2.64363,4.2319 -6.64912,5.88974 -12.48524,0.924133 -5.53169,-4.706602 -13.15833,6.442036 -14.88771,12.67068 -2.24913,8.100467 2.46746,15.850577 0.10085,23.027827 -1.4109,4.27773 -4.97335,2.50912 -9.21336,0.12123 -3.78229,-2.13002 -6.94878,2.82078 -7.98107,6.66816 -2.26499,8.44214 5.60997,21.03551 1.79823,27.05552 -4.78771,7.56136 -8.18571,-8.9019 -13.30657,7.58885 -2.18787,7.04544 -5.07948,27.67671 1.08148,32.49591 6.16098,4.81918 25.48881,-2.9555 31.80013,-6.77551 z"
     id="path4305" /><path
     id="path4307"
     d="m 189.59418,182.40813 c -14.77229,-8.94122 2.02474,-8.27479 -4.16119,-14.74244 -4.92499,-5.14924 -19.04412,-0.53853 -26.69238,-4.76981 -3.48558,-1.92834 -7.52826,-6.19391 -4.55005,-9.35185 3.33859,-3.54024 5.91321,-6.57234 2.10097,-8.97144 -6.3962,-4.02531 -15.05402,-1.31383 -22.37456,-5.44733 -5.62893,-3.17844 -14.61296,-13.26526 -8.7128,-17.50082 6.22487,-4.4686 5.58037,-8.75548 2.1096,-12.3404 -2.57201,-2.65658 -15.75084,-10.457448 -7.31405,-16.089816 3.11847,-2.081845 4.02772,-4.560694 3.63872,-8.175877 -0.5791,-5.381951 -4.28836,-15.576688 0.91095,-19.643629 5.19928,-4.066941 14.20076,1.988139 19.28496,3.846158 3.41508,1.248064 6.0399,0.962522 8.81148,-1.56284 7.49821,-6.832244 11.896,7.837251 13.85509,10.973294 2.64363,4.2319 6.64912,5.88974 12.48524,0.924133 5.53169,-4.706602 13.15833,6.442036 14.88771,12.67068 2.24913,8.100467 -2.46746,15.850577 -0.10085,23.027827 1.41091,4.27773 4.97335,2.50912 9.21336,0.12123 3.78229,-2.13002 6.94878,2.82078 7.98107,6.66816 2.26499,8.44214 -5.60997,21.03551 -1.79823,27.05552 4.78771,7.56136 8.18571,-8.9019 13.30657,7.58885 2.18788,7.04544 5.07948,27.67671 -1.08148,32.49591 -6.16098,4.81918 -25.48881,-2.9555 -31.80013,-6.77551 z"
     style="fill:#32ac60;fill-opacity:1;fill-rule:evenodd;stroke:#000000;stroke-width:1;stroke-linecap:butt;stroke-linejoin:miter;stroke-miterlimit:4;stroke-dasharray:none;stroke-opacity:1" /></svg>