<?xml version="1.0" encoding="UTF-8" standalone="no"?>
<svg
   xmlns:dc="http://purl.org/dc/elements/1.1/"
   xmlns:cc="http://creativecommons.org/ns#"
   xmlns:rdf="http://www.w3.org/1999/02/22-rdf-syntax-ns#"
   xmlns:svg="http://www.w3.org/2000/svg"
   xmlns="http://www.w3.org/2000/svg"
   id="svg2"
   version="1.1"
   x="0"
   y="0"
   width="400"
   height="500"
   viewBox="30.5 31.5 400 500"
   enable-background="new 30.5 31.5 412 533"
   xml:space="preserve"><metadata
     id="metadata4"><rdf:RDF><cc:Work
         rdf:about=""><dc:format>
          
          
          
          
          
          image/svg+xml
        
        
        
        
        
        </dc:format><dc:type
           rdf:resource="http://purl.org/dc/dcmitype/StillImage" /><dc:title></dc:title></cc:Work></rdf:RDF></metadata><defs
     id="defs6" /><path
     style="fill:#e00e00;fill-opacity:1"
     id="path8"
     d="M 230.67,530.86 C 156.35,476.94 105.41,408.84 74.93,322.7 47.29,244.6 36.2,149.95 41.02,33.35 l 0.02,-0.46 379.82,0 0.02,0.46 c 4.81,116.6 -6.28,211.24 -33.91,289.35 -30.48,86.14 -81.42,154.24 -155.74,208.16 l -0.28,0.2 -0.28,-0.2 z" /><path
     id="path10"
     d="M 419.96,33.21 C 429.03,252.66 383.7,419.16 230.5,530.31 77.31,419.16 31.99,252.66 41.06,33.21 l 189.45,0 189.45,0 m 0.92,-0.95 -0.92,0 -189.45,0 -189.45,0 -0.92,0 -0.04,0.92 c -4.82,116.66 6.28,211.36 33.93,289.52 30.51,86.24 81.51,154.41 155.91,208.39 l 0.56,0.41 0.56,-0.41 C 305.46,477.11 356.46,408.94 386.97,322.7 414.62,244.54 425.72,149.84 420.9,33.18 l -0.04,-0.92 0,0 z" /><path
     id="path4934"
     d="m 205.61938,63.537807 3.39439,29.160849 -27.00079,12.806084 27.61795,12.80609 -4.16584,27.00079 17.12622,-10.95461 c -0.35969,11.31823 0.42889,27.28261 -1.08004,33.94385 -2.73314,12.06564 -17.44459,19.72076 -36.41248,27.61794 -13.33527,5.55207 -33.63349,21.45205 -36.56678,49.06429 -2.73052,25.70356 -1.02357,51.44324 -2.62294,76.06507 -0.89373,13.7586 -1.78542,20.24235 -8.17738,28.23511 -2.38208,2.97864 -9.68573,6.41168 -15.12044,8.17738 2.27692,5.17877 10.59821,12.17588 20.98347,9.56599 10.93725,-2.74861 16.71507,-14.55166 18.51483,-26.22933 2.46558,-15.99778 3.19851,-29.46594 3.39438,-50.01312 0.23583,-24.73863 4.73188,-41.91581 12.80609,-55.05851 8.55589,-13.92675 21.63294,-33.94385 52.18998,-33.94385 30.55704,0 43.63409,20.0171 52.18998,33.94385 8.07421,13.1427 12.57026,30.31988 12.80609,55.05851 0.19587,20.54718 0.9288,34.01534 3.39438,50.01312 1.79976,11.67767 7.57758,23.48072 18.51483,26.22933 10.38526,2.60989 18.70655,-4.38722 20.98347,-9.56599 -5.43471,-1.7657 -12.73836,-5.19874 -15.12044,-8.17738 -6.39196,-7.99276 -7.28365,-14.47651 -8.17738,-28.23511 -1.59937,-24.62183 0.10758,-50.36151 -2.62294,-76.06507 -2.93329,-27.61224 -23.23151,-43.51222 -36.56678,-49.06429 -18.96789,-7.89718 -33.67934,-15.5523 -36.41248,-27.61794 -1.50893,-6.66124 -0.72035,-22.62562 -1.08004,-33.94385 l 17.12622,10.95461 -4.16584,-27.00079 27.61795,-12.80609 L 251.98623,92.698656 255.38062,63.537807 230.5,80.81831 Z"
     style="fill:#ffe000;fill-rule:evenodd;stroke:#000000;stroke-width:1px;stroke-linecap:round;stroke-linejoin:round;stroke-opacity:1;fill-opacity:1" /><circle
     r="5.2030773"
     cy="356.92062"
     cx="142.28325"
     id="path4940"
     style="fill:none;fill-opacity:1;fill-rule:evenodd;stroke:#000000;stroke-width:1;stroke-linecap:round;stroke-linejoin:round;stroke-miterlimit:4;stroke-dasharray:none;stroke-opacity:1" /><path
     style="fill:none;fill-rule:evenodd;stroke:#000000;stroke-width:1px;stroke-linecap:butt;stroke-linejoin:miter;stroke-opacity:1"
     d="m 238.40869,134.35701 0.1543,-30.08659 c 0.0394,-7.692393 -3.59558,-12.868096 -8.06299,-13.423247 -4.46741,0.555151 -8.10239,5.730854 -8.06299,13.423247 l 0.1543,30.08659"
     id="path4944" /><circle
     transform="scale(-1,1)"
     style="fill:none;fill-opacity:1;fill-rule:evenodd;stroke:#000000;stroke-width:1;stroke-linecap:round;stroke-linejoin:round;stroke-miterlimit:4;stroke-dasharray:none;stroke-opacity:1"
     id="circle4946"
     cx="-318.71674"
     cy="356.92062"
     r="5.2030773" /></svg>