<?xml version="1.0" encoding="UTF-8" standalone="no"?>
<svg
   xmlns:dc="http://purl.org/dc/elements/1.1/"
   xmlns:cc="http://creativecommons.org/ns#"
   xmlns:rdf="http://www.w3.org/1999/02/22-rdf-syntax-ns#"
   xmlns:svg="http://www.w3.org/2000/svg"
   xmlns="http://www.w3.org/2000/svg"
   id="svg2"
   version="1.1"
   x="0"
   y="0"
   width="400"
   height="500"
   viewBox="30.5 31.5 400 500"
   enable-background="new 30.5 31.5 412 533"
   xml:space="preserve"><metadata
     id="metadata4"><rdf:RDF><cc:Work
         rdf:about=""><dc:format>
          
          
          
          
          
          image/svg+xml
        
        
        
        
        
        </dc:format><dc:type
           rdf:resource="http://purl.org/dc/dcmitype/StillImage" /><dc:title></dc:title></cc:Work></rdf:RDF></metadata><defs
     id="defs6" /><path
     style="fill:#0085ca;fill-opacity:1"
     id="path8"
     d="M 230.67,530.86 C 156.35,476.94 105.41,408.84 74.93,322.7 47.29,244.6 36.2,149.95 41.02,33.35 l 0.02,-0.46 379.82,0 0.02,0.46 c 4.81,116.6 -6.28,211.24 -33.91,289.35 -30.48,86.14 -81.42,154.24 -155.74,208.16 l -0.28,0.2 -0.28,-0.2 z" /><path
     style="fill:#ffffff;fill-rule:evenodd;stroke:none;stroke-width:1px;stroke-linecap:butt;stroke-linejoin:miter;stroke-opacity:1"
     d="M 359.1342,384.87632 218.02838,270.92979 C 202.66903,258.52673 183.52334,239.97675 171.63304,226.93045 151.3842,204.71296 140.80963,189.81997 125.67333,167.90164 111.3031,147.09261 97.50471,118.99299 78.25265,103.19895 72.11326,98.162309 63.91276,92.06171 59.9559,93.39712 c -4.62374,1.560478 3.61032,19.05071 10.25345,19.81609 l 6.91704,0.79694 c 6.68057,0.7697 15.23194,28.12705 18.05236,37.33728 5.59436,18.26873 9.61479,35.57702 16.77202,54.01899 9.72962,25.07022 27.4459,51.7331 44.43497,68.39501 12.10964,11.87645 25.01691,22.55263 39.64264,34.25745 L 337.4631,421.2076 c 7.84438,-11.33457 14.97937,-23.55589 21.6711,-36.33128 z"
     id="path4524" /><path
     id="path4522"
     d="M 384.74394,327.16459 272.05456,236.16506 C 256.69521,223.762 237.54952,205.21202 225.65922,192.16572 205.41038,169.94823 194.83581,155.05524 179.69951,133.13691 165.32928,112.32788 151.53089,84.228265 132.27882,68.434225 c -6.13939,-5.036641 -14.33989,-11.13724 -18.29675,-9.80183 -4.62374,1.560478 3.61033,19.05071 10.25345,19.81609 l 6.91704,0.79694 c 6.68058,0.7697 15.23195,28.127045 18.05237,37.337275 5.59436,18.26873 9.61479,35.57702 16.77202,54.01899 9.72962,25.07022 27.4459,51.7331 44.43497,68.39501 12.10964,11.87645 25.01691,22.55263 39.64264,34.25745 l 117.77171,94.25146 c 6.40824,-13.44701 12.14044,-26.89401 16.91767,-40.34102 z"
     style="fill:#ffffff;fill-rule:evenodd;stroke:none;stroke-width:1px;stroke-linecap:butt;stroke-linejoin:miter;stroke-opacity:1" /><path
     id="path10"
     d="M 419.96,33.21 C 429.03,252.66 383.7,419.16 230.5,530.31 77.31,419.16 31.99,252.66 41.06,33.21 l 189.45,0 189.45,0 m 0.92,-0.95 -0.92,0 -189.45,0 -189.45,0 -0.92,0 -0.04,0.92 c -4.82,116.66 6.28,211.36 33.93,289.52 30.51,86.24 81.51,154.41 155.91,208.39 l 0.56,0.41 0.56,-0.41 C 305.46,477.11 356.46,408.94 386.97,322.7 414.62,244.54 425.72,149.84 420.9,33.18 l -0.04,-0.92 0,0 z" /><path
     id="path4506"
     d="M 359.1342,384.87632 218.02838,270.92979 C 202.66903,258.52673 183.52334,239.97675 171.63304,226.93045 151.3842,204.71296 140.80963,189.81997 125.67333,167.90164 111.3031,147.09261 97.50471,118.99299 78.25265,103.19895 72.11326,98.162309 63.91276,92.06171 59.9559,93.39712 c -4.62374,1.560478 3.61032,19.05071 10.25345,19.81609 l 6.91704,0.79694 c 6.68057,0.7697 15.23194,28.12705 18.05236,37.33728 5.59436,18.26873 9.61479,35.57702 16.77202,54.01899 9.72962,25.07022 27.4459,51.7331 44.43497,68.39501 12.10964,11.87645 25.01691,22.55263 39.64264,34.25745 L 337.4631,421.2076"
     style="fill:none;fill-rule:evenodd;stroke:#000000;stroke-width:1px;stroke-linecap:butt;stroke-linejoin:miter;stroke-opacity:1" /><path
     style="fill:none;fill-rule:evenodd;stroke:#000000;stroke-width:1px;stroke-linecap:butt;stroke-linejoin:miter;stroke-opacity:1"
     d="M 384.74394,327.16459 272.05456,236.16506 C 256.69521,223.762 237.54952,205.21202 225.65922,192.16572 205.41038,169.94823 194.83581,155.05524 179.69951,133.13691 165.32928,112.32788 151.53089,84.228265 132.27882,68.434225 c -6.13939,-5.036641 -14.33989,-11.13724 -18.29675,-9.80183 -4.62374,1.560478 3.61033,19.05071 10.25345,19.81609 l 6.91704,0.79694 c 6.68058,0.7697 15.23195,28.127045 18.05237,37.337275 5.59436,18.26873 9.61479,35.57702 16.77202,54.01899 9.72962,25.07022 27.4459,51.7331 44.43497,68.39501 12.10964,11.87645 25.01691,22.55263 39.64264,34.25745 l 117.77171,94.25146"
     id="path4516" /></svg>