<?xml version="1.0" encoding="UTF-8" standalone="no"?>
<svg
   xmlns:dc="http://purl.org/dc/elements/1.1/"
   xmlns:cc="http://creativecommons.org/ns#"
   xmlns:rdf="http://www.w3.org/1999/02/22-rdf-syntax-ns#"
   xmlns:svg="http://www.w3.org/2000/svg"
   xmlns="http://www.w3.org/2000/svg"
   id="svg2"
   height="500"
   width="400"
   version="1">
  <metadata
     id="metadata51">
    <rdf:RDF>
      <cc:Work
         rdf:about="">
        <dc:format>
          
          image/svg+xml
        
        </dc:format>
        <dc:type
           rdf:resource="http://purl.org/dc/dcmitype/StillImage" />
        <dc:title></dc:title>
      </cc:Work>
    </rdf:RDF>
  </metadata>
  <defs
     id="defs4" />
  <path
     style="fill:#004899;fill-opacity:1;fill-rule:nonzero"
     d="m 396.64,1.45 -393.73,0 0,301.05 0,0 0,0.09 c 0,108.73 88.14,196.86 196.86,196.86 108.72,0 196.87,-88.14 196.87,-196.86 l 0,-0.09 0,0 z"
     id="path2418" />
  <path
     style="fill:#ffffff;fill-rule:evenodd;stroke:#000000;stroke-width:1px;stroke-linecap:round;stroke-linejoin:round;stroke-opacity:1"
     d="m 218.54546,117.5 c 8.105,-11.60585 9.70809,-25.54639 10.03234,-35.299389 0.36114,-10.862672 -0.45613,-23.650955 7.52425,-27.370848 -2.03222,2.11481 -1.57581,9.173722 5.83015,9.609384 5.84957,0.344106 12.20139,-4.591245 12.21329,-13.153418 0.0111,-8.032792 -7.24105,-14.059673 -14.66297,-14.121613 -7.60949,-0.06351 -17.50869,6.541592 -18.75612,18.75612 -0.86534,-4.850483 -2.13403,-8.703854 -5.56829,-12.528515 -3.16677,-3.526759 -8.76075,-6.118557 -15.15811,-6.118557 -6.39736,0 -11.99134,2.591798 -15.15811,6.118557 -3.43426,3.824661 -4.70295,7.678032 -5.56829,12.528515 -1.24743,-12.214528 -11.14663,-18.819629 -18.75612,-18.75612 -7.42192,0.06194 -14.67411,6.088821 -14.66297,14.121613 0.0119,8.562173 6.36372,13.497524 12.21329,13.153418 7.40596,-0.435662 7.86237,-7.494574 5.83015,-9.609384 7.98038,3.719893 7.16311,16.508176 7.52425,27.370848 0.32425,9.752999 1.92734,23.693539 10.03234,35.299389 z"
     id="path4506" />
  <path
     id="path4482"
     d="m 200,128 -25.11902,0 -8.6361,265.74515 c 22.50348,0.11294 45.00675,0.0514 67.51024,0 L 225.11902,128 200,128"
     style="fill:#ffffff;fill-rule:evenodd;stroke:#000000;stroke-width:1px;stroke-linecap:butt;stroke-linejoin:miter;stroke-opacity:1" />
  <path
     id="path4490"
     d="m 153.13672,415.7207 0,78.15821 c 14.95124,3.63218 30.56436,5.57031 46.63281,5.57031 16.23296,0 32.00289,-1.97859 47.09375,-5.6836 l 0,-78.04492 -46.86328,0 -46.86328,0 z"
     style="fill:#ffffff;fill-rule:evenodd;stroke:#000000;stroke-width:1px;stroke-linecap:butt;stroke-linejoin:miter;stroke-opacity:1" />
  <path
     style="fill:none;stroke:#000000"
     id="path4300"
     d="m 396.64,1.45 -393.73,0 0,301.05 0,0 c 0,0.03 0,0.06 0,0.09 0,108.73 88.14,196.86 196.86,196.86 108.72,0 196.87,-88.14 196.87,-196.86 0,-0.03 0,-0.06 0,-0.09 l 0,0 0,-301.05 z" />
  <path
     id="path4458"
     d="m 149,37 0,-15 102,0 0,15 z"
     style="fill:#ffffff;fill-rule:evenodd;stroke:#000000;stroke-width:1px;stroke-linecap:butt;stroke-linejoin:miter;stroke-opacity:1" />
  <path
     id="path4466"
     d="m 191.30499,57.34211 c 1.4086,3.169705 5.36782,4.857805 8.69501,4.857805 3.32719,0 7.28641,-1.6881 8.69501,-4.857805"
     style="fill:none;fill-rule:evenodd;stroke:#000000;stroke-width:1px;stroke-linecap:round;stroke-linejoin:miter;stroke-opacity:1" />
  <path
     id="path4468"
     d="m 193.54112,60.117998 c -5.2812,8.546099 -7.31014,18.968463 -7.25215,28.450457 0.0868,14.192955 4.60693,22.471145 6.17264,28.931545"
     style="fill:none;fill-rule:evenodd;stroke:#000000;stroke-width:1px;stroke-linecap:butt;stroke-linejoin:miter;stroke-opacity:1" />
  <path
     id="path4474"
     d="m 174.88098,128 c -5.93732,0 -5.93732,-10.5 0,-10.5 l 50.23804,0 c 5.93732,0 5.93732,10.5 0,10.5 z"
     style="fill:#ffffff;fill-rule:evenodd;stroke:#000000;stroke-width:1px;stroke-linecap:butt;stroke-linejoin:miter;stroke-opacity:1" />
  <path
     id="path4498"
     d="m 165.08826,404.69449 c -7.94212,0 -7.94212,-10.87223 0,-10.87223 l 34.91174,0 34.91174,0 c 7.94212,0 7.94212,10.87223 0,10.87223"
     style="fill:#ffffff;fill-rule:evenodd;stroke:#000000;stroke-width:1px;stroke-linecap:butt;stroke-linejoin:miter;stroke-opacity:1" />
  <path
     style="fill:#ffffff;fill-rule:evenodd;stroke:#000000;stroke-width:1px;stroke-linecap:butt;stroke-linejoin:miter;stroke-opacity:1"
     d="m 161.31958,415.72094 c -7.94212,0 -8.17344,-11.02645 -0.23132,-11.02645 l 38.91174,0 38.91174,0 c 7.94212,0 7.7108,11.02645 -0.23132,11.02645 l -38.68042,0 z"
     id="path4500" />
  <path
     style="fill:none;fill-rule:evenodd;stroke:#000000;stroke-width:1px;stroke-linecap:butt;stroke-linejoin:miter;stroke-opacity:1"
     d="m 206.45888,60.117998 c 5.2812,8.546099 7.31014,18.968463 7.25215,28.450457 -0.0868,14.192955 -4.60693,22.471145 -6.17264,28.931545"
     id="path4504" />
  <circle
     r="16.94109"
     cy="447.99799"
     cx="200"
     id="path4518"
     style="opacity:1;fill:#ffffff;fill-opacity:1;fill-rule:evenodd;stroke:#000000;stroke-width:0.84888333;stroke-linecap:round;stroke-linejoin:round;stroke-miterlimit:4;stroke-dasharray:none;stroke-opacity:1" />
  <circle
     r="16.94109"
     cy="451.1911"
     cx="166"
     id="circle4536"
     style="opacity:1;fill:#ffffff;fill-opacity:1;fill-rule:evenodd;stroke:#000000;stroke-width:0.84888321;stroke-linecap:round;stroke-linejoin:round;stroke-miterlimit:4;stroke-dasharray:none;stroke-opacity:1" />
  <circle
     style="opacity:1;fill:#ffffff;fill-opacity:1;fill-rule:evenodd;stroke:#000000;stroke-width:0.84888321;stroke-linecap:round;stroke-linejoin:round;stroke-miterlimit:4;stroke-dasharray:none;stroke-opacity:1"
     id="circle4542"
     cx="132.00002"
     cy="455.00711"
     r="16.94109" />
  <circle
     style="opacity:1;fill:#ffffff;fill-opacity:1;fill-rule:evenodd;stroke:#000000;stroke-width:0.84888321;stroke-linecap:round;stroke-linejoin:round;stroke-miterlimit:4;stroke-dasharray:none;stroke-opacity:1"
     id="circle4538"
     cx="149"
     cy="470.00763"
     r="16.94109" />
  <circle
     r="16.94109"
     cy="466.70239"
     cx="183"
     id="circle4540"
     style="opacity:1;fill:#ffffff;fill-opacity:1;fill-rule:evenodd;stroke:#000000;stroke-width:0.84888321;stroke-linecap:round;stroke-linejoin:round;stroke-miterlimit:4;stroke-dasharray:none;stroke-opacity:1" />
  <path
     id="circle4544"
     d="m 98,441.54883 a 16.94109,16.94109 0 0 0 -16.94141,16.9414 16.94109,16.94109 0 0 0 0.043,1.17383 c 7.16033,5.41798 14.70331,10.35377 22.58008,14.76758 A 16.94109,16.94109 0 0 0 114.94141,458.49023 16.94109,16.94109 0 0 0 98,441.54883 Z"
     style="opacity:1;fill:#ffffff;fill-opacity:1;fill-rule:evenodd;stroke:#000000;stroke-width:0.84888321;stroke-linecap:round;stroke-linejoin:round;stroke-miterlimit:4;stroke-dasharray:none;stroke-opacity:1" />
  <path
     id="circle4546"
     d="m 115,456.14648 a 16.94109,16.94109 0 0 0 -16.83203,15.08594 c 9.0346,5.45461 18.54528,10.2006 28.45117,14.16797 A 16.94109,16.94109 0 0 0 131.94141,473.08594 16.94109,16.94109 0 0 0 115,456.14648 Z"
     style="opacity:1;fill:#ffffff;fill-opacity:1;fill-rule:evenodd;stroke:#000000;stroke-width:0.84888321;stroke-linecap:round;stroke-linejoin:round;stroke-miterlimit:4;stroke-dasharray:none;stroke-opacity:1" />
  <path
     id="circle4548"
     d="m 132,474.68359 a 16.94109,16.94109 0 0 0 -13.79102,7.12305 c 9.81812,4.47526 20.07138,8.15892 30.67383,10.98828 A 16.94109,16.94109 0 0 0 148.94141,491.625 16.94109,16.94109 0 0 0 132,474.68359 Z"
     style="opacity:1;fill:#ffffff;fill-opacity:1;fill-rule:evenodd;stroke:#000000;stroke-width:0.84888321;stroke-linecap:round;stroke-linejoin:round;stroke-miterlimit:4;stroke-dasharray:none;stroke-opacity:1" />
  <path
     id="circle4550"
     d="m 166,471.20898 a 16.94109,16.94109 0 0 0 -16.94141,16.94141 16.94109,16.94109 0 0 0 0.73633,4.89063 c 9.61973,2.5173 19.52376,4.33204 29.6582,5.37109 A 16.94109,16.94109 0 0 0 182.94141,488.15039 16.94109,16.94109 0 0 0 166,471.20898 Z"
     style="opacity:1;fill:#ffffff;fill-opacity:1;fill-rule:evenodd;stroke:#000000;stroke-width:0.84888321;stroke-linecap:round;stroke-linejoin:round;stroke-miterlimit:4;stroke-dasharray:none;stroke-opacity:1" />
  <circle
     transform="scale(-1,1)"
     style="opacity:1;fill:#ffffff;fill-opacity:1;fill-rule:evenodd;stroke:#000000;stroke-width:0.84888321;stroke-linecap:round;stroke-linejoin:round;stroke-miterlimit:4;stroke-dasharray:none;stroke-opacity:1"
     id="circle4556"
     cx="-234"
     cy="451.1911"
     r="16.94109" />
  <circle
     transform="scale(-1,1)"
     r="16.94109"
     cy="455.00711"
     cx="-268"
     id="circle4562"
     style="opacity:1;fill:#ffffff;fill-opacity:1;fill-rule:evenodd;stroke:#000000;stroke-width:0.84888321;stroke-linecap:round;stroke-linejoin:round;stroke-miterlimit:4;stroke-dasharray:none;stroke-opacity:1" />
  <circle
     transform="scale(-1,1)"
     r="16.94109"
     cy="470.00763"
     cx="-251"
     id="circle4558"
     style="opacity:1;fill:#ffffff;fill-opacity:1;fill-rule:evenodd;stroke:#000000;stroke-width:0.84888321;stroke-linecap:round;stroke-linejoin:round;stroke-miterlimit:4;stroke-dasharray:none;stroke-opacity:1" />
  <circle
     transform="scale(-1,1)"
     style="opacity:1;fill:#ffffff;fill-opacity:1;fill-rule:evenodd;stroke:#000000;stroke-width:0.84888321;stroke-linecap:round;stroke-linejoin:round;stroke-miterlimit:4;stroke-dasharray:none;stroke-opacity:1"
     id="circle4560"
     cx="-217"
     cy="466.70239"
     r="16.94109" />
  <path
     id="circle4564"
     d="m 302,441.54883 a 16.94109,16.94109 0 0 0 -16.94141,16.9414 16.94109,16.94109 0 0 0 10.97071,15.84375 c 7.98907,-4.48718 15.63297,-9.5133 22.88281,-15.0332 a 16.94109,16.94109 0 0 0 0.0293,-0.81055 A 16.94109,16.94109 0 0 0 302,441.54883 Z"
     style="opacity:1;fill:#ffffff;fill-opacity:1;fill-rule:evenodd;stroke:#000000;stroke-width:0.84888321;stroke-linecap:round;stroke-linejoin:round;stroke-miterlimit:4;stroke-dasharray:none;stroke-opacity:1" />
  <path
     id="circle4566"
     d="m 285,456.14648 a 16.94109,16.94109 0 0 0 -16.94141,16.93946 16.94109,16.94109 0 0 0 5.17383,12.18554 c 9.94704,-4.00384 19.49732,-8.78515 28.5625,-14.28906 A 16.94109,16.94109 0 0 0 285,456.14648 Z"
     style="opacity:1;fill:#ffffff;fill-opacity:1;fill-rule:evenodd;stroke:#000000;stroke-width:0.84888321;stroke-linecap:round;stroke-linejoin:round;stroke-miterlimit:4;stroke-dasharray:none;stroke-opacity:1" />
  <path
     id="circle4568"
     d="m 268,474.68359 a 16.94109,16.94109 0 0 0 -16.94141,16.94141 16.94109,16.94109 0 0 0 0.0527,1.04688 c 10.56388,-2.84649 20.77672,-6.54392 30.55859,-11.0254 A 16.94109,16.94109 0 0 0 268,474.68359 Z"
     style="opacity:1;fill:#ffffff;fill-opacity:1;fill-rule:evenodd;stroke:#000000;stroke-width:0.84888321;stroke-linecap:round;stroke-linejoin:round;stroke-miterlimit:4;stroke-dasharray:none;stroke-opacity:1" />
  <path
     id="circle4570"
     d="m 234,471.20898 a 16.94109,16.94109 0 0 0 -16.94141,16.94141 16.94109,16.94109 0 0 0 3.45118,10.21289 c 10.16383,-1.06439 20.09648,-2.90572 29.74023,-5.45703 a 16.94109,16.94109 0 0 0 0.69141,-4.75586 A 16.94109,16.94109 0 0 0 234,471.20898 Z"
     style="opacity:1;fill:#ffffff;fill-opacity:1;fill-rule:evenodd;stroke:#000000;stroke-width:0.84888321;stroke-linecap:round;stroke-linejoin:round;stroke-miterlimit:4;stroke-dasharray:none;stroke-opacity:1" />
  <path
     id="circle4572"
     d="m 200,467.78906 a 16.94109,16.94109 0 0 0 -16.94141,16.93946 16.94109,16.94109 0 0 0 8.26368,14.52929 c 2.80256,0.11838 5.61558,0.19141 8.44726,0.19141 2.99533,0 5.97286,-0.0786 8.93555,-0.21094 A 16.94109,16.94109 0 0 0 216.94141,484.72852 16.94109,16.94109 0 0 0 200,467.78906 Z"
     style="opacity:1;fill:#ffffff;fill-opacity:1;fill-rule:evenodd;stroke:#000000;stroke-width:0.84888321;stroke-linecap:round;stroke-linejoin:round;stroke-miterlimit:4;stroke-dasharray:none;stroke-opacity:1" />
  <path
     id="path4586"
     d="m 111.52251,125.24191 -30.56184,30.07802 12.90209,13.86975 8.87019,-8.87019 -7.74125,-7.74126 5.32211,-5.32211 7.74125,7.74126 9.35403,-9.35403 4.99957,4.99957 -9.35403,9.35403 7.86221,7.86221 -5.32211,5.32211 -7.86221,-7.86221 -8.87019,8.87019 13.30528,13.30529 30.56185,-30.07802"
     style="fill:#ffffff;fill-rule:evenodd;stroke:#000000;stroke-width:1px;stroke-linecap:butt;stroke-linejoin:miter;stroke-opacity:1" />
  <path
     style="fill:#ffffff;fill-rule:evenodd;stroke:#000000;stroke-width:1.09610653px;stroke-linecap:butt;stroke-linejoin:miter;stroke-opacity:1"
     d="m 267.32733,287.71292 -157.63617,-164.30621 -4.15547,-7.3581 2.56908,-2.3215 6.97587,3.97449 158.19833,163.93468"
     id="path4578" />
  <path
     id="path4582"
     d="m 109.69116,123.40671 5.38948,-5.62448"
     style="fill:none;fill-rule:evenodd;stroke:#000000;stroke-width:1px;stroke-linecap:butt;stroke-linejoin:miter;stroke-opacity:1" />
  <circle
     r="4.3750648"
     cy="112.72175"
     cx="104.80638"
     id="path4574"
     style="opacity:1;fill:#ffffff;fill-opacity:1;fill-rule:evenodd;stroke:#000000;stroke-width:1.00628102;stroke-linecap:round;stroke-linejoin:round;stroke-miterlimit:4;stroke-dasharray:none;stroke-opacity:1" />
  <circle
     transform="matrix(0.74877944,-0.66281925,0.66281925,0.74877944,0,0)"
     r="6.5772624"
     cy="400.49863"
     cx="14.42287"
     id="path4634"
     style="opacity:1;fill:#ffffff;fill-opacity:1;fill-rule:evenodd;stroke:#000000;stroke-width:1.05463386;stroke-linecap:round;stroke-linejoin:round;stroke-miterlimit:4;stroke-dasharray:none;stroke-opacity:1" />
  <circle
     style="opacity:1;fill:#ffffff;fill-opacity:1;fill-rule:evenodd;stroke:#000000;stroke-width:1.11814427;stroke-linecap:round;stroke-linejoin:round;stroke-miterlimit:4;stroke-dasharray:none;stroke-opacity:1"
     id="circle4636"
     cx="16.215076"
     cy="443.73987"
     r="6.9733477"
     transform="matrix(0.74877944,-0.66281925,0.66281925,0.74877944,0,0)" />
  <path
     id="path4638"
     d="m 297.63556,331.09885 c -0.58819,2.78211 -3.18087,4.22972 -4.90505,3.53909 -4.02463,-1.61208 -2.70164,-8.88071 3.10447,-9.37549 4.74531,-0.40436 8.22956,3.7152 8.00952,8.75461 -0.34757,7.96088 -8.44647,14.32438 -18.73194,14.78826 -8.76307,0.3952 -17.535,-2.89668 -26.57425,-11.98326 -6.61482,-6.64946 -9.38386,-14.86574 -9.31342,-23.03517 0.10607,-12.29236 6.51384,-19.51297 13.84595,-20.76585 4.66444,-0.79705 9.48474,2.07474 9.9623,7.7271 0.30345,3.59126 -2.24813,6.84677 -5.42979,7.01609 -1.75221,0.0933 -4.31304,-0.46533 -5.09132,-3.16656 -0.56416,-1.95799 0.65347,-3.83218 3.72534,-4.96715 -3.9097,-1.23852 -9.87209,2.82046 -10.74145,10.86565 -0.69699,6.45018 0.8554,15.39824 9.25133,23.28351 6.02479,5.65836 12.88642,9.69026 21.23455,8.87877 9.1326,-0.88772 13.36491,-7.42716 11.65376,-11.5596 z"
     style="fill:#ffffff;fill-rule:evenodd;stroke:#000000;stroke-width:1.0889101px;stroke-linecap:round;stroke-linejoin:round;stroke-opacity:1" />
  <path
     style="fill:#ffffff;fill-rule:evenodd;stroke:#000000;stroke-width:1.0889101px;stroke-linecap:round;stroke-linejoin:round;stroke-opacity:1"
     d="m 315.77505,312.64311 c 2.78211,-0.58819 4.22974,-3.18087 3.53909,-4.90505 -1.61208,-4.02463 -8.88071,-2.70164 -9.37549,3.10447 -0.40436,4.74533 3.7152,8.22956 8.75461,8.00954 7.96088,-0.34759 14.24727,-8.29227 14.71115,-18.57774 0.3952,-8.76305 -1.22261,-17.95352 -10.30919,-26.99277 -6.64944,-6.61482 -14.68636,-9.80238 -22.85579,-9.73194 -12.29236,0.10607 -19.51299,6.59095 -20.76587,13.92306 -0.79703,4.66444 1.92054,9.48474 7.5729,9.9623 3.59126,0.30345 7.00099,-2.32524 7.17031,-5.5069 0.0933,-1.75221 -0.46535,-4.31304 -3.16656,-5.09132 -1.95801,-0.56416 -3.83218,0.65347 -4.96715,3.72536 -1.23852,-3.90972 2.82044,-9.87211 10.86563,-10.74147 6.45018,-0.69699 15.2189,1.27392 23.10417,9.66985 5.65834,6.02479 8.01619,13.30494 7.2047,21.65309 -0.88774,9.13258 -7.35007,13.21067 -11.48251,11.49952 z"
     id="path4642" />
  <path
     style="fill:#ffffff;fill-rule:evenodd;stroke:#000000;stroke-width:1px;stroke-linecap:butt;stroke-linejoin:miter;stroke-opacity:1"
     d="m 314.84194,277.18475 c -1.21043,3.18435 1.303,5.78109 4.50456,4.44753 2.95745,-1.23188 6.25486,-4.22162 7.52661,-7.2415 1.43315,-3.40313 -0.74063,-6.03931 -4.56158,-4.67562 -3.15563,1.12624 -6.25802,4.28225 -7.46959,7.46959 z"
     id="path4644" />
  <path
     id="path4646"
     d="m 262.78758,328.34693 c 3.18435,-1.21043 5.78109,1.303 4.44753,4.50456 -1.23188,2.95745 -4.22162,6.25486 -7.2415,7.52661 -3.40313,1.43315 -6.03931,-0.74063 -4.67562,-4.56158 1.12624,-3.15563 4.28225,-6.25802 7.46959,-7.46959 z"
     style="fill:#ffffff;fill-rule:evenodd;stroke:#000000;stroke-width:1px;stroke-linecap:butt;stroke-linejoin:miter;stroke-opacity:1" />
  <path
     style="fill:#ffffff;fill-rule:evenodd;stroke:#000000;stroke-width:1px;stroke-linecap:butt;stroke-linejoin:miter;stroke-opacity:1"
     d="m 275.11942,272.76425 c -2.30001,-2.27894 -7.74508,0.44853 -11.45953,4.16298 -3.71445,3.71445 -6.44192,9.15952 -4.16298,11.45953 2.69781,2.72275 8.05461,-0.0666 11.80527,-3.81724 3.75067,-3.75066 6.53999,-9.10746 3.81724,-11.80527 z"
     id="path4648" />
  <path
     style="fill:#ffffff;fill-rule:evenodd;stroke:#000000;stroke-width:1px;stroke-linecap:butt;stroke-linejoin:miter;stroke-opacity:1"
     d="m 89.73214,326.80171 2.26442,2.83403 C 100.35216,325.03768 107.57489,318.9322 115,310.98987 L 283.98167,130.23725 c 7.66715,-8.20123 19.01797,-19.53721 19.70435,-24.99127 -5.45406,0.68638 -16.11211,12.47808 -24.06114,20.4064 L 104.57423,300.24687 c -7.69809,7.67803 -13.07806,15.93482 -17.67612,24.29042 l 2.83403,2.26442"
     id="path4656" />
  <rect
     transform="matrix(0.72458208,0.68918852,-0.68918852,0.72458208,0,0)"
     y="132.32047"
     x="273.65289"
     height="8.9922409"
     width="34.659328"
     id="rect4658"
     style="opacity:1;fill:#ffffff;fill-opacity:1;fill-rule:evenodd;stroke:#000000;stroke-width:1;stroke-linecap:round;stroke-linejoin:round;stroke-miterlimit:4;stroke-dasharray:none;stroke-opacity:1" />
  <circle
     r="7.3555484"
     cy="331.43668"
     cx="85.244553"
     id="path4660"
     style="opacity:1;fill:#ffffff;fill-opacity:1;fill-rule:evenodd;stroke:#000000;stroke-width:1;stroke-linecap:round;stroke-linejoin:round;stroke-miterlimit:4;stroke-dasharray:none;stroke-opacity:1" />
</svg>
