<?xml version="1.0" encoding="UTF-8" standalone="no"?>
<svg
   xmlns:dc="http://purl.org/dc/elements/1.1/"
   xmlns:cc="http://creativecommons.org/ns#"
   xmlns:rdf="http://www.w3.org/1999/02/22-rdf-syntax-ns#"
   xmlns:svg="http://www.w3.org/2000/svg"
   xmlns="http://www.w3.org/2000/svg"
   xml:space="preserve"
   enable-background="new 30.5 31.5 412 533"
   viewBox="30.5 31.5 400 500"
   height="500"
   width="400"
   y="0"
   x="0"
   version="1.1"
   id="svg2"><metadata
     id="metadata4"><rdf:RDF><cc:Work
         rdf:about=""><dc:format>
          
          
          image/svg+xml
        
        
        </dc:format><dc:type
           rdf:resource="http://purl.org/dc/dcmitype/StillImage" /><dc:title></dc:title></cc:Work></rdf:RDF></metadata><defs
     id="defs6" /><path
     style="fill:#0085ca;fill-opacity:1"
     d="M 230.56,531.14 C 304.88,477.22 355.82,409.12 386.3,322.98 413.94,244.88 425.03,150.23 420.21,33.63 l -0.02,-0.46 -379.82,0 -0.02,0.46 c -4.81,116.6 6.28,211.24 33.91,289.35 30.48,86.14 81.42,154.24 155.74,208.16 l 0.28,0.2 0.28,-0.2 z"
     id="path8" /><path
     d="M 41.04,33.21 C 31.97,252.66 77.3,419.16 230.5,530.31 383.69,419.16 429.01,252.66 419.94,33.21 l -189.45,0 -189.45,0 m -0.92,-0.95 0.92,0 189.45,0 189.45,0 0.92,0 0.04,0.92 c 4.82,116.66 -6.28,211.36 -33.93,289.52 -30.51,86.24 -81.51,154.41 -155.91,208.39 l -0.56,0.41 -0.56,-0.41 C 155.54,477.11 104.54,408.94 74.03,322.7 46.38,244.54 35.28,149.84 40.1,33.18 l 0.04,-0.92 0,0 z"
     id="path10" /><path
     d="M 223.05799,68.183978 C 216.97803,65.388974 211.26205,70.43569 211.22163,75.370005 211.17503,81.055629 214.5,85.5 220.78244,85.468974 L 107.72409,264.78229 c -8.05317,-8.32598 -22.33724,-37.00124 -22.97664,-45.5634 -1.26673,-16.96239 -1.33369,-24.44823 -1.29708,-26.24239 0.13274,-6.50568 -25.81624,-19.01563 -23.99001,-13.6534 9.74353,28.60926 16.81365,57.90101 27.35167,87.17347 7.89558,21.93227 17.78347,43.99709 28.10668,66.22162 11.6702,25.12438 26.23697,28.02684 52.2961,28.73383 42.19122,0.64336 84.37888,0.29291 126.57038,0 26.05913,-0.70699 40.6259,-3.60945 52.2961,-28.73383 10.32321,-22.22453 20.21108,-44.28935 28.10666,-66.22162 10.53805,-29.27246 17.60816,-58.56421 27.3517,-87.17347 1.82623,-5.36223 -24.12278,7.14772 -23.99001,13.6534 0.0366,1.79416 -0.0304,9.28 -1.29709,26.24239 -0.63939,8.56216 -14.92346,37.23742 -22.97664,45.5634 L 240.21756,85.468974 c 6.28244,0.03103 9.60732,-4.413345 9.56081,-10.098969 -0.0403,-4.934315 -5.7564,-9.981031 -11.83636,-7.186027 3.91252,-4.831553 -0.89691,-13.541937 -7.44201,-13.541937 -6.5451,0 -11.35453,8.710384 -7.44201,13.541937 z"
     id="path4317"
     style="fill:#ffffff;stroke:#000000;stroke-width:1;stroke-linecap:round;stroke-linejoin:round;stroke-miterlimit:4;stroke-dasharray:none;stroke-opacity:1" /><path
     style="fill:#0085ca;fill-opacity:1;stroke:#000000;stroke-width:1;stroke-linecap:round;stroke-linejoin:round;stroke-miterlimit:4;stroke-dasharray:none;stroke-opacity:1"
     id="path2829"
     d="m 237.01419,93.989889 7.34109,196.053171 c 41.69108,0.26808 47.70942,-0.39579 62.06458,-1.43737 16.59681,-1.20424 29.2418,-9.68939 39.42181,-17.61572 C 334.29657,250.44709 237.01419,93.989889 237.01419,93.989889 Z" /><path
     style="opacity:0.98999999;fill:#0085ca;fill-opacity:1;fill-rule:evenodd;stroke:#000000;stroke-width:1;stroke-miterlimit:4;stroke-dasharray:none;stroke-opacity:1"
     id="path2853"
     d="m 236.93585,76.374097 a 4.5641489,4.5641489 0 0 0 9.12829,0 4.5641489,4.5641489 0 1 0 -9.12829,0 z" /><path
     style="opacity:0.98999999;fill:#0085ca;fill-opacity:1;fill-rule:evenodd;stroke:#000000;stroke-width:1;stroke-miterlimit:4;stroke-dasharray:none;stroke-opacity:1"
     id="path3762"
     d="m 225.68246,63.232528 a 4.81754,4.81754 0 0 0 9.63508,0 4.81754,4.81754 0 1 0 -9.63508,0 z" /><path
     d="m 223.98581,93.989889 -7.34109,196.053171 c -41.69108,0.26808 -47.70942,-0.39579 -62.06458,-1.43737 -16.59681,-1.20424 -29.2418,-9.68939 -39.42181,-17.61572 11.5451,-20.54288 108.82748,-177.000081 108.82748,-177.000081 z"
     id="path4319"
     style="fill:#0085ca;fill-opacity:1;stroke:#000000;stroke-width:1;stroke-linecap:round;stroke-linejoin:round;stroke-miterlimit:4;stroke-dasharray:none;stroke-opacity:1" /><path
     d="m 224.06415,76.374097 a 4.5641489,4.5641489 0 0 1 -9.12829,0 4.5641489,4.5641489 0 1 1 9.12829,0 z"
     id="path4321"
     style="opacity:0.98999999;fill:#0085ca;fill-opacity:1;fill-rule:evenodd;stroke:#000000;stroke-width:1;stroke-miterlimit:4;stroke-dasharray:none;stroke-opacity:1" /></svg>