<?xml version="1.0" encoding="UTF-8" standalone="no"?>
<svg
   xmlns:dc="http://purl.org/dc/elements/1.1/"
   xmlns:cc="http://creativecommons.org/ns#"
   xmlns:rdf="http://www.w3.org/1999/02/22-rdf-syntax-ns#"
   xmlns:svg="http://www.w3.org/2000/svg"
   xmlns="http://www.w3.org/2000/svg"
   xml:space="preserve"
   enable-background="new 30.5 31.5 412 533"
   viewBox="30.5 31.5 400 500"
   height="500"
   width="400"
   y="0"
   x="0"
   version="1.1"
   id="svg2"><metadata
     id="metadata4"><rdf:RDF><cc:Work
         rdf:about=""><dc:format>
          
          
          image/svg+xml
        
        
        </dc:format><dc:type
           rdf:resource="http://purl.org/dc/dcmitype/StillImage" /><dc:title></dc:title></cc:Work></rdf:RDF></metadata><defs
     id="defs6" /><path
     d="M 230.45,531.13 C 156.13,477.21 105.19,409.11 74.71,322.97 47.07,244.87 35.98,150.22 40.8,33.62 l 0.02,-0.46 379.82,0 0.02,0.46 c 4.81,116.6 -6.28,211.24 -33.91,289.35 -30.48,86.14 -81.42,154.24 -155.74,208.16 l -0.28,0.2 -0.28,-0.2 z"
     id="path8"
     style="fill:#0085ca;fill-opacity:1" /><circle
     r="120.83585"
     cy="219.5"
     cx="230.5"
     id="circle4218"
     style="opacity:0.98999999;fill:#ffe000;fill-opacity:1;fill-rule:evenodd;stroke:none;stroke-width:0.99999994;stroke-linecap:round;stroke-linejoin:round;stroke-miterlimit:4;stroke-dasharray:none;stroke-opacity:1" /><circle
     r="98.971977"
     cy="219.5"
     cx="230.5"
     id="circle4328"
     style="opacity:0.98999999;fill:#0085ca;fill-opacity:1;fill-rule:evenodd;stroke:none;stroke-width:1;stroke-linecap:round;stroke-linejoin:round;stroke-miterlimit:4;stroke-dasharray:none;stroke-opacity:1" /><path
     style="fill:#ffe000;fill-opacity:1;fill-rule:evenodd;stroke:none;stroke-width:1px;stroke-linecap:butt;stroke-linejoin:miter;stroke-opacity:1"
     d="m 239.75,193.13246 0,-9.70989 c 0,-3.6251 3.91528,-3.96117 3.91528,-9.08345 l 0,-38.69578 c 0,-5.12228 -3.91528,-5.45835 -3.91528,-9.08345 l 0,-7.70989 c -6.29169,-0.5001 -12.41517,-0.32735 -18.5,0 l 0,7.70989 c 0,3.6251 -3.91528,3.96117 -3.91528,9.08345 l 0,38.69578 c 0,5.12228 3.91528,5.45835 3.91528,9.08345 l 0,9.70989 z"
     id="path4244" /><path
     id="path4326"
     d="m 221.25,120.85 0,5.70989 c 0,3.6251 -3.91528,3.96117 -3.91528,9.08345 l 0,38.69578 c 0,5.12228 3.91528,5.45835 3.91528,9.08345 l 0,9.70989 18.5,0 0,-9.70989 c 0,-3.6251 3.91528,-3.96117 3.91528,-9.08345 l 0,-38.69578 c 0,-5.12228 -3.91528,-5.45835 -3.91528,-9.08345 l 0,-5.70989"
     style="fill:none;fill-opacity:1;fill-rule:evenodd;stroke:#000000;stroke-width:1px;stroke-linecap:butt;stroke-linejoin:miter;stroke-opacity:1" /><path
     style="fill:#ffe000;fill-opacity:1;fill-rule:evenodd;stroke:none;stroke-width:1px;stroke-linecap:butt;stroke-linejoin:miter;stroke-opacity:1"
     d="m 256.86754,210.25 9.70989,0 c 3.6251,0 3.96117,-3.91528 9.08345,-3.91528 l 38.69578,0 c 5.12228,0 5.45835,3.91528 9.08345,3.91528 l 7.70989,0 0,18.5 -7.70989,0 c -3.6251,0 -3.96117,3.91528 -9.08345,3.91528 l -38.69578,0 c -5.12228,0 -5.45835,-3.91528 -9.08345,-3.91528 l -9.70989,0 z"
     id="path4330" /><path
     id="path4332"
     d="m 329.15,228.75 -5.70989,0 c -3.6251,0 -3.96117,3.91528 -9.08345,3.91528 l -38.69578,0 c -5.12228,0 -5.45835,-3.91528 -9.08345,-3.91528 l -9.70989,0 0,-18.5 9.70989,0 c 3.6251,0 3.96117,-3.91528 9.08345,-3.91528 l 38.69578,0 c 5.12228,0 5.45835,3.91528 9.08345,3.91528 l 5.70989,0"
     style="fill:none;fill-opacity:1;fill-rule:evenodd;stroke:#000000;stroke-width:1px;stroke-linecap:butt;stroke-linejoin:miter;stroke-opacity:1" /><path
     style="fill:#ffe000;fill-opacity:1;fill-rule:evenodd;stroke:none;stroke-width:1px;stroke-linecap:butt;stroke-linejoin:miter;stroke-opacity:1"
     d="m 204.13246,210.25 -9.70989,0 c -3.6251,0 -3.96117,-3.91528 -9.08345,-3.91528 l -38.69578,0 c -5.12228,0 -5.45835,3.91528 -9.08345,3.91528 l -7.70989,0 c -0.53716,6.34572 -0.33904,12.44635 0,18.5 l 7.70989,0 c 3.6251,0 3.96117,3.91528 9.08345,3.91528 l 38.69578,0 c 5.12228,0 5.45835,-3.91528 9.08345,-3.91528 l 9.70989,0 z"
     id="path4270" /><path
     d="M 419.96,33.21 C 429.03,252.66 383.71,419.16 230.51,530.31 146.04,469.02 94.36,390.9 66.52,296.34 64.43,289.25 62.48,282.07 60.65,274.8 49.2,229.11 42.88,179.78 40.77,126.86 39.57,96.8 39.72,65.58 41.06,33.21 l 189.45,0 189.45,0 m 0.92,-0.95 -0.92,0 -189.45,0 -189.45,0 -0.92,0 -0.04,0.92 c -4.82,116.66 6.28,211.36 33.93,289.52 30.51,86.24 81.51,154.41 155.91,208.39 l 0.56,0.41 0.56,-0.41 C 305.46,477.11 356.46,408.94 386.97,322.7 414.62,244.54 425.72,149.84 420.9,33.18 l -0.04,-0.92 0,0 z"
     id="path10" /><path
     id="path4226"
     d="m 240.66661,99.297857 0,-19.870602 c 0,-9.436819 -4.9486,-12.137283 -10.16661,-12.137283 -5.21801,0 -10.16661,2.700464 -10.16661,12.137283 l 0,19.870602"
     style="fill:#ffe000;fill-opacity:1;fill-rule:evenodd;stroke:#000000;stroke-width:1px;stroke-linecap:butt;stroke-linejoin:miter;stroke-opacity:1" /><path
     style="fill:#ffe000;fill-opacity:1;fill-rule:evenodd;stroke:#000000;stroke-width:1px;stroke-linecap:butt;stroke-linejoin:miter;stroke-opacity:1"
     d="m 240.66661,339.70214 0,19.87061 c 0,9.43682 -4.9486,12.13728 -10.16661,12.13728 -5.21801,0 -10.16661,-2.70046 -10.16661,-12.13728 l 0,-19.87061"
     id="path4248" /><path
     id="path4252"
     d="m 239.75,245.86754 0,9.70989 c 0,3.6251 3.91528,3.96117 3.91528,9.08345 l 0,38.69578 c 0,5.12228 -3.91528,5.45835 -3.91528,9.08345 l 0,7.70989 c -6.28216,0.69295 -12.42614,0.55681 -18.5,0 l 0,-7.70989 c 0,-3.6251 -3.91528,-3.96117 -3.91528,-9.08345 l 0,-38.69578 c 0,-5.12228 3.91528,-5.45835 3.91528,-9.08345 l 0,-9.70989 z"
     style="fill:#ffe000;fill-opacity:1;fill-rule:evenodd;stroke:none;stroke-width:1px;stroke-linecap:butt;stroke-linejoin:miter;stroke-opacity:1" /><path
     style="fill:none;fill-opacity:1;fill-rule:evenodd;stroke:#000000;stroke-width:1px;stroke-linecap:butt;stroke-linejoin:miter;stroke-opacity:1"
     d="m 221.25,318.15 0,-5.70989 c 0,-3.6251 -3.91528,-3.96117 -3.91528,-9.08345 l 0,-38.69578 c 0,-5.12228 3.91528,-5.45835 3.91528,-9.08345 l 0,-9.70989 18.5,0 0,9.70989 c 0,3.6251 3.91528,3.96117 3.91528,9.08345 l 0,38.69578 c 0,5.12228 -3.91528,5.45835 -3.91528,9.08345 l 0,5.70989"
     id="path4336" /><path
     style="fill:#ffe000;fill-opacity:1;fill-rule:evenodd;stroke:#000000;stroke-width:1px;stroke-linecap:butt;stroke-linejoin:miter;stroke-opacity:1"
     d="m 350.70214,229.66661 19.8706,0 c 9.43682,0 12.13729,-4.9486 12.13729,-10.16661 0,-5.21801 -2.70047,-10.16661 -12.13729,-10.16661 l -19.8706,0"
     id="path4262" /><path
     id="path4268"
     d="m 110.29786,229.66661 -19.87061,0 c -9.43682,0 -12.13728,-4.9486 -12.13728,-10.16661 0,-5.21801 2.70046,-10.16661 12.13728,-10.16661 l 19.87061,0"
     style="fill:#ffe000;fill-opacity:1;fill-rule:evenodd;stroke:#000000;stroke-width:1px;stroke-linecap:butt;stroke-linejoin:miter;stroke-opacity:1" /><path
     id="path4290"
     d="m 138.89498,140.99232 -14.3122,-13.78412 c -6.79707,-6.54626 -5.30932,-11.98387 -1.68961,-15.74226 3.61969,-3.75837 8.99756,-5.44941 15.79462,1.09685 L 153,126.3469"
     style="fill:#ffe000;fill-opacity:1;fill-rule:evenodd;stroke:#000000;stroke-width:1px;stroke-linecap:butt;stroke-linejoin:miter;stroke-opacity:1" /><path
     style="fill:#ffe000;fill-opacity:1;fill-rule:evenodd;stroke:#000000;stroke-width:1px;stroke-linecap:butt;stroke-linejoin:miter;stroke-opacity:1"
     d="m 322.10502,140.99232 14.3122,-13.78412 c 6.79707,-6.54626 5.30932,-11.98387 1.68961,-15.74226 -3.61969,-3.75837 -8.99756,-5.44941 -15.79462,1.09685 L 308,126.3469"
     id="path4296" /><path
     style="fill:#ffe000;fill-opacity:1;fill-rule:evenodd;stroke:#000000;stroke-width:1px;stroke-linecap:butt;stroke-linejoin:miter;stroke-opacity:1"
     d="m 153,312.65 -13.78412,14.3122 c -6.54626,6.79707 -11.98387,5.30932 -15.74226,1.68961 -3.75837,-3.61969 -5.44941,-8.99756 1.09685,-15.79462 l 13.78411,-14.31221"
     id="path4300" /><path
     id="path4302"
     d="m 308,312.65 13.78412,14.3122 c 6.54626,6.79707 11.98387,5.30932 15.74226,1.68961 3.75837,-3.61969 5.44941,-8.99756 -1.09685,-15.79462 l -13.78411,-14.31221"
     style="fill:#ffe000;fill-opacity:1;fill-rule:evenodd;stroke:#000000;stroke-width:1px;stroke-linecap:butt;stroke-linejoin:miter;stroke-opacity:1" /><path
     style="fill:none;fill-rule:evenodd;stroke:#000000;stroke-width:1px;stroke-linecap:butt;stroke-linejoin:miter;stroke-opacity:1"
     d="m 221.25,126.55989 18.5,0"
     id="path4304" /><path
     style="fill:none;fill-rule:evenodd;stroke:#000000;stroke-width:1px;stroke-linecap:butt;stroke-linejoin:miter;stroke-opacity:1"
     d="m 239.75,183.42257 -18.5,0"
     id="path4306" /><path
     style="fill:none;fill-rule:evenodd;stroke:#000000;stroke-width:1px;stroke-linecap:butt;stroke-linejoin:miter;stroke-opacity:1"
     d="m 194.42257,210.25 0,18.5"
     id="path4308" /><path
     style="fill:none;fill-rule:evenodd;stroke:#000000;stroke-width:1px;stroke-linecap:butt;stroke-linejoin:miter;stroke-opacity:1"
     d="m 137.55989,210.25 0,18.5"
     id="path4310" /><path
     style="fill:none;fill-rule:evenodd;stroke:#000000;stroke-width:1px;stroke-linecap:butt;stroke-linejoin:miter;stroke-opacity:1"
     d="m 266.57743,210.25 0,18.5"
     id="path4312" /><path
     style="fill:none;fill-rule:evenodd;stroke:#000000;stroke-width:1px;stroke-linecap:butt;stroke-linejoin:miter;stroke-opacity:1"
     d="m 323.44011,210.25 0,18.5"
     id="path4314" /><path
     style="fill:none;fill-rule:evenodd;stroke:#000000;stroke-width:1px;stroke-linecap:butt;stroke-linejoin:miter;stroke-opacity:1"
     d="m 221.25,255.57743 18.5,0"
     id="path4316" /><path
     style="fill:none;fill-rule:evenodd;stroke:#000000;stroke-width:1px;stroke-linecap:butt;stroke-linejoin:miter;stroke-opacity:1"
     d="m 239.75,312.44011 -18.5,0"
     id="path4318" /><path
     id="path4322"
     d="m 131.85,228.75 5.70989,0 c 3.6251,0 3.96117,3.91528 9.08345,3.91528 l 38.69578,0 c 5.12228,0 5.45835,-3.91528 9.08345,-3.91528 l 9.70989,0 0,-18.5 -9.70989,0 c -3.6251,0 -3.96117,-3.91528 -9.08345,-3.91528 l -38.69578,0 c -5.12228,0 -5.45835,3.91528 -9.08345,3.91528 l -5.70989,0"
     style="fill:none;fill-opacity:1;fill-rule:evenodd;stroke:#000000;stroke-width:1px;stroke-linecap:butt;stroke-linejoin:miter;stroke-opacity:1" /><circle
     r="30.086821"
     cy="219.5"
     cx="230.5"
     id="circle4214"
     style="opacity:1;fill:#ffe000;fill-opacity:1;fill-rule:evenodd;stroke:#000000;stroke-width:1;stroke-linecap:round;stroke-linejoin:round;stroke-miterlimit:4;stroke-dasharray:none;stroke-opacity:1" /><circle
     style="opacity:0.98999999;fill:none;fill-opacity:1;fill-rule:evenodd;stroke:#000000;stroke-width:1;stroke-linecap:round;stroke-linejoin:round;stroke-miterlimit:4;stroke-dasharray:none;stroke-opacity:1"
     id="path4212"
     cx="230.5"
     cy="219.5"
     r="11.866143" /><circle
     style="opacity:0.98999999;fill:none;fill-opacity:1;fill-rule:evenodd;stroke:#000000;stroke-width:0.99999994;stroke-linecap:round;stroke-linejoin:round;stroke-miterlimit:4;stroke-dasharray:none;stroke-opacity:1"
     id="circle4338"
     cx="230.5"
     cy="219.5"
     r="120.83585" /><circle
     style="opacity:0.98999999;fill:none;fill-opacity:1;fill-rule:evenodd;stroke:#000000;stroke-width:1.0418973;stroke-linecap:round;stroke-linejoin:round;stroke-miterlimit:4;stroke-dasharray:none;stroke-opacity:1"
     id="circle4216"
     cx="230.5"
     cy="219.5"
     r="98.95105" /></svg>