<?xml version="1.0" encoding="UTF-8" standalone="no"?>
<svg
   xmlns:dc="http://purl.org/dc/elements/1.1/"
   xmlns:cc="http://creativecommons.org/ns#"
   xmlns:rdf="http://www.w3.org/1999/02/22-rdf-syntax-ns#"
   xmlns:svg="http://www.w3.org/2000/svg"
   xmlns="http://www.w3.org/2000/svg"
   xml:space="preserve"
   enable-background="new 30.5 31.5 412 533"
   viewBox="30.5 31.5 400 500"
   height="500"
   width="400"
   y="0"
   x="0"
   version="1.1"
   id="svg2"><metadata
     id="metadata4"><rdf:RDF><cc:Work
         rdf:about=""><dc:format>
          
          
          
          
          image/svg+xml
        
        
        
        
        </dc:format><dc:type
           rdf:resource="http://purl.org/dc/dcmitype/StillImage" /><dc:title></dc:title></cc:Work></rdf:RDF></metadata><defs
     id="defs6" /><path
     style="fill:#0085ca;fill-opacity:1"
     id="path4148"
     d="M 230.45,531.13 C 156.13,477.21 105.19,409.11 74.71,322.97 47.07,244.87 35.98,150.22 40.8,33.62 l 0.02,-0.46 379.82,0 0.02,0.46 c 4.81,116.6 -6.28,211.24 -33.91,289.35 -30.48,86.14 -81.42,154.24 -155.74,208.16 l -0.28,0.2 -0.28,-0.2 z" /><path
     d="M 419.96,33.21 C 429.03,252.66 383.71,419.16 230.51,530.31 146.04,469.02 94.36,390.9 66.52,296.34 64.43,289.25 62.48,282.07 60.65,274.8 49.2,229.11 42.88,179.78 40.77,126.86 39.57,96.8 39.72,65.58 41.06,33.21 l 189.45,0 189.45,0 m 0.92,-0.95 -0.92,0 -189.45,0 -189.45,0 -0.92,0 -0.04,0.92 c -4.82,116.66 6.28,211.36 33.93,289.52 30.51,86.24 81.51,154.41 155.91,208.39 l 0.56,0.41 0.56,-0.41 C 305.46,477.11 356.46,408.94 386.97,322.7 414.62,244.54 425.72,149.84 420.9,33.18 l -0.04,-0.92 0,0 z"
     id="path10" /><path
     id="path5668"
     d="m 63.82623,75.823699 c -1.478621,-0.449159 -2.795243,4.378078 -3.418587,9.560687 -0.679285,5.647716 -0.535273,11.717452 1.119573,11.840833 32.056951,2.390084 49.938154,5.650061 75.354144,8.864151 l 5.42147,6.462 c 15.13883,12.96961 26.69423,26.33737 40.01666,39.5088 4.49437,4.44343 8.39202,5.80536 12.63348,5.8811 4.06594,0.0726 8.75983,0.017 12.19783,0.21782 -6.26659,5.9343 -6.6508,10 -6.6508,14.1582 l 0,214.44232 114.03532,0.10891 c 0.20597,-37.17097 -13.82499,-82.97869 -23.31679,-104.11725 -18.34013,-40.84406 -35.47897,-60.83588 -56.18696,-74.49392 l 10.45529,-16.33639 43.70781,18.58662 c -0.69839,-28.16543 0.54078,-68.93577 1.1628,-106.58529 0.17573,-10.636405 -9.85637,-17.839965 -16.02158,-20.212036 -4.99318,-1.921137 -13.44094,-3.044241 -19.24653,-2.309386 -5.56259,0.704097 -7.51544,4.166771 -9.50477,7.478273 -6.11175,10.173798 -8.91925,15.244909 -13.32595,25.218499 l -47.97878,-8.21499 c -0.1497,-1.61754 -1.67122,-2.64715 -2.81963,-3.83667 -1.8565,-1.92295 -10.89741,-4.507406 -13.51676,-2.262246 l -2.07439,1.557496 -6.36522,-1.03719 c 1.05749,-2.437799 -2.54636,-6.100743 -7.51723,-6.386529 -2.24016,-0.128792 -4.4329,-1.666268 -6.70871,-1.482434 -2.97584,0.240381 -5.37035,-0.85166 -6.42724,-0.473669 -2.33774,0.836076 -2.40841,2.464669 -3.35068,3.771843 C 106.43588,90.584224 81.518941,81.198189 63.82623,75.823699 Z"
     style="fill:#ffe000;fill-opacity:1;fill-rule:evenodd;stroke:#000000;stroke-width:1px;stroke-linecap:butt;stroke-linejoin:round;stroke-opacity:1" /><path
     id="path5670"
     d="m 188.74514,404.94745 c -3.31068,1.19036 -3.69613,4.27024 -3.37619,6.64347 0.54468,4.04035 17.56709,1.56977 20.14822,1.52473 4.84193,-0.0845 3.87622,-2.24925 8.2771,-2.72273 5.85269,-0.62968 1.88266,2.49994 13.72256,2.50491 4.10743,0.002 6.5027,-1.22435 6.31674,-3.92074 L 230.5,386.75961 l -12.56718,0 -2.50491,8.93055 c 0,0 -11.41378,4.13262 -16.98985,5.7722 -3.29403,0.96857 -9.69292,3.48509 -9.69292,3.48509 z"
     style="fill:#ffe000;fill-rule:evenodd;stroke:#000000;stroke-width:1px;stroke-linecap:butt;stroke-linejoin:round;stroke-opacity:1;fill-opacity:1" /><path
     id="path5672"
     d="m 232.52666,400.91781 c -4.92258,0.95871 -14.08847,-1.65995 -17.09875,-5.22765"
     style="fill:none;fill-rule:evenodd;stroke:#000000;stroke-width:1px;stroke-linecap:butt;stroke-linejoin:miter;stroke-opacity:1" /><path
     style="fill:#ffe000;fill-rule:evenodd;stroke:#000000;stroke-width:1px;stroke-linecap:butt;stroke-linejoin:round;stroke-opacity:1;fill-opacity:1"
     d="m 252.74514,404.94745 c -3.31068,1.19036 -3.69613,4.27024 -3.37619,6.64347 0.54468,4.04035 17.56709,1.56977 20.14822,1.52473 4.84193,-0.0845 3.87622,-2.24925 8.2771,-2.72273 5.85269,-0.62968 1.88266,2.49994 13.72256,2.50491 4.10743,0.002 6.5027,-1.22435 6.31674,-3.92074 L 294.5,386.75961 l -12.56718,0 -2.50491,8.93055 c 0,0 -11.41378,4.13262 -16.98985,5.7722 -3.29403,0.96857 -9.69292,3.48509 -9.69292,3.48509 z"
     id="path5676" /><path
     style="fill:none;fill-rule:evenodd;stroke:#000000;stroke-width:1px;stroke-linecap:butt;stroke-linejoin:miter;stroke-opacity:1"
     d="m 296.52666,400.91781 c -4.92258,0.95871 -14.08847,-1.65995 -17.09875,-5.22765"
     id="path5678" /><path
     id="path5680"
     d="m 245.48686,191.92096 c 13.24,-18.88114 15.13952,-30.81022 17.36857,-40.78519 1.5646,-7.00153 -0.4457,-17.41577 -2.06844,-27.57928 -1.45558,-9.11648 2.00358,-23.38378 -2.98776,-26.659969 l -12.21464,-8.01738"
     style="fill:none;fill-rule:evenodd;stroke:#000000;stroke-width:1px;stroke-linecap:butt;stroke-linejoin:miter;stroke-opacity:1" /><path
     id="path5686"
     d="m 157.74726,109.53639 14.3011,2.11267 21.61416,28.03339 z"
     style="fill:#0085ca;fill-rule:evenodd;stroke:#000000;stroke-width:1px;stroke-linecap:round;stroke-linejoin:round;stroke-opacity:1;fill-opacity:1" /><path
     id="path5688"
     d="m 187.5683,113.68045 24.05184,24.78316 30.22732,0.40628 3.3315,-7.47557 c -9.95276,-3.43577 -16.96544,-5.44254 -14.62611,-11.7009 z"
     style="fill:#0085ca;fill-opacity:1;fill-rule:evenodd;stroke:#000000;stroke-width:1px;stroke-linecap:butt;stroke-linejoin:round;stroke-opacity:1" /><path
     id="path5690"
     d="m 172.04836,111.64906 15.51994,2.03139"
     style="fill:none;fill-rule:evenodd;stroke:#000000;stroke-width:1px;stroke-linecap:butt;stroke-linejoin:miter;stroke-opacity:1" /><path
     id="path5692"
     d="m 159.50386,100.30404 c -2.42048,3.74999 -2.83587,7.18071 -1.7566,9.23235"
     style="fill:none;fill-rule:evenodd;stroke:#000000;stroke-width:1px;stroke-linecap:butt;stroke-linejoin:miter;stroke-opacity:1" /><path
     id="path5694"
     d="m 135.5,95.733251 c -1.36452,3.714623 -0.55737,7.052619 1.38136,10.356119"
     style="fill:none;fill-rule:evenodd;stroke:#000000;stroke-width:1px;stroke-linecap:butt;stroke-linejoin:miter;stroke-opacity:1" /><path
     id="path5696"
     d="m 165.86908,101.34123 c -1.42441,2.49743 -1.74496,6.87123 0.91853,7.21903 l 14.92891,1.94945 c 2.60023,0.33954 2.49442,-2.53597 2.56334,-4.62706"
     style="fill:none;fill-rule:evenodd;stroke:#000000;stroke-width:1px;stroke-linecap:butt;stroke-linejoin:miter;stroke-opacity:1" /><path
     id="path5698"
     d="m 207.1508,158.15909 c 12.89268,0.68553 23.3492,4.20565 33.0083,6.30891"
     style="fill:none;fill-rule:evenodd;stroke:#000000;stroke-width:1px;stroke-linecap:round;stroke-linejoin:miter;stroke-opacity:1" /><path
     id="path5700"
     d="m 241.84746,138.86989 8.46458,0.57119"
     style="fill:none;fill-rule:evenodd;stroke:#000000;stroke-width:1px;stroke-linecap:round;stroke-linejoin:miter;stroke-opacity:1" /><path
     id="path5702"
     d="m 193.66252,139.68245 17.95762,-1.21884"
     style="fill:none;fill-rule:evenodd;stroke:#000000;stroke-width:1px;stroke-linecap:butt;stroke-linejoin:miter;stroke-opacity:1" /></svg>