<?xml version="1.0" encoding="UTF-8" standalone="no"?>
<svg
   xmlns:dc="http://purl.org/dc/elements/1.1/"
   xmlns:cc="http://creativecommons.org/ns#"
   xmlns:rdf="http://www.w3.org/1999/02/22-rdf-syntax-ns#"
   xmlns:svg="http://www.w3.org/2000/svg"
   xmlns="http://www.w3.org/2000/svg"
   id="svg2"
   version="1.1"
   x="0"
   y="0"
   width="400"
   height="500"
   viewBox="30.5 31.5 400 500"
   enable-background="new 30.5 31.5 412 533"
   xml:space="preserve"><metadata
     id="metadata4"><rdf:RDF><cc:Work
         rdf:about=""><dc:format>
          
          
          
          image/svg+xml
        
        
        
        </dc:format><dc:type
           rdf:resource="http://purl.org/dc/dcmitype/StillImage" /><dc:title></dc:title></cc:Work></rdf:RDF></metadata><defs
     id="defs6" /><path
     fill="#32ac60"
     id="path8"
     d="M230.56 531.14C304.88 477.22 355.82 409.12 386.3 322.98 413.94 244.88 425.03 150.23 420.21 33.63l-0.02-0.46-379.82 0-0.02 0.46c-4.81 116.6 6.28 211.24 33.91 289.35 30.48 86.14 81.42 154.24 155.74 208.16l0.28 0.2 0.28-0.2z" /><path
     style="fill:#ffe000;fill-opacity:1;fill-rule:evenodd;stroke:#000000;stroke-width:1;stroke-linecap:butt;stroke-linejoin:round;stroke-opacity:1;stroke-miterlimit:4;stroke-dasharray:none"
     d="m 329.10657,259.84654 -3.5648,-31.75862 -4.12484,1e-5 -0.2288,-6.59798 62.90076,7.75283 c 1.65559,0.21085 4.16158,-1.1556 3.83286,-3.36441 L 369.73812,103.69398 c -2.56103,-0.55775 -14.52739,-2.00784 -17.76528,-2.24655 C 349.73497,83.398787 334.99271,67.495182 315.5,67.495182 c -19.49271,0 -34.23497,15.903605 -36.47284,33.952248 -3.23789,0.23871 -15.20425,1.6888 -17.76528,2.24655 l -18.18363,122.18439 c -0.32872,2.20881 2.17727,3.57526 3.83286,3.36441 l 62.90076,-7.75283 -0.2288,6.59798 -4.12484,-1e-5 -3.5648,31.75862 c -0.4109,3.66068 9.90146,10.29102 13.60657,12.21115 3.70511,-1.92013 14.01747,-8.55047 13.60657,-12.21115 z"
     id="path4302" /><path
     id="path4298"
     d="m 295.36919,100.32583 c 0.63516,-6.298932 7.27014,-18.428378 20.13081,-18.547717 12.86067,0.119339 19.49565,12.248785 20.13081,18.547717 -3.03805,-0.13497 -17.16414,-0.414953 -20.13081,-0.436416 -2.96667,0.02146 -17.09276,0.301446 -20.13081,0.436416 z"
     style="fill:#32ac60;fill-opacity:1;fill-rule:evenodd;stroke:#000000;stroke-width:1;stroke-linecap:butt;stroke-linejoin:round;stroke-opacity:1;stroke-miterlimit:4;stroke-dasharray:none" /><path
     id="path4306"
     d="m 159.10657,259.84654 -3.5648,-31.75862 -4.12484,1e-5 -0.2288,-6.59798 62.90076,7.75283 c 1.65559,0.21085 4.16158,-1.1556 3.83286,-3.36441 L 199.73812,103.69398 c -2.56103,-0.55775 -14.52739,-2.00784 -17.76528,-2.24655 C 179.73497,83.398787 164.99271,67.495182 145.5,67.495182 c -19.49271,0 -34.23497,15.903605 -36.47284,33.952248 -3.23789,0.23871 -15.204249,1.6888 -17.765281,2.24655 L 73.078253,225.87837 c -0.328721,2.20881 2.177266,3.57526 3.832857,3.36441 l 62.90076,-7.75283 -0.2288,6.59798 -4.12484,-1e-5 -3.5648,31.75862 c -0.4109,3.66068 9.90146,10.29102 13.60657,12.21115 3.70511,-1.92013 14.01747,-8.55047 13.60657,-12.21115 z"
     style="fill:#ffe000;fill-opacity:1;fill-rule:evenodd;stroke:#000000;stroke-width:1;stroke-linecap:butt;stroke-linejoin:round;stroke-opacity:1;stroke-miterlimit:4;stroke-dasharray:none" /><path
     style="fill:#32ac60;fill-opacity:1;fill-rule:evenodd;stroke:#000000;stroke-width:1;stroke-linecap:butt;stroke-linejoin:round;stroke-opacity:1;stroke-miterlimit:4;stroke-dasharray:none"
     d="m 125.36919,100.32583 c 0.63516,-6.298932 7.27014,-18.428378 20.13081,-18.547717 12.86067,0.119339 19.49565,12.248785 20.13081,18.547717 -3.03805,-0.13497 -17.16414,-0.414953 -20.13081,-0.436416 -2.96667,0.02146 -17.09276,0.301446 -20.13081,0.436416 z"
     id="path4304" /><path
     style="fill:#ffe000;fill-opacity:1;fill-rule:evenodd;stroke:#000000;stroke-width:1;stroke-linecap:butt;stroke-linejoin:round;stroke-opacity:1;stroke-miterlimit:4;stroke-dasharray:none"
     d="m 244.10657,431.35472 -3.5648,-31.75862 -4.12484,1e-5 -0.2288,-6.59798 62.90076,7.75283 c 1.65559,0.21085 4.16158,-1.1556 3.83286,-3.36441 L 284.73812,275.20216 c -2.56103,-0.55775 -14.52739,-2.00784 -17.76528,-2.24655 -2.23787,-18.04865 -16.98013,-33.95225 -36.47284,-33.95225 -19.49271,0 -34.23497,15.9036 -36.47284,33.95225 -3.23789,0.23871 -15.20425,1.6888 -17.76528,2.24655 l -18.18363,122.18439 c -0.32872,2.20881 2.17727,3.57526 3.83286,3.36441 l 62.90076,-7.75283 -0.2288,6.59798 -4.12484,-1e-5 -3.5648,31.75862 c -0.4109,3.66068 9.90146,10.29102 13.60657,12.21115 3.70511,-1.92013 14.01747,-8.55047 13.60657,-12.21115 z"
     id="path4310" /><path
     id="path4308"
     d="m 210.36919,271.834 c 0.63516,-6.29893 7.27014,-18.42837 20.13081,-18.54771 12.86067,0.11934 19.49565,12.24878 20.13081,18.54771 -3.03805,-0.13496 -17.16414,-0.41495 -20.13081,-0.43641 -2.96667,0.0215 -17.09276,0.30145 -20.13081,0.43641 z"
     style="fill:#32ac60;fill-opacity:1;fill-rule:evenodd;stroke:#000000;stroke-width:1;stroke-linecap:butt;stroke-linejoin:round;stroke-opacity:1;stroke-miterlimit:4;stroke-dasharray:none" /><path
     id="path10"
     d="M41.04 33.21C31.97 252.66 77.3 419.16 230.5 530.31 383.69 419.16 429.01 252.66 419.94 33.21l-189.45 0-189.45 0m-0.92-0.95 0.92 0 189.45 0 189.45 0 0.92 0 0.04 0.92c4.82 116.66-6.28 211.36-33.93 289.52-30.51 86.24-81.51 154.41-155.91 208.39l-0.56 0.41-0.56-0.41C155.54 477.11 104.54 408.94 74.03 322.7 46.38 244.54 35.28 149.84 40.1 33.18l0.04-0.92 0 0z" /></svg>