<?xml version="1.0" encoding="UTF-8" standalone="no"?>
<svg
   xmlns:dc="http://purl.org/dc/elements/1.1/"
   xmlns:cc="http://creativecommons.org/ns#"
   xmlns:rdf="http://www.w3.org/1999/02/22-rdf-syntax-ns#"
   xmlns:svg="http://www.w3.org/2000/svg"
   xmlns="http://www.w3.org/2000/svg"
   id="svg4674"
   height="500"
   width="440"
   version="1.1">
  <metadata
     id="metadata18">
    <rdf:RDF>
      <cc:Work
         rdf:about="">
        <dc:format>image/svg+xml</dc:format>
        <dc:type
           rdf:resource="http://purl.org/dc/dcmitype/StillImage" />
        <dc:title></dc:title>
      </cc:Work>
    </rdf:RDF>
  </metadata>
  <defs
     id="defs4678" />
  <path
     d="m 435.5,1.5 c 2.68137,46.126976 8.73531,156.70671 -32.55742,268.95398 C 372.26451,353.84707 313.62053,430.59592 220,499.25 126.37947,430.59592 67.735488,353.84707 37.057423,270.45398 -4.2353097,158.20671 1.8186345,47.626976 4.5,1.5 c 143.66667,0 287.33333,0 431,0 z"
     id="path4311"
     style="fill:#e00e00;fill-opacity:1;stroke:#285353;stroke-width:1.04574347;stroke-opacity:1" />
  <path
     id="path4373"
     d="m 110.65139,83.767726 c -0.0813,4.302972 2.53872,7.491994 5.1667,9.060344 2.04234,-0.880733 4.10588,-1.715713 6.65395,-2.247729 2.37979,-0.49688 5.67968,-1.025929 8.75127,-0.252944 l -5.55533,-7.933183"
     style="fill:#ffe000;fill-opacity:1;fill-rule:evenodd;stroke:#000000;stroke-width:1px;stroke-linecap:butt;stroke-linejoin:miter;stroke-opacity:1" />
  <path
     style="fill:#ffe200;fill-opacity:1;stroke:#000000;stroke-linecap:round;stroke-linejoin:round;stroke-opacity:1"
     id="path5210"
     d="m 181.17781,252.17883 c -0.0678,-26.25278 -17.78985,-61.47668 -12.83898,-105.12712 0.86897,-7.66145 3.72931,-7.17672 4.76695,-10.61441 11.07311,-36.68514 2.21917,-63.06861 -0.24,-66.25202 -0.74602,-0.965722 5.00345,-2.591567 3.05614,-6.381938 -2.19675,-2.109865 -0.0655,-4.164171 -0.62921,-6.112279 -1.13651,-3.927921 -6.59974,-4.276072 -8.98864,-3.775231 -1.23882,0.259723 -1.72332,1.984096 -2.24717,3.595458 -5.84283,-4.939063 -9.47621,-8.095904 -16.01177,-7.820083 -8.18072,0.345252 -19.08161,3.395546 -25.03639,7.847064 -1.12947,0.844338 -0.94568,2.805091 -0.64415,3.943017 -10.43444,1.344052 -20.77128,9.737135 -15.83501,12.703387 -0.12097,2.802994 0.92102,7.055336 3.82017,9.124027 10.45318,3.473388 28.07252,-10.769812 31.08848,8.412098 0.42455,2.700208 -3.03845,4.68429 -4.25738,3.54281 -1.20471,-1.12818 -1.78209,-2.060093 -3.01384,-3.21278 -1.65421,-1.548026 -4.43063,-2.38911 -7.99594,-2.055768 -5.76104,0.538636 -12.30505,3.112523 -12.03613,4.695188 0.18776,1.105059 2.73204,2.781089 4.5113,2.487911 11.21377,-1.847748 10.56076,1.70455 8.04793,4.868909 -5.49884,6.15491 -17.6194,10.29105 -26.38328,19.42012 L 63.455044,89.46058 C 62.011986,88.207389 59.127255,61.762694 56.37399,50.281794 54.965037,44.40657 35.007611,41.173282 33.599212,49.75084 c 4.507856,0.01988 7.303839,1.634481 8.713828,3.312837 0.992536,1.181449 1.577207,3.442252 1.174686,5.116525 -2.122448,-1.317076 -3.839514,-1.978343 -6.020593,-1.781378 -3.657118,0.33026 -6.491246,3.859703 -5.946004,7.068042 3.165234,-2.220648 7.156462,-0.30047 9.680399,1.184646 1.574881,0.926679 2.332176,2.653762 1.568443,4.593051 -5.733723,-0.63814 -9.745474,3.617894 -8.373553,7.301292 2.813153,-1.411205 6.863792,-0.763702 9.607203,0.530015 4.149988,1.957014 6.716296,5.614908 5.180475,9.868807 -1.170757,3.242754 -4.629657,7.987661 -1.716935,12.061554 l 22.112614,30.927919 -25.877911,-0.53159 c -2.403178,-0.22046 -1.017646,-20.50625 -3.875777,-25.01331 -3.947193,-6.224431 -18.448781,-5.877288 -18.940678,0.0775 4.4857,0.16909 10.171332,2.64977 10.152829,6.83999 -4.368228,-1.5136 -10.351862,2.10341 -9.884637,6.63885 3.181547,-1.17708 9.654295,-1.0814 8.781649,5.93349 -3.897292,-0.29797 -8.329608,2.55245 -7.949177,7.13493 8.220878,-4.47984 8.33297,3.87632 12.533201,3.81781 7.394092,-0.10299 1.435538,8.19073 -1.834695,7.36863 0.02816,5.39429 8.300836,4.9605 12.051468,2.30247 2.029145,-1.43803 12.532556,6.69492 19.036794,5.27543 3.09322,0.42372 1.494563,4.22536 15.572034,5.4661 6.646774,1.54698 11.586743,7.68624 24.048065,7.8361 0.53346,6.90544 2.79468,17.67363 8.3571,25.7581 5.47935,7.96373 8.85255,17.55593 12.76535,26.73988 -1.65732,3.57309 -3.41748,5.87469 -4.44207,9.95879 -21.071098,-2.95 -39.314359,10.26789 -44.140038,21.72388 -0.402493,0.9555 -6.738869,1.82678 -12.111245,2.6293 0.942908,-4.38273 -1.13028,-8.85791 -1.501351,-11.12908 -0.648848,-3.97134 1.7542,-6.69849 0.375736,-13.07888 -1.517801,-7.02533 -12.537859,-11.05283 -17.02253,-4.9045 2.388552,-0.0358 4.719943,0.92054 6.154947,2.68957 1.106059,1.36351 1.796016,3.19378 0.590693,5.31499 -4.165112,-2.5986 -10.041116,2.15213 -9.415836,5.69216 7.889934,-2.17569 10.4233,2.71955 9.868674,6.12988 -3.160107,-4.83206 -9.491686,-0.14856 -8.361252,5.56647 3.251068,-3.18509 7.863445,-0.31748 7.051525,2.87026 -0.06587,0.25861 -3.171956,14.5905 2.942084,15.19687 l 65.750763,6.521 c 2.2379,9.85687 7.72169,17.84031 11.47023,24.08686 2.46833,4.11321 6.72449,6.53852 8.97482,10.1193 0.6867,1.09269 3.11803,17.42405 2.0587,25.53846 -9.51377,-6.3124 -18.17439,-5.27773 -23.85595,-1.52545 -4.1222,2.72242 -6.42604,7.08469 -5.46776,14.57955 2.31346,-2.15156 4.11365,-4.79795 8.44065,-4.30709 0.79153,2.79868 0.0374,4.63909 2.34389,6.42508 1.15848,-2.23093 3.09534,-5.60528 6.85536,-5.8263 0.72675,3.0617 0.98639,4.3802 3.28774,6.56295 1.522,-1.74126 3.75976,-5.83601 6.03293,-5.77444 9.04683,0.24506 21.3855,2.02359 21.35266,-2.7552 -0.23499,-34.19112 6.57434,-35.65059 10.07492,-46.49442 2.82159,-7.34873 4.1344,-14.34318 3.61837,-20.26067 8.12728,-1.50286 5.75248,-12.47114 5.73576,-18.94904 z" />
  <path
     style="fill:none;stroke:#000000;stroke-width:1;stroke-linecap:round;stroke-linejoin:round;stroke-miterlimit:4;stroke-dasharray:none;stroke-opacity:1"
     id="path5214"
     d="m 127.43561,62.887071 c -0.30434,2.175409 11.03532,0.948287 16.21152,1.081057" />
  <path
     style="fill:none;stroke:#000000;stroke-width:1;stroke-linecap:butt;stroke-linejoin:miter;stroke-miterlimit:4;stroke-dasharray:none;stroke-opacity:1"
     id="path5216"
     d="m 135.82116,64.0482 c -0.32494,1.32674 -0.33083,3.475797 0.7676,4.015077 0.99376,0.487895 3.89331,0.689966 5.10425,-0.176987 1.16996,-0.8376 0.64623,-3.949409 0.64623,-3.949409" />
  <path
     style="fill:none;stroke:#000000;stroke-width:1;stroke-linecap:butt;stroke-linejoin:miter;stroke-miterlimit:4;stroke-dasharray:none;stroke-opacity:1"
     id="path5218"
     d="m 167.81944,60.445744 c 0.70529,-3.318388 6.67948,0.894972 4.16314,2.097458 -2.28698,1.092884 -3.08388,3.852707 -4.51271,2.510593 -1.56036,-1.465671 -0.0841,-2.567428 0.34957,-4.608051 z" />
  <path
     id="path4351"
     d="m 198,345 0,-173 -13,0 0,-43 20,0 0,26 10,0 0,-26 20,0 0,43 -13,0 0,68 24,0 0,-130 -38,0 0,-60 30,0 0,35 17,0 0,-35 23,0 23,0 0,35 17,0 0,-35 30,0 0,60 -38,0 0,130 24,0 0,-68 -13,0 0,-43 20,0 0,26 10,0 0,-26 20,0 0,43 -13,0 0,173 -80,0 z"
     style="fill:#ffe000;fill-rule:evenodd;stroke:#000000;stroke-width:1px;stroke-linecap:butt;stroke-linejoin:miter;stroke-opacity:1;fill-opacity:1" />
  <path
     id="path4353"
     d="m 109.91303,71.406852 c -0.6384,0.08047 -2.85816,1.237232 -3.38345,2.777823"
     style="fill:none;fill-rule:evenodd;stroke:#000000;stroke-width:1px;stroke-linecap:round;stroke-linejoin:round;stroke-opacity:1" />
  <path
     id="path4355"
     d="m 115.67294,92.396763 0.64215,-8.394914 6.00082,6.509878 3.04141,-7.732869"
     style="fill:none;fill-rule:evenodd;stroke:#000000;stroke-width:1px;stroke-linecap:round;stroke-linejoin:bevel;stroke-opacity:1" />
  <path
     id="path4357"
     d="m 120.25549,270.75925 c -2.49528,-12.44283 -1.84925,-31.11988 -0.18217,-45.22192"
     style="fill:none;fill-opacity:1;fill-rule:evenodd;stroke:#000000;stroke-width:1px;stroke-linecap:butt;stroke-linejoin:miter;stroke-opacity:1" />
  <path
     id="path4367"
     d="m 149.67326,121.62162 -6.89439,8.31253 -73.199095,0"
     style="fill:none;fill-rule:evenodd;stroke:#000000;stroke-width:1px;stroke-linecap:butt;stroke-linejoin:miter;stroke-opacity:1" />
  <path
     id="path4377"
     d="m 103.39294,163.08056 c 5.04337,-0.0419 10.09344,-0.46994 13.9389,-1.11079"
     style="fill:none;fill-rule:evenodd;stroke:#000000;stroke-width:1px;stroke-linecap:round;stroke-linejoin:miter;stroke-opacity:1" />
  <path
     id="path4379"
     d="m 172.93243,256.55046 c 1.46589,4.66898 2.14633,9.90844 2.50962,14.57742"
     style="fill:none;fill-rule:evenodd;stroke:#000000;stroke-width:1px;stroke-linecap:round;stroke-linejoin:round;stroke-opacity:1" />
  <path
     id="path4381"
     d="m 100.31089,121.46719 -6.598417,8.51265"
     style="fill:none;fill-rule:evenodd;stroke:#000000;stroke-width:1px;stroke-linecap:butt;stroke-linejoin:miter;stroke-opacity:1" />
</svg>
