<svg xmlns:dc="http://purl.org/dc/elements/1.1/" xmlns:cc="http://creativecommons.org/ns#" xmlns:rdf="http://www.w3.org/1999/02/22-rdf-syntax-ns#" xmlns:svg="http://www.w3.org/2000/svg" xmlns="http://www.w3.org/2000/svg" id="svg2" version="1.1" x="0" y="0" width="400" height="500" viewBox="30.5 31.5 400 500" enable-background="new 30.5 31.5 412 533" xml:space="preserve">
  <metadata id="metadata4">
    <rdf:RDF>
      <cc:Work rdf:about="">
        <dc:format>
          
          
          
          
          image/svg+xml
        
        
        
        
        </dc:format>
        <dc:type rdf:resource="http://purl.org/dc/dcmitype/StillImage"/>
      </cc:Work>
    </rdf:RDF>
  </metadata>
  <defs id="defs6"/>
  <path id="path8" d="M230.44 531.14C156.12 477.22 105.18 409.12 74.7 322.98 47.06 244.88 35.97 150.23 40.79 33.63l0.02-0.46 379.82 0 0.02 0.46c4.81 116.6-6.28 211.24-33.91 289.35C356.26 409.12 305.32 477.22 231 531.14l-0.28 0.2-0.28-0.2z" fill="#32ac60"/>
  <path id="path4463" d="m332.46 428.37c-9.34-2.45-18.46-10.36-34.74-23.18-17.16-13.51-27.51-33.18-27.68-66.73-22.37 3.1-40.32 3.32-58.26-8.12-18.41-11.74-27.51-29.18-27.68-62.73-22.37 3.1-40.32 3.32-58.26-8.12-18.41-11.74-27.51-29.18-27.68-62.73-20.13 2.79-36.68 3.25-52.87-5.03-0.25 1.24-3.68-29.16-5.04-65.85 11.29 9.38 24.76 15.82 33.65 20.76 18.61 10.34 35.89 11.21 58.26 8.12 0.17 33.55 9.26 51 27.68 62.73 17.95 11.44 35.89 11.21 58.26 8.12 0.17 33.55 9.26 51 27.68 62.73 17.95 11.44 35.89 11.21 58.26 8.12 0.1 20.81 4.05 34.84 11.18 45.66 12.38 16.58 15.79 25.79 45.36 40.11-8.06 15.82-18.37 32.14-28.12 46.14z" style="fill-rule:evenodd;fill:#fff"/>
  <path id="path4465" d="m61.65 32.91 62.97-0.11c4.6 10.05 11.48 17.36 20.71 23.24 17.95 11.44 35.89 11.21 58.26 8.12 0.17 33.55 9.26 51 27.68 62.73 17.95 11.44 35.89 11.21 58.26 8.12 0.17 33.55 9.26 51 27.68 62.73 17.95 11.44 35.89 11.21 58.26 8.12-0.71 33.88 7.05 53.47 25.68 66.73-4.33 18.43-9.42 34.94-14.9 50.47 0 0-4.38 0.79-17.75-7.6-18.5-11.6-26.86-34.05-27.03-67.6-22.37 3.1-40.32 3.32-58.26-8.12-18.41-11.74-27.51-29.18-27.68-62.73-22.37 3.1-40.32 3.32-58.26-8.12-18.41-11.74-27.51-29.18-27.68-62.73-22.37 3.1-40.32 0.71-58.26-8.12C91.74 88.4 67.92 65.15 61.65 32.91" style="fill-rule:evenodd;fill:#fff"/>
  <path d="m40.24 125.89c11.29 9.38 24.76 15.82 33.65 20.76 18.61 10.34 35.89 11.21 58.26 8.12 0.17 33.55 9.26 51 27.68 62.73 17.95 11.44 35.89 11.21 58.26 8.12 0.17 33.55 9.26 51 27.68 62.73 17.95 11.44 35.89 11.21 58.26 8.12 0.1 20.81 4.05 34.84 11.18 45.66 12.38 16.58 15.79 25.79 45.36 40.11m-28.12 46.14c-9.34-2.45-18.46-10.36-34.74-23.18-17.16-13.51-27.51-33.18-27.68-66.73-22.37 3.1-40.32 3.32-58.26-8.12-18.41-11.74-27.51-29.18-27.68-62.73-22.37 3.1-40.32 3.32-58.26-8.12-18.41-11.74-27.51-29.18-27.68-62.73-20.13 2.79-36.68 3.25-52.87-5.03" id="path4540" style="fill:none;stroke:#000"/>
  <path d="m124.63 32.8c4.6 10.05 11.48 17.36 20.71 23.24 17.95 11.44 35.89 11.21 58.26 8.12 0.17 33.55 9.26 51 27.68 62.73 17.95 11.44 35.89 11.21 58.26 8.12 0.17 33.55 9.26 51 27.68 62.73 17.95 11.44 35.89 11.21 58.26 8.12-0.71 33.88 7.05 53.47 25.68 66.73m-14.9 50.47c0 0-4.38 0.79-17.75-7.6-18.5-11.6-26.86-34.05-27.03-67.6-22.37 3.1-40.32 3.32-58.26-8.12-18.41-11.74-27.51-29.18-27.68-62.73-22.37 3.1-40.32 3.32-58.26-8.12-18.41-11.74-27.51-29.18-27.68-62.73-22.37 3.1-40.32 0.71-58.26-8.12C91.74 88.4 67.92 65.15 61.65 32.91" id="path4542" style="fill:none;stroke:#000"/>
  <path id="path10" d="M419.96 33.21C429.03 252.66 383.7 419.16 230.5 530.31 77.31 419.16 31.99 252.66 41.06 33.21l189.45 0 189.45 0m0.92-0.95-0.92 0-189.45 0-189.45 0-0.92 0-0.04 0.92c-4.82 116.66 6.28 211.36 33.93 289.52 30.51 86.24 81.51 154.41 155.91 208.39l0.56 0.41 0.56-0.41C305.46 477.11 356.46 408.94 386.97 322.7 414.62 244.54 425.72 149.84 420.9 33.18l-0.04-0.92 0 0z"/>
</svg>
