<svg xmlns:dc="http://purl.org/dc/elements/1.1/" xmlns:cc="http://creativecommons.org/ns#" xmlns:rdf="http://www.w3.org/1999/02/22-rdf-syntax-ns#" xmlns:svg="http://www.w3.org/2000/svg" xmlns="http://www.w3.org/2000/svg" xml:space="preserve" enable-background="new 30.5 31.5 412 533" viewBox="30.5 31.5 400 500" height="500" width="400" y="0" x="0" version="1.1" id="svg2">
  <metadata id="metadata4">
    <rdf:RDF>
      <cc:Work rdf:about="">
        <dc:format>
          
          
          image/svg+xml
        
        
        </dc:format>
        <dc:type rdf:resource="http://purl.org/dc/dcmitype/StillImage"/>
      </cc:Work>
    </rdf:RDF>
  </metadata>
  <defs id="defs6"/>
  <path d="M230.45 531.13C156.13 477.21 105.19 409.11 74.71 322.97 47.07 244.87 35.98 150.22 40.8 33.62l0.02-0.46 379.82 0 0.02 0.46c4.81 116.6-6.28 211.24-33.91 289.35-30.48 86.14-81.42 154.24-155.74 208.16l-0.28 0.2-0.28-0.2z" id="path8" fill="#32ac60"/>
  <path d="M419.96 33.21C429.03 252.66 383.71 419.16 230.51 530.31 146.04 469.02 94.36 390.9 66.52 296.34 64.43 289.25 62.48 282.07 60.65 274.8 49.2 229.11 42.88 179.78 40.77 126.86 39.57 96.8 39.72 65.58 41.06 33.21l189.45 0 189.45 0m0.92-0.95-0.92 0-189.45 0-189.45 0-0.92 0-0.04 0.92c-4.82 116.66 6.28 211.36 33.93 289.52 30.51 86.24 81.51 154.41 155.91 208.39l0.56 0.41 0.56-0.41C305.46 477.11 356.46 408.94 386.97 322.7 414.62 244.54 425.72 149.84 420.9 33.18l-0.04-0.92 0 0z" id="path10"/>
  <path id="path4246" d="m302.35 316.67-62.38-0.31-0.62-123.83c13.44-5.43 18.27-12.62 22.8-19.41 6.82-10.23 8.37-30.81 2.31-30.81l-67.94 0c-6.06 0-4.5 20.58 2.31 30.81 4.52 6.79 9.36 13.97 22.8 19.41l-0.62 123.83-62.38 0.31c1.07 48.52 29.51 99.18 71.85 121.83 42.34-22.66 70.78-73.31 71.85-121.83z" style="fill-rule:evenodd;fill:#fff;stroke:#000"/>
  <path id="path4248" d="m255.07 158.93c0.22-2.52-1.9-4.14-4-4.16-13.77-0.23-27.53-0.1-41.29 0-2.1 0.02-4.22 1.64-4 4.16 1.3 15.07 14.24 21.57 24.65 21.57 10.41 0 23.35-6.5 24.65-21.57z" style="fill-rule:evenodd;fill:#32ac60;stroke:#000"/>
  <path d="M391.72 200.22 338.58 199.96 338.05 94.46c11.45-4.63 15.57-10.75 19.42-16.54 5.81-8.72 7.14-26.25 1.97-26.25l-57.88 0c-5.16 0-3.83 17.53 1.97 26.25 3.85 5.78 7.97 11.91 19.42 16.54l-0.53 105.5-53.14 0.26c0.91 41.34 25.14 84.5 61.22 103.8 36.07-19.3 60.31-62.46 61.22-103.8z" id="path4264" style="fill-rule:evenodd;fill:#fff;stroke-miterlimit:4;stroke:#000"/>
  <path d="m351.43 66.13c0.19-2.15-1.62-3.53-3.41-3.54-11.73-0.19-23.45-0.09-35.18 0-1.79 0.01-3.6 1.39-3.41 3.54 1.11 12.84 12.13 18.08 21 18.08 8.87 0 19.89-5.24 21-18.08z" id="path4266" style="fill-rule:evenodd;fill:#32ac60;stroke-miterlimit:4;stroke:#000"/>
  <path id="path4268" d="M191.72 200.22 138.58 199.96 138.05 94.46c11.45-4.63 15.57-10.75 19.42-16.54 5.81-8.72 7.14-26.25 1.97-26.25l-57.88 0c-5.16 0-3.83 17.53 1.97 26.25 3.85 5.78 7.97 11.91 19.42 16.54l-0.53 105.5-53.14 0.26c0.91 41.34 25.14 84.5 61.22 103.8 36.07-19.3 60.31-62.46 61.22-103.8z" style="fill-rule:evenodd;fill:#fff;stroke-miterlimit:4;stroke:#000"/>
  <path id="path4270" d="m151.43 66.13c0.19-2.15-1.62-3.53-3.41-3.54-11.73-0.19-23.45-0.09-35.18 0-1.79 0.01-3.6 1.39-3.41 3.54 1.11 12.84 12.13 18.08 21 18.08 8.87 0 19.89-5.24 21-18.08z" style="fill-rule:evenodd;fill:#32ac60;stroke-miterlimit:4;stroke:#000"/>
</svg>
