<?xml version="1.0" encoding="UTF-8" standalone="no"?>
<svg
   xmlns:dc="http://purl.org/dc/elements/1.1/"
   xmlns:cc="http://creativecommons.org/ns#"
   xmlns:rdf="http://www.w3.org/1999/02/22-rdf-syntax-ns#"
   xmlns:svg="http://www.w3.org/2000/svg"
   xmlns="http://www.w3.org/2000/svg"
   xml:space="preserve"
   enable-background="new 30.5 31.5 412 533"
   viewBox="30.5 31.5 420 500"
   height="500"
   width="420"
   y="0"
   x="0"
   version="1.1"
   id="svg2"><metadata
     id="metadata4"><rdf:RDF><cc:Work
         rdf:about=""><dc:format>
          
          
          
          
          image/svg+xml
        
        
        
        
        </dc:format><dc:type
           rdf:resource="http://purl.org/dc/dcmitype/StillImage" /><dc:title></dc:title></cc:Work></rdf:RDF></metadata><defs
     id="defs6" /><path
     style="fill:#32ac60;fill-opacity:1;fill-rule:evenodd"
     d="m 41,32.7 c -2.09,102.46 3.38,187.49 43.93,296.59 28.05,75.48 74.21,144.77 155.57,201.59 C 321.86,474.06 368.02,404.77 396.07,329.29 436.62,220.19 442.09,135.16 440,32.7 c -133,0.29 -266,0 -399,0 z"
     id="path4218" /><path
     style="fill:none;stroke:#000000"
     id="path4224"
     d="m 41,32.7 c -2.09,102.46 3.38,187.49 43.93,296.59 28.05,75.48 74.21,144.77 155.57,201.59 C 321.86,474.06 368.02,404.77 396.07,329.29 436.62,220.19 442.09,135.16 440,32.7 c -133,0.29 -266,0 -399,0 z" /><path
     style="fill:#ffffff;stroke:none"
     id="path3821"
     d="m 89.09784,110.78438 c 2.012358,4.46702 6.330859,10.41143 10.798092,14.60167 4.680758,-0.24174 11.182138,-0.0371 16.106888,0.80223 -3.60045,-6.33086 -6.11756,-11.90231 -8.35544,-17.75943 -5.83345,0.18804 -12.442849,0.37771 -18.54954,2.35553 z" /><path
     style="fill:#ffffff;stroke:none"
     id="path3819"
     d="m 145.12892,97.642495 c -5.16123,-4.003695 -9.95173,-7.178578 -13.84203,-9.608252 0.32282,-6.550622 2.50333,-14.58655 5.89469,-17.419891 4.1634,2.126006 7.61352,5.049971 10.2303,8.057246 -2.33784,9.397893 -2.06507,15.065988 -2.28296,18.970897 z" /><path
     d="m 335.87107,97.642495 c 5.16123,-4.003698 9.95173,-7.178581 13.84203,-9.608255 -0.32282,-6.550622 -2.50333,-14.58655 -5.89469,-17.419891 -4.1634,2.126006 -7.61352,5.049971 -10.2303,8.057246 2.33784,9.397893 2.06507,15.065988 2.28296,18.9709 z"
     id="path4324"
     style="fill:#ffffff;stroke:none" /><path
     d="m 391.90215,110.78438 c -2.01236,4.46702 -6.33084,10.41143 -10.79809,14.60167 -4.68076,-0.24174 -11.18214,-0.0371 -16.10689,0.80223 3.60045,-6.33086 6.11756,-11.90231 8.35544,-17.75943 5.83345,0.18804 12.44285,0.37771 18.54954,2.35553 z"
     id="path4322"
     style="fill:#ffffff;stroke:none" /><path
     style="fill:#ffffff;stroke:#000000;stroke-width:1;stroke-opacity:1;stroke-miterlimit:4;stroke-dasharray:none"
     id="path2998"
     d="m 221.28429,457.26687 c -5.41797,3.73665 -10.6246,6.83925 -15.36209,8.53453 -2.34004,-29.1683 7.87703,-60.94719 21.84832,-88.58822 -14.02079,17.03395 -34.09648,35.04675 -56.66913,43.35535 -0.32438,-4.95862 0.19611,-9.3323 0.68274,-13.65527 -8.72946,0.18978 -14.40706,-0.43453 -20.14146,-4.09656 16.93323,-35.79338 46.22682,-48.43683 72.20199,-53.08463 -6.59177,-8.06103 -14.90511,-14.82243 -19.97079,-17.41039 -14.95578,17.88813 -36.95995,32.57159 -59.05876,41.47771 -0.58996,-2.76868 -0.56396,-9.77414 -0.17074,-12.80179 -4.69537,-0.088 -18.25513,-3.07293 -22.18971,-5.97416 7.00483,-11.03168 24.84129,-26.53299 42.3312,-34.82081 -21.37081,-1.31008 -42.141,-3.81999 -62.30195,-18.7759 2.02874,-2.78475 7.33468,-6.49569 11.09486,-8.02243 -7.65876,-8.11928 -15.423237,-19.61088 -17.410387,-31.57771 8.179867,-1.76673 25.670997,-2.38631 32.260437,-0.68273 l -0.17068,-14.50869 c 20.68676,9.05211 36.89311,25.0615 49.32945,42.16047 -8.25983,-14.86625 -11.97996,-30.06465 -11.60689,-48.64667 3.35206,0.65673 8.94697,3.70165 11.60689,5.63273 1.1543,-3.85867 2.80825,-7.1404 4.95002,-10.41206 24.05003,23.08372 29.16727,45.69789 26.96906,80.90715 l 14.67938,9.9 c -1.73264,-19.51471 -3.94782,-62.96475 -25.43287,-88.75889 1.88393,-0.33423 6.17812,-0.16446 9.38799,0.68278 -7.87955,-8.43207 -13.11189,-14.19721 -18.19315,-19.11464 2.21807,-1.02441 5.47513,-1.62306 8.46379,-1.53889 l -14.85006,-15.36212 c 1.40581,-1.36611 4.38528,-2.80922 6.65693,-3.24313 -4.42712,-4.72002 -22.24661,7.90865 -55.64501,-11.43623 0.93981,-1.6958 3.28646,-3.80008 5.1207,-4.77933 -7.63642,-0.86525 -15.45699,-4.35896 -21.33627,-8.02243 1.54988,-2.33178 3.89768,-3.4586 4.95002,-3.7552 -8.23305,-2.89187 -15.8858,-8.87428 -20.48281,-11.77762 1.05549,-2.10644 3.61659,-3.54794 6.6569,-5.1207 -9.486421,-5.96354 -21.798731,-9.46329 -39.600126,-11.09486 11.445491,-15.84711 22.132936,-19.50446 46.427736,-16.38627 -9.10572,-16.17432 -14.86057,-32.869368 -15.02074,-50.865675 16.41563,2.962609 32.49682,13.586203 44.03804,22.189751 -0.13103,-18.587972 4.82858,-29.280198 15.53286,-41.136342 1.69285,19.101361 6.1914,35.242344 13.99656,49.500256 0.45846,-2.00482 2.27871,-4.37857 4.43793,-5.80348 1.96906,2.97995 5.3415,10.84443 6.82759,17.58111 0.67103,-1.60484 2.78349,-3.97787 4.26726,-5.1207 1.34801,2.76553 5.41264,11.26144 5.80348,21.84831 0.75292,-1.69772 2.41166,-3.10774 3.58446,-3.41378 9.41004,38.26648 -2.97979,48.42109 2.56039,56.49844 0.92899,-4.21927 5.199,-6.81947 6.8276,-6.82756 -0.914,8.80602 0.003,10.94549 2.73103,19.97072 1.59765,-3.09229 4.83329,-4.87062 6.65693,-4.95 -1.00383,6.70893 -0.28731,14.07283 2.04827,23.89658 1.23795,-2.85556 3.12575,-4.09679 5.80349,-4.26723 -1.18464,4.72601 -0.35554,12.73239 0.68277,19.79111 1.21502,-1.63009 3.18862,-4.24581 6.01767,-4.73454 -1.98952,8.82493 -0.0772,21.4292 0.12949,29.59161 0.64283,25.40261 2.91598,37.28143 7.2651,46.75475 4.34912,-9.47332 6.62227,-21.35214 7.2651,-46.75475 0.20658,-8.16241 2.11901,-20.76668 0.12949,-29.59161 2.82905,0.48873 4.80265,3.10445 6.01767,4.73454 1.03831,-7.05872 1.86741,-15.0651 0.68277,-19.79111 2.67774,0.17044 4.56554,1.41167 5.80349,4.26723 2.33557,-9.82375 3.05209,-17.18765 2.04826,-23.89658 1.82364,0.0795 5.05928,1.85771 6.65693,4.95 2.72783,-9.02523 3.64503,-11.1647 2.73103,-19.97072 1.6286,0.008 5.89861,2.60829 6.8276,6.82756 5.54018,-8.07735 -6.84965,-18.23196 2.56039,-56.49844 1.1728,0.30604 2.83154,1.71606 3.58446,3.41378 0.39084,-10.58687 4.45547,-19.08278 5.80348,-21.84831 1.48377,1.14283 3.59623,3.51586 4.26726,5.1207 1.48609,-6.73668 4.85853,-14.60116 6.82759,-17.58111 2.15922,1.42491 3.97947,3.79866 4.43793,5.80348 7.80516,-14.257915 12.30371,-30.398898 13.99656,-49.500259 10.70428,11.856144 15.66389,22.54837 15.53286,41.136345 11.54122,-8.603551 27.62241,-19.227145 44.03804,-22.189754 -0.16017,17.996307 -5.91502,34.691358 -15.02074,50.865678 24.29481,-3.11819 34.98227,0.53916 46.42773,16.38627 -17.80138,1.63157 -30.1137,5.13132 -39.60012,11.09486 3.04031,1.57276 5.60141,3.01426 6.6569,5.1207 -4.59701,2.90334 -12.24976,8.88575 -20.48281,11.77762 1.05234,0.2966 3.40014,1.42342 4.95002,3.7552 -5.87928,3.66347 -13.69985,7.15718 -21.33627,8.02243 1.83424,0.97925 4.18089,3.08353 5.1207,4.77933 -33.3984,19.34488 -51.21789,6.71621 -55.64501,11.43623 2.27165,0.43391 5.25112,1.87702 6.65693,3.24313 l -14.85006,15.36212 c 2.98866,-0.0842 6.24572,0.51448 8.46379,1.53889 -5.08126,4.91743 -10.3136,10.68257 -18.19315,19.11464 3.20987,-0.84724 7.50406,-1.01701 9.38799,-0.68278 -21.48504,25.79414 -23.70022,69.24418 -25.43286,88.75889 l 14.67937,-9.9 c -2.19821,-35.20926 2.91903,-57.82343 26.96906,-80.90715 2.14177,3.27166 3.79572,6.55339 4.95002,10.41206 2.65992,-1.93108 8.25483,-4.976 11.60689,-5.63273 0.37307,18.58202 -3.34706,33.78042 -11.60689,48.64667 12.43634,-17.09897 28.64269,-33.10836 49.32945,-42.16047 l -0.17068,14.50869 c 6.58944,-1.70358 24.08057,-1.084 32.26045,0.68273 -1.98716,11.96683 -9.75164,23.45843 -17.4104,31.57771 3.76018,1.52674 9.06612,5.23768 11.09486,8.02243 -20.16095,14.95591 -40.93114,17.46582 -62.30195,18.7759 17.48991,8.28782 35.32637,23.78913 42.3312,34.82081 -3.93458,2.90123 -17.49434,5.88618 -22.18971,5.97416 0.39322,3.02765 0.41922,10.03311 -0.17074,12.80179 -22.09881,-8.90612 -44.10298,-23.58958 -59.05876,-41.47771 -5.06568,2.58796 -13.37901,9.34936 -19.97078,17.41039 25.97516,4.6478 55.26875,17.29125 72.20198,53.08463 -5.7344,3.66203 -11.412,4.28634 -20.14146,4.09656 0.48663,4.32297 1.00712,8.69665 0.68274,13.65527 -22.57265,-8.3086 -42.64833,-26.3214 -56.66912,-43.35535 13.97128,27.64103 24.18835,59.41992 21.84831,88.58822 -4.73749,-1.69528 -9.94412,-4.79788 -15.36208,-8.53453 -3.04173,13.57202 -12.90862,27.47962 -19.21571,34.16316 -6.30709,-6.68354 -16.17398,-20.59114 -19.21571,-34.16316 z" /><path
     d="m 107.49121,108.42885 c -5.83348,0.18804 -12.325726,0.18249 -18.39337,2.35553 1.895219,4.74033 6.408953,10.33333 10.876179,14.52357"
     id="path4318"
     style="fill:none;stroke:#000000;stroke-width:1;stroke-linecap:round;stroke-opacity:1;stroke-miterlimit:4;stroke-dasharray:none" /><path
     d="m 131.28689,87.95615 c 0.0494,-6.550619 2.50333,-14.508457 5.89469,-17.341798 3.53867,1.774597 7.5745,4.932833 10.19125,8.29152"
     id="path4320"
     style="fill:none;stroke:#000000;stroke-width:1;stroke-linecap:round;stroke-opacity:1;stroke-miterlimit:4;stroke-dasharray:none" /><path
     style="fill:none;stroke:#000000;stroke-width:1;stroke-linecap:round;stroke-opacity:1;stroke-miterlimit:4;stroke-dasharray:none"
     id="path4328"
     d="m 373.50878,108.42885 c 5.83348,0.18804 12.32573,0.18249 18.39337,2.35553 -1.89521,4.74033 -6.40894,10.33333 -10.87618,14.52357" /><path
     style="fill:none;stroke:#000000;stroke-width:1;stroke-linecap:round;stroke-opacity:1;stroke-miterlimit:4;stroke-dasharray:none"
     id="path4330"
     d="m 349.7131,87.956147 c -0.0494,-6.550619 -2.50333,-14.508457 -5.89469,-17.341798 -3.53867,1.774597 -7.5745,4.932833 -10.19125,8.29152" /></svg>