<?xml version="1.0" encoding="UTF-8" standalone="no"?>
<svg
   xmlns:dc="http://purl.org/dc/elements/1.1/"
   xmlns:cc="http://creativecommons.org/ns#"
   xmlns:rdf="http://www.w3.org/1999/02/22-rdf-syntax-ns#"
   xmlns:svg="http://www.w3.org/2000/svg"
   xmlns="http://www.w3.org/2000/svg"
   id="svg2"
   version="1.1"
   x="0"
   y="0"
   width="400"
   height="500"
   viewBox="30.5 31.5 400 500"
   enable-background="new 30.5 31.5 412 533"
   xml:space="preserve"><metadata
     id="metadata4"><rdf:RDF><cc:Work
         rdf:about=""><dc:format>
          
          
          
          image/svg+xml
        
        
        
        </dc:format><dc:type
           rdf:resource="http://purl.org/dc/dcmitype/StillImage" /><dc:title></dc:title></cc:Work></rdf:RDF></metadata><defs
     id="defs6" /><path
     style="fill:#0085ca;fill-opacity:1"
     id="path8"
     d="M 230.56,531.14 C 304.88,477.22 355.82,409.12 386.3,322.98 413.94,244.88 425.03,150.23 420.21,33.63 l -0.02,-0.46 -379.82,0 -0.02,0.46 c -4.81,116.6 6.28,211.24 33.91,289.35 30.48,86.14 81.42,154.24 155.74,208.16 l 0.28,0.2 0.28,-0.2 z" /><path
     id="path10"
     d="M 41.04,33.21 C 31.97,252.66 77.3,419.16 230.5,530.31 383.69,419.16 429.01,252.66 419.94,33.21 l -189.45,0 -189.45,0 m -0.92,-0.95 0.92,0 189.45,0 189.45,0 0.92,0 0.04,0.92 c 4.82,116.66 -6.28,211.36 -33.93,289.52 -30.51,86.24 -81.51,154.41 -155.91,208.39 l -0.56,0.41 -0.56,-0.41 C 155.54,477.11 104.54,408.94 74.03,322.7 46.38,244.54 35.28,149.84 40.1,33.18 l 0.04,-0.92 0,0 z" /><path
     id="path4648"
     d="m 136.79543,439.69389 0,-178.06115 c -7.31092,-1.46113 -16.17872,-4.86799 -24.94044,-10.23758 l -3.37355,2.06927 -12.41598,-11.98189 1.41571,-2.828 C 86.81751,225.56505 81.19273,209.66975 80.891,195.2913 c -0.33191,-15.816 4.9155,-31.83881 14.30143,-44.4196 l -1.85135,-3.15628 c 2.51553,-3.36418 9.83341,-11.08363 12.6347,-12.63578 l 2.93888,2.17873 c 8.3253,-5.50624 17.24501,-10.19518 27.88077,-12.52456 l 1.74078,-24.829771 c 0.67304,-9.599931 2.97971,-15.515668 8.387,-18.624909 l 0.54532,-15.574133 c 0.0759,-2.166125 0.93719,-4.135687 3.03147,-4.135687 2.09428,0 2.95562,1.969562 3.03147,4.135687 l 0.54532,15.574133 c 5.40729,3.109241 7.71396,9.024978 8.387,18.624909 l 1.74078,24.829771 c 10.63576,2.32938 19.55547,7.01832 27.88077,12.52456 l 2.93888,-2.17873 c 2.80129,1.55215 10.11918,9.2716 12.6347,12.63578 l -1.85134,3.15628 c 9.38592,12.58079 14.63333,28.6036 14.30143,44.4196 -0.30174,14.37845 -5.92652,30.27375 -16.59018,43.36324 l 1.41571,2.828 -12.41598,11.98189 -3.37355,-2.06927 c -8.76172,5.36959 -17.62952,8.77645 -24.94044,10.23758 l 0,210.60023 c -9.7381,-10.41656 -19.10091,-21.10119 -27.40914,-32.53908 z"
     style="fill:#ffffff;fill-rule:evenodd;stroke:#000000;stroke-width:1px;stroke-linecap:butt;stroke-linejoin:miter;stroke-opacity:1" /><path
     id="path4654"
     d="m 136.79543,231.47857 c -1.4203,-0.7036 -3.92585,1.93153 -7.66478,4.79227 -3.66145,2.80145 -8.47159,7.63594 -8.47159,7.63594 5.39348,3.06797 9.75247,5.04028 16.13637,6.64997 0,0 0.99999,-18.5828 0,-19.07818 z"
     style="fill:#0085ca;fill-opacity:1;fill-rule:evenodd;stroke:#000000;stroke-width:1px;stroke-linecap:butt;stroke-linejoin:miter;stroke-opacity:1" /><path
     style="fill:#0085ca;fill-opacity:1;fill-rule:evenodd;stroke:#000000;stroke-width:1px;stroke-linecap:butt;stroke-linejoin:miter;stroke-opacity:1"
     d="m 136.46732,161.1088 c -0.83929,0.36652 -5.87187,-4.21272 -9.51811,-7.1907 -4.09752,-3.34655 -9.34374,-8.94417 -9.34374,-8.94417 3.68806,-3.01089 13.34142,-7.18966 19.18891,-8.61254 0,0 0.19845,7.48864 0.21804,12.42824 0.0175,4.41142 0.39588,11.90826 -0.5451,12.31917 z"
     id="path4658" /><path
     id="path4660"
     d="m 102.23478,160.17987 25.07501,32.05006 c 2.39272,3.05829 1.35569,5.12215 -0.43519,7.41597 l -22.89551,29.32522 C 88.18268,207.84054 88.03103,181.64766 102.23478,160.17987 Z"
     style="fill:#0085ca;fill-opacity:1;fill-rule:evenodd;stroke:#000000;stroke-width:1px;stroke-linecap:butt;stroke-linejoin:miter;stroke-opacity:1" /><path
     style="fill:#0085ca;fill-opacity:1;fill-rule:evenodd;stroke:#000000;stroke-width:1px;stroke-linecap:butt;stroke-linejoin:miter;stroke-opacity:1"
     d="m 164.20457,231.47857 c 1.4203,-0.7036 3.92585,1.93153 7.66478,4.79227 3.66145,2.80145 8.47159,7.63594 8.47159,7.63594 -5.39348,3.06797 -9.75247,5.04028 -16.13637,6.64997 0,0 -0.99999,-18.5828 0,-19.07818 z"
     id="path4664" /><path
     id="path4666"
     d="m 164.53268,161.1088 c 0.83929,0.36652 5.87187,-4.21272 9.51811,-7.1907 4.09752,-3.34655 9.34374,-8.94417 9.34374,-8.94417 -3.68806,-3.01089 -13.34142,-7.18966 -19.18891,-8.61254 0,0 -0.19845,7.48864 -0.21804,12.42824 -0.0175,4.41142 -0.39588,11.90826 0.5451,12.31917 z"
     style="fill:#0085ca;fill-opacity:1;fill-rule:evenodd;stroke:#000000;stroke-width:1px;stroke-linecap:butt;stroke-linejoin:miter;stroke-opacity:1" /><path
     style="fill:#0085ca;fill-opacity:1;fill-rule:evenodd;stroke:#000000;stroke-width:1px;stroke-linecap:butt;stroke-linejoin:miter;stroke-opacity:1"
     d="m 198.76522,160.17987 -25.07501,32.05006 c -2.39272,3.05829 -1.35569,5.12215 0.43519,7.41597 l 22.89551,29.32522 c 15.79641,-21.13058 15.94806,-47.32346 1.74431,-68.79125 z"
     id="path4668" /><path
     style="fill:#ffffff;fill-rule:evenodd;stroke:#000000;stroke-width:1px;stroke-linecap:butt;stroke-linejoin:miter;stroke-opacity:1"
     d="m 324.20457,439.69389 0,-178.06115 c 7.31092,-1.46113 16.17872,-4.86799 24.94044,-10.23758 l 3.37355,2.06927 12.41597,-11.98189 -1.4157,-2.828 c 10.66365,-13.08949 16.28843,-28.98479 16.59017,-43.36324 0.33191,-15.816 -4.91551,-31.83881 -14.30143,-44.4196 l 1.85135,-3.15628 c -2.51553,-3.36418 -9.83341,-11.08363 -12.6347,-12.63578 l -2.93888,2.17873 c -8.3253,-5.50624 -17.24501,-10.19518 -27.88077,-12.52456 l -1.74078,-24.829771 c -0.67304,-9.599931 -2.97971,-15.515668 -8.387,-18.624909 l -0.54532,-15.574133 c -0.0759,-2.166125 -0.93719,-4.135687 -3.03147,-4.135687 -2.09428,0 -2.95562,1.969562 -3.03147,4.135687 l -0.54532,15.574133 c -5.40729,3.109241 -7.71396,9.024978 -8.387,18.624909 l -1.74078,24.829771 c -10.63576,2.32938 -19.55547,7.01832 -27.88077,12.52456 l -2.93888,-2.17873 c -2.80129,1.55215 -10.11919,9.2716 -12.63471,12.63578 l 1.85134,3.15628 c -9.38592,12.58079 -14.63333,28.6036 -14.30143,44.4196 0.30174,14.37845 5.92652,30.27375 16.59018,43.36324 l -1.41571,2.828 12.41599,11.98189 3.37355,-2.06927 c 8.76172,5.36959 17.62952,8.77645 24.94044,10.23758 l 0,210.60023 c 9.7381,-10.41656 19.10091,-21.10119 27.40914,-32.53908 z"
     id="path4674" /><path
     style="fill:#0085ca;fill-opacity:1;fill-rule:evenodd;stroke:#000000;stroke-width:1px;stroke-linecap:butt;stroke-linejoin:miter;stroke-opacity:1"
     d="m 324.20457,231.47857 c 1.4203,-0.7036 3.92585,1.93153 7.66478,4.79227 3.66145,2.80145 8.47159,7.63594 8.47159,7.63594 -5.39348,3.06797 -9.75247,5.04028 -16.13637,6.64997 0,0 -0.99999,-18.5828 0,-19.07818 z"
     id="path4676" /><path
     id="path4678"
     d="m 324.53268,161.1088 c 0.83929,0.36652 5.87187,-4.21272 9.51811,-7.1907 4.09752,-3.34655 9.34374,-8.94417 9.34374,-8.94417 -3.68806,-3.01089 -13.34142,-7.18966 -19.18891,-8.61254 0,0 -0.19845,7.48864 -0.21804,12.42824 -0.0175,4.41142 -0.39588,11.90826 0.5451,12.31917 z"
     style="fill:#0085ca;fill-opacity:1;fill-rule:evenodd;stroke:#000000;stroke-width:1px;stroke-linecap:butt;stroke-linejoin:miter;stroke-opacity:1" /><path
     style="fill:#0085ca;fill-opacity:1;fill-rule:evenodd;stroke:#000000;stroke-width:1px;stroke-linecap:butt;stroke-linejoin:miter;stroke-opacity:1"
     d="m 358.76522,160.17987 -25.07501,32.05006 c -2.39272,3.05829 -1.35569,5.12215 0.43519,7.41597 l 22.89551,29.32522 c 15.79641,-21.13058 15.94806,-47.32346 1.74431,-68.79125 z"
     id="path4680" /><path
     id="path4682"
     d="m 296.79543,231.47857 c -1.4203,-0.7036 -3.92585,1.93153 -7.66478,4.79227 -3.66145,2.80145 -8.47159,7.63594 -8.47159,7.63594 5.39348,3.06797 9.75247,5.04028 16.13637,6.64997 0,0 0.99999,-18.5828 0,-19.07818 z"
     style="fill:#0085ca;fill-opacity:1;fill-rule:evenodd;stroke:#000000;stroke-width:1px;stroke-linecap:butt;stroke-linejoin:miter;stroke-opacity:1" /><path
     style="fill:#0085ca;fill-opacity:1;fill-rule:evenodd;stroke:#000000;stroke-width:1px;stroke-linecap:butt;stroke-linejoin:miter;stroke-opacity:1"
     d="m 296.46732,161.1088 c -0.83929,0.36652 -5.87187,-4.21272 -9.51811,-7.1907 -4.09752,-3.34655 -9.34374,-8.94417 -9.34374,-8.94417 3.68806,-3.01089 13.34142,-7.18966 19.18891,-8.61254 0,0 0.19845,7.48864 0.21804,12.42824 0.0175,4.41142 0.39588,11.90826 -0.5451,12.31917 z"
     id="path4684" /><path
     id="path4686"
     d="m 262.23478,160.17987 25.07501,32.05006 c 2.39272,3.05829 1.35569,5.12215 -0.43519,7.41597 l -22.89551,29.32522 c -15.79641,-21.13058 -15.94806,-47.32346 -1.74431,-68.79125 z"
     style="fill:#0085ca;fill-opacity:1;fill-rule:evenodd;stroke:#000000;stroke-width:1px;stroke-linecap:butt;stroke-linejoin:miter;stroke-opacity:1" /></svg>