<?xml version="1.0" encoding="UTF-8" standalone="no"?>
<svg
   xmlns:dc="http://purl.org/dc/elements/1.1/"
   xmlns:cc="http://creativecommons.org/ns#"
   xmlns:rdf="http://www.w3.org/1999/02/22-rdf-syntax-ns#"
   xmlns:svg="http://www.w3.org/2000/svg"
   xmlns="http://www.w3.org/2000/svg"
   xml:space="preserve"
   enable-background="new 30.5 31.5 412 533"
   viewBox="30.5 31.5 400 500"
   height="500"
   width="400"
   y="0"
   x="0"
   version="1.1"
   id="svg2"><metadata
     id="metadata4"><rdf:RDF><cc:Work
         rdf:about=""><dc:format>
          
          
          
          image/svg+xml
        
        
        
        </dc:format><dc:type
           rdf:resource="http://purl.org/dc/dcmitype/StillImage" /><dc:title></dc:title></cc:Work></rdf:RDF></metadata><defs
     id="defs6" /><path
     d="M 230.44,531.14 C 156.12,477.22 105.18,409.12 74.7,322.98 47.06,244.88 35.97,150.23 40.79,33.63 l 0.02,-0.46 379.82,0 0.02,0.46 c 4.81,116.6 -6.28,211.24 -33.91,289.35 C 356.26,409.12 305.32,477.22 231,531.14 l -0.28,0.2 -0.28,-0.2 z"
     id="path8"
     style="fill:#ffe000;fill-opacity:1" /><path
     style="fill:#000000;fill-opacity:1;fill-rule:evenodd;stroke:#000000;stroke-width:1px;stroke-linecap:butt;stroke-linejoin:round;stroke-opacity:1"
     d="m 286.55796,321.03039 0,-141.53039 -5.05796,0 0,-16 5.05796,0 0,-4.34789 c -30.40518,-6.07704 -41.68801,-29.91087 -41.91733,-43.68544 -0.45007,-27.034609 25.89271,-41.445989 41.91733,-43.565149 l 0,-4.31529 8.44204,0 8.44204,0 0,4.31529 c 16.02462,2.11916 42.36739,16.53054 41.91732,43.565149 -0.22931,13.77457 -11.51214,37.6084 -41.91732,43.68544 l 0,4.34789 5.05796,0 0,16 -5.05796,0 0,97 9.05796,0 0,-15 23,0 0,15 8.51614,0 0,-15 6.88904,0 0,60 -6.88904,0 0,-13 -8.51614,0 0,13 -23,0 0,-13 -9.05796,0 0,12.53039 z"
     id="path4267" /><path
     d="M 419.96,33.21 C 429.03,252.66 383.7,419.16 230.5,530.31 77.31,419.16 31.99,252.66 41.06,33.21 l 189.45,0 189.45,0 m 0.92,-0.95 -0.92,0 -189.45,0 -189.45,0 -0.92,0 -0.04,0.92 c -4.82,116.66 6.28,211.36 33.93,289.52 30.51,86.24 81.51,154.41 155.91,208.39 l 0.56,0.41 0.56,-0.41 C 305.46,477.11 356.46,408.94 386.97,322.7 414.62,244.54 425.72,149.84 420.9,33.18 l -0.04,-0.92 0,0 z"
     id="path10" /><path
     style="fill:#000000;fill-opacity:1;fill-rule:evenodd;stroke:#000000;stroke-width:1px;stroke-linecap:butt;stroke-linejoin:round;stroke-opacity:1"
     d="m 126.55796,321.03039 0,-141.53039 -5.05796,0 0,-16 5.05796,0 0,-4.34789 C 96.15278,153.07507 84.86995,129.24124 84.64063,115.46667 84.19056,88.432059 110.53334,74.020681 126.55796,71.901521 l 0,-4.315291 8.44204,0 8.44204,0 0,4.315291 c 16.02462,2.11916 42.36739,16.530538 41.91732,43.565149 -0.22931,13.77457 -11.51214,37.6084 -41.91732,43.68544 l 0,4.34789 5.05796,0 0,16 -5.05796,0 0,97 9.05796,0 0,-15 23,0 0,15 8.51614,0 0,-15 6.88904,0 0,60 -6.88904,0 0,-13 -8.51614,0 0,13 -23,0 0,-13 -9.05796,0 0,12.53039 z"
     id="path4236" /><ellipse
     ry="32.525673"
     rx="34.693333"
     style="opacity:1;fill:#ffe000;fill-opacity:1;fill-rule:evenodd;stroke:#000000;stroke-width:0.99658787;stroke-linecap:round;stroke-linejoin:round;stroke-miterlimit:4;stroke-dasharray:none;stroke-opacity:1"
     id="path4234"
     cx="135"
     cy="115.51114" /><path
     style="fill:none;fill-rule:evenodd;stroke:#ffe000;stroke-width:3;stroke-linecap:butt;stroke-linejoin:miter;stroke-miterlimit:4;stroke-dasharray:none;stroke-opacity:1"
     d="m 120.35864,171.5 29.50831,0"
     id="path4240" /><path
     style="fill:none;fill-rule:evenodd;stroke:#000000;stroke-width:8;stroke-linecap:butt;stroke-linejoin:miter;stroke-miterlimit:4;stroke-dasharray:none;stroke-opacity:1"
     d="m 135,81.989892 0,67.384158"
     id="path4244" /><path
     id="path4250"
     d="m 169.80439,115.46667 -69.60878,0"
     style="fill:none;fill-rule:evenodd;stroke:#000000;stroke-width:8.23665524;stroke-linecap:butt;stroke-linejoin:miter;stroke-miterlimit:4;stroke-dasharray:none;stroke-opacity:1" /><path
     style="fill:none;fill-rule:evenodd;stroke:#ffe000;stroke-width:10;stroke-linecap:butt;stroke-linejoin:miter;stroke-miterlimit:4;stroke-dasharray:none;stroke-opacity:1"
     d="m 144.01269,292.5 39.69031,0"
     id="path4264" /><path
     style="fill:none;fill-rule:evenodd;stroke:#ffe000;stroke-width:10;stroke-linecap:butt;stroke-linejoin:miter;stroke-miterlimit:4;stroke-dasharray:none;stroke-opacity:1"
     d="m 164,270 0,43"
     id="path4266" /><path
     id="path4248"
     d="m 212.55796,411.03039 0,-141.53039 -5.05796,0 0,-16 5.05796,0 0,-4.34789 c -30.40518,-6.07704 -41.68801,-29.91087 -41.91733,-43.68544 -0.45007,-27.03461 25.89271,-41.44599 41.91733,-43.56515 l 0,-4.31529 8.44204,0 8.44204,0 0,4.31529 c 16.02462,2.11916 42.36739,16.53054 41.91732,43.56515 -0.22931,13.77457 -11.51214,37.6084 -41.91732,43.68544 l 0,4.34789 5.05796,0 0,16 -5.05796,0 0,97 9.05796,0 0,-15 23,0 0,15 8.51614,0 0,-15 6.88904,0 0,60 -6.88904,0 0,-13 -8.51614,0 0,13 -23,0 0,-13 -9.05796,0 0,12.53039 z"
     style="fill:#000000;fill-opacity:1;fill-rule:evenodd;stroke:#000000;stroke-width:1px;stroke-linecap:butt;stroke-linejoin:round;stroke-opacity:1" /><rect
     y="142.78954"
     x="126.55795"
     height="5.8906903"
     width="16.884081"
     id="rect4227"
     style="opacity:1;fill:#000000;fill-opacity:1;fill-rule:evenodd;stroke:none;stroke-width:2;stroke-linecap:butt;stroke-linejoin:miter;stroke-miterlimit:4;stroke-dasharray:none;stroke-opacity:1" /><rect
     style="opacity:1;fill:#000000;fill-opacity:1;fill-rule:evenodd;stroke:none;stroke-width:2;stroke-linecap:butt;stroke-linejoin:miter;stroke-miterlimit:4;stroke-dasharray:none;stroke-opacity:1"
     id="rect4231"
     width="16.884081"
     height="5.8906903"
     x="126.55795"
     y="81.503571" /><ellipse
     cy="205.51114"
     cx="221"
     id="ellipse4250"
     style="opacity:1;fill:#ffe000;fill-opacity:1;fill-rule:evenodd;stroke:#000000;stroke-width:0.99658787;stroke-linecap:round;stroke-linejoin:round;stroke-miterlimit:4;stroke-dasharray:none;stroke-opacity:1"
     rx="34.693333"
     ry="32.525673" /><path
     id="path4252"
     d="m 206.35864,261.5 29.50831,0"
     style="fill:none;fill-rule:evenodd;stroke:#ffe000;stroke-width:3;stroke-linecap:butt;stroke-linejoin:miter;stroke-miterlimit:4;stroke-dasharray:none;stroke-opacity:1" /><path
     id="path4254"
     d="m 221,171.98989 0,67.38416"
     style="fill:none;fill-rule:evenodd;stroke:#000000;stroke-width:8;stroke-linecap:butt;stroke-linejoin:miter;stroke-miterlimit:4;stroke-dasharray:none;stroke-opacity:1" /><path
     style="fill:none;fill-rule:evenodd;stroke:#000000;stroke-width:8.23665524;stroke-linecap:butt;stroke-linejoin:miter;stroke-miterlimit:4;stroke-dasharray:none;stroke-opacity:1"
     d="m 255.80439,205.46667 -69.60878,0"
     id="path4256" /><path
     id="path4258"
     d="m 230.01269,382.5 39.69031,0"
     style="fill:none;fill-rule:evenodd;stroke:#ffe000;stroke-width:10;stroke-linecap:butt;stroke-linejoin:miter;stroke-miterlimit:4;stroke-dasharray:none;stroke-opacity:1" /><path
     id="path4260"
     d="m 250,360 0,43"
     style="fill:none;fill-rule:evenodd;stroke:#ffe000;stroke-width:10;stroke-linecap:butt;stroke-linejoin:miter;stroke-miterlimit:4;stroke-dasharray:none;stroke-opacity:1" /><rect
     style="opacity:1;fill:#000000;fill-opacity:1;fill-rule:evenodd;stroke:none;stroke-width:2;stroke-linecap:butt;stroke-linejoin:miter;stroke-miterlimit:4;stroke-dasharray:none;stroke-opacity:1"
     id="rect4262"
     width="16.884081"
     height="5.8906903"
     x="212.55795"
     y="232.78954" /><rect
     y="171.50357"
     x="212.55795"
     height="5.8906903"
     width="16.884081"
     id="rect4264"
     style="opacity:1;fill:#000000;fill-opacity:1;fill-rule:evenodd;stroke:none;stroke-width:2;stroke-linecap:butt;stroke-linejoin:miter;stroke-miterlimit:4;stroke-dasharray:none;stroke-opacity:1" /><ellipse
     ry="32.525673"
     rx="34.693333"
     style="opacity:1;fill:#ffe000;fill-opacity:1;fill-rule:evenodd;stroke:#000000;stroke-width:0.99658787;stroke-linecap:round;stroke-linejoin:round;stroke-miterlimit:4;stroke-dasharray:none;stroke-opacity:1"
     id="ellipse4269"
     cx="295"
     cy="115.51114" /><path
     style="fill:none;fill-rule:evenodd;stroke:#ffe000;stroke-width:3;stroke-linecap:butt;stroke-linejoin:miter;stroke-miterlimit:4;stroke-dasharray:none;stroke-opacity:1"
     d="m 280.35864,171.5 29.50831,0"
     id="path4271" /><path
     style="fill:none;fill-rule:evenodd;stroke:#000000;stroke-width:8;stroke-linecap:butt;stroke-linejoin:miter;stroke-miterlimit:4;stroke-dasharray:none;stroke-opacity:1"
     d="m 295,81.989891 0,67.384159"
     id="path4273" /><path
     id="path4275"
     d="m 329.80439,115.46667 -69.60878,0"
     style="fill:none;fill-rule:evenodd;stroke:#000000;stroke-width:8.23665524;stroke-linecap:butt;stroke-linejoin:miter;stroke-miterlimit:4;stroke-dasharray:none;stroke-opacity:1" /><path
     style="fill:none;fill-rule:evenodd;stroke:#ffe000;stroke-width:10;stroke-linecap:butt;stroke-linejoin:miter;stroke-miterlimit:4;stroke-dasharray:none;stroke-opacity:1"
     d="m 304.01269,292.5 39.69031,0"
     id="path4277" /><path
     style="fill:none;fill-rule:evenodd;stroke:#ffe000;stroke-width:10;stroke-linecap:butt;stroke-linejoin:miter;stroke-miterlimit:4;stroke-dasharray:none;stroke-opacity:1"
     d="m 324,270 0,43"
     id="path4279" /><rect
     y="142.78954"
     x="286.55795"
     height="5.8906903"
     width="16.884081"
     id="rect4281"
     style="opacity:1;fill:#000000;fill-opacity:1;fill-rule:evenodd;stroke:none;stroke-width:2;stroke-linecap:butt;stroke-linejoin:miter;stroke-miterlimit:4;stroke-dasharray:none;stroke-opacity:1" /><rect
     style="opacity:1;fill:#000000;fill-opacity:1;fill-rule:evenodd;stroke:none;stroke-width:2;stroke-linecap:butt;stroke-linejoin:miter;stroke-miterlimit:4;stroke-dasharray:none;stroke-opacity:1"
     id="rect4283"
     width="16.884081"
     height="5.8906903"
     x="286.55795"
     y="81.503571" /></svg>