<?xml version="1.0" encoding="UTF-8" standalone="no"?>
<svg
   xmlns:dc="http://purl.org/dc/elements/1.1/"
   xmlns:cc="http://creativecommons.org/ns#"
   xmlns:rdf="http://www.w3.org/1999/02/22-rdf-syntax-ns#"
   xmlns:svg="http://www.w3.org/2000/svg"
   xmlns="http://www.w3.org/2000/svg"
   id="svg2"
   version="1.1"
   x="0"
   y="0"
   width="400"
   height="500"
   viewBox="30.5 31.5 400 500"
   enable-background="new 30.5 31.5 412 533"
   xml:space="preserve"><metadata
     id="metadata4"><rdf:RDF><cc:Work
         rdf:about=""><dc:format>
          
          
          
          image/svg+xml
        
        
        
        </dc:format><dc:type
           rdf:resource="http://purl.org/dc/dcmitype/StillImage" /><dc:title></dc:title></cc:Work></rdf:RDF></metadata><defs
     id="defs6" /><path
     style="fill:#0085ca"
     id="path8"
     d="M 230.44,531.14 C 156.12,477.22 105.18,409.12 74.7,322.98 47.06,244.88 35.97,150.23 40.79,33.63 l 0.02,-0.46 379.82,0 0.02,0.46 c 4.81,116.6 -6.28,211.24 -33.91,289.35 C 356.26,409.12 305.32,477.22 231,531.14 l -0.28,0.2 -0.28,-0.2 z" /><path
     id="path10"
     d="M 419.96,33.21 C 429.03,252.66 383.7,419.16 230.5,530.31 77.31,419.16 31.99,252.66 41.06,33.21 l 189.45,0 189.45,0 m 0.92,-0.95 -0.92,0 -189.45,0 -189.45,0 -0.92,0 -0.04,0.92 c -4.82,116.66 6.28,211.36 33.93,289.52 30.51,86.24 81.51,154.41 155.91,208.39 l 0.56,0.41 0.56,-0.41 C 305.46,477.11 356.46,408.94 386.97,322.7 414.62,244.54 425.72,149.84 420.9,33.18 l -0.04,-0.92 0,0 z" /><path
     style="fill:#ffffff;stroke:#000000;stroke-width:1;stroke-miterlimit:4;stroke-dasharray:none"
     d="m 61.31928,133.28693 c -4.47505,7.16204 10.10305,0.18565 24.33917,-4.17213 104.68481,-31.999521 215.79882,-11.71525 281.1169,0.16608 7.4454,1.35816 17.47028,-7.40628 20.6458,-2.2766 3.53704,5.6964 1.70989,29.08781 3.25369,37.87178 0.56671,3.2146 4.54344,1.45588 6.3022,-1.89552 2.4134,-4.59232 2.87263,-14.80285 3.5468,-26.68418 0.68396,-11.93996 -1.98348,-30.31893 -9.49725,-32.49781 C 278.23198,71.124835 95.32181,78.892658 61.31928,133.28693 Z"
     id="path4197-9" /><path
     style="fill:#ffffff;stroke:#000000;stroke-width:1;stroke-miterlimit:4;stroke-dasharray:none"
     id="path4283"
     d="m 78.37526,241.43252 c -4.42496,6.30605 9.23004,0.22416 22.19302,-3.80119 101.74486,-31.57902 197.35908,-14.28853 256.00444,-2.25145 6.7544,1.384 14.12284,-8.2554 17.02733,-3.57704 3.21638,5.19496 -1.44249,29.22034 -0.0389,37.23206 0.51659,2.93373 4.14232,1.32556 5.74076,-1.72515 2.20273,-4.18129 4.11308,-12.9045 4.73685,-23.72323 0.62379,-10.88696 0.41911,-28.62581 -6.25733,-31.13069 -96.43294,-36.1989 -264.17208,-21.24761 -299.40607,28.98642 z" /><path
     style="fill:#ffffff;stroke:#000000;stroke-width:1;stroke-miterlimit:4;stroke-dasharray:none"
     id="path4285"
     d="m 106.39783,335.71489 c -3.24676,5.31116 9.16849,0.53307 19.71326,-2.47141 81.47941,-23.26046 155.02121,-11.00996 205.16689,0.42644 5.42744,1.24056 12.86109,-6.34816 15.19682,-2.56835 2.59741,4.19659 -2.91725,21.70977 -1.78329,28.18394 0.41673,2.3648 3.34369,1.06608 4.64238,-1.39564 1.77363,-3.38245 5.38868,-11.49454 5.89264,-20.23659 0.504,-8.79052 3.53756,-20.90534 -1.91897,-22.7371 -89.94041,-30.03507 -221.66243,-20.49829 -246.90973,20.80842 z" /></svg>