<?xml version="1.0" encoding="UTF-8" standalone="no"?>
<svg
   xmlns:dc="http://purl.org/dc/elements/1.1/"
   xmlns:cc="http://creativecommons.org/ns#"
   xmlns:rdf="http://www.w3.org/1999/02/22-rdf-syntax-ns#"
   xmlns:svg="http://www.w3.org/2000/svg"
   xmlns="http://www.w3.org/2000/svg"
   id="svg2"
   version="1.1"
   x="0"
   y="0"
   width="400"
   height="500"
   viewBox="30.5 31.5 400 500"
   enable-background="new 30.5 31.5 412 533"
   xml:space="preserve"><metadata
     id="metadata4"><rdf:RDF><cc:Work
         rdf:about=""><dc:format>
          
          
          
          
          image/svg+xml
        
        
        
        
        </dc:format><dc:type
           rdf:resource="http://purl.org/dc/dcmitype/StillImage" /><dc:title></dc:title></cc:Work></rdf:RDF></metadata><defs
     id="defs6" /><path
     fill="#fff"
     id="path8"
     d="M230.44 531.14C156.12 477.22 105.18 409.12 74.7 322.98 47.06 244.88 35.97 150.23 40.79 33.63l0.02-0.46 379.82 0 0.02 0.46c4.81 116.6-6.28 211.24-33.91 289.35C356.26 409.12 305.32 477.22 231 531.14l-0.28 0.2-0.28-0.2z"
     style="fill-opacity:1;fill:#ffe000" /><path
     id="path4386"
     d="m 216.74056,354.38556 c -1.32335,-3.75634 8.0591,-12.19888 13.75944,-17.25408 5.70034,5.0552 15.08279,13.49774 13.75944,17.25408 -3.7898,10.75733 -12.24269,25.49636 -13.75944,25.64427 -1.51675,-0.14791 -9.96964,-14.88694 -13.75944,-25.64427 z"
     style="fill:#e00e00;fill-rule:evenodd;stroke:#000000;stroke-width:1px;stroke-linecap:butt;stroke-linejoin:miter;stroke-opacity:1;fill-opacity:1" /><path
     style="fill:#e00e00;fill-rule:evenodd;stroke:#000000;stroke-width:1px;stroke-linecap:butt;stroke-linejoin:miter;stroke-opacity:1;fill-opacity:1"
     d="m 379.33397,270.83403 c -0.55226,1.80171 -21.09754,4.30709 -36.18773,5.52392 l -4.6827,-19.56338 17.14596,-9.60942 c 8.04644,5.34335 24.31012,21.73828 23.72447,23.64888 z"
     id="path4471" /><path
     id="path4388"
     d="m 81.666031,270.83403 c 0.552266,1.80171 21.097539,4.30709 36.187729,5.52392 l 4.6827,-19.56338 -17.14596,-9.60942 c -8.04644,5.34335 -24.310114,21.73828 -23.724469,23.64888 z"
     style="fill:#e00e00;fill-rule:evenodd;stroke:#000000;stroke-width:1px;stroke-linecap:butt;stroke-linejoin:miter;stroke-opacity:1;fill-opacity:1" /><path
     id="path4390"
     d="m 137.80664,94.263172 c -1.2745,0.990011 5.13199,22.706128 11.65362,38.655888 l 18.47045,3.60414 4.67982,-20.54527 C 158.61025,105.34549 138.91066,93.405592 137.80664,94.263172 Z"
     style="fill:#e00e00;fill-rule:evenodd;stroke:#000000;stroke-width:1px;stroke-linecap:round;stroke-linejoin:round;stroke-opacity:1;fill-opacity:1" /><path
     id="path10"
     d="M419.96 33.21C429.03 252.66 383.7 419.16 230.5 530.31 77.31 419.16 31.99 252.66 41.06 33.21l189.45 0 189.45 0m0.92-0.95-0.92 0-189.45 0-189.45 0-0.92 0-0.04 0.92c-4.82 116.66 6.28 211.36 33.93 289.52 30.51 86.24 81.51 154.41 155.91 208.39l0.56 0.41 0.56-0.41C305.46 477.11 356.46 408.94 386.97 322.7 414.62 244.54 425.72 149.84 420.9 33.18l-0.04-0.92 0 0z" /><path
     style="fill:#e00e00;fill-rule:evenodd;stroke:#000000;stroke-width:1px;stroke-linecap:round;stroke-linejoin:round;stroke-opacity:1;fill-opacity:1"
     d="m 323.19336,94.263172 c 1.2745,0.990011 -5.13199,22.706128 -11.65362,38.655888 l -18.47045,3.60414 -4.67982,-20.54527 c 14.00028,-10.63244 33.69987,-22.572338 34.80389,-21.714758 z"
     id="path4473" /><path
     id="path4374"
     d="m 196.18547,362.83887 c -9.32828,-0.0175 -21.45069,-3.90103 -30.34382,-13.10645 -8.64837,-8.95206 -11.81852,-14.74654 -20.68346,-21.35456 -7.64513,-5.69876 -17.29232,-4.94715 -26.027,-15.24449 -8.18601,-9.65046 -10.2125,-22.92585 -9.92776,-32.24982 0.16712,-5.47227 0.11771,-13.79809 8.781,-22.63905 -12.24986,0.34795 -27.565954,-14.08932 -31.394574,-24.86436 -3.123256,-8.78991 -4.315245,-22.23346 1.353066,-33.70942 5.512304,-11.16011 10.654919,-15.3748 13.887398,-25.94855 2.78769,-9.1188 -1.19413,-18.93416 5.5556,-30.62909 6.3257,-10.96023 17.31144,-15.70495 26.44317,-17.6099 7.51349,-1.56737 21.30574,-4.64457 27.5194,0.80562 -2.90702,-6.29123 -1.77409,-13.06296 1.27894,-19.52792 3.18171,-6.73744 13.72109,-16.25566 28.18493,-19.232548 12.58165,-2.589505 23.93598,4.41693 39.68764,4.41693 15.75166,0 27.10599,-7.006435 39.68764,-4.41693 14.46384,2.976888 25.00322,12.495108 28.18493,19.232548 3.05303,6.46496 4.18596,13.23669 1.27894,19.52792 6.21366,-5.45019 20.00591,-2.37299 27.5194,-0.80562 9.13173,1.90495 20.11747,6.64967 26.44317,17.6099 6.74973,11.69493 2.76791,21.51029 5.5556,30.62909 3.23248,10.57375 8.3751,14.78844 13.8874,25.94855 5.66831,11.47596 4.47632,24.91951 1.35307,33.70942 -3.82862,10.77504 -19.14472,25.21231 -31.39458,24.86436 8.66329,8.84096 8.61388,17.16678 8.781,22.63905 0.28474,9.32397 -1.74175,22.59936 -9.92776,32.24982 -8.73468,10.29734 -18.38187,9.54573 -26.027,15.24449 -8.86494,6.60802 -12.03509,12.4025 -20.68346,21.35456 -8.89313,9.20542 -21.01554,13.08894 -30.34382,13.10645 -15.02285,0.0282 -28.65597,-12.54025 -34.31453,-23.98187 -5.65856,11.44162 -19.29168,24.01007 -34.31453,23.98187 z"
     style="fill:#e00e00;fill-rule:evenodd;stroke:#000000;stroke-width:1px;stroke-linecap:butt;stroke-linejoin:miter;stroke-opacity:1;fill-opacity:1" /><circle
     r="42.322063"
     cy="226.89378"
     cx="230.5"
     id="path4372"
     style="fill:none;fill-opacity:1;fill-rule:evenodd;stroke:#000000;stroke-width:1;stroke-linecap:round;stroke-linejoin:round;stroke-miterlimit:4;stroke-dasharray:none;stroke-opacity:1" /><path
     id="path4384"
     d="m 117.98443,258.2445 70.77003,-21.74446"
     style="fill:none;fill-rule:evenodd;stroke:#000000;stroke-width:1px;stroke-linecap:butt;stroke-linejoin:miter;stroke-opacity:1" /><path
     id="path4404"
     d="m 161.34849,126.2888 41.83591,68.15314"
     style="fill:none;fill-rule:evenodd;stroke:#000000;stroke-width:1px;stroke-linecap:butt;stroke-linejoin:miter;stroke-opacity:1" /><path
     id="path4416"
     d="m 230.5,269.18394 0,69.67306"
     style="fill:none;fill-rule:evenodd;stroke:#000000;stroke-width:1px;stroke-linecap:butt;stroke-linejoin:miter;stroke-opacity:1" /><path
     style="fill:none;fill-rule:evenodd;stroke:#000000;stroke-width:1px;stroke-linecap:butt;stroke-linejoin:miter;stroke-opacity:1"
     d="M 343.01557,258.2445 272.24554,236.50004"
     id="path4467" /><path
     style="fill:none;fill-rule:evenodd;stroke:#000000;stroke-width:1px;stroke-linecap:butt;stroke-linejoin:miter;stroke-opacity:1"
     d="M 299.65151,126.2888 257.8156,194.44194"
     id="path4475" /><path
     style="fill:none;fill-rule:evenodd;stroke:#000000;stroke-width:1px;stroke-linecap:butt;stroke-linejoin:miter;stroke-opacity:1"
     d="m 230.5,269.18394 0,69.67306"
     id="path4477" /></svg>