<?xml version="1.0" encoding="UTF-8" standalone="no"?>
<!-- Created with Inkscape (http://www.inkscape.org/) -->

<svg
   xmlns:svg="http://www.w3.org/2000/svg"
   xmlns="http://www.w3.org/2000/svg"
   version="1.1"
   width="405"
   height="480"
   id="svg4228">
  <defs
     id="defs4232" />
  <path
     d="M 4.2288279,3.7769768 402.50948,3.7459418 C 402.50749,270.30847 402.48559,274.24012 402.48559,274.25394 403.50698,545.3568 4.2306749,545.36153 4.2273003,274.25295 L 4.2263596,3.7803501 z"
     id="path2902"
     style="fill:#207dbf;fill-opacity:1;stroke:#000000;stroke-width:4.48374701;stroke-miterlimit:4;stroke-opacity:1;stroke-dasharray:none" />
  <path
     d="m 4.3752927,211.84797 68.5388183,-65.27282 65.799329,64.38349 64.78767,-64.1162 64.69466,64.29436 65.92474,-64.3919 68.09872,64.29583 c -1.15425,36.02857 2.37811,71.28046 -3.46065,108.08778 -8.56563,41.93089 -24.65391,67.2591 -32.52303,78.62996 -0.73412,1.06041 -0.40417,-5.00323 -20.2,-4.47411 -23.14795,0.61831 -30.93408,18.95188 -72.55503,19.52883 -41.21212,0.57148 -41.02934,-19.66171 -66.29788,-19.37897 -34.99112,0.39134 -28.49679,18.02963 -69.98489,17.87026 -39.532457,-0.14922 -44.221539,-18.94363 -66.991682,-18.6909 -8.34655,0.0944 -16.698536,1.18477 -27.752956,7.41932 C 41.190988,400.74528 18.475677,365.1761 8.8632653,325.85336 0.78832507,288.14041 5.6328307,249.85993 4.3752927,211.84797 z"
     id="path3004"
     style="fill:#000000;stroke:none" />
  <path
     d="m 10.963541,321.03737 c 0,0 36.855316,-16.0081 56.299341,-16.25846 28.831873,-0.37052 43.730378,19.7533 71.569088,18.60901 25.31405,-1.04117 41.83939,-19.02465 63.84209,-18.41203 36.41867,1.01868 34.27161,20.15572 69.36221,20.37077 29.06991,1.64158 50.46646,-21.19932 78.93983,-20.82898 25.65377,0.33344 32.30226,5.45348 45.52336,11.62414 -1.1474,6.98003 -2.85713,13.82379 -4.6913,20.63763 -15.83645,-8.08898 -31.2025,-11.45086 -44.82268,-10.99331 -28.67282,0.96479 -40.20225,19.67933 -71.45943,21.24507 -34.19567,1.7131 -33.92253,-22.79945 -73.58824,-21.29295 -25.50409,0.96873 -34.45204,18.72878 -63.34333,19.48864 -29.65617,0.77997 -38.819944,-19.42455 -71.331598,-19.29279 -16.815039,0.0701 -37.349345,6.9209 -51.331679,14.49456 -1.844548,-6.28097 -3.608737,-12.6404 -4.967662,-19.3913 z"
     id="path3006"
     style="fill:#e6e6e6;stroke:none" />
  <path
     d="m 18.155132,346.0269 c 0,0 29.677763,-11.29644 49.119479,-11.55153 28.829643,-0.37745 43.728289,20.12408 71.562419,18.91994 30.25702,-1.30946 41.83663,-19.34377 63.83709,-18.72043 36.41623,1.03547 34.31202,19.42333 69.35528,20.71241 28.26653,1.03878 49.56153,-20.46792 77.64491,-19.87571 14.45182,0.30515 24.48983,1.77598 39.92489,9.18949 -1.97128,6.22979 -4.27322,12.3516 -7.28269,18.24612 -17.55881,-8.29828 -32.26444,-7.77579 -41.66617,-7.16218 -22.70071,1.48262 -32.44191,20.1831 -68.25283,20.11541 -34.29296,-0.0698 -30.77263,-20.8028 -70.4596,-20.11541 -27.32361,0.47367 -36.91769,18.28362 -63.46891,18.91992 -27.9865,0.67081 -38.779985,-18.12819 -71.194389,-18.7213 -14.788681,-0.26873 -26.122991,2.67779 -41.39203,10.02234 -3.143492,-5.7823 -5.809628,-12.3031 -7.727449,-19.97907 z"
     id="path3006-5"
     style="fill:#e6e6e6;stroke:none" />
  <path
     d="m 29.380983,372.81876 c 0,0 18.468918,-9.09787 37.908141,-9.3557 28.826981,-0.38459 43.723076,20.41243 71.555016,19.22992 25.30915,-1.07549 41.83196,-19.66078 63.83005,-19.02808 36.41167,1.05317 38.69176,21.08209 69.3482,21.05204 32.61708,-0.0232 46.43594,-17.04545 63.73806,-20.76094 1.82264,-0.3914 3.68394,-0.63515 5.60994,-0.69579 9.34909,-0.29433 26.91762,0.55893 38.26176,6.09209 -3.36111,6.74858 -6.75301,14.54086 -11.31373,20.36122 -6.9239,-3.15043 -13.43964,-5.02107 -21.44189,-4.74494 -29.14337,1.00207 -37.12653,20.24885 -74.48605,20.59788 -35.94384,0.33667 -32.79874,-21.34691 -70.45233,-20.44454 -27.4855,0.65989 -33.15983,18.85607 -63.46206,19.23087 -34.07432,0.41671 -41.813655,-19.9334 -71.186966,-19.0281 -9.453171,0.29097 -19.437028,1.59781 -26.97873,6.69215 -4.069705,-5.81835 -7.49743,-11.67311 -10.929411,-19.19808 z"
     id="path3006-6"
     style="fill:#e6e6e6;stroke:none" />
  <path
     d="m 109.90984,109.04844 c 23.67998,-14.051717 30.78942,-37.709384 48.40698,-34.326024 8.9625,1.722062 18.2427,1.260731 21.67064,-1.245267 31.20481,-22.798995 43.39466,-27.749992 65.75416,-32.724793 l 12.60818,6.047057 c -34.73482,9.307729 -47.56119,31.174156 -65.79938,36.460405 20.35669,-6.041113 30.40184,-28.130805 65.52362,-36.283504 l 23.73953,11.754371 c -24.99816,-1.331926 -36.39506,21.566153 -57.23868,29.152913 10.50373,-3.644406 15.90736,-8.995809 23.19252,-14.406449 l 30.3688,4.980821 c 7.94584,1.302263 12.82219,-3.57095 15.46107,-7.292264 l 15.64398,26.499762 c -8.10693,-2.300469 -15.33746,-2.067553 -23.74367,0 -24.21196,5.956732 -36.63282,16.605062 -75.64538,17.963372 -19.3163,0.67402 -33.13122,-9.39507 -47.48747,-11.73816 -14.69642,-2.39789 -28.33051,-0.0957 -52.4549,5.15776 z"
     id="path3842"
     style="fill:#e6e6e6;stroke:#000000;stroke-width:4.5;stroke-linecap:butt;stroke-linejoin:round;stroke-miterlimit:4;stroke-opacity:1;stroke-dasharray:none" />
  <path
     d="m 245.83414,40.718914 c 23.12615,11.284737 42.3499,21.62989 62.40249,30.417026 16.04296,7.029995 45.19084,12.9548 72.41722,43.78272 C 371.68211,97.648822 364.08349,81.020956 324.42481,54.535815 294.50489,34.554057 264.11696,37.754729 245.83414,40.718914 z"
     id="path3844"
     style="fill:#ececec;stroke:#000000;stroke-width:4.5;stroke-linecap:butt;stroke-linejoin:round;stroke-miterlimit:4;stroke-opacity:1;stroke-dasharray:none" />
  <path
     d="m 171.94955,74.676097 c 4.03761,1.907974 9.6259,-2.153131 25.6178,-14.760012 -20.29575,-14.664089 -67.18153,-22.091719 -93.407,-11.07286 24.03324,6.38647 38.96734,12.205943 67.7892,25.832872 z"
     id="path3846"
     style="fill:#e6e6e6;stroke:#000000;stroke-width:3.00828624;stroke-linecap:butt;stroke-linejoin:round;stroke-miterlimit:4;stroke-opacity:1;stroke-dasharray:none" />
  <path
     d="M 25.157867,103.37888 C 37.716758,89.996659 65.154339,63.040185 104.4536,49.28449 122.56561,54.073815 139.78825,60.712251 155.7005,67.627386 104.91339,62.914228 63.061163,93.72444 25.157867,103.37888 z"
     id="path3848"
     style="fill:#e6e6e6;stroke:#000000;stroke-width:4;stroke-linecap:butt;stroke-linejoin:round;stroke-miterlimit:4;stroke-opacity:1;stroke-dasharray:none" />
  <path
     d="m 149.80364,88.254039 a 3.0541377,4.0962725 69.569484 1 1 -7.42538,3.416958 3.0541377,4.0962725 69.569484 1 1 7.42538,-3.416958 z"
     id="path3990"
     style="fill:#000000;fill-opacity:1;stroke:none" />
  <path
     d="m 254.14339,108.26145 c 0.2679,0 15.87173,-5.64085 15.87173,-5.64085 0.1831,4.75043 8.40425,6.22014 22.10251,-2.43976 1.46309,1.37368 3.01914,5.39774 2.66284,7.97855 l -40.63708,0.0957 z"
     id="path3992"
     style="fill:#000000;stroke:none" />
</svg>
