<?xml version="1.0" encoding="UTF-8" standalone="no"?>
<svg
   xmlns:dc="http://purl.org/dc/elements/1.1/"
   xmlns:cc="http://creativecommons.org/ns#"
   xmlns:rdf="http://www.w3.org/1999/02/22-rdf-syntax-ns#"
   xmlns:svg="http://www.w3.org/2000/svg"
   xmlns="http://www.w3.org/2000/svg"
   xml:space="preserve"
   enable-background="new 30.5 31.5 412 533"
   viewBox="30.5 31.5 400 500"
   height="500"
   width="400"
   y="0"
   x="0"
   version="1.1"
   id="svg2"><metadata
     id="metadata4"><rdf:RDF><cc:Work
         rdf:about=""><dc:format>
          
          
          
          
          image/svg+xml
        
        
        
        
        </dc:format><dc:type
           rdf:resource="http://purl.org/dc/dcmitype/StillImage" /><dc:title></dc:title></cc:Work></rdf:RDF></metadata><defs
     id="defs6" /><path
     id="path4148"
     d="M 230.45,531.13 C 156.13,477.21 105.19,409.11 74.71,322.97 47.07,244.87 35.98,150.22 40.8,33.62 l 0.02,-0.46 379.82,0 0.02,0.46 c 4.81,116.6 -6.28,211.24 -33.91,289.35 -30.48,86.14 -81.42,154.24 -155.74,208.16 l -0.28,0.2 -0.28,-0.2 z"
     style="fill:#e00e00" /><path
     d="M 419.96,33.21 C 429.03,252.66 383.71,419.16 230.51,530.31 146.04,469.02 94.36,390.9 66.52,296.34 64.43,289.25 62.48,282.07 60.65,274.8 49.2,229.11 42.88,179.78 40.77,126.86 39.57,96.8 39.72,65.58 41.06,33.21 l 189.45,0 189.45,0 m 0.92,-0.95 -0.92,0 -189.45,0 -189.45,0 -0.92,0 -0.04,0.92 c -4.82,116.66 6.28,211.36 33.93,289.52 30.51,86.24 81.51,154.41 155.91,208.39 l 0.56,0.41 0.56,-0.41 C 305.46,477.11 356.46,408.94 386.97,322.7 414.62,244.54 425.72,149.84 420.9,33.18 l -0.04,-0.92 0,0 z"
     id="path10" /><path
     id="path4239"
     d="m 265.69609,437.76561 c -10.30586,-8.51208 -28.73887,-21.87922 -28.73887,-37.83979 l 0,-28.8023 c 6.85281,9.71681 15.21969,19.53372 24.00192,24.43832 6.98437,3.90055 23.99039,5.01829 32.29349,-0.43641 20.08997,-13.19803 32.78972,-33.67314 44.94907,-51.05863 25.54824,-36.52899 37.07345,-83.82279 47.78564,-127.86479 10.37132,-42.64055 13.6786,-96.36659 15.27395,-142.265944 -9.72304,10.473564 -25.14333,29.169054 -32.94809,38.621274 -2.15512,31.2944 -7.13762,71.39541 -13.96476,103.42647 -9.95803,46.72036 -26.16452,91.6322 -55.42262,130.04678 -2.718,3.56862 -9.82233,-0.68385 -6.76418,-5.01858 27.50205,-38.98239 36.36155,-69.81612 44.29446,-97.53509 10.67418,-37.29745 15.60357,-79.3433 16.80135,-109.97244 -6.58246,6.32409 -22.57235,24.17022 -29.63954,32.34923 -4.49034,25.74752 -4.25224,43.92025 -13.34572,76.31402 -7.51238,26.7614 -17.61732,51.2751 -38.18488,81.17014 -2.94931,4.28684 -8.94788,-1.36688 -6.10958,-5.45499 17.09941,-24.62896 25.71957,-46.7056 33.00383,-73.25922 5.64535,-20.57925 8.75415,-43.78865 10.23997,-59.10121 -10.0002,11.61439 -22.22192,25.06093 -34.95223,41.58953 -4.60566,22.37184 -12.13386,47.34873 -18.273,59.65972 -4.36656,8.75635 -10.46998,11.48289 -14.45689,8.85485 -5.59391,-3.68732 -4.63089,-12.78893 -4.58219,-18.11054 l 1.091,-119.13681 29.6751,-37.74849 0,-56.077214 -29.6751,33.820892 0,-13.964758 c -5.03215,-1e-6 -10.06429,-3e-6 -15.09644,-4e-6 l 0,13.964758 -29.6751,-33.820892 0,56.077218 29.6751,37.74849 1.091,119.13681 c 0.0487,5.32161 1.01172,14.42322 -4.58219,18.11054 -3.98691,2.62804 -10.09033,-0.0985 -14.45689,-8.85485 -6.13914,-12.31099 -13.66734,-37.28788 -18.273,-59.65972 -12.73031,-16.5286 -24.95203,-29.97514 -34.95223,-41.58953 1.48582,15.31256 4.59462,38.52196 10.23997,59.10121 7.28426,26.55362 15.90442,48.63026 33.00383,73.25922 2.8383,4.08811 -3.16027,9.74183 -6.10958,5.45499 -20.56756,-29.89504 -30.6725,-54.40874 -38.18488,-81.17014 -9.09348,-32.39377 -8.85538,-50.5665 -13.34572,-76.31402 -7.06719,-8.17901 -23.05708,-26.02514 -29.63954,-32.34923 1.19778,30.62914 6.12717,72.67499 16.80135,109.97244 7.93291,27.71897 16.79241,58.5527 44.29446,97.53509 3.05815,4.33473 -4.04618,8.5872 -6.76418,5.01858 C 132.81608,307.61601 116.60959,262.70417 106.65156,215.98381 99.82442,183.95275 94.84192,143.85174 92.68681,112.55734 84.88204,103.10512 69.46176,84.409626 59.73871,73.936062 c 1.59536,45.899358 4.90264,99.625398 15.27395,142.265948 10.71219,44.042 22.23741,91.3358 47.78564,127.86479 12.15935,17.38549 24.8591,37.8606 44.94907,51.05863 8.3031,5.4547 25.30912,4.33696 32.29349,0.43641 8.78223,-4.9046 17.14911,-14.72151 24.00192,-24.43832 l 0,28.8023 c 0,15.96057 -18.43301,29.32771 -28.73887,37.83979 14.99105,14.0261 28.42936,31.18211 35.19609,55.54951 6.76673,-24.3674 20.20504,-41.52341 35.19609,-55.54951 z"
     style="fill:#ffe000;fill-opacity:1;fill-rule:evenodd;stroke:#000000;stroke-width:1px;stroke-linecap:butt;stroke-linejoin:miter;stroke-opacity:1" /></svg>