<?xml version="1.0" encoding="UTF-8"?>
<svg xmlns="http://www.w3.org/2000/svg" xmlns:xlink="http://www.w3.org/1999/xlink" width="429" height="260">
	<rect width="429" height="260" fill="#003092"/>
	<use xlink:href="#martlet" x="-120"/>
	<g id="martlet">
		<path d="M179.125,32.8l4.667-3.333c0,0,1.666-5.917,5.75-5.917 c4.083,0,10.833,2.75,10.833,6.917s0,10,0,10s0.75,5.25,8.084,6c7.333,0.75,29.249,2.5,29.249,2.5l-16.333,11.75l28.167,12.667 l-16.5,2.417l5.583,12.667c0,0-24.916-15.167-25.583-15.25c0.083,2.583,0.083,6.333,0.083,6.333l-6.583-4.5l-4.25,6.5l-2.25-14.75 c0,0-1.25,0.583-1.167,1.583c0.084,1,1.25,9,1.25,9l-5.75-5.5l-3.5,3.25l-0.083-7.667l3.917-0.167c0,0-13.667-9.5-14.334-15.5 c-0.644-5.798-0.307-3.751,0-5.833c0.305-2.063,3.334-6,3.5-6.417c0.167-0.417,0.584-1.25-0.25-2.25 C182.792,36.3,179.125,32.8,179.125,32.8z" fill="#fcdb0f" stroke="#000" stroke-miterlimit="10"/>
		<path d="M190.625,43.8 c0,0-9.583,9.298,16.25,18.167c7.373,2.531,27.095-0.739,34-1.417c0,0-33.6-10.116-39.258-17.433" fill="#fcdb0f" stroke="#000" stroke-linecap="square" stroke-miterlimit="10"/>
		<path d="M198.625,45.966c3.993,2.171,7.84,4.466,11.794,6.551c1.967,1.056,3.965,2.043,6.001,2.933 c2.047,0.865,4.125,1.654,6.371,2.016c-2.282,0.267-4.605-0.235-6.779-0.919c-2.191-0.693-4.276-1.651-6.296-2.706 c-2.006-1.082-3.951-2.266-5.805-3.58C202.055,48.954,200.262,47.552,198.625,45.966z"/>
		<path d="M196.208,47.216c1.613,1.336,3.235,2.608,4.89,3.82c1.664,1.199,3.351,2.348,5.117,3.352 c3.515,2.044,7.272,3.58,11.409,4.245c-2.085,0.283-4.242,0.058-6.295-0.487c-2.063-0.536-4.023-1.411-5.864-2.46 c-1.829-1.074-3.546-2.324-5.103-3.745C198.806,50.525,197.365,48.974,196.208,47.216z"/>
		<path d="M193.125,49.133c1.438,1.375,2.913,2.652,4.433,3.858c1.529,1.19,3.099,2.313,4.758,3.276 c1.645,0.987,3.376,1.816,5.173,2.499c1.802,0.676,3.678,1.165,5.637,1.535c-1.979,0.256-4.024,0.081-5.984-0.417 c-1.967-0.486-3.843-1.309-5.588-2.326c-1.734-1.041-3.344-2.276-4.767-3.693C195.363,52.453,194.075,50.893,193.125,49.133z"/>
		<polygon points="231.292,70.383 213.125,71.248 213.989,70.408 214.042,73.246 212.042,73.187 212.26,70.357 212.328,69.48 213.125,69.518"/>
		<path d="M182.708,33.383c0.665-0.398,1.406-0.399,2.101-0.206c0.343,0.114,0.684,0.28,0.961,0.543 c0.277,0.254,0.499,0.603,0.521,0.996c-0.362-0.146-0.646-0.24-0.931-0.331l-0.846-0.253 C183.946,33.944,183.363,33.774,182.708,33.383z"/>
		<path d="M193.687,30.404c0,0-3.25-1.146-6.625-0.729C188.562,28.466,190.812,26.341,193.687,30.404z"/>
	</g>
	<use xlink:href="#martlet" x="120"/>
	<use xlink:href="#martlet" x="-60" y="75"/>
	<use xlink:href="#martlet" x="60" y="75"/>
	<use xlink:href="#martlet" y="150"/>
</svg>