<?xml version="1.0" encoding="UTF-8" standalone="no"?>
<svg
   xmlns:dc="http://purl.org/dc/elements/1.1/"
   xmlns:cc="http://creativecommons.org/ns#"
   xmlns:rdf="http://www.w3.org/1999/02/22-rdf-syntax-ns#"
   xmlns:svg="http://www.w3.org/2000/svg"
   xmlns="http://www.w3.org/2000/svg"
   id="svg2"
   version="1.1"
   x="0"
   y="0"
   width="400"
   height="500"
   viewBox="30.5 31.5 400 500"
   enable-background="new 30.5 31.5 412 533"
   xml:space="preserve"><metadata
     id="metadata4"><rdf:RDF><cc:Work
         rdf:about=""><dc:format>
          
          
          image/svg+xml
        
        
        </dc:format><dc:type
           rdf:resource="http://purl.org/dc/dcmitype/StillImage" /><dc:title></dc:title></cc:Work></rdf:RDF></metadata><defs
     id="defs6" /><path
     id="path8"
     d="M 230.56,531.14 C 304.88,477.22 355.82,409.12 386.3,322.98 413.94,244.88 425.03,150.23 420.21,33.63 l -0.02,-0.46 -379.82,0 -0.02,0.46 c -4.81,116.6 6.28,211.24 33.91,289.35 30.48,86.14 81.42,154.24 155.74,208.16 l 0.28,0.2 0.28,-0.2 z"
     style="fill:#0085ca;fill-opacity:1" /><path
     id="path10"
     d="M 41.04,33.21 C 31.97,252.66 77.3,419.16 230.5,530.31 383.69,419.16 429.01,252.66 419.94,33.21 l -189.45,0 -189.45,0 m -0.92,-0.95 0.92,0 189.45,0 189.45,0 0.92,0 0.04,0.92 c 4.82,116.66 -6.28,211.36 -33.93,289.52 -30.51,86.24 -81.51,154.41 -155.91,208.39 l -0.56,0.41 -0.56,-0.41 C 155.54,477.11 104.54,408.94 74.03,322.7 46.38,244.54 35.28,149.84 40.1,33.18 l 0.04,-0.92 0,0 z" /><path
     style="fill:#ffffff;fill-opacity:1;stroke:#000000;stroke-width:1;stroke-miterlimit:4;stroke-dasharray:none;stroke-opacity:1"
     id="path2827"
     d="m 231.04072,466.30544 c 23.07563,-19.737 44.77281,-40.57674 58.39371,-67.87749 -7.35807,-32.70672 -20.89358,-41.69082 -20.99764,-70.12954 -0.0855,-23.34215 16.10675,-34.27711 18.77735,-69.71718 16.91029,15.49113 6.92672,43.6689 0.14187,73.45839 -4.58779,20.14319 8.21079,38.45216 8.10493,54.39874 22.83328,-18.37225 43.2156,-95.26902 45.80146,-138.00704 4.07281,-1.6185 11.82218,-3.52758 12.74446,-6.05092 10.97196,-30.01914 11.12512,-59.91964 15.99247,-90.56351 1.87916,-14.20546 37.93406,-39.62927 37.30092,-52.52579 -0.33183,-6.853051 -12.13868,16.80271 -31.21098,22.58354 -5.88455,1.78361 14.17837,-18.08252 8.88117,-20.04607 -3.50657,-1.29979 -9.91603,7.07785 -16.8749,12.10546 -7.15796,5.17147 -13.26538,9.20852 -13.65816,13.91424 1.52678,28.41735 -14.15632,50.86879 -24.14958,75.73314 -35.51792,12.99012 -91.74163,-20.03071 -79.67676,-37.93528 3.58555,6.78341 11.99815,14.56967 21.06106,14.71736 9.5777,-32.50868 8.7762,-67.88969 -14.97111,-89.446067 l 7.99304,-27.277876 c -5.64419,0.536021 -9.97304,4.454402 -13.95615,9.261792 l -2.15682,-2.918099 c -1.9589,3.49496 -0.008,7.743902 -7.0216,7.739305 -5.25922,-0.0035 -3.39045,-7.561 -3.63582,-11.164899 l -3.55246,2.664349 c -0.57623,-5.893626 -0.4081,-11.817776 -5.83619,-16.747348 -5.44811,4.801935 -5.61604,10.923907 -6.47058,16.874223 l -3.29873,-2.791224 c -0.3267,4.594005 1.8879,10.753541 -3.42558,11.038025 -6.43516,0.34454 -4.993,-4.278898 -6.08994,-7.86618 l -3.29873,3.298719 c -3.67215,-4.997349 -7.85625,-7.881062 -13.57548,-9.134917 4.67109,7.785867 7.3,17.069011 5.35113,27.843228 -0.40091,2.216466 -5.90552,13.008119 2.10828,24.940329 -3.06376,4.80882 -5.06359,9.44498 -6.10051,14.04012 -0.6838,3.03014 3.96908,3.66379 4.44079,6.59393 -1.58175,6.14061 4.49371,14.31138 4.21655,16.95583 -1.41201,13.47136 16.54936,-2.31311 18.8398,4.21654 10.1119,28.82722 -25.92718,57.83522 -89.48907,45.30523 -10.63779,-19.9615 -18.26861,-42.4604 -21.38883,-58.94315 -2.15878,-11.40384 -1.38121,-16.06747 -3.01323,-19.78032 -1.76052,-4.00527 -7.07739,-6.17965 -12.82458,-10.43325 -7.29584,-5.39977 -14.4685,-15.50791 -17.54338,-12.4885 -3.52834,3.46466 13.93744,19.68407 8.79191,19.82663 -11.30875,0.31334 -26.37841,-19.39928 -29.17209,-20.07544 -6.62908,-1.60446 4.07253,13.95599 20.45354,27.06788 10.51601,8.41733 16.65762,19.81536 17.69837,26.71328 4.38807,29.08357 1.11973,60.49168 13.38705,87.1098 1.89473,4.11126 7.83116,3.13978 11.92614,4.44059 7.7605,65.87669 24.1158,114.53003 45.54772,139.30748 3.95736,-18.36421 11.19182,-33.23095 10.33556,-46.84625 -2.23065,-35.4691 -21.81242,-59.3011 -1.18065,-80.90444 -0.12183,28.93448 19.67873,48.2831 19.46782,69.52785 -0.0957,9.64625 -14.36552,46.74762 -21.57608,70.11101 14.14045,23.6924 30.08459,47.02407 58.38853,67.88377 z" /></svg>