<?xml version="1.0" encoding="UTF-8" standalone="no"?>
<svg
   xmlns:dc="http://purl.org/dc/elements/1.1/"
   xmlns:cc="http://creativecommons.org/ns#"
   xmlns:rdf="http://www.w3.org/1999/02/22-rdf-syntax-ns#"
   xmlns:svg="http://www.w3.org/2000/svg"
   xmlns="http://www.w3.org/2000/svg"
   id="svg2"
   version="1.1"
   x="0"
   y="0"
   width="400"
   height="500"
   viewBox="30.5 31.5 400 500"
   enable-background="new 30.5 31.5 412 533"
   xml:space="preserve"><metadata
     id="metadata4"><rdf:RDF><cc:Work
         rdf:about=""><dc:format>
          
          
          image/svg+xml
        
        
        </dc:format><dc:type
           rdf:resource="http://purl.org/dc/dcmitype/StillImage" /><dc:title></dc:title></cc:Work></rdf:RDF></metadata><defs
     id="defs6" /><path
     id="path8"
     d="M 230.44,531.14 C 156.12,477.22 105.18,409.12 74.7,322.98 47.06,244.88 35.97,150.23 40.79,33.63 l 0.02,-0.46 379.82,0 0.02,0.46 c 4.81,116.6 -6.28,211.24 -33.91,289.35 C 356.26,409.12 305.32,477.22 231,531.14 l -0.28,0.2 -0.28,-0.2 z"
     style="fill:#0085ca;fill-opacity:1" /><path
     d="m 260.8,507.10433 3.82462,-224.87799 c 17.19881,2.0582 36.98913,10.47024 51.17204,18.40278 5.16044,2.88624 21.02321,-21.48066 16.93564,-24.55473 -19.86394,-14.93873 -50.19764,-24.5082 -76.15963,-26.51435 L 246.52628,105.07922 c 16.7174,-1.66933 32.36986,-8.911482 48.15102,-20.419937 C 297.62462,82.509942 282.24376,61.47156 278.63966,63.46821 260.8,73.351295 247.69007,78.4167 230.5,78.4167 c -17.19007,0 -30.3,-5.065405 -48.13966,-14.94849 -3.6041,-1.99665 -18.98496,19.041732 -16.03764,21.191073 15.78116,11.508455 31.43362,18.750607 48.15102,20.419937 l -10.04639,144.48082 c -25.96199,2.00615 -56.29569,11.57562 -76.15963,26.51435 -4.08757,3.07407 11.7752,27.44097 16.93564,24.55473 14.18291,-7.93254 33.97323,-16.34458 51.17204,-18.40278 l 3.82462,224.87799 30.3,23.80449 z"
     id="path4320"
     style="fill:#ffffff;stroke:none;stroke-opacity:1" /><path
     id="path10"
     d="M 419.96,33.21 C 429.03,252.66 383.7,419.16 230.5,530.31 77.31,419.16 31.99,252.66 41.06,33.21 l 189.45,0 189.45,0 m 0.92,-0.95 -0.92,0 -189.45,0 -189.45,0 -0.92,0 -0.04,0.92 c -4.82,116.66 6.28,211.36 33.93,289.52 30.51,86.24 81.51,154.41 155.91,208.39 l 0.56,0.41 0.56,-0.41 C 305.46,477.11 356.46,408.94 386.97,322.7 414.62,244.54 425.72,149.84 420.9,33.18 l -0.04,-0.92 0,0 z" /><path
     style="fill:none;stroke:#000000;stroke-opacity:1"
     id="path4318"
     d="m 260.8,507.10433 3.82462,-224.87799 c 17.19881,2.0582 36.98913,10.47024 51.17204,18.40278 5.16044,2.88624 21.02321,-21.48066 16.93564,-24.55473 -19.86394,-14.93873 -50.19764,-24.5082 -76.15963,-26.51435 L 246.52628,105.07922 c 16.7174,-1.66933 32.36986,-8.911482 48.15102,-20.419937 C 297.62462,82.509942 282.24376,61.47156 278.63966,63.46821 260.8,73.351295 247.69007,78.4167 230.5,78.4167 c -17.19007,0 -30.3,-5.065405 -48.13966,-14.94849 -3.6041,-1.99665 -18.98496,19.041732 -16.03764,21.191073 15.78116,11.508455 31.43362,18.750607 48.15102,20.419937 l -10.04639,144.48082 c -25.96199,2.00615 -56.29569,11.57562 -76.15963,26.51435 -4.08757,3.07407 11.7752,27.44097 16.93564,24.55473 14.18291,-7.93254 33.97323,-16.34458 51.17204,-18.40278 L 200.2,507.10433" /></svg>