<svg xmlns:dc="http://purl.org/dc/elements/1.1/" xmlns:cc="http://creativecommons.org/ns#" xmlns:rdf="http://www.w3.org/1999/02/22-rdf-syntax-ns#" xmlns:svg="http://www.w3.org/2000/svg" xmlns="http://www.w3.org/2000/svg" xml:space="preserve" enable-background="new 30.5 31.5 412 533" viewBox="30.5 31.5 400 500" height="500" width="400" y="0" x="0" version="1.1" id="svg2">
  <metadata id="metadata4">
    <rdf:RDF>
      <cc:Work rdf:about="">
        <dc:format>
          
          
          
          image/svg+xml
        
        
        
        </dc:format>
        <dc:type rdf:resource="http://purl.org/dc/dcmitype/StillImage"/>
      </cc:Work>
    </rdf:RDF>
  </metadata>
  <defs id="defs6"/>
  <path d="M230.44 531.14C156.12 477.22 105.18 409.12 74.7 322.98 47.06 244.88 35.97 150.23 40.79 33.63l0.02-0.46 379.82 0 0.02 0.46c4.81 116.6-6.28 211.24-33.91 289.35C356.26 409.12 305.32 477.22 231 531.14l-0.28 0.2-0.28-0.2z" id="path8" fill="#e00e00"/>
  <path d="M419.96 33.21C429.03 252.66 383.7 419.16 230.5 530.31 77.31 419.16 31.99 252.66 41.06 33.21l189.45 0 189.45 0m0.92-0.95-0.92 0-189.45 0-189.45 0-0.92 0-0.04 0.92c-4.82 116.66 6.28 211.36 33.93 289.52 30.51 86.24 81.51 154.41 155.91 208.39l0.56 0.41 0.56-0.41C305.46 477.11 356.46 408.94 386.97 322.7 414.62 244.54 425.72 149.84 420.9 33.18l-0.04-0.92 0 0z" id="path10"/>
  <path id="path4357" d="m241.54 145.42c15.32-12.42 30.56-25.66 37.39-42.61 1.87-4.64 2.79-9.67 12.95-14.57 36.98-17.84 67.35-24.73 102.81-23.74 4.46 0.12 1.74 3.65-0.86 5.43l-76.03 52.07c-10.17 6.96-32.85 38.02-46.83 66.43 10.46 11.23 11.04 24.42 20.76 29.99l15.7 8.26c2.63 1.38 2.33 4.84-0.52 6.19l-23.96 11.33c-2.22 1.05-4.31 0.55-5.88-2.65-2.54-5.16-6.61-17.53-6.61-17.53-8.16-4.43-24.71-11.21-32.75-17.92-20.2 4.61-36.28 2.17-54.29-0.63-23.63-3.68-32.75-3.58-52.07 0.18-18.29 3.56-32.08 4.31-45.74 3.92-5.2-0.15-6.04-1.46-5.01-2.18 23.77-16.58 42.29-34.95 72.65-47.5 8.86-3.66 15.7 0.08 21.01 3.34 7.15 4.4 15.68 5.09 27.01 1.89l-8.01-17.91c-1.86-4.15-6.27-7.71-11.19-12.47-0.53-0.51-3.36-3.5-3.07-3.86 1.26-1.58 6.21-1.39 11.74 0.28 2.75 0.83 4.03 1.53 5.85 1.07 8.75-2.23 15.73-0.53 19.69 2.9L230.5 147.49c3.83 3.89 7.58 0.74 11.04-2.06z" style="fill-rule:evenodd;fill:#fff;stroke:#000"/>
  <path id="path4363" d="m179.13 130.89 13.23 8.35" style="fill:none;stroke-linecap:round;stroke-miterlimit:4;stroke-width:0.9;stroke:#000"/>
  <circle r="3.16" cy="137.75" cx="205.01" id="path4365" fill="#000"/>
  <path id="path4367" d="M237.71 206.09C220.44 191.38 208.9 180.56 201.27 165.13" style="fill:none;stroke:#000"/>
  <path id="path4369" d="m270.46 224.02 3.94 2.21" style="fill:none;stroke-linecap:round;stroke:#000"/>
  <path id="path4375" d="m197.11 132.16c-1.68 1.1-0.41 4.59-2.99 7.87-2.84 3.62-1.41 5.04-0.91 7.07" style="fill:none;stroke-miterlimit:4;stroke-width:0.9;stroke:#000"/>
  <path d="m252.99 311.14c12.43-10.07 24.79-20.81 30.33-34.57 1.51-3.76 2.26-7.84 10.51-11.82 30-14.47 54.64-20.06 83.4-19.26 3.62 0.1 1.41 2.96-0.7 4.41l-61.68 42.24c-8.25 5.65-26.65 30.84-37.99 53.89 8.48 9.11 8.96 19.81 16.84 24.33l12.74 6.7c2.13 1.12 1.89 3.93-0.42 5.02l-19.44 9.19c-1.8 0.85-3.5 0.44-4.77-2.15-2.06-4.19-5.36-14.22-5.36-14.22-6.62-3.59-20.04-9.09-26.57-14.54-16.39 3.74-29.43 1.76-44.04-0.51-19.17-2.98-26.57-2.9-42.24 0.15-14.84 2.88-26.02 3.49-37.11 3.18-4.22-0.12-4.9-1.19-4.06-1.77 19.29-13.45 34.3-28.35 58.93-38.53 7.18-2.97 12.73 0.06 17.05 2.71 5.8 3.57 12.72 4.13 21.91 1.54l-6.5-14.53c-1.51-3.37-5.08-6.26-9.08-10.11-0.43-0.42-2.72-2.84-2.49-3.13 1.03-1.28 5.04-1.13 9.52 0.23 2.23 0.67 3.27 1.25 4.75 0.87 7.1-1.81 12.76-0.43 15.97 2.35l11.54 10.01c3.11 3.16 6.15 0.6 8.96-1.67z" id="path4377" style="fill-rule:evenodd;fill:#fff;stroke-miterlimit:4;stroke:#000"/>
  <path d="m202.36 299.36 10.73 6.77" id="path4379" style="fill:none;stroke-linecap:round;stroke-miterlimit:4;stroke-width:0.9;stroke:#000"/>
  <circle id="circle4381" cx="223.35" cy="304.92" r="2.56" fill="#000"/>
  <path d="M249.88 360.36C235.88 348.42 226.51 339.65 220.32 327.13" id="path4383" style="fill:none;stroke-width:0.81;stroke:#000"/>
  <path d="m276.46 374.9 3.19 1.79" id="path4385" style="fill:none;stroke-linecap:round;stroke-width:0.81;stroke:#000"/>
  <path d="m216.95 300.38c-1.36 0.89-0.34 3.72-2.42 6.39-2.3 2.94-1.14 4.09-0.74 5.74" id="path4387" style="fill:none;stroke-miterlimit:4;stroke-width:0.9;stroke:#000"/>
</svg>
