<svg xmlns:dc="http://purl.org/dc/elements/1.1/" xmlns:cc="http://creativecommons.org/ns#" xmlns:rdf="http://www.w3.org/1999/02/22-rdf-syntax-ns#" xmlns:svg="http://www.w3.org/2000/svg" xmlns="http://www.w3.org/2000/svg" xml:space="preserve" enable-background="new 30.5 31.5 412 533" viewBox="30.5 31.5 400 500" height="500" width="400" y="0" x="0" version="1.1" id="svg2">
  <metadata id="metadata4">
    <rdf:RDF>
      <cc:Work rdf:about="">
        <dc:format>
          
          
          
          image/svg+xml
        
        
        
        </dc:format>
        <dc:type rdf:resource="http://purl.org/dc/dcmitype/StillImage"/>
      </cc:Work>
    </rdf:RDF>
  </metadata>
  <defs id="defs6"/>
  <path d="M230.44 531.14C156.12 477.22 105.18 409.12 74.7 322.98 47.06 244.88 35.97 150.23 40.79 33.63l0.02-0.46 379.82 0 0.02 0.46c4.81 116.6-6.28 211.24-33.91 289.35C356.26 409.12 305.32 477.22 231 531.14l-0.28 0.2-0.28-0.2z" id="path8" fill="#32ac60"/>
  <path d="M419.96 33.21C429.03 252.66 383.7 419.16 230.5 530.31 77.31 419.16 31.99 252.66 41.06 33.21l189.45 0 189.45 0m0.92-0.95-0.92 0-189.45 0-189.45 0-0.92 0-0.04 0.92c-4.82 116.66 6.28 211.36 33.93 289.52 30.51 86.24 81.51 154.41 155.91 208.39l0.56 0.41 0.56-0.41C305.46 477.11 356.46 408.94 386.97 322.7 414.62 244.54 425.72 149.84 420.9 33.18l-0.04-0.92 0 0z" id="path10"/>
  <path id="path5166" d="m209.14 289.95c-5.2 1.87-10.04-5.53-14.92-11.68-7.06-8.9 12.35-8.8 4.25-56.59-0.49-2.87-4.57-2.47-4.46 0.42 0.54 14.16-2.99 32.55-11.06 41.43-2.36 2.59-4.17 5.71-9.02 4.1-4.61-1.52-14.88-7.19-13.34-9.85 9.2-15.86 8.5-30.86 6.68-41.2-0.53-3-4.31-2.05-4.43 0.63-0.67 14.8-7.16 30.79-17.99 36.92-2.89 1.63-16.12-6.94-23.51-13.37-12.09-10.52-20.24-23.3-19.26-35.46 0.27-3.34 1.23-5.72 8.02-13.12 8.81-9.61 16.85-23.58 14.72-46.45-0.19-1.99-2.99-1.19-3.43 0.96-1.87 9.13-4.05 14.85-8.63 23.91-3.6 7.13-7.8 12.35-11.93 15.56-4.19 3.24-7.3 2.59-7.88 0.36-3.39-12.94-7.56-37.57-4.02-43.91 5.2-9.31 10.97-13.64 14.7-23.89 2.38-6.54 3.62-17.18 2.9-22.33-0.46-3.28-2.42-3.49-3.08-1.73-5.42 14.42-6.27 24.72-16.84 29.06-5.02 2.06-5.92-2.32-6.3-8.19l-3.49-53.23c-0.33-5.09-5.72-3.22-5.65 1.35 0.21 13.25-0.05 16.94-0.88 28.78-0.23 3.36-0.04 8.88-2.74 8.15C57.5 97.85 57.69 90.82 54.73 75.12 54.11 71.8 49.95 71.96 49.97 74.2c0.12 12.6 1.2 27.51 11.77 38.44 10.2 10.53 10.74 24.86 11.77 32.47 7.05 52.28 15.7 79.24 24.08 92.28 19.29 30.02 85.46 47.22 89.03 60.2 0.76 2.76-1.85 2.87-6.96 4.23-2.32-2.2-18.32-12.23-25.98-16.15-5.46-2.79-36.82-16.64-44.48-9.52-2.01 1.87 13.14 25.25 21.45 31.72 26.99 20.99 34.03 11.39 46.94 15.31 0.37 16.38 9.42 50.76 20.53 69.47 7.96 13.41 7.17 26.06 6.33 43.22-0.77 15.79 10.81 20.62 26.04 20.62 15.24 0 26.81-4.83 26.04-20.62-0.84-17.16-1.63-29.82 6.33-43.22 11.11-18.7 20.16-53.09 20.53-69.47 12.91-3.92 19.95 5.68 46.94-15.31 8.31-6.47 23.46-29.85 21.45-31.72-7.66-7.13-39.03 6.72-44.48 9.52-7.66 3.92-23.66 13.95-25.98 16.15-5.11-1.36-7.72-1.47-6.96-4.23 3.57-12.98 69.73-30.18 89.03-60.2 8.38-13.04 17.03-40 24.08-92.28 1.03-7.61 1.57-21.94 11.77-32.47 10.58-10.92 11.65-25.83 11.77-38.44 0.02-2.24-4.14-2.4-4.76 0.92-2.96 15.7-2.76 22.73-12.81 25.44-2.7 0.73-2.51-4.79-2.74-8.15-0.82-11.84-1.08-15.54-0.88-28.78 0.07-4.56-5.32-6.43-5.65-1.35l-3.49 53.23c-0.38 5.87-1.28 10.25-6.3 8.19-10.56-4.34-11.42-14.64-16.84-29.06-0.66-1.76-2.62-1.54-3.08 1.73-0.72 5.15 0.52 15.79 2.9 22.33 3.73 10.24 9.5 14.58 14.7 23.89 3.54 6.34-0.63 30.97-4.02 43.91-0.58 2.22-3.69 2.88-7.88-0.36-4.14-3.2-8.33-8.43-11.93-15.56-4.58-9.06-6.76-14.78-8.63-23.91-0.44-2.14-3.25-2.94-3.43-0.96-2.13 22.87 5.9 36.84 14.72 46.45 6.79 7.4 7.75 9.78 8.02 13.12 0.98 12.16-7.17 24.94-19.26 35.46-7.39 6.43-20.62 15-23.51 13.37-10.83-6.13-17.32-22.12-17.99-36.92-0.12-2.68-3.9-3.63-4.43-0.63-1.82 10.34-2.53 25.34 6.68 41.2 1.54 2.66-8.73 8.33-13.34 9.85-4.86 1.61-6.67-1.51-9.02-4.1-8.06-8.87-11.6-27.27-11.06-41.43 0.11-2.88-3.97-3.29-4.46-0.42-8.1 47.8 11.31 47.69 4.25 56.59-4.88 6.15-9.71 13.56-14.92 11.68-6.75-2.43-15.52-3.92-21.36-3.92-5.84 0-14.61 1.49-21.36 3.92z" style="fill-rule:evenodd;fill:#ffe000;stroke:#000"/>
  <path id="path5178" d="m179.83 338.33c9.27-0.57 17.5 3.27 20.34 6.34 5.23 5.66 7.94 15.75 11.49 26.87" style="fill:none;stroke-linecap:round;stroke-linejoin:round;stroke-miterlimit:4;stroke:#000"/>
  <path id="path5180" d="m182.73 352.27c5.02 2.79 15.96 2.9 22.91 1.49" style="fill:none;stroke-linecap:round;stroke-miterlimit:4;stroke:#000"/>
  <path id="path5184" d="m215.57 453.72c3.32-1.7 10.4-4.38 14.93-5.39l0-12.13c-7.5-0.84-12.85-1.98-12.91-5.42" style="fill:none;stroke-linecap:round;stroke-linejoin:round;stroke:#000"/>
  <path id="path5253" d="m186.37 338.72c-0.03 7.08 0.73 11.81 1.19 15.42 1.67 0.46 7.04 1.14 8.71 0.76l1.78-11.99c-2.68-1.62-6.8-3.35-11.68-4.2z" style="fill-rule:evenodd;fill:#000"/>
  <path d="m281.17 338.33c-9.27-0.57-17.5 3.27-20.34 6.34-5.23 5.66-7.94 15.75-11.49 26.87" id="path5426" style="fill:none;stroke-linecap:round;stroke-linejoin:round;stroke-miterlimit:4;stroke:#000"/>
  <path d="m278.27 352.27c-5.02 2.79-15.96 2.9-22.91 1.49" id="path5428" style="fill:none;stroke-linecap:round;stroke-miterlimit:4;stroke:#000"/>
  <path d="m245.43 453.72c-3.32-1.7-10.4-4.38-14.93-5.39l0-12.13c7.5-0.84 12.85-1.98 12.91-5.42" id="path5430" style="fill:none;stroke-linecap:round;stroke-linejoin:round;stroke:#000"/>
  <path d="m274.63 338.72c0.03 7.08-0.73 11.81-1.19 15.42-1.67 0.46-7.04 1.14-8.71 0.76l-1.78-11.99c2.68-1.62 6.8-3.35 11.68-4.2z" id="path5432" style="fill-rule:evenodd;fill:#000"/>
</svg>
