<svg xmlns:dc="http://purl.org/dc/elements/1.1/" xmlns:cc="http://creativecommons.org/ns#" xmlns:rdf="http://www.w3.org/1999/02/22-rdf-syntax-ns#" xmlns:svg="http://www.w3.org/2000/svg" xmlns="http://www.w3.org/2000/svg" id="svg2" version="1.1" x="0" y="0" width="400" height="500" viewBox="30.5 31.5 400 500" enable-background="new 30.5 31.5 412 533" xml:space="preserve">
  <metadata id="metadata4">
    <rdf:RDF>
      <cc:Work rdf:about="">
        <dc:format>
          
          
          
          
          
          image/svg+xml
        
        
        
        
        
        </dc:format>
        <dc:type rdf:resource="http://purl.org/dc/dcmitype/StillImage"/>
      </cc:Work>
    </rdf:RDF>
  </metadata>
  <defs id="defs6"/>
  <path d="M230.55 531.13C304.87 477.21 355.81 409.11 386.29 322.97 413.93 244.87 425.02 150.22 420.2 33.62l-0.02-0.46-379.82 0-0.02 0.46c-4.81 116.6 6.28 211.24 33.91 289.35 30.48 86.14 81.42 154.24 155.74 208.16l0.28 0.2 0.28-0.2z" id="path4148" fill="#0085ca"/>
  <path id="path10" d="m41.04 33.21c-9.07 219.45 36.25 385.95 189.45 497.1 84.47-61.29 136.15-139.41 163.99-233.97 2.09-7.09 4.04-14.27 5.87-21.54 11.45-45.69 17.77-95.02 19.88-147.94 1.2-30.06 1.05-61.28-0.29-93.65l-189.45 0-189.45 0m-0.92-0.95 0.92 0 189.45 0 189.45 0 0.92 0 0.04 0.92c4.82 116.66-6.28 211.36-33.93 289.52-30.51 86.24-81.51 154.41-155.91 208.39l-0.56 0.41-0.56-0.41C155.54 477.11 104.54 408.94 74.03 322.7 46.38 244.54 35.28 149.84 40.1 33.18l0.04-0.92 0 0z"/>
  <path d="m229.73 58.38c-4.56-0.61-12.89 8.04-10.8 14.91 2.63 8.67 0.62 12.16-5.14 19.28-7.27 9 1.71 20.37 3.6 29.18-13.63-0.46-31.26-6.34-41.2 9.32-6.09 9.59-19.45 7.09-26.87 13.24-9.3 7.71 6.49 6.31 11.51 4.5 11.17-4.03 18.63-9.91 32.14-7.46 9.17 1.66 15.79-8.07 21.85-11.83-0.73 6.15-8.48 12.58-13.05 17.93-13.33 15.6-21.17 36.43-5.53 50.39 15.54 13.87 40.72 14.15 53.74-1.48 9.17-11.02 9.07-27.55 1.8-40.17-5.4-9.38-20.76-24.14-19.67-25.65 2.39-3.3 9.13 11.13 23.14 9.26 10.43-1.4 15.12-3.39 24.81 6.11 2.31 2.27 22.1 6.76 20.83 0.71-1.93-9.15-12.56-4.08-18.9-9.45-9.53-8.06-18.24-21.88-32.97-18.13-7.77 1.98-20.44 6.93-10.48-2.57 15.87-15.13 39.51-17.46 57.27-0.51 19 18.13 15.54 49.94-2.31 67.62-15.12 14.97-30.58 26.44-42.55 44.55-19.4 29.32-27.87 57.78-27.38 99.31 0.24 20.4-0.02 37.59 1.21 57.75 0.28 4.62-1.84 6.36-4.66-0.31-1.99-4.68-3.75-12.33-5.61-16.56-8.77-19.93 0.25-36.18-9.83-65.31-8.57-24.75-23.71-47.82-43.2-64.28-14.75-12.46-34.86-17.41-51.99-17.53-6.98-0.05-6.4-0.35-10.1-0.21 0.38 4.33 1.88 13.97 2.06 17.61 1.28 25.85 0.51 49.73 17.81 75.59 13.43 20.08 26.79 43.3 49.56 53.48 9.96 4.45 25.75 1.35 30.02 13.88 1.08 9.49-5.35 24.17 7.52 28.28 11.58 3.7 13.87 26.24 15.04 39.98l18.13 0c0.19-19.61 2.02-24.04 17.87-28.15 21.04-5.46 35.15-27.01 34-48.4-18.9-6.78-39.22 8.43-46.99 25.26-2.05 4.44-7.75 25.11-7.39 13.69 0.7-22.14 16.03-48.46 37.8-54.06 13.82-3.55 20.66-4.03 28.86-11.83 9.99-9.5 21.61-20.73 29.25-33.49 15.5-25.9 25.7-55.52 24.49-86-0.16-3.94 1.78-7.78 3.66-10.28-2.75 0.2-3.75 0.5-9.51 0.39-17.02-0.32-33.57 1.34-46.86 12.92-18.33 15.98-35.6 33.94-46.15 55.86-10.96 22.78-12.81 48.16-15.56 72.83-0.81 7.26-10.88 29.86-9.94 16.84 2.02-28.41-2.01-55.27 2.04-81.18 2.97-19.03 9.88-38.82 21.34-56.31 7.84-11.96 16.08-24 27-33.68 16.43-14.57 33.36-29.22 32.2-56.18-0.7-16.33-4.01-28.07-21.73-41.4-19.67-14.8-52.13-11.23-63.57 12.02-1.89 3.83-2.41 2.87-1.67-0.45 0.74-3.32 2.7-8.98 4.05-12.6 1.59-4.25 2.11-9.52 1.03-13.58-1.01-3.82-3.81-6.39-4.31-10.01-0.7-5.13 3.08-8.78 3.34-11.01 0.68-5.92-0.83-12.35-3.02-12.64zm-10.67 79.9c0 3.81-0.42 7.47-0.53 11.41-0.02 0.85 2.45 1.66 3.74 1.9 1.33 0.25 2.85-0.42 4.05-0.96 0.88-0.4 2.34-1.03 2.25-2.12-0.23-2.73-0.61-5.44-1.03-8.16-0.18-1.19 0.5-3.01 1.19-1.51 1.58 3.43 3.11 6.44 4.4 10 0.95 2.61 1.29 5.48 0.71 8.16-0.47 2.14-1.67 4.48-3.31 6.04-2.64 2.52-8.46 3.37-10.19 2.89-4.05-1.13-5.64-3.76-7.71-6.56-0.59-0.79-0.59-3.12-0.51-4.69 0.28-5.58 2.11-10.85 5.27-15.75 0.99-1.53 1.67-1.47 1.67-0.64z" id="path8972" style="fill:#ffe000;letter-spacing:normal;stroke:#000;text-anchor:start;word-spacing:normal"/>
</svg>
