<?xml version="1.0" encoding="UTF-8" standalone="no"?>
<svg
   xmlns:dc="http://purl.org/dc/elements/1.1/"
   xmlns:cc="http://creativecommons.org/ns#"
   xmlns:rdf="http://www.w3.org/1999/02/22-rdf-syntax-ns#"
   xmlns:svg="http://www.w3.org/2000/svg"
   xmlns="http://www.w3.org/2000/svg"
   id="svg2"
   version="1.1"
   x="0"
   y="0"
   width="400"
   height="500"
   viewBox="30.5 31.5 400 500"
   enable-background="new 30.5 31.5 412 533"
   xml:space="preserve"><metadata
     id="metadata4"><rdf:RDF><cc:Work
         rdf:about=""><dc:format>
          
          
          
          
          
          
          image/svg+xml
        
        
        
        
        
        
        </dc:format><dc:type
           rdf:resource="http://purl.org/dc/dcmitype/StillImage" /><dc:title></dc:title></cc:Work></rdf:RDF></metadata><defs
     id="defs6" /><path
     style="fill:#e00e00"
     d="M 230.45,531.13 C 156.13,477.21 105.19,409.11 74.71,322.97 47.07,244.87 35.98,150.22 40.8,33.62 l 0.02,-0.46 379.82,0 0.02,0.46 c 4.81,116.6 -6.28,211.24 -33.91,289.35 -30.48,86.14 -81.42,154.24 -155.74,208.16 l -0.28,0.2 -0.28,-0.2 z"
     id="path4148" /><path
     id="path10"
     d="M 419.96,33.21 C 429.03,252.66 383.71,419.16 230.51,530.31 146.04,469.02 94.36,390.9 66.52,296.34 64.43,289.25 62.48,282.07 60.65,274.8 49.2,229.11 42.88,179.78 40.77,126.86 39.57,96.8 39.72,65.58 41.06,33.21 l 189.45,0 189.45,0 m 0.92,-0.95 -0.92,0 -189.45,0 -189.45,0 -0.92,0 -0.04,0.92 c -4.82,116.66 6.28,211.36 33.93,289.52 30.51,86.24 81.51,154.41 155.91,208.39 l 0.56,0.41 0.56,-0.41 C 305.46,477.11 356.46,408.94 386.97,322.7 414.62,244.54 425.72,149.84 420.9,33.18 l -0.04,-0.92 0,0 z" /><path
     style="fill:#ffe000;fill-opacity:1;fill-rule:evenodd;stroke:#000000;stroke-width:1px;stroke-linecap:butt;stroke-linejoin:miter;stroke-opacity:1"
     d="m 294.27329,142.5 c 3.13178,0 3.46318,-0.0208 4.95123,-2.73975 10.38529,-18.97596 17.46702,-38.89165 29.46106,-58.994884 0.71942,-1.370259 -0.13195,-2.08587 -1.14234,-2.04321 -12.88536,0.544024 -26.82094,5.957103 -38.03265,16.446934 -1.25361,1.172891 -0.57156,2.33091 0.87679,2.33091 l 11.58888,0 c 1.69724,0 2.19979,0.461028 1.85148,1.833135 -2.50615,17.722625 -13.68987,31.720995 -34.561,31.691795 C 256.04937,131.00643 242.19016,118.87338 242.72882,97.5 l 14.50328,0 c 1.91676,0 2.2516,-1.112366 1.46963,-2.178411 C 250.5094,84.153126 241.87209,75.125813 230.5,70.854961 219.12791,75.125813 210.4906,84.153126 202.29827,95.321589 201.5163,96.387634 201.85114,97.5 203.7679,97.5 l 14.50328,0 c 0.53866,21.37338 -13.32055,33.50642 -26.53792,33.52493 -20.87113,0.0292 -32.05485,-13.96917 -34.561,-31.691795 C 156.82395,97.961028 157.3265,97.5 159.02374,97.5 l 11.58888,0 c 1.44835,0 2.1304,-1.158019 0.87679,-2.33091 -11.21171,-10.489831 -25.14729,-15.90291 -38.03265,-16.446934 -1.01039,-0.04266 -1.86176,0.672951 -1.14234,2.04321 11.99404,20.103234 19.07577,40.018924 29.46106,58.994884 1.48805,2.71896 1.81945,2.73975 4.95123,2.73975 l 63.77329,0 z"
     id="path3444" /><path
     id="path3446"
     d="m 294.27329,232.5 c 3.13178,0 3.46318,-0.0208 4.95123,-2.73975 10.38529,-18.97596 17.46702,-38.89165 29.46106,-58.99488 0.71942,-1.37026 -0.13195,-2.08587 -1.14234,-2.04321 -12.88536,0.54402 -26.82094,5.9571 -38.03265,16.44693 -1.25361,1.17289 -0.57156,2.33091 0.87679,2.33091 l 11.58888,0 c 1.69724,0 2.19979,0.46103 1.85148,1.83314 -2.50615,17.72262 -13.68987,31.72099 -34.561,31.69179 -13.21737,-0.0185 -27.07658,-12.15155 -26.53792,-33.52493 l 14.50328,0 c 1.91676,0 2.2516,-1.11237 1.46963,-2.17841 -8.19233,-11.16846 -16.82964,-20.19578 -28.20173,-24.46663 -11.37209,4.27085 -20.0094,13.29817 -28.20173,24.46663 -0.78197,1.06604 -0.44713,2.17841 1.46963,2.17841 l 14.50328,0 c 0.53866,21.37338 -13.32055,33.50642 -26.53792,33.52493 -20.87113,0.0292 -32.05485,-13.96917 -34.561,-31.6918 -0.34831,-1.3721 0.15424,-1.83313 1.85148,-1.83313 l 11.58888,0 c 1.44835,0 2.1304,-1.15802 0.87679,-2.33091 -11.21171,-10.48983 -25.14729,-15.90291 -38.03265,-16.44693 -1.01039,-0.0427 -1.86176,0.67295 -1.14234,2.04321 11.99404,20.10323 19.07577,40.01892 29.46106,58.99488 1.48805,2.71896 1.81945,2.73975 4.95123,2.73975 l 63.77329,0 z"
     style="fill:#ffe000;fill-opacity:1;fill-rule:evenodd;stroke:#000000;stroke-width:1px;stroke-linecap:butt;stroke-linejoin:miter;stroke-opacity:1" /><path
     style="fill:#ffe000;fill-opacity:1;fill-rule:evenodd;stroke:#000000;stroke-width:1px;stroke-linecap:butt;stroke-linejoin:miter;stroke-opacity:1"
     d="m 294.27329,322.5 c 3.13178,0 3.46318,-0.0208 4.95123,-2.73975 10.38529,-18.97596 17.46702,-38.89165 29.46106,-58.99488 0.71942,-1.37026 -0.13195,-2.08587 -1.14234,-2.04321 -12.88536,0.54402 -26.82094,5.9571 -38.03265,16.44693 -1.25361,1.17289 -0.57156,2.33091 0.87679,2.33091 l 11.58888,0 c 1.69724,0 2.19979,0.46103 1.85148,1.83314 -2.50615,17.72262 -13.68987,31.72099 -34.561,31.69179 -13.21737,-0.0185 -27.07658,-12.15155 -26.53792,-33.52493 l 14.50328,0 c 1.91676,0 2.2516,-1.11237 1.46963,-2.17841 -8.19233,-11.16846 -16.82964,-20.19578 -28.20173,-24.46663 -11.37209,4.27085 -20.0094,13.29817 -28.20173,24.46663 -0.78197,1.06604 -0.44713,2.17841 1.46963,2.17841 l 14.50328,0 c 0.53866,21.37338 -13.32055,33.50642 -26.53792,33.52493 -20.87113,0.0292 -32.05485,-13.96917 -34.561,-31.6918 -0.34831,-1.3721 0.15424,-1.83313 1.85148,-1.83313 l 11.58888,0 c 1.44835,0 2.1304,-1.15802 0.87679,-2.33091 -11.21171,-10.48983 -25.14729,-15.90291 -38.03265,-16.44693 -1.01039,-0.0427 -1.86176,0.67295 -1.14234,2.04321 11.99404,20.10323 19.07577,40.01892 29.46106,58.99488 1.48805,2.71896 1.81945,2.73975 4.95123,2.73975 l 63.77329,0 z"
     id="path3448" /><path
     id="path3450"
     d="m 294.27329,412.5 c 3.13178,0 3.46318,-0.0208 4.95123,-2.73975 10.38529,-18.97596 17.46702,-38.89165 29.46106,-58.99488 0.71942,-1.37026 -0.13195,-2.08587 -1.14234,-2.04321 -12.88536,0.54402 -26.82094,5.9571 -38.03265,16.44693 -1.25361,1.17289 -0.57156,2.33091 0.87679,2.33091 l 11.58888,0 c 1.69724,0 2.19979,0.46103 1.85148,1.83314 -2.50615,17.72262 -13.68987,31.72099 -34.561,31.69179 -13.21737,-0.0185 -27.07658,-12.15155 -26.53792,-33.52493 l 14.50328,0 c 1.91676,0 2.2516,-1.11237 1.46963,-2.17841 -8.19233,-11.16846 -16.82964,-20.19578 -28.20173,-24.46663 -11.37209,4.27085 -20.0094,13.29817 -28.20173,24.46663 -0.78197,1.06604 -0.44713,2.17841 1.46963,2.17841 l 14.50328,0 c 0.53866,21.37338 -13.32055,33.50642 -26.53792,33.52493 -20.87113,0.0292 -32.05485,-13.96917 -34.561,-31.6918 -0.34831,-1.3721 0.15424,-1.83313 1.85148,-1.83313 l 11.58888,0 c 1.44835,0 2.1304,-1.15802 0.87679,-2.33091 -11.21171,-10.48983 -25.14729,-15.90291 -38.03265,-16.44693 -1.01039,-0.0427 -1.86176,0.67295 -1.14234,2.04321 11.99404,20.10323 19.07577,40.01892 29.46106,58.99488 1.48805,2.71896 1.81945,2.73975 4.95123,2.73975 l 63.77329,0 z"
     style="fill:#ffe000;fill-opacity:1;fill-rule:evenodd;stroke:#000000;stroke-width:1px;stroke-linecap:butt;stroke-linejoin:miter;stroke-opacity:1" /></svg>