<?xml version="1.0" encoding="UTF-8" standalone="no"?>
<svg
   xmlns:dc="http://purl.org/dc/elements/1.1/"
   xmlns:cc="http://creativecommons.org/ns#"
   xmlns:rdf="http://www.w3.org/1999/02/22-rdf-syntax-ns#"
   xmlns:svg="http://www.w3.org/2000/svg"
   xmlns="http://www.w3.org/2000/svg"
   id="svg2"
   height="500"
   width="420"
   version="1">
  <metadata
     id="metadata51">
    <rdf:RDF>
      <cc:Work
         rdf:about="">
        <dc:format>
          
          image/svg+xml
        
        </dc:format>
        <dc:type
           rdf:resource="http://purl.org/dc/dcmitype/StillImage" />
        <dc:title></dc:title>
      </cc:Work>
    </rdf:RDF>
  </metadata>
  <defs
     id="defs4" />
  <path
     style="fill:#e00e00;fill-rule:nonzero"
     d="m 4.4503626,1.5 411.0888574,0 0,300.82465 0,0 c 0,0.0298 0,0.0595 0,0.0903 0,108.64857 -92.02597,196.71263 -205.53922,196.71263 -113.513257,0 -205.5496374,-88.07404 -205.5496374,-196.71263 0,-0.0298 0,-0.0595 0,-0.0903 l 0,0 0,-300.82465 z"
     id="path2418" />
  <path
     style="fill:#ffe000;fill-opacity:1;stroke:#000000;stroke-opacity:1"
     id="path3685"
     d="m 83.490173,342.60657 c 1.21961,0.557 3.41436,-4.04366 2.28813,-5.24365 -5.55183,-5.91541 -19.89916,0.29647 -18.33686,10.99577 2.33051,-2.93433 8.88468,-9.02394 16.04873,-5.75212 z" />
  <path
     style="fill:none;stroke:#000000;stroke-width:1.02142417"
     id="path4300"
     d="m 4.4503626,1.5 411.0888574,0 0,300.82465 0,0 c 0,0.0298 0,0.0595 0,0.0903 0,108.64857 -92.02597,196.71263 -205.53922,196.71263 -113.513257,0 -205.5496374,-88.07404 -205.5496374,-196.71263 0,-0.0298 0,-0.0595 0,-0.0903 l 0,0 0,-300.82465 z" />
  <path
     style="fill:#ffe000;fill-opacity:1;stroke:#000000;stroke-opacity:1"
     id="path3667"
     d="m 128.22161,87.903918 c 1.1206,0.2791 5.03375,6.571197 4.29026,6.393837 -13.25482,-3.16196 -26.48418,-7.34826 -37.681217,-11.892751 -4.2829,-1.738282 -6.99233,-6.890718 -5.05297,-6.261861 12.706747,4.120291 20.872757,7.384446 38.443927,11.760775 z" />
  <path
     style="fill:#ffe000;fill-opacity:1;stroke:#000000;stroke-opacity:1"
     id="path3681"
     d="m 165.46475,339.1509 c -1.82668,1.21965 1.73215,6.78062 2.92131,5.88757 4.33989,-3.25928 11.97878,-6.11118 17.5728,-0.22472 -1.97922,-10.28378 -14.56969,-9.61852 -20.49411,-5.66285 z" />
  <path
     style="fill:#ffe000;fill-opacity:1;stroke:#000000;stroke-opacity:1"
     id="path3675"
     d="m 250.62052,364.57859 c -2.98061,-0.15481 -4.92353,6.45828 -1.52807,6.42688 4.84905,-0.0454 7.35111,-0.45268 10.56166,5.25835 2.20804,-7.06093 -2.95296,-11.36942 -9.03359,-11.68523 z" />
  <path
     style="fill:#ffe000;fill-opacity:1;stroke:#000000;stroke-opacity:1"
     id="path3679"
     d="m 163.88285,391.94769 c 1.26057,-0.50213 4.78899,6.31791 1.21347,5.84263 -8.67649,-1.15335 -11.92017,6.86856 -12.53916,13.2133 -6.51351,-19.24097 5.77143,-16.84343 11.32569,-19.05593 z" />
  <path
     style="fill:#ffe000;fill-opacity:1;stroke:#000000;stroke-opacity:1"
     id="path3677"
     d="m 190.49577,410.66942 c 1.66592,-0.24497 3.94358,2.4475 3.82017,3.61793 -0.0451,0.42812 -8.80238,3.18975 -6.62913,13.84251 -7.87348,-7.06264 -1.13803,-16.88002 2.80896,-17.46044 z" />
  <path
     style="fill:#ffe000;fill-opacity:1;stroke:#000000;stroke-opacity:1"
     id="path3683"
     d="m 97.035913,374.4848 c 3.018257,-0.46621 6.339817,3.68596 4.251267,4.4864 -5.046217,1.93401 -7.986157,9.78098 -4.954017,16.90036 -10.54793,-5.75817 -6.22768,-20.31629 0.70275,-21.38677 z" />
  <path
     style="fill:#ffe000;fill-opacity:1;stroke:#000000;stroke-linecap:round;stroke-linejoin:round;stroke-opacity:1"
     id="path2849"
     d="m 301.39239,318.12911 c 5.7656,10.01658 13.20693,19.81102 24.35923,29.52769 -4.39446,0.0661 -10.58136,-3.16885 -15.64024,-7.32574 7.87697,10.63646 15.39479,21.33038 26.15696,31.5052 -4.43512,-0.71575 -9.62846,-3.04244 -13.75263,-7.01114 0,0 11.81282,21.15043 13.84251,24.71877 2.97091,5.22308 -11.05537,10.42114 -13.8263,7.1788 2.32083,5.02471 -12.29676,13.1408 -15.54025,7.49126 1.97648,5.82562 -11.97891,12.87427 -15.16225,6.12327 -5.4323,-11.52039 -10.04115,-22.99196 -14.39284,-36.00425 0.32642,5.20012 0.87334,14.66074 -4.44915,20.08474 0.64659,-15.35997 -2.23482,-29.45916 -5.33898,-40.86864 0.25842,4.19111 1.12542,14.06873 -2.5828,17.22722 -1.9766,-24.26496 -9.89588,-43.58645 -15.49306,-55.95853 -3.32319,-7.34564 -13.88604,-2.42945 -11.35898,1.1123 l 5.02806,7.04697 c 3.03087,4.24785 -2.5927,6.51144 -5.40255,5.46611 0.79795,3.82584 -5.19034,9.48084 -11.37711,7.75423 l -7.43644,36.03814 c 4.85284,-1.39665 7.76536,4.52543 8.5805,0.57203 1.73003,-8.3905 9.85061,-3.85964 10.86865,-5.97458 1.76259,-3.66172 3.95162,-11.47533 11.12288,-8.13559 5.70338,2.65613 -0.7839,6.24104 -1.08051,10.23305 -0.22287,2.99959 6.82954,4.03748 3.11441,8.00848 -2.70276,2.8889 -7.90119,3.80348 -10.42372,0.76271 -1.80736,-2.17867 -4.27657,-1.45676 -5.27543,0.69915 -2.20951,4.76896 -9.97882,5.91992 -17.09746,2.79661 -1.65761,6.07067 -0.59593,17.45017 -9.2161,17.92373 -1.60088,0.0879 -4.14553,1.42159 -2.41526,3.11441 6.9333,8.22435 -9.26405,23.15883 -14.11017,12.26695 -3.28905,-7.3923 -7.05608,-1.37371 -6.73728,-6.22882 0.5725,-8.71875 9.32284,-4.70099 9.66101,-7.43643 0.41391,-3.34814 1.95164,-6.29537 5.84746,-6.03814 2.6141,0.1726 3.68728,-2.37105 5.4661,-3.94068 1.39869,-1.23421 -1.42916,-4.89132 -3.55932,-2.98729 -4.5065,4.02812 -5.18891,2.10985 -7.56356,4.51272 -8.21065,8.30818 -15.16194,0.16153 -14.6822,3.30509 2.05102,13.43948 -18.81979,12.35437 -17.22458,3.55932 1.59812,-8.81107 -8.23253,-8.51095 -1.08051,-13.85593 9.00969,-6.7333 15.21464,4.66713 17.54237,2.54237 2.84708,-2.59882 4.28157,-6.60491 12.39407,-3.36864 6.77918,2.70438 27.44397,-31.30698 25.71971,-53.26856 -4.09887,5.38356 -10.1327,8.38463 -14.88767,7.67571 10.11613,-9.18483 9.29572,-18.86549 4.47267,-27.37691 0.6695,7.9585 -2.80908,16.38186 -12.68582,16.2855 6.41879,-5.64854 7.32583,-19.64996 2.98167,-27.22017 -5.18892,-9.04231 -18.17399,-9.84658 -17.90282,2.5014 0.0541,2.46449 1.74296,7.4011 12.39717,8.22406 -2.48401,3.67484 -12.50111,3.97916 -15.00388,0.22526 -0.76556,-1.14826 -1.02359,2.97898 -6.47183,4.49433 -18.44786,5.131 -41.86449,27.01551 -39.37027,27.68503 7.66563,2.05766 4.31399,3.99169 6.0224,2.24716 4.58213,-4.67902 5.60956,-4.69844 12.05382,-1.2539 4.51904,2.41549 1.03224,-6.28399 11.90115,-10.317 7.38986,-2.74208 3.27413,5.18903 5.05634,8.55378 1.41211,2.666 7.38189,2.87097 4.51634,6.16314 -2.4487,2.81327 -6.21655,7.05602 -13.43483,3.00536 -1.57729,-0.88513 -4.22503,-1.5915 -5.71099,1.21931 -2.13617,4.04071 -8.25507,4.70351 -12.83647,0.0891 -1.75041,-1.76301 -8.28722,-5.57568 -9.09582,-1.96715 -1.63029,7.27546 -8.18093,5.81248 -7.37069,7.63077 2.16425,4.85688 -1.47827,12.39522 -9.48302,9.07853 -1.44215,-0.59754 -3.43579,1.79671 -2.60671,2.78649 9.91485,11.83656 -9.79676,13.08592 -11.22631,9.33112 -2.921587,-7.67372 -8.044277,-3.63771 -8.503767,-5.64578 -3.11326,-13.60583 11.780827,-6.20101 12.134677,-8.44933 1.28238,-8.14827 7.74054,-4.98626 8.26955,-7.14598 1.25548,-5.12554 2.99637,-5.89048 7.73023,-5.70778 1.95496,0.0754 2.31023,-3.71549 0.3146,-3.82018 -7.0934,-0.37212 -9.87835,-1.87876 -11.46052,0.045 -1.90249,2.31317 -8.22898,5.91332 -11.595347,-2.6966 -0.54849,-1.40283 -3.49326,-0.56858 -4.31455,1.3483 -3.39215,7.91735 -15.23436,3.78776 -11.23581,-3.50556 1.3777,-2.5129 5.14125,-6.46774 2.51683,-8.6291 -7.24154,-5.96385 11.85906,-12.84772 12.22455,3.3258 0.0378,1.67451 10.793557,-4.27207 13.932397,4.67409 0.71971,2.05126 33.24228,-20.89234 49.16789,-35.59504 5.28596,-4.88005 0.68766,-17.16757 0.26966,-26.69627 0.60743,12.54781 -2.67042,17.12265 -8.6291,21.2132 2.7994,-11.86168 3.02311,-19.01348 -10.6066,-44.85334 4.66218,10.24138 0.3929,19.42583 -4.85387,24.89855 3.8018,-28.947 -5.84625,-21.43881 -11.41557,-43.50505 -2.98213,-11.81552 -22.62787,-17.52502 -22.65139,-30.20185 l -0.0899,-48.44879 c -0.0145,-7.83133 17.56643,-21.7552 17.97729,-30.20185 0.20833,-4.28294 0.97095,-9.40971 4.22466,-14.6515 3.86689,-6.22962 -63.238377,-16.99976 -66.066537,-36.673665 -0.0527,-0.366841 47.503877,11.180995 70.381087,19.505365 2.85713,1.03962 4.22814,-2.19975 3.41569,-4.85392 -1.88296,-6.151429 -6.95038,-12.778442 -18.67909,-18.635472 -3.94774,-1.971408 -8.87806,0.896747 -14.399117,-2.847394 -7.94274,-5.386416 -22.17523,-13.224957 -39.37026,-11.235807 2.50587,-8.916549 19.03403,-10.219889 32.76493,-9.47531 0.53224,-0.878339 1.92373,-1.642701 3.18965,-1.400951 10.318727,1.970538 27.699597,8.57524 29.033317,7.28532 1.82311,-1.76324 2.90659,-2.860609 5.75725,-3.225007 6.34668,-0.811291 10.58277,-0.649193 12.14173,5.930937 50.16299,-0.356335 61.48483,100.545914 54.24056,100.184904 -3.19303,-0.15912 -5.95929,2.59972 -4.5018,2.99726 48.99754,13.36437 88.66637,105.54682 177.71186,176.47248 -22.99724,-0.3342 -41.64944,-8.83798 -67.82385,-22.00896" />
  <path
     style="fill:#ffe000;fill-opacity:1;stroke:#000000;stroke-opacity:1"
     id="path3669"
     d="m 205.37548,375.46673 c -1.39831,1.91738 -2.76803,3.69482 -4.44915,5.27542 -7.01271,0.72035 -7.52526,-3.92245 -9.88348,-2.60593 -13.54731,7.56304 -9.81156,-6.80495 -11.98093,-4.38558 -4.1849,4.66715 -10.04323,6.21485 -12.61652,-5.4661 -0.62323,-2.82905 -9.83064,-1.09557 -11.94916,0.12711 0.76241,-5.27332 14.71548,-8.43619 14.61865,-6.61017 -0.0509,0.95945 -1.72761,4.92654 -0.38136,5.14831 0,0 6.44011,-12.63421 13.6017,-7.1822 4.02249,3.06226 -1.62564,9.15668 0.69915,10.67796 6.16449,4.03388 9.29366,0.59289 13.31568,2.95551 3.25297,1.91086 5.3072,1.51483 9.02542,2.06567 z" />
  <path
     style="fill:#ffe000;fill-opacity:1;stroke:#000000;stroke-opacity:1"
     id="path3687"
     d="m 97.469213,309.96885 c 2.13567,2.2109 7.166187,-2.15242 6.612987,-3.42827 -5.065287,-11.68221 -22.731727,-3.71718 -25.204087,3.61894 4.0303,-2.4236 14.21112,-4.72494 18.5911,-0.19067 z" />
  <path
     style="fill:#ffe000;fill-opacity:1;stroke:#000000;stroke-opacity:1"
     id="path3671"
     d="m 117.35612,341.71358 c 0.56594,-0.11563 5.83233,-3.75619 5.62501,-3.79766 -1.90678,-1.52544 -5.72899,-5.87724 -5.05298,-6.49895 3.25111,-2.98993 2.15266,-8.48732 -2.38346,-8.19914 -2.15322,0.13881 -4.55509,-4.86727 -3.05085,-5.68857 10.02304,-5.47249 -2.26583,-17.48287 -7.59534,-12.52119 -1.62296,1.51095 -2.96162,5.37162 -7.595337,5.625 -6.3562,0.34758 -1.0715,19.55874 7.944917,10.36017 1.11387,-1.13637 3.12891,2.86149 1.93855,4.00423 -4.53138,4.35011 -0.38093,11.57995 5.13443,9.25851 3.01831,-1.27042 3.93137,4.46454 5.03506,7.4576 z" />
  <path
     style="fill:#ffe000;fill-opacity:1;stroke:#000000;stroke-opacity:1"
     id="path3673"
     d="m 283.46385,253.85788 27.36481,31.66042 c 26.19463,-2.87498 55.46986,-10.09873 73.89606,-22.92262 -46.47556,0.48633 -61.49008,-7.43293 -101.26087,-8.7378 z" />
  <path
     style="fill:#000000;fill-opacity:1;stroke:none"
     id="path3744"
     d="m 139.00218,79.483357 c -3.33377,2.023216 -3.34032,6.917204 -2.28473,8.921746 3.50425,6.654513 13.2268,5.956427 14.09266,0.266347 1.39226,-9.149366 -10.08041,-9.993023 -10.14115,-9.899286 0,0 0.0971,-0.359277 -1.66678,0.711193 z" />
  <path
     style="fill:#ffe000;fill-opacity:1;stroke:none"
     id="path3746"
     d="m 137.41703,85.705194 c 2.55923,-1.746553 10.75849,0.370758 11.50546,4.494326 2.22495,-3.69006 0.43611,-7.473962 -3.16387,-9.20346 -3.45523,-1.659954 -9.06048,-1.030848 -8.34159,4.709134 z" />
  <path
     id="path4423"
     d="M 301.39239,318.12911 C 259.90311,299.62793 226.95443,273.41597 189.75342,251.02886 l -44.58369,-71.05524 10.35942,-14.38183 12.4268,3.68534"
     style="fill:none;fill-rule:evenodd;stroke:#000000;stroke-width:1px;stroke-linecap:round;stroke-linejoin:round;stroke-opacity:1" />
  <path
     id="path4425"
     d="m 141.76562,60.483426 c 1.60845,5.883869 8.93978,4.375298 9.27967,10.423729"
     style="fill:none;fill-rule:evenodd;stroke:#000000;stroke-width:1px;stroke-linecap:round;stroke-linejoin:round;stroke-opacity:1" />
  <path
     id="path4427"
     d="m 237.83912,328.44314 -5.5658,-7.38285"
     style="fill:none;fill-rule:evenodd;stroke:#000000;stroke-width:1px;stroke-linecap:round;stroke-linejoin:miter;stroke-opacity:1" />
  <path
     id="path4429"
     d="M 306.99167,404.21395 301.7798,393.46432"
     style="fill:none;fill-rule:evenodd;stroke:#000000;stroke-width:1px;stroke-linecap:round;stroke-linejoin:miter;stroke-opacity:1" />
  <path
     id="path4431"
     d="m 322.53192,396.72269 -5.42265,-11.87654"
     style="fill:none;fill-rule:evenodd;stroke:#000000;stroke-width:1px;stroke-linecap:round;stroke-linejoin:miter;stroke-opacity:1" />
  <path
     id="path4441"
     d="m 157.01227,79.79516 c -2.23876,0.795481 -5.19384,1.286699 -7.72665,-1.753312 -1.62959,-1.955922 -2.68485,-4.389855 -5.7795,-4.798077 -2.60657,-0.343839 -6.6173,4.671443 -2.61713,5.943073"
     style="fill:none;fill-opacity:1;fill-rule:evenodd;stroke:#000000;stroke-width:1px;stroke-linecap:round;stroke-linejoin:round;stroke-opacity:1" />
</svg>
