<?xml version="1.0" encoding="UTF-8" standalone="no"?>
<svg
   xmlns:dc="http://purl.org/dc/elements/1.1/"
   xmlns:cc="http://creativecommons.org/ns#"
   xmlns:rdf="http://www.w3.org/1999/02/22-rdf-syntax-ns#"
   xmlns:svg="http://www.w3.org/2000/svg"
   xmlns="http://www.w3.org/2000/svg"
   xml:space="preserve"
   enable-background="new 30.5 31.5 412 533"
   viewBox="30.5 31.5 400 500"
   height="500"
   width="400"
   y="0"
   x="0"
   version="1.1"
   id="svg2"><metadata
     id="metadata4"><rdf:RDF><cc:Work
         rdf:about=""><dc:format>
          
          
          
          
          image/svg+xml
        
        
        
        
        </dc:format><dc:type
           rdf:resource="http://purl.org/dc/dcmitype/StillImage" /><dc:title></dc:title></cc:Work></rdf:RDF></metadata><defs
     id="defs6" /><path
     id="path4148"
     d="M 230.45,531.13 C 156.13,477.21 105.19,409.11 74.71,322.97 47.07,244.87 35.98,150.22 40.8,33.62 l 0.02,-0.46 379.82,0 0.02,0.46 c 4.81,116.6 -6.28,211.24 -33.91,289.35 -30.48,86.14 -81.42,154.24 -155.74,208.16 l -0.28,0.2 z"
     style="fill:#e00e00" /><path
     d="M 419.96,33.21 C 429.03,252.66 383.71,419.16 230.51,530.31 146.04,469.02 94.36,390.9 66.52,296.34 64.43,289.25 62.48,282.07 60.65,274.8 49.2,229.11 42.88,179.78 40.77,126.86 39.57,96.8 39.72,65.58 41.06,33.21 l 189.45,0 189.45,0 m 0.92,-0.95 -0.92,0 -189.45,0 -189.45,0 -0.92,0 -0.04,0.92 c -4.82,116.66 6.28,211.36 33.93,289.52 30.51,86.24 81.51,154.41 155.91,208.39 l 0.56,0.41 0.56,-0.41 C 305.46,477.11 356.46,408.94 386.97,322.7 414.62,244.54 425.72,149.84 420.9,33.18 l -0.04,-0.92 0,0 z"
     id="path10" /><path
     style="fill:#ffe000;fill-opacity:1;fill-rule:evenodd;stroke:#000000;stroke-width:1px;stroke-linecap:butt;stroke-linejoin:miter;stroke-opacity:1"
     d="m 230.5,62.660265 c -22.53103,0 -45.80372,16.498092 -44.74689,50.210825 0.79698,25.42362 14.03553,53.62891 27.41572,75.16222 l -16.53608,12.06572 c -15.96195,-19.14182 -37.78911,-39.78619 -60.91411,-48.47565 -31.5738,-11.86419 -54.69134,4.85063 -61.95184,26.17976 -7.26051,21.32916 0.85802,48.67681 33.11295,58.5401 24.32426,7.43818 55.29103,3.99482 79.98736,-1.73264 l 5.40233,18.29224 c -23.15755,10.31698 -49.94144,26.23623 -64.86595,46.83368 -19.79045,27.31302 -9.78308,54.02741 8.86716,66.66922 18.65028,12.64181 47.17121,12.04326 65.21212,-16.4557 13.226,-20.89292 18.19428,-50.559 19.3855,-75.46872 l 19.26346,0 c 1.19122,24.90972 6.1595,54.5758 19.3855,75.46872 18.04091,28.49896 46.56184,29.09751 65.21212,16.4557 18.65024,-12.64181 28.65761,-39.3562 8.86716,-66.66922 -14.92451,-20.59745 -41.7084,-36.5167 -64.86595,-46.83368 l 5.40233,-18.29224 c 24.69633,5.72746 55.6631,9.17082 79.98736,1.73264 32.25493,-9.86329 40.37346,-37.21094 33.11295,-58.5401 -7.2605,-21.32913 -30.37804,-38.04395 -61.95184,-26.17976 -23.125,8.68946 -44.95216,29.33383 -60.91411,48.47565 L 247.83117,188.03331 C 261.21136,166.5 274.44991,138.29471 275.24689,112.87109 276.30372,79.158357 253.03103,62.660265 230.5,62.660265"
     id="path4243" /><path
     style="fill:#e00e00;fill-opacity:1;fill-rule:evenodd;stroke:#000000;stroke-width:1px;stroke-linecap:butt;stroke-linejoin:miter;stroke-opacity:1"
     d="M 211.51257,114.89731 C 211.48492,103.44305 216.42696,91.5 230.5,91.5 c 14.07304,0 19.01508,11.94305 18.98743,23.39731 C 249.44613,132.0005 242.86175,149.57964 230.5,166.5 218.13825,149.57964 211.55386,132.0005 211.51257,114.89731 Z"
     id="path4251" /><path
     id="path4255"
     d="m 117.09874,212.61083 c -10.85215,-3.66494 -20.56559,-12.19191 -16.03062,-25.51423 4.53496,-13.32234 17.43347,-14.15216 28.26782,-10.4349 16.17752,5.55049 30.69716,17.44842 42.73141,34.60325 -20.00127,6.24984 -38.76446,6.81821 -54.96861,1.34588 z"
     style="fill:#e00e00;fill-opacity:1;fill-rule:evenodd;stroke:#000000;stroke-width:1px;stroke-linecap:butt;stroke-linejoin:miter;stroke-opacity:1" /><path
     style="fill:#e00e00;fill-opacity:1;fill-rule:evenodd;stroke:#000000;stroke-width:1px;stroke-linecap:butt;stroke-linejoin:miter;stroke-opacity:1"
     d="m 181.29705,333.81959 c -6.40396,9.49687 -17.1958,16.60995 -28.84487,8.7138 -11.64909,-7.89617 -9.03885,-20.55501 -2.58914,-30.02088 9.63049,-14.13413 24.94415,-24.99105 44.67044,-32.06102 0.73886,20.94194 -3.67429,39.18763 -13.23643,53.3681 z"
     id="path4259" /><path
     style="fill:#e00e00;fill-opacity:1;fill-rule:evenodd;stroke:#000000;stroke-width:1px;stroke-linecap:butt;stroke-linejoin:miter;stroke-opacity:1"
     d="m 343.90126,212.61083 c 10.85215,-3.66494 20.56559,-12.19191 16.03062,-25.51423 -4.53496,-13.32234 -17.43347,-14.15216 -28.26782,-10.4349 -16.17752,5.55049 -30.69716,17.44842 -42.73141,34.60325 20.00127,6.24984 38.76446,6.81821 54.96861,1.34588 z"
     id="path4263" /><path
     id="path4265"
     d="m 279.70295,333.81959 c 6.40396,9.49687 17.1958,16.60995 28.84487,8.7138 11.64909,-7.89617 9.03885,-20.55501 2.58914,-30.02088 -9.63049,-14.13413 -24.94415,-24.99105 -44.67044,-32.06102 -0.73886,20.94194 3.67429,39.18763 13.23643,53.3681 z"
     style="fill:#e00e00;fill-opacity:1;fill-rule:evenodd;stroke:#000000;stroke-width:1px;stroke-linecap:butt;stroke-linejoin:miter;stroke-opacity:1" /><path
     id="path4272"
     d="m 218.19456,247.86844 -8.53699,-25.84322 20.84243,-15.11361 20.84243,15.11361 -8.53699,25.84322 c -8.20363,0 -16.40725,0 -24.61088,0 z"
     style="fill:#e00e00;fill-opacity:1;fill-rule:evenodd;stroke:#000000;stroke-width:1px;stroke-linecap:butt;stroke-linejoin:miter;stroke-opacity:1" /></svg>