<svg xmlns:dc="http://purl.org/dc/elements/1.1/" xmlns:cc="http://creativecommons.org/ns#" xmlns:rdf="http://www.w3.org/1999/02/22-rdf-syntax-ns#" xmlns:svg="http://www.w3.org/2000/svg" xmlns="http://www.w3.org/2000/svg" id="svg2" version="1.1" x="0" y="0" width="400" height="500" viewBox="30.5 31.5 400 500" enable-background="new 30.5 31.5 412 533" xml:space="preserve">
  <metadata id="metadata4">
    <rdf:RDF>
      <cc:Work rdf:about="">
        <dc:format>
          
          
          image/svg+xml
        
        
        </dc:format>
        <dc:type rdf:resource="http://purl.org/dc/dcmitype/StillImage"/>
      </cc:Work>
    </rdf:RDF>
  </metadata>
  <defs id="defs6"/>
  <path id="path8" d="M230.55 531.13C304.87 477.21 355.81 409.11 386.29 322.97 413.93 244.87 425.02 150.22 420.2 33.62l-0.02-0.46-379.82 0-0.02 0.46c-4.81 116.6 6.28 211.24 33.91 289.35 30.48 86.14 81.42 154.24 155.74 208.16l0.28 0.2 0.28-0.2z" fill="#ffe000"/>
  <path id="path10" d="m41.04 33.21c-9.07 219.45 36.25 385.95 189.45 497.1 84.47-61.29 136.15-139.41 163.99-233.97 2.09-7.09 4.04-14.27 5.87-21.54 11.45-45.69 17.77-95.02 19.88-147.94 1.2-30.06 1.05-61.28-0.29-93.65l-189.45 0-189.45 0m-0.92-0.95 0.92 0 189.45 0 189.45 0 0.92 0 0.04 0.92c4.82 116.66-6.28 211.36-33.93 289.52-30.51 86.24-81.51 154.41-155.91 208.39l-0.56 0.41-0.56-0.41C155.54 477.11 104.54 408.94 74.03 322.7 46.38 244.54 35.28 149.84 40.1 33.18l0.04-0.92 0 0z"/>
  <path id="path2987" d="m311.7 406.49c-2.13 7.56-8.97 14.71-15.7 17.05-41.2-55.11-80.8-81.72-109.49-108.91-17.41 14.64-32.74 36.02-48.5 55.84-0.95 1.19-3.26-0.82-2.83-1.8 9.53-21.71 18.59-47.84 37.44-66.39 0.3-2.4-0.59-5.57 0.9-7.2l7.98-8.75c1.07-1.18 5.4-0.86 8.11-1.29 19.44-20.98 47.43-34.49 71.28-41.43 1.95-0.57 2.3 3 1.29 3.73-24.32 17.62-47.15 31.92-60.21 51.85 34.02 27.38 42.34 56.09 109.75 107.3z" fill="#000"/>
  <path id="path2989" d="m396.11 215.39c-2.13 7.56-8.97 14.71-15.7 17.05-41.2-55.11-80.8-81.72-109.49-108.91-17.41 14.64-32.74 36.02-48.5 55.84-0.95 1.19-3.26-0.82-2.83-1.8 9.53-21.71 18.59-47.84 37.44-66.39 0.3-2.4-0.59-5.57 0.9-7.2l7.98-8.75c1.07-1.18 5.4-0.86 8.11-1.29 19.44-20.98 47.43-34.49 71.28-41.43 1.95-0.57 2.3 3 1.29 3.73-24.32 17.62-47.15 31.92-60.21 51.85 34.02 27.38 42.34 56.09 109.75 107.3z" fill="#000"/>
  <path id="path2830" d="m238.47 213.6c-2.13 7.56-8.97 14.71-15.7 17.05-41.2-55.11-80.8-81.72-109.49-108.91-17.41 14.64-32.74 36.02-48.5 55.84-0.95 1.19-3.26-0.82-2.83-1.8 9.53-21.71 18.59-47.84 37.44-66.39 0.3-2.4-0.59-5.57 0.9-7.2l7.98-8.75c1.07-1.18 5.4-0.86 8.11-1.29 19.44-20.98 47.43-34.49 71.28-41.43 1.95-0.57 2.3 3 1.29 3.73-24.32 17.62-47.15 31.92-60.21 51.85 34.02 27.38 42.34 56.09 109.75 107.3z" fill="#000"/>
</svg>
