<?xml version="1.0" encoding="UTF-8" standalone="no"?>
<svg
   xmlns:dc="http://purl.org/dc/elements/1.1/"
   xmlns:cc="http://creativecommons.org/ns#"
   xmlns:rdf="http://www.w3.org/1999/02/22-rdf-syntax-ns#"
   xmlns:svg="http://www.w3.org/2000/svg"
   xmlns="http://www.w3.org/2000/svg"
   xml:space="preserve"
   enable-background="new 30.5 31.5 412 533"
   viewBox="30.5 31.5 400 500"
   height="500"
   width="400"
   y="0"
   x="0"
   version="1.1"
   id="svg2"><metadata
     id="metadata4"><rdf:RDF><cc:Work
         rdf:about=""><dc:format>
          
          
          
          
          image/svg+xml
        
        
        
        
        </dc:format><dc:type
           rdf:resource="http://purl.org/dc/dcmitype/StillImage" /><dc:title></dc:title></cc:Work></rdf:RDF></metadata><defs
     id="defs6" /><path
     style="fill:#ffffff;fill-opacity:1"
     id="path4148"
     d="M 230.45,531.13 C 156.13,477.21 105.19,409.11 74.71,322.97 47.07,244.87 35.98,150.22 40.8,33.62 l 0.02,-0.46 379.82,0 0.02,0.46 c 4.81,116.6 -6.28,211.24 -33.91,289.35 -30.48,86.14 -81.42,154.24 -155.74,208.16 l -0.28,0.2 -0.28,-0.2 z" /><path
     d="M 419.96,33.21 C 429.03,252.66 383.71,419.16 230.51,530.31 146.04,469.02 94.36,390.9 66.52,296.34 64.43,289.25 62.48,282.07 60.65,274.8 49.2,229.11 42.88,179.78 40.77,126.86 39.57,96.8 39.72,65.58 41.06,33.21 l 189.45,0 189.45,0 m 0.92,-0.95 -0.92,0 -189.45,0 -189.45,0 -0.92,0 -0.04,0.92 c -4.82,116.66 6.28,211.36 33.93,289.52 30.51,86.24 81.51,154.41 155.91,208.39 l 0.56,0.41 0.56,-0.41 C 305.46,477.11 356.46,408.94 386.97,322.7 414.62,244.54 425.72,149.84 420.9,33.18 l -0.04,-0.92 0,0 z"
     id="path10" /><path
     style="fill:#000000;fill-opacity:1;stroke:#000000;stroke-width:1.04400003;stroke-linecap:round;stroke-linejoin:round;stroke-miterlimit:4;stroke-dasharray:none;stroke-opacity:1"
     id="path2827"
     d="m 250.6465,131.37206 c 4.90393,-1.04814 14.39101,-0.48236 20.84593,-2.12021 3.42576,-0.86924 8.89943,-3.12264 10.20583,-3.06484 29.36147,1.29891 34.48299,-2.96095 40.54445,-6.03418 2.70224,-1.37007 2.83756,-3.37285 1.62079,-3.38013 -4.23901,-0.0254 -12.38848,0.97825 -11.98742,-2.69986 0.55343,-5.07555 21.95555,0.38028 19.72598,-17.37715 -0.70316,-5.600282 -4.81316,-3.706005 -19.89353,-5.644703 -9.43986,-1.213577 -26.52662,-6.860795 -26.56763,-9.463475 -0.1003,-6.365026 20.23634,0.521545 22.94512,-10.865748 -5.55723,2.237583 -16.53412,2.375323 -23.25487,0.321888 -4.4126,-1.348211 7.55017,-4.636864 7.45574,-11.478235 -5.48107,3.527021 -10.19696,3.176058 -18.52842,4.229781 -6.73568,0.851897 -5.34494,5.917362 -14.16208,6.464279 -0.92365,-4.026672 -0.0808,-14.07007 5.62215,-20.100445 -11.96158,-0.825112 -19.72555,11.935871 -23.19423,19.359142 -9.37654,-2.28172 -10.84036,-8.157201 -21.56382,-8.266414 -11.76696,-0.119841 -13.0625,6.040544 -23.74404,7.192501 -4.8725,0.525478 -11.63059,-0.07488 -21.46977,-3.708745 3.80169,7.264236 14.4201,13.684267 23.57673,12.027631 9.72161,-1.758854 15.17366,-1.293671 18.03581,0.194403 3.63972,1.892343 2.78738,7.924033 0.27474,9.22562 -3.06536,1.587903 -11.32486,4.274032 -19.41924,3.23764 -6.69567,-0.857304 -15.80452,-6.324422 -25.12386,-7.028606 -4.33775,-0.327768 -12.18419,1.986893 -17.31511,7.629886 -3.65875,4.023901 -5.46816,5.184717 -7.86197,8.213142 7.42991,-0.772183 15.80397,-7.086962 21.10229,-6.370317 3.7835,0.511751 9.52514,3.109948 13.63763,5.07434 7.9819,3.812675 17.75433,1.917254 17.8909,7.329245 0.0517,2.04687 0.25409,3.56921 -1.6237,4.23873 -15.98296,5.69869 -17.19159,-2.91781 -32.34639,-2.60004 -6.46333,0.13552 -21.53776,14.13818 -19.60883,26.61598 3.51889,-5.47168 10.26604,-18.75033 16.76844,-16.57375 18.20374,6.79142 26.41447,0.66667 29.10509,5.96942 1.67027,3.29181 -7.7018,8.94977 -25.36295,10.78143 -11.38398,1.18064 -8.70762,21.23319 -3.07814,28.42913 -0.48679,-13.01446 2.12871,-17.70634 7.45974,-19.60279 6.71006,-2.38702 13.84552,-3.85421 15.76374,-1.50681 3.19844,3.91406 -10.52031,35.33028 -19.05746,36.15679 -3.87928,0.37558 -18.11141,-18.33466 -33.41216,-24.72758 -8.70495,-3.63708 -2.2619,-14.61241 -16.48086,-17.11848 -5.70204,-1.00498 -11.70464,2.96898 -18.615263,17.1234 -7.306937,14.96615 -31.185962,31.77088 -35.241943,54.72079 -1.155842,6.54009 1.856007,12.09405 1.186086,17.92187 -0.331661,2.8852 -2.175278,6.33764 -2.506552,9.11675 -0.761291,6.3866 0.490087,12.17101 3.277123,16.22522 1.918358,2.79057 21.403338,-21.33905 19.804061,-23.26058 -2.781909,-3.34245 -6.87888,-4.33851 -9.410196,-7.11257 -2.078638,-2.27798 4.031193,-5.10102 4.418994,-6.84255 1.170988,-5.25866 -4.868833,-2.80113 -5.784512,-12.27462 -1.181768,-12.22642 20.985306,-17.20196 29.974532,-24.53374 7.66373,-6.25056 10.69141,-14.29023 15.52451,-14.22744 2.63466,0.0342 8.85601,34.02088 27.45852,44.67183 4.36487,2.49913 2.65382,6.27691 -1.2818,5.91256 -7.91659,-0.7329 -10.99734,4.99413 -21.76826,6.29514 -5.15274,0.6224 -13.42264,-0.7398 -18.71653,0.92942 -7.59651,2.39528 -4.60259,18.58695 -4.15115,29.56737 0.84557,20.5667 -1.78645,35.78148 1.7524,49.37216 5.06368,19.44666 26.43384,29.71349 31.54289,28.31073 3.51227,-0.96434 -5.29402,-30.68725 -7.75884,-28.28551 -2.05464,2.00206 -3.43629,5.00448 -5.19293,5.66315 -0.43955,0.16481 -3.08211,-0.52004 -3.50237,-1.95173 -0.4673,-1.59196 0.32699,-3.36327 -0.90632,-5.95328 -1.73704,-3.64788 -4.81433,3.80166 -7.24205,-8.15643 -1.21424,-5.98093 0.16936,-14.42988 3.35332,-22.28436 3.15884,-7.7925 6.44216,-15.44326 5.82793,-25.27117 11.92066,3.51889 18.57175,3.26127 30.77997,6.86153 7.85642,2.31689 17.15702,3.33405 18.35123,5.6364 8.34306,16.08483 16.34207,19.8129 28.82908,24.21039 12.60173,4.4379 23.89348,6.43156 24.80445,10.44627 1.72786,7.61484 -55.58841,17.95675 -54.51142,35.34056 0.79948,12.9046 10.98971,26.08972 44.12177,46.66437 1.16222,0.72172 2.13238,3.03996 -0.0208,5.53625 -10.0988,11.70806 -19.95419,18.7082 -28.7839,26.89661 -2.92658,2.71403 -5.79378,7.03036 -8.9541,9.45424 -8.32762,6.38705 -9.59578,2.57282 -16.29186,7.72276 -1.73097,1.33129 -2.65874,4.08369 -4.16387,7.78418 -1.10001,2.70449 -4.03118,4.77704 -3.32725,8.42174 l 29.05809,0 c 0,0 -0.16345,-2.17703 -0.45836,-3.22046 -0.42449,-1.5019 -1.86435,-4.29505 -1.86435,-4.29505 -1.82532,-4.20514 3.8556,-7.09188 8.0274,-5.99627 1.1686,0.3069 4.25676,-1.19288 2.98764,-4.59656 -1.21636,-3.2622 10.98006,-13.70657 16.36074,-17.6742 13.2684,-9.78395 29.01247,-10.52539 37.3556,-14.73468 3.33719,-1.68369 4.3645,-6.06943 2.86364,-9.7515 -2.29325,-5.62604 -23.19934,-9.9176 -29.31248,-39.13482 -2.02424,-9.67466 44.49813,-13.08187 41.81991,-5.37015 -3.42803,9.87075 -9.5515,24.07137 -8.00657,29.51031 1.97598,6.95646 19.85131,17.33083 41.68949,33.40041 -1.55672,5.21994 -5.10443,15.25452 -10.78399,25.37981 -4.4059,7.85467 -10.38723,15.47141 -15.85478,22.7999 -5.67305,7.60392 -9.75587,7.76819 -16.46639,11.34297 -3.03904,1.61893 -4.98628,5.33756 -7.22564,9.37288 -2.11957,3.81947 -5.05422,6.63339 -4.80241,9.29129 l 30.90743,0 c -1.09697,-7.67652 -4.69877,-4.40803 -3.47123,-10.70018 0.61281,-3.14118 12.20046,-0.46303 11.73177,-3.93131 -1.31548,-9.73443 11.05586,-22.49311 16.20364,-29.20071 17.61529,-22.9529 31.74487,-15.59995 37.06974,-30.5719 1.15397,-3.24463 -7.84597,-7.49051 -15.31032,-14.72235 -8.66561,-8.39568 -15.74644,-20.85503 -14.39936,-27.14828 3.78548,-17.68491 33.19622,-10.28104 45.20142,-49.33949 1.19371,-3.88368 7.41181,-8.32079 10.43769,-9.01875 8.84902,-2.04115 18.69438,-12.9779 20.6945,-25.89372 1.27194,-8.21356 -2.78103,-8.8902 -5.17084,-25.90196 -2.47316,-17.60503 1.65831,-33.53783 21.53031,-37.30979 -4.51646,-4.31722 -15.92163,-1.66053 -19.94787,0.63869 -4.11346,2.34902 -7.99172,1.06014 -7.53608,-2.54263 1.93706,-15.3164 29.1482,-6.38424 20.32034,-42.40693 -1.62211,10.66607 -4.89584,15.25529 -7.80109,17.62149 -4.41129,3.59281 -9.28387,2.90557 -15.11581,6.97686 -2.38018,1.66161 -7.89755,6.02659 -8.76108,3.16844 -2.63084,-8.70761 6.65702,-13.27686 13.53613,-19.74455 6.3135,-5.93591 9.2594,-12.73051 4.81075,-26.47764 -0.97001,15.66173 -12.46723,16.97957 -21.25303,22.55514 -4.21316,2.67372 -5.26305,3.9177 -6.78879,6.80472 -1.92138,3.63563 -6.53345,4.54832 -7.27425,1.40863 -0.62894,-2.66559 -0.60897,-6.67068 1.35512,-10.22302 8.2757,-14.96784 29.15547,-11.73705 20.62178,-43.35527 -2.22687,22.69062 -13.15532,23.21575 -21.52518,26.71071 -7.48424,3.12515 -16.62818,11.16501 -22.19758,24.64201 -1.90685,9.65945 -8.48224,26.83582 -6.17931,35.10872 4.86541,15.62781 7.87428,28.96389 16.99882,34.22386 6.52334,3.76048 27.98385,4.05546 32.39442,31.5474 0.71773,4.47374 -5.21259,17.03036 -11.96971,14.89578 -7.68667,-2.42825 -8.8329,-13.00412 -16.51788,-18.10079 -19.68762,-13.05682 -41.36807,-13.64686 -53.87634,-33.49228 -10.33344,-16.39486 -12.79621,-44.93923 -30.53768,-68.20485 -3.8964,-5.10962 -5.18374,-11.10919 -2.07079,-17.18404 3.8937,-7.59848 6.1831,-20.3557 8.10324,-20.7661 z" /><path
     style="fill:#ffffff;fill-opacity:1;stroke:none"
     id="path3667"
     d="m 269.18833,93.413171 c 0.0402,-4.780136 12.70026,-7.324698 14.88411,-1.638612 2.67375,6.961643 -10.88657,6.136157 -14.88411,1.638612 z" /><path
     style="fill:#ffffff;fill-opacity:1;stroke:none"
     id="path3667-0"
     d="m 315.86688,101.35424 c 0.21048,-4.156791 7.07859,-3.999251 8.66179,-0.57916 1.31999,2.85172 -8.77755,2.86534 -8.66179,0.57916 z" /></svg>