<svg xmlns:dc="http://purl.org/dc/elements/1.1/" xmlns:cc="http://creativecommons.org/ns#" xmlns:rdf="http://www.w3.org/1999/02/22-rdf-syntax-ns#" xmlns:svg="http://www.w3.org/2000/svg" xmlns="http://www.w3.org/2000/svg" id="svg2" version="1.1" x="0" y="0" width="400" height="500" viewBox="30.5 31.5 400 500" enable-background="new 30.5 31.5 412 533" xml:space="preserve">
  <metadata id="metadata4">
    <rdf:RDF>
      <cc:Work rdf:about="">
        <dc:format>
          
          
          
          
          image/svg+xml
        
        
        
        
        </dc:format>
        <dc:type rdf:resource="http://purl.org/dc/dcmitype/StillImage"/>
      </cc:Work>
    </rdf:RDF>
  </metadata>
  <defs id="defs6"/>
  <path d="M230.45 531.13C156.13 477.21 105.19 409.11 74.71 322.97 47.07 244.87 35.98 150.22 40.8 33.62l0.02-0.46 379.82 0 0.02 0.46c4.81 116.6-6.28 211.24-33.91 289.35-30.48 86.14-81.42 154.24-155.74 208.16l-0.28 0.2-0.28-0.2z" id="path4148" fill="#e00e00"/>
  <path id="path10" d="M419.96 33.21C429.03 252.66 383.71 419.16 230.51 530.31 146.04 469.02 94.36 390.9 66.52 296.34 64.43 289.25 62.48 282.07 60.65 274.8 49.2 229.11 42.88 179.78 40.77 126.86 39.57 96.8 39.72 65.58 41.06 33.21l189.45 0 189.45 0m0.92-0.95-0.92 0-189.45 0-189.45 0-0.92 0-0.04 0.92c-4.82 116.66 6.28 211.36 33.93 289.52 30.51 86.24 81.51 154.41 155.91 208.39l0.56 0.41 0.56-0.41C305.46 477.11 356.46 408.94 386.97 322.7 414.62 244.54 425.72 149.84 420.9 33.18l-0.04-0.92 0 0z"/>
  <path id="path2827" d="m155.01 130.98c13.91-17.06 31.32 10.63 44.42 0.9-12.96 1.69-20.36-16.9-7.72-23.3-9.3-3.22-8.66-22.92 4.25-24.34-4.41-10.66 6.26-23.2 20.73-18.8 1.1-10.34 25.16-12.3 27.3 2.31 10.03-5.59 22.99 5.21 18.67 16.74 12.28 2.86 14.46 17.47 7.72 25.75 8.54 11.44-6.17 24.61-15.4 20.03 11.12 9.79 29.42-9.78 46.17 1.98-20.64 0.36-27.53 19.29-49.7 10.43-1.18 6.37 16.46 3.43 18.41 15.06-17.89-6.41-22.65 6.81-35.41-4.12 2.55 13.59 4.57 29.6 3.11 44.01-4.91 48.4-21.82 97.69-0.15 133.68-0.07-37.62 26.91-65.99 48.47-78.15-5.97 1.57-12.73 1.95-18.09 0.97-0.74-2.06-0.66-4.2 0.31-6.42-4.01 2.08-13.83 2.83-16.28-1.69 1.56-1.48 3.19-2.38 4.33-3.26-5.29-1.63-9.42-5.81-11.8-10.01 0.95-0.83 3.56-1.69 5.53-1.98-4.03-3.31-7.55-8.55-8.48-13.92 2.03-0.6 5.1-0.27 7.13 0.07-3.1-4.96-5.47-10.41-5.33-17.58 1.73 0.43 3.46 0.87 5.35 1.81-3.12-4.31-4.28-9.05-4.32-14.04 2.07-0.53 4.1-0.33 5.96-0.1-1.65-3.7-1.67-8.26-0.81-12.14 3.38 0.22 6.89 1.46 9.27 3.4 0.08-1.92 0.95-4.52 2.57-6.1 3.43 1.02 8.54 4.37 11.46 7.89 0.03-1.28-0.63-2.93 0.13-4.92 6.55 1.84 9.44 8.86 13.26 14.55-2.33-7.23-2.76-13.67-2.26-19.06 1.38 0.49 2.88 1.1 4.76 2.1-2.62-3.93-0.95-12.98 0.5-18.03 2.28 0.25 3.03 1.43 4.97 2.2 1.49-6.13 3.78-8.74 6.55-12.02 2.68 2.65 5.06 5.56 6.21 9.58 0.86-1.4 2.24-3.61 3.25-4.36 4.36 4.55 5.66 13.74 6.63 18.63 0.78-1.69 2.7-3.47 5.15-4.27 2.17 4.5 1.68 12.92 1.03 18.93 1.47-7.02 4.33-15.44 8.24-18.02 1.5 1.31 2.77 2.77 3.76 4.42 2.07-4.44 6.85-9.81 10.6-11.82 0.87 1.92 1.53 4.1 1.73 4.93 4.22-5.53 8.65-7.25 11.85-7.44 0.31 1.48-0.11 3.36-0.46 4.81 8.13-4.94 13.84-5.21 15.65-5.33 0.22 1.85 0.42 3.72 0.3 5.91 3.65-1.01 7.77-1.22 12.45-0.5-0.57 4.17-1.54 8.29-3.31 12.28 2.39-0.02 4.28 0.23 7.56 1.1-0.48 4.97-2.18 9.79-5.53 13.07 2.03 0.28 3.96 0.91 5.65 2.38-1.24 4.42-3.58 9.68-6.19 12.73 2.48 0.57 3.33 1.95 4.13 3.37-3.32 3.54-6.95 5.56-10.1 7.29 0.96 0.64 2.04 1.85 2.76 3.13-5.81 4.07-12.7 6.52-19.18 7.54 0.14-0.87 16.45 1.44 16.61 2.38 0.18 1.05-5.53 4.74-5.93 4.25 4.63 1.4 10.09 1.74 13.65 4.51-0.75 1.55-1.98 3.5-4.37 5.28 4.18 0.96 7.88 2.86 11.2 5.54-2.56 3.17-5.37 5.54-10.05 7.21 1.48 1.33 3.09 2.67 3.09 3.99-2.92 2.12-6.18 2.91-9.78 2.45 0.26 1.72 0.3 3.52-0.2 5.41-3.7 1.3-6.99 0.6-10.37 0.25 0.62 1.63 1.34 3.16 0.97 5.79-4.58 1.33-8.14 1.01-11.91 1.03 2.9 1.94 6.83 3.39 8.11 6.89-0.76 0.95-2.56 2.21-3.99 3.15 3.81 3.68 7.95 8.9 7.99 14.94-1.46 0.08-3 0.1-4.64 0 1.01 4.3 4.86 9.14 3.8 16.28-3.07-0.46-4.32-1.11-5.73-1.74 0.9 6.96 1.62 14.95-0.71 19.18-4.23-1.17-7.01-4.41-10.1-7.21 0.21 2.65 0.06 5.25-1.09 7.72-4.08 0.54-7.69-0.83-11.27-2.31-0.84 1.4-1.47 2.79-2.96 4.19-6.48-2.22-10.8-5.89-13.13-10.37-0.1 1.41-0.76 2.54-1.54 3.6-5.24-1.96-7.82-6.17-10.94-9.92-0.55 1.29-1.26 2.35-2.31 2.96-4.63-3.52-6.77-8.29-7.99-13.52-0.52 1.07-1.54 2.1-2.58 3.03-2.48-5.02-3.3-11.98-3.6-17.84-1.17 0.74-2.53 0.92-3.87 1.16-0.03-6.45 1.84-12.69 4.89-18.8-1.28 1.47-2.75 2.48-4.37 3.09-0.85-4.84-0.18-10.18 1.03-15.71-29.01 21.98-46.56 49.87-44.66 90.31 8.42-10.87 18.08-13.01 29.98-10.48-12.1 5.8-22.72 20.63-26.89 37.08-4.21 16.59-1.92 34.83-2.84 46.55-0.85 10.86-7.61 28.69-13.84 43.71-1.67 4.01-3.76-4.59-9.65-10.41-4.55-4.5-7.18-7.4-5.93-10.7 26.77-70.51 22.5-114.21-36.14-121.42 4.44-11.09 15.67-11.99 30.77-7.08-14.98-30.65-37.42-45.46-47.25-52.28 2.11 4.47 6.04 8.84 4.64 15.32-1.42 0.14-2.76 0.39-4.76-0.64 2 4.63 3.71 9.31 2.96 14.42-1.18 0.34-2.15 0.27-3.09 0.13 0.7 4.07 0.36 9.29-0.39 14.94-2.66 0.6-4.48-0.06-6.18-0.9 0.46 3.91-0.48 8.72-1.81 12.49-2.03 0.03-3.94-0.95-5.79-2.96-3.66 4.39-6.33 9.67-11.33 12.88-1.39-1.35-1.94-3.13-2.06-5.15-3.54 2.98-7.43 5.16-11.71 6.44-1.75-1.89-2.27-3.78-2.84-5.67-1.36 1.71-3.2 4.78-5.84 6.65-2.45-0.96-6.43-3.93-8.71-6.13-2.18 1.68-4.39 2.86-6.7 3.09-2.07-3.5-2.64-7.5-1.67-11.98-1.48 0.28-3.61 0.66-5.54 0.21-2.18-2.94 0.56-16.28 2.11-18.56-1.9-0.91-4.34-2-6.1-3.92 0.31-5.19 5.43-9.64 9.14-12.49-2.01-0.37-3.59-1.51-4.89-2.45 2.89-4.03 7.05-7.52 12.75-8.63-5.22-0.42-10.17-0.37-15.03-2.92 0.15-1.85 0.92-3.28 1.89-4.81-4.49 0.68-9.09 1.78-13 0.5 0.02-1.74 0.52-3.68 2.05-5.01-4.54-1.04-8.92-2.26-11.2-5.93 1-1.44 2.38-2.39 3.87-3.22-3.42-1.77-6.04-4.97-8.11-8.37 2.97-3.07 6.37-4.7 9.94-5.7-0.88-1.3-1.06-3.35-0.93-4.98 3.55-1.17 7.37-0.71 11.16-0.36-2.02-0.86-3.65-2.38-4.52-3.87 3.67-2.2 9.42-2.73 13.58-2.99-6.29-1.33-12.22-3.28-17.12-7.08 0.66-1.27 1.61-2.46 3.12-3.49-6.06-2.88-12.18-6.48-14.8-12.22 1.53-0.11 3.28-0.42 4.7 0.2-3-4.32-6.13-11.62-6.59-16.54 2.57-0.56 4.22-0.73 5.59-0.15-2.14-2.8-4.99-7.03-4.64-13.26 1.72-0.51 3.44-0.31 5.15 0.39-1.85-4.71-1.73-9.54-1.56-14.36 5-0.86 9.99-0.67 17.15 0.74-0.54-1.78-0.57-3.67-0.01-5.69 4.69 0.41 9.45 2.1 14.25 4.33-0.34-0.88-0.48-1.83 0.14-3.07 4.13 1.57 7.5 4 9.68 7.76 1.45-2.33 2.78-3.62 4.12-5.02 5.03 2.92 8.33 8.36 10.74 12.84 0.43-1.19 0.83-2.32 1.81-3.09 2.08 0.41 5.36 7.98 8.06 16.27-1.09-5.22-1.25-12.62 1.16-17.12 1.63 0.93 2.32 1.53 3.35 2.31 0.26-5.01 2.9-11.73 5.79-16.87 1.82 0.99 3.02 2.69 3.66 3.09 1.08-3.44 5.76-9.17 8.64-10.94 2.46 1.88 7.73 9.47 7.97 12.57 1.63-1.31 2.9-1.87 4.2-2.52 1.92 3.72 1.55 13.06 1.37 16.96 1.47-0.17 3.61 0.2 4.94 0.94 0.47 2.2-1.55 12.67-3.77 16.09 0.07-0.68 8.61-9.96 13.03-10.75 1.02 0.75 2.33 2.4 2.7 3.67 2.29-4.63 8.43-7.47 11.98-8.24 1.31 1.2 2.62 2.92 3.09 4.44 2.81-1.91 6.39-2.28 10.06-2.51 0.25 4.24-0.97 10.95-3.5 14.37 1.49-0.06 5.19-0.5 6.98 1.21 0.67 0.83-6.28 12.54-6.82 11.07-0.43-1.14 7.56 1.2 7.47 1.54-2.13 5.7-4.2 11.46-8.49 15.32 1.76-0.19 3.51 0.1 5.28 0.77-1.62 7.71-5.89 11.66-7.32 13.15 1.59 0.72 2.8 2.58 3.59 4.11-2.77 4.13-7.25 6.1-12.11 6.95 1.5 0.76 2.86 1.86 3.99 3.48-5.04 3.02-10.37 5.26-16.61 5.02 1.84 0.7 3.83 2.59 4.89 4.25-6.56 3.62-12.86 2.51-19.18 1.93 13.27 7.74 38.32 32.33 41.97 45.71-5.88-48.38 22.04-101.08 5.54-150.52-12.62 9.9-19.22-4.09-35.28 8.76-0.83-5.12 4.2-12.46 13.25-17.12-26.36 0.44-19.04-14.19-42.74-13.52l0 0z" style="fill:#ffe000;stroke-linejoin:round;stroke-miterlimit:4;stroke:#000"/>
</svg>
