<?xml version="1.0" encoding="UTF-8" standalone="no"?>
<svg
   xmlns:dc="http://purl.org/dc/elements/1.1/"
   xmlns:cc="http://creativecommons.org/ns#"
   xmlns:rdf="http://www.w3.org/1999/02/22-rdf-syntax-ns#"
   xmlns:svg="http://www.w3.org/2000/svg"
   xmlns="http://www.w3.org/2000/svg"
   id="svg2"
   version="1.1"
   x="0"
   y="0"
   width="400"
   height="500"
   viewBox="30.5 31.5 400 500"
   enable-background="new 30.5 31.5 412 533"
   xml:space="preserve"><metadata
     id="metadata4"><rdf:RDF><cc:Work
         rdf:about=""><dc:format>
          
          
          
          
          image/svg+xml
        
        
        
        
        </dc:format><dc:type
           rdf:resource="http://purl.org/dc/dcmitype/StillImage" /><dc:title></dc:title></cc:Work></rdf:RDF></metadata><defs
     id="defs6" /><path
     id="path8"
     d="M 230.44,531.14 C 156.12,477.22 105.18,409.12 74.7,322.98 47.06,244.88 35.97,150.23 40.79,33.63 l 0.02,-0.46 379.82,0 0.02,0.46 c 4.81,116.6 -6.28,211.24 -33.91,289.35 C 356.26,409.12 305.32,477.22 231,531.14 l -0.28,0.2 -0.28,-0.2 z"
     style="fill:#ffe000;fill-opacity:1" /><path
     id="path10"
     d="M 419.96,33.21 C 429.03,252.66 383.7,419.16 230.5,530.31 77.31,419.16 31.99,252.66 41.06,33.21 l 189.45,0 189.45,0 m 0.92,-0.95 -0.92,0 -189.45,0 -189.45,0 -0.92,0 -0.04,0.92 c -4.82,116.66 6.28,211.36 33.93,289.52 30.51,86.24 81.51,154.41 155.91,208.39 l 0.56,0.41 0.56,-0.41 C 305.46,477.11 356.46,408.94 386.97,322.7 414.62,244.54 425.72,149.84 420.9,33.18 l -0.04,-0.92 0,0 z" /><path
     style="fill:#e00e00;fill-opacity:1;stroke:#000000;stroke-opacity:1"
     id="path2853"
     d="m 190.81281,179.53492 -8.96969,11.07381 c -25.0651,-24.58408 -41.98905,-10.50113 -66.7307,-9.19816 -17.37941,0.91526 -25.81795,-19.88461 -22.8992,-22.88559 2.03385,-2.09115 8.32367,12.23738 23.89296,10.96221 17.78424,-1.45657 51.87227,-22.02841 74.70663,10.04773 z" /><path
     style="fill:#000000;stroke:none"
     id="path2827"
     d="m 113.35469,120.71014 c -11.26009,0.25021 -12.34538,-3.93723 -12.74271,-20.01131 47.29658,5.38392 46.43966,-6.137295 86.63977,-8.52953 7.16607,-11.617569 13.49856,-15.983656 44.5904,-16.485223 19.01073,-0.306677 41.82582,1.141276 50.58328,4.221599 -3.48726,8.378781 0.58956,7.430221 1.27779,5.615334 6.04055,-15.929022 26.87026,-25.961969 45.08925,-14.790612 12.69001,7.781139 16.72617,27.010625 2.64138,42.237852 -1.89794,2.05189 -0.63782,4.04441 3.28969,-0.2724 9.10408,5.39591 16.2481,47.65924 15.33719,66.41191 -3.97659,81.86555 -2.81989,170.42126 -0.75677,177.395 -5.68085,1.03859 -33.61389,-6.27062 -49.36819,-18.58731 -8.55952,14.90666 -34.43453,41.165 -50.7522,51.16141 -2.57682,-14.51098 -7.00123,-31.77155 -15.10212,-42.41904 -11.81893,7.9655 -49.15637,31.13179 -68.32043,31.76997 1.72104,-9.78832 15.65089,-29.65494 17.46874,-51.16514 -27.1532,1.12456 -53.8295,13.17498 -82.04926,4.81302 16.67843,-12.95945 31.81984,-27.26457 36.21618,-35.1374 -5.60978,-3.2529 -33.21327,-22.75907 -43.24282,-36.63523 12.28235,-3.50381 33.38353,-5.14395 45.13222,-6.20177 10.54114,-10.41631 26.55615,-28.41918 38.68101,-45.51555 -17.47923,0.46397 -40.58184,0.38936 -37.93837,-14.06495 0.95814,-5.23905 0.6151,-8.49654 7.43716,-15.94394 0.63339,8.09976 1.58293,10.94624 18.62407,9.34472 12.80208,-1.20314 27.45646,-7.62839 28.2066,-21.66772 1.04243,-19.50996 -24.71564,-21.4289 -49.04104,-19.86066 -0.81686,6.09983 -0.45144,10.51399 -2.50378,14.01982 -5.76,-10.23524 -7.63583,-14.5427 -13.45629,-16.22964 -6.08175,-1.76267 -20.87555,-8.65651 -22.87313,-20.75619 1.20517,0.36854 5.54692,-1.14662 6.93238,-2.71702 z" /><path
     style="opacity:0.98999999;fill:#ffe000;fill-opacity:1;fill-rule:evenodd;stroke:none"
     id="path2851"
     d="m 218.14785,95.455598 c -4.66801,5.120562 -7.49479,5.378722 -7.07943,11.928392 0.47103,7.42758 -6.29995,10.01206 -10.72023,9.67132 3.37123,-3.86292 4.58004,-7.99303 3.32823,-10.85741 -2.51235,-5.74871 -10.18535,-3.91581 -10.61365,-4.58711 -0.60457,-0.94757 -2.38039,-5.614895 0.19637,-7.523292 4.57878,2.393759 7.70615,2.476254 10.11324,2.668706 4.71395,0.376891 4.29331,-2.793864 14.77547,-1.300606 z" /></svg>