<?xml version="1.0" encoding="UTF-8" standalone="no"?>
<svg
   xmlns:dc="http://purl.org/dc/elements/1.1/"
   xmlns:cc="http://creativecommons.org/ns#"
   xmlns:rdf="http://www.w3.org/1999/02/22-rdf-syntax-ns#"
   xmlns:svg="http://www.w3.org/2000/svg"
   xmlns="http://www.w3.org/2000/svg"
   id="svg2"
   version="1.1"
   x="0"
   y="0"
   width="420"
   height="500"
   viewBox="30.5 31.5 420 500"
   enable-background="new 30.5 31.5 412 533"
   xml:space="preserve"><metadata
     id="metadata4"><rdf:RDF><cc:Work
         rdf:about=""><dc:format>
          
          
          
          
          image/svg+xml
        
        
        
        
        </dc:format><dc:type
           rdf:resource="http://purl.org/dc/dcmitype/StillImage" /><dc:title></dc:title></cc:Work></rdf:RDF></metadata><defs
     id="defs6" /><path
     id="path4218"
     d="m 440,32.7 c 2.09,102.46 -3.38,187.49 -43.93,296.59 C 368.02,404.77 321.86,474.06 240.5,530.88 159.14,474.06 112.98,404.77 84.93,329.29 44.38,220.19 38.91,135.16 41,32.7 c 133,0.29 266,0 399,0 z"
     style="fill:#0085ca;fill-opacity:1;fill-rule:evenodd" /><path
     style="fill:#ffffff;fill-rule:evenodd;stroke:none;stroke-width:1;stroke-linecap:butt;stroke-linejoin:miter;stroke-miterlimit:4;stroke-dasharray:none;stroke-opacity:1"
     d="m 42.47738,131.06806 c 2.25187,30.75361 4.5293,50.93585 8.58377,74.93431 C 113.78015,178.56235 180.62573,166.5 240.5,166.5 c 59.87427,0 126.71985,12.06235 189.43886,39.50237 4.05446,-23.99846 6.3319,-44.1807 8.58376,-74.93431 C 370.85917,104.87266 302.47134,93.999998 240.5,93.999999 178.52866,94 110.14083,104.87266 42.47738,131.06806 Z"
     id="path4242" /><path
     id="path4244"
     d="m 392.69023,338.05541 c 8.31545,-21.54672 15.89492,-43.61982 23.23298,-69.58988 C 362.05409,240.17792 298.64718,226.5 240.5,226.5 c -58.14718,0 -121.55409,13.67792 -175.42321,41.96553 7.33806,25.97006 14.91753,48.04316 23.23298,69.58988 C 101.59075,331.19968 157.78821,299 240.5,299 c 82.71179,0 138.90925,32.19968 152.19023,39.05541 z"
     style="fill:#ffffff;fill-rule:evenodd;stroke:none;stroke-width:1;stroke-linecap:butt;stroke-linejoin:miter;stroke-miterlimit:4;stroke-dasharray:none;stroke-opacity:1" /><path
     id="path4246"
     d="M 324.57305,454.37231 C 342.20009,433.19124 355.12824,413.54043 365.49592,395.25 340.39386,379.22082 296.32156,359.27269 240.36365,359.13634 184.40575,359 140.33345,378.94813 115.23139,394.97731 c 10.36768,18.29043 23.29583,37.94124 40.92287,59.12231 21.21185,-12.70167 48.31704,-22.87231 84.20939,-22.73597 35.89443,0.13636 62.99755,10.30699 84.2094,23.00866 z"
     style="fill:#ffffff;fill-rule:evenodd;stroke:none;stroke-width:1;stroke-linecap:butt;stroke-linejoin:miter;stroke-miterlimit:4;stroke-dasharray:none;stroke-opacity:1" /><path
     d="m 440,32.7 c 2.09,102.46 -3.38,187.49 -43.93,296.59 C 368.02,404.77 321.86,474.06 240.5,530.88 159.14,474.06 112.98,404.77 84.93,329.29 44.38,220.19 38.91,135.16 41,32.7 c 133,0.29 266,0 399,0 z"
     id="path4224"
     style="fill:none;stroke:#000000" /><path
     style="fill:none;fill-rule:evenodd;stroke:#000000;stroke-width:1;stroke-linecap:butt;stroke-linejoin:miter;stroke-miterlimit:4;stroke-dasharray:none;stroke-opacity:1"
     d="m 156.15426,454.09962 c 21.21185,-12.70167 48.31704,-22.87231 84.20939,-22.73597 35.89443,0.13636 62.99755,10.30699 84.2094,23.00866 M 365.49592,395.25 C 340.39386,379.22082 296.32156,359.27269 240.36365,359.13634 184.40575,359 140.33345,378.94813 115.23139,394.97731"
     id="path4230" /><path
     style="fill:none;fill-rule:evenodd;stroke:#000000;stroke-width:1;stroke-linecap:butt;stroke-linejoin:miter;stroke-miterlimit:4;stroke-dasharray:none;stroke-opacity:1"
     d="M 88.30977,338.05541 C 101.59075,331.19968 157.78821,299 240.5,299 c 82.71179,0 138.90925,32.19968 152.19023,39.05541 m 23.23298,-69.58988 C 362.05409,240.17792 298.64718,226.5 240.5,226.5 c -58.14718,0 -121.55409,13.67792 -175.42321,41.96553"
     id="path4234" /><path
     id="path4236"
     d="M 51.06115,206.00237 C 113.78015,178.56235 180.62573,166.5 240.5,166.5 c 59.87427,0 126.71985,12.06235 189.43886,39.50237 m 8.58376,-74.93431 C 370.85917,104.87266 302.47134,93.999998 240.5,93.999999 178.52866,94 110.14083,104.87266 42.47738,131.06806"
     style="fill:none;fill-rule:evenodd;stroke:#000000;stroke-width:1;stroke-linecap:butt;stroke-linejoin:miter;stroke-miterlimit:4;stroke-dasharray:none;stroke-opacity:1" /></svg>