<svg xmlns:dc="http://purl.org/dc/elements/1.1/" xmlns:cc="http://creativecommons.org/ns#" xmlns:rdf="http://www.w3.org/1999/02/22-rdf-syntax-ns#" xmlns:svg="http://www.w3.org/2000/svg" xmlns="http://www.w3.org/2000/svg" id="svg2" version="1.1" x="0" y="0" width="400" height="500" viewBox="30.5 31.5 400 500" enable-background="new 30.5 31.5 412 533" xml:space="preserve">
  <metadata id="metadata4">
    <rdf:RDF>
      <cc:Work rdf:about="">
        <dc:format>
          
          
          
          
          
          
          
          
          
          image/svg+xml
        
        
        
        
        
        
        
        
        
        </dc:format>
        <dc:type rdf:resource="http://purl.org/dc/dcmitype/StillImage"/>
      </cc:Work>
    </rdf:RDF>
  </metadata>
  <defs id="defs6"/>
  <path d="M230.45 531.13C156.13 477.21 105.19 409.11 74.71 322.97 47.07 244.87 35.98 150.22 40.8 33.62l0.02-0.46 379.82 0 0.02 0.46c4.81 116.6-6.28 211.24-33.91 289.35-30.48 86.14-81.42 154.24-155.74 208.16l-0.28 0.2z" id="path4148" fill="#0085ca"/>
  <path id="path10" d="M419.96 33.21C429.03 252.66 383.71 419.16 230.51 530.31 146.04 469.02 94.36 390.9 66.52 296.34 64.43 289.25 62.48 282.07 60.65 274.8 49.2 229.11 42.88 179.78 40.77 126.86 39.57 96.8 39.72 65.58 41.06 33.21l189.45 0 189.45 0m0.92-0.95-0.92 0-189.45 0-189.45 0-0.92 0-0.04 0.92c-4.82 116.66 6.28 211.36 33.93 289.52 30.51 86.24 81.51 154.41 155.91 208.39l0.56 0.41 0.56-0.41C305.46 477.11 356.46 408.94 386.97 322.7 414.62 244.54 425.72 149.84 420.9 33.18l-0.04-0.92 0 0z"/>
  <circle transform="scale(-1,1)" r="151.35" cy="226.5" cx="-230.5" id="path4235" style="fill:#fff;stroke-linecap:round;stroke-linejoin:round;stroke-miterlimit:4;stroke:#000"/>
  <path d="m311.18 194.48c16.68-10.69 31.14-25.83 40.15-41.1-7.02-12.68-26.57-35.81-47.71-47.71-15.27 9.01-30.41 23.47-41.1 40.15C246.84 170.3 237.91 199.1 237 220c20.9-0.91 49.7-9.84 74.18-25.52z" id="path4255" style="fill-rule:evenodd;fill:#0085ca"/>
  <path id="path4259" d="m311.18 258.52c16.68 10.69 31.14 25.83 40.15 41.1-7.02 12.68-26.57 35.81-47.71 47.71-15.27-9.01-30.41-23.47-41.1-40.15C246.84 282.7 237.91 253.9 237 233c20.9 0.91 49.7 9.84 74.18 25.52z" style="fill-rule:evenodd;fill:#0085ca"/>
  <path id="path4257" d="m149.82 194.48c-16.68-10.69-31.14-25.83-40.15-41.1 7.02-12.68 26.57-35.81 47.71-47.71 15.27 9.01 30.41 23.47 41.1 40.15C214.16 170.3 223.09 199.1 224 220c-20.9-0.91-49.7-9.84-74.18-25.52z" style="fill-rule:evenodd;fill:#0085ca"/>
  <path d="m157.38 347.34c15.27-9.01 30.41-23.47 41.1-40.15C214.16 282.7 223.09 253.9 224 233c-20.9 0.91-49.7 9.84-74.18 25.52-16.68 10.69-31.14 25.83-40.15 41.1 7.02 12.68 26.57 35.81 47.71 47.71" id="path4261" style="fill-rule:evenodd;fill:#0085ca"/>
  <circle transform="scale(-1,1)" id="circle4249" cx="-230.5" cy="226.5" r="141.39" style="fill:none;stroke-linecap:round;stroke-linejoin:round;stroke-miterlimit:4;stroke:#000"/>
  <path id="path4263" d="m303.62 105.66c-15.27 9.01-30.41 23.47-41.1 40.15C246.84 170.3 237.91 199.1 237 220c20.9-0.91 49.7-9.84 74.18-25.52 16.68-10.69 31.14-25.83 40.15-41.1" style="fill:none;stroke:#000"/>
  <path d="M303.62 347.34C288.35 338.32 273.21 323.86 262.52 307.18 246.84 282.7 237.91 253.9 237 233c20.9 0.91 49.7 9.84 74.18 25.52 16.68 10.69 31.14 25.83 40.15 41.1" id="path4265" style="fill:none;stroke:#000"/>
  <path id="path4267" d="m157.38 347.34c15.27-9.01 30.41-23.47 41.1-40.15C214.16 282.7 223.09 253.9 224 233c-20.9 0.91-49.7 9.84-74.18 25.52-16.68 10.69-31.14 25.83-40.15 41.1" style="fill:none;stroke:#000"/>
  <path d="m157.38 105.66c15.27 9.01 30.41 23.47 41.1 40.15C214.16 170.3 223.09 199.1 224 220c-20.9-0.91-49.7-9.84-74.18-25.52-16.68-10.69-31.14-25.83-40.15-41.1" id="path4269" style="fill:none;stroke:#000"/>
</svg>
