<?xml version="1.0" encoding="UTF-8" standalone="no"?>
<svg
   xmlns:dc="http://purl.org/dc/elements/1.1/"
   xmlns:cc="http://creativecommons.org/ns#"
   xmlns:rdf="http://www.w3.org/1999/02/22-rdf-syntax-ns#"
   xmlns:svg="http://www.w3.org/2000/svg"
   xmlns="http://www.w3.org/2000/svg"
   xmlns:sodipodi="http://sodipodi.sourceforge.net/DTD/sodipodi-0.dtd"
   xmlns:inkscape="http://www.inkscape.org/namespaces/inkscape"
   xml:space="preserve"
   enable-background="new 30.5 31.5 412 533"
   viewBox="30.5 31.5 400 500"
   height="500"
   width="400"
   y="0"
   x="0"
   version="1.1"
   id="svg2"
   inkscape:version="0.91 r13725"
   sodipodi:docname="Lenvik.svg"><sodipodi:namedview
     pagecolor="#ffffff"
     bordercolor="#666666"
     borderopacity="1"
     objecttolerance="10"
     gridtolerance="10"
     guidetolerance="10"
     inkscape:pageopacity="0"
     inkscape:pageshadow="2"
     inkscape:window-width="1556"
     inkscape:window-height="760"
     id="namedview11"
     showgrid="false"
     showguides="false"
     inkscape:guide-bbox="true"
     inkscape:object-nodes="true"
     inkscape:snap-global="false"
     inkscape:zoom="1.1837994"
     inkscape:cx="200"
     inkscape:cy="249.62"
     inkscape:window-x="0"
     inkscape:window-y="62"
     inkscape:window-maximized="0"
     inkscape:current-layer="svg2"><sodipodi:guide
       position="200,0"
       orientation="1,0"
       id="guide3350"
       inkscape:label=""
       inkscape:color="rgb(0,0,255)" /><sodipodi:guide
       position="0,0"
       orientation="0,1"
       id="guide3352"
       inkscape:label=""
       inkscape:color="rgb(0,0,255)" /></sodipodi:namedview><metadata
     id="metadata4"><rdf:RDF><cc:Work
         rdf:about=""><dc:format>
          
          
          
          
          
          
          
          
          image/svg+xml
        
        
        
        
        
        
        
        
        </dc:format><dc:type
           rdf:resource="http://purl.org/dc/dcmitype/StillImage" /><dc:title></dc:title></cc:Work></rdf:RDF></metadata><defs
     id="defs6" /><path
     id="path4148"
     d="M 230.45,531.13 C 156.13,477.21 105.19,409.11 74.71,322.97 47.07,244.87 35.98,150.22 40.8,33.62 l 0.02,-0.46 379.82,0 0.02,0.46 c 4.81,116.6 -6.28,211.24 -33.91,289.35 -30.48,86.14 -81.42,154.24 -155.74,208.16 l -0.28,0.2 z"
     inkscape:connector-curvature="0"
     style="fill:#0085ca" /><path
     d="M 419.96,33.21 C 429.03,252.66 383.71,419.16 230.51,530.31 146.04,469.02 94.36,390.9 66.52,296.34 64.43,289.25 62.48,282.07 60.65,274.8 49.2,229.11 42.88,179.78 40.77,126.86 39.57,96.8 39.72,65.58 41.06,33.21 l 189.45,0 189.45,0 m 0.92,-0.95 -0.92,0 -189.45,0 -189.45,0 -0.92,0 -0.04,0.92 c -4.82,116.66 6.28,211.36 33.93,289.52 30.51,86.24 81.51,154.41 155.91,208.39 l 0.56,0.41 0.56,-0.41 C 305.46,477.11 356.46,408.94 386.97,322.7 414.62,244.54 425.72,149.84 420.9,33.18 l -0.04,-0.92 0,0 z"
     id="path10"
     inkscape:connector-curvature="0" /><path
     inkscape:connector-curvature="0"
     d="M 69.460349,104.36008 C 64.829333,99.07795 53.136517,87.814977 52.944806,76.282622 c -0.06805,-4.091475 2.320148,-9.543363 6.477032,-13.408814 4.912875,-4.568451 14.155074,-7.095037 20.698453,-4.525265 7.77125,3.051996 16.207608,9.247442 24.013709,16.019285 10.93857,9.489256 23.59742,24.180602 29.65094,31.497642 21.3816,25.84437 15.58905,33.51751 22.02092,39.59896 0,0 51.81337,49.77502 78.89994,75.30557 28.4738,26.83814 85.78347,76.84132 85.78347,76.84132 4.79723,4.01634 8.81869,9.404 10.02717,15.83039 0.3416,1.81652 -0.6279,5.33147 0.87633,6.68759 l 20.88088,18.82502 c 5.87966,5.30076 -1.00586,15.0546 -7.88922,9.49887 l -22.9562,-18.52856 c -1.73245,-1.3983 -5.22736,-0.50863 -7.28151,-0.47932 -8.11547,0.11585 -11.71655,-2.47503 -18.24445,-9.28125 L 139.31785,156.9035 c -5.60242,-5.84125 -14.79902,-1.91539 -32.27564,-16.5712 C 95.008067,130.24054 84.104299,121.06298 69.460349,104.36008 Z"
     id="path2829-9"
     style="fill:#ffe000;fill-opacity:1;stroke:#000000;stroke-width:1.02023172;stroke-miterlimit:4;stroke-dasharray:none;stroke-opacity:1"
     sodipodi:nodetypes="sssssssssssssssssss" /><path
     sodipodi:nodetypes="sssssscssssssssssss"
     style="fill:#ffe000;fill-opacity:1;stroke:#000000;stroke-width:1.02746546;stroke-miterlimit:4;stroke-dasharray:none;stroke-opacity:1"
     id="path4173"
     d="m 176.50581,95.707311 c -3.49987,-3.992048 -14.68942,-16.567623 -14.83421,-25.283404 -0.0515,-3.092179 1.75343,-7.212585 4.89508,-10.133993 3.71296,-3.452579 13.26425,-7.714633 18.20946,-5.772504 5.87348,2.306547 15.45701,8.69987 22.42609,15.100972 8.06003,7.403099 18.02683,17.622231 22.83675,22.949381 17.44265,19.318327 9.64307,25.331187 14.50371,29.927467 37.19084,32.16531 72.29592,66.11733 109.70562,98.09186 4.057,3.46757 8.63605,9.22281 9.93893,14.04999 0.53143,1.96888 0.13849,5.8552 1.08186,6.81791 l 18.13333,18.50441 c 4.34935,4.43838 -0.38179,12.02614 -5.96224,7.17888 l -19.56874,-16.99779 c -1.49363,-1.29739 -4.30809,0.204 -6.92145,-0.20425 -4.55995,-0.71231 -6.72479,-2.52194 -10.3649,-6.10245 L 230.79895,135.84528 c -6.37516,-6.27078 -10.23916,2.49983 -23.84569,-10.10791 -0.10512,-0.0975 -0.22174,-0.18348 -0.33345,-0.27717 -9.09499,-7.62706 -19.04679,-17.12944 -30.114,-29.752889 z"
     inkscape:connector-curvature="0" /><path
     inkscape:connector-curvature="0"
     d="m 79.12625,221.90654 c -3.491776,-3.98284 -15.862505,-17.13287 -16.006962,-25.82855 -0.05126,-3.08504 1.14589,-8.40295 4.280298,-11.3176 3.704371,-3.44462 12.63014,-7.69681 19.977911,-6.36269 6.194312,1.12472 16.024833,10.79203 22.977833,17.17835 8.04143,7.38602 26.13247,26.33231 30.93129,31.64717 17.40239,19.27374 10.52607,23.76396 17.48772,31.0654 37.10498,32.09103 80.8445,73.17741 117.75053,105.56005 3.96377,3.47797 9.38164,8.61936 10.37013,14.42226 0.42645,2.50352 -0.15206,5.2686 1.12961,6.72512 l 17.28532,19.6428 c 4.86566,5.5293 -0.49575,15.44734 -7.15547,9.12369 l -19.69278,-18.69898 c -1.44465,-1.37176 -4.65591,0.12827 -6.04822,0.2076 -3.79808,0.21639 -6.5802,-0.87381 -11.02905,-5.36284 L 142.64833,270.09909 c -6.28014,-6.33689 -15.0435,-2.03217 -25.9029,-11.59332 -0.10732,-0.0946 -0.22123,-0.18306 -0.33267,-0.27654 -9.07399,-7.60945 -26.244836,-23.7284 -37.28651,-36.32269 z"
     id="path4177"
     style="fill:#ffe000;fill-opacity:1;stroke:#000000;stroke-width:1.02509367;stroke-miterlimit:4;stroke-dasharray:none;stroke-opacity:1"
     sodipodi:nodetypes="sssssscssssssssssss" /></svg>