<?xml version="1.0" encoding="UTF-8" standalone="no"?>
<svg
   xmlns:dc="http://purl.org/dc/elements/1.1/"
   xmlns:cc="http://creativecommons.org/ns#"
   xmlns:rdf="http://www.w3.org/1999/02/22-rdf-syntax-ns#"
   xmlns:svg="http://www.w3.org/2000/svg"
   xmlns="http://www.w3.org/2000/svg"
   id="svg2"
   version="1.1"
   x="0"
   y="0"
   width="400"
   height="500"
   viewBox="30.5 31.5 400 500"
   enable-background="new 30.5 31.5 412 533"
   xml:space="preserve"><metadata
     id="metadata4"><rdf:RDF><cc:Work
         rdf:about=""><dc:format>
          
          
          
          image/svg+xml
        
        
        
        </dc:format><dc:type
           rdf:resource="http://purl.org/dc/dcmitype/StillImage" /><dc:title></dc:title></cc:Work></rdf:RDF></metadata><defs
     id="defs6" /><path
     id="path8"
     d="M 230.44,531.14 C 156.12,477.22 105.18,409.12 74.7,322.98 47.06,244.88 35.97,150.23 40.79,33.63 l 0.02,-0.46 379.82,0 0.02,0.46 c 4.81,116.6 -6.28,211.24 -33.91,289.35 C 356.26,409.12 305.32,477.22 231,531.14 l -0.28,0.2 -0.28,-0.2 z"
     style="fill:#0085ca;fill-opacity:1" /><path
     id="path10"
     d="M 419.96,33.21 C 429.03,252.66 383.7,419.16 230.5,530.31 77.31,419.16 31.99,252.66 41.06,33.21 l 189.45,0 189.45,0 m 0.92,-0.95 -0.92,0 -189.45,0 -189.45,0 -0.92,0 -0.04,0.92 c -4.82,116.66 6.28,211.36 33.93,289.52 30.51,86.24 81.51,154.41 155.91,208.39 l 0.56,0.41 0.56,-0.41 C 305.46,477.11 356.46,408.94 386.97,322.7 414.62,244.54 425.72,149.84 420.9,33.18 l -0.04,-0.92 0,0 z" /><path
     style="fill:#ffffff;fill-opacity:1;stroke:#000000;stroke-opacity:1;stroke-linejoin:round;stroke-linecap:round"
     id="path3778"
     d="m 99.5552,324.93387 c 16.98224,-34.20046 36.62197,-48.3251 52.18119,-54.4859 l 7.58291,10.6746 -12.5526,8.47943 c 7.88409,15.26094 21.40862,23.5417 34.0577,23.11719 l 72.21149,105.45704 c 13.20441,-5.88932 25.98484,-13.87855 36.03806,-23.86443 l -70.9473,-103.83867 c 4.96638,-12.84421 2.77329,-30.76111 -9.70354,-41.96824 l -13.06574,8.75325 c -0.27939,-0.0473 -23.72204,-29.34163 -30.67911,-42.00522 -7.3608,-13.39846 -4.37305,-24.62306 -9.92801,-35.69358 -21.85901,19.82325 -28.45278,38.2941 -26.23833,57.91343 -11.58276,5.36377 -42.77868,48.23685 -28.95672,87.4611 z" /><path
     style="fill:#0085ca;fill-opacity:1;stroke:#000000;stroke-opacity:1;stroke-linejoin:round;stroke-linecap:round"
     id="path3780"
     d="m 199.89375,263.80166 7.83615,-6.03783 c 4.66247,6.32085 6.4303,15.00769 3.57011,22.6523 z" /><path
     style="opacity:0.98999999;fill:#0085ca;fill-opacity:1;fill-rule:evenodd;stroke:#000000;stroke-opacity:1"
     id="path3782"
     d="m 217.45039,318.19701 a 5.85044,6.0868212 0 0 1 -11.70088,0 5.85044,6.0868212 0 1 1 11.70088,0 z" /><path
     style="opacity:0.98999999;fill:#0085ca;fill-opacity:1;fill-rule:evenodd;stroke:#000000;stroke-opacity:1"
     id="path3784"
     d="m 259.33687,379.03943 a 5.8504384,6.0868195 0 1 1 -11.70087,0 5.8504384,6.0868195 0 1 1 11.70087,0 z" /><path
     style="fill:#0085ca;fill-opacity:1;stroke:#000000;stroke-opacity:1;stroke-linejoin:round;stroke-linecap:round"
     id="path3786"
     d="m 163.65809,287.4623 -7.68857,5.0475 c 4.34434,6.54358 11.23596,12.25248 19.39779,12.18021 z" /><path
     style="fill:#ffffff;fill-opacity:1;stroke:#000000;stroke-opacity:1;stroke-linejoin:round;stroke-linecap:round"
     id="path3753"
     d="m 182.55521,199.38386 c 16.98224,-34.20046 36.62197,-48.3251 52.18119,-54.4859 l 7.58291,10.67459 -12.55261,8.47944 c 7.8841,15.26094 21.10005,23.15597 33.74912,22.73146 l 72.52008,105.84276 c 13.2044,-5.88933 25.98484,-13.87854 36.03806,-23.86443 L 301.04952,165.00027 c 4.96638,-12.84421 2.85043,-30.83826 -9.6264,-42.0454 l -13.06575,8.75325 c -0.27939,-0.0473 -23.72203,-29.34163 -30.6791,-42.005209 -7.3608,-13.398464 -4.37305,-24.623058 -9.92801,-35.693584 -21.85901,19.82325 -28.45278,38.294095 -26.23834,57.913433 -11.58275,5.36376 -42.77867,48.23684 -28.95671,87.4611 z" /><path
     style="fill:#0085ca;fill-opacity:1;stroke:#000000;stroke-opacity:1;stroke-linejoin:round;stroke-linecap:round"
     id="path3755"
     d="m 282.97089,138.25165 7.75902,-6.03782 c 4.66246,6.32084 6.73888,15.47054 3.87868,23.11516 z" /><path
     style="opacity:0.98999999;fill:#0085ca;fill-opacity:1;fill-rule:evenodd;stroke:#000000;stroke-opacity:1"
     id="path3757"
     d="m 300.4504,192.647 a 5.85044,6.0868212 0 0 1 -11.70088,0 5.85044,6.0868212 0 1 1 11.70088,0 z" /><path
     style="opacity:0.98999999;fill:#0085ca;fill-opacity:1;fill-rule:evenodd;stroke:#000000;stroke-opacity:1"
     id="path3766"
     d="m 342.33688,253.48941 a 5.85044,6.0868212 0 0 1 -11.70088,0 5.85044,6.0868212 0 1 1 11.70088,0 z" /><path
     style="fill:#0085ca;fill-opacity:1;stroke:#000000;stroke-opacity:1;stroke-linejoin:round;stroke-linecap:round"
     id="path3774"
     d="m 246.6581,161.91228 -7.68857,5.04751 c 4.34433,6.54357 11.08167,12.02105 19.2435,11.94878 z" /></svg>