<svg xmlns:dc="http://purl.org/dc/elements/1.1/" xmlns:cc="http://creativecommons.org/ns#" xmlns:rdf="http://www.w3.org/1999/02/22-rdf-syntax-ns#" xmlns:svg="http://www.w3.org/2000/svg" xmlns="http://www.w3.org/2000/svg" id="svg2" version="1.1" x="0" y="0" width="400" height="500" viewBox="30.5 31.5 400 500" enable-background="new 30.5 31.5 412 533" xml:space="preserve">
  <metadata id="metadata4">
    <rdf:RDF>
      <cc:Work rdf:about="">
        <dc:format>
          image/svg+xml
        </dc:format>
        <dc:type rdf:resource="http://purl.org/dc/dcmitype/StillImage"/>
      </cc:Work>
    </rdf:RDF>
  </metadata>
  <defs id="defs6"/>
  <path id="path8" d="M230.55 531.13C304.87 477.21 355.81 409.11 386.29 322.97 413.93 244.87 425.02 150.22 420.2 33.62l-0.02-0.46-379.82 0-0.02 0.46c-4.81 116.6 6.28 211.24 33.91 289.35 30.48 86.14 81.42 154.24 155.74 208.16l0.28 0.2 0.28-0.2z" fill="#32ac60"/>
  <path id="path10" d="m41.04 33.21c-9.07 219.45 36.25 385.95 189.45 497.1 84.47-61.29 136.15-139.41 163.99-233.97 2.09-7.09 4.04-14.27 5.87-21.54 11.45-45.69 17.77-95.02 19.88-147.94 1.2-30.06 1.05-61.28-0.29-93.65l-189.45 0-189.45 0m-0.92-0.95 0.92 0 189.45 0 189.45 0 0.92 0 0.04 0.92c4.82 116.66-6.28 211.36-33.93 289.52-30.51 86.24-81.51 154.41-155.91 208.39l-0.56 0.41-0.56-0.41C155.54 477.11 104.54 408.94 74.03 322.7 46.38 244.54 35.28 149.84 40.1 33.18l0.04-0.92 0 0z"/>
  <path id="path4240" d="M254.73 270.53C254.54 254.37 235.85 239.77 230.5 222.84c-5.35 16.94-24.04 31.53-24.23 47.69-0.19 13.72 8.18 23.07 24.23 23.07 16.06 0 24.43-9.44 24.23-23.07z" style="fill:#fff;stroke-width:0.97;stroke:#000"/>
  <path id="path4242" d="M132.73 270.53C132.54 254.37 113.85 239.77 108.5 222.84c-5.35 16.94-24.04 31.53-24.23 47.69-0.19 13.72 8.18 23.07 24.23 23.07 16.06 0 24.43-9.44 24.23-23.07z" style="fill:#fff;stroke-width:0.97;stroke:#000"/>
  <path id="path4244" d="M376.73 270.53C376.54 254.37 357.85 239.77 352.5 222.84c-5.35 16.94-24.04 31.53-24.23 47.69-0.19 13.72 8.18 23.07 24.23 23.07 16.06 0 24.43-9.44 24.23-23.07z" style="fill:#fff;stroke-width:0.97;stroke:#000"/>
  <path id="path4246" d="M314.73 190.53C314.54 174.37 295.85 159.77 290.5 142.84c-5.35 16.94-24.04 31.53-24.23 47.69-0.19 13.72 8.18 23.07 24.23 23.07 16.06 0 24.43-9.44 24.23-23.07z" style="fill:#fff;stroke-width:0.97;stroke:#000"/>
  <path id="path4248" d="M194.73 190.53C194.54 174.37 175.85 159.77 170.5 142.84c-5.35 16.94-24.04 31.53-24.23 47.69-0.19 13.72 8.18 23.07 24.23 23.07 16.06 0 24.43-9.44 24.23-23.07z" style="fill:#fff;stroke-width:0.97;stroke:#000"/>
  <path id="path4250" d="M132.73 110.53C132.54 94.37 113.85 79.77 108.5 62.84 103.15 79.77 84.46 94.37 84.27 110.53c-0.19 13.72 8.18 23.07 24.23 23.07 16.06 0 24.43-9.44 24.23-23.07z" style="fill:#fff;stroke-width:0.97;stroke:#000"/>
  <path id="path4252" d="M254.73 110.53C254.54 94.37 235.85 79.77 230.5 62.84c-5.35 16.94-24.04 31.53-24.23 47.69-0.19 13.72 8.18 23.07 24.23 23.07 16.06 0 24.43-9.44 24.23-23.07z" style="fill:#fff;stroke-width:0.97;stroke:#000"/>
  <path id="path4254" d="M376.73 110.53C376.54 94.37 357.85 79.77 352.5 62.84c-5.35 16.94-24.04 31.53-24.23 47.69-0.19 13.72 8.18 23.07 24.23 23.07 16.06 0 24.43-9.44 24.23-23.07z" style="fill:#fff;stroke-width:0.97;stroke:#000"/>
  <path id="path4256" d="M314.73 350.53C314.54 334.37 295.85 319.77 290.5 302.84c-5.35 16.94-24.04 31.53-24.23 47.69-0.19 13.72 8.18 23.07 24.23 23.07 16.06 0 24.43-9.44 24.23-23.07z" style="fill:#fff;stroke-width:0.97;stroke:#000"/>
  <path id="path4258" d="M194.73 350.53C194.54 334.37 175.85 319.77 170.5 302.84c-5.35 16.94-24.04 31.53-24.23 47.69-0.19 13.72 8.18 23.07 24.23 23.07 16.06 0 24.43-9.44 24.23-23.07z" style="fill:#fff;stroke-width:0.97;stroke:#000"/>
  <path id="path4260" d="m255.4 430.88c-0.2-16.6-19.4-31.6-24.9-49-5.5 17.4-24.7 32.4-24.9 49-0.2 14.1 8.4 23.7 24.9 23.7 16.5 0 25.1-9.7 24.9-23.7z" style="fill:#fff;stroke:#000"/>
</svg>
