<svg xmlns:dc="http://purl.org/dc/elements/1.1/" xmlns:cc="http://creativecommons.org/ns#" xmlns:rdf="http://www.w3.org/1999/02/22-rdf-syntax-ns#" xmlns:svg="http://www.w3.org/2000/svg" xmlns="http://www.w3.org/2000/svg" id="svg2" height="500" width="400" version="1">
  <metadata id="metadata51">
    <rdf:RDF>
      <cc:Work rdf:about="">
        <dc:format>
          image/svg+xml
        </dc:format>
        <dc:type rdf:resource="http://purl.org/dc/dcmitype/StillImage"/>
      </cc:Work>
    </rdf:RDF>
  </metadata>
  <defs id="defs4">
    <clipPath id="clipPath2516">
      <path id="path2518" d="M0 0 0 0 0 0 0 0Z"/>
    </clipPath>
    <clipPath id="clipPath2500">
      <path id="path2502" d="M0 0 0 0 0 0 0 0Z"/>
    </clipPath>
  </defs>
  <path d="m396.64 1.45-393.73 0 0 301.05 0 0c0 0.03 0 0.06 0 0.09 0 108.73 88.14 196.86 196.86 196.86 108.72 0 196.87-88.14 196.87-196.86 0-0.03 0-0.06 0-0.09l0 0 0-301.05z" id="path2418" style="fill-rule:nonzero;fill:#e00e00"/>
  <path id="path3655" d="m66.35 125.75c0.48 1.56-3.86 3.11-4.57 1.18L50.83 97.36c-1.06-2.86-2.83-3.2-2.36-0.55 5.18 29.24 8.68 50.72 25.44 75.67 0.1 10.86 0.27 23.12 1.66 33.3 0.34 2.48 5.76 1.63 5.73 0.24l-0.49-21.12c16.08 24.61 37.72 46.1 62.49 64.91-0.55 8.72 0.28 24.78 3.82 31.74 1.11 2.19 10.92 2.65 9.99-0.12-2.62-7.78-4.54-16.46-4.22-24.65 22.81 17.49 45.08 36.19 71.36 51.8 6.76 4.01 4.05 28.88 8.36 29.64l16.47 2.91c3.63 0.64 4.73-12.49 4.73-12.49 6.22 2.69 12.67 8.16 15.56 13.3 11.11 19.67 18.03 42.69 25.2 65.01 9.17-11.41 10.34-24.31 9.77-40.75 20.83 2.83 37.71 3.17 49.29-3.01-3.08-2.35-68.13-27.92-73.14-41.44-6.17-7.12-16.04-23.82-23.93-36.78-9.67-15.9-16.31-28.99-20.03-34.41-3-4.38 5-2.56 9.61-2.42 5.81 0.17-6.59-14.72-9.74-33.89-1.29-7.84-23.38-5.98-29.58-5.35C150.89 138.33 78.71 93.26 55.78 91.11Z" style="fill:#fff;stroke-miterlimit:4;stroke:#000"/>
  <path id="path3853" d="m80.47 115.36a4.81 4.56 0 0 1-9.62 0 4.81 4.56 0 1 1 9.62 0z" fill="#000"/>
  <path id="path4300" d="m396.64 1.45-393.73 0 0 301.05 0 0c0 0.03 0 0.06 0 0.09 0 108.73 88.14 196.86 196.86 196.86 108.72 0 196.87-88.14 196.87-196.86 0-0.03 0-0.06 0-0.09l0 0 0-301.05z" style="fill:none;stroke:#000"/>
  <path d="m34.89 259.21c0.35 1.14-2.81 2.27-3.33 0.86l-7.99-21.56c-0.77-2.08-2.07-2.33-1.72-0.4 3.78 21.32 6.33 36.98 18.55 55.17 0.07 7.92 0.2 16.86 1.21 24.28 0.25 1.81 4.2 1.19 4.18 0.18l-0.36-15.4c11.73 17.94 27.5 33.61 45.56 47.32-0.4 6.35 0.21 18.06 2.79 23.14 0.81 1.59 7.96 1.93 7.28-0.08-1.91-5.67-3.31-12-3.08-17.97 16.63 12.75 32.86 26.39 52.03 37.77 4.93 2.93 2.96 21.05 6.09 21.61l12.01 2.12c2.64 0.47 3.45-9.1 3.45-9.1 4.53 1.96 9.24 5.95 11.35 9.69 8.1 14.34 13.14 31.12 18.37 47.4 6.68-8.32 7.54-17.73 7.12-29.71 15.18 2.06 27.49 2.31 35.93-2.2-2.25-1.71-49.67-20.36-53.32-30.21-4.5-5.19-11.7-17.36-17.45-26.81-7.05-11.59-11.89-21.14-14.6-25.09-2.19-3.2 3.65-1.86 7.01-1.77 4.24 0.13-4.81-10.73-7.1-24.71-0.94-5.71-17.05-4.36-21.56-3.9C96.52 268.39 43.9 235.53 27.19 233.96Z" id="path4457" style="fill:#fff;stroke-miterlimit:4;stroke:#000"/>
  <path d="m45.18 251.64a3.51 3.32 0 0 1-7.01 0 3.51 3.32 0 1 1 7.01 0z" id="path4459" fill="#000"/>
  <path id="path4461" d="m175.69 62.25c0.35 1.14-2.81 2.27-3.33 0.86l-7.99-21.56c-0.77-2.08-2.07-2.33-1.72-0.4 3.78 21.32 6.33 36.98 18.55 55.17 0.07 7.92 0.2 16.86 1.21 24.28 0.25 1.81 4.2 1.19 4.18 0.18l-0.36-15.4c11.73 17.94 27.5 33.61 45.56 47.32-0.4 6.35 0.21 18.06 2.79 23.14 0.81 1.59 7.96 1.93 7.28-0.08-1.91-5.67-3.31-12-3.08-17.97 16.63 12.75 32.86 26.39 52.03 37.77 4.93 2.93 2.96 21.05 6.09 21.61l12.01 2.12c2.64 0.47 3.45-9.1 3.45-9.1 4.53 1.96 9.24 5.95 11.35 9.69 8.1 14.34 13.14 31.12 18.37 47.4 6.68-8.32 7.54-17.73 7.12-29.71 15.18 2.06 27.49 2.31 35.93-2.2-2.25-1.71-49.67-20.36-53.32-30.21-4.5-5.19-11.7-17.36-17.45-26.81-7.05-11.59-11.89-21.14-14.6-25.09-2.19-3.2 3.65-1.86 7.01-1.77 4.24 0.13-4.81-10.73-7.1-24.71-0.94-5.71-17.05-4.36-21.56-3.9C237.32 71.42 184.7 38.56 167.99 36.99Z" style="fill:#fff;stroke-miterlimit:4;stroke:#000"/>
  <path id="path4463" d="m185.99 54.67a3.51 3.32 0 0 1-7.01 0 3.51 3.32 0 1 1 7.01 0z" fill="#000"/>
</svg>
