<?xml version="1.0" encoding="UTF-8" standalone="no"?>
<svg
   xmlns:dc="http://purl.org/dc/elements/1.1/"
   xmlns:cc="http://creativecommons.org/ns#"
   xmlns:rdf="http://www.w3.org/1999/02/22-rdf-syntax-ns#"
   xmlns:svg="http://www.w3.org/2000/svg"
   xmlns="http://www.w3.org/2000/svg"
   xml:space="preserve"
   enable-background="new 30.5 31.5 412 533"
   viewBox="30.5 31.5 400 500"
   height="500"
   width="400"
   y="0"
   x="0"
   version="1.1"
   id="svg2"><metadata
     id="metadata4"><rdf:RDF><cc:Work
         rdf:about=""><dc:format>
          
          
          
          
          image/svg+xml
        
        
        
        
        </dc:format><dc:type
           rdf:resource="http://purl.org/dc/dcmitype/StillImage" /><dc:title></dc:title></cc:Work></rdf:RDF></metadata><defs
     id="defs6" /><path
     style="fill:#000000"
     id="path4148"
     d="M 230.45,531.13 C 156.13,477.21 105.19,409.11 74.71,322.97 47.07,244.87 35.98,150.22 40.8,33.62 l 0.02,-0.46 379.82,0 0.02,0.46 c 4.81,116.6 -6.28,211.24 -33.91,289.35 -30.48,86.14 -81.42,154.24 -155.74,208.16 l -0.28,0.2 -0.28,-0.2 z" /><path
     d="M 419.96,33.21 C 429.03,252.66 383.71,419.16 230.51,530.31 146.04,469.02 94.36,390.9 66.52,296.34 64.43,289.25 62.48,282.07 60.65,274.8 49.2,229.11 42.88,179.78 40.77,126.86 39.57,96.8 39.72,65.58 41.06,33.21 l 189.45,0 189.45,0 m 0.92,-0.95 -0.92,0 -189.45,0 -189.45,0 -0.92,0 -0.04,0.92 c -4.82,116.66 6.28,211.36 33.93,289.52 30.51,86.24 81.51,154.41 155.91,208.39 l 0.56,0.41 0.56,-0.41 C 305.46,477.11 356.46,408.94 386.97,322.7 414.62,244.54 425.72,149.84 420.9,33.18 l -0.04,-0.92 0,0 z"
     id="path10" /><path
     id="path4213"
     d="m 250.5,201.5 0,-79.21546 c 0,-9.3431 2.28773,-17.68589 6.02078,-21.83479 4.81067,-5.346563 10.75051,-6.653373 24.53023,-7.097543 -1.43661,-13.82072 -12.95139,-21.68626 -26.01781,-21.49674 -10.22154,0.14825 -20.12714,4.96922 -24.5332,11.64453 -4.40606,-6.67531 -14.31166,-11.49628 -24.5332,-11.64453 -13.06642,-0.18952 -24.5812,7.67602 -26.01781,21.49674 13.77972,0.44417 19.71956,1.75098 24.53023,7.097543 3.73305,4.1489 6.02078,12.49169 6.02078,21.83479 l 0,79.21546 -79.21546,0 c -9.3431,0 -17.68589,-2.28773 -21.83479,-6.02078 -5.34656,-4.81067 -6.65337,-10.75051 -7.09754,-24.53023 -13.82072,1.43661 -21.68626,12.95139 -21.49674,26.01781 0.14825,10.22154 4.96922,20.12714 11.64453,24.5332 -6.67531,4.40606 -11.49628,14.31166 -11.64453,24.5332 -0.18952,13.06642 7.67602,24.5812 21.49674,26.01781 0.44417,-13.77972 1.75098,-19.71956 7.09754,-24.53023 4.1489,-3.73305 12.49169,-6.02078 21.83479,-6.02078 l 79.21546,0 0,79.21546 c 0,9.3431 -2.28773,17.68589 -6.02078,21.83479 -4.81067,5.34656 -10.75051,6.65337 -24.53023,7.09754 1.43661,13.82072 12.95139,21.68626 26.01781,21.49674 10.22154,-0.14825 20.12714,-4.96922 24.5332,-11.64453 4.40606,6.67531 14.31166,11.49628 24.5332,11.64453 13.06642,0.18952 24.5812,-7.67602 26.01781,-21.49674 -13.77972,-0.44417 -19.71956,-1.75098 -24.53023,-7.09754 C 252.78773,338.40135 250.5,330.05856 250.5,320.71546 l 0,-79.21546 0,0 79.21546,0 c 9.3431,0 17.68589,2.28773 21.83479,6.02078 5.34656,4.81067 6.65337,10.75051 7.09754,24.53023 13.82072,-1.43661 21.68626,-12.95139 21.49674,-26.01781 C 379.99628,235.81166 375.17531,225.90606 368.5,221.5 c 6.67531,-4.40606 11.49628,-14.31166 11.64453,-24.5332 0.18952,-13.06642 -7.67602,-24.5812 -21.49674,-26.01781 -0.44417,13.77972 -1.75098,19.71956 -7.09754,24.53023 -4.1489,3.73305 -12.49169,6.02078 -21.83479,6.02078 l -79.21546,0 z"
     style="fill:#ffe000;fill-opacity:1;fill-rule:evenodd;stroke:#000000;stroke-width:1px;stroke-linecap:butt;stroke-linejoin:miter;stroke-opacity:1" /></svg>