<?xml version="1.0" encoding="UTF-8" standalone="no"?>
<svg
   xmlns:dc="http://purl.org/dc/elements/1.1/"
   xmlns:cc="http://creativecommons.org/ns#"
   xmlns:rdf="http://www.w3.org/1999/02/22-rdf-syntax-ns#"
   xmlns:svg="http://www.w3.org/2000/svg"
   xmlns="http://www.w3.org/2000/svg"
   id="svg2"
   version="1.1"
   x="0"
   y="0"
   width="400"
   height="500"
   viewBox="30.5 31.5 400 500"
   enable-background="new 30.5 31.5 412 533"
   xml:space="preserve"><metadata
     id="metadata4"><rdf:RDF><cc:Work
         rdf:about=""><dc:format>
          
          
          
          
          
          image/svg+xml
        
        
        
        
        
        </dc:format><dc:type
           rdf:resource="http://purl.org/dc/dcmitype/StillImage" /><dc:title></dc:title></cc:Work></rdf:RDF></metadata><defs
     id="defs6" /><path
     style="fill:#32ac60;fill-opacity:1"
     id="path8"
     d="M 230.44,531.14 C 156.12,477.22 105.18,409.12 74.7,322.98 47.06,244.88 35.97,150.23 40.79,33.63 l 0.02,-0.46 379.82,0 0.02,0.46 c 4.81,116.6 -6.28,211.24 -33.91,289.35 C 356.26,409.12 305.32,477.22 231,531.14 l -0.28,0.2 -0.28,-0.2 z" /><path
     id="path10"
     d="M 419.96,33.21 C 429.03,252.66 383.7,419.16 230.5,530.31 77.31,419.16 31.99,252.66 41.06,33.21 l 189.45,0 189.45,0 m 0.92,-0.95 -0.92,0 -189.45,0 -189.45,0 -0.92,0 -0.04,0.92 c -4.82,116.66 6.28,211.36 33.93,289.52 30.51,86.24 81.51,154.41 155.91,208.39 l 0.56,0.41 0.56,-0.41 C 305.46,477.11 356.46,408.94 386.97,322.7 414.62,244.54 425.72,149.84 420.9,33.18 l -0.04,-0.92 0,0 z" /><path
     d="m 50.680777,93.133443 c 7.913929,-1.450575 12.282304,-5.581055 25.11208,-7.585559 15.370164,-2.40141 31.594683,4.389107 41.543073,16.995156 4.00649,5.0768 7.57714,10.99284 8.49996,17.83953 0.23764,1.76315 13.18291,10.97936 22.06211,14.88096 0.36274,-2.70493 1.57407,-7.32139 0.26966,-7.83649 -17.06314,-6.73806 -26.67376,-34.454984 -18.23496,-67.53857 8.57844,13.200556 26.30552,15.66396 33.0942,38.991497 2.6082,8.962403 2.51994,22.735953 -6.85789,28.313063 -0.42983,2.15035 -1.43702,8.8209 0.13839,9.97594 10.31214,7.56053 23.36691,16.06146 36.56826,26.2733 7.73007,5.97955 13.64848,14.22681 23.52251,19.57213 1.46918,0.79534 3.20274,-5.11746 2.95781,-11.43046 -0.21809,-5.6214 -2.00492,-11.56012 -6.94402,-13.36254 -12.06699,2.59701 -26.47589,-6.20277 -35.14759,-21.97848 -4.67712,-8.50871 -7.8277,-19.12841 -3.63058,-30.89896 10.80357,10.64551 29.16895,15.1648 35.25599,28.68105 2.03942,4.52854 5.7841,8.71601 5.48427,15.93019 -0.0797,1.91811 1.30361,2.43847 4.04783,4.4015 1.49449,1.06904 1.52278,-14.42061 0.80041,-21.88046 -16.47212,-13.45223 -18.42924,-34.165421 -13.35993,-46.406072 4.69767,-11.343261 15.04231,-17.679224 19.27741,-29.037474 4.58674,10.858079 13.98004,17.81827 19.49036,27.210661 3.67813,6.269406 6.0167,14.543398 2.9358,22.449525 -3.40771,8.7448 -8.76304,18.08575 -16.8568,25.64458 -1.33872,6.05022 -1.27035,14.69486 0.83323,21.84241 0.50585,1.71876 2.84351,-1.38332 4.67933,-4.77778 0.73299,-6.1489 1.14517,-12.49949 2.98367,-16.82462 9.8692,-23.21763 33.65316,-22.05229 37.28678,-32.40125 0.0498,4.61051 0.59744,11.61967 1.35426,14.8039 4.60008,19.35416 -17.35883,44.82224 -38.56537,42.93464 -3.83013,1.7575 -6.43421,7.12965 -6.65437,13.9992 -0.21366,6.66672 1.94198,12.28907 4.55632,10.16755 4.80497,-3.89922 5.95137,-7.85565 9.09874,-11.31869 19.96987,-21.97272 35.09739,-24.17026 49.16025,-38.22676 2.1097,-2.10875 3.49815,-7.2089 -0.94642,-10.13857 -7.62595,-5.02669 -9.24831,-14.95939 -5.92758,-24.523251 3.60547,-10.383894 12.7176,-20.478633 17.80862,-27.246678 6.57836,-8.745309 12.53119,-8.195032 18.52602,-13.065564 12.21723,63.472883 -15.81826,64.856443 -18.36184,68.798443 -0.34672,0.53734 -0.50584,3.44927 0.47031,3.03166 4.53717,-1.94108 14.78314,-4.95424 21.61054,-9.03713 2.01734,-18.25454 16.62114,-27.157403 30.86812,-31.18262 13.21716,-3.734258 29.4218,-2.359267 47.44879,3.088902 -7.08684,9.403628 -14.45411,20.930658 -22.83323,29.774688 -4.23305,4.46792 -7.58538,6.74727 -14.86756,7.85046 -9.233,1.39872 -15.96157,8.58441 -34.14618,-0.4253 -0.29733,-0.579 -17.24201,6.65794 -20.70764,11.51095 -0.82474,1.15491 0.9812,1.18378 3.12771,1.3506 1.22066,0.0949 3.71571,-1.91414 6.16435,-2.52462 19.14255,-4.77252 46.21402,9.60395 50.00473,16.51391 4.50449,8.21108 12.57807,15.63607 15.18792,23.93715 -18.28416,-1.9595 -25.58353,2.88031 -41.07624,-0.80553 -16.28174,-3.87357 -31.45631,-13.66487 -36.0882,-29.62888 -1.49481,-2.07439 -10.40296,-2.69369 -11.10932,-0.89115 -7.32876,18.70196 -9.89595,2.71725 -26.96981,19.29275 3.65517,0.57374 6.34011,-0.75643 9.96156,-1.09276 7.32123,-0.67994 16.551,-4.89544 26.96699,-0.0417 17.75812,8.27505 40.96798,26.09118 44.01581,42.86903 -7.2344,-2.487 -17.51468,-2.97844 -25.57267,-2.3409 -32.37351,2.56139 -53.82692,-7.17924 -53.94935,-29.25355 -0.0168,-3.02949 -2.44015,-3.51085 -6.89217,-2.97721 -6.77483,0.81206 -13.89055,14.34565 -17.10751,26.97984 -0.97177,3.81649 -0.57376,17.5334 0.82507,28.39875 0.76767,5.9628 3.00111,9.41726 1.76409,12.40385 -1.43577,3.46643 17.99004,13.91508 37.23452,11.12687 5.73649,-26.11157 67.5007,-7.01881 72.56098,4.4862 5.37512,12.22082 -3.80707,24.51799 -16.69595,27.73147 -7.63317,1.90311 -17.10739,2.08843 -27.375,-0.73251 -2.12634,-0.58419 -11.36803,-3.49836 -18.82776,-6.66172 -7.30767,-3.09887 -12.8774,-5.4387 -11.02655,-16.68768 -20.67408,2.51827 -34.45712,-7.34595 -41.98199,-13.17495 -2.35905,-1.82739 -3.60306,-1.38062 -3.1028,-0.23776 7.72135,17.63954 40.70377,21.71261 55.8746,47.28071 14.64389,-7.46495 34.27582,-0.13448 45.39514,11.56971 7.04409,7.4146 11.89394,20.64649 10.81863,25.6095 -2.79923,12.91961 -8.44059,17.68897 -17.86499,21.53084 -10.38937,4.23524 -26.55228,-2.55851 -42.13258,-13.15664 -12.44366,-8.4645 -15.0557,-31.96532 -2.85967,-40.06257 -8.52481,-15.55196 -22.08577,-22.21074 -35.38722,-29.6909 -6.76719,-3.80557 -14.77223,-8.86655 -18.74779,-16.68283 -2.0209,-3.97325 -7.2744,-7.28509 -6.51408,-1.83068 1.82498,13.09205 -5.1059,21.62815 10.70035,31.42627 11.30966,-3.71785 21.39256,-0.91423 32.45157,17.66326 4.57119,7.67893 0.65466,27.18523 -19.6526,28.01144 -13.19018,0.53665 -25.97958,-26.72011 -19.72259,-38.66001 1.66891,-3.1847 -3.04685,-7.05224 -5.12658,-8.89792 -3.49135,-3.09843 -7.89592,23.98847 -5.80565,34.0289 1.35194,6.49392 18.23252,19.25555 28.56897,32.66144 19.20757,-16.78983 43.40158,4.4706 49.57634,18.91823 20.27859,47.44761 -21.463,46.66233 -43.23872,27.06439 -16.06367,-14.45715 -22.50054,-25.67367 -11.90226,-38.47265 -5.93722,-11.20684 -12.22934,-18.406 -20.56276,-25.19318 -3.05912,-2.49151 8.13574,42.09344 5.0291,63.25079 13.78192,-0.64513 21.29537,6.09815 25.05284,14.96197 4.66825,11.01232 5.61233,20.69042 1.43048,32.75425 -8.85972,25.55861 -5.99302,26.15363 -25.60028,33.17571 -19.56043,7.00532 -33.6124,-20.46774 -38.57282,-35.27261 -4.74503,-14.16201 6.81314,-36.28467 15.37001,-43.05701 3.76785,-2.98207 8.99587,-4.0089 14.27749,-3.31729 1.93743,-15.63585 -4.42544,-39.47304 -5.62336,-55.19296 -0.51138,-6.71067 -4.34908,-0.64392 -13.96304,8.99552 -2.67399,2.68107 3.56892,9.84716 4.18322,14.14355 2.55031,17.83654 -13.06849,31.6264 -23.27495,39.51596 -19.89058,15.37535 -61.96254,6.86162 -30.62369,-38.28452 1.73852,-2.50447 11.24739,-16.82586 26.56608,-19.64262 4.37795,-0.80501 12.46422,0.0903 16.79599,-1.54241 5.24843,-1.97818 18.91824,-14.37417 18.37205,-17.97461 -2.44677,-16.1288 -1.34199,-30.51287 4.7235,-47.82108 1.23714,-3.53024 -6.90414,3.66335 -12.30793,11.98928 7.58916,10.19447 0.53613,22.85821 -5.96171,31.83122 -15.50245,21.40771 -35.33545,1.90867 -23.12732,-20.36886 3.81488,-6.96143 8.5647,-18.07443 21.11535,-14.917 4.78381,-7.6697 14.50633,-13.82905 17.6134,-18.01324 3.27919,-4.41599 2.69877,-4.87053 2.9734,-12.25112 0.13681,-3.67685 -0.5625,-4.03408 -1.63267,-2.19574 -16.46781,28.28845 -30.19848,18.09878 -54.55153,46.74504 15.24959,22.63277 -4.74395,40.5177 -17.4547,48.65885 -22.46762,14.39035 -41.07039,-3.48816 -42.98616,-16.81441 -1.71486,-11.92875 6.31705,-26.01792 21.45846,-36.26441 8.42573,-5.70186 16.46373,-8.50914 33.58104,-1.66348 14.14724,-21.36452 39.68455,-24.66186 51.37115,-41.73846 1.13642,-1.66056 0.55858,-4.15397 -0.49207,-3.15481 -6.68291,6.35535 -14.70938,9.81421 -21.04474,11.53437 -13.91066,3.77699 -23.47565,-0.30215 -23.76692,2.18424 -1.09948,9.38547 -18.81191,22.15253 -40.62624,22.07861 -16.17566,-0.0548 -28.610627,-8.23031 -32.208269,-16.24552 -2.401377,-5.35005 -2.140363,-11.02865 0.06747,-16.20725 2.927003,-6.86547 15.813749,-12.03123 34.438549,-13.45908 8.35021,-0.64016 19.95364,-2.23973 28.11818,1.90519 8.44561,4.28761 5.87679,9.74539 12.39566,12.88277 11.46978,5.52013 35.00598,-5.01983 33.69184,-8.23768 -1.25832,-2.78648 -3.25845,-3.01759 -1.60903,-6.52357 2.18391,-4.6421 3.70169,-14.66109 3.75781,-23.46091 0.0511,-8.00426 -2.00586,-16.76578 -5.64376,-23.37332 -2.42678,-4.40777 -9.34914,-11.42068 -10.70706,-12.4703 -0.70553,-0.54534 -8.12466,-2.57602 -8.65216,2.12423 -2.1911,19.52384 -9.47281,21.04288 -18.8673,24.55473 -15.04862,5.62549 -36.16844,0.7598 -55.66342,3.07151 4.92659,-19.94484 32.72272,-43.16632 67.97357,-36.61965 2.67144,0.49613 4.62576,-0.45257 4.96126,-2.39064 -7.33267,-12.20801 -24.11012,-3.33307 -24.77478,-18.3915 -2.22774,-1.58833 -3.23052,-3.27965 -9.06086,-0.40831 0.93044,11.43107 -5.30955,18.55768 -23.47866,25.9053 -12.35797,4.99759 -27.670827,9.12762 -53.633941,3.53732 20.913689,-25.06758 34.335621,-48.56634 67.574991,-35.46365 2.97638,-0.2905 5.66916,0.49707 8.06583,-2.11228 l -16.554,-10.66126 c -3.36069,-2.16438 -7.40034,0.65949 -9.8892,1.22278 -17.415606,3.94159 -26.754933,2.4108 -35.08279,-1.99415 C 64.79418,122.64396 59.502402,101.89582 50.680777,93.133443 Z"
     id="path3800"
     style="fill:#ffffff;stroke:#000000;stroke-linecap:round;stroke-linejoin:round;stroke-opacity:1" /></svg>