<svg xmlns:dc="http://purl.org/dc/elements/1.1/" xmlns:cc="http://creativecommons.org/ns#" xmlns:rdf="http://www.w3.org/1999/02/22-rdf-syntax-ns#" xmlns:svg="http://www.w3.org/2000/svg" xmlns="http://www.w3.org/2000/svg" xml:space="preserve" enable-background="new 30.5 31.5 412 533" viewBox="30.5 31.5 400 500" height="500" width="400" y="0" x="0" version="1.1" id="svg2">
  <metadata id="metadata4">
    <rdf:RDF>
      <cc:Work rdf:about="">
        <dc:format>
          
          image/svg+xml
        
        </dc:format>
        <dc:type rdf:resource="http://purl.org/dc/dcmitype/StillImage"/>
      </cc:Work>
    </rdf:RDF>
  </metadata>
  <defs id="defs6"/>
  <path d="m231.01 531.13c74.32-53.92 125.26-122.02 155.74-208.16 27.64-78.1 38.73-172.75 33.91-289.35l-0.02-0.46-379.82 0-0.02 0.46c-4.81 116.6 6.28 211.24 33.91 289.35 30.48 86.14 81.42 154.24 155.74 208.16l0.28 0.2 0.28-0.2z" id="path8" fill="#32ac60"/>
  <path d="M419.96 33.21C429.03 252.66 383.71 419.16 230.51 530.31 146.04 469.02 94.36 390.9 66.52 296.34 64.43 289.25 62.48 282.07 60.65 274.8 49.2 229.11 42.88 179.78 40.77 126.86 39.57 96.8 39.72 65.58 41.06 33.21l189.45 0 189.45 0m0.92-0.95-0.92 0-189.45 0-189.45 0-0.92 0-0.04 0.92c-4.82 116.66 6.28 211.36 33.93 289.52 30.51 86.24 81.51 154.41 155.91 208.39l0.56 0.41 0.56-0.41C305.46 477.11 356.46 408.94 386.97 322.7 414.62 244.54 425.72 149.84 420.9 33.18l-0.04-0.92 0 0z" id="path10"/>
  <path id="path3447" d="m210.31 220.01c-0.65-3.34 6.46-16.51-3.46-25.12-2.08-1.8 1.9-7.17 1.39-10.24-0.83-4.95-3.43-11.82-8.32-11.4l-4.62 2.46c-2.89 1.54-7.7-1.31-8.19-8.74-0.51-7.73 5.98-9.38 1.34-26.94-1.07-4.04-8.84-5.83-9.93-1.45l-1.15 4.62c-0.81 3.26-6.32 2.34-7.32-2.14-2.17-9.69-0.62-14.85-7.08-29.57-1.71-3.89-10.08-5.42-11.32 0.5-1.16 5.54-2.33 6.38-3.49 8.89-0.77 1.66-2.5 2.67-5.93-0.31-4.93-4.28-4.16-14.13-7.58-19.87-1.63-2.74-9.95-4.99-12.8-0.61l-2 3.08c-1.77 4.17-4.1 3.07-5.7-1.92-0.25-0.77-1.79-4.54-5.31-2.16-2.08 1.41-4.75 1.42-5.24-0.31l-1.61-5.75c-0.37-1.32-3.95-5.12-7.09-1.72-1.32 1.43-2.83 3.56-4 3.7-2.17 0.26-3.78-1.66-5.7-2.31-3.35-1.14-5.4 0.77-6.93 3.85-1.51 3.02 0.97 10.13-3.16 10.17-4.23 0.04-6.21 8.66-0.23 10.6 4 1.3 3.8 4.6 2.16 6.34-4.97 5.25-4.64 10.91-0.62 14.79 1.96 1.89 2 4.11 0.92 6.78-1.29 3.19-2.06 11.55 9.86 12.94 7.3 0.85 9.92 3.88 7.7 6.7-7.41 9.41-1.55 16.5 9.55 16.1l14.86-0.54c2.86-0.1 8.21 2.64 4.24 7.32-4.08 4.8-1.06 12.14 3.39 12.32l24.41 1c6.63 0.27 7.27 4.14 1.85 7.08-3.46 1.88-2.16 8.11 5.78 9.78 4.95 1.04 4.66 3.01 16.17 0 7.86-2.06 12.65 4.59 17.63 5.56 6.75 1.31 10.99-2.6 12.73-0.4 5.78 7.3 17.27 17.18 16.53 18.49-1.12 1.97-3.75 3.67-4.92 4.22-2.32-1.41-5.72-3.14-7.87-3.6-5.8-1.23-8.22-1.04-14.35 0.58-2.17 0.57-2.62 1.58-2.09 3.32-6.17 2.27-19.87 9.06-21.96 18.92-1.01 4.75 1.05 9.96 10.09 9.59 10.48-0.43 16.66-2.08 22.47-4.98 0.59 0.69 2.64 2.49 3.93 1.24 3.54-3.44 5.21-4.6 8.67-9.36 1.91-2.62 3.66-6.54 4.27-11.34 1.28-2.91 2.7-3.65 4.23-4.33 1.13-0.5 2.46-0.01 2.69 1.2 3.26 17.26-2.07 22.37-10.13 32.78l-11.8 15.25c-1.75 2.26-0.64 6.18 3.31 7.86 4.25 1.8 3.74 3.75 0 8.32l-14.94 18.25c-1.96 2.39-5.91 15 2.54 11.17 2.16-0.98 6.41-1.28 5.31 2.93-1.41 5.44-3.95 10.53-5.24 16.02-0.87 3.7-4.15 9.35 4.62 11.09 4.9 0.97 6.9 6.15 5.54 11.09-1.24 4.52-4.05 7.02-3.31 13.86 0.4 3.75 0.21 6.37 6.39 5.24 2.13-0.39 4.62-0.65 6.47 1.23 2.23 2.26 1.88 5.53 2.23 10.4 0.19 2.6 4.59 3.5 5.31 6.39 1.04 4.15-0.46 5.65-1.08 8.16-0.83 3.4 1.85 4.29 5.85 4.54 3.89 0.25 1.28 8.87 4.31 9.32 8.6 1.28 6.41-4.86 10.09-7.62 3.85-2.89 9.11 2.5 10.78-5.16 0.61-2.8-2.25-7.42 8.01-6.39 3.24 0.33 5.32-1.28 4.24-7.01-1.52-8.03 0.96-6.42 3.62-6.7 8.43-0.87 7.56-10.25 3.7-16.63-4.25-7.03-5.69-11.35 2.31-11.32 7.75 0.03 3.6-13.54-1.16-20.79l-5.85-8.93c-2.02-3.09-5.27-7.15 0-10.17 2.65-1.52 8.97-3.79 3.62-11.32l-12.24-17.25c-1.83-2.58-3.41-5.77-0.08-8.32 5.77-4.42 6.36-9.33 1.08-13.32-6.19-4.68-15.16-7.63-20.59-13.68-2.5-2.78-8.42-14.95-5.94-29.01 0.3-1.72 13.53 2.91 13.44 4.75-0.18 3.53 0.71 9.23 2.8 12.05 1.52 2.05 8.08 8.97 10.72 9.29 1.75 0.21 2.49-1.36 2.76-2.41 5.67 4.02 14.37 5.47 23.35 3.43 10.96-2.49 12.89-5.99 6.99-13.77-5.1-6.72-10.87-13.36-18.65-16.32 0.52-0.8 1.1-2.11-0.33-2.52-5.76-1.68-13.21-1.39-15.23-0.8-3.9 1.14-8.37 1.8-10.78 4.02-1.16 1.07-9.59-3.18-8.52-5.47 4.58-9.73 17.44-17.28 25.77-18.72 12.91-2.23 25.7-4.59 38.35-5.39 4.64-0.29 11.93-4.54 9.63-8.24-4.37-7.03 1.5-6.75 11.21-5.65 3.7 0.42 11.7-0.99 14.2-2.22 2.66-1.31 4.43-4.66 1.23-6.29-14.09-9.31 3.95-12.55 10.33-13.48 10.21-1.48 14.2-10.03 12.09-11.86-4.2-3.64-7.5-5.48-8.61-7.43-2.24-3.96 0.59-7.43 11.03-9.96 4.34-1.05 10.83-7.84 10.1-11.94-0.73-4.13-11.74-6.85-2.32-14.29 1.26-1 5.05-1.13 6.25-4.47 0.89-2.46-3.33-6.39 4.16-8.32 2.35-0.61 5.93-5.26 4.31-8.01-1.72-2.92-5.07-0.69 1.25-5.95 2.48-2.06 3.54-9.98-4.54-9.16-3.64 0.37-7.81 5.08-10.78 1.85-1.93-2.1-1.6-6.49-11.32-1.54-2.59 1.32-7.92 5.82-9.09 0.69-0.75-3.27-5.07-4.87-9.86-0.31-2.31 2.2-5.79 5.52-7.47 1-1.62-4.35-5.56-1.7-7.32 1.16l-8.32 13.55c-2.39 3.89-5.26 4.79-8.16 0.46-0.52-0.78-8.22-6.71-11.71 4.08-2.39 7.4-0.62 16.3-1.54 24.1-0.38 3.18-4.32 7.13-8.74 1.91-3.51-4.15-9.8 0.42-10.56 6.11-0.97 7.39 2.21 15.2-2.62 23.36-1.46 2.47-4.35 7.83-8.25 2.77-2.86-3.71-7.69-0.5-8.32 3.39-2.32 14.37 2.21 27.21-2.02 38.39-3.89 10.28-8.43 14.37-20.62 25.52-2.85 2.61-2.95-4.49-2.01-9.24 5-2.87 8.98-6.4 9.31-11.34l0.73-10.74c0.17-2.49-1.5-1.66-2.48-1.51 0.37-8.76-1.4-17.05-5.86-24.92-1.6-2.83-7.05-6.82-11.01-0.44-6.28 10.1-6.16 17.12-6.68 25.78-1.24-0.22-2.44-0.37-2.44 1.89-0.01 4.21 1.35 9 1.82 11.36 0.59 3 3.75 7.94 9.12 10.12 0.1 2.09 0.9 5.53-0.06 8.03-0.49 1.28-2.77 1.58-3.41 1.69-4.05 1.06-14.41-11.53-15.15-15.33z" style="fill-rule:evenodd;fill:#ffe000;stroke:#000"/>
  <path id="path4270" d="m275.55 244.33c-7.04 9.24-9.81 18-11.68 26.66" style="fill:none;stroke:#000"/>
  <path id="path4272" d="m192.79 246.1c2.93 9.07 5.68 16.45 10.6 23.54" style="fill:none;stroke:#000"/>
  <path id="path4274" d="m220.43 202.24c7.58 1.9 16.19 2.32 23.56-0.42" style="fill:none;stroke:#000"/>
</svg>
