<svg xmlns:dc="http://purl.org/dc/elements/1.1/" xmlns:cc="http://creativecommons.org/ns#" xmlns:rdf="http://www.w3.org/1999/02/22-rdf-syntax-ns#" xmlns:svg="http://www.w3.org/2000/svg" xmlns="http://www.w3.org/2000/svg" xml:space="preserve" enable-background="new 30.5 31.5 412 533" viewBox="30.5 31.5 400 500" height="500" width="400" y="0" x="0" version="1.1" id="svg2">
  <metadata id="metadata4">
    <rdf:RDF>
      <cc:Work rdf:about="">
        <dc:format>
          
          
          
          
          
          
          
          
          image/svg+xml
        
        
        
        
        
        
        
        
        </dc:format>
        <dc:type rdf:resource="http://purl.org/dc/dcmitype/StillImage"/>
      </cc:Work>
    </rdf:RDF>
  </metadata>
  <defs id="defs6"/>
  <path fill="#0085ca" id="path4148" d="M230.55 531.13C304.87 477.21 355.81 409.11 386.29 322.97 413.93 244.87 425.02 150.22 420.2 33.62l-0.02-0.46-379.82 0-0.02 0.46c-4.81 116.6 6.28 211.24 33.91 289.35 30.48 86.14 81.42 154.24 155.74 208.16l0.28 0.2z"/>
  <path d="m41.04 33.21c-9.07 219.45 36.25 385.95 189.45 497.1 84.47-61.29 136.15-139.41 163.99-233.97 2.09-7.09 4.04-14.27 5.87-21.54 11.45-45.69 17.77-95.02 19.88-147.94 1.2-30.06 1.05-61.28-0.29-93.65l-189.45 0-189.45 0m-0.92-0.95 0.92 0 189.45 0 189.45 0 0.92 0 0.04 0.92c4.82 116.66-6.28 211.36-33.93 289.52-30.51 86.24-81.51 154.41-155.91 208.39l-0.56 0.41-0.56-0.41C155.54 477.11 104.54 408.94 74.03 322.7 46.38 244.54 35.28 149.84 40.1 33.18l0.04-0.92 0 0z" id="path10"/>
  <path id="path2827" d="m73.48 152.67c-1.79-1.25-0.89-2.94 0.19-3.31 13.19-4.57 15.19-16.21 25.03-18.36 1.43-2.68 2.59-6.52 2.23-9.69 3.04 0.85 7.31 4.55 8.73 7.51 2.34-2.2 2.92-6.75 2.48-10.67 8.83 3.57 9.58 8.41 10.43 14.14 5.51-0.15 13.76 0.19 17.59 2.81-2.79 2.18-3.7 5.91-3.7 5.91 2.62-0.35 6.76-1.19 8.98-0.33-2.14 2.1-3.4 4.83-3.4 4.83 0.89-0.35 3.69-0.47 4.67 0.14-1.1 1.53-1.91 3.13-0.12 4.35 48.59 33.21 75.44 14.82 120.27 28.15 8.05 2.39 16.09 5.3 22.89 10.41 14.87 11.18 29.24 27.1 45.26 39.57 9.99 7.78 16.3 15.55 25.67 22 7.74 5.33 12.83 29.6 10.63 33-1.9 2.94-19.27 5.5-21.27 1.64-0.51-0.98-2.45 0.78-4.33 0.54-2.56-0.34-5.25-2.6-6.36-3.92-4.78-5.71-7-0.29-10.57-2.1-25.63-12.95-36.06-32.16-50.24-52.46-1.37 4.38-2.58 6.32-4.79 5.71-1.98-0.55-4.17 1.69-4.01 3.59 0.79 9.58 16.63 12.64 17.84 21.87 0.62 4.71 0.67 10.72-1.51 13.07-4.64 4.99-4.76 12.87-10.15 14.65-0.76 0.25-0.94 0.61-2.33 2.02-1.45-2.79-5.47-1.95-7 0.09-1.66-2.35-4.37-1.73-6-1.86-0.75-3.3 0.1-6.99 5.92-8.06 4.57-0.84 6.66-5.66 6.75-9.86 0.2-9.65-9.62-9.07-20.46-11.44 0.45 5.95-3.34 12.4-6.13 16.27-2.49 3.45-4.33 0.79-8.93 6.37-2.15 2.61-2.99 8.49-6.3 8.65-2.84 0.14-2.75 0.36-4.42 2.59-1.07-1.04-1.17-2.75-3.55-2.66-2.01 0.08-2.7 1.61-3.33 2.52-1.09-1.99-1.86-2.87-4.69-2.84-3.08 0.04-2.65-5.71 4.35-6.58 8.09-1.01 11.15-16.66 14.88-24.33-16.27-2.17-17.78-9.56-23.7-14.2-3.03-2.38-4.09-2.73-6.22-1.9-2.66-3.87-5.9-3.85-6.02-0.86-2.68-1.88-6.56-9.53-8.15-4.25-1.73-0.6-4.3-1.88-5.42-3.42-0.83 6.78 5.68 14.86 3.85 20.54-5.6-4.86-3.44 2.59-2.89 8.09-5.82-1.85 3.91 21.71-13.35 30.26-1.32-2.35-3.65-2.42-7.09-0.25-1.39-1.38-2.5-3.38-6.06-2.59 0.38-6.89 6.31-6.61 10.58-9.3 3.37-22.73-6.18-27.27-12.04-27.19 1.52 3.46 0.65 6.46-0.23 9.73-5.39-3.76-3.1 3.13-4.02 5.93-4.85-3.37-3.97 6.82-7.16 5.1-2.73-1.46-3.94-0.23-3.64 4.65-4.2 4.5-7.45 9.85-11.96 11.91-1.31 0.6-4.59 0.08-5.5 1.83-1.59-2.1-4.62-1.55-6.25-0.23-1.03-1.81-3.41-1.15-5.57-1.42-0.38-6.67 3.38-7.47 7.49-8.17 3.89-0.66 15.14-15.27 15.28-19.43 0.36-10.79 0.61-34.53-7.04-40.04-8.59 0.56-6.71-9.42-13.35-8.67 2.11-4.12-0.66-11.81-7.16-14.01 0.81-5.34-1.87-8.95-4.86-8.66 0.46-4.45-1.41-9.93-6.88-11.36 0.44-13.63-7.28-14.56-11.66-15.01-3.57-0.36-5.63-1.59-7.31-3.72-1.69-2.15 8.84-2.19 8.1-4.92-0.54-2.01-8.02 1.06-12.98-2.38z" style="fill:#fff;stroke-linecap:round;stroke-linejoin:round;stroke-miterlimit:4;stroke:#000"/>
</svg>
