<?xml version="1.0" encoding="UTF-8" standalone="no"?>
<svg
   xmlns:dc="http://purl.org/dc/elements/1.1/"
   xmlns:cc="http://creativecommons.org/ns#"
   xmlns:rdf="http://www.w3.org/1999/02/22-rdf-syntax-ns#"
   xmlns:svg="http://www.w3.org/2000/svg"
   xmlns="http://www.w3.org/2000/svg"
   id="svg2"
   version="1.1"
   x="0"
   y="0"
   width="400"
   height="500"
   viewBox="30.5 31.5 400 500"
   enable-background="new 30.5 31.5 412 533"
   xml:space="preserve"><metadata
     id="metadata4"><rdf:RDF><cc:Work
         rdf:about=""><dc:format>
          
          
          
          
          image/svg+xml
        
        
        
        
        </dc:format><dc:type
           rdf:resource="http://purl.org/dc/dcmitype/StillImage" /><dc:title></dc:title></cc:Work></rdf:RDF></metadata><defs
     id="defs6" /><path
     style="fill:#0085ca;fill-opacity:1"
     d="M 230.45,531.13 C 156.13,477.21 105.19,409.11 74.71,322.97 47.07,244.87 35.98,150.22 40.8,33.62 l 0.02,-0.46 379.82,0 0.02,0.46 c 4.81,116.6 -6.28,211.24 -33.91,289.35 -30.48,86.14 -81.42,154.24 -155.74,208.16 l -0.28,0.2 z"
     id="path4148" /><path
     id="path10"
     d="M 419.96,33.21 C 429.03,252.66 383.71,419.16 230.51,530.31 146.04,469.02 94.36,390.9 66.52,296.34 64.43,289.25 62.48,282.07 60.65,274.8 49.2,229.11 42.88,179.78 40.77,126.86 39.57,96.8 39.72,65.58 41.06,33.21 l 189.45,0 189.45,0 m 0.92,-0.95 -0.92,0 -189.45,0 -189.45,0 -0.92,0 -0.04,0.92 c -4.82,116.66 6.28,211.36 33.93,289.52 30.51,86.24 81.51,154.41 155.91,208.39 l 0.56,0.41 0.56,-0.41 C 305.46,477.11 356.46,408.94 386.97,322.7 414.62,244.54 425.72,149.84 420.9,33.18 l -0.04,-0.92 0,0 z" /><path
     id="path4568"
     d="m 153.5,218.5 c -17.81434,-21.31842 -38.13288,-43.854 -43.28491,-56.71305 -9.26033,-23.11313 4.45688,-39.60327 17.86881,-51.60827 l 50.02085,55.88302 c 0.94462,-27.7657 -0.0763,-60.00803 4.66121,-73.025506 C 191.28119,69.638294 212.5,66.5 230.5,66.5 l 0,75 c 21.31842,-17.81434 43.854,-38.13288 56.71305,-43.284908 23.11313,-9.26033 39.60327,4.456878 51.60827,17.868808 l -55.88302,50.02085 c 27.7657,0.94462 60.00803,-0.0763 73.02551,4.66121 C 379.36171,179.28119 382.5,200.5 382.5,218.5 l -75,0 c 17.81434,21.31842 38.13288,43.854 43.28491,56.71305 9.26033,23.11313 -4.45688,39.60327 -17.86881,51.60827 L 282.89525,270.9383 c -0.94462,27.7657 0.0763,60.00803 -4.66121,73.02551 C 269.71881,367.36171 248.5,370.5 230.5,370.5 l 0,-75 c -21.31842,17.81434 -43.854,38.13288 -56.71305,43.28491 -23.11313,9.26033 -39.60327,-4.45688 -51.60827,-17.86881 l 55.88302,-50.02085 c -27.7657,-0.94462 -60.00803,0.0763 -73.02551,-4.66121 C 81.6383,257.71881 78.5,236.5 78.5,218.5 l 75,0"
     style="fill:#ffffff;fill-rule:evenodd;stroke:#000000;stroke-width:1px;stroke-linecap:butt;stroke-linejoin:miter;stroke-opacity:1" /><path
     id="path4558"
     d="m 230.5,200.5 -18,18 18,18 18,-18 z"
     style="fill:#0085ca;fill-opacity:1;fill-rule:evenodd;stroke:#000000;stroke-width:1px;stroke-linecap:round;stroke-linejoin:round;stroke-opacity:1" /></svg>