<svg xmlns:dc="http://purl.org/dc/elements/1.1/" xmlns:cc="http://creativecommons.org/ns#" xmlns:rdf="http://www.w3.org/1999/02/22-rdf-syntax-ns#" xmlns:svg="http://www.w3.org/2000/svg" xmlns="http://www.w3.org/2000/svg" xml:space="preserve" enable-background="new 30.5 31.5 412 533" viewBox="30.5 31.5 400 500" height="500" width="400" y="0" x="0" version="1.1" id="svg2">
  <metadata id="metadata4">
    <rdf:RDF>
      <cc:Work rdf:about="">
        <dc:format>
          
          
          
          image/svg+xml
        
        
        
        </dc:format>
        <dc:type rdf:resource="http://purl.org/dc/dcmitype/StillImage"/>
      </cc:Work>
    </rdf:RDF>
  </metadata>
  <defs id="defs6"/>
  <path d="m230.44 531.14c-74.32-53.92-125.26-122.02-155.74-208.16-27.64-78.1-38.73-172.75-33.91-289.35l0.02-0.46 379.82 0 0.02 0.46c4.81 116.6-6.28 211.24-33.91 289.35-30.48 86.14-81.42 154.24-155.74 208.16l-0.28 0.2-0.28-0.2z" id="path8" fill="#0085ca"/>
  <path id="path4894" d="m42.35 160.73c26.54 50.15 96.19 145.43 169.59 144.98 43.48-0.27 70.88-34.66 69.62-68.08-0.9-23.8-17.8-34.54-33.27-34.19-17.79 0.4-31.76 10.94-31.73 24.95 0.04 16.1 10.77 21.44 21.25 23.1-7.31 6.85-19.45 8.5-28.91 4.14-15.86-7.29-25.78-31.12-23.4-49.33 7.35-56.18 58.32-72.71 90.66-71.54 43.01 1.56 74.02 38.17 87.95 66.82 10.82 22.24 25.17 59.52 30.5 95.18C364.54 397.98 308.25 474.83 230.5 530.85 118.26 448.4 55.46 332.77 42.35 160.73Z" style="fill-rule:evenodd;fill:#fff"/>
  <path d="m419.96 33.21c9.07 219.45-36.26 385.95-189.46 497.1C77.31 419.16 31.99 252.66 41.06 33.21l189.45 0 189.45 0m0.92-0.95-0.92 0-189.45 0-189.45 0-0.92 0-0.04 0.92c-4.82 116.66 6.28 211.36 33.93 289.52 30.51 86.24 81.51 154.41 155.91 208.39l0.56 0.41 0.56-0.41c74.4-53.98 125.4-122.15 155.91-208.39 27.65-78.16 38.75-172.86 33.93-289.52l-0.04-0.92 0 0z" id="path10"/>
  <path d="m42.35 160.73c26.54 50.15 96.19 145.43 169.59 144.98 43.48-0.27 70.88-34.66 69.62-68.08-0.9-23.8-17.8-34.54-33.27-34.19-17.79 0.4-31.76 10.94-31.73 24.95 0.04 16.1 10.77 21.44 21.25 23.1-7.31 6.85-19.45 8.5-28.91 4.14-15.86-7.29-25.78-31.12-23.4-49.33 7.35-56.18 58.32-72.71 90.66-71.54 43.01 1.56 74.02 38.17 87.95 66.82 10.82 22.24 25.17 59.52 30.5 95.18" id="path4896" style="fill:none;stroke:#000"/>
</svg>
