<?xml version="1.0" encoding="utf-8"?>
<!-- Generator: Adobe Illustrator 17.0.0, SVG Export Plug-In . SVG Version: 6.00 Build 0)  -->
<!DOCTYPE svg PUBLIC "-//W3C//DTD SVG 1.1//EN" "http://www.w3.org/Graphics/SVG/1.1/DTD/svg11.dtd">
<svg version="1.1" id="kniver" xmlns="http://www.w3.org/2000/svg" xmlns:xlink="http://www.w3.org/1999/xlink" x="0px" y="0px"
	 width="412px" height="533px" viewBox="30.5 31.5 412 533" enable-background="new 30.5 31.5 412 533" xml:space="preserve">
<g>
	<path fill="#32AC60" d="M237.267,558.404c-77.893-56.518-131.286-127.884-163.23-218.175
		C45.077,258.375,33.453,159.181,38.5,36.979l0.02-0.479H436.6l0.021,0.479c5.047,122.201-6.577,221.395-35.536,303.25
		c-31.944,90.291-85.337,161.657-163.23,218.175l-0.293,0.214L237.267,558.404z"/>
	<path d="M436.12,37c9.5,230-38,404.5-198.56,521C77,441.5,29.5,267,39,37c0,0,110.5,0,198.56,0S436.12,37,436.12,37 M437.079,36
		h-0.96H237.56H39h-0.96L38,36.959c-5.05,122.266,6.583,221.521,35.564,303.437c31.979,90.39,85.43,161.834,163.408,218.413
		l0.587,0.426l0.587-0.426c77.978-56.58,131.429-128.023,163.408-218.413c28.981-81.916,40.614-181.171,35.564-303.437L437.079,36
		L437.079,36z"/>
</g>
<g>
	<g>
		<g>
			<g>
				<path fill="#FFFFFF" d="M139.334,265.838l73.81-77.278l29.834,28.867l-0.345,0.359c-0.478,0.498-48.135,50.112-78.505,79.556
					c-25.799,25.011-37.61,28.706-64.787,32.889l-1.09,0.168L139.334,265.838z"/>
				<path d="M213.158,189.27l29.115,28.17c0,0-47.777,49.765-78.493,79.543c-25.892,25.102-37.949,28.665-64.516,32.754
					l40.491-63.63L213.158,189.27 M213.13,187.851l-0.695,0.728l-73.402,76.837l-0.068,0.071l-0.053,0.083L98.421,329.2
					l-1.184,1.861l2.18-0.335c27.294-4.201,39.155-7.911,65.06-33.024c30.377-29.449,78.04-79.071,78.518-79.568l0.69-0.719
					l-0.716-0.693l-29.115-28.17L213.13,187.851L213.13,187.851z"/>
			</g>
			<path fill="none" stroke="#000000" stroke-miterlimit="10" d="M109.229,312.743c16.133-1.685,22.412-7.008,40.939-24.723
				s48.552-47.214,55.509-54.256c10.161-10.286,20.25-17.919,29.488-8.694"/>
		</g>
		<g>
			<path fill="#FFFFFF" d="M212.701,188.142l0.127-0.313c18.433-45.288,65.761-91.87,120.573-118.673l0.313-0.153l0.252,0.24
				c5.359,5.109,8.633,8.243,10.627,10.161l0.315,0.26c0.053,0.049,1.442,1.342,13.536,13.244l0.248,0.244l-0.143,0.317
				c-25.039,55.641-70.085,104.433-114.76,124.304l-0.308,0.137L212.701,188.142z"/>
			<path d="M333.621,69.605c5.64,5.376,8.969,8.566,10.929,10.451l0.018-0.025c0,0,1.298,1.2,13.525,13.234
				c-24.868,55.26-69.503,104.035-114.507,124.052l-30.295-29.298C231.861,142.396,279.184,96.225,333.621,69.605 M333.807,68.401
				l-0.625,0.306c-54.917,26.855-102.34,73.539-120.817,118.934l-0.255,0.626l0.486,0.47l30.295,29.298l0.485,0.469l0.617-0.274
				c44.781-19.918,89.926-68.808,115.013-124.555l0.286-0.635l-0.496-0.488c-12.1-11.907-13.494-13.205-13.548-13.255l-0.821-0.759
				l-0.005,0.007c-2.45-2.353-5.845-5.598-10.11-9.663L333.807,68.401L333.807,68.401z"/>
		</g>
		<path fill="#FFFFFF" stroke="#000000" stroke-miterlimit="10" d="M358.458,78.952c-0.125-0.469-0.439-1.414-0.455-1.448
			c-0.784-2.194-1.9-3.866-3.37-5.21c-1.394-1.43-3.105-2.493-5.33-3.206c-0.034-0.014-0.987-0.297-1.461-0.406
			c-3.673,3.987-6.701,7.447-6.701,7.447l10.093,9.766C351.236,85.895,354.595,82.755,358.458,78.952z"/>
	</g>
	<line fill="none" stroke="#000000" stroke-miterlimit="10" x1="225.939" y1="163.618" x2="267.567" y2="204.023"/>
	<line fill="none" stroke="#000000" stroke-miterlimit="10" x1="306.691" y1="83.361" x2="345.128" y2="120.656"/>
</g>
<g>
	<g>
		<g>
			<g>
				<path fill="#FFFFFF" d="M185.348,345.827l73.81-77.278l29.834,28.867l-0.345,0.359c-0.478,0.498-48.135,50.112-78.505,79.556
					c-25.799,25.011-37.61,28.706-64.787,32.889l-1.09,0.168L185.348,345.827z"/>
				<path d="M259.172,269.259l29.115,28.17c0,0-47.777,49.765-78.493,79.543c-25.892,25.102-37.949,28.665-64.516,32.754
					l40.491-63.63L259.172,269.259 M259.144,267.84l-0.695,0.728l-73.402,76.837l-0.068,0.071l-0.053,0.083l-40.491,63.63
					l-1.184,1.861l2.18-0.335c27.294-4.201,39.155-7.911,65.06-33.024c30.377-29.449,78.04-79.07,78.518-79.568l0.69-0.719
					l-0.716-0.693l-29.115-28.17L259.144,267.84L259.144,267.84z"/>
			</g>
			<path fill="none" stroke="#000000" stroke-miterlimit="10" d="M155.243,392.733c16.133-1.685,22.412-7.008,40.939-24.723
				s48.552-47.214,55.509-54.256c10.161-10.286,20.25-17.919,29.488-8.694"/>
		</g>
		<g>
			<path fill="#FFFFFF" d="M258.715,268.131l0.127-0.313c18.433-45.288,65.761-91.87,120.573-118.673l0.313-0.153l0.252,0.24
				c5.359,5.109,8.633,8.243,10.627,10.161l0.315,0.26c0.053,0.049,1.442,1.342,13.536,13.244l0.248,0.244l-0.143,0.317
				c-25.039,55.641-70.085,104.433-114.76,124.304l-0.308,0.137L258.715,268.131z"/>
			<path d="M379.635,149.594c5.64,5.376,8.969,8.566,10.929,10.451l0.018-0.025c0,0,1.298,1.2,13.525,13.234
				c-24.868,55.26-69.503,104.035-114.507,124.052l-30.295-29.298C277.874,222.385,325.198,176.214,379.635,149.594 M379.821,148.39
				l-0.625,0.306c-54.917,26.855-102.34,73.539-120.817,118.934l-0.255,0.626l0.486,0.47l30.295,29.298l0.485,0.469l0.617-0.274
				c44.781-19.918,89.926-68.808,115.013-124.555l0.286-0.635l-0.496-0.488c-12.1-11.907-13.494-13.205-13.548-13.255l-0.821-0.759
				l-0.005,0.007c-2.45-2.353-5.845-5.598-10.11-9.663L379.821,148.39L379.821,148.39z"/>
		</g>
		<path fill="#FFFFFF" stroke="#000000" stroke-miterlimit="10" d="M404.472,158.941c-0.125-0.469-0.439-1.414-0.455-1.448
			c-0.784-2.194-1.9-3.866-3.37-5.21c-1.394-1.43-3.105-2.493-5.33-3.206c-0.034-0.014-0.987-0.297-1.461-0.406
			c-3.673,3.987-6.701,7.447-6.701,7.447l10.093,9.766C397.25,165.884,400.608,162.744,404.472,158.941z"/>
	</g>
	<line fill="none" stroke="#000000" stroke-miterlimit="10" x1="271.952" y1="243.607" x2="313.58" y2="284.012"/>
	<line fill="none" stroke="#000000" stroke-miterlimit="10" x1="352.704" y1="163.35" x2="391.142" y2="200.645"/>
</g>
</svg>
