<svg xmlns:dc="http://purl.org/dc/elements/1.1/" xmlns:cc="http://creativecommons.org/ns#" xmlns:rdf="http://www.w3.org/1999/02/22-rdf-syntax-ns#" xmlns:svg="http://www.w3.org/2000/svg" xmlns="http://www.w3.org/2000/svg" xml:space="preserve" enable-background="new 30.5 31.5 412 533" viewBox="30.5 31.5 400 500" height="500" width="400" y="0" x="0" version="1.1"><metadata><rdf:RDF><cc:Work rdf:about=""><dc:format>image/svg+xml</dc:format><dc:type rdf:resource="http://purl.org/dc/dcmitype/StillImage"/><dc:title/></cc:Work></rdf:RDF></metadata><defs/><path fill="#e00e00" d="M230.45 531.13C156.13 477.21 105.19 409.11 74.71 322.97 47.07 244.87 35.98 150.22 40.8 33.62l0.02-0.46 379.82 0 0.02 0.46c4.81 116.6-6.28 211.24-33.91 289.35-30.48 86.14-81.42 154.24-155.74 208.16l-0.28 0.2-0.28-0.2z" style="fill:#32ac60;fill-opacity:1"/><path d="M419.96 33.21C429.03 252.66 383.71 419.16 230.51 530.31 146.04 469.02 94.36 390.9 66.52 296.34 64.43 289.25 62.48 282.07 60.65 274.8 49.2 229.11 42.88 179.78 40.77 126.86 39.57 96.8 39.72 65.58 41.06 33.21l189.45 0 189.45 0m0.92-0.95-0.92 0-189.45 0-189.45 0-0.92 0-0.04 0.92c-4.82 116.66 6.28 211.36 33.93 289.52 30.51 86.24 81.51 154.41 155.91 208.39l0.56 0.41 0.56-0.41C305.46 477.11 356.46 408.94 386.97 322.7 414.62 244.54 425.72 149.84 420.9 33.18l-0.04-0.92 0 0z"/><path d="m 245.16 295.24 c 0.8 3 -0.15 7.17 -1.05 9.77 -0.6 1.8 -1.1 3.5 0.3 5.4 2.6 3.4 4.8 16.4 1.3 26.4 -2.7 7.8 -2.5 22.3 -2.7 33.5 -0.3 26.6 -0.48 49.82 1.92 79.02 0.3 3.5 1.45 6.63 5.15 6.93 10.5 0.9 14.43 -3.61 22.23 -0.21 3.1 1.3 6.79 5.07 4.29 7.07 0.01 0.81 -3.98 -1.69 -5.39 -1.78 -7.8 0.1 -10.98 2.09 -17.58 1.99 -2.8 0 -6.5 -1.1 -10.2 -0.9 -7.9 0.4 -11.6 6.1 -21.3 7.6 -8 1.2 -18.6 -2.2 -23.8 0.7 -1.7 0.9 -2.9 2.5 -4.3 3.9 -3.86 -5.62 -2.44 -7.94 -2.37 -7.92 l 3.9 -2.46 c 0.56 -0.35 -2.47 -0.21 -6.09 0.37 -0.62 -2.08 0.26 -8.15 4.71 -8.71 4.46 -0.56 5.44 0.09 5.55 -0.3 0.55 -1.93 -0.23 -5.05 5.19 -5.12 4.72 0.74 12.57 3.79 19.46 4.89 5.74 0.92 10.48 0.05 10.44 -1.86 L 232.61 345.21 c 0 -2 -4.1 -4.5 -4.2 -10.6 0 -10.5 0.4 -28.8 -1.3 -31.7 -3.5 -6.1 -5.15 -17.97 -3.15 -24.67 5.9 5.5 13.3 11.7 21.1 16.8 l 0 0 z" style="fill:#ffffff;stroke:#000000;stroke-width:1.00462556px;stroke-linecap:butt;stroke-linejoin:miter;stroke-opacity:1"/><path d="m 250.56 298.41 c 9.5 6.2 16.9 9.6 30.9 14.7 -0.2 4.5 5.63 7.22 7.43 11.52 1.69 1.98 -0.8 10.35 -4.31 11.49 -31.6 10.13 -70.25 17.51 -94.22 29.2 -1.35 0.66 -2.64 1.44 -3.94 2.21 -6.8 7.73 21.26 3.29 10.84 19.98 -2.83 0.74 -0.83 -7.19 -11.04 -7.16 -6.4 -1.3 -0.7 -2.74 -7.6 -2.24 -4.7 0.4 -6.48 1.78 -8.98 3.68 -6.5 4.8 -11.52 3.22 -18.82 7.52 -3.9 2.3 -1.05 5.18 -3.72 7.85 -6.7 -2.8 -6.95 -6.91 -5 -10.77 7.41 -5.36 9.72 -2.48 22.42 -12.38 -7.9 4.6 -16.13 1.85 -24.63 2.35 -3.6 0.2 -6.73 6.73 -7.03 6.63 -2.4 -0.8 -4.85 -9.6 0.05 -12.2 6.6 -3.5 17.75 2.92 30.55 -2.88 -7 -0.4 -8.83 -1.98 -19.33 -4.98 -2.4 -0.7 -3.8 2.1 -5.5 3.5 -3.5 -4.8 -1.8 -10.5 5.9 -10.6 14.59 2 19.95 7.19 27.65 6.19 C 194.84 357.83 231.51 340.21 262.81 331.21 c 3.8 -1.1 4.3 -10.7 2.1 -11.4 -6.52 -3.22 -15.08 -16.39 -14.35 -21.4 z" style="fill:#ffffff;stroke:#000000;stroke-opacity:1;stroke-linejoin:round"/><path d="m 72.6 80.62 c 24.1 5.4 56.94 7.09 111.26 9.66 7.53 0.36 7.03 12.46 2.55 13.04 -15.75 2.05 -29.71 0.04 -44.71 12.24 -12.3 10 -14.64 27.73 -9.63 44.53 8.59 28.8 33.28 45.5 26.34 74.42 5.2 -0.7 8 -7.4 11.1 -12.3 -1.81 4.12 -2.8 19.4 2.1 26.3 3.3 -5 7.52 -9.73 7.52 -9.73 0.27 11.32 0.15 26.48 3.88 38.93 1.95 -7.73 0.34 -14.27 1.34 -19.27 2.29 4.55 0.97 10.85 2.02 13.94 0.46 -2.68 4.63 -7.29 2.88 -16.25 0.1 1.9 3.83 14.17 4.58 26.09 4.67 -6.28 3.97 -19.58 3.97 -19.58 0 0 0.43 4.25 4.73 10.65 -0.03 -4.2 0.92 -12.14 -0.12 -18.87 10.2 18.5 71.8 82.9 160.2 67.1 -0.89 -5.33 -10.4 -15.21 -11.7 -15.5 l 16 2.6 c -4.6 -17.8 -14.44 -38.56 -26.04 -52.16 0 0 0.22 -0.16 -0.12 -0.69 -6.1 -19.7 -47.34 -87.74 -93.04 -111.54 -10.1 -5.3 -38.9 -13.6 -58.5 1.1 -4.1 3.1 -4.7 5.9 -5.1 16.6 -0.3 7.4 -20 7.2 -24 -6 -2 -6.8 -1 -14 6.2 -21.9 7.2 -7.8 17.2 -3.3 32.3 -9.2 10.3 -4.1 23.7 -17.1 21 -37.7 -0.7 -5.2 -7.1 -10.6 -12.4 -12 5.2 0.4 11.1 6.2 13.1 11.5 9.2 25 19.17 42.13 39.29 41.21 -6.44 -4.18 -13.45 -7.39 -12.97 -7.15 7.33 3.65 9.69 2.94 13.99 0.55 -26.3 -2.7 -19.4 -36 -49 -57.5 -22.6 -16.4 -52.87 -16.69 -73.6 -4 -7.5 3.6 -12.7 8.8 -22.6 10.4 -20.9 3.4 -52.85 3.55 -63.2 10.9 18.98 0.01 16.32 -0.39 20.39 -0.39 z" style="fill:#ffffff;stroke:#000000;stroke-linejoin:round;stroke-opacity:1"/><path d="m 154.64 72.94 a 3.6 3.1 0 0 1 -7.2 0 3.6 3.1 0 1 1 7.2 0 z" style="opacity:0.98999999;fill:#000000;fill-opacity:1;fill-rule:nonzero;stroke:none"/><path d="m 155.61 72.88 a 2.97 2.39 0 0 1 -5.94 0 2.97 2.39 0 1 1 5.94 0 z" style="opacity:0.98999999;fill:#ffffff;fill-opacity:1;fill-rule:nonzero;stroke:none"/><path style="fill:none;fill-rule:evenodd;stroke:#000000;stroke-width:1px;stroke-linecap:round;stroke-linejoin:miter;stroke-opacity:1" d="m 63.31 81.26 c -2.21 -0.35 51.03 -4.61 73.76 -3.06 10.87 0.74 21.24 3.7 21.24 3.7"/><path style="fill:none;fill-rule:evenodd;stroke:#000000;stroke-width:1px;stroke-linecap:round;stroke-linejoin:miter;stroke-opacity:1" d="m 301.36 276.47 c 12.38 12.94 29.37 22.78 49.88 29.62"/><path style="fill:none;fill-rule:evenodd;stroke:#000000;stroke-width:1px;stroke-linecap:round;stroke-linejoin:miter;stroke-opacity:1" d="m 340.89 256.43 c -10.8 -5.37 -22.17 -12.06 -30.82 -21.35"/><path style="fill:none;fill-rule:evenodd;stroke:#000000;stroke-width:1px;stroke-linecap:round;stroke-linejoin:miter;stroke-opacity:1" d="m 227.72 90.07 c 4.31 9.98 10.96 26.72 19.95 31.11"/><path style="fill:none;fill-rule:evenodd;stroke:#000000;stroke-width:1px;stroke-linecap:round;stroke-linejoin:miter;stroke-opacity:1" d="m 197.97 455.77 c 8.23 -0.06 13.13 0.92 19.23 2.21"/><path style="fill:none;fill-rule:evenodd;stroke:#000000;stroke-width:1px;stroke-linecap:round;stroke-linejoin:miter;stroke-opacity:1" d="m 194.87 464.74 c 3.21 -2.55 12.88 -2.19 27.09 -2.15"/></svg>