<?xml version="1.0" encoding="UTF-8" standalone="no"?>
<svg
   xmlns:dc="http://purl.org/dc/elements/1.1/"
   xmlns:cc="http://creativecommons.org/ns#"
   xmlns:rdf="http://www.w3.org/1999/02/22-rdf-syntax-ns#"
   xmlns:svg="http://www.w3.org/2000/svg"
   xmlns="http://www.w3.org/2000/svg"
   xml:space="preserve"
   enable-background="new 30.5 31.5 412 533"
   viewBox="30.5 31.5 440 500"
   height="500"
   width="440"
   y="0"
   x="0"
   version="1.1"
   id="svg2"><metadata
     id="metadata4"><rdf:RDF><cc:Work
         rdf:about=""><dc:format>
          
          
          
          
          image/svg+xml
        
        
        
        
        </dc:format><dc:type
           rdf:resource="http://purl.org/dc/dcmitype/StillImage" /><dc:title></dc:title></cc:Work></rdf:RDF></metadata><defs
     id="defs6" /><path
     style="fill:#009be0;fill-rule:evenodd;stroke:none;stroke-width:1px;stroke-linecap:round;stroke-linejoin:round;stroke-opacity:1;fill-opacity:1"
     d="m 300.60647,500 110.63962,0 C 451.15447,500 468.5,475.11388 468.5,444.7286 l 0,-411.2286 -218,0 -218,0 0,411.2286 C 32.5,475.11388 49.845535,500 89.753916,500 l 110.639614,0 c 29.82016,0 42.71323,18.77085 50.10647,30.3 7.39324,-11.52915 20.28631,-30.3 50.10647,-30.3 z"
     id="path4384" /><path
     id="path4402"
     d="m 186.5,478 c -32,0 -32,-9 -64,-9 -32,0 -32,9 -64,9 -7.314839,0 -12.957588,-0.47028 -17.692689,-1.19583 -4.531546,-7.61576 -6.090683,-13.63099 -7.229663,-19.41998 C 39.751371,458.85624 47.092325,460 58.5,460 c 32,0 32,-9 64,-9 32,0 32,9 64,9 32,0 32,-9 64,-9 32,0 32,9 64,9 32,0 32,-9 64,-9 32,0 32,9 64,9 11.40767,0 18.74863,-1.14376 24.92235,-2.61581 -1.13898,5.78899 -2.69812,11.80422 -7.22966,19.41998 C 455.45759,477.52972 449.81484,478 442.5,478 c -32,0 -32,-9 -64,-9 -32,0 -32,9 -64,9 -32,0 -32,-9 -64,-9 -32,0 -32,9 -64,9 z"
     style="fill:#fded5a;fill-rule:evenodd;stroke:none;stroke-width:1px;stroke-linecap:butt;stroke-linejoin:miter;stroke-opacity:1;fill-opacity:1" /><path
     style="fill:#fded5a;fill-rule:evenodd;stroke:none;stroke-width:1px;stroke-linecap:butt;stroke-linejoin:miter;stroke-opacity:1;fill-opacity:1"
     d="m 186.5,436.5 c -32,0 -32,-9 -64,-9 -32,0 -32,9 -64,9 -12.078703,0 -19.598185,-1.28228 -26.000289,-2.87882 l 0.103634,-17.97421 C 38.983018,417.23151 46.48641,418.5 58.5,418.5 c 32,0 32,-9 64,-9 32,0 32,9 64,9 32,0 32,-9 64,-9 32,0 32,9 64,9 32,0 32,-9 64,-9 32,0 32,9 64,9 12.01359,0 19.51699,-1.26849 25.89666,-2.85303 l 0.10363,17.97421 C 462.09819,435.21772 454.57871,436.5 442.5,436.5 c -32,0 -32,-9 -64,-9 -32,0 -32,9 -64,9 -32,0 -32,-9 -64,-9 -32,0 -32,9 -64,9 z"
     id="path4400" /><path
     id="path4398"
     d="m 186.5,395 c -32,0 -32,-9 -64,-9 -32,0 -32,9 -64,9 -12.02987,0 -19.537309,-1.27193 -25.922584,-2.85948 L 32.400968,374.0965 C 38.824548,375.70449 46.359143,377 58.5,377 c 32,0 32,-9 64,-9 32,0 32,9 64,9 32,0 32,-9 64,-9 32,0 32,9 64,9 32,0 32,-9 64,-9 32,0 32,9 64,9 12.14086,0 19.67546,-1.29551 26.09904,-2.9035 l -0.17645,18.04402 C 462.03731,393.72807 454.52987,395 442.5,395 c -32,0 -32,-9 -64,-9 -32,0 -32,9 -64,9 -32,0 -32,-9 -64,-9 -32,0 -32,9 -64,9 z"
     style="fill:#fded5a;fill-rule:evenodd;stroke:none;stroke-width:1px;stroke-linecap:butt;stroke-linejoin:miter;stroke-opacity:1;fill-opacity:1" /><path
     style="fill:none;fill-rule:evenodd;stroke:#000000;stroke-width:1px;stroke-linecap:butt;stroke-linejoin:miter;stroke-opacity:1"
     d="M 33.577648,457.38419 C 39.751371,458.85624 47.092325,460 58.5,460 c 32,0 32,-9 64,-9 32,0 32,9 64,9 32,0 32,-9 64,-9 32,0 32,9 64,9 32,0 32,-9 64,-9 32,0 32,9 64,9 11.40767,0 18.74863,-1.14376 24.92235,-2.61581 m -7.22966,19.41998 C 455.45759,477.52972 449.81484,478 442.5,478 c -32,0 -32,-9 -64,-9 -32,0 -32,9 -64,9 -32,0 -32,-9 -64,-9 -32,0 -32,9 -64,9 -32,0 -32,-9 -64,-9 -32,0 -32,9 -64,9 -7.314839,0 -12.957588,-0.47028 -17.692689,-1.19583"
     id="path4253" /><path
     id="path4273"
     d="M 468.50029,433.62118 C 462.09819,435.21772 454.57871,436.5 442.5,436.5 c -32,0 -32,-9 -64,-9 -32,0 -32,9 -64,9 -32,0 -32,-9 -64,-9 -32,0 -32,9 -64,9 -32,0 -32,-9 -64,-9 -32,0 -32,9 -64,9 -12.078703,0 -19.598185,-1.28228 -26.000289,-2.87882 m 0.103634,-17.97421 C 38.983018,417.23151 46.48641,418.5 58.5,418.5 c 32,0 32,-9 64,-9 32,0 32,9 64,9 32,0 32,-9 64,-9 32,0 32,9 64,9 32,0 32,-9 64,-9 32,0 32,9 64,9 12.01359,0 19.51699,-1.26849 25.89666,-2.85303"
     style="fill:none;fill-rule:evenodd;stroke:#000000;stroke-width:1px;stroke-linecap:butt;stroke-linejoin:miter;stroke-opacity:1" /><path
     style="fill:none;fill-rule:evenodd;stroke:#000000;stroke-width:1px;stroke-linecap:butt;stroke-linejoin:miter;stroke-opacity:1"
     d="M 32.400968,374.0965 C 38.824548,375.70449 46.359143,377 58.5,377 c 32,0 32,-9 64,-9 32,0 32,9 64,9 32,0 32,-9 64,-9 32,0 32,9 64,9 32,0 32,-9 64,-9 32,0 32,9 64,9 12.14086,0 19.67546,-1.29551 26.09904,-2.9035 m -0.17645,18.04402 C 462.03731,393.72807 454.52987,395 442.5,395 c -32,0 -32,-9 -64,-9 -32,0 -32,9 -64,9 -32,0 -32,-9 -64,-9 -32,0 -32,9 -64,9 -32,0 -32,-9 -64,-9 -32,0 -32,9 -64,9 -12.02987,0 -19.537309,-1.27193 -25.922584,-2.85948"
     id="path4275" /><path
     style="fill:#fded5a;fill-rule:evenodd;stroke:#000000;stroke-width:1px;stroke-linecap:round;stroke-linejoin:round;stroke-opacity:1;fill-opacity:1"
     d="m 250.5,356 c 32,0 32,9 64,9 32,0 32,-9 64,-9 13.3631,0 21.14582,1.56949 28.00884,3.39763 2.91209,-8.24982 10.19635,-16.00897 14.41285,-19.95871 -101.01023,9.49075 -208.60108,8.02791 -297.33043,-2.62893 4.24251,6.25665 7.83692,13.09857 10.48433,19.65581 C 155.10791,358.30998 158.91058,365 186.5,365 c 32,0 32,-9 64,-9"
     id="path4279" /><path
     id="path4295"
     d="m 421.63511,336.41674 -66.76798,4.20892 c -42.25284,1.59604 -84.51759,2.55931 -126.75852,0.91193 -37.15131,-1.44889 -73.80435,-4.2351 -109.08107,-8.62828 L 104.08588,321.54523 68.730988,322.03628 41.723776,299.65887 179.63593,121.34113 c -1.55835,-8.95731 -1.43155,-14.33264 -0.42089,-20.13764 1.24158,-7.131324 3.41389,-9.420786 5.12084,-14.305327 l -4.17985,-1.011136 0.54416,-2.256791 38.14881,7.476843 1.62878,-30.654938 2.67853,0.07015 -1.01033,31.216126 40.125,9.750653 -0.63134,2.50833 -4.84025,-1.10536 c -4.76433,5.82117 -8.76594,12.94996 -8.52409,19.43616 0.41068,11.01408 1.7189,20.99322 8.17335,32.61411 l 6.31337,1.40297 -0.70149,2.3149 -4.9104,-1.19252 c -3.94611,7.07184 -7.42777,13.56652 -7.64218,23.62597 -0.37141,17.42541 3.63909,36.75475 16.7615,53.18675 l 6.24323,0.91193 -0.49104,2.52535 -5.61189,-0.91194 c -1.44601,10.82175 -3.22127,21.69838 -3.15669,32.26836 0.10598,17.34597 2.58246,34.83818 19.85205,52.9622 10.92862,0.49071 20.64737,0.22524 30.09375,-0.21045 l 4.84026,-91.33348 c 0.0928,-1.75105 -2.34983,-3.75268 -5.0507,-4.48951 -3.90089,-1.06422 -6.01055,-1.15156 -8.48798,-2.52535 -1.4775,-0.81931 -2.24465,-2.46864 -2.94624,-4.13877 -6.22843,1.87182 -10.32167,1.02173 -14.45061,-0.84178 -3.9277,-1.77268 -5.68486,-5.29332 -8.13724,-8.20739 l -5.68204,-0.98208 0.28059,-2.59549 8.55813,1.26267 c -2.65906,-10.6392 -3.53171,-21.27869 -3.43728,-31.91761 0.17722,-19.96563 5.46021,-32.35992 10.1014,-42.7205 l -6.87456,-1.05223 0.49104,-2.7358 7.2253,1.26268 c -1.29152,-11.35275 -1.11517,-20.93493 0.63134,-29.25197 1.61607,-7.695898 4.35781,-14.463251 6.94471,-21.184877 l -6.10292,-1.402972 0.56118,-2.525349 31.91762,6.734266 -0.0701,-19.641609 c -7.20194,1.806593 -14.07246,3.888312 -21.18492,3.156687 -6.67887,-0.687023 -12.45525,-4.944965 -18.0282,-5.611888 -4.69684,-0.562076 -9.30385,0.111838 -14.59091,1.052229 4.85899,-2.737888 9.46379,-5.777107 16.41477,-5.611888 6.95451,0.165303 8.33833,3.488416 17.04611,3.788024 7.64954,0.263197 17.79437,-3.390515 23.64008,-5.401442 l -0.0701,29.181818 53.31294,11.504371 -0.84178,2.81798 -5.61189,-1.274711 c -3.86408,7.008321 -6.9693,14.165811 -7.5059,21.746071 -0.70912,10.01737 1.39685,19.10501 4.7701,27.63854 l 9.47007,2.10446 -0.63134,2.52535 -5.12085,-1.40297 c -4.86958,7.34054 -9.9961,14.41208 -11.08348,29.95345 -1.19405,17.06601 5.67336,33.35618 10.2417,45.1757 l 6.31337,1.19253 -0.35074,2.5955 -6.45367,-1.40297 c -4.88546,3.35755 -10.49946,5.24092 -16.69537,5.12084 -7.64403,-0.14815 -11.84304,-3.36416 -16.20433,-6.17307 -1.88262,1.79482 -3.86366,3.4693 -7.01486,2.4552 -2.33829,-0.75249 -4.67657,-1.29837 -7.01486,-1.12238 -1.91443,0.14408 -4.65099,1.06361 -4.69995,3.15669 l -0.56119,23.99082 100.10205,-33.39074 c -6.20378,11.92341 -10.43945,27.65073 -9.61036,41.10708 0.80385,13.04668 6.67847,26.70597 19.57146,39.07278 l -111.74672,5.75218 -0.1403,8.69843 31.84747,-0.98208 0,7.2253 39.8444,-1.26267 0.0701,-4.27907 13.25814,-0.28059 0.35074,4.84025 21.72587,-0.60454 c 1.17307,-0.0326 -2.64284,15.69753 -4.6933,15.82679 z"
     style="fill:#fded5a;fill-opacity:1;fill-rule:evenodd;stroke:#000000;stroke-width:1;stroke-linecap:round;stroke-linejoin:round;stroke-miterlimit:4;stroke-dasharray:none;stroke-opacity:1" /><path
     id="path4316"
     d="m 47.464073,301.54257 21.329097,16.96407 6.150716,-9.8213 z"
     style="fill:#009be0;fill-rule:evenodd;stroke:#000000;stroke-width:1px;stroke-linecap:round;stroke-linejoin:round;stroke-opacity:1;fill-opacity:1" /><path
     id="path4320"
     d="m 70.876477,319.20108 6.150716,-9.8213 23.114787,9.22607 z"
     style="fill:#009be0;fill-rule:evenodd;stroke:#000000;stroke-width:1px;stroke-linecap:round;stroke-linejoin:round;stroke-opacity:1;fill-opacity:1" /><path
     id="path4322"
     d="m 46.472022,297.77278 44.840707,8.03561 c -4.903963,-4.73512 -12.158796,-10.91683 -19.841021,-12.40064 -9.299385,-1.79616 -17.966547,1.76288 -24.999686,4.36503 z"
     style="fill:#009be0;fill-rule:evenodd;stroke:#000000;stroke-width:1;stroke-linecap:round;stroke-linejoin:round;stroke-opacity:1;stroke-miterlimit:4;stroke-dasharray:none;fill-opacity:1" /><path
     id="path4324"
     d="m 95.975368,306.60203 55.554862,6.44833 c -7.99736,-4.78838 -14.72656,-11.02015 -26.48777,-12.20223 -12.03389,-1.20949 -20.29652,2.77617 -29.067092,5.7539 z"
     style="fill:#009be0;fill-rule:evenodd;stroke:#000000;stroke-width:1px;stroke-linecap:round;stroke-linejoin:round;stroke-opacity:1;fill-opacity:1" /><path
     id="path4326"
     d="m 92.90001,304.32031 78.17362,-103.57013 c -4.65036,-11.90796 -2.39649,-27.05987 -0.69443,-34.02734 1.70368,-6.97411 5.16755,-18.82259 14.58315,-27.38061 l -5.25787,-1.38888 0.69443,-2.28171 6.49794,1.56248 -6.74595,-14.58315 c 0,0 -13.98032,17.72182 -29.2541,40.77159 -14.6715,22.14086 -30.46157,49.33233 -38.55259,68.57723 -10.79998,25.68831 -21.262661,50.70364 -19.4442,72.32052 z"
     style="fill:#009be0;fill-rule:evenodd;stroke:#000000;stroke-width:1px;stroke-linecap:round;stroke-linejoin:round;stroke-opacity:1;fill-opacity:1" /><path
     id="path4328"
     d="m 181.68858,315.03446 -26.98379,-1.78569 c -6.36356,-15.31248 -7.67146,-31.52632 -6.05151,-45.43594 2.76654,-23.75479 12.77165,-44.85734 23.11479,-65.67377 l 6.64674,17.5593 -6.24992,-0.89285 -0.49603,2.38093 6.15072,1.09125 c -7.61945,12.12243 -10.13645,26.88347 -8.92846,42.6582 1.30767,17.07638 5.06373,33.87194 12.79746,50.09857 z"
     style="fill:#009be0;fill-rule:evenodd;stroke:#000000;stroke-width:1px;stroke-linecap:round;stroke-linejoin:round;stroke-opacity:1;fill-opacity:1" /><path
     id="path4330"
     d="m 185.45837,315.53049 15.81843,0.82887 0.64962,-6.78118 12.79746,0.53126 0.29761,-14.02315 c -9.02607,0.35243 -25.29491,9.15619 -29.56312,19.4442 z"
     style="fill:#009be0;fill-opacity:1;fill-rule:evenodd;stroke:#000000;stroke-width:1;stroke-linecap:round;stroke-linejoin:round;stroke-miterlimit:4;stroke-dasharray:none;stroke-opacity:1" /><path
     id="path4332"
     d="m 218.4232,295.98708 -0.0287,14.28554 24.20604,1.9841 -0.44163,6.61801 32.7825,2.31045 c -11.138,-12.34898 -36.58276,-24.24093 -56.51818,-25.1981 z"
     style="fill:#009be0;fill-opacity:1;fill-rule:evenodd;stroke:#000000;stroke-width:1;stroke-linecap:round;stroke-linejoin:round;stroke-miterlimit:4;stroke-dasharray:none;stroke-opacity:1" /><path
     id="path4334"
     d="m 259.36617,231.99979 -39.88045,-6.24992 0,-15.67441 c 14.29841,4.00034 34.41359,13.8243 39.88045,21.92433 z"
     style="fill:#009be0;fill-rule:evenodd;stroke:#000000;stroke-width:1px;stroke-linecap:round;stroke-linejoin:round;stroke-opacity:1;fill-opacity:1" /><path
     id="path4336"
     d="m 216.41036,225.25385 0.0992,-15.5752 c -13.63824,0.38286 -28.38464,4.97317 -35.51542,10.41653 z"
     style="fill:#009be0;fill-rule:evenodd;stroke:#000000;stroke-width:1px;stroke-linecap:round;stroke-linejoin:round;stroke-opacity:1;fill-opacity:1" /><path
     id="path4338"
     d="m 189.72419,137.85415 30.05915,7.14277 0,-12.10303 c -8.67816,-1.27578 -21.93133,1.59061 -30.05915,4.96026 z"
     style="fill:#009be0;fill-rule:evenodd;stroke:#000000;stroke-width:1px;stroke-linecap:round;stroke-linejoin:round;stroke-opacity:1;fill-opacity:1" /><path
     id="path4340"
     d="m 250.5,152.33809 -27.34369,-6.34912 0,-12.79746 c 8.30334,2.23426 22.32409,11.87948 27.34369,19.14658 z"
     style="fill:#009be0;fill-rule:evenodd;stroke:#000000;stroke-width:1px;stroke-linecap:round;stroke-linejoin:round;stroke-opacity:1;fill-opacity:1" /><path
     id="path4344"
     d="m 319.51835,123.30675 c -6.27532,-0.33986 -16.94343,2.80594 -24.9114,7.76559 l 24.98828,4.69011 z"
     style="fill:#009be0;fill-rule:evenodd;stroke:#000000;stroke-width:1px;stroke-linecap:round;stroke-linejoin:round;stroke-opacity:1;fill-opacity:1" /><path
     id="path4346"
     d="m 322.90138,123.07609 0.15377,13.45523 39.67371,7.76559 c -7.22239,-8.32448 -25.93632,-20.89471 -39.82748,-21.22082 z"
     style="fill:#009be0;fill-rule:evenodd;stroke:#000000;stroke-width:1px;stroke-linecap:round;stroke-linejoin:round;stroke-opacity:1;fill-opacity:1" /><path
     id="path4348"
     d="m 286.38004,208.34381 32.36944,5.45898 0.46132,-15.37741 c -13.44295,-1.1876 -26.63837,-1.13605 -32.83076,9.91843 z"
     style="fill:#009be0;fill-rule:evenodd;stroke:#000000;stroke-width:1;stroke-linecap:round;stroke-linejoin:round;stroke-opacity:1;stroke-miterlimit:4;stroke-dasharray:none;fill-opacity:1" /><path
     id="path4350"
     d="m 323.05516,198.80982 -0.15378,16.14627 45.0558,8.68824 c -10.12968,-9.25971 -31.08585,-23.87415 -44.90202,-24.83451 z"
     style="fill:#009be0;fill-rule:evenodd;stroke:#000000;stroke-width:1;stroke-linecap:round;stroke-linejoin:round;stroke-opacity:1;stroke-miterlimit:4;stroke-dasharray:none;fill-opacity:1" /><rect
     transform="matrix(0.99895433,-0.04571914,0.04411272,0.99902656,0,0)"
     y="344.86758"
     x="371.88846"
     height="5.2371392"
     width="14.856245"
     id="rect4364"
     style="opacity:1;fill:#009be0;fill-opacity:1;fill-rule:evenodd;stroke:#000000;stroke-width:1.00000065;stroke-linecap:round;stroke-linejoin:round;stroke-miterlimit:4;stroke-dasharray:none;stroke-opacity:1" /><rect
     style="opacity:1;fill:#009be0;fill-opacity:1;fill-rule:evenodd;stroke:#000000;stroke-width:1.00000065;stroke-linecap:round;stroke-linejoin:round;stroke-miterlimit:4;stroke-dasharray:none;stroke-opacity:1"
     id="rect4366"
     width="14.856245"
     height="5.2371392"
     x="349.51544"
     y="338.38162"
     transform="matrix(0.99961166,-0.02786626,0.02625881,0.99965518,0,0)" /><rect
     transform="matrix(0.99997383,-0.00723456,0.00562655,0.99998417,0,0)"
     y="331.44153"
     x="325.97104"
     height="5.2371392"
     width="14.856245"
     id="rect4368"
     style="opacity:1;fill:#009be0;fill-opacity:1;fill-rule:evenodd;stroke:#000000;stroke-width:1.00000065;stroke-linecap:round;stroke-linejoin:round;stroke-miterlimit:4;stroke-dasharray:none;stroke-opacity:1" /><rect
     style="opacity:1;fill:#009be0;fill-opacity:1;fill-rule:evenodd;stroke:#000000;stroke-width:1.00000065;stroke-linecap:round;stroke-linejoin:round;stroke-miterlimit:4;stroke-dasharray:none;stroke-opacity:1"
     id="rect4370"
     width="14.856245"
     height="5.2371392"
     x="298.08536"
     y="329.6138"
     transform="matrix(0.99999946,-0.0010396,-5.6844691e-4,0.99999984,0,0)" /><rect
     transform="matrix(0.99998923,0.00464082,-0.00624885,0.99998048,0,0)"
     y="327.96545"
     x="270.01471"
     height="5.2371392"
     width="14.856245"
     id="rect4372"
     style="opacity:1;fill:#009be0;fill-opacity:1;fill-rule:evenodd;stroke:#000000;stroke-width:1.00000065;stroke-linecap:round;stroke-linejoin:round;stroke-miterlimit:4;stroke-dasharray:none;stroke-opacity:1" /><rect
     style="opacity:1;fill:#009be0;fill-opacity:1;fill-rule:evenodd;stroke:#000000;stroke-width:1.00000065;stroke-linecap:round;stroke-linejoin:round;stroke-miterlimit:4;stroke-dasharray:none;stroke-opacity:1"
     id="rect4374"
     width="14.856245"
     height="5.2371392"
     x="244.93407"
     y="323.16718"
     transform="matrix(0.99976478,0.0216883,-0.02329595,0.99972861,0,0)" /><rect
     transform="matrix(0.99920384,0.03989597,-0.0415027,0.99913839,0,0)"
     y="318.41998"
     x="220.74121"
     height="5.2371392"
     width="14.856245"
     id="rect4376"
     style="opacity:1;fill:#009be0;fill-opacity:1;fill-rule:evenodd;stroke:#000000;stroke-width:1.00000065;stroke-linecap:round;stroke-linejoin:round;stroke-miterlimit:4;stroke-dasharray:none;stroke-opacity:1" /><rect
     style="opacity:1;fill:#009be0;fill-opacity:1;fill-rule:evenodd;stroke:#000000;stroke-width:1.00000065;stroke-linecap:round;stroke-linejoin:round;stroke-miterlimit:4;stroke-dasharray:none;stroke-opacity:1"
     id="rect4378"
     width="14.856245"
     height="5.2371392"
     x="199.16837"
     y="313.04803"
     transform="matrix(0.99794866,0.06401925,-0.06562393,0.99784443,0,0)" /><rect
     transform="matrix(0.99604975,0.08879691,-0.09039851,0.99590567,0,0)"
     y="307.90311"
     x="179.68236"
     height="5.2371392"
     width="14.856245"
     id="rect4380"
     style="opacity:1;fill:#009be0;fill-opacity:1;fill-rule:evenodd;stroke:#000000;stroke-width:1.00000065;stroke-linecap:round;stroke-linejoin:round;stroke-miterlimit:4;stroke-dasharray:none;stroke-opacity:1" /><path
     id="path4404"
     d="m 300.60647,500 110.63962,0 C 451.15447,500 468.5,475.11388 468.5,444.7286 l 0,-411.2286 -218,0 -218,0 0,411.2286 C 32.5,475.11388 49.845535,500 89.753916,500 l 110.639614,0 c 29.82016,0 42.71323,18.77085 50.10647,30.3 7.39324,-11.52915 20.28631,-30.3 50.10647,-30.3 z"
     style="fill:none;fill-rule:evenodd;stroke:#000000;stroke-width:1px;stroke-linecap:round;stroke-linejoin:round;stroke-opacity:1" /></svg>