<?xml version="1.0" encoding="UTF-8" standalone="no"?>
<svg
   xmlns:dc="http://purl.org/dc/elements/1.1/"
   xmlns:cc="http://creativecommons.org/ns#"
   xmlns:rdf="http://www.w3.org/1999/02/22-rdf-syntax-ns#"
   xmlns:svg="http://www.w3.org/2000/svg"
   xmlns="http://www.w3.org/2000/svg"
   xml:space="preserve"
   enable-background="new 30.5 31.5 412 533"
   viewBox="30.5 31.5 420 500"
   height="500"
   width="420"
   y="0"
   x="0"
   version="1.1"
   id="svg2"><metadata
     id="metadata4"><rdf:RDF><cc:Work
         rdf:about=""><dc:format>
          
          
          
          
          image/svg+xml
        
        
        
        
        </dc:format><dc:type
           rdf:resource="http://purl.org/dc/dcmitype/StillImage" /><dc:title></dc:title></cc:Work></rdf:RDF></metadata><defs
     id="defs6" /><path
     style="fill-rule:evenodd;fill:#ffffff"
     d="m440 32.7c2.09 102.46-3.38 187.49-43.93 296.59C368.02 404.77 321.86 474.06 240.5 530.88 159.14 474.06 112.98 404.77 84.93 329.29 44.38 220.19 38.91 135.16 41 32.7c133 0.29 266 0 399 0z"
     id="path4218" /><path
     style="fill:none;stroke:#000"
     id="path4224"
     d="m440 32.7c2.09 102.46-3.38 187.49-43.93 296.59C368.02 404.77 321.86 474.06 240.5 530.88 159.14 474.06 112.98 404.77 84.93 329.29 44.38 220.19 38.91 135.16 41 32.7c133 0.29 266 0 399 0z" /><path
     style="fill:#000000;stroke:#000000;stroke-opacity:1;stroke-linejoin:round;stroke-linecap:round"
     id="path2881"
     d="m 308.5,240.4593 -4.9,-0.4 c 17.9,-21.6 50.85493,-6.0372 48.81722,24.26028 -1.76229,26.20257 -23.88875,35.18278 -41.38875,25.68278 10.42808,37.16818 77.58644,21.51044 77.30598,-39.72584 C 388.26483,235.07668 382,224.4593 373.3,216.9593 c 9.1,-0.7 9.7,-13.3 2.8,-16.5 9.4,-1.3 10.46028,-12.74833 1.4,-16.1 10.71485,-1.97082 4.41106,-20.21722 -4.7,-17.5 8.6,-5.7 2.5,-15.8 -4.8,-14 6,-6.3 0.5,-12.8 -6.4,-12.2 18.9,-58.400001 -39.27615,-75.352681 -59.6,-74.24306 -35.2284,1.923364 -51.84506,34.46174 -37.9,52.64306 15.7,-29.100001 54.9203,-19.226306 56.19473,8.52249 C 321.03727,143.74956 312.6,167.0593 294.2,175.5593 l -32.1,0.1 -74.1,-56.3 c -2.73702,-2.07954 12.13998,-8.99724 18.19737,-13.12584 L 206.3,92.522217 c 0.0439,-5.868273 14.01722,-8.523201 17.81722,-7.823201 -0.9,-6.4 -7.92583,-13.460283 -18.73779,-12.054306 -21.4,-1.9 -28.15694,-9.6 -63.45694,4.9 L 116.5311,189.23944 145.1,176.2593 l 1,4.1 -40,18.4 c -11.6,5.3 -15.701547,22.85394 -10.151671,32.10861 l 41.637081,72.98278 92.75167,43.15167 -19.54569,33.38278 -17.9,0.1 c -3.19662,-7.28188 -9.75555,-11.22567 -17.77149,-11.39256 -13.21205,-0.27506 -29.37777,17.42411 -12.82851,25.99256 -0.58435,-9.77839 6.59237,-14.35787 12.53758,-14.1442 6.12642,0.22019 11.80867,4.66585 12.06242,13.3442 l 60.4,-0.1 c -1.1,-17.3 24.7,-16.9 22.2,0.6 14.4,-14.6 -12.4,-34.6 -26.8,-14.3 l -13.2,-0.1 9.80861,-18.92584 2.7,8.3 8.9,-16.5 72.1,32.3 -9.7,-30.3 -33.2,-15.8 1.8,-3.6 29.9,14.1 -10.2,-32.5 -31.4,-15 1.7,-3.8 28.1,13.3 -11.6,-34.5 -30.4,-14.5 1.8,-3.7 29.8,14 15,-16.7 -5.4,-1 z" /><path
     style="fill:#e00e00;fill-opacity:1;stroke:#000000;stroke-opacity:1"
     id="path3655"
     d="m 203.1,65.059299 c 0.7,-6.681349 -16.19357,-11.625396 -28.99357,-11.625396 -5.4,0 -15.13276,-0.06994 -16.27524,5.106428 -2.04688,9.274033 -0.1,11.416992 -2.93119,21.918968 -2.9,7.2 8.29882,-4.917738 27.7,-6.2 15.39884,-1.017739 25.66881,12.44373 26.16881,8.04373 0.5,-5.1 -5.66881,-4.752604 -5.66881,-17.14373 z" /><circle
     r="4.0630155"
     cy="82.84935"
     cx="186.92609"
     id="path4455"
     style="opacity:1;fill:#ffffff;fill-opacity:1;fill-rule:evenodd;stroke:none;stroke-width:1;stroke-linecap:round;stroke-linejoin:round;stroke-miterlimit:4;stroke-dasharray:none;stroke-opacity:1" /></svg>