<?xml version="1.0" encoding="UTF-8" standalone="no"?>
<!-- Created with Inkscape (http://www.inkscape.org/) -->

<svg
   xmlns:svg="http://www.w3.org/2000/svg"
   xmlns="http://www.w3.org/2000/svg"
   version="1.1"
   width="390"
   height="480"
   id="svg4228">
  <defs
     id="defs4232" />
  <path
     d="M 0.50677166,0.56474293 389.5225,0.53066137 C 389.50761,269.96827 389.50335,273.94289 389.50339,273.95505 390.50109,547.98174 0.51337889,547.98737 0.51007139,273.95429 l -0.0033,-273.38954707 z"
     id="path2902"
     style="fill:#207dbf;fill-opacity:1;stroke:#000000;stroke-width:0.99762392;stroke-opacity:1" />
  <path
     d="m 17.806056,303.32963 c 30.400569,-24.30564 61.02741,-74.29859 69.678794,-75.14937 11.022176,-1.08392 13.88209,-0.29806 33.62608,-2.87653 3.10861,-3.8584 28.39427,-126.693212 32.60019,-131.155156 8.63177,-0.05215 21.84028,0.214229 28.98335,-0.185041 0.40693,-3.395835 -0.35295,-15.236077 -0.62508,-16.179772 -3.20082,-0.110613 -7.11907,0.182244 -12.25263,0.01594 -3.07205,-0.09952 -5.1837,-42.137141 -2.07997,-48.100056 1.05912,-2.034797 8.15903,-0.918208 13.12184,-1.274777 2.85284,-2.81209 7.32314,-7.418591 15.81856,-7.224097 7.83847,0.179453 13.59321,5.16816 14.91218,7.779742 19.77853,0.927841 48.64884,-0.714478 56.33236,0.719132 5.50515,1.027164 6.32292,45.821041 3.2702,47.493245 -4.21865,2.310877 -56.21892,1.178456 -61.85586,1.767344 -0.21498,2.878531 0.50871,11.738012 0.73305,15.346929 10.58636,0.333558 21.92459,0.224676 33.99261,0.523232 6.46628,21.962505 21.49772,120.077865 28.36658,124.180925 6.52656,3.89859 28.63177,-0.42069 33.1061,3.41589 14.87467,12.75447 45.23179,61.42038 65.86552,80.18329 l -353.593874,0.71913 z"
     id="path2829"
     style="fill:#000000;fill-opacity:1;stroke:none" />
  <path
     d="M 0.54806565,271.79342 C 23.836193,295.6821 60.218276,306.2022 87.881508,284.63314 c 17.775612,15.71605 48.519812,21.06976 72.434762,1.017 25.16023,18.66454 50.90174,14.04327 71.20914,-0.12712 19.3178,13.79267 44.39958,20.28246 71.08656,1.14413 25.54763,18.10027 57.48762,18.94751 86.92407,-16.12252 0.11668,13.58008 -0.52318,26.44148 -2.35555,39.51369 -19.39747,28.95213 -64.47833,33.04244 -84.44595,13.09396 -16.94556,14.3683 -47.06422,23.60074 -70.59632,-1.14413 -22.84006,20.46717 -57.00691,15.8301 -71.57682,0 -14.32445,16.32293 -57.27504,20.47587 -72.925018,-2.16114 C 58.778511,336.25074 22.234792,335.60718 2.953456,309.16844 1.1651512,296.97976 0.62647479,283.5439 0.54806565,271.79342 z"
     id="path2827"
     style="fill:#e6e6e6;stroke:#000000;stroke-width:0.69999999;stroke-linecap:butt;stroke-linejoin:miter;stroke-miterlimit:4;stroke-opacity:1;stroke-dasharray:none" />
  <path
     d="m 251.77483,177.75111 c -24.4756,-15.90286 -84.2493,-14.78835 -108.07899,-2.24729 -8.7372,4.5982 -6.88088,21.15946 -2.43583,20.13572 36.10741,-8.31601 74.77346,-8.26645 112.77022,-0.26967 5.01353,1.05515 3.58477,-13.82415 -2.2554,-17.61876 z"
     id="path2831"
     style="fill:#e6e6e6;stroke:none" />
</svg>
