<?xml version="1.0" encoding="UTF-8" standalone="no"?>
<svg
   xmlns:dc="http://purl.org/dc/elements/1.1/"
   xmlns:cc="http://creativecommons.org/ns#"
   xmlns:rdf="http://www.w3.org/1999/02/22-rdf-syntax-ns#"
   xmlns:svg="http://www.w3.org/2000/svg"
   xmlns="http://www.w3.org/2000/svg"
   version="1"
   width="420"
   height="500"
   id="svg2">
  <metadata
     id="metadata51">
    <rdf:RDF>
      <cc:Work
         rdf:about="">
        <dc:format>
          
          image/svg+xml
        
        </dc:format>
        <dc:type
           rdf:resource="http://purl.org/dc/dcmitype/StillImage" />
        <dc:title></dc:title>
      </cc:Work>
    </rdf:RDF>
  </metadata>
  <defs
     id="defs4" />
  <path
     d="m 4.4503626,1.5 411.0888574,0 0,300.82465 0,0 c 0,0.0298 0,0.0595 0,0.0903 0,108.64857 -92.02597,196.71263 -205.53922,196.71263 -113.513257,0 -205.5496374,-88.07404 -205.5496374,-196.71263 0,-0.0298 0,-0.0595 0,-0.0903 l 0,0 0,-300.82465 z"
     id="path4300"
     style="fill:#0085ca;stroke:none;stroke-width:1.02142417;fill-opacity:1" />
  <path
     id="path2418"
     d="m 4.4503626,1.5 411.0888574,0 0,300.82465 0,0 c 0,0.0298 0,0.0595 0,0.0903 0,108.64857 -92.02597,196.71263 -205.53922,196.71263 -113.513257,0 -205.5496374,-88.07404 -205.5496374,-196.71263 0,-0.0298 0,-0.0595 0,-0.0903 l 0,0 0,-300.82465 z"
     style="fill:none;fill-rule:nonzero" />
  <path
     id="path4275"
     d="m 4.3495763,46.245501 c 3.4225366,6.519754 7.5222247,12.961374 13.2478617,19.523763 21.89813,25.09835 39.00942,16.48154 61.810591,42.253576 28.738911,32.48344 25.932521,56.56289 48.591971,82.53382 21.89813,25.09835 39.00942,16.48154 63.60931,44.28666 30.53763,34.51652 27.73124,58.59597 50.39069,84.5669 21.89813,25.09835 39.00942,16.48154 63.60931,44.28666 28.8798,32.64268 27.93768,55.95075 46.91601,80.3519 17.17621,-15.51881 34.72701,-38.12444 44.35707,-60.01772 C 383.73716,362.6439 381.42969,341.13839 356,312.39535 331.40011,284.59023 314.28882,293.20704 292.39069,268.10869 269.73124,242.13776 272.53763,218.05831 242,183.54179 217.40011,155.73667 200.28882,164.35348 178.39069,139.25513 155.73124,113.2842 158.53763,89.204747 128,54.688235 103.40011,26.883115 86.28882,35.499925 64.39069,10.401575 61.780521,7.4099526 59.508258,4.4434282 57.484013,1.483158 L 4.4503626,1.5 Z"
     style="fill:#ffffff;fill-rule:evenodd;stroke:none;stroke-width:1px;stroke-linecap:butt;stroke-linejoin:miter;stroke-opacity:1;fill-opacity:1" />
  <path
     style="fill:none;fill-opacity:1;fill-rule:evenodd;stroke:#000000;stroke-width:1px;stroke-linecap:butt;stroke-linejoin:miter;stroke-opacity:1"
     d="M 396.88239,384.03106 C 383.73716,362.6439 381.42969,341.13839 356,312.39535 331.40011,284.59023 314.28882,293.20704 292.39069,268.10869 269.73124,242.13776 272.53763,218.05831 242,183.54179 217.40011,155.73667 200.28882,164.35348 178.39069,139.25513 155.73124,113.2842 158.53763,89.204747 128,54.688235 103.40011,26.883115 86.28882,35.499925 64.39069,10.401575 61.780521,7.4099526 59.508258,4.4434282 57.484013,1.483158 M 4.3495763,46.245501 c 3.4225366,6.519754 7.5222247,12.961374 13.2478617,19.523763 21.89813,25.09835 39.00942,16.48154 61.810591,42.253576 28.738911,32.48344 25.932521,56.56289 48.591971,82.53382 21.89813,25.09835 39.00942,16.48154 63.60931,44.28666 30.53763,34.51652 27.73124,58.59597 50.39069,84.5669 21.89813,25.09835 39.00942,16.48154 63.60931,44.28666 28.8798,32.64268 27.93768,55.95075 46.91601,80.3519"
     id="path4243" />
  <path
     style="fill:#ffffff;fill-rule:evenodd;stroke:none;stroke-width:1px;stroke-linecap:butt;stroke-linejoin:miter;stroke-opacity:1"
     d="M 415.54133,285.91362 C 411.79507,280.14828 407.27634,274.1023 401.60931,267.69688 377.00942,239.89176 359.89813,248.50857 338,223.41022 315.34055,197.43929 318.14694,173.35984 287.60931,138.84332 263.00942,111.0382 245.89813,119.65501 224,94.55666 201.34055,68.58573 204.14694,44.50628 175.40803,12.02284 171.56131,7.6749086 167.86188,4.2173897 164.28875,1.5 l 86.68041,0 c 6.47776,14.571967 11.38782,27.962799 23.42153,41.75513 21.89813,25.09835 39.00942,16.48154 63.60931,44.28666 30.53763,34.51652 27.73124,58.59597 50.39069,84.5669 9.6056,11.00937 18.29015,15.5315 27.08971,19.4861 z"
     id="path4273" />
  <path
     id="path4261"
     d="m 250.96916,1.5 c 6.47776,14.571967 11.38782,27.962799 23.42153,41.75513 21.89813,25.09835 39.00942,16.48154 63.60931,44.28666 30.53763,34.51652 27.73124,58.59597 50.39069,84.5669 9.6056,11.00937 18.29015,15.5315 27.08971,19.4861 m 0.0609,94.31883 C 411.79507,280.14828 407.27634,274.1023 401.60931,267.69688 377.00942,239.89176 359.89813,248.50857 338,223.41022 315.34055,197.43929 318.14694,173.35984 287.60931,138.84332 263.00942,111.0382 245.89813,119.65501 224,94.55666 201.34055,68.58573 204.14694,44.50628 175.40803,12.02284 171.56131,7.6749086 167.86188,4.2173897 164.28875,1.5"
     style="fill:none;fill-rule:evenodd;stroke:#000000;stroke-width:1px;stroke-linecap:butt;stroke-linejoin:miter;stroke-opacity:1" />
  <path
     style="fill:#ffffff;fill-rule:evenodd;stroke:none;stroke-width:1px;stroke-linecap:butt;stroke-linejoin:miter;stroke-opacity:0.63636361"
     d="M 234.35344,497.62072 C 228.99774,486.16127 222.08698,473.80033 209.60931,459.69688 185.00942,431.89176 167.89813,440.50857 146,415.41022 123.34055,389.43929 126.14694,365.35984 95.60931,330.84332 71.00942,303.0382 53.89813,311.65501 32,286.55666 17.236618,269.63574 13.283368,253.51774 4.372519,235.35523 l 0.09113,-105.43246 c 8.477167,4.00081 17.366875,9.27097 27.536351,20.76547 30.53763,34.51651 27.73124,58.59596 50.39069,84.56689 21.89813,25.09835 39.00942,16.48154 63.60931,44.28666 30.53763,34.51652 27.73124,58.59597 50.39069,84.5669 21.89813,25.09835 39.00942,16.48154 63.60931,44.28666 25.03298,28.29465 27.65954,49.57582 40.27498,70.63468 -20.7556,10.38161 -44.80986,16.32389 -65.92154,18.59069 z"
     id="path4277" />
  <path
     id="path4265"
     d="m 4.463649,129.92277 c 8.477167,4.00081 17.366875,9.27097 27.536351,20.76547 30.53763,34.51651 27.73124,58.59596 50.39069,84.56689 21.89813,25.09835 39.00942,16.48154 63.60931,44.28666 30.53763,34.51652 27.73124,58.59597 50.39069,84.5669 21.89813,25.09835 39.00942,16.48154 63.60931,44.28666 25.03298,28.29465 27.65954,49.57582 40.27498,70.63468 m -65.92154,18.59069 C 228.99774,486.16127 222.08698,473.80033 209.60931,459.69688 185.00942,431.89176 167.89813,440.50857 146,415.41022 123.34055,389.43929 126.14694,365.35984 95.60931,330.84332 71.00942,303.0382 53.89813,311.65501 32,286.55666 17.236618,269.63574 13.283368,253.51774 4.372519,235.35523"
     style="fill:none;fill-rule:evenodd;stroke:#000000;stroke-width:1px;stroke-linecap:butt;stroke-linejoin:miter;stroke-opacity:1" />
  <path
     style="fill:none;stroke:#000000;stroke-width:1.02142417;fill-opacity:1"
     id="path4279"
     d="m 4.4503626,1.5 411.0888574,0 0,300.82465 0,0 c 0,0.0298 0,0.0595 0,0.0903 0,108.64857 -92.02597,196.71263 -205.53922,196.71263 -113.513257,0 -205.5496374,-88.07404 -205.5496374,-196.71263 0,-0.0298 0,-0.0595 0,-0.0903 l 0,0 0,-300.82465 z" />
</svg>
