<?xml version="1.0" encoding="UTF-8" standalone="no"?>
<svg
   xmlns:dc="http://purl.org/dc/elements/1.1/"
   xmlns:cc="http://creativecommons.org/ns#"
   xmlns:rdf="http://www.w3.org/1999/02/22-rdf-syntax-ns#"
   xmlns:svg="http://www.w3.org/2000/svg"
   xmlns="http://www.w3.org/2000/svg"
   xml:space="preserve"
   enable-background="new 30.5 31.5 412 533"
   viewBox="30.5 31.5 400 500"
   height="500"
   width="400"
   y="0"
   x="0"
   version="1.1"
   id="svg2"><metadata
     id="metadata4"><rdf:RDF><cc:Work
         rdf:about=""><dc:format>
          
          
          
          
          image/svg+xml
        
        
        
        
        </dc:format><dc:type
           rdf:resource="http://purl.org/dc/dcmitype/StillImage" /><dc:title></dc:title></cc:Work></rdf:RDF></metadata><defs
     id="defs6" /><path
     fill="#e00e00"
     style="fill:#ffe000;fill-opacity:0.98823529"
     id="path4148"
     d="M230.45 531.13C156.13 477.21 105.19 409.11 74.71 322.97 47.07 244.87 35.98 150.22 40.8 33.62l0.02-0.46 379.82 0 0.02 0.46c4.81 116.6-6.28 211.24-33.91 289.35-30.48 86.14-81.42 154.24-155.74 208.16l-0.28 0.2-0.28-0.2z" /><path
     d="M419.96 33.21C429.03 252.66 383.71 419.16 230.51 530.31 146.04 469.02 94.36 390.9 66.52 296.34 64.43 289.25 62.48 282.07 60.65 274.8 49.2 229.11 42.88 179.78 40.77 126.86 39.57 96.8 39.72 65.58 41.06 33.21l189.45 0 189.45 0m0.92-0.95-0.92 0-189.45 0-189.45 0-0.92 0-0.04 0.92c-4.82 116.66 6.28 211.36 33.93 289.52 30.51 86.24 81.51 154.41 155.91 208.39l0.56 0.41 0.56-0.41C305.46 477.11 356.46 408.94 386.97 322.7 414.62 244.54 425.72 149.84 420.9 33.18l-0.04-0.92 0 0z"
     id="path10" /><path
     style="fill:#000000;stroke:#000000;stroke-width:1.05534172;stroke-opacity:1;fill-opacity:1"
     id="path2830"
     d="m 84.20732,164.90736 293.76392,0.005 c 2.61603,5e-5 2.21595,-1.42995 2.42755,-3.38842 2.03705,-18.85336 -11.96252,-33.50716 -29.62046,-32.16383 -4.72426,0.35936 -3.37349,6.05489 -10.71271,5.69655 -4.05615,-0.19804 -6.39077,-1.92306 -9.58235,-4.34544 -5.86514,-4.45159 -19.81381,-3.43786 -24.18864,-1.07771 -13.78127,7.43479 -27.14168,11.21605 -42.19821,11.24369 -19.9336,0.0366 -62.09767,-11.49201 -44.94608,-41.586842 5.74582,-10.08186 15.6926,-15.715282 29.7503,-24.268773 4.183,-2.545172 1.57709,-5.979413 0,-6.280994 -19.72685,-3.77228 -55.47797,18.740882 -69.4674,29.606576 -5.98118,4.645633 -12.97816,4.790593 -19.69827,9.025733 -5.91815,3.72974 -7.7817,7.81114 -10.36492,10.17939 -3.71167,3.40287 -6.59136,0.85254 -14.5564,5.42757 -2.67424,1.53606 -4.99143,2.58202 -5.79082,7.70223 l -13.17417,0 c -6.72229,0 -4.29088,-5.60212 -7.26047,-6.08705 -11.610897,0.0195 -26.767583,9.12034 -27.302723,36.30771 -0.05871,2.98245 0.906155,3.56269 2.921853,4.00465 z" /><path
     style="fill:#fce300;fill-opacity:1;stroke:none"
     id="path2829"
     d="m 175.54608,119.88103 a 3.271376,3.3451671 0 0 1 -6.54275,0 3.271376,3.3451671 0 1 1 6.54275,0 z" /><path
     d="m 84.20732,294.90736 293.76392,0.005 c 2.61603,5e-5 2.21595,-1.42995 2.42755,-3.38842 2.03705,-18.85336 -11.96252,-33.50716 -29.62046,-32.16383 -4.72426,0.35936 -3.37349,6.05489 -10.71271,5.69655 -4.05615,-0.19804 -6.39077,-1.92306 -9.58235,-4.34544 -5.86514,-4.45159 -19.81381,-3.43786 -24.18864,-1.07771 -13.78127,7.43479 -27.14168,11.21605 -42.19821,11.24369 -19.9336,0.0366 -62.09767,-11.49201 -44.94608,-41.58684 5.74582,-10.08186 15.6926,-15.71528 29.7503,-24.26877 4.183,-2.54518 1.57709,-5.97942 0,-6.281 -19.72685,-3.77228 -55.47797,18.74088 -69.4674,29.60658 -5.98118,4.64563 -12.97816,4.79059 -19.69827,9.02573 -5.91815,3.72974 -7.7817,7.81114 -10.36492,10.17939 -3.71167,3.40287 -6.59136,0.85254 -14.5564,5.42757 -2.67424,1.53606 -4.99143,2.58202 -5.79082,7.70223 l -13.17417,0 c -6.72229,0 -4.29088,-5.60212 -7.26047,-6.08705 -11.610897,0.0195 -26.767583,9.12034 -27.302723,36.30771 -0.05871,2.98245 0.906155,3.56269 2.921853,4.00465 z"
     id="path5202"
     style="fill:#000000;stroke:#000000;stroke-width:1.05534172;stroke-opacity:1" /><path
     d="m 175.54608,249.88103 a 3.271376,3.3451671 0 0 1 -6.54275,0 3.271376,3.3451671 0 1 1 6.54275,0 z"
     id="path5204"
     style="fill:#fce300;fill-opacity:1;stroke:none" /></svg>