<?xml version="1.0" encoding="UTF-8" standalone="no"?>
<!-- Created with Inkscape (http://www.inkscape.org/) -->

<svg
   xmlns:dc="http://purl.org/dc/elements/1.1/"
   xmlns:cc="http://creativecommons.org/ns#"
   xmlns:rdf="http://www.w3.org/1999/02/22-rdf-syntax-ns#"
   xmlns:svg="http://www.w3.org/2000/svg"
   xmlns="http://www.w3.org/2000/svg"
   xmlns:sodipodi="http://sodipodi.sourceforge.net/DTD/sodipodi-0.dtd"
   xmlns:inkscape="http://www.inkscape.org/namespaces/inkscape"
   id="svg2816"
   version="1.1"
   inkscape:version="0.47 r22583"
   width="426"
   height="257"
   sodipodi:docname="FlagOfPembrokeshire.svg">
  <title
     id="title3797">Flag of Pembrokeshire</title>
  <metadata
     id="metadata2822">
    <rdf:RDF>
      <cc:Work
         rdf:about="">
        <dc:format>image/svg+xml</dc:format>
        <dc:type
           rdf:resource="http://purl.org/dc/dcmitype/StillImage" />
        <dc:title>Flag of Pembrokeshire</dc:title>
        <dc:date>27.02.2011</dc:date>
        <dc:creator>
          <cc:Agent>
            <dc:title></dc:title>
          </cc:Agent>
        </dc:creator>
      </cc:Work>
    </rdf:RDF>
  </metadata>
  <defs
     id="defs2820" />
  <sodipodi:namedview
     pagecolor="#ffffff"
     bordercolor="#666666"
     borderopacity="1"
     objecttolerance="10"
     gridtolerance="10"
     guidetolerance="10"
     inkscape:pageopacity="0"
     inkscape:pageshadow="2"
     inkscape:window-width="1280"
     inkscape:window-height="750"
     id="namedview2818"
     showgrid="false"
     inkscape:zoom="1.4142136"
     inkscape:cx="258.32912"
     inkscape:cy="186.97062"
     inkscape:window-x="-8"
     inkscape:window-y="-8"
     inkscape:window-maximized="1"
     inkscape:current-layer="svg2816" />
  <g
     id="g3767"
     transform="translate(367.50671,0.61313)">
    <g
       transform="translate(-428.50671,257.38687)"
       id="g3760">
      <path
         style="fill:#0b51a1;fill-opacity:1;fill-rule:nonzero;stroke:none"
         d="m 61,-258 426,0 0,257 -426,0 0,-257 z"
         id="rect3754" />
      <path
         style="fill:#fceb0f;fill-opacity:1;fill-rule:nonzero;stroke:none"
         d="m 242,-257.99242 64,0 0,256.9646919 -64,0 0,-256.9646919 z"
         id="rect3757" />
    </g>
    <path
       id="rect3764"
       d="m -367.50604,95.951218 425.842344,0 0,64.346722 -425.842344,0 0,-64.346722 z"
       style="fill:#fceb0f;fill-opacity:1;fill-rule:nonzero;stroke:none" />
    <g
       transform="translate(-711.12939,3.7539411)"
       id="g3729">
      <g
         id="g3700"
         transform="translate(-1.4142136,-0.70710693)">
        <path
           id="path2833"
           d="m 602.19056,186.84658 -43.97674,0.1214 -43.97627,-0.23107 -13.7049,-41.78685 -13.36967,-41.89533 35.50661,-25.946998 35.71337,-25.661682 35.6492,25.750733 35.44176,26.035537 -13.47422,41.86181 -13.80914,41.75254 z"
           style="fill:#179354;fill-opacity:1;fill-rule:nonzero;stroke:none" />
        <path
           sodipodi:nodetypes="ccccccccccccccccccccc"
           id="path2830"
           d="m 599.28976,181.98477 c -3.83816,-0.78388 -7.67633,-1.49009 -11.51449,-5.13368 l -29.6514,-13.21992 -28.34344,14.15956 c -3.89142,2.77379 -7.78284,3.22494 -11.67426,3.86854 -0.41408,-3.74177 -0.88011,-7.45756 0.13431,-11.91357 l 4.96949,-33.37262 -22.80172,-21.78051 c -4.16875,-3.89603 -6.01371,-6.71909 -7.53445,-9.73245 2.9494,-1.77435 6.12835,-3.2507 11.94726,-3.67972 l 33.39721,-6.598714 13.40707,-27.416432 c 1.92212,-3.743065 4.0092,-7.403645 7.02023,-10.602253 3.21668,3.217525 5.42066,6.81481 7.17349,10.581279 l 16.58875,28.866996 29.36482,5.370374 c 7.18121,0.0901 9.71273,1.9517 12.53935,3.31658 -1.77971,4.09816 -4.39077,7.36498 -7.63882,9.99481 l -21.96301,23.99316 3.13653,29.65471 c 1.39246,4.54795 2.57818,9.0959 1.44308,13.64386 z"
           style="fill:#ffffff;fill-opacity:1;fill-rule:nonzero;stroke:#008500;stroke-width:1;stroke-miterlimit:4;stroke-opacity:1;stroke-dashoffset:0" />
      </g>
      <g
         id="g3609"
         transform="translate(285,-4)">
        <path
           sodipodi:nodetypes="cscccscsccc"
           id="path3608"
           d="m 316.94472,114.73746 c 9.25081,-1.13164 12.71725,0.13342 14.23545,5.78125 0.38026,1.41458 0.44275,4.7494 -0.59318,8.08675 -11.89618,-0.0538 -48.33726,0.0232 -58.06572,-0.0466 0.0191,-5.27706 -0.0146,-31.578997 0.008,-45.224201 0.79838,-10.79384 5.89787,-12.353314 9.78173,-12.459355 8.42741,-0.230093 13.43952,11.641075 17.62405,15.771121 9.68601,7.927646 18.45147,2.943394 24.31751,14.583245 3.1971,6.34395 -2.48828,9.34033 -7.30746,13.50779 l 4e-5,0 -4.2e-4,0 z"
           style="fill:#ffffff;fill-opacity:1;stroke:none" />
        <path
           sodipodi:nodetypes="cccsscccccc"
           id="path3611"
           d="m 214.09359,121.2973 c 0.80473,-7.05159 5.76321,-8.71705 15.6872,-6.88688 -3.92617,-3.01747 -15.58638,-5.74402 -6.91923,-17.32567 5.80391,-6.29139 13.17471,-3.507514 21.48915,-9.90363 7.22839,-5.56064 8.5509,-16.042426 17.86756,-16.34636 6.12386,-0.199776 8.89669,1.73509 10.32999,12.4873 l -0.0317,45.22893 c -19.14703,0.0902 -38.38052,-0.0813 -57.5272,-0.21791 -0.82109,-2.40078 -1.2927,-4.45869 -0.8957,-7.03578 l -3e-5,0 -4e-5,0 z"
           style="fill:#db000d;fill-opacity:1;stroke:none" />
        <path
           sodipodi:nodetypes="cscssccc"
           id="path3614"
           d="m 272.53707,179.29902 c -12.07386,-0.3131 -9.92647,4.18654 -17.02263,4.3853 -5.77365,0.16172 -18.28121,-2.99691 -9.83863,-17.83512 -13.21629,11.71106 -18.12213,3.97988 -19.7128,-5.19612 -0.87359,-5.03939 -0.39808,-10.68916 -0.56656,-13.38531 -0.49699,-7.95312 -9.05206,-15.15234 -10.40624,-18.93359 9.17707,0.0312 43.02734,0.12523 57.52734,0.21873 0.0461,16.91663 0.0136,33.82944 0.0195,50.74611 z"
           style="fill:#ffffff;fill-opacity:1;stroke:none" />
        <path
           sodipodi:nodetypes="csscssccc"
           id="path3617"
           d="m 330.55945,128.59546 c -0.74198,3.24471 -7.32287,6.63282 -10.11801,15.39299 -2.35036,7.36621 1.58936,19.03845 -4.22014,24.59522 -4.90337,4.69005 -11.31302,3.48955 -18.75736,-4.63327 8.95615,11.41287 4.46927,19.67084 -6.02785,19.53033 -3.3941,-0.0454 -7.5603,-1.70028 -12.38678,-3.92438 -1.19706,-0.55162 -3.30922,-0.18746 -6.53068,-0.24657 0,-4.00406 0.007,-46.98047 0,-50.75 5.24671,0 34.6917,0.0111 58.04082,0.0357 z"
           style="fill:#db000d;fill-opacity:1;stroke:none" />
      </g>
      <path
         style="fill:none;stroke:#bca800;stroke-width:1.60000002;stroke-linecap:butt;stroke-linejoin:miter;stroke-miterlimit:4;stroke-opacity:1;stroke-dasharray:none"
         d="m 561.61956,87.28917 c 0,0 -0.78959,-9.439775 7.79335,-9.346504 7.91543,0.08602 9.39167,8.529183 14.92675,12.644106 6.78491,5.044081 14.94754,1.554173 15.69506,10.003538 0.81735,9.23872 -7.47924,9.67983 -7.47924,9.67983"
         id="path3660"
         sodipodi:nodetypes="csssc" />
      <path
         style="fill:none;stroke:#820000;stroke-width:1.60000002;stroke-linecap:butt;stroke-linejoin:miter;stroke-miterlimit:4;stroke-opacity:1;stroke-dasharray:none"
         d="m 520.90766,108.0998 c 0,0 -10.06518,-2.58778 -6.64341,-10.459696 3.15566,-7.2597 11.50879,-5.33837 17.45146,-8.838995 7.28454,-4.291065 7.04825,-13.171478 15.3171,-11.280291 7.7694,1.776956 6.89583,9.592725 6.89583,9.592725"
         id="path3660-7"
         sodipodi:nodetypes="csssc"
         inkscape:transform-center-y="9.1923881" />
      <path
         style="fill:none;stroke:#bca800;stroke-width:1.60000002;stroke-linecap:butt;stroke-linejoin:miter;stroke-miterlimit:4;stroke-opacity:1;stroke-dasharray:none"
         d="m 557.64863,81.68311 c 0,0 -0.0396,-14.68978 9.66835,-14.4715 4.26844,0.096 7.71001,2.59918 10.38278,6.10642 2.28267,2.99536 4.15032,6.5635 6.41897,8.78768 1.92395,1.886245 5.4018,4.343987 9.40439,5.832113 3.50925,1.30471 7.47968,1.132776 10.38071,3.293458 3.65404,2.721522 5.49415,5.590899 5.78496,8.877969 0.20676,2.33708 0.0292,6.05506 -10.04268,11.43668 9.829,-2.1762 13.73224,-0.0248 15.55637,3.42673 2.63608,4.98786 -0.18043,10.09767 -0.18043,10.09767"
         id="path3660-1"
         sodipodi:nodetypes="csssssscsc" />
      <path
         style="fill:none;stroke:#820000;stroke-width:1.60000002;stroke-linecap:butt;stroke-linejoin:miter;stroke-miterlimit:4;stroke-opacity:1;stroke-dasharray:none"
         d="m 557.15052,175.58719 c 0,0 4.85873,0.0269 7.72031,0.89574 3.76194,1.14221 7.81519,3.56281 12.02691,3.51956 7.03066,-0.0722 14.00879,-6.96337 5.38896,-20.339 16.59704,17.27144 23.1697,-0.0315 21.8171,-8.40529 -2.1056,-13.03554 10.85209,-26.11793 10.85209,-26.11793"
         id="path3660-7-4"
         sodipodi:nodetypes="csscsc"
         inkscape:transform-center-y="9.1923881" />
      <path
         style="fill:none;stroke:#bca800;stroke-width:1.60000002;stroke-linecap:butt;stroke-linejoin:miter;stroke-miterlimit:4;stroke-opacity:1;stroke-dasharray:none"
         d="m 499.67843,124.56014 c 0,0 1.22483,2.67362 3.40038,5.51262 1.82492,2.38144 4.85807,4.95647 6.16467,8.67268 2.75315,7.83048 1.12977,16.94192 1.8235,21.09117 1.66543,9.961 11.5418,11.73629 21.23741,1.47621 -11.29352,16.67276 3.98736,18.01453 6.91565,18.17143 3.67308,0.1968 6.68565,-2.21834 9.76217,-3.25589 2.30599,-0.77769 8.53984,-0.6424 8.53984,-0.6424"
         id="path3660-4"
         sodipodi:nodetypes="cssscssc" />
      <path
         style="fill:none;stroke:#820000;stroke-width:1.60000002;stroke-linecap:butt;stroke-linejoin:miter;stroke-miterlimit:4;stroke-opacity:1;stroke-dasharray:none"
         d="m 499.80475,124.80366 c 0,0 -1.70301,-2.8091 -1.04341,-6.51803 0.56687,-3.18754 0.35097,-11.51166 16.71141,-7.40463 -14.6577,-8.63465 -10.59777,-12.06469 -9.46488,-14.67093 3.15566,-7.259701 13.96882,-7.032138 19.95147,-10.464 9.65954,-5.54106 13.25916,-21.11663 22.8171,-18.90529 7.78315,1.80072 8.12866,10.226271 8.23958,14.862251"
         id="path3660-7-0"
         sodipodi:nodetypes="cscsssc"
         inkscape:transform-center-y="9.1923881" />
      <path
         style="fill:#820000;fill-opacity:1;stroke:none"
         d="m 614.37891,124.58203 1.7539,-0.0117 c 0,0 -0.16727,0.46934 -0.26842,0.66445 -0.0853,0.16456 -0.34485,0.46837 -0.34485,0.46837 l -1.11329,-0.51563 -0.0273,-0.60547 -4e-5,-3e-5 z"
         id="rect3704"
         sodipodi:nodetypes="ccscccc" />
      <path
         style="fill:#bca800;fill-opacity:1;fill-rule:nonzero;stroke:none"
         d="m 498.68716,124.33308 1.78327,-0.004 0.10295,0.27984 -1.41747,0.71556 c 0,0 -0.15601,-0.3047 -0.23011,-0.4551 -0.0887,-0.17995 -0.23864,-0.53596 -0.23864,-0.53596 z"
         id="rect3707"
         sodipodi:nodetypes="ccccsc" />
      <path
         style="fill:#bca800;fill-opacity:1;fill-rule:nonzero;stroke:none"
         d="m 557.53125,76.578125 0.6875,0 0,5.109375 -0.6875,0 0,-5.109375 z"
         id="rect3710" />
      <path
         style="fill:none;stroke:#820000;stroke-width:1.60000002;stroke-linecap:butt;stroke-linejoin:miter;stroke-miterlimit:4;stroke-opacity:1;stroke-dasharray:none"
         d="m 519.5,116.75 c -4.22035,-1.01157 -7.7186,-0.38833 -8.74259,0.26458 -2.33001,1.48564 -3.48393,3.84312 -3.50741,7.36042"
         id="path3713"
         sodipodi:nodetypes="csc" />
      <path
         style="fill:none;stroke:#bca800;stroke-width:1.60000002;stroke-linecap:butt;stroke-linejoin:miter;stroke-miterlimit:4;stroke-opacity:1;stroke-dasharray:none"
         d="m 507.25,124.35938 c 0,0 -0.0261,1.97877 0.32412,2.88591 1.12836,2.92266 8.49087,8.95083 8.18553,16.13136 -0.14064,3.30722 0.0567,5.81892 0.20696,8.97198 0.1476,3.09819 4.6354,6.03703 7.56741,6.04483 3.76485,0.01 7.68473,-4.50283 7.68473,-4.50283"
         id="path3715"
         sodipodi:nodetypes="cssssc" />
      <path
         style="fill:none;stroke:#bca800;stroke-width:1.60000002;stroke-linecap:butt;stroke-linejoin:miter;stroke-miterlimit:4;stroke-opacity:1;stroke-dasharray:none"
         d="m 538.6875,158.3125 c -1.27869,1.54472 -1.9769,2.90702 -2.26229,4.22514 -1.6362,7.55704 2.83692,10.91194 9.15549,10.47652 1.89103,-0.13031 3.60413,-1.09731 5.42482,-1.74402 2.05489,-0.7299 4.25405,-1.09832 6.53315,-1.08264"
         id="path3721"
         sodipodi:nodetypes="csssc" />
      <path
         style="fill:none;stroke:#820000;stroke-width:1.60000002;stroke-linecap:butt;stroke-linejoin:miter;stroke-miterlimit:4;stroke-opacity:1;stroke-dasharray:none"
         d="m 557.5221,170.1875 c 5.28435,-0.0717 9.83947,3.10794 15.16464,2.86004 4.02635,-0.18743 6.85322,-2.09087 7.51594,-7.44114 0.21002,-1.69555 -1.43778,-3.98628 -3.57768,-6.7314"
         id="path3723"
         sodipodi:nodetypes="cssc" />
      <path
         style="fill:none;stroke:#820000;stroke-width:1.60000002;stroke-linecap:butt;stroke-linejoin:miter;stroke-miterlimit:4;stroke-opacity:1;stroke-dasharray:none"
         d="m 582.625,153.125 c 6.74274,6.18187 10.8297,5.72917 14.42716,2.41665 3.50935,-3.23138 0.03,-8.99453 1.5505,-14.17321 0.90805,-3.09279 2.01017,-6.08711 3.91904,-8.69408 1.81503,-2.47882 4.93972,-5.24335 4.86892,-8.09624"
         id="path3725"
         sodipodi:nodetypes="csssc" />
      <path
         style="fill:none;stroke:#bca800;stroke-width:1.60000002;stroke-linecap:butt;stroke-linejoin:miter;stroke-miterlimit:4;stroke-opacity:1;stroke-dasharray:none"
         d="m 594.4375,117 c 3.50411,-1.13856 8.20296,-1.99586 10.4588,0.55581 1.17301,1.32685 2.51377,4.08382 2.49042,7.03404"
         id="path3727"
         sodipodi:nodetypes="csc" />
    </g>
  </g>
</svg>
