<?xml version="1.0" encoding="UTF-8" standalone="no"?>
<svg
   xmlns:dc="http://purl.org/dc/elements/1.1/"
   xmlns:cc="http://creativecommons.org/ns#"
   xmlns:rdf="http://www.w3.org/1999/02/22-rdf-syntax-ns#"
   xmlns:svg="http://www.w3.org/2000/svg"
   xmlns="http://www.w3.org/2000/svg"
   xmlns:xlink="http://www.w3.org/1999/xlink"
   id="svg2"
   version="1.1"
   x="0"
   y="0"
   width="400"
   height="500"
   viewBox="30.5 31.5 400 500"
   enable-background="new 30.5 31.5 412 533"
   xml:space="preserve"><metadata
     id="metadata4"><rdf:RDF><cc:Work
         rdf:about=""><dc:format>
          
          
          
          image/svg+xml
        
        
        
        </dc:format><dc:type
           rdf:resource="http://purl.org/dc/dcmitype/StillImage" /><dc:title></dc:title></cc:Work></rdf:RDF></metadata><defs
     id="defs6" /><path
     style="fill:#0085ca;fill-opacity:1"
     fill="#32ac60"
     id="path8"
     d="M230.56 531.14C304.88 477.22 355.82 409.12 386.3 322.98 413.94 244.88 425.03 150.23 420.21 33.63l-0.02-0.46-379.82 0-0.02 0.46c-4.81 116.6 6.28 211.24 33.91 289.35 30.48 86.14 81.42 154.24 155.74 208.16l0.28 0.2 0.28-0.2z" /><path
     id="path10"
     d="M41.04 33.21C31.97 252.66 77.3 419.16 230.5 530.31 383.69 419.16 429.01 252.66 419.94 33.21l-189.45 0-189.45 0m-0.92-0.95 0.92 0 189.45 0 189.45 0 0.92 0 0.04 0.92c4.82 116.66-6.28 211.36-33.93 289.52-30.51 86.24-81.51 154.41-155.91 208.39l-0.56 0.41-0.56-0.41C155.54 477.11 104.54 408.94 74.03 322.7 46.38 244.54 35.28 149.84 40.1 33.18l0.04-0.92 0 0z" /><path
     style="fill:#ffffff;stroke:#000000;stroke-opacity:1"
     id="path2832"
     d="m 232.95675,455.89026 c 23.73627,-15.43014 41.05142,-41.02348 59.00567,-67.70082 -14.17083,-10.33374 -28.82415,-18.0138 -42.39407,-31.65254 10.9339,-3.12489 13.70514,-11.51264 25.60816,-15.37122 -10.54017,-17.70558 -32.09007,-1.3896 -31.0107,-6.49319 2.55482,-12.07998 30.71117,-28.33404 67.56356,-19.8305 8.09605,1.86813 19.41349,-2.07014 25.23305,-11.44068 2.49015,-4.00958 -2.88483,-7.31391 -5.08475,-4.89407 -12.31979,13.55137 -41.9284,2.56202 -37.86338,-3.78728 16.77043,-26.19438 50.39205,-7.9015 67.48203,-47.88645 1.8226,-4.26429 -3.98762,-4.57563 -6.1017,-2.0339 -7.90154,9.49991 -15.57306,19.16743 -23.77118,20.97458 -7.19329,1.58565 -19.19528,1.04287 -8.64407,-12.45763 14.44588,-18.48381 46.90853,-37.15279 44.23729,-56.62045 -0.28909,-2.10685 -5.51297,-1.19749 -5.79355,0.28892 -2.5735,13.63345 -15.84991,23.54375 -15.94374,19.59424 -0.16972,-7.14443 0.61075,-19.5339 -5.21187,-26.31356 -1.86938,-2.17664 -6.33838,0.30208 -5.21186,3.05085 4.31943,10.53966 4.0547,26.27782 2.0339,32.28813 -4.69972,13.97797 -19.21195,12.33167 -23.85204,1.4882 -4.14071,-9.67645 4.86269,-15.06566 1.60627,-38.3526 -0.36495,-2.60982 -6.16865,-1.46796 -5.97457,0.88983 2.53959,30.85238 -7.87269,29.51951 -23.77119,13.22034 -1.75083,-1.79495 -5.20055,1.23307 -2.41525,5.59322 5.8572,9.16896 12.07705,17.1892 17.72515,21.65235 5.71367,4.51497 5.87921,15.20838 4.64773,28.30528 -1.98817,21.1444 -29.85162,50.90599 -76.52543,52.5 -31.17172,1.06458 -50.44836,-40.48656 -53.61961,-69.45041 -0.49563,-4.52678 -7.65238,-0.56876 -7.04418,2.13921 3.32379,14.79886 6.84555,24.70959 -0.60739,25.23492 -8.45652,0.59607 -12.72093,-14.39445 -17.66949,-26.94915 -1.59065,-4.03555 -4.93667,-1.11578 -4.95763,1.14407 -0.0665,7.16923 7.3776,21.6292 4.57627,22.75424 -5.91476,2.37543 -11.74579,-1.61391 -18.66198,-1.9645 -6.31505,-0.32012 -7.14668,4.41273 -3.58715,5.47566 8.4633,2.52726 25.62572,11.60629 24.83513,19.11727 -0.51132,4.85781 -25.09397,-6.06665 -37.16227,-12.45894 -3.80817,-2.0171 -5.32143,0.63668 -4.83051,2.41525 1.9151,6.93821 10.76637,10.01192 17.56029,12.53848 10.8826,4.04709 -0.88349,12.39509 -5.22978,11.23271 l -10.9322,-2.92373 c -2.46702,-0.5723 -2.94081,4.29384 -1.52542,5.33898 14.41238,10.6423 35.45476,-0.45968 53.38982,-0.38135 10.96074,0.0479 34.48669,10.74963 42.9661,23.13559 -19.84841,4.69206 -49.93218,-2.52298 -60.25423,-5.59322 -10.6931,-3.18061 -10.43034,10.41729 -6.48305,16.39831 3.51245,5.32214 12.11943,7.66146 19.35663,12.18475 2.84415,1.77761 0.72113,6.10335 -0.41004,5.80013 -7.48535,-2.00651 -18.42693,-9.16909 -19.93419,-4.56847 -0.45422,1.38643 -0.26662,6.42833 2.32719,7.33218 22.37115,7.79559 35.4045,13.73721 67.40898,36.18808 12.7382,8.93574 10.20494,33.31995 24.91525,60.84889 z" /><path
     style="fill:#ffffff;stroke:#000000;stroke-opacity:1"
     id="path2832-4"
     d="m 226.26977,294.66883 c 24.91274,-8.2406 34.42335,-35.1501 52.3776,-61.82744 -16.28339,-15.80239 -22.48495,-17.77574 -34.87773,-30.73751 16.2965,-4.4261 11.04619,-12.43949 22.94921,-16.29807 -12.30487,-20.51603 -31.34801,7.15656 -31.99708,-3.42129 -0.4841,-7.88941 22.17089,-20.68612 62.98411,-17.72774 8.28704,0.6007 22.95482,-1.15738 28.77438,-8.06358 3.04143,-3.60933 -2.19391,-7.5122 -5.08503,-5.98358 -24.01739,12.69863 -29.65346,-1.38318 -27.75385,-3.25786 23.69453,-23.38366 56.60852,-3.57291 63.69021,-42.22605 0.83572,-4.56153 -5.06805,-4.03626 -6.49385,-1.05351 -6.34983,13.28376 -14.93396,17.96731 -26.647,19.92883 -4.52616,0.75797 -17.49118,-1.5305 -6.00127,-14.24167 14.53185,-16.076437 50.18907,-24.458853 41.87525,-57.479777 -0.51921,-2.062233 -3.93603,-1.841353 -3.94068,-0.3287 -0.0425,13.824701 -6.77865,27.682258 -14.45418,25.693533 -6.91801,-1.792452 -0.92037,-17.433874 -6.74299,-24.213534 -1.86938,-2.17664 -6.68687,-3.679475 -6.25761,-0.74 1.78014,12.189848 1.50085,11.121693 0.85686,16.258581 -2.2031,17.573469 -21.70964,25.780862 -26.27034,8.350945 -2.66431,-10.182367 2.03971,-11.797346 2.35364,-28.55891 0.0494,-2.634752 -5.31938,-2.256614 -6.10529,-0.0252 -2.65638,7.542165 -3.74978,20.588546 -9.56172,20.886015 -4.94858,0.25328 -14.89996,-8.312029 -20.6056,-17.498581 -1.32294,-2.130042 -5.3787,0.868478 -3.59172,5.723939 4.28857,11.65262 21.3024,26.256551 26.9505,30.719701 5.71367,4.514967 8.90103,13.653938 6.64601,26.613888 -2.93513,16.86864 -28.25243,49.52908 -77.15174,39.36443 -46.44136,-9.65371 -45.42737,-43.06988 -51.52924,-72.234134 -1.48188,-7.082743 -6.60663,1.261305 -6.25987,5.276465 1.30506,15.111269 3.89321,21.988359 -3.27746,24.086869 -9.67594,2.83166 -11.80635,-13.754623 -15.89626,-27.88351 -1.20614,-4.166662 -4.73979,-1.105353 -4.95763,1.14407 -0.66137,6.829305 3.49777,15.85546 2.41998,17.96538 -2.89955,5.67624 -8.40393,2.0269 -15.32013,1.67631 -6.31505,-0.32012 -10.34788,5.0989 -6.77178,6.10469 9.9869,2.80883 29.27784,9.51798 26.59322,19.19867 -1.30533,4.70699 -24.11528,1.66395 -38.01365,-9.17278 -3.39843,-2.64981 -5.32143,0.63668 -4.83051,2.41525 1.9151,6.9382 9.15676,8.89227 15.95067,11.41883 10.8826,4.04708 5.05011,14.51205 -0.57611,13.24919 l -10.90379,-2.44746 c -2.47105,-0.55465 -2.88584,4.22322 -1.52543,5.33898 16.67861,13.67915 26.31144,-4.05168 58.26281,-2.99573 10.95486,0.36204 35.93597,12.81385 40.75525,29.12138 -23.76998,1.29337 -56.59885,-8.66677 -66.9209,-11.73701 -10.6931,-3.18061 -10.73838,12.57358 -6.79109,18.5546 3.51245,5.32214 12.86134,6.42405 20.09854,10.94734 2.84415,1.77761 0.0621,6.35416 -1.06903,6.05094 -7.48535,-2.00651 -18.59397,-9.75054 -20.10123,-5.14992 -0.45422,1.38643 2.85595,8.62851 5.46445,9.48904 22.57089,7.44605 35.91288,15.23405 66.84751,39.55715 12.23167,9.61745 7.72128,22.63959 22.43159,50.16853 z" /><path
     style="fill:none;stroke:#000000;stroke-width:2.5;stroke-linecap:round;stroke-linejoin:miter;stroke-miterlimit:4;stroke-dasharray:none;stroke-opacity:1"
     id="path2900"
     d="m 146.42667,173.35063 c -9.62857,-7.22317 -14.70974,5.82958 -3.50882,8.214" /><use
     style="stroke:#000000;stroke-opacity:1"
     xlink:href="#path2900"
     height="480"
     width="390"
     y="0"
     x="0"
     id="use3674"
     transform="translate(6.836601,156.33987)" /><path
     style="fill:#000000;fill-opacity:1;stroke:none;stroke-opacity:1"
     id="path3676"
     d="m 190.48352,190.22961 c 7.30868,-4.27724 19.93124,-2.60601 23.10259,6.46206 -7.17974,4.6888 -19.83727,3.16631 -23.10259,-6.46206 z" /><path
     style="fill:#ececec;fill-opacity:1;stroke:#000000;stroke-opacity:1"
     id="path3680"
     d="m 204.59775,193.27905 a 2.54902,2.5816998 0 1 1 -5.09804,0 2.54902,2.5816998 0 1 1 5.09804,0 z" /><path
     d="m 190.92025,340.0268 c 7.30868,-4.27724 19.93124,-2.60601 23.10259,6.46206 -7.17974,4.6888 -19.83727,3.16631 -23.10259,-6.46206 z"
     id="path4491"
     style="fill:#000000;fill-opacity:1;stroke:none;stroke-opacity:1" /><path
     d="m 205.03448,343.07624 a 2.54902,2.5816998 0 1 1 -5.09804,0 2.54902,2.5816998 0 1 1 5.09804,0 z"
     id="path4493"
     style="fill:#ececec;fill-opacity:1;stroke:#000000;stroke-opacity:1" /></svg>