<?xml version="1.0" encoding="UTF-8" standalone="no"?>
<svg
   xmlns:dc="http://purl.org/dc/elements/1.1/"
   xmlns:cc="http://creativecommons.org/ns#"
   xmlns:rdf="http://www.w3.org/1999/02/22-rdf-syntax-ns#"
   xmlns:svg="http://www.w3.org/2000/svg"
   xmlns="http://www.w3.org/2000/svg"
   id="svg3772"
   height="500"
   width="400"
   version="1.1">
  <metadata
     id="metadata24">
    <rdf:RDF>
      <cc:Work
         rdf:about="">
        <dc:format>image/svg+xml</dc:format>
        <dc:type
           rdf:resource="http://purl.org/dc/dcmitype/StillImage" />
        <dc:title></dc:title>
      </cc:Work>
    </rdf:RDF>
  </metadata>
  <defs
     id="defs3776" />
  <path
     d="M 398.5,1.5000011 C 396.82633,243.55951 395.88115,400.7656 200,499.53667 4.11885,400.7656 3.17367,243.55951 1.5,1.5 Z"
     id="path4194"
     style="fill:#ffe000;fill-opacity:1;stroke:#000000;stroke-width:1;stroke-linecap:butt;stroke-linejoin:miter;stroke-miterlimit:4;stroke-dasharray:none;stroke-opacity:1" />
  <path
     style="fill:#000000;fill-opacity:1;stroke:none;stroke-opacity:1"
     id="path4318"
     d="M 85.88624,385 108,237 l -33,0 0,-54 28,0 0,31 11,0 0,-31 34,0 0,31 11,0 0,-31 36,0 0,54 -10,0 0,108 30,0 0,-108 -10,0 0,-54 36,0 0,31 11,0 0,-31 34,0 0,31 11,0 0,-31 28,0 0,54 -33,0 22.11375,148 z" />
  <path
     style="fill:#000000;stroke:none"
     id="path4320"
     d="m 328.68335,149.29761 c -12.03805,0.61807 -24.00918,3.33036 -35.11601,1.40462 -3.98948,-0.69167 -2.32117,-8.94521 1.13666,-10.22171 7.18169,-2.65118 13.83899,4.09832 20.75852,0.96012 3.24616,-6.6165 -10.63769,-22.72749 -23.30778,-26.75097 -20.67817,-6.56647 -19.19104,-21.534555 -26.76322,-23.533881 -6.06846,16.900221 -36.75259,56.532081 -40.25888,57.077621 l -23.9578,1.15305 c -1.34133,0.0649 -1.41282,-10.98274 5.42967,-10.85925 4.72127,0.0849 9.5035,3.07782 14.17009,0.26484 7.43829,-4.48386 8.89078,-15.5034 7.0188,-19.46733 -2.73389,-5.78912 -1.21017,-15.49486 2.64865,-23.705062 1.51076,-3.214394 6.0383,-4.508901 9.27012,-6.621547 -0.44074,-2.920411 -3.96761,-2.129262 -5.82693,-1.45674 -16.1009,5.823889 -16.44432,8.198077 -54.26448,1.70553 -4.11659,-0.706682 -6.09973,0.05099 -4.79963,3.856559 0.90693,2.654628 6.24524,5.81421 5.29725,9.93227 -5.00215,21.72932 10.52478,41.47169 4.12807,44.36433 -6.91186,3.12548 -16.92978,-2.27623 -31.4088,3.31077 -3.34462,1.55168 -5.4742,-13.20328 1.45678,-12.58095 5.19407,0.46641 12.18362,1.94857 18.27539,0.7946 3.35718,-0.63593 2.15697,-3.15532 0.92703,-5.16482 L 148.57053,93.0353 c -5.50478,-8.982422 -7.26988,0.14853 -8.13978,10.70529 -0.65643,7.96566 -32.667,20.46944 -38.44647,32.40281 -1.30108,2.68649 -2.22472,4.35712 -3.44319,4.37021 l -24.6321,0.26492 c -2.45311,0.0263 -4.61893,-9.57724 0,-10.19722 7.77363,-1.04335 16.43349,3.22722 20.12946,0 10.52335,-9.18855 15.33944,-38.408371 26.48614,-46.615561 2.20206,-1.621366 -3.2175,-3.013941 -6.75396,-9.137716 -0.76122,-1.318042 -6.74548,-0.800815 -11.38909,-2.648614 L 85.16559,71.649696 c 0,0 -2.63797,-3.536658 -2.31811,-3.451227 1.21283,0.323917 5.28476,-0.731357 7.93151,-3.619524 0.20404,-0.222638 1.31119,3.268566 2.76046,2.795549 0.61924,-0.202099 1.07923,-0.701603 1.49704,-1.175199 2.19083,-2.483368 -1.33265,-6.897873 2.64888,-4.858409 0.39816,0.203962 1.91304,2.711469 2.90837,2.42919 1.98943,-0.564212 1.83309,-1.684529 1.21874,-3.6197 -0.30942,-0.974788 -1.3654,-1.435625 -2.25772,-0.254602 -2.66106,3.521707 -5.10001,1.994984 -5.34978,-1.256698 -0.20781,-2.705191 -6.3993,-0.50383 -3.34473,3.764748 0.87243,1.219163 5.23402,-2.510141 5.30838,-2.27764 0.60639,1.89617 -4.29307,5.217089 -4.88092,5.541751 -1.79586,0.991832 -5.68522,-4.782665 -6.78057,-1.99224 -2.57234,-0.527967 -3.92247,-4.082814 -5.30994,-5.931705 -1.09126,-3.490253 6.68931,-7.821832 4.74024,-10.255846 -2.36575,-2.954376 -6.36634,-1.82077 -8.57776,-1.26574 -2.09579,0.526009 2.85516,5.9666 5.88238,7.239065 0.69909,0.293859 -1.12273,5.077681 -1.84248,4.423706 -2.10754,-1.91494 -8.01372,-13.014904 -4.87388,-13.146331 5.63372,-1.697677 9.72401,-0.09967 15.73847,-1.29688 1.85836,-1.279868 0.61071,-4.529938 3.97292,-5.164796 4.43883,-0.838145 9.31166,-5.811351 18.9376,-1.059441 0.9701,-1.500886 -0.13368,-3.001765 -0.52975,-4.502644 -0.79045,-2.995409 4.29303,-5.294406 8.74114,-4.908069 4.04123,0.350994 7.59177,3.017914 7.41542,4.908069 -0.24745,2.652667 -2.6927,3.619769 -1.52296,5.429656 7.35229,2.086505 11.69484,-6.922036 18.40788,-7.217467 43.69819,-1.923104 39.7592,9.414964 60.85184,9.270145 23.01573,-0.158023 38.04504,-8.649111 50.22143,-4.130028 11.45113,4.249927 20.41109,0.680613 24.6019,4.328668 7.30462,6.358599 17.27035,12.434158 28.5067,17.886177 2.98908,1.450332 2.7233,6.747616 7.3499,10.263375 1.66167,1.262681 -0.2971,5.718513 -2.28542,4.494611 l -4.56881,-3.178337 c -1.24169,-0.863794 -2.81037,1.988574 -1.45679,2.781043 11.37067,6.657134 9.81501,29.163314 14.82481,54.581744 1.4923,7.57176 8.62626,21.88424 4.95137,22.07294 z" />
  <path
     style="fill:#fce300;fill-opacity:1;stroke:#000000;stroke-width:1;stroke-linecap:round;stroke-linejoin:round;stroke-miterlimit:4;stroke-dasharray:none;stroke-opacity:1"
     id="path4322-8"
     d="m 293.07712,141.20459 c -3.42633,-1.75693 -8.93131,-0.53518 -10.42966,2.23375 3.9756,-0.92756 7.29581,-0.24967 10.12789,0.36469 0.92324,0.20025 1.26884,-2.10218 0.30177,-2.59844 z" />
  <path
     style="fill:#fce300;fill-opacity:1;stroke:#000000;stroke-width:1;stroke-linecap:round;stroke-linejoin:round;stroke-miterlimit:4;stroke-dasharray:none;stroke-opacity:1"
     id="path4322"
     d="m 152.27479,147.00272 c -4.61716,-0.0637 -9.00628,4.70616 -8.37617,8.9391 3.13585,-3.49902 6.84267,-4.67159 10.03156,-5.62833 1.03958,-0.31188 -0.3519,-3.29232 -1.65539,-3.31077 z" />
  <path
     style="fill:#fce300;fill-opacity:1;stroke:#000000;stroke-width:1;stroke-linecap:round;stroke-linejoin:round;stroke-miterlimit:4;stroke-dasharray:none;stroke-opacity:1"
     id="path4322-5"
     d="m 152.07703,143.1651 c -4.24515,-1.81688 -10.11981,0.92226 -11.14899,5.07622 4.23204,-2.04134 8.1061,-1.71409 11.419,-1.38452 1.08008,0.10743 0.92829,-3.17835 -0.27001,-3.6917 z" />
  <path
     style="fill:#fce300;fill-opacity:1;stroke:#000000;stroke-width:1;stroke-linecap:round;stroke-linejoin:round;stroke-miterlimit:4;stroke-dasharray:none;stroke-opacity:1"
     id="path4322-7"
     d="m 152.57902,139.18958 c -3.8635,-2.52884 -10.12566,-0.85547 -11.863,3.05561 4.52297,-1.27261 8.28078,-0.27521 11.48557,0.62665 1.04477,0.29403 1.46795,-2.96792 0.37743,-3.68226 z" />
  <path
     style="fill:#fce300;fill-opacity:1;stroke:#000000;stroke-width:1;stroke-linecap:round;stroke-linejoin:round;stroke-miterlimit:4;stroke-dasharray:none;stroke-opacity:1"
     id="path4322-1"
     d="m 204.75511,138.6822 c -3.74991,-2.4012 -9.78697,-0.7501 -11.43739,3.01791 4.35994,-1.25393 7.99681,-0.32266 11.09888,0.52081 1.01132,0.27502 1.39695,-2.86042 0.33852,-3.53869 z" />
  <path
     style="fill:#fce300;fill-opacity:1;stroke:#000000;stroke-width:1;stroke-linecap:round;stroke-linejoin:round;stroke-miterlimit:4;stroke-dasharray:none;stroke-opacity:1"
     id="path4322-2"
     d="m 204.67447,142.22885 c -4.44568,-1.20484 -9.96604,1.98164 -10.4911,5.93461 3.96844,-2.35842 7.8655,-2.48851 11.20405,-2.55382 1.08835,-0.0213 0.54198,-3.04019 -0.71295,-3.38079 z" />
  <path
     style="fill:#fce300;fill-opacity:1;stroke:#000000;stroke-width:1;stroke-linecap:round;stroke-linejoin:round;stroke-miterlimit:4;stroke-dasharray:none;stroke-opacity:1"
     id="path4322-22"
     d="m 205.58536,145.7492 c -4.6012,-0.46727 -9.42234,3.67756 -9.18543,7.75473 3.45298,-3.048 7.26025,-3.83531 10.53078,-4.46324 1.06622,-0.20469 -0.0465,-3.15904 -1.34535,-3.29149 z" />
  <path
     style="fill:#fce300;fill-opacity:1;stroke:#000000;stroke-width:1;stroke-linecap:round;stroke-linejoin:round;stroke-miterlimit:4;stroke-dasharray:none;stroke-opacity:1"
     id="path4322-6"
     d="m 293.17861,147.4997 c -4.61716,-0.0639 -9.00629,4.70609 -8.37625,8.93903 3.13593,-3.49895 6.84275,-4.67159 10.03164,-5.62826 1.03958,-0.31196 -0.3519,-3.29239 -1.65539,-3.31077 z" />
  <path
     style="fill:#fce300;fill-opacity:1;stroke:#000000;stroke-width:1;stroke-linecap:round;stroke-linejoin:round;stroke-miterlimit:4;stroke-dasharray:none;stroke-opacity:1"
     id="path4322-57"
     d="m 293.00114,143.86614 c -4.7678,-0.73028 -10.06024,3.18265 -10.07428,7.31156 3.79564,-2.88262 7.81591,-3.46346 11.26632,-3.91354 1.12481,-0.1467 0.15395,-3.19139 -1.19204,-3.39802 z" />
  <path
     style="fill:#fce300;fill-opacity:1;stroke:#000000;stroke-width:1;stroke-linecap:round;stroke-linejoin:round;stroke-miterlimit:4;stroke-dasharray:none;stroke-opacity:1"
     id="path4322-27"
     d="m 73.25145,137.43063 c -4.61716,-0.0639 -9.00632,4.70609 -8.37623,8.93903 3.13592,-3.49894 6.84272,-4.67159 10.03162,-5.62826 1.03958,-0.31188 -0.35191,-3.29239 -1.65539,-3.31077 z" />
  <path
     style="fill:#fce300;fill-opacity:1;stroke:#000000;stroke-width:1;stroke-linecap:round;stroke-linejoin:round;stroke-miterlimit:4;stroke-dasharray:none;stroke-opacity:1"
     id="path4322-23"
     d="m 73.07952,130.53946 c -3.80314,-2.0778 -9.76407,-0.42171 -11.29643,3.03764 4.30317,-1.25177 7.95066,-0.50362 11.06327,0.17917 1.01471,0.22257 1.3066,-2.62992 0.23316,-3.21681 z" />
  <path
     style="fill:#fce300;fill-opacity:1;stroke:#000000;stroke-width:1;stroke-linecap:round;stroke-linejoin:round;stroke-miterlimit:4;stroke-dasharray:none;stroke-opacity:1"
     id="path4322-4"
     d="m 72.60846,134.16173 c -4.34583,-1.47509 -10.09394,1.31945 -10.91496,5.19112 4.13737,-2.07587 8.03594,-1.95478 11.3724,-1.80541 1.08768,0.0487 0.76928,-2.9689 -0.45744,-3.38571 z" />
  <path
     style="fill:#fce300;fill-opacity:1;stroke:none"
     id="path4458"
     d="m 101.83231,45.49513 c -0.66008,0.690246 -0.69933,1.507746 0.21823,1.981714 1.53812,0.794507 8.60804,0.678163 10.2824,-0.790638 1.02823,-0.902032 0.17032,-2.352507 -1.11817,-2.929932 -2.78578,-1.248447 -7.93824,0.228485 -9.38246,1.738843 z" />
  <path
     style="fill:#000000;fill-opacity:1;stroke:none"
     id="path4462"
     d="m 104.64652,43.477099 c -0.56154,1.730952 -0.31663,4.226147 0.43504,5.340673 l 1.89752,0.12956 c 0.70804,-1.844811 0.69209,-4.942867 0.37463,-5.995922 z" />
  <path
     style="fill:#000000;fill-opacity:1;stroke:none"
     id="path4602"
     d="m 90.37735,65.441908 c -0.6528,-0.639476 -11.72354,-2.325978 -17.40043,0.04934 -3.65709,1.530195 -0.39851,3.960414 0.66002,3.749281 5.99427,-1.195591 11.1304,-0.402982 15.96039,0.443996 l 0.78002,-4.242611 z" />
</svg>
