<svg xmlns:dc="http://purl.org/dc/elements/1.1/" xmlns:cc="http://creativecommons.org/ns#" xmlns:rdf="http://www.w3.org/1999/02/22-rdf-syntax-ns#" xmlns:svg="http://www.w3.org/2000/svg" xmlns="http://www.w3.org/2000/svg" xml:space="preserve" enable-background="new 30.5 31.5 412 533" viewBox="30.5 31.5 400 500" height="500" width="400" y="0" x="0" version="1.1" id="svg2">
  <metadata id="metadata4">
    <rdf:RDF>
      <cc:Work rdf:about="">
        <dc:format>
          
          
          
          image/svg+xml
        
        
        
        </dc:format>
        <dc:type rdf:resource="http://purl.org/dc/dcmitype/StillImage"/>
      </cc:Work>
    </rdf:RDF>
  </metadata>
  <defs id="defs6"/>
  <path d="M230.56 531.14C304.88 477.22 355.82 409.12 386.3 322.98 413.94 244.88 425.03 150.23 420.21 33.63l-0.02-0.46-379.82 0-0.02 0.46c-4.81 116.6 6.28 211.24 33.91 289.35 30.48 86.14 81.42 154.24 155.74 208.16l0.28 0.2 0.28-0.2z" id="path8" fill="#32ac60"/>
  <path d="M41.04 33.21C31.97 252.66 77.3 419.16 230.5 530.31 383.69 419.16 429.01 252.66 419.94 33.21l-189.45 0-189.45 0m-0.92-0.95 0.92 0 189.45 0 189.45 0 0.92 0 0.04 0.92c4.82 116.66-6.28 211.36-33.93 289.52-30.51 86.24-81.51 154.41-155.91 208.39l-0.56 0.41-0.56-0.41C155.54 477.11 104.54 408.94 74.03 322.7 46.38 244.54 35.28 149.84 40.1 33.18l0.04-0.92 0 0z" id="path10"/>
  <path id="path4743" d="m235.5 388.57c36.32-26.8 61.08-62.15 61-112.74-0.07-46.03-21.34-82.86-44.05-118.6-1.99-3.13-1.38-5.18 0-6.47 1.21-1.13 3.63-2.12 3.39-3.39-0.96-5.13-3.86-8.79-6.81-14.09-5.72-10.28-8.32-23.34-7.83-32.12 0.81-14.5 11-24.96 23.26-37.89 1.66-1.75 13.45-2.35 11.71 0.92-2.22 4.17-6.01 11.39-9.24 16.94-0.91 1.56-0.67 4.68 2.62 5.24 2.21 0.38-1.21 6.94-1.69 9.4-1.4 7.1-2.57 9.13-1.54 11.55 1.29 3.03 8.55-2.31 12.94-3.39 3.57-0.88 18.65 16.53 18.48 19.56l-1.39 25.11c-0.87 15.79 19.97 42.51 30.03 62.22l13.25 32.34 14.79-0.62c5.91-0.25 10.19 16.23 10.47 24.95 0.3 9.24 2.71 22.79-3.23 27.57-2.11 1.7-12.3 3.44-18.94 5.08-1.61 20.19-16.5 47.79-29.88 61.61-20.49 21.15-56.27 36.34-60.07 49.59-2.59 9.05 3.74 15.29 11.71 14.48 9.76-1 9-7.31 9.4-12.63 16.31 5.68 10.51 22.63 8.47 25.57-6.58 9.46-16.58 10.44-29.57 6.78l0 12.32c-5.88-0.9-10.38-3.14-12.63-7.7-4.63-9.37-4-20.99-4.17-31.88z" style="fill-rule:evenodd;fill:#ffe000;stroke:#000"/>
  <path id="path4749" d="m341.86 252.34 8.24-0.31c3.53-0.13 5.41 9.98 6.01 17.87 0.45 5.94 1.01 17.49-1.46 17.94l-10.47 1.93c0.67-11.08 0.11-24.53-2.31-37.43z" style="fill-rule:evenodd;fill:#32ac60;stroke:#000"/>
  <path id="path4751" d="m284.75 135.6c-7.66-6.92-10.02-10.78-14.57-16.21-1.44-1.72 2.7-3.13 5.36-4.24 3.27-1.37 11.88 6.13 12.07 10.12 0.22 4.58-1.01 11.55-2.86 10.33z" style="fill-rule:evenodd;fill:#32ac60;stroke:#000"/>
  <path d="m225.5 388.57c-36.32-26.8-61.08-62.15-61-112.74 0.07-46.03 21.34-82.86 44.05-118.6 1.99-3.13 1.38-5.18 0-6.47-1.21-1.13-3.63-2.12-3.39-3.39 0.96-5.13 3.86-8.79 6.81-14.09 5.72-10.28 8.32-23.34 7.83-32.12-0.81-14.5-11-24.96-23.26-37.89-1.66-1.75-13.45-2.35-11.71 0.92 2.22 4.17 6.01 11.39 9.24 16.94 0.91 1.56 0.67 4.68-2.62 5.24-2.21 0.38 1.21 6.94 1.69 9.4 1.4 7.1 2.57 9.13 1.54 11.55-1.29 3.03-8.55-2.31-12.94-3.39-3.57-0.88-18.65 16.53-18.48 19.56l1.39 25.11c0.87 15.79-19.97 42.51-30.03 62.22l-13.25 32.34-14.79-0.62c-5.91-0.25-10.19 16.23-10.47 24.95-0.3 9.24-2.71 22.79 3.23 27.57 2.11 1.7 12.3 3.44 18.94 5.08 1.61 20.19 16.5 47.79 29.88 61.61 20.49 21.15 56.27 36.34 60.07 49.59 2.59 9.05-3.74 15.29-11.71 14.48-9.76-1-9-7.31-9.4-12.63-16.31 5.68-10.51 22.63-8.47 25.57 6.58 9.46 16.58 10.44 29.57 6.78l0 12.32c5.88-0.9 10.38-3.14 12.63-7.7 4.63-9.37 4-20.99 4.17-31.88z" id="path4759" style="fill-rule:evenodd;fill:#ffe000;stroke:#000"/>
  <path d="m119.14 252.34-8.24-0.31c-3.53-0.13-5.41 9.98-6.01 17.87-0.45 5.94-1.01 17.49 1.46 17.94l10.47 1.93c-0.67-11.08-0.11-24.53 2.31-37.43z" id="path4761" style="fill-rule:evenodd;fill:#32ac60;stroke:#000"/>
  <path d="m176.25 135.6c7.66-6.92 10.02-10.78 14.57-16.21 1.44-1.72-2.7-3.13-5.36-4.24-3.27-1.37-11.88 6.13-12.07 10.12-0.22 4.58 1.01 11.55 2.86 10.33z" id="path4763" style="fill-rule:evenodd;fill:#32ac60;stroke:#000"/>
</svg>
