<?xml version="1.0" encoding="UTF-8" standalone="no"?>
<svg
   xmlns:dc="http://purl.org/dc/elements/1.1/"
   xmlns:cc="http://creativecommons.org/ns#"
   xmlns:rdf="http://www.w3.org/1999/02/22-rdf-syntax-ns#"
   xmlns:svg="http://www.w3.org/2000/svg"
   xmlns="http://www.w3.org/2000/svg"
   xml:space="preserve"
   enable-background="new 30.5 31.5 412 533"
   viewBox="30.5 31.5 400 500"
   height="500"
   width="400"
   y="0"
   x="0"
   version="1.1"
   id="svg2"><metadata
     id="metadata4"><rdf:RDF><cc:Work
         rdf:about=""><dc:format>
          
          
          
          
          image/svg+xml
        
        
        
        
        </dc:format><dc:type
           rdf:resource="http://purl.org/dc/dcmitype/StillImage" /><dc:title></dc:title></cc:Work></rdf:RDF></metadata><defs
     id="defs6" /><path
     style="fill:#0085ca;fill-opacity:1"
     d="M 230.44,531.14 C 156.12,477.22 105.18,409.12 74.7,322.98 47.06,244.88 35.97,150.23 40.79,33.63 l 0.02,-0.46 379.82,0 0.02,0.46 c 4.81,116.6 -6.28,211.24 -33.91,289.35 C 356.26,409.12 305.32,477.22 231,531.14 l -0.28,0.2 -0.28,-0.2 z"
     id="path8" /><path
     d="M 419.96,33.21 C 429.03,252.66 383.7,419.16 230.5,530.31 77.31,419.16 31.99,252.66 41.06,33.21 l 189.45,0 189.45,0 m 0.92,-0.95 -0.92,0 -189.45,0 -189.45,0 -0.92,0 -0.04,0.92 c -4.82,116.66 6.28,211.36 33.93,289.52 30.51,86.24 81.51,154.41 155.91,208.39 l 0.56,0.41 0.56,-0.41 C 305.46,477.11 356.46,408.94 386.97,322.7 414.62,244.54 425.72,149.84 420.9,33.18 l -0.04,-0.92 0,0 z"
     id="path10" /><path
     id="path4235"
     d="M 292.01816,110.10576 C 291.01569,100.02791 290.02473,91.660581 288.5,79.5 c -0.30365,-2.421789 24.07984,8.930231 24.54231,11.868927 3.51823,22.356233 6.5985,45.609753 9.1964,68.554073 4.18316,36.94507 5.02654,73.79792 0.59303,110.577 l 9.85734,0 c 2.19255,-15.0882 9.27013,-34.16766 15.94117,-40.95805 2.67756,-2.72545 8.20849,0.6 6.85393,3.61949 -6.16583,13.74436 -11.08951,26.42935 -11.08951,43.74195 0,17.3126 4.92368,29.99759 11.08951,43.74195 1.35456,3.01949 -4.17637,6.34494 -6.85393,3.61949 C 341.95921,317.47444 333.99812,296.5882 331.80557,281.5 l -10.52105,0 c -5.09964,26.12927 -19.05898,60.70562 -41.32706,89.293 -7.15352,9.18356 -15.65707,18.45295 -24.81203,26.88814 -1.33764,1.23247 -14.23367,-8.28186 -13.40096,-9.84797 6.36843,-10.20857 12.69796,-22.19253 17.24075,-31.47714 12.21635,-24.96789 20.93557,-52.14885 27.01584,-74.85603 l -111.00212,0 c 6.08027,22.70718 14.79949,49.88814 27.01584,74.85603 4.54279,9.28461 10.87232,21.26857 17.24075,31.47714 0.83271,1.56611 -12.06332,11.08044 -13.40096,9.84797 -9.15496,-8.43519 -17.65851,-17.70458 -24.81203,-26.88814 -22.26808,-28.58738 -36.22742,-63.16373 -41.32706,-89.293 l -11.21548,0 0,14 c 0,1.69634 -12,1.69634 -12,0 l 0,-40 c 0,-1.69634 12,-1.69634 12,0 l 0,14 9.66826,0 c -4.43351,-36.77908 -3.59013,-72.63193 0.59303,-109.577 2.5979,-22.94432 5.67817,-46.19784 9.1964,-68.554073 C 148.42016,88.430231 172.80365,77.078211 172.5,79.5 c -1.52473,12.160581 -2.51569,20.52791 -3.51816,30.60576 C 163.57181,164.49323 163.37432,215.05014 172.5,269.5 l 116,0 c 9.12568,-54.44986 8.92819,-105.00677 3.51816,-159.39424 z"
     style="fill:#ffe000;fill-opacity:1;fill-rule:evenodd;stroke:#000000;stroke-width:1px;stroke-linecap:butt;stroke-linejoin:round;stroke-opacity:1" /></svg>