<?xml version="1.0" encoding="UTF-8" standalone="no"?>
<svg
   xmlns:dc="http://purl.org/dc/elements/1.1/"
   xmlns:cc="http://creativecommons.org/ns#"
   xmlns:rdf="http://www.w3.org/1999/02/22-rdf-syntax-ns#"
   xmlns:svg="http://www.w3.org/2000/svg"
   xmlns="http://www.w3.org/2000/svg"
   id="svg2"
   version="1.1"
   x="0"
   y="0"
   width="400"
   height="500"
   viewBox="30.5 31.5 400 500"
   enable-background="new 30.5 31.5 412 533"
   xml:space="preserve"><metadata
     id="metadata4"><rdf:RDF><cc:Work
         rdf:about=""><dc:format>
          
          
          
          
          image/svg+xml
        
        
        
        
        </dc:format><dc:type
           rdf:resource="http://purl.org/dc/dcmitype/StillImage" /><dc:title></dc:title></cc:Work></rdf:RDF></metadata><defs
     id="defs6" /><path
     style="fill:#e00e00"
     d="M 230.45,531.13 C 156.13,477.21 105.19,409.11 74.71,322.97 47.07,244.87 35.98,150.22 40.8,33.62 l 0.02,-0.46 379.82,0 0.02,0.46 c 4.81,116.6 -6.28,211.24 -33.91,289.35 -30.48,86.14 -81.42,154.24 -155.74,208.16 l -0.28,0.2 z"
     id="path4148" /><path
     id="path10"
     d="M 419.96,33.21 C 429.03,252.66 383.71,419.16 230.51,530.31 146.04,469.02 94.36,390.9 66.52,296.34 64.43,289.25 62.48,282.07 60.65,274.8 49.2,229.11 42.88,179.78 40.77,126.86 39.57,96.8 39.72,65.58 41.06,33.21 l 189.45,0 189.45,0 m 0.92,-0.95 -0.92,0 -189.45,0 -189.45,0 -0.92,0 -0.04,0.92 c -4.82,116.66 6.28,211.36 33.93,289.52 30.51,86.24 81.51,154.41 155.91,208.39 l 0.56,0.41 0.56,-0.41 C 305.46,477.11 356.46,408.94 386.97,322.7 414.62,244.54 425.72,149.84 420.9,33.18 l -0.04,-0.92 0,0 z" /><path
     style="fill:#ffe000;fill-opacity:1;stroke:#000000;stroke-width:1;stroke-miterlimit:4;stroke-dasharray:none;stroke-opacity:1"
     id="path4299"
     d="m 217.78037,218.13195 c -7.61779,-4.19436 -9.03465,-6.17039 -15.1045,-2.43583 -6.70759,4.12693 -9.305,5.36218 -14.47253,9.32259 -11.6832,8.95422 -20.44985,13.93963 -32.28433,18.48932 -4.81893,1.85254 -13.20693,5.0334 -18.36912,3.4665 l 2.84982,-4.65253 c -7.53626,1.92287 -22.13046,-0.23513 -29.43606,-6.91541 l 4.02462,-3.75849 c -5.96815,-2.62243 -15.41788,-11.44302 -17.32242,-17.81987 l 5.20153,-2.73508 C 96.33064,206.36459 89.55897,197.21878 88.53589,191.73041 l 4.62406,-2.10009 C 86.78998,185.51131 81.08969,175.75301 79.2745,170.84257 l 5.18968,-1.27994 c -4.45609,-3.5502 -10.3143,-10.88572 -12.73116,-17.71833 l 4.22402,-0.45373 c -4.31386,-3.21752 -8.95394,-11.41852 -9.64522,-15.27642 l 3.93965,-0.4212 c -3.46002,-2.79382 -8.92427,-11.92768 -10.23786,-17.1384 5.12235,-1.62445 15.76473,-1.7831 19.961,-0.31057 l -1.71451,-3.57197 c 3.64446,-1.44184 13.05994,-1.81065 18.0657,0.16515 l -1.83646,-3.83095 c 7.08209,-1.53945 16.40241,-0.41698 21.76599,1.50464 l -1.64196,-5.08673 c 5.13083,-1.03978 16.42851,-1.32633 23.2827,1.92361 l -0.64693,-5.03724 c 5.20562,-2.01752 16.54612,-1.07067 24.00645,2.00043 l -0.41075,-5.86252 c 6.42495,-1.735314 18.89774,1.66012 24.26784,5.35578 l 1.0789,-5.4001 c 9.52458,2.69808 19.0381,13.97378 21.36793,21.39433 l 2.45718,-4.87125 c 4.04846,3.56552 5.75655,12.37226 6.71647,17.44501 2.35738,12.45781 1.51259,23.84149 0.0447,38.48809 -0.64924,6.47817 -4.14746,18.46199 -4.128,26.33751 0.0176,7.12671 0.68855,8.5658 8.29634,12.77822 6.03131,3.33954 5.4788,-5.16903 9.5538,-5.16903 4.075,0 3.52249,8.50857 9.5538,5.16903 7.60779,-4.21242 8.27874,-5.65151 8.29634,-12.77822 0.0195,-7.87552 -3.47876,-19.85934 -4.128,-26.33751 -1.46789,-14.6466 -2.31268,-26.03028 0.0447,-38.48809 0.95992,-5.07275 2.66801,-13.87949 6.71647,-17.44501 l 2.45718,4.87125 c 2.32983,-7.42055 11.84335,-18.69625 21.36793,-21.39433 l 1.0789,5.4001 c 5.3701,-3.69566 17.84289,-7.091094 24.26784,-5.35578 l -0.41075,5.86252 c 7.46033,-3.0711 18.80083,-4.01795 24.00645,-2.00043 l -0.64693,5.03724 c 6.85419,-3.24994 18.15187,-2.96339 23.2827,-1.92361 l -1.64196,5.08673 c 5.36358,-1.92162 14.6839,-3.04409 21.76599,-1.50464 l -1.83646,3.83095 c 5.00576,-1.9758 14.42124,-1.60699 18.0657,-0.16515 l -1.71451,3.57197 c 4.19627,-1.47253 14.83865,-1.31388 19.961,0.31057 -1.31359,5.21072 -6.77784,14.34458 -10.23786,17.1384 l 3.93966,0.4212 c -0.69129,3.8579 -5.33137,12.0589 -9.64523,15.27642 l 4.22402,0.45373 c -2.41686,6.83261 -8.27507,14.16813 -12.73115,17.71833 l 5.18968,1.27994 c -1.8152,4.91044 -7.51549,14.66874 -13.88546,18.78775 l 4.62406,2.10009 c -1.02308,5.48837 -7.79475,14.63418 -14.33149,19.36274 l 5.20153,2.73508 c -1.90453,6.37685 -11.35427,15.19744 -17.32242,17.81987 l 4.02462,3.75849 c -7.3056,6.68028 -21.8998,8.83828 -29.43606,6.91541 l 2.84982,4.65253 c -5.16219,1.5669 -13.55019,-1.61396 -18.36912,-3.4665 -11.83448,-4.54969 -20.60113,-9.5351 -32.28433,-18.48932 -5.16753,-3.96041 -7.76494,-5.19566 -14.47253,-9.32259 -6.06985,-3.73456 -7.48671,-1.75853 -15.1045,2.43583 -7.22287,3.97691 3.77812,9.79734 0.73159,14.29689 -2.4913,3.6795 -10.27273,-1.32708 -10.29303,6.1905 -0.0256,9.48265 -0.51928,15.0319 6.25984,18.83144 7.49138,4.19874 15.54667,6.4982 22.06201,9.31831 14.73056,6.37598 26.02238,11.61361 36.63769,20.47154 4.32249,3.60689 11.8046,9.9084 13.05202,15.65726 l -5.94427,-0.24503 c 5.8317,6.15798 11.52256,21.20492 9.03706,31.70957 l -5.71639,-1.83862 c 0.6699,7.0768 -2.71628,20.75987 -7.77952,25.95883 l -5.36623,-3.50294 c -1.0345,8.73634 -6.15196,20.04111 -10.83682,23.92879 l -4.45479,-3.2899 c -0.54238,8.25393 -6.81198,18.86329 -10.52584,23.19871 l -3.97381,-4.26399 c -1.01643,6.12896 -4.89434,15.60273 -10.11986,21.53156 l -2.67426,-3.78271 c -0.77503,5.81692 -6.12395,14.58977 -9.43179,17.29595 l -2.49238,-3.52908 c -0.82466,4.77871 -6.62466,14.83175 -10.89085,18.84878 -4.26619,-4.01703 -10.06619,-14.07007 -10.89085,-18.84878 l -2.49238,3.52908 c -3.30784,-2.70618 -8.65676,-11.47903 -9.43179,-17.29595 l -2.67426,3.78271 c -5.22552,-5.92883 -9.10343,-15.4026 -10.11986,-21.53156 l -3.97381,4.26399 c -3.71386,-4.33542 -9.98346,-14.94478 -10.52584,-23.19871 l -4.45479,3.2899 c -4.68486,-3.88768 -9.80232,-15.19245 -10.83682,-23.92879 l -5.36623,3.50294 c -5.06324,-5.19896 -8.44942,-18.88203 -7.77952,-25.95883 l -5.71639,1.83862 c -2.4855,-10.50465 3.20536,-25.55159 9.03706,-31.70957 l -5.94427,0.24503 c 1.24742,-5.74886 8.72953,-12.05037 13.05202,-15.65726 10.61531,-8.85793 21.90713,-14.09556 36.63769,-20.47154 6.51534,-2.82011 14.57063,-5.11957 22.06201,-9.31831 6.77912,-3.79954 6.28541,-9.34879 6.25984,-18.83144 -0.0203,-7.51758 -7.80173,-2.511 -10.29303,-6.1905 -3.04653,-4.49955 7.95446,-10.31998 0.73159,-14.29689 z" /></svg>