<?xml version="1.0" encoding="UTF-8" standalone="no"?>
<!-- Created with Inkscape (http://www.inkscape.org/) -->
<svg
   xmlns:dc="http://purl.org/dc/elements/1.1/"
   xmlns:cc="http://web.resource.org/cc/"
   xmlns:rdf="http://www.w3.org/1999/02/22-rdf-syntax-ns#"
   xmlns:svg="http://www.w3.org/2000/svg"
   xmlns="http://www.w3.org/2000/svg"
   xmlns:sodipodi="http://sodipodi.sourceforge.net/DTD/sodipodi-0.dtd"
   xmlns:inkscape="http://www.inkscape.org/namespaces/inkscape"
   version="1.0"
   width="1800"
   height="1200.0002"
   id="svg2"
   sodipodi:version="0.32"
   inkscape:version="0.45"
   sodipodi:docname="Zlin_Region_CoA_CZ.svg"
   sodipodi:docbase="/home/zirland/Desktop"
   inkscape:output_extension="org.inkscape.output.svg.inkscape"
   sodipodi:modified="true">
  <metadata
     id="metadata137">
    <rdf:RDF>
      <cc:Work
         rdf:about="">
        <dc:format>image/svg+xml</dc:format>
        <dc:type
           rdf:resource="http://purl.org/dc/dcmitype/StillImage" />
      </cc:Work>
    </rdf:RDF>
  </metadata>
  <sodipodi:namedview
     inkscape:window-height="949"
     inkscape:window-width="1280"
     inkscape:pageshadow="2"
     inkscape:pageopacity="0.0"
     guidetolerance="10.0"
     gridtolerance="10.0"
     objecttolerance="10.0"
     borderopacity="1.0"
     bordercolor="#666666"
     pagecolor="#ffffff"
     id="base"
     width="1800px"
     height="1200.0002px"
     inkscape:zoom="0.3391666"
     inkscape:cx="788.37575"
     inkscape:cy="588.26695"
     inkscape:window-x="0"
     inkscape:window-y="25"
     inkscape:current-layer="svg2" />
  <defs
     id="defs2549" />
  <g
     id="g3901">
    <g
       transform="translate(561.72688,58.134113)"
       id="g3768">
      <path
         d="M -561.72688,-58.134113 L 338.27316,-58.134113 L 338.27316,541.86583 L -561.72688,541.86583 L -561.72688,-58.134113 z "
         style="fill:#0a0a64;fill-opacity:1;fill-rule:evenodd;stroke:none;stroke-width:3.82678771;stroke-miterlimit:4;stroke-dasharray:none;stroke-opacity:1"
         id="path3764" />
      <g
         id="g2711"
         transform="translate(431.90861,103.53589)">
        <path
           d="M -734.54515,-122.23695 L -736.38049,-123.66864 L -727.20382,-129.47078 L -704.26214,-116.35946 L -687.2853,-107.69393 L -659.14351,-112.29043 L -643.39023,-115.68129 L -625.95455,-108.2214 L -618.84263,-96.993889 L -621.59563,-80.114951 L -639.10778,-50.124687 L -639.79603,-32.944343 L -635.97242,-13.051301 L -642.01373,-15.537928 L -649.27859,-23.374581 L -654.09634,-35.129561 L -662.35535,-15.085819 L -659.98471,6.3142722 L -652.87279,19.199531 L -638.64895,27.789703 L -622.05447,27.337593 L -607.37179,23.871376 L -597.12451,30.50239 L -589.24787,39.092573 L -572.95928,24.549556 L -580.0712,21.234049 L -590.70084,11.664287 L -597.4304,10.910768 L -604.15996,13.623456 L -603.39524,8.1980804 L -597.4304,1.7931262 L -584.81248,2.1698858 L -568.44742,9.1776595 L -561.48844,9.5544191 L -552.00588,1.4163666 L -546.88224,-10.715373 L -550.24702,-20.812604 L -553.84122,-24.128111 L -542.37038,-29.553476 L -536.7879,-36.41055 L -534.0349,-45.151432 L -536.2526,-54.118364 L -547.49402,-60.523318 L -559.72958,-63.612765 L -566.45914,-67.907862 L -572.65339,-74.312816 L -568.29447,-76.121274 L -565.31205,-80.416361 L -565.54147,-85.615675 L -571.04747,-90.43823 L -573.34164,-90.43823 L -573.34164,-92.924858 L -512.92856,-92.924858 L -496.02819,-74.915635 L -486.23974,-64.592355 L -473.62182,-60.975438 L -477.90426,-57.358521 L -483.8691,-56.604992 L -492.20458,-58.48881 L -499.92828,-61.879667 L -488.76333,-45.377482 L -489.22216,-29.704186 L -502.37539,9.7804789 L -505.28134,23.268557 L -496.94586,36.605935 L -485.93385,26.885474 L -472.70415,25.679835 L -448.69187,29.598161 L -434.85039,25.981244 L -426.2855,16.863603 L -421.62069,5.033273 L -420.7795,-11.770312 L -426.36197,-34.300682 L -431.86797,-41.459165 L -437.45045,-26.011919 L -444.63884,-19.154845 L -450.29778,-15.839338 L -447.54479,-25.48445 L -446.62711,-42.890854 L -449.38012,-55.248653 L -467.04521,-82.676928 L -469.87469,-93.301621 L -466.58638,-102.72067 L -457.33323,-110.63268 L -445.0212,-112.89325 L -417.87355,-108.14605 L -404.03207,-103.92631 L -393.93774,-105.2073 L -382.161,-111.83831 L -369.08425,-121.03131 L -359.75463,-123.744 L -350.1956,-120.80525 L -358.76049,-117.11298 L -372.60198,-101.74109 L -380.86097,-94.281202 L -388.66114,-90.287525 L -367.5548,-78.155782 L -349.20147,-61.126138 L -335.13057,-55.399353 L -325.57154,-56.906401 L -326.87157,-45.226782 L -333.37171,-35.355611 L -343.16015,-30.382355 L -354.01921,-30.382355 L -368.85483,-37.088719 L -383.61398,-46.206361 L -364.03708,-19.230195 L -348.97205,-5.1392977 L -338.87771,0.36142736 L -327.86571,-1.3716812 L -327.10099,8.7255501 L -337.19531,21.761518 L -346.44846,23.946736 L -361.5135,18.370651 L -377.41972,5.410043 L -374.28436,15.884023 L -353.63686,46.929216 L -343.54252,57.026447 L -336.58354,58.834905 L -326.79509,56.272917 L -328.63043,71.117344 L -334.13643,80.084276 L -344.07782,86.112471 L -354.01921,85.283602 L -360.97819,82.269504 L -385.83167,58.006026 L -375.89028,79.255407 L -346.37199,118.3633 L -338.3424,123.18586 L -327.25392,122.28163 L -331.00107,134.71478 L -339.26007,142.55143 L -354.93689,146.2437 L -369.00778,140.66762 L -389.57882,117.30837 L -412.13813,83.173734 L -397.14957,117.53443 L -371.07253,158.45079 L -352.4133,177.51495 L -339.94832,183.16638 L -326.10684,182.0361 L -334.90116,198.16151 L -348.97205,206.14886 L -359.14286,207.05309 L -370.6137,203.43618 L -391.87299,188.21499 L -417.26177,152.27189 L -452.89784,81.440625 L -452.97432,93.572364 L -444.63884,129.66617 L -437.75633,152.87471 L -430.18558,170.58253 L -417.7206,185.87907 L -431.86797,190.32486 L -449.53306,187.31076 L -463.37454,175.02832 L -474.08066,157.24515 L -483.79263,127.93306 L -487.92213,107.88932 L -505.89311,170.20577 L -489.45158,187.53682 L -468.42171,202.53195 L -453.89198,205.92281 L -434.5445,205.92281 L -448.15656,216.84891 L -468.88054,224.08274 L -464.06279,237.94759 L -464.75104,261.38218 L -473.23946,286.77595 L -480.19843,271.10265 L -492.43399,254.52512 L -505.58723,240.43421 L -507.65198,257.68992 L -518.0522,284.51537 L -524.47587,306.59363 L -522.18171,321.13665 L -507.42256,333.19303 L -492.89283,331.83669 L -485.70443,324.75357 L -484.09852,318.42396 L -489.22216,307.72392 L -475.6101,308.17603 L -464.29221,318.1979 L -463.60395,328.82259 L -470.9453,340.20081 L -464.98046,340.42686 L -451.13898,334.32332 L -431.33266,321.13665 L -409.38513,315.18381 L -387.28465,317.74579 L -372.5255,324.75357 L -357.53694,340.20081 L -353.7898,357.90863 L -355.85455,378.8566 L -357.76636,373.58192 L -363.27236,362.73118 L -373.90201,355.422 L -390.03765,355.19594 L -406.86154,362.73118 L -428.27378,381.11717 L -445.40355,392.49539 L -461.30979,397.01653 L -482.26318,396.79047 L -499.77534,390.00875 L -515.45215,378.17843 L -530.67012,362.95723 L -530.21129,373.58192 L -523.32879,388.57706 L -514.76389,400.8595 L -531.89368,398.97569 L -534.72315,400.78415 L -538.92913,410.42926 L -544.58807,403.57219 L -546.34694,399.4278 L -563.78261,399.12639 L -554.9883,390.61157 L -549.55877,380.81576 L -545.50574,370.04037 L -546.7293,360.92273 L -560.64725,382.24746 L -572.19456,393.70103 L -590.5479,399.87992 L -608.90124,401.61303 L -619.68383,399.65386 L -632.30175,394.68061 L -653.63751,378.10307 L -670.4614,364.99175 L -687.74413,357.0044 L -703.19153,356.10017 L -712.44467,360.0185 L -717.95067,366.12204 L -719.32718,373.58192 L -718.63892,386.7686 L -725.5979,374.56151 L -727.66265,361.82695 L -725.13907,348.64028 L -718.40951,335.67967 L -705.94453,324.30145 L -689.12063,316.54016 L -673.90266,315.40987 L -653.56104,319.85566 L -613.03074,340.20081 L -616.31905,326.18526 L -613.56605,314.95775 L -602.85993,308.40209 L -589.63023,307.1211 L -593.14796,318.72537 L -588.86551,329.80217 L -575.9417,335.98108 L -563.70614,335.00149 L -554.45299,328.82259 L -551.24116,315.63593 L -554.22358,293.40697 L -568.06506,264.32093 L -576.78289,243.67437 L -596.13037,264.17022 L -602.78346,273.13716 L -610.50716,287.07736 L -616.93083,257.61457 L -616.31905,239.90674 L -611.65424,220.76723 L -624.96041,218.50666 L -638.41953,211.27283 L -641.47842,206.90239 L -618.61322,207.2038 L -602.17168,197.93545 C -601.33049,197.48334 -600.10693,196.50376 -599.34221,196.05164 L -584.04776,179.92623 L -580.22414,165.83533 L -582.28889,150.23737 L -598.57749,107.36185 L -602.85993,132.60491 L -610.43068,158.14938 L -620.21913,174.19944 L -631.76644,183.16638 L -643.31375,188.13964 L -652.64337,189.34528 L -663.42596,188.59176 L -658.45526,180.67976 L -652.10806,169.00013 L -640.79017,126.19995 L -636.5842,105.40269 L -634.06061,81.817385 L -654.40223,130.87181 L -672.52616,169.00013 L -691.87364,193.03755 L -709.23284,203.21013 L -725.82732,206.67633 L -739.36291,204.18971 L -751.67494,195.07206 L -756.03386,188.13964 L -757.10447,182.78961 L -742.88063,184.97484 L -726.43909,174.95297 L -705.40922,151.66907 L -693.55603,132.45421 L -678.1851,104.79987 L -666.10249,74.809611 L -673.36735,81.968095 L -696.53844,114.29428 L -713.13292,132.07745 L -728.65679,141.94861 L -744.56302,144.35989 L -756.7221,138.85916 L -759.85747,132.75562 L -761.92222,118.43866 L -754.12205,122.13093 L -746.62777,119.19218 L -732.25099,107.4372 L -712.90351,81.666685 L -693.55603,51.224302 L -712.3682,68.706066 L -728.19796,80.762456 L -746.93366,83.851903 L -756.49269,76.392009 L -760.77514,64.93845 L -761.08102,54.163049 L -754.96325,58.834905 L -745.63363,55.444038 L -732.63335,43.689069 L -712.75056,20.17911 L -707.55045,11.136828 L -708.46811,9.6297793 L -729.65093,22.364328 L -741.96297,25.378425 L -753.66322,20.17911 L -758.86333,12.643877 L -760.39277,4.4304536 L -759.16922,-3.4061891 L -752.13378,-0.69350153 L -738.29229,-5.817467 L -725.67437,-18.250616 L -702.27386,-50.350747 L -709.99756,-45.829601 L -729.65093,-33.697862 L -742.26885,-31.286584 L -749.91607,-32.793633 L -758.55744,-38.821828 L -762.22811,-49.145108 L -761.61633,-56.755702 L -749.3043,-54.871893 L -734.62163,-63.386716 L -717.03301,-79.738191 L -700.13264,-93.376973 L -706.93867,-95.788251 L -717.3389,-109.42704 L -720.47426,-115.15382 L -727.8156,-119.59961 L -734.54515,-122.23695 z "
           style="fill:#ffffff;fill-rule:evenodd"
           id="path72" />
        <path
           d="M -725.90379,99.600559 L -705.56217,70.740585 L -705.56217,121.82952 L -752.97497,121.82952 L -741.50413,116.7809 L -725.90379,99.600559 z "
           style="fill:#ba2b1a;fill-rule:evenodd"
           id="path74" />
        <path
           d="M -750.22196,-32.944343 L -759.01627,-40.404226 L -717.95067,-40.404226 L -728.58032,-34.526742 L -741.73355,-31.814054 L -750.22196,-32.944343 z "
           style="fill:#ba2b1a;fill-rule:evenodd"
           id="path76" />
        <path
           d="M -488.15155,-58.03669 L -488.15155,-66.250103 L -485.09266,-63.914175 L -474.84538,-61.050788 L -476.91013,-58.1874 L -480.65727,-56.378942 L -488.15155,-58.03669 z "
           style="fill:#ba2b1a;fill-rule:evenodd"
           id="path78" />
        <path
           d="M -534.8761,-40.404226 L -486.77505,-40.404226 L -490.44572,-23.223882 L -500.84595,5.8621524 L -503.446,15.507264 L -539.99974,15.507264 L -539.99974,-31.738704 L -534.8761,-40.404226 z "
           style="fill:#ba2b1a;fill-rule:evenodd"
           id="path80" />
        <path
           d="M -539.99974,-57.207811 L -539.99974,-93.301621 L -573.11223,-93.301621 L -573.11223,-90.362877 L -567.07092,-87.424132 L -565.23558,-83.430458 L -566.0003,-79.210722 L -569.97686,-74.990985 L -572.95928,-73.860696 L -564.16497,-65.797994 L -554.07063,-61.653607 L -539.99974,-57.207811 z "
           style="fill:#ba2b1a;fill-rule:evenodd"
           id="path82" />
        <path
           d="M -469.33938,-87.574837 L -469.33938,-93.603031 L -432.09738,-93.603031 L -432.09738,-40.404226 L -447.00948,-40.404226 L -447.62126,-48.994398 L -452.7449,-60.523318 L -460.77449,-71.901538 L -469.33938,-87.574837 z "
           style="fill:#ba2b1a;fill-rule:evenodd"
           id="path84" />
        <path
           d="M -382.08453,-93.603031 L -432.09738,-93.603031 L -432.09738,-111.08479 L -415.2735,-107.54323 L -403.34382,-104.15237 L -390.42001,-105.96083 L -377.41972,-116.35946 L -377.41972,-97.295298 L -382.08453,-93.603031 z "
           style="fill:#ba2b1a;fill-rule:evenodd"
           id="path86" />
        <path
           d="M -370.30781,-80.114951 L -377.41972,-84.86215 L -377.41972,-43.192264 L -373.13728,-40.404226 L -329.24221,-40.404226 L -325.03623,-51.104267 L -325.9539,-57.810631 L -334.59526,-55.625413 L -347.51907,-60.146559 L -370.30781,-80.114951 z "
           style="fill:#ba2b1a;fill-rule:evenodd"
           id="path88" />
        <path
           d="M -423.07367,-23.374581 L -429.34439,-40.404226 L -380.01978,-40.404226 L -377.41972,-37.164069 L -377.41972,15.507264 L -425.4443,15.507264 L -420.93243,-0.467452 L -423.07367,-23.374581 z "
           style="fill:#ba2b1a;fill-rule:evenodd"
           id="path90" />
        <path
           d="M -357.53694,20.405169 L -365.03122,15.507264 L -331.00107,15.507264 L -336.73649,21.460109 L -344.99549,23.796026 L -357.53694,20.405169 z "
           style="fill:#ba2b1a;fill-rule:evenodd"
           id="path92" />
        <path
           d="M -373.21375,15.507264 L -377.41972,15.507264 L -377.41972,67.274368 L -327.55981,67.274368 L -325.80096,58.081376 L -327.86571,55.594748 L -335.13057,58.533496 L -344.6896,56.348267 L -357.00164,41.7299 L -370.84311,21.384749 L -373.21375,15.507264 z "
           style="fill:#ba2b1a;fill-rule:evenodd"
           id="path94" />
        <path
           d="M -377.41972,132.60491 L -377.41972,121.82952 L -328.47748,121.82952 L -328.1716,129.51546 L -338.64829,142.25002 L -352.9486,146.62046 L -366.63714,142.25002 L -377.41972,132.60491 z "
           style="fill:#ba2b1a;fill-rule:evenodd"
           id="path96" />
        <path
           d="M -421.54422,67.274368 L -382.00806,67.274368 L -377.41972,76.01525 L -377.41972,121.82952 L -385.83167,121.82952 L -404.94974,93.195605 L -421.54422,67.274368 z "
           style="fill:#ba2b1a;fill-rule:evenodd"
           id="path98" />
        <path
           d="M -422.07952,67.274368 L -432.09738,67.274368 L -432.09738,121.82952 L -394.70246,121.82952 L -413.28521,82.344854 L -422.07952,67.274368 z "
           style="fill:#ba2b1a;fill-rule:evenodd"
           id="path100" />
        <path
           d="M -369.84897,159.35502 L -377.41972,149.18244 L -377.41972,176.38466 L -353.25449,176.38466 L -369.84897,159.35502 z "
           style="fill:#ba2b1a;fill-rule:evenodd"
           id="path102" />
        <path
           d="M -400.8967,176.38466 L -377.41972,176.38466 L -377.41972,199.96997 L -391.87299,188.44105 L -400.8967,176.38466 z "
           style="fill:#ba2b1a;fill-rule:evenodd"
           id="path104" />
        <path
           d="M -432.09738,190.09881 L -432.09738,176.38466 L -425.59724,176.38466 L -417.33825,185.87907 L -427.66199,190.09881 L -432.09738,190.09881 z "
           style="fill:#ba2b1a;fill-rule:evenodd"
           id="path106" />
        <path
           d="M -479.96901,141.19509 L -484.63382,121.82952 L -446.16828,121.82952 L -440.12697,146.62046 L -432.09738,165.98603 L -432.09738,176.38466 L -462.22745,176.38466 L -471.93944,161.61559 L -479.96901,141.19509 z "
           style="fill:#ba2b1a;fill-rule:evenodd"
           id="path108" />
        <path
           d="M -488.15155,67.274368 L -432.09738,67.274368 L -432.09738,24.248146 L -444.79178,28.844642 L -461.38626,27.639003 L -479.12782,25.152375 L -488.15155,29.824221 L -488.15155,67.274368 z "
           style="fill:#ba2b1a;fill-rule:evenodd"
           id="path110" />
        <path
           d="M -602.55404,5.9375022 L -596.20685,1.9438259 L -596.20685,10.760058 L -600.64224,11.588937 L -604.46585,13.698805 L -602.55404,5.9375022 z "
           style="fill:#ba2b1a;fill-rule:evenodd"
           id="path112" />
        <path
           d="M -585.88309,15.507264 L -539.99974,15.507264 L -539.99974,67.274368 L -596.20685,67.274368 L -596.20685,31.708029 L -589.40082,37.962284 L -584.81248,33.742548 L -572.88281,24.775605 L -579.30648,21.761518 L -585.88309,15.507264 z "
           style="fill:#ba2b1a;fill-rule:evenodd"
           id="path114" />
        <path
           d="M -539.99974,121.82952 L -539.99974,67.274368 L -488.15155,67.274368 L -488.15155,108.7182 L -492.05164,121.82952 L -539.99974,121.82952 z "
           style="fill:#ba2b1a;fill-rule:evenodd"
           id="path116" />
        <path
           d="M -592.53618,121.82952 L -539.99974,121.82952 L -539.99974,176.38466 L -583.20656,176.38466 L -580.45356,167.64379 L -580.83592,154.45711 L -592.53618,121.82952 z "
           style="fill:#ba2b1a;fill-rule:evenodd"
           id="path118" />
        <path
           d="M -650.88451,-26.388679 L -650.88451,-40.404226 L -640.10192,-40.404226 L -639.56661,-31.135885 L -635.51358,-13.051301 L -639.3372,-13.50342 L -645.60792,-19.004145 L -650.88451,-26.388679 z "
           style="fill:#ba2b1a;fill-rule:evenodd"
           id="path120" />
        <path
           d="M -641.17253,-114.85241 L -650.88451,-114.24959 L -650.88451,-93.603031 L -618.99558,-93.603031 L -620.52502,-101.51503 L -626.41339,-108.52281 L -641.17253,-114.85241 z "
           style="fill:#ba2b1a;fill-rule:evenodd"
           id="path122" />
        <path
           d="M -700.59147,-93.603031 L -650.88451,-93.603031 L -650.88451,-40.404226 L -705.56217,-40.404226 L -705.56217,-89.986115 L -700.59147,-93.603031 z "
           style="fill:#ba2b1a;fill-rule:evenodd"
           id="path124" />
        <path
           d="M -715.9624,-125.77851 L -705.56217,-117.48975 L -705.56217,-94.959373 L -712.97998,-102.34391 L -719.40365,-113.72212 L -730.87449,-121.10666 L -736.99227,-123.59329 L -728.88621,-128.94331 L -715.9624,-125.77851 z "
           style="fill:#ba2b1a;fill-rule:evenodd"
           id="path126" />
        <path
           d="M -708.92695,-40.404226 L -705.56217,-40.404226 L -705.56217,15.507264 L -709.92109,15.507264 L -707.3975,8.9515996 L -716.26828,15.507264 L -757.33389,15.507264 L -760.3163,4.8825734 L -759.62806,-3.5568992 L -752.51613,-0.84421158 L -736.30402,-7.2491658 L -708.92695,-40.404226 z "
           style="fill:#ba2b1a;fill-rule:evenodd"
           id="path128" />
        <path
           d="M -705.56217,62.753222 L -705.56217,15.507264 L -655.54931,15.507264 L -650.88451,20.02841 L -650.88451,67.274368 L -703.95625,67.274368 L -698.37378,56.649677 L -705.56217,62.753222 z "
           style="fill:#ba2b1a;fill-rule:evenodd"
           id="path130" />
        <path
           d="M -650.88451,121.82952 L -650.88451,67.274368 L -596.20685,67.274368 L -596.20685,114.67104 L -598.57749,106.15621 L -600.1834,121.82952 L -639.79603,121.82952 L -633.37236,84.304012 L -643.84906,104.87522 L -650.88451,121.82952 z "
           style="fill:#ba2b1a;fill-rule:evenodd"
           id="path132" />
        <path
           d="M -500.00475,176.38466 L -539.99974,176.38466 L -539.99974,229.50811 L -488.15155,229.50811 L -488.15155,188.66711 L -500.00475,176.38466 z "
           style="fill:#ba2b1a;fill-rule:evenodd"
           id="path134" />
        <path
           d="M -466.35696,229.50811 L -488.15155,229.50811 L -488.15155,259.72444 L -478.28663,274.41815 L -473.54535,285.4196 L -472.70415,285.4196 L -465.05693,264.32093 L -463.60395,244.65395 L -466.35696,229.50811 z "
           style="fill:#ba2b1a;fill-rule:evenodd"
           id="path136" />
        <path
           d="M -758.48097,73.528622 L -760.23983,67.274368 L -710.1505,67.274368 L -724.98612,79.029347 L -736.83932,84.153313 L -750.98669,81.892734 L -758.48097,73.528622 z "
           style="fill:#ba2b1a;fill-rule:evenodd"
           id="path138" />
        <path
           d="M -687.2853,121.82952 L -650.88451,121.82952 L -669.62021,163.04729 L -678.10863,176.38466 L -705.56217,176.38466 L -705.56217,151.06625 L -687.2853,121.82952 z "
           style="fill:#ba2b1a;fill-rule:evenodd"
           id="path140" />
        <path
           d="M -656.08462,176.38466 L -650.88451,176.38466 L -650.88451,163.04729 L -656.08462,176.38466 z "
           style="fill:#ba2b1a;fill-rule:evenodd"
           id="path142" />
        <path
           d="M -622.81919,176.38466 L -633.14294,184.44737 L -646.29617,188.66711 L -650.88451,188.89317 L -650.88451,176.38466 L -622.81919,176.38466 z "
           style="fill:#ba2b1a;fill-rule:evenodd"
           id="path144" />
        <path
           d="M -596.20685,192.81149 L -596.20685,229.50811 L -614.40724,229.50811 L -612.0366,220.91794 L -623.66038,218.65737 L -638.11364,211.57424 L -641.78431,206.60098 L -626.94869,207.80662 L -615.70727,205.54604 L -596.20685,192.81149 z "
           style="fill:#ba2b1a;fill-rule:evenodd"
           id="path146" />
        <path
           d="M -558.35308,285.4196 L -576.40053,243.74972 L -596.20685,264.9991 L -596.20685,229.50811 L -539.99974,229.50811 L -539.99974,285.4196 L -558.35308,285.4196 z "
           style="fill:#ba2b1a;fill-rule:evenodd"
           id="path148" />
        <path
           d="M -729.34504,176.38466 L -705.56217,176.38466 L -705.56217,202.75801 L -725.82732,206.90239 L -744.86891,202.4566 L -752.43966,194.54459 L -756.1868,187.08471 L -756.7221,183.39243 L -743.87477,184.89948 L -729.34504,176.38466 z "
           style="fill:#ba2b1a;fill-rule:evenodd"
           id="path150" />
        <path
           d="M -539.99974,335.90572 L -539.99974,285.4196 L -518.51104,285.4196 L -523.86409,305.6894 L -523.25232,318.95143 L -512.92856,330.02823 L -500.23416,332.51486 L -488.15155,327.99371 L -488.15155,335.90572 L -539.99974,335.90572 z "
           style="fill:#ba2b1a;fill-rule:evenodd"
           id="path152" />
        <path
           d="M -488.15155,389.10453 L -488.15155,335.90572 L -467.96287,335.90572 L -471.40412,339.97475 L -464.52162,340.20081 L -455.49789,335.90572 L -432.09738,335.90572 L -432.09738,383.82985 L -439.36225,389.10453 L -488.15155,389.10453 z "
           style="fill:#ba2b1a;fill-rule:evenodd"
           id="path154" />
        <path
           d="M -377.41972,335.90572 L -432.09738,335.90572 L -432.09738,321.36271 L -414.89113,315.63593 L -394.62598,315.63593 L -377.41972,321.81482 L -377.41972,335.90572 z "
           style="fill:#ba2b1a;fill-rule:evenodd"
           id="path156" />
        <path
           d="M -361.20761,335.90572 L -377.41972,335.90572 L -377.41972,354.96988 L -368.31953,358.36074 L -361.20761,365.89598 L -356.31338,378.63054 L -353.7898,369.73896 L -354.93689,351.57902 L -361.20761,335.90572 z "
           style="fill:#ba2b1a;fill-rule:evenodd"
           id="path158" />
        <path
           d="M -501.53419,389.10453 L -488.15155,394.60526 L -488.15155,389.10453 L -501.53419,389.10453 z "
           style="fill:#ba2b1a;fill-rule:evenodd"
           id="path160" />
        <path
           d="M -523.09937,389.10453 L -539.99974,389.10453 L -539.99974,409.37432 L -537.85852,409.22362 L -535.10551,402.74331 L -532.96429,399.20175 L -520.95815,399.80457 L -515.06978,401.23626 L -515.52862,398.67428 L -520.95815,393.39962 L -523.09937,389.10453 z "
           style="fill:#ba2b1a;fill-rule:evenodd"
           id="path162" />
        <path
           d="M -596.20685,389.10453 L -596.20685,335.90572 L -539.99974,335.90572 L -539.99974,389.10453 L -553.99416,389.10453 L -546.88224,374.93827 L -544.97044,364.69034 L -547.41755,361.82695 L -566.99444,389.10453 L -596.20685,389.10453 z "
           style="fill:#ba2b1a;fill-rule:evenodd"
           id="path164" />
        <path
           d="M -614.40724,335.90572 L -596.20685,335.90572 L -596.20685,307.72392 L -606.83649,309.75843 L -613.71899,314.95775 L -616.70141,324.97962 L -614.40724,335.90572 z "
           style="fill:#ba2b1a;fill-rule:evenodd"
           id="path166" />
        <path
           d="M -650.88451,321.212 L -621.28975,335.90572 L -650.88451,335.90572 L -650.88451,321.212 z "
           style="fill:#ba2b1a;fill-rule:evenodd"
           id="path168" />
        <path
           d="M -705.56217,357.23046 L -705.56217,335.90572 L -650.88451,335.90572 L -650.88451,380.74041 L -669.16138,365.66992 L -683.23227,358.28539 L -698.75614,355.79876 L -705.56217,357.23046 z "
           style="fill:#ba2b1a;fill-rule:evenodd"
           id="path170" />
        <path
           d="M -717.95067,335.90572 L -705.56217,335.90572 L -705.56217,324.52751 L -717.95067,335.90572 z "
           style="fill:#ba2b1a;fill-rule:evenodd"
           id="path172" />
        <path
           d="M -620.90738,400.33203 L -640.48428,389.10453 L -596.20685,389.10453 L -596.20685,400.63344 L -620.90738,400.33203 z "
           style="fill:#ba2b1a;fill-rule:evenodd"
           id="path174" />
        <path
           d="M -468.42171,223.32922 L -459.16856,220.69188 L -451.59781,226.49402 L -436.45631,234.17997 L -422.84425,239.60533 L -414.20288,240.88633 L -404.64385,236.89266 L -392.1024,223.63063 L -382.77279,216.62285 L -371.68431,216.62285 L -364.41944,224.08274 L -362.27822,232.59756 L -363.4253,235.0842 L -367.0195,235.53631 L -371.30195,232.74827 L -373.67259,238.0983 L -377.95503,241.03703 L -382.39042,241.41379 L -386.2905,238.0983 L -388.50821,242.39338 L -396.92015,244.80466 L -404.41443,245.55818 L -394.16715,246.46241 L -381.31981,243.74972 L -368.16659,239.00251 L -353.7898,233.87856 L -343.00721,233.6525 L -334.90116,239.68069 L -331.68931,247.06523 L -333.60113,258.36809 L -335.13057,258.6695 L -340.10127,250.38073 L -344.30724,247.36664 L -344.53666,252.33989 L -346.83083,257.0871 L -351.87799,260.85471 L -358.4546,261.60824 L -363.73119,257.01175 L -366.40772,251.20961 L -371.45489,256.03217 L -388.35526,261.38218 L -380.47862,263.34135 L -353.63686,264.17022 L -340.40716,270.87659 L -336.1247,281.72734 L -338.64829,291.89992 L -342.93074,299.05839 L -343.92487,292.42738 L -347.21319,286.92665 L -350.73091,284.21396 L -353.71333,288.65976 L -357.23106,292.42738 L -365.79594,293.10556 L -371.60784,287.90623 L -373.82553,283.23438 L -373.59611,277.05549 L -376.1197,279.76818 L -378.3374,279.99423 L -390.7259,276.52802 L -404.4909,271.32871 L -411.52635,277.5076 L -412.29107,287.22806 L -415.34996,290.39287 L -421.85011,292.42738 L -426.36197,291.89992 L -433.32094,287.83088 L -431.33266,300.26403 L -436.30336,298.22951 L -443.49175,290.16681 L -445.17415,281.9534 L -441.12111,276.07591 L -430.03263,267.03362 L -426.66785,263.34135 L -426.59138,260.47795 L -437.98575,253.09342 L -451.0625,246.61312 L -457.33323,244.80466 L -463.68043,245.33212 L -465.05693,233.72785 L -468.42171,223.32922 z "
           style="fill:#e9cc0c;fill-rule:evenodd"
           id="path176" />
        <path
           d="M -623.58391,217.67778 L -638.03717,228.00106 L -652.49042,236.51589 L -664.49657,240.73562 L -674.97327,240.43421 L -681.39694,237.11871 L -689.12063,225.8912 L -695.5443,216.47214 L -703.57389,214.36228 L -710.30345,216.47214 L -714.5859,221.06864 L -716.42123,224.98697 L -717.03301,235.68702 L -714.81531,235.53631 L -710.68581,230.7891 L -709.53873,235.53631 L -705.71511,240.81097 L -697.15022,238.24899 L -694.09133,243.52366 L -685.83233,247.81876 L -695.69725,247.51735 L -714.12706,240.88633 L -733.24513,234.10461 L -743.03358,236.36519 L -751.06316,245.55818 L -751.98083,260.2519 L -747.69838,265.37586 L -741.81002,254.37441 L -739.36291,260.70401 L -733.24513,264.09487 L -727.50971,262.51247 L -723.91551,259.34767 L -722.30959,255.58005 L -716.80359,258.6695 L -703.87978,260.62867 L -694.85605,260.17655 L -705.02686,264.09487 L -720.01542,267.33503 L -732.93924,268.0132 L -739.36291,272.68504 L -742.19237,280.5217 L -740.58646,289.18723 L -735.08046,297.47599 L -733.47454,298.60628 L -732.63335,293.33161 L -729.34504,289.03652 C -729.34504,289.63934 -729.1921,289.79005 -729.03915,290.31751 L -725.29201,295.59218 L -716.11534,295.14006 L -711.75642,290.24216 L -711.22112,281.80269 L -682.23813,271.93152 L -673.13793,269.82166 L -666.48485,275.39773 L -667.93782,281.50128 L -665.7966,287.75553 L -659.98471,290.61892 L -655.24343,290.0161 L -651.95512,287.60482 L -649.73742,292.20133 L -649.89037,301.84643 L -645.83734,300.41474 L -639.10778,293.63302 L -637.65481,281.65199 L -641.249,272.23293 L -650.3492,264.69769 L -653.79045,261.00542 L -652.5669,258.29274 L -641.09606,250.30538 L -630.61936,244.42789 L -627.86636,244.05113 L -616.24258,244.27719 L -612.26602,220.69188 L -623.58391,217.67778 z "
           style="fill:#e9cc0c;fill-rule:evenodd"
           id="path178" />
        <path
           d="M -464.52162,234.55673 L -465.1334,229.65882 C -464.13927,231.69333 -461.8451,235.2349 -459.39798,235.91307 C -456.79792,236.74195 -453.2802,237.34477 -450.45073,237.87224 C -448.84481,238.17365 -451.9037,238.70111 -452.36253,238.77646 C -454.19787,239.07787 -464.21574,236.89266 -464.52162,234.55673 z "
           style="fill:#000000;fill-rule:evenodd"
           id="path180" />
        <path
           d="M -463.83337,244.05113 L -463.60395,246.161 C -456.5685,242.9962 -444.25648,251.51102 -440.96816,253.09342 C -435.46216,255.80611 -427.73847,260.47795 -427.73847,262.13571 C -427.73847,264.24558 -432.25033,268.1639 -437.52692,272.08222 C -444.40942,277.13084 -449.22717,283.00832 -444.40942,291.59851 C -442.34467,295.21542 -431.17972,304.93588 -426.51491,301.01756 C -431.40914,300.03797 -430.64442,294.6126 -430.72089,291.07104 C -427.66199,293.70838 -418.02649,294.53724 -413.43816,290.69428 C -408.77335,286.77595 -410.83811,281.9534 -409.38513,277.73366 C -408.84982,276.30196 -407.47333,275.02097 -406.24977,273.89068 C -402.04379,270.19842 -384.91401,284.51537 -374.43731,280.5217 C -377.57267,286.47454 -368.62541,294.68795 -364.87828,294.68795 C -357.84283,294.68795 -353.40744,292.8795 -350.73091,285.94707 C -345.60727,287.22806 -343.77194,295.66753 -344.6896,300.9422 C -337.73063,296.87317 -335.05409,288.50905 -335.05409,283.08369 C -335.05409,274.41815 -339.94832,266.50615 -348.51321,264.54699 C -362.12527,261.45753 -376.1197,262.58782 -390.26707,261.08077 C -388.58467,261.23148 -393.4789,261.15612 -391.5671,261.68359 C -388.73762,262.51247 -383.23161,264.17022 -375.89028,264.32093 C -365.79594,264.62234 -357.99577,264.54699 -349.88971,266.80756 C -344.38371,268.38996 -332.37757,280.82311 -342.39543,296.49641 C -342.39543,291.07104 -345.76021,287.22806 -348.66616,284.44002 C -351.26622,281.9534 -349.96619,275.84985 -346.75435,273.51392 C -352.71919,274.4935 -351.57211,280.74776 -352.71919,284.06326 C -354.24863,288.65976 -357.53694,291.59851 -362.35469,291.4478 C -365.26063,291.37245 -370.46075,288.283 -371.60784,285.72101 C -373.13728,282.40551 -373.51964,275.62379 -369.61955,273.13716 C -374.05494,273.81533 -374.81967,278.86395 -378.10798,278.63789 C -382.39042,278.41183 -398.52607,271.85618 -402.80852,270.34913 C -406.78507,268.99278 -407.93215,271.47941 -410.3028,274.41815 C -411.90872,276.37732 -416.19116,277.13084 -417.56765,274.04139 C -419.32652,277.65831 -412.52049,276.98013 -413.89699,284.21396 C -414.58524,288.05694 -415.96174,289.33793 -418.86768,290.24216 C -424.37369,291.89992 -427.96788,291.07104 -431.33266,287.90623 C -434.08567,285.34425 -431.71503,279.39141 -439.66814,280.67241 C -436.91514,282.25481 -435.61511,283.6865 -435.15628,285.34425 C -434.16214,289.56399 -432.93859,293.63302 -432.78564,298.68163 C -437.22103,298.60628 -442.34467,289.26258 -443.49175,285.79637 C -446.85653,275.62379 -427.43258,270.42448 -425.82666,262.58782 C -425.59724,261.53289 -425.67372,260.77936 -426.43845,259.72444 C -428.12083,257.23781 -441.73289,249.09975 -452.66842,244.7293 C -456.41557,243.22225 -460.92743,243.74972 -463.83337,244.05113 z "
           style="fill:#000000;fill-rule:evenodd"
           id="path182" />
        <path
           d="M -403.57324,246.76382 L -407.16743,246.161 C -404.87327,246.161 -403.1144,245.78424 -401.12612,245.70889 C -386.51992,245.25677 -377.26679,241.33844 -362.81353,235.68702 C -355.08982,232.74827 -344.38371,229.58346 -337.19531,235.00884 C -329.24221,241.03703 -327.78923,256.33358 -335.43646,261.38218 C -336.73649,255.73076 -340.78951,249.92861 -343.3131,249.92861 C -343.08368,255.35399 -349.88971,262.36176 -355.54866,262.58782 C -361.28408,262.88923 -365.41358,258.44344 -366.94303,254.14835 C -370.38428,258.5188 -382.92573,262.28641 -388.20232,262.28641 C -395.23776,262.28641 -399.90257,257.53922 -404.72032,255.05258 C -400.51435,255.12794 -397.6084,256.71034 -394.93187,258.21739 C -386.44345,263.03994 -367.24892,255.05258 -366.25477,247.21594 C -365.10769,250.60679 -364.95475,253.62089 -361.81938,256.78569 C -355.54866,262.96458 -350.80738,260.5533 -346.37199,254.75117 C -345.30138,253.39483 -344.99549,249.09975 -345.30138,246.38706 C -345.45432,244.80466 -346.06611,243.74972 -346.06611,241.94126 C -346.06611,240.81097 -345.68374,239.90674 -344.91902,239.45463 C -343.84841,241.26309 -345.07196,245.33212 -342.85426,246.83917 C -339.56596,249.02439 -336.58354,254.22371 -334.74821,257.01175 C -333.83055,253.99765 -333.90701,252.79201 -333.75407,251.0589 C -332.98934,238.92716 -344.61313,231.46728 -358.37814,236.59125 C -369.7725,240.88633 -382.92573,246.76382 -395.08482,247.06523 C -397.68487,247.06523 -401.35554,247.14058 -403.57324,246.76382 z "
           style="fill:#000000;fill-rule:evenodd"
           id="path184" />
        <path
           d="M -457.86853,221.37005 L -460.85096,221.97287 C -451.0625,228.82994 -425.06194,243.97578 -413.13226,242.24267 C -405.94388,241.18774 -400.8967,235.31025 -396.00249,230.26164 C -392.25534,226.41867 -388.04937,221.74682 -383.61398,219.18483 C -376.27264,215.04046 -364.11355,221.52076 -363.80767,234.70743 C -367.24892,235.38561 -368.09011,234.02926 -369.54309,232.44686 C -372.67845,229.056 -376.42558,227.69965 -373.59611,221.97287 C -375.20203,222.50034 -375.89028,222.7264 -376.1197,226.56938 C -376.27264,229.65882 -372.21961,231.91939 -372.44903,234.02926 C -372.75492,236.89266 -377.34326,241.79056 -382.31395,240.1328 C -384.83754,239.30392 -385.52578,235.0842 -388.73762,235.46096 C -387.1317,236.21448 -386.82581,237.79689 -387.20818,239.30392 C -388.04937,242.09197 -393.4789,243.22225 -395.16129,243.59902 C -398.37313,244.35254 -406.32624,243.1469 -407.62626,246.31171 C -388.50821,245.25677 -387.89642,244.05113 -385.83167,239.60533 C -384.60812,241.79056 -381.70218,243.22225 -378.41387,242.09197 C -374.7432,240.88633 -371.99019,237.72153 -370.00192,234.33067 C -369.08425,236.6666 -362.43116,237.64618 -361.74292,233.6525 C -360.137,223.47992 -366.71361,214.21158 -376.88442,214.21158 C -388.81409,214.21158 -394.8554,224.08274 -401.27907,231.31657 C -412.90286,244.35254 -425.82666,238.24899 -437.98575,231.01516 C -446.62711,225.81585 -451.82723,225.21303 -457.86853,221.37005 z "
           style="fill:#000000;fill-rule:evenodd"
           id="path186" />
        <path
           d="M -577.70056,-128.03908 L -582.74773,-127.0595 L -576.62995,-114.24959 L -572.3475,-93.226268 L -512.77561,-92.849506 L -509.7932,-108.3721 L -502.29891,-129.32007 L -509.33436,-126.83344 L -515.75803,-121.18201 L -522.94643,-120.50384 L -525.31707,-116.73622 L -530.4407,-122.61371 L -534.64668,-123.06582 L -538.92913,-132.48487 L -545.73516,-133.08769 L -553.00002,-124.72358 L -554.91183,-122.83977 L -559.57664,-121.18201 L -561.71786,-118.24327 L -567.45328,-121.78483 L -570.89453,-122.23695 L -577.70056,-128.03908 z "
           style="fill:#e9cc0c;fill-rule:evenodd"
           id="path188" />
        <path
           d="M -614.33077,231.16587 L -614.56019,227.17219 C -615.55433,230.18628 -618.68969,233.42644 -621.28975,234.93349 C -622.81919,235.83772 -627.10164,235.38561 -628.70755,234.33067 C -628.55461,234.85814 -626.87222,236.36519 -626.56633,236.51589 C -624.88394,237.34477 -622.28388,237.42012 -620.29561,236.74195 C -618.53674,236.06378 -614.48371,231.16587 -614.33077,231.16587 z "
           style="fill:#000000;fill-rule:evenodd"
           id="path190" />
        <path
           d="M -570.51217,-92.095982 L -574.41225,-91.945277 C -574.41225,-95.110078 -575.25345,-98.274881 -575.48286,-101.13827 C -575.78875,-104.22772 -576.477,-109.42704 -577.62409,-113.19466 C -579.53589,-119.75032 -587.18312,-128.4912 -583.74187,-129.24472 C -577.8535,-130.52571 -573.57106,-127.81303 -570.12981,-123.29188 C -568.44742,-123.36723 -564.16497,-123.36723 -562.40611,-120.12708 C -560.57077,-123.29188 -557.89425,-124.64822 -554.68241,-124.72358 C -554.07063,-125.85386 -553.6118,-126.98415 -553.22944,-127.58697 C -551.31763,-130.52571 -547.95285,-135.34827 -543.59393,-135.19756 C -539.23502,-134.9715 -537.39968,-132.93699 -535.56435,-129.62148 C -534.64668,-127.96373 -533.88196,-125.92922 -533.57607,-124.34682 C -531.20543,-124.49752 -529.67598,-124.04541 -528.29948,-123.44259 C -527.30534,-123.06582 -525.62296,-121.48342 -524.9347,-120.35314 C -524.09351,-121.70948 -523.48174,-122.3123 -521.79934,-122.76441 C -520.26989,-123.14118 -520.11696,-123.36723 -516.14039,-122.68906 C -514.22859,-124.94963 -511.93442,-126.68274 -509.18142,-128.34049 C -507.65198,-129.32007 -506.199,-129.92289 -504.2872,-130.29966 C -501.91656,-130.82712 -499.77534,-130.29966 -500.08122,-129.24472 C -500.46358,-127.66232 -503.21659,-123.81935 -504.51662,-120.42849 C -507.57551,-112.21508 -510.71087,-101.8918 -511.09323,-92.62345 L -514.07564,-92.698801 C -513.23445,-101.06292 -511.24617,-110.48197 -508.49317,-117.94186 C -507.42256,-121.03131 -506.27548,-123.36723 -504.44014,-126.30598 C -504.66955,-128.71725 -511.01676,-123.81935 -512.5462,-122.01089 C -513.46386,-120.95596 -514.15212,-118.24327 -515.8345,-119.1475 C -517.89925,-120.20243 -518.81693,-120.42849 -520.8052,-118.99679 C -523.32879,-116.66087 -523.63467,-116.28411 -523.48174,-113.11931 C -523.48174,-111.83831 -522.41112,-110.78338 -521.87581,-110.25591 C -521.3405,-109.72845 -519.81107,-108.44746 -517.28748,-108.07069 C -516.52276,-107.99534 -517.28748,-106.11153 -517.59337,-106.03618 C -519.27575,-105.65942 -521.72287,-106.7897 -522.79348,-107.31717 C -523.71115,-107.84464 -525.62296,-108.82422 -526.84651,-110.18056 C -528.83479,-109.12563 -531.74073,-107.84464 -533.42312,-107.39252 C -535.48788,-106.86505 -537.09379,-107.54323 -535.94671,-108.74887 C -534.8761,-109.87915 -533.4996,-109.87915 -532.1231,-110.33127 C -530.7466,-110.78338 -529.67598,-111.76296 -528.60537,-113.87283 C -528.14654,-114.77706 -527.45829,-116.05805 -528.14654,-118.62003 C -528.45243,-119.75032 -530.7466,-121.18201 -532.19957,-121.40807 C -533.11724,-121.55878 -534.79963,-121.63413 -535.33493,-122.1616 C -536.2526,-123.14118 -536.55849,-123.59329 -536.71143,-124.49752 C -536.7879,-125.62781 -537.24674,-126.68274 -537.70557,-127.43626 C -538.62324,-129.16937 -540.45857,-132.03276 -543.1351,-132.03276 C -544.97044,-132.10811 -547.2646,-130.0736 -548.94699,-127.96373 C -550.17055,-126.30598 -550.8588,-124.42217 -551.92941,-122.91512 C -552.00588,-122.76441 -552.54119,-121.63413 -553.99416,-121.63413 C -556.74716,-122.08624 -559.34722,-120.8806 -559.34722,-116.1334 C -559.42369,-113.04395 -559.27075,-113.11931 -557.7413,-111.5369 C -555.98244,-109.8038 -553.91769,-109.12563 -552.54119,-108.29675 C -551.92941,-107.99534 -552.69413,-106.71435 -553.45886,-106.639 C -554.75888,-106.639 -557.206,-107.31717 -558.50602,-108.07069 C -559.959,-108.89957 -560.41783,-110.33127 -561.41197,-110.85873 C -563.47672,-110.63268 -564.85322,-107.09111 -569.13567,-106.33759 C -572.88281,-105.65942 -570.51217,-107.99534 -569.36508,-109.35168 C -566.22972,-112.74254 -562.712,-111.5369 -564.0885,-118.01721 C -564.6238,-120.27778 -568.14153,-120.42849 -570.51217,-120.50384 C -573.41811,-120.57919 -573.1887,-123.8947 -576.62995,-125.70316 C -578.84764,-126.9088 -579.30648,-126.75809 -580.53003,-126.53204 C -581.75359,-126.38133 -580.22414,-123.81935 -579.61237,-123.21653 C -578.61823,-122.23695 -578.38881,-121.86019 -577.8535,-120.8806 C -577.08878,-119.44891 -576.55348,-117.5651 -576.01817,-116.43481 C -575.86523,-116.1334 -575.32992,-115.00312 -574.64167,-111.76296 C -573.95342,-107.46787 -573.49459,-106.33759 -572.57692,-101.66574 C -571.96514,-98.726994 -571.12395,-95.486841 -570.51217,-92.095982 z "
           style="fill:#000000;fill-rule:evenodd"
           id="path192" />
        <path
           d="M -598.11865,110.37595 L -599.57162,105.02593 C -605.1541,142.02396 -612.26602,190.70163 -661.36121,187.98894 C -655.16695,181.28258 -647.21384,160.86206 -641.86078,137.80422 C -635.28417,109.17031 -630.00758,77.145539 -631.68997,65.842679 C -637.88422,91.462496 -657.00229,135.1669 -669.84963,159.88248 C -680.17338,173.74733 -691.79716,203.58689 -726.43909,204.71717 C -739.05702,205.16928 -754.19853,196.2777 -755.65149,185.05019 C -745.93952,187.53682 -739.89821,187.08471 -729.42151,179.32341 C -709.38578,164.55433 -698.83261,145.33947 -690.65008,131.54998 C -684.07347,120.54853 -662.04946,78.426528 -661.51415,58.910255 C -671.91438,77.823708 -683.53816,94.551943 -693.17366,107.36185 C -698.83261,114.8971 -709.84462,126.72742 -712.97998,129.21405 C -726.74498,140.14015 -733.16865,142.02396 -741.65707,141.87326 C -754.12205,141.6472 -760.16336,138.03028 -760.54572,120.77458 C -757.86919,122.8091 -756.1868,122.95981 -752.51613,123.03516 C -748.23369,123.11051 -743.41593,119.26753 -741.19824,117.76048 C -728.50385,107.73861 -714.05059,86.63994 -706.17395,74.056092 C -704.79745,71.795514 -700.43853,64.63704 -696.07961,57.553906 C -690.49714,48.511625 -685.29702,39.544682 -689.12063,40.222852 C -699.36792,53.86164 -713.51528,73.377912 -730.64507,79.933576 C -747.62191,86.56459 -759.24569,77.748358 -760.39277,57.101797 C -758.78686,58.232086 -758.32803,60.341944 -753.28085,60.040534 C -744.25713,59.437725 -732.25099,46.326396 -727.50971,40.298212 C -722.15665,33.365788 -702.57975,11.965697 -706.93867,6.8417314 C -708.85048,8.2734303 -720.0919,16.260783 -724.2214,18.370651 C -730.10976,21.309399 -736.68638,25.001665 -743.7983,22.741097 C -756.95152,18.672061 -759.47511,11.588937 -758.71039,-1.9745007 C -756.26328,0.58748725 -748.38663,0.28607751 -744.18066,-1.7484408 C -738.36877,-4.5364782 -734.6981,-6.1942266 -726.43909,-15.914688 C -717.03301,-27.066848 -714.28001,-31.361934 -706.8622,-41.459165 C -705.56217,-43.192264 -696.46197,-54.871893 -701.05031,-54.721183 C -712.59762,-44.247203 -728.04501,-35.280261 -733.55101,-33.999272 C -739.59232,-32.567573 -745.02185,-31.964754 -750.52786,-35.054201 C -756.1868,-38.294358 -761.6928,-43.267624 -760.16336,-54.570484 C -760.16336,-54.419774 -757.25741,-53.892304 -756.95152,-53.816954 C -753.89263,-53.590894 -748.99841,-53.364845 -746.32188,-54.495123 C -741.19824,-56.680352 -736.22754,-60.146559 -732.17451,-63.612765 C -725.21554,-69.56561 -714.5859,-80.26565 -707.62692,-85.992436 C -707.77986,-86.218494 -704.56803,-88.328361 -701.05031,-91.267106 C -699.06203,-92.849506 -695.46783,-93.603031 -695.46783,-93.979792 C -695.23842,-94.808669 -702.42681,-94.281202 -706.25042,-96.918537 C -710.60934,-99.857281 -715.58003,-109.8038 -718.33304,-113.49607 C -720.85662,-116.88693 -727.05087,-120.35314 -730.87449,-121.70948 C -734.46868,-122.91512 -736.53343,-123.06582 -732.70982,-125.55245 C -724.90965,-130.60106 -715.35062,-122.1616 -709.6152,-117.86651 C -704.18567,-113.79748 -696.23255,-105.96083 -683.46169,-105.96083 C -669.84963,-105.96083 -664.03773,-109.12563 -656.92582,-111.5369 C -648.20798,-114.4003 -638.80189,-113.11931 -631.53703,-109.87915 C -621.51916,-105.43336 -620.29561,-96.767832 -621.36622,-87.499485 C -621.90152,-81.24524 -630.08405,-72.428997 -639.64309,-53.364845 C -642.16667,-48.316229 -641.78431,-41.082395 -641.47842,-34.677441 C -641.17253,-27.443608 -638.11364,-18.476676 -636.96656,-14.332289 C -639.41367,-15.688638 -644.07848,-18.778086 -645.53145,-20.661894 C -651.7257,-28.423197 -651.95512,-33.547163 -653.33162,-38.746478 C -661.20826,-31.889404 -664.19068,-15.010469 -664.19068,-5.0639479 C -664.19068,-0.31674195 -660.52001,12.794576 -655.09048,18.822771 C -650.88451,23.343917 -641.86078,30.276341 -629.3958,29.899571 C -621.97799,29.673521 -615.55433,27.789703 -608.28946,26.734774 C -603.31877,26.056605 -595.36565,32.838318 -590.47143,39.620032 L -588.40668,37.434814 C -596.20685,29.221402 -598.8069,26.734774 -600.33635,25.755195 C -604.46585,23.042507 -606.5306,21.836868 -610.35421,22.590387 C -618.23085,24.097436 -627.33105,25.529135 -630.38994,25.529135 C -638.80189,25.529135 -645.45498,23.419267 -651.57276,17.541782 C -657.91995,11.513588 -660.59648,-4.0843688 -659.83176,-11.921012 C -659.14351,-18.250616 -657.61407,-23.826701 -653.48456,-29.930246 C -652.71984,-27.066848 -648.4374,-20.134424 -646.29617,-18.024556 C -644.38437,-16.216098 -638.41953,-10.715373 -634.67239,-12.448481 C -636.27831,-24.203461 -639.18425,-31.211234 -638.34306,-40.856346 C -637.27245,-53.741604 -626.18397,-68.284621 -620.52502,-78.833962 C -606.98943,-103.92631 -633.75472,-122.01089 -655.47284,-115.37988 C -668.16724,-111.5369 -686.44411,-106.41294 -697.762,-114.24959 C -714.12706,-125.4771 -726.89793,-137.8349 -738.67466,-123.59329 C -732.93924,-120.80525 -723.07432,-117.5651 -719.32718,-111.3862 C -717.41537,-108.2214 -711.22112,-93.979792 -703.80331,-93.075563 C -712.90351,-87.047371 -722.76843,-77.779023 -732.02157,-68.661381 C -736.45696,-64.290945 -741.19824,-60.824728 -746.55129,-58.71486 C -752.66908,-56.303582 -757.25741,-57.132461 -762.61047,-58.1874 C -766.96939,-45.377482 -757.94566,-30.307005 -743.95124,-30.307005 C -735.15693,-30.307005 -733.24513,-30.834475 -724.83318,-34.300682 C -722.92137,-35.054201 -710.30345,-43.644383 -707.55045,-45.302132 C -708.00928,-42.740154 -726.74498,-19.380905 -729.26857,-16.668217 C -734.6981,-10.640023 -750.98669,3.3001749 -759.93395,-5.4407074 C -762.534,6.6156819 -761.53986,18.521361 -748.46311,24.926315 C -735.00399,31.40662 -715.65651,16.637553 -709.30931,11.588937 C -714.28001,21.007989 -727.28029,35.475656 -731.25685,39.695392 C -736.15107,44.819348 -742.65121,51.073602 -747.77485,54.615169 C -754.35147,59.136315 -759.781,52.95741 -761.61633,51.601072 C -763.45166,67.123668 -759.85747,82.947674 -746.39836,84.906832 C -737.52757,86.112471 -729.26857,84.982192 -720.16837,78.125118 C -719.55659,77.673009 -705.94453,65.315209 -701.73856,61.321533 C -706.63278,71.117344 -721.08604,91.613196 -727.96854,99.449849 C -733.09218,105.25198 -739.13349,112.93794 -746.39836,117.76048 C -749.68666,119.94571 -758.86333,121.15135 -762.61047,116.55484 C -762.534,129.2894 -762.76342,136.7493 -753.05144,143.15425 C -741.35118,150.91555 -721.16251,143.38031 -708.46811,130.79645 C -690.65008,113.01329 -676.2733,89.503328 -670.69082,81.591325 C -674.82032,96.511112 -697.762,137.87958 -706.25042,149.18244 C -714.12706,159.65642 -723.45668,169.5276 -733.47454,177.74101 C -737.4511,180.98117 -744.10419,186.10512 -758.63392,181.05652 C -751.06316,220.01371 -705.94453,209.46437 -693.25014,196.80517 C -657.76701,161.23883 -651.87865,126.2753 -636.5842,93.497014 C -638.41953,110.90342 -642.6255,127.25489 -646.52559,143.30496 C -648.36092,150.91555 -651.95512,163.04729 -654.40223,170.20577 C -655.77873,174.27479 -661.36121,183.84455 -666.86721,189.11922 C -624.04275,198.23686 -602.32463,164.78039 -598.11865,110.37595 z "
           style="fill:#000000;fill-rule:evenodd"
           id="path194" />
        <path
           d="M -556.21186,-32.868983 C -569.44156,-41.459165 -587.18312,-31.889404 -600.03046,-34.225332 C -613.64252,-36.71196 -626.41339,-43.945793 -616.01316,-62.030367 C -608.59535,-50.200037 -598.73043,-48.843699 -581.29476,-48.692989 C -568.67683,-48.542289 -556.05891,-46.733831 -547.49402,-39.876757 C -548.25874,-37.390129 -552.00588,-33.773212 -556.21186,-32.868983 z "
           style="fill:#000000;fill-rule:evenodd"
           id="path196" />
        <path
           d="M -616.01316,-58.79022 C -622.43683,-47.788759 -613.56605,-40.102816 -601.86579,-36.862659 C -590.24201,-33.622512 -583.20656,-38.068298 -568.37094,-38.143658 C -562.48258,-38.143658 -556.21186,-36.862659 -554.45299,-35.430971 C -551.08822,-36.71196 -549.25288,-39.424647 -549.55877,-39.726057 C -553.38238,-42.664804 -561.48844,-44.548613 -565.465,-45.377482 C -580.0712,-48.391579 -583.20656,-45.980301 -594.29504,-46.95989 C -608.90124,-48.165529 -611.5013,-51.933146 -616.01316,-58.79022 z "
           style="fill:#e9cc0c;fill-rule:evenodd"
           id="path198" />
        <path
           d="M -496.10466,37.585524 L -498.85767,34.948187 C -498.85767,35.400296 -488.53391,25.981244 -485.47503,24.850966 C -479.05135,22.590387 -473.01005,23.796026 -467.96287,24.549556 C -456.3391,26.358014 -441.57995,30.87916 -432.55622,21.610808 C -413.74405,2.3205958 -425.82666,-26.614739 -431.56208,-38.369708 C -433.62683,-32.567573 -435.53864,-26.237969 -437.8328,-23.675991 C -441.50347,-19.531605 -444.94473,-15.537928 -451.98018,-14.482999 C -449.45659,-19.380905 -447.92714,-27.971077 -447.92714,-34.602091 C -447.92714,-42.966214 -447.69772,-48.240879 -451.13898,-55.022593 C -455.57437,-64.064885 -468.57466,-78.381842 -470.48646,-88.554419 C -471.17471,-92.246687 -470.56293,-96.918537 -469.10996,-100.00799 C -455.72731,-128.03908 -414.81466,-105.73477 -400.97318,-105.65942 C -381.70218,-105.43336 -370.6137,-136.70461 -346.9073,-119.82567 C -354.93689,-120.20243 -362.96647,-111.00944 -366.71361,-106.03618 C -371.91372,-99.254462 -376.57853,-94.884022 -383.91987,-91.342458 C -374.28436,-86.670609 -364.72533,-77.703673 -357.68988,-70.771249 C -353.40744,-66.551513 -346.60141,-60.749378 -340.02479,-58.79022 C -333.44818,-56.831051 -331.23049,-57.358521 -324.88329,-59.09163 C -319.14787,-45.904951 -333.21876,-29.176716 -343.84841,-28.573897 C -358.98991,-27.594318 -370.15486,-36.71196 -379.33153,-42.438744 C -367.78422,-27.820378 -346.83083,7.5199111 -326.94804,-4.2350685 C -320.52436,10.157239 -334.74821,27.488293 -346.67788,25.152375 C -362.81353,21.912218 -374.89614,9.6297793 -375.96676,7.5199111 C -371.07253,18.521361 -355.85455,45.045407 -342.85426,54.690519 C -337.11885,58.910255 -330.69517,55.745448 -325.80096,53.33417 C -321.28909,66.746908 -329.16574,81.063865 -340.02479,86.338531 C -347.13672,89.729387 -357.46046,87.39347 -364.2665,80.837806 L -382.23748,63.582101 C -373.90201,78.803287 -364.49591,95.983642 -343.77194,117.91119 C -339.10713,122.88445 -329.01279,120.92529 -326.71862,120.24712 C -323.50679,143.60637 -353.33097,154.98458 -366.71361,144.20919 C -380.01978,133.50914 -398.06723,109.92384 -406.32624,94.099834 C -395.92601,119.41824 -376.80795,151.89513 -354.3251,173.44592 C -351.0368,176.61072 -334.05995,188.59176 -326.03038,175.63114 C -320.83026,193.33895 -339.03066,208.48479 -354.01921,208.48479 C -378.10798,208.48479 -398.75548,185.5023 -410.14985,167.19167 C -420.01477,151.36766 -450.22131,95.230113 -451.82723,86.94135 C -448.53893,99.977318 -438.59753,176.0079 -414.12641,184.37202 C -417.7206,193.33895 -441.50347,192.81149 -449.60954,189.04387 C -472.55121,178.34383 -486.31622,132.52956 -488.15155,109.24566 L -486.85152,103.14212 C -484.63382,120.92529 -479.20429,139.76339 -472.16884,156.34092 C -467.8864,166.6642 -457.40971,180.90581 -449.22717,184.52272 C -437.90928,189.57134 -430.64442,189.19458 -420.39713,185.42695 C -438.06222,170.28112 -448.00361,124.46686 -452.89784,99.449849 C -454.73317,90.030797 -455.65084,83.475143 -460.00976,73.603972 C -460.62154,72.172273 -458.17443,70.740585 -456.79792,72.398333 C -455.80378,73.679322 -454.50375,74.734261 -453.81551,76.16596 C -440.12697,104.42311 -427.35611,131.85139 -411.14399,157.84797 C -401.81438,172.76775 -381.31981,204.039 -357.15458,205.54604 C -346.06611,206.22422 -333.14229,196.72981 -329.01279,184.29666 C -352.18388,189.57134 -366.48419,167.04097 -381.01392,147.29864 C -387.36112,138.6331 -399.59668,115.72597 -403.57324,107.06044 C -409.69102,93.421654 -416.34411,80.008926 -424.14428,67.575777 C -424.909,66.445499 -422.38541,64.63704 -421.39127,65.616619 C -418.02649,69.007476 -411.06751,81.591325 -408.84982,85.132892 C -402.80852,94.853353 -383.8434,125.59714 -369.7725,138.33169 C -361.43703,145.94229 -332.53052,148.65497 -328.85984,123.71333 C -347.97791,129.81687 -355.24277,110.52666 -366.33124,95.832932 C -375.12555,84.153313 -384.99048,65.164499 -393.02006,52.053181 C -393.93774,46.100347 -393.09653,44.894708 -392.02592,45.723577 C -389.42587,47.758095 -383.91987,56.348267 -381.54923,59.211665 C -374.51378,67.726487 -366.63714,75.18637 -358.4546,81.666685 C -349.58382,86.112471 -344.6896,85.509651 -336.4306,79.029347 C -329.93046,73.905382 -328.55395,66.144089 -327.94218,58.307436 C -346.06611,64.41098 -349.96619,52.73135 -360.06052,41.051731 C -365.49005,34.797476 -378.64328,12.869926 -379.63742,3.5262244 C -375.50792,2.2452356 -360.59583,22.967147 -344.07782,22.062928 C -333.98348,21.535459 -327.94218,6.7663816 -328.55395,-0.01533222 C -331.91873,1.4917164 -337.73063,3.224825 -342.7778,0.73818693 C -352.56625,-4.2350685 -358.07225,-10.640023 -367.17245,-21.415423 C -370.76664,-25.635149 -391.87299,-53.289485 -396.38484,-58.79022 C -397.0731,-59.543739 -394.8554,-59.468389 -393.86126,-59.317679 C -390.57296,-58.71486 -385.29636,-48.994398 -370.46075,-40.253526 C -361.58997,-34.451381 -352.48977,-28.950656 -341.63072,-32.718283 C -334.44232,-35.204911 -327.17746,-41.760575 -326.94804,-55.399353 C -353.7898,-45.829601 -369.31367,-88.403714 -396.00249,-89.83541 C -396.92015,-89.910762 -396.92015,-91.493163 -395.92601,-91.568516 C -388.04937,-92.02063 -382.4669,-92.472745 -373.97848,-103.32349 C -370.00192,-108.44746 -362.43116,-119.22285 -353.48391,-120.65455 C -374.89614,-125.4771 -382.00806,-103.09743 -400.05551,-102.94673 C -410.60869,-102.87138 -413.43816,-105.88547 -422.23246,-107.76928 C -432.09738,-109.87915 -445.48003,-112.44113 -455.57437,-109.20098 C -458.93915,-108.14605 -465.20988,-102.26856 -466.81579,-98.802347 C -468.19229,-95.938956 -468.42171,-90.664286 -467.58052,-87.273427 C -463.60395,-78.005083 -456.5685,-68.435321 -451.44487,-60.674028 C -448.23303,-55.851472 -446.55064,-49.672578 -446.09181,-44.774662 C -445.25062,-35.506321 -445.25062,-26.765438 -448.38598,-18.099916 C -444.02706,-20.661894 -440.12697,-23.977401 -437.60338,-28.649247 C -435.69158,-32.040114 -432.70917,-38.897178 -433.01506,-43.795083 C -420.16771,-40.856346 -412.67344,7.8213209 -428.1973,22.816447 C -436.91514,31.25592 -452.51548,31.934089 -461.53921,29.447461 C -467.50404,27.865063 -486.31622,24.398846 -496.10466,37.585524 z "
           style="fill:#000000;fill-rule:evenodd"
           id="path200" />
        <path
           d="M -574.10636,-94.356555 L -511.01676,-94.356555 L -510.94028,-92.095982 L -574.41225,-92.171335 L -574.10636,-94.356555 z "
           style="fill:#000000;fill-rule:evenodd"
           id="path202" />
        <path
           d="M -541.29977,-101.28898 L -511.78148,-101.28898"
           style="fill:none;fill-rule:evenodd;stroke:#000000;stroke-width:2.12548757;stroke-linecap:round"
           id="path204" />
        <path
           d="M -511.705,-92.698801 L -516.14039,-92.472745 C -509.10494,-90.13682 -503.98131,-80.49171 -498.93413,-75.141685 C -496.18114,-72.202948 -492.58694,-67.832502 -489.75747,-64.667705 C -487.4633,-62.030367 -480.19843,-60.146559 -476.83365,-59.920499 C -478.59252,-57.283171 -484.175,-56.981762 -489.29863,-58.63951 C -501.45772,-62.708536 -499.46944,-67.003633 -504.74603,-69.188851 C -506.81078,-70.01773 -508.49317,-69.188851 -507.42256,-67.983212 C -497.32822,-56.680352 -489.37511,-49.747928 -489.91042,-35.88308 C -490.2163,-27.518968 -493.96344,-17.120327 -496.33408,-10.112553 C -505.35781,16.260783 -513.3874,24.172786 -497.78706,39.017213 C -482.72202,53.25882 -480.42785,63.808161 -484.09852,84.228662 C -486.62211,98.54562 -491.13396,113.16399 -494.11639,125.89855 C -497.32822,139.53733 -503.90483,158.07403 -507.57551,171.10999 C -503.06364,175.63114 -498.85767,181.20722 -494.26933,185.72836 C -487.15741,192.73614 -480.81022,196.35305 -472.09238,202.3059 C -462.53334,208.7862 -447.00948,207.88197 -437.90928,207.50521 C -443.49175,212.85523 -456.8744,220.01371 -470.56293,222.95246 C -464.82751,234.93349 -464.82751,245.48283 -466.12754,259.64908 C -466.89226,267.41038 -471.71002,278.18577 -473.16299,284.51537 C -474.00418,269.89701 -499.24002,245.63353 -510.63439,232.29615 C -514.38154,227.92571 -517.44042,221.2947 -519.12281,218.43131 C -519.65812,217.60243 -521.03462,217.60243 -520.88168,218.35596 C -519.88754,227.09683 -502.98717,246.83917 -496.79291,252.03848 C -487.23388,259.95049 -474.69243,282.02875 -473.31593,290.76963 C -471.02177,281.80269 -462.60982,268.23926 -462.60982,255.20329 C -462.60982,243.82507 -462.07452,233.50179 -466.66284,224.68556 C -455.42143,223.32922 -440.12697,213.30735 -431.63856,204.34041 C -461.46273,205.31999 -465.4393,202.07984 -478.21016,193.79107 C -487.92213,187.46147 -496.79291,176.53537 -503.98131,169.5276 C -497.25175,151.36766 -494.42228,139.53733 -489.91042,121.00064 C -488.38097,114.97244 -481.34552,89.804737 -480.73374,86.94135 C -478.74547,77.522298 -478.21016,60.492654 -482.56907,51.224302 C -490.59866,34.043957 -505.51076,32.386199 -502.6048,17.315722 C -501.15184,9.6297793 -491.89869,-13.12665 -488.68686,-24.50487 C -483.18086,-43.795083 -488.22802,-49.973988 -496.02819,-59.317679 C -492.05164,-57.057111 -486.0868,-55.474713 -481.65141,-55.474713 C -477.44544,-55.474713 -470.79235,-60.297269 -469.72174,-63.612765 C -482.41613,-61.502908 -486.16327,-64.366295 -494.95758,-76.422684 C -498.24589,-80.86847 -507.49903,-91.643867 -511.705,-92.698801 z "
           style="fill:#000000;fill-rule:evenodd"
           id="path206" />
        <path
           d="M -569.51803,-73.408587 C -568.29447,-69.71632 -562.25316,-65.647284 -556.90011,-63.838825 C -551.47058,-62.030367 -544.20571,-61.050788 -538.62324,-57.659931 C -528.5289,-51.481036 -533.72901,-34.752791 -542.21743,-27.971077 C -548.25874,-23.223882 -564.6238,-21.490773 -576.477,-15.462578 C -577.08878,-15.161169 -577.8535,-16.517507 -578.00645,-16.969627 C -578.61823,-18.627376 -574.18284,-24.429521 -572.88281,-26.087269 C -566.0003,-34.225332 -547.03519,-32.793633 -547.11166,-42.890854 C -547.18813,-50.426097 -568.218,-50.727507 -572.42397,-54.721183 C -578.46528,-60.447968 -586.9537,-67.229682 -588.55962,-56.755702 C -592.23029,-63.612765 -593.07148,-63.085306 -594.37151,-66.099403 C -596.81862,-71.449418 -596.43626,-75.970564 -594.75387,-79.135372 C -592.61265,-83.279748 -589.01845,-83.957917 -584.2007,-84.711446 C -582.13595,-88.855829 -577.8535,-91.568516 -574.02989,-92.02063 C -570.4357,-92.472745 -565.92383,-89.458647 -564.77675,-85.76638 C -563.78261,-82.300169 -563.85908,-78.080433 -569.51803,-73.408587 z "
           style="fill:#000000;fill-rule:evenodd"
           id="path208" />
        <path
           d="M -576.17111,-75.819865 C -563.01789,-74.162106 -563.78261,-89.232591 -574.10636,-89.232591 C -578.77117,-89.232591 -580.53003,-84.86215 -581.98301,-81.923409 C -585.19484,-81.772699 -593.91268,-82.450868 -593.60679,-72.956467 C -593.45384,-69.56561 -591.00673,-64.667705 -589.47729,-63.009946 C -583.05362,-70.545189 -575.78875,-59.16698 -570.12981,-56.378942 C -567.37681,-55.022593 -562.10022,-53.892304 -556.82363,-52.686675 C -548.48816,-50.878217 -541.37624,-45.904951 -548.02932,-36.862659 C -552.38824,-30.985175 -568.75331,-32.416873 -573.87695,-22.168942 C -576.93584,-15.990048 -572.95928,-19.456255 -567.98858,-20.887954 C -550.39996,-25.936559 -534.95257,-30.231655 -535.64082,-47.788759 C -536.02318,-58.11204 -558.50602,-61.126138 -562.86494,-64.064885 C -565.84736,-66.099403 -576.32406,-74.388166 -576.17111,-75.819865 z "
           style="fill:#e9cc0c;fill-rule:evenodd"
           id="path210" />
        <path
           d="M -543.1351,-81.16988 L -554.60594,-82.375519 L -564.0885,-82.902988 C -565.61794,-78.005083 -566.07678,-69.64096 -560.41783,-67.078982 C -556.74716,-65.421224 -549.55877,-65.195174 -546.57635,-68.962791 C -544.05277,-72.278298 -543.44099,-76.950143 -543.1351,-81.16988 z "
           style="fill:#000000;fill-rule:evenodd"
           id="path212" />
        <path
           d="M -545.3528,-81.09453 L -554.37652,-82.450868 L -562.17669,-82.752278 C -562.25316,-78.607902 -565.15911,-69.86702 -557.12952,-68.284621 C -546.27046,-66.174753 -545.04691,-76.573384 -545.3528,-81.09453 z "
           style="fill:#ffffff;fill-rule:evenodd"
           id="path214" />
        <path
           d="M -551.16469,-81.39594 L -554.45299,-82.450868 L -556.74716,-82.526229 C -558.65897,-80.94383 -559.72958,-77.402263 -559.1178,-75.367745 C -558.50602,-73.559287 -556.82363,-71.826188 -554.52947,-71.901538 C -551.69999,-72.052238 -549.86466,-75.744504 -550.39996,-75.443095 C -556.21186,-71.976888 -559.04133,-81.16988 -551.16469,-81.39594 z "
           style="fill:#000000;fill-rule:evenodd"
           id="path216" />
        <path
           d="M -564.54733,-83.279748 C -553.99416,-83.204398 -544.28218,-81.772699 -532.50545,-81.32059 C -532.27604,-80.86847 -532.42898,-80.56706 -533.11724,-80.416361 C -536.17613,-79.813541 -546.88224,-80.416361 -548.25874,-80.56706 C -551.3941,-81.01918 -561.56491,-81.471289 -564.77675,-81.772699 C -565.23558,-81.848049 -564.6238,-83.129048 -564.54733,-83.279748 z "
           style="fill:#000000;fill-rule:evenodd"
           id="path218" />
        <path
           d="M -552.31177,-24.65557 L -556.97658,-22.922472 C -540.45857,-17.798507 -553.99416,13.246686 -569.74745,6.7663816 C -579.38295,2.6973554 -605.07763,-9.2083239 -604.84821,14.904444 C -599.87751,12.041057 -596.35979,11.362877 -593.91268,12.116407 C -590.39495,13.246686 -583.28303,19.65165 -580.68298,22.138278 C -576.70642,26.056605 -563.47672,27.412943 -563.47672,26.131954 C -563.47672,25.905895 -563.47672,25.453785 -563.78261,25.378425 C -569.36508,24.850966 -572.04161,24.248146 -575.48286,22.665737 C -580.83592,20.25447 -585.73015,10.157239 -595.74801,9.7804789 C -598.19512,9.7051291 -599.87751,10.157239 -603.54818,12.493167 C -599.72457,-6.797046 -574.79461,10.458648 -565.54147,10.760058 C -554.22358,11.136828 -547.49402,-0.467452 -546.27046,-10.263263 C -545.65869,-15.236519 -548.33521,-22.470352 -552.31177,-24.65557 z "
           style="fill:#000000;fill-rule:evenodd"
           id="path220" />
        <path
           d="M -569.67097,25.378425 L -574.25931,24.022086 C -584.50659,32.461559 -596.51273,39.469333 -601.78932,52.505301 C -606.5306,64.48633 -606.98943,84.002603 -602.24815,99.299149 C -597.12451,116.25344 -588.3302,138.03028 -583.20656,154.08035 C -576.62995,174.5762 -593.83621,191.07839 -608.28946,199.74391 C -624.19569,209.23832 -629.3958,205.47069 -644.61378,205.47069 C -640.25486,214.13623 -623.43097,221.82217 -613.48958,221.97287 C -616.70141,228.52853 -619.37794,251.66172 -618.30733,259.64908 C -617.5426,265.90333 -612.49544,284.89214 -610.43068,290.99569 C -605.07763,276.67872 -597.58335,267.71179 -586.72429,257.0871 C -579.23001,250.07932 -572.42397,241.03703 -566.07678,233.50179 C -564.85322,232.14545 -553.22944,216.62285 -558.35308,216.62285 C -564.6238,228.15177 -566.38267,230.26164 -575.9417,240.88633 C -578.15939,243.37296 -583.35951,249.77791 -588.55962,255.12794 C -592.76559,259.49838 -597.12451,262.96458 -599.03632,264.8484 C -603.54818,269.4449 -608.82477,280.89846 -610.1248,284.06326 C -611.73071,275.62379 -615.6308,262.81388 -615.6308,251.73707 C -615.6308,240.81097 -612.57191,228.90529 -610.6601,219.86301 C -619.68383,219.86301 -632.53117,213.75946 -638.57247,208.56014 C -610.43068,211.951 -601.10107,200.7235 -584.50659,182.3375 C -570.89453,167.26702 -585.11837,135.99577 -590.77732,124.54221 C -593.68326,117.45907 -597.58335,105.7041 -599.49515,98.922379 C -601.94226,90.181507 -602.85993,78.727937 -601.94226,68.932126 C -599.72457,46.401756 -583.58892,32.461559 -569.67097,25.378425 z "
           style="fill:#000000;fill-rule:evenodd"
           id="path222" />
        <path
           d="M -577.3182,245.25677 L -575.40639,241.94126 C -570.28275,262.43712 -552.77061,284.81678 -550.70585,302.3739 C -549.78819,312.62183 -548.18227,319.93101 -553.76474,329.27471 C -557.12952,334.92614 -567.30033,337.86489 -573.64753,337.56348 C -587.33606,336.96066 -595.59507,327.01414 -594.37151,316.38945 C -594.06562,313.22465 -591.77145,310.96407 -591.77145,308.55279 C -599.18926,308.55279 -609.74243,310.2859 -613.33663,317.59508 C -615.24844,321.51341 -615.6308,325.73315 -614.7896,330.17894 C -613.87194,334.39867 -612.11307,339.22122 -610.43068,343.0642 C -614.10135,341.02968 -645.76087,324.75357 -648.81976,323.54793 C -685.06761,308.92956 -702.57975,322.56835 -714.66237,334.39867 C -720.85662,340.50222 -734.54515,360.69667 -720.01542,381.8707 C -723.53315,363.4847 -711.60348,355.34664 -697.45611,354.81918 C -678.26157,354.141 -662.81418,369.3622 -648.9727,380.439 C -641.47842,386.46719 -633.83119,392.64609 -624.80747,396.63976 C -607.83063,404.17501 -578.6947,398.59893 -565.54147,386.09043 C -558.35308,379.30871 -549.32935,361.52554 -547.03519,359.41568 C -542.90568,361.29948 -544.5116,370.64319 -546.65282,375.69179 C -548.94699,381.41858 -550.8588,386.9193 -555.14125,392.57074 C -557.51188,395.66018 -563.17083,398.97569 -560.4943,398.59893 C -555.90597,397.99611 -551.62352,397.92076 -547.03519,398.22217 C -544.74102,398.29752 -544.05277,403.27078 -538.69971,408.31939 C -537.6291,405.98347 -536.09965,403.34613 -535.33493,400.8595 C -533.65254,394.8313 -520.26989,399.95527 -516.06392,400.10598 C -524.01704,396.63976 -535.64082,367.62909 -532.42898,361.14879 C -531.97015,360.09385 -531.28191,360.24456 -530.51718,361.07343 C -513.3874,380.21294 -498.70472,394.5299 -470.63941,395.50948 C -458.09795,395.88624 -443.72117,390.98834 -438.21517,386.9193 C -426.97375,378.63054 -419.02063,372.30094 -410.53221,364.16287 C -398.52607,352.5586 -364.03708,342.00927 -356.38985,375.69179 C -348.89557,331.68599 -383.53751,317.67043 -399.82609,317.21832 C -424.67958,316.46479 -434.0092,324.3768 -442.65056,329.87753 C -455.03907,337.86489 -460.54507,343.44096 -475.99246,340.87898 C -472.70415,339.29658 -466.43343,334.47403 -465.59223,330.25429 C -464.59809,325.6578 -464.82751,319.47889 -468.26876,316.08804 C -474.2336,310.21055 -479.12782,308.7035 -487.53977,308.92956 C -479.81608,316.91691 -483.18086,328.9733 -491.66927,332.21345 C -505.12839,337.26207 -514.15212,333.64515 -522.25818,323.02046 C -531.28191,311.19013 -518.74045,283.15903 -514.53448,272.60969 C -509.25789,259.64908 -506.88725,253.77159 -508.18728,237.57083 L -504.66955,243.37296 C -504.66955,268.61602 -523.94056,288.58441 -522.18171,313.3 C -521.49345,322.86976 -508.11081,333.41909 -497.48117,330.85711 C -493.04578,329.87753 -485.70443,326.10991 -485.24561,320.23242 C -484.86324,315.03311 -491.0575,307.94997 -491.0575,307.49786 C -479.51019,303.88095 -468.49818,306.81969 -463.60395,316.54016 C -460.1627,323.39722 -463.06865,332.74092 -468.65113,339.52263 C -458.02148,339.52263 -447.69772,327.01414 -438.44459,322.71905 C -424.98547,316.38945 -414.20288,313.37535 -398.52607,314.05353 C -382.23748,314.05353 -358.07225,329.57612 -354.93689,342.15997 C -350.04266,361.82695 -353.48391,371.17065 -357.15458,389.40594 C -356.5428,380.81576 -357.30752,375.54109 -361.13113,368.45797 C -371.99019,348.26352 -398.9849,357.07975 -411.83224,369.66361 C -415.2735,372.9791 -434.23862,387.59748 -438.21517,390.15946 C -447.00948,395.81089 -458.70974,398.97569 -469.33938,398.97569 C -499.77534,398.97569 -511.01676,383.9052 -529.37009,365.89598 C -528.14654,376.59602 -524.24646,388.2003 -514.76389,398.74963 C -514.22859,399.4278 -513.31093,402.4419 -514.22859,402.21585 C -523.40526,399.80457 -528.37595,399.80457 -531.81721,400.25668 C -535.64082,400.78415 -532.1231,403.19543 -539.08207,411.86095 C -545.81163,405.68206 -545.65869,402.96937 -546.42341,401.61303 C -547.87638,398.90034 -554.91183,399.4278 -558.73544,400.10598 C -561.94728,400.63344 -568.37094,400.33203 -566.22972,399.2771 C -563.93555,398.22217 -559.959,394.00244 -558.04719,392.11862 C -554.30005,388.50171 -542.82921,370.56784 -547.64696,363.86146 C -554.68241,375.54109 -562.712,396.63976 -589.55376,400.93485 C -602.09521,402.96937 -613.79546,403.57219 -622.97214,400.33203 C -654.24929,389.33058 -662.58476,359.79244 -695.85019,357.45651 C -725.36848,355.422 -717.79773,383.37775 -714.81531,393.39962 C -736.0746,374.18474 -732.86276,342.46138 -706.93867,323.09581 C -676.73213,300.49009 -637.34892,325.20568 -615.47785,337.18672 C -617.08377,328.89794 -620.06619,319.93101 -612.18955,312.01901 C -606.14824,305.99081 -586.57134,304.10701 -588.10079,307.19645 C -590.39495,312.09436 -592.84207,320.53383 -590.16554,324.67821 C -587.87137,328.29512 -578.23587,334.24797 -572.19456,334.39867 C -547.2646,335.1522 -552.00588,307.49786 -556.82363,294.08514 C -562.94142,277.3569 -574.48873,259.49838 -577.3182,245.25677 z "
           style="fill:#000000;fill-rule:evenodd"
           id="path224" />
        <path
           d="M -622.89566,219.63695 L -625.80161,217.97919 C -639.41367,227.6243 -671.14966,251.66172 -684.07347,231.39192 C -689.88536,222.42499 -690.19125,212.85523 -703.34447,213.30735 C -716.57417,213.68411 -719.02129,227.02148 -717.49184,237.72153 C -715.35062,237.79689 -712.21525,235.46096 -711.22112,232.97433 C -710.83876,235.61166 -709.38578,240.28351 -705.71511,241.7152 C -703.03859,242.77014 -700.20911,239.68069 -697.83847,239.75604 C -696.9208,242.46873 -692.63836,247.5927 -686.21469,247.89411 C -682.69697,248.12017 -678.41452,247.36664 -675.50857,245.33212 C -681.62635,246.161 -687.43825,248.57228 -693.6325,242.46873 C -696.23255,239.90674 -695.92666,239.52998 -695.31489,235.76237 C -698.22083,237.79689 -703.87978,239.90674 -704.6445,239.52998 C -706.70925,238.5504 -710.30345,235.53631 -708.774,230.7891 C -708.16223,228.75459 -698.45025,225.8912 -704.87392,218.73272 C -701.8915,225.28838 -713.82117,228.82994 -715.1212,234.63208 C -716.57417,232.59756 -715.88592,225.66515 -712.44467,221.06864 C -710.83876,218.80807 -708.08575,217.45173 -705.63864,216.84891 C -695.85019,214.51299 -692.40894,224.3088 -687.05588,232.82362 C -683.30874,238.77646 -678.26157,242.77014 -671.99085,242.69479 C -654.86107,242.54408 -635.2077,228.22712 -622.89566,219.63695 z "
           style="fill:#000000;fill-rule:evenodd"
           id="path226" />
        <path
           d="M -696.3855,260.93007 C -692.94425,260.17655 -690.72655,258.36809 -687.59119,257.31316 C -691.33833,258.97091 -700.66795,259.95049 -703.80331,259.64908 C -709.46225,259.12162 -721.23898,258.14203 -720.85662,253.01807 C -720.6272,250.00397 -723.22726,247.81876 -726.20968,247.81876 C -721.54487,250.15467 -723.53315,256.25822 -725.75084,259.79979 C -727.96854,263.34135 -733.55101,262.73853 -736.68638,261.15612 C -746.55129,256.33358 -731.02743,243.22225 -743.64535,242.61943 C -739.66879,245.33212 -741.5806,250.30538 -741.96297,251.66172 C -742.57474,254.22371 -746.16894,259.87514 -748.69252,261.985 C -751.98083,258.82021 -751.98083,237.34477 -736.6099,235.98843 C -729.65093,235.38561 -706.93867,246.31171 -700.74442,247.96946 C -698.2973,248.64763 -696.00314,249.02439 -694.01486,249.25044 C -685.98527,250.23002 -681.01458,247.5927 -678.03216,246.46241 C -683.07933,247.44199 -689.12063,247.29129 -695.46783,246.0103 C -702.65622,244.5786 -709.84462,240.96168 -714.81531,238.70111 C -727.89207,232.67292 -733.70396,232.29615 -734.85104,232.37151 C -743.03358,231.99474 -751.2161,240.28351 -752.43966,247.06523 C -753.35732,251.88778 -755.34561,263.19064 -749.45724,265.97868 C -748.08074,266.65686 -747.39249,267.41038 -745.86305,267.48573 C -746.39836,262.36176 -743.26299,258.82021 -742.19237,257.46386 C -741.35118,260.93007 -739.66879,262.28641 -737.83346,263.71811 C -734.92752,265.97868 -725.52143,265.37586 -721.54487,257.61457 C -719.86248,258.6695 -713.20939,260.93007 -706.93867,261.15612 C -703.95625,261.30683 -698.83261,261.45753 -696.3855,260.93007 z "
           style="fill:#000000;fill-rule:evenodd"
           id="path228" />
        <path
           d="M -732.25099,300.41474 C -733.78043,298.98304 -731.33332,292.42738 -729.80387,293.25626 C -727.96854,295.74288 -725.67437,297.62669 -722.38607,297.62669 C -715.65651,297.62669 -710.07403,294.53724 -710.45639,287.37877 C -710.45639,286.24848 -710.9917,284.66608 -709.76814,283.61114 C -705.86806,281.19987 -688.89122,275.09632 -685.9088,274.3428 C -680.17338,272.9111 -672.44968,268.76672 -668.32018,276.30196 C -670.00257,282.17946 -668.39665,288.58441 -663.34949,290.84498 C -658.45526,293.10556 -654.09634,290.46822 -652.18454,289.56399 C -650.19626,291.07104 -650.88451,302.14784 -650.96098,303.27813 C -647.21384,302.82602 -644.07848,300.56544 -642.31961,298.90769 C -633.52531,290.54357 -635.66653,282.33016 -637.27245,276.07591 C -638.19011,272.68504 -642.47256,269.5956 -645.14909,266.95827 C -647.82562,264.32093 -650.04331,263.49205 -652.03159,261.985 C -655.62579,259.34767 -643.23728,252.86736 -641.55489,251.88778 C -631.30761,246.38706 -629.62522,242.46873 -616.85435,245.93494 L -616.47199,239.45463 C -618.53674,246.08565 -625.49572,241.48915 -630.46642,243.44831 C -634.74886,245.10607 -655.3199,257.0871 -655.09048,260.77936 C -654.86107,264.77304 -642.54903,272.30828 -640.7137,277.28154 C -638.11364,284.28932 -638.64895,291.74921 -644.61378,297.24993 C -646.2197,298.75698 -648.28445,300.33938 -648.9727,300.26403 C -648.59034,296.195 -648.4374,294.83865 -648.9727,291.89992 C -649.35506,289.33793 -650.57862,288.50905 -650.50215,286.70059 C -650.50215,284.13861 -648.74328,282.02875 -647.29031,279.76818 C -651.41981,281.27523 -651.26687,283.46044 -652.87279,286.24848 C -654.55518,289.18723 -656.00815,289.41328 -658.76115,289.41328 C -663.19654,289.41328 -668.77902,282.93297 -665.72012,278.33648 C -664.03773,275.7745 -660.97885,272.38363 -660.97885,269.74631 C -661.74357,270.80124 -665.10835,275.54844 -669.23785,271.47941 C -671.99085,268.76672 -673.36735,267.41038 -678.33805,268.91743 C -687.2853,271.55477 -698.67967,275.69914 -707.24456,279.46677 C -714.12706,282.55622 -712.90351,274.19209 -718.7154,276.30196 C -715.73298,277.20619 -713.51528,280.5217 -712.97998,281.65199 C -711.60348,284.36467 -712.67409,289.79005 -714.81531,291.97527 C -717.41537,294.46189 -724.68023,295.44147 -726.82146,292.20133 C -728.27443,289.8654 -728.58032,287.37877 -728.42737,284.06326 C -728.19796,279.69282 -730.41565,275.62379 -735.30988,276.75408 C -731.9451,278.41183 -730.87449,280.5217 -730.87449,284.28932 C -730.87449,288.35835 -733.09218,292.95485 -734.31574,295.81823 C -739.66879,292.35203 -740.58646,283.76185 -740.58646,280.29564 C -740.58646,275.17168 -735.92165,268.46531 -729.80387,268.69137 C -721.4684,269.06813 -716.34476,267.48573 -708.69753,266.05404 C -704.6445,265.30051 -693.78544,261.23148 -690.26772,258.36809 C -695.16194,259.79979 -713.13292,265.37586 -718.48598,265.75263 C -729.26857,266.5815 -736.99227,265.67727 -740.58646,272.60969 C -742.72769,276.67872 -744.02772,283.98791 -742.26885,288.81046 C -741.04529,292.05062 -736.99227,299.81192 -732.25099,300.41474 z "
           style="fill:#000000;fill-rule:evenodd"
           id="path230" />
      </g>
    </g>
    <g
       transform="translate(872.52491,-159.98046)"
       id="g3868">
      <path
         id="path16"
         style="fill:#0a0a64;fill-opacity:1;fill-rule:evenodd;stroke:none;stroke-width:3.82678771;stroke-miterlimit:4;stroke-dasharray:none;stroke-opacity:1"
         d="M 27.475052,759.98075 L 927.47509,759.98075 L 927.47509,1359.9807 L 27.475052,1359.9807 L 27.475052,759.98075 z " />
      <path
         id="path2252"
         style="opacity:0.98999999;fill:#ffc800;fill-opacity:1;fill-rule:evenodd;stroke:#000000;stroke-width:2.45659351;stroke-linecap:round;stroke-linejoin:round;stroke-miterlimit:4;stroke-dasharray:none;stroke-dashoffset:0;stroke-opacity:1"
         d="M 480.97156,1279.9711 L 450.09416,1133.1297 L 324.39076,1218.0099 L 406.38976,1092.3437 L 257.48466,1063.4772 L 404.32616,1032.5999 L 319.44596,906.89647 L 445.11216,988.89537 L 473.97856,839.99037 L 504.85596,986.83177 L 630.55936,901.95167 L 548.56036,1027.6178 L 697.46549,1056.4842 L 550.62396,1087.3616 L 635.50416,1213.065 L 509.83796,1131.0661 L 480.97156,1279.9711 z " />
    </g>
    <g
       transform="translate(1126.1914,-222.52826)"
       id="g3872">
      <path
         d="M -226.19145,822.52852 L -1126.1914,822.52852 L -1126.1914,1422.5285 L -226.19145,1422.5285 L -226.19145,822.52852 z "
         style="fill:#ffc800;fill-opacity:1;fill-rule:evenodd;stroke:none;stroke-width:3.82749867;stroke-miterlimit:4;stroke-dasharray:none;stroke-opacity:1"
         id="path3766" />
      <g
         id="g2603"
         transform="translate(72.226926,97.917245)">
        <g
           transform="matrix(0.4292728,0,0,0.4286371,-898.53371,530.30605)"
           style="fill:#0a0a64;fill-opacity:1;fill-rule:evenodd"
           id="g2289">
          <path
             d="M 321.10538,731.9314 C 321.11027,753.17108 303.5914,770.39179 281.9791,770.39179 C 260.36679,770.39179 242.84792,753.17108 242.85281,731.9314 C 242.84792,710.69172 260.36679,693.47101 281.9791,693.47101 C 303.5914,693.47101 321.11027,710.69172 321.10538,731.9314 z "
             transform="matrix(0.958435,0,0,0.97525,9.741368,18.54607)"
             style="opacity:1;fill:#0a0a64;fill-opacity:1;fill-rule:evenodd;stroke:#000000;stroke-width:5.07946491;stroke-linecap:round;stroke-linejoin:miter;stroke-miterlimit:4;stroke-dasharray:none;stroke-opacity:1"
             id="path2273" />
          <path
             d="M 321.10538,731.9314 C 321.11027,753.17108 303.5914,770.39179 281.9791,770.39179 C 260.36679,770.39179 242.84792,753.17108 242.85281,731.9314 C 242.84792,710.69172 260.36679,693.47101 281.9791,693.47101 C 303.5914,693.47101 321.11027,710.69172 321.10538,731.9314 z "
             transform="matrix(0.958435,0,0,0.97525,86.74137,18.54607)"
             style="opacity:1;fill:#0a0a64;fill-opacity:1;fill-rule:evenodd;stroke:#000000;stroke-width:5.07946491;stroke-linecap:round;stroke-linejoin:miter;stroke-miterlimit:4;stroke-dasharray:none;stroke-opacity:1"
             id="path2275" />
          <path
             d="M 321.10538,731.9314 C 321.11027,753.17108 303.5914,770.39179 281.9791,770.39179 C 260.36679,770.39179 242.84792,753.17108 242.85281,731.9314 C 242.84792,710.69172 260.36679,693.47101 281.9791,693.47101 C 303.5914,693.47101 321.11027,710.69172 321.10538,731.9314 z "
             transform="matrix(0.958435,0,0,0.97525,162.7414,18.54607)"
             style="opacity:1;fill:#0a0a64;fill-opacity:1;fill-rule:evenodd;stroke:#000000;stroke-width:5.07946491;stroke-linecap:round;stroke-linejoin:miter;stroke-miterlimit:4;stroke-dasharray:none;stroke-opacity:1"
             id="path2277" />
          <path
             d="M 321.10538,731.9314 C 321.11027,753.17108 303.5914,770.39179 281.9791,770.39179 C 260.36679,770.39179 242.84792,753.17108 242.85281,731.9314 C 242.84792,710.69172 260.36679,693.47101 281.9791,693.47101 C 303.5914,693.47101 321.11027,710.69172 321.10538,731.9314 z "
             transform="matrix(0.958435,0,0,0.97525,48.74137,-46.45393)"
             style="opacity:1;fill:#0a0a64;fill-opacity:1;fill-rule:evenodd;stroke:#000000;stroke-width:5.07946491;stroke-linecap:round;stroke-linejoin:miter;stroke-miterlimit:4;stroke-dasharray:none;stroke-opacity:1"
             id="path2279" />
          <path
             d="M 321.10538,731.9314 C 321.11027,753.17108 303.5914,770.39179 281.9791,770.39179 C 260.36679,770.39179 242.84792,753.17108 242.85281,731.9314 C 242.84792,710.69172 260.36679,693.47101 281.9791,693.47101 C 303.5914,693.47101 321.11027,710.69172 321.10538,731.9314 z "
             transform="matrix(0.958435,0,0,0.97525,125.7414,-46.45393)"
             style="opacity:1;fill:#0a0a64;fill-opacity:1;fill-rule:evenodd;stroke:#000000;stroke-width:5.07946491;stroke-linecap:round;stroke-linejoin:miter;stroke-miterlimit:4;stroke-dasharray:none;stroke-opacity:1"
             id="path2281" />
          <path
             d="M 321.10538,731.9314 C 321.11027,753.17108 303.5914,770.39179 281.9791,770.39179 C 260.36679,770.39179 242.84792,753.17108 242.85281,731.9314 C 242.84792,710.69172 260.36679,693.47101 281.9791,693.47101 C 303.5914,693.47101 321.11027,710.69172 321.10538,731.9314 z "
             transform="matrix(0.958435,0,0,0.97525,48.74137,83.54607)"
             style="opacity:1;fill:#0a0a64;fill-opacity:1;fill-rule:evenodd;stroke:#000000;stroke-width:5.07946491;stroke-linecap:round;stroke-linejoin:miter;stroke-miterlimit:4;stroke-dasharray:none;stroke-opacity:1"
             id="path2283" />
          <path
             d="M 321.10538,731.9314 C 321.11027,753.17108 303.5914,770.39179 281.9791,770.39179 C 260.36679,770.39179 242.84792,753.17108 242.85281,731.9314 C 242.84792,710.69172 260.36679,693.47101 281.9791,693.47101 C 303.5914,693.47101 321.11027,710.69172 321.10538,731.9314 z "
             transform="matrix(0.958435,0,0,0.97525,125.7414,83.54607)"
             style="opacity:1;fill:#0a0a64;fill-opacity:1;fill-rule:evenodd;stroke:#000000;stroke-width:5.07946491;stroke-linecap:round;stroke-linejoin:miter;stroke-miterlimit:4;stroke-dasharray:none;stroke-opacity:1"
             id="path2285" />
          <path
             d="M 321.10538,731.9314 C 321.11027,753.17108 303.5914,770.39179 281.9791,770.39179 C 260.36679,770.39179 242.84792,753.17108 242.85281,731.9314 C 242.84792,710.69172 260.36679,693.47101 281.9791,693.47101 C 303.5914,693.47101 321.11027,710.69172 321.10538,731.9314 z "
             transform="matrix(0.958435,0,0,0.97525,86.74137,148.5461)"
             style="opacity:1;fill:#0a0a64;fill-opacity:1;fill-rule:evenodd;stroke:#000000;stroke-width:5.07946491;stroke-linecap:round;stroke-linejoin:miter;stroke-miterlimit:4;stroke-dasharray:none;stroke-opacity:1"
             id="path2287" />
        </g>
        <path
           d="M -740.13207,786.78625 C -743.13698,785.50034 -768.89334,774.53036 -768.89334,774.53036 L -759.87862,786.3576 L -798.94243,777.78487 L -783.91789,789.58486 L -816.97189,788.50079 L -792.07407,803.93173 L -806.24007,817.21948 L -768.89334,807.78946 L -769.75189,821.70112 L -750.86389,800.50264 L -749.1468,813.79038 L -732.66148,803.07445 L -718.23916,829.22131 L -704.71909,819.36266 L -688.83817,831.53671 L -689.47789,814.21901 L -664.15081,824.07766 L -670.58989,806.50355 L -653.41898,801.3599 L -733.46558,790.38776 L -719.95625,774.35577 L -728.11243,769.64076 L -740.13207,786.78625 z "
           style="fill:#249842;fill-opacity:1;fill-rule:evenodd;stroke:#000000;stroke-width:2.1065352;stroke-linecap:butt;stroke-linejoin:round;stroke-miterlimit:4;stroke-dasharray:none;stroke-opacity:1"
           id="path2299" />
        <g
           transform="matrix(0.4292728,0,0,0.4286371,-898.10444,528.5915)"
           style="fill-rule:evenodd"
           id="g2782">
          <path
             d="M 220.26022,669.36218 L 286,635.36218 C 286,635.36218 296.75,632.11218 311.17899,628.61218 C 325.60798,625.11218 353.83103,620.54204 368.54699,619.54204 L 347.38427,662.49162"
             style="fill:none;fill-opacity:0.75;fill-rule:evenodd;stroke:#000000;stroke-width:2.94651389;stroke-linecap:round;stroke-linejoin:miter;stroke-miterlimit:4;stroke-dasharray:none;stroke-opacity:1"
             id="path2742" />
          <path
             d="M 285.02343,635.65944 L 199.47493,610.52767"
             style="fill:none;fill-opacity:0.75;fill-rule:evenodd;stroke:#000000;stroke-width:2.94651389;stroke-linecap:round;stroke-linejoin:miter;stroke-miterlimit:4;stroke-dasharray:none;stroke-opacity:1"
             id="path2744" />
          <path
             d="M 239.98578,586.32981 L 323.25193,625.98814"
             style="fill:none;fill-opacity:0.75;fill-rule:evenodd;stroke:#000000;stroke-width:2.94651389;stroke-linecap:round;stroke-linejoin:miter;stroke-miterlimit:4;stroke-dasharray:none;stroke-opacity:1"
             id="path2746" />
          <path
             d="M 563.42422,638.72908 L 459.81579,633.76271 L 398.58844,625.36218"
             style="fill:none;fill-opacity:0.75;fill-rule:evenodd;stroke:#000000;stroke-width:2.94651389;stroke-linecap:round;stroke-linejoin:miter;stroke-miterlimit:4;stroke-dasharray:none;stroke-opacity:1"
             id="path2750" />
          <path
             d="M 460.2243,634.37651 C 467.65235,637.37651 537.75685,672.5297 537.75685,672.5297"
             style="fill:none;fill-opacity:0.75;fill-rule:evenodd;stroke:#000000;stroke-width:2.94651389;stroke-linecap:round;stroke-linejoin:miter;stroke-miterlimit:4;stroke-dasharray:none;stroke-opacity:1"
             id="path2752" />
          <path
             d="M 458.90648,634.4557 L 485.06774,702.765"
             style="fill:none;fill-opacity:0.75;fill-rule:evenodd;stroke:#000000;stroke-width:2.94651389;stroke-linecap:round;stroke-linejoin:miter;stroke-miterlimit:4;stroke-dasharray:none;stroke-opacity:1"
             id="path2754" />
          <path
             d="M 429.46838,629.8593 L 419.17268,698.54989"
             style="fill:none;fill-opacity:0.75;fill-rule:evenodd;stroke:#000000;stroke-width:2.94651389;stroke-linecap:round;stroke-linejoin:miter;stroke-miterlimit:4;stroke-dasharray:none;stroke-opacity:1"
             id="path2758" />
          <path
             d="M 300,680.36218 L 313.84786,628.54366"
             style="fill:none;fill-opacity:0.75;fill-rule:evenodd;stroke:#000000;stroke-width:2.94651389;stroke-linecap:butt;stroke-linejoin:miter;stroke-miterlimit:4;stroke-dasharray:none;stroke-opacity:1"
             id="path2778" />
          <path
             d="M 306,576.85912 L 370.34725,618.31055 L 384.40513,623.53084"
             style="fill:none;fill-opacity:0.75;fill-rule:evenodd;stroke:#000000;stroke-width:2.94651389;stroke-linecap:round;stroke-linejoin:miter;stroke-miterlimit:4;stroke-dasharray:none;stroke-opacity:1"
             id="path2780" />
        </g>
        <path
           d="M -614.33238,820.72246 L -634.90834,809.24007 C -680.98748,889.25789 -876.98002,1264.4455 -876.98002,1264.4455 L -864.43902,1270.6762 L -614.33238,820.72246 z "
           style="fill:#000000;fill-opacity:1;fill-rule:evenodd;stroke:#000000;stroke-width:4.09432268;stroke-linecap:butt;stroke-linejoin:miter;stroke-miterlimit:4;stroke-dasharray:none;stroke-opacity:1;display:inline"
           id="path3641" />
        <path
           d="M -588.128,942.71816 C -593.62335,929.93608 -602.98553,913.516 -612.83307,899.38917 C -619.7918,889.40638 -620.81771,887.18036 -619.57921,884.75034 C -617.71507,881.09245 -617.09565,873.86371 -623.71636,871.81693 C -628.22188,870.42408 -632.15706,871.98172 -636.13818,878.5747 C -638.08343,881.79616 -639.96086,884.65164 -640.2407,884.50902 L -671.57609,868.53974 L -645.19725,816.77833 L -636.80258,821.05645 L -616.61312,831.34553 L -609.82983,834.77557 C -589.50155,845.04519 -555.27773,852.94883 -537.53044,851.47241 C -534.33362,851.20642 -531.40811,851.49894 -531.02927,852.12242 C -529.49193,854.65328 -538.08836,881.53805 -547.00695,902.09158 C -551.86218,913.28036 -568.17861,940.70021 -574.5207,948.32817 C -581.77552,956.12309 -581.32312,956.12393 -588.128,942.71816 z "
           style="fill:#0a0a64;fill-opacity:1;fill-rule:evenodd;stroke:#000000;stroke-width:4.09432268;stroke-linecap:butt;stroke-linejoin:miter;stroke-miterlimit:4;stroke-dasharray:none;stroke-opacity:1;display:inline"
           id="Axe" />
        <path
           d="M -882.50436,828.63421 L -861.92836,817.15182 C -815.84927,897.16965 -619.8567,1272.3573 -619.8567,1272.3573 L -632.39768,1278.5879 L -882.50436,828.63421 z "
           style="fill:#000000;fill-opacity:1;fill-rule:evenodd;stroke:#000000;stroke-width:4.09432268;stroke-linecap:butt;stroke-linejoin:miter;stroke-miterlimit:4;stroke-dasharray:none;stroke-opacity:1;display:inline"
           id="path3851" />
        <path
           d="M -908.70872,950.62992 C -903.21341,937.84784 -893.85118,921.42775 -884.00369,907.30092 C -877.04498,897.31813 -876.01902,895.09212 -877.2575,892.66209 C -879.1216,889.00421 -879.74104,881.77546 -873.12032,879.72868 C -868.61477,878.33583 -864.67972,879.89348 -860.69856,886.48646 C -858.75335,889.70791 -856.87585,892.56339 -856.59599,892.42078 L -825.26063,876.45149 L -851.63946,824.69009 L -860.03417,828.96819 L -880.22356,839.25729 L -887.00688,842.68732 C -907.33516,852.95694 -941.55895,860.86057 -959.3062,859.38415 C -962.5031,859.11818 -965.42863,859.4107 -965.80744,860.03417 C -967.34481,862.56503 -958.74841,889.44981 -949.82978,910.00334 C -944.97461,921.19211 -928.65813,948.61196 -922.31607,956.23993 C -915.06119,964.03485 -915.51353,964.03569 -908.70872,950.62992 z "
           style="fill:#0a0a64;fill-opacity:1;fill-rule:evenodd;stroke:#000000;stroke-width:4.09432268;stroke-linecap:butt;stroke-linejoin:miter;stroke-miterlimit:4;stroke-dasharray:none;stroke-opacity:1;display:inline"
           id="path3853" />
        <path
           d="M -942.35598,1028.8634 C -893.39217,1118.5566 -749.55556,1140.772 -653.89669,1146.1066 C -648.98143,1129.6633 -631.95963,1082.962 -626.82974,1068.8903 L -551.55526,1070.0286 L -551.36921,1028.1166 L -942.35598,1028.8634 z "
           style="fill:#0a0a64;fill-opacity:1;fill-rule:evenodd;stroke:#000000;stroke-width:4.25525665;stroke-linecap:butt;stroke-linejoin:miter;stroke-miterlimit:4;stroke-dasharray:none;stroke-opacity:1"
           id="path5521" />
      </g>
    </g>
    <g
       transform="translate(-1.6654,121.76288)"
       id="g3852">
      <path
         id="path18"
         style="fill:#ffc800;fill-opacity:1;fill-rule:evenodd;stroke:none;stroke-width:3.82749867;stroke-miterlimit:4;stroke-dasharray:none;stroke-opacity:1"
         d="M 1801.6654,-121.76288 L 901.66536,-121.76288 L 901.66536,478.23712 L 1801.6654,478.23712 L 1801.6654,-121.76288 z " />
      <g
         id="g2563"
         transform="translate(-332.50636,194.39682)">
        <path
           d="M 1507.9634,-208.69677 L 1507.4196,179.66532 C 1512.5848,200.59807 1527.1896,207.05159 1548.1223,207.59529 L 1548.1223,-239.88817 C 1526.2032,-237.6419 1511.7063,-237.25156 1507.9634,-208.69677 z "
           style="fill:#0a0a64;fill-opacity:1;fill-rule:evenodd;stroke:#000000;stroke-width:1.91339386;stroke-linecap:butt;stroke-linejoin:miter;stroke-miterlimit:4;stroke-dasharray:none;stroke-opacity:1"
           id="path3527" />
        <path
           d="M 1545.8185,149.62176 C 1529.4988,162.39451 1523.4464,187.86841 1548.1224,202.6006 C 1548.1224,202.6006 1861.4525,203.05436 1860.1728,202.69671 C 1837.1857,186.30614 1837.7151,164.47523 1857.2711,149.51483 L 1545.8185,149.62176 z "
           style="fill:#646464;fill-opacity:1;fill-rule:evenodd;stroke:#000000;stroke-width:1.27559602;stroke-miterlimit:4;stroke-dasharray:none;stroke-opacity:1"
           id="path2378" />
        <rect
           width="309.83466"
           height="389.4744"
           x="1548.2864"
           y="-149.24081"
           transform="scale(1,-1)"
           style="fill:#0a0a64;fill-opacity:1;fill-rule:evenodd;stroke:#000000;stroke-width:1.2755959;stroke-miterlimit:4;stroke-dasharray:none;stroke-opacity:1"
           id="rect103" />
        <path
           d="M 1672.9092,-195.13635 C 1672.9092,-195.13635 1683.5994,-178.95 1683.5126,-160.93443 C 1683.4985,-157.92026 1683.5025,-150.73796 1683.5126,-142.09946 C 1670.6144,-142.07607 1659.7432,-142.08505 1657.0241,-142.23898 C 1650.0909,-142.63142 1639.6242,-152.84237 1639.6241,-152.84237 C 1639.6241,-152.84237 1638.9445,-116.02083 1639.6241,-106.64188 C 1644.1098,-110.58376 1648.726,-117.43269 1655.3897,-117.78341 C 1658.3286,-117.93808 1669.9479,-118.0183 1683.5524,-118.06245 C 1683.5817,-101.46285 1683.6052,-82.974957 1683.6321,-63.809751 C 1661.0262,-63.774201 1640.9963,-63.780005 1636.3555,-63.949267 C 1625.5957,-64.341719 1609.3486,-74.552659 1609.3487,-74.552659 C 1609.3487,-74.552659 1608.2937,-37.711188 1609.3487,-28.332236 C 1616.3099,-32.274121 1623.4827,-39.143001 1633.8241,-39.493704 C 1638.8156,-39.662987 1660.0249,-39.732979 1683.672,-39.772747 C 1683.6961,-10.05934 1683.6674,15.042574 1683.5126,21.296414 C 1683.1202,37.15825 1672.9091,61.098978 1672.9092,61.098999 C 1672.9092,61.098999 1709.7506,62.654097 1719.1297,61.098999 C 1715.1877,50.836796 1708.3388,40.268561 1707.9881,25.023547 C 1707.8328,18.271931 1707.753,-8.5002098 1707.7091,-39.792678 C 1733.0159,-39.803872 1756.6126,-39.784231 1760.8057,-39.752816 C 1769.8764,-39.684856 1783.1685,-29.149414 1783.1686,-29.149425 L 1783.1686,-74.552659 C 1783.1686,-74.552659 1772.1895,-63.86261 1759.9687,-63.949267 C 1754.4571,-63.987046 1731.744,-63.90982 1707.6692,-63.849613 C 1707.6548,-83.218492 1707.6634,-101.46866 1707.6692,-118.10231 C 1721.9469,-118.10522 1734.7987,-118.09069 1737.2272,-118.06245 C 1743.0721,-117.99449 1751.6374,-107.45905 1751.6374,-107.45905 L 1751.6374,-152.84237 C 1751.6374,-152.84237 1744.5636,-142.15231 1736.689,-142.23898 C 1733.5154,-142.27272 1721.2117,-142.21417 1707.6892,-142.15925 C 1707.6981,-149.93652 1707.6982,-160.02609 1707.7091,-162.17016 C 1707.7771,-175.54197 1718.3125,-195.13634 1718.3125,-195.13635 L 1672.9092,-195.13635 z "
           style="opacity:0.98999999;fill:#ffc800;fill-opacity:1;fill-rule:evenodd;stroke:#000000;stroke-width:1.91339386;stroke-linecap:butt;stroke-linejoin:bevel;stroke-miterlimit:4;stroke-dashoffset:0;stroke-opacity:1"
           id="rect2508" />
        <path
           d="M 1547.839,202.37781 L 1861.7769,202.37781 L 1861.7769,208.3586 L 1547.839,208.3586 L 1547.839,202.37781 z "
           style="opacity:0.98999999;fill:#0a0a64;fill-opacity:1;fill-rule:evenodd;stroke:#000000;stroke-width:0.2072898;stroke-linecap:butt;stroke-linejoin:bevel;stroke-miterlimit:4;stroke-dashoffset:0;stroke-opacity:1"
           id="rect3522" />
        <path
           d="M 1849.4073,156.16265 L 1546.0184,156.16265"
           style="fill:none;fill-opacity:0.75;fill-rule:evenodd;stroke:#ffffff;stroke-width:1.91339386;stroke-linecap:butt;stroke-linejoin:miter;stroke-miterlimit:4;stroke-dasharray:none;stroke-opacity:1"
           id="path3541" />
        <path
           d="M 1846.1451,162.68715 L 1542.7562,162.68715"
           style="fill:none;fill-opacity:0.75;fill-rule:evenodd;stroke:#ffffff;stroke-width:1.91339386;stroke-linecap:butt;stroke-linejoin:miter;stroke-miterlimit:4;stroke-dasharray:none;stroke-opacity:1"
           id="path3543" />
        <path
           d="M 1842.8829,169.21165 L 1539.4939,169.21165"
           style="fill:none;fill-opacity:0.75;fill-rule:evenodd;stroke:#ffffff;stroke-width:1.91339386;stroke-linecap:butt;stroke-linejoin:miter;stroke-miterlimit:4;stroke-dasharray:none;stroke-opacity:1"
           id="path3545" />
        <path
           d="M 1841.7954,176.27985 L 1538.4065,176.27985"
           style="fill:none;fill-opacity:0.75;fill-rule:evenodd;stroke:#ffffff;stroke-width:1.91339386;stroke-linecap:butt;stroke-linejoin:miter;stroke-miterlimit:4;stroke-dasharray:none;stroke-opacity:1"
           id="path3547" />
        <path
           d="M 1843.4266,182.53248 L 1540.0376,182.53248"
           style="fill:none;fill-opacity:0.75;fill-rule:evenodd;stroke:#ffffff;stroke-width:1.91339386;stroke-linecap:butt;stroke-linejoin:miter;stroke-miterlimit:4;stroke-dasharray:none;stroke-opacity:1"
           id="path3549" />
        <path
           d="M 1846.1451,189.05698 L 1542.7562,189.05698"
           style="fill:none;fill-opacity:0.75;fill-rule:evenodd;stroke:#ffffff;stroke-width:1.91339386;stroke-linecap:butt;stroke-linejoin:miter;stroke-miterlimit:4;stroke-dasharray:none;stroke-opacity:1"
           id="path3551" />
        <path
           d="M 1851.0385,196.12518 L 1547.6495,196.12518"
           style="fill:none;fill-opacity:0.75;fill-rule:evenodd;stroke:#ffffff;stroke-width:1.91339386;stroke-linecap:butt;stroke-linejoin:miter;stroke-miterlimit:4;stroke-dasharray:none;stroke-opacity:1"
           id="path3553" />
      </g>
    </g>
  </g>
</svg>
