<?xml version="1.0" encoding="UTF-8" standalone="no"?>
<svg
   xmlns:dc="http://purl.org/dc/elements/1.1/"
   xmlns:cc="http://creativecommons.org/ns#"
   xmlns:rdf="http://www.w3.org/1999/02/22-rdf-syntax-ns#"
   xmlns:svg="http://www.w3.org/2000/svg"
   xmlns="http://www.w3.org/2000/svg"
   xml:space="preserve"
   enable-background="new 30.5 31.5 412 533"
   viewBox="30.5 31.5 450 500"
   height="500"
   width="450"
   y="0"
   x="0"
   version="1.1"
   id="svg2"><metadata
     id="metadata4"><rdf:RDF><cc:Work
         rdf:about=""><dc:format>
          
          
          
          
          image/svg+xml
        
        
        
        
        </dc:format><dc:type
           rdf:resource="http://purl.org/dc/dcmitype/StillImage" /><dc:title></dc:title></cc:Work></rdf:RDF></metadata><defs
     id="defs6" /><path
     style="fill:#32ac60;fill-opacity:1;fill-rule:evenodd;stroke:none;stroke-width:1px;stroke-linecap:butt;stroke-linejoin:miter;stroke-opacity:1"
     d="m 255.5,530 185,0 c 20,0 38.5,-18.87241 38.5,-38.5 L 479,33 255.5,33 32,33 32,491.5 c 0,19.62759 18.5,38.5 38.5,38.5 l 185,0"
     id="path4225" /><path
     id="path4227"
     d="m 255.5,530 185,0 c 20,0 38.5,-18.87241 38.5,-38.5 L 479,33 45.15832,519.46589 C 52.11732,525.87051 61.14455,530 70.5,530 l 185,0"
     style="fill:#ffe000;fill-opacity:1;fill-rule:evenodd;stroke:none;stroke-width:1px;stroke-linecap:butt;stroke-linejoin:miter;stroke-opacity:1" /><path
     style="fill:none;fill-rule:evenodd;stroke:#000000;stroke-width:1px;stroke-linecap:butt;stroke-linejoin:miter;stroke-opacity:1"
     d="M 479,33 45.15832,519.46589"
     id="path4239" /><path
     id="path4241"
     d="m 255.5,530 185,0 c 20,0 38.5,-18.87241 38.5,-38.5 L 479,33 255.5,33 32,33 32,491.5 c 0,19.62759 18.5,38.5 38.5,38.5 l 185,0"
     style="fill:none;fill-rule:evenodd;stroke:#000000;stroke-width:1px;stroke-linecap:butt;stroke-linejoin:miter;stroke-opacity:1" /></svg>