<?xml version="1.0" encoding="UTF-8" standalone="no"?>
<svg
   xmlns:dc="http://purl.org/dc/elements/1.1/"
   xmlns:cc="http://creativecommons.org/ns#"
   xmlns:rdf="http://www.w3.org/1999/02/22-rdf-syntax-ns#"
   xmlns:svg="http://www.w3.org/2000/svg"
   xmlns="http://www.w3.org/2000/svg"
   id="svg2"
   version="1.1"
   x="0"
   y="0"
   width="400"
   height="500"
   viewBox="30.5 31.5 400 500"
   enable-background="new 30.5 31.5 412 533"
   xml:space="preserve"><metadata
     id="metadata4"><rdf:RDF><cc:Work
         rdf:about=""><dc:format>
          
          
          
          
          
          image/svg+xml
        
        
        
        
        
        </dc:format><dc:type
           rdf:resource="http://purl.org/dc/dcmitype/StillImage" /><dc:title></dc:title></cc:Work></rdf:RDF></metadata><defs
     id="defs6" /><path
     style="fill:#e00e00;fill-opacity:1"
     id="path8"
     d="M 230.67,530.86 C 156.35,476.94 105.41,408.84 74.93,322.7 47.29,244.6 36.2,149.95 41.02,33.35 l 0.02,-0.46 379.82,0 0.02,0.46 c 4.81,116.6 -6.28,211.24 -33.91,289.35 -30.48,86.14 -81.42,154.24 -155.74,208.16 l -0.28,0.2 -0.28,-0.2 z" /><path
     id="path10"
     d="M 419.96,33.21 C 429.03,252.66 383.7,419.16 230.5,530.31 77.31,419.16 31.99,252.66 41.06,33.21 l 189.45,0 189.45,0 m 0.92,-0.95 -0.92,0 -189.45,0 -189.45,0 -0.92,0 -0.04,0.92 c -4.82,116.66 6.28,211.36 33.93,289.52 30.51,86.24 81.51,154.41 155.91,208.39 l 0.56,0.41 0.56,-0.41 C 305.46,477.11 356.46,408.94 386.97,322.7 414.62,244.54 425.72,149.84 420.9,33.18 l -0.04,-0.92 0,0 z" /><path
     id="path4289"
     d="m 230.5,118.21904 c 28.72178,-2.46244 55.97631,7.38154 66.60531,22.61575"
     style="fill:#e00e00;fill-rule:evenodd;stroke:#9700ff;stroke-width:1px;stroke-linecap:butt;stroke-linejoin:miter;stroke-opacity:1;fill-opacity:1" /><path
     id="path4291"
     d="m 238.11315,382.51215 -0.4149,-26.92834 c 6.08692,-0.78919 9.68683,-3.91826 9.82371,-8.17782 0.28586,-8.89541 -1.50193,-14.76328 -4.86674,-31.5353 l 111.68575,0 c 0.23196,-11.35251 -2.52365,-19.00812 -7.05478,-24.16748 -2.83973,-3.23345 -11.11107,-6.61008 -15.93053,-11.68014 -13.28456,-13.97532 -17.2068,-30.8984 -20.31184,-45.46254 -4.51333,-21.16974 -4.84786,-76.70439 -11.79542,-90.01509 -6.8724,-13.16671 -24.69456,-21.96031 -40.09504,-24.68184 0.55636,-4.14724 1.53427,-11.04004 1.84517,-15.32725 0.829,-11.431465 1.219,-14.270189 -6.2055,-17.244988 -6.8026,-2.725623 -13.4171,-4.061832 -24.29303,-4.061832 -10.87593,0 -17.49043,1.336209 -24.29303,4.061832 -7.4245,2.974799 -7.0345,5.813523 -6.2055,17.244988 0.3109,4.28721 1.28881,11.18001 1.84517,15.32725 -15.40048,2.72153 -33.22264,11.51513 -40.09504,24.68184 -6.94756,13.3107 -7.28209,68.84535 -11.79542,90.01509 -3.10504,14.56414 -7.02728,31.48722 -20.31184,45.46254 -4.81946,5.07006 -13.0908,8.44669 -15.93053,11.68014 -4.53113,5.15936 -7.28674,12.81497 -7.05478,24.16748 l 111.68575,0 c -3.36481,16.77202 -5.1526,22.63989 -4.86674,31.5353 0.13688,4.25956 3.73679,7.38863 9.82371,8.17782 l -0.4149,26.92834 c 5.07543,0 10.15087,0 15.2263,0 z"
     style="fill:#ffe000;fill-rule:evenodd;stroke:#000000;stroke-width:1px;stroke-linecap:butt;stroke-linejoin:round;stroke-opacity:1;fill-opacity:1" /><path
     id="path4297"
     d="m 249.62394,118.1121 c 0.60339,-4.0935 1.11256,-8.10686 0.98363,-12.72663 -0.20043,-7.181962 -2.09493,-12.131756 -10.36142,-12.476503 -7.13912,-0.297731 -5.82243,3.369034 -5.82243,10.630823 l 0,14.22425 z"
     style="fill:#e00e00;fill-opacity:1;fill-rule:evenodd;stroke:#000000;stroke-width:1px;stroke-linecap:butt;stroke-linejoin:round;stroke-opacity:1" /><path
     style="fill:#e00e00;fill-opacity:1;fill-rule:evenodd;stroke:#000000;stroke-width:1px;stroke-linecap:butt;stroke-linejoin:round;stroke-opacity:1"
     d="m 211.37606,118.1121 c -0.60339,-4.0935 -1.11256,-8.10686 -0.98363,-12.72663 0.20043,-7.181962 2.09493,-12.131756 10.36142,-12.476503 7.13912,-0.297731 5.82243,3.369034 5.82243,10.630823 l 0,14.22425 z"
     id="path4384" /></svg>