<?xml version="1.0" encoding="UTF-8" standalone="no"?>
<svg
   xmlns:dc="http://purl.org/dc/elements/1.1/"
   xmlns:cc="http://creativecommons.org/ns#"
   xmlns:rdf="http://www.w3.org/1999/02/22-rdf-syntax-ns#"
   xmlns:svg="http://www.w3.org/2000/svg"
   xmlns="http://www.w3.org/2000/svg"
   xml:space="preserve"
   enable-background="new 30.5 31.5 412 533"
   viewBox="30.5 31.5 400 500"
   height="500"
   width="400"
   y="0"
   x="0"
   version="1.1"
   id="svg2"><metadata
     id="metadata4"><rdf:RDF><cc:Work
         rdf:about=""><dc:format>
          
          
          
          
          image/svg+xml
        
        
        
        
        </dc:format><dc:type
           rdf:resource="http://purl.org/dc/dcmitype/StillImage" /><dc:title></dc:title></cc:Work></rdf:RDF></metadata><defs
     id="defs6" /><path
     fill="#e00e00"
     style="fill:#ffe000;fill-opacity:0.98823529"
     id="path4148"
     d="M230.45 531.13C156.13 477.21 105.19 409.11 74.71 322.97 47.07 244.87 35.98 150.22 40.8 33.62l0.02-0.46 379.82 0 0.02 0.46c4.81 116.6-6.28 211.24-33.91 289.35-30.48 86.14-81.42 154.24-155.74 208.16l-0.28 0.2-0.28-0.2z" /><path
     id="path5501"
     d="m 260.06023,332.22775 c 0,23.0449 -1.66317,46.62188 -5.06908,55.82034 -6.23667,16.84363 -18.78304,41.98303 -24.49115,48.45191 -5.70811,-6.46888 -18.25448,-31.60828 -24.49115,-48.45191 -3.40591,-9.19846 -5.06908,-32.77544 -5.06908,-55.82034 l 0,-50.72775 0,-50.72775 c 0,-23.0449 1.66317,-46.62188 5.06908,-55.82034 6.23667,-16.84363 18.78304,-41.98303 24.49115,-48.45191 5.70811,6.46888 18.25448,31.60828 24.49115,48.45191 3.40591,9.19846 5.06908,32.77544 5.06908,55.82034 l 0,50.72775 z"
     style="fill:#000000;fill-rule:evenodd;stroke:#000000;stroke-width:1px;stroke-linecap:butt;stroke-linejoin:miter;stroke-opacity:1;fill-opacity:0.98823529" /><path
     d="M419.96 33.21C429.03 252.66 383.71 419.16 230.51 530.31 146.04 469.02 94.36 390.9 66.52 296.34 64.43 289.25 62.48 282.07 60.65 274.8 49.2 229.11 42.88 179.78 40.77 126.86 39.57 96.8 39.72 65.58 41.06 33.21l189.45 0 189.45 0m0.92-0.95-0.92 0-189.45 0-189.45 0-0.92 0-0.04 0.92c-4.82 116.66 6.28 211.36 33.93 289.52 30.51 86.24 81.51 154.41 155.91 208.39l0.56 0.41 0.56-0.41C305.46 477.11 356.46 408.94 386.97 322.7 414.62 244.54 425.72 149.84 420.9 33.18l-0.04-0.92 0 0z"
     id="path10" /><path
     style="fill:#000000;fill-rule:evenodd;stroke:#000000;stroke-width:1;stroke-linecap:butt;stroke-linejoin:miter;stroke-opacity:1;stroke-miterlimit:4;stroke-dasharray:none;fill-opacity:0.98823529"
     d="m 365.0585,273.88828 c 0,22.11048 -1.66307,44.73145 -5.06878,53.55692 -6.23631,16.16065 -18.78194,40.28069 -24.48972,46.48726 -5.70778,-6.20657 -18.25341,-30.32661 -24.48972,-46.48726 -3.40571,-8.82547 -5.06878,-31.44644 -5.06878,-53.55692 l 0,-48.67082 0,-48.67082 c 0,-22.11046 1.66307,-44.73143 5.06878,-53.55691 6.23631,-16.16065 18.78194,-40.280688 24.48972,-46.487265 5.70778,6.206577 18.25341,30.326615 24.48972,46.487265 3.40571,8.82548 5.06878,31.44645 5.06878,53.55691 l 0,48.67082 z"
     id="path5511" /><path
     id="path5367"
     d="m 221.86582,244.96108 c 0.0254,-6.05893 0.27458,-9.72571 2.19008,-12.44662 2.21371,-3.14449 3.31503,-4.94461 2.15629,-5.70837 -2.25151,-1.48402 -3.56401,-3.43724 -3.59721,-5.22539 -0.0947,-5.10005 5.87894,-7.12969 5.87894,-7.12969 l 0,-7.24311 c 0,-3.2193 -16.29139,3.84315 -16.29139,25.20765 l 0,49.08445 0,49.08445 c 0,21.3645 16.29139,28.42695 16.29139,25.20765 l 0,-7.24311 c 0,0 -5.97364,-2.02964 -5.87894,-7.12969 0.0332,-1.78815 1.3457,-3.74137 3.59721,-5.22539 1.15874,-0.76376 0.0574,-2.56388 -2.15629,-5.70837 -1.9155,-2.72091 -2.16454,-6.38769 -2.19008,-12.44662 L 221.7118,281.5 Z"
     style="fill:#ffe000;fill-rule:evenodd;stroke:#000000;stroke-width:1px;stroke-linecap:butt;stroke-linejoin:miter;stroke-opacity:1;fill-opacity:0.98823529" /><path
     id="path5517"
     d="m 155.0585,273.88581 c 0,22.11048 -1.66307,44.73145 -5.06878,53.55692 -6.23631,16.16065 -18.78194,40.28069 -24.48972,46.48726 -5.70778,-6.20657 -18.25341,-30.32661 -24.48972,-46.48726 -3.405711,-8.82547 -5.068781,-31.44644 -5.068781,-53.55692 l 0,-48.67082 0,-48.67082 c 0,-22.11046 1.66307,-44.73143 5.068781,-53.55691 C 107.24659,106.82661 119.79222,82.706577 125.5,76.5 c 5.70778,6.206577 18.25341,30.32662 24.48972,46.48727 3.40571,8.82547 5.06878,31.44644 5.06878,53.5569 l 0,48.67082 z"
     style="fill:#000000;fill-rule:evenodd;stroke:#000000;stroke-width:1;stroke-linecap:butt;stroke-linejoin:miter;stroke-miterlimit:4;stroke-dasharray:none;stroke-opacity:1;fill-opacity:0.98823529" /><path
     style="fill:#ffe000;fill-rule:evenodd;stroke:#000000;stroke-width:1px;stroke-linecap:butt;stroke-linejoin:miter;stroke-opacity:1;fill-opacity:0.98823529"
     d="m 248.79747,232.41555 c 0,-21.3645 -16.29139,-28.42695 -16.29139,-25.20765 l 0,7.24311 c 0,0 5.97364,2.02964 5.87894,7.12969 -0.0332,1.78815 -1.3457,3.74137 -3.59721,5.22539 -1.15874,0.76376 -0.0574,2.56388 2.15629,5.70837 1.9155,2.72091 2.16454,6.38769 2.19008,12.44662 l 0.15402,36.53892 -0.15402,36.53892 c -0.0254,6.05893 -0.27458,9.72571 -2.19008,12.44662 -2.21371,3.14449 -3.31503,4.94461 -2.15629,5.70837 2.25151,1.48402 3.56401,3.43724 3.59721,5.22539 0.0947,5.10005 -5.87894,7.12969 -5.87894,7.12969 l 0,7.24311 c 0,3.2193 16.29139,-3.84315 16.29139,-25.20765 l 0,-49.08445 z"
     id="path5499" /><path
     style="fill:#ffe000;fill-rule:evenodd;stroke:#000000;stroke-width:1;stroke-linecap:butt;stroke-linejoin:miter;stroke-opacity:1;stroke-miterlimit:4;stroke-dasharray:none;fill-opacity:0.98823529"
     d="m 326.86632,190.16014 c 0.0254,-5.81325 0.27457,-9.33135 2.18996,-11.94193 2.21358,-3.01699 3.31483,-4.74412 2.15616,-5.47691 -2.25138,-1.42384 -3.5638,-3.29786 -3.597,-5.01351 -0.0947,-4.89324 5.8786,-6.84059 5.8786,-6.84059 l 0,-6.94941 c 0,-3.08876 -16.29044,3.68731 -16.29044,24.18552 l 0,47.09415 0,47.09416 c 0,20.49821 16.29044,27.27428 16.29044,24.18552 l 0,-6.94941 c 0,0 -5.97329,-1.94735 -5.8786,-6.8406 0.0332,-1.71564 1.34562,-3.58966 3.597,-5.0135 1.15867,-0.7328 0.0574,-2.45993 -2.15616,-5.47691 -1.91539,-2.61058 -2.16442,-6.12868 -2.18996,-11.94193 l -0.15401,-35.05733 z"
     id="path5507" /><path
     id="path5509"
     d="m 353.7964,178.12331 c 0,-20.49821 -16.29044,-27.27428 -16.29044,-24.18552 l 0,6.94941 c 0,0 5.97329,1.94735 5.8786,6.84059 -0.0332,1.71565 -1.34562,3.58967 -3.597,5.01351 -1.15867,0.73279 -0.0574,2.45992 2.15616,5.47691 1.91539,2.61058 2.16442,6.12868 2.18996,11.94193 l 0.15401,35.05732 -0.15401,35.05733 c -0.0254,5.81325 -0.27457,9.33135 -2.18996,11.94193 -2.21358,3.01698 -3.31483,4.74411 -2.15616,5.47691 2.25138,1.42384 3.5638,3.29786 3.597,5.0135 0.0947,4.89325 -5.8786,6.8406 -5.8786,6.8406 l 0,6.94941 c 0,3.08876 16.29044,-3.68731 16.29044,-24.18552 l 0,-47.09416 z"
     style="fill:#ffe000;fill-rule:evenodd;stroke:#000000;stroke-width:1;stroke-linecap:butt;stroke-linejoin:miter;stroke-opacity:1;stroke-miterlimit:4;stroke-dasharray:none;fill-opacity:0.98823529" /><path
     id="path5513"
     d="m 116.86632,190.15767 c 0.0254,-5.81325 0.27457,-9.33135 2.18996,-11.94193 2.21358,-3.01699 3.31483,-4.74412 2.15616,-5.47691 -2.25138,-1.42384 -3.5638,-3.29786 -3.597,-5.01351 -0.0947,-4.89324 5.8786,-6.84059 5.8786,-6.84059 l 0,-6.94941 c 0,-3.08876 -16.29044,3.68731 -16.29044,24.18552 l 0,47.09415 0,47.09416 c 0,20.49821 16.29044,27.27428 16.29044,24.18552 l 0,-6.94941 c 0,0 -5.97329,-1.94735 -5.8786,-6.8406 0.0332,-1.71564 1.34562,-3.58966 3.597,-5.0135 1.15867,-0.7328 0.0574,-2.45993 -2.15616,-5.47691 -1.91539,-2.61058 -2.16442,-6.12868 -2.18996,-11.94193 l -0.15401,-35.05733 z"
     style="fill:#ffe000;fill-rule:evenodd;stroke:#000000;stroke-width:1;stroke-linecap:butt;stroke-linejoin:miter;stroke-miterlimit:4;stroke-dasharray:none;stroke-opacity:1;fill-opacity:0.98823529" /><path
     style="fill:#ffe000;fill-rule:evenodd;stroke:#000000;stroke-width:1;stroke-linecap:butt;stroke-linejoin:miter;stroke-miterlimit:4;stroke-dasharray:none;stroke-opacity:1;fill-opacity:0.98823529"
     d="m 143.7964,178.12084 c 0,-20.49821 -16.29044,-27.27428 -16.29044,-24.18552 l 0,6.94941 c 0,0 5.97329,1.94735 5.8786,6.84059 -0.0332,1.71565 -1.34562,3.58967 -3.597,5.01351 -1.15867,0.73279 -0.0574,2.45992 2.15616,5.47691 1.91539,2.61058 2.16442,6.12868 2.18996,11.94193 l 0.15401,35.05732 -0.15401,35.05733 c -0.0254,5.81325 -0.27457,9.33135 -2.18996,11.94193 -2.21358,3.01698 -3.31483,4.74411 -2.15616,5.47691 2.25138,1.42384 3.5638,3.29786 3.597,5.0135 0.0947,4.89325 -5.8786,6.8406 -5.8786,6.8406 l 0,6.94941 c 0,3.08876 16.29044,-3.68731 16.29044,-24.18552 l 0,-47.09416 z"
     id="path5515" /></svg>