<svg xmlns:dc="http://purl.org/dc/elements/1.1/" xmlns:cc="http://creativecommons.org/ns#" xmlns:rdf="http://www.w3.org/1999/02/22-rdf-syntax-ns#" xmlns:svg="http://www.w3.org/2000/svg" xmlns="http://www.w3.org/2000/svg" id="svg2" version="1.1" x="0" y="0" width="400" height="500" viewBox="30.5 31.5 400 500" enable-background="new 30.5 31.5 412 533" xml:space="preserve">
  <metadata id="metadata4">
    <rdf:RDF>
      <cc:Work rdf:about="">
        <dc:format>
          image/svg+xml
        </dc:format>
        <dc:type rdf:resource="http://purl.org/dc/dcmitype/StillImage"/>
      </cc:Work>
    </rdf:RDF>
  </metadata>
  <defs id="defs6"/>
  <path id="path8" d="M230.55 531.13C304.87 477.21 355.81 409.11 386.29 322.97 413.93 244.87 425.02 150.22 420.2 33.62l-0.02-0.46-379.82 0-0.02 0.46c-4.81 116.6 6.28 211.24 33.91 289.35 30.48 86.14 81.42 154.24 155.74 208.16l0.28 0.2 0.28-0.2z" fill="#32ac60"/>
  <path id="path10" d="m41.04 33.21c-9.07 219.45 36.25 385.95 189.45 497.1 84.47-61.29 136.15-139.41 163.99-233.97 2.09-7.09 4.04-14.27 5.87-21.54 11.45-45.69 17.77-95.02 19.88-147.94 1.2-30.06 1.05-61.28-0.29-93.65l-189.45 0-189.45 0m-0.92-0.95 0.92 0 189.45 0 189.45 0 0.92 0 0.04 0.92c4.82 116.66-6.28 211.36-33.93 289.52-30.51 86.24-81.51 154.41-155.91 208.39l-0.56 0.41-0.56-0.41C155.54 477.11 104.54 408.94 74.03 322.7 46.38 244.54 35.28 149.84 40.1 33.18l0.04-0.92 0 0z"/>
  <path id="path5906" d="m227.7 100.6c-2.37 3.65-0.3 6.41-0.79 10.75-0.39 3.35-2.47 6.41-1.78 13.61 9.96 1.58 16.57-7.1 25.44-11.64-6.61-8.28-12.72-13.61-22.88-12.62z" style="fill:#ffe000;stroke-miterlimit:4;stroke-width:0.99;stroke:#000"/>
  <path id="path5908" d="m256.69 75.45c4.54-4.04 8.48-7.79 19.03-9.47 8.68-1.38 11.83-9.17 22.78-10.36 2.66 1.68 3.94 3.45 2.86 5.52-5.92 1.87-14.3 3.25-15.48 7.1-1.28 4.14-3.06 5.72-5.42 8.88" style="fill:#ffe000;stroke-linecap:round;stroke-linejoin:round;stroke-miterlimit:4;stroke-width:0.99;stroke:#000"/>
  <path id="path5910" d="m98.26 127.86c4.73 1.18 7.71 2.43 9.88 4.7 1.68 1.78 6.26 0.22 4.98-2.44-1.78-3.94-10.92-6.3-14.96-2.16z" style="fill:#ffe000;stroke-linejoin:round;stroke-miterlimit:4;stroke-width:0.99;stroke:#000"/>
  <path id="path5912" d="m165.76 177.13-35.01-18.24c-3.94-2.07-5.13-6.71-4.54-11.05 0.89-6.41-1.68-9.66-4.04-12.72-1.87-2.37-9.27-9.07-13.51-4.24-3.35 3.75-1.97 5.52-2.47 9.47-3.75 8.09 4.24 10.85-0.3 13.71-5.03 2.27-0.79 21.11 2.96 23.77 37.67 25.44 71.5 36 94.97 54.24-9.76-20.12-13.02-41.72-37.87-54.83z" style="fill:#ffe000;stroke-miterlimit:4;stroke-width:0.99;stroke:#000"/>
  <path id="path5914" d="m219.51 105.04c-1.58-2.17-4.93 0.1-4.34 2.86 2.07 11.34 19.72 3.63 25.84 12.9l0.3-10.14c-9.57-6.02-16.17 2.37-21.8-5.62z" style="fill:#e00e00;stroke-miterlimit:4;stroke-width:0.99;stroke:#000"/>
  <path id="path5916" d="m111.46 280.31c2.49-2.68 7.34-4.89 13.78-0.7 3.77 2.41-2.58 6.52-4.58 4.54-0.93-0.85-3.46-3.53-9.18-3.74z" style="fill:#ffe000;stroke-linejoin:round;stroke-miterlimit:4;stroke-width:0.99;stroke:#000"/>
  <path id="path5918" d="m232.73 331.38c5.82-20.91 15.98-43.39 15.38-65.98-15.68 2.76-32.13 1.06-47.34 7.59-9.38 4.03-10.09 5.9-15.88 16.67-7 11.54-17.26 38.56-19.63 37.38-5.33-2.56-14.99-11.05-16.96-15.68-4.64-11.05-2.66-30.97-22.29-31.46-3.94-0.1-7.4 0.39-6.31 9.86 0.59 4.73 1.38 9.37 0.59 14.3-0.69 4.44 1.08 8.97 2.86 11.44 11.54 17.16 24.95 31.36 40.73 43.2 2.96 2.27 6.9 2.66 9.47-0.1 10.26-11.14 33.14-31.26 59.37-27.32z" style="fill:#ffe000;stroke-miterlimit:4;stroke-width:0.99;stroke:#000"/>
  <path id="path5920" d="m107.97 52.47c4.46 1.38 6.4 3.69 8.28 5.76 1.58 1.48 4.34-0.26 4.14-2.63-0.3-3.65-9.69-5.76-12.43-3.13z" style="fill:#ffe000;stroke-miterlimit:4;stroke-width:0.99;stroke:#000"/>
  <path id="path5922" d="m134.5 87.58c-0.39 7.2 37.57 39.65 55.82 57.89 4.54 4.44 17.36-8.97 40.73-6.9l11.05-4.54-12.33-0.99c-9.66 0-9.7-14.61-5.46-14.61 3.45 0 4.93 2.86 9.47 1.78 1.58-0.39 6.84-0.77 7.43-10.14 0.2-3.35-3.25-5.82-9.96-5.82-4.64-0.1-7.2-2.58-7-5.64l0.19-5.63c-1.08-1.78-0.89-2.93-0.39-4.71 0.99-3.65 7.1-3.25 10.85-6.31 3.06-2.47 6.51-6.51 11.74-7.59 7.1-1.48 22.09-0.2 22.09-0.2 9.47 3.45 23.47 8.78 28.4 24.85 4.64 15.09 0.69 24.56-3.25 37.38-5.23 17.16-17.36 33.43-17.55 45.76-0.39 25.44 9.47 54.64 28.4 77.32 18.94 22.78 7.99 43.29 30.38 52.86 4.93 2.07 8.09-0.89 11.93-3.25l7.99 15.38c-14.5 11.83-33.56 8.58-41.06-5.62-0.99-1.87-0.32-5.47 0.13-9.57-1.28 8.09-0.2 9.17-8.58 16.27-14 11.83-27.91 27.52-31.16 44.58-2.96 15.58 0.1 24.56 8.78 39.45 4.54 7.79 2.17 14.3-0.69 20.61-5.23 11.74-9.27 21.2-16.27 30.67-3.94 5.33-7.5 12.62-18.84 13.12-10.26 0.39-10.45-0.79-14.1-2.76-4.54-2.37-10.06 1.18-14.4-0.3-5.13-1.78-5.72-0.2-8.09-3.16-3.85-4.73-1.08-10.06 2.56-14.5 2.47-2.96 3.75-4.83 11.05-5.62 4.93-0.59 14 0.39 18.64-2.47 4.64-2.96 13.75-22.77 11.34-26.53-12.25-19.08-26.13-35.41-35.41-56.51-1.58-3.45-4.24-19.53-0.2-29.19 7.89-18.74 16.47-37.18 26.83-54.83 1.68-2.76-0.39-5.82-3.94-9.27-22.58-22.78-35.9-21.8-45.46-43.59L182.92 195.28c-4.14-9.47-16.57-8.68-18.64-12.03-17.95-29.09-36.29-58.09-51.78-87.28-1.18-2.27-4.14-10.45 0.1-14.89 1.08-4.83-1.28-10.06 1.97-13.02 1.58-1.38 1.97-2.76 0.89-5.13-1.78-3.65 1.18-9.17 6.31-8.58 6.9 0.89 8.68 4.54 12.03 9.47 3.55 6.02 0.99 15.19 0.79 23.67z" style="fill:#ffe000;stroke-linejoin:round;stroke-miterlimit:4;stroke-width:0.99;stroke:#000"/>
  <path id="path5924" d="m265.27 78.71c5.13-3.06 8.28-4.83 21.8-6.61 6.51-0.89 11.64-7 20.71-9.47l6.82 6.74c0 0-20.92-0.03-21.71 7.96-0.89 10.06-4.24 18.94-4.24 18.94" style="fill:#ffe000;stroke-linecap:round;stroke-linejoin:round;stroke-miterlimit:4;stroke-width:0.99;stroke:#000"/>
  <path id="path5926" d="m343.4 311.46c5.48 0.23 8.1 9.05 7.41 15.86 7.2-3.45 9.54-9 9.33-16.67-1.38 1.78-3.43 2.58-4.81 2.87 1.08-2.66 2-5.75 1.11-8.91-1.28 2.56-3.2 4.29-5.37 5.17 0.89-3.16 0.38-5.1-0.21-8.25-2.27 4.65-5.1 8.67-7.5 9.9z" style="fill:#000;stroke-width:0.99;stroke:#000"/>
  <path id="path5928" d="m297.62 55.73c2.47 1.78 3.16 3.55 3.55 5.52 1.87-0.3 3.55-0.99 5.72-1.48-1.38-1.58-2.86-1.78-4.34-2.37l2.86-2.17c-2.47-0.49-5.33-0.2-7.89 0.49z" style="fill:#000;stroke-width:0.99;stroke:#000"/>
  <path id="path5930" d="m307.58 62.73c2.56-0.79 3.94-0.49 6.61-0.2l-2.07 1.87 5.52 0.39c-1.28 0.99-1.87 1.68-2.66 2.37 1.78 0.59 3.45 1.28 4.64 2.07l-8.58 0.3c0.79-2.07-1.38-4.44-3.35-6.8z" style="fill:#000;stroke-width:0.99;stroke:#000"/>
  <path id="path5932" d="m243.08 117.76c-1.87 14.3-9.27 21.2-17.75 27.81 7-0.79 13.91-4.44 17.95-10.65 0.1 3.94-2.66 6.9-5.42 9.86 5.13-1.28 12.62-5.72 14.5-13.81 0.49 3.94-1.48 7.69-2.86 9.86 4.93-1.48 11.54-8.88 10.75-16.17" style="fill:#ffe000;stroke-linecap:round;stroke-linejoin:round;stroke-miterlimit:4;stroke-width:0.99;stroke:#000"/>
  <path id="path5934" d="m116.67 79.63c-0.3-1.87-2.69-3.6-4.17-4.28-2.36-1.09-6.45-0.72-8.32 0.17 3.64 1.96 6.07 4.25 7.05 5.79 1.58 1.43 5.64 0.68 5.44-1.68z" style="fill:#ffe000;stroke-miterlimit:4;stroke-width:0.99;stroke:#000"/>
  <path id="path5936" d="m105.5 62.24c3.58 2.17 6.42 4.16 8.79 6.63 1.48 1.58 4.34-1.3 3.55-3.47-1.18-3.45-8.79-5.23-12.34-3.15z" style="fill:#ffe000;stroke-miterlimit:4;stroke-width:0.99;stroke:#000"/>
  <path id="path5938" d="m240.96 83.53c1.56-0.2 7.93-0.83 9-0.78 0.58 0.02-0.44 0.27-2.46 0.71-1.75 0.38-0.17 2.82-3.67 3.01-2.09 0.11-3.12-2.56-2.33-2.17-1.38-0.3-0.93-0.71-0.54-0.76z" style="fill:none;stroke-miterlimit:4;stroke-width:0.99;stroke:#000"/>
  <path id="path5940" d="m282.33 75.95c-9.27 4.73-9.27 8.58-7.2 11.64" style="fill:none;stroke-linecap:round;stroke-miterlimit:4;stroke-width:0.99;stroke:#000"/>
  <path id="path5942" d="m96.84 149.61c6.02 2.27 5.91 2.28 8.47 4.45 3.85 2.96 6.75-2.45 1.39-5.78-4.32-2.69-7.42-1.09-9.92 1.27z" style="fill:#ffe000;stroke-linejoin:round;stroke-miterlimit:4;stroke-width:0.99;stroke:#000"/>
  <path id="path5944" d="m96.82 137.99c3.94 1.08 6.12 1.66 8.79 3.34 1.68 1.08 6.61 1.13 5.72-1.53-0.39-1.38-2.45-3.57-6.2-4.26-3.16-0.59-6.63 0.18-8.31 2.45z" style="fill:#ffe000;stroke-linejoin:round;stroke-miterlimit:4;stroke-width:0.99;stroke:#000"/>
  <path id="path5946" d="m118.92 146.17c-1.28-3.85-5.23-6.02-8.97-5.82-4.78 0.2-4.79 2.52-4.76 4.89" style="fill:#ffe000;stroke-linecap:round;stroke-linejoin:round;stroke-miterlimit:4;stroke-width:0.99;stroke:#000"/>
  <path id="path5948" d="m110.75 291.5c2.47-2.76 7.4-5.01 13.02-2.55 3.94 1.68 0.58 6.04-2.08 5.15-3.79-1.87-7.33-2.43-10.93-2.6z" style="fill:#ffe000;stroke-miterlimit:4;stroke-width:0.99;stroke:#000"/>
  <path id="path5950" d="m112.18 305.44c3.5-3.5 8.83-4.21 13.69-1.38 3.7 2.15-1.23 5.87-3.62 4.36-2.19-1.38-5.12-2.09-10.07-2.98z" style="fill:#ffe000;stroke-miterlimit:4;stroke-width:0.99;stroke:#000"/>
  <path id="path5952" d="m228.52 478.52c2.96-5.92 6.36-7.07 6.55-8.84 0.3-2.17 0.68-3.65 0.09-5.82-2.96 1.18-3.1 1.53-5.17 4-2.87 3.44-3.45 7.7-1.48 10.66z" style="fill:#ffe000;stroke-linejoin:round;stroke-miterlimit:4;stroke-width:0.99;stroke:#000"/>
  <path id="path5954" d="m213.89 477.93c-2.76-3.75-0.93-7.1 0.45-9.47 0.99-1.78 2.86-3.16 6.41-4.83 1.08-0.49 1.43 5.03-0.55 6.61-3.85 3.06-4.64 4.83-6.31 7.69z" style="fill:#ffe000;stroke-linejoin:round;stroke-miterlimit:4;stroke-width:0.99;stroke:#000"/>
  <path id="path5956" d="m203.29 474.51c-0.44-5.22 0.95-9.46 5.74-13.39-0.63 3.34 0.45 5.01 1.69 6.85-3.06 1.48-5.76 4.37-7.43 6.54z" style="fill:#ffe000;stroke-linejoin:round;stroke-miterlimit:4;stroke-width:0.99;stroke:#000"/>
  <path id="path5958" d="m224.94 455.94c-5.72 4.44-8.57 15.88-2.36 15.29l5.68-1.05" style="fill:#ffe100;stroke-linecap:round;stroke-miterlimit:4;stroke-width:0.99;stroke:#000"/>
  <path id="path5960" d="m238.55 458.5c-3.45 3.94-6.11 8.28-4.83 13.02 0.89 3.45 7.34 2.29 10.2 2.49" style="fill:#ffe100;stroke-linecap:round;stroke-miterlimit:4;stroke-width:0.99;stroke:#000"/>
  <path id="path5962" d="m120.62 299.71c-0.05-1.85-0.52-4.98-0.03-6.26 1.68-4.24 11.05-2.11 14.11 1.34" style="fill:#ffe100;stroke-linecap:round;stroke-miterlimit:4;stroke-width:0.99;stroke:#000"/>
  <path id="path5964" d="m122.92 315.1c-0.89-1.48-2.32-4.24-2.03-6.21 0.59-3.94 10.45-5.13 14.79-0.59" style="fill:#ffe100;stroke-linecap:round;stroke-miterlimit:4;stroke-width:0.99;stroke:#000"/>
  <path id="path5966" d="m127 72.5c-2.37-1.97-5.23-6.02-9.76-5.33-3.45 0.49-4.54 2.86-4.44 6.21" style="fill:#ffe000;stroke-linecap:round;stroke-miterlimit:4;stroke-width:0.99;stroke:#000"/>
  <path id="path5968" d="m121.97 84.43c-0.89-2.86-3.55-3.75-7-3.55-4.83 0.2-4.44 3.85-4.54 6.02" style="fill:#ffe000;stroke-linecap:round;stroke-miterlimit:4;stroke-width:0.99;stroke:#000"/>
  <path id="path5970" d="m118.62 158.99c-1.08-4.14-5.4-7.59-12.21-5.92-3.75 0.89-2.76 9.47-2.76 9.47" style="fill:#ffe000;stroke-linecap:round;stroke-linejoin:round;stroke-miterlimit:4;stroke-width:0.99;stroke:#000"/>
  <path id="path5972" d="m229.4 91.13-4.96 1.86" style="fill:none;stroke-linecap:round;stroke-width:0.99;stroke:#000"/>
  <path id="path5974" d="m242.02 83.45c-0.11 1.57 0.19 2.62 1.6 2.5 1.87-0.16 2.15-1.16 1.87-2.96l3.3-0.6c-2.83 1.22-1.4 4.76-4.98 4.64-2.82-0.09-3.03-2.82-3.17-3.57z" fill="#000"/>
</svg>
