<?xml version="1.0" encoding="UTF-8" standalone="no"?>
<svg
   xmlns:dc="http://purl.org/dc/elements/1.1/"
   xmlns:cc="http://creativecommons.org/ns#"
   xmlns:rdf="http://www.w3.org/1999/02/22-rdf-syntax-ns#"
   xmlns:svg="http://www.w3.org/2000/svg"
   xmlns="http://www.w3.org/2000/svg"
   xml:space="preserve"
   enable-background="new 30.5 31.5 412 533"
   viewBox="30.5 31.5 400 500"
   height="500"
   width="400"
   y="0"
   x="0"
   version="1.1"
   id="svg2"><metadata
     id="metadata4"><rdf:RDF><cc:Work
         rdf:about=""><dc:format>
          
          
          
          
          
          image/svg+xml
        
        
        
        
        
        </dc:format><dc:type
           rdf:resource="http://purl.org/dc/dcmitype/StillImage" /><dc:title></dc:title></cc:Work></rdf:RDF></metadata><defs
     id="defs6" /><path
     d="M 230.67,530.86 C 156.35,476.94 105.41,408.84 74.93,322.7 47.29,244.6 36.2,149.95 41.02,33.35 l 0.02,-0.46 379.82,0 0.02,0.46 c 4.81,116.6 -6.28,211.24 -33.91,289.35 -30.48,86.14 -81.42,154.24 -155.74,208.16 l -0.28,0.2 -0.28,-0.2 z"
     id="path8"
     style="fill:#e00e00;fill-opacity:1" /><path
     d="M 419.96,33.21 C 429.03,252.66 383.7,419.16 230.5,530.31 77.31,419.16 31.99,252.66 41.06,33.21 l 189.45,0 189.45,0 m 0.92,-0.95 -0.92,0 -189.45,0 -189.45,0 -0.92,0 -0.04,0.92 c -4.82,116.66 6.28,211.36 33.93,289.52 30.51,86.24 81.51,154.41 155.91,208.39 l 0.56,0.41 0.56,-0.41 C 305.46,477.11 356.46,408.94 386.97,322.7 414.62,244.54 425.72,149.84 420.9,33.18 l -0.04,-0.92 0,0 z"
     id="path10" /><path
     style="fill:#ffe000;fill-opacity:1;stroke:#000000;stroke-width:1;stroke-linecap:round;stroke-linejoin:round;stroke-opacity:1;stroke-miterlimit:4;stroke-dasharray:none"
     id="path3749"
     d="m 151.79563,161.6406 c -2.27847,4.44349 -4.22796,9.72048 -4.77457,13.54542 -11.80394,-7.83003 -23.7945,-15.22461 -36.487,-20.98132 -4.98665,-2.26171 -13.2146,2.89 -14.26962,10.32357 -2.89065,20.36719 -3.36955,28.07565 -10.42024,49.83478 -1.95249,6.02558 2.94691,20.78288 5.42692,33.19529 0.55299,2.7677 11.33579,-13.17399 9.92717,-16.08972 -3.1156,-6.44897 -8.34135,-11.21198 0.59875,-14.65839 1.87632,-0.72332 0.85749,-6.1272 -0.49157,-9.21645 -2.86974,-6.57155 0.0291,-20.60278 7.09905,-33.44699 2.1438,-3.89473 14.53054,9.71962 21.51438,17.11392 -5.10361,-1.0072 -9.11768,-1.59437 -14.41502,-4.14457 -5.05574,-2.4339 -10.60817,2.8449 -9.27739,7.25503 4.08391,13.53388 8.78824,28.6372 8.96352,43.55661 0.11989,10.20493 7.39962,21.73903 13.02295,30.26609 2.00303,3.03736 5.28702,-17.43549 2.95699,-18.92483 -3.53087,-2.2569 -7.57725,-5.28102 -5.68751,-7.26714 3.10964,-3.26824 4.02862,-3.42406 3.15891,-5.71912 -2.1646,-5.71213 -9.41462,-18.56666 -5.12549,-25.42544 1.29121,-2.06477 5.70135,6.20746 8.25819,9.58645 5.66138,7.48183 11.20636,14.75646 22.24139,14.47118 1.25643,-0.0325 2.27817,1.71024 2.97195,2.51065 12.00601,13.85132 24.59518,27.89503 41.56038,38.93243 4.48798,2.91984 13.8576,6.7429 14.46681,9.41999 3.93936,17.31073 11.85981,25.12089 21.46373,34.5347 11.69483,11.46333 25.56984,17.13552 32.61279,35.70725 2.75546,7.26593 4.79632,12.80511 6.02724,25.63481 0.34058,3.54987 -1.9784,8.83465 0.34415,13.61306 3.8046,7.82758 8.83519,17.23883 14.07816,26.86797 2.94541,-3.89956 3.94511,-14.9852 3.94267,-23.52464 -10e-4,-5.18653 -10.83549,-7.3241 -8.8053,-9.33098 2.56444,-2.535 5.39048,-4.66571 3.86963,-7.35487 -14.55227,-25.73116 -4.45222,-27.19267 -9.58958,-41.76672 -1.6936,-4.80452 -8.9734,-12.06575 -10.92186,-21.74413 7.98398,9.69508 28.25074,16.15423 32.04622,48.10337 0.53232,4.48093 -2.34632,13.13206 -0.87008,15.74338 l 11.41332,20.18906 c 2.04177,3.61169 7.54417,-13.27584 4.96085,-17.25886 -1.19401,-1.84093 -6.15499,-5.36393 -4.90154,-6.82446 3.32665,-3.87624 4.00424,-5.59381 3.06166,-7.30092 -14.78102,-26.77002 -8.17606,-37.83368 -13.76888,-47.2874 -4.29286,-7.25635 -13.47116,-9.57494 -16.39002,-20.95975 -1.53096,-5.97138 -3.21721,-17.79935 0.2386,-17.95127 l 5.53664,-0.2434 c 1.87372,-0.0824 4.00231,-3.12817 2.62847,-3.87694 -15.38785,-8.38668 -8.76141,-22.09839 -28.10241,-36.9466 -17.76673,-13.63963 -25.25477,-21.39246 -32.55219,-30.2736 -7.73189,-9.4099 -9.54241,-16.47498 -14.46289,-30.55043 -4.89948,-14.01537 2.9587,-33.10902 -0.81057,-48.37592 l 1.25401,-1.77721 c 0,0 3.27288,5.76807 8.22054,7.4794 2.93807,-4.23709 1.94999,-9.9673 1.26865,-16.24394 8.38416,12.95799 15.16553,15.30011 27.68081,25.0289 9.66181,7.51063 15.84577,9.63785 16.50322,12.62733 1.64634,7.48596 4.72134,11.63843 8.35266,17.0897 2.4578,3.68961 8.24816,0.40213 7.53533,-1.77098 -1.283,-3.91129 -1.85488,-5.23213 -3.19103,-9.1514 -0.84585,-2.48111 5.93564,0.057 10.11375,0.72749 4.23733,0.67997 9.92927,-0.55097 10.22736,1.49679 1.15911,7.96266 6.30825,12.96234 12.55088,17.37935 3.39153,2.3997 7.59503,-2.63264 5.72896,-5.38357 -3.16458,-4.66516 -6.49271,-6.25195 -8.17243,-11.75972 -0.8385,-2.74945 8.45142,-3.62325 12.65072,1.13175 7.51362,8.50791 17.49156,14.80522 27.79803,14.17162 3.54957,-0.21821 5.60571,-5.9289 1.54074,-7.35233 -6.44398,-2.2565 -14.81579,-3.89738 -20.92521,-11.78783 -1.17762,-1.52093 4.67333,-7.0642 6.60749,-5.09519 2.34002,2.38218 3.96608,4.60905 8.07694,5.81162 5.59929,1.63799 9.12062,-3.79678 5.22097,-6.97975 -2.54365,-2.07613 -7.4975,-4.32412 -5.79472,-6.18417 l 4.82117,-5.26649 c 2.066,-2.25682 -0.75389,-7.0362 -3.61413,-4.87727 -14.30103,10.79456 -30.35937,17.11228 -48.069,16.52282 -18.15097,-0.60414 -35.04071,-7.89289 -46.26773,-24.0697 -1.29632,-1.86784 0.38796,-2.13456 3.05829,-1.98472 19.2264,1.07886 29.68018,-1.03006 45.34886,-9.94832 7.18619,2.44101 20.89799,3.44767 28.80329,-5.3176 4.30561,-4.77399 0.10893,-8.3398 -2.18546,-6.61979 -5.88004,4.40804 -11.23587,6.62828 -17.81255,5.7558 11.71887,-18.386916 11.16927,-15.59646 16.9047,-18.265174 3.34114,-1.554647 2.8267,-9.409852 -1.20561,-8.027095 -2.61314,0.896099 -8.50772,3.298511 -8.23733,0.589258 0.33944,-3.401 0.73004,-7.959029 -0.5962,-12.745414 -0.60252,-2.174497 -2.01845,-2.669293 -2.2364,0.124083 -1.09328,14.012759 -6.76431,25.932922 -17.25602,33.712552 -10.82983,8.03034 -26.07295,12.90993 -42.3246,11.55771 -16.65781,-1.38602 -23.91575,-20.81459 -23.18194,-27.827064 0.54396,-5.198213 2.70425,-9.640546 4.32891,-14.168045 1.6767,-4.672534 4.49925,-10.17848 11.41583,-15.160573 2.04276,-1.471422 -0.87882,-8.398775 -4.05749,-6.306689 -3.64427,1.457499 -5.60635,3.475727 -8.08246,5.322613 -2.45296,1.829617 -4.52578,-4.415786 -6.36519,-5.981313 -1.69051,-1.438794 -7.18326,0.652478 -3.63594,6.39548 4.09977,6.637392 3.84465,13.536236 1.00185,18.659782 -2.1992,3.963577 -5.05924,7.678241 -5.44492,5.131222 -0.27982,-1.847905 -0.004,-4.95166 -0.13243,-8.347723 -0.13795,-3.65129 -1.03715,-8.40813 -1.56579,-12.089569 -1.15095,-8.015278 -4.84008,-13.087653 -7.97507,-11.9469 -2.84159,1.033992 -3.44253,3.444767 -5.43636,2.973751 -6.60824,-1.561109 -7.35497,0.979392 -6.57203,3.574418 0.89516,2.966998 6.01085,7.025733 9.65676,12.402923 4.33837,6.398464 6.78538,12.400926 4.36679,12.180361 -2.92388,-0.266645 -8.09924,-3.814231 -15.60074,-8.375298 -6.58132,-4.001582 -13.59722,-9.032122 -18.70566,-14.108501 -5.45655,-5.422305 -14.67486,4.249184 -11.38388,8.595999 l 6.27795,5.546451 c 0.93937,1.368782 0.51139,6.446455 -2.08394,5.204064 l -6.84587,-3.323142 c -2.6624,-1.29239 -3.75582,6.884265 -1.80877,8.893733 2.76909,2.857825 8.67221,5.138616 8.92645,10.10183 0.47481,9.2685 4.87452,6.51465 4.14575,13.3406 -0.5561,5.20869 -4.38079,9.84316 -9.52719,11.28211 -7.38873,2.06592 -16.16183,4.01169 -19.06428,12.1001 3.30613,-1.54781 6.15211,-3.47641 10.11255,-2.37422 -0.87908,5.79268 -8.1211,7.09663 -13.17425,10.76727 -2.11066,1.5332 -3.35321,4.03667 -4.57531,7.03942 2.27934,-0.97888 6.11654,-2.36956 9.35007,-2.19225 -2.88837,2.65114 -7.82476,6.71066 -8.21815,11.70692 1.9941,-1.53845 5.85184,-2.87934 9.20804,-2.57642 z" /><path
     style="fill:none;stroke:#000000;stroke-width:1;stroke-linecap:round;stroke-linejoin:round;stroke-miterlimit:4;stroke-dasharray:none;stroke-opacity:1"
     id="path3751"
     d="m 175.67057,70.455422 c -3.05473,2.402845 2.18665,7.126388 4.50712,5.111133" /><path
     style="fill:none;stroke:#000000;stroke-width:1;stroke-linecap:round;stroke-linejoin:round;stroke-miterlimit:4;stroke-dasharray:none;stroke-opacity:1"
     id="path3753"
     d="m 200.51248,91.641145 c -1.42748,6.305585 2.09098,9.722425 7.44053,10.095175 1.28468,-6.173046 -1.83995,-9.58305 -7.44053,-10.095175 z" /><path
     style="fill:none;stroke:#000000;stroke-width:1;stroke-linecap:round;stroke-linejoin:round;stroke-miterlimit:4;stroke-dasharray:none;stroke-opacity:1"
     id="path3755"
     d="m 201.39929,98.462641 c -1.34481,-1.785711 3.27356,-5.699826 4.98428,-4.121477 2.37396,2.190278 -2.79006,7.035076 -4.98428,4.121477 z" /><path
     id="path4461"
     d="m 224.80659,124.059 c -1.22735,-3.60313 -2.85014,-6.81082 -4.97294,-9.5185"
     style="fill:none;fill-rule:evenodd;stroke:#000000;stroke-width:1px;stroke-linecap:round;stroke-linejoin:miter;stroke-opacity:1" /><path
     id="path4463"
     d="m 215.3174,132.82354 c -2.90807,-4.55947 -4.18215,-9.28234 -4.10509,-14.14032"
     style="fill:none;fill-rule:evenodd;stroke:#000000;stroke-width:1px;stroke-linecap:round;stroke-linejoin:miter;stroke-opacity:1" /><path
     id="path4465"
     d="m 266.03621,318.41449 c -0.66607,-1.32318 -1.39999,-2.51133 -2.20012,-3.56772"
     style="fill:none;fill-rule:evenodd;stroke:#000000;stroke-width:1px;stroke-linecap:round;stroke-linejoin:miter;stroke-opacity:1" /></svg>