<svg xmlns:dc="http://purl.org/dc/elements/1.1/" xmlns:cc="http://creativecommons.org/ns#" xmlns:rdf="http://www.w3.org/1999/02/22-rdf-syntax-ns#" xmlns:svg="http://www.w3.org/2000/svg" xmlns="http://www.w3.org/2000/svg" xml:space="preserve" enable-background="new 30.5 31.5 412 533" viewBox="30.5 31.5 400 500" height="500" width="400" y="0" x="0" version="1.1" id="svg2">
  <metadata id="metadata4">
    <rdf:RDF>
      <cc:Work rdf:about="">
        <dc:format>
          image/svg+xml
        </dc:format>
        <dc:type rdf:resource="http://purl.org/dc/dcmitype/StillImage"/>
      </cc:Work>
    </rdf:RDF>
  </metadata>
  <defs id="defs6"/>
  <path d="M230.55 531.13C304.87 477.21 355.81 409.11 386.29 322.97 413.93 244.87 425.02 150.22 420.2 33.62l-0.02-0.46-379.82 0-0.02 0.46c-4.81 116.6 6.28 211.24 33.91 289.35 30.48 86.14 81.42 154.24 155.74 208.16l0.28 0.2 0.28-0.2z" id="path8" fill="#32ac60"/>
  <path d="m41.04 33.21c-9.07 219.45 36.25 385.95 189.45 497.1 84.47-61.29 136.15-139.41 163.99-233.97 2.09-7.09 4.04-14.27 5.87-21.54 11.45-45.69 17.77-95.02 19.88-147.94 1.2-30.06 1.05-61.28-0.29-93.65l-189.45 0-189.45 0m-0.92-0.95 0.92 0 189.45 0 189.45 0 0.92 0 0.04 0.92c4.82 116.66-6.28 211.36-33.93 289.52-30.51 86.24-81.51 154.41-155.91 208.39l-0.56 0.41-0.56-0.41C155.54 477.11 104.54 408.94 74.03 322.7 46.38 244.54 35.28 149.84 40.1 33.18l0.04-0.92 0 0z" id="path10"/>
  <path id="path4346" d="m87.72 218.07c-1.19 2.68-1.39 6.36 1.29 6.26 0.89-0.1 0.1-0.89 0.3 0.5 0.1 0.89 0.99 3.48 4.37 2.98 1.89-0.3 0.8-1.19 1.59 0.2 1.49 2.68 5.86 0.89 7.95-0.6 5.17-3.68 4.08-3.78 8.75-4.27 9.05-0.8 15.41 2.98 18.69 6.66-7.16-0.2-6.06-1.09-14.71-0.2-8.25 0.8-10.74 2.78-12.72 5.77-2.19 3.18-2.98 7.95 0.3 8.85 1.39 0.4 0.8 1.99 2.68 2.78 2.88 1.09 4.08-1.09 5.67 0.3 2.09 1.99 5.96 0.8 7.75-0.7 4.08-3.38 3.78-5.57 10.64-2.88 19.68 7.65 32.01 16.5 56.06 9.24 3.08 6.26 8.95 13.12 15.31 20.48-31.61 11.73-23.36 53.78 1.99 78.53-10.64 0.4-24.25-2.49-32.9 0.5-12.43 4.37-11.63 14.12-6.76 15.11 2.78 0.6 0.5 4.18 8.05 3.88 3.78-0.2 0.6 1.89 6.76 2.29 1.69 0.1 5.17-0.4 5.27-2.78 0.1-3.38 2.19-5.67 5.17-5.47l39.17 1.69c-0.1 0 3.88 3.48 8.45 6.76-6.06-0.1-35.89-0.1-42.64 0.5-12.23 1.09-16 11.53-9.24 16.9 1.29 0.99 1.89 3.98 7.65 4.87 2.88 2.88 1.99 3.08 7.06 3.78 8.95 1.19 4.97-5.86 7.36-8.05 1.69-1.39 12.53-2.49 15.11-2.58 17-0.89 33.7-1.19 54.57-3.08 6.36-0.6 7.65-8.75 8.35-11.93 7.26-0.89 15.41-3.78 21.67-6.46 19.19-8.15 33.6-23.76 42.94-42.55 9.94-19.98 13.92-44.33 14.02-60.84 0.6-70.18-52.78-93.44-56.16-120.68-2.78-22.96 37.67-31.51 29.92 11.93 8.75-2.68 12.82-9.05 14.61-16l4.87 7.75c5.37-11.73 5.37-24.65-4.37-34l9.74 3.78c-3.98-18.29-15.61-27.83-25.15-32.11 2.09-1.09 6.86-2.78 10.44-3.58-64.41-39.46-127.74 8.25-121.47 54.28 3.58 26.34 19.78 44.24 37.08 60.14 18.59 17.1 16.8 16.2 16.8 16.2-12.53-2.98-41.15-10.74-56.16-26.44-30.22-31.51-23.16-53.28-14.91-78.13-2.39-0.99-5.07 0-6.76 0.89 3.58-3.18 8.25-6.06 10.74-9.54-1.79-1.69-4.77-2.09-6.36-1.89 1.49-3.88 3.88-6.26 6.06-8.95-28.83 8.05-26.64 31.21-38.37 36.08-22.76 9.54-41.25 24.85-52.59 44.14-1.39 2.39 0.1 5.07 1.19 6.06 3.88 3.68 2.58 9.84 9.24 12.82 12.53 5.57 19.38 9.44 20.28 18.69-28.63 4.97-40.86 4.18-50 4.67-7.95 0.4-12.43 2.68-14.51 7.26z" style="fill:#fff;stroke-linejoin:round;stroke-miterlimit:4;stroke-width:0.99;stroke:#000"/>
  <path id="path4348" d="m155.82 159.22c0 2.19-1.99 4.27-4.27 4.27-2.19 0-4.27-1.99-4.27-4.27 0-2.19 1.99-4.27 4.27-4.27 2.19 0 4.27 1.99 4.27 4.27z" fill="#000"/>
  <path id="path4350" d="m151.95 203.63c5.45 19.95-7.87 27.36-23.38 26.17" style="fill:none;stroke-linecap:round;stroke-miterlimit:4;stroke-width:0.99;stroke:#000"/>
  <path id="path4352" d="m279.15 211.57c44.83 30.82 62.66 80.16 38.7 130.56" style="fill:none;stroke-linecap:round;stroke-miterlimit:4;stroke-width:0.99;stroke:#000"/>
  <path id="path4354" d="m230.47 369.07c-18.29-17.2-54.08-60.74-17.69-94.53" style="fill:none;stroke-linecap:round;stroke-miterlimit:4;stroke-width:0.99;stroke:#000"/>
  <path id="path4356" d="m207.41 279.9-7.16-7.95" style="fill:none;stroke-linecap:round;stroke-miterlimit:4;stroke-width:0.99;stroke:#000"/>
  <path id="path4358" d="m193.79 249.09c-3.38 2.09-7.06 3.68-11.33 4.87" style="fill:none;stroke-linecap:round;stroke-miterlimit:4;stroke-width:0.99;stroke:#000"/>
  <path id="path4360" d="m89.81 226.14c-0.93-2.01 0.1-5.88 2.09-7.87" style="fill:none;stroke-linecap:round;stroke-miterlimit:4;stroke-width:0.99;stroke:#000"/>
  <path id="path4362" d="m96.67 221.15c-2.68 2.88-2.27 5.67-0.83 7.55" style="fill:none;stroke-linecap:round;stroke-miterlimit:4;stroke-width:0.99;stroke:#000"/>
  <path id="path4364" d="m106.91 237.26c-1.99 1.79-3.1 6.38-2.21 8.17" style="fill:none;stroke-linecap:round;stroke-miterlimit:4;stroke-width:0.99;stroke:#000"/>
  <path id="path4366" d="m112.18 239.74c-1.49 2.58-2.07 5.79-0.38 7.48" style="fill:none;stroke-linecap:round;stroke-miterlimit:4;stroke-width:0.99;stroke:#000"/>
  <path id="path4368" d="m168.14 360.12c-2.68 0.99-4.47 6.96-1.99 9.84" style="fill:none;stroke-linecap:round;stroke-miterlimit:4;stroke-width:0.99;stroke:#000"/>
  <path id="path4370" d="m174.8 363.8c-2.58 2.09-2.49 5.96-0.6 8.35" style="fill:none;stroke-linecap:round;stroke-miterlimit:4;stroke-width:0.99;stroke:#000"/>
  <path id="path4372" d="m189.71 382.89c-4.57 1.89-5.47 7.55-3.48 9.94" style="fill:none;stroke-linecap:round;stroke-miterlimit:4;stroke-width:0.99;stroke:#000"/>
  <path id="path4374" d="m194.68 387.96c-3.78 2.58-2.8 9.34 1.23 11.3" style="fill:none;stroke-linecap:round;stroke-miterlimit:4;stroke-width:0.99;stroke:#000"/>
</svg>
