<?xml version="1.0" encoding="UTF-8" standalone="no"?>
<svg
   xmlns:dc="http://purl.org/dc/elements/1.1/"
   xmlns:cc="http://creativecommons.org/ns#"
   xmlns:rdf="http://www.w3.org/1999/02/22-rdf-syntax-ns#"
   xmlns:svg="http://www.w3.org/2000/svg"
   xmlns="http://www.w3.org/2000/svg"
   id="svg2"
   height="500"
   width="400"
   version="1">
  <metadata
     id="metadata51">
    <rdf:RDF>
      <cc:Work
         rdf:about="">
        <dc:format>
          
          image/svg+xml
        
        </dc:format>
        <dc:type
           rdf:resource="http://purl.org/dc/dcmitype/StillImage" />
        <dc:title></dc:title>
      </cc:Work>
    </rdf:RDF>
  </metadata>
  <defs
     id="defs4" />
  <path
     style="fill:#0085ca;fill-opacity:1;fill-rule:nonzero"
     d="m 396.64,1.45 -393.73,0 0,301.05 0,0 0,0.09 c 0,108.73 88.14,196.86 196.86,196.86 108.72,0 196.87,-88.14 196.87,-196.86 l 0,-0.09 0,0 z"
     id="path2418" />
  <path
     style="fill:none;stroke:#000000"
     id="path4300"
     d="m 396.64,1.45 -393.73,0 0,301.05 0,0 c 0,0.03 0,0.06 0,0.09 0,108.73 88.14,196.86 196.86,196.86 108.72,0 196.87,-88.14 196.87,-196.86 0,-0.03 0,-0.06 0,-0.09 l 0,0 0,-301.05 z" />
  <path
     id="path4989"
     d="m 130.34798,266.73857 c -3.3982,2.56983 -5.80345,9.20303 -7.84862,11.51511 -2.63723,2.98137 -6.43581,6.37874 -8.88513,8.61712 -1.47627,1.34912 -0.80114,5.81852 0.59783,5.03698 l 14.72991,-8.22924 c 3.62115,-2.02303 17.78999,0.61147 25.3479,-0.0732 8.28664,-0.75076 28.44404,0.89928 39.71186,0.7424 12.04322,-0.16774 25.58096,-0.85243 34.28675,-3.5835 1.82226,-0.57166 9.60079,3.74228 11.99526,4.76883 8.67426,3.71891 15.83678,2.12496 23.70152,1.65361 1.72782,0.0353 0.83844,-1.6369 -1.85023,-2.56877 -2.44406,-0.84713 -0.76758,-3.10561 -2.60439,-3.37397 -2.00935,-0.29359 -6.50111,-0.84877 -5.8939,-3.09362 0.59387,-2.19566 -6.6298,4.05301 -9.66258,3.17105 -1.54638,-0.44969 -8.56972,-4.54547 -7.48648,-5.0664 4.7625,-2.29029 10.00449,-3.92298 10.00449,-3.92298 0.19348,0.25797 33.27206,10.75409 45.52027,16.00402 1.14065,-2.79346 0.14068,-9.56451 -2.415,-11.00322 1.56416,-2.28935 -3.83487,-10.18034 -6.6204,-11.10309 0.56689,-2.23139 -4.86445,-9.56442 -8.25779,-10.13643 0.45137,-2.17511 -4.48318,-6.8413 -7.29403,-6.37807 -0.33045,-2.4725 -2.94355,-4.73525 -4.57194,-4.13106 -1.92566,0.71447 -13.68275,7.15827 -18.64627,8.1075 -3.98686,0.76245 -12.79105,-2.22149 -17.61473,-4.01271 16.29594,-18.0761 34.03474,-36.46805 50.04638,-45.94767 31.60367,19.58551 63.57443,52.65745 103.37665,80.6741 1.77565,1.24989 2.57768,0.0946 1.62887,-1.27252 -15.42463,-32.53016 -49.87315,-70.43606 -81.42947,-95.40669 l -44.85907,-1.6592 c -17.10318,8.51226 -34.5343,21.29427 -57.75738,36.6216 -16.2696,-13.32408 -28.94793,-23.15841 -44.70513,-32.76056 -7.71297,-5.50927 -34.28321,-4.25296 -38.75639,-1.50179 -26.49949,16.2981 -88.68591,71.77941 -98.00189,89.39452 -1.33612,2.5264 -0.93412,3.30271 1.50908,1.85399 35.74341,-21.19446 118.91679,-73.25749 118.91679,-73.25749 14.43816,9.62503 22.62733,23.49598 37.12963,39.20169 l -3.40625,3.9221 c -19.61797,5.75789 -32.68622,11.71501 -39.93612,17.1976 z"
     style="fill:#ffffff;fill-rule:evenodd;stroke:#000000;stroke-width:1;stroke-linecap:round;stroke-linejoin:round;stroke-miterlimit:4;stroke-dasharray:none;stroke-opacity:1" />
  <path
     id="path4358"
     d="m 114.21206,291.90778 15.16144,-12.96564 3.73376,0.32184"
     style="fill:none;fill-rule:evenodd;stroke:#000000;stroke-width:1;stroke-linecap:round;stroke-linejoin:round;stroke-miterlimit:4;stroke-dasharray:none;stroke-opacity:1" />
  <path
     id="path4360"
     d="m 136.55925,274.02946 c 1.33219,-1.35178 3.86102,-1.77329 6.20797,-1.56594"
     style="fill:none;fill-rule:evenodd;stroke:#000000;stroke-width:1;stroke-linecap:round;stroke-linejoin:miter;stroke-miterlimit:4;stroke-dasharray:none;stroke-opacity:1" />
  <circle
     r="1.0827905"
     cy="274.02777"
     cx="139.53828"
     id="path4362"
     style="opacity:1;fill:#000000;fill-opacity:1;fill-rule:evenodd;stroke:#000000;stroke-width:1;stroke-linecap:round;stroke-linejoin:round;stroke-miterlimit:4;stroke-dasharray:none;stroke-opacity:1" />
  <path
     id="path4364"
     d="m 170.2841,249.54101 -8.23124,10.6345"
     style="fill:none;fill-rule:evenodd;stroke:#000000;stroke-width:1;stroke-linecap:round;stroke-linejoin:miter;stroke-miterlimit:4;stroke-dasharray:none;stroke-opacity:1" />
  <path
     id="path4366"
     d="m 173.69035,245.61891 c 7.9693,-7.64345 18.24426,-19.8982 23.90791,-22.93036"
     style="fill:none;fill-rule:evenodd;stroke:#000000;stroke-width:1;stroke-linecap:butt;stroke-linejoin:miter;stroke-miterlimit:4;stroke-dasharray:none;stroke-opacity:1" />
  <path
     id="path4368"
     d="m 176.68919,263.16253 c 18.27064,-23.02129 44.26116,-45.3809 76.46743,-67.20769 l 10.75324,0 12.7288,7.77642"
     style="fill:none;fill-rule:evenodd;stroke:#000000;stroke-width:1;stroke-linecap:round;stroke-linejoin:round;stroke-miterlimit:4;stroke-dasharray:none;stroke-opacity:1" />
  <path
     id="path4370"
     d="m 226.59228,249.67893 -11.66936,14.08098 -14.33766,5.22727 -14.33764,-5.22727"
     style="fill:none;fill-rule:evenodd;stroke:#000000;stroke-width:1;stroke-linecap:round;stroke-linejoin:round;stroke-miterlimit:4;stroke-dasharray:none;stroke-opacity:1" />
  <path
     id="path4372"
     d="m 255.39688,249.72097 c 11.48248,6.25898 13.60089,20.83323 10.75322,29.2727"
     style="fill:none;fill-rule:evenodd;stroke:#000000;stroke-width:1;stroke-linecap:butt;stroke-linejoin:miter;stroke-miterlimit:4;stroke-dasharray:none;stroke-opacity:1" />
  <path
     id="path4374"
     d="m 289.59744,277.33279 -22.25253,-4.4625"
     style="fill:none;fill-rule:evenodd;stroke:#000000;stroke-width:1;stroke-linecap:butt;stroke-linejoin:miter;stroke-miterlimit:4;stroke-dasharray:none;stroke-opacity:1" />
  <path
     id="path4376"
     d="m 282.97704,266.2297 -15.93083,0.36788"
     style="fill:none;fill-rule:evenodd;stroke:#000000;stroke-width:1;stroke-linecap:butt;stroke-linejoin:miter;stroke-miterlimit:4;stroke-dasharray:none;stroke-opacity:1" />
  <path
     id="path4378"
     d="m 274.71925,256.09327 -10.21201,3.63419"
     style="fill:none;fill-rule:evenodd;stroke:#000000;stroke-width:1;stroke-linecap:butt;stroke-linejoin:miter;stroke-miterlimit:4;stroke-dasharray:none;stroke-opacity:1" />
  <path
     id="path4380"
     d="m 267.42522,249.7152 -7.54784,3.8889"
     style="fill:none;fill-rule:evenodd;stroke:#000000;stroke-width:1;stroke-linecap:butt;stroke-linejoin:miter;stroke-miterlimit:4;stroke-dasharray:none;stroke-opacity:1" />
  <path
     id="path4382"
     d="m 20.31932,275.25989 c 28.65374,-29.40352 60.26031,-56.22334 95.28555,-80.05181 1.75508,-1.19401 6.05264,-0.87696 7.31819,0.14935 l 13.63766,11.05979"
     style="fill:none;fill-rule:evenodd;stroke:#000000;stroke-width:1;stroke-linecap:round;stroke-linejoin:miter;stroke-miterlimit:4;stroke-dasharray:none;stroke-opacity:1" />
  <path
     style="fill:#ffffff;fill-rule:evenodd;stroke:#000000;stroke-width:1;stroke-linecap:round;stroke-linejoin:round;stroke-miterlimit:4;stroke-dasharray:none;stroke-opacity:1"
     d="m 115.85105,149.88049 c -2.66503,3.01279 -6.50363,6.44596 -8.97877,8.70792 -1.49183,1.36334 -0.80958,5.87985 0.60411,5.09004 l 14.88515,-8.31592 c 3.6593,-2.04436 17.97742,0.61791 25.61498,-0.074 8.37396,-0.75867 34.58907,-2.01391 45.97561,-2.17244 12.17012,-0.16951 25.85052,-0.8614 34.64805,-3.62125 1.84144,-0.5777 9.70193,3.7817 12.12162,4.81909 8.76568,3.75807 16.00366,2.14734 23.95126,1.67103 1.74604,0.0357 0.84728,-1.65416 -1.86973,-2.59585 -2.4698,-0.85603 -0.77564,-3.13833 -2.63183,-3.40951 -2.03051,-0.29669 -6.56959,-0.85773 -5.956,-3.12622 0.60014,-2.21878 -6.69966,4.09573 -9.76438,3.20447 -1.5627,-0.45441 -8.66002,-4.59337 -7.56536,-5.11979 4.8127,-2.31442 10.10989,-3.96431 10.10989,-3.96431 0.19552,0.26067 33.62266,10.86739 45.99991,16.17266 1.15269,-2.82292 0.14218,-9.66531 -2.44044,-11.11918 1.58064,-2.31347 -3.87527,-10.2876 -6.69018,-11.22007 0.57289,-2.25491 -4.91569,-9.6652 -8.34479,-10.24323 0.45615,-2.19803 -4.53042,-6.91342 -7.37089,-6.44529 -0.33391,-2.49856 -2.97453,-4.78515 -4.6201,-4.17458 -1.94596,0.72201 -13.82693,7.23369 -18.84275,8.1929 -4.02886,0.77051 -12.92581,-2.24487 -17.80031,-4.05495 16.46762,-18.2666 34.39336,-32.97853 50.5737,-42.558022 31.93667,19.791872 63.00431,46.169652 103.22593,74.481522 1.79437,1.26303 2.60484,0.0956 1.64603,-1.28594 -15.58715,-32.8729 -49.15867,-64.135578 -81.04751,-89.369334 L 255.9525,57.673548 C 238.66912,66.275504 214.27115,80.302444 190.80341,95.79129 174.36237,82.326796 158.99538,68.898176 143.31719,58.803692 c -8.05348,-5.185268 -27.48013,-4.84888 -32.00041,-2.068732 -26.77873,16.469844 -84.79825,73.36241 -94.21239,91.16312 -1.3502,2.55302 -0.94396,3.33751 1.52498,1.87353 36.12003,-21.41778 109.69885,-68.242821 109.69885,-68.242821 8.3904,6.282053 20.79913,18.094751 35.45423,33.965941 l -3.44213,3.96342 c -19.82467,5.81857 -27.28325,10.90744 -32.66338,14.97607 -5.38013,4.06863 -9.75918,13.10985 -11.82589,15.44627 z"
     id="path4384" />
  <path
     style="fill:none;fill-rule:evenodd;stroke:#000000;stroke-width:1;stroke-linecap:round;stroke-linejoin:round;stroke-miterlimit:4;stroke-dasharray:none;stroke-opacity:1"
     d="m 107.47639,163.67845 16.49027,-13.68675 4.55251,0.13039"
     id="path4386" />
  <path
     style="fill:none;fill-rule:evenodd;stroke:#000000;stroke-width:1;stroke-linecap:round;stroke-linejoin:miter;stroke-miterlimit:4;stroke-dasharray:none;stroke-opacity:1"
     d="m 131.81264,143.27364 c 1.34625,-1.36602 3.90174,-1.79195 6.27343,-1.58244"
     id="path4388" />
  <circle
     style="opacity:1;fill:#000000;fill-opacity:1;fill-rule:evenodd;stroke:#000000;stroke-width:1;stroke-linecap:round;stroke-linejoin:round;stroke-miterlimit:4;stroke-dasharray:none;stroke-opacity:1"
     id="circle4390"
     cx="134.8231"
     cy="143.27191"
     r="1.0941995" />
  <path
     style="fill:none;fill-rule:evenodd;stroke:#000000;stroke-width:1;stroke-linecap:round;stroke-linejoin:miter;stroke-miterlimit:4;stroke-dasharray:none;stroke-opacity:1"
     d="m 160.34032,119.45815 -5.14915,4.96002"
     id="path4392" />
  <path
     style="fill:none;fill-rule:evenodd;stroke:#000000;stroke-width:1;stroke-linecap:butt;stroke-linejoin:miter;stroke-miterlimit:4;stroke-dasharray:none;stroke-opacity:1"
     d="m 163.78245,115.49473 c 8.05328,-7.72398 23.77758,-16.91491 27.02095,-19.70344"
     id="path4394" />
  <path
     style="fill:none;fill-rule:evenodd;stroke:#000000;stroke-width:1;stroke-linecap:round;stroke-linejoin:round;stroke-miterlimit:4;stroke-dasharray:none;stroke-opacity:1"
     d="m 176.45717,131.70769 c 18.46316,-23.26389 44.72754,-41.985268 77.27317,-64.042056 l 10.86654,0 12.86292,7.858374"
     id="path4396" />
  <path
     style="fill:none;fill-rule:evenodd;stroke:#000000;stroke-width:1;stroke-linecap:round;stroke-linejoin:round;stroke-miterlimit:4;stroke-dasharray:none;stroke-opacity:1"
     d="m 226.8861,118.08203 -11.79234,14.22934 -14.4887,5.28235 -14.48872,-5.28235"
     id="path4398" />
  <path
     style="fill:none;fill-rule:evenodd;stroke:#000000;stroke-width:1;stroke-linecap:butt;stroke-linejoin:miter;stroke-miterlimit:4;stroke-dasharray:none;stroke-opacity:1"
     d="m 255.9942,118.12451 c 11.60346,6.3249 13.74421,21.05273 10.86652,29.58112"
     id="path4400" />
  <path
     style="fill:none;fill-rule:evenodd;stroke:#000000;stroke-width:1;stroke-linecap:butt;stroke-linejoin:miter;stroke-miterlimit:4;stroke-dasharray:none;stroke-opacity:1"
     d="m 290.55512,146.02725 -22.48701,-4.5095"
     id="path4402" />
  <path
     style="fill:none;fill-rule:evenodd;stroke:#000000;stroke-width:1;stroke-linecap:butt;stroke-linejoin:miter;stroke-miterlimit:4;stroke-dasharray:none;stroke-opacity:1"
     d="m 283.86494,134.80718 -16.09867,0.37174"
     id="path4404" />
  <path
     style="fill:none;fill-rule:evenodd;stroke:#000000;stroke-width:1;stroke-linecap:butt;stroke-linejoin:miter;stroke-miterlimit:4;stroke-dasharray:none;stroke-opacity:1"
     d="m 275.52015,124.56395 -10.31959,3.67247"
     id="path4406" />
  <path
     style="fill:none;fill-rule:evenodd;stroke:#000000;stroke-width:1;stroke-linecap:butt;stroke-linejoin:miter;stroke-miterlimit:4;stroke-dasharray:none;stroke-opacity:1"
     d="m 268.14926,118.11866 -7.62736,3.92986"
     id="path4408" />
  <path
     style="fill:none;fill-rule:evenodd;stroke:#000000;stroke-width:1;stroke-linecap:round;stroke-linejoin:miter;stroke-miterlimit:4;stroke-dasharray:none;stroke-opacity:1"
     d="m 21.33295,145.31029 c 28.95566,-29.71336 48.77103,-51.30475 84.16531,-75.384303 1.77356,-1.20659 6.07296,-0.830194 7.39529,0.15092 l 15.43467,11.451882"
     id="path4410" />
  <path
     style="fill:#ffffff;fill-rule:evenodd;stroke:#000000;stroke-width:1;stroke-linecap:round;stroke-linejoin:round;stroke-miterlimit:4;stroke-dasharray:none;stroke-opacity:1"
     d="m 137.1909,384.05278 c -3.05806,2.31259 -5.22255,8.2818 -7.06301,10.36246 -2.37326,2.68291 -5.79157,5.74022 -7.99573,7.75453 -1.3285,1.21406 -0.72093,5.23609 0.53797,4.53277 l 13.25547,-7.40548 c 3.25865,-1.82053 16.0092,0.55026 22.81059,-0.0658 7.45712,-0.67562 25.5968,0.80924 35.73669,0.66808 10.8377,-0.15097 23.02033,-0.7671 30.85468,-3.2248 1.63984,-0.51444 8.63975,3.36769 10.79453,4.29149 7.80596,3.34664 14.25151,1.91224 21.32901,1.48808 1.55486,0.0317 0.75452,-1.47305 -1.66504,-2.31164 -2.1994,-0.76233 -0.69074,-2.79474 -2.34369,-3.03624 -1.8082,-0.26421 -5.85036,-0.76382 -5.30393,-2.78396 0.53446,-1.97587 -5.96611,3.64731 -8.69535,2.85364 -1.3916,-0.40468 -7.71188,-4.09047 -6.73709,-4.55927 4.28578,-2.06101 9.00305,-3.53027 9.00305,-3.53027 0.17411,0.23212 29.94155,9.67759 40.96371,14.40202 1.02647,-2.51383 0.12659,-8.60711 -2.17326,-9.90179 1.40758,-2.06022 -3.451,-9.16131 -5.95772,-9.99168 0.51017,-2.00804 -4.37751,-8.60705 -7.43118,-9.12178 0.40618,-1.9574 -4.03443,-6.15651 -6.56391,-5.73964 -0.29736,-2.22499 -2.64888,-4.26125 -4.11428,-3.71753 -1.7329,0.64297 -12.3131,6.44172 -16.77977,7.29593 -3.58777,0.68613 -16.74614,-0.48359 -21.08697,-2.09553 14.66473,-16.26666 23.95837,-25.20777 36.71394,-35.11622 28.44014,17.625 51.39993,37.70192 87.21797,62.91415 1.59792,1.12477 2.31965,0.085 1.46581,-1.14515 -13.88063,-29.27389 -32.59472,-49.70544 -60.99224,-72.17652 l -36.511,-5.21307 c -15.39115,7.66019 -38.74048,19.27685 -52.62455,32.68025 -14.641,-11.99036 -23.00308,-18.89534 -37.183,-27.53631 -6.94091,-4.95779 -30.02483,-1.89837 -34.05023,0.5774 -23.8469,14.66667 -57.26261,55.31512 -65.64606,71.16694 -1.20238,2.2735 -0.84061,2.97214 1.35802,1.66842 32.1655,-19.07288 84.46737,-56.64524 84.46737,-56.64524 10.37518,7.28381 24.90893,17.51362 32.17298,25.03398 l -1.82529,2.15175 c -17.65421,5.18151 -29.41434,10.54235 -35.93849,15.47613 z"
     id="path4412" />
  <path
     style="fill:none;fill-rule:evenodd;stroke:#000000;stroke-width:1;stroke-linecap:round;stroke-linejoin:round;stroke-miterlimit:4;stroke-dasharray:none;stroke-opacity:1"
     d="m 122.67013,406.70254 13.6438,-11.66779 3.36002,0.28964"
     id="path4414" />
  <path
     style="fill:none;fill-rule:evenodd;stroke:#000000;stroke-width:1;stroke-linecap:round;stroke-linejoin:miter;stroke-miterlimit:4;stroke-dasharray:none;stroke-opacity:1"
     d="m 142.78039,390.61386 c 1.19885,-1.21648 3.47454,-1.59578 5.58656,-1.40921"
     id="path4416" />
  <circle
     style="opacity:1;fill:#000000;fill-opacity:1;fill-rule:evenodd;stroke:#000000;stroke-width:1;stroke-linecap:round;stroke-linejoin:round;stroke-miterlimit:4;stroke-dasharray:none;stroke-opacity:1"
     id="circle4418"
     cx="145.46123"
     cy="390.61243"
     r="0.97440338" />
  <path
     style="fill:none;fill-rule:evenodd;stroke:#000000;stroke-width:1;stroke-linecap:round;stroke-linejoin:miter;stroke-miterlimit:4;stroke-dasharray:none;stroke-opacity:1"
     d="m 173.12939,368.5767 -7.4073,9.56998"
     id="path4420" />
  <path
     style="fill:none;fill-rule:evenodd;stroke:#000000;stroke-width:1;stroke-linecap:butt;stroke-linejoin:miter;stroke-miterlimit:4;stroke-dasharray:none;stroke-opacity:1"
     d="m 174.95468,366.42496 c 7.17159,-6.87834 13.78423,-11.53659 18.88092,-14.26519"
     id="path4422" />
  <path
     style="fill:none;fill-rule:evenodd;stroke:#000000;stroke-width:1;stroke-linecap:round;stroke-linejoin:round;stroke-miterlimit:4;stroke-dasharray:none;stroke-opacity:1"
     d="m 178.89334,380.83469 c 16.44176,-20.71689 31.37002,-30.05962 60.35245,-49.70156 l 9.67685,0 6.35697,3.96695"
     id="path4424" />
  <path
     style="fill:none;fill-rule:evenodd;stroke:#000000;stroke-width:1;stroke-linecap:round;stroke-linejoin:round;stroke-miterlimit:4;stroke-dasharray:none;stroke-opacity:1"
     d="m 218.56567,370.21633 -7.60797,12.25816 -10.00916,4.70401 -13.59132,-2.36182"
     id="path4426" />
  <path
     style="fill:none;fill-rule:evenodd;stroke:#000000;stroke-width:1;stroke-linecap:butt;stroke-linejoin:miter;stroke-miterlimit:4;stroke-dasharray:none;stroke-opacity:1"
     d="m 249.03351,368.46307 c 10.33311,5.63246 12.92834,19.02339 10.36573,26.61807"
     id="path4428" />
  <path
     style="fill:none;fill-rule:evenodd;stroke:#000000;stroke-width:1;stroke-linecap:butt;stroke-linejoin:miter;stroke-miterlimit:4;stroke-dasharray:none;stroke-opacity:1"
     d="m 280.4995,393.58653 -20.02505,-4.01582"
     id="path4430" />
  <path
     style="fill:none;fill-rule:evenodd;stroke:#000000;stroke-width:1;stroke-linecap:butt;stroke-linejoin:miter;stroke-miterlimit:4;stroke-dasharray:none;stroke-opacity:1"
     d="m 274.54178,383.59485 -14.33615,0.33105"
     id="path4432" />
  <path
     style="fill:none;fill-rule:evenodd;stroke:#000000;stroke-width:1;stroke-linecap:butt;stroke-linejoin:miter;stroke-miterlimit:4;stroke-dasharray:none;stroke-opacity:1"
     d="m 267.1106,374.47308 -9.18978,3.27037"
     id="path4434" />
  <path
     style="fill:none;fill-rule:evenodd;stroke:#000000;stroke-width:1;stroke-linecap:butt;stroke-linejoin:miter;stroke-miterlimit:4;stroke-dasharray:none;stroke-opacity:1"
     d="m 260.54669,368.73343 -6.79228,3.4996"
     id="path4436" />
  <path
     style="fill:none;fill-rule:evenodd;stroke:#000000;stroke-width:1;stroke-linecap:round;stroke-linejoin:miter;stroke-miterlimit:4;stroke-dasharray:none;stroke-opacity:1"
     d="m 60.72191,394.06331 c 25.78551,-26.46026 31.68241,-41.31619 63.20164,-62.75946 1.57936,-1.07449 5.44675,-0.78917 6.58563,0.13443 l 12.27252,9.95269"
     id="path4438" />
</svg>
