<svg xmlns:dc="http://purl.org/dc/elements/1.1/" xmlns:cc="http://creativecommons.org/ns#" xmlns:rdf="http://www.w3.org/1999/02/22-rdf-syntax-ns#" xmlns:svg="http://www.w3.org/2000/svg" xmlns="http://www.w3.org/2000/svg" id="svg2" version="1.1" x="0" y="0" width="400" height="500" viewBox="30.5 31.5 400 500" enable-background="new 30.5 31.5 412 533" xml:space="preserve">
  <metadata id="metadata4">
    <rdf:RDF>
      <cc:Work rdf:about="">
        <dc:format>
          
          
          
          
          
          
          image/svg+xml
        
        
        
        
        
        
        </dc:format>
        <dc:type rdf:resource="http://purl.org/dc/dcmitype/StillImage"/>
      </cc:Work>
    </rdf:RDF>
  </metadata>
  <defs id="defs6"/>
  <path d="M230.45 531.13C156.13 477.21 105.19 409.11 74.71 322.97 47.07 244.87 35.98 150.22 40.8 33.62l0.02-0.46 379.82 0 0.02 0.46c4.81 116.6-6.28 211.24-33.91 289.35-30.48 86.14-81.42 154.24-155.74 208.16l-0.28 0.2-0.28-0.2z" id="path4148" fill="#e00e00"/>
  <path id="path10" d="M419.96 33.21C429.03 252.66 383.71 419.16 230.51 530.31 146.04 469.02 94.36 390.9 66.52 296.34 64.43 289.25 62.48 282.07 60.65 274.8 49.2 229.11 42.88 179.78 40.77 126.86 39.57 96.8 39.72 65.58 41.06 33.21l189.45 0 189.45 0m0.92-0.95-0.92 0-189.45 0-189.45 0-0.92 0-0.04 0.92c-4.82 116.66 6.28 211.36 33.93 289.52 30.51 86.24 81.51 154.41 155.91 208.39l0.56 0.41 0.56-0.41C305.46 477.11 356.46 408.94 386.97 322.7 414.62 244.54 425.72 149.84 420.9 33.18l-0.04-0.92 0 0z"/>
  <path id="path2834" d="m49.13 50.95c83.01-8.68 134.72 46.77 162.59 129.53 7.45 24.83 14.68 46.64 17.67 73.06 2.42 26.42 2.02 43.38 1.95 58.09l-11.33 0.19C203.7 245.9 189.11 192.1 118.18 151.82 97.73 140.22 81.14 133.09 69.25 115.29 63.61 106.84 67.57 97.39 66.64 87.75 64.48 65.33 45.38 51.34 49.13 50.95Z" style="fill:#fff;stroke:#000"/>
  <path id="path2830" d="m91.69 323.94c24.6 5.82 48.99-15.17 49.46-39.03 0.39-19.67-3.88-33.47 4.02-41.48 22.07-22.37 60.04 46.05 65.59 72.89l10.99-1.5c-2.8-32.22-24.76-84.21-35.98-98.45-13.22-16.78-27.69-32.9-47.92-39.92-35.51-12.32-58.1 8.7-64.14 22.74-3.05 7.11-4.7 26.52-1 38.98 5.02 16.88 25.79 17.61 31.84 43.17 2.19 9.26-4.75 35.52-12.87 42.6z" style="fill:#fff;stroke-miterlimit:4;stroke-width:0.99;stroke:#000"/>
  <path id="path2836" d="M406.33 50.94C275.81 60.15 229.35 164.57 231.75 265.16c-0.2 24.15-0.36 31.83-0.57 45.79l10.12 0.87c16.31-65.92 29.94-123.57 102.45-160.92 29.04-14.96 52.65-20.59 50.92-70.58-0.78-22.51 15.42-29.65 11.66-29.38z" style="fill:#fff;stroke-linecap:round;stroke-linejoin:round;stroke:#000"/>
  <path id="path2832" d="m363.08 319.52c-21.07 3.88-43.29-14.46-43.76-38.33-0.39-19.67 7.9-29.76 0-37.77-22.07-22.37-61.28 46.05-66.83 72.89l-10.99-1.5c2.8-32.22 21.5-83.14 34.36-98.83 12.86-15.68 38.07-32.93 59.06-37.14 36.75-7.37 52.21 12.89 58.24 26.93 3.05 7.11 3.77 19.5-2.98 32.82-11.95 23.57-29.16 31.91-31.94 44.85-2.78 12.94 1.98 31.46 4.84 36.07z" style="fill:#fff;stroke-miterlimit:4;stroke:#000"/>
  <path id="path2840" d="m114.44 341.83c16.85-13.84 35.33-5.17 43.23 12.36 6.09 13.52 4.76 30.92 14.88 26.49 22.02-9.63 30.1-41.83 32.38-55.09l16.79 0.35c0.84 49.91-21.11 70.2-34.2 83.37-17.38 17.49-46.89 20.2-53.05-5.8-5.42-22.91 6.18-42.88-20.03-61.7z" style="fill:#fff;stroke:#000"/>
  <path id="path2844" d="m242.84 326.75c1.11 29.75 15.35 76.32 35.25 84.28 11.58 4.63 20.27 8.49 33.84-1.41 29.29-21.38 7.24-54.54 39.19-73.42-22.48-14.64-38.58 5.32-47.94 26.25-5.4 12.07-29.56 21.96-44.34-38.97z" style="fill:#fff;stroke:#000"/>
  <path id="path2846" d="m230.35 496.83c14.68-32.23 44.72-38.57 41.29-60.3-2.51-15.92-12.53-15.47-19.85-56.46-3-16.8-8.25-45.38-9.54-60.51l-18.74-0.25c-5.24 45.39-9.39 58.71-15.73 76.44-7.13 19.95-16.45 34.63-13.96 52.11 2.68 18.81 13.99 18.71 36.53 48.97z" style="fill:#fff;stroke-miterlimit:4;stroke:#000"/>
  <path id="path2838" d="m207.73 308.43c-11.44-0.88-14.86 18.44-4.98 22.68 8.06 3.46 47.25 4.06 57.56-0.52 8.71-3.86 8.61-27.84-3.44-24.57-18.59 5.04-33.54 3.6-49.14 2.41z" style="fill:#fff;stroke-miterlimit:4;stroke-width:0.97;stroke:#000"/>
</svg>
