<?xml version="1.0" encoding="UTF-8" standalone="no"?>
<svg
   xmlns:dc="http://purl.org/dc/elements/1.1/"
   xmlns:cc="http://creativecommons.org/ns#"
   xmlns:rdf="http://www.w3.org/1999/02/22-rdf-syntax-ns#"
   xmlns:svg="http://www.w3.org/2000/svg"
   xmlns="http://www.w3.org/2000/svg"
   xml:space="preserve"
   enable-background="new 30.5 31.5 412 533"
   viewBox="30.5 31.5 400 500"
   height="500"
   width="400"
   y="0"
   x="0"
   version="1.1"
   id="svg2"><metadata
     id="metadata4"><rdf:RDF><cc:Work
         rdf:about=""><dc:format>
          
          
          
          
          
          image/svg+xml
        
        
        
        
        
        </dc:format><dc:type
           rdf:resource="http://purl.org/dc/dcmitype/StillImage" /><dc:title></dc:title></cc:Work></rdf:RDF></metadata><defs
     id="defs6" /><path
     d="M 230.44,531.14 C 156.12,477.22 105.18,409.12 74.7,322.98 47.06,244.88 35.97,150.23 40.79,33.63 l 0.02,-0.46 379.82,0 0.02,0.46 c 4.81,116.6 -6.28,211.24 -33.91,289.35 C 356.26,409.12 305.32,477.22 231,531.14 l -0.28,0.2 -0.28,-0.2 z"
     id="path8"
     style="fill:#e00e00;fill-opacity:1" /><path
     style="fill:#ffe000;fill-rule:evenodd;stroke:#000000;stroke-width:1px;stroke-linecap:round;stroke-linejoin:round;stroke-opacity:1;fill-opacity:1"
     d="m 279.5,360.53675 c 0,-18.59138 -5.45577,-25.99252 -17,-37.53675 l -19,-19 c 0,0 8.13386,-8.5317 12,-12.5 10.79474,-11.07996 25.35582,-30.58993 27,-33.69521 2.28056,-4.30718 -2.21962,-8.65154 -6,-6.30479 -2.21896,1.37746 -19.25296,12.25296 -33,26 l -13,13 -13,-13 c -13.74704,-13.74704 -30.78104,-24.62254 -33,-26 -3.78038,-2.34675 -8.28056,1.99761 -6,6.30479 1.64418,3.10528 16.20526,22.61525 27,33.69521 3.86614,3.9683 12,12.5 12,12.5 l -19,19 c -11.54423,11.54423 -17,18.94537 -17,37.53675 0,25.86451 18.59943,50.96325 49,50.96325 30.40057,0 49,-25.09874 49,-50.96325 z m -49,-57.03675 2,2 c 2.57609,2.57609 3.29394,5.56199 3.29394,7.50969 0,1.32527 0,3.75113 -2.29394,6.49031 l 18.10701,19.16329 c 6.77845,6.94196 10.28844,14.14431 10.23244,23.10564 -0.0771,12.3397 -9.91909,29.67021 -31.33945,30.73107 -21.42036,-1.06086 -31.26234,-18.39137 -31.33945,-30.73107 -0.056,-8.96133 3.45399,-16.16368 10.23244,-23.10564 L 227.5,319.5 c -2.29394,-2.73918 -2.29394,-5.16504 -2.29394,-6.49031 0,-1.9477 0.71785,-4.9336 3.29394,-7.50969 l 2,-2"
     id="path4261" /><path
     d="M 419.96,33.21 C 429.03,252.66 383.7,419.16 230.5,530.31 77.31,419.16 31.99,252.66 41.06,33.21 l 189.45,0 189.45,0 m 0.92,-0.95 -0.92,0 -189.45,0 -189.45,0 -0.92,0 -0.04,0.92 c -4.82,116.66 6.28,211.36 33.93,289.52 30.51,86.24 81.51,154.41 155.91,208.39 l 0.56,0.41 0.56,-0.41 C 305.46,477.11 356.46,408.94 386.97,322.7 414.62,244.54 425.72,149.84 420.9,33.18 l -0.04,-0.92 0,0 z"
     id="path10" /><path
     id="path4341"
     d="m 230.5,290.5 13,13.5"
     style="fill:none;fill-rule:evenodd;stroke:#000000;stroke-width:1px;stroke-linecap:butt;stroke-linejoin:miter;stroke-opacity:1" /><path
     style="fill:none;fill-rule:evenodd;stroke:#000000;stroke-width:1px;stroke-linecap:butt;stroke-linejoin:round;stroke-opacity:1"
     d="m 217.5,304 6.86023,-7.12409 L 230.5,303.5"
     id="path4343" /><path
     id="path4347"
     d="m 331.48156,100.95615 c -16.17509,9.16546 -19.92466,17.56089 -24.27725,33.29599 l -7.16369,25.89752 c 0,0 -11.43281,-2.87064 -16.79135,-4.27796 -14.96168,-3.92938 -39.11452,-6.97967 -42.62679,-6.87926 -4.87168,0.13925 -6.43286,6.1963 -2.52739,8.32842 2.29237,1.25148 20.15208,10.71003 38.88967,15.89317 l 17.71937,4.90147 -4.90148,17.71937 c -5.18315,18.73759 -6.24749,38.91928 -6.35199,41.52892 -0.17803,4.446 5.82027,6.21954 8.44335,2.11196 1.89111,-2.96137 11.68686,-25.2483 16.00503,-40.10244 1.54656,-5.32001 4.95945,-16.60282 4.95945,-16.60282 l 25.89752,7.16369 c 15.73509,4.35261 24.86401,5.45057 41.03909,-3.71489 22.50296,-12.75109 35.17023,-41.30674 20.18289,-67.75622 -14.98734,-26.449446 -45.99348,-30.257983 -68.49643,-17.50692 z m -25.46703,70.75042 0.75408,-2.72605 c 0.97128,-3.51129 3.21521,-5.60788 4.90978,-6.56808 1.15302,-0.65335 3.26359,-1.84928 6.77767,-1.20389 l 7.746,-25.20108 c 2.69799,-9.31984 7.23385,-15.92436 15.05811,-20.29352 10.77395,-6.01635 30.7041,-5.99736 42.18721,12.11604 9.63715,19.1594 -0.58889,36.26609 -11.28681,42.41659 -7.76903,4.46662 -15.76572,4.96354 -25.14718,2.48843 l -25.59936,-6.30627 c -1.25226,3.3462 -3.36284,4.54214 -4.51588,5.1955 -1.69455,0.96021 -4.64628,1.80769 -8.15755,0.83639 l -2.72607,-0.75406"
     style="fill:#ffe000;fill-rule:evenodd;stroke:#000000;stroke-width:1px;stroke-linecap:round;stroke-linejoin:round;stroke-opacity:1;fill-opacity:1" /><path
     style="fill:none;fill-rule:evenodd;stroke:#000000;stroke-width:1px;stroke-linecap:butt;stroke-linejoin:miter;stroke-opacity:1"
     d="m 294.70413,178.1155 5.33649,-17.96584"
     id="path4349" /><path
     id="path4351"
     d="m 312.85849,182.77049 -9.58024,-2.45649 2.73628,-8.60743"
     style="fill:none;fill-rule:evenodd;stroke:#000000;stroke-width:1px;stroke-linecap:butt;stroke-linejoin:round;stroke-opacity:1" /><path
     style="fill:#ffe000;fill-rule:evenodd;stroke:#000000;stroke-width:1px;stroke-linecap:round;stroke-linejoin:round;stroke-opacity:1;fill-opacity:1"
     d="m 129.4745,100.95615 c 16.17509,9.16546 19.92466,17.56089 24.27725,33.29599 l 7.16369,25.89752 c 0,0 11.43281,-2.87064 16.79135,-4.27796 14.96168,-3.92938 39.11452,-6.97967 42.62679,-6.87926 4.87168,0.13925 6.43286,6.1963 2.52739,8.32842 -2.29237,1.25148 -20.15208,10.71003 -38.88967,15.89317 l -17.71937,4.90147 4.90148,17.71937 c 5.18315,18.73759 6.24749,38.91928 6.35199,41.52892 0.17803,4.446 -5.82027,6.21954 -8.44335,2.11196 -1.89111,-2.96137 -11.68686,-25.2483 -16.00503,-40.10244 -1.54656,-5.32001 -4.95945,-16.60282 -4.95945,-16.60282 l -25.89752,7.16369 c -15.73509,4.35261 -24.86401,5.45057 -41.03909,-3.71489 C 58.658,173.4682 45.99073,144.91255 60.97807,118.46307 75.96541,92.013627 106.97155,88.20509 129.4745,100.95615 Z m 25.46703,70.75042 -0.75408,-2.72605 c -0.97128,-3.51129 -3.21521,-5.60788 -4.90978,-6.56808 -1.15302,-0.65335 -3.26359,-1.84928 -6.77767,-1.20389 l -7.746,-25.20108 c -2.69799,-9.31984 -7.23385,-15.92436 -15.05811,-20.29352 -10.77395,-6.01635 -30.7041,-5.99736 -42.18721,12.11604 -9.63715,19.1594 0.58889,36.26609 11.28681,42.41659 7.76903,4.46662 15.76572,4.96354 25.14718,2.48843 l 25.59936,-6.30627 c 1.25226,3.3462 3.36284,4.54214 4.51588,5.1955 1.69455,0.96021 4.64628,1.80769 8.15755,0.83639 l 2.72607,-0.75406"
     id="path4363" /><path
     id="path4365"
     d="m 166.25193,178.1155 -5.33649,-17.96584"
     style="fill:none;fill-rule:evenodd;stroke:#000000;stroke-width:1px;stroke-linecap:butt;stroke-linejoin:miter;stroke-opacity:1" /><path
     style="fill:none;fill-rule:evenodd;stroke:#000000;stroke-width:1px;stroke-linecap:butt;stroke-linejoin:round;stroke-opacity:1"
     d="m 148.09757,182.77049 9.58024,-2.45649 -2.73628,-8.60743"
     id="path4367" /></svg>