<?xml version="1.0" encoding="UTF-8" standalone="no"?>
<!-- Created with Inkscape (http://www.inkscape.org/) -->
<svg
   xmlns:dc="http://purl.org/dc/elements/1.1/"
   xmlns:cc="http://creativecommons.org/ns#"
   xmlns:rdf="http://www.w3.org/1999/02/22-rdf-syntax-ns#"
   xmlns:svg="http://www.w3.org/2000/svg"
   xmlns="http://www.w3.org/2000/svg"
   xmlns:sodipodi="http://sodipodi.sourceforge.net/DTD/sodipodi-0.dtd"
   xmlns:inkscape="http://www.inkscape.org/namespaces/inkscape"
   width="350"
   height="210"
   id="svg2"
   sodipodi:version="0.32"
   inkscape:version="0.46"
   version="1.0"
   sodipodi:docname="Wiltshire.svg"
   inkscape:output_extension="org.inkscape.output.svg.inkscape">
  <defs
     id="defs4">
    <inkscape:perspective
       sodipodi:type="inkscape:persp3d"
       inkscape:vp_x="0 : 526.18109 : 1"
       inkscape:vp_y="0 : 1000 : 0"
       inkscape:vp_z="744.09448 : 526.18109 : 1"
       inkscape:persp3d-origin="372.04724 : 350.78739 : 1"
       id="perspective10" />
    <inkscape:perspective
       id="perspective2390"
       inkscape:persp3d-origin="372.04724 : 350.78739 : 1"
       inkscape:vp_z="744.09448 : 526.18109 : 1"
       inkscape:vp_y="0 : 1000 : 0"
       inkscape:vp_x="0 : 526.18109 : 1"
       sodipodi:type="inkscape:persp3d" />
    <inkscape:perspective
       id="perspective3260"
       inkscape:persp3d-origin="372.04724 : 350.78739 : 1"
       inkscape:vp_z="744.09448 : 526.18109 : 1"
       inkscape:vp_y="0 : 1000 : 0"
       inkscape:vp_x="0 : 526.18109 : 1"
       sodipodi:type="inkscape:persp3d" />
  </defs>
  <sodipodi:namedview
     id="base"
     pagecolor="#ffffff"
     bordercolor="#666666"
     borderopacity="1.0"
     gridtolerance="10000"
     guidetolerance="10"
     objecttolerance="10"
     inkscape:pageopacity="0.0"
     inkscape:pageshadow="2"
     inkscape:zoom="1.0001142"
     inkscape:cx="76.136624"
     inkscape:cy="191.97889"
     inkscape:document-units="px"
     inkscape:current-layer="layer1"
     showgrid="false"
     inkscape:window-width="1440"
     inkscape:window-height="874"
     inkscape:window-x="-4"
     inkscape:window-y="-4"
     showguides="true"
     inkscape:guide-bbox="true">
    <inkscape:grid
       type="xygrid"
       id="grid2396"
       visible="true"
       enabled="true" />
  </sodipodi:namedview>
  <metadata
     id="metadata7">
    <rdf:RDF>
      <cc:Work
         rdf:about="">
        <dc:format>image/svg+xml</dc:format>
        <dc:type
           rdf:resource="http://purl.org/dc/dcmitype/StillImage" />
      </cc:Work>
    </rdf:RDF>
  </metadata>
  <g
     inkscape:label="Layer 1"
     inkscape:groupmode="layer"
     id="layer1"
     transform="translate(-364.63479,-706.06734)">
    <g
       id="g3439">
      <g
         id="g3327"
         style="opacity:1">
        <rect
           style="fill:#ffffff;fill-opacity:1;fill-rule:nonzero;stroke:none;stroke-width:22;stroke-linecap:butt;stroke-linejoin:miter;stroke-miterlimit:4;stroke-dasharray:none;stroke-dashoffset:0;stroke-opacity:1"
           id="rect3396"
           width="350"
           height="210"
           x="364.6348"
           y="706.06732" />
        <path
           style="opacity:1;fill:#007c43;fill-opacity:1;fill-rule:nonzero;stroke:none;stroke-width:30;stroke-linecap:butt;stroke-linejoin:miter;stroke-miterlimit:4;stroke-dashoffset:0;stroke-opacity:1"
           d="M 0,0 C 40,0 125,5 175,30 C 225,5 310,0 350,0 L 175,0 L 0,0 z"
           transform="translate(364.63479,706.06734)"
           id="path3322" />
        <path
           sodipodi:nodetypes="ccccccc"
           id="path3320"
           d="M 364.63479,736.06734 L 364.63479,766.06734 C 404.63479,766.06734 489.63479,771.06734 539.63479,796.06734 C 589.63479,771.06734 674.63479,766.06734 714.63479,766.06734 L 714.63479,736.06734 C 669.63479,736.06734 594.63479,741.06734 539.63479,766.06734 C 484.63479,741.06734 409.63479,736.06734 364.63479,736.06734 z"
           style="opacity:1;fill:#007c43;fill-opacity:1;fill-rule:nonzero;stroke:none;stroke-width:30;stroke-linecap:butt;stroke-linejoin:miter;stroke-miterlimit:4;stroke-dashoffset:0;stroke-opacity:1" />
        <path
           sodipodi:nodetypes="ccccccc"
           id="path3318"
           d="M 364.63479,796.06734 L 364.63479,826.06734 C 404.63479,826.06734 489.63479,831.06734 539.63479,856.06734 C 589.63479,831.06734 674.63479,826.06734 714.63479,826.06734 L 714.63479,796.06734 C 669.63479,796.06734 594.63479,801.06734 539.63479,826.06734 C 484.63479,801.06734 409.63479,796.06734 364.63479,796.06734 z"
           style="opacity:1;fill:#007c43;fill-opacity:1;fill-rule:nonzero;stroke:none;stroke-width:30;stroke-linecap:butt;stroke-linejoin:miter;stroke-miterlimit:4;stroke-dashoffset:0;stroke-opacity:1" />
        <path
           style="opacity:1;fill:#007c43;fill-opacity:1;fill-rule:nonzero;stroke:none;stroke-width:30;stroke-linecap:butt;stroke-linejoin:miter;stroke-miterlimit:4;stroke-dashoffset:0;stroke-opacity:1"
           d="M 0,150 L 0,180 C 40,180 125,185 175,210 C 225,185 310,180 350,180 L 350,150 C 305,150 230,155 175,180 C 120,155 45,150 0,150 z"
           transform="translate(364.63479,706.06734)"
           id="rect3312"
           sodipodi:nodetypes="ccccccc" />
      </g>
      <g
         id="g3340"
         style="opacity:1"
         transform="matrix(1.3125,0,0,1.3125,49.137351,112.13287)">
        <g
           id="g3214"
           transform="translate(0.2123436,0.6969448)">
          <path
             transform="matrix(1.0823529,0,0,1.0823529,235.5,444.81513)"
             d="M 170,79.5 A 42.5,42.5 0 1 1 85,79.5 A 42.5,42.5 0 1 1 170,79.5 z"
             sodipodi:ry="42.5"
             sodipodi:rx="42.5"
             sodipodi:cy="79.5"
             sodipodi:cx="127.5"
             id="path3186"
             style="opacity:1;fill:#ffffff;fill-opacity:1;fill-rule:nonzero;stroke:#007c43;stroke-width:0.92391306;stroke-linecap:butt;stroke-linejoin:miter;stroke-miterlimit:4;stroke-dasharray:none;stroke-dashoffset:0;stroke-opacity:1"
             sodipodi:type="arc" />
          <path
             sodipodi:end="5.0098256"
             sodipodi:start="3.9495979"
             sodipodi:type="arc"
             style="opacity:1;fill:#007c43;fill-opacity:1;fill-rule:nonzero;stroke:none;stroke-width:0.92391306;stroke-linecap:butt;stroke-linejoin:miter;stroke-miterlimit:4;stroke-dasharray:none;stroke-dashoffset:0;stroke-opacity:1"
             id="path3196"
             sodipodi:cx="127.5"
             sodipodi:cy="79.5"
             sodipodi:rx="42.5"
             sodipodi:ry="42.5"
             d="M 98.134972,48.77631 A 42.5,42.5 0 0 1 139.95549,38.866138 L 127.5,79.5 z"
             transform="matrix(1.0823529,0,0,1.0823529,235.5,444.81513)" />
          <path
             transform="matrix(-0.5411764,0.9373451,-0.9373451,-0.5411764,517.01893,454.37421)"
             d="M 98.134972,48.77631 A 42.5,42.5 0 0 1 139.95549,38.866138 L 127.5,79.5 z"
             sodipodi:ry="42.5"
             sodipodi:rx="42.5"
             sodipodi:cy="79.5"
             sodipodi:cx="127.5"
             id="path3206"
             style="opacity:1;fill:#007c43;fill-opacity:1;fill-rule:nonzero;stroke:none;stroke-width:0.92391306;stroke-linecap:butt;stroke-linejoin:miter;stroke-miterlimit:4;stroke-dasharray:none;stroke-dashoffset:0;stroke-opacity:1"
             sodipodi:type="arc"
             sodipodi:start="3.9495979"
             sodipodi:end="5.0098256" />
          <path
             sodipodi:end="5.0098256"
             sodipodi:start="3.9495979"
             sodipodi:type="arc"
             style="opacity:1;fill:#007c43;fill-opacity:1;fill-rule:nonzero;stroke:none;stroke-width:0.92391306;stroke-linecap:butt;stroke-linejoin:miter;stroke-miterlimit:4;stroke-dasharray:none;stroke-dashoffset:0;stroke-opacity:1"
             id="path3212"
             sodipodi:cx="127.5"
             sodipodi:cy="79.5"
             sodipodi:rx="42.5"
             sodipodi:ry="42.5"
             d="M 98.134972,48.77631 A 42.5,42.5 0 0 1 139.95549,38.866138 L 127.5,79.5 z"
             transform="matrix(-0.5411765,-0.9373451,0.9373451,-0.5411765,367.98107,693.39721)" />
          <path
             sodipodi:type="arc"
             style="opacity:1;fill:#007c43;fill-opacity:1;fill-rule:nonzero;stroke:#ffffff;stroke-width:1.03658497;stroke-linecap:butt;stroke-linejoin:miter;stroke-miterlimit:4;stroke-dasharray:none;stroke-dashoffset:0;stroke-opacity:1"
             id="path3188"
             sodipodi:cx="127.5"
             sodipodi:cy="79.5"
             sodipodi:rx="42.5"
             sodipodi:ry="42.5"
             d="M 170,79.5 A 42.5,42.5 0 1 1 85,79.5 A 42.5,42.5 0 1 1 170,79.5 z"
             transform="matrix(0.9647062,0,0,0.9647062,250.99994,454.16802)" />
        </g>
        <path
           style="opacity:1;fill:#ad9233;fill-opacity:1;fill-rule:nonzero;stroke:none;stroke-width:1;stroke-linecap:butt;stroke-linejoin:miter;stroke-miterlimit:4;stroke-dasharray:none;stroke-dashoffset:0;stroke-opacity:1"
           d="M 148.0625,41.5625 C 146.56427,41.558966 145.22231,41.9709 144.25,42.875 C 141.12386,45.781818 138.96287,46.931294 137.21875,47.9375 C 135.47463,48.943707 134.15781,49.794207 132.65625,52.0625 C 135.19672,52.418352 136.9503,51.973027 138.6875,51.46875 C 142.23723,54.089473 144.00393,56.137585 144.5625,60.625 C 146.5466,56.306085 146.97162,55.417368 146.6875,61.78125 C 146.45303,67.033232 141.3242,76.420532 140.875,85.125 C 140.68454,88.815512 141.76813,91.585559 142.375,94.34375 C 139.5386,111.86051 147.32568,122.82838 159.78125,126.6875 C 164.5352,128.16043 168.84128,133.97933 170.84375,136.03125 C 169.66422,141.79546 170.05527,146.62605 167.3125,151.46875 C 165.85125,159.55955 164.10414,157.57675 158.90625,154.65625 L 162.125,158.75 C 159.00726,158.15423 157.72332,157.39013 155.78125,156.6875 C 156.62245,158.48876 157.13334,159.25552 161.875,160.28125 C 160.16428,160.46281 159.57136,160.62665 158.65625,160.96875 C 161.89539,162.76926 166.93677,162.12065 168.59375,160 C 169.67059,153.64478 169.57142,149.33584 175.75,140.46875 C 175.76899,137.74567 173.75347,133.86222 172,130.84375 C 176.86084,132.47044 183.20083,135.77294 184.25,143.0625 C 186.12379,151.50777 185.89572,155.80952 185,164.5625 C 182.67467,165.83581 179.97173,164.4703 177.4375,164.28125 C 178.45877,165.46344 179.69538,165.88253 182.3125,166.84375 C 180.27302,167.70082 177.57739,167.89958 174.84375,168.0625 C 175.71602,168.98481 178.65986,169.47898 182.59375,169.8125 L 179.40625,171.84375 C 183.20517,171.45983 185.95824,171.1914 189.15625,166.375 C 188.94267,161.9642 187.67759,150.7412 189.8125,143.21875 C 190.06601,142.32549 189.4656,141.75714 189.46875,139.59375 C 186.15237,137.12416 182.89349,133.55438 183.75,130.8125 C 187.19033,130.8988 188.39304,130.0287 190.09375,129.53125 C 191.79445,129.0338 193.99586,128.91265 199.4375,130.5625 C 202.89349,131.61032 209.20657,131.01531 214.875,130.28125 C 218.22874,129.84693 217.92704,127.99928 216.15625,127.6875 C 214.76788,127.44306 213.9333,126.83437 213.09375,126.25 C 210.93865,124.74996 213.16388,125.13013 213.59375,124.375 C 214.02361,123.61987 212.12832,121.9 215.9375,122.0625 C 218.97236,122.19196 217.81485,121.39965 219.28125,121.46875 C 220.74765,121.53785 221.11518,122.65882 224.65625,123 C 226.72182,123.19901 226.97493,121.45067 230.4375,121.3125 C 231.1348,121.28467 231.16358,119.63412 231.65625,119.09375 C 232.14893,118.55339 232.9543,119.00192 233.46875,118.34375 C 233.9832,117.68558 233.32617,116.62094 233.75,116 C 234.17383,115.37906 235.02918,115.14742 235.25,114.71875 C 235.69165,113.86141 234.63765,113.56467 234.84375,112.53125 C 235.11059,111.19324 236.41629,111.23411 236.53125,109.875 C 236.59507,109.1205 236.25397,108.66834 235.96875,108.125 C 234.95733,106.19824 233.64264,107.20894 233.03125,106.5 C 232.41986,105.79106 232.74484,105.02368 232.25,104.46875 C 231.39164,103.50616 230.46196,104.58621 229.96875,103.84375 C 229.49117,103.12484 228.67175,101.76445 227.78125,101.75 C 224.83907,101.70226 222.40771,104.72337 212.5,104.4375 C 208.07092,104.30971 204.53266,103.16134 202.53125,101.25 C 200.395,99.209883 195.76686,94.726528 188.8125,91.375 C 181.85814,88.023472 172.58976,85.798101 161.21875,88.21875 C 155.88628,83.159419 155.47555,77.019271 156.5,70.78125 C 157.52444,64.543225 159.97422,58.195591 160.34375,52.78125 C 160.60714,48.922207 157.68999,45.409938 154.15625,43.375 C 152.16851,42.230346 149.98879,41.567044 148.0625,41.5625 z M 146.65625,45.59375 C 147.57911,45.59375 148.34375,46.358386 148.34375,47.28125 C 148.34375,48.204114 147.57911,48.9375 146.65625,48.9375 C 145.73338,48.937499 145,48.204114 145,47.28125 C 145,46.358386 145.73339,45.59375 146.65625,45.59375 z M 146.65625,46.3125 C 146.13009,46.3125 145.71875,46.755091 145.71875,47.28125 C 145.71875,47.807409 146.13009,48.218748 146.65625,48.21875 C 147.18241,48.21875 147.625,47.80741 147.625,47.28125 C 147.625,46.755091 147.18241,46.3125 146.65625,46.3125 z"
           transform="matrix(0.7619048,0,0,0.7619048,240.379,452.5215)"
           id="path3190" />
        <path
           sodipodi:nodetypes="cccccccccccccc"
           id="path3192"
           d="M 348.93648,491.33232 L 357.25182,491.80162 C 359.69723,493.91444 363.19647,495.88468 365.64188,498.22662 L 360.96414,496.05769 C 367.43836,501.52459 365.48311,502.31436 367.57249,505.31136 L 363.48662,500.45658 L 364.63541,505.44684 L 361.56823,499.5224 C 362.01235,500.85768 362.57321,502.19296 362.5155,503.52824 L 356.66678,495.26167 C 357.16828,496.83924 357.59869,498.41681 357.59854,499.99438 C 356.85111,497.7776 355.01731,494.93731 353.79751,493.82273 C 353.31808,493.38466 353.34951,494.24692 353.34713,495.04155 C 352.49601,494.50005 350.26498,492.33947 348.93648,491.33232 z"
           style="opacity:1;fill:#ffffff;fill-opacity:1;fill-rule:nonzero;stroke:none;stroke-width:1;stroke-linecap:butt;stroke-linejoin:miter;stroke-miterlimit:4;stroke-dasharray:none;stroke-dashoffset:0;stroke-opacity:1" />
      </g>
    </g>
  </g>
</svg>
