<svg xmlns:dc="http://purl.org/dc/elements/1.1/" xmlns:cc="http://creativecommons.org/ns#" xmlns:rdf="http://www.w3.org/1999/02/22-rdf-syntax-ns#" xmlns:svg="http://www.w3.org/2000/svg" xmlns="http://www.w3.org/2000/svg" id="svg2" version="1.1" x="0" y="0" width="400" height="500" viewBox="30.5 31.5 400 500" enable-background="new 30.5 31.5 412 533" xml:space="preserve">
  <metadata id="metadata4">
    <rdf:RDF>
      <cc:Work rdf:about="">
        <dc:format>
          
          
          
          
          image/svg+xml
        
        
        
        
        </dc:format>
        <dc:type rdf:resource="http://purl.org/dc/dcmitype/StillImage"/>
      </cc:Work>
    </rdf:RDF>
  </metadata>
  <defs id="defs6"/>
  <path id="path8" d="M230.44 531.14C156.12 477.22 105.18 409.12 74.7 322.98 47.06 244.88 35.97 150.23 40.79 33.63l0.02-0.46 379.82 0 0.02 0.46c4.81 116.6-6.28 211.24-33.91 289.35C356.26 409.12 305.32 477.22 231 531.14l-0.28 0.2-0.28-0.2z" fill="#32ac60"/>
  <path id="path4380" d="M294 475.5C281.53 472.11 272.95 459.97 272.81 448.57 272.65 435.44 279.18 424.92 290.5 418.5 279.89 412.78 272.95 401.97 272.81 390.57 272.65 377.44 279.18 366.92 290.5 360.5 279.89 354.78 272.95 343.97 272.81 332.57 272.65 319.44 279.18 308.92 290.5 302.5 279.89 296.78 272.95 285.97 272.81 274.57 272.65 261.44 279.18 250.92 290.5 244.5 279.89 238.78 272.95 227.97 272.81 216.57 272.65 203.44 279.18 192.92 290.5 186.5 279.89 180.78 272.95 169.97 272.81 158.57 272.65 145.44 279.18 134.92 290.5 128.5 279.89 122.78 272.95 111.97 272.81 100.57 272.65 87.44 279.18 76.92 290.5 70.5 279.89 64.78 272.95 53.97 272.81 42.57c-0.05-3.65 0.44-6.62 1.39-9.83l-87.4 0c0.95 3.21 1.43 6.18 1.39 9.83-0.14 11.4-7.08 22.21-17.69 27.93 11.32 6.42 17.85 16.94 17.69 30.07-0.14 11.4-7.08 22.21-17.69 27.93 11.32 6.42 17.85 16.94 17.69 30.07-0.14 11.4-7.08 22.21-17.69 27.93 11.32 6.42 17.85 16.94 17.69 30.07-0.14 11.4-7.08 22.21-17.69 27.93 11.32 6.42 17.85 16.94 17.69 30.07-0.14 11.4-7.08 22.21-17.69 27.93 11.32 6.42 17.85 16.94 17.69 30.07-0.14 11.4-7.08 22.21-17.69 27.93 11.32 6.42 17.85 16.94 17.69 30.07-0.14 11.4-7.08 22.21-17.69 27.93 11.32 6.42 17.85 16.94 17.69 30.07-0.14 11.4-8.72 23.54-21.19 26.93 19.12 19.88 39.86 38.58 63.5 55.18 23.42-16.73 44.7-35.04 63.5-55.18z" style="fill-rule:evenodd;fill:#fff"/>
  <path id="path10" d="M419.96 33.21C429.03 252.66 383.7 419.16 230.5 530.31 77.31 419.16 31.99 252.66 41.06 33.21l189.45 0 189.45 0m0.92-0.95-0.92 0-189.45 0-189.45 0-0.92 0-0.04 0.92c-4.82 116.66 6.28 211.36 33.93 289.52 30.51 86.24 81.51 154.41 155.91 208.39l0.56 0.41 0.56-0.41C305.46 477.11 356.46 408.94 386.97 322.7 414.62 244.54 425.72 149.84 420.9 33.18l-0.04-0.92 0 0z"/>
  <path d="M294 475.5C281.53 472.11 272.95 459.97 272.81 448.57 272.65 435.44 279.18 424.92 290.5 418.5 279.89 412.78 272.95 401.97 272.81 390.57 272.65 377.44 279.18 366.92 290.5 360.5 279.89 354.78 272.95 343.97 272.81 332.57 272.65 319.44 279.18 308.92 290.5 302.5 279.89 296.78 272.95 285.97 272.81 274.57 272.65 261.44 279.18 250.92 290.5 244.5 279.89 238.78 272.95 227.97 272.81 216.57 272.65 203.44 279.18 192.92 290.5 186.5 279.89 180.78 272.95 169.97 272.81 158.57 272.65 145.44 279.18 134.92 290.5 128.5 279.89 122.78 272.95 111.97 272.81 100.57 272.65 87.44 279.18 76.92 290.5 70.5 279.89 64.78 272.95 53.97 272.81 42.57c-0.05-3.65 0.44-6.62 1.39-9.83m-87.4 0c0.95 3.21 1.43 6.18 1.39 9.83-0.14 11.4-7.08 22.21-17.69 27.93 11.32 6.42 17.85 16.94 17.69 30.07-0.14 11.4-7.08 22.21-17.69 27.93 11.32 6.42 17.85 16.94 17.69 30.07-0.14 11.4-7.08 22.21-17.69 27.93 11.32 6.42 17.85 16.94 17.69 30.07-0.14 11.4-7.08 22.21-17.69 27.93 11.32 6.42 17.85 16.94 17.69 30.07-0.14 11.4-7.08 22.21-17.69 27.93 11.32 6.42 17.85 16.94 17.69 30.07-0.14 11.4-7.08 22.21-17.69 27.93 11.32 6.42 17.85 16.94 17.69 30.07-0.14 11.4-7.08 22.21-17.69 27.93 11.32 6.42 17.85 16.94 17.69 30.07C188.05 459.97 179.47 472.11 167 475.5" id="path4390" style="fill:none;stroke:#000"/>
</svg>
