<?xml version="1.0" encoding="UTF-8" standalone="no"?>
<!-- Created with Inkscape (http://www.inkscape.org/) -->
<svg
   xmlns:svg="http://www.w3.org/2000/svg"
   xmlns="http://www.w3.org/2000/svg"
   version="1.0"
   width="494.91159"
   height="598.97998"
   id="svg1901">
  <defs
     id="defs1903" />
  <g
     transform="translate(-1.964881,-4.7589482)"
     style="opacity:1"
     id="layer1">
    <path
       d="M 427.6,126.2 L 76.5,126.3 L 76.5,422.2 C 76.6,498.2 123.40059,516.3 167.97852,540.4 C 198.9,557.4 228.78188,564.7 251.66863,591.2 C 274.5,564.7 302.576,557.9 335.35875,540.4 C 379.9,516.3 426.69769,498.2 426.82022,422.2 L 427.6,126.2 z "
       style="color:#000000;fill:#0098d1;fill-rule:nonzero;stroke:#000000;stroke-width:11;stroke-"
       id="path2680" />
    <path
       d="M 424.0,239.7 L 404.0,239.9 L 404.0,231.0 L 379.4,231.0 L 379.4,240.4 L 354.3,239.9 L 354.2,231.6 L 328.9,231.6 L 328.6,239.9 L 306.6,240.4 L 306.6,231.5 L 281.4,232.1 L 281.4,245.2 C 273.1,245.8 269.1221,250.7 267.82633,258.3 L 267.8,438.6 L 263.1,464.2 L 383.1,515.1 C 410.7,500.0 427.9591,478.7 427.68354,447.0 L 424.0,239.7 z "
       style="color:#000000;fill:#e1e1e1;fill-rule:nonzero;stroke:#000000;stroke-width:2;"
       id="path2434" />
    <path
       d="M 268.3,425.2 L 423.9,425.2 M 267.9,412.3 L 423.6,412.3 M 267.9,398.2 L 423.6,398.2 M 268.6,384.5 L 424.3,384.5 M 268.3,371.9 L 423.9,371.9 M 268.3,359.3 L 423.9,359.3 M 268.6,346.3 L 425.0,346.3 M 268.3,332.6 L 425.0,332.6 M 405.4,333.4 L 405.4,346.2 M 268.7,320.0 L 425.4,320.0 M 268.6,305.9 L 424.3,305.9 M 268.3,292.6 L 423.9,292.6 M 268.6,280.7 L 424.3,280.7 M 289.8,268.5 L 289.8,280.0 M 404.7,281.1 L 404.7,292.6 M 405.4,306.8 L 405.4,319.5 M 405.4,359.8 L 405.4,372.5 M 268.6,268.5 L 424.3,268.5 M 405.4,385.3 L 405.4,398.1 M 405.4,413.1 L 405.4,425.9 M 277.9,281.1 L 277.9,292.6 M 278.6,306.8 L 278.6,319.5 M 278.6,333.4 L 278.6,346.2 M 278.6,359.8 L 278.6,372.5 M 278.6,385.3 L 278.6,398.1 M 278.6,413.1 L 278.6,425.9 M 386.5,268.8 L 386.5,280.38111"
       style="color:#000000;fill:none;fill-rule:nonzero;stroke:#000000;stroke-width:2;stroke-"
       id="path2465" />
    <g
       style="stroke:#000000;stroke-opacity:1"
       id="g2538">
      <path
         d="M 416.3,432.5 L 401.5,496.8 L 401.5,496.80289"
         style="color:#000000;fill:none;fill-rule:nonzero;stroke:#000000;stroke-width:2;"
         id="path2498" />
      <path
         d="M 401.9,433.0 L 383.5,508.47997"
         style="color:#000000;fill:none;fill-rule:nonzero;stroke:#000000;stroke-width:2;"
         id="path2500" />
      <path
         d="M 372.3,433.9 L 357.4,498.1 L 357.4,498.15024"
         style="color:#000000;fill:none;fill-rule:nonzero;stroke:#000000;stroke-width:2;"
         id="path2504" />
      <path
         d="M 356.5,433.4 L 341.7,497.7 L 341.7,497.70112"
         style="color:#000000;fill:none;fill-rule:nonzero;stroke:#000000;stroke-width:2;"
         id="path2506" />
      <path
         d="M 341.7,435.2 L 326.9,499.4 L 326.9,499.49759"
         style="color:#000000;fill:none;fill-rule:nonzero;stroke:#000000;stroke-width:2;"
         id="path2508" />
      <path
         d="M 326.5,435.7 L 311.6,499.9 L 311.6,499.94671"
         style="color:#000000;fill:none;fill-rule:nonzero;stroke:#000000;stroke-width:2;"
         id="path2510" />
      <path
         d="M 313.9,435.2 L 299.1,499.4 L 299.1,499.49759"
         style="color:#000000;fill:none;fill-rule:nonzero;stroke:#000000;stroke-width:2;"
         id="path2512" />
      <path
         d="M 298.6,435.2 L 283.8,499.4 L 283.8,499.49759"
         style="color:#000000;fill:none;fill-rule:nonzero;stroke:#000000;stroke-width:2;"
         id="path2514" />
      <path
         d="M 283.8,437.0 L 269.0,501.2 L 269.0,501.29406"
         style="color:#000000;fill:none;fill-rule:nonzero;stroke:#000000;stroke-width:2;"
         id="path2516" />
      <path
         d="M 308.5,456.8 L 320.6,456.83136"
         style="color:#000000;fill:none;fill-rule:nonzero;stroke:#000000;stroke-width:2;"
         id="path2518" />
      <path
         d="M 337.2,456.8 L 349.4,456.83136"
         style="color:#000000;fill:none;fill-rule:nonzero;stroke:#000000;stroke-width:2;"
         id="path2520" />
      <path
         d="M 366.6,456.8 L 380.6,456.83136"
         style="color:#000000;fill:none;fill-rule:nonzero;stroke:#000000;stroke-width:2.15310621;"
         id="path2522" />
      <path
         d="M 395.4,456.8 L 409.8,456.83136"
         style="color:#000000;fill:none;fill-rule:nonzero;stroke:#000000;stroke-width:2.18243885;"
         id="path2524" />
      <path
         d="M 363.4,470.7 L 377.5,470.75403"
         style="color:#000000;fill:none;fill-rule:nonzero;stroke:#000000;stroke-width:2.15310621;"
         id="path2526" />
      <path
         d="M 321.2,462.2 L 335.3,462.22078"
         style="color:#000000;fill:none;fill-rule:nonzero;stroke:#000000;stroke-width:2.15310621;"
         id="path2528" />
      <path
         d="M 350.0,463.5 L 364.0,463.56813"
         style="color:#000000;fill:none;fill-rule:nonzero;stroke:#000000;stroke-width:2.15310621;"
         id="path2530" />
      <path
         d="M 378.8,463.5 L 394.4,463.56813"
         style="color:#000000;fill:none;fill-rule:nonzero;stroke:#000000;stroke-width:2.26930237;"
         id="path2532" />
      <path
         d="M 392.2,471.2 L 406.2,471.20314"
         style="color:#000000;fill:none;fill-rule:nonzero;stroke:#000000;stroke-width:2.15310621;"
         id="path2534" />
      <path
         d="M 375.2,481.0 L 390.9,481.08374"
         style="color:#000000;fill:none;fill-rule:nonzero;stroke:#000000;stroke-width:2.26930237;"
         id="path2536" />
    </g>
    <path
       d="M 267.9,438.2 L 424.7,431.96072"
       style="color:#000000;fill:none;fill-rule:nonzero;stroke:#000000;stroke-width:2;"
       id="path2467" />
    <path
       d="M 388.8,433.8 L 387.3,306.5 C 371.2,260.7 312.1779,256.2 287.74297,306.5 L 288.2,435.9 L 388.8,433.8 z "
       style="color:#000000;fill:#0098d1;fill-rule:nonzero;stroke:#000000;stroke-width:2;"
       id="path2436" />
    <path
       d="M 326.8,325.6 L 326.4,331.6 C 320.2,333.0 312.77867,340.2 305.42585,347.1 L 301.5,337.2 C 302.4,320.8 299.05359,309.8 287.40916,309.3 C 282.5,316.0 281.15601,322.6 286.55122,329.3 L 288.8,435.8 L 382.2,433.9 L 380.4,410.6 C 402.2,383.4 391.62865,362.9 374.91881,343.7 C 369.1,335.1 360.02176,331.0 350.89655,326.9 L 351.3,319.6 L 326.8,325.6 z "
       style="color:#000000;fill:#e1e1e1;fill-rule:nonzero;stroke:#000000;stroke-width:2;"
       id="path7353" />
    <path
       d="M 191.2,234.0 L 191.6,213.30067"
       style="color:#000000;fill:none;fill-rule:nonzero;stroke:#000000;stroke-width:2;"
       id="path2431" />
    <path
       d="M 219.0,243.1 L 219.0,434.9 L 230.6,434.9 L 230.6,242.0 C 229.7,229.0 220.34615,229.2 219.08299,243.1 z "
       style="color:#000000;fill:#e1e1e1;fill-rule:nonzero;stroke:#000000;stroke-width:2;"
       id="path2297" />
    <path
       d="M 211.9,310.6 C 210.8,309.9 212.44501,308.9 213.19754,308.9 C 218.7,312.2 213.9062,324.1 206.763,318.8 C 194.7,308.7 208.62545,298.4 218.34516,302.0 C 224.0,305.3 225.90001,310.3 222.20588,318.3 L 202.4,370.30165"
       style="fill:none;fill-opacity:0.75;fill-rule:evenodd;stroke:#000000;stroke-width:4;stroke-opacity:1"
       id="path7320" />
    <path
       d="M 171.1,320.9 C 167.1,324.5 164.8222,328.2 169.87168,332.9 C 173.2,344.0 182.34371,342.3 190.03322,343.7 L 190.0,330.4 L 194.7,330.4 C 194.3,325.4 192.24926,321.3 189.60425,317.5 L 189.6,309.3 C 190.8,305.0 191.05275,300.8 186.60147,296.5 C 182.5,294.9 180.24343,296.9 178.45106,299.9 C 167.9,311.0 158.64797,310.6 149.28117,310.6 C 147.8,317.3 150.68995,321.9 156.14468,325.2 L 160.8,339.8 C 156.9,340.3 152.49276,340.1 157.43158,354.0 L 138.5,377.5 L 140.7,438.9 L 229.9,440.6 C 228.3,424.0 230.04978,411.9 222.20588,387.0 C 227.7,378.8 230.701,366.2 231.6432,350.1 C 231.1,344.4 240.70248,342.1 238.5067,325.6 C 238.5,323.5 231.82334,318.7 226.49557,320.9 C 224.9,334.8 225.70379,345.2 215.77135,362.5 L 211.0,365.1 L 196.8,351.8 L 194.7,362.5 L 186.6,356.5 L 185.3,344.1 L 185.3,344.13455"
       style="color:#000000;fill:#e1e1e1;fill-rule:nonzero;stroke:#000000;stroke-width:2;"
       id="path7306" />
    <path
       d="M 323.0,295.2 L 351.7,295.2 L 359.4,281.9 L 349.6,287.9 L 343.6,287.9 L 337.1,275.0 L 332.4,288.3 L 326.0,288.3 L 315.7,281.5 L 323.0,295.2 z "
       style="color:#000000;fill:#e1e1e1;fill-rule:nonzero;stroke:#000000;stroke-width:2;"
       id="path7273" />
    <path
       d="M 350.4,296.5 C 350.4,305.9 361.94773,320.0 346.60686,322.2 L 350.4,296.5 z "
       style="color:#000000;fill:#e1e1e1;fill-rule:nonzero;stroke:#000000;stroke-width:2;"
       id="path7277" />
    <path
       d="M 323.8,310.2 L 335.4,325.2 L 335.4,325.2 C 325.7,326.0 317.76623,325.2 323.87151,310.2 z "
       style="color:#000000;fill:#e1e1e1;fill-rule:nonzero;stroke:#000000;stroke-width:2;"
       id="path7279" />
    <path
       d="M 323.4,295.6 L 324.3,313.2 C 326.5,318.6 330.36206,322.7 333.7378,326.9 C 339.2,327.9 343.99371,326.8 348.32274,324.4 C 350.9,315.6 349.51077,304.9 350.03861,295.2 L 323.4,295.6 z "
       style="color:#000000;fill:#e1e1e1;fill-rule:nonzero;stroke:#000000;stroke-width:2;"
       id="path7275" />
    <path
       d="M 341.4,306.3 L 341.4,306.3 z "
       style="color:#000000;fill:none;fill-rule:nonzero;stroke:#ff0000;stroke-width:1;"
       id="path7281" />
    <path
       d="M 333.7,306.3 C 332.7,304.9 329.65861,304.5 326.44532,304.24044"
       style="color:#000000;fill:none;fill-rule:nonzero;stroke:#000000;stroke-width:2;"
       id="path7283" />
    <path
       d="M 341.0,319.2 L 334.1,319.68332"
       style="color:#000000;fill:none;fill-rule:nonzero;stroke:#000000;stroke-width:2;"
       id="path7285" />
    <path
       d="M 334.5,306.3 C 334.9,309.4 332.29677,315.5 336.74058,314.53569"
       style="color:#000000;fill:none;fill-rule:nonzero;stroke:#000000;stroke-width:2;"
       id="path7287" />
    <path
       d="M 341.4,306.8 C 343.4,304.7 345.46295,303.5 347.4648,303.81147"
       style="color:#000000;fill:none;fill-rule:nonzero;stroke:#000000;stroke-width:2;"
       id="path7289" />
    <path
       d="M 325.5,409.3 L 324.3,358.2 L 250.0,358.2 L 250.0,411.0 L 250.0,411.05369"
       style="color:#000000;fill:none;fill-rule:nonzero;stroke:#000000;stroke-width:2;"
       id="path7291" />
    <path
       d="M 238.0,410.6 L 250.0,358.2 L 263.8,411.05369"
       style="color:#000000;fill:none;fill-rule:nonzero;stroke:#000000;stroke-width:2;"
       id="path7293" />
    <path
       d="M 310.5,409.3 L 323.8,358.2 L 336.7,408.05091"
       style="color:#000000;fill:none;fill-rule:nonzero;stroke:#000000;stroke-width:2;"
       id="path7295" />
    <path
       d="M 237.6,410.1 C 238.5,424.3 263.16212,426.0 263.3869,410.1 L 237.6,410.1 z "
       style="color:#000000;fill:#b7b7b7;fill-rule:nonzero;stroke:#000000;stroke-width:2;"
       id="path7299" />
    <path
       d="M 311.0,408.4 C 311.9,422.6 336.5158,424.2 336.74058,408.4 L 311.0,408.4 z "
       style="color:#000000;fill:#b7b7b7;fill-rule:nonzero;stroke:#000000;stroke-width:2;"
       id="path7301" />
    <path
       d="M 188.7,308.1 C 176.6,311.9 165.94845,317.9 156.14468,325.25992"
       style="color:#000000;fill:none;fill-rule:nonzero;stroke:#000000;stroke-width:2;"
       id="path7308" />
    <path
       d="M 181.8,319.2 C 186.0,317.5 186.82564,317.7 188.74631,317.10951"
       style="color:#000000;fill:none;fill-rule:nonzero;stroke:#000000;stroke-width:2;"
       id="path7310" />
    <path
       d="M 189.6,335.9 L 184.8,334.69723"
       style="color:#000000;fill:none;fill-rule:nonzero;stroke:#000000;stroke-width:2;"
       id="path7312" />
    <path
       d="M 216.6,361.7 C 221.2,379.2 213.18036,405.3 196.03878,437.64976"
       style="color:#000000;fill:none;fill-rule:nonzero;stroke:#000000;stroke-width:2;"
       id="path7323" />
    <path
       d="M 222.6,390.0 C 223.1,406.5 224.87674,423.4 222.20588,438.93667"
       style="color:#000000;fill:none;fill-rule:nonzero;stroke:#000000;stroke-width:2;"
       id="path7325" />
    <path
       d="M 209.3,440.2 L 220.4,390.8 C 222.4,382.8 218.20296,370.1 216.62929,362.15124"
       style="color:#000000;fill:none;fill-rule:nonzero;stroke:#000000;stroke-width:2;"
       id="path7327" />
    <path
       d="M 213.1,363.8 C 193.2,383.3 187.18609,401.6 179.309,420.06204"
       style="color:#000000;fill:none;fill-rule:nonzero;stroke:#000000;stroke-width:2;"
       id="path7329" />
    <path
       d="M 194.3,408.4 L 194.7,388.74731"
       style="color:#000000;fill:none;fill-rule:nonzero;stroke:#000000;stroke-width:2;"
       id="path7331" />
    <path
       d="M 162.5,369.8 L 145.8,389.60525"
       style="color:#000000;fill:none;fill-rule:nonzero;stroke:#000000;stroke-width:2;"
       id="path7333" />
    <path
       d="M 166.4,375.4 C 160.7,386.4 153.77744,394.7 145.84942,401.18741"
       style="color:#000000;fill:none;fill-rule:nonzero;stroke:#000000;stroke-width:2;"
       id="path7335" />
    <path
       d="M 179.7,375.4 C 170.2,390.4 158.15079,402.7 144.13355,413.19854"
       style="color:#000000;fill:none;fill-rule:nonzero;stroke:#000000;stroke-width:2;"
       id="path7337" />
    <path
       d="M 186.6,375.4 C 178.5,392.0 165.72312,407.2 146.27839,420.49101"
       style="color:#000000;fill:none;fill-rule:nonzero;stroke:#000000;stroke-width:2;"
       id="path7339" />
    <path
       d="M 145.4,434.6 C 172.0,410.9 189.11052,388.8 195.18084,368.58577"
       style="color:#000000;fill:none;fill-rule:nonzero;stroke:#000000;stroke-width:2;"
       id="path7341" />
    <path
       d="M 186.6,356.5 C 177.3,353.8 169.46854,347.0 161.2923,341.13176"
       style="color:#000000;fill:none;fill-rule:nonzero;stroke:#000000;stroke-width:2;"
       id="path7343" />
    <path
       d="M 157.8,354.0 C 169.4,360.4 178.53521,369.3 196.46775,369.4 L 195.1,360.4 L 191.3,365.1 C 178.7,358.1 164.49312,352.8 156.14468,341.5 L 156.1,341.56073"
       style="color:#000000;fill:none;fill-rule:nonzero;stroke:#000000;stroke-width:2;"
       id="path7345" />
    <path
       d="M 161.7,435.5 C 166.8,416.6 174.94751,399.8 192.60703,390.03422"
       style="color:#000000;fill:none;fill-rule:nonzero;stroke:#000000;stroke-width:2;"
       id="path7349" />
    <path
       d="M 341.8,339.8 C 348.1,340.1 351.52238,336.6 350.89655,327.83373"
       style="color:#000000;fill:none;fill-rule:nonzero;stroke:#000000;stroke-width:2;"
       id="path7355" />
    <path
       d="M 335.8,342.4 C 332.1,341.2 329.01914,337.8 326.44532,332.12342"
       style="color:#000000;fill:none;fill-rule:nonzero;stroke:#000000;stroke-width:2;"
       id="path7357" />
    <path
       d="M 336.7,350.1 C 349.9,356.0 354.92563,346.8 355.61521,329.97857"
       style="color:#000000;fill:none;fill-rule:nonzero;stroke:#000000;stroke-width:2;"
       id="path7359" />
    <path
       d="M 344.4,358.7 C 357.3,353.3 354.51433,340.7 355.61521,329.97857"
       style="color:#000000;fill:none;fill-rule:nonzero;stroke:#000000;stroke-width:2;"
       id="path7361" />
    <path
       d="M 361.6,435.0 C 368.7,415.5 371.52269,394.7 370.62912,372.87546"
       style="color:#000000;fill:none;fill-rule:nonzero;stroke:#000000;stroke-width:2;"
       id="path7363" />
    <path
       d="M 382.2,387.8 L 370.6,372.0 L 370.6,372.0 C 368.5,378.8 363.17904,374.1 359.04696,373.7334"
       style="color:#000000;fill:none;fill-rule:nonzero;stroke:#000000;stroke-width:2;"
       id="path7365" />
    <path
       d="M 365.0,365.1 L 371.4,372.4 L 376.6,364.29608"
       style="color:#000000;fill:none;fill-rule:nonzero;stroke:#000000;stroke-width:2;"
       id="path7367" />
    <path
       d="M 381.7,374.5 L 370.6,372.44649"
       style="color:#000000;fill:none;fill-rule:nonzero;stroke:#000000;stroke-width:2;"
       id="path7369" />
    <path
       d="M 380.0,410.1 C 375.0,402.8 374.15638,388.5 372.345,375.87824"
       style="color:#000000;fill:none;fill-rule:nonzero;stroke:#000000;stroke-width:2;"
       id="path7371" />
    <path
       d="M 308.8,427.7 C 294.9,402.9 295.80463,370.8 295.1306,339.41589"
       style="color:#000000;fill:none;fill-rule:nonzero;stroke:#000000;stroke-width:2;"
       id="path7373" />
    <path
       d="M 300.7,437.2 C 290.1,414.1 289.58689,382.6 286.55122,353.14289"
       style="color:#000000;fill:none;fill-rule:nonzero;stroke:#000000;stroke-width:2;"
       id="path7375" />
    <path
       d="M 287.4,328.6 C 290.4,330.5 292.65373,334.9 293.41472,340.27383"
       style="color:#000000;fill:none;fill-rule:nonzero;stroke:#000000;stroke-width:2;"
       id="path7377" />
    <path
       d="M 302.4,339.8 C 296.9,341.7 292.11184,339.6 286.98019,339.41589"
       style="color:#000000;fill:none;fill-rule:nonzero;stroke:#000000;stroke-width:2;"
       id="path7379" />
    <path
       d="M 285.0,313.9 C 296.7,320.1 293.59177,324.9 283.74768,318.21873"
       style="color:#000000;fill:none;fill-rule:nonzero;stroke:#000000;stroke-width:2;"
       id="path7381" />
    <path
       d="M 330.7,352.7 L 320.8,335.98414"
       style="color:#000000;fill:none;fill-rule:nonzero;stroke:#000000;stroke-width:2;"
       id="path7383" />
    <path
       d="M 322.5,355.2 L 316.5,339.41589"
       style="color:#000000;fill:none;fill-rule:nonzero;stroke:#000000;stroke-width:2;"
       id="path7385" />
    <path
       d="M 314.8,352.2 L 311.8,342.41867"
       style="color:#000000;fill:none;fill-rule:nonzero;stroke:#000000;stroke-width:2;"
       id="path7387" />
    <path
       d="M 374.9,344.1 C 365.8,358.3 362.37443,365.3 353.89933,369.87268"
       style="color:#000000;fill:none;fill-rule:nonzero;stroke:#000000;stroke-width:2;"
       id="path7389" />
    <path
       d="M 363.3,334.6 C 363.4,343.1 364.09386,351.3 362.04974,360.86433"
       style="color:#000000;fill:none;fill-rule:nonzero;stroke:#000000;stroke-width:2;"
       id="path7391" />
    <path
       d="M 360.3,374.1 C 360.2,387.6 360.43409,401.2 354.75727,413.6 C 355.0,401.2 355.38487,388.9 353.47036,384.45762"
       style="color:#000000;fill:none;fill-rule:nonzero;stroke:#000000;stroke-width:2;"
       id="path7393" />
    <path
       d="M 359.4,374.1 C 348.7,367.4 337.86976,360.4 331.59295,362.5 C 329.3,367.8 326.26646,373.4 332.87986,375.4 C 342.6,376.0 351.15305,380.3 358.61799,387.88937"
       style="color:#000000;fill:none;fill-rule:nonzero;stroke:#000000;stroke-width:2;"
       id="path7395" />
    <path
       d="M 311.4,383.1 C 308.0,371.3 305.79531,359.4 305.85482,347.5663"
       style="color:#000000;fill:none;fill-rule:nonzero;stroke:#000000;stroke-width:2;"
       id="path7397" />
    <path
       d="M 353.6,434.8 C 349.6,416.7 350.98152,400.4 350.03861,382.3 C 348.8,399.4 346.6911,414.5 347.62056,434.84105"
       style="color:#000000;fill:none;fill-rule:nonzero;stroke:#000000;stroke-width:2;"
       id="path7399" />
    <path
       d="M 287.8,317.1 L 286.5,358.29052"
       style="color:#000000;fill:none;fill-rule:nonzero;stroke:#000000;stroke-width:2;"
       id="path7402" />
    <path
       d="M 73.3,245.9 L 192.1,235.1 L 228.6,294.8 L 144.5,299.5 L 144.5,433.7 L 231.6,436.3 L 236.7,459.5 C 186.8,467.8 191.32135,591.5 86.948091,484.5 L 74.9,455.7 L 73.3,245.9 z "
       style="color:#000000;fill:#e1e1e1;fill-rule:nonzero;stroke:#000000;stroke-width:2;"
       id="path7404" />
    <path
       d="M 151.4,298.2 L 191.7,235.17645"
       style="color:#000000;fill:none;fill-rule:nonzero;stroke:#000000;stroke-width:2;"
       id="path7406" />
    <path
       d="M 197.1,364.4 L 200.1,377.76336"
       style="color:#000000;fill:none;fill-rule:nonzero;stroke:#000000;stroke-width:2;"
       id="path7409" />
    <path
       d="M 193.4 272.06778 A 3.431751 3.431751 0 1 1  186.60147,272.0 A 3.431751 3.431751 0 1 1  193.46497 272.06778 z"
       style="fill:none;fill-rule:evenodd;stroke:#000000;stroke-width:2;stroke-linecap:round;stroke-opacity:1"
       id="path7411" />
    <g
       id="g2291">
      <path
         d="M 193.4 272.06778 A 3.431751 3.431751 0 1 1  186.60147,272.0 A 3.431751 3.431751 0 1 1  193.46497 272.06778 z"
         transform="matrix(1.296611,0,0,1.296611,-56.365945,-89.532868)"
         style="fill:none;fill-rule:evenodd;stroke:#000000;stroke-width:1.54248261;stroke-linecap:round;stroke-opacity:1"
         id="path7429" />
      <path
         d="M 193.4 272.06778 A 3.431751 3.431751 0 1 1  186.60147,272.0 A 3.431751 3.431751 0 1 1  193.46497 272.06778 z"
         transform="matrix(1.296611,0,0,1.296611,-56.365945,-71.863728)"
         style="fill:none;fill-rule:evenodd;stroke:#000000;stroke-width:1.54248261;stroke-linecap:round;stroke-opacity:1"
         id="path7431" />
      <path
         d="M 193.4 272.06778 A 3.431751 3.431751 0 1 1  186.60147,272.0 A 3.431751 3.431751 0 1 1  193.46497 272.06778 z"
         transform="matrix(0,1.296611,-1.296611,0,551.63387,25.668616)"
         style="fill:none;fill-rule:evenodd;stroke:#000000;stroke-width:1.54248261;stroke-linecap:round;stroke-opacity:1"
         id="path7433" />
      <path
         d="M 193.4 272.06778 A 3.431751 3.431751 0 1 1  186.60147,272.0 A 3.431751 3.431751 0 1 1  193.46497 272.06778 z"
         transform="matrix(0,1.296611,-1.296611,0,533.96472,25.668616)"
         style="fill:none;fill-rule:evenodd;stroke:#000000;stroke-width:1.54248261;stroke-linecap:round;stroke-opacity:1"
         id="path7435" />
      <path
         d="M 193.4 272.06778 A 3.431751 3.431751 0 1 1  186.60147,272.0 A 3.431751 3.431751 0 1 1  193.46497 272.06778 z"
         transform="matrix(0.9519664,0.8803182,-0.8803182,0.9519664,254.63233,-160.7076)"
         style="fill:none;fill-rule:evenodd;stroke:#000000;stroke-width:1.54248261;stroke-linecap:round;stroke-opacity:1"
         id="path7451" />
      <path
         d="M 193.4 272.06778 A 3.431751 3.431751 0 1 1  186.60147,272.0 A 3.431751 3.431751 0 1 1  193.46497 272.06778 z"
         transform="matrix(0.9519664,0.8803182,-0.8803182,0.9519664,242.63608,-147.735)"
         style="fill:none;fill-rule:evenodd;stroke:#000000;stroke-width:1.54248261;stroke-linecap:round;stroke-opacity:1"
         id="path7453" />
      <path
         d="M 193.4 272.06778 A 3.431751 3.431751 0 1 1  186.60147,272.0 A 3.431751 3.431751 0 1 1  193.46497 272.06778 z"
         transform="matrix(-0.8803182,0.9519664,-0.9519664,-0.8803182,622.8086,336.6669)"
         style="fill:none;fill-rule:evenodd;stroke:#000000;stroke-width:1.54248261;stroke-linecap:round;stroke-opacity:1"
         id="path7455" />
      <path
         d="M 193.4 272.06778 A 3.431751 3.431751 0 1 1  186.60147,272.0 A 3.431751 3.431751 0 1 1  193.46497 272.06778 z"
         transform="matrix(-0.8803182,0.9519664,-0.9519664,-0.8803182,609.83598,324.67064)"
         style="fill:none;fill-rule:evenodd;stroke:#000000;stroke-width:1.54248261;stroke-linecap:round;stroke-opacity:1"
         id="path7457" />
    </g>
    <path
       d="M 75.6,305.9 L 137.6,305.82605"
       style="color:#000000;fill:none;fill-rule:nonzero;stroke:#000000;stroke-width:2;"
       id="path7463" />
    <path
       d="M 72.2,251.8 L 112.2,304.8 M 99.0,243.6 L 72.8,264.0 M 72.0,274.1 L 95.6,305.2 M 179.2,253.9 L 112.6,305.4 M 85.9,245.1 L 131.6,305.4 M 104.5,243.6 L 146.0,298.9 M 121.9,241.4 L 157.5,288.9 M 136.7,238.8 L 165.2,277.0 M 156.3,238.1 L 174.5,261.8 M 122.6,241.5 L 71.8,278.7 M 147.8,239.4 L 71.2,296.0 M 179.6,236.4 L 83.2,305.6 M 172.1,236.5 L 181.8,249.27168"
       style="color:#000000;fill:none;fill-rule:nonzero;stroke:#000000;stroke-width:2;stroke-"
       id="path7475" />
    <path
       d="M 75.9,400.3 L 140.4,400.35444"
       style="color:#000000;fill:none;fill-rule:nonzero;stroke:#000000;stroke-width:2;"
       id="path2266" />
    <path
       d="M 75.4,320.6 L 139.9,320.6 M 74.9,333.2 L 139.4,333.2 M 75.4,345.8 L 139.9,345.8 M 75.4,359.4 L 139.9,359.4 M 74.9,374.1 L 139.4,374.1 M 74.9,386.2 L 139.4,386.2 M 75.9,412.4 L 140.4,412.4 M 75.4,424.4 L 139.9,424.4 M 107.9,320.1 L 107.9,332.7 M 93.8,306.5 L 93.8,320.3 M 94.3,332.2 L 94.3,344.7 M 108.4,345.8 L 108.4,358.4 M 94.8,359.9 L 94.8,373.8 M 108.4,374.6 L 108.4,387.2 M 94.8,386.7 L 94.8,399.3 M 107.9,400.3 L 107.9,412.9 M 94.3,412.4 L 94.3,424.98818"
       style="color:#000000;fill:none;fill-rule:nonzero;stroke:#000000;stroke-width:2;stroke-"
       id="path2254" />
    <path
       d="M 134.6,243.1 L 134.6,434.9 L 146.2,434.9 L 146.2,242.0 C 145.4,229.0 135.96251,229.2 134.69935,243.1 z "
       style="color:#000000;fill:#e1e1e1;fill-rule:nonzero;stroke:#000000;stroke-width:2;"
       id="path2293" />
    <path
       d="M 93.4,433.9 L 111.3,507.5 M 109.5,434.3 L 124.4,498.5 L 124.4,498.5 M 139.2,434.3 L 157.1,493.6 M 155.3,435.2 L 172.0,490.5 M 172.0,435.2 L 188.6,490.9 M 186.3,436.1 L 202.5,493.6 M 200.3,436.1 L 217.3,489.1 M 215.5,436.6 L 232.6,496.8 M 125.3,433.9 L 141.4,497.7 M 191.7,457.2 L 179.6,457.2 M 147.6,464.4 L 133.3,464.4 M 114.3,458.1 L 99.8,458.1 M 151.6,478.3 L 136.0,478.3 M 180.6,463.5 L 164.6,463.5 M 161.5,458.6 L 147.4,458.6 M 131.7,458.1 L 116.1,458.1 M 119.6,481.0 L 104.4,481.0 M 135.8,473.4 L 118.3,473.44872"
       style="color:#000000;fill:none;fill-rule:nonzero;stroke:#000000;stroke-width:2;stroke-"
       id="path2561" />
    <path
       d="M 135.2,243.6 L 146.2,243.11784"
       style="color:#000000;fill:none;fill-rule:nonzero;stroke:#000000;stroke-width:2;"
       id="path2295" />
    <path
       d="M 219.6,243.6 L 230.6,243.11784"
       style="color:#000000;fill:none;fill-rule:nonzero;stroke:#000000;stroke-width:2;"
       id="path2299" />
    <path
       d="M 265.3,35.4 L 266.0,5.7 L 297.2,7.2 L 295.7,36.8 L 327.6,39.8 L 331.3,10.9 L 363.1,15.3 L 358.0,45.0 L 389.1,50.9 L 396.0,21.8 C 407.6,24.5 415.03715,26.7 424.7193,29.4 L 417.1,57.7 L 451.4,68.8 L 464.9,41.4 C 476.0,44.4 484.75815,48.1 495.87646,53.1 L 443.2,127.3 C 329.9,87.3 177.51473,86.3 55.591532,128.0 L 2.9,53.1 C 14.0,48.1 23.562229,43.9 34.680539,40.8 L 47.4,67.2 L 80.5,58.2 L 72.7,30.0 C 82.4,27.3 91.170128,24.3 102.79441,21.5 L 109.7,50.9 L 140.8,45.0 L 135.6,15.3 L 167.5,10.9 L 171.2,39.8 L 203.0,36.8 L 201.6,7.2 L 232.7,5.7 L 233.4,35.4 L 264.6,35.407765"
       style="color:#000000;fill:#e1e1e1;fill-rule:nonzero;stroke:#000000;stroke-width:2;stroke-"
       id="path2302" />
    <path
       d="M 63.8,112.0 L 67.5,123.92663"
       style="color:#000000;fill:none;fill-rule:nonzero;stroke:#000000;stroke-width:2;"
       id="path2407" />
    <path
       d="M 191.2,204.7 C 194.5,197.9 194.1185,190.5 190.49365,191.4 C 184.7,191.8 186.34831,200.3 191.23487,204.7 z "
       style="color:#000000;fill:#e1e1e1;fill-rule:nonzero;stroke:#000000;stroke-width:2;"
       id="path2423" />
    <path
       d="M 191.2,206.5 C 194.5,213.4 194.1185,220.7 190.49365,219.8 C 184.7,219.5 186.34831,211.0 191.23487,206.5 z "
       style="color:#000000;fill:#e1e1e1;fill-rule:nonzero;stroke:#000000;stroke-width:2;"
       id="path2425" />
    <path
       d="M 190.2,206.1 C 183.3,209.5 175.96845,209.0 176.86139,205.4 C 177.2,199.7 185.75604,201.2 190.20336,206.1 z "
       style="color:#000000;fill:#e1e1e1;fill-rule:nonzero;stroke:#000000;stroke-width:2;"
       id="path2427" />
    <path
       d="M 191.9,206.1 C 198.8,209.5 206.21766,209.0 205.32472,205.4 C 204.9,199.7 196.43007,201.2 191.98275,206.1 z "
       style="color:#000000;fill:#e1e1e1;fill-rule:nonzero;stroke:#000000;stroke-width:2;"
       id="path2429" />
    <path
       d="M 269.8,257.0 L 282.7,256.6 L 282.4,247.0 L 305.3,247.0 L 305.3,256.2 L 328.3,256.2 L 328.7,246.2 L 352.4,246.2 L 352.4,255.1 L 379.1,255.1 L 379.3,246.6 L 404.6,246.6 L 404.7,254.8 L 423.2,255.06323"
       style="color:#000000;fill:none;fill-rule:nonzero;stroke:#000000;stroke-width:2;"
       id="path2439" />
    <path
       d="M 385.7,434.8 L 370.9,499.0 L 370.9,499.04848"
       style="color:#000000;fill:none;fill-rule:nonzero;stroke:#000000;stroke-width:2;"
       id="path2502" />
    <path
       d="M 391.6,510.2 C 331.3,445.4 184.28208,435.3 115.42339,508.9 C 161.5,534.6 211.05955,554.5 250.60799,591.1 C 281.2,562.8 332.40743,536.2 391.63113,510.2 z "
       style="color:#000000;fill:#0098d1;fill-rule:nonzero;stroke:#000000;stroke-width:2;"
       id="path2663" />
    <path
       d="M 262.7,548.4 C 254.2,553.5 246.6456,552.0 239.38004,547.5 C 225.0,548.1 213.29937,545.3 206.14528,536.3 C 170.3,519.5 179.12725,497.5 188.18055,488.2 C 198.2,473.6 271.92572,464.0 308.09513,482.4 C 336.6,503.9 312.39141,533.7 293.72335,536.7 C 282.7,548.8 272.55317,550.6 262.73419,548.4 z "
       style="color:#000000;fill:none;fill-rule:nonzero;stroke:#000000;stroke-width:2;"
       id="path2661" />
    <path
       d="M 284.7,531.8 C 292.6,533.0 301.96977,525.8 297.31629,512.9 C 292.2,497.5 279.15166,499.5 267.22537,499.0 L 259.1,535.8 C 258.8,538.4 277.86579,548.1 284.74098,531.8 z "
       style="color:#000000;fill:#e1e1e1;fill-rule:nonzero;stroke:#000000;stroke-width:2;"
       id="path2620" />
    <path
       d="M 241.6,538.1 C 233.8,543.6 216.98718,537.9 209.28911,530.9 C 194.1,527.6 193.56956,510.1 202.10322,498.1 C 213.8,485.8 231.52295,492.0 234.88885,496.8 L 241.6,538.1 z "
       style="color:#000000;fill:#e1e1e1;fill-rule:nonzero;stroke:#000000;stroke-width:2;"
       id="path2622" />
    <path
       d="M 296.8,525.9 C 306.1,511.0 300.79315,501.3 291.02864,495.9 C 280.9,491.2 270.07875,491.7 265.42889,496.8 C 283.6,499.0 303.81096,505.9 296.86717,525.9 z "
       style="color:#000000;fill:#c0c0c0;fill-rule:nonzero;stroke:#000000;stroke-width:2;"
       id="path2659" />
    <path
       d="M 231.2,495.9 C 233.0,481.2 269.71004,481.7 270.81831,494.5 C 271.6,509.4 267.73263,523.5 261.38683,537.2 C 254.0,545.5 246.71564,544.4 239.38004,537.2 C 234.4,524.5 231.46023,510.9 231.29591,495.9 z "
       style="color:#000000;fill:#e1e1e1;fill-rule:nonzero;stroke:#000000;stroke-width:2;"
       id="path2626" />
    <path
       d="M 249.7,505.7 C 249.7,511.1 247.31391,518.9 252.85358,518.8 M 244.3,496.8 C 248.2,497.1 250.72512,496.0 251.05711,492.7 C 252.0,495.3 252.23333,498.5 257.79388,497.7 M 239.8,503.9 L 246.5,503.9 M 255.5,503.9 L 262.7,503.9 M 242.9,521.9 L 242.9,525.9 L 258.6,525.9 L 258.2,521.9 M 247.0,533.6 C 249.7,536.6 251.80564,536.6 253.3027,533.63059"
       style="color:#000000;fill:none;fill-rule:nonzero;stroke:#000000;stroke-width:2;stroke-"
       id="path2628" />
    <path
       d="M 276.6,515.2 C 271.6,519.4 272.29263,521.8 274.41126,523.7 M 283.3,514.3 L 288.7,518.3 M 279.3,512.5 L 273.0,508.4 M 268.5,525.9 L 273.9,530.4 M 265.4,533.1 C 267.6,533.4 269.75335,534.1 270.81831,536.77441"
       style="color:#000000;fill:none;fill-rule:nonzero;stroke:#000000;stroke-width:2;stroke-"
       id="path2640" />
    <path
       d="M 203.4,507.5 C 208.2,499.7 214.79675,495.8 223.21178,496.3 M 225.4,507.1 L 232.6,503.9 M 211.9,516.5 L 217.3,513.4 M 225.4,511.6 C 227.4,515.9 231.69274,521.1 228.15208,523.3 M 230.3,530.0 C 231.3,527.7 233.67499,526.7 235.78709,525.54646"
       style="color:#000000;fill:none;fill-rule:nonzero;stroke:#000000;stroke-width:2;stroke-"
       id="path2624" />
    <path
       d="M 427.6,126.2 L 76.5,126.3 L 76.5,422.2 C 76.6,498.2 123.40059,516.3 167.97852,540.4 C 198.9,557.4 228.78188,564.7 251.66863,591.2 C 274.5,564.7 302.576,557.9 335.35875,540.4 C 379.9,516.3 426.69769,498.2 426.82022,422.2 L 427.6,126.2 z "
       style="color:#000000;fill:none;fill-rule:nonzero;stroke:#000000;stroke-width:11;stroke-"
       id="path4636" />
    <path
       d="M 81.1,434.6 L 230.2,435.38974"
       style="color:#000000;fill:none;fill-rule:nonzero;stroke:#000000;stroke-width:2;"
       id="path6576" />
    <path
       d="M 451.4,113.2 C 308.9,70.1 189.28563,71.2 46.696886,116.2 M 477.9,77.7 C 323.2,21.1 170.30069,22.8 21.495392,76.9 M 469.9,88.7 C 315.9,34.4 175.48923,37.6 28.166376,88.0 M 465.4,94.7 C 311.4,44.0 182.16022,45.8 31.872477,93.2 M 458.8,105.0 C 315.6,56.7 187.80319,59.3 37.802241,104.3 M 392.1,34.6 L 421.7,42.8 M 406.1,38.3 L 401.7,53.1 L 401.7,53.1 M 458.0,53.1 L 486.9,64.3 M 482.5,48.0 L 476.6,59.8 M 466.2,56.9 L 459.5,70.2 M 360.9,28.7 L 330.5,23.5 M 346.8,13.1 L 343.9,25.0 M 451.4,68.0 L 446.2,80.6 M 423.2,60.6 L 420.2,73.2 M 385.4,51.7 L 383.2,63.5 M 352.8,45.0 L 351.3,56.9 M 318.7,39.8 L 317.9,51.7 M 286.8,37.6 L 286.8,49.4 M 426.2,94.7 L 423.9,104.3 M 393.5,87.2 L 392.1,96.1 M 360.9,79.8 L 360.2,90.2 M 331.3,75.4 L 329.8,85.8 M 298.7,71.7 L 298.7,82.7 M 272.7,70.3 L 272.7,81.3 M 435.8,108.7 L 431.0,122.2 M 407.6,101.3 L 403.9,113.9 M 376.5,93.9 L 373.5,107.3 M 346.1,88.0 L 343.6,103.0 M 313.5,85.0 L 312.7,98.4 M 285.3,83.5 L 284.6,96.1 M 106.7,34.6 L 77.0,42.8 M 92.6,38.3 L 97.0,53.1 L 97.0,53.1 M 40.7,53.1 L 11.8,64.3 M 16.3,48.0 L 22.2,59.8 M 32.6,56.9 L 39.2,70.2 M 137.8,28.7 L 168.2,23.5 M 151.9,13.1 L 154.9,25.0 M 47.4,68.0 L 52.6,80.6 M 75.6,60.6 L 78.5,73.2 M 113.4,51.7 L 115.6,63.5 M 146.0,45.0 L 147.5,56.9 M 180.1,39.8 L 180.8,51.7 M 211.9,37.6 L 211.9,49.4 M 72.6,94.7 L 75.6,107.0 M 105.2,87.2 L 107.5,98.6 M 137.8,79.8 L 139.7,92.1 M 167.5,75.4 L 169.5,87.7 M 200.1,71.7 L 200.1,83.2 M 226.0,70.6 L 226.0,81.3 M 91.9,103.0 L 95.6,115.6 M 122.5,95.6 L 125.5,108.9 M 152.9,90.4 L 155.1,103.8 M 185.3,85.0 L 186.0,100.0 M 213.4,83.5 L 214.4,98.1 M 202.5,20.2 L 232.6,18.9 L 232.6,18.9 M 210.6,7.2 L 210.6,18.9 M 221.4,19.8 L 221.8,34.6 M 266.3,20.2 L 295.5,21.1 M 286.5,6.8 L 286.1,20.5 M 273.9,19.8 L 272.8,34.6 M 248.0,36.5 L 248.0,48.3 M 249.6,69.5 L 249.6,81.4 M 249.9,82.3 L 249.9,96.305711"
       style="color:#000000;fill:none;fill-rule:nonzero;stroke:#000000;stroke-width:2;stroke-"
       id="path2312" />
  </g>
</svg>
