<svg xmlns:dc="http://purl.org/dc/elements/1.1/" xmlns:cc="http://creativecommons.org/ns#" xmlns:rdf="http://www.w3.org/1999/02/22-rdf-syntax-ns#" xmlns:svg="http://www.w3.org/2000/svg" xmlns="http://www.w3.org/2000/svg" id="svg2" version="1.1" x="0" y="0" width="420" height="500" viewBox="30.5 31.5 420 500" enable-background="new 30.5 31.5 412 533" xml:space="preserve">
  <metadata id="metadata4">
    <rdf:RDF>
      <cc:Work rdf:about="">
        <dc:format>
          
          
          
          
          image/svg+xml
        
        
        
        
        </dc:format>
        <dc:type rdf:resource="http://purl.org/dc/dcmitype/StillImage"/>
      </cc:Work>
    </rdf:RDF>
  </metadata>
  <defs id="defs6"/>
  <path id="path4218" d="m440 32.7c2.09 102.46-3.38 187.49-43.93 296.59C368.02 404.77 321.86 474.06 240.5 530.88 159.14 474.06 112.98 404.77 84.93 329.29 44.38 220.19 38.91 135.16 41 32.7c133 0.29 266 0 399 0z" style="fill-rule:evenodd;fill:#e00e00"/>
  <path d="m440 32.7c2.09 102.46-3.38 187.49-43.93 296.59C368.02 404.77 321.86 474.06 240.5 530.88 159.14 474.06 112.98 404.77 84.93 329.29 44.38 220.19 38.91 135.16 41 32.7c133 0.29 266 0 399 0z" id="path4224" style="fill:none;stroke:#000"/>
  <path id="path1017" d="m321.2 211.94-13.7 13.7 29.8 32.5-96.8 91.5-96.6-91.3 29.8-32.5-13.7-13.7-38.8 24.8-5.1-4.8-11.9 11.9 4.8 5.1-18.6 46.3 40-23.6 90.8 96.1-59.6 56.3 23 23 55.8-59 55.9 59.2 23-23-59.7-56.5 91-96.3 32.5 29.8 13.7-13.7-24.8-38.8 4.8-5.1-11.9-11.9-5.1 4.8-38.8-24.8z" style="fill-rule:nonzero;fill:#ffe000;stroke:#000"/>
  <path id="path1034" d="m240.5 48.24c-22.8 0-88.7 8.1-88.7 74.5 0 74.1 81.4 75.3 81.4 75.3l0 23.6-37.4-3.2 8.1 26.8 26-4.5-6.5 38.7 34.2 0-6.5-38.7 26 4.5 8.1-26.8-37.4 3.2 0-23.6c0 0 81.4-1.2 81.4-75.3 0-66.4-65.9-74.5-88.7-74.5zm0 18.7c22.6 0 58.6 16 58.6 56.6 0 45.4-37 56.6-58.6 56.6-21.6 0-58.6-11.1-58.6-56.6 0-40.6 35.9-56.6 58.6-56.6z" style="fill-rule:nonzero;fill:#ffe000;stroke:#000"/>
</svg>
