<?xml version="1.0" encoding="UTF-8" standalone="no"?>
<!-- Created with Inkscape (http://www.inkscape.org/) -->

<svg
   xmlns:dc="http://purl.org/dc/elements/1.1/"
   xmlns:cc="http://creativecommons.org/ns#"
   xmlns:rdf="http://www.w3.org/1999/02/22-rdf-syntax-ns#"
   xmlns:svg="http://www.w3.org/2000/svg"
   xmlns="http://www.w3.org/2000/svg"
   xmlns:sodipodi="http://sodipodi.sourceforge.net/DTD/sodipodi-0.dtd"
   xmlns:inkscape="http://www.inkscape.org/namespaces/inkscape"
   width="1200"
   height="900"
   viewBox="0 0 1200 900"
   version="1.1"
   id="svg4227"
   inkscape:version="0.92.1 r15371"
   sodipodi:docname="Flag of Bergen.svg"
   inkscape:export-filename="/home/eirik/Flag of Bergen.png"
   inkscape:export-xdpi="95.999992"
   inkscape:export-ydpi="95.999992">
  <defs
     id="defs4221">
    <clipPath
       clipPathUnits="userSpaceOnUse"
       id="clipPath362">
      <path
         d="M 386.896,189.4 H 689.55 V 412.625 H 386.896 Z"
         id="path360"
         inkscape:connector-curvature="0" />
    </clipPath>
    <clipPath
       clipPathUnits="userSpaceOnUse"
       id="clipPath362-3">
      <path
         d="M 386.896,189.4 H 689.55 V 412.625 H 386.896 Z"
         id="path360-6"
         inkscape:connector-curvature="0" />
    </clipPath>
    <clipPath
       clipPathUnits="userSpaceOnUse"
       id="clipPath216">
      <path
         d="M 333.02,366.947 H 477.395 V 511.322 H 333.02 Z"
         id="path214"
         inkscape:connector-curvature="0" />
    </clipPath>
  </defs>
  <sodipodi:namedview
     id="base"
     pagecolor="#ffffff"
     bordercolor="#666666"
     borderopacity="1.0"
     inkscape:pageopacity="0.0"
     inkscape:pageshadow="2"
     inkscape:zoom="0.49497475"
     inkscape:cx="556.98641"
     inkscape:cy="474.0356"
     inkscape:document-units="px"
     inkscape:current-layer="layer1"
     showgrid="false"
     units="px"
     scale-x="1"
     inkscape:window-width="1366"
     inkscape:window-height="704"
     inkscape:window-x="0"
     inkscape:window-y="27"
     inkscape:window-maximized="1" />
  <metadata
     id="metadata4224">
    <rdf:RDF>
      <cc:Work
         rdf:about="">
        <dc:format>image/svg+xml</dc:format>
        <dc:type
           rdf:resource="http://purl.org/dc/dcmitype/StillImage" />
        <dc:title></dc:title>
      </cc:Work>
    </rdf:RDF>
  </metadata>
  <g
     inkscape:label="Layer 1"
     inkscape:groupmode="layer"
     id="layer1"
     transform="translate(0,-58.874925)">
    <rect
       style="fill:#ffffff;fill-opacity:1;stroke:none;stroke-width:135.96292114;stroke-miterlimit:4;stroke-dasharray:none;stroke-opacity:1"
       id="rect5982"
       width="1200"
       height="900"
       x="0"
       y="58.874924" />
    <path
       style="fill:none;fill-rule:evenodd;stroke:#ef2b2d;stroke-width:100;stroke-linecap:butt;stroke-linejoin:miter;stroke-miterlimit:4;stroke-dasharray:none;stroke-opacity:1"
       d="M 0,908.87491 H 1200"
       id="path5168"
       inkscape:connector-curvature="0" />
    <path
       style="fill:none;fill-rule:evenodd;stroke:#ef2b2d;stroke-width:100;stroke-linecap:butt;stroke-linejoin:miter;stroke-miterlimit:4;stroke-dasharray:none;stroke-opacity:1"
       d="M 1150,58.874935 V 958.87493"
       id="path5172"
       inkscape:connector-curvature="0" />
    <path
       style="fill:none;fill-rule:evenodd;stroke:#ef2b2d;stroke-width:100;stroke-linecap:butt;stroke-linejoin:miter;stroke-miterlimit:4;stroke-dasharray:none;stroke-opacity:1"
       d="M 0,108.87494 H 1200.0001"
       id="path5174"
       inkscape:connector-curvature="0" />
    <g
       transform="matrix(3.1168831,0,0,-3.4632035,-662.98441,2029.6871)"
       id="g210">
      <g
         id="g212"
         clip-path="url(#clipPath216)">
        <g
           id="g218"
           transform="translate(405.2076,380.5376)">
          <path
             d="m 0,0 c -32.362,0 -58.598,26.236 -58.598,58.598 0,32.361 26.236,58.597 58.598,58.597 32.362,0 58.598,-26.236 58.598,-58.597 C 58.598,26.236 32.362,0 0,0 m 0,130.785 c -39.868,0 -72.188,-32.32 -72.188,-72.187 0,-39.868 32.32,-72.189 72.188,-72.189 39.867,0 72.188,32.321 72.188,72.189 0,39.867 -32.321,72.187 -72.188,72.187"
             style="fill:#d29f13;fill-opacity:1;fill-rule:nonzero;stroke:none"
             id="path220"
             inkscape:connector-curvature="0" />
        </g>
        <g
           id="g222"
           transform="translate(405.2117,500.5757)">
          <path
             d="m 0,0 c -33.89,0 -61.364,-27.474 -61.364,-61.364 0,-33.89 27.474,-61.363 61.364,-61.363 33.89,0 61.364,27.473 61.364,61.363 C 61.364,-27.474 33.89,0 0,0"
             style="fill:#ef2b2d;fill-opacity:1;fill-rule:nonzero;stroke:none"
             id="path224"
             inkscape:connector-curvature="0" />
        </g>
        <g
           id="g226"
           transform="translate(392.1312,486.1257)">
          <path
             d="m 0,0 c -1.225,0.068 -4.015,0 -4.491,-0.068 -0.477,-0.068 -0.477,-0.749 -0.477,-0.749 0,0 0.273,-2.653 0.137,-3.47 -0.137,-0.817 -0.409,-1.633 -0.409,-2.11 0,-0.476 0,-0.748 0.272,-0.884 0.273,-0.136 1.498,-1.361 2.042,-1.701 0.544,-0.34 1.089,-0.545 1.157,-0.885 0.068,-0.34 0.34,-1.021 0.476,-1.293 0.136,-0.272 0.885,-1.089 0.885,-1.089 v -10.479 c 0,-0.612 0.136,-6.533 0.068,-7.893 -0.068,-1.361 0.748,-5.785 -0.136,-5.989 -0.885,-0.204 -3.811,-0.34 -3.811,-0.34 0,0 -2.722,-0.34 -2.722,0.068 v 3.334 c 0,0.477 0.34,4.287 -0.136,4.424 -0.476,0.136 -1.361,0.136 -2.586,0.272 -1.225,0.136 -0.408,0.544 -0.408,0.816 0,0.273 0.068,10.888 0.068,10.888 0,0 1.701,1.089 1.701,1.497 0,0.408 0,3.947 0.068,4.423 0.068,0.477 0.817,1.701 -0.408,1.769 -1.225,0.068 -3.879,0 -3.879,0 0,0 -1.361,-0.136 -1.293,-0.612 0.068,-0.476 0.477,-4.491 0.273,-4.423 -0.205,0.068 -2.178,0.204 -2.178,0.204 v 2.041 c 0,0 0,2.314 -0.34,2.518 -0.34,0.204 -5.24,0.204 -5.24,0.204 0,0 -0.136,-1.157 -0.136,-1.769 0,-0.612 -0.068,-2.994 -0.068,-2.994 0,0 -2.45,-0.204 -2.45,0 0,0.204 0.068,2.177 0.068,2.382 0,0.204 0,2.381 -0.204,2.449 -0.204,0.068 -4.015,0.068 -4.015,0.068 l 0.069,-2.722 0.067,-2.177 c 0,0 -1.225,-0.476 -0.612,-0.885 0.612,-0.408 1.837,-1.633 1.837,-1.633 l 0.204,-3.742 -0.238,-7.384 -2.552,-0.102 -0.068,-7.893 c 0,0 -0.748,-1.225 -0.816,-1.497 -0.068,-0.272 2.109,-2.178 2.109,-2.178 l 0.204,-2.858 -3.062,-3.334 2.11,-2.109 -0.068,-23.613 -0.544,-2.926 -3.59,-3.403 -1.225,-0.459 c 0.168,-0.159 1.421,-1.968 2.566,-3.419 0.714,-0.851 7.216,-7.962 14.837,-12.453 7.622,-4.491 18.645,-9.118 30.281,-8.982 11.637,0.136 23.205,4.627 29.397,9.118 6.192,4.492 15.378,12.691 15.923,13.644 0.544,0.953 1.531,2.892 1.531,2.892 l -4.934,4.423 -0.271,24.701 2.858,1.837 c 0,0 -1.634,3.199 -1.838,3.267 -0.204,0.068 -1.701,0.816 -1.701,0.816 0,0 0,2.654 -0.272,2.722 -0.272,0.068 -1.021,0.613 -1.021,0.613 l 0.885,2.109 -0.273,8.54 -1.973,0.306 0.068,12.113 1.905,2.109 -0.204,1.293 -0.272,4.015 -4.355,-0.068 -0.068,-4.423 H 46.68 c 0,0 0,4.015 -0.271,4.151 -0.273,0.136 -5.921,0 -5.921,0 l -0.204,-4.627 h -2.79 l -0.272,4.695 -3.879,-0.204 0.136,-5.104 1.769,-2.245 -0.204,-12.045 -2.177,-0.816 -0.408,-6.805 -6.669,-0.34 -0.272,3.878 -0.272,13.474 -0.068,7.077 2.041,1.088 0.136,1.225 1.973,1.838 1.157,1.429 -0.34,6.6 -5.648,0.204 -0.272,-3.742 0.204,-2.586 -3.198,0.136 -0.068,5.988 -6.533,0.204 -0.204,-3.062 0.272,-3.47 H 10.956 L 9.935,0.136 4.423,0 4.287,-6.26 0.953,-6.192 0.544,-5.308 0.681,-0.136 Z"
             style="fill:#ffffff;fill-opacity:1;fill-rule:nonzero;stroke:none"
             id="path228"
             inkscape:connector-curvature="0" />
        </g>
        <g
           id="g230"
           transform="translate(448.9305,404.8599)">
          <path
             d="m 0,0 c -1.446,0.766 -9.782,2.195 -14.698,1.531 -4.916,-0.663 -9.646,-2.875 -10.666,-3.896 -1.412,1.429 -3.794,3.182 -9.391,2.875 -3.692,-0.202 -6.141,-1.378 -7.4,-2.245 -2.11,1.582 -3.769,1.942 -8.574,2.245 -4.049,0.256 -5.172,-0.357 -11.381,-2.602 -1.395,1.071 -4.066,2.755 -12.045,2.653 -7.978,-0.102 -13.422,-1.224 -13.422,-1.224 0,0 6.855,-7.196 9.799,-9.799 2.943,-2.603 10.173,-6.89 18.628,-9.136 8.455,-2.245 18.951,-2.245 25.518,-1.225 6.566,1.021 16.297,4.849 21.537,8.983 C -6.856,-7.706 0.063,-0.062 0,0"
             style="fill:#d29f13;fill-opacity:1;fill-rule:nonzero;stroke:none"
             id="path232"
             inkscape:connector-curvature="0" />
        </g>
        <g
           id="g234"
           transform="translate(370.8268,458.9261)">
          <path
             d="m 0,0 c 1.458,-0.329 4.704,-0.047 4.704,-0.047 0,0 0.188,3.998 0.141,6.397 C 4.798,8.749 3.669,9.22 2.634,9.173 1.6,9.126 1.458,8.843 0.941,8.514 0.423,8.185 0.282,7.997 0.047,6.962 -0.188,5.927 -0.094,3.669 -0.094,2.822 -0.094,1.976 -0.094,1.129 0,0"
             style="fill:#000000;fill-opacity:1;fill-rule:nonzero;stroke:none"
             id="path236"
             inkscape:connector-curvature="0" />
        </g>
        <g
           id="g238"
           transform="translate(406.2783,471.4518)">
          <path
             d="m 0,0 c -0.241,1.141 -0.982,1.188 -1.694,1.223 -2.022,0.094 -1.74,-2.211 -1.693,-2.728 0.047,-0.518 -0.188,-2.775 -0.188,-4.422 0,-1.647 0.141,-6.868 0.141,-7.056 0,-0.188 0,-0.376 0.282,-0.376 0.283,0 2.353,0 2.776,0.047 0.423,0.047 0.517,0.188 0.517,0.423 0,0.235 -0.047,1.552 -0.047,3.011 0,1.458 0.094,6.82 0.094,7.385 0,0.659 0,1.599 -0.188,2.493"
             style="fill:#000000;fill-opacity:1;fill-rule:nonzero;stroke:none"
             id="path240"
             inkscape:connector-curvature="0" />
        </g>
        <g
           id="g242"
           transform="translate(435.5543,468.7104)">
          <path
             d="m 0,0 c -1.741,0.094 -2.54,-1.741 -2.681,-2.916 -0.141,-1.176 -0.094,-4.752 -0.094,-5.269 0,-0.518 -0.047,-1.787 -0.047,-1.787 0,0 1.411,0 2.116,-0.048 0.706,-0.047 2.305,0.189 2.635,0.189 0.329,0 0.47,0.094 0.47,0.376 0,0.282 -0.047,0.941 0,2.258 0.048,1.317 0.095,4.234 -0.047,5.363 C 2.211,-0.706 1.221,-0.065 0,0"
             style="fill:#000000;fill-opacity:1;fill-rule:nonzero;stroke:none"
             id="path244"
             inkscape:connector-curvature="0" />
        </g>
        <g
           id="g246"
           transform="translate(376.8466,442.4318)">
          <path
             d="M 0,0 C 0.223,-0.134 0.313,-0.313 0.045,-0.492 -0.223,-0.67 -0.715,-1.609 -0.223,-2.056 0.268,-2.502 0.804,-2.86 1.743,-1.922 2.19,-2.235 2.86,-2.816 3.664,-2.1 4.469,-1.385 3.486,-0.536 3.262,-0.268 3.754,0.179 4.737,0.894 3.843,1.698 3.232,2.248 2.368,1.519 1.743,1.206 0.939,2.1 0.313,2.279 -0.402,1.609 -1.117,0.938 -0.223,0.134 0,0"
             style="fill:#000000;fill-opacity:1;fill-rule:nonzero;stroke:none"
             id="path248"
             inkscape:connector-curvature="0" />
        </g>
        <g
           id="g250"
           transform="translate(378.8237,439.135)">
          <path
             d="m 0,0 c -0.235,0.141 -0.235,0.282 -0.659,0.047 -0.423,-0.235 -1.128,-0.612 -2.305,0.094 0.236,-0.47 0.236,-0.941 1.082,-1.176 0.847,-0.235 1.27,0.329 1.459,0.329 0.188,0 0.282,-0.376 1.317,-0.376 1.035,0 1.27,0.659 1.693,1.27 C 1.552,-0.753 0.235,-0.141 0,0"
             style="fill:#000000;fill-opacity:1;fill-rule:nonzero;stroke:none"
             id="path252"
             inkscape:connector-curvature="0" />
        </g>
        <g
           id="g254"
           transform="translate(387.4319,443.9201)">
          <path
             d="m 0,0 c -0.893,0.047 -1.646,-0.988 -1.834,-1.647 -0.189,-0.658 -0.189,-3.715 -0.141,-4.045 0.047,-0.329 -0.142,-0.47 -0.142,-0.941 0,-0.47 0,-3.823 0.047,-4.34 0.047,-0.518 0.189,-0.612 0.471,-0.753 0.282,-0.141 0.86,-0.526 1.129,-0.611 0.327,-0.105 1.055,-0.526 1.455,-0.644 0.416,-0.122 0.686,0.332 0.686,0.662 0,0.329 -0.024,2.074 -0.024,2.497 0,0.423 0.188,0.931 0.14,3.095 -0.046,2.164 0.048,3.575 0.048,4.798 C 1.835,-0.706 0.894,-0.047 0,0"
             style="fill:#000000;fill-opacity:1;fill-rule:nonzero;stroke:none"
             id="path256"
             inkscape:connector-curvature="0" />
        </g>
        <g
           id="g258"
           transform="translate(403.5771,439.5756)">
          <path
             d="M 0,0 C 0.291,0.025 0.425,-0.131 0.402,-0.38 0.346,-0.978 0.425,-1.564 1.542,-1.654 2.659,-1.743 2.614,-0.581 2.569,-0.268 2.525,0.044 2.726,-0.017 3.016,0 3.799,0.044 4.153,0.489 4.044,1.14 3.949,1.704 3.173,2.028 2.86,1.988 2.502,1.943 2.391,2.055 2.569,2.368 2.67,2.542 2.659,2.949 2.391,3.262 2.123,3.575 1.721,3.62 1.095,3.441 0.469,3.262 0.425,2.547 0.469,2.324 0.514,2.1 0.472,1.947 0.178,1.966 -0.534,2.014 -0.938,1.654 -0.983,0.983 -1.028,0.312 -0.651,-0.065 0,0"
             style="fill:#000000;fill-opacity:1;fill-rule:nonzero;stroke:none"
             id="path260"
             inkscape:connector-curvature="0" />
        </g>
        <g
           id="g262"
           transform="translate(422.4301,443.6379)">
          <path
             d="m 0,0 c -1.411,0 -1.646,-1.223 -1.741,-1.928 -0.093,-0.706 -0.141,-3.366 -0.152,-4.214 -0.015,-1.185 0.106,-3.266 0.106,-3.925 0,-0.658 0.011,-2.251 0.057,-2.674 0.047,-0.423 0.385,-0.482 0.621,-0.294 0.235,0.188 1.532,0.711 1.768,0.899 0.235,0.188 0.282,0.235 0.658,0.376 0.377,0.141 0.424,0.329 0.47,0.706 0.047,0.376 0.094,2.963 0.094,4.139 0,1.176 0.095,4.187 -0.094,5.645 C 1.599,0.188 0.706,0 0,0"
             style="fill:#000000;fill-opacity:1;fill-rule:nonzero;stroke:none"
             id="path264"
             inkscape:connector-curvature="0" />
        </g>
        <g
           id="g266"
           transform="translate(430.4043,441.932)">
          <path
             d="m 0,0 c 0,0 -1.296,-0.983 -0.581,-1.787 0.715,-0.805 1.717,-0.014 1.832,0.178 0.067,0.112 0.201,0.112 0.268,0.023 0.135,-0.179 1,-0.916 1.609,-0.425 0.938,0.76 0.335,1.587 0.112,1.81 C 3.016,0.022 2.994,0.134 3.173,0.268 3.352,0.403 3.396,0.447 3.754,0.894 4.111,1.341 3.726,2.061 3.128,2.235 2.502,2.413 1.921,1.877 1.654,1.654 1.385,1.43 1.251,1.565 0.983,1.832 0.715,2.1 -0.439,2.324 -0.805,1.922 -1.698,0.939 0,0 0,0"
             style="fill:#000000;fill-opacity:1;fill-rule:nonzero;stroke:none"
             id="path268"
             inkscape:connector-curvature="0" />
        </g>
        <g
           id="g270"
           transform="translate(433.1552,438.6881)">
          <path
             d="m 0,0 c -0.659,0.094 -1.129,0.447 -1.317,0.447 -0.188,0 -0.423,-0.329 -1.035,-0.47 C -2.963,-0.165 -3.575,0.118 -3.81,0.259 -4.045,0.4 -4.175,0.28 -3.951,0.023 c 0.165,-0.188 0.396,-0.658 1.2,-0.799 1.193,-0.212 1.575,0.329 1.575,0.329 0,0 0.788,-0.499 1.458,-0.353 1.082,0.235 1.176,1.153 1.176,1.153 C 1.458,0.353 0.659,-0.094 0,0"
             style="fill:#000000;fill-opacity:1;fill-rule:nonzero;stroke:none"
             id="path272"
             inkscape:connector-curvature="0" />
        </g>
        <g
           id="g274"
           transform="translate(397.3107,429.9491)">
          <path
             d="M 0,0 C 0.235,0.141 0.706,0.329 0.752,0.8 0.799,1.27 1.882,3.763 2.728,4.798 3.575,5.833 4.327,6.304 6.021,7.009 4.187,6.868 2.493,5.504 1.27,4.14 0.491,3.269 -0.076,0.926 -0.188,0.518 -0.329,0 -0.235,-0.141 0,0"
             style="fill:#000000;fill-opacity:1;fill-rule:nonzero;stroke:none"
             id="path276"
             inkscape:connector-curvature="0" />
        </g>
        <g
           id="g278"
           transform="translate(408.9768,436.2997)">
          <path
             d="M 0,0 C 0.565,-0.282 1.458,-1.505 1.975,-2.211 2.493,-2.917 2.917,-4.422 3.105,-4.939 3.293,-5.457 3.34,-6.162 3.34,-6.162 l 0.705,-0.047 c 0,0 -0.188,0.47 -0.188,0.893 0,0.424 -0.188,0.8 -0.611,2.305 C 2.822,-1.505 1.928,-0.894 1.552,-0.517 1.176,-0.141 0.846,-0.047 0.517,0.047 0.188,0.141 0.094,0.282 -0.141,0.47 -0.376,0.659 -0.612,0.565 -1.318,0.659 -0.847,0.423 -0.565,0.282 0,0"
             style="fill:#000000;fill-opacity:1;fill-rule:nonzero;stroke:none"
             id="path280"
             inkscape:connector-curvature="0" />
        </g>
        <g
           id="g282"
           transform="translate(394.347,405.3001)">
          <path
             d="m 0,0 1.694,0.329 c 0,0 -0.142,3.293 -0.047,3.693 0.094,0.399 0.094,2.14 0.094,2.14 0,0 2.399,0.047 2.869,0.094 0.471,0.047 0.87,0 1.082,-0.212 C 5.904,5.833 5.763,5.268 5.645,4.939 5.527,4.61 5.104,4.21 4.257,4.374 4.704,3.951 4.939,3.951 5.622,4.045 6.303,4.14 6.656,4.892 6.774,5.457 6.891,6.021 6.68,6.538 6.68,6.538 L 8.232,7.15 6.751,7.385 c 0,0 0.07,0.565 0.023,1.247 C 6.727,9.313 5.904,10.019 5.128,9.972 4.352,9.925 4.022,9.22 4.022,9.22 c 0,0 0.564,0.235 0.988,0.258 C 5.433,9.502 5.81,8.914 5.857,8.491 5.904,8.067 5.48,7.479 4.846,7.314 4.21,7.15 2.234,7.267 1.999,7.267 c -0.235,0 -0.329,0.047 -0.352,0.189 -0.024,0.141 0.047,2.634 0.14,3.904 0.095,1.27 -0.046,4.21 -0.046,4.399 0,0.188 0,0.352 0.352,0.376 0.353,0.023 2.893,0 3.058,-0.024 0.164,-0.023 0.494,-0.094 0.588,-0.235 0.094,-0.141 0.047,-0.8 -0.047,-0.988 C 5.598,14.7 5.48,14.159 4.234,14.065 c 0.376,-0.259 0.917,-0.47 1.764,-0.094 0.847,0.376 0.776,1.811 0.729,2.375 0.447,0.118 1.74,0.612 1.74,0.612 0,0 -1.011,0.071 -1.364,0.117 C 6.751,17.123 6.68,17.31 6.821,17.781 6.962,18.252 6.586,18.957 6.35,19.333 6.115,19.71 4.798,20.227 4.093,19.004 4.61,19.38 5.504,19.098 5.786,18.534 6.068,17.969 5.551,17.405 4.939,17.263 4.328,17.123 1.787,17.217 1.787,17.217 c 0,0 0.236,1.881 0.33,2.211 0.094,0.329 0.517,1.552 1.082,1.975 0.564,0.424 1.74,0.659 2.07,0.753 0.329,0.094 0.893,-0.094 0.846,1.082 -0.058,1.458 0.6,3.546 1.412,4.233 1.223,1.035 2.728,1.177 2.728,1.177 0,0 0,-3.67 -0.047,-4.093 -0.047,-0.423 0,-1.035 0.047,-1.693 0.047,-0.659 -0.141,-2.023 -0.141,-2.87 0,-0.847 0.047,-2.07 0.047,-3.057 0,-0.988 -0.047,-3.058 -0.047,-4.611 0,-1.552 0,-4.186 0.047,-4.939 0.047,-0.753 0.047,-2.352 0.047,-2.352 0,0 0.047,-0.941 -0.047,-1.364 -0.094,-0.423 0,-3.904 0,-3.904 L 11.149,-0.8 c 0,0 0.047,2.846 0.07,3.528 0.024,0.682 -0.188,2.705 -0.094,4.328 0.094,1.623 0,5.763 0.071,6.797 0.07,1.035 -0.141,4.375 -0.071,5.269 0.071,0.894 0.047,2.14 0.024,2.563 -0.024,0.424 0.094,0.636 0.07,2 -0.023,1.364 0.141,3.786 0.141,4.963 1.247,0.141 2.211,-0.424 2.917,-1.106 0.705,-0.682 1.129,-2.799 1.27,-3.34 0.141,-0.541 -0.024,-1.34 0.094,-1.646 0.117,-0.306 0.188,-0.377 0.329,-0.4 0.141,-0.024 0.377,-0.047 1.082,-0.212 0.706,-0.164 1.318,-0.517 1.929,-1.435 0.612,-0.917 0.541,-3.339 0.541,-3.339 0,0 -2.422,0.047 -2.681,0.07 -0.259,0.023 -0.824,-0.094 -1.13,0.165 -0.305,0.259 -0.164,1.223 0.047,1.388 0.212,0.164 0.33,0.587 1.436,0.235 -0.847,0.799 -1.647,0.682 -2.306,0.164 -0.658,-0.517 -0.447,-1.481 -0.447,-1.67 0,-0.188 0.071,-0.282 -0.117,-0.423 -0.188,-0.141 -1.388,-0.258 -1.388,-0.258 0,0 0.964,-0.424 1.271,-0.518 0.305,-0.094 0.399,-0.144 0.352,-0.424 -0.164,-0.964 0.203,-1.834 0.941,-2.093 1.011,-0.353 1.27,0 1.505,0.235 -0.658,-0.164 -1.035,0.165 -1.411,0.635 -0.376,0.471 -0.118,1.153 0.353,1.365 0.471,0.212 3.551,0.023 3.551,0.023 v -4.516 c 0,-1.481 -0.07,-3.504 -0.117,-4.116 -0.377,-0.188 -2.87,-0.235 -3.434,-0.094 -0.565,0.141 -0.612,1.27 -0.377,1.552 0.236,0.283 0.518,0.659 1.553,0.377 -0.776,0.917 -1.647,0.564 -2.211,0.094 C 14.348,8.89 14.441,7.95 14.536,7.761 14.63,7.574 14.488,7.244 14.159,7.197 13.83,7.15 13.501,7.103 13.03,7.103 c 0.471,-0.33 0.753,-0.588 1.224,-0.588 0.47,0 0.343,-0.256 0.329,-0.353 C 14.559,6.021 14.341,5.251 14.677,4.751 15.397,3.677 16.371,3.74 17.005,4.257 15.97,4.069 15.758,4.61 15.476,4.986 c -0.282,0.376 0.047,1.082 0.424,1.27 0.376,0.188 2.964,0.047 3.245,0 0.283,-0.047 0.377,-0.188 0.33,-0.376 -0.047,-0.189 -0.094,-1.459 -0.094,-2.446 0,-0.988 0.094,-2.682 0.094,-2.682 h 1.458 c 0,0 0.047,6.021 0.141,6.869 0.094,0.846 0,4.845 0,5.785 0,0.941 -0.094,2.493 -0.047,3.623 0.047,1.128 -0.141,2.587 -0.423,3.575 -0.283,0.987 -1.411,1.834 -2.117,2.445 -0.706,0.612 -1.411,0.659 -1.411,0.659 0,0 -0.189,0.753 -0.282,1.506 -0.094,0.752 -0.941,2.775 -1.835,3.763 -0.894,0.987 -2.302,1.317 -4.046,1.317 -1.505,0 -2.14,-0.259 -2.916,-0.659 -0.776,-0.4 -1.882,-1.693 -2.352,-2.469 -0.47,-0.777 -0.799,-2.234 -0.799,-2.564 0,-0.329 0,-0.47 -0.377,-0.659 C 4.093,23.755 3.387,23.52 2.634,23.002 1.882,22.485 0.8,20.933 0.565,20.133 0.329,19.333 0,17.123 0.094,16.511 0.188,15.899 0.329,12.56 0.282,11.148 0.235,9.737 0.188,7.291 0.188,6.491 0.188,5.691 0.235,3.81 0.141,2.775 0.047,1.74 0,0 0,0"
             style="fill:#000000;fill-opacity:1;fill-rule:nonzero;stroke:none"
             id="path284"
             inkscape:connector-curvature="0" />
        </g>
        <g
           id="g286"
           transform="translate(438.3187,431.2587)">
          <path
             d="M 0,0 0.758,-0.004 C 0.622,0.028 0.522,0.055 0.388,0.055 0.238,0.055 0.137,0.028 0,0"
             style="fill:#000000;fill-opacity:1;fill-rule:nonzero;stroke:none"
             id="path288"
             inkscape:connector-curvature="0" />
        </g>
        <g
           id="g290"
           transform="translate(414.9505,435.8293)">
          <path
             d="m 0,0 c -0.329,0.376 -0.893,1.694 -1.128,2.023 -0.236,0.329 -0.423,1.082 -0.8,1.364 -0.377,0.282 -0.894,1.129 -1.129,1.458 -0.235,0.33 -0.518,1.035 -1.082,1.129 -0.312,0.053 -0.518,0.612 -0.8,0.894 -0.283,0.282 -0.659,1.176 -0.988,1.505 -0.329,0.33 -1.034,0.8 -1.317,1.129 -0.282,0.33 -0.941,0.612 -1.176,0.988 -0.235,0.376 -0.706,0.705 -0.941,0.988 -0.235,0.282 -0.705,0.282 -1.081,-0.141 -0.377,-0.424 -1.318,-0.988 -1.6,-1.177 -0.282,-0.187 -2.211,-2.022 -2.869,-2.775 -0.659,-0.752 -2.117,-2.304 -2.682,-2.869 -0.564,-0.565 -1.082,-1.223 -1.317,-1.552 -0.235,-0.33 -0.847,-1.647 -1.129,-1.976 -0.282,-0.329 -0.894,-1.741 -1.176,-2.352 -0.225,-0.488 -0.779,-2.202 -1.018,-3.21 h 0.697 c 0.263,0.892 0.584,1.89 0.792,2.175 0.376,0.518 0.941,1.505 1.222,2.07 0.283,0.564 0.847,1.128 1.035,1.317 0.188,0.188 0.894,1.317 1.27,1.693 0.377,0.377 2.682,2.917 2.682,2.917 0,0 -0.329,-1.788 0.988,-1.882 -0.282,0.894 0.047,2.917 1.599,2.917 -0.329,1.505 1.223,2.07 2.023,2.07 0.799,0 2.117,-0.095 2.117,-1.976 1.364,-0.235 1.975,-1.599 1.458,-3.011 0.564,0.094 0.846,0.753 0.941,1.412 1.082,-0.848 0.47,-0.565 0.799,-0.895 0.33,-0.329 0.941,-1.222 1.365,-1.881 0.423,-0.658 1.176,-1.27 1.552,-1.788 0.376,-0.517 1.646,-2.258 1.881,-2.963 0.224,-0.67 0.66,-1.638 0.904,-2.176 l 0.902,0.001 C 1.754,-3.936 1.435,-3.143 1.271,-2.705 0.988,-1.952 0.33,-0.376 0,0"
             style="fill:#000000;fill-opacity:1;fill-rule:nonzero;stroke:none"
             id="path292"
             inkscape:connector-curvature="0" />
        </g>
        <g
           id="g294"
           transform="translate(417.3503,437.1934)">
          <path
             d="m 0,0 c -0.188,0.282 -0.424,0.894 -0.612,1.035 -0.188,0.141 -0.235,0.752 -0.423,0.988 -0.189,0.235 -0.659,0.611 -0.8,0.846 -0.141,0.236 -0.094,0.377 -0.376,0.8 -0.283,0.424 -2.164,2.964 -2.87,3.763 -0.706,0.8 -1.975,2.305 -2.493,2.729 -0.517,0.423 -1.458,1.458 -2.069,1.834 -0.612,0.377 -1.083,0.706 -1.365,0.942 -0.282,0.234 -0.658,0.799 -1.129,0.752 -0.47,-0.047 -1.505,-0.706 -1.881,-0.988 -0.377,-0.282 -1.741,-1.552 -2.211,-1.835 -0.471,-0.282 -1.223,-1.035 -1.647,-1.411 -0.423,-0.376 -2.07,-1.976 -2.634,-2.587 -0.564,-0.611 -2.916,-3.575 -3.152,-3.999 -0.235,-0.423 -1.505,-2.21 -2.116,-3.575 -0.563,-1.254 -1.284,-3.9 -1.506,-5.232 l 0.938,-0.001 c 0.092,0.746 0.228,1.501 0.426,1.988 0.518,1.27 0.894,2.116 0.941,2.352 0.047,0.235 0.423,0.47 0.423,0.47 l 0.095,0.282 c 0,0 0.843,1.885 1.129,2.117 0.752,0.611 1.081,1.882 1.458,2.352 0.376,0.471 3.845,3.881 4.186,4.375 0.518,0.753 4.14,3.293 4.469,3.622 0.329,0.329 0.894,0.847 1.364,0.423 0.471,-0.423 1.841,-1.59 2.353,-2.069 C -8.703,9.22 -6.774,7.385 -6.069,6.397 -5.363,5.41 -4.704,5.315 -4.516,4.986 -4.328,4.657 -3.951,3.528 -3.388,3.058 -2.823,2.587 -2.87,2.07 -2.541,1.505 -2.211,0.941 -1.035,-0.8 -0.753,-1.693 -0.574,-2.267 0.094,-2.87 0.188,-3.387 0.257,-3.768 0.734,-5.118 1.038,-5.935 L 2.242,-5.939 C 1.975,-4.689 1.543,-3.052 0.893,-2.023 -0.236,-0.235 0.188,-0.282 0,0"
             style="fill:#000000;fill-opacity:1;fill-rule:nonzero;stroke:none"
             id="path296"
             inkscape:connector-curvature="0" />
        </g>
        <g
           id="g298"
           transform="translate(361.9351,474.0511)">
          <path
             d="M 0,0 C -0.009,-0.008 -0.009,-0.004 -0.022,-0.019 -0.068,-0.069 -0.046,-0.047 0,0"
             style="fill:#000000;fill-opacity:1;fill-rule:nonzero;stroke:none"
             id="path300"
             inkscape:connector-curvature="0" />
        </g>
        <g
           id="g302"
           transform="translate(445.3862,451.6818)">
          <path
             d="m 0,0 c -0.047,-0.706 0.141,-1.223 -0.894,-1.317 -1.035,-0.094 -3.198,-0.047 -3.481,-0.047 -0.282,0 -0.423,0 -0.47,0.376 -0.047,0.376 0.188,2.211 0.141,2.964 -0.047,0.753 -0.047,3.292 -0.047,3.292 0,0 1.74,0.236 2.352,0.236 0.612,0 1.317,0.047 1.647,0.141 0.329,0.094 0.705,0.188 0.705,-0.329 C -0.047,4.798 0.047,0.706 0,0 m -5.727,5.217 c 0,-0.256 -0.135,-4.256 -0.118,-5.105 0.016,-0.849 -0.154,-1.359 -1.481,-1.393 -1.031,-0.026 -4.593,-0.148 -5.001,-0.142 -0.409,0.006 -0.831,0.176 -0.824,0.959 0.007,0.782 0.107,3.67 0.04,5.05 -0.067,1.38 -0.543,1.618 -1.189,1.623 -0.283,0 -2.399,-0.046 -2.823,0.048 -0.423,0.093 -0.517,0.188 -0.517,0.611 0,0.424 0.235,1.976 0.141,2.352 -0.094,0.376 -0.141,4.516 -0.094,4.892 0.047,0.377 0.094,3.904 0.094,3.904 0,0 3.717,0.047 4.092,0.094 0.377,0.048 0.659,0.048 0.424,-0.329 -0.236,-0.376 -0.376,-1.128 -0.424,-2.022 0.753,1.082 1.314,2.446 3.387,2.54 1.969,0.088 3.152,-1.082 3.67,-2.493 0.046,0.47 0.187,1.74 -0.894,2.352 2.257,0.047 3.527,0.047 4.139,0.047 0.611,0 1.129,-0.047 1.082,-0.565 -0.047,-0.517 0.047,-2.634 -0.047,-3.386 -0.094,-0.753 0,-3.434 0.047,-4.046 C -1.976,9.596 -2.07,7.103 -2.07,6.915 -2.07,6.727 -2.164,6.397 -2.446,6.35 -2.728,6.303 -5.151,6.217 -5.387,6.17 -5.622,6.123 -5.727,5.547 -5.727,5.217 M -14.3,-0.941 c -0.047,-0.47 0.047,-0.752 -0.8,-0.705 -0.847,0.047 -3.481,-0.094 -4.092,-0.094 -0.612,0 -1.036,0.047 -1.083,0.376 -0.047,0.329 0.142,5.41 0.094,5.739 -0.047,0.329 0.095,0.564 0.377,0.611 0.282,0.047 3.998,0.424 4.562,0.282 0.565,-0.14 1.083,0 1.083,-0.752 0,-0.753 -0.094,-4.986 -0.141,-5.457 m -4.422,20.886 c -0.189,0.188 -0.047,0.283 0.282,0.33 0.329,0.047 3.01,0.141 3.622,0.141 0.612,0 1.411,-0.047 2.117,-0.094 0.705,-0.047 3.058,-0.047 4.374,0.047 1.318,0.093 2.682,0.235 3.811,0.235 1.129,0 3.293,0.094 3.622,0.141 0.329,0.047 0.894,0.047 0.565,-0.283 -0.33,-0.329 -0.753,-0.846 -0.753,-0.846 0,0 -1.835,-0.188 -2.446,-0.188 -0.612,0 -4.375,-0.188 -5.88,-0.141 -1.505,0.046 -4.892,0 -5.504,-0.047 -0.612,-0.047 -1.411,0 -1.599,0.141 -0.188,0.141 -1.082,0 -1.411,0 -0.33,0 -0.612,0.376 -0.8,0.564 m -0.884,0.938 c 0,0 0.037,1.132 0.037,1.602 0,0.471 0.094,1.835 0,2.211 -0.094,0.376 0.047,0.471 0.377,0.471 0.329,0 2.446,0.094 2.681,0.047 0.235,-0.047 0.376,-0.236 0.376,-0.471 0,-0.235 0.047,-2.869 0.047,-3.104 0,-0.235 -0.094,-0.518 -0.376,-0.518 -0.282,0 -3.142,-0.238 -3.142,-0.238 m 7.61,4.425 c 0.377,0.047 3.435,-0.094 3.858,0 0.423,0.094 0.988,0.141 1.035,-0.706 0.047,-0.846 0.188,-2.681 0.188,-2.963 0,-0.282 -0.518,-0.518 -0.894,-0.518 -0.376,0 -4.704,-0.047 -4.704,-0.047 0,0 -0.003,2.493 -0.047,2.823 -0.141,1.035 0.188,1.364 0.564,1.411 m 8.092,0.047 3.152,0.141 c 0,0 0.14,-3.057 0.093,-3.387 -0.047,-0.329 -0.282,-0.423 -0.564,-0.423 -0.282,0 -1.976,-0.141 -2.305,-0.094 -0.329,0.047 -0.423,0.094 -0.423,0.376 0,0.282 0.047,3.387 0.047,3.387 m -29.871,-2.493 c -1.317,-0.094 -4.846,0 -5.927,0 -1.082,0 -4.328,-0.094 -5.645,-0.188 -1.317,-0.095 -4.516,0.094 -5.833,0.141 -1.317,0.047 -1.929,0.047 -2.352,0.235 -0.424,0.188 -0.705,0.235 -0.8,0.517 -0.094,0.283 0.047,0.424 -0.094,0.706 -0.141,0.282 -0.799,1.364 -0.799,1.364 0,0 5.08,0.236 4.656,0.423 -0.423,0.189 -0.846,0.095 -0.846,0.095 0,0 -3.952,0 -4.61,0.141 -0.659,0.14 -1.365,0.752 -1.647,0.988 -0.282,0.235 -0.094,0.423 0.8,0.423 0.479,0 2.446,0 3.293,0.047 0.847,0.047 3.669,-0.047 4.751,-0.094 1.082,-0.047 4.704,-0.047 6.162,0 1.459,0.047 3.669,0.094 5.457,0.047 1.787,-0.047 5.174,0.141 6.726,0.188 1.553,0.047 4.47,0.094 5.41,0.188 0.941,0.094 1.882,-0.235 1.223,-0.893 -0.658,-0.659 -1.458,-0.565 -2.117,-0.612 -0.658,-0.047 -4.563,-0.142 -4.939,-0.189 -0.376,-0.046 -0.611,-0.563 -0.893,-1.128 -0.212,-0.423 5.221,0.188 5.832,0.517 0.612,0.329 -0.658,-1.176 -0.658,-1.411 0,-0.235 0.376,-0.423 0.047,-0.753 -0.33,-0.329 -0.659,-0.564 -1.599,-0.611 -0.941,-0.047 -4.281,-0.047 -5.598,-0.141 m 5.456,-1.365 c -0.047,-0.517 0,-4.092 -0.047,-5.174 -0.047,-1.082 -0.047,-6.256 -0.047,-7.056 0,-0.8 -0.047,-2.51 -0.047,-2.934 0,-0.423 -0.188,-0.658 -0.564,-0.611 -0.377,0.047 -2.023,0 -2.446,0 -0.424,0 -0.612,0.235 -0.659,0.659 -0.047,0.423 0,1.38 0.047,1.851 0.047,0.471 0.471,0.565 0.847,0.612 0.376,0.047 0.665,0.086 0.947,0.18 0.282,0.094 0.833,0.049 0.833,0.049 v 0.49 l -5.214,0.127 c 0,0 -0.094,2.917 -0.047,3.34 0.047,0.424 0.847,0.424 1.176,0.471 0.329,0.047 4.28,0.141 4.28,0.141 l -0.048,0.429 c 0,0 -1.88,-0.006 -2.35,0.041 -0.471,0.047 -0.518,0.095 -0.612,0.424 -0.094,0.329 -0.376,2.634 -0.094,2.916 0.282,0.282 0.747,0.511 1.27,0.564 0.708,0.073 1.787,0.142 1.787,0.142 l -0.05,0.421 c 0,0 -0.915,0.1 -1.912,-0.049 -1.06,-0.158 -2.453,0.13 -2.93,0.098 -0.705,-0.047 -0.753,0.141 -0.753,0.8 0,0.658 0.095,2.587 0.095,2.587 0,0 5.221,0.141 5.88,0.188 0.658,0.047 0.705,-0.188 0.658,-0.706 m -0.658,-23.378 c -0.377,0.188 -1.223,-0.048 -1.646,-0.048 h -3.67 c -0.517,0 -0.846,0 -0.893,0.377 -0.047,0.376 0.187,2.587 0.14,3.387 -0.046,0.8 -0.046,1.928 -0.093,2.446 -0.047,0.517 0.14,0.705 0.799,0.705 1.038,0 4.657,0.142 5.175,0.047 0.517,-0.094 0.705,-0.094 0.705,-0.611 0,-0.518 -0.046,-5.363 -0.046,-5.645 0,-0.282 0.132,-0.958 -0.471,-0.658 m -7.079,7.092 c 0.014,-0.538 0.034,-0.94 0.034,-0.94 0,0 0.029,-1.031 0.039,-1.556 0.009,-0.526 0.077,-3.894 0.077,-3.894 0,0 -2.926,3.436 -4.476,3.441 -1.13,0.003 -4.642,-3.407 -4.642,-3.407 0,0 -0.181,2.239 -0.159,3.297 0.023,1.058 0,1.702 -0.006,2.179 -0.005,0.478 0.41,1.117 -0.308,1.189 -0.718,0.072 -1.232,0.066 -1.826,0.086 -0.593,0.02 -0.753,0.321 -0.706,0.651 0.047,0.329 0.189,0.987 0.095,1.411 -0.095,0.423 0.235,0.893 0.658,1.035 0.424,0.141 1.929,0.329 2.446,0.376 0.518,0.047 0.941,0.188 0.941,0.188 0,0 -1.223,0.282 -1.694,0.47 -0.47,0.189 -0.517,0.565 -0.517,0.8 0,0.235 -0.094,2.305 0.094,2.54 0.189,0.236 0.8,0.565 1.6,0.612 -0.659,0.376 -1.835,0.376 -2.635,0.329 -0.799,-0.047 -1.035,0.141 -1.128,0.471 -0.094,0.329 -0.142,2.399 0,2.775 0.14,0.376 0.658,0.47 1.458,0.565 0.799,0.093 1.646,0.423 1.646,0.423 0,0 -0.635,0.176 -0.894,0.329 -0.47,0.283 -0.282,2.023 -0.282,2.493 0,0.471 0.377,0.753 0.706,0.8 0.329,0.047 0.987,0.141 1.317,0.047 0.329,-0.094 0.47,-0.329 0.329,-0.611 -0.141,-0.283 -0.141,-2.682 -0.141,-2.682 0,0 0.499,2.976 1.769,3.447 1.27,0.47 2.418,0.364 2.888,0.128 0.47,-0.235 1.129,-0.988 1.27,-1.741 0.141,-0.752 0.376,-2.21 0.376,-2.21 0,0 0.235,0.846 0.235,1.176 0,0.329 0,1.693 -0.094,1.976 -0.093,0.282 0.189,0.376 0.424,0.376 0.235,0 0.753,0.047 1.082,0.047 0.329,0 0.611,-0.188 0.611,-0.612 0,-0.423 0.094,-1.882 0,-2.164 -0.094,-0.282 -1.034,-0.705 -1.034,-0.705 0,0 1.364,-0.236 1.74,-0.33 0.376,-0.094 1.505,-0.047 1.505,-1.175 0,-1.129 -0.047,-1.647 0.047,-1.882 0.095,-0.235 0.235,-0.941 -0.47,-0.988 -0.706,-0.047 -3.528,-0.282 -3.528,-0.282 0,0 1.387,-0.212 1.529,-0.494 0.141,-0.283 0.111,-1.058 0.07,-1.952 -0.07,-1.482 0.094,-1.741 -0.705,-1.882 -0.8,-0.141 -1.6,-0.376 -1.6,-0.376 0,0 2.023,-0.282 2.729,-0.282 h 1.223 c 0.235,0 0.611,-0.283 0.658,-0.612 0.047,-0.33 0.094,-1.552 0.094,-1.834 0,-0.283 -0.141,-0.518 -0.517,-0.612 -0.377,-0.094 -2.341,0.105 -2.328,-0.434 m -17.116,6.214 c 0,0.423 0.047,1.58 0,1.862 -0.047,0.282 0.157,1.061 0.11,1.437 -0.047,0.376 0,1.552 0.047,1.976 0.047,0.423 -0.057,2.791 -0.01,3.497 0.047,0.705 0.049,1.138 0.049,1.421 0,0.282 0.197,0.444 0.573,0.444 0.376,0 1.27,-0.094 2.446,-0.188 1.176,-0.094 2.869,0 2.869,0 0,0 0.047,-2.446 0,-2.728 -0.047,-0.282 -0.094,-0.471 -0.47,-0.471 -0.376,0 -4.536,-0.341 -4.536,-0.341 l 0.049,-0.343 c 0,0 1.665,-0.304 2.182,-0.257 0.517,0.047 0.659,-0.329 0.706,-0.611 0.047,-0.282 0.094,-0.753 0.047,-1.27 -0.047,-0.518 0,-0.988 -0.094,-1.223 -0.095,-0.236 -0.33,-0.376 -0.612,-0.376 -0.282,0 -2.376,-0.232 -2.376,-0.232 l 0.098,-0.637 c 0,0 1.449,-0.096 2.108,-0.049 0.658,0.047 1.487,0.07 1.77,0.023 0.282,-0.046 0.658,-0.14 0.846,-0.14 0.188,0 0.376,-0.189 0.376,-0.565 0,-0.376 -0.047,-1.976 -0.047,-2.211 0,-0.235 -0.376,-0.612 -0.752,-0.658 -0.376,-0.048 -3.479,-0.367 -3.762,-0.32 -0.282,0.047 -0.833,0.049 -0.833,0.049 l -0.049,-0.49 c 0,0 1.535,-0.049 1.911,-0.049 0.377,0 1.463,-0.178 1.463,-0.178 0,0 0.188,-2.258 0.047,-2.588 -0.141,-0.329 -0.235,-0.897 -0.941,-0.897 -0.706,0 -2.729,-0.094 -2.964,-0.094 -0.235,0 -0.329,-0.047 -0.329,0.235 0,0.282 0.141,3.673 0.141,4.332 0,0.658 -0.063,1.217 -0.063,1.64 m 6.931,-12.695 c 0,-0.329 -0.188,-0.517 -0.517,-0.517 -0.33,0 -5.316,0 -5.645,-0.047 -0.329,-0.047 -0.706,0.047 -0.8,0.47 -0.094,0.423 0.094,1.787 0.047,2.775 -0.047,0.988 -0.094,2.446 -0.141,2.729 -0.047,0.282 0.094,0.376 0.423,0.423 0.33,0.047 2.117,-0.047 3.199,0 1.082,0.047 2.117,0.188 2.587,0.235 0.471,0.047 0.894,0 0.894,-0.471 0,-0.47 -0.094,-1.598 -0.094,-2.821 0,-1.223 0.047,-2.447 0.047,-2.776 M -57.86,28.836 c 0.071,0.42 0.188,1.882 0.141,2.446 -0.047,0.564 -0.047,1.74 -0.047,2.023 0,0.282 0.094,0.517 0.423,0.564 0.33,0.048 3.2,-0.029 3.576,0 0.611,0.048 0.94,0 0.846,-0.564 -0.085,-0.512 -0.094,-3.622 -0.094,-4.046 0,-0.423 -0.094,-0.658 -0.564,-0.752 -0.471,-0.094 -3.252,0.111 -3.575,0.047 -0.471,-0.094 -0.753,0 -0.706,0.282 m 9.831,5.221 c 0.471,0 3.717,0.047 4.093,0.047 0.376,0 0.706,-0.047 0.706,-0.705 0,-0.659 0.093,-3.575 0.093,-3.998 0,-0.424 0.048,-1.082 0.048,-1.082 0,0 -1.929,-0.094 -2.587,-0.047 -0.659,0.047 -2.823,0 -2.823,0 0,0 0,1.411 -0.047,2.022 -0.047,0.612 -0.047,2.917 -0.094,3.34 -0.047,0.423 0.141,0.423 0.611,0.423 m 9.785,-2.869 c 0.047,0.564 0.141,1.928 0.047,2.305 -0.094,0.376 -0.094,0.376 0.518,0.424 0.611,0.047 4.092,0.047 4.421,0.047 0.329,0 0.612,0 0.612,-0.424 0,-0.424 0.188,-4.186 0.188,-4.422 0,-0.235 -0.095,-0.517 -0.376,-0.517 -0.282,0 -4.375,-0.141 -4.752,-0.141 -0.376,0 -0.658,-0.095 -0.705,0.329 -0.047,0.423 0,1.834 0.047,2.399 m 9.643,3.105 c 0,0 3.904,0 4.375,0.047 0.471,0.047 0.847,0.141 0.8,-0.518 -0.047,-0.658 -0.047,-4.045 -0.094,-4.28 -0.047,-0.235 0.094,-0.565 -0.424,-0.565 -0.517,0 -3.857,-0.188 -4.139,-0.188 -0.283,0 -0.612,0.094 -0.612,0.659 0,0.564 0.094,4.845 0.094,4.845 m -32.67,-36.692 c -0.658,0 -3.904,-0.047 -4.798,0.047 -0.893,0.094 -1.552,0.141 -1.552,0.141 0,0 0.094,6.892 0.071,7.197 -0.024,0.306 0.164,0.33 0.376,0.354 0.212,0.023 2.046,0.023 2.869,-0.048 0.824,-0.07 2.705,-0.117 3.034,-0.07 0.33,0.046 0.612,-0.071 0.588,-0.518 -0.023,-0.447 -0.023,-6.139 -0.023,-6.491 0,-0.353 0.094,-0.612 -0.565,-0.612 m -7.264,8.093 c -0.194,-0.776 -0.238,-5.255 -0.238,-6.057 0,-1.088 -0.439,-1.26 -4.617,-1.148 -1.042,0.028 -2.049,0.137 -2.114,1 -0.065,0.863 -0.003,5.309 -0.05,5.686 -0.047,0.376 -0.047,0.752 -0.47,0.893 -0.424,0.141 -2.722,0.282 -3.005,0.282 -0.281,0 -0.422,0.142 -0.469,0.471 -0.048,0.329 0.14,2.916 0.093,3.575 -0.046,0.659 -0.046,2.54 0.047,3.01 0.095,0.471 0.048,1.741 0.048,2.212 v 1.458 c 0,0 1.411,-0.188 2.163,-0.188 0.753,0 1.224,0.047 1.6,0.094 0.376,0.047 0.705,-0.047 0.423,-0.424 -0.282,-0.376 -0.799,-1.74 -0.705,-3.01 0.282,1.458 0.894,2.587 1.458,2.963 0.738,0.494 1.599,0.847 2.493,0.8 0.894,-0.047 1.835,-0.188 2.54,-1.176 0.856,-1.2 0.706,-1.646 0.847,-2.681 0.282,0.94 0.332,2.328 -0.094,3.199 -0.18,0.361 -0.141,0.564 0.329,0.47 0.47,-0.094 2.117,-0.141 2.776,-0.047 0.658,0.094 0.94,0 1.222,-0.047 0.283,-0.047 0.565,-0.047 0.471,-0.753 -0.094,-0.706 0.047,-4.469 0.047,-5.504 0,-1.035 -0.094,-3.763 -0.047,-4.092 0.047,-0.33 0.188,-0.612 -0.518,-0.517 -0.42,0.055 -2.081,-0.13 -2.597,-0.061 -0.736,0.099 -1.565,-0.136 -1.633,-0.408 m -8.235,-5.976 c -0.094,-0.424 -0.141,-0.8 -0.094,-1.082 0.047,-0.282 0.282,-0.659 -0.283,-0.612 -0.564,0.047 -4.28,0.142 -4.751,0.283 -0.47,0.141 -0.517,0.423 -0.564,0.705 -0.047,0.282 -0.094,3.152 -0.047,3.529 0.047,0.376 0.094,3.057 0.094,3.057 0,0 2.681,-0.188 3.34,-0.235 0.659,-0.047 1.176,-0.095 1.552,-0.141 0.376,-0.047 0.612,-0.047 0.612,-0.518 0,-0.471 0.141,-2.117 0.047,-2.681 -0.094,-0.565 0.188,-1.882 0.094,-2.305 m -4.281,19.239 c -0.329,0.189 -0.329,0.706 0.282,0.612 0.421,-0.065 2.776,-0.141 3.717,-0.141 0.94,0 2.775,0.141 3.528,0.094 0.752,-0.047 3.386,-0.189 4.045,-0.094 0.658,0.094 2.352,-0.047 3.011,-0.095 0.658,-0.046 2.21,0.095 2.916,0.189 0.706,0.094 1.552,-0.141 1.364,-0.424 -0.188,-0.281 -0.564,-0.799 -1.317,-0.799 -0.753,0 -4.234,-0.094 -5.503,-0.047 -1.271,0.047 -5.974,0.188 -7.291,0.141 -1.318,-0.047 -2.588,-0.047 -3.199,0 -0.612,0.047 -1.224,0.376 -1.553,0.564 m 0.235,5.081 c -0.047,0.376 0.141,0.611 0.424,0.611 0.282,0 1.929,-0.07 2.163,-0.047 0.471,0.047 0.659,-0.141 0.612,-0.611 -0.047,-0.471 -0.047,-2.541 -0.047,-2.87 0,-0.329 -0.094,-0.47 -0.706,-0.376 -0.611,0.094 -1.411,0.047 -1.787,0.047 -0.376,0 -0.659,0.047 -0.706,0.471 -0.047,0.423 0.094,2.398 0.047,2.775 m 6.539,-0.094 c -0.047,0.329 0.094,0.423 0.517,0.47 0.424,0.047 2.117,0 2.635,0 h 1.129 c 0.188,0 0.705,0.047 0.658,-0.564 -0.047,-0.612 -0.235,-2.54 -0.235,-2.776 0,-0.235 0.141,-0.658 -0.235,-0.612 -0.377,0.048 -3.34,0 -3.811,0 -0.47,0 -0.705,0.048 -0.705,0.471 0,0.424 0.094,2.681 0.047,3.011 m 7.715,-0.236 c -0.047,0.377 0,0.894 0.564,0.941 0.565,0.047 2.258,0.094 2.681,0.094 0.424,0 1.035,0.048 1.035,-0.564 0,-0.612 -0.047,-2.729 -0.047,-3.011 0,-0.282 -0.141,-0.846 -0.752,-0.799 -0.612,0.047 -2.87,0.093 -3.105,0.093 -0.235,0 -0.423,0.142 -0.423,0.377 0,0.235 0.094,2.493 0.047,2.869 M 4.915,-11.666 c -0.211,0.33 -1.081,2.046 -1.552,2.658 -0.47,0.611 -1.011,1.153 -1.223,1.552 -0.212,0.4 -0.635,1.012 -0.729,1.106 -0.094,0.094 -0.188,0.306 -0.188,0.565 0,0.258 0.023,0.423 0.023,0.587 0,0.165 -0.141,0.306 -0.399,0.4 -0.259,0.094 -0.447,0.141 -0.213,0.424 0.236,0.282 0.565,0.634 0.659,1.129 0.095,0.493 0.189,1.011 -0.188,1.458 -0.129,0.153 -0.235,0.258 -0.258,0.47 -0.024,0.212 -0.071,0.564 -0.048,0.847 0.024,0.282 -0.046,0.517 0,0.823 0.048,0.306 -0.093,1.552 -0.093,2.14 0,0.588 0.211,2.117 0.164,2.775 C 0.823,5.927 0.999,5.823 0.741,6.34 0.482,6.858 -0.586,6.782 -0.824,6.715 -1.062,6.646 -1.327,6.867 -1.331,7.352 c -0.004,0.485 -0.01,3.138 -0.033,3.703 -0.024,0.564 0.046,3.199 0.046,3.763 0,0.565 0.118,2.634 0.095,2.822 -0.023,0.189 -0.071,0.376 0.165,0.612 0.235,0.235 1.152,1.176 1.434,1.482 0.283,0.305 0.518,0.893 0.494,1.175 -0.023,0.283 -0.117,0.566 -0.258,0.659 -0.142,0.094 -0.236,0.212 -0.236,0.424 0,0.211 0.118,1.928 0.094,2.163 -0.023,0.236 -0.026,1.208 -0.012,1.573 0.014,0.366 -0.133,0.449 -0.294,0.449 -0.162,0 -1.063,0.006 -1.246,0.025 -0.335,0.033 -2.232,-0.297 -3.359,-0.009 -0.434,0.11 -0.732,-0.338 -0.638,-1.116 0.02,-0.164 0.086,-1.485 0.209,-2.416 0.072,-0.508 -0.077,-0.815 -0.503,-0.842 -0.445,-0.028 -0.854,-0.059 -0.879,0.385 -0.026,0.444 -0.179,1.951 -0.179,2.424 0,1.327 -0.58,1.49 -0.994,1.487 -1.182,-0.008 -2.462,-0.008 -2.642,-0.008 -0.329,0 -0.8,-0.14 -0.988,-0.094 -0.188,0.047 -0.846,0.094 -1.129,0.047 -0.282,-0.047 -1.034,0.209 -1.035,-0.806 0,-0.579 0.062,-1.701 0.061,-2.604 -0.001,-0.677 -0.035,-0.723 -0.061,-0.957 -0.012,-0.116 0.128,-0.382 -1.271,-0.335 -0.892,0.03 -0.949,0.126 -0.892,0.596 0.102,0.84 -0.128,3.115 -0.106,3.273 0.106,0.753 -0.257,0.928 -0.694,0.833 -0.508,-0.109 -2.446,-0.14 -2.869,-0.187 -0.424,-0.047 -0.706,0.047 -1.035,0 -0.329,-0.047 -0.329,-0.33 -0.329,-0.518 0,-0.188 0.14,-1.599 0.046,-1.976 -0.093,-0.376 0,-1.834 -0.046,-2.211 -0.047,-0.376 -0.142,-0.846 0.046,-1.082 0.188,-0.235 1.412,-1.364 1.553,-1.552 0.141,-0.188 0.235,-0.424 0.235,-0.705 0,-0.283 0.047,-3.387 0,-4.093 -0.047,-0.706 -0.047,-2.493 -0.047,-2.729 0,-0.235 -0.027,-1.661 0.047,-2.506 0.044,-0.509 -0.063,-0.814 -0.051,-1.498 0.009,-0.487 -0.548,-0.637 -0.842,-0.626 -0.808,0.031 -1.25,-0.071 -1.327,-0.661 -0.054,-0.419 -0.066,-4.197 -0.227,-6.071 -0.046,-0.542 -0.725,-1.183 -1.355,-1.214 -1.597,-0.08 -4.215,0.193 -4.465,0.193 -0.17,0 -0.457,0.98 -0.484,1.88 -0.027,0.899 -0.103,10.061 -0.139,10.316 -0.048,0.329 0.047,2.069 0.047,2.304 0,0.235 -0.142,0.847 -0.142,1.224 0,0.376 0.188,2.963 0.142,3.339 -0.047,0.376 0,3.67 0,3.952 0,0.282 0.046,0.753 0.376,0.893 0.329,0.142 1.081,0.565 1.223,0.847 0.141,0.282 0.376,0.635 0.282,0.776 -0.094,0.141 -0.094,0.306 0.023,0.447 0.118,0.141 0.823,0.871 1.176,1.129 0.353,0.259 0.871,0.894 1.059,1.059 0.188,0.164 0.893,0.846 1.011,1.082 0.118,0.235 0.094,0.611 -0.047,0.705 -0.141,0.094 -0.259,0.188 -0.282,0.377 -0.024,0.188 0.023,1.717 0.07,1.998 0.048,0.283 0,0.8 -0.047,0.989 -0.047,0.188 0.118,0.376 0.118,0.611 0,0.235 0,1.976 -0.047,2.188 -0.047,0.212 -0.306,0.446 -0.706,0.493 -0.197,0.024 -2.513,0.062 -5.091,0.098 -0.887,0.013 -1.377,-0.215 -1.142,-1.739 0.052,-0.337 0.011,-2.049 0.025,-2.88 0.004,-0.22 0.23,-1.665 -0.255,-1.665 -0.244,0 -0.959,-0.106 -1.617,-0.107 -0.124,0 -0.253,0.332 -0.346,0.698 -0.095,1.566 -0.025,4.504 0.012,4.865 0.086,0.816 -0.652,0.894 -0.951,0.884 -0.593,-0.019 -0.977,0.011 -1.03,0.011 -0.283,0 -1.741,0.024 -2.282,0.024 -0.541,0 -1.694,-0.048 -1.882,-0.071 -0.038,-0.005 -0.316,-0.011 -0.736,-0.019 -0.125,-0.002 -0.508,-0.219 -0.522,-0.567 -0.031,-0.789 -0.087,-2.279 -0.036,-3.614 0.027,-0.731 0.03,-1.605 0.025,-2.104 -0.005,-0.49 -0.231,-0.53 -0.707,-0.563 -0.576,-0.042 -1.006,0.121 -1.718,0.121 -0.627,0 -0.643,0.713 -0.637,0.838 0.016,0.491 -0.032,1.636 -0.051,2.558 -0.022,1.12 -0.051,2.306 -0.051,2.477 0,0.952 -0.553,0.803 -1.097,0.799 -0.213,-10e-4 -2.279,0.003 -2.608,-0.02 -0.329,-0.024 -1.716,0 -1.975,0 -0.067,0 -0.494,-0.014 -1.095,-0.035 -0.125,-0.005 -0.485,-0.255 -0.489,-0.641 -0.014,-1.246 0.2,-4.032 0.162,-5.411 -0.018,-0.612 -0.285,-0.688 -0.596,-0.688 -0.867,0 -1.479,0.073 -2.058,0.076 -0.197,0.001 -0.413,0.522 -0.391,0.986 0.021,0.465 -0.016,3.568 0,4.56 0.015,1.02 -0.273,0.988 -0.823,0.969 -0.473,-0.017 -0.796,-0.027 -0.849,-0.027 -0.236,0 -3.317,-0.094 -3.763,-0.142 -0.447,-0.047 -0.847,-0.047 -0.871,-0.446 -0.023,-0.401 0.047,-1.577 0.071,-2.353 0.023,-0.776 -0.141,-2.987 -0.164,-3.292 -0.024,-0.306 -0.354,-0.518 -0.33,-0.894 0.023,-0.377 0.07,-0.612 0.823,-1.2 0.753,-0.588 1.435,-0.964 1.741,-1.27 0.305,-0.306 0.94,-0.8 1.082,-0.964 0.141,-0.165 0.212,-0.283 0.212,-0.494 0,-0.212 0.187,-0.635 0.376,-0.894 0.188,-0.259 0.47,-0.423 0.587,-0.541 0.119,-0.117 0.283,-0.329 0.283,-0.541 0,-0.212 0.023,-1.129 0.047,-1.482 0.024,-0.353 0.071,-5.221 0.024,-5.692 -0.048,-0.47 -0.142,-1.929 -0.095,-2.046 0.047,-0.117 0.071,-0.188 0,-0.4 -0.07,-0.211 -0.069,-5.805 0.068,-8.98 0.102,-2.35 -0.124,-3.947 -0.132,-4.526 -0.005,-0.349 -0.252,-0.735 -1.253,-0.734 -1.387,10e-4 -3.57,0 -4.066,0.105 -0.257,0.055 -0.385,0.398 -0.396,0.94 0.109,1.84 0.03,4.999 0.072,5.856 0.015,0.337 0.105,0.944 -0.903,0.95 -0.782,0.005 -1.548,10e-4 -2.345,0.142 -0.28,0.049 -0.076,3.942 -0.1,4.178 -0.023,0.235 0.047,3.151 0.024,4.092 -0.024,0.941 0,1.952 0,2.282 0,0.329 0.117,0.611 0.282,0.752 0.164,0.141 0.87,0.823 1.012,0.965 0.14,0.14 0.329,0.282 0.305,0.705 -0.023,0.423 0.047,0.752 0.047,1.153 0,0.399 0.094,1.858 0.094,2.446 0,0.588 0.047,1.741 0.023,1.977 -0.023,0.235 0.062,0.798 -0.658,0.799 -0.577,0 -2.117,-0.024 -2.94,0.046 -0.544,0.047 -2.035,0.139 -2.272,-0.34 -0.363,-0.732 -0.111,-3.691 -0.128,-4.166 -0.017,-0.475 -0.133,-0.537 -0.741,-0.553 -0.948,-0.025 -0.88,0.477 -0.839,0.834 0.034,1.377 0.069,2.703 0.061,3.59 -0.003,0.326 -0.424,0.542 -0.511,0.555 -1.053,0.157 -4.437,0.08 -5.566,0.01 -0.335,-0.021 -0.251,-3.55 -0.184,-4.595 0,-0.256 -0.346,-0.271 -0.995,-0.276 -0.803,-0.006 -0.741,0.213 -0.739,0.657 0.001,0.598 -0.044,1.136 -0.044,2.402 0,0.776 0.137,1.787 -0.195,1.794 -0.955,0.02 -1.192,0.024 -1.667,0.041 h -2.819 c -0.102,0 -0.293,0.01 -0.293,-0.102 0,-0.112 -0.144,-4.296 -0.12,-4.485 0.023,-0.188 -0.094,-0.258 -0.094,-0.258 0,0 -0.4,-0.353 -0.423,-0.73 -0.024,-0.376 0.14,-1.104 0.352,-1.387 0.238,-0.32 1.294,-1.035 1.505,-1.199 0.212,-0.165 0.236,-0.4 0.212,-0.612 -0.023,-0.212 -0.071,-1.293 -0.094,-2.211 -0.023,-0.917 0,-2.375 0,-2.916 0,-0.541 0.047,-2.282 0.047,-2.446 0,-0.165 -0.024,-1.689 -0.031,-1.823 -0.035,-0.536 -0.648,-0.536 -1.504,-0.485 -0.548,0.033 -1.058,0.051 -1.358,-0.127 -0.23,-0.138 -0.047,-0.623 -0.024,-1.047 0.024,-0.423 0.048,-3.927 0.024,-4.468 -0.02,-0.415 0.009,-2.279 0.009,-2.373 0,-0.165 -0.1,-0.314 -0.127,-0.332 -0.117,-0.071 -0.634,-0.427 -0.87,-0.729 -0.164,-0.212 -0.141,-0.965 0,-1.129 0.142,-0.165 0.624,-0.726 1.167,-1.223 0.585,-0.533 1.229,-0.997 1.279,-1.035 0.095,-0.071 0.165,-0.142 0.165,-0.259 0,-0.088 0.088,-1.343 0.041,-1.926 -0.012,-0.173 -0.135,-0.285 -0.229,-0.379 -0.094,-0.094 -2.467,-2.443 -2.893,-2.869 -0.329,-0.329 -0.377,-0.659 -0.189,-0.847 0.377,-0.377 1.765,-1.552 1.976,-1.741 0.212,-0.188 0.262,-0.35 0.262,-0.514 0,-0.165 -0.097,-4.878 -0.097,-5.672 0,-0.116 0,-0.324 0.001,-0.601 l 1.068,0.002 c -0.02,0.661 0.047,1.768 0.084,2.175 0.047,0.518 0,4.046 0,4.046 0,0 1.881,-1.082 2.352,-1.317 0.47,-0.235 1.646,-0.941 2.022,-1.223 0.377,-0.283 2.023,-1.223 2.446,-1.506 0.424,-0.282 1.176,-0.423 1.553,-0.752 0.376,-0.33 1.176,-0.894 1.458,-0.988 0.229,-0.076 0.645,-0.339 0.793,-0.435 h 1.771 c -0.277,0.24 -0.715,0.697 -1.059,0.811 -0.423,0.141 -1.787,0.894 -2.258,1.082 -0.47,0.188 -1.881,1.223 -1.881,1.223 0,0 -0.188,0 -0.423,0.141 -0.236,0.141 -0.706,0.565 -1.13,0.753 -0.423,0.188 -2.116,1.176 -2.398,1.411 -0.283,0.235 -1.6,1.223 -2.306,1.412 -0.705,0.188 -0.564,0.611 -0.893,0.799 -0.33,0.188 -1.412,0.941 -1.6,1.082 -0.188,0.141 -0.282,0.188 -0.094,0.423 0.188,0.236 1.788,2.07 1.788,2.07 0,0 0.164,-1.505 0.094,-1.929 -0.048,-0.282 0.235,-0.517 0.47,-0.47 0.235,0.047 3.105,-0.094 3.105,-0.094 0,0 0.079,-1.411 0.094,-1.74 0.023,-0.541 -0.071,-0.753 0.706,-0.612 0.693,0.126 2.21,-0.047 2.493,0 0.282,0.047 0.517,-0.047 0.517,-0.33 0,-0.282 0,-1.034 0.047,-1.363 0.047,-0.33 0.047,-0.448 0.376,-0.448 0.33,0 3.082,-0.07 3.082,-0.07 0,0 -0.024,-1.317 0.023,-1.599 0.047,-0.282 0.094,-0.706 0.8,-0.706 0.706,0 2.211,0.047 2.493,0.047 0.282,0 0.424,-0.141 0.47,-0.424 0.047,-0.281 0,-0.893 0,-1.175 0,-0.095 -0.005,-0.2 0.011,-0.297 l 5.959,0.003 c -0.614,0.383 -1.16,0.736 -1.36,0.811 -0.376,0.141 -0.705,0.377 -1.035,0.658 -0.329,0.283 -1.74,0.659 -2.022,0.942 -0.282,0.282 -1.599,1.034 -2.305,1.552 -0.706,0.517 -3.105,1.693 -3.717,2.211 -0.611,0.517 -1.552,0.8 -1.74,1.035 -0.188,0.235 -1.27,1.129 -1.882,1.27 -0.611,0.141 -0.235,0.376 -0.47,0.47 -0.235,0.095 -1.129,0.283 -1.27,0.471 -0.141,0.188 -1.505,0.941 -1.976,1.223 -0.471,0.282 -2.164,1.458 -2.164,1.458 0,0 0,2.117 -0.047,2.399 -0.047,0.282 0.329,0.329 0.565,0.329 0.235,0 3.152,-0.094 3.622,-0.14 0.47,-0.047 3.951,-0.33 4.469,-0.377 0.517,-0.047 1.693,-0.047 1.693,-0.047 l 0.141,-1.27 c 0,0 0.377,0.846 0.941,0.988 0.564,0.141 1.365,0.376 2.587,-0.376 1.694,0.893 1.694,0.564 2.07,0.517 0.376,-0.047 1.035,0.094 1.411,-1.505 0.236,0.893 0.612,1.222 1.082,1.222 0.47,0 1.458,-0.047 1.458,-0.047 0,0 -0.329,-0.705 -0.329,-1.411 0,-0.705 0.095,-1.129 0.095,-1.129 0,0 0.517,1.694 1.081,1.976 0.565,0.282 1.694,0.611 2.164,0.47 0.47,-0.141 1.317,-0.046 1.6,-0.282 0.282,-0.235 1.128,-1.176 1.176,-2.446 0.282,1.74 -0.142,2.352 -0.518,2.869 1.035,0.095 1.787,-0.187 2.211,-0.187 0.423,0 0.847,0.093 1.129,0.093 0.282,0 0.564,-0.14 0.377,-0.564 -0.189,-0.424 -0.8,-3.105 -0.8,-3.105 0,0 1.599,2.305 2.069,2.87 0.471,0.564 2.164,2.587 2.164,2.587 0,0 -1.505,-0.282 -1.928,-0.141 -0.424,0.141 -3.199,0.094 -4.281,0.094 -1.082,0 -4.704,-0.329 -6.821,-0.094 -2.117,0.235 -4.234,0.141 -5.221,0.235 -0.988,0.094 -5.598,0.376 -6.633,0.282 -1.035,-0.094 -2.728,0.047 -3.669,0.282 -0.941,0.236 -2.494,0.047 -3.011,0.047 -0.517,0 -1.693,0.33 -1.976,0.424 -0.282,0.094 -0.893,0.188 -1.129,0.47 -0.235,0.282 0.048,0.753 0.424,0.8 0.376,0.047 2.54,-0.282 3.481,-0.235 0.941,0.047 4.657,-0.141 5.786,-0.141 1.129,0 3.622,-0.094 5.316,-0.189 1.693,-0.094 4.28,0.142 5.315,0.047 1.035,-0.094 2.023,-0.282 3.34,-0.282 1.317,0 5.175,0.141 6.444,0.188 1.27,0.047 7.151,0.094 7.151,0.094 0,0 2.493,1.976 3.01,2.352 0.518,0.377 1.176,0.8 1.6,1.082 0.423,0.283 0.846,0.424 1.128,0.33 0.283,-0.094 1.459,-1.035 1.835,-1.412 0.376,-0.376 2.352,-2.069 2.681,-2.21 0.33,-0.142 0.988,-0.236 1.27,-0.189 0.283,0.047 3.716,0 4.892,0.047 1.177,0.048 6.822,0.189 7.621,0.189 0.8,0 8.891,-0.047 9.596,0.047 0.706,0.094 2.541,0.282 3.058,0.188 0.518,-0.094 4.422,0.282 5.128,0.329 0.705,0.047 0.987,-0.047 1.834,0.047 0.847,0.094 0.988,0 1.364,0 0.377,0 0.753,-0.329 0.423,-0.658 -0.329,-0.33 -0.376,-0.659 -1.458,-0.706 -1.081,-0.047 -2.257,-0.094 -3.904,-0.282 -1.646,-0.188 -5.222,-0.377 -6.68,-0.377 -1.457,0 -6.209,-0.188 -8.467,-0.235 -2.258,-0.047 -12.56,-0.047 -12.56,-0.047 0,0 1.599,-1.74 2.07,-2.446 0.47,-0.706 2.399,-3.198 2.399,-3.198 0,0 -0.424,2.539 -0.471,2.822 -0.047,0.282 0.189,0.47 0.471,0.518 0.282,0.047 1.928,0.093 2.305,0.093 0.376,0 0.611,-0.188 0.611,-0.564 0,-0.377 0.094,-2.117 0.094,-2.117 0,0 0.424,2.117 1.647,2.446 1.223,0.329 1.834,0.142 2.211,0.094 0.377,-0.047 1.223,-0.188 1.505,-0.894 0.282,-0.705 0.518,-1.223 0.518,-1.223 0,0 0.14,1.412 0.093,1.741 -0.047,0.329 0.095,0.658 0.471,0.705 0.377,0.048 1.082,0.189 1.599,-0.188 0.518,-0.376 0.659,-1.223 0.659,-1.223 0,0 0,0.8 0.706,1.223 1.599,0.847 2.728,-0.376 2.728,-0.376 0,0 0.423,0.706 1.74,0.706 1.318,0 1.835,-1.129 1.835,-1.129 l 0.235,1.176 c 0,0 1.976,0.282 3.622,0.423 1.647,0.142 4.94,0.235 5.504,0.329 0.564,0.094 0.941,0 0.941,-0.47 0,-0.471 0.094,-1.6 0.047,-1.835 -0.047,-0.235 0.047,-0.423 -0.235,-0.658 -0.282,-0.236 -1.834,-1.176 -2.399,-1.459 -0.565,-0.281 -0.8,-0.564 -1.223,-0.705 -0.423,-0.141 -1.176,-0.847 -1.929,-1.082 -0.423,-0.132 -1.835,-1.317 -2.681,-1.693 -0.847,-0.377 -2.258,-1.318 -3.01,-1.694 -0.754,-0.376 -3.264,-2.238 -4.094,-2.493 -0.611,-0.188 -1.505,-0.894 -1.834,-1.035 -0.2,-0.086 -1.698,-0.968 -2.983,-1.701 l 6.304,-0.004 c 0.008,0.032 0.015,0.062 0.019,0.093 0.047,0.329 0,0.813 0,1.047 0,0.236 0,0.189 0.282,0.189 0.282,0 2.517,0.103 2.917,0.14 0.47,0.048 0.658,0.142 0.705,0.612 0.047,0.471 0,1.317 0,1.317 0,0 0,0.33 0.236,0.33 0.235,0 2.116,0.376 2.916,0.094 0.497,-0.177 0.377,0.235 0.377,0.423 0,0.188 0.047,0.988 0.047,1.27 0,0.282 0.187,0.471 0.611,0.517 0.423,0.048 2.117,-0.046 2.54,0.048 0.424,0.094 0.611,0.141 0.611,0.47 v 1.506 c 0,0.235 0.141,0.423 0.518,0.423 0.376,0 3.34,0.188 3.34,0.188 0,0 0.094,1.411 0.141,2.023 0.047,0.611 0.329,0.94 0.706,0.47 0.376,-0.47 0.847,-0.847 0.988,-1.176 0.141,-0.329 0.658,-1.364 0.658,-1.364 0,0 -1.317,-0.8 -1.788,-1.129 -0.47,-0.329 -1.928,-1.364 -2.304,-1.505 -0.376,-0.141 -1.271,-0.377 -1.694,-0.753 -0.424,-0.376 -3.34,-2.07 -3.716,-2.352 -0.377,-0.282 -1.882,-1.129 -2.117,-1.176 -0.235,-0.047 -1.082,-0.517 -1.458,-0.799 -0.237,-0.179 -0.849,-0.581 -1.375,-0.902 l 2.106,-0.004 c -0.075,0.036 -0.046,0.103 0.116,0.2 0.235,0.141 1.552,1.082 2.399,1.364 0.847,0.282 1.74,1.035 2.164,1.27 0.423,0.235 1.552,1.129 2.022,1.27 0.471,0.141 2.87,1.693 2.87,1.693 0,0 0.235,-0.94 0.188,-1.693 -0.047,-0.753 0.141,-2.164 0.094,-3.058 -0.014,-0.265 -0.024,-0.635 -0.032,-1.042 l 1.002,-0.004 c -0.012,1.828 0.018,5.641 0.018,5.939 0,0.376 0.094,0.658 0.376,0.846 0.282,0.189 1.882,1.2 2.094,1.341 0.211,0.141 0.446,0.306 0.234,0.635"
             style="fill:#000000;fill-opacity:1;fill-rule:nonzero;stroke:none"
             id="path304"
             inkscape:connector-curvature="0" />
        </g>
        <g
           id="g306"
           transform="translate(436.6834,412.8498)">
          <path
             d="m 0,0 c -0.588,0.024 -1.364,0.047 -1.858,0.071 -0.494,0.023 -0.893,0.047 -0.917,0.564 -0.023,0.517 -0.094,3.152 -0.023,3.387 0.07,0.235 0.14,0.541 0.117,0.706 -0.023,0.164 0,0.47 0,0.47 0,0 2.069,0.117 2.823,0.117 0.752,0 2.798,-0.14 2.798,-0.14 0,0 0.024,-1.882 0.071,-2.517 0.047,-0.635 0.047,-2.681 0.047,-2.681 0,0 -2.47,0 -3.058,0.023 M -3.763,6.327 C -4.445,6.28 -6.233,6.303 -6.233,6.303 l -0.023,5.128 c 0,0 1.622,0.117 2.422,0.117 0.8,0 2.917,-0.07 3.082,-0.141 0.164,-0.07 0.352,-0.023 0.329,-0.305 -0.024,-0.282 0.023,-2.94 0,-3.411 C -0.447,7.221 -0.494,6.821 -0.447,6.68 -0.4,6.539 -0.235,6.374 -0.518,6.303 -0.799,6.233 -3.081,6.374 -3.763,6.327 M -3.811,0.471 c 0,-0.189 -0.211,-0.48 -0.587,-0.447 -1.035,0.094 -1.906,-0.165 -2.305,-0.189 -0.4,-0.023 -1.317,0.118 -1.599,0.094 -0.283,-0.023 -0.635,0.118 -0.8,0.095 C -9.267,0 -9.431,-0.023 -9.455,0.282 -9.478,0.588 -9.549,1.976 -9.69,2.634 -9.831,3.293 -9.714,4.21 -9.737,4.563 c -0.024,0.353 0.306,0.565 0.564,0.565 0.259,0 1.412,0.07 1.741,0.117 0.329,0.047 2.987,0.07 3.152,0.07 0.164,0 0.423,-0.023 0.399,-0.211 -0.023,-0.188 0.094,-1.106 0.094,-1.646 0,-0.542 -0.024,-2.799 -0.024,-2.987 m -6.655,3.457 c -0.047,-0.329 -0.024,-3.81 -0.024,-3.81 0,0 -1.34,0.047 -1.74,-0.024 -0.3,-0.052 -0.33,-0.146 -0.753,-0.141 -0.332,0.006 -0.565,0.306 -1.74,0.235 -0.874,-0.052 -1.472,0.095 -1.472,0.284 0,0.188 -0.118,1.458 -0.118,1.881 0,0.424 0.141,1.224 0.118,1.553 -0.024,0.329 0,0.799 0,0.799 0,0 2.106,-0.024 2.694,0.093 0.589,0.118 1.6,0.274 2.047,0.306 0.634,0.047 0.705,0.024 0.8,-0.235 0.094,-0.259 0.235,-0.612 0.188,-0.941 m -5.369,5.625 c 0.189,0.094 2.076,1.102 2.076,1.102 0,0 0,-1.059 -0.023,-1.553 -0.024,-0.494 0.093,-2.351 0.117,-2.54 0.023,-0.188 -0.071,-0.329 -0.235,-0.329 -0.165,0 -1.441,-0.067 -1.77,-0.067 -0.329,0 -0.376,0.164 -0.329,0.494 0.047,0.329 0,1.223 0,1.505 0,0.282 0.024,0.635 -0.023,0.87 -0.047,0.236 0,0.424 0.187,0.518 m 3.134,1.267 c 0,0.187 0.094,0.399 0.094,0.399 0,0 1.364,0.141 1.953,0.165 0.587,0.023 1.74,-0.071 2.211,-0.141 0.47,-0.071 0.705,0.117 0.917,0.141 0.211,0.023 0.399,0.023 0.399,0.023 l 0.024,-5.174 c 0,0 -1.811,-0.094 -2.493,-0.07 -0.682,0.023 -1.224,0.211 -1.74,0.164 -0.518,-0.047 -1.153,-0.141 -1.294,-0.141 -0.142,0 -0.212,0.141 -0.212,0.259 0,0.117 0.141,4.186 0.141,4.375 m 3.693,2.681 c 0.376,0.329 1.129,0.635 1.646,0.753 0.518,0.117 0.494,0.352 1.341,0.775 0.847,0.424 2.399,1.294 2.399,1.294 0,0 0.141,-0.212 0.118,-0.447 -0.024,-0.235 -0.165,-0.752 -0.212,-1.105 -0.047,-0.353 0.094,-0.541 0.071,-0.988 -0.024,-0.447 0.047,-1.317 0.047,-1.317 0,0 -2.493,-0.142 -3.058,-0.165 -0.565,-0.023 -1.74,0 -1.976,0.023 -0.235,0.024 -0.376,0.212 -0.776,0.142 -0.4,-0.071 -1.176,0.047 -1.176,0.047 0,0 1.2,0.658 1.576,0.988 m 6.421,3.41 c 0.282,0.141 0.517,0.33 0.753,0.424 0.235,0.093 0.682,0.161 0.964,0.117 0.894,-0.141 2.775,0 3.505,-0.024 0.282,-0.008 0.47,-0.093 0.47,-0.47 0,-0.376 0.047,-4.045 0.047,-4.28 0,-0.236 -0.047,-0.471 -0.283,-0.423 -0.234,0.046 -2.822,-0.048 -3.292,0.046 -0.471,0.094 -2.258,0.094 -2.258,0.094 0,0 0.047,1.6 -0.094,2.258 -0.071,0.327 0.25,1.494 0.094,1.693 -0.235,0.306 -0.188,0.424 0.094,0.565 m -14.112,-2.493 c -0.189,-0.8 -0.518,-1.223 -1.459,-1.27 -0.94,-0.047 -1.331,0.138 -1.552,0.47 -0.376,0.565 0,1.741 0.377,1.976 0.376,0.235 1.364,0.282 1.787,0.188 0.423,-0.094 1.035,-0.564 0.847,-1.364 M 15.704,-4.18 c -0.347,0.289 -0.495,0.426 -0.604,0.535 -0.235,0.235 -1.035,1.552 -1.317,1.881 -0.282,0.329 -0.988,1.223 -1.223,1.365 -0.235,0.141 -0.564,0.658 -0.753,0.94 -0.188,0.282 -0.329,0.377 -0.564,0.471 -0.235,0.094 -0.235,0.188 -0.282,0.517 -0.048,0.329 0.094,2.352 0.047,2.776 -0.047,0.423 -0.047,1.175 -0.047,1.646 0,0.47 -0.048,2.775 -0.188,3.104 -0.142,0.33 0.188,0.988 0.14,1.553 -0.046,0.564 0.048,2.305 0.048,3.105 0,0.799 -0.048,1.505 -0.141,1.834 -0.094,0.329 0.141,1.411 0.093,1.928 -0.009,0.108 -0.015,0.451 -0.018,0.93 H 9.894 c -0.02,-0.958 -0.029,-2.127 -0.062,-2.623 -0.048,-0.705 0,-1.599 0.047,-2.211 0.047,-0.611 -0.047,-2.07 -0.047,-2.963 0,-0.894 0.047,-6.351 0.047,-6.774 0,-0.424 0.094,-1.599 0.047,-2.07 -0.047,-0.47 0,-1.27 0,-1.505 0,-0.235 -0.094,-0.658 -0.471,-0.424 -0.376,0.236 -0.988,0 -1.411,0.047 -0.423,0.047 -4.046,0.047 -4.046,0.047 L 3.904,5.245 c 0,0 2.305,0.282 3.105,0.235 0.8,-0.047 1.868,0.12 1.868,0.12 v 0.589 c 0,0 -1.727,0.138 -2.48,0.185 C 5.645,6.421 3.34,6.468 2.493,6.468 1.647,6.468 1.27,6.515 0.988,6.421 0.706,6.327 0.612,6.374 0.612,6.798 c 0,0.423 -0.142,4.045 -0.188,4.233 -0.048,0.188 0.046,0.376 0.235,0.376 0.188,0 2.776,-0.047 3.528,-0.094 0.752,-0.047 3.413,0.004 3.743,0.004 0.329,0 0.784,-0.032 0.784,-0.032 v 0.457 c 0,0 -1.329,0.042 -1.728,0.113 -0.4,0.07 -1.435,0.305 -1.788,0.282 -0.353,-0.024 -0.494,0 -0.682,0 -0.188,0 -0.447,0.094 -0.447,0.376 0,0.282 0.118,4.798 0.118,4.798 0,0 2.611,0 3.198,0.071 0.588,0.07 1.329,0.142 1.329,0.142 l 0.033,0.49 c 0,0 -3.549,0.291 -4.584,0.261 -1.093,-0.031 -1.502,0.062 -1.77,0.128 L 1.635,18.405 C 1.406,18.362 1.073,18.311 0.236,18.37 0.162,18.375 0.107,18.386 0.073,18.403 l -2.106,0.002 c -0.308,-0.183 -0.586,-0.342 -0.742,-0.412 -0.423,-0.188 -2.964,-1.74 -3.246,-1.929 -0.283,-0.188 -0.847,-0.141 -1.082,-0.376 -0.235,-0.235 -1.411,-0.706 -1.74,-0.94 -0.33,-0.236 -1.929,-1.177 -2.211,-1.271 -0.282,-0.094 -2.244,-1.261 -2.541,-1.411 -0.564,-0.282 -2.257,-1.364 -2.257,-1.364 l -0.189,0.235 c 0,0 0.095,0.8 0.095,1.035 0,0.235 0.047,0.599 0,0.881 -0.048,0.282 0.047,0.517 0.47,0.517 0.423,0 2.587,0.094 2.587,0.094 0,0 0.047,0.988 0,1.318 -0.047,0.329 0.094,0.611 0.47,0.658 0.377,0.047 2.682,0.047 2.964,0.141 0.282,0.094 0.518,0.047 0.518,0.376 0,0.329 0.047,1.976 0.047,1.976 0,0 2.728,0.094 3.057,0.047 0.298,-0.042 0.559,0.147 0.64,0.428 l -6.304,-0.003 c -0.833,-0.471 -1.575,-0.884 -1.816,-0.977 -0.611,-0.235 -2.446,-1.128 -2.775,-1.128 -0.329,0 -0.564,0.141 -0.658,0.376 -0.04,0.1 -0.148,0.809 -0.345,1.729 h -1.205 c 0.109,-0.289 0.196,-0.513 0.233,-0.6 0.141,-0.33 0.141,-1.27 0.141,-1.27 0,0 -0.799,0.141 -1.035,0.141 -0.235,0 -0.424,0.047 -0.47,0.799 -0.008,0.106 -0.14,0.479 -0.312,0.933 l -0.902,-0.003 c 0.014,-0.03 0.026,-0.057 0.037,-0.083 0.235,-0.517 0.847,-1.458 0.659,-1.787 -0.188,-0.329 -0.612,-0.894 -0.612,-0.894 0,0 -1.128,1.035 -2.117,0.8 1.553,-0.894 1.647,-1.929 1.929,-2.634 0.283,-0.706 0.535,-1.412 0.535,-1.976 0,-0.565 0.423,-1.505 0.423,-1.788 0,-0.282 -0.235,-2.446 -0.282,-3.199 -0.047,-0.752 0.188,-1.457 0.094,-1.928 -0.094,-0.471 -0.094,-2.399 -0.188,-3.152 -0.094,-0.752 0.047,-3.763 -0.047,-4.563 -0.076,-0.645 -0.06,-2.916 -0.051,-3.767 l 0.736,-0.002 c -0.005,0.35 -0.017,0.861 -0.044,1.323 -0.047,0.8 0.048,2.352 0.095,2.775 0.047,0.424 0.235,1.553 0.188,2.352 -0.047,0.8 -0.047,4.046 0,4.893 0.047,0.847 -0.047,3.058 0.047,3.575 0.094,0.518 0.235,1.646 0.188,2.211 -0.047,0.564 0,1.27 0,1.599 0,0.329 0.141,0.376 0.423,0.376 0.283,0 0.47,0.095 0.799,0 0.33,-0.094 0.471,-0.376 0.424,-0.658 -0.047,-0.282 -0.047,-2.776 -0.094,-3.481 -0.047,-0.706 0.094,-3.105 0.047,-3.763 -0.047,-0.659 -0.188,-3.716 -0.235,-4.705 -0.047,-0.987 -0.047,-5.409 0.047,-5.832 0.038,-0.173 0.006,-1.085 -0.045,-1.321 l 1.127,-0.005 v 1.043 c 0,0.518 0.141,3.622 0.047,4.093 -0.094,0.47 -0.141,0.941 0.376,0.893 0.518,-0.047 2.258,-0.187 3.058,-0.047 0.8,0.142 2.305,0.142 3.716,0.142 1.411,0 4.375,-0.142 5.316,0.094 0.94,0.235 2.54,-0.189 2.916,-0.094 0.377,0.094 0.564,0.517 0.847,0.376 C 0,-0.87 0.753,-0.917 1.035,-0.917 c 0.283,0 2.164,-0.047 3.622,-0.047 h 5.41 c 0.8,0 1.223,-0.188 1.458,-0.471 0.235,-0.282 1.176,-1.693 1.599,-1.975 0.424,-0.282 0.847,-1.129 1.129,-1.411 0.132,-0.132 0.421,-0.38 0.77,-0.668 z"
             style="fill:#000000;fill-opacity:1;fill-rule:nonzero;stroke:none"
             id="path308"
             inkscape:connector-curvature="0" />
        </g>
        <g
           id="g310"
           transform="translate(392.3714,425.292)">
          <path
             d="m 0,0 c -0.706,-0.188 -1.599,-0.188 -2.023,0.282 -0.423,0.471 -0.682,0.474 -0.564,1.318 0.105,0.758 1.035,1.082 1.505,1.035 0.47,-0.048 1.017,-0.298 1.411,-0.8 C 0.659,1.411 0.706,0.188 0,0 m -2.963,-10.09 c -0.024,-0.565 -0.095,-1.458 -0.095,-1.694 0,-0.235 -0.117,-0.352 -0.352,-0.399 -0.236,-0.048 -1.223,-0.188 -2.164,-0.306 -0.703,-0.089 -1.411,-0.094 -1.764,-0.141 -0.353,-0.048 -0.988,0.023 -0.988,0.023 0,0 0.023,1.764 0,2.353 -0.024,0.587 -0.024,2.163 0.07,2.492 0.094,0.33 0.142,0.424 0.4,0.447 0.259,0.024 1.05,0.046 1.492,-0.017 0.457,-0.065 1.27,-0.042 1.764,-0.065 0.494,-0.024 1.503,-0.066 1.503,-0.066 0,0 0.157,-2.063 0.134,-2.627 m -6.704,3.904 c -0.87,-0.07 -2.046,-0.046 -2.046,-0.046 l 0.023,5.197 c 0,0 2.87,0.047 3.599,0 0.729,-0.047 1.505,-0.023 1.741,-0.023 0.235,0 0.258,-0.141 0.258,-0.282 0,-0.142 0.071,-4.493 0.094,-4.657 0.024,-0.165 -0.07,-0.165 -0.188,-0.189 -0.117,-0.023 -2.611,0.071 -3.481,0 m 0.447,-4.21 c -0.118,-0.376 -0.165,-2.187 -0.165,-2.187 0,0 -1.27,-0.211 -1.951,-0.142 -0.683,0.071 -1.083,0.095 -1.318,0.095 -0.235,0 -1.435,0.023 -1.787,-0.048 -0.353,-0.069 -0.612,-0.047 -0.565,0.33 0.047,0.376 0.047,2.352 0.024,2.799 -0.024,0.447 -0.024,1.293 0.047,1.482 0.07,0.188 0.023,0.564 0,0.729 -0.024,0.164 0.047,0.164 0.258,0.188 0.212,0.023 1.482,0 1.623,-0.094 0.141,-0.094 0.306,0.07 0.424,0.094 0.117,0.023 1.341,0 1.787,-0.071 0.447,-0.07 0.894,0 1.012,-0.117 0.117,-0.118 0.305,0.047 0.399,-0.024 0.094,-0.07 0.4,-0.259 0.377,-0.541 -0.024,-0.282 -0.047,-2.117 -0.165,-2.493 m -8.843,4.234 c -0.259,-0.024 -0.377,0.118 -0.377,0.353 0,0.235 -0.023,2.422 0,2.94 0.024,0.517 0.047,1.74 0.047,1.74 0,0 1.435,0.071 2.423,0.118 0.988,0.047 3.387,-0.024 3.387,-0.024 l 0.047,-5.127 c 0,0 -1.082,0.047 -1.905,0 -0.824,-0.047 -3.364,0.023 -3.622,0 m 1.999,-5.692 c -0.094,-0.235 -0.189,-0.447 -0.189,-0.564 0,-0.118 -0.093,-0.236 -0.234,-0.236 -0.142,0 -1.741,0.071 -2.141,0.094 -0.4,0.024 -0.541,-0.187 -0.706,-0.187 -0.164,0 -0.329,0.093 -0.517,0.117 -0.188,0.023 -1.999,0 -1.999,0 0,0 -0.095,2.893 -0.024,3.152 0.071,0.259 0.118,1.857 0.094,1.999 -0.023,0.141 -0.07,0.282 0.142,0.282 0.211,0 2.116,0.141 2.775,0.118 0.658,-0.024 2.037,-0.171 2.281,-0.142 0.4,0.047 0.471,-0.046 0.447,-0.282 -0.023,-0.235 0.165,-4.116 0.071,-4.351 m -5.622,11.666 c -0.235,0 -0.282,0.094 -0.282,0.282 0,0.188 0.047,3.878 0.047,4.351 0,0.377 0.024,0.471 0.283,0.494 0.432,0.042 4.959,-0.02 5.198,0 0.282,0.024 0.352,-0.093 0.305,-0.329 -0.038,-0.185 0.141,-2.893 0.094,-3.364 C -16.088,0.776 -16.135,0 -16.135,0 c 0,0 -2.211,-0.141 -3.01,-0.235 -0.515,-0.062 -2.306,0.047 -2.541,0.047 m 6.657,1.905 c 0.07,0.612 0.047,1.905 0.023,2.164 -0.023,0.259 0.047,0.306 0.235,0.235 0.188,-0.07 1.223,-0.682 1.576,-0.846 0.353,-0.165 0.423,-0.353 0.565,-0.448 0.141,-0.093 0.47,-0.07 0.611,-0.258 0.141,-0.188 1.035,-0.752 1.435,-0.964 0.4,-0.212 2.164,-1.177 2.352,-1.341 0.188,-0.165 0.494,-0.4 -0.024,-0.353 -0.517,0.047 -2.375,0.118 -2.893,0.047 -0.517,-0.071 -2.069,-0.141 -2.611,-0.024 -0.54,0.118 -1.363,0.048 -1.363,0.048 0,0 0.023,1.129 0.094,1.74 m 10.113,-3.434 c 0.235,-0.094 1.435,-0.87 1.529,-1.035 0.094,-0.164 0.141,-0.329 0.118,-0.635 -0.024,-0.306 0.094,-1.975 0.164,-2.281 0.071,-0.306 0.118,-0.471 -0.211,-0.518 -0.33,-0.046 -1.435,-0.07 -1.6,-0.046 -0.164,0.023 -0.212,0.164 -0.212,0.399 0,0.235 0.024,3.669 -0.047,3.952 -0.07,0.282 0.024,0.258 0.259,0.164 M 2.211,3.434 C 1.638,3.032 1.364,2.822 1.364,2.822 c 0,0 -0.376,0.612 -0.612,0.847 C 0.518,3.904 0.518,4.093 0.612,4.422 0.654,4.57 0.829,5.231 1.044,5.961 L 0.346,5.963 C 0.285,5.707 0.245,5.496 0.235,5.363 0.188,4.704 0,3.622 0,3.622 c 0,0 -0.47,0.047 -0.799,0.047 -0.33,0 -0.753,-0.094 -0.753,-0.094 0,0 0.036,1.183 0.185,2.387 L -2.306,5.963 C -2.325,5.846 -2.341,5.74 -2.352,5.645 -2.493,4.469 -2.634,3.669 -2.634,3.669 L -3.01,3.528 c 0,0 -2.165,1.035 -3.152,1.505 -0.463,0.221 -1.061,0.586 -1.604,0.927 l -5.959,0.003 c 0.032,-0.194 0.147,-0.349 0.554,-0.318 0.611,0.047 1.882,0.047 2.258,0.047 0.376,0 0.752,-0.141 0.705,-0.423 -0.046,-0.283 -0.046,-0.655 0,-1.031 0.047,-0.376 0.282,-0.612 0.659,-0.565 0.376,0.047 1.834,-0.094 2.352,-0.094 0.517,0 0.705,-0.329 0.658,-0.705 -0.047,-0.377 0.189,-1.6 0.189,-1.6 0,0 1.834,-0.047 2.305,-0.047 0.47,0 0.564,-0.141 0.658,-0.658 0.094,-0.518 0.141,-2.074 0.141,-2.074 0,0 -2.305,1.27 -2.822,1.599 -0.518,0.329 -3.011,1.693 -3.575,2.023 -0.565,0.329 -3.011,2.023 -3.528,2.258 -0.518,0.235 -1.647,0.8 -1.647,0.8 0,0 -0.329,0.329 -0.564,0.47 -0.235,0.141 -0.47,0.047 -0.706,0.188 -0.044,0.026 -0.1,0.071 -0.164,0.127 l -1.771,0.003 c 0.034,-0.022 0.054,-0.036 0.054,-0.036 0,0 -2.07,0 -2.729,-0.047 -0.659,-0.047 -6.566,-0.275 -6.802,-0.275 -0.235,0 -0.329,0 -0.329,-0.283 0,-0.282 0.033,-0.193 0.362,-0.24 0.329,-0.047 2.159,-0.19 2.724,-0.143 0.564,0.047 1.693,-0.047 1.693,-0.047 0,0 0.188,-4.421 0.188,-4.704 0,-0.282 0.047,-0.47 -0.282,-0.517 -0.329,-0.047 -4.092,-0.188 -4.328,-0.235 -0.235,-0.048 -0.211,-0.377 -0.188,-0.471 0.117,-0.235 0.941,-0.188 1.411,-0.141 0.471,0.047 2.776,0 3.293,0 0.517,0 2.446,0.047 2.823,0.141 0.376,0.094 0.846,0.094 0.799,-0.376 -0.047,-0.47 0,-3.669 -0.047,-3.998 -0.047,-0.33 0.236,-0.753 -0.376,-0.659 -0.382,0.058 -2.258,0.235 -2.775,0.188 -0.518,-0.047 -2.823,-0.329 -3.435,-0.329 -0.611,0 -1.171,0 -1.406,-0.094 -0.236,-0.094 -0.182,-0.368 0.069,-0.4 0.243,-0.03 0.867,-0.024 1.197,-0.117 0.329,-0.095 1.932,-0.175 2.356,-0.128 0.423,0.047 1.03,-0.108 1.03,-0.108 0,0 -0.094,-4.986 -0.094,-5.175 0,-0.187 0,-0.423 -0.329,-0.423 -0.329,0 -4.563,-0.093 -4.986,-0.093 -0.423,0 -0.517,0 -0.565,0.282 -0.047,0.282 0,3.246 0.048,3.763 0.047,0.517 0.094,3.527 0.047,4.281 -0.047,0.752 -0.095,3.057 -0.142,3.575 -0.047,0.517 0.095,2.21 0.095,2.728 0,0.517 0.047,3.246 -0.048,3.669 -0.02,0.09 -0.031,0.236 -0.036,0.414 l -1.068,-0.002 c 0.006,-1.968 0.034,-7.42 0.116,-8.409 0.095,-1.129 -0.188,-5.175 -0.094,-5.833 0.056,-0.406 0.074,-2.89 -0.044,-3.337 -0.211,-0.212 -0.285,-0.826 -0.238,-1.038 0.047,-0.211 -0.068,-0.426 -0.185,-0.521 -0.118,-0.093 -3.534,-3.392 -3.602,-3.453 -0.082,-0.072 -0.741,-0.793 -0.741,-0.793 l 0.664,-1.004 c 0.122,0.021 0.589,0.775 0.76,0.926 0.275,0.243 1.693,1.882 2.21,2.258 0.518,0.377 1.365,1.035 1.6,1.223 0.235,0.188 0.893,0.235 1.176,0.235 0.282,0 1.933,0.048 3.258,0.048 1.65,0 3.105,-0.288 3.985,-0.195 0.894,0.094 4.517,-0.088 5.223,-0.229 0.705,-0.142 3.057,-0.236 4.092,-0.094 1.035,0.141 3.387,0.094 4.422,0.047 1.035,-0.047 2.493,-0.095 3.152,-0.095 0.658,0 0.987,-0.187 0.987,-0.705 0,-0.458 0.111,-2.683 0.038,-6.25 l 1.326,0.001 v 4.744 c 0,0.706 0.095,3.105 0.047,4.093 -0.047,0.987 0,2.21 -0.14,3.245 -0.141,1.035 0.235,2.305 0.14,3.058 -0.094,0.753 -0.187,3.387 -0.14,3.763 0.046,0.376 0.046,0.988 0.046,0.988 0,0 0.659,0.094 1.129,0.188 0.471,0.094 0.503,-0.044 0.447,-0.306 -0.05,-0.241 0.33,-1.387 0.094,-2.845 -0.158,-0.994 -0.023,-1.6 -0.023,-1.929 0,-0.33 0.094,-2.211 0,-2.917 -0.094,-0.705 0.047,-4.516 0,-5.504 -0.047,-0.987 -0.094,-2.446 -0.141,-3.433 -0.013,-0.27 -0.025,-0.585 -0.038,-2.43 l 1.14,-0.001 c 0.003,2.017 -0.001,2.505 -0.021,2.76 -0.047,0.611 0,5.974 0.048,6.444 0.047,0.471 0.047,3.952 0,4.422 -0.048,0.471 0.147,1.553 0,2.211 -0.095,0.424 0.141,0.564 0.188,0.988 0.047,0.424 -0.047,1.599 -0.141,2.164 -0.095,0.564 0.412,2.108 0.705,2.963 0.565,1.647 2.352,2.729 2.352,2.729 0,0 -0.987,-0.141 -1.787,-0.706"
             style="fill:#000000;fill-opacity:1;fill-rule:nonzero;stroke:none"
             id="path312"
             inkscape:connector-curvature="0" />
        </g>
        <g
           id="g314"
           transform="translate(442.985,399.6032)">
          <path
             d="m 0,0 c -0.612,-0.659 -3.441,-3.988 -5.206,-5.001 -0.985,0.492 -2.376,1.151 -3.355,1.558 -0.738,0.306 -1.83,1.153 -2.565,1.402 -3.136,1.062 -5.888,0.995 -8.982,0.635 0.165,0.799 0.729,2.258 1.999,3.292 1.276,1.041 3.57,2.646 4.84,3.115 1.27,0.471 3.495,1.225 4.389,1.225 0.894,0 2.185,0.102 3.266,0.102 1.082,0 2.475,-0.016 3.368,-0.204 C -1.352,5.936 0.229,5.842 1.123,5.512 2.017,5.183 4.029,4.938 4.593,4.797 3.888,3.904 2.755,2.598 2.144,1.939 Z m -16.433,-10.82 c -1.327,2.144 -5.066,4.214 -5.8,4.387 -0.733,0.173 -3.71,2.053 -4.25,1.91 0.568,0.15 2.165,0.623 3.341,0.953 1.176,0.329 3.152,0.752 3.81,0.799 0.659,0.047 2.023,0.047 3.199,0.047 1.176,0 3.152,-0.235 3.575,-0.376 0.423,-0.141 1.835,-0.47 2.211,-0.706 0.376,-0.235 1.223,-0.635 1.528,-0.894 0.307,-0.258 1.603,-0.821 1.674,-1.526 -2.923,-2.362 -6.886,-3.92 -9.288,-4.594 m -18.509,-4.729 c -0.481,1.107 -1.107,3.592 -2.79,5.206 -2.354,2.256 -3.777,3.266 -5.19,3.943 0.494,0.837 3.34,1.909 5.598,1.909 2.258,0 5.835,-0.21 7.247,-0.681 1.411,-0.47 2.92,-0.453 3.436,-0.782 0.518,-0.33 2.158,-0.875 2.722,-1.157 0.565,-0.283 2.854,-1.775 3.607,-2.246 0.752,-0.47 2.518,-2.449 2.518,-2.449 -3.675,-1.429 -11.552,-3.712 -17.148,-3.743 m -17.216,2.025 c -1.294,0.378 -2.859,0.778 -4.185,1.275 -1.159,0.435 -2.213,1.11 -3.318,1.583 -4.093,1.75 -6.379,2.858 -8.318,4.338 1.269,0.661 2.933,1.522 4.241,1.77 2.919,0.552 6.162,1.035 8.796,0.612 2.635,-0.424 5.363,-1.177 6.775,-1.741 1.411,-0.565 4.28,-2.258 5.033,-2.729 0.752,-0.47 4.084,-2.942 4.789,-4.071 0.706,-1.128 1.089,-3.181 1.089,-3.181 0,0 -2.88,0.09 -6.175,0.357 -2.693,0.219 -5.754,0.916 -8.727,1.787 M -80.483,4.338 c 0,0 4.418,0.817 5.971,0.817 1.552,0 4.528,0.098 5.563,0.051 1.034,-0.047 2.761,-0.044 3.419,0.051 0.659,0.094 2.247,0.038 2.858,-0.102 0.612,-0.142 3.809,-0.931 4.185,-1.072 0.376,-0.141 1.288,-1.021 1.288,-1.021 0,0 -5.263,-4.362 -5.524,-5.001 -0.807,-0.331 -4.76,-1.606 -5.718,-2.435 -0.865,-0.576 -1.172,-1.24 -3.111,0.138 -0.656,0.471 -8.931,8.574 -8.931,8.574 m 26.079,-1.48 c 0.329,0.094 0.947,0.617 1.276,0.663 0.329,0.048 1.251,0.386 2.756,0.715 1.505,0.329 1.905,0.475 2.705,0.663 0.8,0.189 3.318,0.397 3.929,0.256 0.612,-0.141 2.758,-0.091 3.981,-0.562 1.223,-0.47 2.451,-1.484 3.062,-2.143 0.612,-0.659 2.253,-3.34 3.165,-5.665 -3.675,0.459 -6.839,0.612 -11.762,-1.671 -1.066,0.711 -6.64,1.912 -8.029,2.149 -1.389,0.236 -7.973,0.338 -7.973,0.338 0,0 2.962,2.867 4.185,3.573 1.223,0.706 2.705,1.684 2.705,1.684 m 25.382,2.212 c 2.135,0.136 3.16,-0.234 3.912,-0.375 0.753,-0.141 4.132,-1.162 5.213,-2.386 -0.611,-0.658 -1.03,-2.828 -1.266,-3.534 -0.111,-0.33 -5.926,-1.929 -7.145,-2.586 -1.389,0.398 -3.683,0.332 -3.93,0.443 -0.25,1.091 -0.728,2.229 -1.275,3.402 -0.716,1.533 -1.455,3.583 -2.017,3.374 0.987,0.369 4.373,1.525 6.508,1.662 M 6.588,6.261 C 5.788,6.308 3.718,6.591 2.824,6.825 1.93,7.06 -0.516,7.249 -1.55,7.39 -2.586,7.531 -3.479,7.766 -4.655,7.908 -5.832,8.049 -8.136,7.719 -8.983,7.531 -9.83,7.343 -12.041,6.92 -13.969,6.261 -15.897,5.603 -18.438,4.05 -18.438,4.05 c 0,0 -2.399,1.459 -4.798,2.211 -1.406,0.441 -3.576,0.423 -4.939,0.47 -1.365,0.047 -3.105,-0.516 -4.516,-0.846 -1.411,-0.329 -3.999,-0.988 -3.999,-0.988 0,0 -0.893,0.518 -1.552,0.847 -0.659,0.329 -2.352,0.564 -3.105,0.658 -0.752,0.094 -2.164,0.282 -3.575,0.189 -1.411,-0.095 -4.986,-0.942 -6.491,-1.223 -1.506,-0.283 -3.552,-1.285 -3.552,-1.285 0,0 -0.664,0.51 -1.117,0.755 -0.786,0.423 -2.105,0.718 -3.14,0.906 -1.035,0.188 -4.328,0.658 -6.021,0.847 -1.694,0.187 -8.374,-0.283 -10.538,-0.376 -2.163,-0.095 -7.637,-0.465 -7.637,-0.465 0,0 5.427,-6.686 7.12,-8.285 1.694,-1.6 3.764,-3.105 4.61,-3.951 0.847,-0.847 6.398,-4.093 8.138,-4.799 1.741,-0.706 6.727,-3.01 10.208,-3.999 3.481,-0.987 9.173,-1.928 12.089,-2.069 2.917,-0.142 7.903,0.047 10.303,0.376 2.398,0.329 6.114,1.035 8.607,1.741 2.493,0.705 5.881,2.117 9.644,3.857 3.763,1.74 6.351,3.669 8.844,5.456 2.493,1.788 4.939,4.281 5.691,5.034 0.753,0.753 3.246,3.622 3.717,4.187 0.47,0.564 2.352,2.963 2.352,2.963 0,0 -0.518,-0.046 -1.317,0"
             style="fill:#ffffff;fill-opacity:1;fill-rule:nonzero;stroke:none"
             id="path316"
             inkscape:connector-curvature="0" />
        </g>
        <g
           id="g318"
           transform="translate(416.4211,477.892)">
          <path
             d="m 0,0 c -1.021,0 -2.11,0.204 -3.062,0.204 -0.953,0 -3.198,-0.136 -3.198,-0.136 l -4.968,-0.136 -1.837,0.136 c 0,0 -3.879,-0.204 -5.308,-0.204 -1.429,0 -3.13,0.068 -3.13,0.068 0,0 -1.293,-0.204 -1.701,-0.136 -0.408,0.068 -3.475,10e-4 -3.701,-0.263 -0.408,-0.476 0.706,-0.898 0.706,-0.898 0,0 2.402,0.128 3.014,0.128 0.613,0 3.587,0.08 4.132,0.012 0.544,-0.068 2.251,-0.208 2.795,-0.14 0.545,0.068 2.63,0.128 2.63,0.128 l 2.502,0.193 2.309,-0.065 2.216,0.02 2.081,-0.02 7.923,0.307 0.578,0.564 z"
             style="fill:#000000;fill-opacity:1;fill-rule:nonzero;stroke:none"
             id="path320"
             inkscape:connector-curvature="0" />
        </g>
      </g>
    </g>
  </g>
</svg>
