<?xml version="1.0" encoding="UTF-8" standalone="no"?>
<svg
   xmlns:dc="http://purl.org/dc/elements/1.1/"
   xmlns:cc="http://creativecommons.org/ns#"
   xmlns:rdf="http://www.w3.org/1999/02/22-rdf-syntax-ns#"
   xmlns:svg="http://www.w3.org/2000/svg"
   xmlns="http://www.w3.org/2000/svg"
   xml:space="preserve"
   enable-background="new 30.5 31.5 412 533"
   viewBox="30.5 31.5 400 500"
   height="500"
   width="400"
   y="0"
   x="0"
   version="1.1"
   id="svg2"><metadata
     id="metadata4"><rdf:RDF><cc:Work
         rdf:about=""><dc:format>
          
          
          
          
          image/svg+xml
        
        
        
        
        </dc:format><dc:type
           rdf:resource="http://purl.org/dc/dcmitype/StillImage" /><dc:title></dc:title></cc:Work></rdf:RDF></metadata><defs
     id="defs6" /><path
     id="path4148"
     d="M 230.45,531.13 C 156.13,477.21 105.19,409.11 74.71,322.97 47.07,244.87 35.98,150.22 40.8,33.62 l 0.02,-0.46 379.82,0 0.02,0.46 c 4.81,116.6 -6.28,211.24 -33.91,289.35 -30.48,86.14 -81.42,154.24 -155.74,208.16 l -0.28,0.2 -0.28,-0.2 z"
     style="fill:#e00e00" /><path
     d="M 419.96,33.21 C 429.03,252.66 383.71,419.16 230.51,530.31 146.04,469.02 94.36,390.9 66.52,296.34 64.43,289.25 62.48,282.07 60.65,274.8 49.2,229.11 42.88,179.78 40.77,126.86 39.57,96.8 39.72,65.58 41.06,33.21 l 189.45,0 189.45,0 m 0.92,-0.95 -0.92,0 -189.45,0 -189.45,0 -0.92,0 -0.04,0.92 c -4.82,116.66 6.28,211.36 33.93,289.52 30.51,86.24 81.51,154.41 155.91,208.39 l 0.56,0.41 0.56,-0.41 C 305.46,477.11 356.46,408.94 386.97,322.7 414.62,244.54 425.72,149.84 420.9,33.18 l -0.04,-0.92 0,0 z"
     id="path10" /><path
     style="fill:#ffffff;stroke:#000000;stroke-linecap:round;stroke-linejoin:round;stroke-opacity:1"
     id="path3056"
     d="m 103.00231,80.472899 c -3.6754,3.523469 2.35453,5.656151 6.27965,4.175449 6.70557,-2.529597 8.49599,10.74937 8.82832,14.161435 1.30482,13.396897 0.40186,24.925007 -0.57908,38.322607 C 106.22619,116.39146 96.75473,96.334297 85.36926,93.502816 78.6733,91.837599 70.88782,98.42152 69.89358,103.40412 c -0.77006,3.8591 5.91486,1.39703 7.82215,-0.39223 8.68663,-8.149053 18.97848,16.09304 32.36683,37.27444 -17.57744,-8.6929 -33.8863,-21.07962 -46.41796,-19.09964 -5.71246,0.90255 -10.31502,3.97679 -8.51825,13.55412 0.89642,4.77817 6.57943,0.50833 6.94971,-2.96423 0.52083,-4.88438 14.88822,-0.66455 20.39188,2.56495 l 25.78432,15.28241 c 7.35812,4.36116 -15.24222,33.68599 -19.23769,36.84048 -4.81752,3.5794 -10.433599,4.20279 -11.76485,-0.25299 -1.460207,-4.8874 -7.80427,-5.47733 -7.47643,-2.16985 0.47821,4.82435 4.3949,11.94255 12.39993,12.82738 12.40765,1.37156 25.05417,-21.35392 34.004,-38.83959 20.36767,19.52798 35.43561,53.22777 51.35114,76.31728 2.36454,-6.37507 3.14844,-18.78819 7.64905,-23.31901 -18.48428,-19.31025 -39.07184,-40.06452 -51.61519,-63.83049 2.47922,-19.97989 2.82183,-45.74764 2.22456,-59.64708 -0.35841,-8.341219 -12.2558,-17.189801 -22.80447,-7.077171 z" /><path
     style="fill:#ffffff;stroke:#000000;stroke-linecap:round;stroke-linejoin:round;stroke-opacity:1"
     id="path3832"
     d="m 168.34186,105.39351 c 2.70628,-0.40509 4.3217,-1.12071 6.06493,-2.35129 -6.68692,-3.388716 -12.85098,-9.416465 -16.60745,-15.534051 -0.81756,14.961711 2.88577,22.976481 5.54721,25.983951 0.52594,-1.99962 0.81072,-3.72173 2.0436,-5.36791 10.5096,15.18155 38.3313,0.21615 46.31389,19.52327 -6.37587,6.17681 -11.02953,7.59253 -15.20336,5.51155 l -6.55638,23.37447 c 11.6298,-6.98448 17.8875,-18.99336 26.93795,-20.95149 5.90248,-1.27709 13.5717,2.88596 7.12631,12.4 -4.98894,7.36388 -24.18774,14.4222 -23.94461,25.36979 -14.54421,6.7799 -22.08801,16.4662 -21.94949,33.35164 -13.84075,15.73265 -17.77426,34.013 -4.41833,48.45954 -3.29854,12.36828 1.42312,21.6007 11.25967,26.6528 -1.08082,3.442 -0.35725,7.63841 1.42982,9.98383 0,0 -2.84006,2.71968 -4.44345,5.66038 -3.02501,5.25658 -1.9832,13.33745 -7.39074,25.97379 -13.30275,-19.09863 -38.43838,-45.45002 -39.49502,-59.36064 -1.04084,-13.70238 -0.96823,-21.17268 -9.4649,-52.83438 -2.17558,-8.107 -19.06478,-9.52097 -23.56055,0.64355 -0.73352,1.65843 -0.39464,4.64754 4.89941,1.75631 5.19003,-2.83443 10.41996,-0.22352 12.56941,4.87707 4.29806,10.19917 6.63679,27.7026 9.57591,44.46373 -14.86059,-13.1123 -40.90683,-42.77903 -51.96209,-18.88662 -1.5979,3.45336 2.81812,5.31757 5.52152,2.75746 2.34837,-2.2239 4.11997,-5.91349 12.12168,-2.13498 12.69989,5.99705 24.62177,18.67649 28.00017,22.73333 -11.12852,-2.26204 -19.11115,-2.59158 -29.675068,-1.7973 -8.5585,0.64349 -13.059853,9.49998 -9.165073,19.12314 0.60186,1.48706 4.118071,-0.10548 4.444721,-4.98742 0.84713,-12.66085 33.93222,-5.06363 38.06693,-4.13628 3.24706,0.72826 -0.23063,47.32583 -15.58605,40.5184 -2.73332,-1.21175 -9.74649,-1.6899 -7.47938,2.3362 28.66142,22.68238 29.29791,-19.46287 31.41379,-30.32613 l 39.06181,67.46594 c 5.81657,10.04614 8.20525,-15.51814 14.43541,-19.43967 10.95522,-6.89568 20.01559,-3.76845 27.25843,-18.86808 0.11572,5.93831 6.63161,17.9498 18.54396,16.81774 -0.19039,5.97085 5.75952,13.51391 14.3212,13.02705 0.37468,5.33396 3.28521,13.0839 11.61316,13.93271 l 1.26444,7.54495 c 1.47553,8.54249 1.16265,13.50081 1.30923,21.65478 -0.24492,21.8769 -14.82528,36.05428 -32.74765,38.83611 -10.94469,1.69878 -28.72725,-7.86726 -30.82152,-22.23485 -0.95263,-6.5354 1.09537,-15.81642 9.14766,-21.94885 13.03296,-9.9256 35.46736,-5.28822 54.42151,5.34759 -0.0951,-6.26858 0.2627,-11.53885 -1.30923,-21.65478 -16.36759,-9.05498 -38.05716,-13.96731 -59.00844,-8.2173 -18.3264,5.02962 -32.69174,22.89428 -33.48449,43.51001 -0.87572,22.77356 12.3929,42.13823 33.58791,51.12648 11.45661,4.85845 25.6272,7.07516 40.27256,4.67358 16.98402,-2.78508 32.32672,-13.59375 42.9444,-33.00216 19.0566,-34.8342 21.4867,-91.74771 -18.10759,-143.79463 14.57998,-9.61707 38.58874,-12.04149 53.51929,3.99086 11.46792,-16.32188 27.28388,-21.34983 46.25026,-15.25058 -9.74914,-22.49273 -2.87413,-44.19147 20.23904,-52.16505 -19.67169,-20.0693 -14.30495,-58.8298 13.82521,-73.25945 -26.16904,-30.0227 -20.39396,-61.419337 4.56081,-93.64089 -55.95744,-0.287939 -145.52514,74.09291 -126.70725,100.48222 12.30206,17.25192 3.18117,28.06557 -5.70132,38.19742 -8.13422,5.6278 -17.44906,10.66602 -25.70558,15.94255 -6.2851,-10.70643 2.58729,-22.92745 7.88974,-36.60905 5.26686,-13.59033 16.13092,-22.18141 6.41369,-48.60203 16.15317,-26.130201 1.3602,-27.753925 6.34615,-34.413144 3.78484,-5.054985 7.02719,-9.193928 6.51584,-14.238107 -4.77522,3.477101 -9.32174,3.407789 -11.593,6.261472 -3.559,4.471512 -4.17652,7.594933 -6.54241,8.895708 -1.23011,-4.98848 -1.21711,-9.976957 0.30481,-14.965435 -7.00612,4.661128 -8.83186,11.019448 -7.85877,18.386101 -7.13938,0.894385 -16.97528,-9.833408 -22.80459,-8.409146 -2.35757,0.57605 -3.06969,2.092391 -3.27806,4.133324 -5.54659,0.091 -12.04411,0.498987 -19.24131,1.140215 -5.22615,-4.521345 -10.45209,-7.568151 -15.67804,-7.696515 2.90314,6.364441 7.02983,10.037114 7.41136,21.949307 l 29.0757,9.83444 c 2.66315,0.90078 5.539,4.94093 1.85283,7.98156 l -5.79344,3.32646 c -12.93657,-20.51609 -43.95019,-7.88463 -52.4387,-18.83457 z" /><path
     style="fill:#ffffff;stroke:#000000;stroke-linecap:round;stroke-linejoin:round;stroke-opacity:1"
     id="path3834"
     d="m 297.12614,393.19481 c 14.45245,-6.57753 28.71993,-20.3912 35.99173,-47.59902 0.2098,-0.78474 1.12705,-2.97118 3.3575,-0.87573 l 4.81727,4.52525 c 2.40179,-5.87602 -0.53823,-33.39112 -23.50235,-47.88057 1.97469,17.74912 -4.1298,34.31528 -11.28005,50.54357 4.70962,0.18973 8.64261,-3.01248 13.96269,-6.64691 1.94822,-1.3307 3.39757,-1.81387 3.12962,-0.37545 -2.54131,14.85576 -18.13576,27.09791 -24.68081,28.90657 -0.14135,6.75336 -0.83178,12.44331 -1.7956,19.40229 z" /><path
     style="fill:none;stroke:#000000;stroke-width:1;stroke-linecap:round;stroke-linejoin:miter;stroke-miterlimit:4;stroke-dasharray:none;stroke-opacity:1"
     id="path2992"
     d="m 226.63912,92.063437 c 5.22815,-0.128744 5.29539,3.687797 10.93801,4.764243" /><path
     style="fill:none;stroke:#000000;stroke-width:1;stroke-linecap:round;stroke-linejoin:miter;stroke-miterlimit:4;stroke-dasharray:none;stroke-opacity:0.94117647"
     id="path2994"
     d="m 234.37439,96.035779 c 0.0459,1.431691 -0.68316,3.34909 -2.03958,3.524444 -1.98925,0.257165 -4.00134,-3.391178 -0.69956,-5.284735" /><path
     id="path4281"
     d="m 247.76006,207.25292 c -4.89023,3.06216 -9.27085,6.27861 -11.43693,8.10645"
     style="fill:none;fill-rule:evenodd;stroke:#000000;stroke-width:1px;stroke-linecap:round;stroke-linejoin:miter;stroke-opacity:1" /><path
     id="path4283"
     d="m 186.38562,291.79961 c 3.90927,-3.5637 6.58313,-5.2694 9.86063,-7.47252"
     style="fill:none;fill-rule:evenodd;stroke:#000000;stroke-width:1px;stroke-linecap:round;stroke-linejoin:miter;stroke-opacity:1" /><path
     id="path4285"
     d="m 215.53249,317.33741 1.77438,-4.58235"
     style="fill:none;fill-rule:evenodd;stroke:#000000;stroke-width:1px;stroke-linecap:round;stroke-linejoin:miter;stroke-opacity:1" /></svg>