<?xml version="1.0" encoding="UTF-8" standalone="no"?>
<svg
   xmlns:dc="http://purl.org/dc/elements/1.1/"
   xmlns:cc="http://creativecommons.org/ns#"
   xmlns:rdf="http://www.w3.org/1999/02/22-rdf-syntax-ns#"
   xmlns:svg="http://www.w3.org/2000/svg"
   xmlns="http://www.w3.org/2000/svg"
   id="svg2"
   version="1.1"
   x="0"
   y="0"
   width="420"
   height="500"
   viewBox="30.5 31.5 420 500"
   enable-background="new 30.5 31.5 412 533"
   xml:space="preserve"><metadata
     id="metadata4"><rdf:RDF><cc:Work
         rdf:about=""><dc:format>
          
          
          
          image/svg+xml
        
        
        
        </dc:format><dc:type
           rdf:resource="http://purl.org/dc/dcmitype/StillImage" /><dc:title></dc:title></cc:Work></rdf:RDF></metadata><defs
     id="defs6" /><path
     style="fill-rule:evenodd;fill:#ffe000"
     id="path4218"
     d="m440 32.7c2.09 102.46-3.38 187.49-43.93 296.59C368.02 404.77 321.86 474.06 240.5 530.88 159.14 474.06 112.98 404.77 84.93 329.29 44.38 220.19 38.91 135.16 41 32.7c133 0.29 266 0 399 0z" /><path
     style="fill:none;stroke:#000"
     d="m440 32.7c2.09 102.46-3.38 187.49-43.93 296.59C368.02 404.77 321.86 474.06 240.5 530.88 159.14 474.06 112.98 404.77 84.93 329.29 44.38 220.19 38.91 135.16 41 32.7c133 0.29 266 0 399 0z"
     id="path4224" /><path
     style="fill:#000000;stroke:#000000;stroke-width:0.95300001;stroke-linecap:round;stroke-linejoin:round;stroke-miterlimit:4;stroke-dasharray:none;stroke-opacity:1"
     id="path3655"
     d="m 56.501707,115.55724 c -2.236784,-1.77372 -3.122799,-16.57643 -0.680018,-17.196911 9.609519,-2.44087 19.867502,3.992481 25.640765,3.648401 4.478503,-0.26692 9.832198,-4.986113 19.113306,-5.29891 11.79728,-0.397598 19.15222,6.33989 24.8891,9.0964 4.99495,2.40001 4.41989,-3.06211 12.75466,-3.50311 5.70102,-0.30165 12.37008,2.59336 15.74757,5.6973 2.27731,2.09288 -6.08809,7.86322 -4.96139,8.9571 2.1794,2.11593 9.12837,3.62216 13.14327,3.73342 0,0 -1.20628,4.03991 -1.99002,5.63779 10.23117,1.61748 13.89882,-1.3149 13.89882,-1.3149 0.92379,2.99532 -1.47933,8.56849 -1.47933,8.56849 0.50088,-0.01 1.70908,-0.0723 2.2043,-0.1106 30.01727,-2.31932 51.87267,-9.74905 75.87771,-19.10719 12.84563,-5.00775 26.59292,-10.18047 43.04297,-13.23144 4.64168,-0.86088 10.54191,-1.756625 15.84162,-1.912624 0,0 -1.88473,4.150094 -2.31044,6.044994 -0.39981,1.77963 8.64468,-2.40577 18.52689,0.6609 0,0 -4.11042,3.11399 -3.94234,5.12908 5.70702,-0.61573 13.1379,-0.58924 17.37652,1.20075 0,0 -4.92808,3.7721 -4.53427,6.52365 5.44033,0.0594 13.43694,-0.37488 17.94708,3.3933 -2.39168,1.78493 -4.80394,3.32623 -5.66262,6.49943 6.14656,1.09426 13.24461,1.94628 16.84181,5.32571 -6.09499,4.56425 -4.93214,6.71314 0.66603,8.31783 8.39492,2.40636 25.19245,3.0252 29.46794,4.27645 14.61368,4.27682 18.56043,13.97486 19.08875,23.59256 0.39518,7.19408 -0.006,13.06743 6.60599,20.80817 -1.659,0.43959 -7.9128,1.06638 -10.08382,-0.0103 3.68282,8.89899 7.39085,19.19423 7.71323,31.20228 -1.98004,-0.0146 -4.70494,-0.35628 -7.68339,-2.49368 0.0297,9.4332 -2.73921,10.9136 -4.89608,16.84561 -1.86599,5.13201 -2.77015,14.07906 -2.13611,19.85211 -5.06747,-1.44558 -9.16907,-7.24573 -9.86057,-11.78506 -1.11418,2.09372 -2.00958,3.69779 -3.74565,4.55945 -0.94467,-10.92054 -4.45942,-15.53084 -7.34681,-19.09276 -1.71488,2.21559 -0.95203,4.33993 -0.81475,6.14841 -6.58508,-1.08081 -12.74917,-7.46646 -14.56767,-14.55509 -1.97065,-7.6817 0.36482,-11.98418 -3.80078,-18.30608 -10.28906,8.3478 -8.6593,19.96588 -4.52437,28.91923 5.02061,10.8711 13.70887,16.77727 21.15425,21.17174 1.42603,0.84168 -0.67553,3.89752 -4.52966,5.78998 5.90729,3.24213 15.36674,7.4117 15.87565,8.3042 0.4682,0.82112 -3.63436,3.51456 -6.32045,3.39891 -0.64172,0.78861 4.74449,4.61407 7.84433,7.94732 1.862,2.00221 2.5029,4.2835 0.7192,5.5533 -12.91557,9.19449 -18.42643,13.86727 -22.59097,20.41252 -1.93216,3.03671 -3.70403,6.90415 -4.2776,10.96983 -0.51461,3.64778 0.24389,7.25235 0.85827,11.18129 -3.04168,-0.58666 -4.02182,-1.10791 -5.51057,-2.07243 -0.86015,-0.55727 -3.04696,-2.84529 -3.2135,-2.37729 -0.68064,1.91266 -0.084,6.22544 1.60608,8.87951 -2.13979,0.84771 -4.41622,-0.0549 -6.33703,-0.84384 -2.80346,-1.15149 -4.56484,-4.48223 -4.944,-3.52128 -0.72652,1.84132 0.0511,5.35115 1.49287,8.36923 -2.90461,0.18592 -6.08642,-0.73959 -8.05132,-2.48138 -2.92517,-2.59304 -3.27923,-4.42834 -4.06609,-4.08052 -0.96233,0.42538 -1.43311,5.09033 -0.24218,8.61948 -10.04487,-0.0203 -14.18612,-9.47397 -15.14243,-18.92247 -0.54678,-5.40222 -0.26484,-6.53006 3.92202,-8.96615 3.91314,-2.27683 10.61115,-8.35324 13.45118,-13.85614 2.36879,-4.58983 1.28485,-20.38045 -6.96087,-29.43112 -9.25694,-10.16061 -11.11195,-0.91141 -12.54771,8.98621 -1.08864,7.50471 0.42249,14.83489 0.88376,16.38416 -2.97501,0.006 -6.03955,-0.80075 -8.06456,-2.17956 -1.83595,-1.25008 -2.73293,-3.09744 -3.50615,-2.87866 -2.45354,0.69422 -1.71985,12.64235 -0.64271,15.75652 -2.74848,0.23832 -7.29189,-1.09235 -9.46159,-3.46238 -0.75954,4.60912 1.44149,14.45871 -0.85485,14.77659 -15.24146,2.10996 -25.83572,9.00839 -31.62925,21.61537 -3.89703,-2.83312 -4.86229,-7.04489 -5.25119,-10.01388 -2.47886,2.62323 -3.83609,5.69509 -4.51851,9.03693 -3.26577,-1.72113 -4.98953,-5.42481 -5.73965,-10.38026 -2.73251,2.58243 -4.12436,5.29867 -5.25118,8.05993 -3.33128,-2.55244 -4.58908,-6.22144 -5.61755,-10.0139 -2.47599,1.06168 -4.40654,2.99607 -5.98394,5.49546 -3.51903,-3.06102 -2.323,-19.97811 0.14352,-24.16461 2.24952,-3.81819 7.09657,-3.52901 12.62896,-4.93942 7.24762,-1.84769 15.99189,-5.89112 24.84071,-18.64515 4.37104,-6.30008 5.60289,-13.30332 4.04776,-18.99898 -2.00944,-7.35958 -8.08943,-12.64193 -11.98558,-12.50818 -2.01843,0.0693 -10.52219,4.42292 -14.43519,10.11757 -3.53978,5.15149 -6.04153,11.46513 -6.68409,16.93769 -2.57661,-0.31523 -5.17061,-1.21039 -6.6739,-3.49622 0.0718,8.39918 -1.75069,14.81232 -2.47322,17.90047 l -5.43482,-1.66961 c 0,0 -0.97801,3.39773 -0.81009,5.11619 0.16424,1.68078 1.74603,4.75598 1.74603,4.75598 -3.81255,2.1531 -8.31329,-1.77416 -10.33833,1.13829 -2.50495,3.60265 -2.20908,9.99165 -2.96583,13.51424 -0.56002,2.60684 -2.29457,5.46849 -9.29913,6.49145 -5.4433,0.79495 -13.46852,0.9917 -22.74363,5.87775 -4.85881,2.55957 -13.34019,11.60032 -12.98491,19.84017 -4.71371,-1.98793 -6.0412,-6.68835 -5.51778,-10.42844 -3.21075,0.41432 -5.44632,4.22799 -6.24797,8.88358 -4.26912,-1.68188 -5.64997,-7.25537 -5.383,-10.3319 -2.7737,0.9224 -4.84089,4.72593 -5.47581,6.23443 -3.5197,-1.42678 -4.17592,-7.86242 -3.71403,-10.92164 -3.06651,0.74154 -4.60003,2.56957 -6.25264,4.40957 -1.98687,-5.11221 -2.44281,-12.2585 -1.07657,-18.10639 1.35028,-5.77958 2.97021,-8.83665 9.67158,-10.31698 2.4261,-0.53592 5.94917,-0.93543 9.7911,-2.52312 13.16678,-5.4412 31.08169,-19.0853 28.85077,-30.24933 -2.57669,-12.89427 -6.34265,-16.0242 -11.19799,-16.26883 -6.3016,-0.3175 -11.7393,6.5276 -15.84619,13.87087 -2.09356,-1.61875 -2.11758,-4.14925 -1.85262,-6.77211 0.18774,-1.85846 -2.46636,-1.31937 -3.16466,-0.32988 -3.42637,4.85516 -2.92351,12.7657 -5.50042,16.84945 -2.21608,-2.19431 -3.22572,-6.39116 -3.96473,-6.06303 -4.41778,1.96157 -3.3131,6.23096 -7.0969,9.13132 -6.66704,-2.93893 -17.05983,-5.14141 -24.88675,-4.61866 -8.13474,0.5433 -13.991869,4.65985 -19.436117,8.08104 -0.9794,-2.78423 -0.06202,-7.07146 0.407975,-10.6467 -2.81307,0.50036 -4.348142,3.28806 -6.536223,4.59205 -0.947294,-5.38309 0.607199,-10.01082 3.777405,-13.38338 -4.503749,-1.05878 -6.682804,2.21994 -8.75661,3.54155 -0.54804,-4.02135 1.74388,-9.36335 4.77105,-13.35558 -3.069176,-0.79707 -7.365247,3.12193 -8.463818,3.99527 0.399685,-6.48431 4.332305,-14.31739 9.531843,-18.12727 2.424412,-1.77645 11.785113,-3.27773 16.199555,-3.56164 8.07303,-0.51921 13.07895,1.69503 16.40522,1.46383 5.20565,-0.36182 6.23862,-2.8833 8.14101,-8.30261 1.39765,-3.98147 3.13473,-8.48224 3.21036,-13.35074 0.14282,-9.19265 -2.25359,-19.41432 -7.87869,-28.57968 -2.34772,-3.82531 -5.8372,1.68854 -8.06669,3.77652 -1.96869,-3.17624 -3.35227,-6.83403 -3.16701,-14.31915 0.0461,-1.86436 -2.07287,-3.36986 -2.83191,-2.36586 -0.7418,0.98119 -2.93485,2.6378 -4.28857,3.03056 -2.14689,-5.76267 -3.37663,-11.6778 -7.394864,-13.35761 -0.623954,1.62444 -2.270175,4.60009 -4.084468,6.06788 -2.486849,-7.57691 -9.53355,-14.98768 -19.656808,-22.24075 -2.679175,-1.91956 -7.010786,-3.64188 -10.904759,-4.98546 -3.123682,-1.07779 -4.577828,-7.22959 -3.552002,-12.28096 l 2.84248,1.9311 3.358086,-1.60858 2.798523,2.93698 3.333613,-1.72554 2.589472,2.64212 3.280393,-1.16278 2.618126,2.45619 3.328469,-1.54266 2.228347,2.39571 c 2.214457,2.38078 3.402571,-13.58051 -0.199022,-14.26764 l -3.476703,1.73485 -2.616139,-3.32759 -3.631138,1.28653 -2.271409,-3.06712 -3.870515,1.597 -2.268217,-2.9237 -4.036363,1.41647 -2.288302,-4.12658 c -2.11392,-1.02157 -2.969968,-0.56529 -4.779233,-1.99999 z" /><path
     style="fill:#ffe000;fill-opacity:1;stroke:none;stroke-width:0.95313483;stroke-opacity:1"
     id="path3701"
     d="m 92.776721,112.72155 c -2.137799,-0.99753 0.531873,-5.23677 6.114505,-4.48237 3.146044,0.42514 6.852944,2.89381 6.744194,5.80827 -0.0647,1.73403 -7.420818,1.2115 -12.858699,-1.3259 z" /></svg>