<?xml version="1.0" encoding="UTF-8" standalone="no"?>
<svg
   xmlns:dc="http://purl.org/dc/elements/1.1/"
   xmlns:cc="http://creativecommons.org/ns#"
   xmlns:rdf="http://www.w3.org/1999/02/22-rdf-syntax-ns#"
   xmlns:svg="http://www.w3.org/2000/svg"
   xmlns="http://www.w3.org/2000/svg"
   id="svg2"
   height="500"
   width="420"
   version="1">
  <metadata
     id="metadata51">
    <rdf:RDF>
      <cc:Work
         rdf:about="">
        <dc:format>
          
          image/svg+xml
        
        </dc:format>
        <dc:type
           rdf:resource="http://purl.org/dc/dcmitype/StillImage" />
        <dc:title></dc:title>
      </cc:Work>
    </rdf:RDF>
  </metadata>
  <defs
     id="defs4" />
  <path
     style="fill:#32ac60;fill-opacity:1;stroke:none;stroke-width:1.02142417"
     id="path4300"
     d="m 4.4503626,1.5 411.0888574,0 0,300.82465 0,0 c 0,0.0298 0,0.0595 0,0.0903 0,108.64857 -92.02597,196.71263 -205.53922,196.71263 -113.513257,0 -205.5496374,-88.07404 -205.5496374,-196.71263 0,-0.0298 0,-0.0595 0,-0.0903 l 0,0 0,-300.82465 z" />
  <path
     style="fill:none;fill-rule:nonzero"
     d="m 4.4503626,1.5 411.0888574,0 0,300.82465 0,0 c 0,0.0298 0,0.0595 0,0.0903 0,108.64857 -92.02597,196.71263 -205.53922,196.71263 -113.513257,0 -205.5496374,-88.07404 -205.5496374,-196.71263 0,-0.0298 0,-0.0595 0,-0.0903 l 0,0 0,-300.82465 z"
     id="path2418" />
  <path
     d="m 4.4503626,1.5 411.0888574,0 0,300.82465 0,0 c 0,0.0298 0,0.0595 0,0.0903 0,108.64857 -92.02597,196.71263 -205.53922,196.71263 -113.513257,0 -205.5496374,-88.07404 -205.5496374,-196.71263 0,-0.0298 0,-0.0595 0,-0.0903 l 0,0 0,-300.82465 z"
     id="path4279"
     style="fill:none;fill-opacity:1;stroke:#000000;stroke-width:1.02142417" />
  <path
     style="opacity:1;fill:#ffe000;fill-opacity:1;fill-rule:evenodd;stroke:#000000;stroke-opacity:1"
     id="path5000"
     d="m 204.73849,21.747898 c -7.91871,0.48014 -5.4764,6.58252 -9.92463,6.699134 -3.26022,2.172409 -4.62658,8.641892 -1.68721,12.356166 5.6091,4.079014 -5.56403,0.04728 -5.06155,4.763825 2.64163,6.722189 1.59404,12.49163 -0.8436,17.268866 0.16946,1.692017 2.70439,2.15724 2.58041,4.466075 2.81594,-1.20717 5.3428,2.033283 1.43908,1.935309 -4.36676,0.37792 -1.53852,6.237447 -2.33231,9.329151 0.87984,2.029286 5.51573,-0.699728 6.10366,2.630037 4.514,-1.678963 6.54842,6.866712 1.73681,6.897613 -0.75636,3.689002 4.06788,4.424317 3.96987,8.336693 2.60627,0.09498 5.01617,0.862851 2.92776,4.019493 -1.33849,3.60195 3.29225,4.36151 1.78644,8.23744 -0.10231,11.48476 0.44771,22.95825 0.69472,34.43849 -0.14624,-11.36832 -24.02101,-29.61926 -34.09112,-34.24001 -6.5898,-3.02377 -11.03988,-6.49643 -18.65833,-7.74121 0.59586,-5.56858 -3.41165,-13.27287 0.19855,-17.268868 4.92309,-1.767606 3.71456,-9.159355 -1.93531,-7.046488 0.37978,-4.176234 6.79694,-6.327198 4.26759,-12.207291 0.52088,-3.898966 -1.16348,-6.278033 -5.1608,-5.160803 -0.8177,-4.300987 5.04201,-1.49925 4.16835,-6.699134 -1.22169,-2.587735 0.97084,-17.43521 -6.59989,-11.711063 -4.31944,5.010527 -0.88421,-2.94808 0.54586,-5.309699 -2.58761,-3.341607 -2.69481,-9.320929 -7.93972,-9.875004 -2.48633,1.669046 -1.02815,3.464226 -4.2676,0.793978 -3.38173,-6.402661 -12.84909,-6.136251 -17.11999,-0.992477 0.65439,4.409211 -0.0653,7.444302 -3.47362,7.79084 -4.77368,0.937183 -3.89463,13.460027 2.58042,12.157687 -0.38809,2.935841 -5.17332,1.477011 -3.47362,6.500635 -0.34192,3.999429 2.11464,5.924801 2.48114,9.676524 1.57548,1.252297 7.54677,1.710616 3.17589,3.771348 -5.5937,2.315467 0.20168,13.672105 6.50063,14.738078 -0.13996,2.747237 -3.82043,4.357662 -0.39698,6.550259 3.5399,2.042698 7.01754,5.544267 11.66144,2.977391 -0.43629,5.639019 8.99456,7.020546 8.5352,9.577275 -7.55475,-0.19624 -12.8443,-2.930674 -19.35305,-5.260053 -5.3477,-1.593103 -8.12221,-4.919855 -8.38632,-10.420857 -6.61016,-3.558873 -6.62487,-11.264459 -6.79837,-18.162093 -4.07568,-3.257253 -7.01142,1.52174 -9.52765,2.580412 -0.23785,-5.553012 -1.44366,-16.407354 -8.783287,-17.070366 -1.83447,1.581491 -2.58694,5.458867 -2.87815,0.396979 0.36518,-6.955879 -6.97408,-9.252224 -11.01635,-13.695997 -4.04623,0.279841 -5.65607,4.400738 -7.79084,-1.190957 -3.29041,-5.359847 -10.25274,-0.696025 -14.04335,-0.645103 -5.26683,-3.779046 -18.17892,-2.567566 -17.21924,6.401385 -1.54526,5.287209 3.94269,8.039572 5.30968,11.065981 -10.4777,0.146029 1.3406,12.32083 6.50063,11.264459 6.6492,0.03808 2.79548,3.718794 -2.13379,1.73681 -2.67133,3.066242 0.5033,10.049171 6.05401,7.840465 0.87124,4.059348 16.61117,-1.793548 9.6269,4.912679 -8.15215,1.405565 1.80903,9.719685 6.64951,7.195362 5.43893,0.386497 10.46402,0.08138 13.696,-2.630016 1.60758,2.29055 6.72022,2.683449 1.2902,4.168347 -5.8599,5.470331 5.93589,4.890649 9.72613,4.565325 5.090947,-3.61787 9.297227,4.157426 14.738097,3.126266 5.85415,-3.435878 9.04214,4.061481 15.43281,3.820972 0.83111,1.625442 4.89465,2.831092 0,2.580412 -3.27119,8.36452 -11.79031,-1.63756 -17.91397,4.16835 -0.92471,5.87831 -8.2155,-2.61922 -10.718607,2.77889 -5.07159,-0.0554 -8.16537,3.97079 -6.84801,7.44348 -6.96041,0.97773 -14.7328,3.06821 -13.10051,11.66144 -6.04332,1.77895 -3.69589,8.07194 -6.40139,12.45542 -2.49083,6.27856 3.61559,9.71941 8.38632,5.8059 4.13347,3.5766 11.31766,2.33855 11.85994,-4.41645 4.8029,5.21278 8.707597,-2.37572 13.894497,-3.42399 -0.56324,-6.81723 7.28162,0.16067 11.11558,-5.45855 3.38586,-2.92448 -1.35146,-12.79306 6.45101,-10.17276 4.50214,-1.20461 4.02165,-7.29379 6.74876,-9.97425 2.60435,-3.93819 7.34625,-7.46755 12.87601,-6.93307 9.43753,0.91216 18.52179,4.87286 27.46763,10.80367 10.09166,6.69043 22.29895,16.7109 25.52281,28.1907 10.61105,37.78481 4.54148,69.90682 0.0331,101.97088 -3.29037,-13.5158 -10.80273,-24.1784 -20.91737,-33.30424 -9.73962,-8.78748 -23.53277,-13.21931 -36.64551,-17.01365 -10.63026,-3.07599 -0.75594,-7.64136 3.96985,-6.10365 3.72664,0.58939 5.60845,-3.74574 7.49309,-5.16081 6.57984,1.53189 12.18662,-1.18271 16.17716,-5.21043 7.16779,-0.35105 -3.07913,-10.59316 6.10365,-7.84046 4.49403,-1.36971 12.55691,-10.86422 3.8706,-13.00127 6.23621,-2.93067 4.64311,-15.9369 -2.58039,-15.63131 -5.52046,0.16695 -6.55216,4.55694 -11.16521,1.78644 -6.12795,-0.0983 -13.16293,4.4167 -9.67652,11.26446 -2.89068,3.69781 -7.18283,-6.13332 -8.68407,0.8436 -6.54459,2.82701 -5.2879,10.5272 -6.05401,15.63129 -5.81675,-1.48815 -6.16761,3.91488 -6.35178,7.79084 5.20524,5.64713 -10.06349,4.40285 -3.17587,12.15768 -3.84719,5.13547 -14.06068,1.49088 -20.84174,2.58039 -5.96053,4.6418 -11.816587,1.38402 -16.921507,-1.73681 -4.85285,-3.72525 -11.90783,-4.39502 -16.02829,-10.81785 -4.22487,-3.22872 -4.05579,-8.66045 -6.10365,-13.84485 -4.37501,-2.04791 2.22605,-16.50106 -9.13065,-15.23433 -5.08545,-1.66925 1.30949,-12.49079 -6.99687,-14.19222 -3.81726,-4.70946 -9.29067,5.36624 -8.13821,-3.96985 1.74114,-7.41198 -4.25567,-8.64484 -9.32915,-10.47048 -3.89158,-0.24083 -5.21662,6.36316 -8.88255,1.73681 -8.99818,-2.72996 -18.9182604,4.62553 -13.69599,13.9441 2.13665,2.70991 -6.3316404,1.42054 -3.67212,6.45101 0.73251,6.8488 6.07851,11.7128 13.39827,11.7607 7.53127,-1.45215 -5.52199,7.43883 4.61495,10.32161 2.10579,7.12082 17.9343,-3.21953 12.90201,3.02702 -7.19559,6.94849 10.42174,11.50239 15.08546,6.55026 0.46369,5.2893 9.41082,2.72127 12.35616,4.76382 6.57455,6.80893 19.10399,15.11221 27.10358,19.05051 -6.76466,2.85887 -21.45571,10.41082 -22.14125,21.29313 -7.44311,2.57748 -14.52,-6.13198 -19.30343,1.93531 -1.32928,4.33163 -8.61268,-4.59539 -10.17275,1.53831 -4.95088,-0.11779 -13.4813,3.90336 -9.57727,9.57727 -5.91175,1.18606 -12.90202,3.00934 -15.58166,7.44349 1.51368,5.03477 8.54983,8.33142 0.2481,12.15767 -4.23553,1.97629 2.34199,7.50244 -2.03454,9.03142 -3.82484,13.30772 12.60448,7.83143 14.7877,5.5578 4.23402,6.14677 11.73368,0.53077 11.26446,-5.60743 1.14853,1.41647 0.80547,6.21764 5.65704,4.36685 4.80882,-3.0929 13.11451,-4.32613 12.85241,-12.85242 0.25865,-8.60986 1.11853,-3.2567 2.33229,1.58796 7.05672,-1.22207 10.23344,-8.3263 11.31408,-14.3411 7.4202,-2.95431 0.0289,-11.66535 4.81345,-16.27641 1.96523,-6.57195 6.11443,-15.26542 12.70352,-17.11999 10.368957,-2.91846 25.223767,-9.24787 36.423417,-6.94724 12.41391,2.55008 28.65998,7.81358 37.89787,16.72061 14.22794,13.71836 17.59842,24.11899 20.06199,50.36992 1.84005,19.60687 0,39.73163 0,59.59744 -2.92438,-5.06168 -6.28249,-9.85521 -10.02388,-14.3411 -9.04186,-10.84112 -20.75485,-16.4605 -34.23998,-19.50191 -3.78815,-0.90314 -11.07165,-1.06948 -16.47489,-1.73683 -1.81669,-3.19321 -12.32836,-9.86922 -2.53079,-12.50504 4.72669,0.80377 4.21751,-4.55986 9.875,-4.66457 2.93091,-2.01849 7.81085,-3.96956 4.76383,-7.98932 3.44793,-2.4221 13.2563,-8.3245 9.13067,-14.39073 -2.54531,0.40027 -7.53788,-2.7769 -2.18343,-2.08418 3.51613,-2.73931 5.52303,-10.72568 0.99247,-12.85239 6.26126,-4.01023 -0.21841,-11.33976 -5.95478,-8.73368 -3.81304,1.73232 -7.38009,-0.14017 -12.05843,1.38944 -0.10482,4.63798 -4.35467,6.87472 -8.1382,5.45855 -2.57325,4.19582 -4.41647,8.05794 -3.47362,13.84487 -8.49372,-1.56636 -5.82461,10.25692 -5.21045,15.63131 -5.71588,0.54893 -1.24296,9.49602 3.47364,7.79084 -4.52358,6.47055 -2.8373,15.81748 1.48869,21.08984 -5.92118,-1.75432 -31.887527,2.50819 -41.000587,2.91354 -0.64577,-6.93529 -8.91114,-12.52431 -11.64959,-4.89848 -5.30232,-1.07174 -0.17783,-9.40963 -6.55026,-9.52765 -2.83417,-1.82986 -11.48189,-1.57933 -9.08105,4.31723 -3.30608,0.26304 -1.40163,-6.52727 -6.05403,-5.21043 -3.47494,-4.55821 -17.19204,-2.28936 -11.31408,5.21043 -5.5486,-7.39541 -19.9374,-0.67113 -13.15015,7.93971 3.75053,2.72186 11.00117,2.91547 5.50818,7.04649 0.4619,8.07373 10.42155,10.45084 15.48243,8.43594 4.48275,-0.71546 4.34248,0.66234 2.72927,3.82097 2.91891,4.70366 15.58323,3.35875 18.16209,-2.77889 0.84095,-4.89933 4.60491,-2.5447 2.53079,1.53831 5.94564,3.44168 12.17731,-2.53279 13.00127,-6.89761 15.06892,-6.31354 27.963157,-9.9577 35.927167,-3.82099 -0.70304,3.6004 -4.7705,8.04202 -6.64951,10.7186 -5.544897,0.24198 -10.726437,2.9207 -13.249377,8.28709 -4.51672,-2.40831 -10.84342,-0.67219 -16.02828,1.29019 0.52811,3.8152 3.57887,6.66039 -0.94286,6.50063 -4.60674,-4.33109 -12.23019,-0.58617 -16.42526,2.18344 1.86788,3.8234 1.74936,8.73405 -3.82099,6.50063 -3.584,3.71141 -14.48903,6.61024 -7.89007,13.4975 7.2903,5.15925 -9.48907,-0.66506 -6.50064,6.0044 -6.57088,2.8498 -3.32828,8.03849 -0.0992,11.61182 -3.35897,3.90183 -3.81509,13.10108 5.11118,10.32163 4.04326,-1.57166 7.48303,-4.37765 9.27955,0.54585 5.4665,2.92348 11.50424,-2.39273 10.86746,-6.84799 3.72013,-0.53449 3.83696,5.09501 8.43594,1.43906 5.37286,-2.14868 6.18042,-6.63668 5.45856,-11.85994 5.39802,-3.67571 2.2118,6.73803 8.33669,2.97739 5.59134,-5.0954 5.87147,-11.42595 7.29461,-17.71547 4.95356,2.25834 7.345027,0.58471 7.790817,-3.92022 2.68274,-3.16865 -0.23794,-8.88307 2.63004,-10.42088 5.73203,-3.48926 8.67837,-10.2425 3.42399,-16.87186 7.4275,-2.62431 7.35809,-12.24932 15.48243,-13.34864 24.53557,-3.31998 38.6299,8.9624 51.87978,25.96475 9.68788,12.43156 11.37978,28.6049 8.88493,63.4586 -1.08024,15.09112 -23.0354,20.62966 -33.72007,11.51018 -7.90227,-1.86353 -25.03569,-4.90708 -30.46863,-3.424 -10.93108,7.3778 -29.980207,10.44437 -32.006937,11.26446 -0.37939,7.44711 17.531247,8.80259 27.788957,8.68405 11.20802,-5.86794 23.77609,-3.4927 32.1062,2.58041 4.0719,1.57743 14.70441,5.62714 2.53079,3.32475 -10.10644,0.002 -16.40347,6.25071 -26.84614,6.2029 -3.29042,4.85693 -11.87183,-0.82624 -16.15875,0.5578 4.50484,14.99087 26.49029,11.24785 34.46969,6.88567 7.95884,-1.8691 9.32474,6.19633 27.5905,3.17589 -9.3075,7.98536 -22.43532,5.65033 -31.16337,9.32915 3.3233,13.48593 25.42754,5.45278 34.73623,6.10365 1.86462,-0.86069 8.04704,-3.00889 9.97426,-3.47361 -1.29784,4.48613 -2.35639,9.93375 -11.06477,14.27929 7.94225,2.40344 28.62711,-8.37449 30.46742,-10.70643 1.33964,4.14122 3.52132,9.89241 6.94195,12.91644 5.76266,-1.86592 9.45835,-6.87341 9.73144,-12.76756 0.92971,-0.97825 2.87299,0.57481 5.90515,4.11872 1.78972,6.22874 22.67951,10.8371 23.46703,2.66182 -4.35034,-0.0188 -12.08359,-9.13258 -12.84767,-10.94889 1.29234,-0.58987 3.80896,-1.86556 8.13822,-0.89323 7.32314,6.39066 22.75204,11.64713 29.32728,1.29021 0.15607,-2.66592 -13.68043,-5.04038 -13.39825,-9.77575 11.56154,2.82931 15.70024,-3.21516 20.24626,-6.20291 3.02235,-1.98638 8.31244,-1.4145 11.95918,1.29021 8.57231,2.75916 30.60367,5.14197 30.3694,-7.84047 -12.14671,8.48049 -22.41524,-3.03789 -31.26262,-6.05403 -7.6041,-2.35471 -18.71333,6.13765 -26.89577,0 10.07899,-2.18703 17.07436,-6.68558 27.78899,-9.52765 11.868,-1.38881 20.86523,7.42801 32.10621,2.58041 5.82394,0.9879 10.04643,-3.36899 11.92395,-9.26436 -15.39791,2.43418 -27.19547,-9.04269 -41.84674,-10.68417 -14.68913,-2.85851 -22.33442,7.84829 -35.13321,6.94726 -12.44121,5.17796 -19.6876,-8.83909 -20.84174,-18.21171 -5.73316,-46.55879 8.52739,-49.09259 20.04067,-63.42781 5.34204,-6.65141 26.4836,-16.01625 33.75086,-16.41587 7.25855,-0.39913 10.76909,1.18154 16.47489,4.3172 -0.97837,5.57475 0.5791,9.93315 4.31722,13.2494 -1.02189,3.72164 5.15616,5.99666 0,9.32915 -2.31954,5.9025 8.80699,18.32191 9.57729,7.79084 6.32412,2.8678 -3.11716,13.83558 4.9623,16.47491 1.91535,6.45343 9.1318,-2.76789 7.19536,3.96984 -4.77543,4.24429 5.16416,9.90214 8.63445,12.55467 7.03092,2.82134 3.02203,-11.90159 8.68405,-6.94724 -3.598,7.1848 7.92772,10.12194 13.59674,7.74122 1.35025,-3.65635 1.192,-4.77596 4.86308,-0.79398 8.8025,2.94854 15.60245,-7.41397 8.68404,-13.15014 0.0458,-1.96366 4.87526,-4.40817 1.53833,-7.24499 -1.41142,-2.57757 -0.34283,-6.47821 -5.45855,-6.05403 -7.13726,-3.20343 7.31574,-0.67965 1.73681,-6.40139 -4.52179,-3.92771 -7.89308,-6.09654 -13.9441,-5.6074 0.31829,-0.66586 6.94356,-3.69382 1.33981,-6.79839 -4.35193,-6.08455 -16.56309,3.25424 -14.29147,-6.59988 -3.03957,-4.28057 -11.62958,-7.61829 -16.27639,-3.67212 -1.85397,-2.13197 1.97884,-7.73038 -3.02702,-8.68405 -5.36777,-5.4415 -15.47081,2.99693 -19.50191,-3.92024 -1.81721,-3.866 -11.00613,-5.05727 -5.21045,-8.23745 6.76313,-0.53269 11.61648,-3.82747 19.15456,-5.50815 6.08389,0.0651 12.71588,2.41716 15.53206,7.09611 -1.83747,7.37909 2.40645,14.40156 6.94723,6.25251 3.29316,3.93137 0.33098,11.94318 6.94726,11.26446 0.36164,4.89013 8.37722,4.78581 6.94724,0 2.81492,0.82542 3.15784,7.5093 8.48557,7.29461 2.89638,4.32576 8.13627,1.21278 8.83292,-0.69473 3.09873,4.65295 12.6472,1.49043 13.15014,-2.23303 10.10173,2.38318 8.19107,-8.08719 3.32475,-12.15769 5.55814,-6.24561 -3.9692,-8.12359 -9.52765,-6.94724 1.55467,-6.37877 -2.96294,-10.56697 -8.23745,-6.10365 -4.31222,-0.0253 1.18868,-7.02453 -5.1608,-7.34422 -4.53708,-3.97363 -10.07231,8.15922 -11.31408,-0.89323 -3.93847,-4.45999 -11.01123,1.78298 -13.8945,1.33983 -6.47747,-1.03438 -13.44932,-0.23279 -20.64323,-1.2902 -4.45631,-2.86572 -14.50237,2.61618 -15.3832,-0.69473 7.26244,-5.43629 3.42822,-13.78403 0.89321,-20.14701 -3.88953,-3.3624 -0.17532,-7.36143 -0.89321,-12.60429 -1.36776,-1.03377 -2.39028,-4.10583 -5.16082,-1.73681 5.70013,-4.37105 -2.43302,-14.38654 -6.94724,-9.52765 3.80765,-7.34566 -8.69969,-13.05752 -9.57727,-4.36682 -3.72955,-0.74685 -0.18578,-6.73567 -3.8706,-8.18784 -2.2726,-3.20663 -5.75796,2.01192 -9.13067,-0.34736 -5.654,-0.36511 -5.10267,3.31893 -3.8706,7.14574 -4.86659,5.33142 5.62025,8.64811 6.99686,9.37878 -2.81274,2.65748 -7.20107,4.21866 -3.12626,8.53519 3.40535,-0.54933 10.05925,-0.2358 4.96232,3.67212 -3.64396,4.17345 5.51226,9.61211 10.22236,6.89761 4.42509,-1.0862 2.29967,8.01708 8.38632,5.40893 6.96167,-2.63359 10.00323,1.81062 7.69159,8.28707 -3.3697,1.86231 -1.50291,6.49526 -5.45853,7.59234 -3.32922,6.32059 -5.2288,5.45282 -11.6568,6.61877 -13.53019,2.45422 -27.71855,9.15003 -38.40832,17.61622 -3.25309,2.57642 -17.92483,25.93501 -19.10959,16.10865 -1.62679,-13.49252 -2.71191,-27.86816 -3.78081,-41.43296 -1.78578,-22.66244 3.08675,-36.15504 11.38969,-48.90484 3.58484,-5.50475 8.01412,-11.64054 13.00129,-16.37564 5.82225,-5.52797 12.51787,-8.48921 18.44326,-12.33254 6.81853,-4.42267 12.82118,-5.78185 20.79211,-7.84047 5.7613,-1.48793 16.47097,-2.38419 22.13194,-0.8436 11.02693,3.00091 21.94008,8.50636 30.31977,16.27641 3.70128,3.432 -1.51743,11.71976 3.07664,14.93658 -5.93863,3.59402 6.35899,8.94418 0.0496,11.56218 0.0816,5.18321 4.17063,13.16337 9.52765,8.38632 -2.32248,6.6188 3.73009,8.66256 7.34422,10.86748 3.04578,5.15192 7.76768,-7.37482 8.23746,1.43906 5.81216,6.2622 14.74251,0.76352 20.84173,3.32477 9.37439,1.0466 6.88362,-10.54737 2.5804,-14.73808 7.59075,-3.4928 0.72362,-10.58898 -5.16081,-8.68407 2.4838,-3.18526 -3.47822,-15.77625 -10.42088,-9.52765 2.45566,-8.43025 -0.61545,-11.84966 -8.58479,-9.57727 -3.61833,5.27453 -7.85995,-8.84416 -12.05844,-1.48869 -0.22637,-10.60412 -5.28037,-7.70625 -10.66898,-11.95918 -5.00695,-3.95171 -10.99154,-6.55514 -16.42526,-9.97426 -1.82146,-1.14612 -12.62176,-3.68375 -4.45664,-7.85224 9.12094,-4.65322 13.27025,-9.69623 19.64605,-16.16773 4.45138,-4.51819 12.6322,1.13288 16.07318,-4.6126 4.43963,-5.9525 9.66644,4.42894 16.37566,-0.19854 6.92343,-1.32201 11.62034,-6.25214 5.30967,-11.95919 5.10779,-4.0514 13.27919,-0.17846 16.67339,-6.69912 8.14843,-4.32816 -9.05052,-8.39646 1.38944,-9.77577 6.68664,-2.17272 7.3839,-12.43069 1.14133,-14.93658 7.68809,-6.12577 -1.44777,-19.97223 -10.42086,-13.10052 -3.79246,5.20202 -1.95102,-4.31048 -7.93971,-1.43906 -2.86241,4.14852 -9.81827,4.33746 -7.79084,11.26446 -5.17219,0.49962 -8.40545,-4.23849 -11.61182,1.78644 -7.1971,2.59949 -4.2577,10.62814 -6.59988,14.68845 -6.62022,-7.57853 -10.41617,5.01816 -8.23745,10.56973 -3.26018,5.21198 -11.837,9.91773 -6.55026,17.21924 -4.19368,3.73009 -7.56432,8.75943 -12.10806,12.10807 -5.98976,4.41433 -12.29691,10.30719 -19.10493,11.31408 -6.54388,0.96781 -13.16094,-3.97727 -18.90643,-3.47362 -6.2828,0.55075 -6.1814,-4.29067 -7.59234,-7.29461 3.96939,-6.34356 -3.9094,-9.48338 -0.49623,-16.77264 -0.22199,-3.23192 -7.32135,-8.96958 -7.69159,-1.98491 -2.38626,-4.70353 1.32393,-15.52823 -8.48557,-14.7381 -1.98424,0.22737 -3.02325,6.00091 -4.21797,1.43908 2.8558,-7.96742 -6.0112,-10.6898 -11.61181,-8.38632 -4.23552,-8.4367 -19.19403,-2.89693 -15.58168,6.94724 3.89463,2.44974 -4.85408,7.40286 0.6451,11.71108 2.6755,4.65705 11.34323,0.70117 10.37123,5.40893 -5.68023,7.52349 6.3527,10.72689 12.35617,10.66898 -7.60044,6.29862 6.96385,9.39579 11.31408,4.3172 1.82297,4.68048 6.30113,9.49464 10.42088,6.05403 -1.94102,7.16089 -8.42508,8.21745 -14.40256,11.1132 -12.96937,6.28297 -23.7008,13.06975 -33.33494,23.47416 -6.2151,6.712 -14.536,23.24948 -15.18468,19.84928 -5.07534,-26.60356 -6.14071,-67.16078 -1.29021,-92.15024 2.67952,-13.80462 12.69721,-24.20365 22.33042,-33.843 8.54946,-8.5549 25.41104,-14.64678 30.12128,-15.92906 3.10031,-0.844 7.19915,-2.47515 9.08103,1.43909 -0.0707,3.27859 -0.61847,6.65287 0.397,9.82537 0.93329,1.65742 3.88846,-0.33641 3.96985,2.48117 5.3897,1.68134 0.73841,4.5639 7.39386,11.41333 2.83443,3.61965 3.55755,-0.43449 6.05401,-1.83606 1.31173,2.15783 -0.43868,7.38999 0.89323,9.52765 2.32931,1.25466 3.85294,4.61037 7.14573,3.47362 2.83406,1.38879 5.3491,1.45262 7.14574,-1.73681 2.96191,0.37865 5.43423,1.64725 6.69914,4.21797 2.56071,3.20215 13.32507,3.21577 13.299,-1.63756 1.46961,0.0868 3.61057,-0.42334 3.821,0.89321 2.56304,0.43809 4.66788,-2.14778 5.70665,-3.27512 1.37801,-4.00878 -0.0126,-6.74054 -3.07664,-9.92463 -2.98586,-0.83712 1.1192,-5.29553 -1.88566,-6.55026 -2.0964,-1.34774 -3.13819,-3.88618 -6.05403,-2.63003 -3.91146,2.66315 -3.43326,-0.61417 -3.57287,-2.28267 1.04838,-1.82825 1.59754,-4.71629 -0.34738,-5.45855 -1.34713,-3.06354 -4.41032,-4.32036 -7.64196,-3.72174 -0.38853,3.31597 -5.02822,0.57353 -5.75629,2.58041 -1.56434,-0.10252 -5.15593,0.65345 -2.67967,-1.48871 2.78572,-1.01672 1.14443,-5.4328 -0.74433,-6.30213 -3.79051,-0.002 -8.52408,-0.50663 -11.16523,2.82851 -1.64584,1.04305 -5.35185,0.19562 -6.10363,-2.18341 -0.67659,-1.46082 -3.3415,0.14645 -3.37439,-1.4887 -2.87473,-0.0454 -6.00031,-0.1883 -8.43593,1.58795 -1.43426,-0.97032 -0.4744,-1.83692 0.0992,-3.32476 7.15681,-0.30271 12.14313,-4.336181 17.31849,-7.939699 6.92408,4.199122 12.67741,-3.997463 20.19664,-0.248124 6.2553,2.508862 5.50858,-2.563801 6.74876,-6.599885 4.01364,0.709499 5.58366,6.180813 9.6269,0.992478 5.90943,0.05502 7.80348,-4.318749 5.95478,-9.6269 5.38571,0.684539 9.05373,-0.18578 13.4975,-3.027016 3.73225,-1.081978 -0.34604,-7.54895 -0.69473,-7.145737 0.61575,-4.866339 10.03191,1.137817 10.66898,-5.01195 4.87942,-3.235097 2.72682,-10.957776 -2.63001,-10.86746 4.08868,-1.044069 7.85122,-0.03619 8.63442,-4.763825 4.8151,-4.893306 1.60963,-14.159839 -5.85553,-15.184702 -7.42974,-2.907744 -11.03506,14.256516 -14.3411,3.572868 -2.70088,-4.976174 -9.99371,0.04498 -11.41334,3.37439 -1.17903,2.360239 -4.92447,9.39114 -6.74873,2.828516 -6.31672,-2.485221 -11.31371,6.512058 -10.17276,12.80277 -6.37369,-4.767863 -13.82521,2.767698 -10.71861,10.222377 0.7601,6.651204 -9.18047,-0.338169 -9.22992,7.542716 2.28115,6.084283 -3.98517,8.288868 -5.11118,12.703541 0.0757,9.756652 -19.82786,11.303498 -28.73183,13.745621 4.41085,-3.589124 10.52268,-7.68182 8.08859,-13.100518 1.17677,-2.552148 5.48345,-0.991557 7.09611,-3.374369 3.58076,-0.980637 8.73317,-7.176827 3.02702,-10.420878 6.0938,-0.52194 10.88133,-3.690822 10.42086,-10.420857 4.54049,-2.977683 -6.85249,-3.943047 -1.19096,-6.103656 7.69368,0.07825 5.09248,-13.277971 2.67966,-16.425263 -5.70128,-2.908915 -0.71918,-13.046563 -8.93217,-14.291474 -4.93157,-0.747533 -11.89356,5.877645 -7.49311,10.520106 -0.92915,2.969566 -4.04665,-1.119845 -4.16835,-3.17589 -7.27241,-0.505936 -15.48975,7.334383 -10.42085,12.60429 0.9881,1.486028 3.95539,7.325638 0,7.344237 1.35332,-3.783335 -6.38051,-9.740418 -6.05404,-2.580412 -2.78638,3.440459 -4.88217,14.165823 1.73681,16.474888 0.29844,3.190012 -5.6015,-1.540381 -4.76382,4.317222 -3.87823,4.745874 3.54565,8.143821 4.76382,12.157687 -6.61499,-0.718809 -1.23051,8.12721 -3.47362,11.264459 7.91918,5.78237 -6.34646,9.636879 -11.21483,12.753149 -7.358,4.70989 -19.4168,14.61774 -24.36498,19.99813 -6.10499,6.63827 -9.29691,13.49164 -12.15768,18.16209 -1.58233,-12.17219 -0.84359,-24.70917 -0.84359,-37.01889 -2.09575,-1.53921 1.58244,-2.91566 -0.74435,-5.40893 0.21314,-1.45538 1.89993,-3.776244 4.21797,-5.01193 0.83593,-4.464109 6.88218,-8.632016 1.93531,-12.058437 -0.78423,-5.206328 7.15047,-0.07343 5.65703,-5.657032 3.01696,-1.23715 5.75538,-8.006161 -0.19854,-7.493112 -5.12957,-0.08494 0.78852,-5.023791 2.53079,-6.947238 -5.73871,-10.562953 -0.27752,-15.852819 1.33983,-20.742484 -1.85914,-0.924442 -6.57392,-0.325512 -6.21127,-2.098996 0.45739,-2.237013 6.05645,-7.012177 2.8369,-9.562463 -4.70577,-4.204582 -5.47154,-8.003692 -11.06598,-8.832922 -2.81793,-4.757842 -7.08013,-6.291695 -10.52011,-1.63756 z" />
</svg>
