<svg xmlns:dc="http://purl.org/dc/elements/1.1/" xmlns:cc="http://creativecommons.org/ns#" xmlns:rdf="http://www.w3.org/1999/02/22-rdf-syntax-ns#" xmlns:svg="http://www.w3.org/2000/svg" xmlns="http://www.w3.org/2000/svg" id="svg2" version="1.1" x="0" y="0" width="400" height="500" viewBox="30.5 31.5 400 500" enable-background="new 30.5 31.5 412 533" xml:space="preserve">
  <metadata id="metadata4">
    <rdf:RDF>
      <cc:Work rdf:about="">
        <dc:format>
          
          
          
          
          image/svg+xml
        
        
        
        
        </dc:format>
        <dc:type rdf:resource="http://purl.org/dc/dcmitype/StillImage"/>
      </cc:Work>
    </rdf:RDF>
  </metadata>
  <defs id="defs6"/>
  <path id="path8" d="M230.44 531.14C156.12 477.22 105.18 409.12 74.7 322.98 47.06 244.88 35.97 150.23 40.79 33.63l0.02-0.46 379.82 0 0.02 0.46c4.81 116.6-6.28 211.24-33.91 289.35C356.26 409.12 305.32 477.22 231 531.14l-0.28 0.2-0.28-0.2z" fill="#e00e00"/>
  <path id="path4205" d="m230.5 530.74c57.48-75.21 51.83-222.77 0-297 65.58 0 129.35 51.17 152.44 98.13C346.05 430.82 284.26 491.72 230.5 530.74Z" style="fill-rule:evenodd;fill:#fff"/>
  <path id="path4209" d="m230.5 233.74c0 44.73-59.06 140.34-116.75 171.92C90.25 364.83 73.36 327.45 59.53 272.28 118.71 279.2 199.16 258.27 230.5 233.74Z" style="fill-rule:evenodd;fill:#fff"/>
  <path id="path4211" d="M230.5 233.74C163.22 219.98 57.12 154.97 41.06 33.21L198.36 32.94C181.66 109.23 207 195.82 230.5 233.74Z" style="fill-rule:evenodd;fill:#fff"/>
  <path id="path4213" d="M230.5 233.74C269.84 201.25 342.86 173.96 416.17 188.34 420.8 138.98 422.57 87.46 420.63 33.17 340.02 52.17 256.16 124.13 230.5 233.74Z" style="fill-rule:evenodd;fill:#fff"/>
  <path d="M59.53 272.28C118.71 279.2 199.16 258.27 230.5 233.74c0 44.73-59.06 140.34-116.75 171.92" id="path4215" style="fill:none;stroke:#000"/>
  <path d="M198.36 32.94C181.66 109.23 207 195.82 230.5 233.74 163.22 219.98 57.12 154.97 41.06 33.21" id="path4217" style="fill:none;stroke:#000"/>
  <path d="M420.63 33.17C340.02 52.17 256.16 124.13 230.5 233.74 269.84 201.25 342.86 173.96 416.17 188.34" id="path4219" style="fill:none;stroke:#000"/>
  <path d="m230.5 530.74c57.48-75.21 51.83-222.77 0-297 65.58 0 129.35 51.17 152.44 98.13" id="path4221" style="fill:none;stroke:#000"/>
  <path id="path10" d="M419.96 33.21C429.03 252.66 383.7 419.16 230.5 530.31 77.31 419.16 31.99 252.66 41.06 33.21l189.45 0 189.45 0m0.92-0.95-0.92 0-189.45 0-189.45 0-0.92 0-0.04 0.92c-4.82 116.66 6.28 211.36 33.93 289.52 30.51 86.24 81.51 154.41 155.91 208.39l0.56 0.41 0.56-0.41C305.46 477.11 356.46 408.94 386.97 322.7 414.62 244.54 425.72 149.84 420.9 33.18l-0.04-0.92 0 0z"/>
</svg>
