<?xml version="1.0" encoding="UTF-8" standalone="no"?>
<svg
   xmlns:dc="http://purl.org/dc/elements/1.1/"
   xmlns:cc="http://creativecommons.org/ns#"
   xmlns:rdf="http://www.w3.org/1999/02/22-rdf-syntax-ns#"
   xmlns:svg="http://www.w3.org/2000/svg"
   xmlns="http://www.w3.org/2000/svg"
   xml:space="preserve"
   enable-background="new 30.5 31.5 412 533"
   viewBox="30.5 31.5 400 500"
   height="500"
   width="400"
   y="0"
   x="0"
   version="1.1"
   id="svg2"><metadata
     id="metadata4"><rdf:RDF><cc:Work
         rdf:about=""><dc:format>
          
          
          
          
          image/svg+xml
        
        
        
        
        </dc:format><dc:type
           rdf:resource="http://purl.org/dc/dcmitype/StillImage" /><dc:title></dc:title></cc:Work></rdf:RDF></metadata><defs
     id="defs6" /><path
     fill="#32ac60"
     d="M230.44 531.14C156.12 477.22 105.18 409.12 74.7 322.98 47.06 244.88 35.97 150.23 40.79 33.63l0.02-0.46 379.82 0 0.02 0.46c4.81 116.6-6.28 211.24-33.91 289.35C356.26 409.12 305.32 477.22 231 531.14l-0.28 0.2-0.28-0.2z"
     id="path8" /><path
     d="M419.96 33.21C429.03 252.66 383.7 419.16 230.5 530.31 77.31 419.16 31.99 252.66 41.06 33.21l189.45 0 189.45 0m0.92-0.95-0.92 0-189.45 0-189.45 0-0.92 0-0.04 0.92c-4.82 116.66 6.28 211.36 33.93 289.52 30.51 86.24 81.51 154.41 155.91 208.39l0.56 0.41 0.56-0.41C305.46 477.11 356.46 408.94 386.97 322.7 414.62 244.54 425.72 149.84 420.9 33.18l-0.04-0.92 0 0z"
     id="path10" /><path
     style="fill:#ffe000;fill-opacity:1;stroke:#000000;stroke-linejoin:round;stroke-opacity:1"
     id="path3638"
     d="m 110.37288,349.72838 c -0.79279,-3.95174 13.11309,13.55777 24.36286,7.17816 9.18223,-5.20714 15.96238,-8.29607 28.94999,-9.596 8.635,-0.86427 19.37758,3.33606 32.91778,-0.007 10.6782,-2.63661 17.3032,-18.88422 17.6253,-49.82071 0.15606,-14.98853 2.44617,-50.56028 0.43768,-50.86742 -5.48813,-0.83922 -17.31564,-3.27265 -18.15861,0.10068 -2.0448,8.1827 -4.59603,11.94687 -19.74477,10.15707 -2.47304,-0.29219 -4.78362,5.1113 -11.22262,5.18291 -7.42462,0.0826 -9.6171,-4.25252 -13.01299,-5.48356 -2.14098,-0.77612 -4.44414,2.61723 -9.5088,3.35149 -6.20159,0.89909 -17.064,-1.90559 -14.94203,-7.26526 1.01054,-2.55244 -1.59297,-1.73804 -4.3238,-2.80164 -2.40791,-0.93783 -2.91492,-2.33669 -3.15669,-5.28487 -0.25156,-3.06771 -6.67247,-2.50048 -6.69902,-8.69235 -0.0263,-6.12317 4.88398,-12.35611 13.13858,-15.01273 6.88356,-2.21537 8.84671,-0.39205 13.50092,-0.67983 3.08839,-0.19097 6.26657,-4.17621 17.25652,-3.30606 9.41914,0.74578 12.30073,6.38835 15.10996,5.93385 7.18387,-1.16225 9.71469,-0.45511 14.17999,1.59427 5.91122,2.713 10.98172,9.22144 9.98231,12.26671 -0.77312,2.35576 8.54087,1.36846 13.89495,1.74269 6.58291,0.46013 6.96095,-3.6319 7.1822,-6.22882 l 2.50572,-29.41051 c 1.44571,-16.96885 -18.51636,-23.85843 -35.02119,-25.9322 -5.42422,9.05868 -15.21543,16.90019 -32.9382,9.83958 -3.90563,-1.55597 -9.62356,1.35245 -18.30022,2.79341 -16.4489,2.73173 -20.41995,-8.92416 -25.24201,-8.68442 -10.560569,0.52505 -19.501117,-3.49174 -21.027973,-11.43732 -1.683492,-8.7607 0.640806,-21.32245 12.883803,-25.30717 4.27158,-1.39027 4.70233,-12.29078 12.35588,-15.57984 9.03632,-3.8833 15.33643,-8.35727 26.37007,-4.04529 4.19215,1.63831 2.22577,-6.78978 11.4873,-9.59429 3.61556,-1.09484 -3.8317,-4.91571 -6.22359,-8.44679 -6.42115,-9.479322 -2.11049,-24.793345 11.52477,-26.148044 3.05891,-0.303911 4.48292,-7.444913 10.93193,-11.026051 4.42707,-2.45835 9.62945,-5.028781 15.63587,-1.685813 3.83695,2.135515 3.46034,-9.097029 15.76271,-8.898305 2.54534,0.04112 3.938,-4.349029 8.18538,-5.416918 3.92858,-0.987737 9.64411,1.178325 11.13665,4.908443 5.42889,1.804729 7.49062,-6.568558 19.18854,-6.354116 12.90664,0.236599 12.43331,9.149536 16.84032,9.787014 4.45873,0.644959 8.53507,-9.623487 22.07026,-8.466427 15.77417,1.34846 17.20014,11.25414 20.823,11.100194 3.16643,-0.134551 15.04668,-5.107069 25.17868,-0.764827 6.23848,2.673606 12.21755,8.938499 13.50181,14.457222 0.31335,1.346527 8.04882,-0.807833 21.00419,6.264996 4.60513,2.514118 11.25956,9.251094 8.97795,16.814932 -1.12004,3.71308 14.3949,12.65172 4.54233,25.14846 -3.6465,4.62514 -10.53129,3.72137 -17.08539,2.87884 -8.34708,-1.07303 -4.85698,9.57738 -20.57494,12.46504 -11.58518,2.1284 -16.615,-0.52493 -21.23498,-5.21928 -2.28937,-2.32623 -5.18054,5.46956 -15.45358,6.91421 -6.38449,0.89783 -13.43805,0.81313 -19.48342,-0.75739 -3.16039,-0.82103 -9.15553,-3.04106 -10.27964,-1.47891 -3.4946,4.85636 -11.62142,13.94602 -18.23434,16.38184 -1.53906,0.5669 -2.00095,27.55786 0.16354,27.71082 2.73359,0.19318 11.29629,-1.19862 13.23959,-1.97892 3.70647,-6.59435 8.82623,-13.86471 17.44858,-16.19733 9.05325,-2.4492 12.97342,2.99814 15.89223,-0.52701 3.42555,-4.13715 7.78108,-9.1824 15.71549,-9.43075 5.1729,-0.16191 13.9717,0.50062 18.6258,5.99785 2.80708,3.31561 4.72474,-2.07812 15.11749,0.56312 7.52491,1.9124 12.5381,9.70407 11.8839,16.14244 -0.77569,7.63412 -2.63044,15.24116 -17.44998,13.60297 -2.8528,-0.31536 -5.9427,4.46563 -10.88634,6.64724 -3.91609,1.72816 -8.493,1.33464 -11.94039,-0.18345 -4.37612,-1.92707 -6.57438,5.04065 -10.51654,5.63628 -13.05522,1.97255 -14.71922,-2.17476 -22.11653,-10.37539 -3.94099,-4.36897 -14.60241,7.98216 -20.40254,-6.03814 -5.14308,0.69264 -11.39665,2.55062 -13.15678,2.98729 -1.48937,0.3695 -2.26712,12.06719 -2.41526,18.17797 -0.40311,16.62826 0.31657,39.42494 1.63434,39.6631 3.45912,0.62517 8.50676,0.42757 12.03916,0.21746 0.86165,-5.15545 7.89965,-12.08638 14.42904,-14.31546 4.04845,-1.3821 6.66351,0.82029 11.8859,0.0957 2.25581,-0.31299 7.0384,-6.72535 14.53186,-7.33551 8.36013,-0.68073 9.78515,0.38171 15.06893,3.48623 3.15019,1.85091 4.6825,-2.79938 10.47995,-4.2539 5.49517,-1.37869 11.27313,-1.74986 15.42841,0.53596 6.91189,3.80222 10.06568,13.97522 -1.50332,19.48168 -3.36647,1.60232 0.40187,6.76171 -4.2908,9.52312 -5.04055,2.96613 -12.59479,4.01118 -21.02541,-0.373 -5.40304,-2.80975 -4.0731,3.02103 -12.52394,3.70597 -7.47248,0.60564 -7.76839,-0.76364 -11.3716,-3.19715 -3.9656,-2.67827 -1.23693,4.49357 -11.8475,6.23184 -6.54435,1.07212 -16.23305,-1.9672 -19.3883,-8.97278 -2.88196,0.057 -8.41045,0.17773 -11.34962,3.5e-4 -1.69055,-0.10202 -3.46059,27.69961 -3.83419,52.38951 -0.29497,19.4935 -0.92249,33.55555 6.86612,32.67142 26.00732,-7.00765 58.08979,15.92336 62.08459,18.69882 5.35016,3.71712 10.86007,6.6717 16.39279,6.94709 11.90348,0.15504 14.23692,-7.01795 15.77251,-4.76343 1.32201,1.94095 -3.17666,6.26145 -10.61011,8.92254 -7.14134,2.55652 -14.96733,-2.18709 -13.29943,5.98843 3.25452,15.95263 -5.46325,29.73089 -5.21883,25.31176 0.3645,-6.59015 2.16795,-12.17513 1.63364,-17.32696 -3.24283,-31.26722 -42.91906,-39.74843 -58.83703,-28.94422 23.64079,6.39146 16.12273,33.2037 28.07069,45.11565 1.94394,1.93807 9.1082,5.09317 6.07099,5.5679 -3.39939,0.53135 -10.52666,-2.40399 -13.69918,-6.44207 -8.57792,-10.91823 -6.75717,-34.2444 -22.98419,-36.97787 -1.75794,-0.29613 -7.43072,4.07636 -6.42945,5.52178 16.95443,24.47527 9.11755,35.60962 5.6482,48.504 -1.0781,4.00695 3.03828,9.67102 9.50962,13.76266 4.17114,2.6373 10.14659,3.83453 16.90231,3.01187 13.33113,-1.62337 23.16646,-6.74963 17.53504,-1.01181 -2.62837,2.67803 -5.72149,4.46128 -9.14658,5.49688 -11.51939,3.48297 -25.90061,-0.6395 -29.08041,1.82102 -2.34029,1.81091 2.08331,9.19929 3.54049,17.05531 1.4375,7.74991 0.10923,16.69189 -1.92367,12.87255 -2.69097,-5.05569 -1.81876,-8.53096 -3.45629,-12.89533 -5.49682,-14.65016 -14.71831,-29.8917 -10.09043,-44.19915 3.99297,-12.34457 1.72336,-33.70095 -7.0465,-33.92247 -11.01462,-0.27822 -4.76451,19.94208 -21.06597,40.13377 1.57239,6.48836 1.61601,14.74026 -1.85319,31.67179 -1.08371,5.28907 9.99652,10.25501 17.8396,15.86292 5.84711,4.18076 7.09289,12.42724 6.7321,15.9332 -0.46615,4.52984 -4.89338,-7.47655 -7.79139,-10.09615 -5.0732,-4.58582 -10.61045,-6.59442 -14.2064,-4.49365 -3.53584,2.06565 -4.29341,8.94094 -3.74156,16.57326 0.30744,4.2519 5.37315,15.36031 2.2224,13.27079 -5.11216,-3.39028 -8.51066,-17.14159 -8.81852,-24.99991 -0.29511,-7.53308 0.56578,-10.92294 -0.46114,-15.91372 -1.49626,-7.27176 9.25482,-24.00872 1.34472,-33.99602 -7.83431,1.21706 -25.17907,13.41736 -20.21147,31.00646 1.33024,4.71005 1.76826,13.72453 0.18031,10.59811 -27.64155,-54.42159 41.87371,-37.39782 30.00069,-84.716 -9.20964,13.53534 -31.24181,24.75164 -45.98295,29.96059 -19.98642,7.06244 -9.26177,28.52715 -12.27311,26.75289 -7.80322,-4.59759 -3.13174,-13.80542 -5.57535,-20.95672 -2.78745,-8.15759 -10.69582,-4.67149 -14.65507,-13.74667 -1.41891,-3.25236 10.57512,5.40368 20.39257,5.3754 10.09581,-0.0291 57.81196,-25.71776 48.4322,-36.61017 -7.64911,-8.88266 -17.95378,11.99768 -27.45762,12.20339 l -29.36441,0.63559 c 0.98698,-3.81018 10.38831,-6.31868 22.5,-6.10169 10.12874,0.18146 15.39155,-5.64399 15,-13.98305 -0.19888,-4.23567 -15.8736,-10.22315 -30.78141,-9.3915 -14.04343,0.78342 -25.54112,7.08731 -28.3991,23.3844 -0.5814,3.31536 1.17562,13.03873 -0.98338,11.06803 -4.83866,-4.41666 -5.39788,-15.21771 -1.94284,-22.48284 -11.25648,0.12819 -20.555,-5.57661 -22.42717,-14.90861 z" /><path
     style="fill:#32ac60;fill-opacity:1;stroke:#000000;stroke-linejoin:round;stroke-opacity:1"
     id="path4285"
     d="m 205.28694,142.6154 c -2.21223,3.54611 -13.13095,10.9018 -19.17863,11.10787 3.4327,2.32689 3.34841,9.2856 2.95768,13.9186 7.04028,4.35471 26.5994,11.53888 30.68745,10.30747 4.82544,-1.45353 3.45944,-14.51311 3.24971,-21.8838 -3.48492,-4.12118 -14.21857,-10.67127 -17.71621,-13.45014 z" /><path
     style="fill:#32ac60;fill-opacity:1;stroke:#000000;stroke-linejoin:round;stroke-opacity:1"
     id="path4287"
     d="m 231.08603,131.72367 c -3.02618,1.19063 -8.75295,-2.33504 -10.51171,-0.25753 -1.74498,2.06122 -4.86111,5.08483 -8.00134,6.04475 4.60423,5.66071 8.57899,10.86223 13.52957,10.22281 5.44339,-0.70308 4.77488,-11.30581 4.98348,-16.01003 z" /><path
     style="fill:#32ac60;fill-opacity:1;stroke:#000000;stroke-linejoin:round;stroke-opacity:1"
     id="path4289"
     d="m 244.35641,129.511 c 3.90683,-0.8436 2.93151,2.34692 7.58128,2.35037 4.18306,0.003 5.46987,-0.74606 7.37101,3.12079 2.05872,4.18738 -5.45742,12.81148 -13.75673,14.91136 -3.86519,0.97797 -4.55642,-4.33187 -4.44174,-10.18435 0.092,-4.69601 0.61626,-9.59898 3.24618,-10.19817 z" /></svg>