<?xml version="1.0" encoding="UTF-8" standalone="no"?>
<svg
   xmlns:dc="http://purl.org/dc/elements/1.1/"
   xmlns:cc="http://creativecommons.org/ns#"
   xmlns:rdf="http://www.w3.org/1999/02/22-rdf-syntax-ns#"
   xmlns:svg="http://www.w3.org/2000/svg"
   xmlns="http://www.w3.org/2000/svg"
   xml:space="preserve"
   enable-background="new 30.5 31.5 412 533"
   viewBox="30.5 31.5 400 500"
   height="500"
   width="400"
   y="0"
   x="0"
   version="1.1"
   id="svg2"><metadata
     id="metadata4"><rdf:RDF><cc:Work
         rdf:about=""><dc:format>
          
          
          
          image/svg+xml
        
        
        
        </dc:format><dc:type
           rdf:resource="http://purl.org/dc/dcmitype/StillImage" /><dc:title></dc:title></cc:Work></rdf:RDF></metadata><defs
     id="defs6" /><path
     style="fill:#0085ca;fill-opacity:1"
     d="M 230.44,531.14 C 156.12,477.22 105.18,409.12 74.7,322.98 47.06,244.88 35.97,150.23 40.79,33.63 l 0.02,-0.46 379.82,0 0.02,0.46 c 4.81,116.6 -6.28,211.24 -33.91,289.35 C 356.26,409.12 305.32,477.22 231,531.14 l -0.28,0.2 z"
     id="path8" /><path
     style="fill:#ffffff;fill-rule:evenodd;stroke:none;stroke-width:1px;stroke-linecap:butt;stroke-linejoin:miter;stroke-opacity:1"
     d="m 102.38032,385.95389 c 11.84126,-22.61314 31.63776,-53.42849 49.21734,-69.82641 22.97637,-21.43195 56.16014,-31.46901 76.76011,-52.41755 20.94854,-20.59997 23.86823,-50.192 45.97848,-72.5164 22.3244,-22.11025 50.16432,-24.78902 70.5164,-45.97848 24.38586,-25.3892 33.66169,-65.954995 56.42231,-92.326788 5.77287,-6.688784 11.8749,-13.377567 17.83124,-20.066351 l -30.1832,0.03022 c -23.19011,19.579237 -35.60879,70.939019 -60.07035,96.362919 -20.37043,21.17182 -48.192,23.86823 -70.5164,45.97848 -22.11025,22.3244 -25.02994,51.91643 -45.97848,72.5164 -20.59997,20.94854 -53.78374,30.9856 -76.76011,52.41755 -15.62465,14.5744 -33.00057,40.53794 -44.985786,62.00916 z"
     id="path4224" /><path
     id="path4210"
     d="m 388.923,32.852131 c -23.19011,19.579237 -35.60879,70.939019 -60.07035,96.362919 -20.37043,21.17182 -48.192,23.86823 -70.5164,45.97848 -22.11025,22.3244 -25.02994,51.91643 -45.97848,72.5164 -20.59997,20.94854 -53.78374,30.9856 -76.76011,52.41755 -15.62465,14.5744 -33.00057,40.53794 -44.985786,62.00916 m 11.768446,23.81725 c 11.84126,-22.61314 31.63776,-53.42849 49.21734,-69.82641 22.97637,-21.43195 56.16014,-31.46901 76.76011,-52.41755 20.94854,-20.59997 23.86823,-50.192 45.97848,-72.5164 22.3244,-22.11025 50.16432,-24.78902 70.5164,-45.97848 24.38586,-25.3892 33.66169,-65.954995 56.42231,-92.326788 5.77287,-6.688784 11.8749,-13.377567 17.83124,-20.066351"
     style="fill:none;fill-rule:evenodd;stroke:#000000;stroke-width:1px;stroke-linecap:butt;stroke-linejoin:miter;stroke-opacity:1" /><path
     style="fill:#ffffff;fill-rule:evenodd;stroke:none;stroke-width:1px;stroke-linecap:butt;stroke-linejoin:miter;stroke-opacity:1"
     d="m 352.12518,32.700473 -24.77117,-0.03833 c -10.24718,20.732125 -19.37382,44.830235 -34.50136,60.552907 -20.37043,21.17182 -48.192,23.86823 -70.5164,45.97848 -22.11025,22.3244 -25.02994,51.91643 -45.97848,72.5164 -20.59997,20.94854 -53.78374,30.9856 -76.76011,52.41755 -10.35164,9.65583 -21.471968,24.31072 -31.284091,39.34633 l 9.008171,27.12788 c 11.270469,-18.62862 25.37056,-38.43632 38.27592,-50.47421 22.97637,-21.43195 56.16014,-31.46901 76.76011,-52.41755 20.94854,-20.59997 23.86823,-50.192 45.97848,-72.5164 22.3244,-22.11025 50.14597,-24.80666 70.5164,-45.97848 19.24996,-20.007267 28.78275,-53.576742 43.27253,-76.514572"
     id="path4222" /><path
     id="path4212"
     d="m 327.35401,32.662143 c -10.24718,20.732125 -19.37382,44.830235 -34.50136,60.552907 -20.37043,21.17182 -48.192,23.86823 -70.5164,45.97848 -22.11025,22.3244 -25.02994,51.91643 -45.97848,72.5164 -20.59997,20.94854 -53.78374,30.9856 -76.76011,52.41755 -10.35164,9.65583 -21.471968,24.31072 -31.284091,39.34633 m 9.008171,27.12788 c 11.270469,-18.62862 25.37056,-38.43632 38.27592,-50.47421 22.97637,-21.43195 56.16014,-31.46901 76.76011,-52.41755 20.94854,-20.59997 23.86823,-50.192 45.97848,-72.5164 22.3244,-22.11025 50.14597,-24.80666 70.5164,-45.97848 19.24996,-20.007267 28.78275,-53.576742 43.27253,-76.514572"
     style="fill:none;fill-rule:evenodd;stroke:#000000;stroke-width:1px;stroke-linecap:butt;stroke-linejoin:miter;stroke-opacity:1" /><path
     id="path4230"
     d="m 421.32709,109.22658 c -13.00561,22.82637 -22.50751,53.31472 -40.47444,71.98847 -20.37043,21.17182 -48.192,23.86823 -70.5164,45.97848 -22.11025,22.3244 -25.02994,51.91643 -45.97848,72.5164 -20.59997,20.94854 -53.78374,30.9856 -76.76011,52.41755 -19.50489,18.19382 -41.73888,54.13597 -52.80828,76.9313 -0.72035,1.79932 -1.37686,3.16214 -2.10149,5.08617 -4.53308,-6.0426 -10.27252,-14.22623 -14.01455,-20.38994 11.0694,-22.79533 33.41943,-59.43371 52.92432,-77.62753 22.97637,-21.43195 56.16014,-31.46901 76.76011,-52.41755 20.94854,-20.59997 23.86823,-50.192 45.97848,-72.5164 22.3244,-22.11025 50.14597,-24.80666 70.5164,-45.97848 24.46156,-25.4239 33.2322,-72.747551 56.42231,-92.326788"
     style="fill:#ffffff;fill-rule:evenodd;stroke:none;stroke-width:1px;stroke-linecap:butt;stroke-linejoin:miter;stroke-opacity:1;fill-opacity:1" /><path
     style="fill:none;fill-rule:evenodd;stroke:#000000;stroke-width:1px;stroke-linecap:butt;stroke-linejoin:miter;stroke-opacity:1"
     d="m 421.32709,109.22658 c -13.00561,22.82637 -22.50751,53.31472 -40.47444,71.98847 -20.37043,21.17182 -48.192,23.86823 -70.5164,45.97848 -22.11025,22.3244 -25.02994,51.91643 -45.97848,72.5164 -20.59997,20.94854 -53.78374,30.9856 -76.76011,52.41755 -19.50489,18.19382 -41.73888,54.13597 -52.80828,76.9313 -0.72035,1.79932 -1.37686,3.16214 -2.10149,5.08617 -4.53308,-6.0426 -10.27252,-14.22623 -14.01455,-20.38994 11.0694,-22.79533 33.41943,-59.43371 52.92432,-77.62753 22.97637,-21.43195 56.16014,-31.46901 76.76011,-52.41755 20.94854,-20.59997 23.86823,-50.192 45.97848,-72.5164 22.3244,-22.11025 50.14597,-24.80666 70.5164,-45.97848 24.46156,-25.4239 33.2322,-72.747551 56.42231,-92.326788"
     id="path4226" /><path
     d="M 419.96,33.21 C 429.03,252.66 383.7,419.16 230.5,530.31 77.31,419.16 31.99,252.66 41.06,33.21 l 189.45,0 189.45,0 m 0.92,-0.95 -0.92,0 -189.45,0 -189.45,0 -0.92,0 -0.04,0.92 c -4.82,116.66 6.28,211.36 33.93,289.52 30.51,86.24 81.51,154.41 155.91,208.39 l 0.56,0.41 0.56,-0.41 C 305.46,477.11 356.46,408.94 386.97,322.7 414.62,244.54 425.72,149.84 420.9,33.18 l -0.04,-0.92 0,0 z"
     id="path10" /></svg>