<?xml version="1.0" encoding="UTF-8" standalone="no"?>
<!-- Created with Inkscape (http://www.inkscape.org/) -->

<svg
   xmlns:dc="http://purl.org/dc/elements/1.1/"
   xmlns:cc="http://creativecommons.org/ns#"
   xmlns:rdf="http://www.w3.org/1999/02/22-rdf-syntax-ns#"
   xmlns:svg="http://www.w3.org/2000/svg"
   xmlns="http://www.w3.org/2000/svg"
   version="1.1"
   width="390"
   height="480"
   id="svg4228">
  <metadata
     id="metadata13">
    <rdf:RDF>
      <cc:Work
         rdf:about="">
        <dc:format>image/svg+xml</dc:format>
        <dc:type
           rdf:resource="http://purl.org/dc/dcmitype/StillImage" />
        <dc:title></dc:title>
      </cc:Work>
    </rdf:RDF>
  </metadata>
  <defs
     id="defs4232" />
  <path
     d="m 1.3386025,1.3317082 c 129.1367675,0 258.2735375,0 387.4102875,0 C 388.73877,115.6295 369.66206,349.34713 194.93286,478.40736 21.991852,349.289 1.4194481,115.65364 1.3386025,1.3317082 z"
     id="path4240-0-1"
     style="fill:#ffffff;fill-opacity:1;stroke:#808080;stroke-width:2.49024129;stroke-miterlimit:4;stroke-opacity:1;stroke-dasharray:none" />
  <path
     d="m 179.74577,196.14406 a 7.3728814,7.2457628 0 1 1 -14.74576,0 7.3728814,7.2457628 0 1 1 14.74576,0 z"
     id="path2827"
     style="fill:#000000;fill-opacity:1;fill-rule:evenodd;stroke:none" />
  <path
     d="m 219.74577,196.14406 a 7.3728814,7.2457628 0 1 1 -14.74576,0 7.3728814,7.2457628 0 1 1 14.74576,0 z"
     id="path2827-1"
     style="fill:#000000;fill-opacity:1;fill-rule:evenodd;stroke:none" />
  <path
     d="m 193.01501,184.46036 c -2.37708,-0.1279 -4.04559,2.68498 -4.80815,4.1845 l -2.32167,-96.816721 c -3.30367,6.791581 -0.78316,54.007381 -2.42693,57.347041 -7.49783,-12.07808 -12.75022,-25.27535 -18.42673,-38.26123 4.37448,24.28288 17.40108,35.23135 19.59525,59.40794 1.4204,15.65078 4.12696,37.98542 -12.49422,37.99242 -16.87572,0.007 -13.31044,-44.96687 -33.39282,-62.54412 -2.03722,-1.78309 -13.71278,6.65203 -13.7311,6.40937 -1.2796,-16.94616 12.95308,-96.973093 -12.02137,-127.734187 -1.20857,-1.488597 -7.09853,-2.641806 -7.46057,0.716838 -0.2331,30.146519 0.43061,80.617549 -15.190812,119.711939 -0.735599,-12.74506 -6.010671,-18.26059 -6.292052,-24.99972 -0.143105,-3.4274 3.370867,-6.05391 3.775231,-8.51245 0.473244,-2.87733 -3.886858,-4.45134 -3.865118,-7.4372 0.07129,-9.790501 4.662196,-11.154375 4.943755,-16.576877 0.161976,-3.119472 -3.063458,-4.055775 -3.325798,-6.093123 -0.614043,-4.7687 4.02986,-6.461385 4.314549,-10.304546 C 90.35458,64.63078 86.44665,58.741051 86.47077,52.760472 c 0.02255,-5.59261 3.869645,-5.858924 3.955004,-10.035731 0.03525,-1.724973 -2.37033,-3.090138 -2.337048,-5.10747 0.0988,-5.988671 3.526776,-8.304969 4.763982,-11.827826 0.933312,-2.657541 -3.725004,-5.799206 -8.629099,-4.032214 -15.301894,5.513417 -52.584593,38.599779 -57.257672,101.790989 1.740464,42.58155 22.237691,54.21104 35.729866,83.64603 -2.891924,-1.07452 -6.455462,-2.18494 -9.483021,-1.7473 -6.209791,7.11129 -2.276018,28.31031 1.528069,36.64834 -3.50748,5.0377 -7.983159,10.95039 -12.767649,15.46351 1.240442,3.70672 3.33541,9.60197 4.616596,12.98495 3.902323,-3.59123 7.312933,-7.4369 10.041558,-11.33428 7.629191,9.83528 14.503812,14.40512 21.483051,19.705 -4.643512,0.0505 -9.082062,6.82031 -6.010112,12.12774 12.455507,21.51945 32.419125,51.96103 57.284535,59.87345 -1.61097,8.48141 -4.13246,40.49832 -4.88838,58.56026 18.75208,23.42441 46.73598,50.73462 70.39551,67.86786 z"
     id="path2851"
     style="fill:#000000;stroke:none" />
  <path
     d="m 192.61033,184.46896 c 3.83529,-0.48945 5.16741,2.42566 6.17652,3.81901 l 4.44496,-96.490347 c 3.42697,6.730595 0.17684,53.984257 1.88124,57.293587 7.27635,-12.21195 12.28723,-25.50221 17.72601,-38.58881 -3.93097,24.35814 -17.63966,38.18419 -19.39262,62.39654 -1.13478,15.67393 -7.14595,32.59102 9.47261,32.29684 16.87306,-0.29881 15.05683,-38.73144 34.36817,-57.1473 4.12569,-3.93438 19.68694,4.76855 19.79721,4.32719 4.42251,-17.7014 -9.75474,-93.392163 14.65467,-124.600722 1.18122,-1.510251 6.73982,-2.858109 7.16304,0.49342 0.78277,30.137315 1.03949,80.612032 17.3712,119.416902 0.50308,-12.75628 5.6767,-18.36649 5.83515,-25.10961 0.0806,-3.42942 -3.4807,-5.99183 -3.92983,-8.44263 -0.52563,-2.86829 3.80505,-4.52103 3.72887,-7.506 -0.24981,-9.787604 -4.86482,-11.068064 -5.24522,-16.484569 -0.21882,-3.116021 2.989,-4.110616 3.21415,-6.152381 0.52698,-4.779039 -4.14701,-6.387294 -4.50174,-10.224662 -0.58327,-6.309927 3.21662,-12.269496 3.08345,-18.248651 -0.12448,-5.591278 -3.97585,-5.787835 -4.13736,-9.962405 -0.0667,-1.724049 2.3136,-3.13258 2.24354,-5.148975 -0.20799,-5.985892 -3.67763,-8.23969 -4.97887,-11.739547 -0.98162,-2.64019 3.50657,-5.493028 8.55415,-4.18791 17.52121,4.530339 57.16883,36.230765 53.09391,96.85974 -0.96372,42.60605 -24.42748,72.22731 -38.44136,84.27964 2.87186,-1.12673 6.41456,-2.30155 9.4496,-1.91883 6.33844,6.99759 8.09516,33.90351 4.44375,42.30909 3.5006,4.83767 6.08047,8.93864 9.71091,12.6712 -1.05296,3.25803 -3.49654,9.58754 -4.76286,12.95414 -4.37269,-4.63104 -8.53977,-10.38077 -11.48765,-14.43235 -6.74148,10.67678 -16.71361,16.78022 -23.24151,19.38613 4.64367,-0.0336 9.25181,6.61567 6.27714,11.97789 -12.06106,21.74159 -28.69626,54.44799 -60.13079,65.62924 1.78869,8.56252 4.9609,42.77433 6.02724,61.04945 -19.75721,23.95181 -45.6892,46.98713 -66.18439,62.09872 -6.2602,-96.25122 -39.22179,-200.58084 -2.28329,-292.87303 z"
     id="path2851-7"
     style="fill:#000000;stroke:none" />
  <path
     d="m 104,205.5 c 0.88937,-5.34585 17.64655,-8.11442 19.25346,-14.82343 2.18296,-9.11408 2.98927,-23.2381 3.06956,-23.39117 1.36849,-2.60884 6.04133,-4.53976 10.55198,-4.4104 12.5,20.625 24.1501,74.68751 4.625,109.25 -7.50697,-9.28503 -17.07224,-19.38056 -21.875,-19.75 L 114.75,252 c 7.50959,-20.54861 4.95695,-43.64419 -1.125,-44.75 L 104,205.5 z"
     id="path3678"
     style="fill:#ffffff;fill-opacity:1;stroke:none" />
  <path
     d="m 286.3941,205.43934 c -2.54558,-4.73111 -19.20893,-8.57393 -20.95811,-15.66288 -2.1825,-8.84505 0.30959,-25.08591 0.28127,-25.15962 -1.7346,-4.51454 -12.90444,-7.37167 -15.10882,-4.21635 -13.60672,21.79299 -26.28829,78.91706 -5.03449,115.43682 8.17162,-9.81084 18.58378,-20.47808 23.81176,-20.86844 l 5.30662,-0.39624 c -8.17448,-21.71228 -5.39583,-46.11576 1.2246,-47.28419 l 10.47717,-1.8491 z"
     id="path3678-8"
     style="fill:#ffffff;fill-opacity:1;stroke:none" />
</svg>
