<?xml version="1.0" encoding="utf-8"?>
<!-- Generator: Adobe Illustrator 16.0.0, SVG Export Plug-In . SVG Version: 6.00 Build 0)  -->
<!DOCTYPE svg PUBLIC "-//W3C//DTD SVG 1.1//EN" "http://www.w3.org/Graphics/SVG/1.1/DTD/svg11.dtd">
<svg version="1.1" id="Layer_1" xmlns="http://www.w3.org/2000/svg" xmlns:xlink="http://www.w3.org/1999/xlink" x="0px" y="0px"
	 width="500px" height="300px" viewBox="0 0 500 300" enable-background="new 0 0 500 300" xml:space="preserve">
<rect x="0" y="150" fill="#DA121A" width="500" height="150"/>
<rect x="0" fill="#FFFFFF" width="500" height="150"/>
<g>
	<g>
		<path fill="#FFFFFF" stroke="#000000" stroke-width="1.44" stroke-linecap="round" stroke-linejoin="round" d="M167.21,51.905
			H332.81v118.8c0,43.199-36,77.4-82.8,77.4c-46.801,0-82.801-34.201-82.801-77.4V51.905"/>
	</g>
	<g>
		<g>
			<g>
				<g>
					<path fill="#FCDD09" stroke="#000000" stroke-width="0.54" stroke-linecap="round" stroke-linejoin="round" d="M242.64,90.68
						c3.563-0.764,7.857-0.43,12.218,0c0.166-3.392,1.554-6.727,3.946-9.713c-4.021,1.456-5.127,4.03-6.854,6.248l-3.846-7.918
						l-2.884,7.884c-2.441-1.893-4.636-5.04-7.438-5.304C240.079,84.618,241.762,87.534,242.64,90.68L242.64,90.68z"/>
					<path fill="#FCDD09" stroke="#000000" stroke-width="0.54" stroke-linecap="round" stroke-linejoin="round" d="M241.64,92.49
						c2.528,2.758,3.729,5.136,5.334,7.629c-2.437-0.525-5.959-0.777-7.368-2.915c-0.804-1.221-2.438,2-2.894,3.509
						c-0.922-1.253-1.35-2.204-1.83-4.794c-0.176-0.948-0.768-2.3,0.911-3.117C237.698,91.875,239.726,92.708,241.64,92.49
						L241.64,92.49z"/>
				</g>
				<path fill="#DA121A" stroke="#000000" stroke-width="0.54" stroke-linecap="round" stroke-linejoin="round" d="M247.8,101.6
					c-3.237-1.213-6.479-0.356-9.713,0.455c-2.287,0.574-5.02,2.074-6.223-2.049c-1.618,1.993-0.817,5.361,2.277,4.933
					C239.973,104.131,243.3,101.719,247.8,101.6z"/>
				<g>
					<path fill="#FCDD09" stroke="#000000" stroke-width="0.54" stroke-linecap="round" stroke-linejoin="round" d="M224.85,195.359
						c-4.247-2.187-7.268-4.272-11.912-6.867c-6.239-2.473-7.07,1.354-4.723,3.22c0.057-2.545,0.714-3.821,3.327-0.966
						c-2.544,2.41-0.389,2.813,2.469,2.039l9.551,4.828c-5.185,0.857-12.311-1.131-14.166,0c-4.347-1.252-7.504,5.199-2.468,6.011
						c-1.512-3.442,0.319-3.8,2.468-3.862c0.077,3.471,3.501,4.141,4.078,0.858l10.09-0.106c-1.967,5.258-5.364,6.153-5.259,10.625
						c-3.217,4.691,4.215,7.551,5.04,3c-1.937,1.357-4.701,0.84-3.542-2.146c1.248-0.082,2.759,0.746,3.542-0.859
						c0.658-1.352-1.693-2.398-0.43-4.4l3.863-6.117h8.693c2.729,0,1.421,2.339,2.783,2.054c0.841-0.175,2.428-0.735,2.367-3.021
						c2.707-0.416,2.824,0.963,1.824,3.113c3.875-2.082,2.806-5.313-1.932-5.26c-1.324-1.475-3.78,0.189-4.723,0.43
						c-1.807,0.461-5.116-0.216-8.05-0.322l9.551-16.527l0.645-6.977l-4.776,4.615L224.85,195.359z"/>
					<path fill="#FCDD09" stroke="#000000" stroke-width="0.54" stroke-linecap="round" stroke-linejoin="round" d="M276.98,196.88
						c4.03-2.56,7.232-5.06,11.626-8.06c5.081-3.707,7.545,1.242,5.372,3.313c-0.284-2.494-1.736-3.83-4.083-1.801
						c1.611,2.703,0.108,3.98-2.655,2.708l-6.65,4.454c5.24,0.387,9.807-1.626,11.757-0.666c4.216-1.639,8.624,2.908,2.923,5.232
						c2.182-3.867-0.66-3.756-2.807-3.627c0.036,2.77-3.32,3.717-3.983,1.223l-10.061,0.8c2.433,5.062,5.896,5.647,6.192,10.11
						c3.625,4.384-3.52,7.898-4.753,3.445c2.05,1.178,4.758,0.416,3.334-2.455c-1.251,0.03-3.136,1.219-4.061-0.31
						c-0.777-1.287,1.401-1.707,0.185-3.738l-4.398-7.339l-5.926,0.174c-0.979,1.102-3.558,2.456-4.105-0.513
						c-3.258-0.254-2.918,0.914-1.435,3.2c-4.047-1.725-3.271-5.039,1.451-5.41c0.587-1.4,4.458,0.732,8.327-0.206l-7.887-15.069
						l-1.041-6.891l5.02,4.546L276.98,196.88z"/>
				</g>
			</g>
			<g>
				<path stroke="#000000" stroke-width="0.36" stroke-linecap="round" stroke-linejoin="round" d="M309.32,173.279
					c-5.508-5.652-10.658-10.289-15.995-17.889l-1.264,0.723c5.061,7.146,10.941,12.429,17.259,17.171"/>
				<path stroke="#000000" stroke-width="0.36" stroke-linecap="round" stroke-linejoin="round" d="M323.08,149.54
					c-7.43-1.189-13.578-4.071-17.604-8.587l1.266-0.737C311.635,145.521,316.556,146.608,323.08,149.54"/>
			</g>
			<path fill="#DA121A" stroke="#000000" stroke-width="0.54" stroke-linecap="round" stroke-linejoin="round" d="M251.25,221.12
				c-2.025,2.629-4.35,3.175-6.653,3.862c2.677-3.879,4.867-7.854,6.116-12.02c-2.473,2.924-5.631,5.725-8.585,6.439
				c-4.261,1.031-8.097-0.572-10.194-3.863c3.22,1.193,6.254,1,9.658-0.751c4.78-2.462,6.616-6.229,8.156-10.194
				c-2.657,3.479-5.535,4.85-8.763,2.896c5.886-3.184,8.705-9.627,8.978-20.497c0.119-4.737-1.05-11.384-2.879-18.091l-8.647,18.427
				c-1.203-4.591-1.535-9.04-0.314-13.224c-3.981,4.818-7.964,6.416-11.946,8.994c5.233-9.412,8.84-15.395,11.795-20.977
				c-4.162,3.917-8.308,2.561-8.815-1.628c-3.061,4.177-7.992,3.589-8.989-1.048c-8.342,15.061-18.534,25.211-28.14,24.643
				c6.532-7.314,13.681-16.389,20.617-27.343c-3.905,2.774-8.811-0.909-6.277-4.696c-1.574,0.904-3.147,1.028-4.722-0.089
				c-7.475,6.368-17.647,16.343-27.386,13.091c7.635-4.587,14.947-11.934,22.581-19.274c0.237-1.235-0.061-2.363,1.502-3.863
				c-4.997,1.877-6.726-3.541-3.648-5.795c-8.26,1.276-20.864,4.442-23.825-3.434c6.818-0.055,14.879-3.068,22.21-4.937
				c-4.119-0.262-4.131-7.535,0.859-8.156c-6.679-3.716-15.563-6.29-17.708-14.273c5.974,1.962,11.948,4.752,17.922,5.151
				c-2.059-2.285-0.068-7.03,4.293-5.903c-5.814-3.237-13.1-4.998-14.917-12.234c8.764,6.477,21.598,7.835,27.581,10.195
				c4.649,1.834,3.627,6.05,2.146,9.444c-2.02,4.628-0.35,9.642,2.146,13.737c4.066,6.673,12.887,10.331,19.289,9.201
				c3.57-0.631,6.967-5.884,9.09-10.166c-1.472,1.405-2.658,1.953-3.946,2.808c3.05-4.515,5.282-7.939,5.995-14.266
				c-0.83,1.245-1.495,1.833-2.125,2.277c1.204-4.123,1.522-8.246,1.519-12.369c1.856-0.314,2.959,0.137,4.25,0.379
				c1.354,0.255,2.303-1.195,0.683-2.277c-1.491-0.996-2.775-0.104-4.174-2.732c-1.207-2.268-2.756-4.225-4.401-6.071
				c2.482-1.911,5.303-1.125,8.347-0.987c3.432,0.157,7.167,0.365,10.473-1c-1.357,1.287-2.828,2.863-5.691,3.585
				c2.342,2.514,3.651,5.322,4.478,8.272c1.92,6.853,2.146,12.584,2.428,18.516c0.207,4.376-0.225,9.325-0.071,12.53
				c8.853,0.645,19.72-1.758,23.862-9.265c2.317-4.199,3.32-6.491,2.146-10.474c-1.302-4.417-1.288-9.279,3.361-11.11
				c5.983-2.36,18.13-3.718,26.21-8.753c-1.813,7.239-9.482,9.169-15.297,11.02c4.821-1.095,7.105,4.831,3.079,6.965
				c5.975-0.399,13.314-2.279,19.288-4.241c-2.131,8.06-10.483,8.975-17.328,11.693c3.22,0.401,5.159,6.1,0.635,8.01
				c1.416,1.038,2.559,2.137,2.5,3.101c7.337,1.868,13.04,3.895,19.862,3.95c-2.961,7.876-13.895,4.862-22.16,3.586
				c0.346,1.571-0.472,5.092-5.242,2.456c1.564,1.5,1.948,5.284-0.773,5.836c6.658,7.34,14.462,15.749,22.2,20.334
				c-10.451,3.963-22.779-8.104-28.979-15.748c1.011,2.729-1.041,7.478-6.586,4c0.389,1.666,0.041,3.092-1.173,3.918
				c4.116,6.699,9.367,19.031,16.959,26.351c-9.607,0.575-17.276-7.372-25.618-24.05c-1.545,1.066-3.811,1.498-6.842-2.065
				c-0.509,4.188-4.01,5.867-8.171,1.95c2.955,5.582,6.775,13.174,12.01,22.586c-3.982-2.578-7.105-3.316-11.09-8.135
				c1.221,4.188,0.996,8.847-0.207,13.438c-2.611-7.148-5.431-12.842-8.326-17.996c-1.829,6.705-0.852,10.99-0.733,15.728
				c0.273,10.87,4.272,17.101,10.158,20.282c-3.228,1.953-5.57,1.226-8.227-2.254c1.54,3.967,2.731,7.842,7.512,10.304
				c3.404,1.753,6.117,0.228,9.337-0.966c-2.098,3.291-4.754,5.646-9.01,4.615c-2.954-0.715-5.898-2.871-8.371-5.795
				c0.713,4.594,3.226,7.496,5.903,11.375c-2.305-0.152-4.627-1.234-6.654-3.863c0.036,3.463,0.104,8.061-1.895,9.438
				c-1.998-1.203-2.681-5.05-2.646-8.511H251.25z"/>
			<g>
				<path stroke="#000000" stroke-width="0.36" stroke-linecap="round" stroke-linejoin="round" d="M216.05,178.41
					c6.161-3.084,10.323-8.792,13.376-16.234c-0.107-1.443-0.104-2.275-1.369-0.138c-1.94,6.194-6.986,11.298-12.011,16.373"/>
				<path stroke="#000000" stroke-width="0.36" stroke-linecap="round" stroke-linejoin="round" d="M188.04,172.07
					c6.181-4.909,12.133-9.664,18.314-15.924l0.922,1.037C201.038,163.54,194.886,168.213,188.04,172.07"/>
				<path stroke="#000000" stroke-width="0.36" stroke-linecap="round" stroke-linejoin="round" d="M176.23,146.96
					c7.029,0.503,12.629-1.304,18.464-4.805l-1.126-1.093C188.232,145.279,182.728,145.443,176.23,146.96"/>
				<path stroke="#000000" stroke-width="0.36" stroke-linecap="round" stroke-linejoin="round" d="M176.87,119.6
					c3.935,3.118,8.396,4.126,12.892,4.998l0.309-1.134c-3.216-0.331-7.462-1.503-13.09-3.863"/>
				<path stroke="#000000" stroke-width="0.36" stroke-linecap="round" stroke-linejoin="round" d="M185.58,102.97
					c2.466,2.165,4.995,4.01,7.741,4.775l0.377-1.099C191.214,106.128,188.339,104.586,185.58,102.97"/>
			</g>
		</g>
		<g>
			<path fill="#FCDD09" stroke="#000000" stroke-width="0.54" d="M237.29,148.25c-13.806-2.549-25.307-8.967-30.691-20.498
				c4.279,0.714,6.086-2.124,4.937-4.293c-1.15-2.169-4.137-3.15-6.332,0.322c-0.353-4.603-3.086-6.665-5.473-5.04
				c-2.388,1.621-0.942,5.873,2.36,6.868c-3.72-0.362-5.625,3.21-4.293,5.04c1.333,1.834,4.829,2.161,6.439-1.288
				c7.792,14.171,18.959,20.475,34.34,22.966c-0.349-1.358-1.063-2.933-1.289-4.078L237.29,148.25z"/>
			<path fill="none" stroke="#000000" stroke-width="0.54" stroke-linecap="round" stroke-linejoin="round" d="M218.29,211.21
				c0.505,0.017,1.01,0.192,1.516,0.813 M240.606,197.643c-0.137,0.496-0.107,1.16-0.044,1.856 M209.362,197.586
				c-0.011,0.6-0.021,1.381-0.031,2.18 M211.621,190.716c0.51-0.411,1.02-0.536,1.528-1.899 M237.675,175.581L225.92,197.51"/>
		</g>
		<path fill="none" stroke="#000000" stroke-width="0.72" d="M241.38,124.74c-7.568-4.46-17.341-10.174-19.08-24.04
			c-1.319-10.539,2.089-20.233,11.99-28.381"/>
		<path fill="#078930" stroke="#000000" stroke-width="0.54" stroke-linecap="round" stroke-linejoin="round" d="M232.36,106.61
			c3.501,4.561,3.672,9.783,2.61,14.06C231.729,116.27,231.207,111.763,232.36,106.61z"/>
	</g>
	<g>
		
			<ellipse fill="#078930" stroke="#000000" stroke-width="0.54" stroke-linecap="round" stroke-linejoin="round" cx="222.51" cy="107.98" rx="1.53" ry="1.53"/>
		<g>
			<path fill="#078930" stroke="#000000" stroke-width="0.54" stroke-linecap="round" stroke-linejoin="round" d="M218.67,117.56
				c4.778,4.04,11.503,4.812,16.314,3.318C229.934,117.858,223.713,116.726,218.67,117.56z"/>
			<path fill="#078930" stroke="#000000" stroke-width="0.54" stroke-linecap="round" stroke-linejoin="round" d="M230.26,87.7
				c-0.479,5.73-4.129,11.438-7.792,13.886C223.032,96.15,225.941,90.734,230.26,87.7L230.26,87.7z"/>
			<path fill="#078930" stroke="#000000" stroke-width="0.54" stroke-linecap="round" stroke-linejoin="round" d="M238.02,75.46
				c-3.04,4.881-8.45,7.795-12.826,7.767C228.067,79.719,232.899,76.512,238.02,75.46z"/>
			<path fill="#078930" stroke="#000000" stroke-width="0.54" stroke-linecap="round" stroke-linejoin="round" d="M246.14,64.779
				c-2.992,4.91-7.629,7.871-12.11,7.671C236.429,67.947,240.917,65.56,246.14,64.779z"/>
			<path fill="#078930" stroke="#000000" stroke-width="0.54" stroke-linecap="round" stroke-linejoin="round" d="M226.38,68.56
				c1.652,5.689,0.652,10.831-1.466,14.821C223.56,78.146,223.773,73.558,226.38,68.56z"/>
			<path fill="#078930" stroke="#000000" stroke-width="0.54" stroke-linecap="round" stroke-linejoin="round" d="M214.65,88.61
				c0.479,5.73,3.343,10.365,7.649,12.92C222.273,95.772,218.648,92.288,214.65,88.61z"/>
		</g>
	</g>
	<g>
		<path fill="none" stroke="#000000" stroke-width="0.72" d="M261.66,124.81c7.115-5.153,15.592-11.977,16.021-25.947
			c0.321-10.616-2.482-18.873-13.11-26.05"/>
		<path fill="#078930" stroke="#000000" stroke-width="0.54" stroke-linecap="round" stroke-linejoin="round" d="M268.95,105.62
			c-3.056,4.87-3.878,11.244-2.418,15.4C269.345,117.245,270.583,110.639,268.95,105.62z"/>
	</g>
	<g>
		<g>
			
				<circle fill="#078930" stroke="#000000" stroke-width="0.54" stroke-linecap="round" stroke-linejoin="round" cx="-269.11" cy="118.11" r="1.53"/>
			<g>
				<path fill="#078930" stroke="#000000" stroke-width="0.54" stroke-linecap="round" stroke-linejoin="round" d="M282.24,117.5
					c-4.376,4.467-10.999,5.418-15.626,3.777C271.353,117.791,277.14,117.144,282.24,117.5z"/>
				<path fill="#078930" stroke="#000000" stroke-width="0.54" stroke-linecap="round" stroke-linejoin="round" d="M258.77,75.74
					c3.912,4.214,9.993,6.05,14.284,5.189C269.567,78.031,263.994,75.801,258.77,75.74z"/>
				<path fill="#078930" stroke="#000000" stroke-width="0.54" stroke-linecap="round" stroke-linejoin="round" d="M251.45,66.33
					c3.441,4.607,8.943,7.27,13.383,6.649C262.173,68.115,256.721,66.617,251.45,66.33z"/>
				<path fill="#078930" stroke="#000000" stroke-width="0.54" stroke-linecap="round" stroke-linejoin="round" d="M269.8,66.874
					c-1.108,5.819,0.754,9.772,3.238,13.544C273.893,75.079,272.866,71.604,269.8,66.874z"/>
				<path fill="#078930" stroke="#000000" stroke-width="0.54" stroke-linecap="round" stroke-linejoin="round" d="M285.95,92.26
					c-0.242,4.839-4.182,9.861-8.684,11.596C279.028,97.21,281.861,94.932,285.95,92.26z"/>
				<path fill="#078930" stroke="#000000" stroke-width="0.54" stroke-linecap="round" stroke-linejoin="round" d="M268.68,87.58
					c0.349,6.775,3.963,12.07,8.607,14.864C277.129,97.739,272.937,90.634,268.68,87.58z"/>
			</g>
		</g>
		<g>
			<path stroke="#000000" stroke-width="0.36" stroke-linecap="round" stroke-linejoin="round" d="M282.44,179.08
				c-5.817-3.691-9.38-9.793-11.663-17.505l0.673-2.021c1.758,6.814,6.509,13.967,10.99,19.523"/>
			<path stroke="#000000" stroke-width="0.36" stroke-linecap="round" stroke-linejoin="round" d="M324.381,121.27
				c-4.386,2.445-9.595,2.614-14.171,2.751l-0.122-1.276C313.314,122.936,318.444,122.695,324.381,121.27"/>
			<path stroke="#000000" stroke-width="0.36" stroke-linecap="round" stroke-linejoin="round" d="M315.62,104.16
				c-2.907,2.745-5.815,3.811-8.724,4.569l-0.159-1.635C309.232,106.942,312.562,105.72,315.62,104.16"/>
		</g>
	</g>
	<g>
		<path fill="#FCDD09" stroke="#000000" stroke-width="0.54" d="M262.46,146.63c13.758-1.888,24.061-8.03,30.355-18.19
			c-4.28,0.714-6.086-2.123-4.938-4.293c1.15-2.169,4.138-3.15,6.332,0.322c0.354-4.603,3.086-6.665,5.474-5.04
			c2.387,1.621,0.941,5.873-2.361,6.868c3.721-0.362,5.625,3.21,4.293,5.04c-1.332,1.834-4.829,2.161-6.439-1.288
			c-7.947,12.836-18.549,18.217-32.34,20.605L262.46,146.63z"/>
		<g>
			<path fill="none" stroke="#000000" stroke-width="0.54" stroke-linecap="round" stroke-linejoin="round" d="M263.13,153.05
				c-0.579-3.838-1.01-7.67-0.606-11.231c0.676-6.01,5.304-4.37,9.713-5.464c5.642-1.399,10.344-4.605,13.811-8.954 M261.15,161.809
				c3.089,6.192,5.997,11.297,8.8,15.775 M282.184,159.125c4.638,7.178,7.604,15.16,14.81,21.57 M287.246,158.596
				c-1.46,1.686-5.03,1.439-7.457-1.227c0.02,1.688-0.071,2.746-1.213,3.542 M299.636,150.417
				c7.231,6.354,8.771,8.765,15.432,12.829 M301.831,146.176c-0.693,0.105-2.04-0.289-2.997-0.428
				c1.655,1.785,1.636,7.214-3.688,5.05 M309.206,133.839c4.438,0.966,10.578,1.833,15.051,1.489 M310.037,130.357
				c0.122,2.591-1.485,4.747-4.047,4.901c1.011,0.819,1.62,1.486,1.755,2.465 M308.909,114.523c3.828-0.59,6.897-1.404,10.725-3.678
				 M304.647,111.921c3.575,0.18,6.644,4.206,2.324,7.322 M309.709,98.532c-8.177,4.841-18.971,3.73-18.848,12.839 M234.721,134.895
				c0.682,7.631,2.83,14.635,5.125,20.58c2.052,5.317,5.599,5.924,7.289,13.529 M261.552,133.545
				c-5.771,4.739-2.318,14.823-0.953,22.221 M239.658,163.375c-3.089,6.193-5.997,11.297-8.8,15.775 M214.331,161.012
				c-4.638,7.176-8.354,13.01-15.346,18.459 M212.596,156.876c-1.235,4.25,4.248,6.124,7.512,2.411 M201.775,147.277
				c-7.232,6.355-14.16,11.497-20.82,15.561 M196.87,145.758c0.974,1.394,2.24,1.924,4.833,1.547
				c-1.125,1.253-0.89,3.263-0.143,4.748 M190.614,132.893c-5.073,0.875-10.37,1.95-14.06,1.717 M193.005,127.719
				c-3.598,2.866-2.986,7.38,1.458,8.299 M191.9,114.112c-3.828-0.59-7.655-2.77-11.483-5.04 M193.885,110.151
				c0.614,0.866,1.087,1.368,1.594,1.667c-3.149,0.18-5.347,3.898-2.962,6.961 M188.976,97.063c5.452,2.857,8.771,4.12,18.04,7.287
				c7.1,2.425,5.191,5.437,3.458,8.06 M215.827,130.003c4.093,7.03,12.236,10.281,19.639,10.303 M240.993,104.623
				c1.262-0.675,2.598-1.304,4.847-1.556 M240.71,93.191c1.931,2.22,3.099,5.454,5.64,6.146 M251.879,94.307
				c-0.177,1.687-0.508,3.194-1.983,4.638 M243.626,91.47c0.584,2.342,2.114,2.876,3.718,2.696
				c4.878-0.547,9.604,0.761,12.977-1.366 M252.682,97.013c3.864,6.33,5.344,12.382,5.767,18.341 M249.409,111.405
				c0.095,4.055-0.046,7.646-0.518,10.849c2.212-2.953,3.01-6.845,3.527-10.931 M245.83,113.364c1.052-1.783,1.934-4.162,2.58-7.361
				 M243.294,125.233c1.608-1.603,2.988-4.089,4.585-7.01 M236.387,135.119c3.089-1.342,6.177-3.581,9.266-8.118 M248.673,124.609
				c-0.178,3.807-1.114,7.613-2.724,11.42c3.644-2.369,5.129-7.54,5.974-12.06 M241.977,88.091
				c3.833-1.033,9.716-0.719,13.168-0.018 M253.163,193.783c0.357,12.296,0.502,23.535,0.662,34.852 M256.401,167.465l7.189,12.02
				 M237.727,162.475c1.43-2.191,1.861-6.06,3.862-3.705"/>
			<path stroke="#000000" stroke-width="0.54" stroke-linecap="round" stroke-linejoin="round" d="M246.59,94.2
				c0.327,1.787,0.863,3.364,1.903,4.438l0.196-4.385L246.59,94.2z"/>
			<path fill="none" stroke="#000000" stroke-width="0.54" stroke-linecap="round" stroke-linejoin="round" d="M284.64,210.63
				c-0.502,0.062-0.989,0.283-1.437,0.947 M264.837,197.758c0.182,0.482,0.211,1.145,0.211,1.844 M292.413,196.742
				c0.064,0.597,0.038,0.89,0.12,1.686 M289.893,190.299c-0.544-0.363-0.947-0.705-1.197-1.486 M264.85,176.332l10.273,21.029"/>
			<path fill="#FFFFFF" stroke="#000000" stroke-width="0.54" stroke-linecap="round" stroke-linejoin="round" d="M248.52,98.6
				c1.714-0.787,2.185-2.662,2.58-4.357l-2.527,0.022C247.894,95.947,248.414,97.358,248.52,98.6z"/>
		</g>
	</g>
</g>
</svg>
