<svg xmlns:dc="http://purl.org/dc/elements/1.1/" xmlns:cc="http://creativecommons.org/ns#" xmlns:rdf="http://www.w3.org/1999/02/22-rdf-syntax-ns#" xmlns:svg="http://www.w3.org/2000/svg" xmlns="http://www.w3.org/2000/svg" id="svg2" version="1.1" x="0" y="0" width="400" height="500" viewBox="30.5 31.5 400 500" enable-background="new 30.5 31.5 412 533" xml:space="preserve">
  <metadata id="metadata4">
    <rdf:RDF>
      <cc:Work rdf:about="">
        <dc:format>
          
          
          
          
          
          
          image/svg+xml
        
        
        
        
        
        
        </dc:format>
        <dc:type rdf:resource="http://purl.org/dc/dcmitype/StillImage"/>
      </cc:Work>
    </rdf:RDF>
  </metadata>
  <defs id="defs6"/>
  <path fill="#e00e00" d="M230.45 531.13C156.13 477.21 105.19 409.11 74.71 322.97 47.07 244.87 35.98 150.22 40.8 33.62l0.02-0.46 379.82 0 0.02 0.46c4.81 116.6-6.28 211.24-33.91 289.35-30.48 86.14-81.42 154.24-155.74 208.16l-0.28 0.2-0.28-0.2z" id="path4148"/>
  <path id="path10" d="M419.96 33.21C429.03 252.66 383.71 419.16 230.51 530.31 146.04 469.02 94.36 390.9 66.52 296.34 64.43 289.25 62.48 282.07 60.65 274.8 49.2 229.11 42.88 179.78 40.77 126.86 39.57 96.8 39.72 65.58 41.06 33.21l189.45 0 189.45 0m0.92-0.95-0.92 0-189.45 0-189.45 0-0.92 0-0.04 0.92c-4.82 116.66 6.28 211.36 33.93 289.52 30.51 86.24 81.51 154.41 155.91 208.39l0.56 0.41 0.56-0.41C305.46 477.11 356.46 408.94 386.97 322.7 414.62 244.54 425.72 149.84 420.9 33.18l-0.04-0.92 0 0z"/>
  <path id="path4246" d="m160.39 397.86c-1.68-4.7-2.82-10.5-2.82-16.48l0.14-228.28c-16.53 0-24.02 2.73-32.86 7.16-2.06 1.03-2.28 1.53-3.46-0.43-3.25-5.42-4.29-15.46-0.44-23.4 1.05-2.17 1.75-1.16 4.35 0.29 9.26 5.19 18.54 7.22 32.81 7.22-2.63-20.54-5-38.63 4.46-65.13 0 0-2.42-0.83-3.14-2.21-1.06-2.01-1.32-2.9-0.98-7.11 6.03 0 12.06 0 18.09 0 0.34 4.21 0.08 5.1-0.98 7.11-0.72 1.38-3.14 2.21-3.14 2.21 9.46 26.5 7.09 44.59 4.46 65.13 14.27 0 23.54-2.03 32.81-7.22 2.6-1.46 3.3-2.46 4.35-0.29 3.85 7.94 2.81 17.98-0.44 23.4-1.17 1.96-1.4 1.46-3.46 0.43-8.84-4.43-16.33-7.16-32.86-7.16l0.14 228.28c0 5.98-1.14 11.78-2.82 16.48C173.2 401.79 167.5 411.5 167.5 411.5c0 0-5.7-9.71-7.11-13.64z" style="fill-rule:evenodd;fill:#ffe000;stroke:#000"/>
  <path d="m286.39 397.86c-1.68-4.7-2.82-10.5-2.82-16.48l0.14-228.28c-16.53 0-24.02 2.73-32.86 7.16-2.06 1.03-2.28 1.53-3.46-0.43-3.25-5.42-4.29-15.46-0.44-23.4 1.05-2.17 1.75-1.16 4.35 0.29 9.26 5.19 18.54 7.22 32.81 7.22-2.63-20.54-5-38.63 4.46-65.13 0 0-2.42-0.83-3.14-2.21-1.06-2.01-1.32-2.9-0.98-7.11 6.03 0 12.06 0 18.09 0 0.34 4.21 0.08 5.1-0.98 7.11-0.72 1.38-3.14 2.21-3.14 2.21 9.46 26.5 7.09 44.59 4.46 65.13 14.27 0 23.54-2.03 32.81-7.22 2.6-1.46 3.3-2.46 4.35-0.29 3.85 7.94 2.81 17.98-0.44 23.4-1.17 1.96-1.4 1.46-3.46 0.43-8.84-4.43-16.33-7.16-32.86-7.16l0.14 228.28c0 5.98-1.14 11.78-2.82 16.48C299.2 401.79 293.5 411.5 293.5 411.5c0 0-5.7-9.71-7.11-13.64z" id="path4390" style="fill-rule:evenodd;fill:#ffe000;stroke:#000"/>
</svg>
