<svg xmlns:dc="http://purl.org/dc/elements/1.1/" xmlns:cc="http://creativecommons.org/ns#" xmlns:rdf="http://www.w3.org/1999/02/22-rdf-syntax-ns#" xmlns:svg="http://www.w3.org/2000/svg" xmlns="http://www.w3.org/2000/svg" xml:space="preserve" enable-background="new 30.5 31.5 412 533" viewBox="30.5 31.5 400 500" height="500" width="400" y="0" x="0" version="1.1" id="svg2">
  <metadata id="metadata4">
    <rdf:RDF>
      <cc:Work rdf:about="">
        <dc:format>
          
          
          
          image/svg+xml
        
        
        
        </dc:format>
        <dc:type rdf:resource="http://purl.org/dc/dcmitype/StillImage"/>
      </cc:Work>
    </rdf:RDF>
  </metadata>
  <defs id="defs6"/>
  <path d="M230.56 531.14C304.88 477.22 355.82 409.12 386.3 322.98 413.94 244.88 425.03 150.23 420.21 33.63l-0.02-0.46-379.82 0-0.02 0.46c-4.81 116.6 6.28 211.24 33.91 289.35 30.48 86.14 81.42 154.24 155.74 208.16l0.28 0.2 0.28-0.2z" id="path8" fill="#0085ca"/>
  <path d="M41.04 33.21C31.97 252.66 77.3 419.16 230.5 530.31 383.69 419.16 429.01 252.66 419.94 33.21l-189.45 0-189.45 0m-0.92-0.95 0.92 0 189.45 0 189.45 0 0.92 0 0.04 0.92c4.82 116.66-6.28 211.36-33.93 289.52-30.51 86.24-81.51 154.41-155.91 208.39l-0.56 0.41-0.56-0.41C155.54 477.11 104.54 408.94 74.03 322.7 46.38 244.54 35.28 149.84 40.1 33.18l0.04-0.92 0 0z" id="path10"/>
  <path id="path4500" d="m290.29 118.46c-82.36-13.16-158.55-7.8-208.04 0.11-2.88 0.31-4.43-11.61-1.54-12.17 51.22-8.66 81.03-18.9 137.26-19.31 28.6-0.21 57.32 1.42 85.31 2.06l9.69-20.33c1.41-2.96 29.65 2.96 28.65 6.93l-4.32 13.4 28.51 0.62c6.04 0.13-2.4 31.82-6.16 31.71l-32.5-0.91-27.88 72.7c-1.98 5.17-1.12 13.5 1.7 18.48l40.5 71.61c4.1 7.24 5.66 27.08 2.32 40.84-7.86 32.36-24.78 63.34-41.58 91.48-5.69 9.54-11.42 14.49-27.7 18.95-32.26 8.84-67.09 8.48-99.83-5.7-4.05-1.76-10.47-3.24-8.01-9.24z" style="fill-rule:evenodd;fill:#ffe000;stroke:#000"/>
</svg>
