<?xml version="1.0" encoding="iso-8859-1"?>
<!DOCTYPE svg>
<svg xmlns="http://www.w3.org/2000/svg" xmlns:svg="http://www.w3.org/2000/svg" width="558" height="434" viewBox="0 0 279 217">
	<rect fill="#FF0000" width="279" height="217"/> 
	<circle fill="#FFFF00" cx="162.6875" cy="43.2412109" r="5.4375"/> 
	<path fill="#FFFF00" d="M139.5,80.1787109c-41.75,0-21.25-13,0-13S181.25,80.1787109,139.5,80.1787109z"/>
	<path fill="#FFFF00" d="M139.5,65.1787109c0,0-7.5,0.5-12.625,1.625s-11.625,4.375-11.625,4.375l-3.375-17l-18.125-19.125
		c0,0,6.5-2,17.4375,8.9375c5.6923828,9.5673828,11.25,17.875,11.25,17.875l14.4375-7.8125v-13.875c0,0-3.25,2-5.625,2
		s-5.375-1.25-5.375-5s3.375-4.25,5.375-4.25s5.625,1.875,5.625,1.875v-2.5c0,0-3-1.375-3-4.625s3.2294922-5,5.625-5
		s5.625,1.75,5.625,5s-3,4.625-3,4.625v2.5c0,0,3.625-1.875,5.625-1.875s5.375,0.5,5.375,4.25s-3,5-5.375,5s-5.625-2-5.625-2
		v13.875l14.4375,7.8125c0,0,5.5576172-8.3076172,11.25-17.875c10.9375-10.9375,17.4375-8.9375,17.4375-8.9375l-18.125,19.125
		l-3.375,17c0,0-6.5-3.25-11.625-4.375S139.5,65.1787109,139.5,65.1787109z"/>
	<circle fill="#FFFF00" cx="116.3125" cy="43.2412109" r="5.4375"/> 
	<g>
		
		<rect x="62.1011047" y="127.033783" transform="matrix(0.6395604 -0.7687408 0.7687408 0.6395604 -49.3443451 157.001709)" fill="#FFFF00" width="161.3046417" height="8.1751099"/> 
		<g>
		<g>
			<path fill="#FF0000" d="M180.9423828,69.3427734l-9.8251953,11.3837891l4.1152344,11.6889648
			c0,0,11.1835938,1.7421875,11.7988281,1.8383789c0.9755859,1.1181641,7.0859375,8.4580078,7.0859375,17.0683594
			c0,8.9345703-3.5068359,10.7529297-3.5419922,10.7714844l0.5292969,1.7089844
			c0.5693359-0.0947266,14.015625-2.46875,24.0507813-15.6972656
			c9.9619141-13.1293945,11.8417969-25.7749023,11.9130859-26.3061523l0.3251953-2.2890625l-1.7890625,1.4638672
			c-0.0732422,0.0595703-7.3857422,5.9663086-15.2333984,5.9663086c-7.1572266,0-12.4658203-4.1425781-13.3564453-4.8828125
			c-0.1484375-0.4980469-3.2431641-10.9633789-3.2431641-10.9633789l-12.4960938-2.137207L180.9423828,69.3427734z"/>
		</g>
		<path fill="#FFFF00" enable-background="new    " d="M190.9560547,122.9111328c0,0,13.546875-2.2568359,23.4794922-15.3505859
			c9.9335938-13.0942383,11.7402344-25.8876953,11.7402344-25.8876953s-7.5263672,6.1708984-15.8046875,6.1708984
			c-8.2773438,0-14.1455078-5.2680664-14.1455078-5.2680664l-3.1621094-10.6860352L181.625,69.9331055l-9.4824219,10.9873047
			l3.7626953,10.6860352l11.5898438,1.8061523c0,0,7.5244141,8.1274414,7.5244141,17.909668
			C195.0195313,121.1054688,190.9560547,122.9111328,190.9560547,122.9111328z"/>
		</g>
	</g>
	<g>
		<g>
		<g>
			<polygon fill="#FF0000" points="87.2299805,65.8115234 80.2495117,71.6166992 184.5693359,197.0068359 
			192.2431641,190.6259766 87.9243164,65.234375 "/>
		</g>
		
			<rect x="55.5941772" y="127.0334015" transform="matrix(-0.6395586 -0.7687424 0.7687424 -0.6395586 122.5853195 319.7194519)" fill="#FFFF00" enable-background="new    " width="161.3043213" height="8.1758604"/> 
		</g>
		<g>
		<g>
			<path fill="#FF0000" d="M97.7246094,68.9570313l-12.4960938,2.137207c0,0-3.0947266,10.465332-3.2431641,10.9633789
			c-0.890625,0.7402344-6.1987305,4.8828125-13.3583984,4.8828125c-7.8476563,0-15.1577148-5.9067383-15.2304688-5.9663086
			l-1.7900391-1.4638672l0.3232422,2.2890625c0.0742188,0.53125,1.953125,13.1767578,11.9135742,26.3061523
			c10.0361328,13.2285156,23.4829102,15.6025391,24.0507813,15.6972656l0.5292969-1.7089844
			c-0.0351563-0.0185547-3.5419922-1.8369141-3.5419922-10.7714844c0-8.6103516,6.1113281-15.9501953,7.0874023-17.0683594
			c0.6147461-0.0961914,11.796875-1.8383789,11.796875-1.8383789l4.1157227-11.6889648l-9.8242188-11.3837891
			L97.7246094,68.9570313z"/>
		</g>
		<path fill="#FFFF00" enable-background="new    " d="M88.0424805,122.9111328c0,0-13.5454102-2.2568359-23.4790039-15.3505859
			c-9.934082-13.0942383-11.7397461-25.8876953-11.7397461-25.8876953S60.3491211,87.84375,68.6269531,87.84375
			s14.1479492-5.2680664,14.1479492-5.2680664l3.1601563-10.6860352l11.4389648-1.956543l9.4819336,10.9873047
			l-3.7626953,10.6860352l-11.5893555,1.8061523c0,0-7.5253906,8.1274414-7.5253906,17.909668
			C83.9785156,121.1054688,88.0424805,122.9111328,88.0424805,122.9111328z"/>
		</g>
	</g>
</svg>