<?xml version="1.0" encoding="UTF-8" standalone="no"?>
<svg
   xmlns:dc="http://purl.org/dc/elements/1.1/"
   xmlns:cc="http://creativecommons.org/ns#"
   xmlns:rdf="http://www.w3.org/1999/02/22-rdf-syntax-ns#"
   xmlns:svg="http://www.w3.org/2000/svg"
   xmlns="http://www.w3.org/2000/svg"
   xml:space="preserve"
   enable-background="new 30.5 31.5 412 533"
   viewBox="30.5 31.5 400 500"
   height="500"
   width="400"
   y="0"
   x="0"
   version="1.1"
   id="svg2"><metadata
     id="metadata4"><rdf:RDF><cc:Work
         rdf:about=""><dc:format>
          
          
          
          
          image/svg+xml
        
        
        
        
        </dc:format><dc:type
           rdf:resource="http://purl.org/dc/dcmitype/StillImage" /><dc:title></dc:title></cc:Work></rdf:RDF></metadata><defs
     id="defs6" /><path
     style="fill:#e00e00"
     id="path4148"
     d="M 230.45,531.13 C 156.13,477.21 105.19,409.11 74.71,322.97 47.07,244.87 35.98,150.22 40.8,33.62 l 0.02,-0.46 379.82,0 0.02,0.46 c 4.81,116.6 -6.28,211.24 -33.91,289.35 -30.48,86.14 -81.42,154.24 -155.74,208.16 l -0.28,0.2 -0.28,-0.2 z" /><path
     d="M 419.96,33.21 C 429.03,252.66 383.71,419.16 230.51,530.31 146.04,469.02 94.36,390.9 66.52,296.34 64.43,289.25 62.48,282.07 60.65,274.8 49.2,229.11 42.88,179.78 40.77,126.86 39.57,96.8 39.72,65.58 41.06,33.21 l 189.45,0 189.45,0 m 0.92,-0.95 -0.92,0 -189.45,0 -189.45,0 -0.92,0 -0.04,0.92 c -4.82,116.66 6.28,211.36 33.93,289.52 30.51,86.24 81.51,154.41 155.91,208.39 l 0.56,0.41 0.56,-0.41 C 305.46,477.11 356.46,408.94 386.97,322.7 414.62,244.54 425.72,149.84 420.9,33.18 l -0.04,-0.92 0,0 z"
     id="path10" /><path
     style="fill:#ffffff;fill-opacity:1;stroke:#000000;stroke-width:1;stroke-opacity:1;stroke-miterlimit:4;stroke-dasharray:none"
     id="path3524"
     d="m 96.084835,118.86545 27.487725,114.05149 c -0.2943,0 -5.6702,0 -5.68981,0 -4.2772,0.28451 -6.18033,3.10979 -6.43541,6.96512 -0.35316,5.39554 -4.50279,9.78061 -9.94737,9.78061 -5.493614,0 -9.996422,-4.45375 -9.996422,-9.94737 0,-3.89458 2.256311,-7.24963 5.532861,-8.87807 0.215821,-0.11772 0.480692,-0.22565 0.686704,-0.32373 1.912956,-1.10855 3.188257,-3.21769 3.188257,-5.58191 0,-3.54145 -2.844905,-6.37655 -6.37652,-6.37655 -1.383216,0 -2.678139,0.42184 -3.718003,1.16741 -7.161328,3.8259 -12.066345,11.32079 -12.066345,19.99285 0,12.53724 10.222057,22.70044 22.759288,22.70044 9.70211,0 17.97197,-6.10186 21.21911,-14.67584 l 4.46355,0 3.99269,16.63783 10.74201,0 c 9.36856,-11.02649 23.27919,-18.0799 38.86736,-18.0799 15.58814,0 29.55763,7.04362 38.9164,18.0799 l 24.29948,0 c 9.36856,-11.02649 23.27919,-18.0799 38.86736,-18.0799 15.58814,0 29.55763,7.04362 38.9164,18.0799 l 10.74198,0 3.56106,-16.69669 7.60279,0 c 3.2373,8.59359 11.48755,14.72488 21.21909,14.72488 12.53724,0 22.70044,-10.1632 22.70044,-22.70044 0,-12.53721 -10.1632,-22.70041 -22.70044,-22.70041 -9.75118,0 -18.05047,6.1509 -21.26816,14.78371 -0.26487,0 -3.74743,0 -4.14963,0 l 24.25041,-112.93312 -267.666855,0 z M 364.90925,229.77772 c 5.49362,0 9.9474,4.45378 9.9474,9.9474 0,5.49362 -4.45378,9.94737 -9.9474,9.94737 -5.49362,0 -9.94737,-4.45375 -9.94737,-9.94737 0,-5.49362 4.45375,-9.9474 9.94737,-9.9474 z m -184.13438,21.37609 c -25.49626,0 -46.15621,20.70899 -46.15621,46.20528 0,25.49626 20.65995,46.20525 46.15621,46.20525 25.49629,0 46.20528,-20.70899 46.20528,-46.20525 0,-25.49629 -20.70899,-46.20528 -46.20528,-46.20528 z m 102.09306,0 c -25.49629,0 -46.15621,20.70899 -46.15621,46.20528 0,25.49626 20.65992,46.20525 46.15621,46.20525 25.49629,0 46.20528,-20.70899 46.20528,-46.20525 0,-25.49629 -20.70899,-46.20528 -46.20528,-46.20528 z m -102.09306,13.07677 c 7.27906,0 13.98913,2.34461 19.46311,6.32748 l -19.46311,19.46311 -19.46311,-19.46311 c 5.47401,-3.98287 12.18408,-6.32748 19.46311,-6.32748 z m 102.09306,0 c 7.27906,0 13.9891,2.34461 19.46311,6.32748 l -19.46311,19.46311 -19.46311,-19.46311 c 5.47401,-3.98287 12.18405,-6.32748 19.46311,-6.32748 z m -128.88427,13.66537 19.46311,19.46314 -19.46311,19.46311 c -3.98287,-5.46419 -6.32745,-12.18408 -6.32745,-19.46311 0,-7.27906 2.34458,-13.98913 6.32745,-19.46314 z m 53.59224,0 c 3.98287,5.46419 6.32748,12.18408 6.32748,19.46314 0,7.27903 -2.34461,13.9891 -6.32748,19.46311 l -19.46311,-19.46311 19.46311,-19.46314 z m 48.491,0 19.46311,19.46314 -19.46311,19.46311 c -3.98287,-5.46419 -6.32745,-12.18408 -6.32745,-19.46311 0,-7.27906 2.34458,-13.98913 6.32745,-19.46314 z m 53.59224,0 c 3.98287,5.46419 6.32748,12.18408 6.32748,19.46314 0,7.27903 -2.34461,13.9891 -6.32748,19.46311 l -19.46311,-19.46311 19.46311,-19.46314 z m -128.88427,26.80103 19.46311,19.46311 c -5.47398,3.98287 -12.18405,6.32748 -19.46311,6.32748 -7.27903,0 -13.9891,-2.34461 -19.46311,-6.32748 l 19.46311,-19.46311 z m 102.09306,0 19.46311,19.46311 c -5.47401,3.98287 -12.18405,6.32748 -19.46311,6.32748 -7.27906,0 -13.9891,-2.34461 -19.46311,-6.32748 l 19.46311,-19.46311 z" /></svg>