<?xml version="1.0" encoding="UTF-8" standalone="no"?>
<svg
   xmlns:dc="http://purl.org/dc/elements/1.1/"
   xmlns:cc="http://creativecommons.org/ns#"
   xmlns:rdf="http://www.w3.org/1999/02/22-rdf-syntax-ns#"
   xmlns:svg="http://www.w3.org/2000/svg"
   xmlns="http://www.w3.org/2000/svg"
   id="svg2"
   version="1.1"
   x="0"
   y="0"
   width="420"
   height="500"
   viewBox="30.5 31.5 420 500"
   enable-background="new 30.5 31.5 412 533"
   xml:space="preserve"><metadata
     id="metadata4"><rdf:RDF><cc:Work
         rdf:about=""><dc:format>
          
          
          
          
          image/svg+xml
        
        
        
        
        </dc:format><dc:type
           rdf:resource="http://purl.org/dc/dcmitype/StillImage" /><dc:title></dc:title></cc:Work></rdf:RDF></metadata><defs
     id="defs6" /><path
     id="path4218"
     d="m 41,32.7 c -2.09,102.46 3.38,187.49 43.93,296.59 28.05,75.48 74.21,144.77 155.57,201.59 C 321.86,474.06 368.02,404.77 396.07,329.29 436.62,220.19 442.09,135.16 440,32.7 c -133,0.29 -266,0 -399,0 z"
     style="fill:#e00e00;fill-opacity:1;fill-rule:evenodd" /><path
     d="m 227.78854,313.53814 c -2.70919,0 -3.86465,-2.79172 -5.5347,-8.48612 0,16.02346 0,18.4985 4.88056,18.4985 l 11.36514,0 0,10.04118 c 0,7.88152 -2.28631,8.83694 -7.61183,12.06156 -3.90474,2.36433 -19.59301,8.51997 -31.25741,0.32539 -2.43942,-1.71376 -3.97089,-3.69644 -6.16391,-8.25071 -1.27749,-2.65299 -4.65605,-1.01275 -3.86086,1.20143 2.409,6.70775 7.5507,11.23799 13.89201,13.55615 0.62167,7.08748 2.58912,15.11432 9.98961,21.93486 -14.87675,2.56314 -27.28009,10.44953 -33.53212,30.174 l -42.15989,-41.3412 c 4.7964,-12.45466 12.30611,-17.08917 21.64971,-20.84038 l -3.90069,-10.98164 c -15.94378,0.8084 -23.42537,7.85384 -30.33867,16.70864 -2.80763,-5.81527 -8.47246,-17.26525 -8.47246,-17.26525 5.34782,-6.8388 14.56124,-15.36097 28.75487,-14.85329 l 0,-4.65373 c -16.7544,-0.18539 -25.65829,9.32705 -31.09104,15.10594 l -7.45319,-11.62445 c 9.62996,-13.28253 20.42869,-17.86712 31.07345,-17.67825 l 0,-4.49896 c -10.09459,-0.0861 -21.73008,2.74955 -33.57343,17.69966 -1.41224,-2.88599 -2.14682,-4.39846 -6.03386,-12.92382 3.63689,-4.45677 12.8477,-19.41799 32.02099,-19.01241 l 0,-4.59182 c -16.00813,0.0691 -24.88768,7.33353 -34.33106,18.57174 -1.17379,-2.61212 -2.80463,-6.66845 -5.24442,-12.13706 5.29688,-6.65757 14.77962,-19.21669 32.14321,-18.81196 l 0,-4.58385 c -19.47158,0.0425 -28.4741,11.56563 -34.36769,18.8862 -1.51412,-3.40095 -5.46652,-12.32854 -7.16045,-16.16911 6.4766,-10.4246 16.2714,-19.1854 36.378,-19.4298 l 4.33782,-20.69852 8.82737,-3.21216 -1.3181,-3.52604 -8.44641,3.11691 c -0.99447,-1.28089 -4.90988,-6.03027 -4.90988,-6.03027 l 8.8569,-3.28287 -1.26177,-3.50889 -9.49777,3.51558 -3.9476,-6.23647 9.37885,-2.51435 -0.98321,-3.61173 -10.23168,2.66069 c -0.59903,-1.1792 -2.9747,-6.09285 -2.9747,-6.09285 l 9.82534,-2.08539 -0.80237,-3.68382 -10.40791,2.19114 -2.21187,-5.8015 9.93318,-2.17056 -0.79941,-3.63168 -10.1387,2.14992 -1.35268,-6.1333 9.50035,-1.21011 -0.4554,-3.70652 -9.40675,1.09475 -0.55357,-5.87903 8.99799,-0.58877 -0.26151,-3.66127 -8.63318,0.48501 0.10494,-5.76527 8.72213,-0.0808 -0.0121,-3.73918 -8.27695,0.0271 c 0,0 0.61783,-5.57468 0.62043,-5.59544 l 7.63974,-0.035 0.0272,-3.69368 -7.30289,-0.10048 0.92141,-5.55479 6.37919,0.01 -0.0419,-3.78347 -5.66821,-0.0628 1.16092,-5.64818 4.52447,0.0765 0.009,-3.76792 -5.72265,-0.0698 -27.3503,-26.720498 4.3428,-4.9256 24.28021,20.820998 -21.68581,-33.736598 6.862,-4.888 21.5542,34.244198 -4.88799,-29.609998 6.68339,-1.2408 6.7962,33.548598 c 12.361,11.9568 25.1732,27.9556 32.2138,32.2608 5.0196,3.0832 20.3416,12.2294 26.931,12.7088 14.4572,1.0622 19.3734,-12.5584 62.7638,-12.5584 43.3904,0 48.3066,13.6206 62.7638,12.5584 6.5894,-0.4794 21.9114,-9.6256 26.931,-12.7088 7.0406,-4.3052 19.8528,-20.304 32.2138,-32.2608 l 6.7962,-33.548598 6.68339,1.2408 -4.88799,29.609998 21.5542,-34.244198 6.862,4.888 -21.68581,33.736598 24.28021,-20.820998 4.3428,4.9256 -27.3503,26.720498 -5.72265,0.0698 0.009,3.76792 4.52447,-0.0765 1.16092,5.64818 -5.66821,0.0628 -0.0419,3.78347 6.37919,-0.01 0.92141,5.55479 -7.30289,0.10048 0.0272,3.69368 7.63974,0.035 c 0.003,0.0208 0.62043,5.59544 0.62043,5.59544 l -8.27695,-0.0271 -0.0121,3.73918 8.72213,0.0808 0.10493,5.76527 -8.63317,-0.48501 -0.26151,3.66127 8.99799,0.58877 -0.55357,5.87903 -9.40675,-1.09475 -0.4554,3.70652 9.50034,1.21011 -1.35267,6.1333 -10.1387,-2.14992 -0.79941,3.63168 9.93318,2.17056 -2.21187,5.8015 -10.40791,-2.19114 -0.80237,3.68382 9.82534,2.08539 c 0,0 -2.37567,4.91365 -2.9747,6.09285 l -10.23168,-2.66069 -0.98321,3.61173 9.37885,2.51435 -3.9476,6.23647 -9.49777,-3.51558 -1.26177,3.50889 8.8569,3.28287 c 0,0 -3.91541,4.74938 -4.90988,6.03027 l -8.44641,-3.11691 -1.3181,3.52604 8.82737,3.21216 4.33782,20.69852 c 20.1066,0.2444 29.9014,9.0052 36.378,19.4298 -1.69393,3.84057 -5.64633,12.76816 -7.16045,16.16911 -5.89359,-7.32057 -14.89611,-18.8437 -34.36769,-18.8862 l 0,4.58385 c 17.36359,-0.40473 26.84633,12.15439 32.14321,18.81196 -2.43979,5.46861 -4.07063,9.52494 -5.24442,12.13706 -9.44338,-11.23821 -18.32293,-18.50264 -34.33106,-18.57174 l 0,4.59182 c 19.17329,-0.40558 28.3841,14.55564 32.02099,19.01241 -3.88704,8.52536 -4.62162,10.03783 -6.03386,12.92382 -11.84335,-14.95011 -23.47884,-17.78576 -33.57343,-17.69966 l 0,4.49896 c 10.64476,-0.18887 21.44349,4.39572 31.07345,17.67825 l -7.45319,11.62445 c -5.43275,-5.77889 -14.33664,-15.29133 -31.09104,-15.10594 l 0,4.65373 c 14.19363,-0.50768 23.40705,8.01449 28.75487,14.85329 0,0 -5.66483,11.44998 -8.47246,17.26525 -6.9133,-8.8548 -14.39489,-15.90024 -30.33867,-16.70864 l -3.90069,10.98164 c 9.3436,3.75121 16.85331,8.38572 21.64971,20.84038 l -42.15989,41.3412 c -6.25203,-19.72447 -18.65537,-27.61086 -33.53212,-30.174 7.40049,-6.82054 9.36794,-14.84738 9.98961,-21.93486 6.34131,-2.31816 11.48301,-6.8484 13.89201,-13.55615 0.79519,-2.21418 -2.58337,-3.85442 -3.86086,-1.20143 -2.19302,4.55427 -3.72449,6.53695 -6.16391,8.25071 -11.6644,8.19458 -27.35267,2.03894 -31.25741,-0.32539 C 244.78631,342.42864 242.5,341.47322 242.5,333.5917 l 0,-10.04118 11.36514,0 c 4.88056,0 4.88056,-2.47504 4.88056,-18.4985 -1.67005,5.6944 -2.82551,8.48612 -5.5347,8.48612 l -12.71123,0 z"
     id="path4525"
     style="fill:#ffe000;fill-opacity:1;stroke:#000000;stroke-linejoin:round;stroke-opacity:1" /><path
     style="fill:#e00e00;fill-rule:evenodd;stroke:#000000;stroke-width:1px;stroke-linecap:butt;stroke-linejoin:round;stroke-opacity:1;fill-opacity:1"
     d="m 169.76462,250.67797 -15.18581,9.44602 c -2.64294,1.64399 -4.77556,-1.76676 -2.45799,-3.19159 l 22.85188,-14.04923 9.24495,0.0599 c 0,0 24.18299,7.48529 35.26843,11.33857 1.80807,0.62848 2.76776,1.0154 2.76776,3.12024 l 0,8.72629 c -4.10907,5.30397 -13.63546,9.60195 -25.0083,8.65485 -11.27956,-0.93934 -24.15417,-8.31189 -27.48092,-24.10508 z"
     id="path4517" /><path
     id="path4519"
     d="m 188.57405,268.55728 c -7.537,-3.22873 -13.74438,-9.98838 -15.17984,-19.94925 0,0 0.8591,-0.63535 2.53901,-1.7191 l 7.15334,-0.0459 c 11.57589,3.85556 25.18702,7.08639 35.3006,11.36913 l -0.0272,6.78481 c -8.76622,6.63312 -20.00706,7.69407 -29.78588,3.56034 z"
     style="fill:#ffe000;fill-rule:evenodd;stroke:#000000;stroke-width:1;stroke-linecap:butt;stroke-linejoin:round;stroke-miterlimit:4;stroke-dasharray:none;stroke-opacity:1;fill-opacity:1" /><path
     id="path4485"
     d="m 311.23492,250.67797 15.18581,9.44602 c 2.64294,1.64399 4.77556,-1.76676 2.45799,-3.19159 l -22.85188,-14.04923 -9.24495,0.0599 c 0,0 -24.18299,7.48529 -35.26843,11.33857 -1.80807,0.62848 -2.76776,1.0154 -2.76776,3.12024 l 0,8.72629 c 4.10907,5.30397 13.63546,9.60195 25.0083,8.65485 11.27956,-0.93934 24.15417,-8.31189 27.48092,-24.10508 z"
     style="fill:#e00e00;fill-rule:evenodd;stroke:#000000;stroke-width:1px;stroke-linecap:butt;stroke-linejoin:round;stroke-opacity:1;fill-opacity:1" /><path
     style="fill:#ffe000;fill-rule:evenodd;stroke:#000000;stroke-width:1;stroke-linecap:butt;stroke-linejoin:round;stroke-miterlimit:4;stroke-dasharray:none;stroke-opacity:1;fill-opacity:1"
     d="m 292.42549,268.55728 c 7.537,-3.22873 13.74438,-9.98838 15.17984,-19.94925 0,0 -0.8591,-0.63535 -2.53901,-1.7191 l -7.15334,-0.0459 c -11.57589,3.85556 -25.18702,7.08639 -35.3006,11.36913 l 0.0272,6.78481 c 8.76622,6.63312 20.00706,7.69407 29.78588,3.56034 z"
     id="path4487" /><path
     d="m 41,32.7 c -2.09,102.46 3.38,187.49 43.93,296.59 28.05,75.48 74.21,144.77 155.57,201.59 C 321.86,474.06 368.02,404.77 396.07,329.29 436.62,220.19 442.09,135.16 440,32.7 c -133,0.29 -266,0 -399,0 z"
     id="path4224"
     style="fill:none;stroke:#000000" /><path
     style="fill:#e00e00;fill-opacity:1;stroke:#000000;stroke-opacity:1"
     id="path4064"
     d="m 328.8224,184.23018 -5.264,-4.089 27.4762,-28.5008 18.27359,-38.2956 2.3406,1.1656 -17.38999,42.2342 z" /><path
     id="path4489"
     d="m 291.90866,248.97653 c 4.04881,16.96057 -19.79363,23.47788 -25.79488,8.25209"
     style="fill:#e00e00;fill-opacity:1;fill-rule:evenodd;stroke:#000000;stroke-width:1px;stroke-linecap:butt;stroke-linejoin:miter;stroke-opacity:1" /><path
     style="fill:#ffe000;fill-opacity:1;fill-rule:evenodd;stroke:#000000;stroke-width:1;stroke-linecap:butt;stroke-linejoin:miter;stroke-miterlimit:4;stroke-dasharray:none;stroke-opacity:1"
     d="m 288.24335,250.06449 c 2.50192,12.16856 -14.63767,16.50039 -18.55228,5.93351"
     id="path4491" /><path
     id="path4503"
     d="m 264.95417,371.41624 c 4.84983,-4.70125 7.6897,-10.38267 8.55024,-17.83765 -14.56332,2.09203 -27.39169,-3.7937 -33.00464,-10.48358 -5.61295,6.68988 -18.44132,12.57561 -33.00464,10.48358 0.86054,7.45498 3.70041,13.1364 8.55024,17.83765 6.20847,6.01826 17.10296,8.39074 24.4544,8.39074 7.35144,0 18.24593,-2.37248 24.4544,-8.39074 z"
     style="fill:#ffe000;fill-opacity:1;fill-rule:evenodd;stroke:#000000;stroke-width:1px;stroke-linecap:butt;stroke-linejoin:miter;stroke-opacity:1" /><path
     d="m 152.17714,184.23018 5.264,-4.089 -27.4762,-28.5008 -18.27359,-38.2956 -2.3406,1.1656 17.38999,42.2342 z"
     id="path4513"
     style="fill:#e00e00;fill-opacity:1;stroke:#000000;stroke-opacity:1" /><path
     style="fill:#e00e00;fill-opacity:1;fill-rule:evenodd;stroke:#000000;stroke-width:1px;stroke-linecap:butt;stroke-linejoin:miter;stroke-opacity:1"
     d="m 189.09088,248.97653 c -4.04881,16.96057 19.81288,23.43937 25.81413,8.21358"
     id="path4515" /><path
     id="path4521"
     d="m 192.75619,250.06449 c -2.50192,12.16856 14.71468,16.5389 18.62929,5.97202"
     style="fill:#ffe000;fill-opacity:1;fill-rule:evenodd;stroke:#000000;stroke-width:1;stroke-linecap:butt;stroke-linejoin:miter;stroke-miterlimit:4;stroke-dasharray:none;stroke-opacity:1" /><path
     id="path4529"
     d="m 189.68014,248.625 c 0.89751,0.193 1.77396,0.84437 2.66124,1.09092"
     style="fill:none;fill-rule:evenodd;stroke:#e00e00;stroke-width:1.10849559px;stroke-linecap:butt;stroke-linejoin:miter;stroke-opacity:1" /><path
     style="fill:none;fill-rule:evenodd;stroke:#e00e00;stroke-width:1px;stroke-linecap:butt;stroke-linejoin:miter;stroke-opacity:1"
     d="m 291.33103,248.67808 c -0.903,0.20284 -1.82354,0.66742 -2.69687,0.89801"
     id="path4531" /><path
     id="path4533"
     d="m 269.12269,255.73267 c -0.9042,0.23077 -1.78747,0.66304 -2.66196,0.97352"
     style="fill:none;fill-rule:evenodd;stroke:#e00e00;stroke-width:1.0673393px;stroke-linecap:butt;stroke-linejoin:miter;stroke-opacity:1" /><path
     style="fill:none;fill-rule:evenodd;stroke:#e00e00;stroke-width:1.05313921px;stroke-linecap:butt;stroke-linejoin:miter;stroke-opacity:1"
     d="m 211.98078,255.72023 c 0.87136,0.23312 1.73183,0.65038 2.57458,0.96405"
     id="path4535" /></svg>