<?xml version="1.0" encoding="UTF-8" standalone="no"?>
<svg
   xmlns:dc="http://purl.org/dc/elements/1.1/"
   xmlns:cc="http://web.resource.org/cc/"
   xmlns:rdf="http://www.w3.org/1999/02/22-rdf-syntax-ns#"
   xmlns:svg="http://www.w3.org/2000/svg"
   xmlns="http://www.w3.org/2000/svg"
   xmlns:xlink="http://www.w3.org/1999/xlink"
   xmlns:sodipodi="http://inkscape.sourceforge.net/DTD/sodipodi-0.dtd"
   xmlns:inkscape="http://www.inkscape.org/namespaces/inkscape"
   version="1.1"
   width="800"
   height="480"
   id="Flag_of_England"
   sodipodi:version="0.32"
   inkscape:version="0.43"
   sodipodi:docname="Flag_of_Herm.svg"
   sodipodi:docbase="C:\Documents and Settings\David Nelson\Archives\Svg">
  <metadata
     id="metadata3183">
    <rdf:RDF>
      <cc:Work
         rdf:about="">
        <dc:format>image/svg+xml</dc:format>
        <dc:type
           rdf:resource="http://purl.org/dc/dcmitype/StillImage" />
      </cc:Work>
    </rdf:RDF>
  </metadata>
  <defs
     id="defs3181" />
  <sodipodi:namedview
     inkscape:window-height="540"
     inkscape:window-width="756"
     inkscape:pageshadow="2"
     inkscape:pageopacity="0.0"
     borderopacity="1.0"
     bordercolor="#666666"
     pagecolor="#ffffff"
     id="base"
     showguides="true"
     inkscape:guide-bbox="true"
     inkscape:zoom="0.77708333"
     inkscape:cx="400"
     inkscape:cy="240"
     inkscape:window-x="229"
     inkscape:window-y="90"
     inkscape:current-layer="Flag_of_England" />
  <path
     style="fill:#ffffff"
     d="M 0,0 L 800,0 L 800,480 L 0,480 L 0,0 z "
     id="rect3172" />
  <path
     id="path4078"
     d="M 0,0 L 400,0 L 400,240 L 0,240 L 0,0 z "
     style="fill:#0000c0;fill-opacity:1" />
  <path
     style="fill:#ce1124"
     d="M 352,0 L 352,192 L 0,192 L 0,288 L 352,288 L 352,480 L 448,480 L 448,288 L 800,288 L 800,192 L 448,192 L 448,0 L 352,0 z "
     id="rect3176" />
  <path
     style="fill:#ffc000;fill-opacity:1"
     d="M 0,0 L 0,42.71875 L 273.6875,192 L 352,192 L 352,149.28125 L 78.3125,0 L 0,0 z "
     id="path4194" />
  <g
     id="g4138"
     transform="matrix(0.765184,0,0,0.765184,35.29641,147.2645)">
    <path
       d="M 177.98371,-25.095439 C 178.49753,-27.610547 178.97048,-31.43065 178.39097,-33.928241 C 178.02896,-35.484309 177.33705,-36.844774 176.37801,-38.094299 C 175.70945,-38.968675 174.46868,-40.841504 173.30966,-40.05909 C 171.7463,-39.006628 172.75789,-31.677344 172.5579,-30.038071 C 172.32143,-28.103935 172.6922,-28.365225 171.16824,-27.191606 C 170.39021,-26.591658 169.05602,-25.905587 168.15537,-25.545035 C 168.03421,-25.498324 171.78863,-24.568478 172.30829,-24.562639 C 174.19864,-24.546582 176.10066,-24.737806 177.96765,-25.019533 C 177.97349,-25.044349 177.97787,-25.067704 177.98371,-25.095439 z "
       id="path1698" />
    <path
       d="M 187.23545,-36.203954 C 187.17706,-38.854817 187.28362,-43.852918 184.54663,-45.298047 C 182.63293,-41.18162 183.29857,-37.198028 183.1088,-32.754622 C 183.00516,-30.376728 184.62108,-25.990251 181.50456,-25.896829 C 180.24044,-28.350628 180.91192,-32.3386 180.06673,-35.037633 C 179.09018,-38.154148 176.50062,-40.800631 175.61603,-43.590168 C 174.53291,-47.003007 175.05987,-51.649315 175.05987,-55.241701 C 175.05987,-56.939362 175.01316,-58.451638 175.53283,-60.033981 C 176.08606,-61.721424 177.97641,-63.804453 177.7954,-65.548826 C 176.31086,-66.147314 174.66429,-65.198492 173.37243,-65.5824 C 171.17992,-66.237817 171.45143,-71.800832 171.68499,-73.597755 C 172.19151,-77.487925 173.55198,-81.227743 174.58546,-84.992376 C 175.83937,-89.565698 177.4728,-95.381246 182.20231,-97.497849 C 182.39354,-95.99871 182.35412,-94.128801 183.00224,-92.709948 C 183.27667,-92.11146 183.51607,-91.146581 184.2722,-90.962656 C 184.59626,-90.88383 186.22094,-91.307151 186.06767,-91.778642 C 184.37147,-96.948992 180.74697,-101.56465 181.17905,-107.28385 C 181.43742,-110.72151 186.19904,-115.46854 190.27752,-114.71094 C 194.92091,-113.84532 193.90494,-106.50582 193.95165,-103.10758 C 193.98814,-100.50196 193.93705,-98.157645 192.58242,-95.855657 C 191.32268,-93.7084 189.76077,-92.199043 190.10381,-89.518987 C 190.32131,-89.440161 190.94461,-89.301487 191.16795,-89.304407 C 192.94152,-90.746616 193.38235,-93.191657 195.06396,-94.684957 C 197.74402,-90.78165 197.44039,-84.577814 197.22289,-80.038066 C 197.07984,-77.073363 194.31804,-74.983035 194.84354,-71.936587 C 195.43473,-68.504771 197.29004,-65.398474 197.56447,-61.771055 C 198.10895,-54.590663 199.1293,-47.366479 199.0242,-40.17003 C 198.9877,-37.692875 198.70744,-35.05515 198.98332,-32.592592 C 199.15119,-31.081776 199.95258,-29.670221 199.44606,-28.077659 C 198.90012,-26.359562 199.33512,-27.522964 197.81116,-26.499696 C 195.77631,-25.131932 194.16477,-23.526234 192.56783,-21.716174 C 191.58251,-20.596564 188.30543,-17.374948 187.89378,-20.590725 C 187.72008,-21.958488 189.8396,-23.805041 190.30963,-24.978661 C 189.03967,-25.047268 188.031,-24.71591 187.33763,-25.870554 C 186.08372,-27.959422 187.28946,-33.767671 187.23545,-36.203954 z "
       id="path1700" />
    <path
       d="M 190.44539,-110.5478 C 191.39129,-110.23688 192.29632,-111.57983 192.07736,-112.43814 C 191.93869,-112.97678 191.14168,-113.69205 190.54757,-113.38843 C 189.82208,-113.01912 190.40305,-111.19154 190.44539,-110.5478 z "
       id="path1702"
       style="fill:#ffffff" />
    <path
       d="M 192.44959,-106.25766 C 192.98531,-106.62698 193.34732,-107.97868 192.51966,-108.21808 C 191.77228,-108.4312 190.86433,-106.81236 191.16211,-106.1584 C 191.36647,-105.71173 192.19122,-106.07958 192.44959,-106.25766 z "
       id="path1704"
       style="fill:#ffffff" />
    <path
       d="M 187.35223,-107.71301 C 187.161,-108.28084 186.85884,-109.99456 186.07351,-109.94785 C 185.73631,-109.92888 185.15388,-109.17858 184.84734,-108.99319 C 184.47219,-108.76839 184.05471,-108.54943 183.60365,-108.56987 C 183.30295,-108.58301 182.64315,-108.8224 182.3731,-108.73628 C 181.83446,-108.56549 181.97898,-108.22538 181.73374,-107.7568 C 182.69278,-107.35246 183.94669,-107.80789 184.96557,-107.73491 C 186.33042,-107.63857 186.48223,-106.56129 186.52748,-105.24899 C 185.5845,-105.1074 184.95536,-106.31021 184.13499,-106.53501 C 183.20077,-106.79192 182.91466,-105.73362 182.20231,-105.30884 C 182.73219,-103.78927 183.10004,-101.89746 184.11455,-100.59831 C 184.79917,-99.719552 185.89396,-100.0801 186.71141,-100.66253 C 186.61215,-100.26987 186.46325,-99.948729 186.46909,-99.499133 C 186.48077,-98.470026 187.1683,-97.28035 186.82381,-96.26438 C 187.3712,-96.084834 187.9405,-96.084834 188.47768,-95.820624 C 188.03976,-97.049713 188.76378,-98.849555 188.76232,-100.16331 C 188.76086,-101.19096 188.73167,-102.17773 188.5565,-103.16742 C 188.29083,-104.68116 187.84561,-106.24599 187.35223,-107.71301 z "
       id="path1706"
       style="fill:#ffffff" />
    <path
       d="M 181.42428,-78.287855 C 181.54398,-78.994362 181.59361,-79.762178 181.91621,-80.401538 C 182.23151,-81.02922 182.67672,-81.570778 182.93364,-82.25539 C 182.35267,-82.972115 181.67535,-82.795489 181.00534,-82.180944 C 179.69304,-80.97667 178.78655,-78.769564 178.36907,-77.102557 C 177.86255,-75.080837 177.36916,-73.111666 177.4874,-70.989225 C 177.55017,-69.865236 177.29617,-68.323765 178.11216,-67.539892 C 178.2012,-67.455228 178.34134,-67.640613 178.46104,-67.528214 C 178.63912,-67.358886 178.67999,-67.033367 178.78364,-66.827546 C 179.04055,-66.316642 179.46825,-65.25834 180.15578,-65.15178 C 181.71039,-64.909466 181.09292,-67.734036 181.05789,-68.460979 C 180.89586,-71.732225 180.87396,-75.054562 181.42428,-78.287855 z "
       id="path1708"
       style="fill:#ffffff" />
    <path
       d="M 180.06235,-83.379379 C 178.87706,-81.731348 177.96619,-80.042445 177.09473,-78.191513 C 176.23641,-76.368315 175.50509,-74.619563 175.12994,-72.635796 C 174.86281,-71.222781 174.78399,-69.913407 174.67159,-68.496013 C 173.67751,-69.441915 174.23221,-72.224153 174.38402,-73.381716 C 174.66867,-75.549409 175.31971,-78.017805 176.37217,-79.947563 C 177.06262,-81.211686 177.57936,-82.559013 178.38659,-83.761827 C 178.67708,-84.195366 179.1909,-85.069742 179.76895,-85.174842 C 180.92213,-85.383583 180.4667,-83.941373 180.06235,-83.379379 z "
       id="path1710"
       style="fill:#ffffff" />
    <path
       d="M 183.48395,-85.605461 C 184.37585,-85.193818 185.20205,-84.679995 185.8706,-83.96181 C 187.77993,-81.913814 186.36107,-78.016346 185.3524,-75.870548 C 185.10863,-75.353805 184.87799,-74.923186 185.51881,-74.647298 C 186.85154,-74.073626 188.05144,-76.909873 188.37841,-77.78133 C 189.2236,-80.032227 190.15344,-82.560473 188.50833,-84.602629 C 190.97235,-83.792481 192.3985,-81.327004 192.8189,-78.931594 C 192.86561,-78.661545 192.79409,-77.847017 193.09041,-77.705424 C 193.65824,-77.432455 193.92537,-78.753507 194.0188,-79.119899 C 194.99389,-82.989632 193.04516,-86.913376 188.94187,-87.760017 C 187.88211,-87.977516 186.68513,-88.06218 185.61953,-88.174579 C 184.5189,-88.292817 183.84305,-88.783285 182.83437,-89.102965 C 181.82716,-89.422645 179.82588,-88.955532 180.18789,-87.533759 C 180.58494,-85.976232 182.3585,-86.122204 183.48395,-85.605461 z "
       id="path1712"
       style="fill:#ffffff" />
    <path
       d="M 185.06338,-65.490437 C 185.09403,-66.100602 185.59618,-68.56462 184.30286,-68.093128 C 183.69999,-67.874169 183.11318,-66.388168 183.11464,-65.79552 C 183.11902,-64.150408 183.07815,-62.505297 183.03582,-60.8923 C 183.62847,-60.849968 184.26491,-60.849968 184.85755,-60.8923 C 185.05024,-61.441157 184.98017,-62.067379 184.9466,-62.633753 C 184.88529,-63.616149 185.01521,-64.510961 185.06338,-65.490437 z "
       id="path1714"
       style="fill:#ffffff" />
    <path
       d="M 180.782,-57.858989 C 181.38341,-57.683822 182.58476,-57.545148 182.8154,-57.901321 C 182.91612,-58.054593 182.8986,-59.50848 182.65921,-59.474906 C 183.17741,-59.546433 183.87224,-59.419436 184.39774,-59.382943 C 184.48387,-58.818029 184.2941,-58.22684 184.33205,-57.648789 C 184.93784,-57.680903 185.54217,-57.806439 186.15817,-57.622514 C 186.21656,-57.067818 186.12898,-56.495605 185.96695,-55.970104 C 185.39619,-56.173006 184.66925,-56.174466 184.05471,-56.137972 C 183.94085,-56.130674 183.93939,-52.95431 183.93793,-52.660905 C 183.93793,-52.278457 184.12185,-51.328175 183.86494,-51.042069 C 183.63284,-50.780778 182.73073,-50.923831 182.39208,-50.789536 C 182.30011,-51.735439 182.3877,-52.703237 182.42857,-53.650599 C 182.44755,-54.108953 182.80664,-55.197909 182.65483,-55.605172 C 182.40376,-56.279566 181.81695,-55.862084 181.20678,-56.066446 C 180.69734,-56.240153 180.70171,-56.180304 180.62143,-56.816745 C 180.57472,-57.174378 180.59661,-57.548068 180.62435,-57.90862 C 180.67106,-57.892563 180.72361,-57.875046 180.782,-57.858989 z "
       id="path1716"
       style="fill:#ffffff" />
    <path
       d="M 189.13455,-68.304789 C 189.09222,-69.015675 189.36811,-71.178989 187.89816,-70.647649 C 187.35953,-70.453505 187.50988,-69.865236 187.44565,-69.260909 C 187.288,-67.76323 187.05882,-66.27139 187.00189,-64.766413 C 186.98292,-64.281784 186.64864,-62.880447 186.90701,-62.445448 C 187.10553,-62.111171 187.41937,-62.248385 187.67483,-62.00899 C 188.37841,-61.352114 188.23098,-59.441332 188.60175,-58.466235 C 189.16959,-56.975855 189.69071,-55.469418 190.37824,-54.028668 C 190.80156,-54.224272 190.79718,-55.51029 191.32122,-55.942369 C 189.86733,-58.356756 189.68341,-61.460133 189.38562,-64.19712 C 189.23819,-65.557584 189.2163,-66.938485 189.13455,-68.304789 z "
       id="path1718"
       style="fill:#ffffff" />
    <path
       d="M 173.28923,-26.26176 C 174.13149,-25.73334 175.79558,-25.708524 176.60572,-26.327448 C 178.07859,-27.458736 175.69485,-28.702422 174.61028,-28.541852 C 174.24535,-27.556537 172.01051,-27.06315 173.28923,-26.26176 z "
       id="path1720"
       style="fill:#ffffff" />
    <path
       d="M 192.98969,-23.190497 C 192.98093,-23.170061 191.78395,-23.689723 191.62484,-23.689723 C 191.20736,-23.689723 190.99862,-23.517475 190.69938,-23.22699 C 190.05418,-22.600768 189.99287,-22.00374 190.89206,-21.590637 C 191.82629,-21.162937 192.67731,-22.475231 192.98969,-23.190497 z "
       id="path1722"
       style="fill:#ffffff" />
  </g>
  <use
     x="0"
     y="0"
     xlink:href="#g4138"
     id="use4244"
     width="800"
     height="480"
     transform="translate(-99,-54)" />
  <use
     x="0"
     y="0"
     xlink:href="#g4138"
     id="use4246"
     transform="translate(99,54)"
     width="800"
     height="480" />
  <g
     id="g4080"
     transform="matrix(0.558151,0.558151,-0.558151,0.558151,-185.8241,46.00753)">
    <path
       d="M 331.18049,-138.79934 C 333.92185,-135.94995 337.49526,-134.3136 341.07159,-132.78235 C 338.4835,-131.17519 333.75399,-129.82932 332.44315,-126.80039 C 330.45063,-122.19349 336.7946,-118.72081 339.39437,-116.22613 C 340.7198,-114.95471 341.5533,-113.49645 342.21456,-111.809 C 344.60705,-105.70005 343.46408,-100.6567 337.74196,-97.057012 C 336.64132,-96.365101 336.11582,-96.019146 335.60638,-97.046794 C 334.89987,-98.475865 335.96547,-100.98951 335.61514,-102.56164 C 335.3626,-103.69147 334.65464,-104.86217 333.78026,-105.64896 C 332.08844,-107.17437 330.64039,-107.32035 330.13241,-109.65007 C 329.55727,-112.28633 328.86244,-115.02186 326.12546,-116.23197 C 323.66436,-117.31947 321.81781,-116.23489 321.05291,-113.7665 C 320.33472,-111.44261 321.27187,-108.84576 320.46464,-106.51604 C 319.42532,-103.52214 316.45623,-102.16021 315.30743,-99.253899 C 314.73376,-97.804391 314.42283,-94.140479 316.06795,-93.271942 C 311.03773,-92.626743 307.31543,-98.617459 307.30813,-103.05795 C 307.30083,-107.40647 309.57217,-111.3959 312.05224,-114.81896 C 313.18061,-116.37357 314.09878,-117.21729 314.1776,-119.11931 C 314.26518,-121.1965 314.65201,-123.32186 314.58049,-125.40051 C 314.4856,-128.16377 313.1266,-128.79875 311.20268,-130.46138 C 309.98673,-131.51092 308.79851,-132.63783 307.50665,-133.56622 C 305.57981,-134.95004 302.49103,-135.52809 300.16423,-135.94411 C 299.17162,-136.1222 297.85932,-136.25503 296.88277,-136.25795 C 295.37195,-136.26379 293.46993,-136.27401 292.0175,-136.14409 C 291.15188,-136.06673 289.47028,-134.46395 288.75209,-134.69605 C 291.43507,-133.82897 291.70074,-130.37088 291.44091,-128.08057 C 291.25406,-126.43546 291.19859,-124.39622 293.44365,-125.15674 C 294.89024,-125.64721 295.65076,-127.21787 297.29879,-127.13759 C 299.12637,-127.05 300.18029,-125.22826 300.22116,-123.53206 C 300.25473,-122.16284 299.44459,-120.39073 298.34687,-119.54555 C 296.96597,-118.47995 295.39093,-119.25798 293.87573,-119.33389 C 292.75758,-119.3879 290.59573,-118.03327 291.10809,-116.65967 C 291.49638,-115.61889 293.68743,-115.43642 294.61289,-115.24812 C 296.46966,-114.86859 299.66646,-115.19995 299.29277,-112.39581 C 298.97601,-110.01792 295.67703,-109.73765 293.82902,-109.96683 C 290.63806,-110.36387 289.13308,-112.15496 287.99741,-115.11382 C 287.26317,-117.03044 287.85582,-118.88867 287.1172,-120.77902 C 286.31873,-122.82409 285.23707,-125.46912 283.44891,-126.81499 C 281.86365,-128.00612 280.75279,-126.82958 281.11919,-125.09835 C 281.31917,-124.15537 281.97605,-123.63132 282.50009,-122.88832 C 283.35695,-121.67091 283.95689,-120.31629 284.56268,-118.96458 C 286.16692,-115.37657 286.50412,-111.15359 285.86621,-107.30283 C 285.47355,-104.93077 284.10287,-99.596935 280.90461,-99.656784 C 279.56166,-99.683059 279.15294,-101.33839 279.21716,-102.54412 C 279.29745,-104.03158 280.61704,-104.71181 281.0462,-106.03871 C 281.63593,-107.86336 281.44616,-109.69678 281.59652,-111.56669 C 281.71183,-112.99284 282.69277,-115.39263 281.72497,-116.70638 C 280.91628,-117.8041 279.94411,-117.32385 279.18943,-116.32248 C 277.56767,-114.17376 278.01873,-110.75216 277.53264,-108.24581 C 277.1823,-106.43575 276.96918,-104.55854 276.53419,-102.77476 C 275.97949,-100.49321 274.61757,-97.770818 272.51848,-96.525671 C 270.07052,-95.071784 266.59783,-95.143311 265.85629,-98.34449 C 265.55997,-99.62175 265.95993,-100.7399 266.84453,-101.67267 C 267.44447,-102.30765 268.68232,-102.52952 268.42687,-103.61556 C 265.80082,-102.89738 263.96449,-105.7599 265.20233,-108.20494 C 265.86797,-109.52015 268.22835,-109.72743 267.87947,-111.63821 C 264.93812,-112.83665 265.20379,-114.72845 266.23728,-117.25962 C 266.98904,-119.0945 266.9978,-118.87846 265.28262,-119.41418 C 263.91777,-119.84042 262.45659,-120.62137 261.47565,-121.66653 C 260.28014,-122.94087 259.16199,-124.28236 258.45986,-125.90266 C 257.61906,-127.84263 257.4074,-129.93588 257.59424,-132.02767 C 257.66869,-132.85679 258.99704,-136.93527 258.52409,-137.42427 C 258.1285,-137.833 255.76375,-137.03307 255.00469,-137.27246 C 254.38576,-137.46661 251.41814,-140.20505 251.17437,-140.09411 C 252.90998,-140.88674 254.5332,-142.13189 256.4469,-142.46763 C 258.23652,-142.78001 260.06118,-141.86184 261.82015,-142.3129 C 266.2402,-143.43835 264.81405,-148.924 265.12497,-152.22444 C 265.51326,-156.36568 265.5045,-160.6456 266.26501,-164.73137 C 266.50149,-165.99841 267.74956,-170.97754 269.74062,-168.96895 C 270.36392,-168.34127 270.24569,-166.31955 270.2778,-165.45685 C 270.34787,-163.58548 270.2997,-161.42655 270.95365,-159.6486 C 272.11706,-156.48976 275.02775,-156.94081 277.26113,-158.73627 C 279.43028,-160.48065 280.67397,-163.47308 281.10605,-166.17796 C 281.49288,-168.59526 281.706,-171.81834 283.78027,-173.53352 C 284.77142,-174.35242 285.89249,-174.07653 286.99458,-173.66197 C 286.67344,-171.1965 286.50995,-167.35742 288.26017,-165.26125 C 289.43379,-163.85553 291.98685,-162.82205 293.8261,-163.0483 C 295.74272,-163.28478 297.02144,-165.1182 298.0958,-166.53851 C 300.25911,-169.39665 301.68381,-171.96869 304.91564,-173.90429 C 305.99438,-174.55095 309.39408,-175.40926 309.17074,-172.77738 C 309.11235,-172.09277 307.26142,-170.66078 306.98845,-169.69736 C 304.90688,-162.37099 313.12368,-163.24245 317.57584,-164.22046 C 319.8428,-164.71823 323.20455,-167.1224 325.54741,-166.75601 C 325.81892,-166.71368 323.53736,-162.44106 323.3622,-162.1243 C 322.37834,-160.33175 321.7711,-158.81364 322.08202,-156.76126 C 322.73743,-152.42442 326.3415,-151.9865 330.06526,-151.56902 C 328.66684,-147.15189 327.65233,-142.46763 331.18049,-138.79934 z M 269.04871,-125.52897 C 273.04836,-125.3684 271.38281,-132.71082 267.96705,-130.48912 C 265.76871,-129.05858 266.41683,-125.63845 269.04871,-125.52897 z M 272.87173,-139.60656 C 274.96352,-140.96703 276.74439,-143.65876 278.31505,-145.33599 C 279.62443,-146.73441 280.99657,-147.76497 282.83436,-148.32405 C 283.38614,-148.49192 283.00953,-144.40614 282.98764,-144.15069 C 282.87086,-142.7479 282.6592,-141.28525 284.12768,-140.61232 C 286.49974,-139.52628 288.49518,-141.32904 290.45559,-142.24867 C 292.9707,-143.42959 295.84782,-143.6573 298.57167,-143.95363 C 300.77586,-144.19302 302.84721,-143.5814 304.98133,-143.36536 C 307.09939,-143.15078 308.74012,-142.49682 310.39399,-141.05315 C 314.46079,-137.50164 317.13501,-133.14436 319.96687,-128.63234 C 320.68944,-127.48062 322.96515,-122.86935 324.47889,-122.63725 C 325.47004,-122.48544 327.07282,-124.4911 327.53117,-125.24432 C 329.00842,-127.67476 328.4362,-131.59851 327.95012,-134.24353 C 326.65534,-141.29985 323.40453,-146.41765 318.31592,-151.40407 C 312.23033,-157.36705 305.02074,-159.71867 296.54703,-158.15822 C 291.42047,-157.21524 286.20049,-155.38912 281.95707,-152.31786 C 278.69458,-149.95602 275.76783,-147.20006 272.46447,-144.91413 C 271.12444,-143.98574 269.78733,-143.05444 268.41081,-142.1786 C 267.72328,-141.74068 264.3265,-140.53057 264.63596,-139.45329 C 265.14103,-137.69432 270.06322,-138.58768 271.24998,-138.8767 C 271.80905,-139.01246 272.34915,-139.26937 272.87173,-139.60656 z "
       id="path1558"
       style="fill:#ffffff" />
    <path
       d="M 272.43528,-141.21372 C 274.13878,-141.51881 274.52122,-145.24549 272.23091,-143.56388 C 271.28355,-142.86905 270.54347,-140.87361 272.43528,-141.21372 z "
       id="path1560"
       style="fill:#ffffff" />
    <path
       d="M 276.31815,-145.95345 C 277.93552,-144.98274 280.60828,-149.05683 278.66101,-148.83057 C 278.17784,-148.77364 275.89483,-146.20599 276.31815,-145.95345 z "
       id="path1562"
       style="fill:#ffffff" />
    <path
       d="M 282.73072,-149.47431 C 284.37729,-148.44083 288.10981,-151.97336 285.2108,-152.15145 C 284.11308,-152.2186 280.8287,-150.66691 282.73072,-149.47431 z "
       id="path1564"
       style="fill:#ffffff" />
    <path
       d="M 286.19319,-145.81186 C 286.09977,-146.02206 291.1694,-147.65549 290.35049,-149.64364 C 289.6542,-151.33546 286.79752,-149.52102 286.14356,-148.52403 C 285.58449,-147.67447 285.82242,-146.64098 286.19319,-145.81186 z "
       id="path1566"
       style="fill:#ffffff" />
    <path
       d="M 286.19465,-141.48231 C 287.02232,-141.85892 289.1287,-142.73184 288.97543,-143.95217 C 288.81924,-145.19294 287.19894,-145.12433 286.46762,-144.44264 C 286.06328,-144.06749 285.53924,-141.18453 286.19465,-141.48231 z "
       id="path1568"
       style="fill:#ffffff" />
    <path
       d="M 290.16511,-144.30104 C 291.08328,-143.2296 294.60559,-145.99725 293.7356,-147.06722 C 292.30945,-148.82182 288.51854,-146.22496 290.16511,-144.30104 z "
       id="path1570"
       style="fill:#ffffff" />
    <path
       d="M 299.85477,-152.40982 C 298.05493,-153.36448 294.76033,-153.64329 293.20718,-152.0843 C 292.05837,-150.93112 291.98539,-148.97947 294.03922,-149.10646 C 295.29167,-149.18675 296.58206,-149.59401 297.86078,-149.66846 C 298.58189,-149.70933 299.35408,-149.4203 300.02264,-149.47723 C 301.86189,-149.62904 301.22691,-151.68288 299.85477,-152.40982 z "
       id="path1572"
       style="fill:#ffffff" />
    <path
       d="M 291.24093,-155.06506 C 291.06138,-156.05184 287.88502,-153.89874 287.67919,-153.32215 C 286.85007,-151.00848 291.73577,-152.34997 291.24093,-155.06506 z "
       id="path1574"
       style="fill:#ffffff" />
    <path
       d="M 299.81244,-155.48984 C 300.4153,-159.761 293.37213,-154.81545 294.94279,-154.21258 C 297.11778,-153.38054 297.94107,-155.10594 299.81244,-155.48984 z "
       id="path1576"
       style="fill:#ffffff" />
    <path
       d="M 300.57003,-147.0643 C 298.99207,-148.89918 294.65231,-146.65266 296.54411,-145.45861 C 297.12654,-145.09076 299.09425,-145.35934 299.61683,-145.82208 C 300.35837,-146.48041 300.44596,-147.99707 299.11031,-147.6117"
       id="path1578"
       style="fill:#ffffff" />
    <path
       d="M 304.22373,-145.23381 C 305.5769,-145.97681 303.88069,-146.82929 302.94939,-146.73733 C 302.65306,-146.70813 300.96124,-145.57538 301.50134,-145.40898 C 302.43556,-145.12141 303.26469,-144.70831 304.22373,-145.23381 z "
       id="path1580"
       style="fill:#ffffff" />
    <path
       d="M 306.54761,-149.47723 C 307.41177,-150.45963 308.41898,-151.2362 306.57827,-151.84637 C 305.59003,-152.17335 304.42225,-151.71353 303.64714,-151.10483 C 302.19909,-149.96916 301.8035,-147.89489 304.20913,-147.97809 C 305.65864,-148.02772 305.7579,-148.57804 306.54761,-149.47723 z "
       id="path1582"
       style="fill:#ffffff" />
    <path
       d="M 302.70707,-153.94545 C 303.61064,-153.59658 306.53885,-153.52505 306.79139,-154.92055 C 307.01181,-156.13942 305.30977,-156.51895 304.42809,-156.48684 C 303.16981,-156.44304 300.36713,-154.84756 302.70707,-153.94545 z "
       id="path1584"
       style="fill:#ffffff" />
    <path
       d="M 309.87287,-154.71765 C 309.61888,-154.71181 309.37218,-154.66218 309.13863,-154.56 C 307.78984,-153.96881 308.57517,-152.69593 309.51232,-152.16605 C 310.17795,-151.7909 311.96612,-151.19241 312.75729,-151.21723 C 314.44181,-151.26832 313.42146,-152.75432 312.74415,-153.40244 C 312.06684,-154.04617 310.91949,-154.74392 309.87287,-154.71765 z "
       id="path1586"
       style="fill:#ffffff" />
    <path
       d="M 309.82762,-147.97663 C 311.65519,-146.40743 314.32795,-148.41163 311.37785,-149.21302 C 310.31809,-149.50059 308.29345,-149.29623 309.82762,-147.97663 z "
       id="path1588"
       style="fill:#ffffff" />
    <path
       d="M 308.08033,-144.55504 C 308.61896,-142.60192 311.59972,-143.26026 310.50347,-145.00317 C 309.832,-146.07169 307.58986,-146.33298 308.08033,-144.55504 z "
       id="path1590"
       style="fill:#ffffff" />
    <path
       d="M 312.09895,-145.20169 C 312.00553,-142.29684 317.48388,-141.90271 316.2256,-144.44994 C 315.6709,-145.57246 312.17632,-147.59419 312.09895,-145.20169 z "
       id="path1592"
       style="fill:#ffffff" />
    <path
       d="M 316.63578,-147.43362 C 323.18703,-145.34621 315.3337,-152.23903 314.56443,-148.99844 C 314.27394,-147.77957 315.80228,-147.70075 316.63578,-147.43362 z "
       id="path1594"
       style="fill:#ffffff" />
    <path
       d="M 315.23736,-141.34364 C 312.80546,-142.80628 313.5324,-138.91903 315.24758,-138.96429 C 316.88101,-139.00808 315.62127,-141.25606 314.68121,-141.34364"
       id="path1596"
       style="fill:#ffffff" />
    <path
       d="M 322.23821,-142.44719 C 323.94025,-143.53177 321.3361,-145.52575 320.17707,-145.67465 C 317.4722,-146.02352 320.37998,-141.26335 322.23821,-142.44719 z "
       id="path1598"
       style="fill:#ffffff" />
    <path
       d="M 320.39165,-138.42127 C 321.20472,-139.55401 319.20782,-141.95526 318.37723,-140.33789 C 317.82692,-139.26499 319.52312,-137.20969 320.39165,-138.42127 z "
       id="path1600"
       style="fill:#ffffff" />
    <path
       d="M 324.87155,-138.32784 C 325.74593,-139.24017 324.27307,-141.66916 323.06587,-141.22686 C 321.55944,-140.67362 323.48189,-136.87688 324.87155,-138.32784 z "
       id="path1602"
       style="fill:#ffffff" />
    <path
       d="M 317.01823,-135.17922 C 317.65613,-132.89474 319.49392,-133.84941 318.83413,-135.82441 C 318.19623,-137.73958 316.43142,-137.28998 317.01823,-135.17922 z "
       id="path1604"
       style="fill:#ffffff" />
    <path
       d="M 322.33747,-136.88855 C 320.87482,-136.58055 321.49959,-134.01873 322.7316,-134.14135 C 324.21322,-134.2917 322.96807,-136.84622 321.91999,-136.88855"
       id="path1606"
       style="fill:#ffffff" />
    <path
       d="M 320.08949,-130.34168 C 321.15801,-128.2207 322.39878,-130.96645 321.43974,-131.77076 C 320.39165,-132.64805 319.64427,-131.2292 320.08949,-130.34168 z "
       id="path1608"
       style="fill:#ffffff" />
    <path
       d="M 326.93415,-131.89629 C 328.00121,-132.7006 327.21295,-135.31643 325.74739,-134.91501 C 323.80887,-134.38367 325.44669,-130.7723 326.93415,-131.89629 z "
       id="path1610"
       style="fill:#ffffff" />
  </g>
  <g
     transform="matrix(0.558151,0.558151,-0.558151,0.558151,60.22688,-43.89971)"
     id="g4276">
    <path
       style="fill:#ffffff"
       id="path4278"
       d="M 331.18049,-138.79934 C 333.92185,-135.94995 337.49526,-134.3136 341.07159,-132.78235 C 338.4835,-131.17519 333.75399,-129.82932 332.44315,-126.80039 C 330.45063,-122.19349 336.7946,-118.72081 339.39437,-116.22613 C 340.7198,-114.95471 341.5533,-113.49645 342.21456,-111.809 C 344.60705,-105.70005 343.46408,-100.6567 337.74196,-97.057012 C 336.64132,-96.365101 336.11582,-96.019146 335.60638,-97.046794 C 334.89987,-98.475865 335.96547,-100.98951 335.61514,-102.56164 C 335.3626,-103.69147 334.65464,-104.86217 333.78026,-105.64896 C 332.08844,-107.17437 330.64039,-107.32035 330.13241,-109.65007 C 329.55727,-112.28633 328.86244,-115.02186 326.12546,-116.23197 C 323.66436,-117.31947 321.81781,-116.23489 321.05291,-113.7665 C 320.33472,-111.44261 321.27187,-108.84576 320.46464,-106.51604 C 319.42532,-103.52214 316.45623,-102.16021 315.30743,-99.253899 C 314.73376,-97.804391 314.42283,-94.140479 316.06795,-93.271942 C 311.03773,-92.626743 307.31543,-98.617459 307.30813,-103.05795 C 307.30083,-107.40647 309.57217,-111.3959 312.05224,-114.81896 C 313.18061,-116.37357 314.09878,-117.21729 314.1776,-119.11931 C 314.26518,-121.1965 314.65201,-123.32186 314.58049,-125.40051 C 314.4856,-128.16377 313.1266,-128.79875 311.20268,-130.46138 C 309.98673,-131.51092 308.79851,-132.63783 307.50665,-133.56622 C 305.57981,-134.95004 302.49103,-135.52809 300.16423,-135.94411 C 299.17162,-136.1222 297.85932,-136.25503 296.88277,-136.25795 C 295.37195,-136.26379 293.46993,-136.27401 292.0175,-136.14409 C 291.15188,-136.06673 289.47028,-134.46395 288.75209,-134.69605 C 291.43507,-133.82897 291.70074,-130.37088 291.44091,-128.08057 C 291.25406,-126.43546 291.19859,-124.39622 293.44365,-125.15674 C 294.89024,-125.64721 295.65076,-127.21787 297.29879,-127.13759 C 299.12637,-127.05 300.18029,-125.22826 300.22116,-123.53206 C 300.25473,-122.16284 299.44459,-120.39073 298.34687,-119.54555 C 296.96597,-118.47995 295.39093,-119.25798 293.87573,-119.33389 C 292.75758,-119.3879 290.59573,-118.03327 291.10809,-116.65967 C 291.49638,-115.61889 293.68743,-115.43642 294.61289,-115.24812 C 296.46966,-114.86859 299.66646,-115.19995 299.29277,-112.39581 C 298.97601,-110.01792 295.67703,-109.73765 293.82902,-109.96683 C 290.63806,-110.36387 289.13308,-112.15496 287.99741,-115.11382 C 287.26317,-117.03044 287.85582,-118.88867 287.1172,-120.77902 C 286.31873,-122.82409 285.23707,-125.46912 283.44891,-126.81499 C 281.86365,-128.00612 280.75279,-126.82958 281.11919,-125.09835 C 281.31917,-124.15537 281.97605,-123.63132 282.50009,-122.88832 C 283.35695,-121.67091 283.95689,-120.31629 284.56268,-118.96458 C 286.16692,-115.37657 286.50412,-111.15359 285.86621,-107.30283 C 285.47355,-104.93077 284.10287,-99.596935 280.90461,-99.656784 C 279.56166,-99.683059 279.15294,-101.33839 279.21716,-102.54412 C 279.29745,-104.03158 280.61704,-104.71181 281.0462,-106.03871 C 281.63593,-107.86336 281.44616,-109.69678 281.59652,-111.56669 C 281.71183,-112.99284 282.69277,-115.39263 281.72497,-116.70638 C 280.91628,-117.8041 279.94411,-117.32385 279.18943,-116.32248 C 277.56767,-114.17376 278.01873,-110.75216 277.53264,-108.24581 C 277.1823,-106.43575 276.96918,-104.55854 276.53419,-102.77476 C 275.97949,-100.49321 274.61757,-97.770818 272.51848,-96.525671 C 270.07052,-95.071784 266.59783,-95.143311 265.85629,-98.34449 C 265.55997,-99.62175 265.95993,-100.7399 266.84453,-101.67267 C 267.44447,-102.30765 268.68232,-102.52952 268.42687,-103.61556 C 265.80082,-102.89738 263.96449,-105.7599 265.20233,-108.20494 C 265.86797,-109.52015 268.22835,-109.72743 267.87947,-111.63821 C 264.93812,-112.83665 265.20379,-114.72845 266.23728,-117.25962 C 266.98904,-119.0945 266.9978,-118.87846 265.28262,-119.41418 C 263.91777,-119.84042 262.45659,-120.62137 261.47565,-121.66653 C 260.28014,-122.94087 259.16199,-124.28236 258.45986,-125.90266 C 257.61906,-127.84263 257.4074,-129.93588 257.59424,-132.02767 C 257.66869,-132.85679 258.99704,-136.93527 258.52409,-137.42427 C 258.1285,-137.833 255.76375,-137.03307 255.00469,-137.27246 C 254.38576,-137.46661 251.41814,-140.20505 251.17437,-140.09411 C 252.90998,-140.88674 254.5332,-142.13189 256.4469,-142.46763 C 258.23652,-142.78001 260.06118,-141.86184 261.82015,-142.3129 C 266.2402,-143.43835 264.81405,-148.924 265.12497,-152.22444 C 265.51326,-156.36568 265.5045,-160.6456 266.26501,-164.73137 C 266.50149,-165.99841 267.74956,-170.97754 269.74062,-168.96895 C 270.36392,-168.34127 270.24569,-166.31955 270.2778,-165.45685 C 270.34787,-163.58548 270.2997,-161.42655 270.95365,-159.6486 C 272.11706,-156.48976 275.02775,-156.94081 277.26113,-158.73627 C 279.43028,-160.48065 280.67397,-163.47308 281.10605,-166.17796 C 281.49288,-168.59526 281.706,-171.81834 283.78027,-173.53352 C 284.77142,-174.35242 285.89249,-174.07653 286.99458,-173.66197 C 286.67344,-171.1965 286.50995,-167.35742 288.26017,-165.26125 C 289.43379,-163.85553 291.98685,-162.82205 293.8261,-163.0483 C 295.74272,-163.28478 297.02144,-165.1182 298.0958,-166.53851 C 300.25911,-169.39665 301.68381,-171.96869 304.91564,-173.90429 C 305.99438,-174.55095 309.39408,-175.40926 309.17074,-172.77738 C 309.11235,-172.09277 307.26142,-170.66078 306.98845,-169.69736 C 304.90688,-162.37099 313.12368,-163.24245 317.57584,-164.22046 C 319.8428,-164.71823 323.20455,-167.1224 325.54741,-166.75601 C 325.81892,-166.71368 323.53736,-162.44106 323.3622,-162.1243 C 322.37834,-160.33175 321.7711,-158.81364 322.08202,-156.76126 C 322.73743,-152.42442 326.3415,-151.9865 330.06526,-151.56902 C 328.66684,-147.15189 327.65233,-142.46763 331.18049,-138.79934 z M 269.04871,-125.52897 C 273.04836,-125.3684 271.38281,-132.71082 267.96705,-130.48912 C 265.76871,-129.05858 266.41683,-125.63845 269.04871,-125.52897 z M 272.87173,-139.60656 C 274.96352,-140.96703 276.74439,-143.65876 278.31505,-145.33599 C 279.62443,-146.73441 280.99657,-147.76497 282.83436,-148.32405 C 283.38614,-148.49192 283.00953,-144.40614 282.98764,-144.15069 C 282.87086,-142.7479 282.6592,-141.28525 284.12768,-140.61232 C 286.49974,-139.52628 288.49518,-141.32904 290.45559,-142.24867 C 292.9707,-143.42959 295.84782,-143.6573 298.57167,-143.95363 C 300.77586,-144.19302 302.84721,-143.5814 304.98133,-143.36536 C 307.09939,-143.15078 308.74012,-142.49682 310.39399,-141.05315 C 314.46079,-137.50164 317.13501,-133.14436 319.96687,-128.63234 C 320.68944,-127.48062 322.96515,-122.86935 324.47889,-122.63725 C 325.47004,-122.48544 327.07282,-124.4911 327.53117,-125.24432 C 329.00842,-127.67476 328.4362,-131.59851 327.95012,-134.24353 C 326.65534,-141.29985 323.40453,-146.41765 318.31592,-151.40407 C 312.23033,-157.36705 305.02074,-159.71867 296.54703,-158.15822 C 291.42047,-157.21524 286.20049,-155.38912 281.95707,-152.31786 C 278.69458,-149.95602 275.76783,-147.20006 272.46447,-144.91413 C 271.12444,-143.98574 269.78733,-143.05444 268.41081,-142.1786 C 267.72328,-141.74068 264.3265,-140.53057 264.63596,-139.45329 C 265.14103,-137.69432 270.06322,-138.58768 271.24998,-138.8767 C 271.80905,-139.01246 272.34915,-139.26937 272.87173,-139.60656 z " />
    <path
       style="fill:#ffffff"
       id="path4280"
       d="M 272.43528,-141.21372 C 274.13878,-141.51881 274.52122,-145.24549 272.23091,-143.56388 C 271.28355,-142.86905 270.54347,-140.87361 272.43528,-141.21372 z " />
    <path
       style="fill:#ffffff"
       id="path4282"
       d="M 276.31815,-145.95345 C 277.93552,-144.98274 280.60828,-149.05683 278.66101,-148.83057 C 278.17784,-148.77364 275.89483,-146.20599 276.31815,-145.95345 z " />
    <path
       style="fill:#ffffff"
       id="path4284"
       d="M 282.73072,-149.47431 C 284.37729,-148.44083 288.10981,-151.97336 285.2108,-152.15145 C 284.11308,-152.2186 280.8287,-150.66691 282.73072,-149.47431 z " />
    <path
       style="fill:#ffffff"
       id="path4286"
       d="M 286.19319,-145.81186 C 286.09977,-146.02206 291.1694,-147.65549 290.35049,-149.64364 C 289.6542,-151.33546 286.79752,-149.52102 286.14356,-148.52403 C 285.58449,-147.67447 285.82242,-146.64098 286.19319,-145.81186 z " />
    <path
       style="fill:#ffffff"
       id="path4288"
       d="M 286.19465,-141.48231 C 287.02232,-141.85892 289.1287,-142.73184 288.97543,-143.95217 C 288.81924,-145.19294 287.19894,-145.12433 286.46762,-144.44264 C 286.06328,-144.06749 285.53924,-141.18453 286.19465,-141.48231 z " />
    <path
       style="fill:#ffffff"
       id="path4290"
       d="M 290.16511,-144.30104 C 291.08328,-143.2296 294.60559,-145.99725 293.7356,-147.06722 C 292.30945,-148.82182 288.51854,-146.22496 290.16511,-144.30104 z " />
    <path
       style="fill:#ffffff"
       id="path4292"
       d="M 299.85477,-152.40982 C 298.05493,-153.36448 294.76033,-153.64329 293.20718,-152.0843 C 292.05837,-150.93112 291.98539,-148.97947 294.03922,-149.10646 C 295.29167,-149.18675 296.58206,-149.59401 297.86078,-149.66846 C 298.58189,-149.70933 299.35408,-149.4203 300.02264,-149.47723 C 301.86189,-149.62904 301.22691,-151.68288 299.85477,-152.40982 z " />
    <path
       style="fill:#ffffff"
       id="path4294"
       d="M 291.24093,-155.06506 C 291.06138,-156.05184 287.88502,-153.89874 287.67919,-153.32215 C 286.85007,-151.00848 291.73577,-152.34997 291.24093,-155.06506 z " />
    <path
       style="fill:#ffffff"
       id="path4296"
       d="M 299.81244,-155.48984 C 300.4153,-159.761 293.37213,-154.81545 294.94279,-154.21258 C 297.11778,-153.38054 297.94107,-155.10594 299.81244,-155.48984 z " />
    <path
       style="fill:#ffffff"
       id="path4298"
       d="M 300.57003,-147.0643 C 298.99207,-148.89918 294.65231,-146.65266 296.54411,-145.45861 C 297.12654,-145.09076 299.09425,-145.35934 299.61683,-145.82208 C 300.35837,-146.48041 300.44596,-147.99707 299.11031,-147.6117" />
    <path
       style="fill:#ffffff"
       id="path4300"
       d="M 304.22373,-145.23381 C 305.5769,-145.97681 303.88069,-146.82929 302.94939,-146.73733 C 302.65306,-146.70813 300.96124,-145.57538 301.50134,-145.40898 C 302.43556,-145.12141 303.26469,-144.70831 304.22373,-145.23381 z " />
    <path
       style="fill:#ffffff"
       id="path4302"
       d="M 306.54761,-149.47723 C 307.41177,-150.45963 308.41898,-151.2362 306.57827,-151.84637 C 305.59003,-152.17335 304.42225,-151.71353 303.64714,-151.10483 C 302.19909,-149.96916 301.8035,-147.89489 304.20913,-147.97809 C 305.65864,-148.02772 305.7579,-148.57804 306.54761,-149.47723 z " />
    <path
       style="fill:#ffffff"
       id="path4304"
       d="M 302.70707,-153.94545 C 303.61064,-153.59658 306.53885,-153.52505 306.79139,-154.92055 C 307.01181,-156.13942 305.30977,-156.51895 304.42809,-156.48684 C 303.16981,-156.44304 300.36713,-154.84756 302.70707,-153.94545 z " />
    <path
       style="fill:#ffffff"
       id="path4306"
       d="M 309.87287,-154.71765 C 309.61888,-154.71181 309.37218,-154.66218 309.13863,-154.56 C 307.78984,-153.96881 308.57517,-152.69593 309.51232,-152.16605 C 310.17795,-151.7909 311.96612,-151.19241 312.75729,-151.21723 C 314.44181,-151.26832 313.42146,-152.75432 312.74415,-153.40244 C 312.06684,-154.04617 310.91949,-154.74392 309.87287,-154.71765 z " />
    <path
       style="fill:#ffffff"
       id="path4308"
       d="M 309.82762,-147.97663 C 311.65519,-146.40743 314.32795,-148.41163 311.37785,-149.21302 C 310.31809,-149.50059 308.29345,-149.29623 309.82762,-147.97663 z " />
    <path
       style="fill:#ffffff"
       id="path4310"
       d="M 308.08033,-144.55504 C 308.61896,-142.60192 311.59972,-143.26026 310.50347,-145.00317 C 309.832,-146.07169 307.58986,-146.33298 308.08033,-144.55504 z " />
    <path
       style="fill:#ffffff"
       id="path4312"
       d="M 312.09895,-145.20169 C 312.00553,-142.29684 317.48388,-141.90271 316.2256,-144.44994 C 315.6709,-145.57246 312.17632,-147.59419 312.09895,-145.20169 z " />
    <path
       style="fill:#ffffff"
       id="path4314"
       d="M 316.63578,-147.43362 C 323.18703,-145.34621 315.3337,-152.23903 314.56443,-148.99844 C 314.27394,-147.77957 315.80228,-147.70075 316.63578,-147.43362 z " />
    <path
       style="fill:#ffffff"
       id="path4316"
       d="M 315.23736,-141.34364 C 312.80546,-142.80628 313.5324,-138.91903 315.24758,-138.96429 C 316.88101,-139.00808 315.62127,-141.25606 314.68121,-141.34364" />
    <path
       style="fill:#ffffff"
       id="path4318"
       d="M 322.23821,-142.44719 C 323.94025,-143.53177 321.3361,-145.52575 320.17707,-145.67465 C 317.4722,-146.02352 320.37998,-141.26335 322.23821,-142.44719 z " />
    <path
       style="fill:#ffffff"
       id="path4320"
       d="M 320.39165,-138.42127 C 321.20472,-139.55401 319.20782,-141.95526 318.37723,-140.33789 C 317.82692,-139.26499 319.52312,-137.20969 320.39165,-138.42127 z " />
    <path
       style="fill:#ffffff"
       id="path4322"
       d="M 324.87155,-138.32784 C 325.74593,-139.24017 324.27307,-141.66916 323.06587,-141.22686 C 321.55944,-140.67362 323.48189,-136.87688 324.87155,-138.32784 z " />
    <path
       style="fill:#ffffff"
       id="path4324"
       d="M 317.01823,-135.17922 C 317.65613,-132.89474 319.49392,-133.84941 318.83413,-135.82441 C 318.19623,-137.73958 316.43142,-137.28998 317.01823,-135.17922 z " />
    <path
       style="fill:#ffffff"
       id="path4326"
       d="M 322.33747,-136.88855 C 320.87482,-136.58055 321.49959,-134.01873 322.7316,-134.14135 C 324.21322,-134.2917 322.96807,-136.84622 321.91999,-136.88855" />
    <path
       style="fill:#ffffff"
       id="path4328"
       d="M 320.08949,-130.34168 C 321.15801,-128.2207 322.39878,-130.96645 321.43974,-131.77076 C 320.39165,-132.64805 319.64427,-131.2292 320.08949,-130.34168 z " />
    <path
       style="fill:#ffffff"
       id="path4330"
       d="M 326.93415,-131.89629 C 328.00121,-132.7006 327.21295,-135.31643 325.74739,-134.91501 C 323.80887,-134.38367 325.44669,-130.7723 326.93415,-131.89629 z " />
  </g>
</svg>
