<?xml version="1.0" encoding="UTF-8" standalone="no"?>
<svg
   xmlns:dc="http://purl.org/dc/elements/1.1/"
   xmlns:cc="http://creativecommons.org/ns#"
   xmlns:rdf="http://www.w3.org/1999/02/22-rdf-syntax-ns#"
   xmlns:svg="http://www.w3.org/2000/svg"
   xmlns="http://www.w3.org/2000/svg"
   id="svg2"
   height="500"
   width="400"
   version="1">
  <metadata
     id="metadata51">
    <rdf:RDF>
      <cc:Work
         rdf:about="">
        <dc:format>
          
          image/svg+xml
        
        </dc:format>
        <dc:type
           rdf:resource="http://purl.org/dc/dcmitype/StillImage" />
        <dc:title></dc:title>
      </cc:Work>
    </rdf:RDF>
  </metadata>
  <defs
     id="defs4" />
  <path
     style="fill:#0085ca;fill-opacity:1;fill-rule:nonzero"
     d="m 396.64,1.45 -393.73,0 0,301.05 0,0 0,0.09 c 0,108.73 88.14,196.86 196.86,196.86 108.72,0 196.87,-88.14 196.87,-196.86 l 0,-0.09 0,0 z"
     id="path2418" />
  <path
     style="fill:none;stroke:#000000"
     id="path4300"
     d="m 396.64,1.45 -393.73,0 0,301.05 0,0 c 0,0.03 0,0.06 0,0.09 0,108.73 88.14,196.86 196.86,196.86 108.72,0 196.87,-88.14 196.87,-196.86 0,-0.03 0,-0.06 0,-0.09 l 0,0 0,-301.05 z" />
  <path
     style="fill:#ffffff;fill-opacity:1;stroke:#000000;stroke-opacity:1"
     id="path2849"
     d="m 271.675,97.45 c -105.8,72.9 -102.9,142 -124.9,207.4 -21.5,61.3 -57.5,25 -40.7,-18.4 7.6,-19.6 14.6,-32.5 31.4,-53.6 45.4,-57.2 61.1,-99.7 63.7,-141.3 3.7,-58.7 -38.6,-73.7 -57.4,-72.9 -13.1,0.5 -20.1,4.9 -22.5,9.8 -2.4,4.9 -5.9,4.9 -10.1,3.2 -5.9,-2.3 -13.8,2.1 -14.7,7.2 -3.9,23.1 -54.9,10.8 -44.3,42.3 4.4,-5.4 9.5,-6.3 16,-6.3 l 67.6,0 c 20.5,0 23,26.5 22.9,33.9 -2.2,101.4 -119,116.6 -117.8,232.4 0.5,46.6 19.3,73.6 42.2,89.3 l 234.9,0 c 48.8,-45.8 32.4,-90.2 62.7,-130.7 2.2,-3 -2.5,-3.2 -3.9,-3.2 -31.9,0.5 -18.2,44.4 -85.6,26.9 22.9,-28.6 18.2,-43 24.8,-66.2 11.3,-39.8 47.8,-60.6 46.4,-102.3 -25,26 -41.6,12.4 -82.6,95.4 -7.5,15.3 -18.8,8.3 -12.5,-3.4 21.2,-39.3 32.8,-59.9 50.1,-75.4 29.5,-26.5 61.4,-56.6 53.5,-82.7 -35.5,38.2 -49.7,29.6 -89.2,66.2 -23.2,21.5 -32.8,42.7 -45.3,72.5 -4.7,11.3 -16.4,4.9 -13.4,-4.7 12.5,-40.5 36.7,-63 52.3,-79.2 27.5,-28.6 112.8,-78.6 93.6,-118.3 -35.2,38.9 -69.5,49.4 -97,72.3 z" />
  <path
     style="fill:#000000;fill-opacity:1;stroke:none"
     id="path4155"
     d="m 115.375,49.35 c -0.8,-2.6 14.9,-10.5 15.7,-7.1 2.7,12.6 -14.6,10.7 -15.7,7.1 z" />
</svg>
