<svg xmlns:dc="http://purl.org/dc/elements/1.1/" xmlns:cc="http://creativecommons.org/ns#" xmlns:rdf="http://www.w3.org/1999/02/22-rdf-syntax-ns#" xmlns:svg="http://www.w3.org/2000/svg" xmlns="http://www.w3.org/2000/svg" id="svg2" version="1.1" x="0" y="0" width="400" height="500" viewBox="30.5 31.5 400 500" enable-background="new 30.5 31.5 412 533" xml:space="preserve">
  <metadata id="metadata4">
    <rdf:RDF>
      <cc:Work rdf:about="">
        <dc:format>
          
          
          
          
          image/svg+xml
        
        
        
        
        </dc:format>
        <dc:type rdf:resource="http://purl.org/dc/dcmitype/StillImage"/>
      </cc:Work>
    </rdf:RDF>
  </metadata>
  <defs id="defs6"/>
  <path id="path8" d="M230.44 531.14C156.12 477.22 105.18 409.12 74.7 322.98 47.06 244.88 35.97 150.23 40.79 33.63l0.02-0.46 379.82 0 0.02 0.46c4.81 116.6-6.28 211.24-33.91 289.35C356.26 409.12 305.32 477.22 231 531.14l-0.28 0.2-0.28-0.2z" fill="#0085ca"/>
  <path id="path5957" d="m40.37 128.35c34.41-41.56 71.7-56.69 117.98-59.06 24.66-1.26 69.66 7.61 96.71 27.37 26.05 19.03 41.69 49.64 42.91 76.74 1.45 32.31-5.54 73.65-67.48 69.7-31.32-3.42-60.43 13.93-60.16 53.8 0.35 53.35 40.39 99.14 109.13 104.77 26.02 2.13 68.77-9.27 79.72-17.43 25.61-46.92 54.97-125.64 60.81-242.43-13.22 68.32-58.65 156.77-120.71 167.94-36.48 6.57-82.1-12.92-68.79-66.65 15.19-43.49-18.36-64.67-60.16-64.91-54.41-0.31-99.85 79.8-92.84 152.55C53.48 266.08 43.07 198.14 40.37 128.35Z" style="fill-rule:evenodd;fill:#fff"/>
  <path id="path10" d="M419.96 33.21C429.03 252.66 383.7 419.16 230.5 530.31 77.31 419.16 31.99 252.66 41.06 33.21l189.45 0 189.45 0m0.92-0.95-0.92 0-189.45 0-189.45 0-0.92 0-0.04 0.92c-4.82 116.66 6.28 211.36 33.93 289.52 30.51 86.24 81.51 154.41 155.91 208.39l0.56 0.41 0.56-0.41C305.46 477.11 356.46 408.94 386.97 322.7 414.62 244.54 425.72 149.84 420.9 33.18l-0.04-0.92 0 0z"/>
  <path d="m40.47 128.25c34.41-41.56 71.6-56.6 117.89-58.96 24.66-1.26 69.66 7.61 96.71 27.37 26.05 19.03 41.69 49.64 42.91 76.74 1.45 32.31-5.54 73.65-67.48 69.7-31.32-3.42-60.43 13.93-60.16 53.8 0.35 53.35 40.81 99 109.55 104.64 26.02 2.13 68.77-9.27 79.72-17.43m60.32-242.24c-13.22 68.32-58.58 156.71-120.65 167.88-36.48 6.57-82.1-12.92-68.79-66.65 15.19-43.49-18.36-64.67-60.16-64.91-54.41-0.31-99.85 79.8-92.84 152.55" id="path5959" style="fill:none;stroke-linecap:round;stroke-miterlimit:4;stroke:#000"/>
  <path id="path5961" d="m419.43 141.82c0.11-0.54 0.16-0.92 0.19-1.52l0.18 1.41z" style="fill-rule:evenodd;fill:#000"/>
</svg>
