<?xml version="1.0" encoding="UTF-8" standalone="no"?>
<svg
   xmlns:dc="http://purl.org/dc/elements/1.1/"
   xmlns:cc="http://creativecommons.org/ns#"
   xmlns:rdf="http://www.w3.org/1999/02/22-rdf-syntax-ns#"
   xmlns:svg="http://www.w3.org/2000/svg"
   xmlns="http://www.w3.org/2000/svg"
   xml:space="preserve"
   enable-background="new 30.5 31.5 412 533"
   viewBox="30.5 31.5 400 500"
   height="500"
   width="400"
   y="0"
   x="0"
   version="1.1"
   id="svg2"><metadata
     id="metadata4"><rdf:RDF><cc:Work
         rdf:about=""><dc:format>
          
          
          
          
          image/svg+xml
        
        
        
        
        </dc:format><dc:type
           rdf:resource="http://purl.org/dc/dcmitype/StillImage" /><dc:title></dc:title></cc:Work></rdf:RDF></metadata><defs
     id="defs6" /><path
     style="fill:#0085ca"
     id="path4148"
     d="M 230.55,531.13 C 304.87,477.21 355.81,409.11 386.29,322.97 413.93,244.87 425.02,150.22 420.2,33.62 l -0.02,-0.46 -379.82,0 -0.02,0.46 c -4.81,116.6 6.28,211.24 33.91,289.35 30.48,86.14 81.42,154.24 155.74,208.16 l 0.28,0.2 0.28,-0.2 z" /><path
     d="m 41.04,33.21 c -9.07,219.45 36.25,385.95 189.45,497.1 84.47,-61.29 136.15,-139.41 163.99,-233.97 2.09,-7.09 4.04,-14.27 5.87,-21.54 11.45,-45.69 17.77,-95.02 19.88,-147.94 1.2,-30.06 1.05,-61.28 -0.29,-93.65 l -189.45,0 -189.45,0 m -0.92,-0.95 0.92,0 189.45,0 189.45,0 0.92,0 0.04,0.92 c 4.82,116.66 -6.28,211.36 -33.93,289.52 -30.51,86.24 -81.51,154.41 -155.91,208.39 l -0.56,0.41 -0.56,-0.41 C 155.54,477.11 104.54,408.94 74.03,322.7 46.38,244.54 35.28,149.84 40.1,33.18 l 0.04,-0.92 0,0 z"
     id="path10" /><path
     style="fill:#ffffff;fill-opacity:1;fill-rule:evenodd;stroke:#000000;stroke-width:1;stroke-linecap:butt;stroke-linejoin:miter;stroke-opacity:1;stroke-miterlimit:4;stroke-dasharray:none"
     d="m 277.14741,369.74992 c -22.85927,6.77849 -50.73348,5.42508 -73.52791,-0.91754 -2.17865,-0.60611 -1.43051,0.47267 -1.38981,1.37023 l 0.51147,11.24073 c 0.0439,0.95632 -0.39574,2.00909 -1.48899,1.46798 -30.73602,-15.21091 -53.89,-37.0949 -67.15047,-61.35143 -1.09988,-2.01194 0.15271,-3.55769 3.31019,-3.03088 22.27851,4.79053 56.15374,5.07034 78.87703,1.4034 1.98139,0.0415 1.60436,1.28168 1.16742,2.17701 l -8.10249,16.60091 c -0.89031,1.82401 0.69339,2.65834 2.2453,3.07159 33.28904,8.86574 59.0085,1.45006 85.58983,-18.02099 l -123.4429,-134.14712 -33.05873,27.28435 0.0604,4.40701 -7.73764,6.31581 -3.64129,-1.4729 -8.66523,7.15411 0.10078,4.14055 -8.7794,7.14719 -3.53281,-1.23707 -15.754445,13.00894 -16.125359,-19.53329 13.468189,-16.17937 -3.14871,-4.26341 7.40091,-9.19092 4.835718,2.37698 6.165107,-7.46848 -3.56432,-4.2059 8.87479,-11.11024 5.07199,2.63481 27.7124,-33.53822 -4.93623,-6.19839 c -16.02395,7.72484 -36.63157,3.76914 -48.902053,-8.74346 C 70.221924,121.19127 75.001811,93.659587 89.770775,79.099261 104.53976,64.538928 132.1367,60.151333 151.60969,79.79863 c 12.33668,12.447255 15.99871,33.10918 8.04678,49.02159 l 6.12749,5.02391 33.92912,-27.2324 -2.56247,-5.10891 11.23562,-8.715791 4.15477,3.623748 7.55549,-6.05813 -2.30801,-4.869076 9.29535,-7.26947 4.21809,3.209072 16.36932,-13.236568 19.30195,16.401695 -13.23195,15.56764 1.18678,3.55007 -7.27151,8.67676 -4.13856,-0.16003 -7.27664,8.56245 1.42088,3.66188 -6.42529,7.64687 -4.40569,-0.12298 -27.75211,32.66709 132.37705,125.33928 c 19.84733,-26.30149 27.62828,-51.91287 19.23717,-85.32471 -0.39116,-1.55752 -1.20286,-3.15302 -3.03938,-2.2888 l -16.71461,7.8654 c -0.90135,0.42417 -2.14748,0.78354 -2.16013,-1.19821 3.99003,-22.66887 4.19221,-56.5446 -0.28098,-78.88896 -0.48166,-3.16472 1.08171,-4.39518 3.07779,-3.2667 24.06546,13.60431 45.61754,37.06718 60.38974,68.01661 0.52533,1.10085 -0.53346,1.52511 -1.48913,1.46797 l -11.23236,-0.67126 c -0.8968,-0.0529 -1.96496,-0.81693 -1.38981,1.37004 6.01772,22.88234 6.9743,50.7731 -0.12882,73.5335 -6.89883,22.106 -13.80355,42.34209 -35.92397,64.14994 -22.12031,21.80784 -42.45266,28.42386 -64.65456,35.00764 z"
     id="path4596" /><path
     style="fill:#0085ca;fill-opacity:1;fill-rule:evenodd;stroke:#000000;stroke-width:1;stroke-linecap:butt;stroke-linejoin:miter;stroke-opacity:1;stroke-miterlimit:4;stroke-dasharray:none"
     d="m 113.61337,122.22685 13.9841,14.18441 c -10.3374,3.55351 -20.74586,-0.43579 -27.07994,-6.82971 -10.899519,-11.00242 -10.453655,-28.60202 0.55659,-39.017295 10.57082,-10.860976 28.17502,-11.056396 39.02126,-0.001 6.30316,6.424453 10.14385,16.888505 6.44365,27.174365 l -13.98399,-14.18464 c -6.31383,6.22474 -12.62773,12.44945 -18.94167,18.67411 z"
     id="path4598" /></svg>