<?xml version="1.0" encoding="UTF-8" standalone="no"?>
<svg
   xmlns:dc="http://purl.org/dc/elements/1.1/"
   xmlns:cc="http://creativecommons.org/ns#"
   xmlns:rdf="http://www.w3.org/1999/02/22-rdf-syntax-ns#"
   xmlns:svg="http://www.w3.org/2000/svg"
   xmlns="http://www.w3.org/2000/svg"
   id="svg2"
   version="1.1"
   x="0"
   y="0"
   width="400"
   height="500"
   viewBox="30.5 31.5 400 500"
   enable-background="new 30.5 31.5 412 533"
   xml:space="preserve"><metadata
     id="metadata4"><rdf:RDF><cc:Work
         rdf:about=""><dc:format>
          
          
          image/svg+xml
        
        
        </dc:format><dc:type
           rdf:resource="http://purl.org/dc/dcmitype/StillImage" /><dc:title></dc:title></cc:Work></rdf:RDF></metadata><defs
     id="defs6" /><path
     style="fill:#e00e00;fill-opacity:1"
     id="path8"
     d="M 230.45,531.13 C 156.13,477.21 105.19,409.11 74.71,322.97 47.07,244.87 35.98,150.22 40.8,33.62 l 0.02,-0.46 379.82,0 0.02,0.46 c 4.81,116.6 -6.28,211.24 -33.91,289.35 -30.48,86.14 -81.42,154.24 -155.74,208.16 l -0.28,0.2 -0.28,-0.2 z" /><path
     id="path10"
     d="M 419.96,33.21 C 429.03,252.66 383.71,419.16 230.51,530.31 146.04,469.02 94.36,390.9 66.52,296.34 64.43,289.25 62.48,282.07 60.65,274.8 49.2,229.11 42.88,179.78 40.77,126.86 39.57,96.8 39.72,65.58 41.06,33.21 l 189.45,0 189.45,0 m 0.92,-0.95 -0.92,0 -189.45,0 -189.45,0 -0.92,0 -0.04,0.92 c -4.82,116.66 6.28,211.36 33.93,289.52 30.51,86.24 81.51,154.41 155.91,208.39 l 0.56,0.41 0.56,-0.41 C 305.46,477.11 356.46,408.94 386.97,322.7 414.62,244.54 425.72,149.84 420.9,33.18 l -0.04,-0.92 0,0 z" /><path
     id="path4645"
     d="m 222.16052,453.65121 c -5.92384,-5.82387 -11.91939,-10.95201 -11.96026,-18.64481 -0.0537,-10.10763 6.119,-11.45257 8.71274,-18.73239 2.96732,-8.32832 -4.56044,-17.44782 -10.45529,-22.21748 C 163.38975,357.59096 134.63518,319.74395 108.91466,274.25635 76.848429,217.54615 73.935577,142.87763 79.291344,111.1103 c 16.541727,29.67418 32.692226,59.68901 52.929896,85.16703 29.61775,37.28698 51.18059,77.08287 67.74155,113.48344 10.11189,22.22568 15.42444,44.78662 17.86112,69.04846 0.66139,6.58541 8.32877,7.98515 8.3489,2.21807 l 0.58166,-166.6314 c 0.0171,-4.89479 -2.22923,-6.30038 -4.63799,-8.10017 -3.22193,-0.92766 -5.6121,0.67948 -10.66462,7.16747 6.6063,4.56414 6.68654,14.05476 2.06856,22.14998 -4.18426,7.33492 -3.25386,9.42014 -4.12566,14.57512 -5.40149,-1.9508 -7.14826,-6.70681 -8.47882,-9.63511 -2.29815,1.08991 -6.56942,2.83009 -9.67323,3.35769 -0.92398,-2.37333 -1.8011,-6.76281 -1.66051,-9.91168 -3.51557,-0.11598 -7.62078,-0.90631 -11.77387,-4.34663 7.51643,-4.21595 8.43299,-6.71263 13.04074,-11.54464 6.81767,-7.14946 11.12098,-8.61844 15.67739,-6.89942 2.87213,-3.14069 6.24294,-7.41476 9.57163,-9.40568 3.16855,-1.89513 8.15951,-1.95328 10.6931,0.0733 l 0.15729,-41.05875 c 0.0192,-5.0088 -1.50087,-4.02527 -3.51504,-7.11982 -1.08916,-1.67338 -9.04342,2.91847 -9.78253,7.15247 3.55594,2.75025 5.3185,9.98331 1.87962,17.67339 -2.29308,5.12782 -4.48691,9.09102 -5.55603,13.8579 -2.41828,-1.91343 -5.2331,-7.25012 -5.94968,-9.16355 -3.36037,1.66373 -6.32166,2.51394 -9.90178,3.15385 -0.89494,-2.65568 -1.30039,-6.28998 -0.5786,-9.71664 -3.24727,0.48361 -7.16156,0.0251 -10.66793,-1.96768 5.53032,-4.6758 7.83202,-8.82526 12.02003,-13.39987 4.50264,-4.91828 10.24433,-4.7256 13.98976,-3.04946 1.63404,-2.8894 3.80792,-5.05518 6.68509,-6.80403 3.51431,-2.13614 8.28297,-2.7093 11.40504,-2.62327 l 0.12772,-36.58941 c 0.0109,-3.12959 -3.90124,-4.64828 -6.57605,-4.36977 -3.10073,0.32286 -5.35739,2.99689 -6.06442,6.00642 2.41664,2.85335 3.49368,7.6909 1.24728,13.66009 -1.52707,4.05783 -5.93933,6.19328 -7.54928,15.78908 -2.01738,-0.867 -5.55962,-5.28935 -6.27395,-7.40859 -2.80756,1.40791 -5.67745,1.87303 -9.037,2.25639 -0.72934,-2.36353 -1.44883,-5.70526 -1.10911,-8.93405 -2.93977,-0.0292 -6.70109,-1.80466 -8.89652,-3.2575 6.94836,-3.56674 9.25109,-10.36943 14.21717,-14.58708 4.39154,-3.72969 10.70353,-2.15979 13.18328,-1.01243 2.58752,-2.90472 4.67841,-6.04136 9.50033,-6.64646 3.38196,-0.4244 6.00449,0.71603 7.38246,1.57218 l 0.11115,-31.862042 c 0.0116,-3.324412 -3.16487,-6.786097 -6.13982,-6.88864 -2.32435,-0.08012 -4.91567,0.822433 -6.22655,3.797212 7.57528,6.809706 -2.37475,18.003573 -2.25769,26.569136 -2.79861,-0.600585 -5.99032,-4.359396 -6.9279,-6.731626 -2.31926,1.518112 -5.58209,3.34344 -7.84458,4.096889 -0.88078,-1.977711 -1.91917,-5.156884 -1.71731,-7.681239 -2.40847,0.264519 -6.5008,0.251101 -8.98735,-1.746563 8.63264,-7.079781 8.56112,-12.792966 15.2385,-16.293343 2.60673,-1.366488 6.00221,-1.061517 8.29977,-0.461534 3.26735,-4.738209 7.24042,-6.143626 10.61604,-6.094629 3.95859,0.05746 8.05383,3.252658 9.2074,6.58592 1.15357,-3.33327 5.24881,-6.528468 9.2074,-6.585928 3.37562,-0.049 7.34869,1.35642 10.61604,6.094629 2.29756,-0.599983 5.69304,-0.904954 8.29977,0.461534 6.67738,3.500377 6.60586,9.213562 15.2385,16.293343 -2.48655,1.997664 -6.57888,2.011082 -8.98735,1.746563 0.20186,2.524355 -0.83653,5.703524 -1.71731,7.681234 -2.26249,-0.75344 -5.52532,-2.57877 -7.84458,-4.096884 -0.93758,2.372234 -4.12929,6.131044 -6.9279,6.731624 0.11706,-8.565561 -9.83297,-19.759428 -2.25769,-26.569134 -1.31088,-2.974779 -3.9022,-3.877332 -6.22655,-3.797212 -2.97495,0.102543 -6.15142,3.564228 -6.13982,6.88864 l 0.11115,31.86205 c 1.37797,-0.85615 4.0005,-1.99658 7.38246,-1.57218 4.82192,0.6051 6.91281,3.74174 9.50033,6.64646 2.47975,-1.14736 8.79174,-2.71726 13.18328,1.01243 4.96608,4.21765 7.26881,11.02034 14.21717,14.58708 -2.19543,1.45284 -5.95675,3.2283 -8.89652,3.2575 0.33972,3.22879 -0.37977,6.57052 -1.10911,8.93405 -3.35955,-0.38336 -6.22944,-0.84848 -9.037,-2.25639 -0.71433,2.11924 -4.25657,6.54159 -6.27395,7.40859 -1.60995,-9.5958 -6.02221,-11.73125 -7.54928,-15.78908 -2.2464,-5.96919 -1.16936,-10.80674 1.24728,-13.66009 -0.70703,-3.00953 -2.96369,-5.68356 -6.06442,-6.00642 -2.67481,-0.27851 -6.58695,1.24018 -6.57605,4.36977 l 0.12772,36.58941 c 3.12207,-0.086 7.89073,0.48713 11.40504,2.62327 2.87717,1.74885 5.05105,3.91463 6.68509,6.80403 3.74543,-1.67614 9.48712,-1.86882 13.98976,3.04946 4.18801,4.57461 6.48971,8.72407 12.02003,13.39987 -3.50637,1.99278 -7.42066,2.45129 -10.66793,1.96768 0.72179,3.42666 0.31634,7.06096 -0.5786,9.71664 -3.58012,-0.63991 -6.54141,-1.49012 -9.90178,-3.15385 -0.71658,1.91343 -3.5314,7.25012 -5.94968,9.16355 -1.06912,-4.76688 -3.26295,-8.73008 -5.55603,-13.8579 -3.43888,-7.69008 -1.67632,-14.92314 1.87962,-17.67339 -0.73911,-4.234 -8.69337,-8.82585 -9.78253,-7.15247 -2.01417,3.09455 -3.53424,2.11102 -3.51504,7.11982 l 0.15729,41.05875 c 2.53359,-2.02658 7.52455,-1.96843 10.6931,-0.0733 3.32869,1.99092 6.6995,6.26499 9.57163,9.40568 4.55641,-1.71902 8.85972,-0.25004 15.67739,6.89942 4.60775,4.83201 5.52431,7.32869 13.04074,11.54464 -4.15309,3.44032 -8.2583,4.23065 -11.77387,4.34663 0.14059,3.14887 -0.73653,7.53835 -1.66051,9.91168 -3.10381,-0.5276 -7.37508,-2.26778 -9.67323,-3.35769 -1.33056,2.9283 -3.07733,7.68431 -8.47882,9.63511 -0.8718,-5.15498 0.0586,-7.2402 -4.12566,-14.57512 -4.61798,-8.09522 -4.53774,-17.58584 2.06856,-22.14998 -5.05252,-6.48799 -7.44269,-8.09513 -10.66462,-7.16747 -2.40876,1.79979 -4.65509,3.20538 -4.63799,8.10017 l 0.58166,166.6314 c 0.0201,5.76708 7.68751,4.36734 8.3489,-2.21807 2.43668,-24.26184 7.74923,-46.82278 17.86112,-69.04846 16.56096,-36.40057 38.1238,-76.19646 67.74155,-113.48344 20.23767,-25.47802 36.38816,-55.49285 52.92989,-85.16703 5.35577,31.76733 2.44292,106.43585 -29.62331,163.14605 -25.72052,45.4876 -54.47509,83.33461 -99.54305,119.80018 -5.89485,4.76966 -13.42261,13.88916 -10.45529,22.21748 2.59374,7.27982 8.76644,8.62476 8.71274,18.73239 -0.0409,7.6928 -6.03642,12.82094 -11.96026,18.64481 -3.73898,3.67587 -6.85963,8.80033 -8.33948,8.80033 -1.47985,0 -4.6005,-5.12446 -8.33948,-8.80033 z"
     style="fill:#ffe000;fill-rule:evenodd;stroke:#000000;stroke-width:1px;stroke-linecap:round;stroke-linejoin:round;stroke-opacity:1;fill-opacity:1" /></svg>