<svg xmlns:dc="http://purl.org/dc/elements/1.1/" xmlns:cc="http://creativecommons.org/ns#" xmlns:rdf="http://www.w3.org/1999/02/22-rdf-syntax-ns#" xmlns:svg="http://www.w3.org/2000/svg" xmlns="http://www.w3.org/2000/svg" xml:space="preserve" enable-background="new 30.5 31.5 412 533" viewBox="30.5 31.5 400 500" height="500" width="400" y="0" x="0" version="1.1" id="svg2">
  <metadata id="metadata4">
    <rdf:RDF>
      <cc:Work rdf:about="">
        <dc:format>
          
          
          
          image/svg+xml
        
        
        
        </dc:format>
        <dc:type rdf:resource="http://purl.org/dc/dcmitype/StillImage"/>
      </cc:Work>
    </rdf:RDF>
  </metadata>
  <defs id="defs6"/>
  <path d="M230.44 531.14C156.12 477.22 105.18 409.12 74.7 322.98 47.06 244.88 35.97 150.23 40.79 33.63l0.02-0.46 379.82 0 0.02 0.46c4.81 116.6-6.28 211.24-33.91 289.35C356.26 409.12 305.32 477.22 231 531.14l-0.28 0.2-0.28-0.2z" id="path8" fill="#fff"/>
  <path id="path4229" d="m401.51 271.89c8.65-31.68 17.18-97.48 17.38-117.28-0.33 15.58-12.62 23.72-23.16 23.72-10.54 0-22.83-8.14-23.68-23.72-0.85 15.58-13.14 23.72-23.68 23.72-10.54 0-22.83-8.14-23.68-23.72-0.85 15.58-13.14 23.72-23.68 23.72-10.54 0-22.83-8.14-23.68-23.72-0.85 15.58-13.14 23.72-23.68 23.72-10.54 0-22.83-8.14-23.17-23.72-0.34 15.59-12.63 23.72-23.17 23.72-10.54 0-22.83-8.14-23.68-23.72-0.85 15.58-13.14 23.72-23.68 23.72-10.54 0-22.83-8.14-23.68-23.72-0.85 15.58-13.14 23.72-23.68 23.72-10.54 0-22.83-8.14-23.68-23.72-0.85 15.58-13.14 23.72-23.68 23.72-10.54 0-22.9-8.15-23.23-23.73 3.29 60.45 15.96 111.41 17.19 117.27 1.93-0.52 4.14-0.78 6.03-0.78 10.54 0 22.83 8.14 23.68 23.72 0.85-15.58 13.14-23.72 23.68-23.72 10.54 0 22.83 8.14 23.68 23.72 0.85-15.58 13.14-23.72 23.68-23.72 10.54 0 22.83 8.14 23.68 23.72 0.85-15.58 13.14-23.72 23.68-23.72 10.54 0 22.83 8.14 23.17 23.72 0.34-15.58 12.63-23.72 23.17-23.72 10.54 0 22.83 8.14 23.68 23.72 0.85-15.58 13.14-23.72 23.68-23.72 10.54 0 22.83 8.14 23.68 23.72 0.85-15.58 13.14-23.72 23.68-23.72 10.54 0 22.83 8.14 23.68 23.72 0.85-15.58 13.14-23.72 23.68-23.72 1.9 0 3.85 0.26 5.78 0.79" style="fill-rule:evenodd;fill:#0085ca"/>
  <path d="M419.96 33.21C429.03 252.66 383.7 419.16 230.5 530.31 77.31 419.16 31.99 252.66 41.06 33.21l189.45 0 189.45 0m0.92-0.95-0.92 0-189.45 0-189.45 0-0.92 0-0.04 0.92c-4.82 116.66 6.28 211.36 33.93 289.52 30.51 86.24 81.51 154.41 155.91 208.39l0.56 0.41 0.56-0.41C305.46 477.11 356.46 408.94 386.97 322.7 414.62 244.54 425.72 149.84 420.9 33.18l-0.04-0.92 0 0z" id="path10"/>
  <path d="m419.08 154.47c-0.33 15.58-12.81 23.86-23.35 23.86-10.54 0-22.83-8.14-23.68-23.72-0.85 15.58-13.14 23.72-23.68 23.72-10.54 0-22.83-8.14-23.68-23.72-0.85 15.58-13.14 23.72-23.68 23.72-10.54 0-22.83-8.14-23.68-23.72-0.85 15.58-13.14 23.72-23.68 23.72-10.54 0-22.83-8.14-23.17-23.72-0.34 15.59-12.63 23.72-23.17 23.72-10.54 0-22.83-8.14-23.68-23.72-0.85 15.58-13.14 23.72-23.68 23.72-10.54 0-22.83-8.14-23.68-23.72-0.85 15.58-13.14 23.72-23.68 23.72-10.54 0-22.83-8.14-23.68-23.72-0.85 15.58-13.14 23.72-23.68 23.72-10.54 0-23.02-8.15-23.35-23.73m17.58 117.2c1.87-0.48 3.97-0.71 5.77-0.71 10.54 0 22.83 8.14 23.68 23.72 0.85-15.58 13.14-23.72 23.68-23.72 10.54 0 22.83 8.14 23.68 23.72 0.85-15.58 13.14-23.72 23.68-23.72 10.54 0 22.83 8.14 23.68 23.72 0.85-15.58 13.14-23.72 23.68-23.72 10.54 0 22.83 8.14 23.17 23.72 0.34-15.58 12.63-23.72 23.17-23.72 10.54 0 22.83 8.14 23.68 23.72 0.85-15.58 13.14-23.72 23.68-23.72 10.54 0 22.83 8.14 23.68 23.72 0.85-15.58 13.14-23.72 23.68-23.72 10.54 0 22.83 8.14 23.68 23.72 0.85-15.58 13.14-23.72 23.68-23.72 1.9 0 3.85 0.26 5.78 0.79" id="path4235" style="fill:none;stroke-linecap:round;stroke-linejoin:round;stroke-miterlimit:4;stroke-width:1.03;stroke:#000"/>
  <path id="path4237" d="m42.55 154.61-0.57-4.91 0.05 4.91z" fill="none"/>
  <path id="path4239" d="m42.43 154.69-0.61-7.27 0.25 7.2z" style="fill-rule:evenodd;fill:#000"/>
  <path d="m418.55 154.74c0.23-4.08 0.46-5.18 0.69-7.71l-0.33 7.64z" id="path4241" style="fill-rule:evenodd;fill:#000"/>
</svg>
