<?xml version="1.0" encoding="UTF-8" standalone="no"?>
<svg
   xmlns:dc="http://purl.org/dc/elements/1.1/"
   xmlns:cc="http://creativecommons.org/ns#"
   xmlns:rdf="http://www.w3.org/1999/02/22-rdf-syntax-ns#"
   xmlns:svg="http://www.w3.org/2000/svg"
   xmlns="http://www.w3.org/2000/svg"
   id="svg2"
   version="1.1"
   x="0"
   y="0"
   width="400"
   height="500"
   viewBox="30.5 31.5 400 500"
   enable-background="new 30.5 31.5 412 533"
   xml:space="preserve"><metadata
     id="metadata4"><rdf:RDF><cc:Work
         rdf:about=""><dc:format>
          
          
          
          
          
          image/svg+xml
        
        
        
        
        
        </dc:format><dc:type
           rdf:resource="http://purl.org/dc/dcmitype/StillImage" /><dc:title></dc:title></cc:Work></rdf:RDF></metadata><defs
     id="defs6" /><path
     style="fill:#e00e00;fill-opacity:1"
     id="path8"
     d="M 230.67,530.86 C 156.35,476.94 105.41,408.84 74.93,322.7 47.29,244.6 36.2,149.95 41.02,33.35 l 0.02,-0.46 379.82,0 0.02,0.46 c 4.81,116.6 -6.28,211.24 -33.91,289.35 -30.48,86.14 -81.42,154.24 -155.74,208.16 l -0.28,0.2 -0.28,-0.2 z" /><path
     id="path10"
     d="M 419.96,33.21 C 429.03,252.66 383.7,419.16 230.5,530.31 77.31,419.16 31.99,252.66 41.06,33.21 l 189.45,0 189.45,0 m 0.92,-0.95 -0.92,0 -189.45,0 -189.45,0 -0.92,0 -0.04,0.92 c -4.82,116.66 6.28,211.36 33.93,289.52 30.51,86.24 81.51,154.41 155.91,208.39 l 0.56,0.41 0.56,-0.41 C 305.46,477.11 356.46,408.94 386.97,322.7 414.62,244.54 425.72,149.84 420.9,33.18 l -0.04,-0.92 0,0 z" /><path
     id="path4213"
     d="m 211.21682,282.33981 0,-5.75355 -44.96859,0 c -0.7848,0 -0.64141,8.99507 0,9.00886 l 5.07222,0 0,8.47892 15.21663,0 0,-6.35919 8.40322,-0.0757 0,6.88908 6.81342,0 0,9.5388 -6.81342,0 0,6.88908 -8.40322,-0.0757 0,-6.35921 -15.21663,0 0,8.47894 -5.07222,0 c -0.63964,-0.0742 -0.6829,8.94024 0,9.00886 l 44.96859,0 0,-5.75357 12.24742,0 0,82.79496 c -4.28083,-3.76842 -8.06939,-5.96073 -14.54454,-5.94012 -13.95875,0.0444 -22.61697,13.15555 -24.88823,25.48283 -2.69944,14.65123 2.81831,32.29283 15.67823,41.80407 9.89015,7.31479 19.95957,8.32752 30.69955,8.32752 10.74,0 20.80942,-1.01273 30.69957,-8.32752 12.85992,-9.51124 18.37765,-27.15284 15.67821,-41.80407 -2.27126,-12.32728 -10.92947,-25.43848 -24.88823,-25.48283 -6.47513,-0.0206 -10.26369,2.1717 -14.54454,5.94012 l 0,-75.07307 -0.15142,-63.44054 c -0.003,-1.39018 -13.7386,-1.44014 -13.7386,0 l 0,21.8443 z"
     style="fill:#ffe000;fill-opacity:1;fill-rule:evenodd;stroke:#000000;stroke-width:1;stroke-linecap:round;stroke-linejoin:round;stroke-opacity:1;stroke-miterlimit:4;stroke-dasharray:none" /><path
     id="path4215"
     d="m 230.48496,457.36907 c 11.93429,0.0732 22.6905,-2.7425 30.32103,-14.23248 6.13845,-9.24325 7.19769,-21.07999 3.02819,-28.61638 -3.8397,-6.9403 -12.86163,-11.75751 -19.229,-6.96484 -3.42426,2.57743 -4.58007,5.1414 -4.46658,8.70604 0.0664,2.08501 4.10433,6.07566 6.90751,9.82863 2.70368,3.61974 -7.53916,11.16736 -9.69185,8.11338 l -4.46953,-6.34082 c -1.34411,-1.40866 -4.16986,-1.04347 -4.95096,0 l -4.46953,6.34082 c -2.15269,3.05398 -12.39551,-4.49364 -9.69185,-8.11338 2.8032,-3.75297 6.84112,-7.74362 6.90751,-9.82863 0.11349,-3.56464 -1.0423,-6.12861 -4.46658,-8.70604 -6.36735,-4.79267 -15.38928,0.0246 -19.22898,6.96484 -4.16952,7.53639 -3.11028,19.37313 3.02819,28.61638 7.63053,11.48998 18.38674,14.30566 30.32101,14.23248"
     style="fill:#e00e00;fill-opacity:1;fill-rule:evenodd;stroke:#000000;stroke-width:1;stroke-linecap:butt;stroke-linejoin:miter;stroke-opacity:1;stroke-miterlimit:4;stroke-dasharray:none" /><path
     style="fill:#ffe000;fill-opacity:1;fill-rule:evenodd;stroke:#000000;stroke-width:1;stroke-linecap:round;stroke-linejoin:round;stroke-opacity:1;stroke-miterlimit:4;stroke-dasharray:none"
     d="m 207.29327,209.35707 3.45107,4.58817 35.86002,-26.97276 c 0.62585,-0.47072 -4.88388,-7.55778 -5.40363,-7.18406 l -4.04481,3.04238 -5.08577,-6.7615 -12.13448,9.12715 3.81434,5.07111 -6.65573,5.10069 -4.13215,-5.49367 -5.43336,4.08677 -5.72148,-7.60666 5.43334,-4.08678 -4.13215,-5.49367 6.74649,-4.98003 3.81432,5.07111 12.13445,-9.12713 -5.08577,-6.76148 4.04482,-3.04238 c 0.55458,-0.32451 -4.81788,-7.53899 -5.40364,-7.18409 l -35.86001,26.97274 3.45105,4.58815 -9.76666,7.34619 -49.66149,-66.02453 c 5.67409,0.43742 10.01024,-0.0868 15.16147,-3.98707 11.10475,-8.40801 10.14492,-24.056788 4.56209,-35.249455 -6.63534,-13.30272 -21.61712,-24.061347 -37.57717,-23.93249 -12.274375,0.09908 -20.911632,5.331262 -29.476194,11.773247 -8.56457,6.441985 -15.986938,13.28934 -19.486296,25.054738 -4.550126,15.29824 1.631438,32.6761 12.572093,42.7405 9.205261,8.46799 23.973987,13.73015 35.131957,5.39289 5.17593,-3.86745 6.88211,-7.88813 8.03551,-13.46094 l 45.0298,59.86673 38.17321,50.49957 c 0.83621,1.10683 11.8196,-7.09216 10.95579,-8.24059 l -13.1025,-17.41963 z"
     id="path4139" /><path
     style="fill:#e00e00;fill-opacity:1;fill-rule:evenodd;stroke:#000000;stroke-width:1;stroke-linecap:butt;stroke-linejoin:miter;stroke-opacity:1;stroke-miterlimit:4;stroke-dasharray:none"
     d="m 86.943156,81.337988 c -9.560854,7.099955 -16.44946,15.797047 -15.642558,29.536582 0.64913,11.0529 6.904274,21.12743 14.74965,24.63637 7.22484,3.2314 17.308762,1.66139 19.511682,-5.97974 1.1847,-4.10929 0.56848,-6.84717 -1.66014,-9.6217 -1.3035,-1.62289 -6.917222,-2.38319 -11.40369,-3.69459 -4.327206,-1.26484 -0.686262,-13.42745 2.862214,-12.28328 l 7.367506,2.37559 c 1.91681,0.31711 3.95113,-1.66904 3.94812,-2.96966 l -0.23909,-7.737344 c -0.11514,-3.726588 12.58011,-3.851557 12.59524,0.656702 0.0156,4.674172 -0.8107,10.278502 0.38698,11.981012 2.04761,2.91066 4.50719,4.26202 8.78383,4.26348 7.95234,0.003 12.25743,-9.25028 11.15651,-17.087888 -1.19549,-8.510787 -9.14,-17.314606 -19.5793,-21.003659 -12.97677,-4.585761 -23.243162,-0.379401 -32.716208,6.837303"
     id="path4141" /><path
     id="path4143"
     d="m 280.25765,232.33742 -3.69167,4.40789 34.45123,28.85321 c 0.60122,0.50356 6.26289,-6.47972 5.78034,-6.90184 l -3.88591,-3.25448 5.44032,-6.49585 -11.65772,-9.76346 -4.08026,4.87188 -6.48638,-5.3338 4.42025,-5.27784 -5.21991,-4.37169 6.12039,-7.30784 5.21987,4.37171 4.42025,-5.27784 6.38931,5.44971 -4.08024,4.8719 11.65771,9.76346 5.44035,-6.49587 3.88591,3.25449 c 0.44242,0.46724 6.25951,-6.41109 5.78035,-6.90185 l -34.45119,-28.85319 -3.69168,4.4079 -9.38296,-7.85831 53.12375,-63.43064 c 0.86168,5.63377 2.35751,9.74418 7.33145,13.88305 10.72252,8.92238 25.76825,4.43303 35.41786,-3.5538 11.46874,-9.49249 18.5609,-26.5484 14.81139,-42.08644 -2.88362,-11.949801 -9.94818,-19.186505 -18.17627,-26.077606 -8.2281,-6.89111 -16.59223,-12.576083 -28.86265,-13.317918 -15.95489,-0.964599 -31.50152,9.010604 -38.8341,21.967192 -6.16951,10.90145 -7.94884,26.501542 2.71674,35.491882 4.94752,4.17043 9.25664,4.92171 14.9542,4.78137 l -48.16916,57.51477 -40.58935,48.70004 c -0.88972,1.06694 9.60133,9.91843 10.52538,8.8151 l 14.01595,-16.73529 z"
     style="fill:#ffe000;fill-opacity:1;fill-rule:evenodd;stroke:#000000;stroke-width:1;stroke-linecap:round;stroke-linejoin:round;stroke-opacity:1;stroke-miterlimit:4;stroke-dasharray:none" /><path
     id="path4145"
     d="m 377.80004,85.881491 c -9.09608,-7.713479 -19.14324,-12.457832 -32.36146,-8.55114 -10.63351,3.142786 -19.03984,11.531479 -20.68107,19.980512 -1.51144,7.780747 2.30954,17.260047 10.26283,17.673777 4.27714,0.22251 6.80771,-1.0002 9.00796,-3.80395 1.28698,-1.63992 0.75393,-7.28811 1.0144,-11.961933 0.25115,-4.507912 12.94117,-3.718161 12.63087,0.0028 l -0.64433,7.725593 c 0.12591,1.94164 2.52508,3.47493 3.79302,3.17668 l 7.49264,-1.99003 c 3.60874,-0.95843 6.61316,11.39601 2.2193,12.4344 -4.55559,1.07658 -10.20964,1.54306 -11.5983,3.09782 -2.37413,2.6581 -3.13377,5.364 -2.16413,9.53573 1.80276,7.7573 11.80575,9.85545 19.2005,7.00202 8.02992,-3.09846 14.81323,-12.84644 16.04117,-23.86648 1.52647,-13.69863 -4.90743,-22.757307 -14.09746,-30.358631"
     style="fill:#e00e00;fill-opacity:1;fill-rule:evenodd;stroke:#000000;stroke-width:1;stroke-linecap:butt;stroke-linejoin:miter;stroke-opacity:1;stroke-miterlimit:4;stroke-dasharray:none" /></svg>