<?xml version="1.0" encoding="UTF-8" standalone="no"?>
<svg
   xmlns:dc="http://purl.org/dc/elements/1.1/"
   xmlns:cc="http://creativecommons.org/ns#"
   xmlns:rdf="http://www.w3.org/1999/02/22-rdf-syntax-ns#"
   xmlns:svg="http://www.w3.org/2000/svg"
   xmlns="http://www.w3.org/2000/svg"
   xmlns:xlink="http://www.w3.org/1999/xlink"
   id="svg3746"
   height="500"
   width="400"
   version="1.1">
  <metadata
     id="metadata13">
    <rdf:RDF>
      <cc:Work
         rdf:about="">
        <dc:format>image/svg+xml</dc:format>
        <dc:type
           rdf:resource="http://purl.org/dc/dcmitype/StillImage" />
        <dc:title></dc:title>
      </cc:Work>
    </rdf:RDF>
  </metadata>
  <defs
     id="defs3750" />
  <path
     id="path4290"
     d="m 3.5,3.5 0,353.18414 c 0,61.36893 30.90815,88.14695 71.45776,88.14695 l 58.56587,0 C 163.8547,445.10872 193.38218,464.68133 200,498.8 c 6.61782,-34.11867 36.1453,-53.69128 66.47637,-53.96891 l 58.56586,0 c 40.54961,0 71.45776,-26.77802 71.45776,-88.14695 l 0,-353.1841446 C 265.49999,3.4999969 134.5,3.4999985 3.5,3.5 Z"
     style="fill:#ffe000;fill-opacity:1;fill-rule:evenodd;stroke:#000000;stroke-width:1px;stroke-linecap:butt;stroke-linejoin:miter;stroke-opacity:1" />
  <path
     style="fill:none;stroke:#000000;stroke-width:1;stroke-linecap:butt;stroke-linejoin:miter;stroke-miterlimit:4;stroke-dasharray:none;stroke-opacity:1"
     id="path4235"
     d="M 344.26089,294.01948 265.30115,218.29514" />
  <path
     style="fill:none;stroke:#000000;stroke-width:1;stroke-linecap:butt;stroke-linejoin:miter;stroke-miterlimit:4;stroke-dasharray:none;stroke-opacity:1"
     id="path4231"
     d="m 240.64708,295.27995 43.04393,-6.10584 54.23998,19.51137" />
  <use
     style="stroke-width:1;stroke-miterlimit:4;stroke-dasharray:none"
     xlink:href="#path4221"
     height="480"
     width="369"
     y="0"
     x="0"
     id="use4223"
     transform="translate(8.5289865,0)" />
  <path
     style="fill:none;stroke:#000000;stroke-width:1;stroke-linecap:butt;stroke-linejoin:miter;stroke-miterlimit:4;stroke-dasharray:none;stroke-opacity:1"
     id="path4221"
     d="m 165.08593,317.18124 7.86198,-42.3422" />
  <path
     style="fill:none;stroke:#000000;stroke-width:1;stroke-linecap:butt;stroke-linejoin:miter;stroke-miterlimit:4;stroke-dasharray:none;stroke-opacity:1"
     id="path4219"
     d="m 122.8634,299.45822 20.23339,-19.84045 99.81606,34.77599" />
  <path
     style="fill:#e00e00;fill-opacity:1;stroke:#000000;stroke-width:1;stroke-linecap:butt;stroke-linejoin:miter;stroke-miterlimit:4;stroke-dasharray:none;stroke-opacity:1"
     id="path4275"
     d="m 293.41956,300.1908 c 2.92735,6.15978 8.58963,9.73818 14.85982,12.74251 l -5.06442,4.24793 c -2.43075,-2.34638 -12.23573,-9.07305 -12.96501,-14.43508 -0.21668,-1.58919 1.69701,-0.78868 3.16961,-2.55536 z" />
  <path
     style="fill:#e00e00;fill-opacity:1;stroke:#000000;stroke-width:1;stroke-linecap:butt;stroke-linejoin:miter;stroke-miterlimit:4;stroke-dasharray:none;stroke-opacity:1"
     id="path4273"
     d="m 302.48245,332.44469 16.92475,-5.44172 c 1.59388,-12.197 4.73145,-16.49878 -1.76615,-28.4047 -3.08889,-5.79496 -9.07865,-0.0245 -11.42782,3.71707 -5.43294,6.62415 -1.8856,15.45345 -3.73078,30.12935 z" />
  <path
     style="fill:none;stroke:#000000;stroke-width:1;stroke-linecap:butt;stroke-linejoin:miter;stroke-miterlimit:4;stroke-dasharray:none;stroke-opacity:1"
     id="path4225"
     d="m 180.27799,292.62568 23.32164,-15.66322 103.14655,51.10219" />
  <path
     style="fill:none;stroke:#000000;stroke-width:1;stroke-linecap:butt;stroke-linejoin:miter;stroke-miterlimit:4;stroke-dasharray:none;stroke-opacity:1"
     id="path4227"
     d="m 219.05825,277.22778 7.46277,40.74969" />
  <path
     style="fill:#000000;stroke:none;stroke-width:0.40000001;stroke-miterlimit:4;stroke-dasharray:none;stroke-opacity:1"
     id="path3844"
     d="m 88.17,196.38586 c -14.17178,1.93162 -14.00608,-6.46311 -18.02747,-14.84635 -5.80992,4.47378 -7.86472,9.67172 -10.48435,10.8575 -3.39833,1.53825 -7.58429,0.94499 -11.7202,6.54322 -0.89479,1.54934 0.18688,2.30563 1.73146,3.72206 -2.32397,3.40779 -4.58444,5.7021 -7.36439,10.09962 -1.9081,3.01837 3.99687,3.49708 3.40375,8.30476 -0.22206,3.92101 -8.75426,0.72693 -6.67058,10.25758 0.74445,1.86553 4.98753,5.78684 7.30248,2.97283 4.40971,-5.36037 9.22123,-10.83382 12.01525,-8.15923 3.27641,3.1365 6.98511,6.46752 6.98511,6.46752 -0.65346,1.63366 -10.1834,8.89391 -13.36388,12.44139 -14.07559,15.69977 -21.68677,14.50858 -21.93084,34.11803 -0.14743,11.82491 -3.3113,89.90248 40.94803,123.51103 40.40223,30.67959 125.16471,28.47027 203.19773,19.21719 17.95443,-2.12904 28.35288,-8.67749 42.22794,-15.41858 4.29704,6.60513 7.6597,13.59228 11.1542,19.49967 10.74004,0.0727 23.26205,-5.41572 26.97618,-16.89233 -8.44535,-3.34249 -16.92903,-7.66036 -21.28526,-15.41743 12.23323,-8.66284 14.93376,-12.08724 25.04126,-29.70646 11.9009,-20.7454 11.09789,-60.49315 11.05972,-88.75443 -0.004,-3.28819 -1.08008,-5.91275 -2.29569,-8.50858 -12.73322,-22.71342 -52.58557,-39.36121 -50.42281,-57.47642 -0.83825,7.88221 14.27247,12.4478 19.91824,4.08101 6.66072,-9.87092 1.21309,-26.40281 -13.31674,-25.62122 -11.49304,0.61978 -23.96847,14.4178 -16.1578,34.84671 8.58165,22.44543 37.24705,40.95737 36.53133,52.3321 -0.66746,10.61747 1.78219,20.57287 -5.5771,30.94941 -56.19961,45.30645 -250.78565,52.29014 -280.68239,-2.59346 -2.9389,-5.39521 -2.34708,-27.5524 0.45527,-35.04441 7.44766,-19.90821 23.64158,-29.99733 26.63451,-48.29398 0.83422,-5.1038 -0.003,-13.51004 -3.12255,-15.96546 2.93449,-1.15674 6.20895,-4.88751 6.83959,-7.52329 z" />
  <path
     style="fill:#000000;stroke:none"
     id="path4279"
     d="m 296.08562,331.64837 -13.7928,-33.91299 c -2.17682,-5.34932 -10.27115,-0.18093 -8.79633,4.44669 l 11.12786,34.90925 z" />
  <path
     style="fill:none;stroke:#ffffff;stroke-width:2.06407738;stroke-linecap:butt;stroke-linejoin:miter;stroke-miterlimit:4;stroke-dasharray:none;stroke-opacity:1"
     id="path3950"
     d="m 50.4592,306.25218 c 9.94313,16.96289 38.72463,37.61319 61.49947,40.60962 36.72311,4.83118 113.18186,-1.26049 169.77566,-1.685 24.14222,-0.18064 53.18643,-15.73665 68.61781,-45.07461" />
  <path
     style="fill:#000000;fill-opacity:1;stroke:none"
     id="path3797"
     d="m 200.77801,328.46094 0.1093,-181.19955 -6.26019,-4.28979 c -5.81276,-0.23414 -5.5524,6.49058 -6.76008,8.41789 -3.49178,5.57314 -5.64633,0.5507 -7.87919,4.97174 -1.44854,2.86759 -4.62125,5.32576 -8.37779,1.58949 7.12334,-1.90125 2.68488,-7.04911 8.36847,-8.85731 7.67443,-2.44173 2.8883,-6.69653 10.44921,-9.84967 l -7.15467,-6.48725 c -5.55326,5.60694 -3.8571,7.37366 -6.96452,10.83109 -2.1139,2.35201 -5.76692,-0.40099 -7.07302,3.53763 -0.94859,2.86015 -4.91313,6.13461 -10.46185,3.39368 9.57035,-2.8938 2.67015,-7.34376 9.31473,-9.34229 9.0186,-2.71239 3.93051,-7.64188 11.69228,-12.39213 l -6.28545,-6.97726 c -2.87183,0.30919 -5.45975,4.31279 -7.52439,9.33653 -2.90926,7.07816 -8.74612,1.95044 -11.92727,5.63732 -4.42067,5.12398 -9.14858,2.0567 -9.38389,1.45609 6.98522,-0.0906 4.79665,-4.08691 7.9186,-5.63439 1.75252,-0.8684 5.92398,0.18475 7.49449,-1.64182 4.23401,-4.92547 1.34599,-8.10255 11.51291,-14.67769 l 32.83007,1.11808 5.91879,211.30455 c -1.76106,1.6722 -7.3299,2.86234 -9.56114,-0.24494 z" />
  <path
     style="fill:#ffe000;fill-opacity:1;stroke:none"
     id="path3823"
     d="m 335.52587,207.33 a 1.776375,1.7137442 0 0 1 -3.55275,0 1.776375,1.7137442 0 1 1 3.55275,0 z" />
  <path
     style="fill:#ffe000;fill-opacity:1;stroke:none"
     id="path3825"
     d="m 358.96226,281.75519 a 3.2723662,3.2025997 0 0 1 -6.54466,0 3.2723662,3.2025997 0 1 1 6.54466,0 z" />
  <use
     xlink:href="#path3825"
     height="480"
     width="369"
     y="0"
     x="0"
     id="use3827"
     transform="matrix(0.64748322,0,0,0.65684239,123.74127,79.774926)" />
  <use
     xlink:href="#use3827"
     height="480"
     width="369"
     y="0"
     x="0"
     id="use3829"
     transform="translate(-6.2777163,-9.680126)" />
  <use
     xlink:href="#use3827"
     height="480"
     width="369"
     y="0"
     x="0"
     id="use3831"
     transform="translate(-15.691903,-17.356236)" />
  <use
     xlink:href="#use3831"
     height="480"
     width="369"
     y="0"
     x="0"
     id="use3833"
     transform="matrix(0.79107937,0,0,0.79041121,62.558757,43.114679)" />
  <use
     xlink:href="#use3833"
     height="480"
     width="369"
     y="0"
     x="0"
     id="use3835"
     transform="translate(-7.9759678,-7.361128)" />
  <path
     style="fill:#ffe000;fill-opacity:1;stroke:none"
     id="use3839"
     d="m 313.84874,213.41558 a 2.1458752,2.163439 0 0 1 -4.2917,0 2.1458752,2.163439 0 1 1 4.2917,0 z" />
  <path
     style="fill:#ffe000;fill-opacity:1;stroke:none"
     id="use3841"
     d="m 314.94721,202.895 a 2.1458752,2.163439 0 0 1 -4.29169,0 2.1458752,2.163439 0 1 1 4.29169,0 z" />
  <path
     style="fill:#ffe000;fill-opacity:1;stroke:none"
     id="use3843"
     d="m 320.75056,195.22583 a 1.8044037,1.7949932 0 0 1 -3.60879,0 1.8044037,1.7949932 0 1 1 3.60879,0 z" />
  <path
     style="fill:#ffe000;fill-opacity:1;stroke:none"
     id="use3845"
     d="m 329.78338,194.96198 a 1.8328607,1.7949947 0 0 1 -3.66558,0 1.8328607,1.7949947 0 1 1 3.66558,0 z" />
  <path
     style="fill:#ffe000;fill-opacity:1;stroke:none"
     id="use3847"
     d="m 334.99012,200.35825 a 1.7759512,1.7383127 0 0 1 -3.55187,0 1.7759512,1.7383127 0 1 1 3.55187,0 z" />
  <use
     xlink:href="#path3825"
     height="480"
     width="369"
     y="0"
     x="0"
     id="use3849"
     transform="matrix(1.4649275,0,0,1.6443812,-195.52399,-257.8578)" />
  <path
     style="fill:#ffffff;stroke:#000000;stroke-width:1;stroke-linecap:butt;stroke-linejoin:miter;stroke-miterlimit:4;stroke-dasharray:none;stroke-opacity:1"
     id="path3838"
     d="m 25.70084,151.70031 c -1.67682,3.55471 -6.1653,9.03206 3.53983,7.0747 6.12279,-1.23486 10.39716,-3.93189 14.16837,-5.60615 -3.31807,6.19383 -7.63708,12.94813 -12.17678,19.06809 -1.87478,2.52738 0.0332,4.455 3.06615,3.55837 10.57585,-3.12653 30.83661,-16.41463 44.79759,-30.53948 4.99935,-4.5292 11.16675,-7.84142 17.60385,-11.62895 10.34809,-6.08873 25.72078,-14.12577 43.71249,-23.44774 12.17958,-6.31055 25.12353,-14.007093 39.97338,-19.595622 17.86851,-6.724558 56.61913,-11.996215 75.99791,12.750322 11.7018,-1.641 20.57719,1.02518 27.74315,5.26064 4.83175,2.85582 8.88634,6.16493 12.50618,10.33456 9.46813,10.90621 15.43523,15.8147 40.11348,20.00653 l 5.85183,-8.96885 C 241.28575,15.800232 63.11382,24.426429 25.70084,151.70031 Z" />
  <path
     style="fill:#000000;stroke:#000000;stroke-width:0.2;stroke-linecap:round;stroke-linejoin:round;stroke-miterlimit:4;stroke-dasharray:none;stroke-opacity:1"
     id="path3836"
     d="m 23.57107,155.66375 c 22.00839,-14.50708 19.47963,-44.19479 32.03208,-51.62098 9.72471,-5.753274 17.29301,4.96681 7.28005,13.22587 -0.78201,0.64504 11.65927,15.05543 14.82651,13.40916 12.89385,-6.70196 28.07876,-15.77803 37.19933,-30.44241 -10.18573,0.47403 -24.11596,0.99271 -26.17613,-2.84725 39.18101,1.81737 60.85719,-4.508533 82.49402,-16.36763 -3.87868,-2.315493 -8.25891,-2.822481 -8.25891,-2.822481 0,0 -0.3207,-0.469013 0.29499,-0.753517 7.16147,-3.309466 16.72872,-7.542756 40.61662,-7.799932 24.03564,-0.258767 46.28233,11.313766 55.48314,23.512892 44.42829,-3.596505 33.77582,29.913788 79.48053,38.584718 -12.81412,35.70973 14.91381,54.08704 38.05679,50.31687 -10.62049,-7.16715 -4.80175,-19.30541 -1.06034,-31.40295 1.67426,-5.41361 -0.88704,-14.87884 -4.82357,-16.94107 3.30265,-4.33335 3.64239,-9.49505 3.64574,-12.89958 0.0106,-10.71159 -6.23211,-12.61355 0.0549,-23.42732 1.60528,-2.761106 -2.30746,-5.917398 -7.87821,-5.267086 -7.47035,0.872066 -13.3328,6.834224 -15.97713,11.199796 -12.26427,-25.18374 -34.55025,-39.650537 -40.51821,-43.436627 -6.47432,-4.107329 -3.82315,-7.910877 -1.11115,-10.486189 3.82565,-3.632828 7.61638,-3.873872 10.82671,-3.594054 4.01004,0.349523 9.02025,-4.968089 -1.91891,-8.704373 -7.98089,-2.725884 -20.93912,-1.708518 -43.57847,-0.398562 -7.91088,0.457739 -22.8322,-5.498896 -30.81142,-7.453932 -19.50425,-4.77885 -40.91297,-9.008562 -60.83598,-8.772205 -29.46273,0.34953 -55.57666,6.117856 -81.66272,16.302711 -19.14014,7.472936 -32.91589,17.864998 -43.46177,27.552484 -9.91963,9.112215 -16.11562,19.154616 -19.23281,33.058037 -14.01108,12.69091 -6.2487,36.49734 -14.98568,58.27561 z" />
  <path
     style="fill:#000000;stroke:none;stroke-width:0.2;stroke-miterlimit:4;stroke-dasharray:none;stroke-opacity:1"
     id="path3840"
     d="m 23.70003,158.63593 c 11.44634,-5.94911 16.89147,-17.36856 21.25791,-27.97899 4.58882,-11.15082 7.92539,-21.41919 13.20379,-23.97469 5.12021,-2.47892 8.01396,0.15064 5.51212,3.23636 -1.03492,1.27644 -4.50058,6.96367 -5.90373,9.07007 -7.7551,11.64193 -4.90397,20.32227 -13.69368,33.8668 -2.60254,1.29172 -15.37513,8.25951 -20.37641,5.78045 z" />
  <path
     style="fill:#e00e00;fill-opacity:1;stroke:#000000;stroke-width:1;stroke-linecap:butt;stroke-linejoin:miter;stroke-miterlimit:4;stroke-dasharray:none;stroke-opacity:1"
     id="path3882"
     d="m 94.41425,293.28813 c 79.67352,-26.37116 156.03675,-13.88708 191.95649,-2.67356 -20.82843,-58.32923 -21.68436,-84.08835 -25.38159,-118.3539 -5.28967,6.90926 -39.44011,9.51679 -47.78155,1.3452 -6.67118,7.50718 -32.93666,9.78953 -43.783,1.2828 -10.71667,3.74759 -25.23405,5.11423 -33.96388,-0.15925 -26.33839,38.3956 -42.23797,71.58122 -41.04647,118.55953 z" />
  <path
     style="fill:#ffffff;stroke:#000000;stroke-width:1;stroke-linecap:butt;stroke-linejoin:miter;stroke-miterlimit:4;stroke-dasharray:none;stroke-opacity:1"
     id="path3926"
     d="m 111.88325,288.03551 c 7.17062,-1.68073 14.31171,-3.36267 22.7365,-5.04464 -1.04952,-37.16181 7.02291,-65.65691 23.13362,-105.43037 -3.07824,0.20548 -5.13526,-1.43575 -5.91854,-3.93941 -3.11964,2.78255 -5.89756,3.71667 -9.45968,3.6067 -12.38528,26.83296 -34.40876,67.13232 -30.4919,110.80772 z" />
  <path
     style="fill:#ffffff;stroke:#000000;stroke-width:1;stroke-linecap:butt;stroke-linejoin:miter;stroke-miterlimit:4;stroke-dasharray:none;stroke-opacity:1"
     id="path3928"
     d="m 180.54953,179.12589 c 5.88468,-0.004 8.7158,-2.55975 10.76657,-5.24547 3.37063,4.91888 6.05555,5.3807 10.91785,4.99601 -10.04631,33.25098 -12.79137,68.75801 -13.35006,98.7864 -10.49649,0.002 -20.18652,0.85325 -29.19563,1.70042 -2.68561,-41.49809 11.31444,-72.18489 20.86127,-100.23736 z" />
  <path
     style="fill:#ffffff;stroke:#000000;stroke-width:1;stroke-linecap:butt;stroke-linejoin:miter;stroke-miterlimit:4;stroke-dasharray:none;stroke-opacity:1"
     id="path3930"
     d="m 221.7279,278.65649 c 11.71571,0.95588 21.60733,2.12898 31.7208,4.02258 -7.80867,-33.75089 -7.34313,-68.61415 -3.89829,-105.51539 -6.29325,0.90404 -9.09191,-0.98935 -11.78139,-3.99603 -2.22983,3.32283 -5.31098,5.50604 -10.57213,5.14016 -4.50099,22.99887 -10.69421,63.15442 -5.46899,100.34868 z" />
  <path
     style="fill:none;stroke:#ffffff;stroke-width:2.12798333;stroke-linecap:butt;stroke-linejoin:miter;stroke-miterlimit:4;stroke-dasharray:none;stroke-opacity:1"
     id="path3952"
     d="m 349.8838,315.78243 c -18.30025,29.27492 -48.9169,55.73253 -81.95167,56.22952 -52.33516,0.78637 -123.38195,2.06073 -142.73205,-2.49399 -44.6765,-10.51671 -60.84762,-36.44237 -75.34901,-53.96224" />
  <path
     style="fill:none;stroke:#ffffff;stroke-width:2.12798333;stroke-linecap:butt;stroke-linejoin:miter;stroke-miterlimit:4;stroke-dasharray:none;stroke-opacity:1"
     id="path3954"
     d="m 50.30637,328.02571 c 14.38886,24.17979 47.57181,56.65232 90.30489,59.92159 15.42642,1.18003 93.86687,3.58153 126.8423,0.17272 32.38293,-3.34898 63.90038,-27.94905 82.41537,-58.67788" />
  <path
     style="fill:none;stroke:#ffffff;stroke-width:2.55357575;stroke-linecap:round;stroke-linejoin:miter;stroke-miterlimit:4;stroke-dasharray:none;stroke-opacity:1"
     id="path3956"
     d="m 49.66497,292.88677 1.28778,46.17354 c 0.48119,17.25394 45.52886,65.24604 97.38502,65.09172 l 107.84802,-0.32126 c 48.39423,-0.14677 94.16751,-35.93246 94.00449,-73.58881 l -0.15901,-37.19512" />
  <use
     xlink:href="#use3839"
     height="480"
     width="369"
     y="0"
     x="0"
     id="use3968"
     transform="translate(3.8699148,9.182642)" />
  <use
     xlink:href="#path3825"
     height="480"
     width="369"
     y="0"
     x="0"
     id="use3970"
     transform="translate(-313.73518,1.1025277)" />
  <use
     xlink:href="#use3970"
     height="480"
     width="369"
     y="0"
     x="0"
     id="use3972"
     transform="matrix(0.63107473,0,0,0.61202992,18.732044,92.466398)" />
  <use
     xlink:href="#use3972"
     height="480"
     width="369"
     y="0"
     x="0"
     id="use3974"
     transform="translate(7.3041417,-8.4837009)" />
  <use
     xlink:href="#use3972"
     height="480"
     width="369"
     y="0"
     x="0"
     id="use3976"
     transform="translate(13.521262,-15.551356)" />
  <use
     xlink:href="#use3972"
     height="480"
     width="369"
     y="0"
     x="0"
     id="use3978"
     transform="matrix(1.0357675,0,0,0.95289518,18.118527,-9.8674304)" />
  <use
     xlink:href="#use3972"
     height="480"
     width="369"
     y="0"
     x="0"
     id="use3980"
     transform="matrix(0.77497747,0,0,0.84954306,36.488914,9.5808806)" />
  <use
     xlink:href="#use3980"
     height="480"
     width="369"
     y="0"
     x="0"
     id="use3982"
     transform="matrix(1.0461529,0,0,1.0776261,0.52889346,-25.314935)" />
  <use
     xlink:href="#use3982"
     height="480"
     width="369"
     y="0"
     x="0"
     id="use3984"
     transform="translate(-29.89492,0.67505388)" />
  <path
     style="fill:#e00e00;fill-opacity:1;stroke:#000000;stroke-width:1.06400001;stroke-linecap:butt;stroke-linejoin:miter;stroke-miterlimit:4;stroke-dasharray:none;stroke-opacity:1"
     id="path4060"
     d="m 53.43645,232.45787 c 1.12475,-0.37152 1.25599,-2.91412 -1.65037,-2.26723 -3.73528,0.83182 -4.35421,7.22585 -0.73987,8.95571 6.8004,3.25643 10.82847,-4.86447 9.73163,-11.95985 l -5.12194,-2.66402 c 2.60691,6.95403 1.06163,12.50305 -2.21945,11.90313 -2.75791,-0.50325 -1.64923,-3.42176 0,-3.96774 z" />
  <path
     style="fill:#ffe000;fill-opacity:1;stroke:none;stroke-width:0.2;stroke-miterlimit:4;stroke-dasharray:none;stroke-opacity:1"
     id="path4062"
     d="m 66.1352,200.50916 c -1.68965,-3.42645 -1.38766,-3.49186 -0.85787,-4.08187 0.65377,-0.72809 1.48221,-1.67513 2.21281,-2.25939 0.45347,-0.36263 1.42514,1.46627 2.50702,3.60002 0.50794,1.91449 0.0676,1.58289 -2.07653,4.40724 -0.57866,0.76226 2.03051,2.4642 3.2905,1.54695 1.08426,-0.78932 1.87915,-1.74253 3.01714,-4.0439 0.57123,-1.1552 -1.43852,-4.4933 -2.28296,-6.21335 -1.04406,-2.3077 -2.33422,-8.0047 -3.03361,-6.86009 -2.37716,3.89038 -8.5071,8.71599 -8.59627,9.85171 -0.12871,1.63938 1.10074,1.45351 1.78564,4.72553 0.43596,2.08273 4.7145,0.70687 4.03413,-0.67285 z" />
  <path
     style="fill:#ffe000;fill-opacity:1;stroke:none;stroke-width:0.30000001;stroke-linecap:round;stroke-linejoin:round;stroke-miterlimit:4;stroke-dasharray:none;stroke-opacity:1"
     id="path4064"
     d="m 63.29332,207.68385 c -1.15544,-0.64135 -2.77254,-0.62856 -5.29789,0.90857 -1.62616,0.9898 -0.013,-3.84881 1.59425,-3.91241 7.56399,-0.5258 7.41085,5.62562 16.85499,1.68037 0.93691,-0.39139 0.29671,1.23104 -0.63503,2.38297 -1.54667,1.91219 -5.99383,1.74418 -10.28956,-0.42677 -0.0444,2.08643 -0.27573,5.57507 -2.41487,9.01781 -1.52403,2.45278 0.93729,3.31404 1.12688,2.79247 0.57665,-1.5864 1.87865,-1.87913 1.65029,-0.82885 -1.39958,6.43722 -1.29848,0.95954 -7.2149,1.68412 -2.84254,0.34812 -2.66492,-2.26756 -2.50361,-4.07989 0.0813,-0.91374 2.26138,-0.87799 2.29749,-0.24119 0.0994,1.75336 0.10225,3.24368 1.88059,1.32834 1.65253,-1.77984 3.29193,-9.19165 2.95137,-10.30554 z" />
  <path
     style="fill:#ffe000;fill-opacity:1;stroke:none"
     id="path4066"
     d="m 70.908595,220.28885 c -1.51887,-1.1603 -2.51344,-1.61638 -3.30004,-0.7405 -1.9285,2.14668 0.71618,6.3125 1.77091,4.6486 1.57594,-2.48619 2.551805,-3.24106 4.541695,-3.45978 2.85289,-0.31377 7.67948,3.87228 8.94355,1.167 0.36716,-0.78594 -1.58863,-1.42189 -3.32403,-2.19231 -1.72712,-0.76726 -2.48465,-1.77671 -3.43696,-3.419 -1.06946,2.15371 -1.977615,0.71843 -3.546795,2.03183 -0.31851,0.266 -0.45066,2.13361 -0.71683,2.76269 -0.34478,-0.30733 -0.42631,-0.41205 -0.9315,-0.79853 z" />
  <path
     style="fill:#000000;fill-opacity:1;stroke:#ffffff;stroke-width:1.59598494;stroke-miterlimit:4;stroke-dasharray:none;stroke-opacity:1"
     id="path4068"
     d="m 151.63756,359.88129 a 4.55975,4.291446 0 0 1 -9.1195,0 4.55975,4.291446 0 1 1 9.1195,0 z" />
  <use
     xlink:href="#path4068"
     height="480"
     width="369"
     y="0"
     x="0"
     id="use4070"
     transform="matrix(0.8725722,0,0,0.87744993,60.703843,44.386947)" />
  <use
     xlink:href="#path4068"
     height="480"
     width="369"
     y="0"
     x="0"
     id="use4072"
     transform="translate(85.289865,0)" />
  <use
     xlink:href="#path4068"
     height="480"
     width="369"
     y="0"
     x="0"
     id="use4074"
     transform="translate(128.70136,-0.9069271)" />
  <path
     style="fill:#ffffff;fill-opacity:1;stroke:#000000;stroke-width:1.83674598;stroke-linecap:round;stroke-linejoin:round;stroke-miterlimit:4;stroke-dasharray:none;stroke-dashoffset:42.65618134;stroke-opacity:1"
     id="path4076"
     d="m 336.1893,397.64648 a 2.1131165,2.0196427 0 1 1 -4.2262,0 2.1131165,2.0196427 0 1 1 4.2262,0 z" />
  <path
     style="fill:#ffffff;stroke:none"
     id="path4189"
     d="m 343.24913,271.8574 25.5799,0.0821 c 0.26889,1.09449 0.34631,2.05917 0.47565,3.14233 l -25.6979,0.0171 c 0.0528,-1.1127 0.006,-1.86624 -0.35765,-3.23978 z" />
  <path
     style="fill:none;stroke:#000000;stroke-width:1;stroke-linecap:butt;stroke-linejoin:miter;stroke-miterlimit:4;stroke-dasharray:none;stroke-opacity:1"
     id="path4215"
     d="m 65.66929,314.65918 29.18527,-21.50262 c 31.85026,8.42801 70.47046,13.48526 106.87849,19.64462" />
  <path
     style="fill:none;stroke:#000000;stroke-width:1;stroke-linecap:butt;stroke-linejoin:miter;stroke-miterlimit:4;stroke-dasharray:none;stroke-opacity:1"
     id="path4233"
     d="M 261.56919,171.04202 337.26417,307.8892" />
  <path
     style="fill:#000000;stroke:none"
     id="path4237"
     d="m 128.93426,170.81321 c -3.01125,0.38546 -3.73222,3.15994 0.36819,3.11389 45.47665,-0.50771 94.40639,-1.8527 145.0261,-1.78982 2.05483,0.001 2.07984,-3.3963 -0.22443,-3.54285 -48.80651,-3.09932 -97.36219,-3.8877 -145.16986,2.21878 z" />
  <path
     style="fill:#ffffff;stroke:#000000;stroke-width:1;stroke-linecap:round;stroke-linejoin:round;stroke-miterlimit:4;stroke-dasharray:none;stroke-opacity:1"
     id="path4257"
     d="m 139.67682,168.73583 c -2.95076,1.53547 -3.47866,4.19204 -2.27827,6.29181 -1.8547,0.50704 -4.44966,-1.71039 -3.66254,-4.38998 0.62586,-2.1282 3.33339,-4.30569 5.94081,-1.90183 z" />
  <use
     xlink:href="#path4257"
     height="480"
     width="369"
     y="0"
     x="0"
     id="use4259"
     transform="translate(15.858609,-0.1990993)" />
  <use
     xlink:href="#path4257"
     height="480"
     width="369"
     y="0"
     x="0"
     id="use4261"
     transform="matrix(1,0,0,1.1177448,33.34962,-21.228291)" />
  <use
     xlink:href="#path4257"
     height="480"
     width="369"
     y="0"
     x="0"
     id="use4263"
     transform="matrix(1.161438,-0.16262938,0.1703301,1.11785,26.026483,-0.30401563)" />
  <use
     xlink:href="#path4257"
     height="480"
     width="369"
     y="0"
     x="0"
     id="use4265"
     transform="matrix(-0.91846084,0.39393053,-0.39709968,-0.91846084,431.62595,273.09464)" />
  <use
     xlink:href="#path4257"
     height="480"
     width="369"
     y="0"
     x="0"
     id="use4267"
     transform="matrix(-0.9659818,-0.20599324,-0.25964825,0.77253188,437.38688,65.729068)" />
  <path
     style="fill:none;stroke:#000000;stroke-width:1;stroke-linecap:butt;stroke-linejoin:miter;stroke-miterlimit:4;stroke-dasharray:none;stroke-opacity:1"
     id="path4269"
     d="M 202.13338,158.29953 54.74177,298.33284" />
  <path
     style="fill:none;stroke:#000000;stroke-width:1;stroke-linecap:butt;stroke-linejoin:miter;stroke-miterlimit:4;stroke-dasharray:none;stroke-opacity:1"
     id="path4271"
     d="M 232.51749,317.57873 204.53174,158.03411" />
  <path
     style="fill:#ffffff;stroke:#000000;stroke-width:0.80000001;stroke-linecap:round;stroke-linejoin:round;stroke-miterlimit:4;stroke-dasharray:none;stroke-opacity:1"
     id="path4287"
     d="m 304.47497,285.35298 c 0.4448,2.37274 -0.8248,3.65543 -1.07964,5.36476 -0.12583,0.82393 0.92214,0.69992 1.51079,0.7108 -0.51393,1.4632 1.06365,2.43677 0.37352,3.47522 -1.12623,1.69771 2.59371,1.52273 3.66709,0.99717 1.86834,-0.91488 1.02228,0.70289 1.3603,1.88767 0.3448,1.21356 5.2176,0.49532 5.27798,-2.28904 0.0797,-3.73193 -2.66191,-5.47938 -2.49972,-8.94467 -1.72262,-0.71882 -4.65966,-1.38823 -8.61032,-1.20191 z" />
  <path
     id="path4312"
     d="m 314.1342,287.0343 2.68982,5.56244 c -0.30053,1.00911 -1.84143,1.31456 -3.26434,0.44395 -3.64606,-2.23084 -4.40613,-5.4868 -4.67454,-8.12169 2.2536,0.40924 4.27755,-0.15297 5.24906,2.1153 z"
     style="fill:#e00e00;fill-opacity:1;fill-rule:evenodd;stroke:#000000;stroke-width:1px;stroke-linecap:butt;stroke-linejoin:miter;stroke-opacity:1" />
  <path
     style="fill:#000000;stroke:none"
     id="path4281"
     d="m 298.26908,296.60732 c 1.47922,-0.61324 3.43053,1.96486 1.53876,2.91861 l -18.62441,9.39005 -1.61937,-4.55217 z" />
  <path
     style="fill:none;stroke:#000000;stroke-width:1.06399167px;stroke-linecap:round;stroke-linejoin:miter;stroke-opacity:1"
     id="path4307"
     d="m 311.0196,308.46344 c 0.39684,0.61921 1.421,1.25295 1.49032,2.27348 0.37021,5.45063 -4.11229,15.83 -5.07075,19.82954" />
  <path
     style="fill:#ffffff;stroke:#000000;stroke-width:1.06399167px;stroke-linecap:butt;stroke-linejoin:miter;stroke-opacity:1"
     id="path4309"
     d="m 290.97731,298.01398 c -1.29155,-0.40438 -4.64064,2.50351 -4.5063,4.06182 0.1209,1.3577 -0.39085,3.49624 1.60356,3.00941 1.19319,-0.6593 2.34592,-0.49128 2.84334,-1.51251 0.73442,-1.50683 2.47334,-1.16123 2.84763,-1.58397 1.44876,-1.03825 -0.22046,-3.1712 -2.78823,-3.97476 z" />
  <path
     style="fill:#ffffff;stroke:none"
     id="path4311"
     d="m 282.36076,302.92715 c -2.26899,1.88006 -0.78443,4.94861 1.57535,5.02866 -0.59212,0.95866 -3.66778,1.27006 -4.45447,-1.73694 -0.55881,-2.13547 1.06066,-3.50888 2.87912,-3.29172 z" />
  <circle
     r="3.2041647"
     cy="97.335136"
     cx="58.833485"
     id="path4300"
     style="opacity:1;fill:#ffffff;fill-opacity:1;fill-rule:evenodd;stroke:none;stroke-width:0.14393419;stroke-linecap:butt;stroke-linejoin:round;stroke-miterlimit:4;stroke-dasharray:none;stroke-opacity:1" />
  <circle
     style="opacity:1;fill:#000000;fill-opacity:1;fill-rule:evenodd;stroke:none;stroke-width:0.1;stroke-linecap:butt;stroke-linejoin:round;stroke-miterlimit:4;stroke-dasharray:none;stroke-opacity:1"
     id="circle4302"
     cx="58.833485"
     cy="97.335136"
     r="2.2261319" />
  <path
     id="path4304"
     d="m 110.09974,81.432961 c 21.90315,-7.411562 35.54269,-6.90126 54.47435,-3.563733"
     style="fill:none;fill-rule:evenodd;stroke:#ffffff;stroke-width:1px;stroke-linecap:round;stroke-linejoin:miter;stroke-opacity:1" />
  <circle
     r="3.3607955"
     cy="213.15057"
     cx="51.519886"
     id="path4306"
     style="opacity:1;fill:#ffe000;fill-opacity:1;fill-rule:evenodd;stroke:none;stroke-width:0.2;stroke-linecap:round;stroke-linejoin:round;stroke-miterlimit:4;stroke-dasharray:none;stroke-opacity:1" />
  <circle
     style="opacity:1;fill:#000000;fill-opacity:1;fill-rule:evenodd;stroke:#000000;stroke-width:0.08441965;stroke-linecap:round;stroke-linejoin:round;stroke-miterlimit:4;stroke-dasharray:none;stroke-opacity:1"
     id="circle4308"
     cx="51.519886"
     cy="213.15057"
     r="1.4185858" />
  <path
     style="fill:#ffffff;stroke:#000000;stroke-width:1;stroke-linecap:butt;stroke-linejoin:round;stroke-miterlimit:4;stroke-dasharray:none;stroke-opacity:1"
     id="path4283"
     d="m 304.22321,283.17747 c 3.3917,-0.24913 8.91991,0.22734 11.74415,2.52609 0.79898,-4.82226 1.22355,-13.86649 -1.461,-14.40707 -2.2191,-0.4559 -8.25569,7.27942 -10.28315,11.88098 z" />
  <path
     id="path4310"
     d="m 316.74567,292.3617 -2.66371,-5.24906 c -0.58519,-1.15317 -6.39936,-2.0987 -10.75927,-1.90638 l 0.90052,-2.02879 c 2.63838,-0.46381 8.09186,0.0708 11.53009,2.13325 l 2.95097,6.42423 z"
     style="fill:#ffffff;fill-rule:evenodd;stroke:#000000;stroke-width:1px;stroke-linecap:round;stroke-linejoin:round;stroke-opacity:1" />
  <path
     id="path4314"
     d="m 311.80998,286.19864 c 0.2027,2.32698 1.63857,5.14439 4.41339,6.84206"
     style="fill:none;fill-rule:evenodd;stroke:#000000;stroke-width:0.80000001;stroke-linecap:butt;stroke-linejoin:miter;stroke-miterlimit:4;stroke-dasharray:none;stroke-opacity:1" />
  <path
     style="fill:#ffffff;fill-opacity:1;stroke:#000000;stroke-width:1.11978006;stroke-opacity:1"
     id="path4414"
     d="m 283.3485,332.86872 a 20.837125,20.753808 0 1 1 -41.67425,0 20.837125,20.753808 0 1 1 41.67425,0 z" />
  <path
     style="fill:#ffe000;fill-opacity:1;stroke:#000000;stroke-width:0.94999999;stroke-miterlimit:4;stroke-dasharray:none;stroke-opacity:1"
     id="path4416"
     d="m 280.19713,332.8687 a 17.68576,17.615043 0 0 1 -35.37152,0 17.68576,17.615043 0 1 1 35.37152,0 z" />
  <path
     d="m 267.01802,332.86898 a 4.5081272,4.4477417 0 1 1 -9.01625,0 4.5081272,4.4477417 0 1 1 9.01625,0 z"
     id="path4418"
     style="fill:#ffffff;fill-opacity:1;stroke:#000000;stroke-opacity:1" />
  <path
     style="fill:#000000;fill-opacity:1;stroke:none"
     id="path4420"
     d="m 264.01802,332.86898 a 1.5081272,1.4879261 0 1 1 -3.01625,0 1.5081272,1.4879261 0 1 1 3.01625,0 z" />
  <path
     style="fill:#ffffff;fill-opacity:1;stroke:#000000;stroke-width:1.11978078;stroke-opacity:1"
     id="path4430"
     d="m 262.51138,332.8687 a 20.83713,20.753816 0 0 1 -41.67426,0 20.83713,20.753816 0 1 1 41.67426,0 z" />
  <path
     style="fill:#000000;fill-opacity:1;stroke:none"
     id="path4432"
     d="m 259.36002,332.86844 a 17.685788,17.615069 0 0 1 -35.37156,0 17.685788,17.615069 0 1 1 35.37156,0 z" />
  <use
     xlink:href="#path3851-4"
     height="480"
     width="369"
     y="0"
     x="0"
     style="stroke-width:3.29892206;stroke-miterlimit:4;stroke-dasharray:none"
     id="use4434"
     transform="matrix(0.21219052,0,0,0.21219052,208.33024,262.23733)" />
  <path
     style="fill:#000000;fill-opacity:1;stroke:none"
     id="path4436"
     d="m 243.18082,332.86903 a 1.50815,1.48795 0 0 1 -3.0163,0 1.50815,1.48795 0 1 1 3.0163,0 z" />
  <path
     d="m 241.67425,332.86872 a 20.837125,20.753808 0 1 1 -41.67425,0 20.837125,20.753808 0 1 1 41.67425,0 z"
     id="path4406"
     style="fill:#ffffff;fill-opacity:1;stroke:#000000;stroke-width:1.11978006;stroke-opacity:1" />
  <path
     d="m 238.52288,332.8687 a 17.68576,17.615043 0 0 1 -35.37152,0 17.68576,17.615043 0 1 1 35.37152,0 z"
     id="path4408"
     style="fill:#ffe000;fill-opacity:1;stroke:#000000;stroke-width:0.94999999;stroke-miterlimit:4;stroke-dasharray:none;stroke-opacity:1" />
  <path
     style="fill:#ffffff;fill-opacity:1;stroke:#000000;stroke-opacity:1"
     id="path4410"
     d="m 225.34377,332.86898 a 4.5081272,4.4477417 0 1 1 -9.01625,0 4.5081272,4.4477417 0 1 1 9.01625,0 z" />
  <path
     d="m 222.34377,332.86898 a 1.5081272,1.4879261 0 1 1 -3.01625,0 1.5081272,1.4879261 0 1 1 3.01625,0 z"
     id="path4412"
     style="fill:#000000;fill-opacity:1;stroke:none" />
  <path
     d="m 220.83714,332.88571 a 20.83713,20.753816 0 0 1 -41.67426,0 20.83713,20.753816 0 1 1 41.67426,0 z"
     id="path4422"
     style="fill:#ffffff;fill-opacity:1;stroke:#000000;stroke-width:1.11978078;stroke-opacity:1" />
  <path
     d="m 217.68578,332.88545 a 17.685788,17.615069 0 0 1 -35.37156,0 17.685788,17.615069 0 1 1 35.37156,0 z"
     id="path4424"
     style="fill:#000000;fill-opacity:1;stroke:none" />
  <use
     transform="matrix(0.21219052,0,0,0.21219052,166.656,262.25434)"
     id="use4426"
     style="stroke-width:3.29892206;stroke-miterlimit:4;stroke-dasharray:none"
     x="0"
     y="0"
     width="369"
     height="480"
     xlink:href="#path3851-4" />
  <path
     d="m 201.50658,332.88604 a 1.50815,1.48795 0 0 1 -3.0163,0 1.50815,1.48795 0 1 1 3.0163,0 z"
     id="path4428"
     style="fill:#000000;fill-opacity:1;stroke:none" />
  <path
     style="fill:#ffffff;fill-opacity:1;stroke:#000000;stroke-width:1.11978006;stroke-opacity:1"
     id="path4396"
     d="m 200,332.86872 a 20.837125,20.753808 0 1 1 -41.67425,0 20.837125,20.753808 0 1 1 41.67425,0 z" />
  <path
     style="fill:#ffe000;fill-opacity:1;stroke:#000000;stroke-width:0.94999999;stroke-miterlimit:4;stroke-dasharray:none;stroke-opacity:1"
     id="path4398"
     d="m 196.84863,332.8687 a 17.68576,17.615043 0 0 1 -35.37152,0 17.68576,17.615043 0 1 1 35.37152,0 z" />
  <path
     d="m 183.66952,332.86898 a 4.5081272,4.4477417 0 1 1 -9.01625,0 4.5081272,4.4477417 0 1 1 9.01625,0 z"
     id="path4400"
     style="fill:#ffffff;fill-opacity:1;stroke:#000000;stroke-opacity:1" />
  <path
     style="fill:#000000;fill-opacity:1;stroke:none"
     id="path4402"
     d="m 180.66952,332.86898 a 1.5081272,1.4879261 0 1 1 -3.01625,0 1.5081272,1.4879261 0 1 1 3.01625,0 z" />
  <path
     style="fill:#ffffff;fill-opacity:1;stroke:#000000;stroke-width:1.11978078;stroke-opacity:1"
     id="path3851-4"
     d="m 177.97792,332.86831 a 20.83713,20.753816 0 0 1 -41.67426,0 20.83713,20.753816 0 1 1 41.67426,0 z" />
  <path
     style="fill:#000000;fill-opacity:1;stroke:none"
     id="path3851-5"
     d="m 174.82656,332.86805 a 17.685788,17.615069 0 0 1 -35.37156,0 17.685788,17.615069 0 1 1 35.37156,0 z" />
  <use
     xlink:href="#path3851-4"
     height="480"
     width="369"
     y="0"
     x="0"
     style="stroke-width:3.29892206;stroke-miterlimit:4;stroke-dasharray:none"
     id="use3853-4-2"
     transform="matrix(0.21219052,0,0,0.21219052,123.79678,262.23694)" />
  <path
     style="fill:#000000;fill-opacity:1;stroke:none"
     id="path3918-4"
     d="m 158.64736,332.86864 a 1.50815,1.48795 0 0 1 -3.0163,0 1.50815,1.48795 0 1 1 3.0163,0 z" />
  <path
     d="m 152.71912,332.86844 a 20.837125,20.753808 0 1 1 -41.67425,0 20.837125,20.753808 0 1 1 41.67425,0 z"
     id="path3851"
     style="fill:#ffffff;fill-opacity:1;stroke:#000000;stroke-width:1.11978006;stroke-opacity:1" />
  <path
     d="m 149.56775,332.86842 a 17.68576,17.615043 0 0 1 -35.37152,0 17.68576,17.615043 0 1 1 35.37152,0 z"
     id="path3851-8"
     style="fill:#ffe000;fill-opacity:1;stroke:#000000;stroke-width:0.94999999;stroke-miterlimit:4;stroke-dasharray:none;stroke-opacity:1" />
  <path
     style="fill:#ffffff;fill-opacity:1;stroke:#000000;stroke-opacity:1"
     id="path4386"
     d="m 136.38864,332.8687 a 4.5081272,4.4477417 0 1 1 -9.01625,0 4.5081272,4.4477417 0 1 1 9.01625,0 z" />
  <path
     d="m 133.38864,332.8687 a 1.5081272,1.4879261 0 1 1 -3.01625,0 1.5081272,1.4879261 0 1 1 3.01625,0 z"
     id="path3918"
     style="fill:#000000;fill-opacity:1;stroke:none" />
  <path
     d="m 30.60051,271.78077 26.23012,0.0279 c -0.1104,1.14867 -0.55386,3.19651 -0.55386,3.19651 l -26.023,0.0171 c 0.0351,-1.33382 0.34674,-3.24153 0.34674,-3.24153 z"
     id="path4438"
     style="fill:#ffffff;stroke:none" />
</svg>
