<svg xmlns="http://www.w3.org/2000/svg" xmlns:xlink="http://www.w3.org/1999/xlink" height="300" width="500"><defs><path id="a" d="M24,500c12.4,11.3,71.2,42.4,119.4,42.4-62.9-46.6-85.6-60.6-93-95.9-7.4-35.2,16.5-74.1,33.7-82.1,10.6-6.8,33.5-9.8,53.7-2,26.4,11.8,27.5,45.1,14.3,60.4,124.9-18,112.5-111.5,70-145.4-34.4-27.4-71.9-31.7-100.8-23.1-65.7,18.3-118.3,79.1-120.4,169.9,0,0,11.3,65.3,23.1,75.8z"/><g id="g" transform="scale(0.26)" style="fill:#fee111;stroke-width:4"><path id="b" d="M270.7,3.9 c-0.5-0.4-0.7-0.4-1.2,0.2-22.3,19.3-42.1,37.2-57.6,57.1-43.5,55.8-58.1,116.4-33.7,165.4,48.3,103.8,66.7,130.1,66.7,212.7l-11.5,51.3 c-1.6,26.4-20,47.4-54.6,59.2,4.4,11.1,25.1,33.8,53.7,32.3,5.6,24,11.2,37.4,37,59.2,0.6,0.5,0.6,0.5,1.2,0,25.8-21.8,31.4-35.2,37-59.2,28.6,1.5,49.3-21.2,53.7-32.3-34.6-11.8-53-32.8-54.6-59.2l-11.5-51.3 c0-82.6,18.4-108.9,66.7-212.7,24.3-49,9.8-109.6-33.7-165.4-15.5-20-35.2-38-57.6-57.3z"/><use id="c" transform="matrix(-1,0,0,1,0,0)" x="-253.9" y="0" xlink:href="#a"/><use id="d" x="284.9" y="0" xlink:href="#a"/><rect id="e" height="53.94" width="203.9" y="402.7" x="168.2"/></g></defs><clipPath id="l"><path d="M0,0h271v800h-271z"/></clipPath><clipPath id="r"><path d="M269,0h300v800h-300z"/></clipPath><path d="M0,0h500v300h-500z" fill="#231f20"/><path d="M0,0h250v300h-250z" fill="#1478c7"/><use x="55" y="19" xlink:href="#g" stroke="#1478c7"/><use x="-445" y="19" xlink:href="#g" transform="matrix(-1,0,0,1,0,0)" stroke="#231f20"/><g transform="translate(180,115)" style="fill:#fee111;stroke-width:4"><g transform="scale(0.26)"><use xlink:href="#d" stroke="#231f20"/><use xlink:href="#c" stroke="#1478c7"/><use xlink:href="#b" stroke="#1478c7" clip-path="url(#l)"/><use xlink:href="#b" stroke="#231f20" clip-path="url(#r)"/><use xlink:href="#e" stroke="#1478c7" clip-path="url(#l)"/><use xlink:href="#e" stroke="#231f20" clip-path="url(#r)"/></g></g></svg>