<?xml version="1.0" encoding="UTF-8" standalone="no"?>
<svg
   xmlns:dc="http://purl.org/dc/elements/1.1/"
   xmlns:cc="http://creativecommons.org/ns#"
   xmlns:rdf="http://www.w3.org/1999/02/22-rdf-syntax-ns#"
   xmlns:svg="http://www.w3.org/2000/svg"
   xmlns="http://www.w3.org/2000/svg"
   xml:space="preserve"
   enable-background="new 30.5 31.5 412 533"
   viewBox="30.5 31.5 420 500"
   height="500"
   width="420"
   y="0"
   x="0"
   version="1.1"
   id="svg2"><metadata
     id="metadata4"><rdf:RDF><cc:Work
         rdf:about=""><dc:format>
          
          
          
          
          image/svg+xml
        
        
        
        
        </dc:format><dc:type
           rdf:resource="http://purl.org/dc/dcmitype/StillImage" /><dc:title></dc:title></cc:Work></rdf:RDF></metadata><defs
     id="defs6" /><path
     style="fill:#0085ca;fill-opacity:1;fill-rule:evenodd"
     d="m 440,32.7 c 2.09,102.46 -3.38,187.49 -43.93,296.59 C 368.02,404.77 321.86,474.06 240.5,530.88 159.14,474.06 112.98,404.77 84.93,329.29 44.38,220.19 38.91,135.16 41,32.7 c 133,0.29 266,0 399,0 z"
     id="path4218" /><path
     style="fill:#ffe000;fill-opacity:1;fill-rule:evenodd;stroke:none;stroke-width:1px;stroke-linecap:butt;stroke-linejoin:miter;stroke-opacity:1"
     d="m 365.02731,396.02731 c 12.18647,-20.97611 23.40805,-45.75801 33.08196,-71.91804 L 293,219 438,74 440.41548,71.43215 440,32.7 374.14361,32.856395 240.5,166.5 106.8564,32.856394 41,32.699999 40.58452,71.432149 43,73.999999 188.00001,219 82.89074,324.10927 c 9.67391,26.16003 20.89549,50.94193 33.08196,71.91804 L 240.5,271.5 Z"
     id="path4262" /><path
     style="fill:none;fill-rule:evenodd;stroke:#000000;stroke-width:1px;stroke-linecap:butt;stroke-linejoin:miter;stroke-opacity:1"
     d="M 106.85639,32.856394 240.5,166.5 374.14361,32.856395 M 40.58452,71.432149 43,73.999999 188,219 82.89073,324.10927 M 115.97269,396.02731 240.5,271.5 365.02731,396.02731"
     id="path4264" /><path
     style="fill:none;stroke:#000000"
     id="path4224"
     d="m 440,32.7 c 2.09,102.46 -3.38,187.49 -43.93,296.59 C 368.02,404.77 321.86,474.06 240.5,530.88 159.14,474.06 112.98,404.77 84.93,329.29 44.38,220.19 38.91,135.16 41,32.7 c 133,0.29 266,0 399,0 z" /><path
     id="path4242"
     d="M 440.41548,71.43215 438,74 293,219 398.10927,324.10927"
     style="fill:none;fill-rule:evenodd;stroke:#000000;stroke-width:1px;stroke-linecap:butt;stroke-linejoin:miter;stroke-opacity:1" /></svg>