<?xml version="1.0" encoding="UTF-8" standalone="no"?>
<svg
   xmlns:dc="http://purl.org/dc/elements/1.1/"
   xmlns:cc="http://creativecommons.org/ns#"
   xmlns:rdf="http://www.w3.org/1999/02/22-rdf-syntax-ns#"
   xmlns:svg="http://www.w3.org/2000/svg"
   xmlns="http://www.w3.org/2000/svg"
   id="svg2"
   version="1.1"
   x="0"
   y="0"
   width="420"
   height="500"
   viewBox="30.5 31.5 420 500"
   enable-background="new 30.5 31.5 412 533"
   xml:space="preserve"><metadata
     id="metadata4"><rdf:RDF><cc:Work
         rdf:about=""><dc:format>
          
          
          
          
          image/svg+xml
        
        
        
        
        </dc:format><dc:type
           rdf:resource="http://purl.org/dc/dcmitype/StillImage" /><dc:title></dc:title></cc:Work></rdf:RDF></metadata><defs
     id="defs6" /><path
     d="m 41,32.7 c -2.09,102.46 3.38,187.49 43.93,296.59 28.05,75.48 74.21,144.77 155.57,201.59 C 321.86,474.06 368.02,404.77 396.07,329.29 436.62,220.19 442.09,135.16 440,32.7 c -133,0.29 -266,0 -399,0 z"
     id="path4224"
     style="fill:#ffe000;stroke:none;fill-opacity:1" /><path
     id="path4218"
     d="m 41,32.7 c -2.09,102.46 3.38,187.49 43.93,296.59 28.05,75.48 74.21,144.77 155.57,201.59 C 321.86,474.06 368.02,404.77 396.07,329.29 436.62,220.19 442.09,135.16 440,32.7 c -133,0.29 -266,0 -399,0 z"
     style="fill:none;fill-opacity:1;fill-rule:evenodd;stroke:#000000;stroke-opacity:1" /><path
     id="path4202"
     d="m 330.1182,291.45628 c -0.88744,-4.34947 -4.02239,-11.1469 0.88897,-16.38023 12.30936,-13.11628 27.9882,-22.82567 43.62824,-35.77472 3.59686,-2.97799 1.12631,-3.71664 -2.47702,-4.39277 -2.93998,-0.55165 -6.55299,-0.68977 -10.17984,-0.84454 -5.39016,-0.23001 -8.78486,-8.32848 -13.08959,-5.89075 -13.63502,7.72139 -23.96606,14.88807 -30.86075,17.28912 -3.38104,1.17744 -9.5555,1.05437 -12.1524,-2.69674 -7.07202,-10.21524 -8.44027,-15.29966 -13.61474,-30.02534 -4.11992,-11.72459 -10.21953,-30.80107 -9.93339,-44.79743 0.4315,-21.1066 6.17992,-40.22018 16.93889,-55.72578 9.36688,-13.046775 22.67101,-24.250542 32.80449,-35.045729 -24.90373,0.6672 -69.15016,10.999826 -100.19884,26.005909 -23.72688,11.4674 -43.99512,26.88944 -60.18287,42.72522 -42.23547,42.11896 -64.83583,104.34583 -63.28426,146.85073 15.8685,-6.75332 28.18172,-20.37687 44.2062,-32.67055 14.64408,-11.23466 29.68327,-15.56294 41.99132,-14.67115 19.47557,1.41113 44.7089,13.41591 53.90073,31.64213 -16.42351,10.75554 -38.47903,45.8712 -36.00532,85.69706 l 9.60051,154.56488 18.76706,13.74796 10.25641,-8.0742 -0.65467,-164.10262 c -0.87487,-7.82648 3.80064,-18.74929 9.81997,-25.96836 6.57473,-7.88517 14.07706,-8.33558 21.82216,-5.67376 z"
     style="fill:#000000;fill-rule:evenodd;stroke:#000000;stroke-width:1px;stroke-linecap:round;stroke-linejoin:round;stroke-opacity:1" /><path
     id="path4204"
     d="m 245.47457,293.45939 c -3.37702,6.72053 -15.4592,32.9015 -10.71052,32.03574 4.35576,-0.79412 21.26188,-8.1122 35.1213,-6.10896"
     style="fill:none;fill-rule:evenodd;stroke:#ffe000;stroke-width:2.4000001;stroke-linecap:round;stroke-linejoin:round;stroke-miterlimit:4;stroke-dasharray:none;stroke-opacity:1" /><path
     id="path4206"
     d="m 223.63226,330.29972 c 2.11924,11.95574 13.31733,34.24575 19.41554,44.08076"
     style="fill:none;fill-rule:evenodd;stroke:#ffe000;stroke-width:2.5;stroke-linecap:round;stroke-linejoin:miter;stroke-miterlimit:4;stroke-dasharray:none;stroke-opacity:1" /><path
     id="path4208"
     d="m 220.57098,387.68209 c 4.72677,14.0646 15.19118,33.38715 23.13149,44.5271"
     style="fill:none;fill-rule:evenodd;stroke:#ffe000;stroke-width:2.5;stroke-linecap:round;stroke-linejoin:miter;stroke-miterlimit:4;stroke-dasharray:none;stroke-opacity:1" /><path
     id="path4210"
     d="m 311.35239,255.01576 c 8.38408,-1.83377 16.36485,-3.5323 24.84571,-4.72852 -4.47831,5.6833 -9.15919,14.08493 -11.09775,20.00403"
     style="fill:none;fill-rule:evenodd;stroke:#ffe000;stroke-width:2.5;stroke-linecap:round;stroke-linejoin:round;stroke-miterlimit:4;stroke-dasharray:none;stroke-opacity:1" /><path
     id="path4212"
     d="m 224.28322,460.35729 c 4.15576,10.19933 12.98177,24.77041 20.07391,33.60736"
     style="fill:none;fill-rule:evenodd;stroke:#ffe000;stroke-width:2.5;stroke-linecap:round;stroke-linejoin:round;stroke-miterlimit:4;stroke-dasharray:none;stroke-opacity:1" /></svg>