<svg xmlns:dc="http://purl.org/dc/elements/1.1/" xmlns:cc="http://creativecommons.org/ns#" xmlns:rdf="http://www.w3.org/1999/02/22-rdf-syntax-ns#" xmlns:svg="http://www.w3.org/2000/svg" xmlns="http://www.w3.org/2000/svg" xml:space="preserve" enable-background="new 30.5 31.5 412 533" viewBox="30.5 31.5 400 500" height="500" width="400" y="0" x="0" version="1.1" id="svg2">
  <metadata id="metadata4">
    <rdf:RDF>
      <cc:Work rdf:about="">
        <dc:format>
          
          image/svg+xml
        
        </dc:format>
        <dc:type rdf:resource="http://purl.org/dc/dcmitype/StillImage"/>
      </cc:Work>
    </rdf:RDF>
  </metadata>
  <defs id="defs6"/>
  <path d="M230.44 531.14C156.12 477.22 105.18 409.12 74.7 322.98 47.06 244.88 35.97 150.23 40.79 33.63l0.02-0.46 379.82 0 0.02 0.46c4.81 116.6-6.28 211.24-33.91 289.35C356.26 409.12 305.32 477.22 231 531.14l-0.28 0.2-0.28-0.2z" id="path8" fill="#fff"/>
  <path d="M419.95 33.22C429.02 252.67 383.7 419.17 230.5 530.32 77.31 419.17 31.98 252.67 41.05 33.22c0 0 105.43 0 189.45 0 84.02 0 189.45 0 189.45 0m0.92-0.95-0.92 0-189.45 0-189.45 0-0.92 0-0.04 0.92c-4.82 116.66 6.28 211.36 33.93 289.52 30.51 86.24 81.51 154.41 155.91 208.39l0.56 0.41 0.56-0.41c74.4-53.98 125.4-122.15 155.91-208.39 27.65-78.16 38.75-172.86 33.93-289.52l-0.04-0.92 0 0z" id="path10"/>
  <path id="path4357" d="m98.47 150.56 33 75.44-33 73.23-33-73.23z" style="fill:#0085ca;stroke-miterlimit:4;stroke:#000"/>
  <path id="path4359" d="m164.47 150.56 33 75.44-33 73.23-33-73.23z" style="fill:#0085ca;stroke-miterlimit:4;stroke:#000"/>
  <path id="path4361" d="m230.49 150.56 33 75.44-33 73.23-33-73.23z" style="fill:#0085ca;stroke-miterlimit:4;stroke:#000"/>
  <path id="path4363" d="m362.51 150.56 33 75.44-33 73.23-33-73.23z" style="fill:#0085ca;stroke-miterlimit:4;stroke:#000"/>
  <path id="path4365" d="m296.51 150.56 33 75.44-33 73.23-33-73.23z" style="fill:#0085ca;stroke-miterlimit:4;stroke:#000"/>
</svg>
