<?xml version="1.0" encoding="UTF-8" standalone="no"?>
<svg
   xmlns:dc="http://purl.org/dc/elements/1.1/"
   xmlns:cc="http://creativecommons.org/ns#"
   xmlns:rdf="http://www.w3.org/1999/02/22-rdf-syntax-ns#"
   xmlns:svg="http://www.w3.org/2000/svg"
   xmlns="http://www.w3.org/2000/svg"
   id="svg2"
   version="1.1"
   x="0"
   y="0"
   width="400"
   height="500"
   viewBox="30.5 31.5 400 500"
   enable-background="new 30.5 31.5 412 533"
   xml:space="preserve"><metadata
     id="metadata4"><rdf:RDF><cc:Work
         rdf:about=""><dc:format>
          
          
          
          
          
          image/svg+xml
        
        
        
        
        
        </dc:format><dc:type
           rdf:resource="http://purl.org/dc/dcmitype/StillImage" /><dc:title></dc:title></cc:Work></rdf:RDF></metadata><defs
     id="defs6" /><path
     style="fill:#0085ca;fill-opacity:1"
     id="path8"
     d="M 230.44,531.14 C 156.12,477.22 105.18,409.12 74.7,322.98 47.06,244.88 35.97,150.23 40.79,33.63 l 0.02,-0.46 379.82,0 0.02,0.46 c 4.81,116.6 -6.28,211.24 -33.91,289.35 C 356.26,409.12 305.32,477.22 231,531.14 l -0.28,0.2 -0.28,-0.2 z" /><path
     id="path4294"
     d="m 332.9266,427.60685 -65.32712,-70.30097 c -15.03092,-16.17535 -24.91173,-21.8154 -46.17434,-34.02193 -6.21622,-3.56862 -17.4639,-12.4695 -25.75303,-21.56213 0,0 -26.24897,-27.34693 -38.86036,-41.48412 -21.29548,-23.8719 -62.53936,-72.81757 -62.53936,-72.81757 -5.24618,-5.91372 -3.27112,-13.46903 -2.04962,-15.80416 4.31261,-8.24441 10.67168,-16.56019 10.67168,-16.56019 0,0 8.90536,-5.50311 17.53679,-8.97694 2.44475,-0.98392 10.15867,-2.20006 15.52303,3.60668 0,0 44.6146,45.89414 66.25717,69.45187 12.81692,13.95109 37.42617,42.78245 37.42617,42.78245 8.22584,9.14994 15.96751,21.22481 18.90214,27.76425 10.03793,22.36824 14.67038,32.75963 29.27551,49.32045 l 59.23035,67.1616 c -4.3106,7.01728 -8.22175,13.41206 -14.11901,21.44071 z"
     style="fill:#ffffff;fill-rule:evenodd;stroke:none;stroke-width:1px;stroke-linecap:butt;stroke-linejoin:miter;stroke-opacity:1" /><path
     style="fill:#ffffff;fill-rule:evenodd;stroke:none;stroke-width:1px;stroke-linecap:butt;stroke-linejoin:miter;stroke-opacity:1"
     d="m 378.60633,343.35121 -58.38838,-62.83392 c -15.03092,-16.17535 -24.91173,-21.8154 -46.17434,-34.02193 -6.21622,-3.56862 -17.4639,-12.4695 -25.75303,-21.56213 0,0 -26.24897,-27.34693 -38.86036,-41.48412 -21.29548,-23.8719 -62.53936,-72.81757 -62.53936,-72.81757 -5.24618,-5.91372 -3.27112,-13.469031 -2.04962,-15.804161 4.31261,-8.244413 10.67168,-16.56019 10.67168,-16.56019 0,0 8.90536,-5.503113 17.53679,-8.976942 2.44475,-0.983923 10.15867,-2.200061 15.52303,3.606677 0,0 44.6146,45.894146 66.25717,69.451876 12.81692,13.95109 37.42617,42.78245 37.42617,42.78245 8.22584,9.14994 15.96751,21.22481 18.90214,27.76425 10.03793,22.36824 14.67038,32.75963 29.27551,49.32045 l 47.96529,54.38808 c -2.10659,7.11716 -5.92525,17.30096 -9.79269,26.74718 z"
     id="path4296" /><path
     id="path10"
     d="M 419.96,33.21 C 429.03,252.66 383.7,419.16 230.5,530.31 77.31,419.16 31.99,252.66 41.06,33.21 l 189.45,0 189.45,0 m 0.92,-0.95 -0.92,0 -189.45,0 -189.45,0 -0.92,0 -0.04,0.92 c -4.82,116.66 6.28,211.36 33.93,289.52 30.51,86.24 81.51,154.41 155.91,208.39 l 0.56,0.41 0.56,-0.41 C 305.46,477.11 356.46,408.94 386.97,322.7 414.62,244.54 425.72,149.84 420.9,33.18 l -0.04,-0.92 0,0 z" /><path
     id="path3415"
     d="m 378.60633,343.35121 -58.38838,-62.83392 c -15.03092,-16.17535 -24.91173,-21.8154 -46.17434,-34.02193 -6.21622,-3.56862 -17.4639,-12.4695 -25.75303,-21.56213 0,0 -26.24897,-27.34693 -38.86036,-41.48412 -21.29548,-23.8719 -62.53936,-72.81757 -62.53936,-72.81757 -5.24618,-5.91372 -3.27112,-13.469031 -2.04962,-15.804161 4.31261,-8.244413 10.67168,-16.56019 10.67168,-16.56019 0,0 8.90536,-5.503113 17.53679,-8.976942 2.44475,-0.983923 10.15867,-2.200061 15.52303,3.606677 0,0 44.6146,45.894146 66.25717,69.451876 12.81692,13.95109 37.42617,42.78245 37.42617,42.78245 8.22584,9.14994 15.96751,21.22481 18.90214,27.76425 10.03793,22.36824 14.67038,32.75963 29.27551,49.32045 l 47.96529,54.38808"
     style="fill:none;fill-rule:evenodd;stroke:#000000;stroke-width:1px;stroke-linecap:butt;stroke-linejoin:miter;stroke-opacity:1" /><path
     style="fill:none;fill-rule:evenodd;stroke:#000000;stroke-width:1px;stroke-linecap:butt;stroke-linejoin:miter;stroke-opacity:1"
     d="m 332.9266,427.60685 -65.32712,-70.30097 c -15.03092,-16.17535 -24.91173,-21.8154 -46.17434,-34.02193 -6.21622,-3.56862 -17.4639,-12.4695 -25.75303,-21.56213 0,0 -26.24897,-27.34693 -38.86036,-41.48412 -21.29548,-23.8719 -62.53936,-72.81757 -62.53936,-72.81757 -5.24618,-5.91372 -3.27112,-13.46903 -2.04962,-15.80416 4.31261,-8.24441 10.67168,-16.56019 10.67168,-16.56019 0,0 8.90536,-5.50311 17.53679,-8.97694 2.44475,-0.98392 10.15867,-2.20006 15.52303,3.60668 0,0 44.6146,45.89414 66.25717,69.45187 12.81692,13.95109 37.42617,42.78245 37.42617,42.78245 8.22584,9.14994 15.96751,21.22481 18.90214,27.76425 10.03793,22.36824 14.67038,32.75963 29.27551,49.32045 l 59.23035,67.1616"
     id="path3425" /></svg>