<?xml version="1.0" encoding="UTF-8" standalone="no"?>
<svg
   xmlns:dc="http://purl.org/dc/elements/1.1/"
   xmlns:cc="http://creativecommons.org/ns#"
   xmlns:rdf="http://www.w3.org/1999/02/22-rdf-syntax-ns#"
   xmlns:svg="http://www.w3.org/2000/svg"
   xmlns="http://www.w3.org/2000/svg"
   id="svg2"
   version="1.1"
   x="0"
   y="0"
   width="420"
   height="500"
   viewBox="30.5 31.5 420 500"
   enable-background="new 30.5 31.5 412 533"
   xml:space="preserve"><metadata
     id="metadata4"><rdf:RDF><cc:Work
         rdf:about=""><dc:format>
          
          
          
          
          image/svg+xml
        
        
        
        
        </dc:format><dc:type
           rdf:resource="http://purl.org/dc/dcmitype/StillImage" /><dc:title></dc:title></cc:Work></rdf:RDF></metadata><defs
     id="defs6" /><path
     id="path4218"
     d="m 41,32.7 c -2.09,102.46 3.38,187.49 43.93,296.59 28.05,75.48 74.21,144.77 155.57,201.59 C 321.86,474.06 368.02,404.77 396.07,329.29 436.62,220.19 442.09,135.16 440,32.7 c -133,0.29 -266,0 -399,0 z"
     style="fill:#e00e00;fill-opacity:1;fill-rule:evenodd" /><path
     d="m 41,32.7 c -2.09,102.46 3.38,187.49 43.93,296.59 28.05,75.48 74.21,144.77 155.57,201.59 C 321.86,474.06 368.02,404.77 396.07,329.29 436.62,220.19 442.09,135.16 440,32.7 c -133,0.29 -266,0 -399,0 z"
     id="path4224"
     style="fill:none;stroke:#000000" /><path
     id="path4366"
     d="m 234.20377,56.5 c -0.42493,5.689431 -1.05984,9.22216 -2.56027,13.472887 -3.11564,8.826592 -8.00286,17.772867 -16.19026,31.066663 -5.50226,8.93395 -13.21648,16.77367 -12.78566,31.27254 0.40004,13.46302 7.3898,23.0746 13.98619,26.33224 4.81567,2.37824 11.15885,4.38062 11.26552,7.59748 0.11713,3.53245 0.89896,7.84671 -0.75847,9.21001 -2.09888,1.7264 -5.1321,-0.0796 -6.50119,-2.92553 -9.42904,-19.60016 -34.11703,-13.97809 -38.96843,-10.85258 -10.56714,6.80786 -14.07241,18.70307 -13.15254,28.17625 1.07188,11.03868 11.31576,28.40983 27.97586,28.83474 13.91021,0.35477 21.46074,-7.54463 25.47164,-18.79541 1.44677,-4.05827 6.32853,-3.86084 6.14983,-0.058 -1.39807,29.7514 -3.6719,56.22829 -9.63797,85.38222 -1.5017,7.33824 -4.61776,20.23268 -7.08253,20.23268 l -51.5616,4e-5 c -2.36291,0 -8.96632,-17.74316 -13.03234,-27.27559 l -26.54793,-62.23935 c -1.2809,-3.00296 2.13116,-4.97189 3.97189,-2.00838 3.97205,6.39486 11.62287,9.02092 16.72372,8.33755 15.89013,-2.12882 23.76427,-15.96604 23.34895,-28.33278 -0.51319,-15.28105 -14.50602,-28.83678 -28.87533,-26.65782 -15.56198,2.35981 -19.91827,15.18887 -19.34393,24.54338 0.23104,3.76307 -5.70588,3.08533 -6.54587,-1.08353 -3.21576,-15.95977 11.39546,-19.06955 14.48118,-30.16666 4.53948,-16.32525 -11.56772,-25.94061 -21.54311,-32.49954 -13.852565,-9.10821 -24.280102,-17.34189 -27.808605,-24.48158 -0.751037,-1.51967 -7.39592,0.69863 -6.90906,2.19898 30.686136,94.56519 51.577985,149.64054 66.815535,233.92789 2.63134,14.55539 5.23519,27.13106 6.50119,46.79128 66.27321,4e-5 132.54643,2e-5 198.81964,0 1.266,-19.66022 3.86985,-32.23589 6.50119,-46.79128 15.23755,-84.28735 36.1294,-139.3627 66.81553,-233.92789 0.48686,-1.50035 -6.15802,-3.71865 -6.90906,-2.19898 -3.5285,7.13969 -13.95604,15.37337 -27.8086,24.48158 -9.97539,6.55893 -26.08259,16.17429 -21.54311,32.49954 3.08572,11.09711 17.69694,14.20689 14.48118,30.16666 -0.83999,4.16886 -6.77691,4.8466 -6.54587,1.08353 0.57434,-9.35451 -3.78195,-22.18357 -19.34393,-24.54338 -14.36931,-2.17896 -28.36214,11.37677 -28.87533,26.65782 -0.41532,12.36674 7.45882,26.20396 23.34895,28.33278 5.10085,0.68337 12.75167,-1.94269 16.72372,-8.33755 1.84073,-2.96351 5.25279,-0.99458 3.97189,2.00838 l -26.54793,62.23935 c -4.06602,9.53243 -10.66943,27.27559 -13.03234,27.27559 l -51.5616,-4e-5 c -2.46477,0 -5.58083,-12.89444 -7.08253,-20.23268 -5.96607,-29.15393 -8.2399,-55.63082 -9.63797,-85.38222 -0.1787,-3.80284 4.70306,-4.00027 6.14983,0.058 4.0109,11.25078 11.56143,19.15018 25.47164,18.79541 16.6601,-0.42491 26.90398,-17.79606 27.97586,-28.83474 0.91987,-9.47318 -2.5854,-21.36839 -13.15254,-28.17625 -4.8514,-3.12551 -29.53939,-8.74758 -38.96843,10.85258 -1.36909,2.84593 -4.40231,4.65193 -6.50119,2.92553 -1.65743,-1.3633 -0.8756,-5.67756 -0.75847,-9.21001 0.10667,-3.21686 6.44985,-5.21924 11.26552,-7.59748 6.59639,-3.25764 13.58615,-12.86922 13.98619,-26.33224 0.43082,-14.49887 -7.2834,-22.33859 -12.78566,-31.27254 C 257.35936,87.745754 252.47214,78.799479 249.3565,69.972887 247.85607,65.72216 247.22116,62.189431 246.79623,56.5 c -4.19749,0 -8.39497,0 -12.59246,0 z"
     style="fill:#ffe000;fill-rule:evenodd;stroke:#000000;stroke-width:1px;stroke-linecap:round;stroke-linejoin:round;stroke-opacity:1;fill-opacity:1" /></svg>