<?xml version="1.0" encoding="UTF-8" standalone="no"?>
<svg
   xmlns:dc="http://purl.org/dc/elements/1.1/"
   xmlns:cc="http://creativecommons.org/ns#"
   xmlns:rdf="http://www.w3.org/1999/02/22-rdf-syntax-ns#"
   xmlns:svg="http://www.w3.org/2000/svg"
   xmlns="http://www.w3.org/2000/svg"
   xml:space="preserve"
   enable-background="new 30.5 31.5 412 533"
   viewBox="30.5 31.5 400 500"
   height="500"
   width="400"
   y="0"
   x="0"
   version="1.1"
   id="svg2"><metadata
     id="metadata4"><rdf:RDF><cc:Work
         rdf:about=""><dc:format>
          
          
          
          image/svg+xml
        
        
        
        </dc:format><dc:type
           rdf:resource="http://purl.org/dc/dcmitype/StillImage" /><dc:title></dc:title></cc:Work></rdf:RDF></metadata><defs
     id="defs6" /><path
     d="M 230.44,531.14 C 156.12,477.22 105.18,409.12 74.700002,322.98 c -27.64,-78.1 -38.73,-172.75 -33.91,-289.35 l 0.02,-0.46 379.819998,0 0.02,0.46 c 4.81,116.6 -6.28,211.24 -33.91,289.35 C 356.26,409.12 305.32,477.22 231,531.14 l -0.28,0.2 -0.28,-0.2 z"
     id="path8"
     style="fill:#e00e00;fill-opacity:1" /><path
     id="path4238"
     d="m 98.921832,32.81814 35.994008,-0.006 260.90135,260.90134 -8.78602,27.21398 z"
     style="fill:#ffe000;fill-opacity:1;fill-rule:evenodd;stroke:none;stroke-width:1;stroke-linecap:butt;stroke-linejoin:miter;stroke-miterlimit:4;stroke-dasharray:none;stroke-opacity:1" /><path
     style="fill:#ffe000;fill-opacity:1;fill-rule:evenodd;stroke:none;stroke-width:1;stroke-linecap:butt;stroke-linejoin:miter;stroke-miterlimit:4;stroke-dasharray:none;stroke-opacity:1"
     d="m 40.744122,32.877563 -0.5341,13.332486 325.650438,325.650411 c 3.97421,-8.17452 7.88662,-16.36963 11.25337,-24.74664 L 66.151782,36.151793 62.805622,32.696168 Z"
     id="path4230" /><path
     style="fill:#ffe000;fill-opacity:1;fill-rule:evenodd;stroke:none;stroke-width:1;stroke-linecap:butt;stroke-linejoin:miter;stroke-miterlimit:4;stroke-dasharray:none;stroke-opacity:1"
     d="M 353.90258,394.66843 39.481652,80.247517 39.832492,116.59837 340.04618,416.81203 Z"
     id="path4244" /><path
     id="path4260"
     d="M 419.96,33.21 420.4941,46.542486 95.209542,371.82702 c -4.18249,-8.31079 -8.80232,-18.64877 -11.3012,-24.6988 L 394.55234,36.48423 397.8985,33.028605 Z"
     style="fill:#ffe000;fill-opacity:1;fill-rule:evenodd;stroke:none;stroke-width:1;stroke-linecap:butt;stroke-linejoin:miter;stroke-miterlimit:4;stroke-dasharray:none;stroke-opacity:1" /><path
     style="fill:#ffe000;fill-opacity:1;fill-rule:evenodd;stroke:none;stroke-width:1;stroke-linecap:butt;stroke-linejoin:miter;stroke-miterlimit:4;stroke-dasharray:none;stroke-opacity:1"
     d="m 361.78229,33.150577 -35.99401,-0.006 L 65.202562,293.73029 c 2.12149,8.63291 6.35273,20.44513 8.7415,27.2585 z"
     id="path4262" /><path
     id="path4264"
     d="M 107.09183,394.71058 421.22247,80.579954 420.87163,116.93081 120.92551,416.87691 c -3.36053,-4.72999 -10.03509,-15.68296 -13.83368,-22.16633 z"
     style="fill:#ffe000;fill-opacity:1;fill-rule:evenodd;stroke:none;stroke-width:1;stroke-linecap:butt;stroke-linejoin:miter;stroke-miterlimit:4;stroke-dasharray:none;stroke-opacity:1" /><path
     id="path4272"
     d="M 73.944062,320.98879 194.51658,200.41628 m 17.90494,-17.90494 148.94458,-148.944573 0.82465,-0.797422 m -35.99401,-0.006 -0.80303,0.775804 L 194.49852,164.43433 M 176.47808,182.45478 65.202562,293.73029"
     style="fill:none;fill-opacity:1;fill-rule:evenodd;stroke:#000000;stroke-width:1;stroke-linecap:butt;stroke-linejoin:miter;stroke-miterlimit:4;stroke-dasharray:none;stroke-opacity:1" /><path
     style="fill:none;fill-opacity:1;fill-rule:evenodd;stroke:#000000;stroke-width:1;stroke-linecap:butt;stroke-linejoin:miter;stroke-miterlimit:4;stroke-dasharray:none;stroke-opacity:1"
     d="M 107.09183,394.71058 247.98987,253.81255 M 265.93331,235.86911 421.22247,80.579954 m -0.35084,36.350856 -136.93832,136.93831 m -18.05895,18.05895 -144.94885,144.94884"
     id="path4276" /><path
     id="path4280"
     d="M 377.11383,347.11382 248.56155,218.56155 M 230.46409,200.46409 66.151782,36.151793 62.805622,32.696168 M 40.210022,46.210049 212.38707,218.38709 m 18.17448,18.17447 135.29891,135.2989"
     style="fill:none;fill-opacity:1;fill-rule:evenodd;stroke:#000000;stroke-width:1;stroke-linecap:butt;stroke-linejoin:miter;stroke-miterlimit:4;stroke-dasharray:none;stroke-opacity:1" /><path
     style="fill:none;fill-opacity:1;fill-rule:evenodd;stroke:#000000;stroke-width:1;stroke-linecap:butt;stroke-linejoin:miter;stroke-miterlimit:4;stroke-dasharray:none;stroke-opacity:1"
     d="m 83.908342,347.12822 c 0,0 39.783988,-39.85252 93.207448,-93.32289 m 17.85391,-17.86831 c 17.0658,-17.07833 35.13185,-35.154 53.46128,-53.48759 m 18.07781,-18.08006 c 46.48831,-46.48912 93.11615,-93.077767 128.04355,-127.88514 1.29471,-1.29026 3.89078,-3.864089 3.89078,-3.864089 M 420.4941,46.542486 284.53355,182.50303 m -17.97003,17.97003 -53.4187,53.41869 m -18.02045,18.02045 -99.914828,99.91482"
     id="path4274" /><path
     id="path4278"
     d="M 353.90258,394.66843 248.52815,289.294 M 230.50366,271.26952 177.06071,217.82657 M 159.07877,199.84463 39.481652,80.247517 m 0.35084,36.350853 101.207768,101.20776 m 18.13596,18.13596 53.32744,53.32743 m 18.02448,18.02448 109.51804,109.51803"
     style="fill:none;fill-opacity:1;fill-rule:evenodd;stroke:#000000;stroke-width:1;stroke-linecap:butt;stroke-linejoin:miter;stroke-miterlimit:4;stroke-dasharray:none;stroke-opacity:1" /><path
     style="fill:none;fill-opacity:1;fill-rule:evenodd;stroke:#000000;stroke-width:1;stroke-linecap:butt;stroke-linejoin:miter;stroke-miterlimit:4;stroke-dasharray:none;stroke-opacity:1"
     d="M 387.03117,320.92746 302.07183,235.96813 M 284.21072,218.10701 230.5725,164.4688 M 212.47504,146.37134 98.921832,32.81814 m 35.994008,-0.006 95.59771,95.5977 m 18.05895,18.05896 53.4204,53.4204 m 17.97003,17.97002 75.85426,75.85426"
     id="path4282" /><path
     d="M 419.96,33.21 C 429.03,252.66 383.7,419.16 230.5,530.31 77.310002,419.16 31.990002,252.66 41.060002,33.21 l 189.449998,0 189.45,0 m 0.92,-0.95 -0.92,0 -189.45,0 -189.449998,0 -0.92,0 -0.04,0.92 c -4.82,116.66 6.28,211.36 33.93,289.52 C 104.54,408.94 155.54,477.11 229.94,531.09 l 0.56,0.41 0.56,-0.41 C 305.46,477.11 356.46,408.94 386.97,322.7 414.62,244.54 425.72,149.84 420.9,33.18 l -0.04,-0.92 0,0 z"
     id="path10" /></svg>