<?xml version="1.0" encoding="UTF-8" standalone="no"?>
<svg
   xmlns:dc="http://purl.org/dc/elements/1.1/"
   xmlns:cc="http://creativecommons.org/ns#"
   xmlns:rdf="http://www.w3.org/1999/02/22-rdf-syntax-ns#"
   xmlns:svg="http://www.w3.org/2000/svg"
   xmlns="http://www.w3.org/2000/svg"
   width="480"
   height="500"
   viewBox="0 0 479.99998 499.99998"
   id="svg2"
   version="1.1">
  <defs
     id="defs4" />
  <metadata
     id="metadata7">
    <rdf:RDF>
      <cc:Work
         rdf:about="">
        <dc:format>image/svg+xml</dc:format>
        <dc:type
           rdf:resource="http://purl.org/dc/dcmitype/StillImage" />
        <dc:title></dc:title>
      </cc:Work>
    </rdf:RDF>
  </metadata>
  <path
     style="fill:#0085ca;fill-opacity:1;fill-rule:evenodd;stroke:#000000;stroke-width:1px;stroke-linecap:butt;stroke-linejoin:miter;stroke-opacity:1"
     d="m 461.55562,1.5 14.07595,264.06259 c 2.93617,55.08194 -10.52133,110.39815 -71.89436,144.21562 L 239.99997,499.24991 76.262767,409.77821 C 14.771057,376.177 1.4322373,320.64453 4.3683973,265.56259 L 18.444347,1.5 c 147.703763,0 295.407513,0 443.111273,0 z"
     id="path4352" />
  <path
     id="path4394"
     d="m 411.11423,56.074754 10.16829,211.625806 c 1.30871,22.15051 4.07428,40.21221 -4.4935,54.26004 -9.82576,16.11045 -34.66582,35.84244 -60.36473,50.41609 L 239.99997,438.4 123.57565,372.37669 C 97.876737,357.80304 73.036677,338.07105 63.210907,321.9606 c -8.56777,-14.04783 -5.8022,-32.10953 -4.49348,-54.26004 L 68.885707,56.074754 c 114.076433,-0.519104 228.152023,-0.236252 342.228523,0 z"
     style="fill:none;fill-rule:evenodd;stroke:#000000;stroke-width:6.99999905;stroke-linecap:butt;stroke-linejoin:miter;stroke-miterlimit:4;stroke-dasharray:none;stroke-opacity:1" />
  <path
     style="fill:#ffe000;fill-opacity:1;fill-rule:evenodd;stroke:#000000;stroke-width:0.99999988;stroke-linecap:butt;stroke-linejoin:miter;stroke-miterlimit:4;stroke-dasharray:none;stroke-opacity:1"
     d="M 135.88828,107.8663 321.184,281.45432 336.56844,259.57259 c 1.01388,-1.44202 13.65798,10.21133 11.73166,12.61159 l -19.92095,22.36571 28.22444,25.54828 2.61159,-2.24694 c 2.19576,-1.88918 3.76986,-1.2489 5.22292,0.61068 6.5922,8.43665 2.23247,16.7321 -1.24349,20.42471 -3.476,3.69263 -11.49299,8.54539 -20.31235,2.4747 -1.94396,-1.33809 -2.67811,-2.87065 -0.925,-5.1765 l 2.08513,-2.74252 -27.08708,-24.66205 -21.12183,21.23527 c -2.18354,2.16892 -14.67522,-9.8495 -13.29706,-10.9486 L 303.4491,302.38908 118.98773,127.91473 c -6.47714,-6.12645 -11.06896,-18.079 -10.93312,-29.19829 11.09075,-0.807095 21.32724,3.05451 27.83367,9.14986 z"
     id="path4342" />
  <path
     id="path4344"
     d="m 232.41009,84.227948 142.29978,133.308672 9.85633,-14.84611 c 0.74882,-1.12785 10.5675,7.90784 9.00948,9.68516 l -13.3402,15.21783 20.16105,19.62008 2.00556,-1.72562 c 1.68624,-1.45078 2.89515,-0.95905 4.01114,0.469 5.06242,6.47893 1.71444,12.8496 -0.95502,15.68537 -2.66947,2.83576 -8.82611,6.56232 -15.59908,1.90042 -1.49282,-1.02767 -2.05666,-2.20459 -0.71036,-3.97533 l 1.60122,-2.1062 -20.80173,-18.93951 -14.26243,14.34966 c -1.66626,1.67647 -11.28466,-7.58251 -10.21175,-8.408 L 359.57598,233.61366 217.917,99.62426 c -4.97417,-4.704844 -8.50046,-13.884092 -8.39608,-22.423056 8.51711,-0.619818 17.89254,2.345604 22.88917,7.026744 z"
     style="fill:#ffe000;fill-opacity:1;fill-rule:evenodd;stroke:#000000;stroke-width:0.99999988;stroke-linecap:butt;stroke-linejoin:miter;stroke-miterlimit:4;stroke-dasharray:none;stroke-opacity:1" />
  <path
     style="fill:#ffe000;fill-opacity:1;fill-rule:evenodd;stroke:#000000;stroke-width:0.99999988;stroke-linecap:butt;stroke-linejoin:miter;stroke-miterlimit:4;stroke-dasharray:none;stroke-opacity:1"
     d="m 111.32267,210.00564 144.30012,135.30639 9.85925,-14.85042 c 0.749,-1.1282 10.57055,7.91014 9.01206,9.68797 l -13.34406,15.22228 20.16693,19.62579 2.00613,-1.72615 c 1.68672,-1.45118 2.89599,-0.9593 4.01231,0.46917 5.06391,6.48084 1.71497,12.85336 -0.95529,15.68994 -2.67027,2.83657 -8.82871,6.56421 -15.60365,1.90096 -1.49326,-1.02794 -2.05723,-2.20522 -0.71054,-3.97644 l 1.60167,-2.10685 -20.8078,-18.94504 -14.26658,14.35384 c -1.66676,1.67695 -11.28799,-7.58472 -10.21476,-8.41045 L 240.48448,361.39376 96.825367,225.40641 c -4.97378,-4.70816 -8.50295,-13.8881 -8.39855,-22.42959 8.51962,-0.61999 17.899813,2.34414 22.895853,7.02882 z"
     id="path4346" />
  <path
     id="path4354"
     d="m 111.5462,401.09472 c 2.07263,-3.19893 3.41052,-4.26739 8.22018,-9.58331 -3.71752,2.02104 -7.97076,3.48821 -11.42907,1.623 -2.84162,-1.53239 -4.68917,-3.42912 -5.15259,-6.97898 -0.73508,-5.63071 4.40594,-12.95327 11.01934,-10.21285 -1.42684,3.06718 -1.82803,5.60973 0.86765,7.03792 2.82361,1.49608 7.1841,0.52715 9.47891,-1.40449 2.9654,-2.49615 4.0504,-3.34508 6.15674,-6.85078 2.06994,-3.44523 3.20261,-7.42558 0.90439,-12.37049 2.80368,-0.29249 6.01888,0.78072 7.16404,3.30525 1.40055,-2.70921 5.69832,-2.71858 5.69832,-2.71858 0,0 2.07855,3.76169 0.39018,6.30154 2.76437,-0.22566 5.26228,2.06504 6.36793,4.65799 -5.43888,0.39189 -8.36857,3.31469 -10.37538,6.79707 -2.0421,3.54351 -2.25735,4.90427 -2.99974,8.70863 -0.57445,2.94401 0.69572,7.22648 3.37458,8.96853 2.55745,1.66313 4.5853,0.0779 6.57386,-2.65859 5.60682,4.45084 1.70154,12.50061 -3.57786,14.59192 -3.32836,1.31855 -5.88352,0.62431 -8.60287,-1.11588 -3.30976,-2.11761 -4.09227,-6.54831 -4.13043,-10.77948 -2.31197,6.78577 -2.59641,8.47412 -4.38666,11.83925 -3.38861,6.36948 -9.63439,8.20781 -15.27847,8.16197 -2.78049,-4.91188 -4.206,-11.2646 -0.28304,-17.31964 z"
     style="fill:#ffe000;fill-opacity:1;fill-rule:evenodd;stroke:#000000;stroke-width:0.99999988;stroke-linecap:round;stroke-linejoin:round;stroke-miterlimit:4;stroke-dasharray:none;stroke-opacity:1" />
  <path
     id="path4356"
     d="m 119.76638,391.51141 3.46971,-3.57447"
     style="fill:none;fill-rule:evenodd;stroke:#000000;stroke-width:0.99999988;stroke-linecap:round;stroke-linejoin:miter;stroke-miterlimit:4;stroke-dasharray:none;stroke-opacity:1" />
  <path
     style="fill:none;fill-rule:evenodd;stroke:#000000;stroke-width:0.99999988;stroke-linecap:round;stroke-linejoin:miter;stroke-miterlimit:4;stroke-dasharray:none;stroke-opacity:1"
     d="m 131.49432,398.41313 1.44022,-4.7688"
     id="path4364" />
  <path
     style="fill:#ffe000;fill-opacity:1;fill-rule:evenodd;stroke:#000000;stroke-width:0.99999988;stroke-linecap:round;stroke-linejoin:round;stroke-miterlimit:4;stroke-dasharray:none;stroke-opacity:1"
     d="m 445.10702,165.36794 c -3.80822,0.16384 -5.40752,0.77496 -12.42832,2.22408 3.6272,-2.17892 7.04876,-5.1004 7.19538,-9.02698 0.12048,-3.22622 -0.57714,-5.7804 -3.40156,-7.98028 -4.48006,-3.48926 -13.39824,-2.77238 -14.39064,4.3172 3.36718,0.32592 5.76184,1.26962 5.62552,4.3172 -0.14274,3.19238 -3.18926,6.45904 -6.01796,7.45702 -3.65526,1.2897 -4.93724,1.79428 -9.02686,1.83158 -4.01902,0.0366 -8.02394,-1.00592 -11.12012,-5.4947 -1.67402,2.26804 -2.38132,5.58264 -0.7848,7.85068 -3.04512,-0.16696 -5.23306,3.53226 -5.23306,3.53226 0,0 2.18794,3.69922 5.23306,3.53226 -1.59652,2.26804 -0.88922,5.58264 0.7848,7.85066 3.09618,-4.48876 7.1011,-5.53134 11.12012,-5.49468 4.08962,0.0377 5.3716,0.54188 9.02686,1.83158 2.8287,0.99798 5.87522,4.26474 6.01796,7.45702 0.13632,3.04758 -2.25834,3.99128 -5.62552,4.3172 0.9924,7.08958 9.91058,7.80646 14.39064,4.31718 2.82442,-2.19986 3.52204,-4.75404 3.40156,-7.98028 -0.14662,-3.92656 -3.56818,-6.84804 -7.19538,-9.02686 7.0208,1.44902 8.6201,2.06014 12.42832,2.22396 7.20804,0.31002 11.96018,-4.14048 14.78318,-9.02804 -2.823,-4.88756 -7.57514,-9.33806 -14.78318,-9.02806 z"
     id="path4366" />
  <path
     style="fill:none;fill-rule:evenodd;stroke:#000000;stroke-width:0.99999988;stroke-linecap:round;stroke-linejoin:miter;stroke-miterlimit:4;stroke-dasharray:none;stroke-opacity:1"
     d="m 432.6787,167.59202 -4.84038,1.17738"
     id="path4368" />
  <path
     id="path4370"
     d="m 432.6787,181.20008 -4.84038,-1.1774"
     style="fill:none;fill-rule:evenodd;stroke:#000000;stroke-width:0.99999988;stroke-linecap:round;stroke-linejoin:miter;stroke-miterlimit:4;stroke-dasharray:none;stroke-opacity:1" />
  <path
     id="path4374"
     d="m 230.97193,462.02479 c 0.16382,-3.80824 0.77494,-5.40748 2.22408,-12.42834 -2.17894,3.62718 -5.10042,7.0488 -9.02698,7.19536 -3.22624,0.12054 -5.78042,-0.57716 -7.9803,-3.40154 -3.48926,-4.48002 -2.77238,-13.39828 4.3172,-14.39068 0.32592,3.36712 1.26962,5.7618 4.3172,5.62552 3.19238,-0.14272 6.45904,-3.1893 7.45702,-6.01797 1.2897,-3.65525 1.79428,-4.93723 1.83158,-9.02686 0.0366,-4.01902 -1.00592,-8.02394 -5.4947,-11.12011 2.26804,-1.674 5.58264,-2.38132 7.85068,-0.78481 -0.16696,-3.04511 3.53226,-5.23305 3.53226,-5.23305 0,0 3.69922,2.18794 3.53226,5.23305 2.26804,-1.59651 5.58264,-0.88919 7.85068,0.78481 -4.48878,3.09617 -5.53136,7.10109 -5.4947,11.12011 0.0377,4.08963 0.54188,5.37161 1.83158,9.02686 0.99798,2.82867 4.26474,5.87525 7.45702,6.01797 3.04758,0.13628 3.99128,-2.2584 4.3172,-5.62552 7.08958,0.9924 7.80646,9.91066 4.3172,14.39068 -2.19988,2.82438 -4.75406,3.52208 -7.9803,3.40154 -3.92656,-0.14656 -6.84804,-3.56818 -9.02684,-7.19536 1.449,7.02086 2.06012,8.6201 2.22394,12.42834 0.31002,7.20806 -4.14048,11.96012 -9.02804,14.78318 -4.88756,-2.82306 -9.33806,-7.57512 -9.02804,-14.78318 z"
     style="fill:#ffe000;fill-opacity:1;fill-rule:evenodd;stroke:#000000;stroke-width:0.99999988;stroke-linecap:round;stroke-linejoin:round;stroke-miterlimit:4;stroke-dasharray:none;stroke-opacity:1" />
  <path
     id="path4376"
     d="m 233.19601,449.59645 1.17738,-4.8404"
     style="fill:none;fill-rule:evenodd;stroke:#000000;stroke-width:0.99999988;stroke-linecap:round;stroke-linejoin:miter;stroke-miterlimit:4;stroke-dasharray:none;stroke-opacity:1" />
  <path
     style="fill:none;fill-rule:evenodd;stroke:#000000;stroke-width:0.99999988;stroke-linecap:round;stroke-linejoin:miter;stroke-miterlimit:4;stroke-dasharray:none;stroke-opacity:1"
     d="m 246.80407,449.59645 -1.17742,-4.8404"
     id="path4378" />
  <path
     style="fill:#ffe000;fill-opacity:1;fill-rule:evenodd;stroke:#000000;stroke-width:0.99999988;stroke-linecap:round;stroke-linejoin:round;stroke-miterlimit:4;stroke-dasharray:none;stroke-opacity:1"
     d="m 368.3842,401.17475 c -2.07263,-3.1989 -3.41052,-4.2674 -8.22018,-9.58328 3.71752,2.02096 7.97076,3.48818 11.42907,1.62294 2.84164,-1.53238 4.68917,-3.42908 5.15259,-6.979 0.73508,-5.63067 -4.40594,-12.95321 -11.01932,-10.21279 1.42682,3.06716 1.82801,5.60973 -0.86767,7.03791 -2.82361,1.49606 -7.1841,0.52712 -9.47891,-1.40448 -2.9654,-2.49617 -4.0504,-3.3451 -6.15674,-6.85078 -2.06994,-3.44523 -3.20259,-7.42558 -0.90439,-12.37051 -2.80368,-0.29247 -6.01888,0.78072 -7.16404,3.30525 -1.40055,-2.70919 -5.69832,-2.71856 -5.69832,-2.71856 0,0 -2.07853,3.76167 -0.39018,6.30152 -2.76437,-0.22566 -5.26228,2.06506 -6.36793,4.65799 5.43888,0.39191 8.36857,3.31469 10.37538,6.79709 2.0421,3.54352 2.25735,4.90422 2.99974,8.70862 0.57445,2.944 -0.69572,7.22642 -3.37456,8.9685 -2.55747,1.6632 -4.58532,0.0776 -6.57388,-2.65856 -5.60682,4.45086 -1.70154,12.50056 3.57786,14.59194 3.32836,1.31854 5.88352,0.62426 8.60289,-1.1159 3.30974,-2.1176 4.09225,-6.54828 4.13041,-10.77946 2.31199,6.78574 2.59641,8.47404 4.38666,11.83928 3.38861,6.36946 9.63439,8.20776 15.27847,8.16186 2.78049,-4.91182 4.206,-11.26454 0.28304,-17.31958 z"
     id="path4398" />
  <path
     style="fill:none;fill-rule:evenodd;stroke:#000000;stroke-width:0.99999988;stroke-linecap:round;stroke-linejoin:miter;stroke-miterlimit:4;stroke-dasharray:none;stroke-opacity:1"
     d="m 360.16402,391.59147 -3.46971,-3.57454"
     id="path4400" />
  <path
     id="path4402"
     d="m 348.43608,398.49319 -1.44022,-4.7688"
     style="fill:none;fill-rule:evenodd;stroke:#000000;stroke-width:0.99999988;stroke-linecap:round;stroke-linejoin:miter;stroke-miterlimit:4;stroke-dasharray:none;stroke-opacity:1" />
  <path
     style="fill:#ffe000;fill-opacity:1;fill-rule:evenodd;stroke:#000000;stroke-width:0.99999988;stroke-linecap:round;stroke-linejoin:round;stroke-miterlimit:4;stroke-dasharray:none;stroke-opacity:1"
     d="m 296.53553,27.287518 c 0.16382,3.808236 0.77494,5.407484 2.22408,12.428338 -2.17894,-3.62718 -5.1004,-7.048794 -9.02698,-7.195354 -3.22624,-0.120536 -5.7804,0.577162 -7.98028,3.401542 -3.48928,4.48001 -2.7724,13.398276 4.3172,14.390606 0.32592,-3.367044 1.2696,-5.76173 4.31718,-5.625458 3.19238,0.142726 6.45904,3.189316 7.45702,6.017932 1.28972,3.655222 1.7943,4.937242 1.8316,9.026898 0.0365,4.018948 -1.00594,8.023876 -5.4947,11.120094 2.26804,1.67399 5.58262,2.38127 7.85066,0.784846 -0.16696,3.045076 3.53226,5.232984 3.53226,5.232984 0,0 3.69922,-2.187908 3.53228,-5.232984 2.26804,1.596424 5.58262,0.889144 7.85066,-0.784846 -4.48876,-3.096218 -5.53134,-7.101146 -5.4947,-11.120094 0.0377,-4.089656 0.54188,-5.371676 1.8316,-9.026898 0.99798,-2.828616 4.26474,-5.875206 7.45702,-6.017932 3.04758,-0.136272 3.99126,2.258414 4.31718,5.625458 7.0896,-0.99233 7.80648,-9.910596 4.3172,-14.390606 -2.19988,-2.82438 -4.75404,-3.522078 -7.98028,-3.401542 -3.92658,0.14656 -6.84806,3.568174 -9.02686,7.195354 1.44902,-7.020854 2.06012,-8.620102 2.22396,-12.428338 0.31,-7.208064 -4.1405,-11.960114 -9.02806,-14.783182 -4.88754,2.823068 -9.33804,7.575118 -9.02804,14.783182 z"
     id="path4410" />
  <path
     style="fill:none;fill-rule:evenodd;stroke:#000000;stroke-width:0.99999988;stroke-linecap:round;stroke-linejoin:miter;stroke-miterlimit:4;stroke-dasharray:none;stroke-opacity:1"
     d="m 298.75961,39.715856 1.17738,4.84041"
     id="path4412" />
  <path
     id="path4414"
     d="m 312.36767,39.715856 -1.1774,4.84041"
     style="fill:none;fill-rule:evenodd;stroke:#000000;stroke-width:0.99999988;stroke-linecap:round;stroke-linejoin:miter;stroke-miterlimit:4;stroke-dasharray:none;stroke-opacity:1" />
  <path
     id="path4418"
     d="m 165.40832,27.287518 c 0.16384,3.808236 0.77494,5.407484 2.22408,12.428338 -2.17892,-3.62718 -5.1004,-7.048794 -9.02698,-7.195354 -3.22624,-0.120536 -5.7804,0.577162 -7.98028,3.401542 -3.48928,4.48001 -2.7724,13.398276 4.3172,14.390606 0.32592,-3.367044 1.2696,-5.76173 4.31718,-5.625458 3.19238,0.142726 6.45904,3.189316 7.45702,6.017932 1.28972,3.655222 1.7943,4.937242 1.8316,9.026898 0.0365,4.018948 -1.00594,8.023876 -5.4947,11.120094 2.26804,1.67399 5.58262,2.38127 7.85066,0.784846 -0.16694,3.045076 3.53228,5.232984 3.53228,5.232984 0,0 3.69922,-2.187908 3.53226,-5.232984 2.26804,1.596424 5.58262,0.889144 7.85066,-0.784846 -4.48876,-3.096218 -5.53134,-7.101146 -5.4947,-11.120094 0.0377,-4.089656 0.54188,-5.371676 1.8316,-9.026898 0.99798,-2.828616 4.26474,-5.875206 7.45702,-6.017932 3.04758,-0.136272 3.99126,2.258414 4.31718,5.625458 7.0896,-0.99233 7.80648,-9.910596 4.3172,-14.390606 -2.19986,-2.82438 -4.75404,-3.522078 -7.98028,-3.401542 -3.92658,0.14656 -6.84804,3.568174 -9.02686,7.195354 1.44902,-7.020854 2.06014,-8.620102 2.22396,-12.428338 0.31,-7.208064 -4.1405,-11.960114 -9.02804,-14.783182 -4.88756,2.823068 -9.33806,7.575118 -9.02806,14.783182 z"
     style="fill:#ffe000;fill-opacity:1;fill-rule:evenodd;stroke:#000000;stroke-width:0.99999988;stroke-linecap:round;stroke-linejoin:round;stroke-miterlimit:4;stroke-dasharray:none;stroke-opacity:1" />
  <path
     id="path4420"
     d="m 167.6324,39.715856 1.17738,4.84041"
     style="fill:none;fill-rule:evenodd;stroke:#000000;stroke-width:0.99999988;stroke-linecap:round;stroke-linejoin:miter;stroke-miterlimit:4;stroke-dasharray:none;stroke-opacity:1" />
  <path
     style="fill:none;fill-rule:evenodd;stroke:#000000;stroke-width:0.99999988;stroke-linecap:round;stroke-linejoin:miter;stroke-miterlimit:4;stroke-dasharray:none;stroke-opacity:1"
     d="m 181.24046,39.715856 -1.1774,4.84041"
     id="path4422" />
  <path
     id="path4424"
     d="m 34.892917,165.36794 c 3.80822,0.16384 5.40753,0.77496 12.42832,2.22408 -3.6272,-2.17892 -7.04875,-5.1004 -7.19537,-9.02698 -0.1205,-3.22622 0.57714,-5.7804 3.40156,-7.98028 4.48005,-3.48926 13.39823,-2.77238 14.39063,4.3172 -3.36717,0.32592 -5.76184,1.26962 -5.62552,4.3172 0.14274,3.19238 3.18925,6.45904 6.01797,7.45702 3.65524,1.2897 4.93722,1.79428 9.02686,1.83158 4.01901,0.0366 8.02393,-1.00592 11.12011,-5.4947 1.67401,2.26804 2.38131,5.58264 0.78481,7.85068 3.04511,-0.16696 5.23304,3.53226 5.23304,3.53226 0,0 -2.18793,3.69922 -5.23304,3.53226 1.5965,2.26804 0.8892,5.58264 -0.78481,7.85066 -3.09618,-4.48876 -7.1011,-5.53134 -11.12011,-5.49468 -4.08964,0.0377 -5.37162,0.54188 -9.02686,1.83158 -2.82872,0.99798 -5.87523,4.26474 -6.01797,7.45702 -0.13632,3.04758 2.25835,3.99128 5.62552,4.3172 -0.9924,7.08958 -9.91058,7.80646 -14.39063,4.31718 -2.82442,-2.19986 -3.52206,-4.75404 -3.40156,-7.98028 0.14662,-3.92656 3.56817,-6.84804 7.19537,-9.02686 -7.02079,1.44902 -8.6201,2.06014 -12.42832,2.22396 -7.20804,0.31002 -11.96017,-4.14048 -14.78318,-9.02804 2.82301,-4.88756 7.57514,-9.33806 14.78318,-9.02806 z"
     style="fill:#ffe000;fill-opacity:1;fill-rule:evenodd;stroke:#000000;stroke-width:0.99999988;stroke-linecap:round;stroke-linejoin:round;stroke-miterlimit:4;stroke-dasharray:none;stroke-opacity:1" />
  <path
     id="path4426"
     d="m 47.321237,167.59202 4.84037,1.17738"
     style="fill:none;fill-rule:evenodd;stroke:#000000;stroke-width:0.99999988;stroke-linecap:round;stroke-linejoin:miter;stroke-miterlimit:4;stroke-dasharray:none;stroke-opacity:1" />
  <path
     style="fill:none;fill-rule:evenodd;stroke:#000000;stroke-width:0.99999988;stroke-linecap:round;stroke-linejoin:miter;stroke-miterlimit:4;stroke-dasharray:none;stroke-opacity:1"
     d="m 47.321237,181.20008 4.84037,-1.1774"
     id="path4428" />
  <path
     style="fill:#ffe000;fill-opacity:1;fill-rule:evenodd;stroke:#000000;stroke-width:0.99999988;stroke-linecap:round;stroke-linejoin:round;stroke-miterlimit:4;stroke-dasharray:none;stroke-opacity:1"
     d="m 29.749017,301.7477 c 3.75251,-0.66903 5.44658,-0.42067 12.61449,-0.53462 -4.01456,-1.33707 -7.99007,-3.44372 -8.98773,-7.2442 -0.81991,-3.12265 -0.69498,-5.76751 1.58283,-8.52937 3.61302,-4.38078 12.47349,-5.62236 14.98529,1.0812 -3.21539,1.05102 -5.34729,2.49342 -4.55086,5.43829 0.83414,3.08468 4.51876,5.60979 7.49683,5.9682 3.84836,0.46313 5.20937,0.67657 9.20909,-0.17725 3.93066,-0.83911 7.61258,-2.72844 9.65739,-7.78342 2.12759,1.84921 3.53808,4.93139 2.47492,7.49153 2.93586,-0.82586 5.87644,2.30845 5.87644,2.30845 0,0 -1.33011,4.08675 -4.33867,4.58668 2.05192,1.86609 2.08303,5.25519 0.94291,7.83316 -3.99906,-3.70709 -8.13483,-3.85289 -12.04955,-2.94228 -3.98349,0.92654 -5.12483,1.69812 -8.41174,3.75253 -2.54353,1.58982 -4.80601,5.44133 -4.25045,8.58811 0.53039,3.00423 3.07305,3.40406 6.43029,2.98923 0.57474,7.13555 -7.97364,9.77658 -13.10574,7.34611 -3.23558,-1.53224 -4.47242,-3.87338 -5.05701,-7.04853 -0.7118,-3.8642 1.99188,-7.46051 5.05789,-10.37667 -6.53709,2.94256 -7.96504,3.8872 -11.64627,4.87602 -6.96778,1.8716 -12.57463,-1.43818 -16.39391,-5.59364 1.69146,-5.38485 5.36082,-10.76307 12.46356,-12.02952 z"
     id="path4194" />
  <path
     style="fill:none;fill-rule:evenodd;stroke:#000000;stroke-width:0.99999988;stroke-linecap:round;stroke-linejoin:miter;stroke-miterlimit:4;stroke-dasharray:none;stroke-opacity:1"
     d="m 42.363507,301.21308 4.98063,0.0956"
     id="path4196" />
  <path
     id="path4198"
     d="m 45.325607,314.49481 4.46803,-2.20279"
     style="fill:none;fill-rule:evenodd;stroke:#000000;stroke-width:0.99999988;stroke-linecap:round;stroke-linejoin:miter;stroke-miterlimit:4;stroke-dasharray:none;stroke-opacity:1" />
  <path
     id="path4204"
     d="m 450.25092,301.7477 c -3.75251,-0.66903 -5.44659,-0.42067 -12.61449,-0.53462 4.01455,-1.33707 7.99007,-3.44372 8.98772,-7.2442 0.81991,-3.12265 0.69499,-5.76751 -1.58281,-8.52937 -3.61302,-4.38078 -12.47352,-5.62236 -14.98529,1.0812 3.21539,1.05102 5.34728,2.49342 4.55086,5.43829 -0.83415,3.08468 -4.51878,5.60979 -7.49685,5.9682 -3.84837,0.46313 -5.20937,0.67657 -9.20908,-0.17725 -3.93065,-0.83911 -7.61258,-2.72844 -9.6574,-7.78342 -2.12758,1.84921 -3.53806,4.93139 -2.4749,7.49153 -2.93586,-0.82586 -5.87644,2.30845 -5.87644,2.30845 0,0 1.33009,4.08675 4.33867,4.58668 -2.05192,1.86609 -2.08305,5.25519 -0.94293,7.83316 3.99907,-3.70709 8.13483,-3.85289 12.04955,-2.94228 3.98351,0.92654 5.12484,1.69812 8.41175,3.75253 2.54352,1.58982 4.80602,5.44133 4.25044,8.58811 -0.53039,3.00423 -3.07304,3.40406 -6.43028,2.98923 -0.57474,7.13555 7.97364,9.77658 13.10574,7.34611 3.23557,-1.53224 4.47241,-3.87338 5.05702,-7.04853 0.71179,-3.8642 -1.99188,-7.46051 -5.0579,-10.37667 6.53708,2.94256 7.96504,3.8872 11.64626,4.87602 6.96778,1.8716 12.57463,-1.43818 16.39392,-5.59364 -1.69146,-5.38485 -5.36081,-10.76307 -12.46357,-12.02952 z"
     style="fill:#ffe000;fill-opacity:1;fill-rule:evenodd;stroke:#000000;stroke-width:0.99999988;stroke-linecap:round;stroke-linejoin:round;stroke-miterlimit:4;stroke-dasharray:none;stroke-opacity:1" />
  <path
     id="path4206"
     d="m 437.63643,301.21308 -4.98063,0.0956"
     style="fill:none;fill-rule:evenodd;stroke:#000000;stroke-width:0.99999988;stroke-linecap:round;stroke-linejoin:miter;stroke-miterlimit:4;stroke-dasharray:none;stroke-opacity:1" />
  <path
     style="fill:none;fill-rule:evenodd;stroke:#000000;stroke-width:0.99999988;stroke-linecap:round;stroke-linejoin:miter;stroke-miterlimit:4;stroke-dasharray:none;stroke-opacity:1"
     d="m 434.67434,314.49481 -4.46805,-2.20279"
     id="path4208" />
  <path
     style="fill:#ffe000;fill-opacity:1;fill-rule:evenodd;stroke:#000000;stroke-width:0.99999988;stroke-linecap:round;stroke-linejoin:round;stroke-miterlimit:4;stroke-dasharray:none;stroke-opacity:1"
     d="m 46.101167,45.85377 c 2.75158,2.637876 4.29886,3.370656 10.20034,7.440672 -4.08214,-1.113744 -8.55855,-1.565518 -11.49654,1.043632 -2.41404,2.143718 -3.77682,4.413824 -3.41313,7.97534 0.57699,5.649132 7.26144,11.596194 13.06926,7.410956 -2.0927,-2.657786 -3.06677,-5.040288 -0.77091,-7.049076 2.40494,-2.10429 6.87142,-2.162106 9.54824,-0.808702 3.45912,1.748834 4.7101,2.326116 7.56484,5.254772 2.8053,2.878132 4.82143,6.49218 3.71954,11.832728 2.79595,-0.358914 5.67954,-2.139844 6.21417,-4.86138 1.98491,2.315274 6.17015,1.338042 6.17015,1.338042 0,0 1.15955,-4.138444 -1.06658,-6.222834 2.74232,-0.414946 4.64782,-3.21778 5.12882,-5.995338 -5.38368,0.866984 -8.90607,-1.30536 -11.65851,-4.234076 -2.80062,-2.980472 -3.32279,-4.255312 -4.9185,-7.787706 -1.23488,-2.7335 -0.98147,-7.193226 1.226,-9.503648 2.10741,-2.205712 4.44497,-1.12828 7.00857,1.078824 4.43554,-5.618992 -1.21314,-12.557438 -6.83157,-13.38122 -3.54216,-0.519304 -5.86978,0.742756 -8.11714,3.06064 -2.73531,2.82091 -2.47996,7.312814 -1.54596,11.43971 -3.80778,-6.073944 -4.4721,-7.651828 -6.98696,-10.516262 -4.76007,-5.421616 -13.26104,-7.777314 -18.74393,-6.437234 -1.57886,5.418944 0.49182,13.92926 5.6998,18.92216 z"
     id="path4210" />
  <path
     style="fill:none;fill-rule:evenodd;stroke:#000000;stroke-width:0.99999988;stroke-linecap:round;stroke-linejoin:miter;stroke-miterlimit:4;stroke-dasharray:none;stroke-opacity:1"
     d="m 56.301507,53.294442 4.19746,2.682702"
     id="path4212" />
  <path
     id="path4214"
     d="m 66.132257,43.885106 2.49634,4.310938"
     style="fill:none;fill-rule:evenodd;stroke:#000000;stroke-width:0.99999988;stroke-linecap:round;stroke-linejoin:miter;stroke-miterlimit:4;stroke-dasharray:none;stroke-opacity:1" />
  <path
     id="path4222"
     d="m 433.89876,45.85377 c -2.75155,2.637876 -4.29884,3.370656 -10.20032,7.440672 4.08214,-1.113744 8.55856,-1.565518 11.49652,1.043632 2.41406,2.143718 3.77684,4.413824 3.41315,7.97534 -0.57699,5.649132 -7.26145,11.596194 -13.06927,7.410956 2.09271,-2.657786 3.06677,-5.040288 0.7709,-7.049076 -2.40492,-2.10429 -6.87141,-2.162106 -9.54823,-0.808702 -3.4591,1.748834 -4.71009,2.326116 -7.56484,5.254772 -2.80529,2.878132 -4.82142,6.49218 -3.71953,11.832728 -2.79597,-0.358914 -5.67955,-2.139844 -6.21417,-4.86138 -1.98491,2.315274 -6.17015,1.338042 -6.17015,1.338042 0,0 -1.15955,-4.138444 1.06659,-6.222834 -2.74234,-0.414946 -4.64783,-3.21778 -5.12883,-5.995338 5.38367,0.866984 8.90607,-1.30536 11.6585,-4.234076 2.80063,-2.980472 3.32279,-4.255312 4.9185,-7.787706 1.23488,-2.7335 0.98148,-7.193226 -1.22601,-9.503648 -2.10739,-2.205712 -4.44495,-1.12828 -7.00856,1.078824 -4.43554,-5.618992 1.21313,-12.557438 6.83158,-13.38122 3.54216,-0.519304 5.86978,0.742756 8.11713,3.06064 2.73532,2.82091 2.47996,7.312814 1.54597,11.43971 3.80777,-6.073944 4.4721,-7.651828 6.98697,-10.516262 4.76007,-5.421616 13.26103,-7.777314 18.74393,-6.437234 1.57884,5.418944 -0.49183,13.92926 -5.69983,18.92216 z"
     style="fill:#ffe000;fill-opacity:1;fill-rule:evenodd;stroke:#000000;stroke-width:0.99999988;stroke-linecap:round;stroke-linejoin:round;stroke-miterlimit:4;stroke-dasharray:none;stroke-opacity:1" />
  <path
     id="path4224"
     d="m 423.69844,53.294442 -4.19747,2.682702"
     style="fill:none;fill-rule:evenodd;stroke:#000000;stroke-width:0.99999988;stroke-linecap:round;stroke-linejoin:miter;stroke-miterlimit:4;stroke-dasharray:none;stroke-opacity:1" />
  <path
     style="fill:none;fill-rule:evenodd;stroke:#000000;stroke-width:0.99999988;stroke-linecap:round;stroke-linejoin:miter;stroke-miterlimit:4;stroke-dasharray:none;stroke-opacity:1"
     d="m 413.86769,43.885106 -2.49633,4.310938"
     id="path4226" />
  <path
     style="fill:none;fill-rule:evenodd;stroke:#ffe000;stroke-width:4.99999952;stroke-linecap:butt;stroke-linejoin:miter;stroke-miterlimit:4;stroke-dasharray:none;stroke-opacity:1"
     d="m 411.11423,56.074754 10.16829,211.625806 c 1.30871,22.15051 4.07428,40.21221 -4.4935,54.26004 -9.82576,16.11045 -34.66582,35.84244 -60.36473,50.41609 L 239.99997,438.4 123.57565,372.37669 C 97.876737,357.80304 73.036677,338.07105 63.210907,321.9606 c -8.56777,-14.04783 -5.8022,-32.10953 -4.49348,-54.26004 L 68.885707,56.074754 c 114.076433,-0.519104 228.152023,-0.236252 342.228523,0 z"
     id="path4386" />
</svg>
