<?xml version="1.0" encoding="UTF-8" standalone="no"?>
<svg
   xmlns:dc="http://purl.org/dc/elements/1.1/"
   xmlns:cc="http://creativecommons.org/ns#"
   xmlns:rdf="http://www.w3.org/1999/02/22-rdf-syntax-ns#"
   xmlns:svg="http://www.w3.org/2000/svg"
   xmlns="http://www.w3.org/2000/svg"
   xml:space="preserve"
   enable-background="new 30.5 31.5 412 533"
   viewBox="30.5 31.5 400 500"
   height="500"
   width="400"
   y="0"
   x="0"
   version="1.1"
   id="svg2"><metadata
     id="metadata4"><rdf:RDF><cc:Work
         rdf:about=""><dc:format>
          
          
          
          image/svg+xml
        
        
        
        </dc:format><dc:type
           rdf:resource="http://purl.org/dc/dcmitype/StillImage" /><dc:title></dc:title></cc:Work></rdf:RDF></metadata><defs
     id="defs6" /><path
     d="M 230.44,531.14 C 156.12,477.22 105.18,409.12 74.7,322.98 47.06,244.88 35.97,150.23 40.79,33.63 l 0.02,-0.46 379.82,0 0.02,0.46 c 4.81,116.6 -6.28,211.24 -33.91,289.35 C 356.26,409.12 305.32,477.22 231,531.14 l -0.28,0.2 -0.28,-0.2 z"
     id="path8"
     style="fill:#0085ca;fill-opacity:1;stroke-linecap:round;stroke-linejoin:round" /><path
     d="M 419.96,33.21 C 429.03,252.66 383.7,419.16 230.5,530.31 77.31,419.16 31.99,252.66 41.06,33.21 l 189.45,0 189.45,0 m 0.92,-0.95 -0.92,0 -189.45,0 -189.45,0 -0.92,0 -0.04,0.92 c -4.82,116.66 6.28,211.36 33.93,289.52 30.51,86.24 81.51,154.41 155.91,208.39 l 0.56,0.41 0.56,-0.41 C 305.46,477.11 356.46,408.94 386.97,322.7 414.62,244.54 425.72,149.84 420.9,33.18 l -0.04,-0.92 0,0 z"
     id="path10"
     style="stroke-linecap:round;stroke-linejoin:round" /><path
     style="fill:#ffe000;fill-opacity:1;stroke:#000000;stroke-width:1.02100003;stroke-linecap:round;stroke-linejoin:round;stroke-miterlimit:4;stroke-dasharray:none;stroke-opacity:1"
     id="path3754"
     d="m 230.5,424.4244 c -6.30347,0.28187 -9.39523,-9.10957 -5.81185,-14.25499 2.16401,-3.10732 1.89901,-11.99174 -2.84161,-5.77056 -4.66801,6.12588 -7.3713,-1.08435 -4.36219,-5.19076 2.66761,-3.64037 -0.0512,-12.45055 -4.8115,-5.96267 -4.13887,5.64092 1.02734,18.40218 -3.5786,24.22441 -4.23573,5.35425 -11.91958,0.91376 -8.54474,-5.20197 4.60342,-8.34212 -2.15599,-13.47496 -3.84876,-3.58976 -1.79189,10.46407 -12.95383,5.44663 -6.3305,-3.43538 6.13224,-8.22345 -2.67233,-6.78386 -4.45676,-2.82739 -8.36288,18.54236 -18.55116,-3.68067 -5.82626,-5.83228 4.2227,-0.714 4.84866,-4.89848 -0.9579,-4.48505 -7.81384,0.55637 -2.85856,-8.44812 4.23807,-6.32449 3.02572,0.90543 6.48127,2.96026 8.8186,2.41193 2.90342,-0.68114 4.94329,-4.43503 -2.36631,-5.87136 -8.28426,-1.62784 -1.28521,-7.36328 3.75613,-7.48908 10.69381,-0.26686 1.96725,-10.24091 -4.92556,-4.79232 -9.0234,7.13275 -18.84275,6.6922 -23.3311,1.31062 -11.60335,-1.23289 -8.32601,-10.76835 -1.82917,-12.61645 -1.05763,-10.11003 8.29398,-4.24185 13.29393,-5.54585 9.1927,-2.39749 1.7363,-10.77476 -6.33138,-9.63471 -7.99927,1.13038 -11.45178,6.7254 -21.59256,6.85878 -5.90821,0.0777 -10.44202,-1.77146 -8.64081,-5.08559 0.93678,-1.72364 -3.97347,-1.66209 -4.44644,-4.53885 -1.19047,-7.24088 4.93401,-3.91047 6.68204,-6.52088 0.94062,-1.40468 -1.69251,-3.47518 2.66111,-6.15214 1.09445,-0.67296 3.35794,0.31277 9.75477,1.44586 6.18103,1.09485 5.54175,-4.89619 0.52137,-6.42402 -10.51979,-3.20143 -19.38243,1.1801 -25.37102,-1.29892 -11.47455,-4.74997 -7.14851,-8.97548 -12.63439,-15.14311 -1.5774,-1.77343 2.60965,-6.0159 6.69698,-3.25864 1.508,1.01728 0.82173,-3.10893 2.74394,-4.0469 2.75726,-1.34546 7.97972,1.6486 10.16637,3.77413 5.66354,5.50525 7.24808,-1.33716 4.6111,-3.45855 -7.54001,-6.06582 -17.90606,-8.69435 -10.40307,-17.9625 2.35965,-2.91479 -2.46001,-3.90153 -1.37639,-8.0748 0.41411,-1.59481 3.16202,-2.56237 5.52824,-2.28257 3.23486,0.3825 0.64513,-9.73577 6.90556,-9.96083 4.4328,0.23432 2.7463,6.77688 11.18859,11.98702 2.90626,1.79359 -2.32814,11.61012 0.46994,19.49749 1.55321,4.37827 5.29077,1.83276 5.84341,-0.61827 l 0.68952,-3.0581 c 0.57243,-2.53882 4.2914,-1.20525 6.66266,-1.93143 1.78834,-0.54767 1.68505,-3.92087 4.17605,-4.4514 4.74745,-1.01111 4.058,5.56993 7.96793,9.23143 2.91506,2.72984 -2.30007,13.87678 -1.1194,23.4814 0.90118,7.33098 7.06678,5.36572 6.72756,2.62609 -0.5247,-4.23758 -0.14561,-8.93588 1.77596,-8.15505 4.73252,1.92305 2.8627,-6.06722 6.61867,-5.91202 3.16979,0.13097 3.07785,6.254 5.17894,6.45659 3.93699,0.3796 7.29649,2.45131 6.9787,4.7946 -1.66755,12.29605 0.22205,29.04655 4.11714,34.1335 4.45781,5.82184 7.34119,6.21214 7.47368,-0.24097 1.43029,-69.66811 -15.86297,-109.81817 -30.10301,-135.40214 -19.8689,7.53631 -28.24325,-3.05518 -28.28001,-22.78004 -0.0134,-7.17168 -4.50922,-5.58592 -4.45035,-0.0745 0.14169,13.26448 -1.55742,24.29028 -11.87055,28.52046 -14.60646,5.99118 -61.28668,-21.8216 -57.68819,-49.44702 1.48107,-11.37005 16.35879,-13.91344 25.88734,-16.06807 2.60188,-0.58835 3.97976,-3.65372 -0.94712,-3.41898 -7.77018,0.37021 -19.32078,2.88472 -24.5732,-0.83115 -19.94888,-14.11298 12.28459,-75.373878 45.99389,-70.768293 8.81061,1.203763 12.31222,13.910139 13.07523,26.879403 0.42633,7.24665 4.34411,6.82974 4.53679,-0.19491 0.33394,-12.174882 2.55578,-29.685123 15.14481,-30.636399 29.80448,-2.25214 58.76566,39.791539 48.59375,56.219159 -4.93374,7.96797 -10.24526,8.58196 -20.89415,9.34249 -6.29923,0.44989 -7.2281,3.76057 0.69972,4.1237 9.65982,0.44246 13.85387,-0.62959 22.0236,6.19944 11.017,9.20904 8.34274,33.47583 -14.57255,54.61381 17.86946,33.37927 29.82218,76.97165 30.91531,120.85275 1.09313,-43.8811 13.04585,-87.47348 30.91531,-120.85275 -22.91529,-21.13798 -25.58955,-45.40477 -14.57255,-54.61381 8.16973,-6.82903 12.36378,-5.75698 22.0236,-6.19944 7.92782,-0.36313 6.99895,-3.67381 0.69972,-4.1237 -10.64889,-0.76053 -15.96041,-1.37452 -20.89415,-9.34249 -10.17191,-16.42762 18.78927,-58.471299 48.59375,-56.219159 12.58903,0.951276 14.81087,18.461517 15.14481,30.636399 0.19268,7.02465 4.11046,7.44156 4.53679,0.19491 0.76301,-12.969264 4.26462,-25.67564 13.07523,-26.879403 33.7093,-4.605585 65.94277,56.655313 45.99389,70.768293 -5.25242,3.71587 -16.80302,1.20136 -24.5732,0.83115 -4.92688,-0.23474 -3.549,2.83063 -0.94712,3.41898 9.52855,2.15463 24.40628,4.69802 25.88734,16.06807 3.59849,27.62542 -43.08173,55.4382 -57.68819,49.44702 -10.31313,-4.23018 -12.01224,-15.25598 -11.87055,-28.52046 0.0589,-5.51142 -4.43695,-7.09718 -4.45035,0.0745 -0.0368,19.72486 -8.41111,30.31635 -28.28001,22.78004 -14.24004,25.58397 -31.5333,65.73403 -30.10301,135.40214 0.13249,6.45311 3.01587,6.06281 7.47368,0.24097 3.89509,-5.08695 5.78469,-21.83745 4.11714,-34.1335 -0.31779,-2.34329 3.04171,-4.415 6.9787,-4.7946 2.10109,-0.20259 2.00915,-6.32562 5.17894,-6.45659 3.75597,-0.1552 1.88615,7.83507 6.61867,5.91202 1.92157,-0.78083 2.30066,3.91747 1.77596,8.15505 -0.33922,2.73963 5.82638,4.70489 6.72756,-2.62609 1.18067,-9.60462 -4.03446,-20.75156 -1.1194,-23.4814 3.90993,-3.6615 3.22048,-10.24254 7.96793,-9.23143 2.491,0.53053 2.38771,3.90373 4.17605,4.4514 2.37126,0.72618 6.09023,-0.60739 6.66266,1.93143 l 0.68952,3.0581 c 0.55264,2.45103 4.2902,4.99654 5.84341,0.61827 2.79808,-7.88737 -2.43632,-17.7039 0.46994,-19.49749 8.44229,-5.21014 6.75579,-11.7527 11.18859,-11.98702 6.26043,0.22506 3.6707,10.34333 6.90556,9.96083 2.36622,-0.2798 5.11413,0.68776 5.52824,2.28257 1.08362,4.17327 -3.73604,5.16001 -1.37639,8.0748 7.50299,9.26815 -2.86306,11.89668 -10.40307,17.9625 -2.63698,2.12139 -1.05244,8.9638 4.6111,3.45855 2.18665,-2.12553 7.40911,-5.11959 10.16637,-3.77413 1.92221,0.93797 1.23594,5.06418 2.74394,4.0469 4.08733,-2.75726 8.27438,1.48521 6.69698,3.25864 -5.48588,6.16763 -1.15984,10.39314 -12.63439,15.14311 -5.98859,2.47902 -14.85123,-1.90251 -25.37102,1.29892 -5.02038,1.52783 -5.65966,7.51887 0.52137,6.42402 6.39683,-1.13309 8.66032,-2.11882 9.75477,-1.44586 4.35362,2.67696 1.72049,4.74746 2.66111,6.15214 1.74803,2.61041 7.87251,-0.72 6.68204,6.52088 -0.47297,2.87676 -5.38322,2.81521 -4.44644,4.53885 1.80121,3.31413 -2.7326,5.16329 -8.64081,5.08559 -10.14078,-0.13338 -13.59329,-5.7284 -21.59256,-6.85878 -8.06768,-1.14005 -15.52408,7.23722 -6.33138,9.63471 4.99995,1.304 14.35156,-4.56418 13.29393,5.54585 6.49684,1.8481 9.77418,11.38356 -1.82917,12.61645 -4.48835,5.38158 -14.3077,5.82213 -23.3311,-1.31062 -6.89281,-5.44859 -15.61937,4.52546 -4.92556,4.79232 5.04134,0.1258 12.04039,5.86124 3.75613,7.48908 -7.3096,1.43633 -5.26973,5.19022 -2.36631,5.87136 2.33733,0.54833 5.79288,-1.5065 8.8186,-2.41193 7.09663,-2.12363 12.05191,6.88086 4.23807,6.32449 -5.80656,-0.41343 -5.1806,3.77105 -0.9579,4.48505 12.7249,2.15161 2.53662,24.37464 -5.82626,5.83228 -1.78443,-3.95647 -10.589,-5.39606 -4.45676,2.82739 6.62333,8.88201 -4.53861,13.89945 -6.3305,3.43538 -1.69277,-9.8852 -8.45218,-4.75236 -3.84876,3.58976 3.37484,6.11573 -4.30901,10.55622 -8.54474,5.20197 -4.60594,-5.82223 0.56027,-18.58349 -3.5786,-24.22441 -4.7603,-6.48788 -7.47911,2.3223 -4.8115,5.96267 3.00911,4.10641 0.30582,11.31664 -4.36219,5.19076 -4.74062,-6.22118 -5.00562,2.66324 -2.84161,5.77056 3.58338,5.14542 0.49162,14.53686 -5.81185,14.25499" /><path
     id="path4652"
     d="m 199.58471,205.53461 c -3.31992,3.08241 -7.48662,6.33921 -12.67903,8.32089"
     style="fill:none;fill-rule:evenodd;stroke:#000000;stroke-width:1px;stroke-linecap:butt;stroke-linejoin:miter;stroke-opacity:1" /><circle
     r="11.113097"
     cy="146.425"
     cx="148.20694"
     id="path4654"
     style="opacity:1;fill:#0085ca;fill-opacity:1;stroke:#000000;stroke-width:0.96399999;stroke-linecap:round;stroke-linejoin:round;stroke-miterlimit:4;stroke-dasharray:none;stroke-opacity:1" /><circle
     r="3.5954139"
     cy="124.89139"
     cx="145.44431"
     id="path4658"
     style="opacity:1;fill:#0085ca;fill-opacity:1;stroke:#000000;stroke-width:0.96399999;stroke-linecap:round;stroke-linejoin:round;stroke-miterlimit:4;stroke-dasharray:none;stroke-opacity:1" /><circle
     style="opacity:1;fill:#0085ca;fill-opacity:1;stroke:#000000;stroke-width:0.96399999;stroke-linecap:round;stroke-linejoin:round;stroke-miterlimit:4;stroke-dasharray:none;stroke-opacity:1"
     id="circle4660"
     cx="159.55325"
     cy="127.87196"
     r="3.5954139" /><circle
     r="3.5954139"
     cy="139.85667"
     cx="168.4873"
     id="circle4662"
     style="opacity:1;fill:#0085ca;fill-opacity:1;stroke:#000000;stroke-width:0.96399999;stroke-linecap:round;stroke-linejoin:round;stroke-miterlimit:4;stroke-dasharray:none;stroke-opacity:1" /><circle
     style="opacity:1;fill:#0085ca;fill-opacity:1;stroke:#000000;stroke-width:0.96399999;stroke-linecap:round;stroke-linejoin:round;stroke-miterlimit:4;stroke-dasharray:none;stroke-opacity:1"
     id="circle4664"
     cx="169.68579"
     cy="153.03986"
     r="3.5954139" /><circle
     r="3.5954139"
     cy="163.06343"
     cx="162.49493"
     id="circle4666"
     style="opacity:1;fill:#0085ca;fill-opacity:1;stroke:#000000;stroke-width:0.96399999;stroke-linecap:round;stroke-linejoin:round;stroke-miterlimit:4;stroke-dasharray:none;stroke-opacity:1" /><circle
     style="opacity:1;fill:#0085ca;fill-opacity:1;stroke:#000000;stroke-width:0.96399999;stroke-linecap:round;stroke-linejoin:round;stroke-miterlimit:4;stroke-dasharray:none;stroke-opacity:1"
     id="circle4668"
     cx="150.6192"
     cy="167.53046"
     r="3.5954139" /><circle
     r="3.5954139"
     cy="165.67827"
     cx="138.19867"
     id="circle4670"
     style="opacity:1;fill:#0085ca;fill-opacity:1;stroke:#000000;stroke-width:0.96399999;stroke-linecap:round;stroke-linejoin:round;stroke-miterlimit:4;stroke-dasharray:none;stroke-opacity:1" /><circle
     style="opacity:1;fill:#0085ca;fill-opacity:1;stroke:#000000;stroke-width:0.96399999;stroke-linecap:round;stroke-linejoin:round;stroke-miterlimit:4;stroke-dasharray:none;stroke-opacity:1"
     id="circle4672"
     cx="129.04669"
     cy="157.39792"
     r="3.5954139" /><circle
     r="3.5954139"
     cy="143.01627"
     cx="127.19452"
     id="circle4674"
     style="opacity:1;fill:#0085ca;fill-opacity:1;stroke:#000000;stroke-width:0.96399999;stroke-linecap:round;stroke-linejoin:round;stroke-miterlimit:4;stroke-dasharray:none;stroke-opacity:1" /><circle
     style="opacity:1;fill:#0085ca;fill-opacity:1;stroke:#000000;stroke-width:0.96399999;stroke-linecap:round;stroke-linejoin:round;stroke-miterlimit:4;stroke-dasharray:none;stroke-opacity:1"
     id="circle4676"
     cx="133.07794"
     cy="130.92261"
     r="3.5954139" /><path
     style="fill:none;fill-rule:evenodd;stroke:#000000;stroke-width:1px;stroke-linecap:butt;stroke-linejoin:miter;stroke-opacity:1"
     d="m 261.41529,205.53461 c 3.31992,3.08241 7.48662,6.33921 12.67903,8.32089"
     id="path4708" /><circle
     transform="scale(-1,1)"
     style="opacity:1;fill:#0085ca;fill-opacity:1;stroke:#000000;stroke-width:0.96399999;stroke-linecap:round;stroke-linejoin:round;stroke-miterlimit:4;stroke-dasharray:none;stroke-opacity:1"
     id="circle4710"
     cx="-312.79306"
     cy="146.425"
     r="11.113097" /><circle
     transform="scale(-1,1)"
     style="opacity:1;fill:#0085ca;fill-opacity:1;stroke:#000000;stroke-width:0.96399999;stroke-linecap:round;stroke-linejoin:round;stroke-miterlimit:4;stroke-dasharray:none;stroke-opacity:1"
     id="circle4714"
     cx="-315.55569"
     cy="124.89139"
     r="3.5954139" /><circle
     transform="scale(-1,1)"
     r="3.5954139"
     cy="127.87196"
     cx="-301.44675"
     id="circle4716"
     style="opacity:1;fill:#0085ca;fill-opacity:1;stroke:#000000;stroke-width:0.96399999;stroke-linecap:round;stroke-linejoin:round;stroke-miterlimit:4;stroke-dasharray:none;stroke-opacity:1" /><circle
     transform="scale(-1,1)"
     style="opacity:1;fill:#0085ca;fill-opacity:1;stroke:#000000;stroke-width:0.96399999;stroke-linecap:round;stroke-linejoin:round;stroke-miterlimit:4;stroke-dasharray:none;stroke-opacity:1"
     id="circle4718"
     cx="-292.5127"
     cy="139.85667"
     r="3.5954139" /><circle
     transform="scale(-1,1)"
     r="3.5954139"
     cy="153.03986"
     cx="-291.31424"
     id="circle4720"
     style="opacity:1;fill:#0085ca;fill-opacity:1;stroke:#000000;stroke-width:0.96399999;stroke-linecap:round;stroke-linejoin:round;stroke-miterlimit:4;stroke-dasharray:none;stroke-opacity:1" /><circle
     transform="scale(-1,1)"
     style="opacity:1;fill:#0085ca;fill-opacity:1;stroke:#000000;stroke-width:0.96399999;stroke-linecap:round;stroke-linejoin:round;stroke-miterlimit:4;stroke-dasharray:none;stroke-opacity:1"
     id="circle4722"
     cx="-298.50507"
     cy="163.06343"
     r="3.5954139" /><circle
     transform="scale(-1,1)"
     r="3.5954139"
     cy="167.53046"
     cx="-310.38083"
     id="circle4724"
     style="opacity:1;fill:#0085ca;fill-opacity:1;stroke:#000000;stroke-width:0.96399999;stroke-linecap:round;stroke-linejoin:round;stroke-miterlimit:4;stroke-dasharray:none;stroke-opacity:1" /><circle
     transform="scale(-1,1)"
     style="opacity:1;fill:#0085ca;fill-opacity:1;stroke:#000000;stroke-width:0.96399999;stroke-linecap:round;stroke-linejoin:round;stroke-miterlimit:4;stroke-dasharray:none;stroke-opacity:1"
     id="circle4726"
     cx="-322.80133"
     cy="165.67827"
     r="3.5954139" /><circle
     transform="scale(-1,1)"
     r="3.5954139"
     cy="157.39792"
     cx="-331.95331"
     id="circle4728"
     style="opacity:1;fill:#0085ca;fill-opacity:1;stroke:#000000;stroke-width:0.96399999;stroke-linecap:round;stroke-linejoin:round;stroke-miterlimit:4;stroke-dasharray:none;stroke-opacity:1" /><circle
     transform="scale(-1,1)"
     style="opacity:1;fill:#0085ca;fill-opacity:1;stroke:#000000;stroke-width:0.96399999;stroke-linecap:round;stroke-linejoin:round;stroke-miterlimit:4;stroke-dasharray:none;stroke-opacity:1"
     id="circle4730"
     cx="-333.80548"
     cy="143.01627"
     r="3.5954139" /><circle
     transform="scale(-1,1)"
     r="3.5954139"
     cy="130.92261"
     cx="-327.92209"
     id="circle4732"
     style="opacity:1;fill:#0085ca;fill-opacity:1;stroke:#000000;stroke-width:0.96399999;stroke-linecap:round;stroke-linejoin:round;stroke-miterlimit:4;stroke-dasharray:none;stroke-opacity:1" /></svg>