<svg xmlns:dc="http://purl.org/dc/elements/1.1/" xmlns:cc="http://creativecommons.org/ns#" xmlns:rdf="http://www.w3.org/1999/02/22-rdf-syntax-ns#" xmlns:svg="http://www.w3.org/2000/svg" xmlns="http://www.w3.org/2000/svg" id="svg2" version="1.1" x="0" y="0" width="400" height="500" viewBox="30.5 31.5 400 500" enable-background="new 30.5 31.5 412 533" xml:space="preserve">
  <metadata id="metadata4">
    <rdf:RDF>
      <cc:Work rdf:about="">
        <dc:format>
          
          
          image/svg+xml
        
        
        </dc:format>
        <dc:type rdf:resource="http://purl.org/dc/dcmitype/StillImage"/>
      </cc:Work>
    </rdf:RDF>
  </metadata>
  <defs id="defs6"/>
  <path d="M230.45 531.13C156.13 477.21 105.19 409.11 74.71 322.97 47.07 244.87 35.98 150.22 40.8 33.62l0.02-0.46 379.82 0 0.02 0.46c4.81 116.6-6.28 211.24-33.91 289.35-30.48 86.14-81.42 154.24-155.74 208.16l-0.28 0.2-0.28-0.2z" id="path4148" fill="#0085ca"/>
  <path id="path10" d="M419.96 33.21C429.03 252.66 383.71 419.16 230.51 530.31 146.04 469.02 94.36 390.9 66.52 296.34 64.43 289.25 62.48 282.07 60.65 274.8 49.2 229.11 42.88 179.78 40.77 126.86 39.57 96.8 39.72 65.58 41.06 33.21l189.45 0 189.45 0m0.92-0.95-0.92 0-189.45 0-189.45 0-0.92 0-0.04 0.92c-4.82 116.66 6.28 211.36 33.93 289.52 30.51 86.24 81.51 154.41 155.91 208.39l0.56 0.41 0.56-0.41C305.46 477.11 356.46 408.94 386.97 322.7 414.62 244.54 425.72 149.84 420.9 33.18l-0.04-0.92 0 0z"/>
  <path id="path4219" d="m279.76 192.35c11.52 0.24 14.36 8.05 27.22 8.15 6.92 0.05 14.47 0.17 24.62-1.18-0.24-3.53-1.26-10.65-2.4-13.5 10.41-1.54 22.41-4.47 30.93-10.46-4.63-7.79-9.72-16.2-15.68-21.56 4.63-4.15 8.58-8.63 12.42-14.59-6.47-2.45-11.47-3.86-16.34-4.79 6.81-13.48 9.51-26.66 10.89-44-17.34 1.38-30.52 4.08-44 10.89-0.93-4.87-2.34-9.87-4.79-16.34-5.96 3.84-10.44 7.79-14.59 12.42-5.36-5.96-13.77-11.05-21.56-15.68-5.99 8.52-8.92 20.52-10.46 30.93-2.85-1.14-9.97-2.16-13.5-2.4-1.35 10.15-1.23 17.7-1.18 24.62 0.1 12.86 7.91 15.7 8.15 27.22-0.04 9.99-7.84 19.42-18.99 19.42-11.15 0-18.95-9.43-18.99-19.42 0.24-11.52 8.05-14.36 8.15-27.22 0.05-6.92 0.17-14.47-1.18-24.62-3.53 0.24-10.65 1.26-13.5 2.4-1.54-10.41-4.47-22.41-10.46-30.93-7.79 4.63-16.2 9.72-21.56 15.68-4.15-4.63-8.63-8.58-14.59-12.42-2.45 6.47-3.86 11.47-4.79 16.34-13.48-6.81-26.66-9.51-44-10.89 1.38 17.34 4.08 30.52 10.89 44-4.87 0.93-9.87 2.34-16.34 4.79 3.84 5.96 7.79 10.44 12.42 14.59-5.96 5.36-11.05 13.77-15.68 21.56 8.52 5.99 20.52 8.92 30.93 10.46-1.14 2.85-2.16 9.97-2.4 13.5 10.15 1.35 17.7 1.23 24.62 1.18 12.86-0.1 15.7-7.91 27.22-8.15 9.99 0.04 19.42 7.84 19.42 18.99 0 11.15-9.43 18.95-19.42 18.99-11.52-0.24-14.36-8.05-27.22-8.15C147.1 222.13 139.55 222.01 129.4 223.36c0.24 3.53 1.26 10.65 2.4 13.5-10.41 1.54-22.41 4.47-30.93 10.46 4.63 7.79 9.72 16.2 15.68 21.56-4.63 4.15-8.58 8.63-12.42 14.59 6.47 2.45 11.47 3.86 16.34 4.79-6.81 13.48-9.51 26.66-10.89 44 17.34-1.38 30.52-4.08 44-10.89 0.93 4.87 2.34 9.87 4.79 16.34 5.96-3.84 10.44-7.79 14.59-12.42 5.36 5.96 13.77 11.05 21.56 15.68 5.99-8.52 8.92-20.52 10.46-30.93 2.85 1.14 9.97 2.16 13.5 2.4 1.35-10.15 1.23-17.7 1.18-24.62-0.1-12.86-7.91-15.7-8.15-27.22 0.04-9.99 7.84-19.42 18.99-19.42 11.15 0 18.95 9.43 18.99 19.42-0.24 11.52-8.05 14.36-8.15 27.22-0.05 6.92-0.17 14.47 1.18 24.62 3.53-0.24 10.65-1.26 13.5-2.4 1.54 10.41 4.47 22.41 10.46 30.93 7.79-4.63 16.2-9.72 21.56-15.68 4.15 4.63 8.63 8.58 14.59 12.42 2.45-6.47 3.86-11.47 4.79-16.34 13.48 6.81 26.66 9.51 44 10.89-1.38-17.34-4.08-30.52-10.89-44 4.87-0.93 9.87-2.34 16.34-4.79-3.84-5.96-7.79-10.44-12.42-14.59 5.96-5.36 11.05-13.77 15.68-21.56-8.52-5.99-20.52-8.92-30.93-10.46 1.14-2.85 2.16-9.97 2.4-13.5-10.15-1.35-17.7-1.23-24.62-1.18-12.86 0.1-15.7 7.91-27.22 8.15-9.99-0.04-19.42-7.84-19.42-18.99 0-11.15 9.43-18.95 19.42-18.99z" style="fill-rule:evenodd;fill:#fff;stroke:#000"/>
  <circle id="path4318" cx="230.5" cy="211.5" r="20.29" style="fill:#fff;stroke:#000"/>
</svg>
