<?xml version="1.0" encoding="UTF-8" standalone="no"?>
<svg
   xmlns:dc="http://purl.org/dc/elements/1.1/"
   xmlns:cc="http://creativecommons.org/ns#"
   xmlns:rdf="http://www.w3.org/1999/02/22-rdf-syntax-ns#"
   xmlns:svg="http://www.w3.org/2000/svg"
   xmlns="http://www.w3.org/2000/svg"
   id="svg2"
   version="1.1"
   x="0"
   y="0"
   width="400"
   height="500"
   viewBox="30.5 31.5 400 500"
   enable-background="new 30.5 31.5 412 533"
   xml:space="preserve"><metadata
     id="metadata4"><rdf:RDF><cc:Work
         rdf:about=""><dc:format>
          
          
          
          
          image/svg+xml
        
        
        
        
        </dc:format><dc:type
           rdf:resource="http://purl.org/dc/dcmitype/StillImage" /><dc:title></dc:title></cc:Work></rdf:RDF></metadata><defs
     id="defs6" /><path
     style="fill:#ffffff"
     d="M 230.45,531.13 C 156.13,477.21 105.19,409.11 74.71,322.97 47.07,244.87 35.98,150.22 40.8,33.62 l 0.02,-0.46 379.82,0 0.02,0.46 c 4.81,116.6 -6.28,211.24 -33.91,289.35 -30.48,86.14 -81.42,154.24 -155.74,208.16 l -0.28,0.2 z"
     id="path4148" /><path
     id="path10"
     d="M 419.96,33.21 C 429.03,252.66 383.71,419.16 230.51,530.31 146.04,469.02 94.36,390.9 66.52,296.34 64.43,289.25 62.48,282.07 60.65,274.8 49.2,229.11 42.88,179.78 40.77,126.86 39.57,96.8 39.72,65.58 41.06,33.21 l 189.45,0 189.45,0 m 0.92,-0.95 -0.92,0 -189.45,0 -189.45,0 -0.92,0 -0.04,0.92 c -4.82,116.66 6.28,211.36 33.93,289.52 30.51,86.24 81.51,154.41 155.91,208.39 l 0.56,0.41 0.56,-0.41 C 305.46,477.11 356.46,408.94 386.97,322.7 414.62,244.54 425.72,149.84 420.9,33.18 l -0.04,-0.92 0,0 z" /><path
     style="fill:#e00e00;fill-rule:evenodd;stroke:#000000;stroke-width:1;stroke-linecap:butt;stroke-linejoin:round;stroke-miterlimit:4;stroke-dasharray:none;stroke-opacity:1;fill-opacity:1"
     d="m 279.51101,347.24874 c 40.49191,0 58.85826,-38.99266 58.85826,-62.01285 l 38.01301,0 8.89576,-33.55937 -46.90877,0 0,-38.35304 52.83586,0 4,-33.55937 -56.83586,0 c 0,-23.02019 -18.36635,-62.01285 -58.85826,-62.01285 -28.89361,0 -41.65838,13.06551 -49.01101,25.54633 -7.35263,-12.48082 -20.1174,-25.54633 -49.01101,-25.54633 -40.49191,0 -58.85826,38.99266 -58.85826,62.01285 l -56.835846,0 4,33.55937 52.835846,0 0,38.35304 -46.90874,0 8.895758,33.55937 38.012982,0 c 0,23.02019 18.36635,62.01285 58.85826,62.01285 28.89361,0 41.65838,-13.06551 49.01101,-25.54633 7.35263,12.48082 20.1174,25.54633 49.01101,25.54633 z"
     id="path4389" /><path
     id="path4373"
     d="m 205.40393,163.70048 c -8.99915,16.06363 -29.32174,16.06363 -49.21366,16.06363 0,-11.29508 6.36627,-23.79141 19.70248,-27.5997 15.49252,-4.42384 24.83276,4.90692 29.51118,11.53607 z"
     style="fill:#ffffff;fill-rule:evenodd;stroke:#000000;stroke-width:1;stroke-linecap:butt;stroke-linejoin:miter;stroke-miterlimit:4;stroke-dasharray:none;stroke-opacity:1" /><path
     style="fill:#ffffff;fill-rule:evenodd;stroke:#000000;stroke-width:1;stroke-linecap:butt;stroke-linejoin:round;stroke-miterlimit:4;stroke-dasharray:none;stroke-opacity:1"
     d="m 205.40393,301.29952 c -13.44505,-16.06363 -30.89087,-16.06363 -49.21366,-16.06363 0,11.29508 6.36627,23.79141 19.70248,27.5997 15.49252,4.42384 24.83276,-4.90692 29.51118,-11.53607 z"
     id="path4377" /><path
     style="fill:#ffffff;fill-rule:evenodd;stroke:#000000;stroke-width:1;stroke-linecap:butt;stroke-linejoin:miter;stroke-miterlimit:4;stroke-dasharray:none;stroke-opacity:1"
     d="m 255.59608,163.70048 c 8.99914,16.06363 29.32173,16.06363 49.21365,16.06363 0,-11.29508 -6.36627,-23.79141 -19.70248,-27.5997 -15.49252,-4.42384 -24.83276,4.90692 -29.51117,11.53607 z"
     id="path4391" /><path
     id="path4393"
     d="m 255.59608,301.29952 c 13.44504,-16.06363 30.89087,-16.06363 49.21365,-16.06363 0,11.29508 -6.36627,23.79141 -19.70248,27.5997 -15.49252,4.42384 -24.83276,-4.90692 -29.51117,-11.53607 z"
     style="fill:#ffffff;fill-rule:evenodd;stroke:#000000;stroke-width:1;stroke-linecap:butt;stroke-linejoin:round;stroke-miterlimit:4;stroke-dasharray:none;stroke-opacity:1" /><path
     id="path4395"
     d="m 304.80973,251.67652 0,-38.35304 c -30.62957,0 -57.38448,-5.31849 -74.30973,-21.94588 -16.92525,16.62739 -43.68016,21.94588 -74.30973,21.94588 l 0,38.35304 c 30.62957,0 57.38448,5.31849 74.30973,21.94588 16.92525,-16.62739 43.68016,-21.94588 74.30973,-21.94588 z"
     style="fill:#ffffff;fill-rule:evenodd;stroke:#000000;stroke-width:1;stroke-linecap:butt;stroke-linejoin:miter;stroke-miterlimit:4;stroke-dasharray:none;stroke-opacity:1" /></svg>