<?xml version="1.0" encoding="UTF-8" standalone="no"?>
<svg
   xmlns:dc="http://purl.org/dc/elements/1.1/"
   xmlns:cc="http://creativecommons.org/ns#"
   xmlns:rdf="http://www.w3.org/1999/02/22-rdf-syntax-ns#"
   xmlns:svg="http://www.w3.org/2000/svg"
   xmlns="http://www.w3.org/2000/svg"
   id="svg2"
   version="1.1"
   x="0"
   y="0"
   width="400"
   height="500"
   viewBox="30.5 31.5 400 500"
   enable-background="new 30.5 31.5 412 533"
   xml:space="preserve"><metadata
     id="metadata4"><rdf:RDF><cc:Work
         rdf:about=""><dc:format>
          
          
          
          
          
          image/svg+xml
        
        
        
        
        
        </dc:format><dc:type
           rdf:resource="http://purl.org/dc/dcmitype/StillImage" /><dc:title></dc:title></cc:Work></rdf:RDF></metadata><defs
     id="defs6" /><path
     style="fill:#32ac60;fill-opacity:1"
     id="path8"
     d="M 230.44,531.14 C 156.12,477.22 105.18,409.12 74.7,322.98 47.06,244.88 35.97,150.23 40.79,33.63 l 0.02,-0.46 379.82,0 0.02,0.46 c 4.81,116.6 -6.28,211.24 -33.91,289.35 C 356.26,409.12 305.32,477.22 231,531.14 l -0.28,0.2 -0.28,-0.2 z" /><path
     id="path10"
     d="M 419.96,33.21 C 429.03,252.66 383.7,419.16 230.5,530.31 77.31,419.16 31.99,252.66 41.06,33.21 l 189.45,0 189.45,0 m 0.92,-0.95 -0.92,0 -189.45,0 -189.45,0 -0.92,0 -0.04,0.92 c -4.82,116.66 6.28,211.36 33.93,289.52 30.51,86.24 81.51,154.41 155.91,208.39 l 0.56,0.41 0.56,-0.41 C 305.46,477.11 356.46,408.94 386.97,322.7 414.62,244.54 425.72,149.84 420.9,33.18 l -0.04,-0.92 0,0 z" /><path
     d="m 93.9309,69.068182 c -3.91331,1.864351 -9.15411,2.40425 -12.81755,5.350316 -6.51419,5.238588 -5.59236,9.361103 -9.31995,14.130953 -3.32948,4.26043 -5.86711,6.768864 -7.39458,12.438989 -1.16106,4.30995 0.35094,9.78054 0.71756,14.10272 0.25554,3.01272 -2.21299,7.73432 -1.13349,12.12397 1.34744,5.47913 5.5809,9.182 6.03262,15.21267 0.39091,5.21887 5.24345,4.69657 9.53567,9.36742 5.45182,5.93274 9.32468,1.41569 14.36265,7.95576 3.16842,4.11309 4.86101,2.33533 8.66054,6.07533 3.49009,3.4354 11.62202,3.40833 17.52933,6.43471 22.49582,11.52488 35.94459,19.00325 63.95635,36.4948 22.65918,14.1492 74.38867,57.8316 117.35965,97.44145 9.00825,8.30364 17.67044,16.38837 25.52151,24.06439 5.17705,5.06161 1.58902,8.641 7.46607,13.91611 3.85299,3.45836 22.31334,-15.59705 19.32999,-19.30052 -4.16181,-5.16638 -8.82154,-3.76635 -12.76364,-7.65787 -7.82901,-7.72854 -15.93288,-15.78582 -24.14993,-24.02626 -34.64855,-34.74712 -71.30968,-72.7509 -97.8631,-103.09739 -16.89915,-19.31314 -30.32913,-36.68026 -37.0036,-58.4298 -1.89662,-6.18032 -6.29068,-11.07549 -9.53894,-14.60201 -2.2799,-2.47521 -2.12541,-7.34246 -4.54728,-11.53077 -2.8837,-4.98698 -7.7146,-6.77803 -10.33691,-12.739563 -2.01473,-4.580283 -4.687,-8.899672 -9.42071,-11.619034 -3.02065,-1.735268 -5.75189,-6.156662 -9.16662,-7.560386 -4.03456,-1.658524 -9.59744,-0.546302 -13.71493,-3.334775 -8.24632,-5.584628 -10.75008,-7.363853 -17.35618,-6.864917 -7.41864,0.560304 -8.53167,3.074952 -13.94453,5.653707 z"
     id="path3829"
     style="fill:#ffffff;stroke:#000000;stroke-width:1;stroke-opacity:1" /></svg>