<?xml version="1.0" encoding="UTF-8" standalone="no"?>
<svg
   xmlns:dc="http://purl.org/dc/elements/1.1/"
   xmlns:cc="http://creativecommons.org/ns#"
   xmlns:rdf="http://www.w3.org/1999/02/22-rdf-syntax-ns#"
   xmlns:svg="http://www.w3.org/2000/svg"
   xmlns="http://www.w3.org/2000/svg"
   xml:space="preserve"
   enable-background="new 30.5 31.5 412 533"
   viewBox="30.5 31.5 400 500"
   height="500"
   width="400"
   y="0"
   x="0"
   version="1.1"
   id="svg2"><metadata
     id="metadata4"><rdf:RDF><cc:Work
         rdf:about=""><dc:format>
          
          
          
          
          image/svg+xml
        
        
        
        
        </dc:format><dc:type
           rdf:resource="http://purl.org/dc/dcmitype/StillImage" /><dc:title></dc:title></cc:Work></rdf:RDF></metadata><defs
     id="defs6" /><path
     id="path4148"
     d="M 230.45,531.13 C 156.13,477.21 105.19,409.11 74.71,322.97 47.07,244.87 35.98,150.22 40.8,33.62 l 0.02,-0.46 379.82,0 0.02,0.46 c 4.81,116.6 -6.28,211.24 -33.91,289.35 -30.48,86.14 -81.42,154.24 -155.74,208.16 l -0.28,0.2 z"
     style="fill:#0085ca;fill-opacity:1" /><path
     d="M 419.96,33.21 C 429.03,252.66 383.71,419.16 230.51,530.31 146.04,469.02 94.36,390.9 66.52,296.34 64.43,289.25 62.48,282.07 60.65,274.8 49.2,229.11 42.88,179.78 40.77,126.86 39.57,96.8 39.72,65.58 41.06,33.21 l 189.45,0 189.45,0 m 0.92,-0.95 -0.92,0 -189.45,0 -189.45,0 -0.92,0 -0.04,0.92 c -4.82,116.66 6.28,211.36 33.93,289.52 30.51,86.24 81.51,154.41 155.91,208.39 l 0.56,0.41 0.56,-0.41 C 305.46,477.11 356.46,408.94 386.97,322.7 414.62,244.54 425.72,149.84 420.9,33.18 l -0.04,-0.92 0,0 z"
     id="path10" /><path
     id="path4261"
     d="m 227.62574,221.871 c 3.76564,11.17965 -2.98611,16.69797 -14.04929,16.33639 -11.92706,-0.38982 -23.75635,-13.12189 -21.89076,-29.95005 1.63373,-14.73673 15.69548,-31.16125 38.81431,-32.78167 30.29883,-2.12368 53.8645,25.4515 53.97637,49.5537 0.15021,32.36386 -21.63399,73.2668 -74.92956,72.75138 -36.42656,-0.35228 -77.64946,-28.54514 -79.28594,-81.06293 C 128.70336,166.73422 174.78803,114.52012 230.5,112.74394 284.02678,111.03743 341.49204,156.69884 345.79227,216.5 350.01313,275.19738 315.99174,346.83727 230.5,357.2452 158.44053,366.01786 72.501948,316.45842 72.393695,216.5 72.284129,115.32923 157.47955,63.276348 230.5,63.276348 337.86858,65.132498 386.77243,159.16585 383.67001,216.5 c -0.77891,14.39461 -2.98835,31.44819 -8.86488,43.67891 1.19404,-11.30854 1.29996,-19.13357 1.30022,-29.9945 C 376.10711,157.32043 321.52437,85.515225 232.88969,84.790561 150.11739,84.113826 93.511272,150.70355 97.406582,219.58391 c 4.373288,77.3323 69.721868,110.27196 115.189688,108.76404 80.40099,-2.66646 104.8433,-61.71493 104.8433,-99.03481 0,-50.91142 -39.62398,-85.82049 -83.06145,-85.82049 -41.564,0 -72.60617,31.32586 -72.60617,69.70192 0,33.02149 26.49357,54.04324 52.71208,54.30941 24.84546,0.25223 41.53072,-20.28974 41.53072,-36.30308 0,-20.28877 -13.1952,-28.75205 -23.23397,-28.75205 -12.40781,0 -20.04763,7.07826 -20.32973,14.66645 -0.14521,3.90613 2.58757,8.56753 8.13189,8.56753 2.87066,0 5.52923,-1.30906 7.0428,-3.81183 z"
     style="fill:#ffffff;fill-rule:evenodd;stroke:#000000;stroke-width:1px;stroke-linecap:round;stroke-linejoin:round;stroke-opacity:1" /></svg>