<?xml version="1.0" encoding="UTF-8" standalone="no"?>
<svg
   xmlns:osb="http://www.openswatchbook.org/uri/2009/osb"
   xmlns:dc="http://purl.org/dc/elements/1.1/"
   xmlns:cc="http://creativecommons.org/ns#"
   xmlns:rdf="http://www.w3.org/1999/02/22-rdf-syntax-ns#"
   xmlns:svg="http://www.w3.org/2000/svg"
   xmlns="http://www.w3.org/2000/svg"
   id="svg2"
   version="1.1"
   x="0"
   y="0"
   width="400"
   height="500"
   viewBox="30.5 31.5 400 500"
   enable-background="new 30.5 31.5 412 533"
   xml:space="preserve"><metadata
     id="metadata4"><rdf:RDF><cc:Work
         rdf:about=""><dc:format>
          
          
          
          image/svg+xml
        
        
        
        </dc:format><dc:type
           rdf:resource="http://purl.org/dc/dcmitype/StillImage" /><dc:title></dc:title></cc:Work></rdf:RDF></metadata><defs
     id="defs6"><linearGradient
       osb:paint="solid"
       id="linearGradient4333"><stop
         id="stop4335"
         offset="0"
         style="stop-color:#ffffff;stop-opacity:1;" /></linearGradient></defs><path
     fill="#32ac60"
     id="path8"
     d="M230.44 531.14C156.12 477.22 105.18 409.12 74.7 322.98 47.06 244.88 35.97 150.23 40.79 33.63l0.02-0.46 379.82 0 0.02 0.46c4.81 116.6-6.28 211.24-33.91 289.35C356.26 409.12 305.32 477.22 231 531.14l-0.28 0.2-0.28-0.2z" /><path
     id="path10"
     d="M419.96 33.21C429.03 252.66 383.7 419.16 230.5 530.31 77.31 419.16 31.99 252.66 41.06 33.21l189.45 0 189.45 0m0.92-0.95-0.92 0-189.45 0-189.45 0-0.92 0-0.04 0.92c-4.82 116.66 6.28 211.36 33.93 289.52 30.51 86.24 81.51 154.41 155.91 208.39l0.56 0.41 0.56-0.41C305.46 477.11 356.46 408.94 386.97 322.7 414.62 244.54 425.72 149.84 420.9 33.18l-0.04-0.92 0 0z" /><path
     id="path4321"
     d="m 176.23379,51.815347 c -23.71006,0.852675 -47.03768,21.449556 -53.53277,44.355697 -32.033411,5.327296 -58.932175,30.946516 -59.240539,66.448806 -0.284631,32.76993 25.967405,70.16529 69.001379,69.1554 40.83642,-0.95832 67.76934,-33.70426 67.30715,-68.38529 -0.50664,-38.01645 -29.65504,-61.90238 -57.60383,-66.691068 4.43098,-15.356542 15.2147,-26.726237 31.10996,-26.797371 24.56956,-0.109953 49.07872,30.225179 50.40304,44.507519 0.91744,9.89423 0.88665,27.34229 -0.70925,38.93502 -3.75302,27.26206 -5.23945,43.72021 -4.24279,63.18881 1.28663,25.13251 0.75768,44.39144 2.77386,70.57477 2.43292,31.59535 -7.45,60.22079 -12.17101,87.82049 -0.82697,4.83458 -17.10958,-6.77454 -16.5542,-8.71274 5.53777,-19.3261 13.16577,-39.7973 13.94038,-60.37536 0.84499,-22.44763 -5.32441,-52.0289 -13.50476,-72.31574 -15.60976,20.0393 -22.33783,35.72224 -23.52439,55.76154 -8.55022,-18.02175 -23.38716,-31.10487 -39.42515,-36.15787 0.21704,19.59577 -0.35575,34.55085 10.23747,51.8408 -18.54566,-26.14532 -33.58489,-39.39939 -55.325897,-46.39534 2.195145,35.39983 31.227647,64.34724 41.603337,73.18702 -9.42359,-4.04541 -22.80331,0.84626 -27.880771,2.396 6.650631,13.64008 24.672601,24.59234 45.524071,30.05895 -10.47415,3.06576 -19.58591,8.89784 -21.99967,18.29676 14.51154,5.63912 27.88258,6.1531 42.03897,3.04946 13.46925,-2.95299 17.82103,-1.56636 23.30658,4.57418 l 14.59384,16.33639 c 4.73686,5.30246 -1.11996,7.55463 -3.70292,9.3662 -4.74211,3.32591 -16.75283,3.53172 -14.1582,10.01964 5.49714,13.7457 2.39145,23.14693 4.79201,23.52441 3.04946,0.47951 6.09891,0.0354 9.14837,0 0.75044,5.44442 -3.60136,11.68139 -8.71274,15.46511 -2.60497,1.92834 2.33258,6.27308 4.13855,5.44546 9.2399,-4.23434 14.57358,-11.97552 18.29676,-24.17785 0.76724,-2.51455 13.06244,-4.48304 12.30674,-3.26727 -2.96737,4.77391 -2.96737,9.14251 -2.96737,15.46511 0,11.09156 -2.7658,20.35466 -7.16119,29.62331 -0.86415,1.82225 4.70548,5.81196 7.16119,5.00983 6.01279,-5.79308 9.82488,-13.16725 10.41582,-20.25712 1.27052,-15.24304 0.79566,-22.90038 3.98702,-31.80151 1.77908,-4.9621 19.14188,-10.20871 18.95021,-6.64346 -0.0955,1.77637 2.97103,3.64536 3.24578,8.57513 0.39535,7.09382 2.99002,8.90291 8.2986,11.24635 1.62864,0.71896 7.56472,-6.05776 6.09892,-7.62364 -7.48165,-7.99249 -1.91629,-13.51369 -9.80183,-17.53439 l 26.46495,-10.45529 c 3.04605,-1.20337 1.83409,-32.1289 -2.06928,-31.14805 l -42.47461,10.67311 c 11.88363,-10.94242 18.8488,-19.91707 29.4055,-32.01932 11.33774,-12.99764 34.93873,-12.46556 52.71208,-14.37602 13.56623,-1.45824 27.73417,-7.50716 33.32623,-13.06911 -3.96137,-5.16806 -11.14465,-9.19649 -20.0393,-9.80183 15.27643,-14.71905 29.01378,-26.25789 35.06878,-44.43498 -13.66032,2.52739 -22.19887,6.19883 -42.47461,18.73239 13.69347,-18.70047 25.05818,-40.00963 28.53423,-59.90008 -17.85654,6.84499 -39.31579,25.80492 -53.36554,45.74188 -1.58846,-16.47489 -4.87409,-33.76851 -12.85129,-49.4448 -9.67182,16.19821 -12.07835,37.50461 -13.06911,57.93972 -7.47405,-21.80445 -12.40864,-43.84286 -27.22731,-64.25645 -12.80747,42.96268 0.87427,80.08758 8.49492,108.69143 -4.09921,6.45027 -11.2202,19.36688 -21.1284,28.31641 -2.36098,2.13255 -2.71817,-2.42594 -2.50176,-4.79201 2.74329,-29.99314 1.95973,-63.88508 0,-94.0976 -3.30909,-51.01514 -4.0932,-100.72266 0,-149.41167 1.45881,-17.3527 19.65416,-48.003652 44.22486,-47.893699 15.89526,0.07113 24.67898,7.440829 29.10996,22.797371 -27.94879,4.788688 -57.09719,28.674618 -57.60383,66.691068 -0.46219,34.68103 26.47073,67.42697 67.30715,68.38529 43.03397,1.00989 69.28601,-36.38547 69.00138,-69.1554 C 391.23115,127.11756 364.33239,101.49834 332.29898,96.171044 327.98207,69.779807 304.47627,56.668022 280.76621,55.815347 258.56722,55.017014 243.5,75.060409 233.5,85.35825 222.19309,70.446587 198.43278,51.017014 176.23379,51.815347 Z"
     style="fill:#ffffff;fill-rule:evenodd;stroke:#000000;stroke-width:1px;stroke-linecap:round;stroke-linejoin:round;stroke-opacity:1" /><path
     id="path4347"
     d="m 111.51501,111.4079 c 2.05969,-3.05704 -11.799853,1.68214 -17.871661,7.75327 -13.910301,13.90875 -18.07395,26.20873 -18.259459,33.75536 -0.34862,14.1821 16.763872,6.98222 18.572737,-1.69422 1.670759,-8.014 3.14864,-13.88696 6.461913,-21.29534 2.78669,-6.23094 5.9718,-10.91294 11.09647,-18.51907 z"
     style="fill:#32ac60;fill-rule:evenodd;stroke:#000000;stroke-width:1px;stroke-linecap:butt;stroke-linejoin:miter;stroke-opacity:1;fill-opacity:1" /><path
     id="path4349"
     d="m 165.54446,114.7854 c 4.04502,1.84097 6.80963,5.51789 9.62107,8.47914 9.39448,9.89511 13.65462,23.03448 16.13233,32.73241 1.80945,7.0823 -12.71728,7.89155 -15.28545,-1.77671 -2.02333,-7.61715 -3.38736,-14.78017 -5.72229,-22.30294 -1.41227,-4.55007 -8.81528,-18.98407 -4.74566,-17.1319 z"
     style="fill:#32ac60;fill-rule:evenodd;stroke:#000000;stroke-width:1px;stroke-linecap:butt;stroke-linejoin:miter;stroke-opacity:1;fill-opacity:1" /><path
     id="path4351"
     d="m 141.86261,110.25273 c 4.75036,2.33282 8.16906,6.17083 10.83655,9.23561 8.98219,10.32001 10.23474,20.04777 10.56688,30.65582 0.34756,11.10042 -19.64137,11.23149 -21.4089,2.15629 -1.56009,-8.0101 -1.87452,-14.05694 -2.15632,-22.54956 -0.1864,-5.61749 -2.15592,-21.61852 2.16179,-19.49816 z"
     style="fill:#32ac60;fill-rule:evenodd;stroke:#000000;stroke-width:1px;stroke-linecap:butt;stroke-linejoin:miter;stroke-opacity:1;fill-opacity:1" /><path
     style="fill:#32ac60;fill-rule:evenodd;stroke:#000000;stroke-width:1px;stroke-linecap:butt;stroke-linejoin:miter;stroke-opacity:1;fill-opacity:1"
     d="m 127.23419,109.56511 c -4.02992,-0.44016 -8.8393,7.84874 -11.10762,11.86663 -4.04702,7.16851 -10.53355,19.25214 -10.78976,28.86644 -0.34757,13.04283 19.71967,11.60892 22.64106,2.00227 2.02142,-6.6472 2.35635,-17.93533 2.63925,-30.11146 0.0964,-4.14844 -0.53484,-12.3128 -3.38293,-12.62388 z"
     id="path4355" /><path
     style="fill:#32ac60;fill-rule:evenodd;stroke:#000000;stroke-width:1px;stroke-linecap:butt;stroke-linejoin:miter;stroke-opacity:1;fill-opacity:1"
     d="m 351.66893,113.63667 c 11.28079,-0.15276 27.38405,33.80826 27.64676,43.20286 0.34862,12.46672 -13.21546,8.19921 -15.59576,1.00115 -3.1064,-9.39384 -4.9706,-16.53815 -7.78163,-26.30894 -1.43215,-4.97801 -8.15074,-17.84252 -4.26937,-17.89507 z"
     id="path4357" /><path
     style="fill:#32ac60;fill-rule:evenodd;stroke:#000000;stroke-width:1px;stroke-linecap:butt;stroke-linejoin:miter;stroke-opacity:1;fill-opacity:1"
     d="m 287.81558,116.42693 c -14.53362,11.35742 -20.77863,28.11803 -22.86044,40.02751 -1.83419,10.49294 14.16532,8.24829 15.80584,-0.31578 1.66176,-8.67493 5.28406,-24.00724 9.96206,-32.88778 1.76899,-3.35818 4.77495,-12.29607 -2.90746,-6.82395 z"
     id="path4359" /><path
     style="fill:#32ac60;fill-rule:evenodd;stroke:#000000;stroke-width:1px;stroke-linecap:butt;stroke-linejoin:miter;stroke-opacity:1;fill-opacity:1"
     d="m 315.55102,108.93902 c -5.06127,-1.75631 -11.51237,7.48211 -16.22121,18.31368 -3.58262,8.24099 -5.88127,16.63315 -6.03481,22.57889 -0.34756,13.45878 18.02249,12.49467 20.94684,1.15515 0.97972,-3.799 2.3187,-10.14201 2.95339,-17.12811 0.99528,-10.95508 2.48284,-23.48748 -1.64421,-24.91961 z"
     id="path4361" /><path
     id="path4363"
     d="m 331.66359,110.01716 c 6.78569,-0.25439 11.56739,12.62984 13.78762,19.42845 2.32293,7.11309 3.04803,14.11078 3.23168,21.00206 0.34757,13.04283 -17.33235,13.38015 -20.25374,3.77351 -1.44644,-4.75645 -1.39674,-12.30305 -1.45967,-21.02084 -0.0557,-7.71534 -0.17712,-23.00055 4.69411,-23.18318 z"
     style="fill:#32ac60;fill-rule:evenodd;stroke:#000000;stroke-width:1px;stroke-linecap:butt;stroke-linejoin:miter;stroke-opacity:1;fill-opacity:1" /></svg>