<?xml version="1.0" encoding="UTF-8" standalone="no"?>
<svg
   xmlns:dc="http://purl.org/dc/elements/1.1/"
   xmlns:cc="http://creativecommons.org/ns#"
   xmlns:rdf="http://www.w3.org/1999/02/22-rdf-syntax-ns#"
   xmlns:svg="http://www.w3.org/2000/svg"
   xmlns="http://www.w3.org/2000/svg"
   id="svg2"
   version="1.1"
   x="0"
   y="0"
   width="400"
   height="500"
   viewBox="30.5 31.5 400 500"
   enable-background="new 30.5 31.5 412 533"
   xml:space="preserve"><metadata
     id="metadata4"><rdf:RDF><cc:Work
         rdf:about=""><dc:format>
          
          
          
          image/svg+xml
        
        
        
        </dc:format><dc:type
           rdf:resource="http://purl.org/dc/dcmitype/StillImage" /><dc:title></dc:title></cc:Work></rdf:RDF></metadata><defs
     id="defs6" /><path
     style="fill:#0085ca;fill-opacity:1"
     fill="#32ac60"
     id="path8"
     d="M230.56 531.14C304.88 477.22 355.82 409.12 386.3 322.98 413.94 244.88 425.03 150.23 420.21 33.63l-0.02-0.46-379.82 0-0.02 0.46c-4.81 116.6 6.28 211.24 33.91 289.35 30.48 86.14 81.42 154.24 155.74 208.16l0.28 0.2 0.28-0.2z" /><path
     id="path10"
     d="M41.04 33.21C31.97 252.66 77.3 419.16 230.5 530.31 383.69 419.16 429.01 252.66 419.94 33.21l-189.45 0-189.45 0m-0.92-0.95 0.92 0 189.45 0 189.45 0 0.92 0 0.04 0.92c4.82 116.66-6.28 211.36-33.93 289.52-30.51 86.24-81.51 154.41-155.91 208.39l-0.56 0.41-0.56-0.41C155.54 477.11 104.54 408.94 74.03 322.7 46.38 244.54 35.28 149.84 40.1 33.18l0.04-0.92 0 0z" /><path
     style="fill:#ffffff;stroke:#000000;stroke-opacity:1"
     id="path4340"
     d="m 197.37,80.5 0,73.99 c 8.68,5.28 13.45,10.14 13.31,17.65 -0.21,11.42 -20.6,24.27 -30.65,36.84 -12.8,16.02 -19.8,33.38 -19.81,51.39 -0.01,23.12 6.12,45.62 19.81,69.97 19.59,34.83 41.02,90.5 45.51,133.74 3.3,0 6.61,0 9.91,0 4.49,-43.24 25.92,-98.91 45.51,-133.74 13.7,-24.35 19.83,-46.85 19.81,-69.97 -0.01,-18.01 -7.01,-35.38 -19.81,-51.39 -10.05,-12.57 -30.44,-25.43 -30.65,-36.84 -0.14,-7.51 4.63,-12.36 13.31,-17.65 l 0,-73.99 c -8.17,-4.09 -20.6,-7.43 -33.12,-7.43 -12.52,0 -24.95,3.34 -33.13,7.43 z" /><path
     style="fill:#0085ca;fill-opacity:1;stroke:#000000;stroke-opacity:1"
     id="path4350"
     d="m 243.34,341.15 c 0.18,-5.89 -4.61,-11.24 -11.14,-14.71 2.77,-31.01 4.65,-46.72 7.46,-65.62 1.13,-7.61 -2.5,-13.03 -9.16,-13.03 -6.66,0 -10.29,5.43 -9.16,13.03 2.82,18.9 4.69,34.61 7.46,65.62 -6.53,3.47 -11.33,8.82 -11.14,14.71 0.21,6.46 6.99,10.73 12.84,10.73 5.85,0 12.63,-4.27 12.84,-10.73 z" /><path
     style="fill:none;stroke:#000000;stroke-width:1;stroke-linecap:butt;stroke-linejoin:miter;stroke-miterlimit:4;stroke-dasharray:none;stroke-opacity:1"
     id="path4352"
     d="M 230.5,464.38541 230.5,351.88" /></svg>