<?xml version="1.0" encoding="UTF-8" standalone="no"?>
<svg
   xmlns:dc="http://purl.org/dc/elements/1.1/"
   xmlns:cc="http://creativecommons.org/ns#"
   xmlns:rdf="http://www.w3.org/1999/02/22-rdf-syntax-ns#"
   xmlns:svg="http://www.w3.org/2000/svg"
   xmlns="http://www.w3.org/2000/svg"
   id="svg2827"
   height="500"
   width="475"
   version="1.0">
  <metadata
     id="metadata175">
    <rdf:RDF>
      <cc:Work
         rdf:about="">
        <dc:format>image/svg+xml</dc:format>
        <dc:type
           rdf:resource="http://purl.org/dc/dcmitype/StillImage" />
        <dc:title></dc:title>
      </cc:Work>
    </rdf:RDF>
  </metadata>
  <defs
     id="defs2831" />
  <path
     style="fill:#ffffff;fill-rule:evenodd;stroke:none;stroke-width:1px;stroke-linecap:butt;stroke-linejoin:miter;stroke-opacity:1"
     d="m 248.70402,482.02472 c 8.37993,-10.89692 18.9668,-13.11324 28.88884,-13.26748 12.57578,-0.1955 24.0928,2.74276 42.7983,2.74276 C 407.15624,471.5 420,400.23852 420,357.04546 l 0,-232.6005 c 0,-32.07912 30.21334,-57.570796 52.5,-73.185082 L 420,1.5 55,1.5 2.4999999,51.259878 C 24.78665,66.874164 55,92.36584 55,124.44496 l 0,232.6005 C 55,400.23852 67.84376,471.5 154.60884,471.5 c 18.7055,0 30.22252,-2.93826 42.7983,-2.74276 9.92204,0.15424 20.50891,2.37056 28.88884,13.26748 4.40765,5.73152 8.77774,9.51685 11.20402,15.27528 2.42628,-5.75843 6.79637,-9.54376 11.20402,-15.27528 z"
     id="path4641" />
  <path
     id="path4645"
     d="m 209.76905,209.37403 c -1.51805,-3.42578 -5.58017,-6.1033 -10.12399,-8.63914 l 6.07439,-10.25898 c 2.07965,6.56151 4.03387,13.14159 5.12949,19.84302 2.13571,13.06324 4.04499,26.14126 2.08351,40.63094 -3.0828,22.77296 -18.37554,26.72294 -21.92653,26.32238 -13.19582,-1.48851 -20.08209,-10.48301 -22.54275,-17.95321 -4.80276,6.76764 -9.86964,20.96693 -1.9573,35.43396 6.48079,11.84955 20.30391,11.80245 24.70253,11.20388 14.42136,-1.96249 26.93657,-21.00301 30.57445,-29.22458 7.87889,-17.80622 15.71715,-30.16948 15.71715,-30.16948 0,0 7.83826,12.36326 15.71715,30.16948 3.63788,8.22157 16.15309,27.26209 30.57445,29.22458 4.39862,0.59857 18.22174,0.64567 24.70253,-11.20388 7.91234,-14.46703 2.84546,-28.66632 -1.9573,-35.43396 -2.46066,7.4702 -9.34693,16.4647 -22.54275,17.95321 -3.55099,0.40056 -18.84373,-3.54942 -21.92653,-26.32238 -1.96148,-14.48968 -0.0522,-27.5677 2.08351,-40.63094 1.09562,-6.70143 3.04984,-13.28151 5.12949,-19.84302 l 6.07439,10.25898 c -4.54382,2.53584 -8.60594,5.21336 -10.12399,8.63914 18.68432,0.38925 26.72741,1.32063 44.68054,9.58404 -0.23701,-2.49875 -0.43343,-4.69379 -2.15979,-6.9518 -1.7556,-2.29626 -3.99292,-3.09251 -6.20937,-2.90222 -5.26647,-3.18074 -8.7777,-5.7034 -16.60335,-9.04409 l -10.66393,-22.34027 c -1.12663,-2.36022 0.76204,-7.66933 1.48485,-11.13639 3.35954,6.93556 6.74521,13.85574 13.09369,19.0331 1.79502,-6.34437 0.3367,-12.68873 -1.21488,-19.0331 3.57049,4.05243 7.27399,7.37332 11.20388,9.44906 0.98634,-4.28627 0.39801,-8.76937 0,-13.22868 4.62088,4.94272 9.64643,9.13393 15.52345,11.74383 -0.48221,-5.91288 -1.78016,-11.72379 -5.12948,-17.27828 5.35446,3.05079 10.70893,5.75247 16.06339,7.0193 -1.08145,-5.45102 -4.02337,-10.4727 -7.42426,-15.38846 5.48535,2.38074 11.03172,4.48687 16.87332,5.26447 -1.4968,-4.63454 -4.32447,-9.26907 -7.42426,-13.90361 9.41228,3.29289 15.91199,3.67321 22.13779,3.77962 -3.63522,-6.29447 -9.14423,-11.20825 -16.19838,-14.9835 15.36616,2.12978 29.63326,2.85731 39.82102,-1.61984 -9.33257,-4.22495 -22.10808,-7.58917 -34.96151,-10.93391 1.16694,-1.25924 3.22315,-1.76699 8.63914,-1.07989 l 36.17639,4.58954 c 4.08492,0.51824 12.25855,-0.92992 15.52345,-7.15428 l -55.88442,-7.0193 c 1.70168,-2.61947 6.82983,-3.89944 15.11849,-2.83472 l 35.72873,4.58954 c 6.35182,0.81593 12.35881,-3.04352 13.27138,-7.0193 l -60.47397,-7.694225 c 0.36448,-1.565554 3.19863,-4.891055 10.93391,-3.914609 l 34.21909,4.319569 c 9.97572,1.259264 20.00944,-1.135505 22.88021,-6.884313 L 352.97219,75.197431 c -12.76816,-2.334268 -30.02222,-6.897212 -46.97531,-1.619838 -8.91845,2.776248 -18.8426,10.813793 -24.70253,22.947708 -9.69765,-3.964062 -19.24552,-7.329017 -26.99731,-3.509649 l -5.84237,-17.484747 c -2.11706,-6.33583 -3.79049,-12.703423 -0.92476,-21.269692 1.95382,-5.840361 5.53219,-14.994617 -0.38532,-24.352258 -3.55671,-5.62438 -10.62995,-10.050359 -17.95594,-9.093564 -4.69927,0.613738 -7.6453,2.873237 -9.71008,6.473385 -5.86755,0.195391 -10.55089,2.094576 -11.55961,6.550449 6.01526,-0.0263 8.75239,0.415711 10.48072,1.001833 1.52609,5.055112 0.98306,8.378045 9.24769,12.94677 0.86406,0.477657 3.15091,3.588099 2.00367,11.559616 -1.63548,11.364019 -7.40593,20.4413 -8.94808,33.668205 -7.75179,-3.819368 -17.29966,-0.454413 -26.99731,3.509649 -5.85993,-12.133915 -15.78408,-20.17146 -24.70253,-22.947708 -16.95309,-5.277374 -34.20715,-0.71443 -46.97531,1.619838 L 60.74393,86.401309 c 2.87077,5.748808 12.90449,8.143577 22.88022,6.884313 l 34.21908,-4.319569 c 7.73528,-0.976446 10.56943,2.349055 10.93391,3.914609 l -60.47396,7.694228 c 0.91256,3.97578 6.91956,7.83523 13.27137,7.0193 l 35.72873,-4.58954 c 8.28866,-1.06472 13.41681,0.21525 15.11849,2.83472 l -55.88441,7.0193 c 3.26489,6.22436 11.43853,7.67252 15.52344,7.15428 l 36.17639,-4.58954 c 5.41599,-0.6871 7.4722,-0.17935 8.63914,1.07989 -12.85343,3.34474 -25.62894,6.70896 -34.96151,10.93391 10.18776,4.47715 24.45486,3.74962 39.82102,1.61984 -7.05415,3.77525 -12.56316,8.68903 -16.19838,14.9835 6.2258,-0.10641 12.72551,-0.48673 22.13779,-3.77962 -3.09979,4.63454 -5.92746,9.26907 -7.42426,13.90361 5.8416,-0.7776 11.38797,-2.88373 16.87332,-5.26447 -3.40089,4.91576 -6.34281,9.93744 -7.42426,15.38846 5.35446,-1.26683 10.70893,-3.96851 16.06339,-7.0193 -3.34932,5.55449 -4.64727,11.3654 -5.12948,17.27828 5.87702,-2.6099 10.90257,-6.80111 15.52345,-11.74383 -0.39801,4.45931 -0.98634,8.94241 0,13.22868 3.92989,-2.07574 7.63339,-5.39663 11.20388,-9.44906 -1.55158,6.34437 -3.0099,12.68873 -1.21488,19.0331 6.34848,-5.17736 9.73415,-12.09754 13.09369,-19.0331 0.72281,3.46706 2.61148,8.77617 1.48485,11.13639 l -10.66393,22.34027 c -7.82565,3.34069 -11.33688,5.86335 -16.60335,9.04409 -2.21645,-0.19029 -4.45377,0.60596 -6.20937,2.90222 -1.72636,2.25801 -1.92278,4.45305 -2.15979,6.9518 17.95313,-8.26341 25.99622,-9.19479 44.68054,-9.58404"
     style="fill:#000000;fill-rule:evenodd;stroke:#000000;stroke-width:1px;stroke-linecap:round;stroke-linejoin:round;stroke-opacity:1" />
  <path
     id="path4647"
     d="m 75.69369,235.22395 24.16259,-5.83817 -13.56615,-19.87677 c -0.50187,-0.73533 4.22403,-3.46499 4.62329,-2.86846 l 16.67084,25.30997 -30.00076,7.79548 c -0.76489,0.19875 -2.7227,-4.32081 -1.88981,-4.52205 z"
     style="fill:#32ac60;fill-opacity:1;fill-rule:evenodd;stroke:#000000;stroke-width:1;stroke-linecap:round;stroke-linejoin:round;stroke-miterlimit:4;stroke-dasharray:none;stroke-opacity:1" />
  <path
     id="path4649"
     d="m 81.02566,245.48292 21.83407,-11.77757 5.06199,1.92355 -23.82512,13.97111 c -0.51446,0.30168 -4.03322,-3.59803 -3.07094,-4.11709 z"
     style="fill:#32ac60;fill-opacity:1;fill-rule:evenodd;stroke:#000000;stroke-width:1;stroke-linecap:butt;stroke-linejoin:miter;stroke-miterlimit:4;stroke-dasharray:none;stroke-opacity:1" />
  <path
     id="path4651"
     d="m 89.22609,254.72949 20.01175,-18.29067 6.58059,1.0799 -22.47525,20.92291 c -0.39536,0.36805 -4.9649,-2.92799 -4.11709,-3.71214 z"
     style="fill:#32ac60;fill-opacity:1;fill-rule:evenodd;stroke:#000000;stroke-width:1;stroke-linecap:butt;stroke-linejoin:miter;stroke-miterlimit:4;stroke-dasharray:none;stroke-opacity:1" />
  <path
     id="path4653"
     d="m 98.84388,262.22125 19.33681,-24.09509 -23.28517,-33.40917 c -0.39372,-0.5649 4.03519,-2.94084 4.75828,-1.88981 l 24.12884,35.46771 -19.94426,26.22113 c -0.47411,0.62332 -5.52453,-1.63432 -4.9945,-2.29477 z"
     style="fill:#32ac60;fill-opacity:1;fill-rule:evenodd;stroke:#000000;stroke-width:1;stroke-linecap:butt;stroke-linejoin:miter;stroke-miterlimit:4;stroke-dasharray:none;stroke-opacity:1" />
  <path
     id="path4655"
     d="m 103.6359,200.73489 c -0.32632,-0.49806 4.44035,-2.2992 4.82577,-1.72107 l 24.83752,37.25627 -17.04205,31.0469 c -0.68282,1.24396 -5.94265,0.15199 -5.23073,-1.11364 l 16.40086,-29.15709 z"
     style="fill:#32ac60;fill-opacity:1;fill-rule:evenodd;stroke:#000000;stroke-width:1;stroke-linecap:butt;stroke-linejoin:miter;stroke-miterlimit:4;stroke-dasharray:none;stroke-opacity:1" />
  <path
     id="path4657"
     d="m 112.6125,198.17014 c -0.33352,-0.495 4.95579,-1.31367 5.39946,-0.67492 l 24.33132,35.029 -13.80237,36.64883 c -0.33528,0.89026 -5.44823,0.60604 -5.02825,-0.43871 l 13.63364,-34.15158 z"
     style="fill:#32ac60;fill-opacity:1;fill-rule:evenodd;stroke:#000000;stroke-width:1;stroke-linecap:butt;stroke-linejoin:miter;stroke-miterlimit:4;stroke-dasharray:none;stroke-opacity:1" />
  <path
     id="path4659"
     d="m 145.85293,229.95947 5.80442,-1.82232 -22.88022,-31.9243 c -0.61061,-0.85197 -6.30952,-0.23509 -5.88283,0.38493 z"
     style="fill:#32ac60;fill-opacity:1;fill-rule:evenodd;stroke:#000000;stroke-width:1;stroke-linecap:butt;stroke-linejoin:miter;stroke-miterlimit:4;stroke-dasharray:none;stroke-opacity:1" />
  <path
     id="path4661"
     d="m 134.58156,196.38158 20.31547,29.4608 4.52205,-1.9573 -18.08819,-27.5035 c -0.6357,-0.9666 -7.4787,-1.05771 -6.74933,0 z"
     style="fill:#32ac60;fill-opacity:1;fill-rule:evenodd;stroke:#000000;stroke-width:1;stroke-linecap:butt;stroke-linejoin:miter;stroke-miterlimit:4;stroke-dasharray:none;stroke-opacity:1" />
  <path
     id="path4663"
     d="m 157.79924,230.76939 -5.70318,34.28658 c -0.14414,0.86655 -5.87103,2.6995 -5.66944,1.55233 l 6.10815,-34.75902 z"
     style="fill:#32ac60;fill-opacity:1;fill-rule:evenodd;stroke:#000000;stroke-width:1;stroke-linecap:butt;stroke-linejoin:miter;stroke-miterlimit:4;stroke-dasharray:none;stroke-opacity:1" />
  <path
     id="path4665"
     d="m 144.19935,235.02147 -7.76172,33.37541 c -0.27297,1.17378 4.81563,0.80657 5.06199,-0.30372 l 7.25552,-33.64539 z"
     style="fill:#32ac60;fill-opacity:1;fill-rule:evenodd;stroke:#000000;stroke-width:1;stroke-linecap:butt;stroke-linejoin:miter;stroke-miterlimit:4;stroke-dasharray:none;stroke-opacity:1" />
  <path
     style="fill:#32ac60;fill-opacity:1;fill-rule:evenodd;stroke:#000000;stroke-width:1;stroke-linecap:butt;stroke-linejoin:miter;stroke-miterlimit:4;stroke-dasharray:none;stroke-opacity:1"
     d="m 75.89383,335.2826 32.3571,-6.95639 -15.38269,-22.86902 c -0.60582,-0.90066 4.42124,-3.6135 4.98502,-2.77769 l 19.03414,28.21849 -38.45033,9.28923 c -0.82746,0.19991 -4.07244,-4.54016 -2.54324,-4.90462 z"
     id="path4667" />
  <path
     style="fill:#32ac60;fill-opacity:1;fill-rule:evenodd;stroke:#000000;stroke-width:1;stroke-linecap:butt;stroke-linejoin:miter;stroke-miterlimit:4;stroke-dasharray:none;stroke-opacity:1"
     d="m 85.19979,347.13725 27.85338,-13.23148 5.74625,2.625 -28.86489,14.68533 c -1.49773,0.76199 -6.09324,-3.42075 -4.73474,-4.07885 z"
     id="path4669" />
  <path
     style="fill:#32ac60;fill-opacity:1;fill-rule:evenodd;stroke:#000000;stroke-width:1;stroke-linecap:butt;stroke-linejoin:miter;stroke-miterlimit:4;stroke-dasharray:none;stroke-opacity:1"
     d="m 97.34434,356.19614 23.95233,-19.26041 6.42506,1.11955 -25.08367,21.46777 c -1.27255,1.0891 -6.18566,-2.59013 -5.29372,-3.32691 z"
     id="path4671" />
  <path
     style="fill:#32ac60;fill-opacity:1;fill-rule:evenodd;stroke:#000000;stroke-width:1;stroke-linecap:butt;stroke-linejoin:miter;stroke-miterlimit:4;stroke-dasharray:none;stroke-opacity:1"
     d="m 108.97114,361.84547 20.26859,-22.71264 -3.88027,-2.89987 -23.16214,-34.94297 c -0.60713,-0.91593 5.12181,-3.49717 5.84953,-2.40985 l 27.03306,40.39161 -20.86033,24.98833 c -0.84668,1.01422 -6.20689,-1.34058 -5.24844,-2.41461 z"
     id="path4673" />
  <path
     style="fill:#32ac60;fill-opacity:1;fill-rule:evenodd;stroke:#000000;stroke-width:1;stroke-linecap:butt;stroke-linejoin:miter;stroke-miterlimit:4;stroke-dasharray:none;stroke-opacity:1"
     d="m 111.11013,297.35089 c -0.6836,-0.98833 5.59399,-2.63885 5.97976,-2.06603 l 27.46655,40.78456 -17.49606,31.64937 c -0.91137,1.64862 -6.71581,0.10713 -6.13536,-0.84322 l 17.9479,-29.38561 z"
     id="path4675" />
  <path
     style="fill:#32ac60;fill-opacity:1;fill-rule:evenodd;stroke:#000000;stroke-width:1;stroke-linecap:butt;stroke-linejoin:miter;stroke-miterlimit:4;stroke-dasharray:none;stroke-opacity:1"
     d="m 121.50937,294.73381 c -0.61663,-0.92996 5.53023,-1.97669 6.27192,-0.83687 l 26.62811,40.92202 -4.03835,6.63902 -10.39445,27.43833 c -0.34022,0.89809 -6.64227,1.01322 -6.19651,-0.0691 l 14.56777,-33.61687 z"
     id="path4677" />
  <path
     style="fill:#32ac60;fill-opacity:1;fill-rule:evenodd;stroke:#000000;stroke-width:1;stroke-linecap:butt;stroke-linejoin:miter;stroke-miterlimit:4;stroke-dasharray:none;stroke-opacity:1"
     d="m 131.60444,293.53884 27.54991,41.66357 4.47112,-2.15414 -25.39578,-39.98345 c -0.81147,-1.2776 -7.33494,-0.59925 -6.62525,0.47402 z"
     id="path4679" />
  <path
     style="fill:#32ac60;fill-opacity:1;fill-rule:evenodd;stroke:#000000;stroke-width:1;stroke-linecap:butt;stroke-linejoin:miter;stroke-miterlimit:4;stroke-dasharray:none;stroke-opacity:1"
     d="m 168.33801,331.48976 5.16826,-1.46334 -23.71813,-37.17201 c -0.67368,-1.05582 -7.10994,-0.8229 -6.56887,0.009 z"
     id="path4681" />
  <path
     style="fill:#32ac60;fill-opacity:1;fill-rule:evenodd;stroke:#000000;stroke-width:1;stroke-linecap:butt;stroke-linejoin:miter;stroke-miterlimit:4;stroke-dasharray:none;stroke-opacity:1"
     d="m 167.33742,333.08881 -2.293,33.20876 c -0.0308,0.44632 -5.54259,1.4043 -5.48581,0.7225 l 2.58201,-31.0021 z"
     id="path4683" />
  <path
     style="fill:#32ac60;fill-opacity:1;fill-rule:evenodd;stroke:#000000;stroke-width:1;stroke-linecap:butt;stroke-linejoin:miter;stroke-miterlimit:4;stroke-dasharray:none;stroke-opacity:1"
     d="m 154.29978,336.9072 -6.44656,31.49761 c -0.16687,0.81532 5.43745,0.28467 5.60335,-0.61377 l 5.96775,-32.31865 z"
     id="path4685" />
  <path
     id="path4687"
     d="m 96.43378,416.876 24.46038,-4.41479 -10.51977,-14.84551 c -0.7151,-1.00915 3.98438,-3.63521 4.37418,-3.03948 l 13.29722,20.32178 -27.86477,6.60926 c -1.27854,0.30326 -4.99464,-4.40612 -3.74724,-4.63126 z"
     style="fill:#32ac60;fill-opacity:1;fill-rule:evenodd;stroke:#000000;stroke-width:1;stroke-linecap:butt;stroke-linejoin:miter;stroke-miterlimit:4;stroke-dasharray:none;stroke-opacity:1" />
  <path
     id="path4689"
     d="m 107.93228,427.3174 24.58094,-11.63891 6.32832,1.86355 -26.10702,13.38175 c -1.23563,0.63335 -5.29092,-3.37108 -4.80224,-3.60639 z"
     style="fill:#32ac60;fill-opacity:1;fill-rule:evenodd;stroke:#000000;stroke-width:1;stroke-linecap:butt;stroke-linejoin:miter;stroke-miterlimit:4;stroke-dasharray:none;stroke-opacity:1" />
  <path
     id="path4691"
     d="m 121.49757,435.02641 18.92169,-17.8703 4.9522,1.10528 -18.45676,19.51656 c -0.58999,0.62387 -6.40862,-1.79466 -5.41713,-2.75154 z"
     style="fill:#32ac60;fill-opacity:1;fill-rule:evenodd;stroke:#000000;stroke-width:1;stroke-linecap:butt;stroke-linejoin:miter;stroke-miterlimit:4;stroke-dasharray:none;stroke-opacity:1" />
  <path
     id="path4693"
     d="m 132.89393,439.34975 14.8936,-22.0173 -2.36268,-1.9872 -18.84046,-27.01806 c -0.49263,-0.70646 5.02471,-2.47781 5.30958,-2.07238 l 19.21848,28.56817 2.61759,2.50936 -14.72184,23.07805 c -0.92684,1.45293 -6.63075,-0.27571 -6.11427,-1.06064 z"
     style="fill:#32ac60;fill-opacity:1;fill-rule:evenodd;stroke:#000000;stroke-width:1;stroke-linecap:butt;stroke-linejoin:miter;stroke-miterlimit:4;stroke-dasharray:none;stroke-opacity:1" />
  <path
     id="path4695"
     d="m 135.73172,385.17485 c -0.50517,-0.72748 5.11587,-2.17685 5.64229,-1.3911 l 18.71248,27.93044 3.34011,2.64847 -10.51408,27.33099 c -0.27269,0.70884 -6.47021,0.90304 -6.0481,-0.13215 l 10.72444,-26.00926 -1.50362,-1.06725 z"
     style="fill:#32ac60;fill-opacity:1;fill-rule:evenodd;stroke:#000000;stroke-width:1;stroke-linecap:butt;stroke-linejoin:miter;stroke-miterlimit:4;stroke-dasharray:none;stroke-opacity:1" />
  <path
     id="path4697"
     d="m 145.08311,382.86797 c -0.48189,-0.67849 5.40649,-1.72084 6.08443,-0.74696 l 20.06967,29.13867 -5.76909,29.29211 c -0.22685,1.15182 -5.98935,1.60848 -5.80314,0.76539 l 6.38811,-28.92371 z"
     style="fill:#32ac60;fill-opacity:1;fill-rule:evenodd;stroke:#000000;stroke-width:1;stroke-linecap:butt;stroke-linejoin:miter;stroke-miterlimit:4;stroke-dasharray:none;stroke-opacity:1" />
  <path
     id="path4699"
     d="m 155.18569,381.50936 19.44116,26.85536 4.72593,-1.73015 -18.32791,-25.78194 c -0.56715,-0.79782 -6.44679,-0.1826 -5.83918,0.65673 z"
     style="fill:#32ac60;fill-opacity:1;fill-rule:evenodd;stroke:#000000;stroke-width:1;stroke-linecap:butt;stroke-linejoin:miter;stroke-miterlimit:4;stroke-dasharray:none;stroke-opacity:1" />
  <path
     id="path4701"
     d="m 166.46713,380.59949 16.60641,25.17124 6.51812,-1.59833 -16.74585,-24.02989 c -0.50887,-0.73022 -6.87369,-0.29334 -6.37868,0.45698 z"
     style="fill:#32ac60;fill-opacity:1;fill-rule:evenodd;stroke:#000000;stroke-width:1;stroke-linecap:butt;stroke-linejoin:miter;stroke-miterlimit:4;stroke-dasharray:none;stroke-opacity:1" />
  <path
     id="path4703"
     d="m 188.68728,406.42487 -0.13321,31.3544 c -0.003,0.64017 -5.54244,1.60948 -5.53353,0.78998 l 0.33496,-30.83505 z"
     style="fill:#32ac60;fill-opacity:1;fill-rule:evenodd;stroke:#000000;stroke-width:1;stroke-linecap:butt;stroke-linejoin:miter;stroke-miterlimit:4;stroke-dasharray:none;stroke-opacity:1" />
  <path
     id="path4705"
     d="m 174.02981,410.24326 -3.0044,29.51505 c -0.0933,0.91669 5.52999,0.26298 5.60334,-0.58174 l 2.66059,-30.63812 z"
     style="fill:#32ac60;fill-opacity:1;fill-rule:evenodd;stroke:#000000;stroke-width:1;stroke-linecap:butt;stroke-linejoin:miter;stroke-miterlimit:4;stroke-dasharray:none;stroke-opacity:1" />
  <path
     id="path4707"
     d="m 117.51804,392.56711 c -0.54416,-0.75734 5.07203,-3.11272 5.53445,-2.42976 l 16.45607,23.60627 -7.35675,-0.80992 z"
     style="fill:#32ac60;fill-opacity:1;fill-rule:evenodd;stroke:#000000;stroke-width:1;stroke-linecap:butt;stroke-linejoin:miter;stroke-miterlimit:4;stroke-dasharray:none;stroke-opacity:1" />
  <path
     id="path4709"
     d="m 193.84064,401.8648 -0.53995,34.82652 c -0.009,0.58356 5.8023,0.0366 5.80443,-0.52834 l 0.13498,-35.71552 -13.38682,-19.64802 c -0.81708,-1.19925 -8.12019,-1.40042 -7.4011,-0.39748 z"
     style="fill:#32ac60;fill-opacity:1;fill-rule:evenodd;stroke:#000000;stroke-width:1;stroke-linecap:butt;stroke-linejoin:miter;stroke-miterlimit:4;stroke-dasharray:none;stroke-opacity:1" />
  <path
     id="path4711"
     d="m 169.40808,364.74351 c -0.0497,1.44698 5.51759,-0.43088 5.53445,-1.07989 l 0.80992,-31.18189 -5.26448,0.80992 z"
     style="fill:#32ac60;fill-opacity:1;fill-rule:evenodd;stroke:#000000;stroke-width:1;stroke-linecap:butt;stroke-linejoin:miter;stroke-miterlimit:4;stroke-dasharray:none;stroke-opacity:1" />
  <path
     style="fill:#32ac60;fill-opacity:1;fill-rule:evenodd;stroke:#000000;stroke-width:1;stroke-linecap:round;stroke-linejoin:round;stroke-miterlimit:4;stroke-dasharray:none;stroke-opacity:1"
     d="m 399.30631,235.22395 -24.16258,-5.83817 13.56614,-19.87677 c 0.50187,-0.73533 -4.22403,-3.46499 -4.62329,-2.86846 l -16.67084,25.30997 30.00076,7.79548 c 0.7649,0.19875 2.7227,-4.32081 1.88981,-4.52205 z"
     id="path4785" />
  <path
     style="fill:#32ac60;fill-opacity:1;fill-rule:evenodd;stroke:#000000;stroke-width:1;stroke-linecap:butt;stroke-linejoin:miter;stroke-miterlimit:4;stroke-dasharray:none;stroke-opacity:1"
     d="m 393.97435,245.48292 -21.83408,-11.77757 -5.06199,1.92355 23.82512,13.97111 c 0.51446,0.30168 4.03322,-3.59803 3.07095,-4.11709 z"
     id="path4787" />
  <path
     style="fill:#32ac60;fill-opacity:1;fill-rule:evenodd;stroke:#000000;stroke-width:1;stroke-linecap:butt;stroke-linejoin:miter;stroke-miterlimit:4;stroke-dasharray:none;stroke-opacity:1"
     d="m 385.77391,254.72949 -20.01175,-18.29067 -6.58059,1.0799 22.47526,20.92291 c 0.39535,0.36805 4.9649,-2.92799 4.11708,-3.71214 z"
     id="path4789" />
  <path
     style="fill:#32ac60;fill-opacity:1;fill-rule:evenodd;stroke:#000000;stroke-width:1;stroke-linecap:butt;stroke-linejoin:miter;stroke-miterlimit:4;stroke-dasharray:none;stroke-opacity:1"
     d="m 376.15613,262.22125 -19.33682,-24.09509 23.28517,-33.40917 c 0.39372,-0.5649 -4.03519,-2.94084 -4.75827,-1.88981 l -24.12885,35.46771 19.94426,26.22113 c 0.47411,0.62332 5.52453,-1.63432 4.99451,-2.29477 z"
     id="path4791" />
  <path
     style="fill:#32ac60;fill-opacity:1;fill-rule:evenodd;stroke:#000000;stroke-width:1;stroke-linecap:butt;stroke-linejoin:miter;stroke-miterlimit:4;stroke-dasharray:none;stroke-opacity:1"
     d="m 371.3641,200.73489 c 0.32632,-0.49806 -4.44035,-2.2992 -4.82577,-1.72107 l -24.83752,37.25627 17.04205,31.0469 c 0.68282,1.24396 5.94265,0.15199 5.23073,-1.11364 l -16.40086,-29.15709 z"
     id="path4793" />
  <path
     style="fill:#32ac60;fill-opacity:1;fill-rule:evenodd;stroke:#000000;stroke-width:1;stroke-linecap:butt;stroke-linejoin:miter;stroke-miterlimit:4;stroke-dasharray:none;stroke-opacity:1"
     d="m 362.3875,198.17014 c 0.33352,-0.495 -4.95579,-1.31367 -5.39946,-0.67492 l -24.33132,35.029 13.80237,36.64883 c 0.33528,0.89026 5.44823,0.60604 5.02825,-0.43871 L 337.8537,234.58276 Z"
     id="path4795" />
  <path
     style="fill:#32ac60;fill-opacity:1;fill-rule:evenodd;stroke:#000000;stroke-width:1;stroke-linecap:butt;stroke-linejoin:miter;stroke-miterlimit:4;stroke-dasharray:none;stroke-opacity:1"
     d="m 329.14707,229.95947 -5.80442,-1.82232 22.88022,-31.9243 c 0.61061,-0.85197 6.30952,-0.23509 5.88283,0.38493 z"
     id="path4797" />
  <path
     style="fill:#32ac60;fill-opacity:1;fill-rule:evenodd;stroke:#000000;stroke-width:1;stroke-linecap:butt;stroke-linejoin:miter;stroke-miterlimit:4;stroke-dasharray:none;stroke-opacity:1"
     d="m 340.41844,196.38158 -20.31547,29.4608 -4.52205,-1.9573 18.08819,-27.5035 c 0.6357,-0.9666 7.4787,-1.05771 6.74933,0 z"
     id="path4799" />
  <path
     style="fill:#32ac60;fill-opacity:1;fill-rule:evenodd;stroke:#000000;stroke-width:1;stroke-linecap:butt;stroke-linejoin:miter;stroke-miterlimit:4;stroke-dasharray:none;stroke-opacity:1"
     d="m 317.20076,230.76939 5.70318,34.28658 c 0.14414,0.86655 5.87103,2.6995 5.66944,1.55233 l -6.10815,-34.75902 z"
     id="path4801" />
  <path
     style="fill:#32ac60;fill-opacity:1;fill-rule:evenodd;stroke:#000000;stroke-width:1;stroke-linecap:butt;stroke-linejoin:miter;stroke-miterlimit:4;stroke-dasharray:none;stroke-opacity:1"
     d="m 330.80065,235.02147 7.76172,33.37541 c 0.27297,1.17378 -4.81563,0.80657 -5.06199,-0.30372 l -7.25552,-33.64539 z"
     id="path4803" />
  <path
     id="path4805"
     d="m 399.10617,335.2826 -32.3571,-6.95639 15.38269,-22.86902 c 0.60582,-0.90066 -4.42124,-3.6135 -4.98502,-2.77769 l -19.03414,28.21849 38.45033,9.28923 c 0.82746,0.19991 4.07244,-4.54016 2.54324,-4.90462 z"
     style="fill:#32ac60;fill-opacity:1;fill-rule:evenodd;stroke:#000000;stroke-width:1;stroke-linecap:butt;stroke-linejoin:miter;stroke-miterlimit:4;stroke-dasharray:none;stroke-opacity:1" />
  <path
     id="path4807"
     d="m 389.80021,347.13725 -27.85338,-13.23148 -5.74625,2.625 28.86489,14.68533 c 1.49773,0.76199 6.09324,-3.42075 4.73474,-4.07885 z"
     style="fill:#32ac60;fill-opacity:1;fill-rule:evenodd;stroke:#000000;stroke-width:1;stroke-linecap:butt;stroke-linejoin:miter;stroke-miterlimit:4;stroke-dasharray:none;stroke-opacity:1" />
  <path
     id="path4809"
     d="m 377.65566,356.19614 -23.95233,-19.26041 -6.42506,1.11955 25.08367,21.46777 c 1.27255,1.0891 6.18567,-2.59013 5.29372,-3.32691 z"
     style="fill:#32ac60;fill-opacity:1;fill-rule:evenodd;stroke:#000000;stroke-width:1;stroke-linecap:butt;stroke-linejoin:miter;stroke-miterlimit:4;stroke-dasharray:none;stroke-opacity:1" />
  <path
     id="path4811"
     d="m 366.02886,361.84547 -20.26859,-22.71264 3.88027,-2.89987 23.16214,-34.94297 c 0.60713,-0.91593 -5.12181,-3.49717 -5.84953,-2.40985 l -27.03306,40.39161 20.86033,24.98833 c 0.84668,1.01422 6.20689,-1.34058 5.24844,-2.41461 z"
     style="fill:#32ac60;fill-opacity:1;fill-rule:evenodd;stroke:#000000;stroke-width:1;stroke-linecap:butt;stroke-linejoin:miter;stroke-miterlimit:4;stroke-dasharray:none;stroke-opacity:1" />
  <path
     id="path4813"
     d="m 363.88987,297.35089 c 0.6836,-0.98833 -5.59399,-2.63885 -5.97976,-2.06603 l -27.46655,40.78456 17.49606,31.64937 c 0.91137,1.64862 6.71581,0.10713 6.13536,-0.84322 l -17.9479,-29.38561 z"
     style="fill:#32ac60;fill-opacity:1;fill-rule:evenodd;stroke:#000000;stroke-width:1;stroke-linecap:butt;stroke-linejoin:miter;stroke-miterlimit:4;stroke-dasharray:none;stroke-opacity:1" />
  <path
     id="path4815"
     d="m 353.49063,294.73381 c 0.61663,-0.92996 -5.53023,-1.97669 -6.27192,-0.83687 l -26.62811,40.92202 4.03835,6.63902 10.39445,27.43833 c 0.34022,0.89809 6.64227,1.01322 6.19651,-0.0691 l -14.56777,-33.61687 z"
     style="fill:#32ac60;fill-opacity:1;fill-rule:evenodd;stroke:#000000;stroke-width:1;stroke-linecap:butt;stroke-linejoin:miter;stroke-miterlimit:4;stroke-dasharray:none;stroke-opacity:1" />
  <path
     id="path4817"
     d="m 343.39556,293.53884 -27.54991,41.66357 -4.47112,-2.15414 25.39578,-39.98345 c 0.81147,-1.2776 7.33494,-0.59925 6.62525,0.47402 z"
     style="fill:#32ac60;fill-opacity:1;fill-rule:evenodd;stroke:#000000;stroke-width:1;stroke-linecap:butt;stroke-linejoin:miter;stroke-miterlimit:4;stroke-dasharray:none;stroke-opacity:1" />
  <path
     id="path4819"
     d="m 306.66199,331.48976 -5.16826,-1.46334 23.71813,-37.17201 c 0.67368,-1.05582 7.10994,-0.8229 6.56887,0.009 z"
     style="fill:#32ac60;fill-opacity:1;fill-rule:evenodd;stroke:#000000;stroke-width:1;stroke-linecap:butt;stroke-linejoin:miter;stroke-miterlimit:4;stroke-dasharray:none;stroke-opacity:1" />
  <path
     id="path4821"
     d="m 307.66258,333.08881 2.293,33.20876 c 0.0308,0.44632 5.54259,1.4043 5.48581,0.7225 l -2.58201,-31.0021 z"
     style="fill:#32ac60;fill-opacity:1;fill-rule:evenodd;stroke:#000000;stroke-width:1;stroke-linecap:butt;stroke-linejoin:miter;stroke-miterlimit:4;stroke-dasharray:none;stroke-opacity:1" />
  <path
     id="path4823"
     d="m 320.70022,336.9072 6.44656,31.49761 c 0.16687,0.81532 -5.43745,0.28467 -5.60335,-0.61377 l -5.96775,-32.31865 z"
     style="fill:#32ac60;fill-opacity:1;fill-rule:evenodd;stroke:#000000;stroke-width:1;stroke-linecap:butt;stroke-linejoin:miter;stroke-miterlimit:4;stroke-dasharray:none;stroke-opacity:1" />
  <path
     style="fill:#32ac60;fill-opacity:1;fill-rule:evenodd;stroke:#000000;stroke-width:1;stroke-linecap:butt;stroke-linejoin:miter;stroke-miterlimit:4;stroke-dasharray:none;stroke-opacity:1"
     d="m 378.56623,416.876 -24.46039,-4.41479 10.51977,-14.84551 c 0.7151,-1.00915 -3.98438,-3.63521 -4.37418,-3.03948 l -13.29722,20.32178 27.86477,6.60926 c 1.27854,0.30326 4.99464,-4.40612 3.74725,-4.63126 z"
     id="path4825" />
  <path
     style="fill:#32ac60;fill-opacity:1;fill-rule:evenodd;stroke:#000000;stroke-width:1;stroke-linecap:butt;stroke-linejoin:miter;stroke-miterlimit:4;stroke-dasharray:none;stroke-opacity:1"
     d="m 367.06772,427.3174 -24.58094,-11.63891 -6.32832,1.86355 26.10702,13.38175 c 1.23563,0.63335 5.29092,-3.37108 4.80224,-3.60639 z"
     id="path4827" />
  <path
     style="fill:#32ac60;fill-opacity:1;fill-rule:evenodd;stroke:#000000;stroke-width:1;stroke-linecap:butt;stroke-linejoin:miter;stroke-miterlimit:4;stroke-dasharray:none;stroke-opacity:1"
     d="m 353.50243,435.02641 -18.92169,-17.8703 -4.9522,1.10528 18.45676,19.51656 c 0.58999,0.62387 6.40862,-1.79466 5.41713,-2.75154 z"
     id="path4829" />
  <path
     style="fill:#32ac60;fill-opacity:1;fill-rule:evenodd;stroke:#000000;stroke-width:1;stroke-linecap:butt;stroke-linejoin:miter;stroke-miterlimit:4;stroke-dasharray:none;stroke-opacity:1"
     d="m 342.10607,439.34975 -14.8936,-22.0173 2.36268,-1.9872 18.84046,-27.01806 c 0.49263,-0.70646 -5.02471,-2.47781 -5.30958,-2.07238 l -19.21848,28.56817 -2.61759,2.50936 14.72184,23.07805 c 0.92684,1.45293 6.63075,-0.27571 6.11427,-1.06064 z"
     id="path4831" />
  <path
     style="fill:#32ac60;fill-opacity:1;fill-rule:evenodd;stroke:#000000;stroke-width:1;stroke-linecap:butt;stroke-linejoin:miter;stroke-miterlimit:4;stroke-dasharray:none;stroke-opacity:1"
     d="m 339.26828,385.17485 c 0.50517,-0.72748 -5.11587,-2.17685 -5.64229,-1.3911 l -18.71248,27.93044 -3.34011,2.64847 10.51408,27.33099 c 0.27269,0.70884 6.47021,0.90304 6.0481,-0.13215 l -10.72444,-26.00926 1.50362,-1.06725 z"
     id="path4833" />
  <path
     style="fill:#32ac60;fill-opacity:1;fill-rule:evenodd;stroke:#000000;stroke-width:1;stroke-linecap:butt;stroke-linejoin:miter;stroke-miterlimit:4;stroke-dasharray:none;stroke-opacity:1"
     d="m 329.91689,382.86797 c 0.48189,-0.67849 -5.40649,-1.72084 -6.08443,-0.74696 l -20.06967,29.13867 5.76909,29.29211 c 0.22685,1.15182 5.98935,1.60848 5.80314,0.76539 l -6.38811,-28.92371 z"
     id="path4835" />
  <path
     style="fill:#32ac60;fill-opacity:1;fill-rule:evenodd;stroke:#000000;stroke-width:1;stroke-linecap:butt;stroke-linejoin:miter;stroke-miterlimit:4;stroke-dasharray:none;stroke-opacity:1"
     d="m 319.81431,381.50936 -19.44116,26.85536 -4.72593,-1.73015 18.32791,-25.78194 c 0.56715,-0.79782 6.44679,-0.1826 5.83918,0.65673 z"
     id="path4837" />
  <path
     style="fill:#32ac60;fill-opacity:1;fill-rule:evenodd;stroke:#000000;stroke-width:1;stroke-linecap:butt;stroke-linejoin:miter;stroke-miterlimit:4;stroke-dasharray:none;stroke-opacity:1"
     d="m 308.53287,380.59949 -16.60641,25.17124 -6.51812,-1.59833 16.74585,-24.02989 c 0.50887,-0.73022 6.87369,-0.29334 6.37868,0.45698 z"
     id="path4839" />
  <path
     style="fill:#32ac60;fill-opacity:1;fill-rule:evenodd;stroke:#000000;stroke-width:1;stroke-linecap:butt;stroke-linejoin:miter;stroke-miterlimit:4;stroke-dasharray:none;stroke-opacity:1"
     d="m 286.31272,406.42487 0.13321,31.3544 c 0.003,0.64017 5.54244,1.60948 5.53353,0.78998 L 291.6445,407.7342 Z"
     id="path4841" />
  <path
     style="fill:#32ac60;fill-opacity:1;fill-rule:evenodd;stroke:#000000;stroke-width:1;stroke-linecap:butt;stroke-linejoin:miter;stroke-miterlimit:4;stroke-dasharray:none;stroke-opacity:1"
     d="m 300.97019,410.24326 3.0044,29.51505 c 0.0933,0.91669 -5.52999,0.26298 -5.60334,-0.58174 l -2.66059,-30.63812 z"
     id="path4843" />
  <path
     style="fill:#32ac60;fill-opacity:1;fill-rule:evenodd;stroke:#000000;stroke-width:1;stroke-linecap:butt;stroke-linejoin:miter;stroke-miterlimit:4;stroke-dasharray:none;stroke-opacity:1"
     d="m 357.48196,392.56711 c 0.54416,-0.75734 -5.07203,-3.11272 -5.53445,-2.42976 l -16.45607,23.60627 7.35675,-0.80992 z"
     id="path4845" />
  <path
     style="fill:#32ac60;fill-opacity:1;fill-rule:evenodd;stroke:#000000;stroke-width:1;stroke-linecap:butt;stroke-linejoin:miter;stroke-miterlimit:4;stroke-dasharray:none;stroke-opacity:1"
     d="m 281.15936,401.8648 0.53995,34.82652 c 0.009,0.58356 -5.8023,0.0366 -5.80443,-0.52834 l -0.13498,-35.71552 13.38682,-19.64802 c 0.81708,-1.19925 8.12019,-1.40042 7.4011,-0.39748 z"
     id="path4847" />
  <path
     style="fill:#32ac60;fill-opacity:1;fill-rule:evenodd;stroke:#000000;stroke-width:1;stroke-linecap:butt;stroke-linejoin:miter;stroke-miterlimit:4;stroke-dasharray:none;stroke-opacity:1"
     d="m 305.59192,364.74351 c 0.0497,1.44698 -5.51759,-0.43088 -5.53445,-1.07989 l -0.80992,-31.18189 5.26448,0.80992 z"
     id="path4849" />
  <path
     style="fill:#ef7836;fill-opacity:1;fill-rule:evenodd;stroke:none;stroke-width:1;stroke-linecap:round;stroke-linejoin:round;stroke-miterlimit:4;stroke-dasharray:none;stroke-opacity:1"
     d="m 249.85602,480.04712 -1.21335,-49.0733 c -0.14539,-5.88008 10.95409,-15.51996 17.39136,-19.14398 11.79199,-6.63858 24.26057,-4.79572 46.24215,3.2356 20.73146,7.57457 34.46915,2.0548 46.10733,-2.56151 1.2874,-0.51065 0.25195,-5.0564 -1.07854,-4.71859 -9.88137,2.50885 -19.32195,7.62921 -31.95157,4.17932 -12.97404,-3.54397 -25.29989,-10.44621 -40.3102,-11.86388 -12.53027,-1.18343 -24.31391,2.78448 -36.53535,11.05498 l -0.53926,-50.82592 c -0.0298,-2.80425 3.08277,-12.96984 19.95288,-24.80628 12.45886,-8.74141 35.23806,4.27492 53.9267,6.20157 16.68601,1.7202 33.04115,-1.86678 49.59621,-12.70409 1.06291,-0.6958 -1.11636,-4.58455 -2.0059,-4.148 -13.7485,6.74716 -27.82898,11.5516 -36.66478,10.92016 -28.63545,-2.0464 -34.2637,-11.25329 -53.12317,-13.34686 -11.00389,-1.22153 -23.69379,4.62631 -31.81676,14.15575 l -1.88744,-91.40576 c -0.16329,-7.90776 -0.47443,-8.04422 7.67396,-16.44434 4.13534,-4.2631 10.51205,-8.51946 16.59306,-10.38419 23.72813,-7.27621 36.9766,11.33386 61.38111,19.57974 13.37221,4.51825 31.19687,3.9214 48.22492,-7.58105 0.61496,-0.41541 -1.80501,-4.0791 -2.69634,-3.50523 -8.92107,5.74365 -27.65075,10.53599 -37.61388,6.87565 -28.68011,-10.53674 -37.73505,-25.63033 -59.589,-26.15445 -19.91301,-0.47757 -33.33823,9.78557 -42.42016,21.43586 -9.08193,-11.65029 -22.50715,-21.91343 -42.42016,-21.43586 -21.85395,0.52412 -30.90889,15.61771 -59.589,26.15445 -9.96313,3.66034 -28.69281,-1.132 -37.61388,-6.87565 -0.89133,-0.57387 -3.31129,3.08982 -2.69633,3.50523 17.02804,11.50245 34.8527,12.0993 48.22491,7.58105 24.40451,-8.24588 37.65298,-26.85595 61.38111,-19.57974 6.08101,1.86473 12.45772,6.12109 16.59306,10.38419 8.14839,8.40012 7.83725,8.53658 7.67396,16.44434 l -1.88744,91.40576 c -8.12297,-9.52944 -20.81287,-15.37728 -31.81676,-14.15575 -18.85947,2.09357 -24.48772,11.30046 -53.12317,13.34686 -8.8358,0.63144 -22.91628,-4.173 -36.66478,-10.92016 -0.88954,-0.43655 -3.06881,3.4522 -2.0059,4.148 16.55506,10.83731 32.9102,14.42429 49.59621,12.70409 18.68864,-1.92665 41.46784,-14.94298 53.9267,-6.20157 16.87011,11.83644 19.98268,22.00203 19.95288,24.80628 l -0.53926,50.82592 c -12.22144,-8.2705 -24.00508,-12.23841 -36.53535,-11.05498 -15.01031,1.41767 -27.33616,8.31991 -40.3102,11.86388 -12.62962,3.44989 -22.0702,-1.67047 -31.95157,-4.17932 -1.33049,-0.33781 -2.36594,4.20794 -1.07854,4.71859 11.63818,4.61631 25.37587,10.13608 46.10733,2.56151 21.98158,-8.03132 34.45016,-9.87418 46.24215,-3.2356 6.43727,3.62402 17.53675,13.2639 17.39136,19.14398 l -1.21335,49.0733 c 4.18365,5.7037 9.59267,10.51623 12.35602,17.25288 2.79579,-6.59279 8.14344,-11.56168 12.35602,-17.25288 z"
     id="path4851" />
  <circle
     r="3.1596284"
     cy="33.762157"
     cx="232.96478"
     id="path4855"
     style="opacity:1;fill:#ffffff;fill-opacity:1;fill-rule:evenodd;stroke:none;stroke-width:0.5;stroke-linecap:round;stroke-linejoin:round;stroke-miterlimit:4;stroke-dasharray:none;stroke-opacity:1" />
  <path
     id="path4857"
     d="m 239.97763,30.602532 c 0.0391,0.285438 0.002,0.48876 -0.88813,-0.09765 -1.34485,-0.885889 -3.66227,-1.926652 -6.19012,-1.792836 -1.83379,0.09708 -3.99984,1.201104 -6.12616,2.856529 -1.62028,1.261454 -4.52623,-4.582061 -2.35787,-5.811729 2.64465,-1.499775 5.10886,-1.645508 7.26296,-1.57384 4.61288,0.153473 7.80372,2.803226 8.29932,6.419526 z"
     style="fill:#e00e00;fill-opacity:1;fill-rule:evenodd;stroke:none;stroke-width:1px;stroke-linecap:butt;stroke-linejoin:miter;stroke-opacity:1" />
  <path
     id="path4859"
     d="m 192.62576,227.86718 c -3.05517,-4.90276 -5.42472,-10.55818 2.45408,-20.28472 l -8.79845,-2.12304 c -2.44124,4.67953 -3.81994,8.90022 -2.9697,13.90361 1.07607,6.33232 5.57163,7.67592 9.31407,8.50415 z"
     style="fill:#000000;fill-rule:evenodd;stroke:#000000;stroke-width:1px;stroke-linecap:round;stroke-linejoin:round;stroke-opacity:1" />
  <path
     style="fill:#000000;fill-rule:evenodd;stroke:#000000;stroke-width:1px;stroke-linecap:round;stroke-linejoin:round;stroke-opacity:1"
     d="m 282.37424,227.86718 c 3.05517,-4.90276 5.42472,-10.55818 -2.45408,-20.28472 l 8.79845,-2.12304 c 2.44124,4.67953 3.81994,8.90022 2.9697,13.90361 -1.07607,6.33232 -5.57163,7.67592 -9.31407,8.50415 z"
     id="path4863" />
  <path
     id="path4875"
     d="m 249.85602,480.46944 -1.21335,-49.49562 c -0.14415,-5.88011 10.95409,-15.51996 17.39136,-19.14398 11.79199,-6.63858 24.26057,-4.79572 46.24215,3.2356 20.73146,7.57457 34.46915,2.0548 46.10733,-2.56151 1.2874,-0.51065 0.25195,-5.0564 -1.07854,-4.71859 -9.88137,2.50885 -19.32195,7.62921 -31.95157,4.17932 -12.97404,-3.54397 -25.29989,-10.44621 -40.3102,-11.86388 -12.53027,-1.18343 -24.31391,2.78448 -36.53535,11.05498 l -0.53926,-50.82592 c -0.0298,-2.80425 3.08277,-12.96984 19.95288,-24.80628 12.45886,-8.74141 35.23806,4.27492 53.9267,6.20157 16.68601,1.7202 33.04115,-1.86678 49.59621,-12.70409 1.06291,-0.6958 -1.11636,-4.58455 -2.0059,-4.148 -13.7485,6.74716 -27.82898,11.5516 -36.66478,10.92016 -28.63545,-2.0464 -34.2637,-11.25329 -53.12317,-13.34686 -11.00389,-1.22153 -23.69379,4.62631 -31.81676,14.15575 l -1.88744,-91.40576 c -0.16329,-7.90776 -0.47443,-8.04422 7.67396,-16.44434 4.13534,-4.2631 10.51205,-8.51946 16.59306,-10.38419 23.72813,-7.27621 36.9766,11.33386 61.38111,19.57974 13.37221,4.51825 31.19687,3.9214 48.22492,-7.58105 0.61496,-0.41541 -1.80501,-4.0791 -2.69634,-3.50523 -8.92107,5.74365 -27.65075,10.53599 -37.61388,6.87565 -28.68011,-10.53674 -37.73505,-25.63033 -59.589,-26.15445 -19.91301,-0.47757 -33.33823,9.78557 -42.42016,21.43586 -9.08193,-11.65029 -22.50715,-21.91343 -42.42016,-21.43586 -21.85395,0.52412 -30.90889,15.61771 -59.589,26.15445 -9.96313,3.66034 -28.69281,-1.132 -37.61388,-6.87565 -0.89133,-0.57387 -3.31129,3.08982 -2.69633,3.50523 17.02804,11.50245 34.8527,12.0993 48.22491,7.58105 24.40451,-8.24588 37.65298,-26.85595 61.38111,-19.57974 6.08101,1.86473 12.45772,6.12109 16.59306,10.38419 8.14839,8.40012 7.83725,8.53658 7.67396,16.44434 l -1.88744,91.40576 c -8.12297,-9.52944 -20.81287,-15.37728 -31.81676,-14.15575 -18.85947,2.09357 -24.48772,11.30046 -53.12317,13.34686 -8.8358,0.63144 -22.91628,-4.173 -36.66478,-10.92016 -0.88954,-0.43655 -3.06881,3.4522 -2.0059,4.148 16.55506,10.83731 32.9102,14.42429 49.59621,12.70409 18.68864,-1.92665 41.46784,-14.94298 53.9267,-6.20157 16.87011,11.83644 19.98268,22.00203 19.95288,24.80628 l -0.53926,50.82592 c -12.22144,-8.2705 -24.00508,-12.23841 -36.53535,-11.05498 -15.01031,1.41767 -27.33616,8.31991 -40.3102,11.86388 -12.62962,3.44989 -22.0702,-1.67047 -31.95157,-4.17932 -1.33049,-0.33781 -2.36594,4.20794 -1.07854,4.71859 11.63818,4.61631 25.37587,10.13608 46.10733,2.56151 21.98158,-8.03132 34.45016,-9.87418 46.24215,-3.2356 6.43727,3.62402 17.53547,13.26387 17.39136,19.14398 l -1.21335,49.50924"
     style="fill:none;fill-opacity:1;fill-rule:evenodd;stroke:#000c00;stroke-width:1;stroke-linecap:round;stroke-linejoin:round;stroke-miterlimit:4;stroke-dasharray:none;stroke-opacity:1" />
  <path
     id="path4877"
     d="m 248.70402,482.02472 c 8.37993,-10.89692 18.9668,-13.11324 28.88884,-13.26748 12.57578,-0.1955 24.0928,2.74276 42.7983,2.74276 C 407.15624,471.5 420,400.23852 420,357.04546 l 0,-232.6005 c 0,-32.07912 30.21334,-57.570796 52.5,-73.185082 L 420,1.5 55,1.5 2.4999999,51.259878 C 24.78665,66.874164 55,92.36584 55,124.44496 l 0,232.6005 C 55,400.23852 67.84376,471.5 154.60884,471.5 c 18.7055,0 30.22252,-2.93826 42.7983,-2.74276 9.92204,0.15424 20.50891,2.37056 28.88884,13.26748 4.40765,5.73152 8.77774,9.51685 11.20402,15.27528 2.42628,-5.75843 6.79637,-9.54376 11.20402,-15.27528 z"
     style="fill:none;fill-rule:evenodd;stroke:#000000;stroke-width:1px;stroke-linecap:butt;stroke-linejoin:miter;stroke-opacity:1" />
</svg>
