<svg xmlns:dc="http://purl.org/dc/elements/1.1/" xmlns:cc="http://creativecommons.org/ns#" xmlns:rdf="http://www.w3.org/1999/02/22-rdf-syntax-ns#" xmlns:svg="http://www.w3.org/2000/svg" xmlns="http://www.w3.org/2000/svg" id="svg2" version="1.1" x="0" y="0" width="400" height="500" viewBox="30.5 31.5 400 500" enable-background="new 30.5 31.5 412 533" xml:space="preserve">
  <metadata id="metadata4">
    <rdf:RDF>
      <cc:Work rdf:about="">
        <dc:format>
          
          
          
          
          
          
          image/svg+xml
        
        
        
        
        
        
        </dc:format>
        <dc:type rdf:resource="http://purl.org/dc/dcmitype/StillImage"/>
      </cc:Work>
    </rdf:RDF>
  </metadata>
  <defs id="defs6"/>
  <path d="M230.45 531.13C156.13 477.21 105.19 409.11 74.71 322.97 47.07 244.87 35.98 150.22 40.8 33.62l0.02-0.46 379.82 0 0.02 0.46c4.81 116.6-6.28 211.24-33.91 289.35-30.48 86.14-81.42 154.24-155.74 208.16l-0.28 0.2-0.28-0.2z" id="path4148" fill="#32ac60"/>
  <path id="path10" d="M419.96 33.21C429.03 252.66 383.71 419.16 230.51 530.31 146.04 469.02 94.36 390.9 66.52 296.34 64.43 289.25 62.48 282.07 60.65 274.8 49.2 229.11 42.88 179.78 40.77 126.86 39.57 96.8 39.72 65.58 41.06 33.21l189.45 0 189.45 0m0.92-0.95-0.92 0-189.45 0-189.45 0-0.92 0-0.04 0.92c-4.82 116.66 6.28 211.36 33.93 289.52 30.51 86.24 81.51 154.41 155.91 208.39l0.56 0.41 0.56-0.41C305.46 477.11 356.46 408.94 386.97 322.7 414.62 244.54 425.72 149.84 420.9 33.18l-0.04-0.92 0 0z"/>
  <path d="m258 88.84c10.61 1.19 8.48 15.81 11.71 16.94 26.73 9.37 87.91 55.52 88.54 126.15 0.44 49.67-11.93 74.03-44.03 129.52l-33.27-12.32 5.54-17.25c1.03-3.2 3.71-6.71 8.16-6.47 7.05 0.38 11.21-2.17 12.01-5.85 7.61-34.83 14.84-62.14 9.24-93.95-7.06-40.07-35.77-72.7-85.41-72.7-49.64 0-78.35 32.63-85.41 72.7-5.6 31.81 1.64 59.12 9.24 93.95 0.8 3.68 4.96 6.23 12.01 5.85 4.45-0.24 7.13 3.27 8.16 6.47l5.54 17.25-33.27 12.32c-32.1-55.49-44.47-79.85-44.03-129.52 0.63-70.63 61.81-116.78 88.54-126.15 3.22-1.13 1.1-15.75 11.71-16.94 0 0 12.5-3.09 27.5-3.08 15 0.01 27.5 3.08 27.5 3.08z" id="path4241" style="fill-rule:evenodd;fill:#fff;stroke:#000"/>
  <path id="path4222" d="m125.72 245.39c5.53 0 6.45-1.59 6.45-6.72 0-4.39 0-8.79 0-13.18 0-5.13-0.92-6.72-6.45-6.72-1.26 0-2.51 0-3.77 0-5.53 0-6.45 1.59-6.45 6.72 0 4.39 0 8.79 0 13.18 0 5.13 0.92 6.72 6.45 6.72 1.26 0 2.51 0 3.77 0z" style="fill-rule:evenodd;fill:#32ac60;stroke-width:0.87;stroke:#000"/>
  <path d="m134.32 196.83c5.11 2.21 6.6 1.11 8.65-3.63 1.76-4.06 3.52-8.12 5.27-12.19 2.05-4.74 1.84-6.58-3.28-8.8-1.16-0.5-2.32-1.01-3.48-1.51-5.11-2.21-6.6-1.11-8.65 3.63-1.76 4.06-3.52 8.12-5.27 12.19-2.05 4.74-1.84 6.58 3.28 8.8 1.16 0.5 2.32 1.01 3.48 1.51z" id="path4226" style="fill-rule:evenodd;fill:#32ac60;stroke-width:0.88;stroke:#000"/>
  <path id="path4228" d="m159.49 155.15c3.58 4.26 5.4 3.95 9.35 0.63 3.39-2.84 6.77-5.68 10.16-8.52 3.96-3.32 4.59-5.05 1.01-9.32-0.81-0.97-1.62-1.94-2.44-2.91-3.58-4.26-5.4-3.95-9.35-0.63-3.39 2.84-6.77 5.68-10.16 8.52-3.96 3.32-4.59 5.05-1.01 9.32 0.81 0.97 1.62 1.94 2.44 2.91z" style="fill-rule:evenodd;fill:#32ac60;stroke-width:0.88;stroke:#000"/>
  <path d="m134.81 298.16c5.4-1.29 5.92-3.05 4.73-8.06-1.02-4.29-2.04-8.57-3.07-12.86-1.19-5.01-2.46-6.34-7.86-5.05-1.23 0.29-2.45 0.58-3.68 0.88-5.4 1.29-5.92 3.05-4.73 8.06 1.02 4.29 2.04 8.57 3.07 12.86 1.19 5.01 2.46 6.34 7.86 5.05 1.23-0.29 2.45-0.58 3.68-0.88z" id="path4230" style="fill-rule:evenodd;fill:#32ac60;stroke-width:0.88;stroke:#000"/>
  <path d="m335.28 245.39c-5.53 0-6.45-1.59-6.45-6.72 0-4.39 0-8.79 0-13.18 0-5.13 0.92-6.72 6.45-6.72 1.26 0 2.51 0 3.77 0 5.53 0 6.45 1.59 6.45 6.72 0 4.39 0 8.79 0 13.18 0 5.13-0.92 6.72-6.45 6.72-1.26 0-2.51 0-3.77 0z" id="path4243" style="fill-rule:evenodd;fill:#32ac60;stroke-width:0.87;stroke:#000"/>
  <path id="path4245" d="m326.68 196.83c-5.11 2.21-6.6 1.11-8.65-3.63-1.76-4.06-3.52-8.12-5.27-12.19-2.05-4.74-1.84-6.58 3.28-8.8 1.16-0.5 2.32-1.01 3.48-1.51 5.11-2.21 6.6-1.11 8.65 3.63 1.76 4.06 3.52 8.12 5.27 12.19 2.05 4.74 1.84 6.58-3.28 8.8-1.16 0.5-2.32 1.01-3.48 1.51z" style="fill-rule:evenodd;fill:#32ac60;stroke-width:0.88;stroke:#000"/>
  <path d="m301.51 155.15c-3.58 4.26-5.4 3.95-9.35 0.63-3.39-2.84-6.77-5.68-10.16-8.52-3.96-3.32-4.59-5.05-1.01-9.32 0.81-0.97 1.62-1.94 2.44-2.91 3.58-4.26 5.4-3.95 9.35-0.63 3.39 2.84 6.77 5.68 10.16 8.52 3.96 3.32 4.59 5.05 1.01 9.32-0.81 0.97-1.62 1.94-2.44 2.91z" id="path4247" style="fill-rule:evenodd;fill:#32ac60;stroke-width:0.88;stroke:#000"/>
  <path id="path4249" d="m326.19 298.16c-5.4-1.29-5.92-3.05-4.73-8.06 1.02-4.29 2.04-8.57 3.07-12.86 1.19-5.01 2.46-6.34 7.86-5.05 1.23 0.29 2.45 0.58 3.68 0.88 5.4 1.29 5.92 3.05 4.73 8.06-1.02 4.29-2.04 8.57-3.07 12.86-1.19 5.01-2.46 6.34-7.86 5.05-1.23-0.29-2.45-0.58-3.68-0.88z" style="fill-rule:evenodd;fill:#32ac60;stroke-width:0.88;stroke:#000"/>
</svg>
