<?xml version="1.0" encoding="UTF-8" standalone="no"?>
<svg
   xmlns:dc="http://purl.org/dc/elements/1.1/"
   xmlns:cc="http://creativecommons.org/ns#"
   xmlns:rdf="http://www.w3.org/1999/02/22-rdf-syntax-ns#"
   xmlns:svg="http://www.w3.org/2000/svg"
   xmlns="http://www.w3.org/2000/svg"
   id="svg2"
   height="500"
   width="400"
   version="1">
  <metadata
     id="metadata51">
    <rdf:RDF>
      <cc:Work
         rdf:about="">
        <dc:format>
          
          image/svg+xml
        
        </dc:format>
        <dc:type
           rdf:resource="http://purl.org/dc/dcmitype/StillImage" />
        <dc:title></dc:title>
      </cc:Work>
    </rdf:RDF>
  </metadata>
  <defs
     id="defs4" />
  <path
     style="fill-rule:nonzero;fill:#e00e00"
     d="m396.64 1.45-393.73 0 0 301.05 0 0c0 0.03 0 0.06 0 0.09 0 108.73 88.14 196.86 196.86 196.86 108.72 0 196.87-88.14 196.87-196.86 0-0.03 0-0.06 0-0.09l0 0 0-301.05z"
     id="path2418" />
  <path
     style="fill:none;stroke:#000"
     id="path4300"
     d="m396.64 1.45-393.73 0 0 301.05 0 0c0 0.03 0 0.06 0 0.09 0 108.73 88.14 196.86 196.86 196.86 108.72 0 196.87-88.14 196.87-196.86 0-0.03 0-0.06 0-0.09l0 0 0-301.05z" />
  <g
     id="g2414"
     transform="matrix(1.0375002,0,0,-1.0375002,49.114671,823.42261)"
     style="fill:#008000" />
  <path
     d="m 301.36876,372.58608 c 0,0 21.36704,0.57602 45.23406,-17.55444 29.37158,-22.30914 20.97149,-65.00122 20.97149,-65.00122 -6.31406,18.61587 -20.88236,36.90763 -41.27783,46.45901 -20.39769,9.54991 -38.92148,6.06067 -38.92148,6.06067 0,0 9.46078,-2.98614 20.95381,-7.68043 36.76032,-15.01394 36.09739,-44.83852 36.09739,-44.83852 -11.00836,18.61661 -27.84241,21.52909 -38.8493,22.17729 -11.00762,0.6482 -35.90145,-0.0729 -35.90145,-0.0729 -24.12042,0.64746 -35.32323,14.47917 -39.85621,18.8501 -2.17884,2.10076 -3.62845,2.69887 -4.40998,2.87713 l 0,0 c 0,0 3.59457,-5.71227 7.32688,-14.6287 3.73378,-8.91791 1.6588,-13.06639 1.6588,-13.06639 0,0 -9.33114,7.2591 -17.41891,12.65095 -8.08851,5.39258 -9.95429,13.89432 -9.95429,13.89432 0,0 -9.40332,-4.76943 -21.22414,-2.69592 -11.82081,2.07424 -23.29322,16.72724 -32.41811,27.71792 -9.12416,10.99142 -17.48963,15.00215 -17.48963,15.00215 3.73305,1.86653 14.51674,2.48895 23.2262,-1.65806 8.71019,-4.14775 15.76084,-9.6324 23.64163,-18.7573 7.88005,-9.12562 18.45676,-12.5574 18.45676,-12.5574 0,0 -8.789,10.64669 -18.24978,21.98209 -11.08717,13.28442 -27.14412,27.37467 -38.75722,35.66943 -11.61309,8.29549 -8.5253,21.15269 -7.48818,23.84861 1.03638,2.69592 5.80654,9.95429 10.57671,7.25837 4.76943,-2.69593 9.44678,-8.29549 11.31257,-9.74731 1.86652,-1.45109 5.13993,-4.36725 11.1542,-1.67133 6.01426,2.69593 6.58144,4.95726 3.88478,7.4462 -2.69592,2.48894 -8.42366,7.30846 -11.8164,9.06523 -2.50514,1.2964 -5.50381,4.04536 -0.64157,6.1056 6.40466,2.71213 13.48036,1.56673 18.04207,-1.54389 4.56244,-3.10989 4.97714,-4.88581 7.25837,-8.61738 2.28196,-3.73305 3.94076,-6.10708 7.88079,-7.1442 3.94002,-1.03712 19.26112,-4.01663 33.59666,-14.63091 10.80211,-7.99938 14.30828,-15.55386 14.30828,-15.55386 -7.60015,19.36867 -21.56739,27.16622 -21.56739,27.16622 6.01427,16.79796 12.0278,25.30043 12.0278,25.30043 1.45182,-21.56665 12.23551,-29.86214 17.00494,-32.55806 4.77017,-2.69593 14.51306,-3.82733 23.43465,-1.65881 22.18981,5.39185 45.30183,1.35975 45.30183,1.35975 0,0 -9.1875,-0.57159 -24.31635,-13.27043 8.45018,1.76193 27.79601,4.19489 43.12521,-5.89273 24.62203,-16.20647 30.35934,-39.35312 30.35934,-39.35312 0,0 -12.37326,9.87327 -27.42771,15.70192 -22.97502,8.89507 -38.84929,3.55994 -38.84929,3.55994 z"
     id="path2422"
     style="fill:#ffffff;fill-opacity:1;fill-rule:nonzero;stroke:#000000;stroke-opacity:1" />
  <path
     d="m 146.46879,407.97561 c -2.03447,0 -3.9857,0.51266 -4.57718,5.03533 -0.62242,4.75912 2.28196,9.36134 3.50986,7.01825 1.67795,-3.20418 3.91572,-6.91733 3.76324,-9.66408 -0.0928,-1.66838 -0.99808,-2.3895 -2.69592,-2.3895 z"
     id="path2426"
     style="fill:#000000;fill-opacity:1;fill-rule:nonzero;stroke:none" />
  <path
     d="m 196.95769,369.67434 c 0,0 3.56142,2.75264 4.37094,6.79947 0,0 -4.37094,2.10371 -7.12284,0.80804 -2.75191,-1.29419 -0.48541,-8.09292 1.45698,-9.87327 1.94239,-1.78107 5.98922,-4.04683 8.57981,-1.94312 2.59059,2.10444 0.48615,7.4462 0.48615,7.4462 0,0 -2.42854,-4.53225 -7.77104,-3.23732 z"
     id="path2430"
     style="fill:#000000;fill-opacity:1;fill-rule:nonzero;stroke:none" />
  <path
     d="m 267.69844,365.78735 c 0,0 14.56904,-1.61829 25.57665,-6.63669 0,0 -13.06049,1.90556 -20.23489,1.45771 -3.93045,-0.24602 -10.70783,-1.66027 -14.73919,-1.62123 4.15511,4.4247 8.74996,9.75099 13.78383,16.17038 -0.40292,-1.85179 -1.4835,-5.2843 -4.3864,-9.37017 z"
     id="path2434"
     style="fill:#e00e00;fill-opacity:1;fill-rule:nonzero;stroke:#000000;stroke-opacity:1" />
  <path
     d="m 247.62486,344.09695 c 0,0 12.78943,-0.3241 25.09197,-7.7703 0,0 -12.662,4.42544 -28.97602,2.7519 -4.88876,-0.50162 -8.69841,-0.32336 -10.17453,-0.21877 3.69621,1.75972 10.11266,5.70564 19.14547,14.44161 -0.453,-1.92619 -1.69784,-5.48834 -5.08689,-9.20444 z"
     id="path2438"
     style="fill:#e00e00;fill-opacity:1;fill-rule:nonzero;stroke:#000000;stroke-opacity:1" />
  <path
     d="m 288.69129,393.66953 c -0.3683,-1.25957 -1.19991,-3.8207 -2.37772,-5.70563 0,0 17.32094,0.64746 23.47148,-2.10444 0,0 -16.17186,0.97819 -24.44304,-2.91322 -2.53019,-1.19107 -6.02385,-3.33602 -9.84454,-3.54669 4.70608,5.69753 9.11973,10.39772 13.19382,14.26998 z"
     id="path2442"
     style="fill:#e00e00;fill-opacity:1;fill-rule:nonzero;stroke:#000000;stroke-opacity:1" />
  <path
     d="m 246.78367,240.32672 c 0,0 21.36704,0.57454 45.2348,-17.55518 29.37157,-22.30914 20.97075,-65.00123 20.97075,-65.00123 -6.31406,18.61587 -20.88162,36.90764 -41.27783,46.45828 -20.39695,9.55064 -38.92148,6.06215 -38.92148,6.06215 0,0 9.46078,-2.98688 20.95454,-7.68118 36.76032,-15.01467 36.09739,-44.83851 36.09739,-44.83851 -11.00909,18.6166 -27.84241,21.52909 -38.85003,22.17729 -11.00688,0.64746 -35.90145,-0.0729 -35.90145,-0.0729 -24.1241,0.64747 -35.32618,14.47918 -39.85916,18.85011 -2.1781,2.10076 -3.62845,2.69887 -4.40997,2.87712 l 0,0 c 0,0 3.59456,-5.71226 7.32761,-14.62943 3.73304,-8.91718 1.6588,-13.06492 1.6588,-13.06492 0,0 -9.33187,7.25837 -17.41964,12.65022 -8.08778,5.39258 -9.9543,13.89431 -9.9543,13.89431 0,0 -9.40258,-4.76942 -21.2234,-2.69592 -11.82081,2.07424 -23.29322,16.72725 -32.418114,27.71866 -9.124155,10.99068 -17.489621,15.00142 -17.489621,15.00142 3.733044,1.86652 14.516739,2.48894 23.226195,-1.6588 8.71019,-4.14775 15.76084,-9.63167 23.64163,-18.75656 7.88005,-9.12563 18.45676,-12.55741 18.45676,-12.55741 0,0 -8.789,10.64669 -18.24978,21.98136 -11.08717,13.28516 -27.14412,27.37246 -38.757218,35.66795 -11.613096,8.29549 -8.52457,21.15269 -7.488186,23.84861 1.036384,2.69593 5.806549,9.9543 10.576713,7.25764 4.769428,-2.69593 9.446781,-8.29476 11.313301,-9.74658 1.86579,-1.45182 5.13994,-4.36798 11.15347,-1.67206 6.01426,2.69666 6.58144,4.958 3.88552,7.44694 -2.69666,2.48894 -8.4244,7.30846 -11.81714,9.06449 -2.50514,1.29787 -5.50381,4.04757 -0.64157,6.1056 6.40466,2.71361 13.48036,1.56673 18.0428,-1.54315 4.56171,-3.11063 4.97641,-4.88434 7.25837,-8.61739 2.28123,-3.7323 3.94003,-6.10634 7.88006,-7.14346 3.94002,-1.03712 19.26038,-4.0181 33.59518,-14.63238 10.80285,-7.99864 14.30902,-15.55312 14.30902,-15.55312 -7.60014,19.37014 -21.56739,27.16769 -21.56739,27.16769 6.01427,16.79722 12.02854,25.2997 12.02854,25.2997 1.45108,-21.56813 12.23551,-29.86215 17.00494,-32.55807 4.76943,-2.69592 14.516,-3.82806 23.43686,-1.66028 22.18981,5.39259 45.30183,1.35975 45.30183,1.35975 0,0 -9.1875,-0.57159 -24.31635,-13.26895 8.45091,1.76266 27.79675,4.19562 43.12521,-5.89421 24.62277,-16.20353 30.36008,-39.35091 30.36008,-39.35091 0,0 -12.374,9.87401 -27.42771,15.70192 -22.97576,8.89507 -38.85003,3.56142 -38.85003,3.56142 z"
     id="path2446"
     style="fill:#ffffff;fill-opacity:1;fill-rule:nonzero;stroke:#000000;stroke-opacity:1" />
  <path
     d="m 91.882224,275.71329 c -2.035202,0 -3.986432,0.51193 -4.577914,5.03534 -0.62242,4.76059 2.281959,9.36281 3.509857,7.01898 1.677954,-3.20417 3.915718,-6.91733 3.763244,-9.66334 -0.09281,-1.66912 -0.998081,-2.39098 -2.695187,-2.39098 z"
     id="path2450"
     style="fill:#000000;fill-opacity:1;fill-rule:nonzero;stroke:none" />
  <path
     d="m 142.37039,237.41423 c 0,0 3.56142,2.75191 4.37094,6.79874 0,0 -4.37094,2.10444 -7.12284,0.80951 -2.75191,-1.29492 -0.48541,-8.09366 1.45698,-9.874 1.94239,-1.78108 5.98922,-4.04757 8.57907,-1.94313 2.5906,2.10444 0.48615,7.4462 0.48615,7.4462 0,0 -2.42854,-4.53224 -7.7703,-3.23732 z"
     id="path2454"
     style="fill:#000000;fill-opacity:1;fill-rule:nonzero;stroke:none" />
  <path
     d="m 213.11408,233.52724 c 0,0 14.56904,-1.61829 25.57592,-6.63668 0,0 -13.05976,1.90556 -20.23489,1.45697 -3.92972,-0.24528 -10.70783,-1.65954 -14.73993,-1.62123 4.15585,4.42544 8.75144,9.75173 13.78531,16.17112 -0.40292,-1.85179 -1.4835,-5.28431 -4.38641,-9.37018 z"
     id="path2458"
     style="fill:#e00e00;fill-opacity:1;fill-rule:nonzero;stroke:#000000;stroke-opacity:1" />
  <path
     d="m 193.03756,211.83611 c 0,0 12.7909,-0.32337 25.09418,-7.76957 0,0 -12.662,4.4247 -28.97897,2.75191 -4.88875,-0.50162 -8.6984,-0.3241 -10.17379,-0.21803 3.69547,1.75897 10.11192,5.70416 19.14474,14.44013 -0.45301,-1.92619 -1.69785,-5.48834 -5.08616,-9.20444 z"
     id="path2462"
     style="fill:#e00e00;fill-opacity:1;fill-rule:nonzero;stroke:#000000;stroke-opacity:1" />
  <path
     d="m 234.10693,261.40869 c -0.36829,-1.26178 -1.1999,-3.82291 -2.37845,-5.70563 0,0 17.32168,0.64599 23.47148,-2.10518 0,0 -16.17186,0.97893 -24.44231,-2.91248 -2.53092,-1.19033 -6.02384,-3.33602 -9.84454,-3.54595 4.70535,5.69458 9.119,10.39477 13.19382,14.26924 z"
     id="path2466"
     style="fill:#e00e00;fill-opacity:1;fill-rule:nonzero;stroke:#000000;stroke-opacity:1" />
  <path
     d="m 187.77166,111.01371 c 0,0 21.37073,0.57454 45.23775,-17.554438 29.37158,-22.309138 20.97149,-65.001226 20.97149,-65.001226 -6.31406,18.615132 -20.88236,36.906901 -41.27783,46.457542 -20.40063,9.551378 -38.92516,6.062146 -38.92516,6.062146 0,0 9.46077,-2.986141 20.95381,-7.680436 36.76473,-15.015412 36.10107,-44.839252 36.10107,-44.839252 -11.00836,18.616605 -27.84536,21.529087 -38.85298,22.177287 -11.00762,0.647464 -35.90145,-0.07292 -35.90145,-0.07292 -24.12116,0.647463 -35.32323,14.479909 -39.85622,18.850105 -2.1781,2.100758 -3.62918,2.69887 -4.4107,2.877125 l 0,0 c 0,0 3.5953,-5.711528 7.32834,-14.628701 3.73304,-8.917173 1.6588,-13.065655 1.6588,-13.065655 0,0 -9.33187,7.25837 -17.41964,12.650217 -8.087772,5.392585 -9.954294,13.89432 -9.954294,13.89432 0,0 -9.402587,-4.769428 -21.223402,-2.695187 -11.820079,2.073504 -23.293223,16.727249 -32.417378,27.717926 -9.124892,10.990679 -17.489622,15.002149 -17.489622,15.002149 3.732308,1.86579 14.516003,2.48821 23.226194,-1.65954 8.709454,-4.14774 15.760841,-9.631662 23.640894,-18.756554 7.880052,-9.124892 18.456765,-12.557406 18.456765,-12.557406 0,0 -8.789006,10.646689 -18.249046,21.98209 -11.087908,13.28442 -27.144859,27.37394 -38.757956,35.66943 -11.613096,8.29549 -8.524569,21.15269 -7.488186,23.84861 1.037121,2.69593 5.807285,9.9543 10.576713,7.25837 4.769428,-2.69592 9.446782,-8.29549 11.313304,-9.74731 1.865786,-1.45182 5.139934,-4.36725 11.153464,-1.67133 6.014267,2.69593 6.581442,4.95726 3.885519,7.44621 -2.695924,2.48894 -8.423657,7.30845 -11.817133,9.06522 -2.505146,1.2964 -5.503073,4.0461 -0.640834,6.10561 6.403924,2.71213 13.479619,1.56673 18.042065,-1.5439 4.562445,-3.11062 4.977146,-4.88507 7.258369,-8.61738 2.281223,-3.73304 3.940026,-6.10634 7.880053,-7.14346 3.940026,-1.03786 19.260391,-4.0181 33.595191,-14.63238 10.80284,-7.99865 14.30975,-15.55313 14.30975,-15.55313 -7.60088,19.36941 -21.56812,27.16696 -21.56812,27.16696 6.01426,16.79796 12.02853,25.30043 12.02853,25.30043 1.45182,-21.56812 12.23552,-29.86214 17.00494,-32.5588 4.76943,-2.69592 14.51306,-3.82733 23.43392,-1.65954 22.18907,5.39258 45.3033,1.35975 45.3033,1.35975 0,0 -9.18897,-0.57086 -24.31782,-13.26969 8.45091,1.76266 27.79969,4.19562 43.12889,-5.89273 24.62277,-16.20575 30.36008,-39.353123 30.36008,-39.353123 0,0 -12.374,9.874003 -27.42845,15.701913 -22.97796,8.89434 -38.85298,3.56068 -38.85298,3.56068 z"
     id="path2470"
     style="fill:#ffffff;fill-opacity:1;fill-rule:nonzero;stroke:#000000;stroke-opacity:1" />
  <path
     d="m 32.873167,146.4025 c -2.034465,0 -3.985695,0.51193 -4.577178,5.03534 -0.622419,4.75985 2.28196,9.36207 3.509121,7.01824 1.678691,-3.20344 3.915719,-6.91659 3.763244,-9.66334 -0.09281,-1.66838 -0.998081,-2.39024 -2.695187,-2.39024 z"
     id="path2474"
     style="fill:#000000;fill-opacity:1;fill-rule:nonzero;stroke:none" />
  <path
     d="m 83.361337,108.10197 c 0,0 3.561418,2.75117 4.370932,6.79873 0,0 -4.370932,2.10371 -7.122837,0.80878 -2.751904,-1.29493 -0.485413,-8.09366 1.456978,-9.874 1.943127,-1.78108 5.989223,-4.04684 8.579077,-1.94239 2.590591,2.10444 0.48615,7.44546 0.48615,7.44546 0,0 -2.427804,-4.53225 -7.7703,-3.23658 z"
     id="path2478"
     style="fill:#000000;fill-opacity:1;fill-rule:nonzero;stroke:none" />
  <path
     d="m 154.10135,104.21498 c 0,0 14.56903,-1.61903 25.57591,-6.637427 0,0 -13.05976,1.905561 -20.23416,1.456977 -3.93045,-0.245284 -10.70709,-1.658803 -14.73845,-1.6205 4.15438,4.4247 8.74923,9.75099 13.7831,16.17039 -0.40218,-1.85106 -1.4835,-5.28431 -4.3864,-9.36944 z"
     id="path2482"
     style="fill:#e00e00;fill-opacity:1;fill-rule:nonzero;stroke:#000000;stroke-opacity:1" />
  <path
     d="m 134.0285,82.523102 c 0,0 12.78869,-0.323363 25.0905,-7.769564 0,0 -12.66053,4.424704 -28.97528,2.751905 -4.88802,-0.501618 -8.69841,-0.3241 -10.1738,-0.218031 3.69548,1.75898 10.11192,5.704899 19.14474,14.44087 -0.453,-1.926186 -1.69784,-5.489077 -5.08616,-9.20518 z"
     id="path2486"
     style="fill:#e00e00;fill-opacity:1;fill-rule:nonzero;stroke:#000000;stroke-opacity:1" />
  <path
     d="m 175.09419,132.09716 c -0.36829,-1.26104 -1.1999,-3.82143 -2.37771,-5.70563 0,0 17.32094,0.64672 23.47148,-2.10444 0,0 -16.1726,0.97819 -24.44231,-2.91396 -2.53166,-1.19107 -6.02458,-3.33676 -9.84454,-3.54669 4.70534,5.6968 9.11973,10.39699 13.19308,14.27072 z"
     id="path2490"
     style="fill:#e00e00;fill-opacity:1;fill-rule:nonzero;stroke:#000000;stroke-opacity:1" />
</svg>
