<?xml version="1.0" encoding="UTF-8" standalone="no"?>
<svg
   xmlns:dc="http://purl.org/dc/elements/1.1/"
   xmlns:cc="http://creativecommons.org/ns#"
   xmlns:rdf="http://www.w3.org/1999/02/22-rdf-syntax-ns#"
   xmlns:svg="http://www.w3.org/2000/svg"
   xmlns="http://www.w3.org/2000/svg"
   id="svg2"
   version="1.1"
   x="0"
   y="0"
   width="400"
   height="500"
   viewBox="30.5 31.5 400 500"
   enable-background="new 30.5 31.5 412 533"
   xml:space="preserve"><metadata
     id="metadata4"><rdf:RDF><cc:Work
         rdf:about=""><dc:format>
          
          
          
          
          
          
          
          
          image/svg+xml
        
        
        
        
        
        
        
        
        </dc:format><dc:type
           rdf:resource="http://purl.org/dc/dcmitype/StillImage" /><dc:title></dc:title></cc:Work></rdf:RDF></metadata><defs
     id="defs6" /><path
     style="fill:#0085ca"
     d="M 230.45,531.13 C 156.13,477.21 105.19,409.11 74.71,322.97 47.07,244.87 35.98,150.22 40.8,33.62 l 0.02,-0.46 379.82,0 0.02,0.46 c 4.81,116.6 -6.28,211.24 -33.91,289.35 -30.48,86.14 -81.42,154.24 -155.74,208.16 l -0.28,0.2 z"
     id="path4148" /><path
     id="path10"
     d="M 419.96,33.21 C 429.03,252.66 383.71,419.16 230.51,530.31 146.04,469.02 94.36,390.9 66.52,296.34 64.43,289.25 62.48,282.07 60.65,274.8 49.2,229.11 42.88,179.78 40.77,126.86 39.57,96.8 39.72,65.58 41.06,33.21 l 189.45,0 189.45,0 m 0.92,-0.95 -0.92,0 -189.45,0 -189.45,0 -0.92,0 -0.04,0.92 c -4.82,116.66 6.28,211.36 33.93,289.52 30.51,86.24 81.51,154.41 155.91,208.39 l 0.56,0.41 0.56,-0.41 C 305.46,477.11 356.46,408.94 386.97,322.7 414.62,244.54 425.72,149.84 420.9,33.18 l -0.04,-0.92 0,0 z" /><path
     d="m 174.72095,102.18627 c -15.55703,11.01497 -23.50233,14.74142 -32.19564,13.9964 C 134.23493,115.47218 124.87889,96.72759 108.5,83.5 c 3.7878,30.01513 4.57959,54.35417 6.88868,80.36115 1.42939,16.09902 3.93295,31.68927 3.12395,40.31112 6.68769,0.71112 26.30225,33.7421 38.96905,66.51891 7.83257,17.17596 12.52377,29.10178 16.68765,43.29053 2.18035,7.57038 7.04399,-0.49489 10.96108,8.63741 3.99459,9.31299 0.33409,32.0953 -8.97589,55.11351 -2.55044,6.30577 -5.57694,12.76765 -9.19979,19.1596 6.08399,-2.34713 11.26981,-4.89836 17.56498,-7.96154 1.54878,4.76575 4.61398,9.60627 11.19608,17.02241 l 8.68425,-44.80565 c 4.15832,-21.45446 6.04253,-28.28924 -1.5346,-43.08277 -4.73668,-9.24786 3.65885,-11.5789 -1.29739,-17.29037 -3.54511,-4.08531 -4.92705,-4.95484 -7.72284,-8.79068 -23.01787,-31.58064 -26.88539,-79.98918 -25.27687,-107.94804 0.48743,-8.47231 5.56382,-15.51728 14.1333,-16.07575 -10.28416,-14.95328 -14.06113,-44.23229 -7.98069,-65.77357 z"
     id="use3763"
     style="fill:#ffffff;stroke:#000000;stroke-linecap:round;stroke-linejoin:round;stroke-opacity:1" /><path
     id="path4196"
     d="m 139.25998,153.26869 c -3.15721,25.69498 1.69285,52.16333 8.02501,65.46717 14.2115,29.85831 26.942,61.93319 42.65926,93.5547 4.38306,8.81827 6.02239,13.1444 6.54671,24.49739"
     style="fill:none;fill-rule:evenodd;stroke:#000000;stroke-width:1px;stroke-linecap:round;stroke-linejoin:miter;stroke-opacity:1" /><path
     style="fill:#ffffff;stroke:#000000;stroke-linecap:round;stroke-linejoin:round;stroke-opacity:1"
     id="path4213"
     d="m 286.27905,102.18627 c 15.55703,11.01497 23.50233,14.74142 32.19564,13.9964 C 326.76507,115.47218 336.12111,96.72759 352.5,83.5 c -3.7878,30.01513 -4.57959,54.35417 -6.88868,80.36115 -1.42939,16.09902 -3.93295,31.68927 -3.12395,40.31112 -6.68769,0.71112 -26.30225,33.7421 -38.96905,66.51891 -7.83257,17.17596 -12.52377,29.10178 -16.68765,43.29053 -2.18035,7.57038 -7.04399,-0.49489 -10.96108,8.63741 -3.99459,9.31299 -0.33409,32.0953 8.97589,55.11351 2.55044,6.30577 5.57694,12.76765 9.19979,19.1596 -6.08399,-2.34713 -11.26981,-4.89836 -17.56498,-7.96154 -1.54878,4.76575 -4.61398,9.60627 -11.19608,17.02241 l -8.68425,-44.80565 c -4.15832,-21.45446 -6.04253,-28.28924 1.5346,-43.08277 4.73668,-9.24786 -3.65885,-11.5789 1.29739,-17.29037 3.54511,-4.08531 4.92705,-4.95484 7.72284,-8.79068 23.01787,-31.58064 26.88539,-79.98918 25.27687,-107.94804 -0.48743,-8.47231 -5.56382,-15.51728 -14.1333,-16.07575 10.28416,-14.95328 14.06113,-44.23229 7.98069,-65.77357 z" /><path
     style="fill:none;fill-rule:evenodd;stroke:#000000;stroke-width:1px;stroke-linecap:round;stroke-linejoin:miter;stroke-opacity:1"
     d="m 321.74002,153.26869 c 3.15721,25.69498 -1.69285,52.16333 -8.02501,65.46717 -14.2115,29.85831 -26.942,61.93319 -42.65926,93.5547 -4.38306,8.81827 -6.02239,13.1444 -6.54671,24.49739"
     id="path4215" /></svg>