<?xml version="1.0" encoding="UTF-8" standalone="no"?>
<svg
   xmlns:dc="http://purl.org/dc/elements/1.1/"
   xmlns:cc="http://creativecommons.org/ns#"
   xmlns:rdf="http://www.w3.org/1999/02/22-rdf-syntax-ns#"
   xmlns:svg="http://www.w3.org/2000/svg"
   xmlns="http://www.w3.org/2000/svg"
   xml:space="preserve"
   enable-background="new 30.5 31.5 412 533"
   viewBox="30.5 31.5 400 500"
   height="500"
   width="400"
   y="0"
   x="0"
   version="1.1"
   id="svg2"><metadata
     id="metadata4"><rdf:RDF><cc:Work
         rdf:about=""><dc:format>
          
          
          
          
          image/svg+xml
        
        
        
        
        </dc:format><dc:type
           rdf:resource="http://purl.org/dc/dcmitype/StillImage" /><dc:title></dc:title></cc:Work></rdf:RDF></metadata><defs
     id="defs6" /><path
     fill="#e00e00"
     style="fill:#ffe000;fill-opacity:0.98823529"
     id="path4148"
     d="M230.45 531.13C156.13 477.21 105.19 409.11 74.71 322.97 47.07 244.87 35.98 150.22 40.8 33.62l0.02-0.46 379.82 0 0.02 0.46c4.81 116.6-6.28 211.24-33.91 289.35-30.48 86.14-81.42 154.24-155.74 208.16l-0.28 0.2-0.28-0.2z" /><path
     style="fill:#0085ca;fill-rule:evenodd;stroke:none;stroke-width:1px;stroke-linecap:butt;stroke-linejoin:miter;stroke-opacity:1;fill-opacity:1"
     d="m 380.00589,339.5 -299.170497,0 C 70.028995,311.77187 62.573541,286.7122 56.322432,257.95504 65.765298,247.65926 80.57417,245.22511 94.19993,244.81288 c 18.29173,-0.55339 37.15893,13.69637 38.98951,27.66295 -8.59039,-3.48108 -22.38393,-3.41805 -30.49459,2.61382 -10.77716,8.01493 -11.61191,20.79921 -7.18801,28.53422 C 99.22562,310.12601 106.23357,314.5 112.5,314.5 c 14.60665,0 23.37506,-9.27097 31.01752,-17.51637 22.92135,-24.72968 48.87664,-51.20851 80.68241,-52.17075 18.29173,-0.55339 37.15893,13.69637 38.98951,27.66295 -8.59039,-3.48108 -22.38393,-3.41805 -30.49459,2.61382 -10.77716,8.01493 -11.61191,20.79921 -7.18801,28.53422 3.71878,6.50214 10.72673,10.87613 16.99316,10.87613 14.60665,0 23.37506,-9.27097 31.01752,-17.51637 22.92135,-24.72968 48.87664,-51.20851 80.68241,-52.17075 18.29173,-0.55339 37.15893,13.69637 38.98951,27.66295 -8.59039,-3.48108 -22.38393,-3.41805 -30.49459,2.61382 -10.77716,8.01493 -11.61191,20.79921 -7.18801,28.53422 3.71878,6.50214 10.72673,10.87613 16.99316,10.87613 7.58645,0 13.59798,-2.50093 18.69482,-6.06015 -3.26524,10.58559 -6.73957,21.06662 -11.18893,31.06015 z"
     id="path4503" /><path
     id="path4499"
     d="m 417.12997,178.97415 c -1.89158,2.005 -3.7619,4.01294 -5.61245,6.00948 C 403.87506,193.22903 395.10665,202.5 380.5,202.5 c -6.26643,0 -13.27438,-4.37399 -16.99316,-10.87613 -4.4239,-7.73501 -3.58915,-20.51929 7.18801,-28.53422 8.11066,-6.03187 21.9042,-6.0949 30.49459,-2.61382 -1.83058,-13.96658 -20.69778,-28.21634 -38.98951,-27.66295 -31.80577,0.96224 -57.76106,27.44107 -80.68241,52.17075 C 273.87506,193.22903 265.10665,202.5 250.5,202.5 c -6.26643,0 -13.27438,-4.37399 -16.99316,-10.87613 -4.4239,-7.73501 -3.58915,-20.51929 7.18801,-28.53422 8.11066,-6.03187 21.9042,-6.0949 30.49459,-2.61382 -1.83058,-13.96658 -20.69778,-28.21634 -38.98951,-27.66295 -31.80577,0.96224 -57.76106,27.44107 -80.68241,52.17075 C 143.87506,193.22903 135.10665,202.5 120.5,202.5 c -6.26643,0 -13.27438,-4.37399 -16.99316,-10.87613 -4.4239,-7.73501 -3.58915,-20.51929 7.18801,-28.53422 8.11066,-6.03187 21.9042,-6.0949 30.49459,-2.61382 -1.83058,-13.96658 -20.69778,-28.21634 -38.98951,-27.66295 -22.469613,0.67979 -42.019307,14.09466 -59.642163,30.63102 1.77416,23.77395 4.814649,43.74891 7.744397,64.0561 l 360.323316,0 c 2.6262,-14.6485 4.77524,-30.88752 6.50449,-48.52585 z"
     style="fill:#0085ca;fill-rule:evenodd;stroke:none;stroke-width:1px;stroke-linecap:butt;stroke-linejoin:miter;stroke-opacity:1;fill-opacity:1" /><path
     style="fill:#0085ca;fill-rule:evenodd;stroke:none;stroke-width:1px;stroke-linecap:butt;stroke-linejoin:miter;stroke-opacity:1;fill-opacity:1"
     d="m 349.82308,401.46892 c -2.37861,2.50403 -4.72341,5.01828 -7.03729,7.51471 -7.64246,8.2454 -16.41087,17.51637 -31.01752,17.51637 -6.26643,0 -13.27438,-4.37399 -16.99316,-10.87613 -4.4239,-7.73501 -3.58915,-20.51929 7.18801,-28.53422 8.11066,-6.03187 21.9042,-6.0949 30.49459,-2.61382 -1.83058,-13.96658 -20.69778,-28.21634 -38.98951,-27.66295 -31.80577,0.96224 -57.76106,27.44107 -80.68241,52.17075 -7.64246,8.2454 -16.41087,17.51637 -31.01752,17.51637 -6.26643,0 -13.27438,-4.37399 -16.99316,-10.87613 -4.4239,-7.73501 -3.58915,-20.51929 7.18801,-28.53422 8.11066,-6.03187 21.9042,-6.0949 30.49459,-2.61382 -1.83058,-13.96658 -20.69778,-28.21634 -38.98951,-27.66295 -22.58444,0.68326 -42.21904,14.2321 -59.91219,30.88478 14.35373,28.10053 28.53565,46.54775 42.49671,63.80234 l 169.35388,0 c 12.88333,-16.55774 23.25805,-30.92017 34.41648,-50.03108 z"
     id="path4501" /><path
     d="M419.96 33.21C429.03 252.66 383.71 419.16 230.51 530.31 146.04 469.02 94.36 390.9 66.52 296.34 64.43 289.25 62.48 282.07 60.65 274.8 49.2 229.11 42.88 179.78 40.77 126.86 39.57 96.8 39.72 65.58 41.06 33.21l189.45 0 189.45 0m0.92-0.95-0.92 0-189.45 0-189.45 0-0.92 0-0.04 0.92c-4.82 116.66 6.28 211.36 33.93 289.52 30.51 86.24 81.51 154.41 155.91 208.39l0.56 0.41 0.56-0.41C305.46 477.11 356.46 408.94 386.97 322.7 414.62 244.54 425.72 149.84 420.9 33.18l-0.04-0.92 0 0z"
     id="path10" /><path
     style="fill:none;fill-rule:evenodd;stroke:#000000;stroke-width:1px;stroke-linecap:butt;stroke-linejoin:miter;stroke-opacity:1"
     d="m 50.302164,227.5 360.323316,0 m 6.50449,-48.52585 c -1.89158,2.005 -3.7619,4.01294 -5.61245,6.00948 C 403.87506,193.22903 395.10665,202.5 380.5,202.5 c -6.26643,0 -13.27438,-4.37399 -16.99316,-10.87613 -4.4239,-7.73501 -3.58915,-20.51929 7.18801,-28.53422 8.11066,-6.03187 21.9042,-6.0949 30.49459,-2.61382 -1.83058,-13.96658 -20.69778,-28.21634 -38.98951,-27.66295 -31.80577,0.96224 -57.76106,27.44107 -80.68241,52.17075 C 273.87506,193.22903 265.10665,202.5 250.5,202.5 c -6.26643,0 -13.27438,-4.37399 -16.99316,-10.87613 -4.4239,-7.73501 -3.58915,-20.51929 7.18801,-28.53422 8.11066,-6.03187 21.9042,-6.0949 30.49459,-2.61382 -1.83058,-13.96658 -20.69778,-28.21634 -38.98951,-27.66295 -31.80577,0.96224 -57.76106,27.44107 -80.68241,52.17075 C 143.87506,193.22903 135.10665,202.5 120.5,202.5 c -6.26643,0 -13.27438,-4.37399 -16.99316,-10.87613 -4.4239,-7.73501 -3.58915,-20.51929 7.18801,-28.53422 8.11066,-6.03187 21.9042,-6.0949 30.49459,-2.61382 -1.83058,-13.96658 -20.69778,-28.21634 -38.98951,-27.66295 -22.469613,0.67979 -42.019307,14.09466 -59.642163,30.63102"
     id="path4467" /><path
     id="path4483"
     d="m 146.05272,451.5 169.35388,0 m 34.41648,-50.03108 c -2.37861,2.50403 -4.72341,5.01828 -7.03729,7.51471 -7.64246,8.2454 -16.41087,17.51637 -31.01752,17.51637 -6.26643,0 -13.27438,-4.37399 -16.99316,-10.87613 -4.4239,-7.73501 -3.58915,-20.51929 7.18801,-28.53422 8.11066,-6.03187 21.9042,-6.0949 30.49459,-2.61382 -1.83058,-13.96658 -20.69778,-28.21634 -38.98951,-27.66295 -31.80577,0.96224 -57.76106,27.44107 -80.68241,52.17075 -7.64246,8.2454 -16.41087,17.51637 -31.01752,17.51637 -6.26643,0 -13.27438,-4.37399 -16.99316,-10.87613 -4.4239,-7.73501 -3.58915,-20.51929 7.18801,-28.53422 8.11066,-6.03187 21.9042,-6.0949 30.49459,-2.61382 -1.83058,-13.96658 -20.69778,-28.21634 -38.98951,-27.66295 -22.58444,0.68326 -42.21904,14.2321 -59.91219,30.88478"
     style="fill:none;fill-rule:evenodd;stroke:#000000;stroke-width:1px;stroke-linecap:butt;stroke-linejoin:miter;stroke-opacity:1" /><path
     id="path4489"
     d="m 56.322432,257.95504 c 9.442866,-10.29578 24.251738,-12.72993 37.877498,-13.14216 18.29173,-0.55339 37.15893,13.69637 38.98951,27.66295 -8.59039,-3.48108 -22.38393,-3.41805 -30.49459,2.61382 -10.77716,8.01493 -11.61191,20.79921 -7.18801,28.53422 C 99.22562,310.12601 106.23357,314.5 112.5,314.5 c 14.60665,0 23.37506,-9.27097 31.01752,-17.51637 22.92135,-24.72968 48.87664,-51.20851 80.68241,-52.17075 18.29173,-0.55339 37.15893,13.69637 38.98951,27.66295 -8.59039,-3.48108 -22.38393,-3.41805 -30.49459,2.61382 -10.77716,8.01493 -11.61191,20.79921 -7.18801,28.53422 3.71878,6.50214 10.72673,10.87613 16.99316,10.87613 14.60665,0 23.37506,-9.27097 31.01752,-17.51637 22.92135,-24.72968 48.87664,-51.20851 80.68241,-52.17075 18.29173,-0.55339 37.15893,13.69637 38.98951,27.66295 -8.59039,-3.48108 -22.38393,-3.41805 -30.49459,2.61382 -10.77716,8.01493 -11.61191,20.79921 -7.18801,28.53422 3.71878,6.50214 10.72673,10.87613 16.99316,10.87613 7.58645,0 13.59798,-2.50093 18.69482,-6.06015 M 380.00589,339.5 l -299.170497,0"
     style="fill:none;fill-rule:evenodd;stroke:#000000;stroke-width:1px;stroke-linecap:butt;stroke-linejoin:miter;stroke-opacity:1" /></svg>