<?xml version="1.0" encoding="UTF-8" standalone="no"?>
<svg
   xmlns:dc="http://purl.org/dc/elements/1.1/"
   xmlns:cc="http://creativecommons.org/ns#"
   xmlns:rdf="http://www.w3.org/1999/02/22-rdf-syntax-ns#"
   xmlns:svg="http://www.w3.org/2000/svg"
   xmlns="http://www.w3.org/2000/svg"
   xml:space="preserve"
   enable-background="new 30.5 31.5 412 533"
   viewBox="30.5 31.5 400 500"
   height="500"
   width="400"
   y="0"
   x="0"
   version="1.1"
   id="svg2"><metadata
     id="metadata4"><rdf:RDF><cc:Work
         rdf:about=""><dc:format>
          
          
          
          
          image/svg+xml
        
        
        
        
        </dc:format><dc:type
           rdf:resource="http://purl.org/dc/dcmitype/StillImage" /><dc:title></dc:title></cc:Work></rdf:RDF></metadata><defs
     id="defs6" /><path
     id="path4280"
     d="m 32,33 0,284.65378 c 0,65.69189 18.86566,103.59659 53.11873,136.39254 39.6047,37.91991 103.24606,64.31509 145.38127,76.25368 42.13521,-11.93859 105.77656,-38.33377 145.38126,-76.25368 34.25308,-32.79595 53.11873,-70.70065 53.11873,-136.39254 L 428.99999,33 230.5,33 Z"
     style="fill:#e00e00;fill-opacity:1;fill-rule:evenodd;stroke:#000000;stroke-width:1px;stroke-linecap:butt;stroke-linejoin:miter;stroke-opacity:1" /><path
     id="path4288"
     d="m 190.8078,492.77572 c 9.0786,-33.88558 11.19761,-65.24068 8.1771,-98.594 -32.3527,3.00791 -62.05989,3.87432 -87.63683,-4.93729 C 70.8813,375.30308 56.42308,346.30766 53.64353,313.02507 50.82501,279.27583 65.10352,246.57204 69.99716,197.46199 72.91173,168.21278 73.35741,133.31988 58.27224,92.390076 c 18.22115,12.083524 45.69241,47.997834 53.38441,67.579114 -5.92722,-2.44416 -12.93119,-4.25522 -18.51483,-4.78101 3.26051,47.94105 -4.85319,82.61932 -3.56651,122.03123 1.12737,34.53233 16.32603,64.78702 52.01364,64.81222 27.79123,0.0196 44.29749,-22.14593 53.94671,-43.11299 8.47983,-18.42609 17.80182,-47.84739 17.33256,-89.26801 l -0.92294,-81.46523 c -10.37745,8.23676 -22.11775,13.64998 -32.40094,15.7376 18.1004,-23.67674 40.37459,-57.004501 50.95566,-90.117021 10.58107,33.11252 32.85526,66.440281 50.95566,90.117021 -10.28319,-2.08762 -22.02349,-7.50084 -32.40094,-15.7376 l -0.92294,81.46523 c -0.46926,41.42062 8.85273,70.84192 17.33256,89.26801 9.64922,20.96706 26.15548,43.13259 53.94671,43.11299 35.68761,-0.0252 50.88628,-30.27989 52.01365,-64.81222 1.28667,-39.41191 -6.82703,-74.09018 -3.56652,-122.03123 -5.58363,0.52579 -12.58761,2.33685 -18.51483,4.78101 7.692,-19.58128 35.16326,-55.49559 53.38442,-67.579114 -15.08517,40.929804 -14.6395,75.822704 -11.72492,105.071914 4.89364,49.11005 19.17215,81.81384 16.35362,115.56308 -2.77955,33.28259 -17.23777,62.27801 -57.70454,76.21936 -25.57694,8.81161 -55.28413,7.9452 -87.63683,4.93729 -3.02051,33.35332 -0.9015,64.70842 8.1771,98.594 1.2902,4.81563 -12.38141,-5.09414 -39.6922,-5.09414 -27.31079,0 -40.9824,9.90977 -39.6922,5.09414 z"
     style="fill:#ffe000;fill-opacity:1;fill-rule:evenodd;stroke:#000000;stroke-width:1px;stroke-linecap:round;stroke-linejoin:round;stroke-opacity:1" /><circle
     r="8.4088163"
     cy="418.48242"
     cx="230.5"
     id="path4284"
     style="opacity:0.98999999;fill:#e00e00;fill-opacity:1;fill-rule:evenodd;stroke:#000000;stroke-width:1;stroke-linecap:round;stroke-linejoin:round;stroke-miterlimit:4;stroke-dasharray:none;stroke-opacity:1" /><circle
     style="opacity:0.98999999;fill:#e00e00;fill-opacity:1;fill-rule:evenodd;stroke:#000000;stroke-width:1;stroke-linecap:round;stroke-linejoin:round;stroke-miterlimit:4;stroke-dasharray:none;stroke-opacity:1"
     id="circle4286"
     cx="230.5"
     cy="458.48242"
     r="8.4088163" /></svg>