<?xml version="1.0" encoding="UTF-8" standalone="no"?>
<!-- Creator: CorelDRAW X5 -->

<svg
   xmlns:dc="http://purl.org/dc/elements/1.1/"
   xmlns:cc="http://creativecommons.org/ns#"
   xmlns:rdf="http://www.w3.org/1999/02/22-rdf-syntax-ns#"
   xmlns:svg="http://www.w3.org/2000/svg"
   xmlns="http://www.w3.org/2000/svg"
   xmlns:sodipodi="http://sodipodi.sourceforge.net/DTD/sodipodi-0.dtd"
   xmlns:inkscape="http://www.inkscape.org/namespaces/inkscape"
   xml:space="preserve"
   width="210mm"
   height="297mm"
   style="shape-rendering:geometricPrecision; text-rendering:geometricPrecision; image-rendering:optimizeQuality; fill-rule:evenodd; clip-rule:evenodd"
   viewBox="0 0 21000 29700"
   version="1.1"
   enable-background="new 0 0 612 792"
   id="svg3336"
   inkscape:version="0.91 r13725"
   sodipodi:docname="Vardø_komm.svg"><metadata
     id="metadata3909"><rdf:RDF><cc:Work
         rdf:about=""><dc:format>image/svg+xml</dc:format><dc:type
           rdf:resource="http://purl.org/dc/dcmitype/StillImage" /><dc:title></dc:title></cc:Work></rdf:RDF></metadata><sodipodi:namedview
     pagecolor="#ffffff"
     bordercolor="#666666"
     borderopacity="1"
     objecttolerance="10"
     gridtolerance="10"
     guidetolerance="10"
     inkscape:pageopacity="0"
     inkscape:pageshadow="2"
     inkscape:window-width="1920"
     inkscape:window-height="1017"
     id="namedview3907"
     showgrid="false"
     inkscape:zoom="0.8077067"
     inkscape:cx="372.04724"
     inkscape:cy="526.1811"
     inkscape:window-x="-8"
     inkscape:window-y="-8"
     inkscape:window-maximized="1"
     inkscape:current-layer="svg3336" /><defs
     id="defs3338"><style
       type="text/css"
       id="style3340"><![CDATA[
    .str0 {stroke:#241F1F;stroke-width:55.3}
    .str2 {stroke:#241F1F;stroke-width:93.93}
    .str1 {stroke:#241F1F;stroke-width:110.6}
    .fil5 {fill:none}
    .fil2 {fill:#176EC2}
    .fil4 {fill:#241F1F}
    .fil1 {fill:#BDBDBD}
    .fil3 {fill:#CCE3F5}
    .fil8 {fill:#D4D1D1}
    .fil0 {fill:#ED1C24}
    .fil6 {fill:#FCEB08}
    .fil7 {fill:white}
   ]]></style></defs><g
     id="Layer_x0020_1"><metadata
       id="CorelCorpID_0Corel-Layer" /><g
       id="_343006856"><path
         class="fil0"
         d="M8240 27273l-5933 0c-1042,0 -1887,-833 -1887,-1859l0 -19288 20131 0 0 19288c0,1027 -845,1859 -1887,1859l-5890 7c0,0 -886,-23 -2266,1689 0,0 -603,-1240 -2268,-1696l0 0 0 0z"
         id="path3345" /><path
         class="fil1"
         d="M12555 26726l5949 0c583,74 1391,-569 1391,-1271l-61 -18680 -18751 0 21 18680c0,702 609,1271 1311,1271l5971 0c0,0 761,-167 2123,1197 0,0 923,-1271 2045,-1197l0 0z"
         id="path3347" /><path
         class="fil2"
         d="M12366 26025l5880 37c527,0 955,-421 955,-941l0 -17757 -17517 0 0 17757c-33,637 428,941 956,941l5841 0c0,0 580,-155 1987,1026 0,0 415,-717 1897,-1063l0 0z"
         id="path3349" /><path
         class="fil3"
         d="M8827 25355l-6088 -40c-175,0 -317,-139 -317,-311l0 -17022 16139 0 0 17022c0,172 -142,311 -316,311l-6059 0c0,0 -809,104 -1622,779 0,0 -703,-630 -1736,-739l0 0 0 0z"
         id="path3351" /><path
         class="fil4"
         d="M15866 6036c-5,-112 -73,-247 -161,-305 -143,-140 27,-409 34,-592 124,-121 287,-251 266,-453 -189,-228 28,-512 137,-724 282,-502 468,-1064 784,-1547 187,-1 229,-171 295,-302 50,-125 127,-232 162,-359 -216,-203 -521,-257 -810,-323 -84,9 -103,80 -109,167 -21,41 -76,106 -131,69 -55,-75 -27,-159 7,-235 -222,-204 -576,-147 -852,-249 -256,109 -214,454 -297,700 21,100 112,143 185,198 18,121 -77,254 -112,381 -324,-35 -660,-87 -1009,-103 -274,-64 -28,-247 -83,-426 167,-107 377,-16 540,-101 85,-208 226,-437 201,-655 -72,-159 -320,-108 -458,-181 -557,18 -1250,-243 -1805,-92 -156,183 -117,454 -143,672 26,210 296,23 372,205 -29,136 -31,290 -142,376 -466,-35 -1042,-86 -1524,-64l-31 -418c115,-64 255,-5 364,-77 117,-122 99,-339 116,-499 -11,-119 -25,-269 -178,-293 -559,-19 -1168,-46 -1764,-20l-136 104c-95,222 21,483 65,681 116,69 314,-48 419,94 -33,165 -27,313 -98,435 -543,-24 -1009,37 -1523,113 -61,-134 -113,-276 -97,-428 79,-76 222,-33 304,-123l-119 -712c-282,-65 -575,-59 -843,-19 -432,81 -910,75 -1289,289 -23,240 74,483 190,693 104,53 321,-91 343,104 23,92 85,220 -16,292 -393,21 -756,187 -1146,238 -59,-105 -78,-219 -120,-329 -75,-144 143,-147 185,-222 -89,-242 19,-550 -167,-741 -489,14 -951,142 -1402,250 -207,123 -557,18 -639,301 59,193 164,386 279,559 101,119 245,-36 359,3 294,606 546,1234 786,1846 309,225 -186,274 -86,548 -35,312 415,122 379,442 6,156 116,453 -158,477 0,0 -274,160 -145,488 0,0 92,310 832,54 983,-339 1240,-455 4939,-565 0,0 3144,146 4531,692 0,0 549,206 524,-316l0 0z"
         id="path3353" /><path
         class="fil4"
         d="M15549 16249c58,61 245,60 134,190 -42,31 -55,66 -63,116 43,58 116,25 163,10 59,-43 81,-179 171,-136 69,40 -53,103 13,150l-419 -330 0 0z"
         id="path3355" /><path
         class="fil4"
         d="M16037 16243c-2,59 -76,99 -121,100 -72,-18 -15,-98 -22,-144 57,-28 156,-42 143,44l0 0z"
         id="path3357" /><path
         class="fil4"
         d="M7924 16408c17,-12 65,17 60,46 -66,86 -202,139 -151,287 -148,37 -149,-192 -224,-285l39 -105c113,-4 181,183 276,57l0 0z"
         id="path3359" /><polygon
         class="fil4"
         points="14230,13245 14955,13274 15009,14025 14879,13992 14824,13514 "
         id="polygon3361" /><polygon
         class="fil4"
         points="6742,11637 7754,11770 6649,16740 6372,16649 7409,12100 "
         id="polygon3363" /><path
         class="fil5 str0"
         d="M18539 16651c-16091,0 -16091,0 -16091,0"
         id="path3365" /><path
         class="fil5 str1"
         d="M4929 15227c0,0 185,529 314,711"
         id="path3367" /><path
         class="fil4"
         d="M7534 17181c113,-49 280,-75 277,-245 -28,-56 -95,-14 -151,-38 -106,-230 -83,-514 -273,-691 -61,6 -148,36 -159,109 48,170 57,348 120,520 -5,73 -106,50 -129,10 -97,-147 82,-519 -243,-502 -73,129 -125,269 -133,415l-362 -174c-74,-48 -88,-154 -96,-243 45,-97 151,-198 117,-314 -30,-93 -132,-161 -223,-108 -212,64 7,525 -304,359 -156,-149 133,-319 -46,-472l51 -133 511 86c20,-34 69,-56 69,-107l-106 -83 -1086 -284c-54,7 -85,61 -99,103 155,105 313,107 479,192 -1153,248 -885,795 -872,918l49 210c30,250 178,432 61,614 -72,314 386,538 418,559 131,71 613,-79 729,-149l321 -510 1079 -41 0 0z"
         id="path3369" /><path
         class="fil0"
         d="M5678 17706c0,0 37,36 148,73 0,0 167,155 500,-237l74 -118c584,89 1097,-58 1353,-116 133,-39 170,-167 229,-261 -18,-25 1,-52 -26,-70 -90,1 -61,94 -119,130l-23 1c-15,49 65,18 27,71 -24,11 -46,14 -64,-18 -72,33 -156,42 -243,22 113,-49 280,-75 277,-245 0,0 -958,423 -1892,-297l333 665c0,0 -37,64 -426,-200 0,0 -9,182 231,337 0,0 27,164 -343,-155 -227,-196 46,346 296,346 0,0 -148,54 -424,-174 -142,-117 91,247 91,247l0 0z"
         id="path3371" /><path
         class="fil6"
         d="M11736 10252l-1258 6178 352 -6269c0,0 610,18 906,91l0 0z"
         id="path3373" /><path
         class="fil5 str0"
         d="M11736 10252l-1258 6178 352 -6269m0 0c0,0 610,18 906,91"
         id="path3375" /><path
         class="fil6"
         d="M17968 15783l-7490 647 7267 -1441c0,0 217,494 223,794l0 0z"
         id="path3377" /><path
         class="fil5 str0"
         d="M17968 15783l-7490 647 7267 -1441m0 0c0,0 217,494 223,794"
         id="path3379" /><path
         class="fil6"
         d="M13322 15670l-2844 760 2848 -1370c0,0 -79,319 -4,611l0 0z"
         id="path3381" /><path
         class="fil5 str0"
         d="M13322 15670l-2844 760 2848 -1370m0 0c0,0 -79,319 -4,611"
         id="path3383" /><path
         class="fil6"
         d="M14577 13961l213 -184c-155,-259 -796,-405 -796,-405l-3516 3058 2924 -1761 331 -826 844 119 0 0z"
         id="path3385" /><path
         class="fil5 str0"
         d="M14577 13961l213 -184m0 0c-155,-259 -796,-405 -796,-405m0 0l-3516 3058 2924 -1761 331 -826 844 119"
         id="path3387" /><path
         class="fil6"
         d="M14879 11476l-4401 4954 3511 -5493c0,0 669,282 890,539l0 0z"
         id="path3389" /><path
         class="fil5 str0"
         d="M14879 11476l-4401 4954 3511 -5493m0 0c0,0 669,282 890,539"
         id="path3391" /><path
         class="fil6"
         d="M13350 10664l-2872 5766 1945 -6045c0,0 659,134 927,279l0 0z"
         id="path3393" /><path
         class="fil5 str0"
         d="M13350 10664l-2872 5766 1945 -6045m0 0c0,0 659,134 927,279"
         id="path3395" /><path
         class="fil6"
         d="M8115 14304l2363 2126 -2501 -1572c0,0 -89,-269 138,-554l0 0z"
         id="path3397" /><path
         class="fil5 str0"
         d="M8115 14304l2363 2126 -2501 -1572m0 0c0,0 -89,-269 138,-554"
         id="path3399" /><path
         class="fil6"
         d="M8619 13548l1859 2882 -2224 -2418c0,0 101,-314 365,-464l0 0z"
         id="path3401" /><path
         class="fil5 str0"
         d="M8619 13548l1859 2882 -2224 -2418m0 0c0,0 101,-314 365,-464"
         id="path3403" /><path
         class="fil6"
         d="M8460 10452l2018 5978 -3016 -5721c0,0 705,-173 998,-257l0 0z"
         id="path3405" /><path
         class="fil5 str0"
         d="M8460 10452l2018 5978 -3016 -5721m0 0c0,0 705,-173 998,-257"
         id="path3407" /><path
         class="fil6"
         d="M10073 10142l396 6288 -1296 -6147c0,0 595,-137 900,-142l0 0z"
         id="path3409" /><path
         class="fil5 str0"
         d="M10073 10142l396 6288 -1296 -6147m0 0c0,0 595,-137 900,-142"
         id="path3411" /><path
         class="fil6"
         d="M7788 15804l2682 626 -2582 -250c0,0 -71,-40 -100,-376l0 0z"
         id="path3413" /><path
         class="fil5 str0"
         d="M7788 15804l2682 626 -2582 -250m0 0c0,0 -71,-40 -100,-376"
         id="path3415" /><path
         class="fil6"
         d="M7861 15122l2590 1290 -2625 -863c0,0 -102,-152 35,-428l0 0z"
         id="path3417" /><path
         class="fil5 str0"
         d="M7861 15122l2590 1290 -2625 -863m0 0c0,0 -102,-152 35,-428"
         id="path3419" /><path
         class="fil6"
         d="M7056 10927l222 474 -814 200 758 674 -111 419 -1036 -1166c0,0 314,-347 980,-602l0 0z"
         id="path3421" /><path
         class="fil5 str0"
         d="M7056 10927l222 474 -814 200 758 674 -111 419 -1036 -1166m0 0c0,0 314,-347 980,-602"
         id="path3423" /><path
         class="fil6"
         d="M5540 11856l444 419c0,0 -732,615 -740,693l-536 -310c0,0 462,-584 833,-802l0 0z"
         id="path3425" /><path
         class="fil5 str0"
         d="M5540 11856l444 419m0 0c0,0 -732,615 -740,693m0 0l-536 -310m0 0c0,0 462,-584 833,-802"
         id="path3427" /><path
         class="fil6"
         d="M3450 14681l1091 292c0,0 230,724 222,802l-1627 -164c0,0 37,-692 314,-929l0 0z"
         id="path3429" /><path
         class="fil5 str0"
         d="M3450 14681l1091 292m0 0c0,0 230,724 222,802m0 0l-1627 -164m0 0c0,0 37,-692 314,-929"
         id="path3431" /><path
         class="fil6"
         d="M4319 13132l592 346c0,0 -352,620 -314,911l-915 -225c0,0 268,-814 638,-1032l0 0z"
         id="path3433" /><path
         class="fil5 str0"
         d="M4319 13132l592 346m0 0c0,0 -352,620 -314,911m0 0l-915 -225m0 0c0,0 268,-814 638,-1032"
         id="path3435" /><polygon
         class="fil6"
         points="7907,12384 8147,12803 7814,12749 "
         id="polygon3437" /><polygon
         class="fil5 str0"
         points="7907,12384 8147,12803 7814,12749 "
         id="polygon3439" /><path
         class="fil6"
         d="M16766 13223c0,0 740,948 740,1239l-1406 383 370 -711 -1036 -146 1332 -766 0 0z"
         id="path3441" /><path
         class="fil5 str0"
         d="M16766 13223c0,0 740,948 740,1239m0 0l-1406 383 370 -711 -1036 -146 1332 -766"
         id="path3443" /><path
         class="fil6"
         d="M15490 11929c0,0 684,474 833,747l-1091 747 -19 -365 -851 -18 1128 -1112 0 0z"
         id="path3445" /><path
         class="fil5 str0"
         d="M15490 11929c0,0 684,474 833,747m0 0l-1091 747 -19 -365 -851 -18 1128 -1112"
         id="path3447" /><path
         class="fil6"
         d="M17375 16031l426 91 -111 528 -536 0c0,0 -56,-146 222,-620l0 0z"
         id="path3449" /><path
         class="fil5 str0"
         d="M17375 16031l426 91 -111 528 -536 0m0 0c0,0 -56,-146 222,-620"
         id="path3451" /><path
         class="fil6"
         d="M3975 16040l370 91 -86 536 -450 2c0,0 -120,36 167,-629l0 0z"
         id="path3453" /><path
         class="fil5 str0"
         d="M3975 16040l370 91 -86 536 -450 2m0 0c0,0 -120,36 167,-629"
         id="path3455" /><path
         class="fil6"
         d="M12432 16342l361 75 -49 244 -444 0c0,0 -108,-16 132,-319l0 0z"
         id="path3457" /><path
         class="fil5 str0"
         d="M12432 16342l361 75 -49 244 -444 0m0 0c0,0 -108,-16 133,-319"
         id="path3459" /><path
         class="fil6"
         d="M13075 16339l314 55 -73 268 -370 0c0,0 -85,179 128,-322l0 0z"
         id="path3461" /><path
         class="fil5 str0"
         d="M13075 16339l314 55 -73 268 -370 0m0 0c0,0 -85,179 128,-322"
         id="path3463" /><path
         class="fil6"
         d="M16406 16169l500 0 -148 492 -481 0c0,0 -65,28 130,-492l0 0z"
         id="path3465" /><path
         class="fil5 str0"
         d="M16406 16169l500 0 -148 492 -481 0m0 0c0,0 -65,28 130,-492"
         id="path3467" /><path
         class="fil6"
         d="M2738 16004l407 73 19 592 -447 -18c0,0 -48,-128 21,-647l0 0z"
         id="path3469" /><path
         class="fil5 str0"
         d="M2738 16004l407 73 19 592 -447 -18m0 0c0,0 -48,-128 21,-647"
         id="path3471" /><path
         class="fil6"
         d="M8813 16634c0,0 -167,-1713 1680,-1785 0,0 1704,18 1649,1785l-3329 0 0 0z"
         id="path3473" /><path
         class="fil5 str0"
         d="M8813 16634c0,0 -167,-1713 1680,-1785 0,0 1704,18 1649,1785m0 0l-3329 0"
         id="path3475" /><path
         class="fil4"
         d="M14782 16068c-18,115 1,183 61,229 142,51 34,226 174,240 103,-368 344,-52 384,-22l-146 170c-191,258 -313,557 -625,686 -22,-4 -97,0 -113,-47l16 -5c-5,-112 -147,-111 -196,-44 0,-45 -20,-158 -94,-111 -148,36 -163,226 -353,197 -133,-58 -244,-207 -236,-353 2,-59 -81,-57 -121,-85l5 -220c158,-161 139,-311 298,-368 51,8 94,22 116,69 -13,35 -3,66 22,99 299,-50 81,-467 407,-351 113,91 -146,310 91,280 101,-73 85,-253 95,-369l214 6 0 0z"
         id="path3477" /><path
         class="fil7"
         d="M14355 16981c-72,-19 -41,170 -152,109 -69,-84 82,-186 152,-109l0 0z"
         id="path3479" /><path
         class="fil0"
         d="M15231 16539c0,0 -426,656 -555,674l-352 -91 30 -141c0,0 228,87 395,-22 0,0 296,-328 481,-419l0 0z"
         id="path3481" /><path
         class="fil5 str0"
         d="M15231 16539c0,0 -426,656 -555,674m0 0l-352 -91 30 -141m0 0c0,0 228,87 395,-22 0,0 296,-328 481,-419"
         id="path3483" /><path
         class="fil2"
         d="M3421 17378l81 -83c17,83 -43,133 -79,216l-2 -133 0 0z"
         id="path3485" /><path
         class="fil2"
         d="M16021 17812c85,315 225,-98 379,66 45,0 105,-50 152,-14 7,149 -190,207 -255,330 -52,139 -159,248 -255,337 -87,-13 -187,-95 -235,16 9,90 -121,151 -36,230 67,3 136,-97 179,-39 -127,91 -248,198 -410,129 -89,-6 -196,58 -269,-4 39,-156 354,-108 197,-301 27,-26 18,-71 30,-99 -23,-40 -82,-49 -115,-32 28,108 -96,133 -144,200 -82,-49 28,-129 43,-178 82,-142 262,-144 408,-218 18,-19 63,-20 54,-58 -110,-17 -237,30 -330,97 -112,42 -173,-137 -267,-63 -119,92 -165,284 -344,286 -14,-54 77,-61 33,-113 -69,12 -153,21 -152,109 -14,42 -4,73 22,99 62,-12 139,-30 189,-15 -10,117 -63,256 62,319 20,18 79,-24 76,-54 -6,-60 28,-84 81,-84 75,93 -71,166 -119,232 -31,10 -80,32 -78,70 82,94 -102,168 -5,265 197,30 234,-296 441,-279 13,157 -187,141 -174,297 -108,117 -296,169 -325,349 -44,89 -160,160 -265,159 -98,51 -142,185 -266,166 -1,-133 157,-190 227,-253 -142,-191 -243,118 -404,93 -91,-43 -164,-55 -262,-48 -63,20 -92,111 -142,44 107,-64 171,-180 167,-299 -31,-42 -101,-75 -145,-30 -79,216 -216,373 -400,492 -65,174 -285,148 -350,322 -116,70 -241,59 -369,61 -203,95 -434,184 -621,89 34,-172 248,-102 343,-228 73,-33 150,-95 192,-170 -23,-136 -195,-89 -289,-66l-201 87c9,38 61,39 85,28 -21,41 -22,92 -72,122 -72,78 -93,-74 -168,-26 -140,178 -332,444 -611,460 -6,-104 187,-141 77,-254 -254,42 -551,550 -791,174 -135,1 -346,249 -417,-13 -142,0 -284,237 -438,118 -37,46 -99,58 -138,23 3,-118 225,-98 105,-242 -101,-22 -159,109 -261,42 -139,74 -257,255 -450,196 -113,-91 86,-311 -144,-273 -149,44 -291,228 -428,52 14,-42 81,-83 50,-125l-366 91c-57,-16 -26,-70 -28,-107 141,-89 429,29 438,-213 -70,-77 -207,79 -265,-26 37,-90 165,-92 227,-157 105,-94 257,-204 300,-337l-45 -44c-35,32 -57,-16 -78,-27 -90,-147 246,-140 39,-245 -60,-2 -101,-23 -124,-71 -82,91 -182,178 -195,309 16,84 121,137 115,217 -125,-12 -150,95 -213,167 -250,205 -584,331 -919,272 -136,9 -305,175 -402,34l27 -77c156,-87 429,-15 475,-259 -68,-92 -168,18 -254,-2 -109,167 -346,198 -544,174 -263,-40 -233,-662 -581,-303 -123,-26 -64,-165 -96,-244 -209,-98 -553,71 -604,-225 -2,-81 107,-109 169,-121 173,-3 370,-69 487,-191 -299,-193 -519,252 -824,6 -153,21 -283,178 -442,94l13 -79c378,-23 657,-275 895,-549 31,-10 73,-33 90,-1 24,33 -6,80 -4,117 41,-67 253,-87 173,-239 -131,-116 -325,17 -463,-56 -17,-84 91,-104 167,-107 63,-20 145,30 180,-54 -6,-52 -116,-69 -67,-143 196,38 382,-96 517,-238 55,-14 119,4 126,56 6,60 -95,126 -13,175 182,35 233,-334 369,-106 3,30 -16,57 2,81 72,-77 226,-54 204,-197 73,-33 190,29 181,-105 201,-43 382,-192 590,-227 64,165 -204,153 -200,316 -111,42 -259,123 -356,27l-52 -8c5,67 -66,182 -2,250 138,-67 285,-148 432,-81 93,29 -4,118 79,160 50,-29 105,-95 173,-55 158,142 -135,333 124,403 204,-154 261,246 449,47 98,-7 54,82 92,132 43,-89 146,-22 204,-13l111 150c41,-23 87,-30 137,-16 22,48 -15,94 -49,125 -29,40 -103,-8 -93,67 170,63 235,-252 415,-113 93,169 -275,179 -51,324 207,-123 472,-193 667,-333 50,15 82,49 66,106 18,173 211,-100 231,102 6,104 -135,193 -45,280 162,-27 374,-282 545,-130 12,113 -135,142 -121,240 -41,119 -183,-21 -187,141 -182,157 -358,277 -540,433 67,48 132,-31 202,-50 195,-243 543,-20 713,-341 89,-45 179,-91 291,-44 73,158 -198,257 -94,406 179,6 173,-239 335,-229 325,-253 535,-589 905,-798 -7,-53 49,-73 91,-52 202,142 324,-297 480,-52 -2,103 -94,258 59,289 101,23 46,-104 90,-141l64 17c-20,226 -283,274 -378,451 140,58 243,-66 372,-128l19 25c76,-11 54,-110 132,-127 39,35 14,149 112,143 -3,-222 256,-249 341,-405l-16 -39c-135,53 -264,247 -401,123 56,-161 235,-207 332,-303 85,-112 226,-150 272,-254 134,-46 127,285 300,142 89,-45 102,-265 240,-140l-6 176c162,-79 230,-223 338,-339 4,22 27,19 42,21 46,-8 33,-69 13,-79 22,-93 234,-156 93,-259 -135,1 -142,185 -265,210 -155,35 -320,-57 -466,-34 -17,-84 89,-45 128,-99 122,-107 213,-271 296,-353 -25,-34 -50,-67 -13,-106 90,-52 231,6 317,-114 82,5 181,-9 253,9 -7,95 -91,149 -152,206 -69,12 -139,-73 -167,11 239,192 408,-70 594,-160 106,38 200,60 286,-8 36,13 38,43 55,75 -17,108 -191,118 -107,249 26,26 67,47 100,30 130,-68 141,-229 261,-277 64,-71 63,-256 184,-215 47,132 -199,316 23,380l0 0z"
         id="path3487" /><path
         class="fil4"
         d="M17588 16894l-20 78c-48,22 -88,-13 -120,-48 7,-43 37,-91 79,-76 39,-9 41,28 60,46l0 0z"
         id="path3489" /><path
         class="fil4"
         d="M17178 16883c-53,51 -116,115 -208,86 -20,-18 -24,-40 -12,-68 61,-57 168,-115 220,-18l0 0z"
         id="path3491" /><path
         class="fil4"
         d="M15817 16873c-34,24 -78,69 -117,26 -2,-37 101,-117 117,-26l0 0z"
         id="path3493" /><path
         class="fil4"
         d="M16316 17031c-13,131 -224,91 -311,166 -28,-12 -71,-25 -58,-61 67,-137 249,-58 369,-106l0 0z"
         id="path3495" /><path
         class="fil4"
         d="M15556 16966c-5,73 -63,116 -136,97 -22,-3 -52,-1 -48,-30 7,-95 133,-127 183,-68l0 0z"
         id="path3497" /><path
         class="fil4"
         d="M17393 17233c-140,126 -343,87 -510,54 -25,-33 -11,-75 -11,-120 159,-12 286,132 442,46 22,3 61,-6 79,20l0 0z"
         id="path3499" /><path
         class="fil4"
         d="M15214 17090c-6,36 -4,73 -48,66l-29 -4c-6,-60 31,-54 77,-62l0 0z"
         id="path3501" /><path
         class="fil4"
         d="M16730 17492l115 32c-75,143 -291,88 -429,156 -50,-60 -94,30 -153,21l-30 -49c129,-61 215,-174 355,-211l77 -62c60,2 57,67 64,113l0 0z"
         id="path3503" /><path
         class="fil4"
         d="M13021 16894c0,45 -48,67 -78,69 -39,9 -34,-20 -46,-44 17,-56 96,-37 124,-25l0 0z"
         id="path3505" /><path
         class="fil2"
         d="M13089 17871c18,-10 -32,-75 6,-58 93,-163 208,-241 315,-394 -52,-52 -162,-17 -233,-43 -94,30 -192,30 -300,6 -26,-26 -48,-74 -7,-97 36,-39 142,7 144,-59 -25,-78 -108,20 -126,-57 -17,-32 32,-106 84,-105 95,15 170,63 216,151 167,33 365,-84 438,119 -71,26 4,74 0,96l-24 151c196,89 214,-262 406,-108 48,30 94,-22 132,21 -59,87 -188,52 -241,147 38,42 177,20 129,130 -19,27 -20,78 -67,93 -74,-5 -106,-39 -168,25 -15,94 -103,132 -182,157 -96,-7 -204,-38 -295,-30l-155 124c-31,-42 -20,-106 -13,-161l-58 -109 0 0z"
         id="path3507" /><path
         class="fil4"
         d="M16970 18009c-75,99 -122,254 -277,238 -87,-65 -117,78 -200,36 -7,-97 67,-144 91,-200 115,-64 76,181 201,53 20,-34 47,-59 60,-94 -18,-25 -50,-15 -78,-27 63,-20 131,-24 203,-6l0 0z"
         id="path3509" /><path
         class="fil2"
         d="M13021 17603c-13,271 -326,120 -390,339 -46,8 -102,73 -140,30 -28,-63 106,-58 25,-115 -64,27 -189,60 -193,-59 -37,-241 264,-203 352,-330 140,14 365,-84 346,134l0 0z"
         id="path3511" /><path
         class="fil7"
         d="M16171 18189c-33,113 -199,168 -308,196l-25 -33c121,-11 198,-161 333,-163l0 0z"
         id="path3513" /><path
         class="fil7"
         d="M13644 17831l-3 21 -24 -40c16,-5 21,11 27,19l0 0z"
         id="path3515" /><polygon
         class="fil7"
         points="14374,18051 14409,18051 14409,18010 14374,18010 "
         id="polygon3517" /><path
         class="fil4"
         d="M8159 17293c-83,2 -160,19 -216,-55 66,-86 237,-30 216,55l0 0z"
         id="path3519" /><path
         class="fil4"
         d="M16431 18627c-23,100 -180,142 -251,212l-109 -24c118,-78 191,-214 359,-188l0 0z"
         id="path3521" /><path
         class="fil2"
         d="M8671 17555c-6,36 5,60 31,86 46,-8 137,-68 129,35 45,51 -39,149 69,129 29,-40 87,-75 125,-33 62,128 -144,155 -61,242 63,-20 139,21 160,76 -69,203 -330,148 -501,189 -135,-94 -351,-150 -502,-47l-55 -75c31,-98 235,-16 129,-150l-277 46 4 -117c-92,-80 -218,48 -295,-75 -7,-193 220,-158 327,-267 75,-92 166,-152 281,-171 81,13 23,92 61,135 -60,94 -41,215 -176,261 -48,15 -111,-10 -127,47 -19,26 1,37 14,53 193,-81 366,-135 358,-366 -19,-69 68,-100 106,-102 141,-37 88,109 201,104l0 0z"
         id="path3523" /><path
         class="fil4"
         d="M4448 16887c-133,83 -280,304 -456,181 -35,-12 -36,-57 -29,-100 122,-62 314,4 387,-125 45,0 70,33 98,45l0 0z"
         id="path3525" /><path
         class="fil4"
         d="M4910 17142c-44,89 -152,65 -243,66 -78,-167 133,-39 197,-110 40,-16 33,27 46,44l0 0z"
         id="path3527" /><path
         class="fil4"
         d="M4283 17179c8,142 -207,79 -289,125 -49,-22 -52,-97 -16,-135 103,-36 199,-29 305,10l0 0z"
         id="path3529" /><path
         class="fil4"
         d="M3480 17137c8,97 -112,137 -182,156 -101,-23 -230,38 -305,-61 20,-27 -15,-47 -2,-82 114,-12 274,64 386,-29l102 16 0 0z"
         id="path3531" /><path
         class="fil2"
         d="M4088 18181c189,-60 439,-125 544,-315 54,-13 132,-31 150,-95 -6,-60 1,-147 84,-156l71 25c-6,176 276,389 45,523 87,65 210,-93 307,3 17,179 -277,282 -66,417 104,-43 142,-236 277,-142 -113,241 -442,286 -645,433l-52 -8c-30,-93 198,-117 59,-234 -207,-17 -488,198 -623,-36 98,-160 -247,-311 -316,-351l164 -63 0 0z"
         id="path3533" /><path
         class="fil2"
         d="M3960 18129c-168,60 -314,-90 -359,-141 -8,-46 7,-95 -31,-137 -87,31 -210,49 -290,-15 -39,-87 27,-217 -49,-303 16,-101 191,-22 189,-155l80 -83c16,83 -44,133 -79,216 -40,16 -118,-10 -127,47 160,128 302,-64 460,-114 45,0 122,-18 144,37 -69,12 -69,101 -124,121 57,157 210,47 312,63 163,-34 114,-249 276,-275 24,85 -54,147 -14,227 68,-4 99,-58 149,-88 -27,-70 42,-170 88,-222 69,-12 90,43 121,85 -55,206 -53,479 -275,556l-472 183 0 0z"
         id="path3535" /><path
         class="fil7"
         d="M14016 18987c-94,74 -263,100 -338,59 165,-4 325,-112 418,-231 76,85 -69,107 -80,172l0 0z"
         id="path3537" /><path
         class="fil7"
         d="M14743 19076c-11,72 -111,86 -150,146 -29,-12 -68,5 -85,-28 60,-50 111,-182 228,-164l8 46 0 0z"
         id="path3539" /><path
         class="fil7"
         d="M14338 19081c3,30 -24,56 -54,58l-22 -3c-31,-42 5,-80 36,-91 24,-4 43,14 40,36l0 0z"
         id="path3541" /><path
         class="fil4"
         d="M9315 18362c13,61 -53,51 -65,79 -50,-15 -62,13 -94,-22 -20,-62 53,-95 97,-95 12,16 51,15 61,39l0 0z"
         id="path3543" /><path
         class="fil4"
         d="M11835 18853c38,43 -25,62 -32,106 -155,131 -392,346 -602,395l-41 -73c51,8 45,-45 58,-80 -116,-25 -242,110 -372,31 93,-163 222,-268 392,-353 151,134 175,-113 328,-38 66,-42 226,-106 268,11l0 0z"
         id="path3545" /><path
         class="fil7"
         d="M14706 19307c6,59 -56,117 -99,103 5,-29 25,-158 99,-103l0 0z"
         id="path3547" /><path
         class="fil7"
         d="M13633 19179c-23,100 -199,168 -55,257 -49,118 -142,236 -233,289 -75,-48 0,-140 44,-185 53,-6 81,-83 58,-131 -85,-79 45,-141 70,-203 35,-31 73,-33 116,-26l0 0z"
         id="path3549" /><path
         class="fil7"
         d="M14385 19354c-42,30 -2,155 -99,103 -30,-49 -16,-135 27,-173 45,0 71,26 72,70l0 0z"
         id="path3551" /><path
         class="fil7"
         d="M4941 17994c3,30 -22,93 -76,99 13,10 17,32 40,28 -8,51 -87,31 -107,65 -45,0 -86,-21 -111,-54 7,-139 151,-51 210,-145l44 7 0 0z"
         id="path3553" /><path
         class="fil7"
         d="M7061 18364c-3,21 -27,25 -45,45l-44 -7c-1,-44 70,-63 88,-38l0 0z"
         id="path3555" /><path
         class="fil7"
         d="M12027 19346c-95,82 -211,152 -333,163 17,-108 157,-138 256,-197 39,-8 57,23 77,34l0 0z"
         id="path3557" /><path
         class="fil7"
         d="M8279 18757c-59,87 -186,134 -163,270 11,24 47,36 26,70 -58,36 -112,-46 -119,-100 10,-13 -11,-24 -16,-39 -194,-52 -286,200 -480,148 -12,-113 -91,-279 40,-348 213,217 483,23 712,-1l0 0z"
         id="path3559" /><path
         class="fil7"
         d="M6861 18687c-16,101 -133,179 -113,293 -98,95 -231,179 -322,282l-66 -10c36,-83 192,-126 155,-220 -33,-79 -128,-42 -194,-52 174,-62 429,-111 493,-323 -88,-58 -128,99 -218,100 -59,-54 -15,-142 -7,-193 71,-70 98,89 169,19 67,3 88,65 104,104l0 0z"
         id="path3561" /><path
         class="fil7"
         d="M6151 18578c-31,54 -23,144 -93,163 -56,-75 -10,-171 16,-241 49,22 55,31 77,78l0 0z"
         id="path3563" /><path
         class="fil7"
         d="M12197 19549c-25,158 -284,185 -417,268 -22,-3 -41,-21 -52,0 -9,-90 137,-67 207,-124 105,-50 121,-203 262,-144l0 0z"
         id="path3565" /><path
         class="fil7"
         d="M12966 19800c-3,-30 -34,-20 -49,-23l71 -19 -22 41 0 0z"
         id="path3567" /><path
         class="fil7"
         d="M8389 19106c-22,-3 -42,30 -51,-8l25 -18 26 26 0 0z"
         id="path3569" /><path
         class="fil7"
         d="M8616 19185c3,30 -6,51 -30,61l-104 -67c45,-45 85,-16 134,6l0 0z"
         id="path3571" /><path
         class="fil7"
         d="M7019 19058c-46,8 -77,-34 -55,-75 34,20 88,13 55,75l0 0z"
         id="path3573" /><path
         class="fil7"
         d="M11374 19829c-38,193 -237,273 -303,448 -25,18 -67,-3 -104,-1 -10,-223 333,-259 318,-497 36,6 89,6 89,51l0 0z"
         id="path3575" /><path
         class="fil7"
         d="M11724 20273c-36,39 -81,-12 -107,-31 25,-107 -21,-195 73,-270 206,24 -6,176 35,301l0 0z"
         id="path3577" /><path
         class="fil7"
         d="M6456 19400c-4,73 -124,40 -162,93 -21,-10 -4,-37 -9,-53 47,-59 117,-26 171,-40l0 0z"
         id="path3579" /><path
         class="fil7"
         d="M9036 19795c-3,22 -14,42 -40,60 -11,-24 24,-55 40,-60l0 0z"
         id="path3581" /><path
         class="fil7"
         d="M9281 20002c-165,188 -447,367 -707,393 200,-176 495,-241 593,-529 97,-88 201,53 114,136l0 0z"
         id="path3583" /><path
         class="fil7"
         d="M10058 20291c-13,35 -53,6 -66,-10l-26 -70c35,12 69,40 92,80l0 0z"
         id="path3585" /><path
         class="fil4"
         d="M5287 18166c16,180 -277,282 -66,418 104,-43 142,-237 277,-142 -113,241 -442,286 -644,432l-51 -8c-30,-93 198,-117 59,-234 -207,-17 -488,198 -623,-37 0,0 760,153 1049,-429l0 0z"
         id="path3587" /><path
         class="fil4"
         d="M8668 18617c-58,-9 -160,-76 -204,13 -37,-50 7,-139 -91,-132 -189,200 -245,-200 -449,-47 -259,-69 34,-260 -124,-402 -68,-40 -124,25 -173,55 -83,-42 13,-131 -79,-160 -147,-67 -295,14 -433,81 -64,-69 7,-183 3,-250 -40,8 -92,-36 -164,-3 22,143 -131,120 -203,197 -18,-25 1,-52 -3,-82 -136,-227 -186,141 -368,106 -82,-49 18,-115 13,-174 -6,-53 -71,-70 -126,-57 -135,141 -320,275 -517,238 -49,74 61,91 67,143 0,0 621,-27 797,-36 0,0 -342,246 -435,228 0,0 -157,137 130,109 0,0 323,-137 490,-228 0,0 259,-82 139,27 0,0 -259,192 -83,192 0,0 185,-18 250,55 0,0 65,100 194,100 0,0 166,-36 204,27 37,64 92,146 92,146 0,0 111,109 222,91 0,0 431,-75 465,-97 34,-21 62,-12 62,61 0,0 120,100 194,27 74,-73 173,-163 133,-227l0 0z"
         id="path3589" /><path
         class="fil4"
         d="M6030 19011c-299,-193 -519,252 -825,7 -153,21 -283,178 -442,94l13 -79c378,-24 657,-276 895,-549 31,-10 73,-33 90,-1 25,33 -5,80 -4,118 0,0 197,-155 234,-165 0,0 84,0 37,228 0,0 -9,182 101,-9 0,0 130,-228 176,-210 46,18 222,273 259,283 37,9 -27,-19 -27,-19 0,0 110,109 203,-63 0,0 68,-20 71,13 0,0 -62,151 -136,178 -74,27 -298,125 -357,145 -59,20 -289,29 -289,29l0 0z"
         id="path3591" /><path
         class="fil4"
         d="M5930 19468c-94,297 561,-183 770,-85 33,79 195,180 318,207 349,-360 59,43 322,84 198,22 -414,145 -140,244 87,21 186,-89 254,2 -46,244 -319,172 -475,259l-27 77c97,140 266,-25 402,-34 335,59 669,-67 919,-272 64,-71 88,-178 213,-166 5,-80 -99,-134 -115,-217 13,-131 114,-218 195,-309 -72,80 -210,-85 -321,-153 -42,-25 -118,21 -132,3 -78,-101 -192,-160 -283,-107 -95,55 -198,78 -303,99 23,-130 -33,-340 -180,-281 -57,23 -112,149 -185,107 -103,-58 -229,-155 -301,-83 -137,139 -273,268 -419,408 -45,44 -315,138 -340,139l-174 77 0 0z"
         id="path3593" /><path
         class="fil7"
         d="M8616 19185c3,30 -6,51 -30,61l-104 -67 134 6 0 0z"
         id="path3595" /><path
         class="fil7"
         d="M6456 19400c-4,73 -124,40 -162,93 -21,-10 -4,-37 -9,-53l171 -40 0 0z"
         id="path3597" /><path
         class="fil4"
         d="M9169 19879c-30,57 -49,121 -104,161 -50,37 -109,64 -146,103 -68,70 -134,143 -217,194 -31,20 -76,32 -117,39 -95,15 -192,6 -280,52 -66,34 -157,34 -224,13 -34,-10 15,-64 51,-80 95,-43 203,-4 295,-65 32,-21 63,-38 84,-71 17,-28 13,-59 -18,-70 -58,-20 -112,35 -164,19 -30,-9 -84,-18 -61,-54 45,-67 123,-92 194,-129 130,-66 219,-177 313,-289 14,-17 13,-55 0,-75 -9,-13 -37,-12 -60,-14 -36,-2 -23,-47 -53,-66 -7,-4 -7,-32 0,-38 46,-37 96,-76 95,-140 0,-20 -41,-16 -43,-46 -34,11 -48,-12 -71,-30 -7,-5 -4,-25 7,-32 61,-33 104,-88 160,-110 76,-30 185,-76 259,-44 25,11 69,70 116,43 86,-51 163,-106 252,-140 17,-7 44,-11 60,-19 108,-51 223,-78 318,-158 7,-6 22,1 24,8 14,57 25,120 86,133 56,10 130,-28 155,3 64,84 -42,189 -28,291 2,12 29,43 57,27 95,-57 190,-96 286,-147 63,-33 129,-14 183,3 30,9 46,63 18,98 -25,33 -52,62 -76,96 -24,32 -31,76 -55,102 -28,30 -77,33 -124,35 -25,1 -42,38 -54,55 -115,159 -284,232 -423,365 -33,31 -66,62 -100,92 -42,38 -115,30 -141,-25 -32,-67 33,-155 -5,-198 -134,-154 -364,0 -469,136l18 -27 0 0z"
         id="path3599" /><path
         class="fil4"
         d="M10695 19779c54,-28 86,-76 148,-90 28,-6 55,-4 82,0 13,2 15,16 9,25 -24,31 -45,61 -60,94 -16,35 -22,78 -10,116 20,66 96,32 134,-1 69,-60 110,-164 206,-174 22,-3 59,16 69,41 21,53 -11,106 -45,151 -83,111 -241,169 -237,311 1,33 73,24 109,7 93,-44 154,-139 261,-148 82,-8 170,40 211,116 5,9 -2,25 4,35 39,59 78,113 106,175 20,44 -11,84 -39,113 -67,70 -165,86 -253,125 -30,13 -56,1 -84,6 67,-52 166,-177 77,-224 -62,-33 -116,73 -182,98 -89,34 -159,95 -246,138 -28,14 -31,60 -49,63 -257,41 -212,-82 -327,-127 -74,-30 -133,41 -211,83 -32,17 -104,-7 -145,-15 -31,-6 -43,-42 -37,-70 -28,-4 -59,-3 -81,12 -293,193 -224,112 -381,70 -15,50 -81,33 -120,36 0,-9 -3,-21 1,-26 35,-37 79,-62 115,-97 41,-40 8,-98 -35,-119 -32,-15 -74,23 -107,9 -47,-20 -14,-77 11,-101 86,-80 207,-72 310,-125 24,-12 51,-28 64,-53 25,-47 44,-113 96,-119 218,-22 433,0 635,-104 58,-30 33,-123 4,-177 -10,-18 13,-35 7,-54 0,-1 -5,0 -8,0l0 0z"
         id="path3601" /><path
         class="fil4"
         d="M12427 19584c-73,31 -149,44 -213,89 -70,49 -139,87 -200,140 -33,29 -28,97 0,134 37,48 54,109 107,138 34,18 73,-11 107,-22 38,-11 73,-43 114,-52 61,-14 130,-21 180,4 16,9 25,60 10,91 -86,175 -281,218 -447,300 -31,15 -67,70 -51,85 59,52 158,70 240,48 114,-31 222,-67 334,-106 114,-40 209,-33 325,-60 24,-6 69,-15 83,-32 30,-36 42,-54 78,-83 73,-59 146,-82 215,-145 54,-49 95,-127 150,-168 122,-92 188,-197 274,-322 24,-35 69,-72 41,-113 -9,-14 -27,-29 -37,-32 -158,-45 -220,149 -343,217 -35,19 -81,-7 -60,-49 43,-92 171,-159 106,-277 -25,-45 39,-81 55,-126 17,-51 -45,-71 -75,-48 -78,59 -169,128 -249,178 -93,58 -80,-65 -109,-123 -12,-25 -68,14 -85,57 -12,30 -55,69 -79,20 -162,80 -302,189 -469,261l0 0z"
         id="path3603" /><path
         class="fil4"
         d="M13959 19487c66,-67 119,-139 177,-218 6,-8 20,-15 25,-8 29,37 52,74 72,114 19,38 54,100 83,91 99,-31 137,-154 226,-216 38,46 72,94 83,155 116,-27 112,-166 204,-228 27,41 52,104 79,114 163,64 254,-170 386,-265 24,-17 52,-9 67,16 16,27 -6,61 -19,86 -43,79 -113,132 -170,206 -55,72 -129,123 -201,183 -81,68 -137,154 -180,250 -9,21 -33,34 -48,41 -94,40 -174,103 -259,166 -46,34 -107,91 -146,57 -29,-25 -18,-95 21,-134 55,-53 125,-76 171,-140 5,-8 10,-30 -7,-32 -46,-7 -101,-17 -134,5 -52,36 -88,86 -146,105 -78,25 -155,-15 -238,-33 -56,-12 -107,-13 -157,5 -28,10 -30,73 -65,67 -6,-1 -47,-17 -40,-23 45,-44 100,-114 128,-167 42,-77 70,-156 124,-226l-37 27 0 0z"
         id="path3605" /><path
         class="fil4"
         d="M13516 18922c35,66 104,97 176,116 52,15 101,-14 145,-31 100,-40 188,-106 271,-176 0,31 35,30 50,52 5,7 32,11 37,16 104,117 243,242 390,194 36,-12 70,-78 105,-77 50,2 83,87 147,73 13,-3 31,-15 45,-25 22,-18 37,-47 61,-67 13,-10 39,-7 51,-15 67,-46 122,-100 158,-170 13,-25 -2,-50 -27,-61 -22,-9 -48,7 -61,20 -30,31 -16,82 -60,105 -21,10 -76,7 -83,-2 -65,-73 -23,-186 -8,-279 -69,-36 -180,36 -214,-54 -14,-36 -8,-76 -22,-108 -21,-46 -87,-115 -116,-93 -100,79 -166,187 -281,261 -19,12 -51,20 -60,48 -20,-49 19,-100 -3,-144 -8,-16 -3,-38 -17,-45 -11,-7 -75,-7 -87,0 -75,42 -73,111 -145,159 -21,14 -45,38 -71,27 -79,-32 -114,-116 -187,-159 -21,-12 -37,19 -40,27 -12,37 -46,58 -67,71 -124,84 -219,177 -350,245 -76,40 -170,109 -162,201 5,54 86,77 138,53 108,-52 194,-140 315,-162l-27 0 0 0z"
         id="path3607" /><path
         class="fil4"
         d="M14256 17929c-58,52 -100,123 -169,159 -27,13 -54,40 -89,32 -3,14 -48,58 -34,63 69,24 155,16 228,24 96,12 196,23 283,-6 58,-19 78,-94 107,-154 9,-18 39,-21 44,-46 -73,-1 -149,-5 -207,52 -14,13 -43,5 -49,-16 -7,-25 18,-59 -6,-78 -37,-30 -84,-7 -127,-3l18 -27 0 0z"
         id="path3609" /><path
         class="fil4"
         d="M15041 17756c0,27 -9,60 5,79 35,48 83,87 143,94 -55,72 -32,171 5,244 19,38 67,49 100,81 28,26 70,36 105,10 48,-36 102,-44 152,-66 33,-15 72,-23 109,-29 27,-4 70,-17 76,8 18,82 70,158 146,181 62,-76 165,-89 235,-161 7,-8 31,-22 40,-10 22,28 33,63 59,88 5,5 21,4 24,0 79,-124 189,-206 287,-310 23,-24 43,-68 24,-84 -21,-18 -60,-44 -101,-23 -59,29 -125,-56 -188,-39 -60,17 -84,122 -158,97 -44,-15 -45,-82 -73,-106 -41,-36 -126,-63 -99,-124 35,-78 97,-176 52,-253 -10,-18 -51,-15 -72,8 -44,49 -67,110 -98,169 -59,110 -149,226 -241,307 -39,35 -131,-17 -128,-59 5,-53 84,-128 100,-184 14,-51 -13,-124 -79,-105 -41,12 -85,52 -130,38 -41,-13 -70,-46 -110,-29 -66,28 -111,87 -176,125 -32,19 19,55 -3,66 -25,13 -11,28 -16,41l9 -55 0 0z"
         id="path3611" /><path
         class="fil4"
         d="M15578 18594c71,-34 150,-43 222,-73 54,58 -38,119 -55,182 -6,20 6,45 13,50 51,33 96,-37 153,-27 14,3 42,-2 44,14 3,29 -34,39 -54,51 -11,6 -33,11 -41,17 -90,70 -196,91 -301,47 -55,-23 -108,37 -164,35 -33,-1 -91,17 -118,-6 -6,-6 12,-53 19,-60 35,-43 85,-61 134,-88 45,-24 86,-63 92,-122 2,-14 43,-9 67,-19 -3,0 -6,0 -9,0l0 0z"
         id="path3613" /><path
         class="fil4"
         d="M14524 17728c21,4 44,18 63,7 67,-39 130,-7 196,-10 6,0 22,-9 19,-24 79,-15 131,-91 148,-164 -90,-49 -189,-30 -285,-11 -29,6 -49,48 -78,61 -59,26 -130,2 -190,20 -24,7 -69,47 -42,69 48,39 111,71 179,69 6,0 12,-10 18,-16 0,3 0,6 0,9l-28 -10 0 0z"
         id="path3615" /><path
         class="fil4"
         d="M13497 17382c58,10 135,-12 116,-81 -12,-46 -67,-73 -100,-81 -101,-22 -208,1 -310,-26 -26,-7 -33,-53 -59,-63 -73,-28 -136,-97 -219,-65 -40,16 -46,82 -16,111 23,22 67,20 95,36 16,9 -4,40 -17,46 -47,20 -104,25 -146,59 27,15 37,52 66,60 73,22 143,16 222,-1 88,-19 172,18 258,19 46,1 92,-8 139,-6l-28 -9 0 0z"
         id="path3617" /><path
         class="fil4"
         d="M12572 17847c109,-1 203,-98 314,-64 -79,-12 -138,42 -201,85 -22,15 -24,46 -40,69 -16,24 -48,26 -70,51 -12,14 -54,2 -65,-24 -15,-32 29,-63 15,-99 0,-1 -5,0 -9,0 16,-27 47,-17 74,-18 -6,0 -12,0 -18,0l0 0z"
         id="path3619" /><path
         class="fil6"
         d="M8910 16917c13,-12 33,-41 45,-34 19,11 95,12 112,12 154,5 241,8 398,-14 138,-20 280,7 416,2 173,-7 346,9 518,11 589,5 1174,8 1767,-37 118,-9 243,-34 345,34 37,24 -6,106 -59,114 -166,21 -326,14 -490,6 -266,-13 -530,29 -795,31 -700,4 -1399,-8 -2099,-12 -70,0 -150,0 -209,-45 -48,-37 11,-91 61,-86 -3,6 -6,12 -9,18l0 0 0 0z"
         id="path3621" /><path
         class="fil6"
         d="M9326 17323c140,-13 303,18 446,-17 103,-25 188,-2 295,12 43,6 74,-26 108,-5 44,29 -3,78 -36,92 -316,130 -659,43 -988,48 -27,0 -37,-30 -33,-43 26,-77 132,-81 208,-88l0 0z"
         id="path3623" /><path
         class="fil6"
         d="M10594 17269c60,10 124,5 184,3 66,-2 138,-15 205,-17 428,-15 867,-25 1311,-36 17,0 40,-1 44,17 8,33 15,77 -11,94 -184,125 -944,83 -1152,80 -197,-4 -394,9 -592,-6 -42,-3 -132,-5 -117,-67 9,-37 51,-48 82,-61 10,-5 27,-10 45,-7l0 0z"
         id="path3625" /><path
         class="fil6"
         d="M9096 17855c383,-11 764,-52 1147,-58 167,-3 347,-38 499,50 45,106 -81,123 -158,128 -330,23 -648,56 -979,21 -181,-19 -369,26 -532,-66 -11,-7 -7,-74 23,-75l0 0 0 0z"
         id="path3627" /><path
         class="fil6"
         d="M10990 17847c67,5 139,12 204,10 268,-9 536,-55 801,12 16,4 5,70 -34,95 -64,41 -117,44 -193,56 -253,41 -476,23 -748,5 -63,-4 -141,-32 -155,-81 -14,-47 75,-100 126,-97l0 0z"
         id="path3629" /><path
         class="fil6"
         d="M9290 18321c102,-7 201,1 306,-9 259,-26 480,15 739,21 31,1 107,51 89,78 -66,98 -221,99 -349,86 -235,-24 -489,36 -728,-26 -51,-13 -118,-14 -135,-68 -16,-52 52,-87 106,-81l-28 0 0 0z"
         id="path3631" /><path
         class="fil4"
         d="M10113 17379c-90,45 -159,13 -255,94 -209,-54 -292,147 -476,126 -58,-9 -69,55 -131,24 -89,-50 35,-76 21,-130 98,45 168,-70 249,-109 5,-125 165,-93 253,-131 94,73 284,-45 340,126l0 0z"
         id="path3633" /><path
         class="fil4"
         d="M9264 17397l-87 -65c48,-22 132,-31 87,65l0 0z"
         id="path3635" /><path
         class="fil4"
         d="M12454 16919c2,38 -25,63 -57,80 -27,-19 -88,-13 -56,-75 33,-17 71,-19 113,-5l0 0z"
         id="path3637" /><path
         class="fil4"
         d="M12174 16891c-7,44 -6,88 -62,109l-22 -3c-28,-63 23,-100 84,-105l0 0z"
         id="path3639" /><path
         class="fil4"
         d="M13047 17958c62,128 -60,187 -14,326 -28,33 -50,81 6,105 121,-11 169,-173 303,-116 6,200 -140,266 -270,335 -166,-136 -334,30 -503,-40 -89,90 -140,-66 -231,-6 -67,93 -139,170 -267,173 -83,-94 163,-182 -2,-229 -91,8 -146,118 -252,124 -96,37 -216,41 -311,26 15,-49 -4,-119 46,-148 -19,-25 -57,-23 -58,-60 33,-113 144,-104 225,-143l-18 -25 51 8c103,-80 189,-200 341,-213 57,67 -2,199 133,205 205,-65 469,-127 605,-321 115,18 132,-46 184,-77l33 77 0 0z"
         id="path3641" /><polygon
         class="fil4"
         points="9404,17035 9375,17030 9391,16929 9420,16934 "
         id="polygon3643" /><path
         class="fil4"
         d="M8776 16887c15,46 -48,66 -79,76 -52,-8 -55,-82 -19,-121 41,-23 88,13 98,45l0 0z"
         id="path3645" /><path
         class="fil4"
         d="M9339 16929c-108,161 207,157 73,292 -119,48 -175,-79 -247,-141l55 -110 65 17c38,-2 5,-80 54,-58l0 0z"
         id="path3647" /><path
         class="fil4"
         d="M12306 17575c13,61 -34,69 -82,91 -39,9 -39,-36 -29,-56 -19,-70 49,-22 76,-55 5,15 20,18 34,20l0 0z"
         id="path3649" /><path
         class="fil4"
         d="M10901 17279c-124,121 -249,14 -338,147 -82,-5 -137,-80 -97,-147 205,76 337,-192 491,-124l-57 124 0 0z"
         id="path3651" /><path
         class="fil4"
         d="M12027 17540c-110,35 -232,193 -348,72 30,-143 206,-72 285,-148 36,13 70,33 63,76l0 0z"
         id="path3653" /><path
         class="fil4"
         d="M8799 17170c-45,141 -254,42 -336,184 -124,-19 -150,-141 -194,-243 6,-87 96,-88 140,-126 142,51 348,24 390,185l0 0z"
         id="path3655" /><path
         class="fil4"
         d="M9145 17297c-9,58 -77,106 -136,104 -62,13 -83,-49 -100,-82 -10,-75 55,-109 115,-108 51,8 113,39 121,85l0 0z"
         id="path3657" /><path
         class="fil4"
         d="M10915 18277c-32,157 250,171 219,321 -204,205 -509,283 -800,276 133,-179 -145,-177 -117,-350 -75,48 -208,130 -298,80 -40,-28 -11,-69 -7,-97l117 -78c-80,-64 -203,6 -275,39 -99,-37 -288,23 -287,-125 140,14 346,39 453,-70 180,94 340,-206 451,39 38,-53 128,-54 185,-38 -55,21 22,48 10,83 131,116 243,-162 349,-79l0 0z"
         id="path3659" /><path
         class="fil4"
         d="M11799 17910c34,-21 88,-8 134,-8 -3,88 -88,133 -152,177 -94,64 -194,96 -292,152 -21,11 -44,13 -64,7 -31,-9 -37,-44 -16,-57 58,-39 125,-53 170,-107 63,-75 140,-115 220,-164l0 0z"
         id="path3661" /><path
         class="fil4"
         d="M12248 17074c44,-29 96,-29 136,-13 22,9 8,46 -10,64 -85,86 -187,204 -304,137 -72,-41 -139,-108 -228,-86 -64,15 -109,62 -167,90 -49,24 -98,26 -149,26 16,-121 122,-214 232,-261 36,-15 81,-23 118,-9 55,21 98,67 151,94 37,19 79,35 117,9 35,-24 70,-29 104,-51l0 0 0 0z"
         id="path3663" /><path
         class="fil4"
         d="M11434 17356c-116,-31 -138,98 -218,148 -45,28 -118,29 -143,68 -34,54 85,78 137,69 73,-13 97,-94 136,-154 21,-33 61,-50 97,-75 26,-19 3,-52 -19,-55 3,0 6,0 9,0l0 0z"
         id="path3665" /><path
         class="fil4"
         d="M9942 17869c25,-46 85,-104 137,-69 95,67 175,-1 255,-35 -13,86 79,75 127,64 49,-10 135,-68 157,-30 58,101 -82,214 -183,209 -42,-2 -86,22 -130,28 -45,6 -37,-50 -59,-64 -48,-30 -96,19 -146,31 -16,4 -35,-35 -56,-53 -21,-17 -109,24 -136,33 -6,-29 24,-97 34,-115l0 0z"
         id="path3667" /><path
         class="fil4"
         d="M8448 17701c85,-26 132,-138 219,-110 9,3 26,64 57,52 31,-11 72,-31 88,-18 48,38 25,121 52,170 12,22 65,-8 103,-28 30,-15 63,-2 70,34 16,81 -88,126 -65,198 10,32 63,13 94,31 45,26 70,72 42,113 -101,147 -295,97 -448,131 -92,-62 -200,-76 -306,-104 -78,-21 -149,17 -224,40 -20,6 -58,-56 -30,-76 45,-31 148,-30 112,-104 -27,-57 -128,-52 -134,-130 37,4 70,-19 98,-34 72,-39 144,-65 216,-105 31,-17 49,-50 84,-62l-28 0 0 0z"
         id="path3669" /><path
         class="fil4"
         d="M8032 17529c78,-49 151,-126 249,-92 27,138 -7,320 -149,368 -39,14 -90,-5 -125,19 -50,35 -99,57 -152,73 -56,16 -128,49 -182,28 -68,-27 -24,-149 12,-183 53,-51 132,-59 197,-98 58,-34 93,-79 151,-115l0 0z"
         id="path3671" /><path
         class="fil4"
         d="M7328 17598c89,-30 165,-110 259,-130 40,-8 72,16 105,-10 9,-7 30,-23 42,-11 12,13 16,34 10,52 -15,38 -40,69 -74,90 -29,16 -44,42 -69,61 -40,30 -68,90 -101,101 -74,24 -157,-48 -212,-110 -8,-8 13,-35 40,-44l0 0z"
         id="path3673" /><path
         class="fil4"
         d="M3280 17837c80,64 203,46 290,15 38,43 23,92 31,138 44,51 190,201 359,141l471 -184c222,-76 220,-350 275,-555 -31,-42 -52,-97 -121,-85 -46,52 -114,152 -87,222 -50,30 -81,83 -149,88 -40,-80 37,-141 13,-227 -162,27 -113,241 -276,275 -103,-16 -255,94 -312,-63 0,0 -301,0 -494,234l0 0z"
         id="path3675" /><path
         class="fil4"
         d="M11800 19300c69,-4 149,-15 197,25 131,114 237,-6 343,-74 27,-17 91,-15 97,-1 33,74 109,136 172,81 112,-97 290,-163 264,-341 -54,12 -59,78 -96,104 -42,29 -85,1 -98,-34 -28,-76 -7,-167 -10,-252 -1,-36 -48,11 -36,-54 -31,0 -64,-8 -91,3 -82,33 -144,94 -221,146 -80,54 -146,-61 -198,-14 -60,55 -114,117 -180,167 -14,10 -49,22 -63,32 -41,30 -91,41 -108,87 -16,41 -45,70 -63,107 39,-10 71,27 111,18 -6,104 -12,0 -19,0l0 0z"
         id="path3677" /><path
         class="fil4"
         d="M4772 17788c-14,-80 46,-228 146,-161 37,24 10,72 25,104 60,122 149,243 119,383 -3,13 -25,34 -49,38 1,-63 -39,-3 -56,-18 -59,-50 34,-122 -3,-131 -79,-19 -165,77 -254,66 -63,-8 -119,-105 -82,-144 57,-61 128,-118 173,-193l-18 55 0 0z"
         id="path3679" /><path
         class="fil8"
         d="M8009 23419c0,-19 6,-39 -3,-53 -31,-49 -112,-60 -118,-112 -4,-38 58,-81 40,-124 -20,-50 -106,-74 -110,-113 -9,-93 -3,-186 -76,-245 -28,-22 -87,-27 -97,-65 -11,-45 32,-99 5,-140 -34,-52 -127,-114 -76,-158 101,-88 9,-232 78,-285 61,-48 191,-104 135,-199 6,0 12,0 18,0l-5 57c2,-59 -16,-136 -91,-133 -662,209 -1156,775 -1261,1437 -43,414 106,710 272,1075 -6,132 -35,319 46,420 44,6 82,-46 89,-90 165,-196 324,79 492,61 279,87 653,-55 816,192 146,-22 156,194 301,83 32,34 41,73 49,118 139,-75 194,103 301,135l281 -164c679,-80 1319,84 1988,-27l45 44c39,131 -41,259 -88,370l22 48c192,-81 372,-223 454,-410 160,-160 337,-236 551,-166 96,-229 355,-396 601,-439 258,-64 588,-28 779,186 39,87 84,183 43,294l66 10c155,-176 -13,-393 156,-559 203,46 319,-121 496,-153 9,-153 -206,-260 -314,-380l8 -51c141,-133 292,-287 394,-456 35,-172 239,-281 180,-474l-149 -52c-274,-64 -558,-115 -821,-111 -679,-156 -1301,-59 -1957,-79 -454,33 -882,182 -1323,277 -148,-60 -264,-181 -450,-187 -95,-15 -92,111 -172,143 -162,-18 -150,191 -301,197 -28,128 -218,144 -168,306 -339,251 -788,344 -1211,228 -118,-11 -32,157 -177,76 11,120 -96,89 -164,137 -19,27 8,90 -43,82 -175,17 -388,-8 -481,-177 -14,-149 31,-290 149,-375 243,-213 513,20 788,-12l14 14 0 0z"
         id="path3681" /><path
         class="fil4"
         d="M7800 21981c-51,133 -203,6 -286,104 -331,244 -654,446 -816,804l26 26c245,-272 488,-722 928,-706 -5,316 -453,166 -560,416 -42,74 -119,136 -147,220 109,-27 238,-184 374,-238 92,-60 208,-86 306,-42 12,17 9,38 29,56 -77,62 -215,34 -287,111 -168,70 -320,180 -398,337l18 32c223,-180 453,-262 725,-324 74,4 87,65 101,119 -1,148 -116,26 -198,66 -205,20 -472,53 -566,267l12 17c271,-106 574,-318 853,-135 24,85 -73,85 -63,160 35,65 213,26 144,133 -274,32 -545,-201 -788,12 -118,85 -163,226 -149,375 93,169 306,195 481,177 51,8 24,-55 43,-82 68,-49 175,-17 164,-137 144,81 58,-87 177,-76 423,117 872,23 1212,-227 -49,-162 140,-178 168,-306 151,-7 139,-215 301,-198 80,-32 78,-157 173,-143 186,6 302,127 450,187 441,-94 869,-243 1324,-276 656,19 1277,-77 1957,79 263,-4 547,47 821,111 19,18 0,45 4,67 -206,27 -479,-95 -676,15 16,39 72,62 49,118 -402,123 -598,-387 -1014,-266 -294,14 -583,43 -874,80 87,65 210,47 310,77 -156,87 -381,-6 -565,17 -697,55 -1273,336 -1890,588 -60,-46 32,-106 21,-130 262,-93 476,-266 751,-298 32,-10 29,-40 47,-59 -74,-100 -160,19 -254,-2 -453,122 -896,408 -1253,685 80,12 190,-67 276,-39 -187,141 -466,201 -702,269 -122,18 -270,47 -374,46l6 -36c21,10 33,-17 49,-22 2,-15 -16,-39 -38,-43 -43,-14 -82,-5 -108,20 21,55 -18,115 -71,122 -292,44 -561,-49 -842,19 11,120 163,106 247,141 632,222 1209,-161 1823,-208 415,-69 743,-343 1156,-398 505,-211 1069,-176 1608,-270 43,6 72,18 98,44 -239,140 -306,374 -325,636 -24,107 184,168 43,251 -171,-12 -3,-215 -159,-275 33,-165 30,-379 154,-501l-31 -42c-285,52 -626,-22 -876,95 -176,-27 -335,81 -506,121 -200,80 -402,130 -592,241 -142,0 -256,101 -392,110 -264,56 -545,86 -777,228 -305,-10 -564,157 -875,87 -405,-40 -837,-150 -953,-552 -14,-53 -70,-33 -99,-44 -64,27 -15,94 -22,144 213,689 1077,667 1643,835 450,91 927,106 1331,204 808,102 1656,40 2422,-308l13 -79c22,4 54,-14 44,-45 9,-102 -101,-164 -132,-256 -126,-292 97,-568 269,-756 79,-25 49,66 74,100 -90,141 -240,288 -227,489 40,132 106,230 221,307 241,89 497,-19 745,-25 327,109 622,-52 922,-103 35,-31 56,-21 64,-71 -128,-93 -304,-17 -463,-56l-348 -24c18,-160 210,-241 303,-352 200,-176 307,-477 594,-536l5 -36c-246,-97 -370,164 -539,286 -188,193 -320,460 -612,504 -6,-9 -12,-17 -19,-18 36,-83 144,-58 207,-123 342,-316 626,-790 1109,-811l69 -56c-27,-19 -9,-38 -6,-60 23,-4 65,-34 89,6 60,193 -145,302 -179,474 -102,169 -253,323 -394,456l-8 50c108,120 324,227 314,380 -177,32 -293,199 -496,153 -169,166 -1,384 -156,559l-66 -10c40,-112 -5,-207 -43,-294 -191,-214 -522,-250 -779,-186 -246,43 -505,210 -601,439 -213,-70 -390,7 -550,167 -82,186 -262,329 -454,410l-23 -48c48,-111 128,-239 88,-370l-45 -44c-669,111 -1309,-54 -1989,27l-280 164c-107,-31 -162,-209 -300,-135 -8,-46 -17,-84 -49,-118 -145,110 -156,-105 -301,-83 -163,-246 -538,-105 -816,-191 -168,18 -327,-257 -492,-61 -7,43 -45,97 -89,90 -82,-101 -52,-289 -46,-420 -167,-365 -315,-660 -272,-1074 105,-663 599,-1229 1260,-1437 76,-3 94,73 92,132l0 0z"
         id="path3683" /><path
         class="fil4"
         d="M13100 23081c11,120 26,262 -97,332 -120,4 -227,113 -356,27 -82,-49 -93,-169 -123,-218 37,-142 146,-258 285,-288 114,-12 234,36 291,148l0 0z"
         id="path3685" /><polygon
         class="fil7"
         points="14232,23402 14274,23328 14265,23385 "
         id="polygon3687" /><path
         class="fil4"
         d="M12082 23124c-73,85 -281,-21 -272,158 -162,27 -331,9 -483,73 -38,-139 -208,-54 -294,-82 198,-162 536,-169 823,-184 73,12 170,-33 226,35l0 0z"
         id="path3689" /><path
         class="fil8"
         d="M11751 23226c-153,21 -241,16 -389,52l-66 -60c151,-58 328,-83 493,-43l-38 51 0 0z"
         id="path3691" /><path
         class="fil7"
         d="M10749 23031c-21,41 -84,61 -137,60 -19,-18 -2,-37 2,-59 35,-31 83,-2 135,-1l0 0 0 0z"
         id="path3693" /><path
         class="fil7"
         d="M9939 23039c-47,15 -134,-6 -125,-63 52,0 94,22 125,63l0 0z"
         id="path3695" /><path
         class="fil4"
         d="M10884 23265c-12,72 -128,54 -168,114 -104,-52 -225,98 -324,9 116,-115 328,-82 492,-124l0 0z"
         id="path3697" /><path
         class="fil4"
         d="M12900 24061l2 82c-150,51 -143,-140 -198,-215 31,-106 123,-165 227,-208 142,95 -139,215 -31,342l0 0z"
         id="path3699" /><path
         class="fil4"
         d="M11467 23937c-36,230 -57,500 -219,630 -197,110 -420,386 -676,251 4,-501 496,-632 793,-941 44,7 88,13 103,60l0 0z"
         id="path3701" /><path
         class="fil8"
         d="M11326 24071c-173,239 -445,455 -509,591 6,60 2,106 -23,124 -108,20 -84,-40 -95,-115 52,-195 282,-415 627,-600l0 0z"
         id="path3703" /><path
         class="fil7"
         d="M8568 23943c112,-94 242,-110 372,-127 -89,90 -251,72 -372,127l0 0z"
         id="path3705" /><path
         class="fil7"
         d="M8515 23950c-38,53 -106,6 -154,28 30,-47 95,-37 154,-28l0 0z"
         id="path3707" /><path
         class="fil6"
         d="M14173 1395c122,-10 303,172 356,-26 47,-15 46,36 58,60 -9,102 -76,151 -137,207 -532,-45 -1079,-136 -1617,-196 -24,-85 -5,-207 43,-274 123,-18 26,122 130,124 148,15 346,89 401,-72 54,-51 130,34 184,21 9,38 6,104 64,113 142,0 332,125 352,-94 82,-2 248,-6 165,136l0 0z"
         id="path3709" /><path
         class="fil6"
         d="M16183 1659c-15,49 -11,116 48,125 91,-8 260,106 326,-24 23,-48 91,-9 136,-9 -56,117 82,145 150,186 46,-8 113,-5 144,-59 30,-3 58,16 60,46 -74,92 -88,319 -264,203 -312,-107 -694,-158 -970,-259 -103,36 -202,-46 -314,-48 -12,-112 72,-173 81,-275 170,-78 55,127 164,143 138,-16 301,83 345,-95 45,0 86,21 94,66l0 0z"
         id="path3711" /><path
         class="fil6"
         d="M11413 1141c-67,93 45,376 -173,335 -456,-3 -917,-74 -1375,-12 -32,-131 -80,-256 -27,-402 64,-27 140,-30 214,-26 -52,139 122,130 197,126 210,47 149,-235 384,-111 100,-14 -4,118 101,119 98,-51 328,109 315,-99 145,-15 257,-12 364,70l0 0z"
         id="path3713" /><path
         class="fil6"
         d="M13951 1899c-51,700 -198,1349 -261,2077 -19,71 -97,44 -156,42l-43 -7c-32,-322 238,-657 77,-962 -60,-46 -124,-70 -192,-15 -200,272 -209,565 -328,894 -23,4 -39,9 -68,4 184,-694 385,-1350 605,-2032 102,-80 267,-33 367,-3l0 0z"
         id="path3715" /><path
         class="fil6"
         d="M13411 1816c-19,123 -70,255 -112,374 -164,514 -283,1130 -507,1648 -34,24 -76,151 -138,112 -41,-213 79,-401 124,-593 131,-356 291,-708 379,-1071 -30,-49 -73,-107 -139,-117 123,-114 7,-375 211,-388l182 35 0 0z"
         id="path3717" /><path
         class="fil6"
         d="M15967 2267c-48,111 -86,260 -198,309 -76,11 -149,-8 -208,-54 42,-127 100,-258 175,-350 82,49 171,4 232,95l0 0z"
         id="path3719" /><path
         class="fil6"
         d="M16638 2378c-329,665 -654,1346 -941,2024 -109,-68 -382,0 -321,-197 155,-316 310,-631 396,-987 162,-270 292,-568 419,-851 76,-150 329,-46 448,10l0 0z"
         id="path3721" /><path
         class="fil6"
         d="M8373 1523c-562,98 -1102,104 -1669,187 -5,-111 -130,-315 14,-374 60,186 197,30 315,48 4,-73 27,-128 103,-132 61,-5 99,38 107,83 86,21 198,23 286,-8 -1,-88 96,-88 152,-110 156,9 264,129 437,82 87,-31 10,-161 131,-164 73,11 135,-2 136,87 30,93 4,215 -10,301l0 0z"
         id="path3723" /><path
         class="fil6"
         d="M10947 1866c-3,685 122,1310 137,1976 -47,15 -143,96 -147,-15l-38 -43c-97,-332 168,-874 -323,-994 -544,34 -380,702 -505,1066 -46,52 -111,-10 -104,-53 85,-444 151,-906 243,-1350 18,121 137,29 213,77 142,-96 85,-253 131,-408 -34,-72 -108,-120 -185,-109 -161,71 -87,267 -152,390 -13,-201 72,-454 94,-687 193,-37 417,-32 619,14l16 135 0 0z"
         id="path3725" /><path
         class="fil6"
         d="M14181 2724c166,-11 402,202 504,-18 91,-8 216,11 165,143 145,-15 372,160 427,-52l49 22 -85 304c-128,2 -243,-22 -344,-53 33,-61 -21,-106 -59,-142 -118,-11 -239,-7 -318,69 -153,-24 -311,-18 -453,-70 -17,-83 15,-521 115,-204l0 0z"
         id="path3727" /><path
         class="fil6"
         d="M12869 2493c-45,96 -30,335 -192,266 -88,-102 -144,104 -260,34 -69,-40 -266,26 -216,-151 -66,-55 -180,-42 -261,-55 -87,31 -52,140 -111,182 -185,31 -372,-13 -575,-7 -85,-79 -58,-252 -51,-391 77,34 116,-71 191,-22 -63,256 255,142 374,146 91,-200 328,-82 494,-94 -23,196 225,93 329,146 46,-52 97,-140 186,-134 54,-6 100,30 92,81l0 0z"
         id="path3729" /><path
         class="fil6"
         d="M15667 2885c-87,459 -364,837 -488,1290 -35,31 -48,66 -108,64 -46,-44 25,-63 -5,-111l494 -1186c7,-43 69,-56 106,-57l0 0z"
         id="path3731" /><path
         class="fil6"
         d="M8151 1932c26,78 5,163 13,253 -48,15 -91,52 -133,83 -16,197 117,350 101,546 140,346 149,717 290,1055 -20,34 -28,84 -67,93 -241,-420 -191,-973 -413,-1414 -56,-215 -70,-453 -166,-652 88,-38 367,-187 376,36l0 0 0 0z"
         id="path3733" /><path
         class="fil6"
         d="M5604 1896c-490,161 -1067,168 -1559,344 -60,-2 -42,-66 -84,-86 -6,-104 -115,-224 -21,-298 109,24 142,147 259,69 48,-22 110,-34 100,-110 39,-53 153,-65 233,-97 33,167 176,72 283,58 -20,-114 143,-148 228,-164 83,-9 52,97 119,99 79,-25 155,-35 228,-68 -25,-78 31,-106 88,-134 154,68 87,256 126,388l0 0z"
         id="path3735" /><path
         class="fil6"
         d="M8111 3940c-12,28 -37,46 -72,33 -98,-325 -183,-648 -249,-982 -46,-44 -110,-61 -175,-78 -229,171 24,417 36,625 20,158 206,356 38,470 -102,-163 -99,-369 -184,-544 -144,-509 -264,-1029 -354,-1552l412 -48c184,685 386,1395 548,2076l0 0z"
         id="path3737" /><path
         class="fil6"
         d="M9938 2612c-25,254 -326,76 -491,124 -43,-14 -79,69 -122,11 3,-66 13,-131 -54,-178 -111,-10 -235,16 -320,83 17,32 -4,73 -4,118 -208,-9 -352,49 -561,47 -40,-124 -170,-343 -4,-399 56,24 101,-29 146,22 32,34 9,90 62,128 110,-79 404,47 351,-182 125,12 243,-66 361,-11 -33,261 238,103 374,146 53,-51 -19,-165 97,-140 71,25 136,-9 176,27l-10 205 0 0z"
         id="path3739" /><path
         class="fil6"
         d="M14652 3578c-111,-10 -232,1 -332,-29 -25,-78 -11,-164 -12,-253 101,-73 292,0 401,24l-56 257 0 0z"
         id="path3741" /><path
         class="fil6"
         d="M15146 3440c-71,70 -79,261 -207,219l-44 -7c-21,-107 54,-198 88,-274 53,45 133,-31 163,62l0 0z"
         id="path3743" /><polygon
         class="fil6"
         points="14046,3485 13982,3460 14047,3241 14076,3246 "
         id="polygon3745" /><path
         class="fil6"
         d="M12321 3073l-73 269c-189,8 -372,-13 -540,-46 7,-88 -42,-161 -5,-252 194,-44 386,-74 596,-27l21 55 0 0z"
         id="path3747" /><path
         class="fil6"
         d="M12681 3114c-72,77 -28,276 -167,254l-34 -20c64,-71 15,-425 201,-234l0 0z"
         id="path3749" /><path
         class="fil6"
         d="M11449 3286c-60,-2 -123,18 -189,8 -38,-87 -35,-205 10,-301 67,3 139,-30 200,16 61,91 -6,183 -21,277l0 0z"
         id="path3751" /><path
         class="fil6"
         d="M5455 2603c-57,28 -91,52 -134,90 223,484 377,980 528,1498 -6,36 1,88 -51,88l-51 -7c-289,-679 -508,-1332 -778,-1993 106,-50 258,-115 381,-89 54,134 99,273 107,415l0 0z"
         id="path3753" /><path
         class="fil6"
         d="M9836 3260c-31,54 -70,63 -132,76 -30,-94 21,-226 31,-342 246,-88 57,163 100,266l0 0z"
         id="path3755" /><path
         class="fil6"
         d="M7102 2937c-185,31 -375,97 -540,102 -12,-69 -37,-146 -96,-199 -98,7 -207,27 -286,104 0,45 44,147 -30,143l-443 50c-16,-84 -69,-180 -107,-267 52,-44 144,-111 195,-51 9,38 23,92 64,113 105,-50 338,-7 280,-208 100,-14 225,-54 310,-19 -23,48 10,76 35,109 125,-77 402,61 380,-178 42,-30 94,-23 140,-30 87,65 62,224 97,332l0 0z"
         id="path3757" /><path
         class="fil6"
         d="M9451 3326c-170,33 -337,45 -515,39 27,-128 -97,-332 66,-374 143,-8 302,-13 433,7 67,99 -28,224 16,327l0 0 0 0z"
         id="path3759" /><path
         class="fil6"
         d="M14952 3912c-67,93 -95,222 -192,266l-317 -34c-39,-87 20,-218 22,-329 160,-13 336,7 480,44l7 52 0 0z"
         id="path3761" /><path
         class="fil6"
         d="M14242 3803c-56,117 -16,241 -102,316l-263 -40 27 -365c115,32 261,10 338,89l0 0z"
         id="path3763" /><path
         class="fil6"
         d="M4728 2322c271,654 600,1324 777,2001 -34,76 -106,6 -155,35 -298,-629 -564,-1311 -820,-1963 33,-69 122,-114 198,-73l0 0z"
         id="path3765" /><path
         class="fil6"
         d="M12493 3594c-54,103 -2,346 -203,286 -98,-45 -245,80 -310,-25l45 -281c152,-13 329,-45 468,20l0 0z"
         id="path3767" /><path
         class="fil6"
         d="M8676 3348c-34,25 -119,41 -181,54l-37 -6c19,-122 -132,-352 57,-360 250,-116 132,205 160,312l0 0z"
         id="path3769" /><path
         class="fil6"
         d="M11766 3600l-39 245 -434 0c25,-114 -81,-249 32,-341 149,52 361,-63 441,97l0 0z"
         id="path3771" /><path
         class="fil6"
         d="M9774 3841c-137,60 -268,-12 -401,71 -108,-75 -73,-247 -57,-355 155,-28 319,-25 466,-9l-9 294 0 0z"
         id="path3773" /><path
         class="fil6"
         d="M7295 3512c-48,22 -96,37 -140,30l-97 -332 127 -47c75,93 84,227 110,349l0 0z"
         id="path3775" /><path
         class="fil6"
         d="M9078 3742c-45,192 -311,122 -438,213 -10,-127 -74,-240 -70,-365 177,13 597,-225 508,152l0 0z"
         id="path3777" /><path
         class="fil6"
         d="M6859 3431l-15 94c-195,7 -379,126 -569,97 -5,-112 -78,-219 -24,-321 194,8 629,-280 608,130l0 0z"
         id="path3779" /><path
         class="fil6"
         d="M15605 4654c42,66 215,63 127,189l-44 45c-1905,-455 -3681,-638 -5553,-586 -1112,-23 -2260,133 -3345,276 -421,54 -878,153 -1315,263 -76,-41 -214,27 -256,-84 51,-176 241,-148 382,-192 1201,-303 2538,-327 3764,-456 2094,-78 4263,78 6240,544l0 0z"
         id="path3781" /><path
         class="fil6"
         d="M6045 3653l-144 59c-21,-106 -80,-204 -69,-320 209,-137 162,158 213,262l0 0z"
         id="path3783" /><path
         class="fil6"
         d="M7395 3779c10,76 -16,152 9,230 -168,70 -355,71 -533,103 3,-110 -79,-212 -54,-326 196,-7 452,-203 578,-7l0 0z"
         id="path3785" /><path
         class="fil6"
         d="M15447 5043c141,7 94,118 64,209 -76,106 -51,324 -177,408 -1718,-359 -3652,-626 -5390,-524 -796,11 -1552,13 -2318,168 -694,-18 -1385,282 -2044,240l-93 -501 100 -66c2356,-458 4898,-621 7367,-376 30,49 52,8 95,15 861,95 1525,256 2396,426l0 0z"
         id="path3787" /><path
         class="fil6"
         d="M6600 4122c-182,16 -363,70 -526,104 -45,-95 -85,-220 -112,-334 180,-54 355,-115 550,-115 85,79 100,222 88,346l0 0z"
         id="path3789" /><polygon
         class="fil6"
         points="12967,4765 12982,4768 12958,4823 12952,4815 "
         id="polygon3791" /><path
         class="fil6"
         d="M15586 5964c61,39 25,122 -10,161 -987,-107 -1890,-452 -2905,-475 -804,-124 -1601,-106 -2390,-131 -833,13 -1681,67 -2509,147 -234,16 -427,52 -651,48 -611,120 -1176,189 -1758,372 -46,-44 -46,-133 -7,-193 41,-67 124,-77 199,-73 1313,-352 2726,-431 4107,-499 1002,6 2059,-46 3041,134 964,59 1851,225 2781,456l104 53 0 0z"
         id="path3793" /><path
         class="fil4"
         d="M13763 2380c-39,104 -44,229 -69,343 -80,32 -151,6 -237,-21 47,-200 71,-358 186,-517 19,25 49,22 67,3 84,36 40,124 52,193l0 0z"
         id="path3795" /><path
         class="fil4"
         d="M7609 2616c-42,23 -138,40 -167,12 -14,-150 -231,-390 -12,-489l76 34 103 444 0 0z"
         id="path3797" /><path
         class="fil4"
         d="M10855 2147c-127,143 92,413 -178,371 -115,-33 -24,-181 -71,-262 34,-76 -14,-194 88,-223 83,-2 159,39 162,113l0 0z"
         id="path3799" /><path
         class="fil4"
         d="M12907 5007c96,-88 205,-160 338,-199 135,-2 289,15 368,138 34,64 45,139 98,185 151,-154 363,-262 591,-190 133,57 179,197 200,297 143,-148 349,-220 568,-135 96,8 149,97 189,177 -19,71 49,118 13,201 -58,35 -131,68 -198,21 -79,-71 64,-211 -64,-260 -103,-60 -229,-21 -306,42 -77,202 -246,-8 -390,6 -64,-69 -45,-147 -118,-203 -265,-70 -342,316 -627,133 -16,-91 -52,-192 -148,-252 -158,-39 -279,61 -377,157 -123,-27 -329,45 -390,-90 21,-85 -25,-174 -101,-215 -138,-73 -219,55 -313,129 -67,137 -278,53 -416,76 -72,-70 -73,-203 -178,-249 -118,-11 -201,36 -287,111 -18,211 -270,47 -391,102 -47,-81 -54,-178 -142,-235 -121,-41 -231,38 -303,116 -55,161 -259,123 -396,138 -54,-89 -93,-221 -216,-247 -141,-7 -246,139 -335,229 -167,-33 -434,89 -458,-181 -97,-52 -183,-28 -249,58 -49,169 -239,140 -365,180 -173,3 -229,-352 -435,-140 -61,153 -252,220 -417,224 -110,-61 -147,-207 -292,-192 -183,68 -283,422 -548,248 -71,-70 -122,-174 -237,-110 -145,66 -153,257 -327,267 -169,26 -218,-232 -387,-111 -102,28 -57,220 -197,206 -143,8 -44,-147 -35,-204 117,-122 264,-247 450,-197 82,5 171,196 232,50 72,-77 119,-137 223,-180 108,-20 264,-11 349,68l81 101c40,-164 202,-286 359,-329 63,-19 170,-33 244,16 107,31 140,154 218,232 79,-165 248,-338 455,-321 245,-80 331,464 461,70 159,-108 367,-187 536,-72 67,47 140,154 208,201 72,-173 273,-261 448,-278 187,-1 286,132 364,255 135,-53 221,-217 356,-263 148,8 343,9 434,147l66 106c148,-176 347,-256 587,-205 149,53 244,163 310,313 53,-147 234,-252 368,-290 126,11 247,1 340,81 70,77 146,163 190,265l0 0 0 0z"
         id="path3801" /><polygon
         class="fil4"
         points="3423,11730 3490,11661 3794,12259 3732,12324 3108,12060 3174,11991 3694,12228 3695,12227 "
         id="polygon3803" /><path
         class="fil4"
         d="M4005 11696l-109 -274 1 -1 256 146 -149 129 0 0zm222 -93l0 0 170 96 71 -61 -595 -321 -73 63 242 628 67 -58 -73 -180 192 -167 0 0z"
         id="path3805" /><path
         class="fil4"
         d="M4348 11030l174 -125c34,-24 97,-60 155,18 55,75 11,127 -40,163l-161 116 -128 -173 0 0zm171 231l0 0 168 -121c84,-60 128,-17 159,24 14,19 73,95 106,119l85 -61 -8 -11c-30,3 -42,-4 -64,-33l-72 -88c-55,-69 -94,-61 -132,-52 19,-42 37,-98 -18,-173 -79,-107 -186,-76 -270,-15l-239 171 375 508 70 -50 -161 -218 0 0z"
         id="path3807" /><path
         class="fil4"
         d="M4989 10596l138 -81c101,-59 206,-28 287,108 82,136 65,247 -31,303l-143 84 -251 -415 0 0zm215 521l0 0 219 -128c180,-106 139,-293 66,-414 -94,-156 -246,-211 -389,-127l-222 130 326 539 0 0z"
         id="path3809" /><path
         class="fil4"
         d="M6148 10262c65,134 36,266 -88,325 -125,59 -247,-3 -312,-136 -64,-133 -37,-266 88,-325 125,-59 247,3 312,136l0 0zm-436 -320l0 0 -73 34 39 81 73 -34 -39 -81 0 0zm130 -61l0 0 -73 34 39 80 73 -34 -39 -80 0 0zm386 344l0 0c-60,-122 -210,-267 -425,-166 -215,101 -195,309 -136,431 59,122 211,267 425,166 215,-101 195,-308 136,-431l0 0z"
         id="path3811" /><polygon
         class="fil4"
         points="6995,10268 6554,10432 6329,9845 6763,9683 6790,9753 6436,9885 6506,10065 6832,9943 6859,10014 6533,10135 6608,10332 6968,10197 "
         id="polygon3813" /><polygon
         class="fil4"
         points="7418,9484 7498,9461 7676,10064 7583,10090 7128,9693 7126,9694 7271,10180 7191,10204 7012,9601 7110,9572 7560,9971 7562,9971 "
         id="polygon3815" /><path
         class="fil4"
         d="M8181 9495c-25,-94 -111,-107 -182,-92 -53,11 -139,45 -119,138 11,52 52,61 90,62l187 3c85,2 156,37 177,135 31,145 -97,214 -204,237 -115,24 -168,0 -201,-19 -63,-36 -85,-85 -97,-142l79 -17c24,111 123,124 203,107 61,-13 160,-50 141,-137 -14,-65 -49,-79 -156,-81l-134 -2c-43,-1 -141,-9 -164,-116 -21,-96 22,-203 173,-235 218,-46 267,78 286,144l-79 17 0 0z"
         id="path3817" /><polygon
         class="fil4"
         points="8675,9861 8590,9875 8488,9255 8573,9241 "
         id="polygon3819" /><path
         class="fil4"
         d="M9249 9339c-16,-96 -100,-117 -172,-109 -54,6 -143,31 -132,126 6,53 46,66 84,71l186 21c84,10 152,52 163,151 17,148 -118,204 -226,217 -117,13 -167,-16 -198,-39 -59,-42 -76,-93 -82,-151l80 -9c13,113 110,135 192,127 61,-7 164,-35 154,-124 -8,-65 -41,-83 -148,-95l-133 -15c-43,-5 -139,-23 -152,-131 -11,-97 42,-201 195,-217 222,-25 259,103 270,171l-80 9 0 0z"
         id="path3821" /><polygon
         class="fil4"
         points="9943,9735 10054,9735 10054,9104 9943,9104 "
         id="polygon3823" /><polygon
         class="fil4"
         points="10708,9080 10791,9077 10819,9704 10722,9708 10376,9215 10375,9215 10397,9722 10313,9725 10286,9098 10388,9094 10729,9587 10730,9587 "
         id="polygon3825" /><path
         class="fil4"
         d="M11460 9301c3,-97 -76,-134 -147,-140 -54,-4 -146,3 -155,98 -4,53 32,74 69,85l178 56c81,25 138,79 130,179 -12,148 -155,178 -264,169 -118,-9 -161,-48 -187,-75 -50,-52 -56,-106 -52,-164l81 7c-9,113 82,154 163,160 62,5 168,-2 175,-92 5,-66 -24,-89 -127,-122l-128 -40c-41,-13 -132,-49 -123,-158 8,-98 80,-189 235,-176 222,18 233,150 231,220l-81 -7 0 0z"
         id="path3827" /><polygon
         class="fil4"
         points="11823,9797 11738,9784 11832,9163 11917,9176 "
         id="polygon3829" /><path
         class="fil4"
         d="M12408 9564l273 59 -73 328 -54 -12 -2 -84c-56,49 -142,70 -227,51 -107,-23 -151,-73 -175,-110 -76,-109 -55,-215 -41,-280 33,-150 163,-298 366,-254 116,25 231,118 219,259l-82 -18c-3,-113 -89,-155 -157,-170 -112,-24 -223,44 -259,205 -27,125 -15,262 151,298 31,7 82,14 136,-12 64,-31 90,-83 105,-149l-194 -42 16 -71 0 0z"
         id="path3831" /><polygon
         class="fil4"
         points="13418,9532 13498,9556 13310,10156 13217,10128 13060,9549 13058,9548 12906,10033 12826,10009 13015,9409 13112,9439 13265,10016 13266,10016 "
         id="polygon3833" /><polygon
         class="fil4"
         points="13621,10269 13540,10240 13763,9651 13843,9681 "
         id="polygon3835" /><path
         class="fil4"
         d="M14071 10169l206 -213 2 1 -25 290 -182 -78 0 0zm180 159l0 0 -16 192 86 37 42 -667 -90 -38 -474 482 82 35 135 -142 235 100 0 0z"
         id="path3837" /><path
         class="fil4"
         d="M15541 10484l-203 355c-64,112 -189,167 -341,83 -149,-82 -160,-213 -102,-315l208 -365 75 41 -197 345c-68,119 -13,192 54,230 69,39 164,50 232,-69l197 -346 75 42 0 0z"
         id="path3839" /><path
         class="fil4"
         d="M15816 10737l180 116c36,23 92,68 38,149 -51,78 -116,55 -169,21l-167 -107 118 -179 0 0zm-159 240l0 0 175 112c86,56 61,112 33,155 -14,20 -64,101 -75,140l88 57 8 -12c-14,-27 -11,-40 8,-70l59 -98c46,-75 24,-108 2,-140 48,2 107,-1 158,-78 73,-111 6,-198 -82,-254l-247 -159 -349 526 72 46 149 -225 0 0z"
         id="path3841" /><path
         class="fil4"
         d="M16445 11158l125 92c77,57 86,104 50,152 -46,62 -102,52 -168,3l-125 -92 117 -155 0 0zm-405 395l0 0 220 161c113,83 225,60 286,-21 65,-86 24,-153 0,-191 76,15 123,-22 148,-55 52,-69 47,-163 -48,-233l-225 -165 -381 504 0 0zm246 -184l0 0 136 100c56,41 108,102 55,173 -43,56 -106,65 -178,12l-147 -108 133 -177 0 0z"
         id="path3843" /><polygon
         class="fil4"
         points="16667,12030 16600,11976 17002,11489 17069,11543 "
         id="polygon3845" /><path
         class="fil4"
         d="M17445 12103c62,-76 21,-152 -33,-199 -41,-35 -119,-84 -183,-12 -36,40 -19,78 3,109l109 149c49,68 62,146 -5,221 -100,111 -232,51 -314,-21 -89,-77 -100,-133 -104,-170 -8,-72 19,-118 59,-162l60 52c-76,85 -28,172 33,225 47,40 135,97 196,30 44,-49 35,-85 -27,-172l-78 -108c-24,-34 -76,-117 -2,-199 66,-73 179,-103 295,-2 167,145 95,258 52,312l-61 -52 0 0z"
         id="path3847" /><path
         class="fil4"
         d="M4608 20107c35,-107 -36,-170 -89,-200 -100,-57 -223,-30 -307,113 -75,128 -86,253 51,330 48,28 145,53 245,-60l72 41c-151,188 -325,101 -367,77 -125,-71 -201,-221 -80,-430 98,-168 263,-229 424,-137 142,80 165,210 123,307l-72 -41 0 0z"
         id="path3849" /><polygon
         class="fil4"
         points="5106,20851 4684,20645 4967,20082 5383,20285 5349,20352 5010,20188 4923,20360 5236,20512 5202,20580 4889,20427 4795,20615 5140,20783 "
         id="polygon3851" /><path
         class="fil4"
         d="M5633 20475l148 62c108,45 144,146 82,292 -62,146 -164,198 -267,155l-153 -64 191 -445 0 0zm-298 479l0 0 235 98c193,80 322,-64 377,-194 72,-167 27,-321 -127,-384l-238 -99 -248 578 0 0z"
         id="path3853" /><path
         class="fil4"
         d="M6259 21040l189 -228 2 0 -4 292 -187 -65 0 0zm191 146l0 0 -2 193 88 31 -6 -668 -92 -32 -438 514 84 29 124 -151 241 84 0 0z"
         id="path3855" /><polygon
         class="fil4"
         points="7318,20982 7398,21005 7224,21609 7130,21583 6960,21007 6958,21007 6817,21495 6737,21472 6911,20868 7010,20896 7175,21470 7177,21470 "
         id="polygon3857" /><polygon
         class="fil4"
         points="7561,21046 8066,21157 8050,21230 7839,21184 7717,21723 7634,21705 7755,21165 7545,21119 "
         id="polygon3859" /><polygon
         class="fil4"
         points="8526,21237 9039,21304 9029,21378 8815,21350 8741,21898 8656,21887 8730,21339 8516,21312 "
         id="polygon3861" /><polygon
         class="fil4"
         points="9644,21981 9175,21947 9221,21321 9684,21354 9679,21429 9302,21402 9288,21594 9636,21619 9630,21694 9282,21669 9267,21879 9650,21906 "
         id="polygon3863" /><polygon
         class="fil4"
         points="10319,21367 10403,21367 10397,21995 10301,21994 9981,21484 9979,21484 9975,21991 9891,21991 9897,21363 9999,21364 10313,21874 10315,21874 "
         id="polygon3865" /><polygon
         class="fil4"
         points="11145,21963 10675,21988 10640,21361 11104,21336 11108,21411 10730,21431 10741,21623 11089,21605 11093,21679 10745,21699 10757,21908 11140,21887 "
         id="polygon3867" /><path
         class="fil4"
         d="M11408 21380l155 -18c95,-11 135,18 142,76 9,76 -39,106 -121,116l-154 18 -23 -192 0 0zm-21 562l0 0 273 -31c140,-16 205,-109 194,-209 -13,-107 -90,-127 -133,-139 66,-40 74,-100 69,-140 -10,-85 -79,-150 -197,-137l-279 32 73 624 0 0zm51 -301l0 0 168 -19c70,-8 150,0 161,88 8,69 -31,119 -121,129l-182 21 -26 -219 0 0z"
         id="path3869" /><path
         class="fil4"
         d="M12105 21288l212 -37c42,-7 114,-12 131,84 16,91 -46,118 -109,129l-197 34 -38 -210 0 0zm51 281l0 0 206 -36c101,-18 122,40 132,91 4,23 24,116 43,152l104 -18 -2 -14c-29,-10 -36,-22 -43,-56l-25 -111c-19,-86 -58,-95 -96,-103 36,-30 77,-72 60,-163 -23,-131 -133,-148 -236,-130l-290 51 112 618 85 -15 -48 -266 0 0z"
         id="path3871" /><path
         class="fil4"
         d="M13138 21379l-198 49 40 -315 84 -21 73 286 0 0zm-209 130l0 0 228 -57 46 177 425 -106 -19 -73 -342 85 -52 -203 306 -77 -19 -73 -306 77 -48 -187 335 -84 -19 -73 -554 139 -94 672 91 -22 22 -194 0 0z"
         id="path3873" /><path
         class="fil4"
         d="M14420 20793c-37,-90 -125,-92 -192,-68 -51,18 -132,63 -100,152 18,51 60,54 98,50l185 -22c84,-9 160,16 194,110 50,140 -67,225 -170,261 -111,39 -167,21 -202,7 -68,-28 -95,-74 -116,-129l76 -27c39,107 138,107 216,80 58,-21 152,-70 121,-155 -22,-62 -58,-71 -165,-60l-133 15c-42,4 -141,9 -178,-94 -34,-92 -5,-204 140,-255 210,-74 275,43 303,106l-76 27 0 0z"
         id="path3875" /><path
         class="fil4"
         d="M15226 20614c58,136 23,267 -104,320 -128,53 -247,-15 -305,-151 -58,-136 -23,-267 105,-320 128,-52 247,15 305,151l0 0zm82 -34l0 0c-53,-125 -197,-277 -416,-187 -220,91 -210,299 -157,424 53,125 196,277 416,186 219,-91 210,-298 157,-423l0 0z"
         id="path3877" /><polygon
         class="fil4"
         points="15684,20670 15976,20533 16008,20601 15639,20774 15365,20207 15442,20171 "
         id="polygon3879" /><polygon
         class="fil4"
         points="16279,20463 16202,20502 15910,19944 15986,19906 "
         id="polygon3881" /><path
         class="fil6"
         d="M13863 14152c0,0 1258,55 2090,219 0,0 -552,554 -499,1877 0,0 -777,-474 -1739,-292 0,0 -352,-693 148,-1804l0 0z"
         id="path3883" /><path
         class="fil5 str2"
         d="M13863 14152c0,0 1258,55 2090,219 0,0 -552,554 -499,1877 0,0 -777,-474 -1739,-292 0,0 -352,-693 148,-1804"
         id="path3885" /><path
         class="fil6"
         d="M5983 12712l2423 419c0,0 -1202,1221 -906,2661 0,0 -18,-164 -1073,-620 0,0 -574,-273 -1498,55 0,0 -388,-1349 1054,-2515l0 0z"
         id="path3887" /><path
         class="fil5 str2"
         d="M5983 12712l2423 419m0 0c0,0 -1202,1221 -906,2661 0,0 -18,-164 -1073,-620 0,0 -574,-273 -1498,55 0,0 -388,-1349 1054,-2515"
         id="path3889" /><path
         class="fil6"
         d="M8813 16634c0,0 -167,-1713 1680,-1785 0,0 1704,18 1649,1785l-3329 0 0 0z"
         id="path3891" /><path
         class="fil5 str2"
         d="M8813 16634c0,0 -167,-1713 1680,-1785 0,0 1704,18 1649,1785"
         id="path3893" /><path
         class="fil7"
         d="M12786 23409c-35,-13 -119,-3 -147,-67 -13,-61 -41,-168 22,-232 86,-120 275,-128 366,5 25,77 13,157 -29,231 -51,37 -103,88 -168,70l-44 -7 0 0z"
         id="path3895" /><path
         class="fil4"
         d="M12800 23114c46,3 98,6 137,37 51,41 46,109 26,164 -30,83 -155,75 -232,40 -37,-17 -33,-65 -48,-99 -28,-66 48,-147 117,-143l0 0z"
         id="path3897" /><path
         class="fil4"
         d="M3507 9493l-174 0 0 -657c-64,60 -139,104 -225,132l0 -158c45,-15 95,-43 148,-84 53,-42 90,-90 110,-146l141 0 0 913 0 0z"
         id="path3899" /><path
         class="fil4"
         d="M3767 8758l0 -162 596 0 0 126c-49,48 -99,118 -150,208 -51,90 -90,187 -116,289 -27,102 -40,193 -39,273l-168 0c3,-126 29,-254 78,-384 49,-131 114,-247 196,-351l-396 0 0 0z"
         id="path3901" /><path
         class="fil4"
         d="M16620 9003c-45,-19 -78,-45 -98,-79 -21,-33 -31,-70 -31,-109 0,-68 24,-124 71,-168 47,-44 115,-66 202,-66 86,0 153,22 201,66 48,44 72,100 72,168 0,42 -11,80 -33,113 -22,33 -53,58 -92,75 50,20 89,50 115,89 26,39 39,84 39,134 0,84 -27,152 -80,205 -54,52 -125,79 -214,79 -83,0 -152,-22 -207,-65 -65,-51 -97,-122 -97,-211 0,-49 12,-94 37,-135 24,-41 63,-73 115,-95l0 0zm36 -175c0,35 10,62 29,81 20,19 46,29 79,29 33,0 59,-10 79,-29 20,-20 30,-47 30,-81 0,-33 -10,-59 -29,-79 -20,-20 -45,-29 -78,-29 -33,0 -60,10 -80,30 -20,20 -30,46 -30,79l0 0zm-16 389c0,48 12,86 37,112 25,27 55,40 92,40 36,0 66,-13 89,-39 23,-26 35,-63 35,-112 0,-43 -12,-77 -36,-103 -24,-26 -54,-39 -91,-39 -43,0 -74,15 -95,44 -21,29 -31,61 -31,95l0 0z"
         id="path3903" /><path
         class="fil4"
         d="M17180 9283l169 -19c4,34 15,60 32,76 17,17 40,25 69,25 36,0 66,-17 92,-50 25,-33 41,-102 48,-206 -44,51 -99,76 -164,76 -72,0 -133,-28 -185,-83 -52,-55 -78,-127 -78,-215 0,-92 27,-167 82,-223 55,-56 124,-85 209,-85 92,0 168,36 227,107 59,71 89,189 89,352 0,166 -31,286 -93,360 -62,73 -142,110 -241,110 -71,0 -128,-19 -172,-57 -44,-38 -72,-94 -84,-170l0 0zm395 -381c0,-56 -13,-100 -39,-131 -26,-31 -56,-47 -90,-47 -32,0 -59,13 -80,38 -21,25 -32,67 -32,125 0,59 12,102 35,129 23,28 52,41 87,41 33,0 62,-13 85,-40 23,-26 35,-65 35,-117l0 0z"
         id="path3905" /></g></g></svg>