<svg xmlns:dc="http://purl.org/dc/elements/1.1/" xmlns:cc="http://creativecommons.org/ns#" xmlns:rdf="http://www.w3.org/1999/02/22-rdf-syntax-ns#" xmlns:svg="http://www.w3.org/2000/svg" xmlns="http://www.w3.org/2000/svg" id="svg2" version="1.1" x="0" y="0" width="400" height="500" viewBox="30.5 31.5 400 500" enable-background="new 30.5 31.5 412 533" xml:space="preserve">
  <metadata id="metadata4">
    <rdf:RDF>
      <cc:Work rdf:about="">
        <dc:format>
          
          
          
          
          image/svg+xml
        
        
        
        
        </dc:format>
        <dc:type rdf:resource="http://purl.org/dc/dcmitype/StillImage"/>
      </cc:Work>
    </rdf:RDF>
  </metadata>
  <defs id="defs6"/>
  <path d="M230.45 531.13C156.13 477.21 105.19 409.11 74.71 322.97 47.07 244.87 35.98 150.22 40.8 33.62l0.02-0.46 379.82 0 0.02 0.46c4.81 116.6-6.28 211.24-33.91 289.35-30.48 86.14-81.42 154.24-155.74 208.16l-0.28 0.2-0.28-0.2z" id="path4148" fill="#e00e00"/>
  <path id="path10" d="M419.96 33.21C429.03 252.66 383.71 419.16 230.51 530.31 146.04 469.02 94.36 390.9 66.52 296.34 64.43 289.25 62.48 282.07 60.65 274.8 49.2 229.11 42.88 179.78 40.77 126.86 39.57 96.8 39.72 65.58 41.06 33.21l189.45 0 189.45 0m0.92-0.95-0.92 0-189.45 0-189.45 0-0.92 0-0.04 0.92c-4.82 116.66 6.28 211.36 33.93 289.52 30.51 86.24 81.51 154.41 155.91 208.39l0.56 0.41 0.56-0.41C305.46 477.11 356.46 408.94 386.97 322.7 414.62 244.54 425.72 149.84 420.9 33.18l-0.04-0.92 0 0z"/>
  <path id="path4627" d="m218.9 61.66 0 22.05-23.21 0 0 24.17-23.21 0 0 22.24 23.21 0 0 23.21 23.21 0 0 23.21 23.21 0 0-23.21 23.21 0 0-23.21 23.21 0 0-22.24-23.21 0 0-24.17-23.21 0 0-22.05z" style="fill:#fff;stroke-width:0.97;stroke:#000"/>
  <path id="path4629" d="m218.9 197.66 0 22.05-23.21 0 0 24.17-23.21 0 0 22.24 23.21 0 0 23.21 23.21 0 0 23.21 23.21 0 0-23.21 23.21 0 0-23.21 23.21 0 0-22.24-23.21 0 0-24.17-23.21 0 0-22.05z" style="fill:#fff;stroke-width:0.97;stroke:#000"/>
  <path id="path4631" d="m218.9 333.66 0 22.05-23.21 0 0 24.17-23.21 0 0 22.24 23.21 0 0 23.21 23.21 0 0 23.21 23.21 0 0-23.21 23.21 0 0-23.21 23.21 0 0-22.24-23.21 0 0-24.17-23.21 0 0-22.05z" style="fill:#fff;stroke-width:0.97;stroke:#000"/>
</svg>
