<?xml version="1.0" encoding="UTF-8" standalone="no"?>
<svg
   xmlns:dc="http://purl.org/dc/elements/1.1/"
   xmlns:cc="http://creativecommons.org/ns#"
   xmlns:rdf="http://www.w3.org/1999/02/22-rdf-syntax-ns#"
   xmlns:svg="http://www.w3.org/2000/svg"
   xmlns="http://www.w3.org/2000/svg"
   id="svg2"
   version="1.1"
   x="0"
   y="0"
   width="400"
   height="500"
   viewBox="30.5 31.5 400 500"
   enable-background="new 30.5 31.5 412 533"
   xml:space="preserve"><metadata
     id="metadata4"><rdf:RDF><cc:Work
         rdf:about=""><dc:format>
          
          
          
          
          image/svg+xml
        
        
        
        
        </dc:format><dc:type
           rdf:resource="http://purl.org/dc/dcmitype/StillImage" /><dc:title></dc:title></cc:Work></rdf:RDF></metadata><defs
     id="defs6" /><path
     style="fill:#e00e00"
     d="M 230.45,531.13 C 156.13,477.21 105.19,409.11 74.71,322.97 47.07,244.87 35.98,150.22 40.8,33.62 l 0.02,-0.46 379.82,0 0.02,0.46 c 4.81,116.6 -6.28,211.24 -33.91,289.35 -30.48,86.14 -81.42,154.24 -155.74,208.16 l -0.28,0.2 z"
     id="path4148" /><path
     id="path10"
     d="M 419.96,33.21 C 429.03,252.66 383.71,419.16 230.51,530.31 146.04,469.02 94.36,390.9 66.52,296.34 64.43,289.25 62.48,282.07 60.65,274.8 49.2,229.11 42.88,179.78 40.77,126.86 39.57,96.8 39.72,65.58 41.06,33.21 l 189.45,0 189.45,0 m 0.92,-0.95 -0.92,0 -189.45,0 -189.45,0 -0.92,0 -0.04,0.92 c -4.82,116.66 6.28,211.36 33.93,289.52 30.51,86.24 81.51,154.41 155.91,208.39 l 0.56,0.41 0.56,-0.41 C 305.46,477.11 356.46,408.94 386.97,322.7 414.62,244.54 425.72,149.84 420.9,33.18 l -0.04,-0.92 0,0 z" /><path
     id="path4267"
     d="m 283.08979,127.04783 c -0.94645,-2.89886 -3.58976,-0.93016 -3.34093,0.81763 5.17006,36.3146 11.0469,81.1093 15.20055,108.2292 l 3.23213,21.10314 c 0.3088,2.01623 0.91593,5.39073 6.62064,5.39073 l 43.75102,0 c 5.03217,0 6.35826,-1.96881 7.39074,-4.46661 8.00089,-19.35584 11.67432,-36.86789 14.16992,-58.3762 1.76327,-15.19673 2.85699,-30.54749 2.1563,-45.74422 -0.11608,-2.51752 0.0498,-3.68111 1.54021,-4.77465 3.1106,-2.28233 6.48277,-5.98744 3.08042,-8.62517 -22.20103,-17.21176 -43.18645,-35.14484 -62.99457,-53.907332 -2.34242,-2.218765 -0.67342,-4.307896 -0.61608,-6.46888 0.0597,-2.249831 -3.00248,-2.376894 -3.85052,-1.848251 -3.78444,2.359116 -4.70704,3.60173 -8.47343,9.705591 -1.01076,1.638055 0.73362,3.950517 2.61836,5.698772 l 44.66607,41.43164 c 7.00089,6.49393 9.8657,19.46364 6.77692,36.50069 -3.48245,19.20846 -7.06923,38.50523 -13.55384,57.75785 -0.95259,2.82821 -1.77906,3.6965 -2.9264,3.6965 l -22.94685,0 c -2.38269,0 -3.29429,-1.81077 -3.6965,-3.54248 l -5.01551,-21.59402 c -0.96655,-4.16145 9.55429,-2.04426 8.35645,-4.8665 -10.99025,-25.89424 -26.49891,-58.82383 -32.14513,-76.11743 z"
     style="fill:#ffe000;fill-rule:evenodd;stroke:#000000;stroke-width:1px;stroke-linecap:butt;stroke-linejoin:miter;stroke-opacity:1;fill-opacity:1" /><path
     style="fill:#ffe000;fill-rule:evenodd;stroke:#000000;stroke-width:1px;stroke-linecap:butt;stroke-linejoin:miter;stroke-opacity:1;fill-opacity:1"
     d="m 89.08979,127.04783 c -0.94645,-2.89886 -3.58976,-0.93016 -3.34093,0.81763 5.17006,36.3146 11.0469,81.1093 15.20055,108.2292 l 3.23213,21.10314 c 0.3088,2.01623 0.91593,5.39073 6.62064,5.39073 l 43.75102,0 c 5.03217,0 6.35826,-1.96881 7.39074,-4.46661 8.00089,-19.35584 11.67432,-36.86789 14.16992,-58.3762 1.76327,-15.19673 2.85699,-30.54749 2.1563,-45.74422 -0.11608,-2.51752 0.0498,-3.68111 1.54021,-4.77465 3.1106,-2.28233 6.48277,-5.98744 3.08042,-8.62517 -22.20103,-17.21176 -43.18645,-35.14484 -62.99457,-53.907332 -2.34242,-2.218765 -0.67342,-4.307896 -0.61608,-6.46888 0.0597,-2.249831 -3.00248,-2.376894 -3.85052,-1.848251 -3.78444,2.359116 -4.70704,3.60173 -8.47343,9.705591 -1.01076,1.638055 0.73362,3.950517 2.61836,5.698772 l 44.66607,41.43164 c 7.00089,6.49393 9.8657,19.46364 6.77692,36.50069 -3.48245,19.20846 -7.06923,38.50523 -13.55384,57.75785 -0.95259,2.82821 -1.77906,3.6965 -2.9264,3.6965 l -22.94685,0 c -2.38269,0 -3.29429,-1.81077 -3.6965,-3.54248 l -5.01551,-21.59402 c -0.96655,-4.16145 9.55429,-2.04426 8.35645,-4.8665 -10.99025,-25.89424 -26.49891,-58.82383 -32.14513,-76.11743 z"
     id="path4275" /><path
     style="fill:#ffe000;fill-rule:evenodd;stroke:#000000;stroke-width:1px;stroke-linecap:butt;stroke-linejoin:miter;stroke-opacity:1;fill-opacity:1"
     d="m 187.52958,303.85478 c -0.94645,-2.89886 -3.58976,-0.93016 -3.34093,0.81763 5.17006,36.3146 11.0469,81.1093 15.20055,108.2292 l 3.23213,21.10314 c 0.3088,2.01623 0.91593,5.39073 6.62064,5.39073 l 43.75102,0 c 5.03217,0 6.35826,-1.96881 7.39074,-4.46661 8.00089,-19.35584 11.67432,-36.86789 14.16992,-58.3762 1.76327,-15.19673 2.85699,-30.54749 2.1563,-45.74422 -0.11608,-2.51752 0.0498,-3.68111 1.54021,-4.77465 3.1106,-2.28233 6.48277,-5.98744 3.08042,-8.62517 -22.20103,-17.21176 -43.18645,-35.14484 -62.99457,-53.90733 -2.34242,-2.21877 -0.67342,-4.3079 -0.61608,-6.46888 0.0597,-2.24983 -3.00248,-2.3769 -3.85052,-1.84825 -3.78444,2.35911 -4.70704,3.60173 -8.47343,9.70559 -1.01076,1.63805 0.73362,3.95052 2.61836,5.69877 l 44.66607,41.43164 c 7.00089,6.49393 9.8657,19.46364 6.77692,36.50069 -3.48245,19.20846 -7.06923,38.50523 -13.55384,57.75785 -0.95259,2.82821 -1.77906,3.6965 -2.9264,3.6965 l -22.94685,0 c -2.38269,0 -3.29429,-1.81077 -3.6965,-3.54248 l -5.01551,-21.59402 c -0.96655,-4.16145 9.55429,-2.04426 8.35645,-4.8665 -10.99025,-25.89424 -26.49891,-58.82383 -32.14513,-76.11743 z"
     id="path4277" /></svg>