<?xml version="1.0" encoding="UTF-8" standalone="no"?>
<svg
   xmlns:dc="http://purl.org/dc/elements/1.1/"
   xmlns:cc="http://creativecommons.org/ns#"
   xmlns:rdf="http://www.w3.org/1999/02/22-rdf-syntax-ns#"
   xmlns:svg="http://www.w3.org/2000/svg"
   xmlns="http://www.w3.org/2000/svg"
   xmlns:xlink="http://www.w3.org/1999/xlink"
   id="svg2"
   version="1.1"
   x="0"
   y="0"
   width="400"
   height="500"
   viewBox="30.5 31.5 400 500"
   enable-background="new 30.5 31.5 412 533"
   xml:space="preserve"><metadata
     id="metadata4"><rdf:RDF><cc:Work
         rdf:about=""><dc:format>
          
          
          
          
          
          image/svg+xml
        
        
        
        
        
        </dc:format><dc:type
           rdf:resource="http://purl.org/dc/dcmitype/StillImage" /><dc:title></dc:title></cc:Work></rdf:RDF></metadata><defs
     id="defs6" /><path
     style="fill:#e00e00;fill-opacity:1"
     id="path8"
     d="M 230.44,531.14 C 156.12,477.22 105.18,409.12 74.7,322.98 47.06,244.88 35.97,150.23 40.79,33.63 l 0.02,-0.46 379.82,0 0.02,0.46 c 4.81,116.6 -6.28,211.24 -33.91,289.35 C 356.26,409.12 305.32,477.22 231,531.14 l -0.28,0.2 -0.28,-0.2 z" /><path
     id="path10"
     d="M 419.96,33.21 C 429.03,252.66 383.7,419.16 230.5,530.31 77.31,419.16 31.99,252.66 41.06,33.21 l 189.45,0 189.45,0 m 0.92,-0.95 -0.92,0 -189.45,0 -189.45,0 -0.92,0 -0.04,0.92 c -4.82,116.66 6.28,211.36 33.93,289.52 30.51,86.24 81.51,154.41 155.91,208.39 l 0.56,0.41 0.56,-0.41 C 305.46,477.11 356.46,408.94 386.97,322.7 414.62,244.54 425.72,149.84 420.9,33.18 l -0.04,-0.92 0,0 z" /><path
     style="fill:#ffe000;fill-opacity:1;stroke:#000000;stroke-opacity:1"
     id="path3651"
     d="m 200.27317,232.95847 c -6.49754,4.28202 -10.43581,10.59057 -16.04841,14.22364 -4.11583,2.66421 -8.02807,3.68425 -9.34224,2.39411 -1.02547,-1.00673 -0.87491,-6.94077 0.22019,-9.60249 1.78296,-4.33357 6.16854,-7.76819 13.12963,-9.47049 4.67797,-1.14398 3.47873,-6.14417 -0.53004,-7.31917 -3.19259,-0.93578 -8.90733,0.29047 -13.05946,2.12292 -10.90495,4.81268 -5.55817,12.15825 -9.60898,20.65178 -3.29172,6.90191 -11.55923,8.16647 -12.55273,7.27293 -1.25626,-1.12987 -2.21373,-9.88768 -1.1299,-12.95895 2.19657,-6.22448 5.11914,-8.95033 8.06569,-12.7421 5.03541,-6.47981 -2.33115,-6.69969 -6.11091,-4.65231 -4.43883,2.40439 -9.54522,1.8061 -14.38176,-0.54658 -5.9658,-2.90199 -9.92246,-7.7746 -9.10297,-9.39683 0.96006,-1.90049 5.46368,-2.65535 8.1654,-2.96122 7.78754,-0.88164 15.3741,3.25436 22.46406,6.8558 5.96181,3.02838 8.56621,-3.43556 6.98531,-8.98295 -1.3995,-4.91085 -6.40193,-7.29967 -8.47943,-11.79339 -2.43597,-5.26909 -0.36598,-9.3783 1.01248,-9.80188 0.99584,-0.30601 6.25065,4.15331 8.22218,7.49303 3.14802,5.33269 4.40334,12.3924 12.46034,17.48314 3.9761,2.51226 9.6029,5.18235 18.14432,5.8702 2.10127,0.16922 2.11982,-2.88895 -0.16738,-4.26644 -13.63318,-8.21067 -21.87132,-23.79211 -29.74715,-40.19871 -4.73668,-9.86725 -11.13045,-19.62289 -23.86891,-28.96486 -2.53727,-1.86075 -7.11453,4.63444 -5.94181,7.39688 1.81893,4.28458 4.65022,8.35831 3.19095,11.72077 -4.57217,10.53524 -12.64296,12.71437 -20.4652,12.31148 -10.40377,-0.53585 -20.82103,-8.21832 -21.07607,-16.01931 -0.11754,-3.59514 5.80175,-7.55904 9.17427,-13.34842 2.93994,-5.0468 -4.36932,-10.25689 -8.49795,-7.80224 -3.98672,2.37028 -5.89698,7.94473 -9.09457,7.88196 -6.61502,-0.12986 -17.22838,-11.16184 -18.27062,-20.7223 -1.05772,-9.70251 7.01077,-23.8631 12.45293,-24.89117 4.44459,-0.839615 11.4786,8.29865 15.00164,10.83066 7.4426,5.34908 11.21741,-3.06614 9.71056,-6.73625 -2.05177,-4.997316 -14.82566,-11.68674 -13.85905,-16.046381 2.30164,-10.381009 10.51169,-19.057381 21.31525,-18.709571 9.25172,0.29785 19.24796,6.037954 20.46854,15.224885 0.64834,4.879862 -4.2804,7.781869 -6.27998,11.45099 -3.05736,5.610217 9.45739,13.727997 13.29431,9.493667 3.96012,-4.37029 1.57024,-12.545817 6.49999,-12.857088 10.98393,-0.693542 18.46124,13.282408 19.27744,24.119798 0.57956,7.69537 -0.61148,15.97508 -7.097,19.99072 -3.86346,2.39214 -6.3584,-1.94086 -10.98351,-3.57096 -4.59473,-1.61937 -6.05671,1.44598 -4.85044,2.48587 13.18506,11.36589 21.55028,20.70226 26.43969,32.09999 5.48646,12.7895 13.50616,25.30612 23.28982,35.22543 3.18902,3.23323 10.14661,8.29073 12.12555,5.95437 1.6222,-1.91519 0.49084,-10.15395 -2.12464,-14.95957 -5.59449,-10.2792 -14.27971,-16.82143 -22.74633,-26.93012 -3.07832,-3.67535 -5.36806,-11.93085 -3.80812,-13.06205 1.3255,-0.96119 5.13662,-0.18638 6.96378,1.61274 2.97868,2.93295 5.29188,8.11615 6.18024,10.64883 2.82098,8.04251 7.40799,1.43724 7.10487,-4.69558 -0.36577,-7.40038 -2.20222,-10.48499 -1.17356,-18.51879 0.53634,-4.18884 5.17195,-10.32478 7.51272,-10.16082 1.82229,0.12765 4.02779,7.9271 3.4848,14.35492 -1.20859,14.30705 -6.68999,18.23974 -5.55733,29.23667 0.73982,7.18283 8.21921,9.05769 9.03219,0.40057 0.7211,-7.67859 1.44284,-13.26313 4.46824,-16.23872 1.61071,-1.5842 3.98468,-3.00741 4.90247,-2.52146 0.86921,0.46024 3.0539,5.07291 1.2287,10.84452 -2.06241,6.52172 -5.45928,15.11946 -5.92602,25.0231 -0.4724,10.02376 1.35088,19.95135 2.74745,28.46899 0.60307,3.74934 -13.95284,4.43805 -22.85355,10.30381 z" /><use
     xlink:href="#path3651"
     height="480"
     width="390"
     y="0"
     x="0"
     id="use3667"
     transform="matrix(-1,0,0,1,461,0)" /><path
     style="fill:#ffe000;fill-opacity:1;stroke:#000000;stroke-opacity:1"
     id="path3651-1"
     d="m 230.5,240.07556 c 2.28085,-2.32742 9.41317,0.0571 16.60102,4.49654 8.60565,5.3151 19.57213,7.75977 26.1546,11.18446 3.52241,1.83262 7.1639,5.99556 6.65919,7.20737 -0.57344,1.37684 -7.89617,5.50701 -17.58111,-1.80044 -4.24577,-3.20351 -9.06819,-0.35006 -8.8337,4.44546 0.21804,4.45921 5.10673,10.87009 10.27709,12.20482 11.79475,3.04482 13.99389,-1.06443 23.20739,-0.82824 6.24238,0.16003 10.24756,2.80245 12.99922,5.32374 2.44201,2.23756 -7.19817,7.28081 -13.73609,6.36083 -8.4886,-1.19446 -10.92517,-2.78893 -14.2801,0.0811 -2.46941,2.11249 0.28936,7.95673 5.55569,9.72401 12.09523,4.05894 12.8252,19.73867 9.83563,19.42314 -15.06729,-1.5903 -22.11307,-9.64441 -22.46243,-21.40161 -0.30035,-10.10788 -14.13842,-10.34271 -9.97865,3.47273 2.50162,8.30837 6.46305,16.39102 -1.41775,24.86171 -2.24563,2.41373 -6.09735,-6.38779 -7.49923,-11.08779 -3.40905,-11.42935 1.91749,-20.64377 2.48409,-33.9755 0.26713,-6.28538 -2.16877,-12.56348 -4.76033,-17.61736 -1.68225,-3.28059 -6.36028,-3.66098 -5.53145,0.17094 1.71761,7.94105 2.71435,16.67037 1.2089,24.51243 -2.83632,14.77473 -9.37269,29.10723 -10.09907,48.91102 -0.24721,6.7398 -0.52271,13.71264 1.19709,22.09365 0.63247,3.08221 4.07828,2.78854 4.74589,-0.1373 1.16987,-5.12707 2.98148,-11.37926 7.52553,-12.96496 6.14155,-2.14316 15.82822,0.098 22.02798,5.82862 8.17292,7.55444 10.22525,21.1442 4.39539,28.63753 -2.20877,2.83902 -10.32375,-1.66884 -16.37454,2.25705 -1.83534,1.19081 -2.00866,3.70777 -1.57571,6.36033 0.40463,2.47907 1.31014,5.11958 2.67781,5.71502 4.35346,1.89535 10.45398,-2.15117 12.41842,0.37257 6.66385,8.56115 3.16264,22.91166 -3.9193,30.09508 -5.8636,5.94762 -15.79468,8.79056 -24.11188,6.9893 -5.76663,-1.24888 -0.56328,-14.88656 -2.94893,-20.03436 -1.62587,-3.50836 -3.9568,-4.6924 -6.03216,-4.67788 -2.84384,0.0199 -5.30725,2.48919 -5.72815,6.13047 -0.64989,5.62243 3.70945,15.1177 -1.15829,19.15352 -9.54448,7.91329 -21.4585,4.87181 -28.10085,-5.43489 -4.29435,-6.6634 -7.21773,-11.98232 -5.45514,-19.57588 1.73814,-7.48822 9.89986,-2.9751 15.16879,-9.04296 4.18906,-4.82426 1.10776,-14.12437 -4.54737,-13.30498 -4.74065,0.68686 -9.92251,6.44393 -13.40087,2.93674 -5.73643,-5.78399 -4.35402,-18.4194 1.24288,-27.49652 4.5561,-7.38914 14.39604,-13.0605 19.67248,-11.34797 4.32214,1.4028 5.28444,5.50677 6.82656,10.38547 1.46834,4.64528 5.46085,2.99239 5.26431,1.41193 -4.7387,-38.10587 10.74329,-64.80011 9.6509,-90.26289 -0.25375,-5.91481 -3.63103,-10.17862 -8.97876,-9.09597 -2.11709,0.4286 -4.17078,5.43736 -5.58389,8.87254 -1.40185,3.40782 -1.14814,8.31033 -1.03777,13.55496 0.18101,8.6021 1.87522,18.62081 1.28442,26.19704 -0.5498,7.05041 -4.79228,11.61858 -6.94775,11.08629 -1.65718,-0.40924 -3.36649,-3.89835 -3.63668,-6.92073 -0.4076,-4.55938 1.19032,-9.86133 1.7154,-11.89795 0.88524,-3.43355 0.5386,-9.10124 -1.41376,-10.17476 -2.18921,-1.20374 -5.1212,-0.79017 -8.3798,8.84943 -2.98795,8.83893 -5.85387,11.44054 -12.79372,14.27105 -2.66164,1.08558 -11.1175,0.58146 -11.56917,-1.20581 -0.63445,-2.51054 2.32064,-9.35294 5.27447,-11.67873 4.05262,-3.19096 9.24436,-4.59004 11.0001,-8.9635 1.46313,-3.6446 0.26492,-4.0434 -2.0546,-4.86604 -3.83231,-1.35917 -8.34269,0.94356 -13.48353,0.19197 -4.23671,-0.61941 -10.17441,-5.40141 -9.83958,-6.98567 0.72574,-3.43389 7.01528,-5.56782 11.94504,-5.28733 5.60281,0.31879 8.67083,3.3207 16.18045,3.22828 4.87389,-0.06 9.43916,-1.21931 11.8163,-2.97048 7.86177,-5.79154 8.65986,-14.63995 6.94731,-18.30452 -0.91914,-1.9668 -4.26314,-1.27618 -6.67418,0.82661 -4.50805,3.93173 -6.39822,8.23225 -14.51992,8.28737 -2.42804,0.0165 -7.99665,-0.48235 -7.33741,-2.36264 4.63735,-13.22624 17.08904,-11.34568 26.82328,-13.52591 8.99562,-2.01482 15.59376,-3.32404 23,-10.88151 z" /><circle
     style="fill:#e00e00;stroke:#000000;stroke-width:1;stroke-miterlimit:4;stroke-dasharray:none;stroke-opacity:1;fill-opacity:1"
     id="circle4480"
     cx="125"
     cy="122.5"
     r="12.623562" /><path
     id="path4550"
     d="m 125,135.12356 0,-25.24712"
     style="fill:none;fill-rule:evenodd;stroke:#000000;stroke-width:1;stroke-linecap:butt;stroke-linejoin:miter;stroke-miterlimit:4;stroke-dasharray:none;stroke-opacity:1" /><path
     style="fill:none;fill-rule:evenodd;stroke:#000000;stroke-width:1;stroke-linecap:butt;stroke-linejoin:miter;stroke-miterlimit:4;stroke-dasharray:none;stroke-opacity:1"
     d="m 114.24781,129.11397 21.50438,-13.22794"
     id="path4554" /><path
     id="path4556"
     d="M 135.75219,129.11397 114.24781,115.88603"
     style="fill:none;fill-rule:evenodd;stroke:#000000;stroke-width:1;stroke-linecap:butt;stroke-linejoin:miter;stroke-miterlimit:4;stroke-dasharray:none;stroke-opacity:1" /><circle
     r="12.623562"
     cy="122.5"
     cx="336"
     id="circle4560"
     style="fill:#e00e00;stroke:#000000;stroke-width:1;stroke-miterlimit:4;stroke-dasharray:none;stroke-opacity:1;fill-opacity:1" /><path
     style="fill:none;fill-rule:evenodd;stroke:#000000;stroke-width:1;stroke-linecap:butt;stroke-linejoin:miter;stroke-miterlimit:4;stroke-dasharray:none;stroke-opacity:1"
     d="m 336,135.12356 0,-25.24712"
     id="path4562" /><path
     id="path4564"
     d="m 325.24781,129.11397 21.50438,-13.22794"
     style="fill:none;fill-rule:evenodd;stroke:#000000;stroke-width:1;stroke-linecap:butt;stroke-linejoin:miter;stroke-miterlimit:4;stroke-dasharray:none;stroke-opacity:1" /><path
     style="fill:none;fill-rule:evenodd;stroke:#000000;stroke-width:1;stroke-linecap:butt;stroke-linejoin:miter;stroke-miterlimit:4;stroke-dasharray:none;stroke-opacity:1"
     d="M 346.75219,129.11397 325.24781,115.88603"
     id="path4566" /><circle
     r="12.623562"
     cy="386.58115"
     cx="228.46997"
     id="circle4570"
     style="fill:#e00e00;stroke:#000000;stroke-width:1;stroke-miterlimit:4;stroke-dasharray:none;stroke-opacity:1;fill-opacity:1" /><path
     style="fill:none;fill-rule:evenodd;stroke:#000000;stroke-width:1;stroke-linecap:butt;stroke-linejoin:miter;stroke-miterlimit:4;stroke-dasharray:none;stroke-opacity:1"
     d="m 228.46997,399.20471 0,-25.24712"
     id="path4572" /><path
     id="path4574"
     d="m 217.71778,393.19512 21.50438,-13.22794"
     style="fill:none;fill-rule:evenodd;stroke:#000000;stroke-width:1;stroke-linecap:butt;stroke-linejoin:miter;stroke-miterlimit:4;stroke-dasharray:none;stroke-opacity:1" /><path
     style="fill:none;fill-rule:evenodd;stroke:#000000;stroke-width:1;stroke-linecap:butt;stroke-linejoin:miter;stroke-miterlimit:4;stroke-dasharray:none;stroke-opacity:1"
     d="M 239.22216,393.19512 217.71778,379.96718"
     id="path4576" /><circle
     r="3.8324735"
     cy="122.5"
     cx="125"
     id="path4462"
     style="fill:#ffe000;fill-opacity:1;stroke:#000000;stroke-width:1;stroke-miterlimit:4;stroke-dasharray:none;stroke-opacity:1" /><circle
     style="fill:#ffe000;fill-opacity:1;stroke:#000000;stroke-width:1;stroke-miterlimit:4;stroke-dasharray:none;stroke-opacity:1"
     id="circle4558"
     cx="336"
     cy="122.5"
     r="3.8324735" /><circle
     r="3.8324735"
     style="fill:#ffe000;fill-opacity:1;stroke:#000000;stroke-width:1;stroke-miterlimit:4;stroke-dasharray:none;stroke-opacity:1"
     id="circle4568"
     cx="228.46997"
     cy="386.58115" /></svg>