<svg xmlns:dc="http://purl.org/dc/elements/1.1/" xmlns:cc="http://creativecommons.org/ns#" xmlns:rdf="http://www.w3.org/1999/02/22-rdf-syntax-ns#" xmlns:svg="http://www.w3.org/2000/svg" xmlns="http://www.w3.org/2000/svg" xml:space="preserve" enable-background="new 30.5 31.5 412 533" viewBox="30.5 31.5 400 500" height="500" width="400" y="0" x="0" version="1.1" id="svg2">
  <metadata id="metadata4">
    <rdf:RDF>
      <cc:Work rdf:about="">
        <dc:format>
          
          
          
          image/svg+xml
        
        
        
        </dc:format>
        <dc:type rdf:resource="http://purl.org/dc/dcmitype/StillImage"/>
      </cc:Work>
    </rdf:RDF>
  </metadata>
  <defs id="defs6"/>
  <path id="path4148" d="M230.45 531.13C156.13 477.21 105.19 409.11 74.71 322.97 47.07 244.87 35.98 150.22 40.8 33.62l0.02-0.46 379.82 0 0.02 0.46c4.81 116.6-6.28 211.24-33.91 289.35-30.48 86.14-81.42 154.24-155.74 208.16l-0.28 0.2-0.28-0.2z" fill="#e00e00"/>
  <path d="M419.96 33.21C429.03 252.66 383.71 419.16 230.51 530.31 146.04 469.02 94.36 390.9 66.52 296.34 64.43 289.25 62.48 282.07 60.65 274.8 49.2 229.11 42.88 179.78 40.77 126.86 39.57 96.8 39.72 65.58 41.06 33.21l189.45 0 189.45 0m0.92-0.95-0.92 0-189.45 0-189.45 0-0.92 0-0.04 0.92c-4.82 116.66 6.28 211.36 33.93 289.52 30.51 86.24 81.51 154.41 155.91 208.39l0.56 0.41 0.56-0.41C305.46 477.11 356.46 408.94 386.97 322.7 414.62 244.54 425.72 149.84 420.9 33.18l-0.04-0.92 0 0z" id="path10"/>
  <path id="path2829" d="m134.36 217.45c0.13-7.67 2.21-21.64 4.35-28.92-9-11.89-6.31-29.39-12.36-37.76-18.55-25.69-37.47-51.33-53.9-78.15-4.67 7.74-5.96 27.12 3.17 28.72 1.66-4.9 9.34-6.72 10.07 7.46 11.98 15.59 27.89 34.82 32.64 51.85 4.82 17.3 2.64 47.47 16.03 56.79z" style="fill:#fff;stroke:#000"/>
  <path id="path2831" d="m211.65 302.89c4.21 2.79 9.41 8.95 12.87 13.85-3.21 18.3 1.22 26.54 4.41 32.35-5.67 15.86 2.7 32.03 5.83 47.26-1.09 8.71-23.52 5.86-48.56 2.74-23.53-2.94-49.77-5.87-50.6-7.16 8.76-3.4 5.06-6.46-0.33-7.85l-3.03-7.65c-4.93 0.23-7.02-0.35-9.61-0.79-4.84-5.35-8.77-11.2-9.08-18.99 4.74-1.01 13.6-0.47 18.16 3.69 6.33 5.77 6.14 13.54 9.21 20.31 6.19-2.57 7.23 3.86 12.98 6.03 18.91 1.1 41.39 4.28 56.71 0.2l-7.93 1.28c-12.06-26.6-24.07-28.38-23.2-39.3 1.26-15.75 6.01-22.63 11.85-26.66 5.86-4.05 17.47-7.36 20.32-19.32z" style="fill:#fff;stroke-linejoin:round;stroke:#000"/>
  <path id="path2827" d="m166.97 255.63c-12.73 2.96-30.42 6.46-38.91 3.43-13.19-4.71-18.12-46.44-23.48-66.21-4.87-17.96-14.1-29.77-26.97-43.65 0.52-4.14-0.92-10.75-5.01-9.23-14.74 5.45-17.94-14.76-13.72-30.14 19.39 25.1 53.96 62.98 56.58 73.72 4.18 17.12 2.17 34.04 17.51 51.3 0.89-40.62 11.03-72.06 19.86-77.73 12.19-7.82 22.34-6.52 31.41-12.53 9.69-6.42 22.18-23.44 19.51-26.82 0 0-5.74 3.68-8.52 2.37-30.9-14.57-32.65-5.98-40.44-7.31-4.44-0.76-4.11-5.74-5.64-7.69 12.23 1.56 17.7 3.3 17.64-1.35-0.06-5.22-5.85 0.26-16.22-3.69-3.69-1.41-4.01-11.94 0.38-12.76 10.34-1.92 18.48 0.57 27.53 0.4 10.4-0.3 12.45-5.01 18.56-6.71 13.6-3.81 14.63 2.5 26.3 0.19-9.63-3.78-18.77-8.56-19.58-16.23-0.59-5.57 31.69-10.35 54.46-8.21-10.07 12.16-38.03 3.76-34.42 13.39 2.36 6.3 14.75 0.28 12.68 12.68 5.51-5.27 10.29-10.2 14.27-12.64 7.73-4.74 14.16 1.37 54.28-7.83-2.71 9.87-19.17 11.66-44.76 13.62-6.19 0.47-9.47 8.08-9.14 11.75 11.65 2.07 19.2 4.53 37.49 5.97 14.96-17.37 31.48-29.07 54.46-17.16-17.72 2.29-27.17-3.86-41.37 18.65 2.37 5 17.84 8.61 26.45 7.09 10.13-1.79 31.93-30.68 66.21-3.92-17.24-2.83-34.97-9.64-49.54 8.22 6.22 14.13 22.21 19.94 45.25 13.42l14.73-12.59c0.73 5.7 0.56 9.11-4.47 13.52 8.26 5.23 9.08 9.7 1.49 12.87-2.16 3.58 2.12 8.32 3.82 12.9-7.14 0.39-12.86-8.58-17.25-14.58-23.25 3.52-41.06-4.41-54.46-21.64-18.52 7.97-24.46-3.5-38.19-7.07-14.85-3.86-25.22-2.11-40.71-7.66 8.25 5.8 19.78 9.13 18.84 21.82 24.4 14.63 14.54 35.33 19.21 53.53 2.92 11.38 17.7 15.84 29.87 27.31 16.68 15.72 44.53 18.44 53.69 1.41 1.79 8 1.25 15.36-4.66 21.26 7.48 5.83 16.78 11.72 14.36 19.96-2.3 7.84-8.36-8.19-14.73-9.33 1.96 16.62-3.51 21-8.58 23.13-0.06-32.51-9.91-32.92-17.86-34.88-8.01-1.97-12.51-4.79-19.44-7.27-2.95 17.48 4.18 28.14 16.97 34.13-21.5 4.52-27.62-19.09-28.16-41.22-11.45-5.13-20.18-13.66-27.42-24.06-1.9 9.18-1.68 18.31 12.68 36.74-9.13 2.77-20.39-15.71-23.57-26.32-1.87-6.22 3.75-22.46 3.54-29.19-0.31-9.88-1.05-29.9-7.38-28.05-8.41 2.46-13.04 13.29-3.17 35.62-14.52-2.72-17.92-28.82-2.42-47.19-4.98-8.3-7.17-17.92-26.67-20.52 22.03 36.34-7.85 56.26-13.8 83.56-1.17 5.35-4.99 10.67-3.73 16.04 1.35 5.72 6.84 31.35 10.44 36.56 8.37 12.09 47.03 29.43 66.68 75.63 2.77 1.28 3.97 0.86 6.25-0.56 4.7 6.26 8.6 14.16 21.64 15.95-10.52 12.63-20.58 5.96-25.93-2.8l-6.9 4.2c7.41 8.9 0.59 30.09-2.14 47.75-1.55 10 4.15 18.79 6.22 28.05 1.76 7.87-14.26 7.11-42.2 79.79-3.74-2.75-9.07-0.15-14.9 4.09-1.15 3.52-3.16 7.03-6.07 10.55-5.65 1.17-11.3 0.67-16.95-0.07 5.1-10.18 10.95-22.16 18.79-20.64 16.63 3.22 36.53-58.21 37.19-74.25 1.46-35.55-60.1-36.41-50.64-89.42-16.35-27.1-58.55-34.96-68.32-58.64 5.34-1.25 8.7-1.76 11.21-2.82l0 0z" style="fill:#fff;stroke-linejoin:round;stroke:#000"/>
  <path id="path3695" d="m152.45 97.24c0.19-2.41 2.23-3.48 4.63-2.3-3.32-3.01-5.71-0.59-4.63 2.3z" fill="#000"/>
  <path id="path3721" d="m147.03 98.07c-5.17-2.94-8.31 2.15-3.59 4.63 9.66 5.08 13.53 4.21 21.03 4.15 3.68-0.03 4.96-5.08 0.42-5.28-6.88-0.31-9.62 1.19-17.86-3.5l0 0z" style="fill:#fff;stroke-linecap:round;stroke-linejoin:round;stroke-miterlimit:4;stroke:#000"/>
  <path id="path2849" d="m205.94 95.45c-1.78 1.23-4.64 1.57-5.61-0.3-0.99-1.92-0.62-5.75 3.59-3.96 3.2 1.36 5.49 4.7 6.66 7.06-1.86-1.61-2.73-2.26-4.65-2.8z" fill="#000"/>
</svg>
