<?xml version="1.0" encoding="UTF-8" standalone="no"?>
<svg
   xmlns:dc="http://purl.org/dc/elements/1.1/"
   xmlns:cc="http://creativecommons.org/ns#"
   xmlns:rdf="http://www.w3.org/1999/02/22-rdf-syntax-ns#"
   xmlns:svg="http://www.w3.org/2000/svg"
   xmlns="http://www.w3.org/2000/svg"
   width="440"
   height="500"
   id="svg3156"
   version="1.0">
  <defs
     id="defs3158" />
  <metadata
     id="metadata3161">
    <rdf:RDF>
      <cc:Work
         rdf:about="">
        <dc:format>image/svg+xml</dc:format>
        <dc:type
           rdf:resource="http://purl.org/dc/dcmitype/StillImage" />
        <dc:title></dc:title>
      </cc:Work>
    </rdf:RDF>
  </metadata>
  <path
     id="path4226"
     d="m 8.3140304,1.5 -3.31403,185.23822 C 3.2182904,286.32693 26.24666,314.23647 44.55564,347.30228 59.30929,373.94719 129.62347,463.56213 220,499.20984 310.37653,463.56213 380.69071,373.94719 395.44435,347.30228 413.75334,314.23647 436.7817,286.32693 435,186.73822 L 431.68597,1.4999984 220,1.4999992 Z"
     style="fill:#e00e00;fill-opacity:1;fill-rule:evenodd;stroke:#000000;stroke-width:1px;stroke-linecap:butt;stroke-linejoin:miter;stroke-opacity:1" />
  <path
     d="m 139.72373,51.509263 c 4.25907,9.346131 4.45962,18.055339 12.67447,18.406239 18.29425,0.78144 26.77638,1.657718 28.70048,-1.093902 9.55795,-13.66867 13.86948,-18.560578 19.29668,-30.466148 3.36724,-7.38666 3.35248,-14.890379 0.61405,-21.631899 -0.68646,-1.68995 4.88544,-1.810871 5.91641,-0.15128 5.16417,8.312991 5.99842,27.80564 3.26089,40.18308 -5.66408,25.60959 -16.70264,43.273657 -21.56497,69.319967 -2.59696,13.91125 -2.11854,19.35893 7.61113,28.74793 2.22966,2.1516 13.68956,12.81738 16.10809,11.45889 13.55529,-7.61404 35.12182,-33.19851 29.16759,-50.54123 C 236.04946,99.84038 216.33134,91.225146 220,42.89898 c 1.02268,-13.471388 0.6498,-18.920001 9.90031,-28.863611 2.59779,-2.79243 4.81681,0.40312 4.56828,1.69595 -4.41439,22.96298 12.30771,37.938899 21.44296,53.403039 2.4218,4.09962 33.80501,2.633562 35.62582,-0.580778 4.86349,-8.5857 7.13468,-12.2354 12.63732,-20.50093 4.89602,-7.35542 6.77069,-16.677368 8.34858,-25.318278 0.91672,-5.02023 -0.35489,-10.906135 1.94936,-9.631813 13.69024,7.57114 8.91685,22.431846 7.18058,38.884951 -0.79389,7.522977 1.42296,12.700468 2.15732,18.240418 1.0704,8.07508 26.23891,3.115482 34.43423,3.479872 7.55691,0.33601 11.43083,-14.53907 27.4433,-24.84577 11.40936,-7.34383 16.82174,-12.582617 22.72188,-30.239547 0.99933,-2.99063 4.95445,-4.705922 5.0649,-0.955192 0.59186,20.09925 -7.39337,30.465093 -18.84495,46.823539 -4.41291,6.303787 -15.40087,18.518994 -16.97837,28.374294 -2.81508,17.587066 -3.979,23.872036 11.42855,21.096546 5.04049,-0.90799 12.07998,-2.73452 16.72301,-5.4612 5.06484,-2.97441 12.56024,-2.45073 4.62472,6.66669 -8.48496,9.74868 -20.2983,19.18477 -29.40298,20.46187 -5.61572,0.78771 -1.29248,14.86663 -1.74878,21.53866 -1.19526,17.47726 6.9284,18.65291 19.09875,17.18532 7.21845,-0.87045 21.1905,-6.26648 17.24259,-0.34281 -9.66861,14.50735 -24.91688,18.77338 -41.49555,19.76653 -25.55455,1.53085 -52.0642,-5.59836 -72.77345,-20.70126 -16.72578,-12.19781 -47.56317,-19.24608 -55.39283,-15.9404 -4.85576,2.0501 -20.19585,13.13257 -18.20111,15.39824 2.29377,2.60533 18.1257,12.76408 23.22499,10.46339 12.01317,-5.42008 27.59263,-7.09997 42.7541,-2.24412 13.47385,4.31533 50.19847,27.53389 16.46152,24.2874 -17.84753,-2.23975 -33.28363,-8.68956 -49.37112,-14.01807 -8.34137,-2.76284 -9.72795,4.87186 -4.42824,8.75956 20.55391,5.20853 38.91035,13.22752 54.60111,24.24579 31.22827,21.92891 59.34294,50.25175 80.04824,71.56543 -11.67539,21.12069 -120.53511,134.15541 -162.01697,175.98392 -15.69914,15.83033 -16.08737,-30.07849 -16.06159,-43.88429 0.0565,-30.28405 1.1911,-62.68099 1.85172,-93.32507 0.34444,-15.97785 -2.3283,-31.53075 -0.36937,-46.33084 1.90598,-14.40003 -4.04138,-8.79062 -20.7399,-8.04497 -10.59542,0.47312 -7.01973,-3.21564 -7.96045,10.32563 -0.68455,9.8538 -9.845,8.87864 -10.27625,3.02917 -8.03481,8.69403 -18.68479,4.71772 -15.89536,-1.60497 -8.12864,4.71459 -15.22152,3.1223 -14.76048,1.61477 0.57604,-1.88356 6.15575,-4.50742 10.00385,-9.32183 10.33257,-12.92724 -3.4701,-14.67943 -14.52825,-14.3279 -10.16286,0.32307 -12.30685,3.12519 -32.79767,11.21009 -10.03709,4.09768 -13.13424,14.13353 -18.86703,24.10806 -1.40844,2.45055 -18.34639,4.17933 -16.86368,0.20911 3.25123,-8.70576 5.80467,-11.50644 4.26082,-14.8045 -0.90941,-1.94273 -3.74582,-1.30316 -7.57381,6.79688 -1.95623,4.13937 -2.84656,9.11724 -6.61534,9.89498 -13.17953,2.7198 -24.35128,0.67004 -26.59343,-10.66721 -1.91618,-9.68899 -5.92561,-15.71474 1.20988,-32.95074 0.53127,-1.28328 -1.68051,-7.67469 2.58777,-16.51006 5.21857,-10.80247 19.43269,-23.68031 25.55214,-25.20165 19.63654,-7.5651 47.4723,-12.69097 64.31431,-26.07874 16.81882,-7.96494 -1.53011,-18.52686 36.66835,-22.29553 13.87325,-1.36874 41.84906,4.18215 19.3351,-11.40831 -21.32333,-14.76616 -45.82129,-4.27177 -64.03062,8.37328 -14.76402,10.25254 -29.67826,26.49337 -49.00262,27.32572 -8.81959,0.37989 -19.13951,-1.59431 -28.49944,-4.95748 -7.34027,-2.63747 -25.01803,-12.85312 -15.84514,-13.84546 21.07055,-2.27945 31.72907,-4.69923 45.69534,-38.22356 6.17573,-14.82409 -10.87582,-4.50169 -40.00044,-30.0962 -8.40597,-7.38711 -16.74571,-23.236271 1.5336,-12.47369 17.25411,10.15895 33.14621,6.8522 36.97177,4.86994 C 77.32553,100.08281 68.08768,86.35469 68.73206,80.055205 69.30546,74.449639 55.95993,68.545547 39.32103,51.449683 35.01402,47.024386 20.82278,22.073071 27.25698,18.578928 c 2.48781,-1.351025 29.29205,19.93676 42.78724,31.61594 7.04997,6.10127 20.05278,13.28523 27.57072,14.24566 11.45367,1.46324 15.11567,1.8445 23.33824,0.17506 -7.05127,-24.56311 -1.04141,-35.138857 8.69647,-49.08145 1.89758,-2.716938 5.53278,1.740102 5.53278,1.740102 -1.6026,8.802502 1.75226,28.114726 4.5413,34.235023 z"
     style="font-style:normal;font-variant:normal;font-weight:normal;font-stretch:normal;letter-spacing:normal;word-spacing:normal;text-anchor:start;fill:#ffe000;fill-opacity:1;fill-rule:nonzero;stroke:#000000;stroke-width:1;stroke-linecap:round;stroke-linejoin:round;stroke-miterlimit:10.43299961;stroke-dasharray:none;stroke-dashoffset:0;stroke-opacity:1"
     id="path11" />
  <circle
     r="3.7438307"
     cy="198.88217"
     cx="145.4613"
     id="path4231"
     style="opacity:1;fill:#000000;fill-opacity:1;fill-rule:evenodd;stroke:#000000;stroke-width:0.95079011;stroke-linecap:round;stroke-linejoin:round;stroke-miterlimit:10.43299961;stroke-dasharray:none;stroke-opacity:1" />
  <path
     id="path4235"
     d="m 141.71746,198.88217 c 2.5578,-8.2962 11.48201,-0.63555 16.82304,-2.52199"
     style="fill:none;fill-rule:evenodd;stroke:#000000;stroke-width:1px;stroke-linecap:round;stroke-linejoin:round;stroke-opacity:1" />
</svg>
