<?xml version="1.0" encoding="UTF-8" standalone="no"?>
<svg
   xmlns:dc="http://purl.org/dc/elements/1.1/"
   xmlns:cc="http://creativecommons.org/ns#"
   xmlns:rdf="http://www.w3.org/1999/02/22-rdf-syntax-ns#"
   xmlns:svg="http://www.w3.org/2000/svg"
   xmlns="http://www.w3.org/2000/svg"
   id="svg2"
   version="1.1"
   x="0"
   y="0"
   width="400"
   height="500"
   viewBox="30.5 31.5 400 500"
   enable-background="new 30.5 31.5 412 533"
   xml:space="preserve"><metadata
     id="metadata4"><rdf:RDF><cc:Work
         rdf:about=""><dc:format>
          
          
          
          image/svg+xml
        
        
        
        </dc:format><dc:type
           rdf:resource="http://purl.org/dc/dcmitype/StillImage" /><dc:title></dc:title></cc:Work></rdf:RDF></metadata><defs
     id="defs6" /><path
     id="path8"
     d="M 230.44,531.14 C 156.12,477.22 105.18,409.12 74.7,322.98 47.06,244.88 35.97,150.23 40.79,33.63 l 0.02,-0.46 379.82,0 0.02,0.46 c 4.81,116.6 -6.28,211.24 -33.91,289.35 C 356.26,409.12 305.32,477.22 231,531.14 l -0.28,0.2 -0.28,-0.2 z"
     style="fill:#000000" /><path
     id="path10"
     d="M 419.96,33.21 C 429.03,252.66 383.7,419.16 230.5,530.31 77.31,419.16 31.99,252.66 41.06,33.21 l 189.45,0 189.45,0 m 0.92,-0.95 -0.92,0 -189.45,0 -189.45,0 -0.92,0 -0.04,0.92 c -4.82,116.66 6.28,211.36 33.93,289.52 30.51,86.24 81.51,154.41 155.91,208.39 l 0.56,0.41 0.56,-0.41 C 305.46,477.11 356.46,408.94 386.97,322.7 414.62,244.54 425.72,149.84 420.9,33.18 l -0.04,-0.92 0,0 z" /><path
     style="fill:#ffffff;stroke:#4b00aa;stroke-opacity:1"
     id="path2827"
     d="m 346.30375,322.51765 c 7.69716,5.38587 7.79987,-6.63855 -4.14587,-15.94949 -20.95738,-16.33494 -59.88634,-53.94811 -50.73753,-108.5246 8.9833,-53.58916 39.90897,-85.16784 60.87364,-104.443499 12.52577,-11.516637 26.52208,-23.119191 20.26844,-23.119191 l -94.73352,0 0,-16.755571 c 0,-4.445759 -11.12817,-4.445759 -11.12817,-0.12499 l 0,16.880561 -146.23111,0.92018 c -3.33059,0.02096 -7.991,6.073292 -10.81709,9.949356 -16.12658,22.118094 -29.90952,54.772744 -30.19192,88.322764 -0.14117,16.77136 5.44177,40.14706 8.21164,49.67021 1.67452,5.75721 5.91931,16.47525 11.8483,21.20596 3.81845,3.04672 9.56044,-14.17482 13.56698,-18.67886 27.79548,-31.24693 113.30233,26.44473 152.63131,45.59592 -0.25424,18.4151 0,34.32066 0,49.35807 0,3.47201 -19.88588,2.11357 -33.04602,1.09929 -33.3128,-2.56747 -66.93181,-6.17284 -86.61099,-14.23276 -10.34969,-4.23888 -13.61479,-13.97626 -14.27656,-23.05211 -0.4059,-5.56677 0.30671,-11.30688 7.74064,-15.56874 5.47941,-3.14133 4.9963,-12.2518 -2.21394,-11.63488 -2.61744,0.22395 -9.16771,2.0406 -9.62199,-0.52043 -0.57434,-3.23781 -0.25823,-7.03901 -0.39861,-12.97258 -0.1617,-6.83294 -11.48836,-4.77438 -11.8875,-0.82627 -3.83484,37.93182 -5.09835,99.47223 1.20763,128.03832 2.37056,10.73862 11.64652,15.71715 18.96559,20.2479 17.58298,10.88446 110.45128,25.98976 157.84124,25.36758 20.12117,-0.26417 25.68643,-0.64782 25.13951,-14.37021 -0.53722,-13.47897 3.70122,-71.74811 0.0541,-77.68357 -2.49687,-4.0635 -36.30989,1.56853 -36.30989,-3.16388 l -4e-5,-39.81791 z" /></svg>