<?xml version="1.0" encoding="UTF-8"?>
<svg xmlns="http://www.w3.org/2000/svg" xmlns:xlink="http://www.w3.org/1999/xlink" width="1000" height="600" viewBox="0 0 450 270">
<rect width="450" height="270" fill="#ffe00e"/>
<path d="M225,0H450V135H0V270H225z" fill="#d30214"/>
<g fill="#0479d0">
<rect width="450" height="70" y="100"/>
<path id="w" d="m0 94.286s16.4062-8.57143 28.125-8.57143c11.7187 0 18.75 8.57143 28.125 8.57143s18.75-8.57143 28.125-8.57143 18.75 8.57143 28.125 8.57143 18.75-8.57143 28.125-8.57143 18.75 8.57143 28.125 8.57143l10 11.25-10 11.25c-9.375 0-18.75-8.57143-28.125-8.57143s-18.75 8.57143-28.125 8.57143-18.75-8.57143-28.125-8.57143-18.75 8.57143-28.125 8.57143-16.4063-8.57143-28.125-8.57143c-11.7188 0-28.125 8.57143-28.125 8.57143z"/>
<use xlink:href="#w" y="22.5" fill="#fff"/>
<use xlink:href="#w" y="45"/>
<use xlink:href="#w" y="67.5" fill="#fff"/>
<g transform="matrix(-1,0,0,1,450,0)">
<use xlink:href="#w" y="0" fill="#fff"/>
<use xlink:href="#w" y="22.5"/>
<use xlink:href="#w" y="45" fill="#fff"/>
<use xlink:href="#w" y="67.5"/>
</g>
</g>
<use xlink:href="#ww" transform="rotate(180,225,135)"/>
<rect width="115" height="270" x="167.5"/>
<g id="e" fill="#fff" stroke-width="0.7601" stroke="#000">
<path d="m211.812 15.4805c-4.20389-0.0346-7.68041 0.244279-8.15036 1.6044-1.80311 5.06256 5.4259 14.1778 7.7653 21.8198 4.26291-7.69396 8.57232-15.3452 12.8352-23.0391-3.30112 0.026-8.24627-0.350445-12.4502-0.385055zm26.1196 0c-4.20389 0.0346-9.08484 0.411048-12.386 0.385055 4.26289 7.69396 8.50814 15.3452 12.771 23.0391 2.33939-7.64197 9.56843-16.7572 7.7653-21.8198-0.46996-1.36012-3.94647-1.639-8.15036-1.6044z"/>
<path d="m225.032 11.6299c-8.50395-0.000002-4.99236 14.7195-30.3553 30.8686-3.78788 2.42674-0.66831 9.0341 2.50287 8.15033-4.15889 3.0152-1.60405 8.658 2.50287 8.08616-4.36687 5.71848 3.71933 12.9818 8.08618 8.40704-3.53507 6.49828 8.49238 7.99331 8.85629 5.13407 1.08649 2.86444 6.42592 3.59385 8.34288 3.59385 1.91697 0 7.25637-0.729405 8.34289-3.59385 0.3639 2.85924 12.4555 1.36421 8.92046-5.13407 4.36685 4.57479 12.4531-2.68856 8.08618-8.40704 4.10692 0.571849 6.66178-5.07095 2.50287-8.08616 3.17118 0.883764 6.29073-5.7236 2.50286-8.15033-25.3629-16.149-21.9154-30.8686-30.2911-30.8686z"/>
<path d="m233.182 72.1477c-1.45465-9.66916-3.84507-19.3383-4.36397-29.0075m23.5526 7.31605c-5.99669-3.05211-9.49806-7.97573-13.6232-13.0553m11.1204 21.0131c-4.85325-4.63237-8.77072-10.8243-13.1561-16.2365m5.19825 24.5152c-4.27911-7.89363-6.0629-15.7873-9.09435-23.6809"/>
<path d="m216.815 72.1477c1.45465-9.66916 3.84507-19.3383 4.36397-29.0075m-23.5526 7.31605c5.99669-3.05211 9.49806-7.97573 13.6232-13.0553m-11.1204 21.0131c4.85325-4.63237 8.77072-10.8243 13.1561-16.2365m-5.19825 24.5152c4.27911-7.89363 6.0629-15.7873 9.09435-23.6809"/>
</g>
<use xlink:href="#e" y="91.25"/>
<use xlink:href="#e" y="182.5"/>
</svg>