<?xml version="1.0" encoding="UTF-8" standalone="no"?>
<svg
   xmlns:dc="http://purl.org/dc/elements/1.1/"
   xmlns:cc="http://creativecommons.org/ns#"
   xmlns:rdf="http://www.w3.org/1999/02/22-rdf-syntax-ns#"
   xmlns:svg="http://www.w3.org/2000/svg"
   xmlns="http://www.w3.org/2000/svg"
   id="svg2"
   version="1.1"
   x="0"
   y="0"
   width="400"
   height="500"
   viewBox="30.5 31.5 400 500"
   enable-background="new 30.5 31.5 412 533"
   xml:space="preserve"><metadata
     id="metadata4"><rdf:RDF><cc:Work
         rdf:about=""><dc:format>
          
          
          
          
          
          image/svg+xml
        
        
        
        
        
        </dc:format><dc:type
           rdf:resource="http://purl.org/dc/dcmitype/StillImage" /><dc:title></dc:title></cc:Work></rdf:RDF></metadata><defs
     id="defs6" /><path
     style="fill:#0085ca;fill-opacity:1"
     id="path8"
     d="M 230.67,530.86 C 156.35,476.94 105.41,408.84 74.93,322.7 47.29,244.6 36.2,149.95 41.02,33.35 l 0.02,-0.46 379.82,0 0.02,0.46 c 4.81,116.6 -6.28,211.24 -33.91,289.35 -30.48,86.14 -81.42,154.24 -155.74,208.16 l -0.28,0.2 -0.28,-0.2 z" /><path
     style="fill:#ffffff;fill-rule:evenodd;stroke:none;stroke-width:1px;stroke-linecap:butt;stroke-linejoin:round;stroke-opacity:1"
     d="m 138.31466,300.62262 c -3.1831,0.49423 -6.3662,0.58065 -9.5493,-0.15402 0.50808,-14.71372 4.74951,-33.35465 14.78601,-44.51206 5.04752,-5.61125 11.99723,-9.27637 18.63653,-9.39528 l 103.81011,-0.84711 2.46434,10.16538 c 3.3928,0.035 7.76057,-3.95856 7.77807,-9.01022 27.03067,-1.3624 58.75898,-0.62954 80.86098,0.61609 l -41.35462,25.49045 c -9.76414,6.01849 -22.56301,5.1984 -28.33986,3.6965 -6.63655,-1.72541 -7.67665,-9.96898 -10.55043,-10.24238 -1.98895,-0.18923 -4.79242,1.58534 -4.46661,4.31258 l 24.10428,201.76743 c -19.37627,21.72109 -44.0036,41.8529 -65.97818,58.38853 -24.81356,-18.01939 -45.47407,-36.36878 -65.40168,-57.38739 l 32.43462,-174.04593 c 1.07826,-5.78599 -2.89689,-5.4178 -5.98267,-4.43244 -3.76486,1.2022 -0.89648,12.89469 -1.42581,19.52876 -0.53645,6.72329 -14.66359,7.38786 -14.86303,0.23103 -0.14324,-5.14004 0.56327,-9.93858 0.61608,-16.89493 0.0269,-3.54366 -5.74703,-3.33779 -8.93094,-2.66573 -5.82586,1.22972 -5.71848,2.65446 -11.7826,8.24012 -3.30406,3.04337 -7.29824,4.12385 -11.82998,4.16403 -2.12666,-1.56928 -4.21552,-5.11382 -5.03531,-7.01341 z"
     id="path4622" /><path
     id="path10"
     d="M 419.96,33.21 C 429.03,252.66 383.7,419.16 230.5,530.31 77.31,419.16 31.99,252.66 41.06,33.21 l 189.45,0 189.45,0 m 0.92,-0.95 -0.92,0 -189.45,0 -189.45,0 -0.92,0 -0.04,0.92 c -4.82,116.66 6.28,211.36 33.93,289.52 30.51,86.24 81.51,154.41 155.91,208.39 l 0.56,0.41 0.56,-0.41 C 305.46,477.11 356.46,408.94 386.97,322.7 414.62,244.54 425.72,149.84 420.9,33.18 l -0.04,-0.92 0,0 z" /><circle
     r="4.9143419"
     cy="259.345"
     cx="230.5732"
     id="path4612"
     style="opacity:0.98000004;fill:#0085ca;fill-opacity:1;stroke:#000000;stroke-width:1;stroke-linecap:round;stroke-linejoin:round;stroke-miterlimit:4;stroke-dasharray:none;stroke-opacity:1" /><path
     id="path4614"
     d="m 165.1143,473.51112 32.43462,-174.04593 c 0.60853,-3.26538 -0.20862,-4.81009 -3.01742,-4.66662 -1.33514,0.0682 -2.31073,0.27938 -3.58133,1.31233 -3.06663,2.49304 -0.2804,11.81654 -0.80973,18.45061 -0.53645,6.72329 -14.66359,7.38786 -14.86303,0.23103 -0.14324,-5.14004 0.56327,-9.93858 0.61608,-16.89493 0.0269,-3.54366 -5.73547,-3.28049 -8.93094,-2.66573 -5.82586,1.12081 -5.71848,2.65446 -11.7826,8.24012 -3.30406,3.04337 -7.29824,4.12385 -11.82998,4.16403 -2.12666,-1.56928 -4.21552,-5.11382 -5.03531,-7.01341 -3.1831,0.49423 -6.3662,0.58065 -9.5493,-0.15402 0.50808,-14.71372 4.74951,-33.35465 14.78601,-44.51206 5.04752,-5.61125 11.99723,-9.27637 18.63653,-9.39528 l 103.81011,-0.84711 2.46434,10.16538 c 3.3928,0.035 7.76057,-3.95856 7.77807,-9.01022 27.03067,-1.3624 58.75898,-0.62954 80.86098,0.61609 l -41.35462,25.49045 c -9.76414,6.01849 -22.56301,5.1984 -28.33986,3.6965 -6.63655,-1.72541 -7.67665,-9.96898 -10.55043,-10.24238 -1.98895,-0.18923 -4.79242,1.58534 -4.46661,4.31258 l 24.10428,201.76743"
     style="fill:none;fill-rule:evenodd;stroke:#000000;stroke-width:1px;stroke-linecap:butt;stroke-linejoin:round;stroke-opacity:1" /><path
     id="path4616"
     d="m 134.00207,233.62351 c -22.58506,-3.28432 -39.69963,-10.74198 -53.53549,-37.28855 -10.9383,-20.98709 -18.9091,-45.82493 -18.22732,-74.12144 0.15997,-6.63939 13.10522,-6.02164 13.33602,0.49943 0.57117,16.13803 4.82708,28.69351 9.6131,34.51617 2.18585,2.6593 6.00141,2.98024 4.91772,-1.84825 -2.66299,-11.86529 -3.01614,-22.08167 -2.64554,-33.09469 0.77392,-22.998101 5.56917,-42.045575 6.79316,-44.611141 2.60675,-5.463903 15.68596,-2.119865 13.78261,6.112521 -2.02306,8.750175 -3.88923,32.14029 -2.10753,46.80117 1.62001,13.33041 5.00582,22.38734 8.99016,31.50526 2.09625,4.79715 9.02979,4.60159 8.77466,0.79654 -1.70397,-25.41339 6.07352,-46.89232 19.31641,-60.0308 4.90193,-4.863287 15.94993,2.77262 11.82225,10.26654 -7.36162,13.36522 -11.34792,28.50104 -9.30506,45.47809 0.48757,4.052 7.50569,7.28708 8.80561,0.62703 2.14055,-10.96695 6.01242,-20.76245 11.55158,-26.64562 4.81346,-5.1124 13.73225,2.3036 11.8596,7.393 -6.92657,18.82472 -10.39582,35.35881 -6.12346,54.95905 2.86561,13.14648 16.74677,24.71394 32.30702,27.13411 7.83067,1.21795 19.20369,2.46434 26.57243,2.46434 7.36874,0 18.74176,-1.24639 26.57243,-2.46434 15.56025,-2.42017 29.44141,-13.98763 32.30702,-27.13411 4.27236,-19.60024 0.80311,-36.13433 -6.12346,-54.95905 -1.87265,-5.0894 7.04614,-12.5054 11.8596,-7.393 5.53916,5.88317 9.41103,15.67867 11.55158,26.64562 1.29992,6.66005 8.31804,3.42497 8.80561,-0.62703 2.04286,-16.97705 -1.94344,-32.11287 -9.30506,-45.47809 -4.12768,-7.49392 6.92032,-15.129827 11.82225,-10.26654 13.24289,13.13848 21.02038,34.61741 19.31641,60.0308 -0.25513,3.80505 6.67841,4.00061 8.77466,-0.79654 3.98434,-9.11792 7.37015,-18.17485 8.99016,-31.50526 1.7817,-14.66088 -0.0845,-38.050995 -2.10753,-46.80117 -1.90335,-8.232386 11.17585,-11.576424 13.7826,-6.112521 1.224,2.565566 6.01925,21.61304 6.79316,44.611141 0.3706,11.01302 0.0175,21.2294 -2.64554,33.09469 -1.08368,4.82849 2.73188,4.50755 4.91773,1.84825 4.78602,-5.82266 9.04193,-18.37814 9.61309,-34.51617 0.2308,-6.52107 13.17606,-7.13882 13.33603,-0.49943 0.68178,28.29651 -7.28902,53.13435 -18.22732,74.12144 -13.83586,26.54657 -30.95043,34.00423 -53.53549,37.28855 -33.48983,4.87009 -68.03138,8.16311 -96.49793,8.16311 -28.46655,0 -63.0081,-3.29302 -96.49793,-8.16311 z"
     style="fill:#ffffff;fill-rule:evenodd;stroke:#000000;stroke-width:1px;stroke-linecap:butt;stroke-linejoin:miter;stroke-opacity:1" /></svg>