<svg xmlns:dc="http://purl.org/dc/elements/1.1/" xmlns:cc="http://creativecommons.org/ns#" xmlns:rdf="http://www.w3.org/1999/02/22-rdf-syntax-ns#" xmlns:svg="http://www.w3.org/2000/svg" xmlns="http://www.w3.org/2000/svg" xml:space="preserve" enable-background="new 30.5 31.5 412 533" viewBox="30.5 31.5 400 500" height="500" width="400" y="0" x="0" version="1.1" id="svg2">
  <metadata id="metadata4">
    <rdf:RDF>
      <cc:Work rdf:about="">
        <dc:format>
          
          
          
          image/svg+xml
        
        
        
        </dc:format>
        <dc:type rdf:resource="http://purl.org/dc/dcmitype/StillImage"/>
      </cc:Work>
    </rdf:RDF>
  </metadata>
  <defs id="defs6"/>
  <path fill="#fff" d="M230.44 531.14C156.12 477.22 105.18 409.12 74.7 322.98 47.06 244.88 35.97 150.23 40.79 33.63l0.02-0.46 379.82 0 0.02 0.46c4.81 116.6-6.28 211.24-33.91 289.35C356.26 409.12 305.32 477.22 231 531.14l-0.28 0.2-0.28-0.2z" id="path8" style="fill-opacity:1;fill:#e00e00"/>
  <path d="M419.96 33.21C429.03 252.66 383.7 419.16 230.5 530.31 77.31 419.16 31.99 252.66 41.06 33.21l189.45 0 189.45 0m0.92-0.95-0.92 0-189.45 0-189.45 0-0.92 0-0.04 0.92c-4.82 116.66 6.28 211.36 33.93 289.52 30.51 86.24 81.51 154.41 155.91 208.39l0.56 0.41 0.56-0.41C305.46 477.11 356.46 408.94 386.97 322.7 414.62 244.54 425.72 149.84 420.9 33.18l-0.04-0.92 0 0z" id="path10"/>
  <path id="path4817" d="m252.55 265.31c8.5-2 15.42-6.32 21.22-7.72 5.9 9.1 13.45 20.77 19.05 27.67-1.7 5.5-4.22 16.22-2.92 24.12 0.8 5.2 6.8 11.4 5.5 14.5-9.8 23.3-17.8 40.7-20.5 64.3-0.3 2.3-3.3 0.1-4.6 1.4-2.8 2.8-6.5 11.7-7.2 15.7-0.4 2.8-31.3 5.7-25.7-1.4 15.8-20 32.7-44.3 35.6-73.8 0.3-3-2.8-18.3-4.2-21-9.2-18.7-9.45-31.87-16.25-43.87z" style="fill:#fff;stroke:#000"/>
  <path id="path4283" d="m125.8 166.08c-3-9.4 3.5-15.7-4.8-35-4.3-8.9-17-1.6-20.4-6.1-0.9-1.3-2.3-3.4-3.2-3.7-2.8-1.1-2.3 2.9-5.4 2.1-3.3 0.6-5.8-4.6-6.9-8.9-1.6-5.9 1.8-13.8 7.7-18.4 8-6.2 8.8-4.8 14.1-3.7 0 0 14 5.4 23.6 6.1 5.4 0.4 10.8-1.1 10.8-1.1-10.3-8.7-22-7.8-35-15.1-6.5-3.6-14.3-17.3-15-22.3-0.3-2.4 3.2-2.5 4.4-0.2 5.3 10.7 19.1 10.9 17.9 6.5l-1.8-6.8c-0.7-2.4 3-1.7 4.4 0.6 5.4 9.2 6.6 13 18.5 11.5 3.4-0.4 8-6.4 7.9-12.5 0-2.6 2.7-3 3.3-1 0.7 2.5-2 6.3 4.1 5.9 8.5-0.5 10.9-6 11.5-9.9 0.5-3.1 3.6-4.3 3.6-1 0 4.4-1.2 6.9 3.4 6.2 6.3-0.9 7.4-3.3 8.6-6.3 1.1-2.8 3.8-2.6 3.5-0.4-0.6 4.3 0.3 8.3 3.5 7.5 9-2.3 8.8-6.9 11.3-10.7 0.3-0.5 3.5-2.4 3.5-0.2-0.5 15.5-17.8 33.6-44.8 41-2.9 0.8-1.2 8.2 5 8.9 4 0.5 9.1 2.1 12.5 1.8 3-0.2 2.5-2.3 3.4-3.2 2.8-3.1-8.3-6.3-4.9-10.2 1.4-1.6 15 4.5 24.8-0.9 11-6.1 14.8-15.3 15.6-27.2 0.3-3.5 3.5-4.3 4.1-0.9 0.5 2.6 0.2 7.4 4.4 7.1 6.6-0.4 8.4-4.3 9.6-7.7 1-3 3.6-3.6 3.5-0.6-0.1 3.8-1.7 9.4 2 8.9 8.4-1.2 10.7-5 11.5-9.1 0.8-4 4-5.8 4-0.8 0 3.4-0.5 8.5 2.8 8.5 11.5 0.2 13.4-6.4 17.6-13.3 2.4-4.1 5.2-4.1 4.7-1.5-6.7 33.8-37.9 51.5-57.3 59-5.7 2.2-22.1-0.9-32.4 2.7-4.3 1.5-10.3-1.2-13 0.5 3.1 6.8 32.5 2.1 44.2 21.6 1.3 2.2-7.1 1.8-8.8 2.2-1.9 0.4-3.9 0.4-6 0.1-9.8-1.5-21-9.5-23.1-8.6-2.4 1.1 17.1 11.2 22.2 17.1 7.1 8.1 18.7 11.3 25.5 21.4 1.9 2.8 51.4 15.2 76.1 19.3 6.9 1.1 15.3 15.1 20.9 23.4 3.4 5 7 11.4 6.3 24.3-1.2 22.5-9.5 28.1-7.4 41.2 2.1 12.7 9.1 27.3 15.7 36 1.5 1.9-0.9 4.7-2.2 11.6-6.3 33.4-1.4 67.6-5.5 66.7-2.4-0.5-2-1.2-4.9 1.4-3.7 4.5-3.9 10.6-7.5 15.3-3.2 4.2-29.8 4.8-24.5-2.1 17.1-22.1 21.6-33.2 24.3-58.9 4.01-38.81-28.87-55.72-43.47-83.69-14.78 3.2-28.85 6.95-40.98 8.44-6.02 0.72-12.42 1.23-19.06 1.45 3.1 11.1 2.5 30.7 3.8 50.3-0.1 7 0 20.2 2 34.8 1.4 10.1 5.9 28.3 0.7 28.4-0.9 0-2-0.8-2.4 2.7-1.2 11.2 0.6 12.9-4.7 18.5-3.9 4.1-26.1 3.8-24.2 0.5 5-8.5 8.3-11.4 12.6-20.2 10.8-38.3-10.9-77.5-13.9-112.6-0.2-2.1-3.5-2.1-3.4-0.1 0.7 20.7 3.1 37.1-0.6 56.1-1.2 6 6.4 57.6 2.2 56.2-2.2-0.7-3.8 0.4-4.4 2.8-1.8 8.2-4.8 17.4-9.6 18.9-3.3 1-24.2 2-22.8-1.2 2.1-4.7 8.8-9 12.6-16.3 19.6-29.8 3.1-60 1.3-78.8-1.9-19.1-5.4-34.5-5.6-48.1-3.6-3.1-6.5-4.4-8.2-7.7-3.9-7.5-2.6-19.9-3.8-28.2-2.4-16.5-1.3-33.2-6.7-50.5-4.4-14.2-7.9-5.2-13-10.4z" style="fill:#fff;stroke:#000"/>
  <path id="path4470" d="m143.1 108.88c7.7-3.1 9.2 4.8 8.6 5.4l-1.4-0.1c0 0-1.6 1-3.4 0.4-2.4-0.8-6.9-4.4-3.8-5.7z" style="fill-opacity:1;fill:#000"/>
  <path id="path4137" d="m273.83 260.49c-2.82-5.91-6.04-11.91-7.4-17.47" style="fill:none;stroke-linecap:round;stroke:#000"/>
</svg>
