<?xml version="1.0" encoding="UTF-8" standalone="no"?>
<svg
   xmlns:dc="http://purl.org/dc/elements/1.1/"
   xmlns:cc="http://creativecommons.org/ns#"
   xmlns:rdf="http://www.w3.org/1999/02/22-rdf-syntax-ns#"
   xmlns:svg="http://www.w3.org/2000/svg"
   xmlns="http://www.w3.org/2000/svg"
   xml:space="preserve"
   enable-background="new 30.5 31.5 412 533"
   viewBox="30.5 31.5 420 500"
   height="500"
   width="420"
   y="0"
   x="0"
   version="1.1"
   id="svg2"><metadata
     id="metadata4"><rdf:RDF><cc:Work
         rdf:about=""><dc:format>
          
          
          
          
          image/svg+xml
        
        
        
        
        </dc:format><dc:type
           rdf:resource="http://purl.org/dc/dcmitype/StillImage" /><dc:title></dc:title></cc:Work></rdf:RDF></metadata><defs
     id="defs6" /><path
     style="fill:#0085ca;fill-opacity:1;fill-rule:evenodd"
     d="m 41,32.7 c -2.09,102.46 3.38,187.49 43.93,296.59 28.05,75.48 74.21,144.77 155.57,201.59 C 321.86,474.06 368.02,404.77 396.07,329.29 436.62,220.19 442.09,135.16 440,32.7 c -133,0.29 -266,0 -399,0 z"
     id="path4218" /><path
     style="fill:none;stroke:#000000"
     id="path4224"
     d="m 41,32.7 c -2.09,102.46 3.38,187.49 43.93,296.59 28.05,75.48 74.21,144.77 155.57,201.59 C 321.86,474.06 368.02,404.77 396.07,329.29 436.62,220.19 442.09,135.16 440,32.7 c -133,0.29 -266,0 -399,0 z" /><path
     style="fill:#ffffff;stroke:#000000;stroke-opacity:1"
     id="path2827"
     d="m 240.5,452.81791 c 13.86012,-0.98732 4.70853,-27.18737 10.45487,-28.86606 11.6212,-3.39493 17.38374,-4.93054 16.31573,-17.3075 -0.28809,-3.33868 -3.17121,-1.93671 -2.26149,-5.44468 9.38127,-36.17488 21.47618,-95.78448 54.23918,-123.53841 10.04458,-8.50889 30.35376,-1.42136 32.8067,5.81129 3.61164,10.64919 -1.70927,22.00163 -10.73504,28.11738 -4.55299,3.08504 -11.91855,-6.10164 -16.68605,-6.48636 -7.79473,-0.62901 -14.1501,3.47676 -15.68868,10.63966 -0.58045,2.70229 7.54752,5.62162 4.1347,9.14071 0,0 -11.97091,14.5408 -15.34959,22.5095 -3.68966,8.70216 -1.79427,22.44363 14.25523,21.26909 10.51442,-0.76946 26.19843,-23.19456 28.96747,-21.17936 l 5.88292,4.28136 c 6.78309,4.93646 10.36475,-9.92505 8.94018,-17.93411 -1.59003,-8.93933 -11.81659,-12.42933 -6.6829,-18.06906 8.26513,-9.07984 11.26046,-13.01602 11.0749,-28.28953 -0.16921,-13.92834 -22.71531,-26.86503 -39.30974,-19.04077 -17.08085,8.0536 -34.31695,34.50636 -48.34201,80.63847 -4.45019,14.63782 -9.25204,31.12174 -12.76234,49.80051 -1.00411,5.34299 -5.54702,5.68502 -5.30051,0 0.80184,-18.49208 2.66965,-37.65751 9.44671,-60.23091 10.82235,-36.04768 27.94486,-73.11136 50.39889,-88.08442 4.27675,-2.85188 9.45371,-8.9342 14.07283,-8.34637 11.92047,1.51702 8.37591,-3.6154 13.60457,-8.27797 3.36455,-3.00027 10.95203,-2.48938 16.64233,-0.80853 5.82627,1.72101 11.80123,-5.12912 6.86278,-7.11143 -3.71808,-1.49246 -1.77303,-6.1716 3.16017,-6.70227 14.55731,-1.56597 30.78399,-12.66008 20.90834,-18.95555 -9.25608,-5.90052 5.53528,-14.54419 14.48212,-22.00929 4.81994,-4.02168 16.92612,-18.17217 10.82712,-24.17313 -6.45017,-6.34649 -6.10243,-6.45024 1.21327,-21.00046 4.1088,-8.17198 -15.62221,-17.73071 -24.28453,-8.22238 -7.16564,7.86548 -7.23923,8.90468 -13.51699,7.98545 -8.76388,-1.28327 -15.70748,4.19373 -17.90192,13.11409 -1.87679,7.62916 0.0651,13.37731 -3.79397,15.32567 -5.9307,2.99424 -11.08347,-7.55893 -20.12606,-2.05114 -9.86898,6.01114 2.45329,33.49559 -5.35309,34.25086 -1.91819,0.0664 -7.458,-2.49352 -12.91322,0.80985 -3.81899,2.31256 -4.74383,4.68075 -3.652,11.68558 1.97711,12.68457 1.98684,18.07164 -3.86217,18.93661 -7.50498,1.10986 -2.60454,17.77422 -6.57089,22.26803 -22.13123,25.07433 -37.4715,57.15271 -45.63405,88.58132 -5.87486,22.62024 -8.11988,41.28278 -9.85894,63.1579 -0.39036,4.91028 -4.10524,4.77688 -4.4163,-0.42718 -0.62537,-10.46239 0.36252,-22.43795 0.42212,-36.51597 0.0954,-22.546 1.0979,-43.93583 1.0919,-47.22676 -0.0232,-11.76763 2.43236,-11.61155 4.52189,-13.88699 2.14197,-2.33255 6.58103,-6.62324 3.23708,-17.52102 -1.97434,-6.43427 8.05539,-12.03095 13.45357,-14.70221 4.29613,-2.12592 1.16796,-5.08685 -0.78412,-4.73293 -5.16006,0.93554 -12.77765,-2.94469 -3.51296,-11.37467 18.49649,-16.83004 43.71012,-37.63889 32.91608,-53.35895 -5.80489,-8.45403 -10.55506,2.64089 -15.82267,2.81785 -2.69653,0.0906 -5.01936,-3.34699 -2.43734,-7.2526 4.09543,-6.19482 12.84119,-14.58231 17.53134,-20.96025 7.48859,-10.18342 13.4892,-26.4061 8.07514,-40.75511 -2.12166,-5.62307 -7.04744,-10.52553 -10.49063,-11.76592 -8.14421,-2.93391 -4.27169,9.02627 -7.60511,13.40541 -1.66828,2.19162 -6.69832,-0.599 -7.46691,-4.90786 -1.01462,-5.6881 2.86374,-14.40604 4.70513,-17.02424 6.72766,-9.56583 8.96807,-24.57958 0.97803,-30.569294 -6.27442,-4.703599 -13.41025,2.216141 -15.41007,2.908371 -3.30904,1.145411 -5.5113,1.873875 -5.75069,-3.339016 C 261.18698,67.595553 255.73654,53.428912 240.5,53.207024 c -22.42171,-0.326525 -21.60785,14.346671 -21.34031,28.615187 0.0978,5.217468 -2.44165,4.484427 -5.75069,3.339016 -1.99982,-0.69223 -9.13565,-7.61197 -15.41007,-2.908371 -7.99004,5.989714 -5.74963,21.003464 0.97803,30.569294 1.84139,2.6182 2.32502,9.17586 1.3104,14.86396 -0.76859,4.30886 -7.65031,3.70474 -9.31859,1.51312 -3.33342,-4.37914 -1.50525,-13.09219 -8.22233,-12.17096 -8.26299,1.13324 -8.31662,11.77119 -8.31253,19.90985 0.007,13.17951 8.22609,27.4779 14.38387,35.85161 4.69015,6.37794 11.89285,14.61112 15.98828,20.80594 2.58202,3.90561 0.87642,8.57764 -1.82011,8.48705 -5.26761,-0.17696 -7.71438,-12.12558 -14.58823,-4.51522 -7.09069,7.85046 8.72765,38.32396 26.43523,55.98216 7.36497,7.34442 1.46637,9.25307 0.0361,10.44883 -1.52206,1.27248 -5.08025,2.60701 -0.78412,4.73293 5.39818,2.67126 9.35408,9.05232 9.28731,15.78235 -0.10353,10.43486 3.4097,13.18249 5.55167,15.51504 2.08953,2.27544 6.3968,3.0452 6.37356,14.81283 -0.006,3.29093 0.9965,24.68076 1.0919,47.22676 0.0596,14.07802 1.04749,26.05358 0.42212,36.51597 -0.31106,5.20406 -4.02594,5.33746 -4.4163,0.42718 -1.73906,-21.87512 -3.98408,-40.53766 -9.85894,-63.1579 -8.16255,-31.42861 -20.2295,-65.25276 -45.19761,-90.10887 -4.24781,-4.22876 -0.37524,-22.68572 -7.88022,-23.79558 -5.84901,-0.86497 -6.77775,-6.48066 -4.73505,-19.15483 1.12733,-6.99469 0.4296,-23.57592 -7.14355,-26.96109 -5.82224,-2.60253 -2.70785,17.58252 -7.6759,17.73898 -11.16839,0.35173 1.7519,-37.78872 -13.77857,-45.95685 -5.06914,-2.66607 -6.3496,11.10695 -13.22813,7.21048 -3.76148,-2.13076 -3.19253,-7.4921 -3.79397,-15.32567 -1.32155,-17.21278 -8.87671,-17.17508 -16.37437,-12.45942 -4.958213,3.11847 -6.50435,5.15331 -13.51699,-2.09347 -8.94462,-9.24326 -22.558733,-0.56586 -18.828991,7.78594 5.133484,11.49512 4.82656,13.9993 1.431492,17.72713 -5.761247,6.32593 2.157728,19.77233 7.772018,27.44646 3.854021,5.26803 12.904045,7.64117 16.341667,10.7889 2.441083,2.23522 1.54752,6.15159 -3.823541,7.2924 -11.456032,2.43326 8.751465,20.6629 23.308775,22.22887 4.9332,0.53067 6.87825,5.20981 3.16017,6.70227 -4.93845,1.98231 1.03651,8.83244 6.86278,7.11143 5.6903,-1.68085 13.27778,-2.19174 16.64233,0.80853 5.22866,4.66257 1.6841,9.79499 13.60457,8.27797 4.61912,-0.58783 9.14142,6.80382 13.41817,9.6557 22.45403,14.97306 37.1761,51.81852 47.99845,87.8662 6.77706,22.5734 8.64487,41.73883 9.44671,60.23091 0.24651,5.68502 -4.2964,5.34299 -5.30051,0 -3.5103,-18.67877 -8.31215,-35.16269 -12.76234,-49.80051 -14.02506,-46.13211 -31.26116,-72.58486 -48.34201,-80.63847 -8.70165,-4.10282 -19.0398,-2.49709 -26.92993,1.96676 -19.68449,13.60167 -12.94895,29.44914 -3.45324,39.82646 5.14836,5.62635 -6.17301,8.66681 -7.76304,17.60614 -1.42457,8.00906 6.68858,19.30207 10.79185,16.23674 l 5.11139,-3.81844 c 2.74365,-2.04963 15.82985,19.79268 26.34427,20.56214 16.0495,1.17454 17.17336,-12.10401 13.4837,-20.80617 -3.37868,-7.9687 -14.26945,-18.03463 -14.26945,-18.03463 -3.41282,-3.51909 5.17807,-8.29009 4.59762,-10.99238 -1.53858,-7.1629 -7.27673,-11.73159 -15.07146,-11.10258 -4.7675,0.38472 -13.06888,9.87512 -16.99466,6.02344 -8.78628,-5.92394 -12.9669,-21.96671 -0.46129,-28.64546 7.46626,-3.90737 19.29077,-5.46534 26.22434,0.40818 32.76299,27.75394 44.85791,87.36353 54.23918,123.53841 0.90972,3.50797 -1.9734,2.106 -2.26149,5.44468 -1.06801,12.37696 4.69453,13.91257 16.31573,17.3075 5.74634,1.67869 -3.40525,27.87874 10.45487,28.86606" /></svg>