<?xml version="1.0" encoding="UTF-8" standalone="no"?>
<svg
   xmlns:dc="http://purl.org/dc/elements/1.1/"
   xmlns:cc="http://creativecommons.org/ns#"
   xmlns:rdf="http://www.w3.org/1999/02/22-rdf-syntax-ns#"
   xmlns:svg="http://www.w3.org/2000/svg"
   xmlns="http://www.w3.org/2000/svg"
   xml:space="preserve"
   enable-background="new 30.5 31.5 412 533"
   viewBox="30.5 31.5 400 500"
   height="500"
   width="400"
   y="0"
   x="0"
   version="1.1"
   id="svg2"><metadata
     id="metadata4"><rdf:RDF><cc:Work
         rdf:about=""><dc:format>
          
          image/svg+xml
        
        </dc:format><dc:type
           rdf:resource="http://purl.org/dc/dcmitype/StillImage" /><dc:title></dc:title></cc:Work></rdf:RDF></metadata><defs
     id="defs6" /><path
     style="fill:#ffe000"
     d="M 230.55,531.13 C 304.87,477.21 355.81,409.11 386.29,322.97 413.93,244.87 425.02,150.22 420.2,33.62 l -0.02,-0.46 -379.82,0 -0.02,0.46 c -4.81,116.6 6.28,211.24 33.91,289.35 30.48,86.14 81.42,154.24 155.74,208.16 l 0.28,0.2 0.28,-0.2 z"
     id="path8" /><path
     d="m 41.04,33.21 c -9.07,219.45 36.25,385.95 189.45,497.1 84.47,-61.29 136.15,-139.41 163.99,-233.97 2.09,-7.09 4.04,-14.27 5.87,-21.54 11.45,-45.69 17.77,-95.02 19.88,-147.94 1.2,-30.06 1.05,-61.28 -0.29,-93.65 l -189.45,0 -189.45,0 m -0.92,-0.95 0.92,0 189.45,0 189.45,0 0.92,0 0.04,0.92 c 4.82,116.66 -6.28,211.36 -33.93,289.52 -30.51,86.24 -81.51,154.41 -155.91,208.39 l -0.56,0.41 -0.56,-0.41 C 155.54,477.11 104.54,408.94 74.03,322.7 46.38,244.54 35.28,149.84 40.1,33.18 l 0.04,-0.92 0,0 z"
     id="path10" /><path
     style="fill:#e00e00;fill-opacity:1;stroke:#000000;stroke-opacity:1"
     id="path3650"
     d="m 93.56421,201.26941 c -10.25792,4.93526 -13.04207,17.25165 -8.89517,29.21362 0.90193,2.60166 5.1298,4.51485 8.52064,4.4944 l 112.36005,-0.0936 c 2.3328,-0.002 6.72518,-3.57272 6.92886,-5.80527 0.66161,-7.25182 3.06204,-21.65908 -9.73787,-27.90273 -10.54936,-45.84914 -22.3042,-76.39365 -18.16487,-86.98541 5.29005,-13.53621 12.68561,-8.59451 16.29254,-0.46832 1.35503,3.05278 -0.46041,5.15301 0.63299,6.18601 1.59582,1.50764 4.17035,3.35887 1.9884,5.33105 -2.18387,1.97392 -3.18065,4.49175 -2.71536,6.83524 0.97626,4.91706 3.51318,15.56913 5.99254,20.59934 1.97614,4.00928 18.04216,-1.71784 18.63303,-4.77529 0.69354,-3.58871 -1.29071,-13.69649 -4.40076,-20.78662 -1.97201,-4.49568 -4.41842,-4.66128 -5.99254,-4.7753 -2.92795,-0.21206 0.12836,-5.94585 -1.02476,-7.14467 -1.77252,-1.84275 -3.44019,-1.77989 -4.55393,-4.1537 -4.64134,-9.89252 -8.94229,-20.244511 -18.48508,-25.312267 -45.21543,-24.011899 -61.92133,19.317667 -70.78683,37.078817 -13.23716,26.51935 -16.34063,59.15431 -26.59188,78.46475 z" /><path
     style="fill:#e00e00;fill-opacity:1;stroke:#000000;stroke-opacity:1"
     id="path3656"
     d="m 251.73359,201.26941 c -10.25792,4.93526 -13.04208,17.25165 -8.89518,29.21362 0.90194,2.60166 5.1298,4.51485 8.52064,4.4944 l 112.36004,-0.0936 c 2.3328,-0.002 6.72518,-3.57272 6.92886,-5.80527 0.66162,-7.25182 3.06205,-21.65908 -9.73787,-27.90273 -10.54936,-45.84914 -22.3042,-76.39365 -18.16487,-86.98541 5.29005,-13.53621 12.68561,-8.59451 16.29255,-0.46832 1.35502,3.05278 -0.46041,5.15301 0.63299,6.18601 1.59582,1.50764 4.17034,3.35887 1.9884,5.33105 -2.18387,1.97392 -3.18065,4.49175 -2.71536,6.83524 0.97626,4.91706 3.51318,15.56913 5.99253,20.59934 1.97615,4.00928 18.04216,-1.71784 18.63304,-4.77529 0.69354,-3.58871 -1.29071,-13.69649 -4.40077,-20.78662 -1.972,-4.49568 -4.41841,-4.66128 -5.99253,-4.7753 -2.92796,-0.21206 0.12836,-5.94585 -1.02477,-7.14467 -1.77252,-1.84275 -3.44018,-1.77989 -4.55392,-4.1537 -4.64134,-9.89252 -8.94229,-20.244511 -18.48509,-25.312267 -45.21542,-24.011899 -61.92133,19.317667 -70.78682,37.078817 -13.23716,26.51935 -16.34063,59.15431 -26.59187,78.46475 z" /><path
     style="fill:#e00e00;fill-opacity:1;stroke:#000000;stroke-opacity:1"
     id="path3658"
     d="m 173.11664,379.37404 c -10.53132,5.0668 -13.38969,17.71147 -9.13224,29.99226 0.92595,2.67099 5.26651,4.63518 8.74773,4.61419 l 115.35482,-0.0961 c 2.39497,-0.002 6.90443,-3.66795 7.11353,-5.96 0.67926,-7.4451 3.14365,-22.23637 -9.99742,-28.64644 -10.83053,-47.07116 -22.89869,-78.42978 -18.64902,-89.30386 5.43105,-13.89699 13.02372,-8.82358 16.7268,-0.4808 1.39113,3.13416 -0.47268,5.29036 0.64987,6.35088 1.63834,1.54783 4.28149,3.4484 2.04138,5.47314 -2.24208,2.02655 -3.26542,4.61149 -2.78772,7.01744 1.00226,5.04812 3.60681,15.98409 6.15225,21.14838 2.02881,4.11613 18.52304,-1.76363 19.12966,-4.90259 0.71203,-3.68436 -1.3251,-14.06153 -4.51805,-21.34064 -2.02457,-4.61549 -4.53619,-4.78551 -6.15227,-4.90257 -3.00598,-0.21771 0.1318,-6.10433 -1.05208,-7.3351 -1.81975,-1.89187 -3.53187,-1.82734 -4.6753,-4.2644 -4.76503,-10.15619 -9.18063,-20.78411 -18.97776,-25.98693 -46.42057,-24.65191 -63.57176,19.83254 -72.67354,38.06709 -13.58997,27.22617 -16.77616,60.73095 -27.30065,80.55609 z" /></svg>