<?xml version="1.0" encoding="UTF-8" standalone="no"?>
<svg
   xmlns:dc="http://purl.org/dc/elements/1.1/"
   xmlns:cc="http://creativecommons.org/ns#"
   xmlns:rdf="http://www.w3.org/1999/02/22-rdf-syntax-ns#"
   xmlns:svg="http://www.w3.org/2000/svg"
   xmlns="http://www.w3.org/2000/svg"
   id="svg2"
   version="1.1"
   x="0"
   y="0"
   width="400"
   height="500"
   viewBox="30.5 31.5 400 500"
   enable-background="new 30.5 31.5 412 533"
   xml:space="preserve"><metadata
     id="metadata4"><rdf:RDF><cc:Work
         rdf:about=""><dc:format>
          
          
          
          image/svg+xml
        
        
        
        </dc:format><dc:type
           rdf:resource="http://purl.org/dc/dcmitype/StillImage" /><dc:title></dc:title></cc:Work></rdf:RDF></metadata><defs
     id="defs6" /><path
     style="fill:#0085ca;fill-opacity:1"
     id="path8"
     d="M 230.56,531.14 C 304.88,477.22 355.82,409.12 386.3,322.98 413.94,244.88 425.03,150.23 420.21,33.63 l -0.02,-0.46 -379.82,0 -0.02,0.46 c -4.81,116.6 6.28,211.24 33.91,289.35 30.48,86.14 81.42,154.24 155.74,208.16 l 0.28,0.2 0.28,-0.2 z" /><path
     id="path10"
     d="M 41.04,33.21 C 31.97,252.66 77.3,419.16 230.5,530.31 383.69,419.16 429.01,252.66 419.94,33.21 l -189.45,0 -189.45,0 m -0.92,-0.95 0.92,0 189.45,0 189.45,0 0.92,0 0.04,0.92 c 4.82,116.66 -6.28,211.36 -33.93,289.52 -30.51,86.24 -81.51,154.41 -155.91,208.39 l -0.56,0.41 -0.56,-0.41 C 155.54,477.11 104.54,408.94 74.03,322.7 46.38,244.54 35.28,149.84 40.1,33.18 l 0.04,-0.92 0,0 z" /><path
     id="path4312"
     d="m 207.64163,268.09724 c -7.37983,-11.91941 -25.73798,-31.20563 -22.29377,-35.29535 2.33185,-2.76889 23.1745,9.57858 40.70192,18.30227 -20.1578,-17.33481 -50.1739,-31.36288 -52.53309,-47.83859 -3.20969,-22.41532 5.57037,-39.89136 23.43317,-48.73785 20.0228,-9.91623 38.23538,-8.02374 56.98746,-14.57966 7.19226,-2.51449 -79.91798,-6.43054 -86.37215,0.81798 l -13.84524,15.54925 -5.76357,-26.17938 c -1.94442,-8.83198 40.48347,-37.160189 67.97684,-52.963061 -43.97753,3.027341 -96.73879,36.438631 -103.60723,47.646861 8.04023,7.79028 14.70928,18.28029 10.43613,37.92698 -19.38687,1.17189 -26.403472,2.77052 -30.540245,18.13459 l 2.237208,7.1745 c 8.424937,-3.24879 19.020957,-2.04379 23.959097,1.8777 28.02503,22.25533 57.47654,45.06325 89.22347,78.16376 z"
     style="fill:#ffffff;fill-rule:evenodd;stroke:#000000;stroke-width:1px;stroke-linecap:round;stroke-linejoin:round;stroke-opacity:1" /><path
     id="path4314"
     d="m 82.347282,193.84166 12.111781,-5.78588 -2.237208,-7.1745 z"
     style="fill:#e00e00;fill-opacity:1;fill-rule:evenodd;stroke:#000000;stroke-width:1px;stroke-linecap:round;stroke-linejoin:miter;stroke-opacity:1" /><path
     style="fill:#ffffff;fill-rule:evenodd;stroke:#000000;stroke-width:1px;stroke-linecap:round;stroke-linejoin:round;stroke-opacity:1"
     d="m 353.64163,264.09724 c -7.37983,-11.91941 -25.73798,-31.20563 -22.29377,-35.29535 2.33185,-2.76889 23.1745,9.57858 40.70192,18.30227 -20.1578,-17.33481 -50.1739,-31.36288 -52.53309,-47.83859 -3.20969,-22.41532 5.57037,-39.89136 23.43317,-48.73785 20.0228,-9.91623 38.23538,-8.02374 56.98746,-14.57966 7.19226,-2.51449 -79.91798,-6.43054 -86.37215,0.81798 l -13.84524,15.54925 -5.76357,-26.17938 c -1.94442,-8.83198 40.48347,-37.160189 67.97684,-52.963061 -43.97753,3.027341 -96.73879,36.438631 -103.60723,47.646861 8.04023,7.79028 14.70928,18.28029 10.43613,37.92698 -19.38687,1.17189 -26.40347,2.77052 -30.54024,18.13459 l 2.2372,7.1745 c 8.42494,-3.24879 19.02096,-2.04379 23.9591,1.8777 28.02503,22.25533 57.47654,45.06325 89.22347,78.16376 z"
     id="path4399" /><path
     style="fill:#e00e00;fill-opacity:1;fill-rule:evenodd;stroke:#000000;stroke-width:1px;stroke-linecap:round;stroke-linejoin:miter;stroke-opacity:1"
     d="m 228.34728,189.84166 12.11178,-5.78588 -2.2372,-7.1745 z"
     id="path4401" /><path
     id="path4403"
     d="m 277.70827,443.89346 c -7.37983,-11.91941 -25.73798,-31.20563 -22.29377,-35.29535 2.33185,-2.76889 23.1745,9.57858 40.70192,18.30227 -20.1578,-17.33481 -50.1739,-31.36288 -52.53309,-47.83859 -3.20969,-22.41532 5.57037,-39.89136 23.43317,-48.73785 20.0228,-9.91623 38.23538,-8.02374 56.98746,-14.57966 7.19226,-2.51449 -79.91798,-6.43054 -86.37215,0.81798 l -13.84524,15.54925 -5.76357,-26.17938 c -1.94442,-8.83198 40.48347,-37.16019 67.97684,-52.96306 -43.97753,3.02734 -96.73879,36.43863 -103.60723,47.64686 8.04023,7.79028 14.70928,18.28029 10.43613,37.92698 -19.38687,1.17189 -26.40347,2.77052 -30.54024,18.13459 l 2.2372,7.1745 c 8.42494,-3.24879 19.02096,-2.04379 23.9591,1.8777 28.02503,22.25533 57.47654,45.06325 89.22347,78.16376 z"
     style="fill:#ffffff;fill-rule:evenodd;stroke:#000000;stroke-width:1px;stroke-linecap:round;stroke-linejoin:round;stroke-opacity:1" /><path
     id="path4405"
     d="m 152.41392,369.63788 12.11178,-5.78588 -2.2372,-7.1745 z"
     style="fill:#e00e00;fill-opacity:1;fill-rule:evenodd;stroke:#000000;stroke-width:1px;stroke-linecap:round;stroke-linejoin:miter;stroke-opacity:1" /></svg>