<svg xmlns:dc="http://purl.org/dc/elements/1.1/" xmlns:cc="http://creativecommons.org/ns#" xmlns:rdf="http://www.w3.org/1999/02/22-rdf-syntax-ns#" xmlns:svg="http://www.w3.org/2000/svg" xmlns="http://www.w3.org/2000/svg" xml:space="preserve" enable-background="new 30.5 31.5 412 533" viewBox="30.5 31.5 400 500" height="500" width="400" y="0" x="0" version="1.1" id="svg2">
  <metadata id="metadata4">
    <rdf:RDF>
      <cc:Work rdf:about="">
        <dc:format>
          
          
          
          image/svg+xml
        
        
        
        </dc:format>
        <dc:type rdf:resource="http://purl.org/dc/dcmitype/StillImage"/>
      </cc:Work>
    </rdf:RDF>
  </metadata>
  <defs id="defs6"/>
  <path d="M230.56 531.14C304.88 477.22 355.82 409.12 386.3 322.98 413.94 244.88 425.03 150.23 420.21 33.63l-0.02-0.46-379.82 0-0.02 0.46c-4.81 116.6 6.28 211.24 33.91 289.35 30.48 86.14 81.42 154.24 155.74 208.16l0.28 0.2 0.28-0.2z" id="path8" fill="#e00e00"/>
  <path id="path2827" d="m380.98 70.19-1.75 16.97c-7.4 1.77-11.14 7.35-12.08 12.75-0.98 5.59 1.55 12.32 6.78 15.38-7.65 51.77-13.79 79.67-30.13 110.06-14.48 26.93-50.97 59.01-88.7 56.6-75.82-4.84-75.94-97.27-51-205.57l-144.84 0.88c16.44 133.91 66.36 269.8 178.67 277.13 66.97 4.37 126.74-70.1 139.42-139.75 5.35-29.38 6.44-74.2 9.43-97.28 8.74-3.35 10.93-9.68 11.14-14.65 0.21-4.84-2.33-11.35-9.55-14.78 0.12-5.09 0.45-11.95 0.67-17.83z" style="fill:#ffe000;stroke-miterlimit:4;stroke:#000"/>
  <path d="M41.04 33.21C31.97 252.66 77.3 419.16 230.5 530.31 383.69 419.16 429.01 252.66 419.94 33.21l-189.45 0-189.45 0m-0.92-0.95 0.92 0 189.45 0 189.45 0 0.92 0 0.04 0.92c4.82 116.66-6.28 211.36-33.93 289.52-30.51 86.24-81.51 154.41-155.91 208.39l-0.56 0.41-0.56-0.41C155.54 477.11 104.54 408.94 74.03 322.7 46.38 244.54 35.28 149.84 40.1 33.18l0.04-0.92 0 0z" id="path10"/>
  <path id="path3318" d="m72.24 113.62 5.01 8.25 4.32-8.16" style="fill:none;stroke-linecap:round;stroke-linejoin:round;stroke-miterlimit:4;stroke:#000"/>
  <path id="path4098" d="m91.5 113.62 5.01 8.25 4.32-8.16" style="fill:none;stroke-linecap:round;stroke-linejoin:round;stroke-miterlimit:4;stroke:#000"/>
  <path id="path4100" d="m112.03 113.62 5.01 8.25 4.32-8.16" style="fill:none;stroke-linecap:round;stroke-linejoin:round;stroke-miterlimit:4;stroke:#000"/>
  <path id="path4102" d="m134.93 113.62 5.01 8.25 4.32-8.16" style="fill:none;stroke-linecap:round;stroke-linejoin:round;stroke-miterlimit:4;stroke:#000"/>
  <path id="path4104" d="m155.27 113.62 5.01 8.25 4.32-8.16" style="fill:none;stroke-linecap:round;stroke-linejoin:round;stroke-miterlimit:4;stroke:#000"/>
  <path id="path4106" d="m176.59 113.62 5.01 8.25 4.32-8.16" style="fill:none;stroke-linecap:round;stroke-linejoin:round;stroke-miterlimit:4;stroke:#000"/>
</svg>
