<?xml version="1.0" encoding="UTF-8" standalone="no"?>
<svg
   xmlns:dc="http://purl.org/dc/elements/1.1/"
   xmlns:cc="http://creativecommons.org/ns#"
   xmlns:rdf="http://www.w3.org/1999/02/22-rdf-syntax-ns#"
   xmlns:svg="http://www.w3.org/2000/svg"
   xmlns="http://www.w3.org/2000/svg"
   id="svg2"
   version="1.1"
   x="0"
   y="0"
   width="400"
   height="500"
   viewBox="30.5 31.5 400 500"
   enable-background="new 30.5 31.5 412 533"
   xml:space="preserve"><metadata
     id="metadata4"><rdf:RDF><cc:Work
         rdf:about=""><dc:format>
          
          
          
          
          
          image/svg+xml
        
        
        
        
        
        </dc:format><dc:type
           rdf:resource="http://purl.org/dc/dcmitype/StillImage" /><dc:title></dc:title></cc:Work></rdf:RDF></metadata><defs
     id="defs6" /><path
     style="fill:#0085ca;fill-opacity:1"
     id="path8"
     d="M 230.33,530.86 C 304.65,476.94 355.59,408.84 386.07,322.7 413.71,244.6 424.8,149.95 419.98,33.35 l -0.02,-0.46 -379.82,0 -0.02,0.46 c -4.81,116.6 6.28,211.24 33.91,289.35 30.48,86.14 81.42,154.24 155.74,208.16 l 0.28,0.2 0.28,-0.2 z" /><path
     id="path10"
     d="M 41.04,33.21 C 31.97,252.66 77.3,419.16 230.5,530.31 383.69,419.16 429.01,252.66 419.94,33.21 l -189.45,0 -189.45,0 m -0.92,-0.95 0.92,0 189.45,0 189.45,0 0.92,0 0.04,0.92 c 4.82,116.66 -6.28,211.36 -33.93,289.52 -30.51,86.24 -81.51,154.41 -155.91,208.39 l -0.56,0.41 -0.56,-0.41 C 155.54,477.11 104.54,408.94 74.03,322.7 46.38,244.54 35.28,149.84 40.1,33.18 l 0.04,-0.92 0,0 z" /><path
     style="fill:#ffe000;fill-opacity:1;fill-rule:evenodd;stroke:#000000;stroke-width:1px;stroke-linecap:butt;stroke-linejoin:miter;stroke-opacity:1"
     d="m 169.55344,363.92522 c -9.77331,0 -21.99967,3.36593 -21.99967,15.10183 l 0,8.49492 -13.72256,0 -2.61383,-36.22647 -4.73526,-93.65468 c -0.13912,-2.75155 -6.92203,-1.89693 -10.38304,-2.8454 -4.31149,-1.18153 7.56938,-41.54833 11.12708,-63.00345 0.39337,-2.37227 -7.07639,-4.44584 -6.46407,-6.83908 2.37776,-9.29339 5.09753,-18.57244 6.20783,-28.10071 0.5152,-4.42128 0.19476,-13.35218 0.19476,-13.35218 0.0396,-2.71454 -1.95747,-6.55252 -6.83822,-8.86531 -8.24813,4.0362 -25.52321,-0.88755 -22.05183,-3.13469 l 9.9629,-6.44932 c 1.47028,-0.95176 -18.34864,-6.73495 -20.12301,-5.51424 -0.89606,0.61646 -6.73913,4.92819 -10.26267,6.93006 l -6.02843,-3.27645 4.66988,-6.23303 C 65.04648,115.47282 50.36806,106.5521 56.94127,94.447181 63.281,102.61234 74.16123,105.3263 84.1,107.5 L 93.834,95.02381 C 87.49873,91.525466 78.36012,87.636667 75.29761,78.814665 72.00109,69.318554 78.38096,58.79807 85.8572,57.532462 c -1.50786,9.690241 3.96518,18.209708 11.64953,22.378148 16.20144,8.788611 33.5525,13.34067 49.21517,25.96574 15.08604,12.16028 20.84253,39.69712 30.33117,61.47437 2.06361,4.73617 1.43124,5.48049 -7.46454,9.90112 2.82584,3.58768 7.0853,7.70105 15.40209,7.70105 l 31.72832,0 6.63567,0 c -2.79638,-3.92973 -5.78091,-6.2607 -5.81503,-13.50687 -0.0414,-8.78734 4.38726,-15.00897 7.22424,-22.51345 -2.95826,-1.79325 -5.70096,-4.3971 -6.74577,-8.43257 l -25.48476,3 0,-15 26.46495,3 c 1.35241,-3 3.81938,-4.67201 6.27822,-6.04558 l -0.0704,-9.90413 c -1.26849,-0.56592 -2.96611,-2.40019 -3.71499,-4.05029 l -23.62123,2 0,-14 24.17786,2 c 0.89306,-1.31932 2.48936,-2.626442 3.5236,-3.316872 l -2.76124,-20.943608 15.37988,0 -2.76124,20.943608 c 1.03424,0.69043 2.63054,1.997552 3.5236,3.316872 l 24.17786,-2 0,14 -23.62123,-2 c -0.74888,1.6501 -2.4465,3.48436 -3.71499,4.05028 l -0.0704,9.90413 c 2.45884,1.37357 4.92581,3.04558 6.27822,6.04558 l 26.46495,-3 0,15 -25.48476,-3 c -1.04481,4.03547 -3.78751,6.63932 -6.74577,8.43257 2.83698,7.50448 7.26564,13.72611 7.22424,22.51345 -0.0341,7.24617 -3.01865,9.57714 -5.81503,13.50687 l 6.63567,0 31.72832,0 c 8.31679,0 12.57625,-4.11337 15.40209,-7.70105 -8.89578,-4.42063 -9.52815,-5.16495 -7.46454,-9.90112 9.48864,-21.77725 15.24513,-49.31409 30.33117,-61.47436 15.66267,-12.62507 33.01373,-17.177129 49.21517,-25.96574 7.68435,-4.16844 13.15739,-12.687907 11.64953,-22.378148 7.47624,1.265608 13.85611,11.786092 10.55959,21.282203 -3.06251,8.822002 -12.20112,12.710801 -18.53639,16.209145 L 376.9,107.5 c 9.93877,-2.1737 20.819,-4.88766 27.15873,-13.052819 6.57321,12.104919 -8.10521,21.025629 -19.55203,22.509829 l 4.66988,6.23303 -6.02843,3.27645 c -3.52354,-2.00187 -9.36661,-6.3136 -10.26267,-6.93006 -1.77437,-1.22071 -21.59329,4.56248 -20.12301,5.51424 l 9.9629,6.44932 c 3.47138,2.24714 -13.8037,7.17089 -22.05183,3.13469 -4.88075,2.31279 -6.87782,6.15077 -6.83822,8.86531 0,0 -0.32044,8.9309 0.19476,13.35218 1.1103,9.52827 3.83007,18.80732 6.20783,28.10071 0.61232,2.39324 -6.85744,4.46681 -6.46407,6.83908 3.5577,21.45512 15.43857,61.82192 11.12708,63.00345 -3.46101,0.94847 -10.24392,0.0939 -10.38304,2.8454 l -4.73526,93.65468 -2.61383,36.22647 -13.72256,0 0,-8.49492 c 0,-11.7359 -12.22636,-15.10183 -21.99967,-15.10183 z"
     id="path4521" /><circle
     transform="scale(-1,1)"
     r="7.242465"
     cy="137.30296"
     cx="-230.5"
     id="circle4527"
     style="opacity:0.98000004;fill:#0085ca;fill-opacity:1;stroke:#000000;stroke-width:1;stroke-linecap:round;stroke-linejoin:round;stroke-miterlimit:4;stroke-dasharray:none;stroke-opacity:1" /><circle
     transform="scale(-1,1)"
     r="5.371623"
     cy="107.0262"
     cx="-230.5"
     id="circle4541"
     style="opacity:0.98000004;fill:#0085ca;fill-opacity:1;stroke:#000000;stroke-width:1;stroke-linecap:round;stroke-linejoin:round;stroke-miterlimit:4;stroke-dasharray:none;stroke-opacity:1" /><path
     style="fill:#0085ca;fill-opacity:1;fill-rule:evenodd;stroke:#000000;stroke-width:1px;stroke-linecap:butt;stroke-linejoin:miter;stroke-opacity:1"
     d="m 127.87206,105.44545 c 6.61295,0.72161 13.93839,5.61926 16.61204,10.67343 4.12611,7.79984 -5.94796,9.45126 -7.78439,5.53735 -2.49431,-5.31601 -5.80362,-11.77051 -8.82765,-16.21078 z"
     id="path4563" /><path
     style="fill:#0085ca;fill-opacity:1;fill-rule:evenodd;stroke:#000000;stroke-width:1.05747664px;stroke-linecap:butt;stroke-linejoin:miter;stroke-opacity:1"
     d="m 218.42995,351.2955 0,-22.39662 c 0,-8.23704 3.61722,-13.34267 12.07005,-13.34267 8.45283,0 12.07005,5.10563 12.07005,13.34267 l 0,22.39662 c -8.0467,0 -16.0934,0 -24.1401,0 z"
     id="path4441" /><path
     id="path4451"
     d="m 255.42995,351.2955 0,-22.39662 c 0,-8.23704 3.61722,-13.34267 12.07005,-13.34267 8.45283,0 12.07005,5.10563 12.07005,13.34267 l 0,22.39662 c -8.0467,0 -16.0934,0 -24.1401,0 z"
     style="fill:#0085ca;fill-opacity:1;fill-rule:evenodd;stroke:#000000;stroke-width:1.05747664px;stroke-linecap:butt;stroke-linejoin:miter;stroke-opacity:1" /><path
     style="fill:#0085ca;fill-opacity:1;fill-rule:evenodd;stroke:#000000;stroke-width:1.05747664px;stroke-linecap:butt;stroke-linejoin:miter;stroke-opacity:1"
     d="m 292.42995,351.2955 0,-22.39662 c 0,-8.23704 3.61722,-13.34267 12.07005,-13.34267 8.45283,0 12.07005,5.10563 12.07005,13.34267 l 0,22.39662 c -8.0467,0 -16.0934,0 -24.1401,0 z"
     id="path4453" /><path
     id="path4455"
     d="m 181.42995,351.2955 0,-22.39662 c 0,-8.23704 3.61722,-13.34267 12.07005,-13.34267 8.45283,0 12.07005,5.10563 12.07005,13.34267 l 0,22.39662 c -8.0467,0 -16.0934,0 -24.1401,0 z"
     style="fill:#0085ca;fill-opacity:1;fill-rule:evenodd;stroke:#000000;stroke-width:1.05747664px;stroke-linecap:butt;stroke-linejoin:miter;stroke-opacity:1" /><path
     style="fill:#0085ca;fill-opacity:1;fill-rule:evenodd;stroke:#000000;stroke-width:1.05747664px;stroke-linecap:butt;stroke-linejoin:miter;stroke-opacity:1"
     d="m 144.42995,351.2955 0,-22.39662 c 0,-8.23704 3.61722,-13.34267 12.07005,-13.34267 8.45283,0 12.07005,5.10563 12.07005,13.34267 l 0,22.39662 c -8.0467,0 -16.0934,0 -24.1401,0 z"
     id="path4457" /><path
     style="fill:#0085ca;fill-opacity:1;fill-rule:evenodd;stroke:#000000;stroke-width:1px;stroke-linecap:butt;stroke-linejoin:miter;stroke-opacity:1"
     d="m 94.7,110.5 c 0,0 5.43754,-10.4547 12.1462,-8.19749 12.99064,4.37087 16.17466,15.94404 16.78631,19.43966 C 115.96442,116.5324 102.3326,112.05744 94.7,110.5 Z"
     id="path4559" /><path
     id="path4685"
     d="m 333.12794,105.44545 c -6.61295,0.72161 -13.93839,5.61926 -16.61204,10.67342 -4.12611,7.79984 5.94796,9.45126 7.78439,5.53735 2.49431,-5.31601 5.80362,-11.7705 8.82765,-16.21077 z"
     style="fill:#0085ca;fill-opacity:1;fill-rule:evenodd;stroke:#000000;stroke-width:1px;stroke-linecap:butt;stroke-linejoin:miter;stroke-opacity:1" /><path
     id="path4687"
     d="m 366.3,110.5 c 0,0 -5.43754,-10.4547 -12.1462,-8.19749 -12.99064,4.37087 -16.17466,15.94403 -16.78631,19.43965 C 345.03558,116.53239 358.6674,112.05744 366.3,110.5 Z"
     style="fill:#0085ca;fill-opacity:1;fill-rule:evenodd;stroke:#000000;stroke-width:1px;stroke-linecap:butt;stroke-linejoin:miter;stroke-opacity:1" /></svg>