<svg xmlns:dc="http://purl.org/dc/elements/1.1/" xmlns:cc="http://creativecommons.org/ns#" xmlns:rdf="http://www.w3.org/1999/02/22-rdf-syntax-ns#" xmlns:svg="http://www.w3.org/2000/svg" xmlns="http://www.w3.org/2000/svg" xml:space="preserve" enable-background="new 30.5 31.5 412 533" viewBox="30.5 31.5 400 500" height="500" width="400" y="0" x="0" version="1.1" id="svg2">
  <metadata id="metadata4">
    <rdf:RDF>
      <cc:Work rdf:about="">
        <dc:format>
          
          image/svg+xml
        
        </dc:format>
        <dc:type rdf:resource="http://purl.org/dc/dcmitype/StillImage"/>
      </cc:Work>
    </rdf:RDF>
  </metadata>
  <defs id="defs6"/>
  <path d="M230.45 531.13C156.13 477.21 105.19 409.11 74.71 322.97 47.07 244.87 35.98 150.22 40.8 33.62l0.02-0.46 379.82 0 0.02 0.46c4.81 116.6-6.28 211.24-33.91 289.35-30.48 86.14-81.42 154.24-155.74 208.16l-0.28 0.2-0.28-0.2z" id="path8" fill="#32ac60"/>
  <path d="M419.96 33.21C429.03 252.66 383.71 419.16 230.51 530.31 146.04 469.02 94.36 390.9 66.52 296.34 64.43 289.25 62.48 282.07 60.65 274.8 49.2 229.11 42.88 179.78 40.77 126.86 39.57 96.8 39.72 65.58 41.06 33.21l189.45 0 189.45 0m0.92-0.95-0.92 0-189.45 0-189.45 0-0.92 0-0.04 0.92c-4.82 116.66 6.28 211.36 33.93 289.52 30.51 86.24 81.51 154.41 155.91 208.39l0.56 0.41 0.56-0.41C305.46 477.11 356.46 408.94 386.97 322.7 414.62 244.54 425.72 149.84 420.9 33.18l-0.04-0.92 0 0z" id="path10"/>
  <path id="path4236" d="m246.21 267.08c4.15 0.65 13.65 0.17 23.21 7.75 1.8 1.43 0.32 2.2-2.64 2.94-1.72 0.43-1.1 2.37 0.9 4.28 4.18 3.99 9.21-6.6 21.03 3.51 4.26 3.65 14.63 9.21 10.76 14.11-1.31 1.66-4 1.59-5.22 2.06-1.76 0.68-0.37-0.3-2.2 1.14-1.05 0.83 0.03 3.2 3.81 2.99 5.26-0.29 6.28 0.1 9.59-4.16 1.3-1.67 11.89 5.23 15.4 9.02 0.6 0.65 1.83 3.18 1.23 4.33-2.69 5.18-5.5 13.84-9.89 15.02-16.78 4.52-19.57 5.01-41.43 2.29-5.74-0.71-16.72-10.23-20.95-11.72-1.73-0.61-4.04-0.9-5.18-0.87-2.41 0.07-0.26 1.95 2.17 5.4 3.94 5.61 8.81 9.03 14.66 15.52 0.82 0.91 5.71 9.02 7.45 9.9 4.75 2.4 9.09-2.96 17.96-1.21 9.5-7.15 4.46-6.79 9.28-6.72 2.06 0.03 4.4 1.88 8.67 4.88 4.63 3.26 5.83 5.14 5 6.44-3.85 6-4.62 13.64-8.2 14.01-9.79 1.02-15.16-1.88-29.89-3.43-11.11-1.17-18.18-20.62-32.28-35.64-0.93-0.99-1.4-2.64-2.48-1.82-0.61 0.46 0.04 1.71 0.49 3.01 7.34 21.53 8.64 26.67 13.06 38.75 1.13 3.1 11.4 8.26 18.78 10.77 4.51 1.53 8.88-3.9 11.95-3.1 4.43 2.12 5.45 9.38 8.94 12.55 1.36 1.24-0.66 2.29-2.43 3.88-12.4 11.15-13.32 13.77-16.59 11.07-14.69-12.11-25.93-21.52-27.62-27.26-3.43-11.68-3.14-11.38-6.16-23.67-0.36-1.46-1-3.72-1.82-3.64-0.97 0.1-0.76 1.13-0.79 2.54-0.37 20.45 0.12 47.84 1.46 55.06 2.06 7.18 1.17 9.98 9.77 19.86 2.11 2.42-3.39 6.86-7.14 10.66-4.42 4.48-6.77 10.96-9.53 8.17-4.56-4.6-18.65-12.95-16.51-17.36 11.32-23.28 10.45-26.47 10.93-41.79 0.34-10.96 1.68-8.33 1.42-34.08-0.01-1.15 0.7-2.21-0.15-2.55-0.99-0.39-1.39 1.19-1.75 2.31-5.85 18.14-3.64 30.57-8.03 37.56-2.76 4.39-9.66 6.84-16.63 10.44-8.37 4.33-9.54 6.44-12.75 4.22-6.07-4.21-9.67-6.59-13.82-10.3-0.55-0.49-0.63-2.82 0.64-4.34 3.84-4.62 3.39-9.04 6.44-11.72 1.76-1.55 6.33 0.92 9.88 2.87 3.38 1.85 20.06-9.2 22.52-15.44 1.77-4.49 5.99-18.21 8.14-34.62 0.25-1.93 0.59-3.98-0.14-4.62-1.09-0.96-2.83 3.12-3.65 5.04-8.18 19.22-22.16 33.33-23.86 33.28-9.09-0.23-30.3 8.03-34.04 3.2l-8.68-11.2c-2.65-3.42 5.32-13.1 12.87-15.74 2.51-0.88 4.92 5.75 12.16 9.97 4.01 2.34 8.91-0.84 18.04-2.21 6.98-2.7 13.24-16.6 19.8-23.56 2.56-2.72-1.77-0.13-8.58 1.55-13.74 3.4-21.96 8.23-28.19 7.01-7.83-1.54-16.44-2.65-23.36-4.37-5.15-1.27-8.17-2.89-9.53-5.53l-3.38-11.38c-1.31-4.41 10.8-11.07 13.13-9.13 6.49 5.38 11.85 5.13 20.41 2.37 1.87-3.42-11.65-4-12.56-7.58-0.97-3.84 8.52-8.03 11.69-10.74 3.54-3.03 5.83-5.78 10.03-5.35 4.3 0.44 14.45 0.49 18.13-1.38 0.93-0.48 3.12-2.1 1.59-2.65l-6.59-2.36c-4.6-4.6 16.38-6.31 23.35-8.84 3.72-1.35 8.59-10.12 3.28-27.67-3.84-12.68-30.44-31.6-39.16-24.23-5.42 4.58-23.93 17.69-23.93 11.43l0-7.01c-4-0.38-4.51 5.91-7.06 9.4-2.49 3.42-7.68 4.3-12.3 4.92-4.13 0.55-10.05 6.19-12.65-1.22-1.22-3.49-1.37-7.22 2.44-11.58-7.76 4.53-14.58 9.45-12.34 17.98-3.1 2.49-14.77 4.6-16.92 0.15L93.25 225.67c-1.06-2.78 1.7-5.13 4.19-9.81 3.34-6.3 4.87-15.03 9.83-21.27 2.04-4.08 16.42-10.55 25.2-15.6 6.08-3.49 9.01-6.62 5.28-6.5l-28.5 0.91c-7.11 5.89-17.31 14.19-15.85 18.59 2.12 6.37 1.48 8.82-1.07 9.6-6.89 2.13-17.7 4.61-18.9 0.46l-4.88-16.92c-1.69-5.86 12.45-12.19 19.2-18.29 0 0 30.36-0.76 45.55-1.39 2.08-0.09 6.25 0.71 6.26-0.75 0.01-0.96-3.52-1.95-5.3-2.75-11.33-5.09-34.02-14.93-34.02-14.93-5.35-2.41-19.25 3.41-20.12 7.16-0.91 3.95 2.17 9.47-0.15 9.75-4.02 0.48-9.36-1.3-14.38-0.43-1.96 0.34-4.21-0.81-4.21-1.55 0-5.57-1.27-9.36-1.33-16.09-0.03-3.9 7.3-9.5 17.14-11.55 7.68-1.6 8.67-0.41 13.67 0.97 8.03 2.21 15.82 7.8 33.42 14.09 1.11 0.4 2.52 1.23 2.89 0.23 0.32-0.86-0.94-1.06-1.8-1.82-18.83-16.47-35.27-34.47-66.28-44.5-4.66-1.51-0.83-12.43-1.22-18.9-0.23-3.82 24.28-7.8 25.14-2.29 2.04 12.94 7.26 16.26 11.24 22.58 4.19 6.65 20.71 26.82 35.26 37.69 1.13 0.85 1.7 1.76 2.42 1.11 0.61-0.56-0.78-2.47-1.5-3.79l-19.08-34.88c-5.32-9.72-1.4-14.66 2.59-27.58 1.54-4.99 9.89-4.25 19.02-4.09 2.37 0.04 2.77 0.88 2.77 2.72l0 16.31c-1.45 2.83-8.85 1.14-9.01 5.89-0.32 9.32-2.9 12.6-1.5 15.6 6.27 13.42 12.32 27.52 19.99 38.23 0.8 1.12 1.17 2.52 1.92 2.37 1.33-0.26 0.42-1.71 0.3-3.06-1.78-20.53-9.31-40.1-4.83-48.06 5.16-9.16 8.55-17.01 15.85-23.62 2.67-2.42 13.84 2.07 20.88 3.2 1.52 0.24 1.58 1.64 0.92 7.26-0.61 5.19-1.55 11.15-2.91 12.71-3.17 3.64-3.17 1.51-15.09 3.2-6.33 5.38-11.37 13.83-11.12 16.15 0.93 8.69 2.57 20.1 4.13 26.78 0.95 4.11 0.92 6.97 2.58 5.22 0.79-0.83 2.11-2.75 2.81-4.44 1.72-4.14 2.85-9.62 4.81-15.06 5.75-16.04 20.52-22.5 33.68-34.14 3.41-3.01 8.84 1.43 14.5 2.88 1.25 0.32 2.03 3.25 2.11 4.13 0.48 5.14 2.57 14.94 0.46 14.79-5.39-0.38-9.49 2.92-11.38 7.83-0.45 1.17-2.28 3.97-0.96 3.74 2.3-0.4 2.37-1.43 4.05-2.29 1.17-0.59 3.28-0.6 5.4-0.45 5.47 0.38 2.84 10.92 1.98 16.46-2.34 14.97-12.53 16.02-12.34 21.79 0.09 2.77 2.42-1.21 3.88-2.2 2.52-1.72 5.88-0.84 5.57 1.44-1.22 8.83-10.5 19.19-9.14 23.16 3.52 10.32 10.74 15.18 14.78 19.05 4.08 3.9 8.25 3.05 12.42 3.05 4.17 0 8.34 0.85 12.42-3.05 4.05-3.86 11.26-8.73 14.78-19.05 1.35-3.97-9.98-14.34-11.21-23.16-0.32-2.28 3.04-3.16 5.57-1.44 1.47 1 2.38 1.39 2.47-1.38 0.19-5.77-9.49-2.99-9.84-18.53-0.13-5.61-6.21-15.53 0.02-15.92 2.12-0.13 4.34 1.49 5.5 2.08 1.68 0.86 0.02 0.48 2.32 0.88 1.31 0.23 0.14-3.66-0.31-4.83-1.9-4.92-4.59-7.23-9.97-6.86-2.11 0.15-2.29-10.41-1.82-15.55 0.08-0.88 0.86-3.81 2.11-4.13 5.65-1.45 10.58-6.85 14.17-4.08 24.35 18.8 27.49 15.06 33.24 31.1 1.95 5.45 3.53 19.29 5.24 23.42 0.7 1.7 2.02 3.61 2.81 4.44 1.66 1.75 1.62-1.11 2.58-5.22 1.55-6.68 4.28-13.32 5.21-22 0.13-1.22 0.12-9.81-0.39-11.69-1.38-5.14-7.19-10.43-10.08-13.04-11.92-1.69-11.92 2.07-15.09-1.57-1.35-1.55-1.1-9.58-1.71-14.77-0.66-5.62-0.06-7.77 1.47-8.02 7.04-1.13 13.76-6.7 16.43-4.29 7.3 6.61 10.1 15.08 18.78 27.1 6.54 9.05-4.79 24.6-6.57 45.12-0.12 1.35-1.03 2.81 0.3 3.06 0.75 0.14 1.24-1.17 1.92-2.37 11.14-19.83 14.26-18.52 20.31-29.87 1.56-2.92 1.1-12.79 0.78-22.11-0.16-4.76-6.91-2.52-8.36-5.35-1.38-4.71 0.07-9.42 0.11-14.13 0.02-1.84 0.42-2.98 2.77-2.72 16.57 1.8 15.82 2.65 17.07 6.7 5.59 18.21 9.97 12.47 2.48 26.39-5.76 10.72-11.18 21.51-18.32 31.95-0.85 1.24-2.11 3.23-1.5 3.79 0.72 0.66 1.47-0.06 2.42-1.11 13.25-14.56 33.05-33.83 37.54-39.64 3.98-6.32 8.41-10.13 10.04-23.12 0.4-3.18 5.46-0.92 10.8-0.66 6.29 0.31 13.06-2.16 12.83 1.75-0.39 6.46 0.13 22-4.58 23.35-24.89 7.09-24.85 11.28-36.58 21.14-8.4 7.06-6.88 3.18-25.89 20.54-0.85 0.77-2.12 0.96-1.8 1.82 0.37 1 1.82 0.24 2.89-0.23 17.42-7.74 28.12-11.83 36.25-13.22 5.11-0.87 10.81-3.69 17.03 1.09 7.89 6.07 13.26 4.72 13.23 8.62-0.06 6.73-0.79 6.4-0.79 11.97 0 0.74-1.68 2.35-3.67 2.42-6 0.22-8.84 0.59-12.86 0.11-2.33-0.28-3.47-3.63-4.39-7.58-0.87-3.75-14.61-5.14-21.31-4.88-5.83 0.22-20.46 5.9-34.12 15.25-1.61 1.1-3.36 2.22-3.35 3.18 0.02 1.45 4.29 1.42 6.26 0.75 19.77-6.73 34.02-4.8 35.13-3.5 5.89 6.93 31.14 21.46 30.38 27.52l-1.84 14.74c-0.53 4.29-15.7-2.13-22.7-5.99-2.33-1.29-0.04-5.41-1.72-13.62-0.93-4.54-6.57-6.08-13.68-11.97-6.67-3.4-26.87 0.74-36.42 0.5-3.73-0.09-0.8 3.01 5.28 6.5 8.79 5.05 26.63 7.97 29.87 13.43 4.07 6.86 11.6 22.47 14.93 28.77 2.48 4.69 3.3 8.01 2.23 10.79l-3.79 7.94c-2.13 4.46-15.12 2.34-18.22-0.15-0.04-8.43 2.04-10.3-5.72-14.83-3.79 0.89-1.98 5.6-3.21 9.08-2.6 7.41-11.23-0.51-15.36-1.06-4.62-0.62-6.77-1.18-9.26-4.6-2.54-3.49-3.6-7.18-7.6-8.21l0 7.01c0 6.51-23.41-7.99-25.88-13.71-5.08-11.75-42.52 21.96-39.6 31.72 1.51 8.64-0.8 19.25 7.25 20.5z" style="fill-rule:evenodd;fill:#ffe000;stroke-width:0.99;stroke:#000"/>
</svg>
