<?xml version="1.0" encoding="UTF-8" standalone="no"?>
<svg
   xmlns:dc="http://purl.org/dc/elements/1.1/"
   xmlns:cc="http://creativecommons.org/ns#"
   xmlns:rdf="http://www.w3.org/1999/02/22-rdf-syntax-ns#"
   xmlns:svg="http://www.w3.org/2000/svg"
   xmlns="http://www.w3.org/2000/svg"
   id="svg2"
   version="1.1"
   x="0"
   y="0"
   width="400"
   height="500"
   viewBox="30.5 31.5 400 500"
   enable-background="new 30.5 31.5 412 533"
   xml:space="preserve"><metadata
     id="metadata4"><rdf:RDF><cc:Work
         rdf:about=""><dc:format>
          
          
          
          image/svg+xml
        
        
        
        </dc:format><dc:type
           rdf:resource="http://purl.org/dc/dcmitype/StillImage" /><dc:title></dc:title></cc:Work></rdf:RDF></metadata><defs
     id="defs6" /><path
     style="fill-opacity:1;fill:#0085ca"
     id="path8"
     d="M230.44 531.14C156.12 477.22 105.18 409.12 74.7 322.98 47.06 244.88 35.97 150.23 40.79 33.63l0.02-0.46 379.82 0 0.02 0.46c4.81 116.6-6.28 211.24-33.91 289.35C356.26 409.12 305.32 477.22 231 531.14l-0.28 0.2-0.28-0.2z"
     fill="#fff" /><path
     style="fill-opacity:1;fill-rule:evenodd;fill:#ffe000"
     d="m252.5 32.75 0 34.75 34-16 0 64-34-16 0 75 34-16 0 64-34-16 0 75 34-16 0 64-34-16 0 75 34-16 0 64-34-16 0 93.46084-22 16.92404-22-16.92404 0-93.46084-34 16 0-64 34 16 0-75-34 16 0-64 34 16 0-75-34 16 0-64 34 16 0-75-34 16 0-64 34 16 0-34.75c14.66667 0 29.33333 0 44 0z"
     id="path4239" /><path
     id="path10"
     d="M419.96 33.21C429.03 252.66 383.7 419.16 230.5 530.31 77.31 419.16 31.99 252.66 41.06 33.21l189.45 0 189.45 0m0.92-0.95-0.92 0-189.45 0-189.45 0-0.92 0-0.04 0.92c-4.82 116.66 6.28 211.36 33.93 289.52 30.51 86.24 81.51 154.41 155.91 208.39l0.56 0.41 0.56-0.41C305.46 477.11 356.46 408.94 386.97 322.7 414.62 244.54 425.72 149.84 420.9 33.18l-0.04-0.92 0 0z" /><path
     style="fill:none;stroke-linecap:butt;stroke-linejoin:miter;stroke-opacity:1;stroke-width:1;stroke:#000"
     d="m208.5 174.5 0-75-34 16 0-64 34 16 0-34.75"
     id="path4221" /><path
     style="fill:none;stroke:#000000;stroke-width:1;stroke-linecap:butt;stroke-linejoin:miter;stroke-opacity:1"
     id="path4241"
     d="m 208.5,513.96084 0,-93.46084 -34,16 0,-64 34,16 0,-75 -34,16 0,-64 34,16 0,-75 -34,16 0,-64 34,16 0,-75 -34,16 0,-64 34,16 0,-34.75 m 44,0 0,34.75 34,-16 0,64 -34,-16 0,75 34,-16 0,64 -34,-16 0,75 34,-16 0,64 -34,-16 0,75 34,-16 0,64 -34,-16 0,93.46084" /></svg>