<svg xmlns:dc="http://purl.org/dc/elements/1.1/" xmlns:cc="http://creativecommons.org/ns#" xmlns:rdf="http://www.w3.org/1999/02/22-rdf-syntax-ns#" xmlns:svg="http://www.w3.org/2000/svg" xmlns="http://www.w3.org/2000/svg" id="svg2" version="1.1" x="0" y="0" width="400" height="500" viewBox="30.5 31.5 400 500" enable-background="new 30.5 31.5 412 533" xml:space="preserve">
  <metadata id="metadata4">
    <rdf:RDF>
      <cc:Work rdf:about="">
        <dc:format>
          
          
          
          
          image/svg+xml
        
        
        
        
        </dc:format>
        <dc:type rdf:resource="http://purl.org/dc/dcmitype/StillImage"/>
      </cc:Work>
    </rdf:RDF>
  </metadata>
  <defs id="defs6"/>
  <path id="path8" d="M230.44 531.14C156.12 477.22 105.18 409.12 74.7 322.98 47.06 244.88 35.97 150.23 40.79 33.63l0.02-0.46 379.82 0 0.02 0.46c4.81 116.6-6.28 211.24-33.91 289.35C356.26 409.12 305.32 477.22 231 531.14l-0.28 0.2-0.28-0.2z" fill="#fff"/>
  <path id="path4968" d="M74.43 106.14C70.77 108.95 66.17 110.56 62.41 110.45 69.7 98.55 77.68 78.11 80.5 63.29c2.82 14.83 10.8 35.27 18.09 47.17-3.76 0.11-8.36-1.5-12.02-4.32-0.81 4.6-2.76 10.61-6.07 14.58-3.31-3.97-5.26-9.99-6.07-14.58z" style="fill-rule:evenodd;fill:#000"/>
  <circle r="4.93" cy="53.65" cx="80.5" id="path4970" fill="#000"/>
  <circle id="circle4972" cx="70.5" cy="63.65" r="4.93" fill="#000"/>
  <circle id="circle4974" cx="90.5" cy="63.65" r="4.93" fill="#000"/>
  <path d="m134.43 106.92c-3.66 2.82-8.26 4.43-12.02 4.32 7.29-11.9 15.27-32.34 18.09-47.17 2.82 14.83 10.8 35.27 18.09 47.17-3.76 0.11-8.36-1.5-12.02-4.32-0.81 4.6-2.76 10.61-6.07 14.58-3.31-3.97-5.26-9.99-6.07-14.58z" id="path5091" style="fill-rule:evenodd;fill:#000"/>
  <circle id="circle5093" cx="140.5" cy="54.43" r="4.93" fill="#000"/>
  <circle r="4.93" cy="64.43" cx="130.5" id="circle5095" fill="#000"/>
  <circle r="4.93" cy="64.43" cx="150.5" id="circle5097" fill="#000"/>
  <path id="path5115" d="m104.43 176.92c-3.66 2.82-8.26 4.43-12.02 4.32 7.29-11.9 15.27-32.34 18.09-47.17 2.82 14.83 10.8 35.27 18.09 47.17-3.76 0.11-8.36-1.5-12.02-4.32-0.81 4.6-2.76 10.61-6.07 14.58-3.31-3.97-5.26-9.99-6.07-14.58z" style="fill-rule:evenodd;fill:#000"/>
  <circle r="4.93" cy="124.43" cx="110.5" id="circle5117" fill="#000"/>
  <circle id="circle5119" cx="100.5" cy="134.43" r="4.93" fill="#000"/>
  <circle id="circle5121" cx="120.5" cy="134.43" r="4.93" fill="#000"/>
  <path d="m74.43 241.14c-3.66 2.82-8.26 4.43-12.02 4.32 7.29-11.9 15.27-32.34 18.09-47.17 2.82 14.83 10.8 35.27 18.09 47.17-3.76 0.11-8.36-1.5-12.02-4.32-0.81 4.6-2.76 10.61-6.07 14.58-3.31-3.97-5.26-9.99-6.07-14.58z" id="path5123" style="fill-rule:evenodd;fill:#000"/>
  <circle id="circle5125" cx="80.5" cy="188.65" r="4.93" fill="#000"/>
  <circle r="4.93" cy="198.65" cx="70.5" id="circle5127" fill="#000"/>
  <circle r="4.93" cy="198.65" cx="90.5" id="circle5129" fill="#000"/>
  <path id="path5131" d="m134.43 241.92c-3.66 2.82-8.26 4.43-12.02 4.32 7.29-11.9 15.27-32.34 18.09-47.17 2.82 14.83 10.8 35.27 18.09 47.17-3.76 0.11-8.36-1.5-12.02-4.32-0.81 4.6-2.76 10.61-6.07 14.58-3.31-3.97-5.26-9.99-6.07-14.58z" style="fill-rule:evenodd;fill:#000"/>
  <circle r="4.93" cy="189.43" cx="140.5" id="circle5133" fill="#000"/>
  <circle id="circle5135" cx="130.5" cy="199.43" r="4.93" fill="#000"/>
  <circle id="circle5137" cx="150.5" cy="199.43" r="4.93" fill="#000"/>
  <path d="m104.43 311.14c-3.66 2.82-8.26 4.43-12.02 4.32 7.29-11.9 15.27-32.34 18.09-47.17 2.82 14.83 10.8 35.27 18.09 47.17-3.76 0.11-8.36-1.5-12.02-4.32-0.81 4.6-2.76 10.61-6.07 14.58-3.31-3.97-5.26-9.99-6.07-14.58z" id="path5139" style="fill-rule:evenodd;fill:#000"/>
  <circle id="circle5141" cx="110.5" cy="258.65" r="4.93" fill="#000"/>
  <circle r="4.93" cy="268.65" cx="100.5" id="circle5143" fill="#000"/>
  <circle r="4.93" cy="268.65" cx="120.5" id="circle5145" fill="#000"/>
  <path id="path5147" d="m134.43 371.14c-3.66 2.82-8.26 4.43-12.02 4.32 7.29-11.9 15.27-32.34 18.09-47.17 2.82 14.83 10.8 35.27 18.09 47.17-3.76 0.11-8.36-1.5-12.02-4.32-0.81 4.6-2.76 10.61-6.07 14.58-3.31-3.97-5.26-9.99-6.07-14.58z" style="fill-rule:evenodd;fill:#000"/>
  <circle r="4.93" cy="318.65" cx="140.5" id="circle5149" fill="#000"/>
  <circle id="circle5151" cx="130.5" cy="328.65" r="4.93" fill="#000"/>
  <circle id="circle5153" cx="150.5" cy="328.65" r="4.93" fill="#000"/>
  <path d="m386.57 106.14c3.66 2.82 8.26 4.43 12.02 4.32C391.3 98.55 383.32 78.11 380.5 63.29c-2.82 14.83-10.8 35.27-18.09 47.17 3.76 0.11 8.36-1.5 12.02-4.32 0.81 4.6 2.76 10.61 6.07 14.58 3.31-3.97 5.26-9.99 6.07-14.58z" id="path5279" style="fill-rule:evenodd;fill:#000"/>
  <circle transform="scale(-1,1)" id="circle5281" cx="-380.5" cy="53.65" r="4.93" fill="#000"/>
  <circle transform="scale(-1,1)" r="4.93" cy="63.65" cx="-390.5" id="circle5283" fill="#000"/>
  <circle transform="scale(-1,1)" r="4.93" cy="63.65" cx="-370.5" id="circle5285" fill="#000"/>
  <path id="path5287" d="m326.57 106.92c3.66 2.82 8.26 4.43 12.02 4.32C331.3 99.33 323.32 78.9 320.5 64.07c-2.82 14.83-10.8 35.27-18.09 47.17 3.76 0.11 8.36-1.5 12.02-4.32 0.81 4.6 2.76 10.61 6.07 14.58 3.31-3.97 5.26-9.99 6.07-14.58z" style="fill-rule:evenodd;fill:#000"/>
  <circle transform="scale(-1,1)" r="4.93" cy="54.43" cx="-320.5" id="circle5289" fill="#000"/>
  <circle transform="scale(-1,1)" id="circle5291" cx="-330.5" cy="64.43" r="4.93" fill="#000"/>
  <circle transform="scale(-1,1)" id="circle5293" cx="-310.5" cy="64.43" r="4.93" fill="#000"/>
  <path d="m356.57 176.92c3.66 2.82 8.26 4.43 12.02 4.32-7.29-11.9-15.27-32.34-18.09-47.17-2.82 14.83-10.8 35.27-18.09 47.17 3.76 0.11 8.36-1.5 12.02-4.32 0.81 4.6 2.76 10.61 6.07 14.58 3.31-3.97 5.26-9.99 6.07-14.58z" id="path5295" style="fill-rule:evenodd;fill:#000"/>
  <circle transform="scale(-1,1)" id="circle5297" cx="-350.5" cy="124.43" r="4.93" fill="#000"/>
  <circle transform="scale(-1,1)" r="4.93" cy="134.43" cx="-360.5" id="circle5299" fill="#000"/>
  <circle transform="scale(-1,1)" r="4.93" cy="134.43" cx="-340.5" id="circle5301" fill="#000"/>
  <path id="path5303" d="m386.57 241.14c3.66 2.82 8.26 4.43 12.02 4.32-7.29-11.9-15.27-32.34-18.09-47.17-2.82 14.83-10.8 35.27-18.09 47.17 3.76 0.11 8.36-1.5 12.02-4.32 0.81 4.6 2.76 10.61 6.07 14.58 3.31-3.97 5.26-9.99 6.07-14.58z" style="fill-rule:evenodd;fill:#000"/>
  <circle transform="scale(-1,1)" r="4.93" cy="188.65" cx="-380.5" id="circle5305" fill="#000"/>
  <circle transform="scale(-1,1)" id="circle5307" cx="-390.5" cy="198.65" r="4.93" fill="#000"/>
  <circle transform="scale(-1,1)" id="circle5309" cx="-370.5" cy="198.65" r="4.93" fill="#000"/>
  <path d="m326.57 241.92c3.66 2.82 8.26 4.43 12.02 4.32-7.29-11.9-15.27-32.34-18.09-47.17-2.82 14.83-10.8 35.27-18.09 47.17 3.76 0.11 8.36-1.5 12.02-4.32 0.81 4.6 2.76 10.61 6.07 14.58 3.31-3.97 5.26-9.99 6.07-14.58z" id="path5311" style="fill-rule:evenodd;fill:#000"/>
  <circle transform="scale(-1,1)" id="circle5313" cx="-320.5" cy="189.43" r="4.93" fill="#000"/>
  <circle transform="scale(-1,1)" r="4.93" cy="199.43" cx="-330.5" id="circle5315" fill="#000"/>
  <circle transform="scale(-1,1)" r="4.93" cy="199.43" cx="-310.5" id="circle5317" fill="#000"/>
  <path id="path5319" d="m356.57 311.14c3.66 2.82 8.26 4.43 12.02 4.32-7.29-11.9-15.27-32.34-18.09-47.17-2.82 14.83-10.8 35.27-18.09 47.17 3.76 0.11 8.36-1.5 12.02-4.32 0.81 4.6 2.76 10.61 6.07 14.58 3.31-3.97 5.26-9.99 6.07-14.58z" style="fill-rule:evenodd;fill:#000"/>
  <circle transform="scale(-1,1)" r="4.93" cy="258.65" cx="-350.5" id="circle5321" fill="#000"/>
  <circle transform="scale(-1,1)" id="circle5323" cx="-360.5" cy="268.65" r="4.93" fill="#000"/>
  <circle transform="scale(-1,1)" id="circle5325" cx="-340.5" cy="268.65" r="4.93" fill="#000"/>
  <path d="m326.57 371.14c3.66 2.82 8.26 4.43 12.02 4.32-7.29-11.9-15.27-32.34-18.09-47.17-2.82 14.83-10.8 35.27-18.09 47.17 3.76 0.11 8.36-1.5 12.02-4.32 0.81 4.6 2.76 10.61 6.07 14.58 3.31-3.97 5.26-9.99 6.07-14.58z" id="path5327" style="fill-rule:evenodd;fill:#000"/>
  <circle transform="scale(-1,1)" id="circle5329" cx="-320.5" cy="318.65" r="4.93" fill="#000"/>
  <circle transform="scale(-1,1)" r="4.93" cy="328.65" cx="-330.5" id="circle5331" fill="#000"/>
  <circle transform="scale(-1,1)" r="4.93" cy="328.65" cx="-310.5" id="circle5333" fill="#000"/>
  <path d="m290.5 479.42 0-446.64c-40 0-80 0-120 0l0 446.64c18.4 18.21 37.84 35.7 60 51.31 22.16-15.61 41.6-33.1 60-51.31z" id="path5335" style="fill-rule:evenodd;fill:#ffe000"/>
  <path id="path5337" d="m290.5 479.42 0-446.64-120 0 0 446.64" style="fill:none;stroke:#000"/>
  <path id="path10" d="M419.96 33.21C429.03 252.66 383.7 419.16 230.5 530.31 77.31 419.16 31.99 252.66 41.06 33.21l189.45 0 189.45 0m0.92-0.95-0.92 0-189.45 0-189.45 0-0.92 0-0.04 0.92c-4.82 116.66 6.28 211.36 33.93 289.52 30.51 86.24 81.51 154.41 155.91 208.39l0.56 0.41 0.56-0.41C305.46 477.11 356.46 408.94 386.97 322.7 414.62 244.54 425.72 149.84 420.9 33.18l-0.04-0.92 0 0z"/>
</svg>
