<svg xmlns:dc="http://purl.org/dc/elements/1.1/" xmlns:cc="http://creativecommons.org/ns#" xmlns:rdf="http://www.w3.org/1999/02/22-rdf-syntax-ns#" xmlns:svg="http://www.w3.org/2000/svg" xmlns="http://www.w3.org/2000/svg" xml:space="preserve" enable-background="new 30.5 31.5 412 533" viewBox="30.5 31.5 400 500" height="500" width="400" y="0" x="0" version="1.1" id="svg2">
  <metadata id="metadata4">
    <rdf:RDF>
      <cc:Work rdf:about="">
        <dc:format>
          
          
          
          image/svg+xml
        
        
        
        </dc:format>
        <dc:type rdf:resource="http://purl.org/dc/dcmitype/StillImage"/>
      </cc:Work>
    </rdf:RDF>
  </metadata>
  <defs id="defs6"/>
  <path d="M230.44 531.14C156.12 477.22 105.18 409.12 74.7 322.98 47.06 244.88 35.97 150.23 40.79 33.63l0.02-0.46 379.82 0 0.02 0.46c4.81 116.6-6.28 211.24-33.91 289.35C356.26 409.12 305.32 477.22 231 531.14l-0.28 0.2-0.28-0.2z" id="path8" fill="#32ac60"/>
  <path d="M419.96 33.21C429.03 252.66 383.7 419.16 230.5 530.31 77.31 419.16 31.99 252.66 41.06 33.21l189.45 0 189.45 0m0.92-0.95-0.92 0-189.45 0-189.45 0-0.92 0-0.04 0.92c-4.82 116.66 6.28 211.36 33.93 289.52 30.51 86.24 81.51 154.41 155.91 208.39l0.56 0.41 0.56-0.41C305.46 477.11 356.46 408.94 386.97 322.7 414.62 244.54 425.72 149.84 420.9 33.18l-0.04-0.92 0 0z" id="path10"/>
  <path id="path2543" d="m240.17 283.81 0 0 0 33.38 43.37-0.05 0-33.38-43.37 0.05zm-19.34 0-43.37-0.05 0 33.38 43.37 0.05 0-33.38 0 0zm53.17-219.67-0.29 19.39c-10.43 0-33.54 3.26-33.54 18.29l0 167.38 43.38-0.05 0-11.43 19.39 0 0 70.03c0 66.13-9.98 83.2-9.98 83.2 0 0-9.41-15.06-9.41-81.2l-43.38 0c0 66.13-9.67 83.95-9.67 83.95 0 0-9.67-17.82-9.67-83.95l-43.38 0c0 66.14-9.41 81.2-9.41 81.2 0 0-9.98-17.07-9.98-83.2l0-70.03 19.39 0 0 11.43 43.38 0.05 0-167.38c0-15.03-23.11-18.29-33.54-18.29l0-19.39z" style="fill-rule:nonzero;fill:#fff;stroke:#000"/>
</svg>
