<?xml version="1.0" encoding="UTF-8" standalone="no"?>
<svg
   xmlns:dc="http://purl.org/dc/elements/1.1/"
   xmlns:cc="http://creativecommons.org/ns#"
   xmlns:rdf="http://www.w3.org/1999/02/22-rdf-syntax-ns#"
   xmlns:svg="http://www.w3.org/2000/svg"
   xmlns="http://www.w3.org/2000/svg"
   id="svg2"
   version="1.1"
   x="0"
   y="0"
   width="400"
   height="500"
   viewBox="30.5 31.5 400 500"
   enable-background="new 30.5 31.5 412 533"
   xml:space="preserve"><metadata
     id="metadata4"><rdf:RDF><cc:Work
         rdf:about=""><dc:format>
          
          
          
          image/svg+xml
        
        
        
        </dc:format><dc:type
           rdf:resource="http://purl.org/dc/dcmitype/StillImage" /><dc:title></dc:title></cc:Work></rdf:RDF></metadata><defs
     id="defs6" /><path
     fill="#e00e00"
     id="path8"
     d="M230.44 531.14C156.12 477.22 105.18 409.12 74.7 322.98 47.06 244.88 35.97 150.23 40.79 33.63l0.02-0.46 379.82 0 0.02 0.46c4.81 116.6-6.28 211.24-33.91 289.35C356.26 409.12 305.32 477.22 231 531.14l-0.28 0.2-0.28-0.2z" /><path
     id="path10"
     d="M419.96 33.21C429.03 252.66 383.7 419.16 230.5 530.31 77.31 419.16 31.99 252.66 41.06 33.21l189.45 0 189.45 0m0.92-0.95-0.92 0-189.45 0-189.45 0-0.92 0-0.04 0.92c-4.82 116.66 6.28 211.36 33.93 289.52 30.51 86.24 81.51 154.41 155.91 208.39l0.56 0.41 0.56-0.41C305.46 477.11 356.46 408.94 386.97 322.7 414.62 244.54 425.72 149.84 420.9 33.18l-0.04-0.92 0 0z" /><path
     id="path5063"
     d="m 246.62117,436.67499 c 1.52922,-8.00609 0.0643,-17.92695 -3.03023,-25.54798 -3.14135,-7.73666 -3.11949,-10.81241 -3.803,-17.78061 20.03146,-5.91057 23.89291,-10.62687 29.80592,-17.30851 13.21867,-14.93694 12.46065,-34.7263 9.5695,-51.64424 -2.62343,-15.35142 -13.2412,-34.51766 -29.74055,-38.1455 -3.20159,-6.99453 -8.84022,-14.88557 -13.57721,-21.55111 -0.90211,-1.26939 -3.27665,-0.68927 -5.3456,-0.43101 -1.3755,0.25503 -2.87716,-0.60517 -4.12649,1.19295 -4.66589,6.71548 -12.89005,13.79464 -14.79632,20.78917 -16.49935,3.62784 -27.11712,22.79408 -29.74055,38.1455 -2.89115,16.91794 -3.64917,36.7073 9.5695,51.64424 5.91301,6.68164 9.77446,11.39794 29.80592,17.30851 -0.68351,6.9682 -0.66165,10.04395 -3.803,17.78061 -3.09445,7.62103 -4.55945,17.54189 -3.03023,25.54798 l 16.12117,0 z"
     style="fill:#ffe000;fill-opacity:1;fill-rule:evenodd;stroke:#000000;stroke-width:1;stroke-linecap:butt;stroke-linejoin:miter;stroke-opacity:1;stroke-miterlimit:4;stroke-dasharray:none" /><path
     id="path5065"
     d="m 241.0873,436.25241 c -0.0494,-7.00992 -0.18936,-15.2037 -3.88593,-21.02975"
     style="fill:none;fill-rule:evenodd;stroke:#000000;stroke-width:1;stroke-linecap:round;stroke-linejoin:miter;stroke-opacity:1;stroke-miterlimit:4;stroke-dasharray:none" /><path
     id="path5069"
     d="m 239.78794,393.3464 c -0.68097,-5.97807 3.26409,-8.86222 7.47113,-14.92577 6.76315,-9.74766 12.95073,-14.49516 16.00088,-29.48735 2.42124,-11.90097 0.77827,-25.15038 -3.12397,-38.70692 -1.625,-5.64533 -5.22326,-14.81461 -10.71317,-23.97821"
     style="fill:none;fill-rule:evenodd;stroke:#000000;stroke-width:1;stroke-linecap:butt;stroke-linejoin:miter;stroke-opacity:1;stroke-miterlimit:4;stroke-dasharray:none" /><path
     style="fill:none;fill-rule:evenodd;stroke:#000000;stroke-width:1;stroke-linecap:round;stroke-linejoin:miter;stroke-opacity:1;stroke-miterlimit:4;stroke-dasharray:none"
     d="m 219.9127,436.25241 c 0.0494,-7.00992 0.18936,-15.2037 3.88593,-21.02975"
     id="path5073" /><path
     style="fill:none;fill-rule:evenodd;stroke:#000000;stroke-width:1;stroke-linecap:butt;stroke-linejoin:miter;stroke-opacity:1;stroke-miterlimit:4;stroke-dasharray:none"
     d="m 221.21206,393.3464 c 0.68097,-5.97807 -3.26409,-8.86222 -7.47113,-14.92577 -6.76315,-9.74766 -12.95073,-14.49516 -16.00088,-29.48735 -2.42124,-11.90097 -0.77827,-25.15038 3.12397,-38.70692 1.625,-5.64533 5.22326,-14.81461 10.71317,-23.97821"
     id="path5075" /><path
     id="path5077"
     d="m 249.42281,286.24815 c -2.51205,3.80929 -9.4636,10.32742 -18.92281,8.58687 l 0,141.87456"
     style="fill:none;fill-rule:evenodd;stroke:#000000;stroke-width:1;stroke-linecap:butt;stroke-linejoin:miter;stroke-opacity:1;stroke-miterlimit:4;stroke-dasharray:none" /><circle
     r="2.2073987"
     cy="282.18668"
     cx="229.81425"
     id="path5081"
     style="opacity:1;fill:#000000;fill-opacity:1;fill-rule:evenodd;stroke:none;stroke-width:3;stroke-linecap:round;stroke-linejoin:miter;stroke-miterlimit:4;stroke-dasharray:none;stroke-opacity:1" /><circle
     style="opacity:1;fill:#000000;fill-opacity:1;fill-rule:evenodd;stroke:none;stroke-width:3;stroke-linecap:round;stroke-linejoin:miter;stroke-miterlimit:4;stroke-dasharray:none;stroke-opacity:1"
     id="circle5083"
     cx="238.26286"
     cy="280.20566"
     r="2.2073987" /><path
     id="path5085"
     d="m 230.5,264.26603 c 3.96493,-0.6783 4.4261,4.42646 6.62517,9.08208"
     style="fill:none;fill-rule:evenodd;stroke:#000000;stroke-width:0.9894073px;stroke-linecap:round;stroke-linejoin:miter;stroke-opacity:1" /><path
     style="fill:#ffe000;fill-opacity:1;fill-rule:evenodd;stroke:#000000;stroke-width:1;stroke-linecap:butt;stroke-linejoin:miter;stroke-opacity:1;stroke-miterlimit:4;stroke-dasharray:none"
     d="m 246.62117,236.81471 c 1.52922,-8.00609 0.0643,-17.92693 -3.03023,-25.54798 -3.14135,-7.73664 -3.11949,-10.81241 -3.803,-17.78059 20.03146,-5.91057 23.89291,-10.62689 29.80592,-17.30851 13.21867,-14.93694 12.46065,-34.72632 9.5695,-51.64426 -2.62343,-15.35142 -13.2412,-34.51764 -29.74055,-38.14548 -3.20159,-6.994546 -8.84022,-14.885582 -13.57721,-21.55112 -0.90211,-1.26938 -3.27665,-0.689272 -5.3456,-0.431016 -1.3755,0.25504 -2.87716,-0.605172 -4.12649,1.192958 -4.66589,6.715482 -12.89005,13.794632 -14.79632,20.789178 -16.49935,3.62784 -27.11712,22.79406 -29.74055,38.14548 -2.89115,16.91794 -3.64917,36.70732 9.5695,51.64426 5.91301,6.68162 9.77446,11.39794 29.80592,17.30851 -0.68351,6.96818 -0.66165,10.04395 -3.803,17.78059 -3.09445,7.62105 -4.55945,17.54189 -3.03023,25.54798 l 16.12117,0 z"
     id="path5087" /><path
     style="fill:none;fill-rule:evenodd;stroke:#000000;stroke-width:1;stroke-linecap:round;stroke-linejoin:miter;stroke-opacity:1;stroke-miterlimit:4;stroke-dasharray:none"
     d="m 241.0873,236.39215 c -0.0494,-7.00992 -0.18936,-15.20372 -3.88593,-21.02975"
     id="path5089" /><path
     style="fill:none;fill-rule:evenodd;stroke:#000000;stroke-width:1;stroke-linecap:butt;stroke-linejoin:miter;stroke-opacity:1;stroke-miterlimit:4;stroke-dasharray:none"
     d="m 239.78794,193.48614 c -0.68097,-5.97807 3.26409,-8.86222 7.47113,-14.92579 6.76315,-9.74766 12.95073,-14.49514 16.00088,-29.48735 2.42124,-11.90095 0.77827,-25.15038 -3.12397,-38.70692 -1.625,-5.64533 -5.22326,-14.814596 -10.71317,-23.97819"
     id="path5091" /><path
     id="path5093"
     d="m 219.9127,236.39215 c 0.0494,-7.00992 0.18936,-15.20372 3.88593,-21.02975"
     style="fill:none;fill-rule:evenodd;stroke:#000000;stroke-width:1;stroke-linecap:round;stroke-linejoin:miter;stroke-opacity:1;stroke-miterlimit:4;stroke-dasharray:none" /><path
     id="path5095"
     d="m 221.21206,193.48614 c 0.68097,-5.97807 -3.26409,-8.86222 -7.47113,-14.92579 -6.76315,-9.74766 -12.95073,-14.49514 -16.00088,-29.48735 -2.42124,-11.90095 -0.77827,-25.15038 3.12397,-38.70692 1.625,-5.64533 5.22326,-14.814596 10.71317,-23.97819"
     style="fill:none;fill-rule:evenodd;stroke:#000000;stroke-width:1;stroke-linecap:butt;stroke-linejoin:miter;stroke-opacity:1;stroke-miterlimit:4;stroke-dasharray:none" /><path
     style="fill:none;fill-rule:evenodd;stroke:#000000;stroke-width:1;stroke-linecap:butt;stroke-linejoin:miter;stroke-opacity:1;stroke-miterlimit:4;stroke-dasharray:none"
     d="m 249.42281,86.38789 c -2.51205,3.809288 -9.4636,10.327414 -18.92281,8.586858 l 0,141.874572"
     id="path5097" /><circle
     style="opacity:1;fill:#000000;fill-opacity:1;fill-rule:evenodd;stroke:none;stroke-width:3;stroke-linecap:round;stroke-linejoin:miter;stroke-miterlimit:4;stroke-dasharray:none;stroke-opacity:1"
     id="circle5099"
     cx="229.81425"
     cy="82.326439"
     r="2.2073987" /><circle
     r="2.2073987"
     cy="80.345383"
     cx="238.26286"
     id="circle5101"
     style="opacity:1;fill:#000000;fill-opacity:1;fill-rule:evenodd;stroke:none;stroke-width:3;stroke-linecap:round;stroke-linejoin:miter;stroke-miterlimit:4;stroke-dasharray:none;stroke-opacity:1" /><path
     style="fill:none;fill-rule:evenodd;stroke:#000000;stroke-width:1;stroke-linecap:round;stroke-linejoin:miter;stroke-opacity:1;stroke-miterlimit:4;stroke-dasharray:none"
     d="m 230.5,64.405754 c 3.96493,-0.678298 4.4261,4.42647 6.62517,9.082086"
     id="path5103" /><path
     id="path5109"
     d="m 151.42265,319.13267 c 1.51038,-7.90749 0.0635,-17.70617 -2.99291,-25.23336 -3.10267,-7.64138 -3.08107,-10.67927 -3.75618,-17.56165 19.78478,-5.83779 23.59869,-10.49601 29.43888,-17.09535 13.05589,-14.753 12.30719,-34.29868 9.45166,-51.00828 -2.59112,-15.16238 -13.07814,-34.09258 -29.37431,-37.67574 -3.16217,-6.90841 -8.73136,-14.70229 -13.41001,-21.28573 -0.89101,-1.25375 -3.23629,-0.68079 -5.27978,-0.42571 -1.35856,0.25189 -2.84172,-0.59773 -4.07567,1.17827 -4.60845,6.63278 -12.73131,13.62476 -14.61412,20.53317 -16.29617,3.58316 -26.78318,22.51336 -29.374308,37.67574 -2.855534,16.7096 -3.604224,36.25528 9.451664,51.00828 5.840184,6.59934 9.654094,11.25756 29.438874,17.09535 -0.67511,6.88238 -0.65351,9.92027 -3.75618,17.56165 -3.05633,7.52719 -4.50329,17.32587 -2.99291,25.23336 l 15.92265,0 z"
     style="fill:#ffe000;fill-opacity:1;fill-rule:evenodd;stroke:#000000;stroke-width:1;stroke-linecap:butt;stroke-linejoin:miter;stroke-opacity:1;stroke-miterlimit:4;stroke-dasharray:none" /><path
     id="path5111"
     d="m 145.95692,318.71531 c -0.0488,-6.9236 -0.18702,-15.01648 -3.83807,-20.77077"
     style="fill:none;fill-rule:evenodd;stroke:#000000;stroke-width:1;stroke-linecap:round;stroke-linejoin:miter;stroke-opacity:1;stroke-miterlimit:4;stroke-dasharray:none" /><path
     id="path5113"
     d="m 144.67356,276.33766 c -0.67259,-5.90445 3.22389,-8.75308 7.37913,-14.74197 6.67987,-9.62762 12.79125,-14.31666 15.80384,-29.12423 2.39142,-11.75441 0.76867,-24.84066 -3.08551,-38.23026 -1.605,-5.57581 -5.15894,-14.63217 -10.58123,-23.68291"
     style="fill:none;fill-rule:evenodd;stroke:#000000;stroke-width:1;stroke-linecap:butt;stroke-linejoin:miter;stroke-opacity:1;stroke-miterlimit:4;stroke-dasharray:none" /><path
     style="fill:none;fill-rule:evenodd;stroke:#000000;stroke-width:1;stroke-linecap:round;stroke-linejoin:miter;stroke-opacity:1;stroke-miterlimit:4;stroke-dasharray:none"
     d="m 125.04308,318.71531 c 0.0488,-6.9236 0.18702,-15.01648 3.83807,-20.77077"
     id="path5115" /><path
     style="fill:none;fill-rule:evenodd;stroke:#000000;stroke-width:1;stroke-linecap:butt;stroke-linejoin:miter;stroke-opacity:1;stroke-miterlimit:4;stroke-dasharray:none"
     d="m 126.32644,276.33766 c 0.67259,-5.90445 -3.22389,-8.75308 -7.37913,-14.74197 -6.67987,-9.62762 -12.79125,-14.31666 -15.80384,-29.12423 -2.39142,-11.75441 -0.76867,-24.84066 3.08551,-38.23026 1.605,-5.57581 5.15894,-14.63217 10.58123,-23.68291"
     id="path5117" /><path
     id="path5119"
     d="m 154.18979,170.55829 c -2.48111,3.76237 -9.34706,10.20022 -18.68979,8.48111 l 0,140.12746"
     style="fill:none;fill-rule:evenodd;stroke:#000000;stroke-width:1;stroke-linecap:butt;stroke-linejoin:miter;stroke-opacity:1;stroke-miterlimit:4;stroke-dasharray:none" /><circle
     r="2.1802156"
     cy="166.54686"
     cx="134.82268"
     id="circle5121"
     style="opacity:1;fill:#000000;fill-opacity:1;fill-rule:evenodd;stroke:none;stroke-width:3;stroke-linecap:round;stroke-linejoin:miter;stroke-miterlimit:4;stroke-dasharray:none;stroke-opacity:1" /><circle
     style="opacity:1;fill:#000000;fill-opacity:1;fill-rule:evenodd;stroke:none;stroke-width:3;stroke-linecap:round;stroke-linejoin:miter;stroke-miterlimit:4;stroke-dasharray:none;stroke-opacity:1"
     id="circle5123"
     cx="143.16725"
     cy="164.59018"
     r="2.1802156" /><path
     id="path5125"
     d="m 135.5,148.84685 c 3.91609,-0.66995 4.37158,4.37196 6.54358,8.97024"
     style="fill:none;fill-rule:evenodd;stroke:#000000;stroke-width:1;stroke-linecap:round;stroke-linejoin:miter;stroke-opacity:1;stroke-miterlimit:4;stroke-dasharray:none" /><path
     style="fill:#ffe000;fill-opacity:1;fill-rule:evenodd;stroke:#000000;stroke-width:1;stroke-linecap:butt;stroke-linejoin:miter;stroke-opacity:1;stroke-miterlimit:4;stroke-dasharray:none"
     d="m 341.42265,319.13267 c 1.51038,-7.90749 0.0635,-17.70617 -2.99291,-25.23336 -3.10267,-7.64138 -3.08107,-10.67927 -3.75618,-17.56165 19.78478,-5.83779 23.59869,-10.49601 29.43888,-17.09535 13.05589,-14.753 12.30719,-34.29868 9.45166,-51.00828 -2.59112,-15.16238 -13.07814,-34.09258 -29.37431,-37.67574 -3.16217,-6.90841 -8.73136,-14.70229 -13.41001,-21.28573 -0.89101,-1.25375 -3.23629,-0.68079 -5.27978,-0.42571 -1.35856,0.25189 -2.84172,-0.59773 -4.07567,1.17827 -4.60845,6.63278 -12.73131,13.62476 -14.61412,20.53317 -16.29617,3.58316 -26.78319,22.51336 -29.37431,37.67574 -2.85553,16.7096 -3.60423,36.25528 9.45166,51.00828 5.84019,6.59934 9.6541,11.25756 29.43888,17.09535 -0.67511,6.88238 -0.65351,9.92027 -3.75618,17.56165 -3.05633,7.52719 -4.50329,17.32587 -2.99291,25.23336 l 15.92265,0 z"
     id="path5129" /><path
     style="fill:none;fill-rule:evenodd;stroke:#000000;stroke-width:1;stroke-linecap:round;stroke-linejoin:miter;stroke-opacity:1;stroke-miterlimit:4;stroke-dasharray:none"
     d="m 335.95692,318.71531 c -0.0488,-6.9236 -0.18702,-15.01648 -3.83807,-20.77077"
     id="path5131" /><path
     style="fill:none;fill-rule:evenodd;stroke:#000000;stroke-width:1;stroke-linecap:butt;stroke-linejoin:miter;stroke-opacity:1;stroke-miterlimit:4;stroke-dasharray:none"
     d="m 334.67356,276.33766 c -0.67259,-5.90445 3.22389,-8.75308 7.37913,-14.74197 6.67987,-9.62762 12.79125,-14.31666 15.80384,-29.12423 2.39142,-11.75441 0.76867,-24.84066 -3.08551,-38.23026 -1.605,-5.57581 -5.15894,-14.63217 -10.58123,-23.68291"
     id="path5133" /><path
     id="path5135"
     d="m 315.04308,318.71531 c 0.0488,-6.9236 0.18702,-15.01648 3.83807,-20.77077"
     style="fill:none;fill-rule:evenodd;stroke:#000000;stroke-width:1;stroke-linecap:round;stroke-linejoin:miter;stroke-opacity:1;stroke-miterlimit:4;stroke-dasharray:none" /><path
     id="path5137"
     d="m 316.32644,276.33766 c 0.67259,-5.90445 -3.22389,-8.75308 -7.37913,-14.74197 -6.67987,-9.62762 -12.79125,-14.31666 -15.80384,-29.12423 -2.39142,-11.75441 -0.76867,-24.84066 3.08551,-38.23026 1.605,-5.57581 5.15894,-14.63217 10.58123,-23.68291"
     style="fill:none;fill-rule:evenodd;stroke:#000000;stroke-width:1;stroke-linecap:butt;stroke-linejoin:miter;stroke-opacity:1;stroke-miterlimit:4;stroke-dasharray:none" /><path
     style="fill:none;fill-rule:evenodd;stroke:#000000;stroke-width:1;stroke-linecap:butt;stroke-linejoin:miter;stroke-opacity:1;stroke-miterlimit:4;stroke-dasharray:none"
     d="m 344.18979,170.55829 c -2.48111,3.76237 -9.34706,10.20022 -18.68979,8.48111 l 0,140.12746"
     id="path5139" /><circle
     style="opacity:1;fill:#000000;fill-opacity:1;fill-rule:evenodd;stroke:none;stroke-width:3;stroke-linecap:round;stroke-linejoin:miter;stroke-miterlimit:4;stroke-dasharray:none;stroke-opacity:1"
     id="circle5141"
     cx="324.82269"
     cy="166.54686"
     r="2.1802156" /><circle
     r="2.1802156"
     cy="164.59018"
     cx="333.16724"
     id="circle5143"
     style="opacity:1;fill:#000000;fill-opacity:1;fill-rule:evenodd;stroke:none;stroke-width:3;stroke-linecap:round;stroke-linejoin:miter;stroke-miterlimit:4;stroke-dasharray:none;stroke-opacity:1" /><path
     style="fill:none;fill-rule:evenodd;stroke:#000000;stroke-width:0.97722316px;stroke-linecap:round;stroke-linejoin:miter;stroke-opacity:1"
     d="m 325.5,148.84685 c 3.91609,-0.66995 4.37158,4.37196 6.54358,8.97024"
     id="path5145" /></svg>