<svg xmlns:dc="http://purl.org/dc/elements/1.1/" xmlns:cc="http://creativecommons.org/ns#" xmlns:rdf="http://www.w3.org/1999/02/22-rdf-syntax-ns#" xmlns:svg="http://www.w3.org/2000/svg" xmlns="http://www.w3.org/2000/svg" id="svg2" version="1.1" x="0" y="0" width="400" height="500" viewBox="30.5 31.5 400 500" enable-background="new 30.5 31.5 412 533" xml:space="preserve">
  <metadata id="metadata4">
    <rdf:RDF>
      <cc:Work rdf:about="">
        <dc:format>
          
          
          
          
          
          
          image/svg+xml
        
        
        
        
        
        
        </dc:format>
        <dc:type rdf:resource="http://purl.org/dc/dcmitype/StillImage"/>
      </cc:Work>
    </rdf:RDF>
  </metadata>
  <defs id="defs6"/>
  <path fill="#e00e00" d="M230.45 531.13C156.13 477.21 105.19 409.11 74.71 322.97 47.07 244.87 35.98 150.22 40.8 33.62l0.02-0.46 379.82 0 0.02 0.46c4.81 116.6-6.28 211.24-33.91 289.35-30.48 86.14-81.42 154.24-155.74 208.16l-0.28 0.2-0.28-0.2z" id="path4148"/>
  <path id="path10" d="M419.96 33.21C429.03 252.66 383.71 419.16 230.51 530.31 146.04 469.02 94.36 390.9 66.52 296.34 64.43 289.25 62.48 282.07 60.65 274.8 49.2 229.11 42.88 179.78 40.77 126.86 39.57 96.8 39.72 65.58 41.06 33.21l189.45 0 189.45 0m0.92-0.95-0.92 0-189.45 0-189.45 0-0.92 0-0.04 0.92c-4.82 116.66 6.28 211.36 33.93 289.52 30.51 86.24 81.51 154.41 155.91 208.39l0.56 0.41 0.56-0.41C305.46 477.11 356.46 408.94 386.97 322.7 414.62 244.54 425.72 149.84 420.9 33.18l-0.04-0.92 0 0z"/>
  <path id="path2830" d="m62.49 167.52c-1.14-14.98-1.72-25.73 3.23-36.69 7.39-16.38 17.7-22.12 30.17-22.15l0.94-10.77c0.37-4.29 13.88-13.29 27.45-22.5 14.26-9.67 24.98-20.35 35.13-17.18 15.88 4.97 27.39 21.44 52.6 78.26 3.94 8.87-9.89 11.42 5.71 37.6l73.37 123.11c4.12 6.91 8.73 7.44 18.4 15.03 69.79 54.81-19.19 128.18-47.93 68.55-10.33-21.43 1.02-44.2-7.43-55.42C235.14 300.16 201.81 243.95 173.06 206.39 158.88 188.1 149.14 193.24 145.71 189.09L99.43 133.03c-5.43-6.91-15.58-3.9-19.76 2.4-12.25 18.45-14.21 28.57-17.18 32.09z" style="fill:#ffe000;stroke-miterlimit:4;stroke:#000"/>
</svg>
