<?xml version="1.0" encoding="UTF-8" standalone="no"?>
<svg
   xmlns:dc="http://purl.org/dc/elements/1.1/"
   xmlns:cc="http://creativecommons.org/ns#"
   xmlns:rdf="http://www.w3.org/1999/02/22-rdf-syntax-ns#"
   xmlns:svg="http://www.w3.org/2000/svg"
   xmlns="http://www.w3.org/2000/svg"
   version="1"
   width="445"
   height="500"
   id="svg2">
  <metadata
     id="metadata51">
    <rdf:RDF>
      <cc:Work
         rdf:about="">
        <dc:format>
          image/svg+xml
        </dc:format>
        <dc:type
           rdf:resource="http://purl.org/dc/dcmitype/StillImage" />
        <dc:title></dc:title>
      </cc:Work>
    </rdf:RDF>
  </metadata>
  <defs
     id="defs4" />
  <path
     id="path4245"
     d="m 442.5,2.5 0,334.69441 C 442.5,438.04828 347.634,497.5 222.5,497.5 97.366004,497.5 2.5,438.04828 2.5,337.19441 L 2.5,2.5 c 146.66667,0 293.33333,0 440,0 z"
     style="fill:#e00e00;stroke:#000000;stroke-width:1;fill-opacity:1;stroke-miterlimit:4;stroke-dasharray:none" />
  <path
     id="path4324"
     d="m 169.37686,128.12965 c -6.09186,-0.0146 -18.15453,-5.89861 -18.98184,-13.13356 0.82731,-7.23495 12.88998,-13.11894 18.98184,-13.13356 l 46.38162,6.39204 -6.39204,-46.381633 c 0.0146,-6.091856 5.89861,-18.154519 13.13356,-18.981843 7.23495,0.827324 13.11894,12.889987 13.13356,18.981843 l -6.39204,46.381633 46.38162,-6.39204 c 6.09186,0.0146 18.15453,5.89861 18.98184,13.13356 -0.82731,7.23495 -12.88998,13.11897 -18.98184,13.13356 l -46.38162,-6.39204 6.39204,46.38162 c -0.0146,6.09186 -5.89861,18.15453 -13.13356,18.98184 -7.23495,-0.82731 -13.11894,-12.88998 -13.13356,-18.98184 l 6.39204,-46.38162 z"
     style="fill:#ffe000;fill-rule:evenodd;stroke:#000000;stroke-width:1;stroke-linecap:butt;stroke-linejoin:miter;stroke-opacity:1;stroke-miterlimit:4;stroke-dasharray:none;fill-opacity:1" />
  <path
     style="fill:#ffe000;fill-rule:evenodd;stroke:#000000;stroke-width:1;stroke-linecap:butt;stroke-linejoin:miter;stroke-opacity:1;stroke-miterlimit:4;stroke-dasharray:none;fill-opacity:1"
     d="m 227.36175,71.976059 c 5.80392,-7.625139 13.08049,-14.516713 21.73636,-18.950714 8.37815,-4.291752 25.05274,-2.758423 36.76508,-1.388737 1.36969,11.712361 2.90303,28.386932 -1.38872,36.765082 -4.43402,8.655873 -11.32559,15.93245 -18.95072,21.73636 -5.46678,4.16108 -9.90964,4.86184 -17.24847,4.86175 7.33882,-8e-5 11.78168,0.70067 17.24846,4.86175 7.62513,5.80391 14.5167,13.08049 18.95072,21.73636 4.29175,8.37814 2.75841,25.05274 1.38872,36.76509 -11.71234,1.36969 -28.38693,2.90301 -36.76508,-1.38874 -8.65587,-4.434 -15.93244,-11.32558 -21.73636,-18.95071 -4.16108,-5.46679 -4.86183,-9.90964 -4.8599,-17.25034 0.002,7.33698 -0.69881,11.77984 -4.85989,17.24662 -5.80391,7.62514 -13.08048,14.51671 -21.73635,18.95072 -8.37815,4.29176 -25.05274,2.75842 -36.76509,1.38873 -1.36968,-11.71235 -2.90302,-28.38694 1.38873,-36.76509 4.434,-8.65587 11.32559,-15.93244 18.95072,-21.73636 5.46678,-4.16108 9.90964,-4.86183 17.25032,-4.8599 -7.33696,0.002 -11.77982,-0.69881 -17.2466,-4.85989 -7.62515,-5.80391 -14.51672,-13.080485 -18.95072,-21.73636 -4.29176,-8.378149 -2.75842,-25.052721 -1.38873,-36.765082 11.71235,-1.369686 28.38692,-2.903015 36.76507,1.388737 8.65588,4.434001 15.93244,11.325576 21.73637,18.950714 4.16108,5.466785 4.86183,9.909638 4.85804,17.248466 -0.004,-7.338818 0.69696,-11.781671 4.85804,-17.248456 z"
     id="path4306" />
  <path
     style="fill:none;fill-rule:evenodd;stroke:#000000;stroke-width:1;stroke-linecap:round;stroke-linejoin:miter;stroke-miterlimit:4;stroke-dasharray:none;stroke-opacity:1"
     d="M 254.95684,147.45662 190.04316,82.542956"
     id="path4338" />
  <path
     id="path4350"
     d="M 190.04316,147.45662 254.95684,82.542956"
     style="fill:none;fill-rule:evenodd;stroke:#000000;stroke-width:0.94776839;stroke-linecap:round;stroke-linejoin:miter;stroke-miterlimit:4;stroke-dasharray:none;stroke-opacity:1" />
  <path
     id="path4360"
     d="m 189.01885,96.682941 66.9623,36.633729"
     style="fill:none;fill-rule:evenodd;stroke:#000000;stroke-width:0.94776839px;stroke-linecap:round;stroke-linejoin:miter;stroke-opacity:1" />
  <path
     id="path4362"
     d="m 204.18313,81.518646 36.63374,66.962304"
     style="fill:none;fill-rule:evenodd;stroke:#000000;stroke-width:0.94776839px;stroke-linecap:butt;stroke-linejoin:miter;stroke-opacity:1" />
  <path
     id="path4364"
     d="M 240.81687,81.518646 204.18313,148.48095"
     style="fill:none;fill-rule:evenodd;stroke:#000000;stroke-width:1;stroke-linecap:round;stroke-linejoin:miter;stroke-opacity:1;stroke-miterlimit:4;stroke-dasharray:none" />
  <path
     id="path4366"
     d="m 255.98115,96.682941 -66.9623,36.633729"
     style="fill:none;fill-rule:evenodd;stroke:#000000;stroke-width:1;stroke-linecap:round;stroke-linejoin:miter;stroke-opacity:1;stroke-miterlimit:4;stroke-dasharray:none" />
  <path
     id="path4559"
     d="m 222.50369,89.162465 -0.002,51.610745"
     style="fill:none;fill-rule:evenodd;stroke:#000000;stroke-width:1px;stroke-linecap:butt;stroke-linejoin:miter;stroke-opacity:1" />
  <path
     id="path4561"
     d="m 196.70013,114.99793 51.57515,0.002"
     style="fill:none;fill-rule:evenodd;stroke:#000000;stroke-width:1px;stroke-linecap:butt;stroke-linejoin:miter;stroke-opacity:1" />
  <circle
     r="22.887053"
     cy="114.99979"
     cx="222.5"
     id="path4269"
     style="opacity:0.98000004;fill:#ffe000;fill-opacity:1;stroke:#000000;stroke-width:1;stroke-linecap:butt;stroke-linejoin:miter;stroke-opacity:1;stroke-miterlimit:4;stroke-dasharray:none" />
  <path
     id="path4531"
     d="m 207.48389,245 c 0,4.16155 3.92945,5.23307 9.78304,5.23307 0,5.85359 1.07152,9.78304 5.23307,9.78304 4.16155,0 5.23307,-3.92945 5.23307,-9.78304 5.85359,0 9.78304,-1.07152 9.78304,-5.23307 0,-4.16155 -3.92945,-5.23307 -9.78304,-5.23307 0,-5.85359 -1.07152,-9.78304 -5.23307,-9.78304 -4.16155,0 -5.23307,3.92945 -5.23307,9.78304 -5.85359,0 -9.78304,1.07152 -9.78304,5.23307 z"
     style="fill:#ffe000;fill-opacity:1;fill-rule:evenodd;stroke:#000000;stroke-width:1;stroke-linecap:butt;stroke-linejoin:miter;stroke-miterlimit:4;stroke-dasharray:none;stroke-opacity:1" />
  <path
     style="fill:#ffe000;fill-opacity:1;fill-rule:evenodd;stroke:#000000;stroke-width:1;stroke-linecap:butt;stroke-linejoin:miter;stroke-miterlimit:4;stroke-dasharray:none;stroke-opacity:1"
     d="m 107.48389,210 c 0,4.16155 3.92945,5.23307 9.78304,5.23307 0,5.85359 1.07152,9.78304 5.23307,9.78304 4.16155,0 5.23307,-3.92945 5.23307,-9.78304 5.85359,0 9.78304,-1.07152 9.78304,-5.23307 0,-4.16155 -3.92945,-5.23307 -9.78304,-5.23307 0,-5.85359 -1.07152,-9.78304 -5.23307,-9.78304 -4.16155,0 -5.23307,3.92945 -5.23307,9.78304 -5.85359,0 -9.78304,1.07152 -9.78304,5.23307 z"
     id="path4533" />
  <path
     id="path4535"
     d="m 307.48389,210 c 0,4.16155 3.92945,5.23307 9.78304,5.23307 0,5.85359 1.07152,9.78304 5.23307,9.78304 4.16155,0 5.23307,-3.92945 5.23307,-9.78304 5.85359,0 9.78304,-1.07152 9.78304,-5.23307 0,-4.16155 -3.92945,-5.23307 -9.78304,-5.23307 0,-5.85359 -1.07152,-9.78304 -5.23307,-9.78304 -4.16155,0 -5.23307,3.92945 -5.23307,9.78304 -5.85359,0 -9.78304,1.07152 -9.78304,5.23307 z"
     style="fill:#ffe000;fill-opacity:1;fill-rule:evenodd;stroke:#000000;stroke-width:1;stroke-linecap:butt;stroke-linejoin:miter;stroke-miterlimit:4;stroke-dasharray:none;stroke-opacity:1" />
  <path
     style="fill:#ffe000;fill-opacity:1;fill-rule:evenodd;stroke:#000000;stroke-width:1;stroke-linecap:butt;stroke-linejoin:miter;stroke-miterlimit:4;stroke-dasharray:none;stroke-opacity:1"
     d="m 350.48389,135 c 0,4.16155 3.92945,5.23307 9.78304,5.23307 0,5.85359 1.07152,9.78304 5.23307,9.78304 4.16155,0 5.23307,-3.92945 5.23307,-9.78304 5.85359,0 9.78304,-1.07152 9.78304,-5.23307 0,-4.16155 -3.92945,-5.23307 -9.78304,-5.23307 0,-5.85359 -1.07152,-9.78304 -5.23307,-9.78304 -4.16155,0 -5.23307,3.92945 -5.23307,9.78304 -5.85359,0 -9.78304,1.07152 -9.78304,5.23307 z"
     id="path4537" />
  <path
     id="path4539"
     d="m 64.483893,135 c 0,4.16155 3.92945,5.23307 9.783035,5.23307 0,5.85359 1.071527,9.78304 5.233072,9.78304 4.161545,0 5.233072,-3.92945 5.233072,-9.78304 5.853585,0 9.783035,-1.07152 9.783035,-5.23307 0,-4.16155 -3.92945,-5.23307 -9.783035,-5.23307 0,-5.85359 -1.071527,-9.78304 -5.233072,-9.78304 -4.161545,0 -5.233072,3.92945 -5.233072,9.78304 -5.853585,0 -9.783035,1.07152 -9.783035,5.23307 z"
     style="fill:#ffe000;fill-opacity:1;fill-rule:evenodd;stroke:#000000;stroke-width:1;stroke-linecap:butt;stroke-linejoin:miter;stroke-miterlimit:4;stroke-dasharray:none;stroke-opacity:1" />
  <path
     style="fill:#ffe000;fill-opacity:1;fill-rule:evenodd;stroke:#000000;stroke-width:1;stroke-linecap:butt;stroke-linejoin:miter;stroke-miterlimit:4;stroke-dasharray:none;stroke-opacity:1"
     d="m 27.483893,50 c 0,4.161545 3.92945,5.233072 9.783035,5.233072 0,5.853585 1.071527,9.783035 5.233072,9.783035 4.161545,0 5.233072,-3.92945 5.233072,-9.783035 5.853585,0 9.783035,-1.071527 9.783035,-5.233072 0,-4.161545 -3.92945,-5.233072 -9.783035,-5.233072 0,-5.853585 -1.071527,-9.783035 -5.233072,-9.783035 -4.161545,0 -5.233072,3.92945 -5.233072,9.783035 -5.853585,0 -9.783035,1.071527 -9.783035,5.233072 z"
     id="path4541" />
  <path
     id="path4543"
     d="m 107.48389,50 c 0,4.161545 3.92945,5.233072 9.78304,5.233072 0,5.853585 1.07152,9.783035 5.23307,9.783035 4.16155,0 5.23307,-3.92945 5.23307,-9.783035 5.85359,0 9.78304,-1.071527 9.78304,-5.233072 0,-4.161545 -3.92945,-5.233072 -9.78304,-5.233072 0,-5.853585 -1.07152,-9.783035 -5.23307,-9.783035 -4.16155,0 -5.23307,3.92945 -5.23307,9.783035 -5.85359,0 -9.78304,1.071527 -9.78304,5.233072 z"
     style="fill:#ffe000;fill-opacity:1;fill-rule:evenodd;stroke:#000000;stroke-width:1;stroke-linecap:butt;stroke-linejoin:miter;stroke-miterlimit:4;stroke-dasharray:none;stroke-opacity:1" />
  <path
     style="fill:#ffe000;fill-opacity:1;fill-rule:evenodd;stroke:#000000;stroke-width:1;stroke-linecap:butt;stroke-linejoin:miter;stroke-miterlimit:4;stroke-dasharray:none;stroke-opacity:1"
     d="m 307.48389,50 c 0,4.161545 3.92945,5.233072 9.78304,5.233072 0,5.853585 1.07152,9.783035 5.23307,9.783035 4.16155,0 5.23307,-3.92945 5.23307,-9.783035 5.85359,0 9.78304,-1.071527 9.78304,-5.233072 0,-4.161545 -3.92945,-5.233072 -9.78304,-5.233072 0,-5.853585 -1.07152,-9.783035 -5.23307,-9.783035 -4.16155,0 -5.23307,3.92945 -5.23307,9.783035 -5.85359,0 -9.78304,1.071527 -9.78304,5.233072 z"
     id="path4545" />
  <path
     id="path4547"
     d="m 387.48389,50 c 0,4.161545 3.92945,5.233072 9.78304,5.233072 0,5.853585 1.07152,9.783035 5.23307,9.783035 4.16155,0 5.23307,-3.92945 5.23307,-9.783035 5.85359,0 9.78304,-1.071527 9.78304,-5.233072 0,-4.161545 -3.92945,-5.233072 -9.78304,-5.233072 0,-5.853585 -1.07152,-9.783035 -5.23307,-9.783035 -4.16155,0 -5.23307,3.92945 -5.23307,9.783035 -5.85359,0 -9.78304,1.071527 -9.78304,5.233072 z"
     style="fill:#ffe000;fill-opacity:1;fill-rule:evenodd;stroke:#000000;stroke-width:1;stroke-linecap:butt;stroke-linejoin:miter;stroke-miterlimit:4;stroke-dasharray:none;stroke-opacity:1" />
  <path
     style="fill:#ffe000;fill-rule:evenodd;stroke:#000000;stroke-width:1px;stroke-linecap:butt;stroke-linejoin:miter;stroke-opacity:1;fill-opacity:1"
     d="M 122.50004,415.52176 C 69.217044,401.85462 47.189394,361.01663 42.500044,336.55297 c -2.77713,-14.48786 -3.9023,-31.70736 -4.89433,-47.24578 -2.70313,-42.33915 -1.62708,-83.45985 0.0422,-125.99583 0.15921,-4.05693 19.55956,-3.8082 19.58916,0.61216 0.2023,30.21037 2.04553,56.5084 7.71032,69.82426 8.93669,21.00694 20.339,32.59032 38.646026,41.86092 1.76677,0.89471 1.373,6.48695 1.83967,10.31709 0.39728,3.26063 17.86811,8.11297 20.22173,5.34767 3.09964,-3.64181 5.979,-9.26146 9.87204,-9.12991 5.44878,0.18412 11.04856,1.27076 12.77793,5.41981 1.79125,4.2975 2.00988,11.54358 9.20417,12.89251 C 174.12012,303.57046 196.45402,305 222.5,305 c 26.04598,0 48.37988,-1.42954 64.99104,-4.54413 7.19429,-1.34893 7.41292,-8.59501 9.20417,-12.89251 1.72937,-4.14905 7.32915,-5.23569 12.77793,-5.41981 3.89304,-0.13155 6.7724,5.4881 9.87204,9.12991 2.35362,2.7653 19.82445,-2.08704 20.22173,-5.34767 0.46667,-3.83014 0.0729,-9.42238 1.83967,-10.31709 18.30703,-9.2706 29.70934,-20.85398 38.64603,-41.86092 5.66479,-13.31586 7.50802,-39.61389 7.71032,-69.82426 0.0296,-4.42036 19.42995,-4.66909 19.58916,-0.61216 1.66928,42.53598 2.74533,83.65668 0.0422,125.99583 -0.99203,15.53842 -2.1172,32.75792 -4.89433,47.24578 -4.68935,24.46366 -26.717,65.30165 -80,78.96879 C 293.97857,422.83754 247.85504,430 222.5,430 c -25.35504,0 -71.47857,-7.16246 -99.99996,-14.47824 z"
     id="path4555" />
  <path
     style="fill:none;fill-rule:evenodd;stroke:#000000;stroke-width:1px;stroke-linecap:butt;stroke-linejoin:miter;stroke-opacity:1"
     d="m 322.5,378.79209 c 49.85467,-18.93608 70.54231,-52.7352 65.40157,-98.39051 C 367.5,320.47251 336.00163,345.73539 222.5,345.73539 c -113.50163,0 -145,-25.26288 -165.401577,-65.33381 -5.140738,45.65531 15.546901,79.45443 65.401577,98.39051 31.99824,12.15375 70.29259,11.63106 100,11.63106 29.70741,0 68.00176,0.52269 100,-11.63106 z"
     id="path4551" />
  <circle
     style="opacity:0.98000004;fill:#ffe000;fill-opacity:1;stroke:#000000;stroke-width:1;stroke-linecap:butt;stroke-linejoin:miter;stroke-opacity:1;stroke-miterlimit:4;stroke-dasharray:none"
     id="circle4557"
     cx="222.5"
     cy="114.99979"
     r="22.887053" />
</svg>
