<svg xmlns:dc="http://purl.org/dc/elements/1.1/" xmlns:cc="http://creativecommons.org/ns#" xmlns:rdf="http://www.w3.org/1999/02/22-rdf-syntax-ns#" xmlns:svg="http://www.w3.org/2000/svg" xmlns="http://www.w3.org/2000/svg" id="svg2" version="1.1" x="0" y="0" width="400" height="500" viewBox="30.5 31.5 400 500" enable-background="new 30.5 31.5 412 533" xml:space="preserve">
  <metadata id="metadata4">
    <rdf:RDF>
      <cc:Work rdf:about="">
        <dc:format>
          
          
          
          
          image/svg+xml
        
        
        
        
        </dc:format>
        <dc:type rdf:resource="http://purl.org/dc/dcmitype/StillImage"/>
      </cc:Work>
    </rdf:RDF>
  </metadata>
  <defs id="defs6"/>
  <path id="path8" d="m230.22 531.3c-74.32-53.92-125.26-122.02-155.74-208.16-27.64-78.1-38.73-172.75-33.91-289.35l0.02-0.46 379.82 0 0.02 0.46c4.81 116.6-6.28 211.24-33.91 289.35-30.48 86.14-81.42 154.24-155.74 208.16l-0.28 0.2z" fill="#e00e00"/>
  <path id="path10" d="M419.96 33.21C429.03 252.66 383.7 419.16 230.5 530.31 77.31 419.16 31.99 252.66 41.06 33.21l189.45 0 189.45 0m0.92-0.95-0.92 0-189.45 0-189.45 0-0.92 0-0.04 0.92c-4.82 116.66 6.28 211.36 33.93 289.52 30.51 86.24 81.51 154.41 155.91 208.39l0.56 0.41 0.56-0.41C305.46 477.11 356.46 408.94 386.97 322.7 414.62 244.54 425.72 149.84 420.9 33.18l-0.04-0.92 0 0z"/>
  <path id="path2827" d="m245.76 198.29c-4.57 17.71-25.17 39.29-38.78 40.63-15.69 1.54-21.45 8.21-33.63 19.39-9.66 8.87-19.29 15.76-18.48 18.36 3.97 12.84-12.19 22.53-20.39 25.63-4.88 1.85-14.65-3.38-12.02-6.46 12.98-15.24 12.31-22.93 6.79-27.5-8.15-6.75-18.64 17.2-27.21 21.02-10.11 4.51-28.89-44.9-9.55-45.5 12.41-24.76 27.79-47.39 42.99-70.16-4.3-2.48-4.59-14.51-3.55-16.31 0 0-11.9 0.87-17.81-2.37 14.88-16.33 12.59-34.67 24.39-44.32 10.75-8.79 16.9-10.08 33.71-9.72 0 0 3.29-3.54 5.17-5.41l-30.68-27.47c14.94 0.79 29.78 5.32 50.41 15.63 3.23-1.71 11.58-6.17 16.45-8.59 85.36-42.3 148.03 16.2 155.97 48.46 6.38 25.95 2.49 56.28 7.73 65.45l14.86 13.56-155.75 271.56c-14.66-18.52-11.35-54.79-2.61-81 5.5-16.5 15.08-23.09 14.97-29.29-0.74-41.24-5.45-78.71-6.73-126.21-0.25-9.28 10.48-20.98 10.31-37.63-0.06-6.43-3.57-17.4-3.57-17.4 0 0-1.6 10.27-2.99 15.64z" style="fill:#ffe000;stroke:#000"/>
  <path id="path3649" d="m102 258.49a7.5 4.7 59.29 0 1-8.09 4.8 7.5 4.7 59.29 0 1 8.09-4.8z" style="fill:none;stroke-linecap:round;stroke-linejoin:round;stroke-miterlimit:4;stroke:#000"/>
  <path id="path4342" d="m131.92 157.39 40.28-56.41" style="fill:none;stroke:#000"/>
  <path id="path4344" d="m213.06 75.39c18.14-4.15 39.54-1.47 55.36 0.86 42.43 6.24 66.69 26.99 80.95 57.08 7.8 16.46 17.53 46.47 27.89 55.73" style="fill:none;stroke:#000"/>
  <path id="path4346" d="m228.71 153.37c11.81 9.33 19.49 19.09 20.03 29.28" style="fill:none;stroke:#000"/>
  <circle r="5.34" cy="160.21" cx="147.81" id="path4348" style="fill:none;stroke-linecap:round;stroke-linejoin:round;stroke-miterlimit:4;stroke:#000"/>
  <path id="path4352" d="m149.19 150.52c-8.82 4.82-9.08 13.05-7.4 19.73 0.49 1.96-1.4 3.84-1.21 5.9 5.41-7.08 10.23-11.84 17.28-16.79" style="fill:none;stroke-linecap:round;stroke:#000"/>
</svg>
