<svg xmlns:dc="http://purl.org/dc/elements/1.1/" xmlns:cc="http://creativecommons.org/ns#" xmlns:rdf="http://www.w3.org/1999/02/22-rdf-syntax-ns#" xmlns:svg="http://www.w3.org/2000/svg" xmlns="http://www.w3.org/2000/svg" id="svg2" version="1.1" x="0" y="0" width="400" height="500" viewBox="30.5 31.5 400 500" enable-background="new 30.5 31.5 412 533" xml:space="preserve">
  <metadata id="metadata4">
    <rdf:RDF>
      <cc:Work rdf:about="">
        <dc:format>
          
          
          
          
          
          
          image/svg+xml
        
        
        
        
        
        
        </dc:format>
        <dc:type rdf:resource="http://purl.org/dc/dcmitype/StillImage"/>
      </cc:Work>
    </rdf:RDF>
  </metadata>
  <defs id="defs6"/>
  <path d="M230.45 531.13C156.13 477.21 105.19 409.11 74.71 322.97 47.07 244.87 35.98 150.22 40.8 33.62l0.02-0.46 379.82 0 0.02 0.46c4.81 116.6-6.28 211.24-33.91 289.35-30.48 86.14-81.42 154.24-155.74 208.16l-0.28 0.2-0.28-0.2z" id="path4148" fill="#e00e00"/>
  <path id="path10" d="M419.96 33.21C429.03 252.66 383.71 419.16 230.51 530.31 146.04 469.02 94.36 390.9 66.52 296.34 64.43 289.25 62.48 282.07 60.65 274.8 49.2 229.11 42.88 179.78 40.77 126.86 39.57 96.8 39.72 65.58 41.06 33.21l189.45 0 189.45 0m0.92-0.95-0.92 0-189.45 0-189.45 0-0.92 0-0.04 0.92c-4.82 116.66 6.28 211.36 33.93 289.52 30.51 86.24 81.51 154.41 155.91 208.39l0.56 0.41 0.56-0.41C305.46 477.11 356.46 408.94 386.97 322.7 414.62 244.54 425.72 149.84 420.9 33.18l-0.04-0.92 0 0z"/>
  <path id="path3061" d="m98.38 66.61c-7.37-0.1-13.44 2.59-23 5.28 4.28-7.87 16.33-17.12 30.27-17.42 27.18-0.6 42.51 14.04 62.92 13.84 16.23-0.2 27.68-16.43 43.71-16.53 10.06-0.1 12.94 4.58 18.12 7.07 5.28-2.59 8.16-7.17 18.12-7.07 16.13 0.2 27.48 16.33 43.71 16.53 20.41 0.2 35.74-14.34 62.92-13.84 13.94 0.3 25.99 9.56 30.27 17.42-9.46-2.69-15.63-5.28-23-5.28-9.86 0.1-19.12 5.18-27.08 13.34 12.25 4.88 21.6 13.54 35.94 15.13 12.64 1.49 23.5-2.19 33.55-5.38-6.47 14.24-19.71 23.2-30.56 23.1-19.41-0.3-45.1-21.5-56.45-10.65 18.92 3.19 26.68 16.03 37.63 25.49 8.36 7.17 25.99 6.07 45.1 6.07-5.38 6.27-33.45 18.72-47.29 18.22-23.1-0.9-28.28-27.88-50.68-27.68 8.86 10.95 10.06 21.31 18.12 26.68 8.76 5.87 19.51 4.98 33.15 10.35 21.41 8.46 15.43 30.17 14.04 38.93-6.57-11.35-10.35-24.09-22-25.99-12.74-2.09-26.28-0.1-38.03-7.87-10.55-6.97-14.04-24.69-31.76-40.22-7.77-6.77-17.32 2.39-32.46-13.74l0 16.43c15.33 0.8 20.51-1.59 27.38 5.18 12.94 12.74 13.04 29.47 35.24 41.22 11.15 5.87 25.59 21.6 30.66 25.99 6.17 5.28 12.64 12.84 17.22 13.14 6.57 0.4 13.84 0.6 20.41 7.96 1.19 1.39-3.19 1.99 1.39 4.48l4.68 2.49c7.07 3.68-7.07 15.93-10.55 13.64-3.98-2.59-10.06-5.48-15.53-10.06-3.09-2.59-5.38-6.67-7.47-8.66-7.47-7.37-21.01-14.73-21.8-13.04-4.78 10.45-0.3 22.9-7.57 33.15l-10.65-10.65c-3.19 5.28-6.87 10.35-14.14 13.14-1.39-11.25-1.89-19.12-5.77-26.58-7.87-15.43-14.64-31.16-25.69-43.41-1.79-1.99-7.27 1.89-7.37 9.86l-0.2 15.73c-0.1 7.57 8.26 16.03 17.52 29.07 9.46 13.34 20.01 29.77 27.58 41.02 9.86 19.22 23.3 31.86 29.47 57.74 3.98 16.33 5.38 32.46 4.58 46.1-10.06-2.79-20.41-6.17-28.87-10.16 4.38 8.36 6.37 27.08 6.47 34.75 0.4 16.53-7.17 23-13.34 24.69-1.29 0.4-8.66 1.49-17.02 1.99-13.64 0.8-19.22-1.1-36.64-1.29-6.07-0.1-13.24 2.99-13.34 8.66-0.1 9.46 24.49 20.31 18.42 41.02-1 0.6-5.58-10.45-13.54-15.03 6.67 10.16 5.97 35.74-5.87 41.91 0.6-19.12-3.78-26.38-9.46-33.15-2.09 2.39-3.48 5.38-5.67 8.56-4.28-8.16-6.97-14.64-8.06-23.6-3.29 3.29-5.28 9.86-5.77 13.14-6.27-7.37-5.77-24.09-3.48-37.53 1.1-6.77 13.84-18.02 23.89-18.52 19.81-1 38.23 8.96 54.46 8.16 16.23-0.8 23.1-0.6 23.7-13.44 0.2-4.78-1.49-8.76-7.57-23.79-2.29-5.58-4.28-10.75-8.46-15.93-0.1 2.99-1.79 11.95-2.79 15.13-8.06-6.37-15.03-12.64-15.03-12.64l0.1 13.84c0 3.09 5.58 8.56 8.36 11.55 2.59 2.89 3.29 5.77 10.25 7.47 1.79 0.4 4.68 0.2 7.37 1.59 1.79 1 1.49 3.58-0.6 4.38-2.69 1-7.27 4.08-10.95 3.98-13.94-0.5-8.16-6.67-16.93-7.47-7.47-0.7-16.53 3.19-18.12-3.19-1.69-6.67 2.79-11.55 3.29-16.33 0.9-9.86-3.39-17.62-3.39-17.62 0 0-6.27 14.54-13.94 20.81-7.67-6.27-13.94-20.81-13.94-20.81 0 0-4.38 7.87-3.39 17.62 0.4 4.68 4.88 9.56 3.29 16.33-1.59 6.37-10.55 2.49-18.12 3.19-8.76 0.8-2.89 6.97-16.93 7.47-3.78 0.1-8.26-2.89-10.95-3.98-2.09-0.8-2.39-3.39-0.6-4.38 2.69-1.39 5.58-1.19 7.37-1.59 6.97-1.59 7.67-4.58 10.25-7.47 2.79-2.99 8.26-8.56 8.36-11.55l0.1-13.84c0 0-6.97 6.27-15.03 12.64-0.9-3.29-2.69-12.15-2.79-15.13-7.67 9.46-17.02 14.73-26.78 19.91-0.3-6.87-0.9-14.24 1.79-20.81-8.46 3.98-15.13 7.67-25.19 10.45-0.8-13.64 0.6-29.77 4.58-46.1 6.17-25.79 19.61-38.43 29.47-57.74 7.57-11.25 18.12-27.78 27.58-41.02 9.26-13.04 17.62-21.5 17.52-29.07l-0.2-15.73c-0.1-7.96-5.58-11.85-7.37-9.86-11.05 12.25-17.92 27.88-25.69 43.41-3.88 7.57-4.38 15.33-5.77 26.58-7.27-2.79-10.95-7.87-14.14-13.14l-10.65 10.65c-7.27-10.35-2.79-22.7-7.57-33.15-0.8-1.69-14.34 5.67-21.8 13.04-2.09 2.09-4.38 6.17-7.47 8.66-5.48 4.58-11.55 7.47-15.53 10.06-3.48 2.29-17.62-9.96-10.55-13.64l4.68-2.49c4.58-2.39 0.2-3.09 1.39-4.48 6.47-7.27 12.15-7.47 20.41-7.96 4.58-0.3 11.05-7.87 17.22-13.14 5.08-4.28 19.41-20.11 30.66-25.99 22.3-11.75 22.3-28.37 35.24-41.22 6.87-6.77 11.95-4.38 27.38-5.18l0-16.43c-15.03 16.03-24.69 6.97-32.46 13.74-17.72 15.53-21.21 33.25-31.76 40.22-11.75 7.77-25.29 5.77-38.03 7.87-11.75 1.89-15.43 14.64-22 25.99-1.29-8.76-7.37-30.47 14.04-38.93 13.64-5.38 24.39-4.48 33.15-10.35 8.06-5.48 9.26-15.73 18.12-26.68-22.4-0.3-27.58 26.78-50.68 27.68-13.94 0.5-41.91-11.95-47.29-18.22 19.02 0 36.74 1.1 45.1-6.07 10.95-9.46 18.72-22.2 37.63-25.49-11.45-10.85-37.14 10.35-56.55 10.65-10.85 0.2-24.09-8.86-30.56-23.1 9.96 3.29 20.81 6.87 33.55 5.48 14.24-1.69 23.7-10.35 35.84-15.23-7.96-8.26-17.12-13.24-27.08-13.34z" style="fill:#ffe000;stroke-miterlimit:4;stroke:#000"/>
  <path id="path3063" d="m216.06 99.07c1.29 4.18 10.45 11.25 14.44 11.15 3.98-0.2 13.14-6.97 14.44-11.05" style="fill:none;stroke-linecap:round;stroke-miterlimit:4;stroke:#000"/>
  <path id="path3073" d="m237.17 96.38-3.29-0.9-3.39 0.9-3.39-0.9-3.29 0.9" style="fill:none;stroke-linecap:round;stroke-linejoin:round;stroke-miterlimit:4;stroke:#000"/>
  <path id="path3079" d="m238.76 77.86c3.29 0.7 6.67 0.5 9.56-2.29-2.79-4.18-13.54-4.48-14.34 0.7-0.4 2.89 0 7.96 0.2 12.84-2.29 0-5.08 0-7.37 0 0.2-4.78 0.6-9.96 0.2-12.84-0.8-5.18-11.55-4.88-14.34-0.8 2.89 2.89 6.17 2.99 9.56 2.29" style="fill:none;stroke-linecap:round;stroke-miterlimit:4;stroke:#000"/>
</svg>
