<svg xmlns:dc="http://purl.org/dc/elements/1.1/" xmlns:cc="http://creativecommons.org/ns#" xmlns:rdf="http://www.w3.org/1999/02/22-rdf-syntax-ns#" xmlns:svg="http://www.w3.org/2000/svg" xmlns="http://www.w3.org/2000/svg" id="svg2" version="1.1" x="0" y="0" width="400" height="500" viewBox="30.5 31.5 400 500" enable-background="new 30.5 31.5 412 533" xml:space="preserve">
  <metadata id="metadata4">
    <rdf:RDF>
      <cc:Work rdf:about="">
        <dc:format>
          
          
          
          
          image/svg+xml
        
        
        
        
        </dc:format>
        <dc:type rdf:resource="http://purl.org/dc/dcmitype/StillImage"/>
      </cc:Work>
    </rdf:RDF>
  </metadata>
  <defs id="defs6"/>
  <path id="path8" d="M230.44 531.14C156.12 477.22 105.18 409.12 74.7 322.98 47.06 244.88 35.97 150.23 40.79 33.63l0.02-0.46 379.82 0 0.02 0.46c4.81 116.6-6.28 211.24-33.91 289.35C356.26 409.12 305.32 477.22 231 531.14l-0.28 0.2-0.28-0.2z" fill="#0085ca"/>
  <path id="path1878" d="m230.2 71.57c-2.67 0.23-7.28 2.81-10.56 9.26-7.34 14.39-21.18 19.83-55.44 26.87-23.42 4.81-30.22 3.97-43.37-5.43-3.01-2.16-6.07-3.29-7.35-2.01-2.73 2.73 5.5 57.07 14.99 96.09 5.79 23.8 8.87 30.03 23.95 48.2 17.22 20.75 38.93 58.92 45.88 80.7 10.59 33.16 12.83 54.01 8.15 76.37-4.95 23.66-5.77 37.2-2.41 40.55 1.15 1.15 12.84 2.07 26.16 2.11 0.21 0 0.39 0 0.6 0 13.32-0.05 25.01-0.96 26.16-2.11 3.35-3.35 2.54-16.89-2.41-40.55-4.68-22.36-2.44-43.21 8.15-76.37 6.96-21.78 28.66-59.95 45.88-80.7 15.08-18.17 18.16-24.39 23.95-48.2 9.49-39.02 17.72-93.36 14.99-96.09-1.28-1.28-4.33-0.14-7.35 2.01-13.15 9.4-19.95 10.24-43.37 5.43-34.27-7.04-48.1-12.47-55.44-26.87-3.29-6.44-7.89-9.03-10.56-9.26l-0.6 0z" style="fill-rule:nonzero;fill:#fff;stroke-linejoin:round;stroke-miterlimit:10.9;stroke:#000"/>
  <path id="path10" d="M419.96 33.21C429.03 252.66 383.7 419.16 230.5 530.31 77.31 419.16 31.99 252.66 41.06 33.21l189.45 0 189.45 0m0.92-0.95-0.92 0-189.45 0-189.45 0-0.92 0-0.04 0.92c-4.82 116.66 6.28 211.36 33.93 289.52 30.51 86.24 81.51 154.41 155.91 208.39l0.56 0.41 0.56-0.41C305.46 477.11 356.46 408.94 386.97 322.7 414.62 244.54 425.72 149.84 420.9 33.18l-0.04-0.92 0 0z"/>
</svg>
