<?xml version="1.0" encoding="UTF-8" standalone="no"?>
<svg
   xmlns:dc="http://purl.org/dc/elements/1.1/"
   xmlns:cc="http://creativecommons.org/ns#"
   xmlns:rdf="http://www.w3.org/1999/02/22-rdf-syntax-ns#"
   xmlns:svg="http://www.w3.org/2000/svg"
   xmlns="http://www.w3.org/2000/svg"
   xmlns:xlink="http://www.w3.org/1999/xlink"
   xml:space="preserve"
   enable-background="new 30.5 31.5 412 533"
   viewBox="30.5 31.5 400 500"
   height="500"
   width="400"
   y="0"
   x="0"
   version="1.1"
   id="svg2"><metadata
     id="metadata4"><rdf:RDF><cc:Work
         rdf:about=""><dc:format>
          
          
          
          
          image/svg+xml
        
        
        
        
        </dc:format><dc:type
           rdf:resource="http://purl.org/dc/dcmitype/StillImage" /><dc:title></dc:title></cc:Work></rdf:RDF></metadata><defs
     id="defs6"><linearGradient
       id="linearGradient3652"><stop
         id="stop3654"
         style="stop-color:#ffffff;stop-opacity:1"
         offset="0" /><stop
         id="stop3656"
         style="stop-color:#ffffff;stop-opacity:0"
         offset="1" /></linearGradient><linearGradient
       x1="1.041629"
       y1="110.18271"
       x2="389.03033"
       y2="110.18271"
       id="linearGradient2857"
       xlink:href="#linearGradient3652"
       gradientUnits="userSpaceOnUse"
       gradientTransform="translate(0,3.7e-6)" /></defs><path
     d="m230.44 531.14c-74.32-53.92-125.26-122.02-155.74-208.16-27.64-78.1-38.73-172.75-33.91-289.35l0.02-0.46 379.82 0 0.02 0.46c4.81 116.6-6.28 211.24-33.91 289.35-30.48 86.14-81.42 154.24-155.74 208.16l-0.28 0.2-0.28-0.2z"
     id="path8"
     fill="#0085ca" /><path
     style="fill:#ffffff;stroke:none;stroke-opacity:1"
     id="path2829"
     d="m 78.592317,100.04692 c 0,0 131.058643,-26.260793 203.467973,-37.722974 21.51764,-3.406179 43.65419,12.018631 44.62218,32.10343 1.38826,28.805104 15.99093,62.231434 51.30568,31.935964 -11.95713,35.60756 -55.40207,29.60782 -60.52981,-1.07464 -2.32634,10.99512 -3.10297,17.15862 -3.60589,24.79153 -0.97271,14.76298 -1.1829,27.68553 -12.95173,41.78365 -18.59498,22.27529 -62.38395,34.79045 -61.13048,66.36791 0.40276,10.14639 0.7781,35.06318 3.3667,48.27118 15.23668,-9.72778 31.61743,-15.65936 53.11581,2.54413 24.19247,20.48467 43.17669,56.31076 57.00815,86.40597 -29.51994,51.711 -69.42762,97.00052 -122.87178,135.4501 -28.12021,-20.46018 -61.69781,-49.96845 -86.641,-82.07996 8.14596,-68.48089 19.47318,-136.79065 32.28212,-205.02703 6.64206,-35.38388 36.64187,-46.38315 64.05241,-68.91555 22.97528,-18.88646 22.2199,-29.78222 22.37147,-47.83291 z" /><circle
     r="6.2359033"
     cy="84.531235"
     cx="244.28108"
     id="path4316"
     style="fill:#0085ca;fill-opacity:1;stroke:#000000;stroke-width:0.84986871;stroke-linecap:round;stroke-linejoin:round;stroke-miterlimit:4;stroke-dasharray:none;stroke-opacity:1" /><path
     id="path4318"
     d="M 249.5216,516.24476 239.00798,366.1161 c -0.40855,-5.83392 2.60522,-11.84423 7.24464,-14.62788 l 19.61387,-11.76832"
     style="fill:none;fill-rule:evenodd;stroke:#000000;stroke-width:1px;stroke-linecap:round;stroke-linejoin:round;stroke-opacity:1" /><path
     id="path4320"
     d="M 288.96728,480.50393 261.72579,398.34359"
     style="fill:none;fill-rule:evenodd;stroke:#000000;stroke-width:1px;stroke-linecap:round;stroke-linejoin:miter;stroke-opacity:1" /><path
     style="fill:none;fill-rule:evenodd;stroke:#000000;stroke-width:1px;stroke-linecap:round;stroke-linejoin:miter;stroke-opacity:1"
     d="M 312.57003,454.58116 285.7644,386.15053"
     id="path4322" /><path
     d="m 143.74812,448.82321 c 8.14596,-68.48089 19.47318,-136.79065 32.28212,-205.02703 6.64206,-35.38388 36.64187,-46.38315 64.05241,-68.91555 22.97528,-18.88646 22.2199,-29.78222 22.37147,-47.83291 L 78.592317,100.04692 c 0,0 131.058643,-26.260793 203.467973,-37.722974 21.51764,-3.406179 43.65419,12.018631 44.62218,32.10343 1.38826,28.805104 15.99093,62.231434 51.30568,31.935964 -11.95713,35.60756 -55.40207,29.60782 -60.52981,-1.07464 -2.32634,10.99512 -3.10297,17.15862 -3.60589,24.79153 -0.97271,14.76298 -1.1829,27.68553 -12.95173,41.78365 -18.59498,22.27529 -62.38395,34.79045 -61.13048,66.36791 0.40276,10.14639 0.7781,35.06318 3.3667,48.27118 15.23668,-9.72778 31.61743,-15.65936 53.11581,2.54413 24.19247,20.48467 43.17669,56.31076 57.00815,86.40597"
     id="path4324"
     style="fill:none;stroke:#000000;stroke-opacity:1" /><path
     d="m419.96 33.21c9.07 219.45-36.26 385.95-189.46 497.1C77.31 419.16 31.99 252.66 41.06 33.21l189.45 0 189.45 0m0.92-0.95-0.92 0-189.45 0-189.45 0-0.92 0-0.04 0.92c-4.82 116.66 6.28 211.36 33.93 289.52 30.51 86.24 81.51 154.41 155.91 208.39l0.56 0.41 0.56-0.41c74.4-53.98 125.4-122.15 155.91-208.39 27.65-78.16 38.75-172.86 33.93-289.52l-0.04-0.92 0 0z"
     id="path10" /></svg>