<?xml version="1.0" encoding="UTF-8" standalone="no"?>
<svg
   xmlns:dc="http://purl.org/dc/elements/1.1/"
   xmlns:cc="http://creativecommons.org/ns#"
   xmlns:rdf="http://www.w3.org/1999/02/22-rdf-syntax-ns#"
   xmlns:svg="http://www.w3.org/2000/svg"
   xmlns="http://www.w3.org/2000/svg"
   xml:space="preserve"
   enable-background="new 30.5 31.5 412 533"
   viewBox="30.5 31.5 400 500"
   height="500"
   width="400"
   y="0"
   x="0"
   version="1.1"
   id="svg2"><metadata
     id="metadata4"><rdf:RDF><cc:Work
         rdf:about=""><dc:format>
          
          
          
          
          
          image/svg+xml
        
        
        
        
        
        </dc:format><dc:type
           rdf:resource="http://purl.org/dc/dcmitype/StillImage" /><dc:title></dc:title></cc:Work></rdf:RDF></metadata><defs
     id="defs6" /><path
     d="M 230.33,530.86 C 304.65,476.94 355.59,408.84 386.07,322.7 413.71,244.6 424.8,149.95 419.98,33.35 l -0.02,-0.46 -379.82,0 -0.02,0.46 c -4.81,116.6 6.28,211.24 33.91,289.35 30.48,86.14 81.42,154.24 155.74,208.16 l 0.28,0.2 0.28,-0.2 z"
     id="path8"
     style="fill:#0085ca;fill-opacity:1" /><path
     d="M 41.04,33.21 C 31.97,252.66 77.3,419.16 230.5,530.31 383.69,419.16 429.01,252.66 419.94,33.21 l -189.45,0 -189.45,0 m -0.92,-0.95 0.92,0 189.45,0 189.45,0 0.92,0 0.04,0.92 c 4.82,116.66 -6.28,211.36 -33.93,289.52 -30.51,86.24 -81.51,154.41 -155.91,208.39 l -0.56,0.41 -0.56,-0.41 C 155.54,477.11 104.54,408.94 74.03,322.7 46.38,244.54 35.28,149.84 40.1,33.18 l 0.04,-0.92 0,0 z"
     id="path10" /><path
     style="fill:#ffe000;fill-opacity:1;stroke:#000000;stroke-width:1;stroke-miterlimit:4;stroke-dasharray:none;stroke-opacity:1"
     id="path4997"
     d="m 122.25935,226.67713 c -12.69977,-10.13525 -15.93233,-24.21759 -19.55317,-19.18979 -7.90145,12.22231 -13.59946,29.95322 -14.87165,35.81364 -1.07647,5.48832 17.42549,20.0109 21.24205,29.1271 1.17432,2.8837 -3.37269,4.07533 -10.12383,4.71697 -4.77881,0.45418 3.43722,16.83924 9.51142,17.84921 11.00909,1.83051 20.194,1.31151 20.194,1.31151 26.03091,31.72065 53.51395,67.58174 54.10111,68.69801 2.25079,3.90694 -4.89303,4.74414 -11.93899,5.30228 -2.83796,0.18604 -0.58716,13.76732 4.208,14.04638 5.77378,0.27907 16.6363,1.58138 27.98813,3.16276 4.30586,0.55814 17.60859,21.817 34.14703,42.18891 11.35182,14.04639 10.6668,24.65095 18.20206,22.23236 7.92671,-2.60462 3.17889,-10.87672 23.72961,-34.96953 5.18661,-6.13948 6.30411,-8.00452 -5.8306,-24.46949 -3.52298,-4.74415 -0.9786,-14.04639 1.46791,-19.9068 0.19572,-4.18601 -11.74327,-12.93012 -13.21118,-11.44176 -3.42512,4.65112 -5.48019,12.27896 -10.27536,9.39527 -12.52615,-7.99993 -40.70454,-44.73605 -46.91421,-54.75505 -1.2281,-1.98148 -0.62291,-23.51358 -2.28654,-24.8159 -3.81656,-3.06974 -13.23908,-14.51788 -14.02197,-10.61094 -1.17432,5.86041 -2.46032,14.05621 -6.66124,11.54698 -11.99298,-7.16348 -37.31506,-34.49971 -36.67133,-41.88501 0.24247,-2.78172 -1.36914,-21.63732 -3.46586,-23.99978 -2.42996,-2.73793 -14.33438,-15.62625 -15.21513,-12.55651 -1.76149,6.04645 -0.0316,14.69754 -3.6524,13.20918 z" /><path
     style="fill:#ffe000;fill-opacity:1;stroke:#000000;stroke-width:1;stroke-miterlimit:4;stroke-dasharray:none;stroke-opacity:1"
     id="path5021"
     d="m 88.64624,76.738275 c -8.09368,14.742818 -20.57756,20.992723 -15.27813,24.936665 27.65338,27.04415 50.03655,44.01156 59.86458,59.5995 2.50518,3.94394 -9.63943,10.89186 -13.97532,12.86383 -2.50519,1.12684 8.68933,16.7113 13.12158,15.58447 4.81766,-1.31465 19.08351,-5.23999 21.7814,-3.36193 14.35664,13.24037 38.13278,43.84547 42.37233,48.35283 14.74204,15.77575 37.06679,44.75799 40.24645,49.54706 3.66143,5.44639 -1.34894,5.82201 -8.76814,9.01472 -3.37237,1.40855 3.55223,8.0302 9.71884,13.47659 2.31248,2.06587 20.08298,-5.00689 29.9484,2.61769 5.97391,4.60126 23.85466,32.9978 42.35449,58.35169 4.14319,5.7281 11.65874,6.38542 13.10404,0.93903 8.19003,-20.28311 13.00769,-37.17704 21.96854,-44.87711 2.69789,-2.25368 0.19271,-5.16468 -0.77082,-6.38542 -6.74473,-8.73301 -13.84567,-18.78454 -16.54356,-24.04313 -2.40883,-4.88297 -2.60154,-7.88787 -1.83071,-18.12333 0.38541,-4.50736 -13.23779,-14.24329 -14.68309,-11.05058 -1.63801,3.56833 -2.60154,9.39033 -3.37236,12.01962 -1.15624,3.94394 -20.37834,-11.38507 -31.37846,-23.10812 -15.78609,-16.82356 -26.9234,-34.7934 -28.3687,-36.48366 -2.31248,-2.7232 -2.09935,-6.11862 0.59854,-17.48092 0.67447,-2.8171 -12.65879,-14.1794 -14.2968,-10.89278 -2.8906,6.19762 -3.85413,11.17449 -6.16661,9.67204 -11.08062,-9.10862 -39.80493,-41.68898 -58.2084,-66.19774 -4.62495,-6.29152 -4.00801,-15.09212 -2.75542,-21.38365 0.57812,-2.911 -11.40299,-14.768959 -11.98111,-12.515276 -0.19271,0.657323 -3.54651,11.927536 -5.87755,9.953746 C 136.34514,96.650503 105.26513,48.875139 99.9657,55.636177 94.66627,62.397214 93.07849,68.850398 88.64624,76.738275 Z" /><path
     style="fill:#ffe000;fill-opacity:1;stroke:#000000;stroke-width:1;stroke-miterlimit:4;stroke-dasharray:none;stroke-opacity:1"
     id="path5023"
     d="m 216.74397,113.26229 c 2.82129,-1.69035 -3.84486,-8.57821 -8.14331,-13.525827 -2.84616,-3.275982 4.78696,-12.942145 6.88225,-20.748471 2.40383,-8.955816 6.67985,-18.460495 9.1732,-21.99145 3.38555,-4.883232 6.94667,9.360632 15.12843,11.14489 2.6332,0.56345 3.85576,-4.038057 5.17237,-9.390831 1.07025,-4.300187 6.54325,-1.889879 10.81798,4.753632 2.81345,4.372485 6.18176,7.347706 5.64393,9.73125 -1.88087,9.766464 -4.11489,13.390928 -0.91742,17.428986 13.54221,16.809581 32.58716,43.195821 37.86909,45.075421 6.54019,2.32735 8.83505,-2.90185 10.19801,-12.24907 0.75449,-5.17437 15.89498,12.99664 14.64771,17.33232 -2.4449,8.49885 -8.66884,9.65647 -2.10737,16.52342 1.41064,1.31471 25.89826,36.50041 33.89193,42.98008 1.78682,1.40863 9.45379,-4.83059 10.11209,-10.18336 0.28213,-2.72334 12.91128,5.64974 12.81724,10.06343 -0.37617,21.69282 1.39288,21.25319 6.84738,32.14656 -6.91636,14.05305 -9.68451,36.82222 -18.56056,51.4357 -3.76172,3.19289 -5.69257,0.57145 -7.4294,-2.44161 -12.92743,-22.42649 -38.25874,-58.37166 -50.51601,-61.10799 -4.04265,-0.90249 -11.39407,1.35211 -15.06175,2.47901 -3.56313,2.05736 -18.37148,-11.72141 -15.31185,-13.46297 6.67853,-3.76021 13.71923,-12.85076 9.43402,-21.3931 -24.07504,-32.30446 -40.20476,-48.16607 -44.34266,-51.73458 -5.26641,-4.69542 -17.54785,-2.58183 -23.00214,-1.54769 -1.97511,0.37449 -18.11012,-11.25432 -14.30138,-13.77489 3.80875,-2.52057 7.01437,-5.10124 11.05822,-7.54286 z" /></svg>