<?xml version="1.0" encoding="UTF-8" standalone="no"?>
<svg
   xmlns:dc="http://purl.org/dc/elements/1.1/"
   xmlns:cc="http://creativecommons.org/ns#"
   xmlns:rdf="http://www.w3.org/1999/02/22-rdf-syntax-ns#"
   xmlns:svg="http://www.w3.org/2000/svg"
   xmlns="http://www.w3.org/2000/svg"
   xml:space="preserve"
   enable-background="new 30.5 31.5 412 533"
   viewBox="30.5 31.5 400 500"
   height="500"
   width="400"
   y="0"
   x="0"
   version="1.1"
   id="svg2"><metadata
     id="metadata4"><rdf:RDF><cc:Work
         rdf:about=""><dc:format>
          
          
          
          
          image/svg+xml
        
        
        
        
        </dc:format><dc:type
           rdf:resource="http://purl.org/dc/dcmitype/StillImage" /><dc:title></dc:title></cc:Work></rdf:RDF></metadata><defs
     id="defs6" /><path
     id="path4148"
     d="M 230.45,531.13 C 156.13,477.21 105.19,409.11 74.71,322.97 47.07,244.87 35.98,150.22 40.8,33.62 l 0.02,-0.46 379.82,0 0.02,0.46 c 4.81,116.6 -6.28,211.24 -33.91,289.35 -30.48,86.14 -81.42,154.24 -155.74,208.16 l -0.28,0.2 z"
     style="fill:#e00e00" /><path
     id="path4324"
     d="m 209.25972,284.92946 c 0.50824,5.98642 -16.21786,-7.54387 -29.18768,-4.90092 -17.29126,3.52357 -17.43002,15.90538 -30.82132,21.67294 -5.52805,2.3809 -15.9062,8.63297 -31.25695,0 -1.03699,-10.14598 -6.97544,-14.28339 -14.80393,-14.16594 -8.73548,0.13105 -14.30201,7.99904 -13.27598,17.09876 0.62208,5.51709 6.45903,12.16813 15.22861,11.55211 4.81746,-0.3384 8.38231,-2.10036 10.78202,-5.5202 3.68709,0.0393 6.79889,0.40064 10.50361,1.94488 l -0.16559,3.09649 c -2.85114,1.78676 -7.22284,7.42713 -7.28856,10.60739 -7.62718,-1.51827 -14.24087,0.51299 -17.6433,5.44547 -6.25646,9.06995 -0.46301,18.73717 4.57419,21.12839 9.84232,4.67227 17.73611,-1.12781 20.58385,-8.2771 1.90437,-4.78094 -0.0661,-9.34639 -2.17819,-13.72257 1.74806,-5.78357 4.44098,-10.14336 10.23747,-13.61365 l 6.29031,-0.008 c -5.12876,10.77587 -6.16913,24.69378 -4.29577,35.87625 -1.50479,2.1337 -3.62953,5.24405 -4.71727,8.67537 -5.02225,-1.3562 -12.06419,-0.1022 -15.58496,4.29257 -6.93037,8.65077 -1.52465,20.73829 6.38053,22.95342 9.16965,2.56946 15.91615,-1.38977 18.39792,-7.33429 2.74268,-6.56946 0.39637,-13.08291 -3.74803,-16.53551 0.088,-2.58087 1.67744,-5.73416 2.61382,-7.18801 1.54502,3.44043 9.57915,11.55692 9.57915,11.55692 0.63999,4.61377 4.35106,11.76511 6.97506,15.67039 -5.92379,5.37036 -6.76314,12.82875 -4.46528,17.31656 2.51143,4.90494 9.14444,10.20057 17.20766,8.27711 8.20668,-1.95768 11.62322,-9.77788 10.01965,-18.18784 -0.80354,-4.2142 -5.48474,-10.90806 -16.66311,-9.25729 -3.43557,-4.42898 -5.41814,-8.42232 -4.79201,-12.30675 6.2266,3.66114 18.18759,7.94695 28.75204,10.67311 -1.79327,9.58913 6.73394,16.24209 11.25503,16.88094 10.57701,1.49458 15.92412,-7.48003 16.38923,-12.96021 0.55676,-6.56007 -3.53137,-13.89751 -9.46735,-15.68293 -5.66752,-1.70467 -13.78423,0.94388 -15.88981,6.31674 -3.96293,-0.7134 -8.96725,-2.70153 -11.43547,-4.6831 7.46709,-2.92133 11.93032,-7.4111 14.9283,-12.26163 6.66387,3.40278 13.76785,1.47549 18.0712,-3.20348 4.81936,-5.24001 5.55641,-16.77179 -3.04946,-21.89076 -6.34232,-3.77256 -19.1444,-0.45741 -21.67295,7.51474 -1.25953,3.97114 -0.80107,9.77364 2.2871,13.39583 -4.20242,5.70832 -8.34271,10.42101 -18.51457,10.23747 -15.94195,-0.28766 -21.04405,-7.15661 -24.24486,-15.59912 -2.89755,-7.64265 -1.20006,-21.48608 2.16271,-29.10972 l 4.87128,-0.37185 c -1.33799,6.11384 0.39296,10.06646 3.27049,15.02174 -7.29363,11.87503 -0.87794,25.84498 12.08892,25.37586 11.24809,-0.40694 14.61243,-9.23568 13.94039,-16.22748 -1.06868,-11.11844 -11.18233,-15.03971 -20.69276,-12.08893 -2.36607,-3.26711 -3.65001,-9.46003 -1.00981,-12.72823 4.15749,4.97024 13.68215,8.3398 21.37584,7.7184 4.36418,4.14367 18.23894,3.84416 22.2658,-7.8492 3.09724,-8.99389 -2.77868,-17.48882 -10.83033,-18.72465 -7.68169,-1.17905 -20.21906,3.01995 -17.3462,19.82148 -8.36643,-1.19256 -12.76213,-7.30321 -11.95038,-12.85128 0.95093,-6.49938 4.0622,-15.09404 18.8413,-16.77203 20.4915,-2.32656 26.46589,8.279 31.9104,19.16802 5.72574,11.45147 8.0538,39.94653 7.51474,61.75155 -0.9925,40.14628 -3.06576,70.36874 -3.92073,105.53332 -0.0994,4.08922 20.70178,-8.72094 20.47494,-11.7622 -2.05424,-27.54154 -2.86395,-60.1204 -3.92058,-91.9493 -0.54608,-16.44971 -2.22905,-40.13357 7.51474,-61.75155 4.31129,-7.38611 14.25055,-21.49458 31.91041,-19.16802 14.74663,1.94276 17.89037,10.27265 18.8413,16.77203 0.81175,5.54807 -3.58395,11.65872 -11.95038,12.85128 2.87286,-16.80153 -9.66451,-21.00053 -17.3462,-19.82148 -8.05165,1.23583 -13.92757,9.73076 -10.83033,18.72465 4.02686,11.69336 17.90162,11.99287 22.2658,7.8492 7.69369,0.6214 17.21835,-2.74816 21.37584,-7.7184 2.6402,3.2682 1.35626,9.46112 -1.00981,12.72823 -9.51043,-2.95078 -19.62408,0.97049 -20.69276,12.08893 -0.67204,6.9918 2.6923,15.82054 13.94039,16.22748 12.96686,0.46912 19.38255,-13.50083 12.08892,-25.37586 2.87753,-4.95528 4.60848,-8.9079 3.27049,-15.02174 l 4.87128,0.37185 c 3.36277,7.62364 5.06026,21.46707 2.16271,29.10972 -3.20081,8.44251 -8.30291,15.31146 -24.24486,15.59912 -10.17186,0.18354 -14.31215,-4.52915 -18.51457,-10.23747 3.08817,-3.62219 3.54663,-9.42469 2.2871,-13.39583 -2.52855,-7.97215 -15.33063,-11.2873 -21.67295,-7.51474 -8.60587,5.11897 -7.86882,16.65075 -3.04946,21.89076 4.30335,4.67897 11.40733,6.60626 18.0712,3.20348 2.99798,4.85053 7.46121,9.3403 14.9283,12.26163 -2.46822,1.98157 -7.47254,3.9697 -11.43547,4.6831 -2.10558,-5.37286 -10.22229,-8.02141 -15.88981,-6.31674 -5.93598,1.78542 -10.02411,9.12286 -9.46735,15.68293 0.46511,5.48018 5.81222,14.45479 16.38923,12.96021 4.52109,-0.63885 13.0483,-7.29181 11.25503,-16.88094 10.56445,-2.72616 22.52544,-7.01197 28.75204,-10.67311 0.62613,3.88443 -1.35644,7.87777 -4.79201,12.30675 -11.17837,-1.65077 -15.85957,5.04309 -16.66311,9.25729 -1.60357,8.40996 1.81297,16.23016 10.01965,18.18784 8.06322,1.92346 14.69623,-3.37217 17.20766,-8.27711 2.29786,-4.48781 1.45851,-11.9462 -4.46528,-17.31656 2.624,-3.90528 6.33507,-11.05662 6.97506,-15.67039 0,0 8.03413,-8.11649 9.57915,-11.55692 0.93638,1.45385 2.52582,4.60714 2.61382,7.18801 -4.1444,3.4526 -6.49071,9.96605 -3.74803,16.53551 2.48177,5.94452 9.22827,9.90375 18.39792,7.33429 7.90518,-2.21513 13.3109,-14.30265 6.38053,-22.95342 -3.52077,-4.39477 -10.56271,-5.64877 -15.58496,-4.29257 -1.08774,-3.43132 -3.21248,-6.54167 -4.71727,-8.67537 1.87336,-11.18247 0.83299,-25.10038 -4.29577,-35.87625 l 6.29031,0.008 c 5.79649,3.47029 8.48941,7.83008 10.23747,13.61365 -2.11209,4.37618 -4.08256,8.94163 -2.17819,13.72257 2.84774,7.14929 10.74153,12.94937 20.58385,8.2771 5.03719,-2.39122 10.83065,-12.05844 4.57419,-21.12839 -3.40243,-4.93248 -10.01612,-6.96374 -17.6433,-5.44547 -0.0657,-3.18026 -4.43742,-8.82063 -7.28856,-10.60739 l -0.16559,-3.09649 c 3.70472,-1.54424 6.81652,-1.90558 10.50361,-1.94488 2.39971,3.41984 5.96456,5.1818 10.78202,5.5202 8.76958,0.61602 14.60652,-6.03502 15.2286,-11.55211 1.02604,-9.09972 -4.5405,-16.96771 -13.27597,-17.09876 -7.82849,-0.11745 -13.76694,4.01996 -14.80393,14.16594 -15.35075,8.63297 -25.7289,2.3809 -31.25695,0 -13.3913,-5.76756 -13.53006,-18.14937 -30.82132,-21.67294 -12.96982,-2.64295 -19.02282,3.48151 -25.26695,7.0791 4.72298,-14.92994 9.6945,-28.68309 16.77202,-43.99934 2.73057,7.38376 7.57389,17.06748 13.72258,25.59368 5.80959,8.05598 20.46546,14.7932 34.74205,13.61365 -1.65616,-10.67418 -6.38129,-20.87769 -15.79185,-28.75205 -8.45008,-7.07066 -18.73573,-11.925 -28.64312,-18.84129 l 10.89091,-19.93039 c 7.82525,11.25053 13.09108,24.67567 23.30658,34.63314 13.54495,13.20283 28.14058,19.72955 46.50426,17.6433 -3.59435,-14.67209 -11.47715,-30.15518 -24.06895,-39.31624 -14.8526,-10.80588 -27.40883,-12.3185 -42.25679,-18.8413 l 17.42548,-27.11841 c 7.86672,13.38456 15.55394,26.923 25.59367,38.44497 12.75389,14.63685 30.56783,18.95724 49.00917,18.8413 -1.53172,-18.35251 -15.41832,-36.58899 -30.27677,-45.9597 -13.32107,-8.40114 -26.93689,-11.03761 -40.40534,-16.88094 l 21.45513,-29.07877 c 8.32191,14.60986 13.22408,30.18076 26.90058,43.34588 10.58447,10.1887 26.02107,15.83404 41.82115,13.61366 0.66384,-11.68842 -11.8984,-33.60706 -32.9995,-47.37552 -10.18872,-6.64814 -20.83797,-10.86738 -31.25695,-15.13839 l 16.98984,-19.93039 c 5.17591,11.48578 9.28996,24.28354 21.1284,31.25695 10.27961,6.05519 21.4598,11.13227 35.50441,7.40583 1.05149,-12.88944 -6.55448,-25.9481 -16.11857,-32.01932 -12.95651,-8.22471 -22.97985,-7.26062 -35.17769,-12.9602 l 6.31675,-5.88109 c 21.93843,-3.62725 27.87356,-9.21209 36.70241,-20.03931 10.34105,-12.681715 12.85754,-29.724974 11.38051,-42.191458 -16.96346,1.577835 -35.73134,5.907202 -46.69023,18.362657 -14.13189,16.061766 -7.645,34.947271 -7.645,34.947271 l -6.48756,6.51399 c -3.3177,-12.944751 -6.89812,-27.721522 -16.05234,-39.8682 -10.70149,-14.199739 -27.1788,-20.217921 -43.12907,-19.96987 -2.13285,11.249154 1.53674,29.679495 12.61423,43.170975 9.14987,11.143795 21.18268,20.262895 37.90463,24.800575 l -16.44286,20.01498 c -7.45643,-14.6452 -16.32402,-29.86534 -28.69828,-41.642368 -17.1038,-16.2783 -37.73233,-21.28728 -57.06845,-22.653123 0.41487,19.891087 15.96428,41.479811 27.66295,49.444801 18.78214,12.78774 40.42433,17.19122 52.82098,21.12839 l -18.51457,25.37586 c -6.25676,-10.85688 -14.48355,-22.66965 -24.61348,-31.14805 -11.76374,-9.84584 -26.17539,-14.34485 -37.90043,-14.92057 -1.25872,10.46101 5.11884,28.91564 17.75222,40.51425 10.77099,9.88876 30.83492,12.76589 38.33604,14.81165 l -15.90074,24.94022 c -4.0948,-8.91016 -6.76869,-18.32802 -13.72257,-24.7224 -8.74339,-8.03992 -17.26664,-10.79929 -27.55404,-11.87111 -0.53965,12.54737 4.17385,25.48623 8.82165,30.71242 5.75195,6.46774 18.33044,10.53474 28.31641,12.41565 -3.85846,7.90401 -9.15682,16.29357 -12.74238,24.32639 -5.93815,-2.35374 -16.35799,-2.95918 -25.92041,-1.52473 -10.56619,1.58503 -19.49711,7.76866 -22.97984,13.72256 5.24884,5.64142 16.15665,8.23952 23.7422,6.09893 9.38734,-2.64904 13.75507,-8.52401 20.19381,-8.31192 -9.15875,19.30656 -17.35867,38.14971 -24.55018,62.83582 -0.71485,2.45384 -3.91435,2.96069 -4.46543,0.57419 -5.58119,-24.16974 -13.36133,-48.5604 -25.81149,-74.05829 10.22086,-2.79053 17.83731,-2.27831 25.48476,-5.11874 9.40192,-3.49208 17.45724,-10.19058 21.56403,-19.16803 -9.25493,-5.62717 -22.6134,-6.44646 -32.45496,-2.28709 -8.10391,3.42499 -14.27264,10.34923 -18.95021,17.86112 l -9.80183,-18.07894 c 18.59709,-1.92571 21.69318,-5.73009 27.44513,-12.19783 4.6478,-5.22619 8.27221,-15.98686 7.73256,-28.53423 -10.2874,1.07182 -17.50374,2.30646 -26.24713,10.34638 -6.95388,6.39438 -9.40995,14.06969 -13.50475,22.97985 l -14.81165,-23.63331 c 13.72871,-1.4706 27.12942,-4.05162 37.90041,-13.94038 12.63338,-11.59861 17.48621,-25.26123 16.4453,-38.33606 -13.6854,1.44699 -25.04759,3.33218 -36.81133,13.17802 -10.12993,8.4784 -18.79236,17.67735 -25.04912,28.53423 l -17.6433,-23.96004 c 18.94522,-4.33058 38.39521,-9.42974 57.17735,-22.21748 11.69867,-7.96499 22.7828,-26.722076 23.19767,-46.613163 -19.33612,1.365843 -40.72701,4.087729 -57.83081,20.366029 -12.37426,11.777024 -21.24185,26.125894 -28.69828,40.771094 l -16.44286,-20.01498 c 16.72195,-4.53768 30.2795,-11.80532 39.42936,-22.949118 11.0775,-13.491473 13.22235,-32.03073 11.0895,-43.279884 -15.95027,-0.248051 -30.57612,4.898857 -41.27761,19.098596 -9.15422,12.146678 -13.93264,25.071992 -17.25034,38.016746 l -5.50738,-5.424899 C 107.56688,76.727574 99.06454,66.785422 96.77959,63.430369 88.89152,51.848108 69.23099,45.447545 52.26754,43.86971 c -1.47704,12.466484 -1.13873,29.94538 9.20232,42.627095 8.82885,10.827226 18.4669,21.204065 38.00933,22.435305 l 5.00983,4.24746 c -12.19784,5.69958 -22.22118,4.73549 -35.17769,12.9602 -9.56408,6.07122 -17.17005,19.12988 -16.11857,32.01932 14.04461,3.72644 25.2248,-1.35064 35.50442,-7.40583 11.83844,-6.97341 15.95248,-19.77117 21.12839,-31.25695 l 16.98984,19.93039 c -10.41898,4.27101 -21.06823,8.49025 -31.25695,15.13839 -21.1011,13.76846 -32.57425,34.16237 -31.91041,45.85079 15.80008,2.22038 30.14759,-1.90023 40.73206,-12.08893 13.6765,-13.16512 18.57867,-28.73602 26.90058,-43.34588 l 21.45513,29.07877 c -13.46845,5.84333 -27.08427,9.6778 -40.40534,18.07894 -14.85845,9.37071 -28.74505,26.40919 -30.27677,44.7617 18.44134,0.11594 36.25528,-4.20445 49.00917,-18.8413 10.03973,-11.52197 17.72695,-25.06041 25.59367,-38.44497 l 17.42548,27.11841 c -14.84796,6.5228 -29.69128,11.19379 -44.54388,21.99967 -12.5918,9.16106 -20.36569,21.26796 -23.96004,35.94005 18.36368,2.08625 34.48403,-4.54938 48.02898,-17.75221 10.2155,-9.95747 16.89715,-21.96679 24.7224,-33.21732 l 9.36619,17.6433 c -9.90739,6.91629 -19.86632,12.09736 -28.3164,19.16802 -9.41056,7.87436 -15.87823,18.73132 -17.53439,29.4055 14.71222,6.29829 31.11064,-4.57749 36.92023,-12.63347 6.14869,-8.5262 8.4871,-18.42773 13.17803,-27.66295 7.07752,15.31625 12.59359,30.37631 17.31657,45.30625"
     style="fill:#ffe000;fill-opacity:1;fill-rule:evenodd;stroke:#000000;stroke-width:1px;stroke-linecap:butt;stroke-linejoin:round;stroke-opacity:1" /><path
     d="M 419.96,33.21 C 429.03,252.66 383.71,419.16 230.51,530.31 146.04,469.02 94.36,390.9 66.52,296.34 64.43,289.25 62.48,282.07 60.65,274.8 49.2,229.11 42.88,179.78 40.77,126.86 39.57,96.8 39.72,65.58 41.06,33.21 l 189.45,0 189.45,0 m 0.92,-0.95 -0.92,0 -189.45,0 -189.45,0 -0.92,0 -0.04,0.92 c -4.82,116.66 6.28,211.36 33.93,289.52 30.51,86.24 81.51,154.41 155.91,208.39 l 0.56,0.41 0.56,-0.41 C 305.46,477.11 356.46,408.94 386.97,322.7 414.62,244.54 425.72,149.84 420.9,33.18 l -0.04,-0.92 0,0 z"
     id="path10" /></svg>