<svg xmlns:dc="http://purl.org/dc/elements/1.1/" xmlns:cc="http://creativecommons.org/ns#" xmlns:rdf="http://www.w3.org/1999/02/22-rdf-syntax-ns#" xmlns:svg="http://www.w3.org/2000/svg" xmlns="http://www.w3.org/2000/svg" id="svg2" version="1.1" x="0" y="0" width="400" height="500" viewBox="30.5 31.5 400 500" enable-background="new 30.5 31.5 412 533" xml:space="preserve">
  <metadata id="metadata4">
    <rdf:RDF>
      <cc:Work rdf:about="">
        <dc:format>
          
          
          
          
          image/svg+xml
        
        
        
        
        </dc:format>
        <dc:type rdf:resource="http://purl.org/dc/dcmitype/StillImage"/>
      </cc:Work>
    </rdf:RDF>
  </metadata>
  <defs id="defs6"/>
  <path id="path8" d="M230.44 531.14C156.12 477.22 105.18 409.12 74.7 322.98 47.06 244.88 35.97 150.23 40.79 33.63l0.02-0.46 379.82 0 0.02 0.46c4.81 116.6-6.28 211.24-33.91 289.35C356.26 409.12 305.32 477.22 231 531.14l-0.28 0.2-0.28-0.2z" fill="#0085ca"/>
  <path id="path10" d="M419.96 33.21C429.03 252.66 383.7 419.16 230.5 530.31 77.31 419.16 31.99 252.66 41.06 33.21l189.45 0 189.45 0m0.92-0.95-0.92 0-189.45 0-189.45 0-0.92 0-0.04 0.92c-4.82 116.66 6.28 211.36 33.93 289.52 30.51 86.24 81.51 154.41 155.91 208.39l0.56 0.41 0.56-0.41C305.46 477.11 356.46 408.94 386.97 322.7 414.62 244.54 425.72 149.84 420.9 33.18l-0.04-0.92 0 0z"/>
  <path id="path4577" d="m122.6 97.97 7.7 47.75c0.48 2.96 1.99 8.42-3.39 8.32-22.27-0.41-34.76-3-50.21-4.93l0 45.28c15.87-2.76 27.36-5.74 48.36-6.78 2.55-0.13 6.05 3.5 6.16 6.78 1.82 51.63-3.32 105.05-6.47 153.4 15.16 0 30.32 0 45.48 0-3.15-48.35-8.28-101.77-6.47-153.4 0.12-3.28 3.61-6.9 6.16-6.78 21 1.04 32.49 4.02 48.36 6.78l0-45.28c-15.45 1.93-27.94 4.52-50.21 4.93-5.37 0.1-3.87-5.36-3.39-8.32l7.7-47.75-24.9 0z" style="fill-rule:evenodd;fill:#fff;stroke:#000"/>
  <path d="m288.6 97.97 7.7 47.75c0.48 2.96 1.99 8.42-3.39 8.32-22.27-0.41-34.76-3-50.21-4.93l0 45.28c15.87-2.76 27.36-5.74 48.36-6.78 2.55-0.13 6.05 3.5 6.16 6.78 1.82 51.63-3.32 105.05-6.47 153.4 15.16 0 30.32 0 45.48 0-3.15-48.35-8.28-101.77-6.47-153.4 0.12-3.28 3.61-6.9 6.16-6.78 21 1.04 32.49 4.02 48.36 6.78l0-45.28c-15.45 1.93-27.94 4.52-50.21 4.93-5.37 0.1-3.87-5.36-3.39-8.32l7.7-47.75-24.9 0z" id="path4593" style="fill-rule:evenodd;fill:#fff;stroke:#000"/>
</svg>
