<?xml version="1.0" encoding="UTF-8" standalone="no"?>
<svg
   xmlns:dc="http://purl.org/dc/elements/1.1/"
   xmlns:cc="http://creativecommons.org/ns#"
   xmlns:rdf="http://www.w3.org/1999/02/22-rdf-syntax-ns#"
   xmlns:svg="http://www.w3.org/2000/svg"
   xmlns="http://www.w3.org/2000/svg"
   xml:space="preserve"
   enable-background="new 30.5 31.5 412 533"
   viewBox="30.5 31.5 400 500"
   height="500"
   width="400"
   y="0"
   x="0"
   version="1.1"
   id="svg2"><metadata
     id="metadata4"><rdf:RDF><cc:Work
         rdf:about=""><dc:format>
          
          
          
          
          
          
          
          
          image/svg+xml
        
        
        
        
        
        
        
        
        </dc:format><dc:type
           rdf:resource="http://purl.org/dc/dcmitype/StillImage" /><dc:title></dc:title></cc:Work></rdf:RDF></metadata><defs
     id="defs6" /><path
     id="path4148"
     d="M 230.45,531.13 C 156.13,477.21 105.19,409.11 74.71,322.97 47.07,244.87 35.98,150.22 40.8,33.62 l 0.02,-0.46 379.82,0 0.02,0.46 c 4.81,116.6 -6.28,211.24 -33.91,289.35 -30.48,86.14 -81.42,154.24 -155.74,208.16 l -0.28,0.2 z"
     style="fill:#ffffff" /><path
     d="M 419.96,33.21 C 429.03,252.66 383.71,419.16 230.51,530.31 146.04,469.02 94.36,390.9 66.52,296.34 64.43,289.25 62.48,282.07 60.65,274.8 49.2,229.11 42.88,179.78 40.77,126.86 39.57,96.8 39.72,65.58 41.06,33.21 l 189.45,0 189.45,0 m 0.92,-0.95 -0.92,0 -189.45,0 -189.45,0 -0.92,0 -0.04,0.92 c -4.82,116.66 6.28,211.36 33.93,289.52 30.51,86.24 81.51,154.41 155.91,208.39 l 0.56,0.41 0.56,-0.41 C 305.46,477.11 356.46,408.94 386.97,322.7 414.62,244.54 425.72,149.84 420.9,33.18 l -0.04,-0.92 0,0 z"
     id="path10" /><path
     style="fill:#e00e00;fill-opacity:1;stroke:#000000;stroke-linejoin:round;stroke-opacity:1"
     id="path2839"
     d="m 130.31374,261.464 c -11.87663,-18.92545 -38.76456,-13.78241 -48.39417,3.7403 m -2.49944,12.05585 c 6.81174,3.09133 5.62683,12.5415 5.96242,11.83454 6.69253,-7.81789 15.4662,-2.77365 18.88091,5.78155 4.30755,-8.4793 12.07533,-6.7363 18.33905,-0.36109 -0.93841,-7.88118 1.75966,-7.27609 4.33586,-6.95611 0.27912,-4.25396 -0.084,-7.86471 -1.08396,-10.84092 3.84221,3.77374 8.1355,7.64011 13.0621,10.57062 2.67299,-5.83131 11.65899,-5.63485 13.09893,1.17458 l 32.91018,-0.0756 13.81157,-14.09964 29.56203,5.59047 31.67554,-7.33053 c -4.64109,7.69404 -1.68569,18.89137 3.34404,22.49333 9.77271,-12.80504 8.09635,-1.73135 16.54483,3.1942 10.6836,-11.26584 12.58467,-1.01803 23.79396,2.10791 -0.3639,-3.67004 -3.03767,-8.92986 3.60999,-7.28231 -0.99331,-16.8006 8.0979,-0.68167 11.11503,0.57492 2.51395,-0.23741 7.67645,-11.83594 12.1372,-0.3194 l 36.92241,-1.34131 c 2.10276,-6.08244 2.89545,-12.90562 -2.87467,-18.97225 -2.15493,-2.26602 7.84922,-8.19569 8.75171,-6.38793 5.92654,11.87342 -0.1372,66.51111 -51.5036,61.04576 -48.10272,-5.1181 -88.23799,-28.01016 -153.67369,-19.90746 -32.40661,4.01281 -43.18713,17.48944 -42.41422,32.71127 1.41624,27.89164 26.33318,30.82446 48.79848,40.75012 9.24797,9.1813 17.99699,19.46046 30.5143,21.44892 -1.60564,-3.48112 -2.21281,-8.00768 0.40308,-10.44844 l 0,10e-4 0,5e-5 0,5e-5 c 4.97365,9.54059 16.04008,16.28868 27.19196,15.98982 -1.15145,-4.38875 -3.05766,-8.70913 -1.71657,-13.32486 3.93258,6.35581 24.57347,13.86693 33.14841,9.70009 -3.31266,-2.89512 -4.58428,-9.83591 -2.43294,-14.39793 23.24734,5.06324 33.58097,-3.70954 43.63366,-12.78314 -21.40969,2.68175 -42.88917,-0.91338 -53.66145,-18.74517 -26.19837,0.99923 -50.2283,-6.36306 -76.42718,9.84704 -52.91246,-9.17854 -52.55464,-50.60391 1.90831,-52.7357 68.0791,-2.66475 105.33764,19.01636 145.70649,21.56837 31.8601,2.01411 60.12527,-15.62309 61.97266,-58.26841 0.8478,-19.57097 -8.12162,-82.05355 -57.44082,-80.03506 -29.89015,1.22332 -31.56331,9.4067 -56.50976,1.41904 -6.57376,-2.10487 -20.61609,-8.37111 -25.51181,-10.10664 -2.00757,-0.71168 -2.77345,-9.50989 -0.19183,-8.49578 l 8.94353,3.51319 c 0,0 1.43547,-7.20572 1.68486,-11.03572 0.65055,-9.99075 -0.52343,-15.12475 -3.15425,-21.0318 l 5.42981,-0.89446 c 3.41598,-22.99883 -14.61725,-56.204896 -32.80349,-55.819668 0.0489,-3.437528 -1.82548,-8.107639 -8.00583,-11.07277 -4.45953,-0.763566 -13.67249,0.144121 -15.94699,3.673996 l 0,0 c -4.76145,-3.009465 -15.84595,0.40928 -18.55789,7.387974 -1.26395,3.25255 -24.20611,2.619849 -26.82902,9.965178 -0.29174,0.81634 0.16487,2.76285 0.51083,3.83271 -7.4831,4.65292 -22.34508,10.09572 -22.99681,11.49846 -0.90899,3.38421 0.33183,6.25403 2.02591,9.07541 l 4.79874,9.51085 20.00017,0 c 3.78248,0.004 3.63997,4.01155 -0.0401,4.01155 l -19.71295,0 c -4.45553,3.49926 -6.98038,10.57489 -7.53043,15.37519 7.19507,-1.62998 11.79337,-2.75716 18.98374,-3.92551 2.31431,-0.37619 2.98904,2.13887 1.14986,3.06597 -15.36111,7.74432 -24.99114,21.84194 -29.88764,37.70899 l 8.67974,-0.0829 c -11.02628,17.76971 -1.7222,39.05482 5.48271,47.12502 -2.73848,3.26484 -6.89845,2.70286 -14.55456,2.36253 -8.33065,-4.85057 -12.00091,-12.31748 -28.90843,-11.65347 -16.90728,0.66401 -30.99295,22.52706 -18.47432,37.53606 -0.28718,-6.12885 3.98819,-13.34647 5.96239,-14.36415 -0.62707,1.4997 -0.68333,6.54375 0.55728,7.59355 -1.89713,3.54998 -2.22279,7.62498 -2.49944,12.05585 z m 50.89361,-15.79615 24.90106,-0.46473 16.71282,-11.74422 -16.71282,11.74422" /><path
     style="fill:#ffffff;fill-opacity:1;stroke:#000000;stroke-opacity:1"
     id="path3615"
     d="m 169.43975,116.03497 c -0.83817,3.01069 -5.18387,2.86002 -6.77927,1.74181 -2.4724,-1.73242 -1.79408,-4.88134 -0.5589,-6.27613 1.86097,1.56593 4.162,3.20815 7.33817,4.53432 z" /><path
     style="fill:none;fill-opacity:1;stroke:#000000;stroke-opacity:1"
     id="path3613"
     d="m 155.2148,260.99927 c -3.45144,-2.97621 -12.01233,-9.28354 -17.87759,-17.26949" /><path
     id="path4566"
     d="m 161.15956,109.08921 c 0.72852,3.81314 7.95289,7.21851 11.32235,8.00093"
     style="fill:none;fill-rule:evenodd;stroke:#000000;stroke-width:1px;stroke-linecap:round;stroke-linejoin:miter;stroke-opacity:1" /><path
     id="path4568"
     d="m 225.2132,96.579692 c 0.13985,11.418748 -6.59713,13.082778 -11.0744,13.863658"
     style="fill:none;fill-rule:evenodd;stroke:#000000;stroke-width:1px;stroke-linecap:round;stroke-linejoin:miter;stroke-opacity:1" /><path
     id="path4570"
     d="m 201.26038,89.180918 c -1.21499,1.882338 -2.39706,4.160947 -1.54454,6.866932"
     style="fill:none;fill-rule:evenodd;stroke:#000000;stroke-width:1px;stroke-linecap:round;stroke-linejoin:miter;stroke-opacity:1" /><path
     id="path4572"
     d="m 327.26203,215.54341 c -15.52569,-3.81117 -27.62838,13.08824 -27.62838,13.08824 l 7.37576,20.44536 29.74058,20.14743 -16.62998,-0.95842 c -4.8428,-4.6299 -17.56582,-12.47317 -32.14483,-12.13354 -14.38347,0.33507 -23.17413,9.48099 -28.00042,16.41557"
     style="fill:none;fill-rule:evenodd;stroke:#000000;stroke-width:1px;stroke-linecap:round;stroke-linejoin:round;stroke-opacity:1" /><path
     id="path4576"
     d="m 198.73719,274.28811 17.38305,-19.18677 -3.51569,-9.89654"
     style="fill:none;fill-rule:evenodd;stroke:#000000;stroke-width:1px;stroke-linecap:round;stroke-linejoin:miter;stroke-opacity:1" /><path
     id="path4580"
     d="m 135.4134,130.94065 7.11779,-2.848"
     style="fill:none;fill-rule:evenodd;stroke:#000000;stroke-width:1px;stroke-linecap:round;stroke-linejoin:miter;stroke-opacity:1" /></svg>