<?xml version="1.0" encoding="UTF-8" standalone="no"?>
<svg
   xmlns:dc="http://purl.org/dc/elements/1.1/"
   xmlns:cc="http://creativecommons.org/ns#"
   xmlns:rdf="http://www.w3.org/1999/02/22-rdf-syntax-ns#"
   xmlns:svg="http://www.w3.org/2000/svg"
   xmlns="http://www.w3.org/2000/svg"
   id="svg2"
   version="1.1"
   x="0"
   y="0"
   width="400"
   height="500"
   viewBox="30.5 31.5 400 500"
   enable-background="new 30.5 31.5 412 533"
   xml:space="preserve"><metadata
     id="metadata4"><rdf:RDF><cc:Work
         rdf:about=""><dc:format>
          
          
          
          
          
          image/svg+xml
        
        
        
        
        
        </dc:format><dc:type
           rdf:resource="http://purl.org/dc/dcmitype/StillImage" /><dc:title></dc:title></cc:Work></rdf:RDF></metadata><defs
     id="defs6" /><path
     style="fill:#0085ca"
     d="M 230.55,531.13 C 304.87,477.21 355.81,409.11 386.29,322.97 413.93,244.87 425.02,150.22 420.2,33.62 l -0.02,-0.46 -379.82,0 -0.02,0.46 c -4.81,116.6 6.28,211.24 33.91,289.35 30.48,86.14 81.42,154.24 155.74,208.16 l 0.28,0.2 0.28,-0.2 z"
     id="path4148" /><path
     id="path10"
     d="m 41.04,33.21 c -9.07,219.45 36.25,385.95 189.45,497.1 84.47,-61.29 136.15,-139.41 163.99,-233.97 2.09,-7.09 4.04,-14.27 5.87,-21.54 11.45,-45.69 17.77,-95.02 19.88,-147.94 1.2,-30.06 1.05,-61.28 -0.29,-93.65 l -189.45,0 -189.45,0 m -0.92,-0.95 0.92,0 189.45,0 189.45,0 0.92,0 0.04,0.92 c 4.82,116.66 -6.28,211.36 -33.93,289.52 -30.51,86.24 -81.51,154.41 -155.91,208.39 l -0.56,0.41 -0.56,-0.41 C 155.54,477.11 104.54,408.94 74.03,322.7 46.38,244.54 35.28,149.84 40.1,33.18 l 0.04,-0.92 0,0 z" /><circle
     style="fill:#ffffff;stroke:#000000;stroke-width:1.0026226;stroke-linecap:round;stroke-linejoin:round;stroke-miterlimit:4"
     id="path4375"
     cx="230.5"
     cy="121.5"
     r="41.823689" /><circle
     style="fill:#ffffff;stroke:#000000;stroke-width:1.0026226;stroke-linecap:round;stroke-linejoin:round;stroke-miterlimit:4"
     r="41.823689"
     cy="291.5"
     cx="126.5"
     id="circle4377" /><circle
     style="fill:#ffffff;stroke:#000000;stroke-width:1.0026226;stroke-linecap:round;stroke-linejoin:round;stroke-miterlimit:4"
     id="circle4379"
     cx="230.5"
     cy="291.5"
     r="41.823689" /><circle
     style="fill:#ffffff;stroke:#000000;stroke-width:1.0026226;stroke-linecap:round;stroke-linejoin:round;stroke-miterlimit:4"
     r="41.823689"
     cy="291.5"
     cx="334.5"
     id="circle4381" /><circle
     style="fill:#ffffff;stroke:#000000;stroke-width:1.0026226;stroke-linecap:round;stroke-linejoin:round;stroke-miterlimit:4"
     id="circle4383"
     cx="282.5"
     cy="206.5"
     r="41.823689" /><circle
     style="fill:#ffffff;stroke:#000000;stroke-width:1.0026226;stroke-linecap:round;stroke-linejoin:round;stroke-miterlimit:4"
     r="41.823689"
     cy="206.5"
     cx="178.5"
     id="circle4385" /></svg>