<?xml version="1.0" encoding="UTF-8" standalone="no"?>
<svg
   xmlns:dc="http://purl.org/dc/elements/1.1/"
   xmlns:cc="http://creativecommons.org/ns#"
   xmlns:rdf="http://www.w3.org/1999/02/22-rdf-syntax-ns#"
   xmlns:svg="http://www.w3.org/2000/svg"
   xmlns="http://www.w3.org/2000/svg"
   xml:space="preserve"
   enable-background="new 30.5 31.5 412 533"
   viewBox="30.5 31.5 420 500"
   height="500"
   width="420"
   y="0"
   x="0"
   version="1.1"
   id="svg2"><metadata
     id="metadata4"><rdf:RDF><cc:Work
         rdf:about=""><dc:format>
          
          
          
          
          image/svg+xml
        
        
        
        
        </dc:format><dc:type
           rdf:resource="http://purl.org/dc/dcmitype/StillImage" /><dc:title></dc:title></cc:Work></rdf:RDF></metadata><defs
     id="defs6" /><path
     style="fill:#e00e00;stroke:#000000;stroke-opacity:1;fill-opacity:1"
     id="path4224"
     d="M 81.874898,355.04015 C 45.252886,259.46988 38.91,135.16 41,32.7 c 133,0.29 66.5,0.05 199.5,0.05 133,0 66.5,0.24 199.5,-0.05 2.09,102.46 -4.25288,226.76988 -40.8749,322.34015 C 370.63865,427.0286 320.55068,491.95417 240.5,530.88 160.44932,491.95417 110.36135,427.0286 81.874898,355.04015 Z" /><path
     style="fill:#ffe000;fill-opacity:1;fill-rule:evenodd;stroke:#000000;stroke-width:1;stroke-linecap:butt;stroke-linejoin:miter;stroke-miterlimit:4;stroke-dasharray:none;stroke-opacity:1"
     d="m 145.93564,242.51486 0,-143.06931 43.78218,0 0,-29.9604 -120.435643,0 0,29.960395 43.782183,0 0,143.069305 z"
     id="path4209" /><path
     id="path4211"
     d="m 238.93564,338.51486 0,-143.06933 43.78218,0 0,-29.96038 -120.43564,0 0,29.96038 43.78218,0 0,143.06932 z"
     style="fill:#ffe000;fill-opacity:1;fill-rule:evenodd;stroke:#000000;stroke-width:1;stroke-linecap:butt;stroke-linejoin:miter;stroke-miterlimit:4;stroke-dasharray:none;stroke-opacity:1" /><path
     style="fill:#ffe000;fill-opacity:1;fill-rule:evenodd;stroke:#000000;stroke-width:1;stroke-linecap:butt;stroke-linejoin:miter;stroke-miterlimit:4;stroke-dasharray:none;stroke-opacity:1"
     d="m 331.93564,434.51486 0,-143.06933 43.78218,0 0,-29.96038 -120.43564,0 0,29.96038 43.78218,0 0,143.06932 z"
     id="path4215" /></svg>