<svg xmlns:dc="http://purl.org/dc/elements/1.1/" xmlns:cc="http://creativecommons.org/ns#" xmlns:rdf="http://www.w3.org/1999/02/22-rdf-syntax-ns#" xmlns:svg="http://www.w3.org/2000/svg" xmlns="http://www.w3.org/2000/svg" id="svg2" version="1.1" x="0" y="0" width="400" height="500" viewBox="30.5 31.5 400 500" enable-background="new 30.5 31.5 412 533" xml:space="preserve">
  <metadata id="metadata4">
    <rdf:RDF>
      <cc:Work rdf:about="">
        <dc:format>
          
          
          
          
          image/svg+xml
        
        
        
        
        </dc:format>
        <dc:type rdf:resource="http://purl.org/dc/dcmitype/StillImage"/>
      </cc:Work>
    </rdf:RDF>
  </metadata>
  <defs id="defs6"/>
  <path fill="#0085ca" id="path8" d="M230.44 531.14C156.12 477.22 105.18 409.12 74.7 322.98 47.06 244.88 35.97 150.23 40.79 33.63l0.02-0.46 379.82 0 0.02 0.46c4.81 116.6-6.28 211.24-33.91 289.35C356.26 409.12 305.32 477.22 231 531.14l-0.28 0.2-0.28-0.2z"/>
  <path id="path10" d="M419.96 33.21C429.03 252.66 383.7 419.16 230.5 530.31 77.31 419.16 31.99 252.66 41.06 33.21l189.45 0 189.45 0m0.92-0.95-0.92 0-189.45 0-189.45 0-0.92 0-0.04 0.92c-4.82 116.66 6.28 211.36 33.93 289.52 30.51 86.24 81.51 154.41 155.91 208.39l0.56 0.41 0.56-0.41C305.46 477.11 356.46 408.94 386.97 322.7 414.62 244.54 425.72 149.84 420.9 33.18l-0.04-0.92 0 0z"/>
  <path d="m170.97 109.02c0.66-7.84-2.48-13.45-7.24-21.25-4.64 18.47-14.36 17.84-18.64 29.73-1.88 5.23 1.54 9.85 4.16 12.17 2.05 1.82-2.35 8.21-5.7 11.4-3.67 3.5-8.44 4.98-12.03 4.44-4.04-0.61-6.81-3.74-4.52-8.41 1.55-3.13 4.84-6.77 5.31-10.05 0.82-5.74-3.34-8.17-3.23-11.4 0.31-9.54 10.32-13.22 11.4-22.49 1.97-16.96-8.4-25.76-19.87-29.57 2.14 9.24 1.5 18.3-5.24 24.18-10.31 8.99-16.02 17.47-16.94 27.88-0.53 6.01 2.81 6.74 7.35 8.73 3.63 1.59-3.39 17.94-17.67 12.22-3.15-1.26-3.47-6.23 0.31-8.93 4.07-2.92 5.74-7.1 2.84-8.9-5.37-3.33-7.11-8.05-7.25-13.26-0.14-5.55 7.33-8.02 8.87-15.73 1.27-6.37 0.62-12.71-4.05-21-2.45 11.48-6.52 17.98-13.59 24.16-8.21 7.16-17.49 9.32-17.93 21.18-0.34 9.15 7.96 8.93 6.6 11.96-0.93 2.07-2.16 3.08-3.23 4.69-9.78 14.72-4.35 23.56-0.6 29.09 9.83 14.53 19 13.82 39.44 18.07 6.87 1.43 7.8 6.9 10.77 12.12 4.8-3.43 8.74-6.92 14.26-6.99 17.03-0.2 23.81-4 30.63-10.52 7.07-6.77 12.32-18.04 15.18-24.85 2.19-5.15-1.18-7.27-4.93-9.4-2.53-1.43-3.61-5.57-0.62-10.55 3.95-6.59 5.59-11.94 6.16-18.71z" id="path4221" style="fill-rule:evenodd;fill:#fff;stroke:#000"/>
  <path id="path4223" d="m265.23 198.97c0.66-7.84-2.48-13.45-7.24-21.25-4.64 18.47-14.36 17.84-18.64 29.73-1.88 5.23 1.54 9.85 4.16 12.17 2.05 1.82-2.35 8.21-5.7 11.4-3.67 3.5-8.44 4.98-12.03 4.44-4.04-0.61-6.81-3.74-4.52-8.41 1.55-3.13 4.84-6.77 5.31-10.05 0.82-5.74-3.34-8.17-3.23-11.4 0.31-9.54 10.32-13.22 11.4-22.49 1.97-16.96-8.4-25.76-19.87-29.57 2.14 9.24 1.5 18.3-5.24 24.18-10.31 8.99-16.02 17.47-16.94 27.88-0.53 6.01 2.81 6.74 7.35 8.73 3.63 1.59-3.39 17.94-17.67 12.22-3.15-1.26-3.47-6.23 0.31-8.93 4.07-2.92 5.74-7.1 2.84-8.9-5.37-3.33-7.11-8.05-7.25-13.26-0.14-5.55 7.33-8.02 8.87-15.73 1.27-6.37 0.62-12.71-4.05-21-2.45 11.48-6.52 17.98-13.59 24.16-8.21 7.16-17.49 9.32-17.93 21.18-0.34 9.15 7.96 8.93 6.6 11.96-0.93 2.07-2.16 3.08-3.23 4.69-9.78 14.72-4.35 23.56-0.6 29.09 9.83 14.53 19 13.82 39.44 18.07 6.87 1.43 7.8 6.9 10.77 12.12 4.8-3.43 8.74-6.92 14.26-6.99 17.03-0.2 23.81-4 30.63-10.52 7.07-6.77 12.32-18.04 15.18-24.85 2.19-5.15-1.18-7.27-4.93-9.4-2.53-1.43-3.61-5.57-0.62-10.55 3.95-6.59 5.59-11.94 6.16-18.71z" style="fill-rule:evenodd;fill:#fff;stroke:#000"/>
  <path d="m358.26 292.61c0.66-7.84-2.48-13.45-7.24-21.25-4.64 18.47-14.36 17.84-18.64 29.73-1.88 5.23 1.54 9.85 4.16 12.17 2.05 1.82-2.35 8.21-5.7 11.4-3.67 3.5-8.44 4.98-12.03 4.44-4.04-0.61-6.81-3.74-4.52-8.41 1.55-3.13 4.84-6.77 5.31-10.05 0.82-5.74-3.34-8.17-3.23-11.4 0.31-9.54 10.32-13.22 11.4-22.49 1.97-16.96-8.4-25.76-19.87-29.57 2.14 9.24 1.5 18.3-5.24 24.18-10.31 8.99-16.02 17.47-16.94 27.88-0.53 6.01 2.81 6.74 7.35 8.73 3.63 1.59-3.39 17.94-17.67 12.22-3.15-1.26-3.47-6.23 0.31-8.93 4.07-2.92 5.74-7.1 2.84-8.9-5.37-3.33-7.11-8.05-7.25-13.26-0.14-5.55 7.33-8.02 8.87-15.73 1.27-6.37 0.62-12.71-4.05-21-2.45 11.48-6.52 17.98-13.59 24.16-8.21 7.16-17.49 9.32-17.93 21.18-0.34 9.15 7.96 8.93 6.6 11.96-0.93 2.07-2.16 3.08-3.23 4.69-9.78 14.72-4.35 23.56-0.6 29.09 9.83 14.53 19 13.82 39.44 18.07 6.87 1.43 7.8 6.9 10.77 12.12 4.8-3.43 8.74-6.92 14.26-6.99 17.03-0.2 23.81-4 30.63-10.52 7.07-6.77 12.32-18.04 15.18-24.85 2.19-5.15-1.18-7.27-4.93-9.4-2.53-1.43-3.61-5.57-0.62-10.55 3.95-6.59 5.59-11.94 6.16-18.71z" id="path4225" style="fill-rule:evenodd;fill:#fff;stroke:#000"/>
</svg>
