<?xml version="1.0" encoding="UTF-8" standalone="no"?>
<svg
   xmlns:dc="http://purl.org/dc/elements/1.1/"
   xmlns:cc="http://creativecommons.org/ns#"
   xmlns:rdf="http://www.w3.org/1999/02/22-rdf-syntax-ns#"
   xmlns:svg="http://www.w3.org/2000/svg"
   xmlns="http://www.w3.org/2000/svg"
   xml:space="preserve"
   enable-background="new 30.5 31.5 412 533"
   viewBox="30.5 31.5 400 500"
   height="500"
   width="400"
   y="0"
   x="0"
   version="1.1"
   id="svg2"><metadata
     id="metadata4"><rdf:RDF><cc:Work
         rdf:about=""><dc:format>
          
          
          image/svg+xml
        
        
        </dc:format><dc:type
           rdf:resource="http://purl.org/dc/dcmitype/StillImage" /><dc:title></dc:title></cc:Work></rdf:RDF></metadata><defs
     id="defs6" /><path
     style="fill:#32ac60;fill-opacity:1"
     fill="#fff"
     d="M230.44 531.14C156.12 477.22 105.18 409.12 74.7 322.98 47.06 244.88 35.97 150.23 40.79 33.63l0.02-0.46 379.82 0 0.02 0.46c4.81 116.6-6.28 211.24-33.91 289.35C356.26 409.12 305.32 477.22 231 531.14l-0.28 0.2-0.28-0.2z"
     id="path8" /><path
     d="M419.96 33.21C429.03 252.66 383.7 419.16 230.5 530.31 77.31 419.16 31.99 252.66 41.06 33.21l189.45 0 189.45 0m0.92-0.95-0.92 0-189.45 0-189.45 0-0.92 0-0.04 0.92c-4.82 116.66 6.28 211.36 33.93 289.52 30.51 86.24 81.51 154.41 155.91 208.39l0.56 0.41 0.56-0.41C305.46 477.11 356.46 408.94 386.97 322.7 414.62 244.54 425.72 149.84 420.9 33.18l-0.04-0.92 0 0z"
     id="path10" /><path
     style="fill:#ffe000;fill-opacity:1;stroke:#000000;stroke-opacity:1"
     id="path3633"
     d="m 119.26201,359.91924 c -1.88219,2.05897 20.52386,3.09733 23.01695,0.43862 16.64989,-17.75601 31.26972,-40.60988 45.0221,-48.13643 3.48169,-1.90549 7.67068,-2.04413 10.22176,-1.99926 5.65785,0.0995 8.87808,0.77977 8.87808,0.77977 4.05949,-0.31168 -2.73367,-6.44473 1.90264,-6.89596 16.89153,-1.64396 32.57065,6.79319 38.01616,16.72638 1.10232,2.01075 4.4109,4.39299 -0.471,4.82154 -24.91527,2.18714 -32.0856,27.02941 -23.89988,40.49197 17.9837,29.57669 49.1569,18.13438 82.42423,35.45736 0.66506,-17.99842 11.49214,-48.89996 11.20804,-73.4363 -0.8245,-25.77492 -17.85657,-37.67431 -35.03322,-38.10181 -12.48451,-0.31073 -25.91303,8.21156 -24.51439,23.48236 0.25963,2.83481 -3.40722,3.91998 -4.46046,2.7389 -9.88774,-11.08786 -23.94397,-19.1415 -41.75369,-17.91955 -1.04745,0.0719 -1.54941,-2.60812 0.53639,-5.08757 10.05861,-11.95694 28.89439,-37.112 41.88266,-34.61428 6.18602,1.5983 0.81988,-6.99499 5.75958,-10.45824 21.38481,-14.99297 42.79414,-25.67587 61.6453,-31.99665 1.61524,-0.54159 8.23007,-0.45573 6.98377,4.31403 -5.03666,19.27613 12.97705,26.44242 25.41716,20.3575 43.91377,-21.47986 34.80557,-53.27066 49.14594,-85.97374 -40.48267,0.73575 -59.19062,-18.53417 -80.29067,-9.3992 -33.08396,14.32323 -28.7682,54.55241 -6.12443,61.93952 2.02663,0.66115 4.63916,2.39766 1.95948,3.30458 -26.49957,8.96858 -49.21618,21.34585 -67.14624,34.10778 -1.07873,0.7678 -7.43184,-1.75673 -7.05464,-3.04415 8.08804,-27.60444 12.83435,-65.57858 1.63077,-86.96014 -2.00676,-3.82982 0.36123,-5.65905 5.27439,-5.15645 27.19627,2.78209 32.03256,-25.06355 21.0518,-45.85467 -14.09733,-26.692051 -38.99851,-17.684449 -64.38341,-33.648986 -8.97651,33.390456 -30.92168,57.950986 -19.97761,82.831036 15.79819,35.9153 44.57744,17.69871 47.46691,6.68463 0.76856,-2.92959 2.91475,-2.24273 3.30281,-1.27836 11.24329,27.94062 4.94146,63.44247 -2.91054,81.58528 -2.19125,5.06309 -7.26683,0.79005 -9.81322,4.71789 -3.06769,4.73194 -4.29832,9.07073 -8.55793,14.30581 -13.46697,16.55092 -27.39054,32.58 -42.87602,46.82405 -2.30216,2.11761 -7.24168,1.67303 -7.04068,-3.96304 1.20516,-33.79218 5.31517,-52.40542 -15.85124,-73.36728 -3.42511,-3.39201 0.29494,-8.5714 7.34347,-8.90144 17.4795,-0.81848 24.87988,-29.96782 5.79343,-45.97168 -18.00021,-15.09306 -41.76633,-16.82788 -75.418844,-16.42489 2.305451,17.68843 1.625811,27.11741 1.337058,40.45254 -0.307539,14.20275 -1.348458,27.87311 1.650588,38.62992 6.512602,23.35904 33.900618,29.30419 49.180848,-1.27145 0.812,-1.62481 4.46437,-0.78502 6.0349,0.40378 22.72398,17.20064 13.29637,55.67324 12.33502,77.9492 -4.49672,-1.40128 -11.38548,-1.0829 -10.49373,0.70059 1.04271,2.08542 6.20518,8.01541 1.77432,12.86242 z" /></svg>