<?xml version="1.0" encoding="UTF-8" standalone="no"?>
<svg
   xmlns:dc="http://purl.org/dc/elements/1.1/"
   xmlns:cc="http://creativecommons.org/ns#"
   xmlns:rdf="http://www.w3.org/1999/02/22-rdf-syntax-ns#"
   xmlns:svg="http://www.w3.org/2000/svg"
   xmlns="http://www.w3.org/2000/svg"
   id="svg2"
   version="1.1"
   x="0"
   y="0"
   width="400"
   height="500"
   viewBox="30.5 31.5 400 500"
   enable-background="new 30.5 31.5 412 533"
   xml:space="preserve"><metadata
     id="metadata4"><rdf:RDF><cc:Work
         rdf:about=""><dc:format>
          
          
          image/svg+xml
        
        
        </dc:format><dc:type
           rdf:resource="http://purl.org/dc/dcmitype/StillImage" /><dc:title></dc:title></cc:Work></rdf:RDF></metadata><defs
     id="defs6" /><path
     id="path8"
     d="M 230.44,531.14 C 156.12,477.22 105.18,409.12 74.7,322.98 47.06,244.88 35.97,150.23 40.79,33.63 l 0.02,-0.46 379.82,0 0.02,0.46 c 4.81,116.6 -6.28,211.24 -33.91,289.35 C 356.26,409.12 305.32,477.22 231,531.14 l -0.28,0.2 -0.28,-0.2 z"
     style="fill:#ffffff;fill-opacity:1" /><path
     id="path10"
     d="M 419.96,33.21 C 429.03,252.66 383.7,419.16 230.5,530.31 77.31,419.16 31.99,252.66 41.06,33.21 l 189.45,0 189.45,0 m 0.92,-0.95 -0.92,0 -189.45,0 -189.45,0 -0.92,0 -0.04,0.92 c -4.82,116.66 6.28,211.36 33.93,289.52 30.51,86.24 81.51,154.41 155.91,208.39 l 0.56,0.41 0.56,-0.41 C 305.46,477.11 356.46,408.94 386.97,322.7 414.62,244.54 425.72,149.84 420.9,33.18 l -0.04,-0.92 0,0 z" /><path
     id="path4271"
     d="m 146.72576,323.94974 c 1.09356,57.37205 49.27184,84.53158 83.77424,83.88308 59.14212,-1.11161 83.93062,-44.40397 84.65471,-74.6708 0.97683,-40.83086 -31.79602,-81.48811 -70.41159,-80.97403 -31.24307,0.41593 -62.335,22.62627 -62.21849,60.22219 0.0641,20.68329 16.19721,48.9483 47.97537,48.05028 22.86736,-0.64621 32.84863,-19.61295 33.64976,-31.87808 1.00266,-15.35041 -10.02183,-26.85297 -22.10243,-26.71966 -18.83256,0.20782 -21.30304,19.13259 -13.02139,25.07665 0.53502,-3.93143 5.30076,-8.21289 8.89575,-5.4077 4.39128,3.42654 0.19554,12.77423 -7.42169,12.74948 -11.31853,-0.0368 -18.3293,-12.01653 -18.20726,-20.46077 0.2358,-16.31568 13.4819,-28.72602 32.91245,-28.36387 28.97727,0.54008 39.50803,27.37203 39.20329,41.67468 -0.58804,27.59944 -19.92623,53.55819 -54.29566,53.66259 -51.36431,0.15603 -66.19384,-46.44321 -66.84677,-67.76752 -0.9098,-29.71356 12.52649,-45.70026 34.84723,-69.61746 -36.22643,16.15591 -52.04348,46.1268 -51.38752,80.54094 z"
     style="fill:#0085ca;fill-rule:evenodd;stroke:#000000;stroke-width:1px;stroke-linecap:butt;stroke-linejoin:miter;stroke-opacity:1;fill-opacity:1" /><path
     style="fill:#0085ca;fill-rule:evenodd;stroke:#000000;stroke-width:1px;stroke-linecap:butt;stroke-linejoin:miter;stroke-opacity:1;fill-opacity:1"
     d="M 195.36187,107.93459 C 148.72426,74.502843 98.14552,96.876421 78.03301,124.91787 c -34.47578,48.06711 -14.6004,93.82372 9.22544,112.50351 32.14177,25.1996 84.32655,23.24505 107.00646,-8.01273 18.34985,-25.29002 19.14112,-63.49187 -11.06166,-85.88068 -16.61598,-12.31714 -48.91789,-16.28882 -67.20133,9.71837 -13.15665,18.7146 -3.92357,38.05661 5.42785,46.03321 11.70376,9.98311 27.51565,8.02547 34.63295,-1.73684 11.09522,-15.21856 -2.59564,-28.51558 -12.31219,-25.43237 2.8311,2.7798 3.4128,9.15983 -0.98535,10.36372 -5.37234,1.47056 -10.35547,-7.48221 -5.78056,-13.57261 6.79792,-9.04979 20.59208,-7.50509 27.28715,-2.35766 12.936,9.9457 14.96177,27.98377 3.05213,43.34078 -17.76116,22.9023 -45.5643,15.29731 -56.84563,6.50014 -21.76929,-16.97566 -31.01105,-47.99843 -10.54196,-75.60793 30.59057,-41.261769 76.80783,-25.28149 94.2897,-13.05296 24.35945,17.03937 29.13794,37.36852 34.95985,69.56096 8.7143,-38.69662 -5.84882,-69.29643 -33.82399,-89.35019 z"
     id="path4344" /><path
     id="path4346"
     d="m 352.58924,253.07267 c 51.90836,-24.45958 56.99114,-79.53181 42.29,-110.7522 -25.1999,-53.516259 -74.84385,-58.433392 -102.7603,-46.716898 -37.66015,15.805898 -61.36034,62.339458 -45.09981,97.368338 13.15606,28.34114 46.13905,47.63179 80.40002,32.15105 18.84857,-8.51669 38.04469,-34.7978 24.22987,-63.4301 -9.94104,-20.60363 -31.33109,-21.95592 -42.8514,-17.67131 -14.41822,5.36238 -20.40669,20.12675 -15.34481,31.09652 7.891,17.10089 26.17131,11.6163 28.20896,1.62802 -3.80648,1.11947 -9.66248,-1.4787 -8.57269,-5.90651 1.3312,-5.40855 11.57731,-5.40231 14.66971,1.559 4.59501,10.34391 -3.47027,21.64065 -11.22607,24.98244 -14.98549,6.45694 -31.72754,-0.55588 -39.34296,-18.43556 -11.35707,-26.66441 8.82231,-47.247 21.99898,-52.81781 25.42667,-10.74985 57.02377,-3.71809 71.17402,27.60345 21.14724,46.8093 -15.31307,79.3984 -34.50583,88.71456 -26.7434,12.98128 -46.82688,7.25741 -77.7806,-3.33099 29.55763,26.45209 63.37612,28.62988 94.51291,13.958 z"
     style="fill:#0085ca;fill-rule:evenodd;stroke:#000000;stroke-width:1px;stroke-linecap:butt;stroke-linejoin:miter;stroke-opacity:1;fill-opacity:1" /></svg>