<?xml version="1.0" encoding="UTF-8" standalone="no"?>
<svg
   xmlns:dc="http://purl.org/dc/elements/1.1/"
   xmlns:cc="http://creativecommons.org/ns#"
   xmlns:rdf="http://www.w3.org/1999/02/22-rdf-syntax-ns#"
   xmlns:svg="http://www.w3.org/2000/svg"
   xmlns="http://www.w3.org/2000/svg"
   version="1"
   width="400"
   height="500"
   id="svg2">
  <metadata
     id="metadata51">
    <rdf:RDF>
      <cc:Work
         rdf:about="">
        <dc:format>
          
          image/svg+xml
        
        </dc:format>
        <dc:type
           rdf:resource="http://purl.org/dc/dcmitype/StillImage" />
        <dc:title></dc:title>
      </cc:Work>
    </rdf:RDF>
  </metadata>
  <defs
     id="defs4" />
  <path
     id="path2418"
     d="m 396.64,1.45 -393.73,0 0,301.05 0,0 0,0.09 c 0,108.73 88.14,196.86 196.86,196.86 108.72,0 196.87,-88.14 196.87,-196.86 l 0,-0.09 0,0 z"
     style="fill:#32ac60;fill-opacity:1;fill-rule:nonzero" />
  <path
     d="m 396.64,1.45 -393.73,0 0,301.05 0,0 c 0,0.03 0,0.06 0,0.09 0,108.73 88.14,196.86 196.86,196.86 108.72,0 196.87,-88.14 196.87,-196.86 0,-0.03 0,-0.06 0,-0.09 l 0,0 0,-301.05 z"
     id="path4300"
     style="fill:none;stroke:#000000" />
  <path
     style="fill:#ffffff;fill-rule:evenodd;stroke:#000000;stroke-width:1px;stroke-linecap:round;stroke-linejoin:round;stroke-opacity:1"
     d="m 208.99939,293.43666 c 1.49006,-0.0697 3.26276,2.52759 6.79707,3.10143 2.23075,9.82637 5.61091,19.37256 10.24809,28.3496 3.95821,8.73891 2.43201,18.29542 10.94774,25.99864 1.70109,1.53878 -1.44879,12.30823 -1.37859,18.46235 -4.56792,-0.68443 -6.82007,2.3199 -4.40291,4.73393 l 13.20097,13.18387 c 4.75029,4.74413 2.43529,12.96047 2.10223,18.97726 -0.23132,4.17893 3.81998,4.56499 5.99345,2.77815 0.71205,-0.58539 1.22467,-2.3674 1.80381,-3.75023 2.88548,5.23895 7.64199,12.69477 6.39997,17.19509 -1.29011,4.67461 -1.26327,8.91217 -1.66443,13.22997 -0.13895,1.49561 -1.26238,6.87085 4.39996,7.24335 4.49888,0.29596 2.87216,-1.10908 16.0485,-1.85446 4.50141,-0.25464 12.17285,2.79087 19.15151,2.71107 5.417,-0.0619 15.22864,-1.16985 15.22864,-1.16985 4.72928,-0.0346 7.65602,-7.00846 -1.31565,-9.17586 -6.96458,-1.68253 -12.97005,-3.86209 -19.81676,-8.86742 -4.03516,-2.94993 -8.36028,-10.84502 -12.72282,-9.24815 -1.54351,-3.53256 -1.85495,-8.86942 -2.86142,-13.87883 1.65164,0.34079 3.08101,-0.46342 3.17031,-1.92925 0.15611,-2.5629 -1.6763,-6.8507 -2.54503,-10.71708 3.5086,-0.0274 0.72662,-5.23997 0.0969,-9.74301 l -0.94508,-6.75811 c -0.37358,-2.67141 0.97046,-5.49076 2.0048,-8.32766 0.84057,-2.30543 -4.43063,-2.23295 -8.01753,-1.38795 -2.81635,-7.15822 -7.42544,-10.46451 -7.17275,-22.05289 1.78096,-15.11949 -0.32738,-30.67347 -3.20659,-46.74069 1.84687,0.13698 3.58559,-0.0463 3.2837,-0.98917 -2.52198,-7.87684 -3.40706,-17.89754 -4.8578,-27.60467 -1.56033,-10.44041 -1.52794,-20.52397 -4.49098,-31.13293 -2.38405,-8.5359 -5.36007,-12.9326 -9.38847,-18.60174 -1.21423,-1.70878 -1.57633,-4.16564 -2.15902,-6.32286 -1.54538,-5.72131 -3.26692,-11.81569 -8.55899,-20.43362 -1.95021,-3.17585 -1.38682,-7.37806 -2.00481,-10.71941 1.50994,0.35573 2.99371,-9.46529 1.15662,-9.63711 1.53553,-4.3511 3.98999,-8.5711 6.39467,-12.48763 2.54456,10.6152 2.7917,22.76081 6.86791,32.22728 4.03987,9.38209 12.34136,16.18779 21.97579,20.12519 1.3422,0.54853 4.36876,0.45728 4.24094,-1.77348 -0.42749,-7.46095 -3.07111,-20.65308 -5.65723,-29.10366 l 2.82133,-31.2329 c 1.09012,-4.53158 -1.32596,-7.13916 -3.31404,-11.76879 0.98389,0.0701 2.43454,-0.0807 2.16291,-1.86155 -0.373,-2.44541 -1.66174,-3.48299 -2.25872,-6.53387 2.98054,-0.85555 0.48101,-7.14082 -2.23614,-10.98905 3.19427,-4.22693 -4.39037,-11.56717 -10.3286,-17.652257 -1.36642,-1.400218 -7.67632,-0.631461 -11.41462,-0.582631 l -0.20935,-1.375155 c -4.03286,-0.371961 -9.88704,-0.890937 -14.82795,-0.321221 l -0.46265,1.310837 -9.01777,-1.356006 c -1.70772,-4.026168 -3.43737,-9.264427 -3.16529,-14.95829 1.5281,0.576733 2.1084,0.933159 5.93731,1.046908 4.42941,0.131588 4.63465,-4.28928 3.97242,-6.94795 -0.318,-1.276658 -0.70734,-2.620319 -0.001,-2.82694 1.73747,-0.508421 1.74412,-2.493808 0.64277,-3.486192 1.81469,-0.303069 1.66445,-2.558794 0.48897,-4.497951 2.96095,-0.141263 3.50644,-1.01924 3.69657,-2.869664 0.33785,-3.288079 -2.44665,-6.193084 -2.32029,-10.069648 0.0693,-2.125052 -0.57012,-4.051668 0.53738,-6.159287 0.99732,-1.897947 0.77559,-4.145945 -0.84819,-6.554181 1.88506,-0.456803 2.79187,-1.803733 2.853,-3.238537 0.12248,-2.874623 -1.28474,-6.979881 -5.41392,-7.788063 -2.73422,-0.535153 -3.99685,-1.994938 -6.28878,-2.740808 -1.80255,-0.586609 -4.8058,-1.147495 -7.63508,-0.693558 -5.25816,0.843633 -7.56732,0.04133 -10.79498,0.192994 -2.62398,0.123299 -5.90181,0.318035 -8.95415,-0.53597 -3.74715,-1.048403 -7.52393,-0.06733 -9.79009,0.643521 -2.36826,0.742877 -3.6229,3.749753 -5.81717,4.509369 -4.62636,1.601562 -6.47963,3.537892 -5.41392,6.412515 0.49921,1.346548 0.96794,2.781734 2.853,3.238537 -1.62378,2.408236 -1.84551,4.656234 -0.84819,6.554181 1.1075,2.107619 0.63169,4.197806 0.70095,6.322858 0.12636,3.876564 -2.47027,6.425413 -2.35143,9.728666 0.0838,2.328921 1.16927,4.302513 4.43832,3.057315 -1.08132,2.210124 -1.51856,3.350498 0.29633,4.651282 -1.97987,1.352274 1.62056,3.029944 -0.04,6.149561 -1.2523,2.352643 0.41066,7.137003 3.97242,6.94795 3.82522,-0.203037 4.40921,-0.470175 5.93731,-1.046908 0.27208,5.693863 -1.45757,10.932122 -3.16529,14.95829 l -9.01777,1.356006 -0.46265,-1.310837 c -4.94091,-0.569716 -10.79509,-0.05074 -14.82795,0.321221 l -0.20935,1.375155 c -3.7383,-0.04883 -10.0482,-0.817587 -11.41462,0.582631 -5.93823,6.085087 -13.52287,13.425327 -10.3286,17.652257 -2.71715,3.84823 -5.21668,10.1335 -2.23614,10.98905 -0.59698,3.05088 -1.88572,4.08846 -2.25872,6.53387 -0.27163,1.78088 1.17902,1.93166 2.16291,1.86155 -1.92764,4.0079 -6.60993,9.87895 -3.77762,11.537 l 0.52089,2.19755 2.76402,29.26714 c -2.58612,8.45058 -5.22974,21.64271 -5.65723,29.10366 -0.12782,2.23076 2.89874,2.32201 4.24094,1.77348 9.63443,-3.9374 17.93592,-10.7431 21.97579,-20.12519 4.07621,-9.46647 4.32335,-21.61208 6.86791,-32.22728 2.40468,3.91653 4.85914,8.13653 6.39467,12.48763 -1.83709,0.17182 -0.35332,9.99284 1.15662,9.63711 -0.61799,3.34135 -0.0546,7.54356 -2.00481,10.71941 -5.29207,8.61793 -7.01361,14.71231 -8.55899,20.43362 -0.58269,2.15722 -0.94479,4.61408 -2.15902,6.32286 -4.0284,5.66914 -7.00442,10.06584 -9.38847,18.60174 -2.96304,10.60896 -2.93065,20.69252 -4.49098,31.13293 -1.45074,9.70713 -2.33582,19.72783 -4.8578,27.60467 -0.30189,0.94287 1.43683,1.12615 3.2837,0.98917 -2.87921,16.06722 -4.98755,31.6212 -3.20659,46.74069 0.25269,11.58838 -4.3564,14.89467 -7.17275,22.05289 -3.5869,-0.845 -8.8581,-0.91748 -8.01753,1.38795 1.03434,2.8369 2.37838,5.65625 2.0048,8.32766 l -0.94508,6.75811 c -0.62972,4.50304 -3.4117,9.71557 0.0969,9.74301 -0.86873,3.86638 -2.70114,8.15418 -2.54503,10.71708 0.0893,1.46583 1.51867,2.27004 3.17031,1.92925 -1.00647,5.00941 -1.31791,10.34627 -2.86142,13.87883 -4.36254,-1.59687 -8.68766,6.29822 -12.72282,9.24815 -6.84671,5.00533 -12.85218,7.18489 -19.81676,8.86742 -8.97167,2.1674 -6.04493,9.14125 -1.31564,9.17586 0,0 9.81163,1.10794 15.22863,1.16985 6.97866,0.0798 14.6501,-2.96571 19.15151,-2.71107 13.17634,0.74538 11.54962,2.15042 16.0485,1.85446 5.66234,-0.3725 4.53891,-5.74774 4.39996,-7.24335 -0.40116,-4.3178 -0.37432,-8.55536 -1.66443,-13.22997 -1.24202,-4.50032 3.51449,-11.95614 6.39997,-17.19509 0.57914,1.38283 1.09176,3.16484 1.80381,3.75023 2.17347,1.78684 6.22477,1.40078 5.99345,-2.77815 -0.33306,-6.01679 -2.64806,-14.23313 2.10223,-18.97726 l 13.20097,-13.18387 c 2.41716,-2.41403 0.16501,-5.41836 -4.40291,-4.73393 0.0702,-6.15412 -3.07968,-16.92357 -1.37859,-18.46235 8.51573,-7.70322 6.98953,-17.25973 10.94774,-25.99864 4.63718,-8.97704 8.01734,-18.52323 10.24809,-28.3496 3.53431,-0.57384 5.30701,-3.17108 6.79707,-3.10143 1.00456,0.047 4.66218,2.91492 8.99939,2.91492 4.33721,0 7.99483,-2.86792 8.99939,-2.91492 z"
     id="path4327" />
  <path
     id="path4417"
     d="m 56.86523,237.15283 c 3.51566,0.0646 8.53616,-2.91363 8.18983,-7.57173 l -3.0905,-41.56724 c -0.13555,-1.82309 -4.02659,-4.20547 -6.95363,-2.16335 l -6.64458,4.63575 c -5.16401,-5.05856 -5.39878,-17.23265 -2.00882,-22.71519 3.96973,2.8134 15.37196,10.39964 15.4525,4.95362 L 63.81886,36.888325 c 0.13197,-8.923884 2.90149,-15.612905 6.64458,-19.933736 3.74309,4.320831 6.41104,11.011932 6.64458,19.933736 L 80.64656,172.0691 c 0.14253,5.44475 10.93645,-1.48463 14.90618,-4.29803 3.38996,5.48254 2.71813,17.32883 -2.44589,22.38739 l -5.98898,-4.30795 c -2.89732,-2.08408 -6.06975,0.33525 -6.0795,2.16335 l -0.22175,41.56724 c -0.0249,4.6709 4.67417,7.6363 8.18983,7.57173 0.85561,5.58286 -5.47259,11.90067 -16.07061,13.28916 -10.59802,-1.38849 -16.92622,-7.7063 -16.07061,-13.28916 z"
     style="fill:#ffe000;fill-opacity:1;fill-rule:evenodd;stroke:#000000;stroke-width:1px;stroke-linecap:butt;stroke-linejoin:miter;stroke-opacity:1" />
  <path
     id="path4232"
     d="m 166.47596,168.35842 c 7.04242,-1.5174 14.90603,-2.78277 23.97621,-3.67785 1.97285,-0.19469 3.36993,-8.03531 9.54783,-8.03531 6.1779,0 7.57498,7.84062 9.54783,8.03531 9.07018,0.89508 16.93379,2.16045 23.97621,3.67785"
     style="fill:none;fill-rule:evenodd;stroke:#000000;stroke-width:1px;stroke-linecap:butt;stroke-linejoin:miter;stroke-opacity:1" />
  <path
     id="path4234"
     d="m 139.45621,293.79993 c 7.34284,0.35209 10.07463,-3.17145 11.5148,-3.10416 1.44143,0.0674 3.86644,4.09232 10.42161,4.17218 5.90121,0.0719 8.19417,-2.42582 9.27151,-2.4724 0.94001,-0.0406 3.6665,4.03437 9.19424,4.09492 l 4.34516,0.0476"
     style="fill:none;fill-rule:evenodd;stroke:#000000;stroke-width:1px;stroke-linecap:butt;stroke-linejoin:miter;stroke-opacity:1" />
  <path
     id="path4236"
     d="m 154.90976,215.47142 c 2.33832,1.2637 1.87243,2.47806 1.16057,4.3746 -4.79404,12.77234 -7.43526,23.96043 -9.65782,37.78138 -1.51298,9.40842 -1.74683,19.01483 3.78587,19.85648 7.68403,1.16892 9.54402,-7.54051 11.35759,-16.37966 l 8.57614,-41.79904 c 0.64986,-3.16735 4.96202,-2.96103 4.32671,0.69537 l -7.26268,41.79904 c -1.30626,7.51794 -1.59122,17.13328 4.86754,17.53859 7.02399,0.44078 10.50788,-7.76985 11.43486,-15.76156 l 5.09932,-43.96239 c 0.33301,-2.87094 4.74292,-3.14572 4.63575,0.92715 -0.34502,13.11184 -2.90258,29.47114 -3.24502,42.7262 -0.22377,8.66149 1.85822,16.22513 10.01141,16.22513 8.15319,0 10.23518,-7.56364 10.01141,-16.22513 -0.34244,-13.25506 -2.9,-29.61436 -3.24502,-42.7262 -0.10717,-4.07287 4.30274,-3.79809 4.63575,-0.92715 l 5.09932,43.96239 c 0.92698,7.99171 4.41087,16.20234 11.43486,15.76156 6.45876,-0.40531 6.1738,-10.02065 4.86754,-17.53859 l -7.26268,-41.79904 c -0.63531,-3.6564 3.67685,-3.86272 4.32671,-0.69537 l 8.57614,41.79904 c 1.81357,8.83915 3.67356,17.54858 11.35759,16.37966 5.5327,-0.84165 5.29885,-10.44806 3.78587,-19.85648 -2.22256,-13.82095 -4.86378,-25.00904 -9.65782,-37.78138 -0.71186,-1.89654 -1.17775,-3.1109 1.16057,-4.3746"
     style="fill:none;fill-rule:evenodd;stroke:#000000;stroke-width:1px;stroke-linecap:butt;stroke-linejoin:miter;stroke-opacity:1" />
  <path
     id="path4238"
     d="m 154.13877,225.09987 c 1.22437,4.34618 6.66371,7.70304 13.83,4.01766"
     style="fill:none;fill-rule:evenodd;stroke:#000000;stroke-width:1.20000005;stroke-linecap:butt;stroke-linejoin:miter;stroke-miterlimit:4;stroke-dasharray:none;stroke-opacity:1" />
  <path
     style="fill:none;fill-rule:evenodd;stroke:#000000;stroke-width:1.20000005;stroke-linecap:butt;stroke-linejoin:miter;stroke-miterlimit:4;stroke-dasharray:none;stroke-opacity:1"
     d="m 172.99083,228.3449 c 1.22582,4.74175 10.09908,6.02417 14.37084,1.69978"
     id="path4240" />
  <path
     id="path4242"
     d="m 193.00184,229.19479 c 0.76224,2.51371 5.35053,3.78586 6.99816,3.78586 1.64763,0 6.23592,-1.27215 6.99816,-3.78586"
     style="fill:none;fill-rule:evenodd;stroke:#000000;stroke-width:1.20000005;stroke-linecap:round;stroke-linejoin:round;stroke-miterlimit:4;stroke-dasharray:none;stroke-opacity:1" />
  <path
     id="path4244"
     d="m 122.84124,401.45657 c 0.96416,0.002 1.65608,-1.11857 1.86051,-2.20693 1.46939,0.0651 2.51993,0.0883 3.55407,-0.23178 2.90288,-0.89854 4.70107,-5.434 4.79028,-8.03531 0.0775,-2.26055 -1.37227,-5.01148 1.08167,-6.25826 3.23935,-1.64582 9.58706,3.95875 9.03972,5.64016 -0.73708,2.26431 -1.22551,4.41464 -0.92715,6.25827 0.66134,4.08657 2.16801,6.11508 3.4484,8.64894"
     style="fill:none;fill-rule:evenodd;stroke:#000000;stroke-width:1px;stroke-linecap:butt;stroke-linejoin:miter;stroke-opacity:1" />
  <path
     id="path4246"
     d="m 132.96883,392.21875 c 1.62251,1.02971 3.24503,0.78763 4.86754,0.84989 -1.39543,1.52927 -2.91944,2.54175 -4.63575,2.78145"
     style="fill:none;fill-rule:evenodd;stroke:#000000;stroke-width:1px;stroke-linecap:round;stroke-linejoin:round;stroke-opacity:1" />
  <path
     style="fill:none;fill-rule:evenodd;stroke:#000000;stroke-width:1px;stroke-linecap:round;stroke-linejoin:round;stroke-opacity:1"
     d="m 143.39928,400.40859 c -1.62251,-1.02971 -3.55408,-1.25121 -5.17659,-1.31347 1.39543,-1.52927 2.30134,-2.2327 4.01765,-2.4724"
     id="path4248" />
  <path
     id="path4250"
     d="m 129.07687,362.59351 c 1.73954,-0.0752 1.14523,4.54918 2.03766,5.44207 1.20826,1.20888 3.02442,0.68351 3.86313,3.01324 l 0.69536,1.93156 c 0.69487,1.93019 20.8504,3.98531 21.63351,2.85871 3.01099,-4.33167 4.33946,-5.46009 7.07976,-6.49041"
     style="fill:none;fill-rule:evenodd;stroke:#000000;stroke-width:1px;stroke-linecap:butt;stroke-linejoin:miter;stroke-opacity:1" />
  <path
     id="path4252"
     d="m 147.10788,108.43344 c -0.74062,2.63708 -4.24508,7.48154 -11.62934,6.52652"
     style="fill:none;fill-rule:evenodd;stroke:#000000;stroke-width:1px;stroke-linecap:round;stroke-linejoin:miter;stroke-opacity:1" />
  <path
     id="path4254"
     d="m 133.2424,125.94901 c 1.21638,0.10035 1.53683,-0.83555 2.19884,-1.13591 0.94862,-0.4304 2.39595,-0.0374 3.16776,-0.46357 1.30581,-0.72112 0.23319,-1.94445 0.30905,-2.82009"
     style="fill:none;fill-rule:evenodd;stroke:#000000;stroke-width:1px;stroke-linecap:round;stroke-linejoin:miter;stroke-opacity:1" />
  <path
     id="path4256"
     d="m 133.14659,134.34443 c 4.83402,-0.36139 8.07317,-4.42932 12.33878,-6.13178 1.2531,-0.50013 2.8549,0.59544 3.7086,2.4724 2.30313,5.06375 3.97587,9.70723 5.6788,14.37084"
     style="fill:none;fill-rule:evenodd;stroke:#000000;stroke-width:1px;stroke-linecap:butt;stroke-linejoin:miter;stroke-opacity:1" />
  <path
     id="path4258"
     d="m 140.23151,114.92349 2.08609,2.04746 0.84989,-1.89293"
     style="fill:none;fill-rule:evenodd;stroke:#000000;stroke-width:1px;stroke-linecap:round;stroke-linejoin:round;stroke-opacity:1" />
  <path
     id="path4260"
     d="m 135.59576,134.00734 3.63134,2.97461 0.46361,-5.0607"
     style="fill:none;fill-rule:evenodd;stroke:#000000;stroke-width:1px;stroke-linecap:round;stroke-linejoin:round;stroke-opacity:1" />
  <path
     id="path4262"
     d="m 140.92688,131.10999 3.47681,2.78146 0.15453,-4.98344"
     style="fill:none;fill-rule:evenodd;stroke:#000000;stroke-width:1px;stroke-linecap:round;stroke-linejoin:round;stroke-opacity:1" />
  <path
     id="path4285"
     d="m 157.22176,96.725072 c 6.28311,16.315358 8.55371,35.048358 2.85953,59.145718"
     style="fill:none;fill-rule:evenodd;stroke:#000000;stroke-width:1px;stroke-linecap:butt;stroke-linejoin:miter;stroke-opacity:1" />
  <path
     id="path4287"
     d="m 161.16966,150.50289 -6.99226,0.19316 c 1.6571,-13.09451 5.93101,-29.47946 -9.11698,-52.190849"
     style="fill:none;fill-rule:evenodd;stroke:#000000;stroke-width:1px;stroke-linecap:round;stroke-linejoin:round;stroke-opacity:1" />
  <path
     id="path4289"
     d="m 155.99307,136.75016 7.14679,0.23179"
     style="fill:none;fill-rule:evenodd;stroke:#000000;stroke-width:1px;stroke-linecap:butt;stroke-linejoin:miter;stroke-opacity:1" />
  <path
     id="path4291"
     d="m 156.0317,126.28109 6.99226,-0.27042"
     style="fill:none;fill-rule:evenodd;stroke:#000000;stroke-width:1px;stroke-linecap:butt;stroke-linejoin:miter;stroke-opacity:1" />
  <path
     id="path4293"
     d="m 153.52136,115.46379 8.49772,-0.73299"
     style="fill:none;fill-rule:evenodd;stroke:#000000;stroke-width:1px;stroke-linecap:butt;stroke-linejoin:miter;stroke-opacity:1" />
  <path
     id="path4295"
     d="m 149.58028,105.80651 10.39212,-1.3898"
     style="fill:none;fill-rule:evenodd;stroke:#000000;stroke-width:1px;stroke-linecap:butt;stroke-linejoin:miter;stroke-opacity:1" />
  <path
     id="path4297"
     d="m 162.78658,117.69845 4.99096,-0.0193 0.10926,2.02142 8.63199,0 -3.79708,-23.361077"
     style="fill:none;fill-rule:evenodd;stroke:#000000;stroke-width:1px;stroke-linecap:round;stroke-linejoin:round;stroke-opacity:1" />
  <path
     id="path4299"
     d="M 175.3715,112.92614 200,112.48907"
     style="fill:none;fill-rule:evenodd;stroke:#000000;stroke-width:1px;stroke-linecap:butt;stroke-linejoin:miter;stroke-opacity:1" />
  <path
     id="path4305"
     d="m 187.5956,46.611205 c -1.65472,-2.302425 -6.46709,-3.022075 -9.27365,-2.633474"
     style="fill:none;fill-rule:evenodd;stroke:#000000;stroke-width:1px;stroke-linecap:round;stroke-linejoin:round;stroke-opacity:1" />
  <path
     id="path4307"
     d="m 179.24909,46.847151 c 1.47642,-0.12563 3.10607,0.249623 5.48765,2.469721 -0.67403,2.309231 -2.45545,3.266377 -4.79161,3.380353"
     style="fill:none;fill-rule:evenodd;stroke:#000000;stroke-width:1px;stroke-linecap:round;stroke-linejoin:round;stroke-opacity:1" />
  <path
     id="path4309"
     d="m 180.59985,47.072908 c -0.7413,0.877916 -0.40118,4.051414 0.19316,5.242695"
     style="fill:none;fill-rule:evenodd;stroke:#000000;stroke-width:1px;stroke-linecap:butt;stroke-linejoin:miter;stroke-opacity:1" />
  <path
     id="path4311"
     d="m 174.73872,63.323352 c 2.479,-1.889207 3.11325,-1.742787 4.15398,-1.796317 1.18206,-0.0608 1.6604,-1.340611 0.8374,-2.173169"
     style="fill:none;fill-rule:evenodd;stroke:#000000;stroke-width:1px;stroke-linecap:round;stroke-linejoin:miter;stroke-opacity:1" />
  <path
     id="path4313"
     d="m 175.03505,67.974634 c 5.10523,-0.198306 5.68307,-1.245907 6.50067,-0.277317"
     style="fill:none;fill-rule:evenodd;stroke:#000000;stroke-width:1px;stroke-linecap:round;stroke-linejoin:miter;stroke-opacity:1" />
  <path
     id="path4315"
     d="m 172.79907,37.660332 c 2.60765,-0.07735 3.50922,-2.140998 5.21383,-2.124102 1.74933,0.01734 4.58135,2.726907 9.42603,4.056283 2.35795,0.64702 5.60622,1.093731 6.181,2.086089 1.04029,1.796063 0.65217,5.13261 0.15452,9.271505 -0.65165,5.419648 0.67078,10.208411 0,16.379659 -0.81204,7.470889 3.09822,8.447907 6.22555,8.421616"
     style="fill:none;fill-rule:evenodd;stroke:#000000;stroke-width:1px;stroke-linecap:butt;stroke-linejoin:miter;stroke-opacity:1" />
  <path
     id="path4317"
     d="m 199.60699,44.0302 c 0,0 0.69971,3.680629 0.49179,5.552139 -0.18467,1.662216 -0.67083,3.255315 -0.80621,4.92227 -0.18382,2.263378 0.86282,3.749139 0.86463,6.019968 0.001,1.47095 -0.4878,3.285105 -0.55145,4.754678 C 199.53655,66.876667 200,69.820803 200,69.820803"
     style="fill:none;fill-rule:evenodd;stroke:#000000;stroke-width:1px;stroke-linecap:round;stroke-linejoin:round;stroke-opacity:1" />
  <path
     id="path4321"
     d="m 181.73949,94.983527 0.40646,6.797503 c 0.16728,2.79752 2.96514,4.53453 4.34924,4.53453 l 13.50481,0"
     style="fill:none;fill-rule:evenodd;stroke:#000000;stroke-width:1px;stroke-linecap:butt;stroke-linejoin:miter;stroke-opacity:1" />
  <path
     id="path4323"
     d="m 122.21597,388.81024 c 3.03751,0.81285 2.86794,-5.16808 3.79924,-7.02192"
     style="fill:none;fill-rule:evenodd;stroke:#000000;stroke-width:1px;stroke-linecap:round;stroke-linejoin:miter;stroke-opacity:1" />
  <path
     id="path4325"
     d="m 124.08364,388.39425 c 1.09626,-0.12381 1.55145,-0.0562 2.04747,-0.42494 0.57895,-0.43033 -0.48365,-2.57542 -0.81127,-3.66997"
     style="fill:none;fill-rule:evenodd;stroke:#000000;stroke-width:1px;stroke-linecap:round;stroke-linejoin:round;stroke-opacity:1" />
  <path
     style="fill:none;fill-rule:evenodd;stroke:#000000;stroke-width:1px;stroke-linecap:butt;stroke-linejoin:miter;stroke-opacity:1"
     d="m 232.36742,177.99553 c -5.62187,-1.98904 -13.55724,-4.64761 -17.83039,-5.03609 -2.16122,-0.19648 -2.58626,-0.40546 -1.97596,0.52905 l 2.47241,3.78587 c 0.79008,1.20982 -5.3417,4.74918 -6.64458,2.85872 l -3.94039,-5.71743 c -0.80218,-1.16395 -1.59943,-2.31789 -4.44851,-2.31789 -2.84908,0 -3.64633,1.15394 -4.44851,2.31789 l -3.94039,5.71743 c -1.30288,1.89046 -7.43466,-1.6489 -6.64458,-2.85872 l 2.47241,-3.78587 c 0.6103,-0.93451 0.18526,-0.72553 -1.97596,-0.52905 -4.27315,0.38848 -12.20852,3.04705 -17.83039,5.03609"
     id="path4329" />
  <path
     style="fill:none;fill-rule:evenodd;stroke:#000000;stroke-width:1px;stroke-linecap:butt;stroke-linejoin:miter;stroke-opacity:1"
     d="m 260.54379,293.79993 c -7.34284,0.35209 -10.07463,-3.17145 -11.5148,-3.10416 -1.44143,0.0674 -3.86644,4.09232 -10.42161,4.17218 -5.90121,0.0719 -8.19417,-2.42582 -9.27151,-2.4724 -0.94001,-0.0406 -3.6665,4.03437 -9.19424,4.09492 l -4.34516,0.0476"
     id="path4333" />
  <path
     style="fill:none;fill-rule:evenodd;stroke:#000000;stroke-width:1.20000005;stroke-linecap:butt;stroke-linejoin:miter;stroke-miterlimit:4;stroke-dasharray:none;stroke-opacity:1"
     d="m 245.86123,225.09987 c -1.22437,4.34618 -6.66371,7.70304 -13.83,4.01766"
     id="path4337" />
  <path
     id="path4339"
     d="m 227.00917,228.3449 c -1.22582,4.74175 -10.09908,6.02417 -14.37084,1.69978"
     style="fill:none;fill-rule:evenodd;stroke:#000000;stroke-width:1.20000005;stroke-linecap:butt;stroke-linejoin:miter;stroke-miterlimit:4;stroke-dasharray:none;stroke-opacity:1" />
  <path
     style="fill:none;fill-rule:evenodd;stroke:#000000;stroke-width:1px;stroke-linecap:butt;stroke-linejoin:miter;stroke-opacity:1"
     d="m 277.15876,401.45657 c -0.96416,0.002 -1.65608,-1.11857 -1.86051,-2.20693 -1.46939,0.0651 -2.51993,0.0883 -3.55407,-0.23178 -2.90288,-0.89854 -4.70107,-5.434 -4.79028,-8.03531 -0.0775,-2.26055 1.37227,-5.01148 -1.08167,-6.25826 -3.23935,-1.64582 -9.58706,3.95875 -9.03972,5.64016 0.73708,2.26431 1.22551,4.41464 0.92715,6.25827 -0.66134,4.08657 -2.16801,6.11508 -3.4484,8.64894"
     id="path4343" />
  <path
     style="fill:none;fill-rule:evenodd;stroke:#000000;stroke-width:1px;stroke-linecap:round;stroke-linejoin:round;stroke-opacity:1"
     d="m 267.03117,392.21875 c -1.62251,1.02971 -3.24503,0.78763 -4.86754,0.84989 1.39543,1.52927 2.91944,2.54175 4.63575,2.78145"
     id="path4345" />
  <path
     id="path4347"
     d="m 256.60072,400.40859 c 1.62251,-1.02971 3.55408,-1.25121 5.17659,-1.31347 -1.39543,-1.52927 -2.30134,-2.2327 -4.01765,-2.4724"
     style="fill:none;fill-rule:evenodd;stroke:#000000;stroke-width:1px;stroke-linecap:round;stroke-linejoin:round;stroke-opacity:1" />
  <path
     style="fill:none;fill-rule:evenodd;stroke:#000000;stroke-width:1px;stroke-linecap:butt;stroke-linejoin:miter;stroke-opacity:1"
     d="m 270.92313,362.59351 c -1.73954,-0.0752 -1.14523,4.54918 -2.03766,5.44207 -1.20826,1.20888 -3.02442,0.68351 -3.86313,3.01324 l -0.69536,1.93156 c -0.69487,1.93019 -20.8504,3.98531 -21.63351,2.85871 -3.01099,-4.33167 -4.33946,-5.46009 -7.07976,-6.49041"
     id="path4349" />
  <path
     style="fill:none;fill-rule:evenodd;stroke:#000000;stroke-width:1px;stroke-linecap:round;stroke-linejoin:miter;stroke-opacity:1"
     d="m 252.89212,108.43344 c 0.74062,2.63708 4.24508,7.48154 11.62934,6.52652"
     id="path4351" />
  <path
     style="fill:none;fill-rule:evenodd;stroke:#000000;stroke-width:1px;stroke-linecap:round;stroke-linejoin:miter;stroke-opacity:1"
     d="m 266.7576,125.94901 c -1.21638,0.10035 -1.53683,-0.83555 -2.19884,-1.13591 -0.94862,-0.4304 -2.39595,-0.0374 -3.16776,-0.46357 -1.30581,-0.72112 -0.23319,-1.94445 -0.30905,-2.82009"
     id="path4353" />
  <path
     style="fill:none;fill-rule:evenodd;stroke:#000000;stroke-width:1px;stroke-linecap:butt;stroke-linejoin:miter;stroke-opacity:1"
     d="m 266.85341,134.34443 c -4.83402,-0.36139 -8.07317,-4.42932 -12.33878,-6.13178 -1.2531,-0.50013 -2.8549,0.59544 -3.7086,2.4724 -2.30313,5.06375 -3.97587,9.70723 -5.6788,14.37084"
     id="path4355" />
  <path
     style="fill:none;fill-rule:evenodd;stroke:#000000;stroke-width:1px;stroke-linecap:round;stroke-linejoin:round;stroke-opacity:1"
     d="m 259.76849,114.92349 -2.08609,2.04746 -0.84989,-1.89293"
     id="path4357" />
  <path
     style="fill:none;fill-rule:evenodd;stroke:#000000;stroke-width:1px;stroke-linecap:round;stroke-linejoin:round;stroke-opacity:1"
     d="m 264.40424,134.00734 -3.63134,2.97461 -0.46361,-5.0607"
     id="path4359" />
  <path
     style="fill:none;fill-rule:evenodd;stroke:#000000;stroke-width:1px;stroke-linecap:round;stroke-linejoin:round;stroke-opacity:1"
     d="m 259.07312,131.10999 -3.47681,2.78146 -0.15453,-4.98344"
     id="path4361" />
  <path
     style="fill:none;fill-rule:evenodd;stroke:#000000;stroke-width:1px;stroke-linecap:round;stroke-linejoin:round;stroke-opacity:1"
     d="M 254.93958,98.505201 C 239.89159,121.21659 244.1655,137.60154 245.8226,150.69605 l -6.99226,-0.19316"
     id="path4363" />
  <path
     style="fill:none;fill-rule:evenodd;stroke:#000000;stroke-width:1px;stroke-linecap:butt;stroke-linejoin:miter;stroke-opacity:1"
     d="m 242.77824,96.725072 c -6.28311,16.315358 -8.55371,35.048358 -2.85953,59.145718"
     id="path4365" />
  <path
     style="fill:none;fill-rule:evenodd;stroke:#000000;stroke-width:1px;stroke-linecap:butt;stroke-linejoin:miter;stroke-opacity:1"
     d="m 244.00693,136.75016 -7.14679,0.23179"
     id="path4369" />
  <path
     style="fill:none;fill-rule:evenodd;stroke:#000000;stroke-width:1px;stroke-linecap:butt;stroke-linejoin:miter;stroke-opacity:1"
     d="m 243.9683,126.28109 -6.99226,-0.27042"
     id="path4371" />
  <path
     style="fill:none;fill-rule:evenodd;stroke:#000000;stroke-width:1px;stroke-linecap:butt;stroke-linejoin:miter;stroke-opacity:1"
     d="m 246.47864,115.19391 -8.2664,-0.23179"
     id="path4373" />
  <path
     style="fill:none;fill-rule:evenodd;stroke:#000000;stroke-width:1px;stroke-linecap:butt;stroke-linejoin:miter;stroke-opacity:1"
     d="m 250.41972,105.80651 -10.54634,-0.92715"
     id="path4375" />
  <path
     style="fill:none;fill-rule:evenodd;stroke:#000000;stroke-width:1px;stroke-linecap:round;stroke-linejoin:round;stroke-opacity:1"
     d="m 237.25197,117.69845 -5.02951,-0.0192 -0.10926,2.02142 -8.63199,0 3.79708,-23.361077"
     id="path4377" />
  <path
     style="fill:none;fill-rule:evenodd;stroke:#000000;stroke-width:1px;stroke-linecap:butt;stroke-linejoin:miter;stroke-opacity:1"
     d="M 224.6285,112.92614 200,112.48907"
     id="path4379" />
  <path
     style="fill:none;fill-rule:evenodd;stroke:#000000;stroke-width:1px;stroke-linecap:butt;stroke-linejoin:miter;stroke-opacity:1"
     d="m 205.39773,144.66786 c 1.55939,1e-5 2.05821,-1.19188 1.69362,-2.13071 l -2.18531,-5.6272 c -0.3419,-0.88038 0.35527,-1.45599 1.25654,-1.03801 l 3.76968,1.74825 c 1.27728,0.59236 2.5473,0.0982 2.56774,-1.80289 l 0.1093,-10.1617 c 0.0143,-1.32968 -1.37156,-1.1455 -1.85752,-0.87413 l -4.20674,2.34921 c -1.23621,0.69035 -1.76886,0.35387 -1.25655,-1.09266 l 1.85749,-5.24475 c 0.40494,-1.14337 0.13145,-2.15017 -1.63899,-2.18531 L 200,118.49866 l -5.50699,0.1093 c -1.77044,0.0351 -2.04393,1.04194 -1.63899,2.18531 l 1.85749,5.24475 c 0.51231,1.44653 -0.0203,1.78301 -1.25655,1.09266 l -4.20674,-2.34921 c -0.48596,-0.27137 -1.87182,-0.45555 -1.85752,0.87413 l 0.1093,10.1617 c 0.0204,1.90109 1.29046,2.39525 2.56774,1.80289 l 3.76968,-1.74825 c 0.90127,-0.41798 1.59844,0.15763 1.25654,1.03801 l -2.18531,5.6272 c -0.36459,0.93883 0.13423,2.13072 1.69362,2.13071 l 5.39773,-3e-5 z"
     id="path4381" />
  <path
     style="fill:none;fill-rule:evenodd;stroke:#000000;stroke-width:1px;stroke-linecap:round;stroke-linejoin:round;stroke-opacity:1"
     d="m 213.30833,47.554438 c 1.55024,-2.435293 5.85494,-5.63028 8.36972,-4.803488"
     id="path4383" />
  <path
     style="fill:none;fill-rule:evenodd;stroke:#000000;stroke-width:1px;stroke-linecap:round;stroke-linejoin:round;stroke-opacity:1"
     d="m 219.94053,46.470469 c -2.28567,0.601249 -4.58965,2.252955 -4.55937,3.475225 0.0293,1.181256 2.69813,2.064279 4.47513,2.591834"
     id="path4385" />
  <path
     style="fill:none;fill-rule:evenodd;stroke:#000000;stroke-width:1;stroke-linecap:butt;stroke-linejoin:miter;stroke-miterlimit:4;stroke-dasharray:none;stroke-opacity:1"
     d="m 219.38991,46.777321 -0.11137,5.675974"
     id="path4387" />
  <path
     style="fill:none;fill-rule:evenodd;stroke:#000000;stroke-width:1px;stroke-linecap:round;stroke-linejoin:miter;stroke-opacity:1"
     d="m 226.13569,63.313112 c -2.16717,0.106505 -2.38028,-1.55494 -3.76729,-1.914221 -1.1896,-0.308142 -3.92032,-0.389759 -2.41249,-1.818491"
     id="path4389" />
  <path
     style="fill:none;fill-rule:evenodd;stroke:#000000;stroke-width:1px;stroke-linecap:round;stroke-linejoin:miter;stroke-opacity:1"
     d="m 225.48292,67.974634 c -5.10523,-0.198306 -5.76873,-1.07237 -6.58633,-0.10378"
     id="path4391" />
  <path
     style="fill:none;fill-rule:evenodd;stroke:#000000;stroke-width:1px;stroke-linecap:butt;stroke-linejoin:miter;stroke-opacity:1"
     d="m 227.20093,37.660332 c -2.60765,-0.07735 -3.50922,-2.140998 -5.21383,-2.124102 -1.74933,0.01734 -4.58135,2.726907 -9.42603,4.056283 -2.35795,0.64702 -5.60622,1.093731 -6.181,2.086089 -1.04029,1.796063 -0.65217,5.13261 -0.15452,9.271505 0.65165,5.419648 -0.67078,10.208411 0,16.379659 0.81204,7.470889 -3.09822,8.447907 -6.22555,8.421616"
     id="path4393" />
  <path
     style="fill:none;fill-rule:evenodd;stroke:#000000;stroke-width:1px;stroke-linecap:butt;stroke-linejoin:miter;stroke-opacity:1"
     d="m 218.26051,94.983527 -0.40646,6.797503 c -0.16728,2.79752 -2.96514,4.53453 -4.34924,4.53453 l -13.50481,0"
     id="path4399" />
  <path
     style="fill:none;fill-rule:evenodd;stroke:#000000;stroke-width:1px;stroke-linecap:round;stroke-linejoin:miter;stroke-opacity:1"
     d="m 277.78403,388.81024 c -3.03751,0.81285 -2.86794,-5.16808 -3.79924,-7.02192"
     id="path4401" />
  <path
     style="fill:none;fill-rule:evenodd;stroke:#000000;stroke-width:1px;stroke-linecap:round;stroke-linejoin:round;stroke-opacity:1"
     d="m 275.91636,388.39425 c -1.09626,-0.12381 -1.55145,-0.0562 -2.04747,-0.42494 -0.57895,-0.43033 0.48365,-2.57542 0.81127,-3.66997"
     id="path4403" />
  <path
     id="path4405"
     d="m 129.36898,145.88143 -7.33279,12.0773 c -0.86039,1.41708 -3.3084,1.19775 -5.21523,3.55407 -6.98991,8.63764 -13.60942,16.45826 -20.66773,26.46243 -3.25989,4.62045 -7.0986,10.14403 -11.31896,12.09158 -1.61119,0.74351 -3.58069,-5.91763 -6.02648,-6.76047 -3.9735,-1.36931 -10.58859,1.53477 -16.50438,1.08165 -1.84188,-0.14108 -3.67867,-0.42195 -3.19757,2.3565 0.28376,1.6387 1.27484,2.31789 1.27484,2.31789 -1.14468,1.15686 -2.245,1.68929 -2.27925,4.2108 -0.0231,1.70296 0.65411,3.00633 1.33278,3.55293 -0.57685,0.40396 -0.94602,0.54039 -0.90783,2.82123 0.0497,2.96711 1.49998,4.34219 1.66114,4.55848 0.67742,0.90921 -1.05499,0.57762 -0.96578,3.90177 0.0529,1.97015 0.49497,4.06615 1.8543,4.48123 -0.80632,1.88667 -0.55708,3.89846 0.15452,5.09933 0.68682,1.15904 3.36466,1.95881 7.45584,1.50661 3.8618,-0.42684 4.40703,-1.88973 6.52868,-3.01324 1.58943,0.94722 2.86415,1.76867 5.29249,1.62252 3.81141,-0.22938 14.1496,-13.12057 21.71077,-19.62469 8.21636,-7.06771 25.80569,-19.77921 25.80569,-19.77921 4.50898,-3.45598 7.72403,-9.79104 10.89402,-16.07061 0.7249,-1.43598 1.0129,-7.18419 -0.538,-12.48999 -1.6828,-5.75708 -5.37988,-11.14402 -9.01107,-13.95814 z"
     style="fill:#ffffff;fill-rule:evenodd;stroke:#000000;stroke-width:1px;stroke-linecap:butt;stroke-linejoin:miter;stroke-opacity:1" />
  <path
     id="path4407"
     d="m 61.07604,222.58882 c 4.67963,0.81685 9.25504,0.50323 13.11531,-1.13961"
     style="fill:none;fill-rule:evenodd;stroke:#000000;stroke-width:1px;stroke-linecap:butt;stroke-linejoin:miter;stroke-opacity:1" />
  <path
     id="path4409"
     d="m 60.18752,214.20582 c 4.39122,2.27601 9.6926,0.95083 13.63684,0.77266"
     style="fill:none;fill-rule:evenodd;stroke:#000000;stroke-width:1px;stroke-linecap:butt;stroke-linejoin:miter;stroke-opacity:1" />
  <path
     id="path4411"
     d="m 59.43421,206.82611 c 1.33234,0.61989 9.13863,1.16028 13.55512,0.33366"
     style="fill:none;fill-rule:evenodd;stroke:#000000;stroke-width:1px;stroke-linecap:butt;stroke-linejoin:miter;stroke-opacity:1" />
  <path
     id="path4413"
     d="m 60.38068,199.06238 c 5.5967,2.72504 9.88964,1.43659 12.17661,2.56957 0.16225,2.56233 0.27778,4.19899 0.43204,5.52782 -0.11963,1.31543 1.7493,7.45815 0.83503,7.81871 1.04084,0.31649 1.44951,6.08234 0.36699,6.47073"
     style="fill:none;fill-rule:evenodd;stroke:#000000;stroke-width:1;stroke-linecap:round;stroke-linejoin:round;stroke-miterlimit:4;stroke-dasharray:none;stroke-opacity:1" />
  <path
     id="path4415"
     d="m 74.19135,221.44921 c 2.0938,0.77523 1.42681,4.22431 1.02373,4.73231"
     style="fill:none;fill-rule:evenodd;stroke:#000000;stroke-width:1px;stroke-linecap:butt;stroke-linejoin:miter;stroke-opacity:1" />
  <path
     style="fill:#ffe000;fill-opacity:1;fill-rule:evenodd;stroke:#000000;stroke-width:1px;stroke-linecap:butt;stroke-linejoin:miter;stroke-opacity:1"
     d="m 333.20311,224.10402 17.34124,0 c 0.25962,1.44214 1.94683,3.00922 3.47663,3.71504 l -17.26399,37.47814 c -1.39542,5.91461 1.79002,13.26645 6.66521,18.13811 8.22377,8.21781 18.0383,5.19253 25.34966,0.6556 4.8827,-3.02987 9.25236,-11.31118 8.74125,-17.15472 L 362.50508,227.9857 c 3.47967,-1.78306 3.72649,-4.83887 3.64519,-7.19799 -0.15194,-4.41045 -4.5748,-8.07025 -8.49152,-7.95794 -2.74313,0.0787 -4.85268,1.12853 -6.58794,3.29785 l -17.72094,0 c -0.52429,-2.4122 -3.22115,-5.36681 -5.55267,-6.77447 l 0,-114.401228 9.90997,0 0,-10.48951 -14.13165,0 -13.91312,0 0,10.48951 9.69144,0 0,114.401228 c -2.33152,1.40766 -5.02838,4.36227 -5.55267,6.77447 l -17.72094,0 c -1.73526,-2.16932 -3.84481,-3.21919 -6.58794,-3.29785 -3.91672,-0.11231 -8.33958,3.54749 -8.49152,7.95794 -0.0813,2.35912 0.16552,5.41493 3.64519,7.19799 l -15.00803,38.95049 c -0.51111,5.84354 3.85855,14.12485 8.74125,17.15472 7.31136,4.53693 17.12589,7.56221 25.34966,-0.6556 4.87519,-4.87166 8.06063,-12.2235 6.66521,-18.13811 l -17.26399,-37.47814 c 1.5298,-0.70582 3.21701,-2.2729 3.47663,-3.71504 l 17.34124,0 c 0.6434,3.16175 4.49259,6.92623 9.62759,6.88374 5.135,0.0425 8.98419,-3.72199 9.62759,-6.88374 z"
     id="path4437" />
  <path
     style="fill:#32ac60;fill-opacity:1;fill-rule:evenodd;stroke:#000000;stroke-width:1px;stroke-linecap:round;stroke-linejoin:round;stroke-opacity:1"
     d="m 368.30157,265.2972 c -7.34673,0.15572 -14.69178,0.0773 -22.03846,0 l 11.69143,-28.19055 z"
     id="path4433" />
  <path
     id="path4439"
     d="m 278.84947,265.2972 c 7.34673,0.15572 14.69178,0.0773 22.03846,0 L 289.1965,237.10665 Z"
     style="fill:#32ac60;fill-opacity:1;fill-rule:evenodd;stroke:#000000;stroke-width:1px;stroke-linecap:round;stroke-linejoin:round;stroke-opacity:1" />
  <path
     id="path4447"
     d="m 130.46329,203.88986 c 5.87769,-4.38373 10.09666,-17.65183 8.45476,-31.56033"
     style="fill:none;fill-rule:evenodd;stroke:#000000;stroke-width:1px;stroke-linecap:round;stroke-linejoin:miter;stroke-opacity:1" />
  <path
     id="path4449"
     d="m 281.68706,160.83916 c 8.95513,-9.60391 16.07382,-19.14536 26.98864,-28.29982 1.58413,-1.32864 0.41307,-8.108 -0.3278,-13.87675 -0.64931,-5.05581 2.45901,-10.19118 4.1521,-11.47291 2.43301,-1.84187 4.50544,-3.01506 6.85384,-3.1687 7.58893,-0.49651 10.266,1.17964 16.09196,0.4917 4.18704,-0.49441 3.73653,1.41945 3.71504,2.45847 -0.0405,1.95984 -1.216,4.19705 -2.02142,4.4799 1.73453,0.21059 2.48258,2.31958 2.56775,3.71503 0.1039,1.70252 -0.0871,3.69536 -1.20192,3.76967 0.98483,0.48985 1.69351,5.54877 0.16389,5.79108 1.79967,1.46453 1.78642,6.86596 0.0546,7.23886 1.45989,0.68187 1.05483,5.70816 -1.14729,5.92766 -4.9626,0.49466 -9.77925,0.90066 -14.00093,-1.20192 -0.57888,-0.2883 -0.82868,-3.04715 0,-4.15209 -0.9602,-0.28727 -1.97488,-0.6092 -2.88059,-1.52973 -1.45177,-1.47552 -0.98184,-3.05944 -1.34109,-4.58916 l 0,16.4445 c -1.22847,0.74683 -3.31422,1.3063 -4.50463,3.4965 -6.02782,11.09048 -10.37283,22.26227 -18.08348,33.27142 -3.96867,5.66642 -8.44147,10.73565 -13.93138,14.36844 -2.14073,1.41657 -5.7272,0.40953 -7.70323,-1.52972 -5.35486,-5.2552 -10.79755,-10.41158 -15.02404,-16.93619 0.6562,-12.62532 4.88419,-24.79021 9.56075,-35.12893 4.4889,6.46626 8.54955,13.23842 12.01923,20.43269 z"
     style="fill:#ffffff;fill-rule:evenodd;stroke:#000000;stroke-width:1px;stroke-linecap:round;stroke-linejoin:round;stroke-opacity:1" />
  <path
     id="path4455"
     d="m 268.7783,204.67568 c -7.85264,-9.36055 -9.27546,-18.45207 -8.67122,-29.14028"
     style="fill:none;fill-rule:evenodd;stroke:#000000;stroke-width:1px;stroke-linecap:round;stroke-linejoin:miter;stroke-opacity:1" />
  <path
     id="path4457"
     d="M 196.24686,112.68288 200,118.49866"
     style="fill:none;fill-rule:evenodd;stroke:#000000;stroke-width:1px;stroke-linecap:butt;stroke-linejoin:miter;stroke-opacity:1" />
  <path
     style="fill:none;fill-rule:evenodd;stroke:#000000;stroke-width:1px;stroke-linecap:butt;stroke-linejoin:miter;stroke-opacity:1"
     d="M 203.75314,112.68288 200,118.49866"
     id="path4459" />
  <path
     id="path4461"
     d="m 314.30289,123.52492 c 1.58837,0.84002 1.65304,2.42042 5.16022,2.15799 2.98347,-0.22325 3.14797,-7.91323 4.11241,-12.07387 0.53045,-2.28836 5.60073,-0.12747 13.5639,-2.15799"
     style="fill:none;fill-rule:evenodd;stroke:#000000;stroke-width:1px;stroke-linecap:round;stroke-linejoin:round;stroke-opacity:1" />
  <path
     id="path4463"
     d="m 338.50525,118.93575 c -4.948,1.08244 -15.64504,2.24869 -15.65232,-1.14729"
     style="fill:none;fill-rule:evenodd;stroke:#000000;stroke-width:1px;stroke-linecap:butt;stroke-linejoin:miter;stroke-opacity:1" />
  <path
     id="path4465"
     d="m 338.66914,124.72683 c -5.36201,2.7763 -14.99635,1.53443 -17.70363,0.24585"
     style="fill:none;fill-rule:evenodd;stroke:#000000;stroke-width:1px;stroke-linecap:butt;stroke-linejoin:miter;stroke-opacity:1" />
  <path
     id="path4467"
     d="m 338.72374,131.96569 c -5.04941,0.29138 -12.6164,0.72655 -15.14822,0.57365"
     style="fill:none;fill-rule:evenodd;stroke:#000000;stroke-width:1px;stroke-linecap:butt;stroke-linejoin:miter;stroke-opacity:1" />
  <path
     id="path4469"
     d="m 322.06076,125.38243 c -1.33163,-0.22208 -2.49308,1.01306 -2.51312,1.93946"
     style="fill:none;fill-rule:evenodd;stroke:#000000;stroke-width:0.89999998;stroke-linecap:butt;stroke-linejoin:miter;stroke-miterlimit:4;stroke-dasharray:none;stroke-opacity:1" />
</svg>
