<?xml version="1.0" encoding="UTF-8" standalone="no"?>
<svg
   xmlns:dc="http://purl.org/dc/elements/1.1/"
   xmlns:cc="http://creativecommons.org/ns#"
   xmlns:rdf="http://www.w3.org/1999/02/22-rdf-syntax-ns#"
   xmlns:svg="http://www.w3.org/2000/svg"
   xmlns="http://www.w3.org/2000/svg"
   id="svg2"
   version="1.1"
   x="0"
   y="0"
   width="400"
   height="500"
   viewBox="30.5 31.5 400 500"
   enable-background="new 30.5 31.5 412 533"
   xml:space="preserve"><metadata
     id="metadata4"><rdf:RDF><cc:Work
         rdf:about=""><dc:format>
          
          
          
          
          image/svg+xml
        
        
        
        
        </dc:format><dc:type
           rdf:resource="http://purl.org/dc/dcmitype/StillImage" /><dc:title></dc:title></cc:Work></rdf:RDF></metadata><defs
     id="defs6" /><path
     style="fill:#0085ca;fill-opacity:1"
     d="M 230.45,531.13 C 156.13,477.21 105.19,409.11 74.71,322.97 47.07,244.87 35.98,150.22 40.8,33.62 l 0.02,-0.46 379.82,0 0.02,0.46 c 4.81,116.6 -6.28,211.24 -33.91,289.35 -30.48,86.14 -81.42,154.24 -155.74,208.16 l -0.28,0.2 -0.28,-0.2 z"
     id="path4148" /><path
     id="path10"
     d="M 419.96,33.21 C 429.03,252.66 383.71,419.16 230.51,530.31 146.04,469.02 94.36,390.9 66.52,296.34 64.43,289.25 62.48,282.07 60.65,274.8 49.2,229.11 42.88,179.78 40.77,126.86 39.57,96.8 39.72,65.58 41.06,33.21 l 189.45,0 189.45,0 m 0.92,-0.95 -0.92,0 -189.45,0 -189.45,0 -0.92,0 -0.04,0.92 c -4.82,116.66 6.28,211.36 33.93,289.52 30.51,86.24 81.51,154.41 155.91,208.39 l 0.56,0.41 0.56,-0.41 C 305.46,477.11 356.46,408.94 386.97,322.7 414.62,244.54 425.72,149.84 420.9,33.18 l -0.04,-0.92 0,0 z" /><path
     style="fill:#ffffff;stroke:#000000;stroke-width:1;stroke-linecap:round;stroke-linejoin:round;stroke-miterlimit:4;stroke-dasharray:none;stroke-opacity:1"
     id="path3009"
     d="m 244.97084,408.58336 c -5.49424,13.14688 -15.98579,17.82032 -28.93643,40.48396 l 5.32755,0.84711 0.23628,5.70522 5.50267,0.98012 0.50953,6.33607 6.58821,0.46207 0.84713,5.98061 6.72221,-0.3872 1.82929,5.13026 c 3.16802,-1.78078 5.24174,-4.16469 7.47868,-10.61561 2.38272,-6.87129 6.26125,-18.0074 17.3434,-36.47763 14.81476,-24.62588 35.61428,-54.64784 46.79892,-76.42844 9.713,-18.93544 11.38088,-41.50096 10.89032,-64.65512 C 324.83316,222.07444 289.12076,178.9056 239.67284,134.65756 219.85444,116.9976 212.398,97.57162 198.76056,76.575876 189.34192,61.95734 175.90072,54.59902 150.09752,63.72334 c -9.71296,3.433884 -18.64108,7.1621 -30.02196,5.3961 -7.36051,-1.226756 -8.24455,13.362771 -5.83449,19.900627 0.48114,1.30521 1.30613,2.883829 1.81197,3.579824 1.41512,1.947087 3.23764,2.813289 3.23764,2.813289 -1.37356,13.5393 20.89764,18.44486 26.98052,31.68982 5.78856,12.75444 -8.04508,28.4522 -5.59232,48.56496 0.98112,8.3394 3.04144,13.73552 8.43756,22.4674 -5.78856,-0.29432 -15.99212,-5.78856 -20.01464,-1.96224 -8.24132,7.7508 -17.93536,20.16342 -19.2108,35.66497 l 8.17275,-4.16289 3.43174,4.31164 7.47969,-4.46781 3.48978,4.86444 5.99849,-4.10801 3.98143,5.12501 6.30019,-4.28314 3.5594,5.40347 5.77379,-2.30722 0.96845,5.84876 5.84661,-0.10981 c -9.12432,9.12432 -18.03344,14.83063 -25.19556,25.52471 -5.39608,8.04512 -14.43076,36.95934 -14.23456,54.4231 l 4.81592,-3.79782 5.41614,3.23135 6.28646,-7.07249 3.723,2.90853 6.64412,-11.25641 3.30097,2.57938 5.92671,-10.99368 3.532,2.94332 c 0,0 1.71305,-4.67051 3.63856,-12.17005 1.23953,-4.82778 6.82111,-6.10305 11.8948,-5.67873 4.73765,0.39623 10.45784,1.57534 16.18667,11.24117 17.1964,29.0142 38.81597,33.31818 56.97225,54.48577 19.13164,22.36932 1.66792,44.05184 -16.48264,48.17248 -15.9249,3.6695 -31.60046,-0.38089 -43.39983,4.68192 l 3.71452,3.45389 -4.59228,5.48791 3.24612,3.24507 -4.01623,4.51941 3.40648,3.60268 -4.4709,4.73676 c 0,0 7.65264,4.6112 14.02984,2.8452 31.19928,-8.82999 39.93116,-16.67884 39.93116,-16.67884 z" /><path
     style="fill:#000000;stroke:none"
     id="path3789"
     d="m 156.05162,79.706256 c 1.9622,-3.630108 0.97328,-7.67007 -1.08708,-8.258738 -3.82632,-0.392444 -8.96925,0.207525 -11.37297,3.248965 -2.40372,3.04144 11.28273,7.266325 12.46005,5.009773 z" /><path
     style="fill:#000000;stroke:none"
     id="path3791"
     d="m 123.39402,72.52881 c -2.11504,0.06234 -3.1253,-0.612156 -3.76614,-1.017905 -1.60093,-1.013633 1.12523,-2.032763 1.12523,-2.032763 -10.20156,-3.66847 -8.90275,16.791379 -6.22059,18.917015 0,-6.180988 3.50528,-9.268397 7.03728,-10.936285 2.649,-1.27544 3.30828,-4.973801 1.82422,-4.930062 z" /><path
     style="fill:none;stroke:#000000;stroke-width:1;stroke-linecap:round;stroke-linejoin:miter;stroke-miterlimit:4;stroke-dasharray:none;stroke-opacity:1"
     id="path2991"
     d="m 119.29068,95.41318 19.6222,9.71298" /><path
     style="fill:none;stroke:#000000;stroke-width:1;stroke-linecap:round;stroke-linejoin:miter;stroke-miterlimit:4;stroke-dasharray:none;stroke-opacity:1"
     id="path3828"
     d="m 132.63377,96.68862 c 5.19991,6.57342 8.33943,10.8903 10.69411,14.61854" /><path
     style="fill:none;stroke:#000000;stroke-width:1;stroke-linecap:round;stroke-linejoin:miter;stroke-miterlimit:4;stroke-dasharray:none;stroke-opacity:1"
     id="path3832"
     d="m 136.75444,90.115188 c 10.69408,3.531992 17.56188,10.988412 21.97684,15.795852" /><path
     style="fill:none;stroke:#000000;stroke-width:1;stroke-linecap:round;stroke-linejoin:miter;stroke-miterlimit:4;stroke-dasharray:none;stroke-opacity:1"
     id="path3834"
     d="m 137.53932,84.915307 c 8.73188,0.882997 17.66,3.728217 26.29376,10.007317" /><path
     style="fill:none;stroke:#000000;stroke-width:1;stroke-linecap:round;stroke-linejoin:miter;stroke-miterlimit:4;stroke-dasharray:none;stroke-opacity:1"
     id="path3836"
     d="m 142.9877,75.815619 c 3.09025,-3.494567 6.51988,-4.853553 11.97684,-4.368101 4.48475,0.398963 8.94855,3.640618 11.05147,5.707849" /><path
     style="fill:none;stroke:#000000;stroke-width:1;stroke-linecap:round;stroke-linejoin:miter;stroke-miterlimit:4;stroke-dasharray:none;stroke-opacity:1"
     id="path3838"
     d="m 166.01601,77.155367 c -4.10393,1.959108 -7.88354,2.827524 -11.04544,2.709866 -4.95252,-0.184288 -8.95822,-1.882216 -11.98287,-4.049614" /></svg>