<?xml version="1.0" encoding="UTF-8" standalone="no"?>
<svg
   xmlns:dc="http://purl.org/dc/elements/1.1/"
   xmlns:cc="http://creativecommons.org/ns#"
   xmlns:rdf="http://www.w3.org/1999/02/22-rdf-syntax-ns#"
   xmlns:svg="http://www.w3.org/2000/svg"
   xmlns="http://www.w3.org/2000/svg"
   xml:space="preserve"
   enable-background="new 30.5 31.5 412 533"
   viewBox="30.5 31.5 420 500"
   height="500"
   width="420"
   y="0"
   x="0"
   version="1.1"
   id="svg2"><metadata
     id="metadata4"><rdf:RDF><cc:Work
         rdf:about=""><dc:format>
          
          
          
          
          image/svg+xml
        
        
        
        
        </dc:format><dc:type
           rdf:resource="http://purl.org/dc/dcmitype/StillImage" /><dc:title></dc:title></cc:Work></rdf:RDF></metadata><defs
     id="defs6" /><path
     style="fill:#0085ca;fill-opacity:1;fill-rule:evenodd"
     d="m 41,32.7 c -2.09,102.46 3.38,187.49 43.93,296.59 28.05,75.48 74.21,144.77 155.57,201.59 C 321.86,474.06 368.02,404.77 396.07,329.29 436.62,220.19 442.09,135.16 440,32.7 c -133,0.29 -266,0 -399,0 z"
     id="path4218" /><path
     style="fill:none;stroke:#000000"
     id="path4224"
     d="m 41,32.7 c -2.09,102.46 3.38,187.49 43.93,296.59 28.05,75.48 74.21,144.77 155.57,201.59 C 321.86,474.06 368.02,404.77 396.07,329.29 436.62,220.19 442.09,135.16 440,32.7 c -133,0.29 -266,0 -399,0 z" /><path
     style="fill:#ffffff;fill-rule:evenodd;stroke:#000000;stroke-width:1.06812668px;stroke-linecap:butt;stroke-linejoin:miter;stroke-opacity:1"
     d="m 268.97424,193.79728 50.91742,0 c -5.58799,-8.59766 -12.0399,-19.95202 -19.44656,-22.36846 -8.71423,-2.84296 -12.9167,-0.11836 -19.44656,-5.60322 -5.27041,-4.42692 -8.79783,-11.04616 -11.04169,-19.94095 -1.96535,-7.79081 -0.37924,-18.15384 5.10884,-23.07223 6.11356,-5.47892 14.42052,-7.0642 23.40185,-11.04168 21.85772,-9.68005 40.32237,-20.870894 65.58477,-37.574757 2.16224,-1.429695 1.57952,-3.233263 -0.82401,-3.233263 -81.81884,0 -163.63776,0 -245.4566,0 -2.40353,0 -2.98625,1.803568 -0.82401,3.233263 25.2624,16.703863 43.72705,27.894707 65.58477,37.574757 8.98133,3.97748 17.28829,5.56276 23.40185,11.04168 5.48808,4.91839 7.07419,15.28142 5.10884,23.07223 -2.24386,8.89479 -5.77128,15.51403 -11.04169,19.94095 -6.52986,5.48486 -10.73233,2.76026 -19.44656,5.60322 -7.40666,2.41644 -13.85857,13.7708 -19.44656,22.36846 l 50.91742,0 C 213.12814,181.0747 223.55942,165.8256 240.5,165.8256 c 16.94058,0 27.37186,15.2491 28.47424,27.97168 z"
     id="path4587" /><path
     id="path4593"
     d="m 263.29662,313.5513 40.76511,0 c -4.47379,-6.88331 -9.63915,-15.97383 -15.56907,-17.90832 -6.97676,-2.27631 -10.34124,-0.0952 -15.56908,-4.48611 -4.21955,-3.54431 -7.04369,-8.84357 -8.84014,-15.96501 -1.57344,-6.23729 -0.3037,-14.53394 4.09019,-18.47172 4.89462,-4.38652 11.54523,-5.65572 18.73563,-8.84013 17.49966,-7.74987 32.28264,-16.70939 52.50797,-30.08272 1.73111,-1.14459 1.26436,-2.58859 -0.65968,-2.58859 -65.50513,0 -131.00997,0 -196.5151,0 -1.92404,0 -2.39079,1.444 -0.65968,2.58859 20.22533,13.37333 35.00831,22.33285 52.50797,30.08272 7.1904,3.18441 13.84101,4.45361 18.73563,8.84013 4.39389,3.93778 5.66363,12.23443 4.09019,18.47172 -1.79645,7.12144 -4.62059,12.4207 -8.84014,15.96501 -5.22784,4.39121 -8.59232,2.2098 -15.56908,4.48611 -5.92992,1.93449 -11.09528,11.02501 -15.56907,17.90832 l 40.76511,0 c 0.88255,-10.18591 9.23374,-22.39443 22.79662,-22.39443 13.56288,0 21.91407,12.20852 22.79662,22.39443 z"
     style="fill:#ffffff;fill-rule:evenodd;stroke:#000000;stroke-width:1.08645344;stroke-linecap:butt;stroke-linejoin:miter;stroke-miterlimit:4;stroke-dasharray:none;stroke-opacity:1" /><path
     style="fill:#ffffff;fill-rule:evenodd;stroke:#000000;stroke-width:1.10178757;stroke-linecap:butt;stroke-linejoin:miter;stroke-miterlimit:4;stroke-dasharray:none;stroke-opacity:1"
     d="m 260.11665,420.69222 35.07871,0 c -3.84964,-5.92311 -8.29458,-13.74557 -13.39726,-15.41015 -6.0037,-1.95888 -8.89872,-0.0821 -13.39732,-3.8603 -3.63095,-3.05009 -6.06125,-7.60996 -7.60708,-13.73809 -1.3539,-5.3672 -0.26141,-12.50655 3.51973,-15.89506 4.21186,-3.77468 9.93469,-4.86676 16.12207,-7.60699 15.05858,-6.66871 27.77946,-14.37851 45.18357,-25.88642 1.48959,-0.98491 1.08796,-2.22743 -0.5677,-2.22743 -56.36767,0 -112.73507,0 -169.10274,0 -1.65566,0 -2.05729,1.24252 -0.5677,2.22743 17.40411,11.50791 30.12499,19.21771 45.18357,25.88642 6.18738,2.74023 11.91021,3.83231 16.12207,7.60699 3.78114,3.38851 4.87363,10.52786 3.51973,15.89506 -1.54583,6.12813 -3.97613,10.688 -7.60708,13.73809 -4.4986,3.77859 -7.39362,1.90142 -13.39732,3.8603 -5.10268,1.66458 -9.54762,9.48704 -13.39726,15.41015 l 35.07871,0 c 0.75948,-8.76509 7.94565,-19.27045 19.61665,-19.27045 11.671,0 18.85717,10.50536 19.61665,19.27045 z"
     id="path4595" /></svg>