<svg xmlns:dc="http://purl.org/dc/elements/1.1/" xmlns:cc="http://creativecommons.org/ns#" xmlns:rdf="http://www.w3.org/1999/02/22-rdf-syntax-ns#" xmlns:svg="http://www.w3.org/2000/svg" xmlns="http://www.w3.org/2000/svg" xml:space="preserve" enable-background="new 30.5 31.5 412 533" viewBox="30.5 31.5 400 500" height="500" width="400" y="0" x="0" version="1.1" id="svg2">
  <metadata id="metadata4">
    <rdf:RDF>
      <cc:Work rdf:about="">
        <dc:format>
          
          
          
          
          
          image/svg+xml
        
        
        
        
        
        </dc:format>
        <dc:type rdf:resource="http://purl.org/dc/dcmitype/StillImage"/>
      </cc:Work>
    </rdf:RDF>
  </metadata>
  <defs id="defs6"/>
  <path fill="#fff" d="M230.44 531.14C156.12 477.22 105.18 409.12 74.7 322.98 47.06 244.88 35.97 150.23 40.79 33.63l0.02-0.46 379.82 0 0.02 0.46c4.81 116.6-6.28 211.24-33.91 289.35C356.26 409.12 305.32 477.22 231 531.14l-0.28 0.2-0.28-0.2z" id="path8" style="fill-opacity:1;fill:#e00e00"/>
  <path id="path2849" d="m341.17 369.17-50.84 0 11.47 31.22c-2.64 1.29-9.19 1.17-12.19 0l-19.55-31.22-103 0-8.53 31.22c-2.7 1.01-12.13 0.97-14.45 0l4.34-31.22-19.77 0c-1.96-2.35-1.89-12.33 0.07-14.95l22.01 0 15.5-102.2-44.96-27.28c-0.33-4.61-2.75-8.09-5.71-10.29-3.65-2.73-8.65-3.79-14.42-2.12l-26.28-18.28c0.34-6.14 6.74-16.13 12.09-18.78l29.37 18.44c1.27 7.25 5.7 13.63 20.37 11.93l21.35 14.63-10.22-45.44c-22.82-1.68-35.78-32.94-12.46-50.27-1.15-11.22-1.83-20.57-8.17-23.16l-4.69-23.99c3.48-6.38 15.42-9.09 22.45-5.76l6.56 23.78c-4.94 7.57-2.55 15.19-0.12 24.6 29.13 2.46 35.28 36.91 13.9 50.87l15.53 60.84 35.8 23.75 6.09-8.38C191.08 222.55 181.79 189.86 181.46 164.33 180.71 106.48 228.02 59.13 287.81 59.35c42.59 0.16 80.57 28.14 95.41 65.51 13.55 34.12 8.75 75.09-16.07 105.19-11.04 13.39-26.26 25.44-47.06 32.9z" style="fill-opacity:1;fill:#fff;stroke:#000"/>
  <path d="M419.96 33.21C429.03 252.66 383.7 419.16 230.5 530.31 77.31 419.16 31.99 252.66 41.06 33.21l189.45 0 189.45 0m0.92-0.95-0.92 0-189.45 0-189.45 0-0.92 0-0.04 0.92c-4.82 116.66 6.28 211.36 33.93 289.52 30.51 86.24 81.51 154.41 155.91 208.39l0.56 0.41 0.56-0.41C305.46 477.11 356.46 408.94 386.97 322.7 414.62 244.54 425.72 149.84 420.9 33.18l-0.04-0.92 0 0z" id="path10"/>
  <path id="path2851" d="m193.17 266.94 14.5 8.88-18.88 37.4c1.16 3.51 8.63 7.59 11.51 6.8l25.29-32.54 36.8 66.74-92.25 0z" style="fill-opacity:1;fill:#e00e00;stroke:#000"/>
  <path id="path2853" d="m267.75 316.65 27.62 17.35c7.85-1.06 13.05-7.95 12.45-17.49l-67.27-46.53 5.65-9.44c18.88 9.18 44.51 9.66 56.39 6.63l18.06 87.04-37.06 0z" style="fill-opacity:1;fill:#e00e00;stroke:#000"/>
  <path d="m295.63 142.97c3.41-9.18 5.11-17.56 9.95-25.35 5.72-9.2 10.39-10.66 18.26-20.63-15.35-9.07-36.57-11.35-47.75-9.01 3.88 12.16 7.73 15.16 9.86 25.79 1.79 8.99 0.47 17.32 0.44 27.12 3.13 0.04 6.37 0.77 9.25 2.08z" id="path4542" style="fill-opacity:1;fill-rule:evenodd;fill:#e00e00;stroke:#000"/>
  <path id="path4546" d="m307.21 154.88c8.8-4.29 15.81-9.2 24.68-11.5 10.49-2.72 14.87-0.56 27.44-2.35-4.86-17.16-18.66-33.44-28.37-39.45-5.58 11.48-4.85 16.31-10.65 25.47-4.9 7.75-11.6 12.87-18.38 19.94 2.24 2.18 4.08 4.95 5.27 7.88z" style="fill-opacity:1;fill-rule:evenodd;fill:#e00e00;stroke:#000"/>
  <path d="m307.63 172.7c9.38 2.82 17.85 3.98 25.93 8.31 9.55 5.12 11.3 9.68 21.75 16.9 8.07-15.9 8.99-37.22 5.94-48.23-11.89 4.65-14.64 8.69-25.11 11.48-8.86 2.36-17.26 1.58-27.03 2.17 0.16 3.12-0.36 6.41-1.48 9.36z" id="path4548" style="fill-opacity:1;fill-rule:evenodd;fill:#e00e00;stroke:#000"/>
  <path id="path4550" d="m295.78 184.22c4.38 8.76 9.35 15.72 11.74 24.57 2.82 10.46 0.7 14.86 2.62 27.42 17.11-5.03 33.25-18.98 39.17-28.76-11.54-5.46-16.36-4.69-25.58-10.39-7.8-4.82-12.99-11.47-20.12-18.18-2.16 2.26-4.91 4.13-7.83 5.34z" style="fill-opacity:1;fill-rule:evenodd;fill:#e00e00;stroke:#000"/>
  <path d="m277.65 185.39c-2.87 9.36-4.07 17.83-8.45 25.88-5.17 9.52-9.75 11.25-17.02 21.66 15.85 8.16 37.17 9.19 48.2 6.2-4.58-11.91-8.61-14.68-11.35-25.17-2.32-8.87-1.49-17.27-2.03-27.04-3.12 0.15-6.4-0.39-9.35-1.53z" id="path4552" style="fill-opacity:1;fill-rule:evenodd;fill:#e00e00;stroke:#000"/>
  <path id="path4554" d="m264.83 173.12c-8.55 4.78-15.27 10.06-24 12.86-10.32 3.3-14.82 1.39-27.27 3.88 5.81 16.86 20.49 32.34 30.53 37.81 4.93-11.78 3.93-16.56 9.21-26.03 4.46-8.01 10.86-13.5 17.23-20.94-2.36-2.05-4.35-4.71-5.7-7.57z" style="fill-opacity:1;fill-rule:evenodd;fill:#e00e00;stroke:#000"/>
  <path d="m264.52 155.32c-9.38-2.8-17.86-3.95-25.94-8.27-9.56-5.11-11.31-9.67-21.78-16.86-8.05 15.91-8.93 37.23-5.86 48.24 11.88-4.67 14.62-8.71 25.09-11.52 8.85-2.38 17.26-1.61 27.03-2.22-0.17-3.12 0.35-6.41 1.47-9.37z" id="path4556" style="fill-opacity:1;fill-rule:evenodd;fill:#e00e00;stroke:#000"/>
  <path id="path4558" d="m277.37 142.53c-4.35-8.77-9.3-15.75-11.66-24.6-2.79-10.47-0.66-14.87-2.54-27.43-17.12 4.98-33.31 18.88-39.26 28.64 11.52 5.5 16.35 4.74 25.55 10.47 7.78 4.85 12.95 11.51 20.07 18.24 2.17-2.25 4.92-4.12 7.84-5.32z" style="fill-opacity:1;fill-rule:evenodd;fill:#e00e00;stroke:#000"/>
</svg>
