<?xml version="1.0" encoding="UTF-8" standalone="no"?>
<svg
   xmlns:dc="http://purl.org/dc/elements/1.1/"
   xmlns:cc="http://creativecommons.org/ns#"
   xmlns:rdf="http://www.w3.org/1999/02/22-rdf-syntax-ns#"
   xmlns:svg="http://www.w3.org/2000/svg"
   xmlns="http://www.w3.org/2000/svg"
   xml:space="preserve"
   enable-background="new 30.5 31.5 412 533"
   viewBox="30.5 31.5 420 500"
   height="500"
   width="420"
   y="0"
   x="0"
   version="1.1"
   id="svg2"><metadata
     id="metadata4"><rdf:RDF><cc:Work
         rdf:about=""><dc:format>
          
          
          
          
          image/svg+xml
        
        
        
        
        </dc:format><dc:type
           rdf:resource="http://purl.org/dc/dcmitype/StillImage" /><dc:title></dc:title></cc:Work></rdf:RDF></metadata><defs
     id="defs6" /><path
     style="fill:#0085ca;fill-opacity:1;fill-rule:evenodd"
     d="m 440,32.7 c 2.09,102.46 -3.38,187.49 -43.93,296.59 C 368.02,404.77 321.86,474.06 240.5,530.88 159.14,474.06 112.98,404.77 84.93,329.29 44.38,220.19 38.91,135.16 41,32.7 c 133,0.29 266,0 399,0 z"
     id="path4218" /><path
     id="path4442"
     d="m 190.5,490.44484 0,-208.94484 -17.5,-30 17.5,0 0,-106.70731 C 190.5,97.967273 173,81.5 149.30267,81.5 121.82821,81.5 98.33256,103.8851 98.12191,136.70245 97.97569,159.48198 110.27958,184 135.87864,184 c 26.39136,0 33.83042,-17.67768 33.88773,-31.4396 0.0219,-5.24591 -0.41958,-14.56502 -6.22505,-19.56627 -2.67113,-2.3011 -5.68679,-4.15349 -11.10638,-3.32011 -4.1445,0.63731 -4.38085,1.77119 -6.99858,3.62436 -1.90205,1.34652 -4.30881,2.07932 -5.72761,5.57132 -0.9493,2.33645 -1.79968,6.9896 0.25138,13.11217 -3.21935,0.43003 -7.60933,-2.68245 -8.99568,-6.91656 -1.48442,-4.53363 -0.68092,-7.93758 1.15705,-11.91547 -5.87834,-0.11842 -12.79056,-1.7555 -15.27139,-5.14567 -2.84603,-3.88924 -2.03105,-9.31481 0.8485,-11.82766 2.73507,6.39845 9.1032,7.68598 13.80927,8.1279 3.32204,0.31195 7.32712,-0.23984 9.06917,-1.90175 2.38745,-2.27763 8.29562,-2.55775 10.65443,-2.1526 5.74077,0.98604 12.58759,0.65751 12.39016,-3.5526 -0.24229,-5.16687 -0.18113,-8.19339 3.356,-10.5155 2.70346,-1.77481 6.13521,-1.30898 5.25775,1.34241 -1.10649,3.34345 -3.99919,7.80642 -2.90854,11.85789 0.86328,3.20685 0.73077,6.15027 2.79667,9.62056 4.45877,7.48984 5.53311,15.51754 6.04082,23.71578 C 179.23058,169.93558 170.5,196.5 136.77358,196.5 104.10365,196.5 83,167.38647 83,136.1623 83,96.490076 113.17082,66.5 148.63147,66.5 182.41733,66.5 210.5,85.296889 210.5,138.34522 l 0,113.15478 17.5,0 -17.5,30 0,226.50795"
     style="fill:#ffffff;fill-rule:evenodd;stroke:#000000;stroke-width:1px;stroke-linecap:round;stroke-linejoin:round;stroke-opacity:1" /><path
     style="fill:#ffffff;fill-rule:evenodd;stroke:#000000;stroke-width:1px;stroke-linecap:round;stroke-linejoin:round;stroke-opacity:1"
     d="m 290.5,490.44484 0,-208.94484 17.5,-30 -17.5,0 0,-106.70731 c 0,-46.825422 17.5,-63.292695 41.19733,-63.292695 27.47446,0 50.97011,22.385105 51.18077,55.202455 C 383.02432,159.48198 370.72042,184 345.12136,184 318.73,184 311.29094,166.32232 311.23363,152.5604 c -0.0219,-5.24591 0.41958,-14.56502 6.22505,-19.56627 2.67113,-2.3011 5.68679,-4.15349 11.10638,-3.32011 4.1445,0.63731 4.38085,1.77119 6.99858,3.62436 1.90205,1.34652 4.30881,2.07932 5.72761,5.57132 0.9493,2.33645 1.79968,6.9896 -0.25138,13.11217 3.21935,0.43003 7.60933,-2.68245 8.99568,-6.91656 1.48442,-4.53363 0.68092,-7.93758 -1.15705,-11.91547 5.87834,-0.11842 12.79056,-1.7555 15.27139,-5.14567 2.84603,-3.88924 2.03105,-9.31481 -0.8485,-11.82766 -2.73507,6.39845 -9.1032,7.68598 -13.80927,8.1279 -3.32204,0.31195 -7.32712,-0.23984 -9.06917,-1.90175 -2.38745,-2.27763 -8.29562,-2.55775 -10.65443,-2.1526 -5.74077,0.98604 -12.58759,0.65751 -12.39016,-3.5526 0.24229,-5.16687 0.18113,-8.19339 -3.356,-10.5155 -2.70346,-1.77481 -6.13521,-1.30898 -5.25775,1.34241 1.10649,3.34345 3.99919,7.80642 2.90854,11.85789 -0.86328,3.20685 -0.73077,6.15027 -2.79667,9.62056 -4.45877,7.48984 -5.53311,15.51754 -6.04082,23.71578 C 301.76942,169.93558 310.5,196.5 344.22642,196.5 376.89635,196.5 398,167.38647 398,136.1623 398,96.490071 367.82918,66.499995 332.36853,66.499995 298.58267,66.499995 270.5,85.296884 270.5,138.34522 l 0,113.15478 -17.5,0 17.5,30 0,226.50795"
     id="path4471" /><path
     style="fill:none;stroke:#000000"
     id="path4224"
     d="m 440,32.7 c 2.09,102.46 -3.38,187.49 -43.93,296.59 C 368.02,404.77 321.86,474.06 240.5,530.88 159.14,474.06 112.98,404.77 84.93,329.29 44.38,220.19 38.91,135.16 41,32.7 c 133,0.29 266,0 399,0 z" /></svg>