<?xml version="1.0" encoding="UTF-8" standalone="no"?>
<svg
   xmlns:dc="http://purl.org/dc/elements/1.1/"
   xmlns:cc="http://creativecommons.org/ns#"
   xmlns:rdf="http://www.w3.org/1999/02/22-rdf-syntax-ns#"
   xmlns:svg="http://www.w3.org/2000/svg"
   xmlns="http://www.w3.org/2000/svg"
   id="svg2"
   version="1.1"
   x="0"
   y="0"
   width="400"
   height="500"
   viewBox="30.5 31.5 400 500"
   enable-background="new 30.5 31.5 412 533"
   xml:space="preserve"><metadata
     id="metadata4"><rdf:RDF><cc:Work
         rdf:about=""><dc:format>
          
          
          
          
          
          
          
          
          image/svg+xml
        
        
        
        
        
        
        
        
        </dc:format><dc:type
           rdf:resource="http://purl.org/dc/dcmitype/StillImage" /><dc:title></dc:title></cc:Work></rdf:RDF></metadata><defs
     id="defs6" /><path
     style="fill:#ffffff"
     d="M 230.45,531.13 C 156.13,477.21 105.19,409.11 74.71,322.97 47.07,244.87 35.98,150.22 40.8,33.62 l 0.02,-0.46 379.82,0 0.02,0.46 c 4.81,116.6 -6.28,211.24 -33.91,289.35 -30.48,86.14 -81.42,154.24 -155.74,208.16 l -0.28,0.2 z"
     id="path4148" /><path
     style="fill:#000000;stroke:#000000;stroke-opacity:1;stroke-linejoin:round;stroke-linecap:round;stroke-width:0.5;stroke-miterlimit:4;stroke-dasharray:none"
     id="path4272"
     d="m 161.60051,469.40367 c 34.81954,-82.33957 -43.4177,-155.4044 18.50536,-243.63861 46.17255,-6.99507 86.41362,-39.03408 65.59331,-72.19013 -2.30053,-3.66359 -3.37714,7.63433 -4.14742,11.58781 -11.05216,-1.95691 13.22459,-2.78184 -65.66744,-88.518015 -3.39322,-3.705527 5.6277,-8.124218 -11.24405,-9.840443 17.45631,-21.004513 56.72658,30.199474 70.27567,28.739611 17.37347,-1.871928 14.62009,-15.049523 13.64038,-19.772851 -1.5728,-7.582721 -3.38504,-10.300276 -6.72802,-17.841551 13.41769,10.714718 19.54424,17.304306 21.84305,31.636564 2.32483,-1.665388 3.54243,-4.435626 3.41009,-8.552911 4.21332,4.211368 4.29416,11.99407 3.77878,17.749583 4.85399,-0.0307 12.13504,-0.06128 16.03667,5.150143 -5.01764,0.18661 -8.69152,1.10517 -10.78329,6.16177 11.25788,0.39522 16.20439,7.92794 20.1841,16.55401 -5.36733,-4.1858 -10.3834,-6.61904 -14.28555,-3.49474 5.44658,15.78424 15.57367,35.67609 14.20879,49.03379 -4.00827,39.22847 -72.53411,50.63372 -66.82369,93.66478 2.40267,18.10531 43.3702,64.62359 62.65155,211.43773 -26.25908,28.43109 -51.73087,46.75932 -61.47678,53.92875 -15.22938,-10.68749 -49.88659,-38.20584 -68.97151,-61.79529 z" /><path
     style="fill:#ffffff;stroke:#000000;stroke-opacity:1;stroke-linecap:round;stroke-linejoin:round;stroke-width:0.5;stroke-miterlimit:4;stroke-dasharray:none"
     id="path4274-4"
     d="m 232.97864,131.2751 c -2.26456,-3.98495 -3.79111,-9.58695 -0.64516,-8.75566 22.74276,6.00967 19.52613,-28.158144 -2.76494,-12.16575 -3.32643,2.38649 -0.94402,-10.67529 -0.37792,-15.366444 C 213.86188,88.50633 180.46114,48.887944 165.54179,66.566143 184.50136,65.166237 212.0082,101.92219 222.47184,114.68544 205.61659,96.724961 194.65636,81.586561 176.4685,70.322536 c 0,0 -1.18929,4.031761 0.44501,5.685307 14.70711,14.880234 29.92516,33.359997 46.12985,53.783367 3.59083,4.52564 9.93528,1.48389 9.93528,1.48389 z" /><path
     style="fill:#000000;fill-opacity:1;stroke:none"
     id="path4342"
     d="m 243.91491,114.65952 a 5.4675468,5.5872741 0 1 1 -10.93507,0 5.4675468,5.5872741 0 1 1 10.93507,0 z" /><path
     style="fill:#000000;stroke:#000000;stroke-opacity:1;stroke-linejoin:round;stroke-linecap:round;stroke-width:0.5;stroke-miterlimit:4;stroke-dasharray:none"
     id="path4272-8"
     d="m 83.842025,227.17598 c 46.172565,-7.01014 86.345545,-40.13573 65.525225,-73.36319 -2.30053,-3.67147 -3.37714,7.65079 -4.14741,11.61277 -11.05216,-1.96112 13.22458,-2.78781 -65.667448,-88.708643 -3.393222,-3.713506 5.6277,-8.141715 -11.244057,-9.861635 17.456327,-21.049748 56.726585,30.264513 70.275655,28.801505 17.37349,-1.875959 14.62011,-15.081933 13.6404,-19.815435 -1.57279,-7.599051 -3.38503,-10.32246 -6.72802,-17.879974 13.41769,10.737794 19.54425,17.341573 21.84305,31.704697 2.32484,-1.668973 3.54244,-4.445178 3.41009,-8.571328 4.21332,4.220435 4.29414,12.0199 3.77876,17.787808 4.85401,-0.03076 12.13506,-0.06141 16.03669,5.161235 -5.01764,0.18701 -8.69152,1.10754 -10.78329,6.17504 11.25789,0.39607 16.2044,7.94501 20.1841,16.58966 -5.36733,-4.19482 -10.3834,-6.63329 -14.28555,-3.50226 5.44657,15.81822 15.66978,35.77295 14.30493,49.1594 -4.00827,39.31296 -76.73629,52.42356 -70.77416,99.31399 2.80199,22.03688 50.87717,128.31626 26.3612,191.01034 C 97.855935,398.39501 67.959111,315.75138 57.377007,262.62865 62.195299,246.31023 74.016748,233.45622 83.842025,227.17598 Z" /><path
     style="fill:#ffffff;stroke:#000000;stroke-opacity:1;stroke-linejoin:round;stroke-linecap:round;stroke-width:0.5;stroke-miterlimit:4;stroke-dasharray:none"
     id="path4274-4-8"
     d="m 136.64671,131.2751 c -2.26456,-3.98495 -3.79111,-9.58695 -0.64516,-8.75566 22.74276,6.00967 19.52611,-28.158144 -2.76493,-12.16575 -3.32644,2.38649 -0.94403,-10.67529 -0.37793,-15.366444 C 117.52995,88.50633 84.129203,48.887944 69.209859,66.566143 88.16942,65.166237 115.67627,101.92219 126.13991,114.68544 109.28466,96.724961 98.32443,81.586561 80.136574,70.322536 c 0,0 -1.18929,4.031761 0.44501,5.685307 14.707119,14.880234 29.925156,33.359997 46.129856,53.783367 3.59082,4.52564 9.93527,1.48389 9.93527,1.48389 z" /><path
     style="fill:#000000;fill-opacity:1;stroke:none"
     id="path4342-2"
     d="m 147.58298,114.65952 a 5.4675468,5.5872741 0 1 1 -10.93507,0 5.4675468,5.5872741 0 1 1 10.93507,0 z" /><path
     style="fill:#000000;stroke:#000000;stroke-opacity:1;stroke-linejoin:round;stroke-linecap:round;stroke-width:0.5;stroke-miterlimit:4;stroke-dasharray:none"
     id="path4272-1"
     d="m 300.66075,468.18721 c -15.18523,-141.2864 -70.39119,-169.97397 -22.2003,-241.01123 48.38453,-9.22208 78.72602,-30.48732 65.62136,-73.36319 -1.26642,-4.14345 -3.37715,7.65079 -4.14743,11.61277 -11.05216,-1.96112 13.2246,-2.78781 -65.66742,-88.708643 -3.39324,-3.713506 5.62769,-8.141715 -11.24407,-9.861635 17.45633,-21.049748 56.7266,30.264513 70.27567,28.801505 17.37348,-1.875959 14.62009,-15.081933 13.6404,-19.815435 -1.5728,-7.599051 -3.38506,-10.32246 -6.72804,-17.879974 13.41768,10.737794 19.54424,17.341573 21.84306,31.704697 2.32484,-1.668973 3.54244,-4.445178 3.4101,-8.571328 4.21331,4.220435 4.29414,12.0199 3.77876,17.787808 4.854,-0.03076 12.13504,-0.06141 16.03666,5.161235 -5.01763,0.18701 -8.6915,1.10754 -10.78326,6.17504 11.25786,0.39607 16.20437,7.94501 20.18408,16.58966 -5.36734,-4.19482 -10.38339,-6.63329 -14.28553,-3.50226 5.44656,15.81822 15.57364,35.77295 14.20879,49.1594 -4.00827,39.31296 -59.18581,44.76732 -56.53009,86.46023 0.89961,14.12304 27.59514,23.1379 48.90478,61.41491 -18.15755,56.02915 -54.74362,115.43792 -86.31752,147.84644 z" /><path
     style="fill:#ffffff;stroke:#000000;stroke-opacity:1;stroke-linecap:round;stroke-linejoin:round;stroke-width:0.5;stroke-miterlimit:4;stroke-dasharray:none"
     id="path4274-4-1"
     d="m 331.36127,131.2751 c -2.26455,-3.98495 -3.79113,-9.58695 -0.64516,-8.75566 22.74274,6.00967 19.52611,-28.158144 -2.76495,-12.16575 -3.32641,2.38649 -0.94402,-10.67529 -0.37791,-15.366444 -15.32876,-6.480916 -48.7295,-46.099302 -63.64884,-28.421103 18.95957,-1.399906 46.46643,35.356047 56.93007,48.119297 C 303.99921,96.724961 293.039,81.586561 274.85114,70.322536 c 0,0 -1.18929,4.031761 0.445,5.685307 14.70712,14.880234 29.92514,33.359997 46.12986,53.783367 3.5908,4.52564 9.93527,1.48389 9.93527,1.48389 z" /><path
     style="fill:#000000;fill-opacity:1;stroke:none"
     id="path4342-5"
     d="m 342.29755,114.65952 a 5.46755,5.5872773 0 0 1 -10.9351,0 5.46755,5.5872773 0 1 1 10.9351,0 z" /><path
     id="path10"
     d="M 419.96,33.21 C 429.03,252.66 383.71,419.16 230.51,530.31 146.04,469.02 94.36,390.9 66.52,296.34 64.43,289.25 62.48,282.07 60.65,274.8 49.2,229.11 42.88,179.78 40.77,126.86 39.57,96.8 39.72,65.58 41.06,33.21 l 189.45,0 189.45,0 m 0.92,-0.95 -0.92,0 -189.45,0 -189.45,0 -0.92,0 -0.04,0.92 c -4.82,116.66 6.28,211.36 33.93,289.52 30.51,86.24 81.51,154.41 155.91,208.39 l 0.56,0.41 0.56,-0.41 C 305.46,477.11 356.46,408.94 386.97,322.7 414.62,244.54 425.72,149.84 420.9,33.18 l -0.04,-0.92 0,0 z" /></svg>