<svg xmlns:dc="http://purl.org/dc/elements/1.1/" xmlns:cc="http://creativecommons.org/ns#" xmlns:rdf="http://www.w3.org/1999/02/22-rdf-syntax-ns#" xmlns:svg="http://www.w3.org/2000/svg" xmlns="http://www.w3.org/2000/svg" id="svg2" version="1.1" x="0" y="0" width="400" height="500" viewBox="30.5 31.5 400 500" enable-background="new 30.5 31.5 412 533" xml:space="preserve">
  <metadata id="metadata4">
    <rdf:RDF>
      <cc:Work rdf:about="">
        <dc:format>
          
          
          
          
          image/svg+xml
        
        
        
        
        </dc:format>
        <dc:type rdf:resource="http://purl.org/dc/dcmitype/StillImage"/>
      </cc:Work>
    </rdf:RDF>
  </metadata>
  <defs id="defs6"/>
  <path id="path8" d="M230.56 531.14C304.88 477.22 355.82 409.12 386.3 322.98 413.94 244.88 425.03 150.23 420.21 33.63l-0.02-0.46-379.82 0-0.02 0.46c-4.81 116.6 6.28 211.24 33.91 289.35 30.48 86.14 81.42 154.24 155.74 208.16l0.28 0.2 0.28-0.2z" fill="#ffe000"/>
  <path id="path10" d="M41.04 33.21C31.97 252.66 77.3 419.16 230.5 530.31 383.69 419.16 429.01 252.66 419.94 33.21l-189.45 0-189.45 0m-0.92-0.95 0.92 0 189.45 0 189.45 0 0.92 0 0.04 0.92c4.82 116.66-6.28 211.36-33.93 289.52-30.51 86.24-81.51 154.41-155.91 208.39l-0.56 0.41-0.56-0.41C155.54 477.11 104.54 408.94 74.03 322.7 46.38 244.54 35.28 149.84 40.1 33.18l0.04-0.92 0 0z"/>
  <path id="path4274" d="m262.38 181.8-2.08-5.22c6.69 0.56 14.62-5.76 19.07-9.52l-3.58-3.39c4.33-2.78 9.12-9.19 11.31-14.29L280.63 145.22c4.6-2.82 8.14-8.02 10.56-13.32l-6.01-3.18c4.35-3.06 6.97-9.37 8.08-15.23l-6.01-1.85c2.58-3.26 4.32-7.93 4.62-12.48l-7.86 1.23c0.98-6.56 0.82-13.11-0.76-19.67-4.96 1.34-9.87 2.96-14.49 6.42l-3.85-6.1c-3.45 1.51-6.54 3.73-9.4 6.4l-5.13-6.74c-3.54 1.63-6.87 3.7-9.97 6.89l-4.78-5.22c-5.15 2.28-8.1 5.29-10.65 8.43l-6.26-4.16c-4.13 5.19-8.38 12.66-9.21 18.6l-4.69-4.12c-4.57 7.73-7.16 15.63-8.64 24.19l-3.03-3.1c-2.11 3.66-2.74 8.62-3.56 12.98-1.7-5.48-2.74-10.96-6.06-16.45l-4.72 3.82c0.22-4.97-0.45-9.96-3.72-14.99l-6.29 3.14c0.84-4.2-0.71-11.72-3.39-14.63l-6.78 2.93c-1.12-2.16-4.61-5.73-8.28-7.23l-4.2 4.46c-1.91-4.86-5.22-7.86-8.93-10.47l-4.47 4.77c-1.69-2.89-4.68-5.61-7.7-7.08l-5.39 5.7c-2.41-2.83-5.18-4.69-8.63-5.85l-3.23 6.47c-6.2-3.78-12.6-5.43-19.1-6.01-0.11 8.17 0.81 16.11 4.47 23.41l-7.86-0.46c-0.48 4.7 0.24 9.49 3.54 14.48l-3.54 0.46c-0.01 5.42 2.76 9.54 7.7 12.63l-6.09 5.38c1.41 1.49 3.37 3.8 5.63 5.25l-4.31 11.24c3.3 2.13 7.07 3.49 11.24 4.16l-3.85 7.55c3.93 1.99 9.11 3.62 14.17 4.16l-2.46 8.78c7.02 2.7 13.84 1.89 20.33 1.39l-5.11 6.42c6.07 3.06 12.52 5.6 19.43 6.98-8.31 2.13-17.71 5.85-24.04 10.85l2.78 6.71c-4.68 0.87-8.06 3.57-11.31 6.45l3.67 4.75c-5.57 2.12-10.14 6.06-12.75 9.99l5.92 4.92c-4.55 2.53-8.03 8.2-9.32 11.7l6.55 3.93c-3.77 3.5-6.06 9.16-6.38 12.39l6.04 3.11c-4.42 7.05-5.7 12.86-6.12 17.46 0.02 0 8.47 0.77 8.47 0.77-2.47 3.8-3.93 8.1-4 16.33 7.65-0.21 13.12-3.33 16.63-6.01l4.27 6.75c3.46-1.3 5.74-4.59 8.05-6.75l7.86 7.24c4.06-2.98 6.42-6.63 9.09-10.17l8.01 6.93c3.91-3.14 6.45-7.09 8.93-11.09l5.54 5.54c3.83-5.64 6.05-11.81 8.16-18.02 2.26 1.9 4.63 3.69 8.32 4.16 2.24-6.45 3.19-13.12 3.7-19.87 2.36 0.91 4.72 1.35 7.08 1.39 1.38-5.38 2.12-12.84 1.23-19.1 1.84 1.34 3.9 2.12 6.31 2 1.87-12.53-0.35-25.05-2.77-37.58 8.87 8.65 18.33 14.68 32.03 15.24 14.02 0.57 28.57-5.57 39.74-25.25 7.57-13.33 14.74-30.55 34.44-41.16 16.61-8.94 32.65-17.41 49.35-19.83-8.69 10.34-30.02 18.44-49.74 27.88-16.6 7.94-25.07 28.5-34.82 47.13-8.96 17.12-19.79 24.62-32.19 32.34-18 11.21-31.9 20.7-46.82 36.04-11.08 11.39-14.14 26.12-14.63 39.68-2.99-1.99-4.58-4.98-5.3-8.3-4.02 1.92-6.62 4.56-6.57 8.52-2.12-1.08-4.37-2.64-6.57-5.73-2.86 4.6-3.79 10.08-2.06 15.12-11.47 7.5-14.04 18.52-13.6 26.69 0.66 12.29 2.2 24.66 6.8 33.64 6.56 12.81 16.11 26.77 29.13 27.77 14.85 1.14 33.21-20.23 39.12-33.27 5.36-11.83 4.48-21.83 4.73-33.81 0.21-10.02-7.14-15.24-12.74-19.94 0.61-4.21-0.52-14.12-3.85-17.4-1.26 2.07-3.49 6.41-5.63 7.55 0.28-2.41-0.9-5.7-3.32-7.79-1.22 2.83-4.71 5.21-7.38 7.17-2.33-13.89 3.35-24.82 10.02-32.96 13.82-16.9 35.93-29.27 56.38-41.59l0.15 17.02c-1.3-0.52-4.96-3.69-6.16-5.18-2.59 2.64-3.16 5.28-3.45 7.92-1.77-1.03-4.51-2.99-6.12-4.81-4.57 4.53-4.85 9.86-3.53 14.17-9.56 0.84-20.07 10.99-16.35 37.38 1.97 14.01 9.4 23.43 14.66 36.55 5.05 12.6 33.21 20.99 44.36 5.85 9.57-13 17.66-28.55 21.72-50.36 1.5-8.07 2.45-23.69-11.71-30.96 0.71-5.19 0.91-10.37-3.54-15.56-1.3 2.49-4.13 5.3-6.5 6.64 0.13-3.08-0.64-6.16-3.12-9.24-2.42 3.12-5.77 5.73-9.64 7.98l-0.31-21.87 27.11-50.67c7.87-17.28 22.62-21.91 34.04-25.72 0.98 4.5 1.34 9.62 0.57 14.12-3-1.53-5.19-4.17-7.04-6-1.9 2.84-3.26 5.7-3.32 8.58-2.75-1.24-5.34-2.94-7.51-5.92-3.69 3.84-5.93 9.99-5.25 15.4-8.52 4.62-12.38 15.79-12.27 27.57 0.13 14.13 6.52 32.94 15.4 49.13 8.02 14.61 32.53 11.66 38.2 2.9 10.96-16.92 20.65-33.71 21.61-56.33 0.31-7.26-0.98-15.04-8.83-22.04 2.32-5.34 2.8-10.68 0.46-16.02-2.39 2.08-4.01 4.68-8.01 5.7 1.26-3.13 0.99-6.26-1.54-9.4-2.56 2.74-6.3 4.55-10.01 5.85 0.06-5.85-1.04-10.16-1.85-16.01 12.69-6.53 24.9-15.56 32.2-26.19 10.25-14.92 7.42-31.91 9.86-47.9l-15.56 1.23c0.43 13.98-4.78 27.82-16.84 33.59-36.67 17.53-60.25 27.2-76.78 53.64-13.16 21.05-19.7 33.06-34.22 34.6-15.3 1.62-24.59-7.08-27.11-16.02 11.4 3.05 29.26-0.58 36.74-5.03l-1.02-5.81c3.7 0.37 10.32-1.97 14.42-5.1z" style="fill-rule:evenodd;fill:#e00e00;stroke:#000"/>
</svg>
