<?xml version="1.0" encoding="UTF-8" standalone="no"?>
<svg
   xmlns:dc="http://purl.org/dc/elements/1.1/"
   xmlns:cc="http://creativecommons.org/ns#"
   xmlns:rdf="http://www.w3.org/1999/02/22-rdf-syntax-ns#"
   xmlns:svg="http://www.w3.org/2000/svg"
   xmlns="http://www.w3.org/2000/svg"
   version="1.1"
   id="svg2"
   viewBox="0 0 520.00001 499.99998"
   height="500"
   width="520">
  <defs
     id="defs4" />
  <metadata
     id="metadata7">
    <rdf:RDF>
      <cc:Work
         rdf:about="">
        <dc:format>image/svg+xml</dc:format>
        <dc:type
           rdf:resource="http://purl.org/dc/dcmitype/StillImage" />
        <dc:title></dc:title>
      </cc:Work>
    </rdf:RDF>
  </metadata>
  <g
     transform="translate(0,-552.36224)"
     id="layer1">
    <path
       id="path4213"
       d="M 65,553.86222 C 26.09776,605.80082 1.30902,669.65628 2,737.09976 c 0.86108,84.04577 34.4843,143.38402 63,176.98182 58.68366,69.14234 126.84126,108.23612 195,136.78062 68.15873,-28.5445 136.31633,-67.63826 194.99999,-136.7806 28.5157,-33.5978 62.13892,-92.93605 63,-176.98182 0.69098,-67.44348 -24.09776,-131.29894 -63,-183.23754 -130,-1e-5 -259.99999,-1e-5 -389.99999,-2e-5 z"
       style="fill:#0085ca;fill-opacity:1;fill-rule:evenodd;stroke:#000000;stroke-width:1px;stroke-linecap:butt;stroke-linejoin:miter;stroke-opacity:1" />
    <path
       id="path4245"
       d="m 317.5731,572.35218 c 24.3232,0.27458 39.68777,8.47413 50.8324,26.36625 22.55058,-24.81148 57.29236,-29.82727 86.5945,-8.1644 27.78477,20.5411 35.40516,59.74394 10.08794,91.72662 24.87007,12.31431 35.62619,36.29349 33.99562,61.5777 -1.52958,23.7183 -12.5378,40.67094 -34.79083,50.33357 12.44388,17.75719 14.5714,45.76166 2.65045,66.43906 -15.20579,26.37508 -37.85355,32.41799 -58.53752,32.54578 4.7978,31.45995 -6.38886,54.49075 -25.92095,66.76621 -17.52662,11.01508 -39.72355,12.43339 -59.31229,6.41636 -4.53586,30.63157 -30.5362,52.33577 -63.17242,52.33577 -32.63622,0 -58.63656,-21.7042 -63.17242,-52.33577 -19.58874,6.01703 -41.78567,4.59872 -59.31229,-6.41636 C 117.9832,947.66751 106.79654,924.63671 111.59434,893.17676 90.91037,893.04897 68.26261,887.00606 53.05682,860.63098 41.13587,839.95358 43.26339,811.94911 55.70727,794.19192 33.45424,784.52929 22.44602,767.57665 20.91643,743.85835 19.28587,718.57414 30.04199,694.59496 54.91206,682.28065 29.59483,650.29797 37.21523,611.09513 65,590.55403 c 29.30213,-21.66287 64.04392,-16.64708 86.5945,8.1644 11.14463,-17.89212 26.5092,-26.09167 50.8324,-26.36625 28.56529,-0.32247 49.97081,17.77513 57.5731,36.94325 7.60229,-19.16812 29.00781,-37.26572 57.5731,-36.94325 z"
       style="fill:#ffffff;fill-rule:evenodd;stroke:#000000;stroke-width:1;stroke-linecap:butt;stroke-linejoin:miter;stroke-miterlimit:4;stroke-dasharray:none;stroke-opacity:1" />
    <path
       id="path4237"
       d="m 204.81118,596.84467 c -32.26646,-0.22365 -44.66246,21.88973 -51.20279,38.08988 -13.85412,-28.13403 -48.69063,-47.94601 -77.11641,-27.16246 -25.45207,18.60932 -20.67623,56.93496 8.74194,80.55074 -20.85834,7.50529 -44.94172,24.14201 -43.39749,54.32492 1.15912,22.65555 20.06839,35.63264 42.46086,43.39749 -12.90532,13.8954 -24.60553,32.09549 -16.23504,57.75926 11.0619,33.91556 46.50103,33.91262 67.75005,28.4113 -10.75565,19.07968 -13.15323,50.46845 4.68318,65.56456 22.17638,18.76931 49.40121,16.6773 71.1163,-0.31222 0,30.25286 12.20027,60.56916 48.38822,60.56916 36.18795,0 48.38822,-30.3163 48.38822,-60.56916 21.71509,16.98952 48.93992,19.08153 71.1163,0.31222 17.83641,-15.09611 15.43883,-46.48488 4.68318,-65.56456 21.24902,5.50132 56.68815,5.50426 67.75004,-28.4113 8.37049,-25.66377 -3.32971,-43.86386 -16.23503,-57.75926 22.39247,-7.76485 41.30174,-20.74194 42.46086,-43.39749 1.54423,-30.18291 -22.53915,-46.81963 -43.3975,-54.32492 29.41817,-23.61578 34.19402,-61.94142 8.74194,-80.55074 -28.42577,-20.78355 -63.26228,-0.97157 -77.1164,27.16246 -6.54033,-16.20015 -18.93633,-38.31353 -51.20279,-38.08988 -27.3049,0.18926 -46.08478,21.30038 -55.18882,45.89519 -9.10404,-24.59481 -27.88392,-45.70593 -55.18882,-45.89519 z"
       style="fill:#0085ca;fill-opacity:1;fill-rule:evenodd;stroke:#000000;stroke-width:1px;stroke-linecap:butt;stroke-linejoin:miter;stroke-opacity:1" />
    <path
       style="fill:#ffffff;fill-rule:evenodd;stroke:#000000;stroke-width:1px;stroke-linecap:butt;stroke-linejoin:miter;stroke-opacity:1"
       d="m 347.18235,839.01236 c 23.17013,-25.79188 43.25482,-54.58673 42.14855,-88.64229 -1.35169,-41.61065 -31.41285,-71.86061 -59.52939,-78.64832 -31.62233,-7.63406 -60.10358,18.47181 -63.00556,37.36882 -2.44052,15.89207 -1.95126,32.48633 -1.0863,39.54141 0.75275,6.13986 4.54935,8.08118 6.83059,8.2559 10.13883,-0.015 13.90203,-7.49849 23.46414,-7.1696 5.47447,0.1883 12.38384,4.40621 12.38384,11.94933 0,7.54312 -6.90937,11.76103 -12.38384,11.94933 -9.56211,0.32889 -13.32928,-6.88539 -23.46414,-7.1696 -5.20249,-0.14589 -9.49899,1.24921 -7.93001,7.27824 2.212,8.49992 8.38356,12.84925 8.47316,21.61741 0.0768,7.51816 -3.43752,15.96865 -13.08339,15.96865 -9.64587,0 -13.16022,-8.45049 -13.08339,-15.96865 0.0896,-8.76816 6.26116,-13.11749 8.47316,-21.61741 1.56898,-6.02903 -2.72752,-7.42413 -7.93001,-7.27824 -10.13486,0.28421 -13.90203,7.49849 -23.46414,7.1696 -5.47447,-0.1883 -12.38384,-4.40621 -12.38384,-11.94933 0,-7.54312 6.90937,-11.76103 12.38384,-11.94933 9.56211,-0.32889 13.32531,7.15456 23.46414,7.1696 2.28124,-0.17472 6.07784,-2.11604 6.83059,-8.2559 0.86496,-7.05508 1.35422,-23.64934 -1.0863,-39.54141 -2.90198,-18.89701 -31.38323,-45.00288 -63.00556,-37.36882 -28.11654,6.78771 -58.1777,37.03767 -59.52939,78.64832 -1.10627,34.05556 18.97842,62.85041 42.14855,88.64229 27.17583,27.04229 56.53576,48.26029 87.18235,66.04722 30.64659,-17.78693 60.00652,-39.00493 87.18235,-66.04722 z"
       id="path4235" />
  </g>
</svg>
