<?xml version="1.0" encoding="UTF-8" standalone="no"?>
<!-- Created with Inkscape (http://www.inkscape.org/) -->

<svg
   xmlns:dc="http://purl.org/dc/elements/1.1/"
   xmlns:cc="http://creativecommons.org/ns#"
   xmlns:rdf="http://www.w3.org/1999/02/22-rdf-syntax-ns#"
   xmlns:svg="http://www.w3.org/2000/svg"
   xmlns="http://www.w3.org/2000/svg"
   version="1.1"
   width="390"
   height="480"
   id="svg4228">
  <metadata
     id="metadata16">
    <rdf:RDF>
      <cc:Work
         rdf:about="">
        <dc:format>image/svg+xml</dc:format>
        <dc:type
           rdf:resource="http://purl.org/dc/dcmitype/StillImage" />
        <dc:title></dc:title>
      </cc:Work>
    </rdf:RDF>
  </metadata>
  <defs
     id="defs4232" />
  <path
     d="M 0.00351796,0.00350638 390.01124,-0.03065059 C 389.99631,270.00335 389.99205,273.98676 389.99209,273.99895 390.99231,548.63218 0.01014203,548.63782 0.0068261,273.99819 L 0.00351796,0.00350638 z"
     id="path2902"
     style="fill:#000000;fill-opacity:1;stroke:none" />
  <path
     d="m 107.86017,357.9661 c 15.40293,-13.13312 14.07715,1.09388 11.18644,5.02119 -2.18472,2.96815 -2.59334,4.91894 -2.54237,6.80085 6.97586,1.17794 10.54255,3.44061 13.85593,5.78389 -4.15899,5.96831 -12.10948,8.71413 -21.99153,4.32204 l -2.35169,6.16525 c 21.19748,9.12452 10.30783,31.24777 -8.326272,33.75 1.898041,-3.22782 3.361712,-6.56423 3.241522,-10.29661 -2.576506,-1.79355 -5.369599,-3.65621 -0.953386,-11.37712 -0.931868,-2.83648 -1.598426,-5.37211 -4.894068,-5.21186 -10.286774,0.50018 -12.791011,10.56053 -12.012712,15 -2.161253,0.0161 -3.344066,-0.7017 -4.894068,-1.14407 -3.975322,0.932 -4.614927,5.0035 -5.847457,8.51695 -3.555984,-4.51575 -6.4542,-9.65693 -4.258475,-16.77966 -5.744669,0.25354 -7.342594,-6.78538 1.334746,-9.40678 3.51231,-1.06106 15.567594,5.80835 12.20339,-2.28813 -3.814581,-9.18039 -14.133531,-3.46003 -18.432203,-2.86018 -2.739208,0.38224 -4.008014,-2.70451 -4.131357,-5.78389 l -9.915254,3.68644 c 0.385723,-6.39158 3.076404,-10.7579 7.690678,-14.42797 1.931604,-1.53635 -0.454839,-4.17935 -2.733051,-5.08474 2.786338,-2.75425 10.087049,-4.87132 14.11017,-4.3856 11.029495,1.33162 11.360657,16.35184 19.004237,17.41526 4.55854,0.63421 11.899367,-9.94836 20.65678,-17.41526 z"
     id="path2859"
     style="fill:#f9423a;fill-opacity:1;stroke:none" />
  <path
     d="m 240.38229,355.53994 c 0.92715,4.16879 3.24246,11.17146 7.16501,11.29301 3.88673,0.12044 8.52631,-5.30835 12.40433,-7.86506 1.24383,8.03309 -5.3812,19.09418 -10.6066,21.16826 1.10307,3.09479 3.62218,5.41169 7.77518,5.9325 6.67299,0.83683 9.25967,-4.94148 15.50541,-4.22466 11.79091,1.35323 18.53823,14.43802 13.21331,19.68513 0.988,3.86212 -0.40282,16.58282 -4.62915,19.50537 -0.60379,-6.38783 -0.0348,-12.02008 -3.50557,-13.6178 -2.32681,1.59468 -4.67921,2.00825 -6.337,1.52807 -5.71449,-1.65521 -9.1761,-12.85361 -16.13462,-10.83132 -12.10813,3.51886 3.86141,14.97579 2.15727,22.20195 -0.80111,3.39701 -4.9029,4.87294 -7.32575,4.94376 -1.82605,2.42342 -0.84722,8.23838 -0.13478,12.85376 -4.95891,-1.26221 -10.89038,-7.12239 -11.14592,-13.84251 -4.94148,2.10086 -7.54783,-0.45897 -7.91001,-5.79768 -0.28249,-4.16412 6.19998,-7.99443 6.78643,-11.01109 1.40925,-7.24917 -11.19355,-1.82587 -10.74143,1.07864 1.30788,8.40206 -1.53924,11.32949 -7.77518,12.08973 -2.59968,4.02991 -1.7308,8.41936 -0.3146,12.62904 -6.97548,-2.89831 -8.00569,-11.52501 -6.78643,-15.28069 -8.19034,-8.44372 -4.15566,-24.20909 7.01114,-26.921 5.83448,-1.41693 11.87215,-0.3571 17.39303,0.62921 1.38759,-5.82986 -0.3449,-22.87652 -6.39335,-31.71834 -6.60669,-9.65786 8.99242,-10.43932 10.32928,-4.42828 z"
     id="path2861"
     style="fill:#f9423a;fill-opacity:1;stroke:none" />
  <path
     d="M 77.033899,80.720338 C 77.410319,64.957877 93.517893,58.86985 105.88983,58.98305 c 22.38618,0.204828 52.19021,32.290363 57.9661,41.31356 14.16992,22.1365 -1.23585,90.87933 10.55085,117.07627 4.71932,10.48908 38.56549,17.1542 38.13559,-6.86441 -0.44749,-25.0014 -13.56119,-54.56135 -12.20339,-82.62711 1.65682,-34.246474 57.87585,-77.077882 87.96611,-75.762717 32.8944,1.437727 53.62132,20.480392 77.95551,34.290254 5.74154,3.258377 8.27596,30.559773 5.49788,28.633473 -29.23952,-20.274473 -53.7071,-44.19877 -84.21611,-44.110168 -2.67078,0.0078 -2.53749,3.051799 0.12712,3.050848 24.63805,-0.0088 49.31887,21.253721 67.5,38.13559 4.48488,4.16439 10.03414,30.80597 7.88136,28.72882 -15.67797,-15.12712 -32.06168,-31.69811 -48.55932,-43.093224 -16.90678,-5.506513 -35.84746,-7.908372 -50.72034,-7.627118 -9.23267,8.640985 -27.72016,22.764042 -35.72034,27.330512 0.17613,30.28322 -4.30266,60.04302 -7.11865,90 -0.26688,2.83912 3.01079,3.02282 3.30509,0.63559 3.73533,-30.29933 5.88109,-62.64438 11.5678,-90.76271 13.65315,-12.5815 29.69586,-19.168702 48.4322,-18.813562 10.66638,0.202177 20.92681,3.342852 31.27119,5.847462 16.96464,12.92738 35.19968,30.15779 51.35593,48.30508 3.11621,3.50024 -0.71532,9.7857 -2.92373,7.62712 -16.60104,-16.22652 -30.16632,-31.98474 -51.61017,-34.44915 31.84783,18.93312 54.38297,59.17614 54.78813,79.06779 -30.08137,-31.6149 -59.48824,-66.86876 -81.61016,-66.61017 -20.12148,0.23521 -26.09962,21.72503 -31.40057,43.56659 -4.88018,20.10786 -9.23749,40.68297 -10.80283,44.90799 -0.6532,1.76306 1.60213,2.37862 2.16102,1.01695 2.9049,-7.07741 8.08795,-46.41919 20.7233,-70.02232 4.46861,-8.34746 13.08494,-14.06872 21.86145,-14.0031 14.38344,0.10754 34.91488,20.12941 31.14407,29.87288 10.48479,7.76295 19.86376,15.69023 31.27119,28.60169 2.38728,2.70205 10.98683,43.36794 10.55084,53.00848 -0.84024,18.57946 -17.39831,28.19353 -4.19492,49.83051 -23.94719,2.53995 -14.57715,-60.8457 -21.8644,-91.27119 l -36.22882,-19.32204 -32.66949,50.21187 c -1.30987,2.01323 2.15034,3.10499 2.92373,1.90678 l 27.07627,-41.94915 c 8.80663,2.62509 22.19896,13.99054 25.67797,23.00847 -2.03058,26.64284 18.04982,57.20027 0.25424,71.94915 0.0156,-16.38644 -10.99207,-58.49049 -18.30509,-61.14406 -6.23711,22.56761 -24.06232,64.02593 -54.15254,80.33898 8.48723,25.44641 -6.64174,36.84292 -19.81773,40.64206 l -25.56363,-26.40477 c -15.63622,2.46267 -30.44556,2.18785 -45.12712,-2.41526 -3.30976,8.77164 -21.02398,45.052 -50.50333,26.82204 l 10.84232,-40.04238 C 96.175563,308.86156 73.380101,264.33337 70.29661,218.64407 l -5.847457,6.99152 c 1.616991,-27.4918 11.257321,-53.97071 23.008474,-76.3983 2.706619,-5.1657 25.243833,-11.34277 24.025423,-25.80509 -0.44054,-5.22908 -2.36423,-16.76488 -5.84746,-17.41525 C 87.369348,102.60636 76.748432,92.801291 77.033899,80.720338 z"
     id="path2827"
     style="fill:#ffffff;fill-opacity:1;stroke:none" />
  <path
     d="m 81.347242,100.36456 c -10.29533,-1.634205 -22.775589,-2.053465 -27.235596,-8.808877 3.974935,-3.620058 12.480486,-3.283921 18.921099,-3.280856 0.86991,4.14e-4 -10.019157,-7.461409 -11.550409,-6.471825 l -13.213309,8.539213 c 1.405837,-17.783089 8.481894,-18.31309 29.866371,-21.44563 -11.820069,23.190705 13.003416,33.666715 13.279127,38.613945 0.700875,12.57616 -6.087352,26.61053 -14.381833,23.64014 -7.215774,-2.58409 -4.228873,-20.50919 4.31455,-30.78611 z"
     id="path2851"
     style="fill:#f9423a;fill-opacity:1;stroke:none" />
  <path
     d="m 95.987829,57.511849 c 31.367141,-7.717307 52.475341,29.573078 72.549271,30.223659 2.36969,0.0768 3.6012,-16.260205 1.16853,-17.797518 l -12.94365,-8.179667 c 6.85872,-18.817628 28.03133,-6.363166 41.97697,-12.224558 6.60456,-2.775914 -24.25171,-22.896948 -27.95468,-21.752522 -7.32646,2.264289 -16.29677,9.460103 -24.71878,15.011038 l 2.78648,-15.999789 c 5.10003,0.345877 10.60154,1.437352 14.11217,-1.168524 -2.12844,-4.342532 -12.86725,-8.436902 -18.33683,-8.718986 -8.93065,-0.460583 -19.55072,12.635316 -28.40412,22.381727 -2.49645,-6.402307 -5.74518,-12.052334 -10.15717,-16.539108 -11.596258,2.902502 -13.115586,23.841833 -10.078191,34.764248 z"
     id="path2853"
     style="fill:#f9423a;fill-opacity:1;stroke:none" />
  <path
     d="M 93.24676,58.186933 C 87.745739,59.745464 82.511347,63.532039 79.089643,67.75984 74.640263,59.759946 70.603748,48.861089 69.606622,37.827651 73.83731,36.433899 79.458989,38.898608 82.325556,42.411859 85.67955,46.5225 89.81072,52.506951 93.24676,58.186933 z"
     id="path2855"
     style="fill:#f9423a;fill-opacity:1;stroke:none" />
  <path
     d="m 93.241526,104.80932 c -0.237814,-1.60802 9.772814,1.84046 9.947034,3.5911 0.66002,6.63238 1.36932,14.2228 -2.06568,20.75212 -1.873007,3.56024 -15.757206,5.62113 -13.855931,1.58898 3.651314,-7.74356 7.584446,-15.04679 5.974577,-25.9322 z"
     id="path2857"
     style="fill:#f9423a;fill-opacity:1;stroke:none" />
  <path
     d="m 127.09945,79.8255 a 22.831161,17.977292 0 1 1 -45.662322,0 22.831161,17.977292 0 1 1 45.662322,0 z"
     transform="matrix(1.0121996,0,0,0.97049355,-2.2607874,2.8946856)"
     id="path2863"
     style="fill:none;stroke:#000000;stroke-width:2.01790428;stroke-linecap:round;stroke-linejoin:round;stroke-miterlimit:4;stroke-opacity:1;stroke-dasharray:none" />
  <path
     d="m 127.09945,79.8255 a 22.831161,17.977292 0 1 1 -45.662322,0 22.831161,17.977292 0 1 1 45.662322,0 z"
     transform="matrix(0.2530499,0,0,0.24262339,67.995699,59.918649)"
     id="path2863-7"
     style="fill:none;stroke:#000000;stroke-width:8.07161713;stroke-linecap:round;stroke-linejoin:round;stroke-miterlimit:4;stroke-opacity:1;stroke-dasharray:none" />
</svg>
