<svg xmlns:dc="http://purl.org/dc/elements/1.1/" xmlns:cc="http://creativecommons.org/ns#" xmlns:rdf="http://www.w3.org/1999/02/22-rdf-syntax-ns#" xmlns:svg="http://www.w3.org/2000/svg" xmlns="http://www.w3.org/2000/svg" xml:space="preserve" enable-background="new 30.5 31.5 412 533" viewBox="30.5 31.5 400 500" height="500" width="400" y="0" x="0" version="1.1" id="svg2">
  <metadata id="metadata4">
    <rdf:RDF>
      <cc:Work rdf:about="">
        <dc:format>
          
          
          
          image/svg+xml
        
        
        
        </dc:format>
        <dc:type rdf:resource="http://purl.org/dc/dcmitype/StillImage"/>
      </cc:Work>
    </rdf:RDF>
  </metadata>
  <defs id="defs6"/>
  <path d="M230.44 531.14C156.12 477.22 105.18 409.12 74.7 322.98 47.06 244.88 35.97 150.23 40.79 33.63l0.02-0.46 379.82 0 0.02 0.46c4.81 116.6-6.28 211.24-33.91 289.35C356.26 409.12 305.32 477.22 231 531.14l-0.28 0.2-0.28-0.2z" id="path8" fill="#0085ca"/>
  <path id="path4382" d="M230.5 530.87C165.08 483.09 119.47 427.11 88.2 356.92c-1.64-59.79 21.14-98.66 87.84-148.36 27.48-20.48 75.23-43.72 68.26-108.55-1.04-9.67-6.92-19.35-15.08-22.12-7.61-2.58-16.7 1.4-19.65 10.39 8.85-0.77 15.74 2.98 15.64 11.13-0.12 9.57-9.9 19.43-21.95 19.24-12.58-0.19-25.05-13.74-24.66-35.48 0.38-20.99 19.82-41.05 47.21-41.65 36.46-0.8 67.64 35.31 67.81 83.74 0.21 60.16-44.82 122.18-43.9 162.77 0.7 30.98 22.24 59.02 67.66 64.35 20.36 2.39 45.03-1.76 61.2-8.91C347.06 422.58 293.63 485.3 230.5 530.87Z" style="fill-rule:evenodd;fill:#ffe000"/>
  <path d="m88.2 356.92c-1.64-59.79 21.14-98.66 87.84-148.36 27.48-20.48 75.23-43.72 68.26-108.55-1.04-9.67-6.92-19.35-15.08-22.12-7.61-2.58-16.7 1.4-19.65 10.39 8.85-0.77 15.74 2.98 15.64 11.13-0.12 9.57-9.9 19.43-21.95 19.24-12.58-0.19-25.05-13.74-24.66-35.48 0.38-20.99 19.82-41.05 47.21-41.65 36.46-0.8 67.64 35.31 67.81 83.74 0.21 60.16-44.82 122.18-43.9 162.77 0.7 30.98 22.24 59.02 67.66 64.35 20.36 2.39 45.03-1.76 61.2-8.91" id="path4390" style="fill:none;stroke:#000"/>
  <path d="M419.96 33.21C429.03 252.66 383.7 419.16 230.5 530.31 77.31 419.16 31.99 252.66 41.06 33.21l189.45 0 189.45 0m0.92-0.95-0.92 0-189.45 0-189.45 0-0.92 0-0.04 0.92c-4.82 116.66 6.28 211.36 33.93 289.52 30.51 86.24 81.51 154.41 155.91 208.39l0.56 0.41 0.56-0.41C305.46 477.11 356.46 408.94 386.97 322.7 414.62 244.54 425.72 149.84 420.9 33.18l-0.04-0.92 0 0z" id="path10"/>
</svg>
