<?xml version="1.0" encoding="UTF-8" standalone="no"?>
<svg
   xmlns:dc="http://purl.org/dc/elements/1.1/"
   xmlns:cc="http://creativecommons.org/ns#"
   xmlns:rdf="http://www.w3.org/1999/02/22-rdf-syntax-ns#"
   xmlns:svg="http://www.w3.org/2000/svg"
   xmlns="http://www.w3.org/2000/svg"
   id="svg2"
   version="1.1"
   x="0"
   y="0"
   width="400"
   height="500"
   viewBox="30.5 31.5 400 500"
   enable-background="new 30.5 31.5 412 533"
   xml:space="preserve"><metadata
     id="metadata4"><rdf:RDF><cc:Work
         rdf:about=""><dc:format>
          
          
          
          
          
          
          
          
          image/svg+xml
        
        
        
        
        
        
        
        
        </dc:format><dc:type
           rdf:resource="http://purl.org/dc/dcmitype/StillImage" /><dc:title></dc:title></cc:Work></rdf:RDF></metadata><defs
     id="defs6" /><path
     style="fill:#0085ca"
     d="M 230.55,531.13 C 304.87,477.21 355.81,409.11 386.29,322.97 413.93,244.87 425.02,150.22 420.2,33.62 l -0.02,-0.46 -379.82,0 -0.02,0.46 c -4.81,116.6 6.28,211.24 33.91,289.35 30.48,86.14 81.42,154.24 155.74,208.16 l 0.28,0.2 z"
     id="path4148" /><path
     id="path10"
     d="m 41.04,33.21 c -9.07,219.45 36.25,385.95 189.45,497.1 84.47,-61.29 136.15,-139.41 163.99,-233.97 2.09,-7.09 4.04,-14.27 5.87,-21.54 11.45,-45.69 17.77,-95.02 19.88,-147.94 1.2,-30.06 1.05,-61.28 -0.29,-93.65 l -189.45,0 -189.45,0 m -0.92,-0.95 0.92,0 189.45,0 189.45,0 0.92,0 0.04,0.92 c 4.82,116.66 -6.28,211.36 -33.93,289.52 -30.51,86.24 -81.51,154.41 -155.91,208.39 l -0.56,0.41 -0.56,-0.41 C 155.54,477.11 104.54,408.94 74.03,322.7 46.38,244.54 35.28,149.84 40.1,33.18 l 0.04,-0.92 0,0 z" /><path
     style="fill:#ffffff;fill-opacity:1;stroke:#000000;stroke-width:1;stroke-miterlimit:4;stroke-dasharray:none;stroke-opacity:1"
     id="path4289"
     d="m 230.32911,364.05844 c 14.10856,2.05748 13.57589,9.08385 17.00505,12.61097 4.60488,4.70288 1.73783,8.29012 2.12975,19.06752 1.91639,1.75147 7.12666,2.3588 10.31801,-1.54335 0.54313,-15.48024 3.71264,-15.88357 7.9256,-19.41069 6.07452,2.93928 13.72956,1.11033 24.40896,-0.84919 4.78518,2.36069 15.41242,6.03029 25.2612,7.56854 5.27519,0.82392 8.47648,0.67079 12.47482,-1.37964 0,0 -9.01384,-6.17248 -13.2268,-11.26724 0,0 11.46324,-2.05752 20.28108,-3.52716 -7.86907,-16.59151 -17.86073,-27.58125 -33.92881,-37.18293 -5.7806,-37.035 -15.28569,-82.99398 -35.82392,-118.2428 -6.45764,-11.08294 -20.32846,-34.89594 -31.80813,-43.02863 3.27435,-11.10922 2.47622,-8.8653 6.85836,-20.77096 2.93928,-8.13204 7.27847,-4.33335 12.40946,-35.38587 2.41318,-14.604468 1.86156,-27.401725 -13.03084,-39.55078 -12.93284,-10.581432 -13.4753,-16.066128 -38.1614,-18.844307 -5.78462,-0.651003 -27.23679,3.053699 -31.77657,10.99041 -8.62188,13.912624 -8.70345,16.754571 -11.44677,37.427547 -1.27368,9.1118 11.69396,8.16364 13.1636,17.07948 8.54659,2.8205 5.3082,7.59163 5.45616,9.85745 0.46403,7.1058 -21.45843,10.63757 -26.84976,34.20023 -25.4738,8.42596 -43.60073,44.04769 -36.90487,83.91841 4.08155,24.30372 9.87704,22.54885 33.0974,60.85757 14.20656,23.41632 19.2177,35.94862 46.25914,47.80374 8.03404,14.59848 5.36367,20.67174 5.91145,31.79578 0.14573,2.95936 8.89012,5.21772 10.8593,-1.65991 1.02032,-6.80171 6.63865,-20.48261 19.13853,-20.53419 z" /><path
     style="fill:#e00e00;fill-opacity:1;stroke:#000000;stroke-width:1;stroke-miterlimit:4;stroke-dasharray:none;stroke-opacity:1"
     id="path4567"
     d="m 259.88656,393.5949 c -1.12909,25.38167 4.91279,9.12049 4.99967,19.94359 0.087,7.75817 -7.7301,-0.4789 -20.06353,11.68514 -15.80762,15.51635 -13.28883,20.30533 -16.06818,23.37027 -3.73478,-2.6818 -2.95307,-9.19486 -1.99766,-12.93027 -14.67852,-4.02276 -18.7607,-0.4789 -19.88981,3.63965 -3.99534,-8.42863 6.86155,-10.53579 10.42258,-13.60074 -2.34508,-1.81984 -10.2489,1.34092 -13.37566,2.20292 3.03992,-10.05686 12.76767,-3.16072 21.54003,-7.85393 5.47189,-2.9692 10.94377,0.86203 14.93908,-2.39449 7.03527,-5.84258 9.38121,-15.79347 9.12062,-22.78536 2.51881,-1.34093 3.90765,2.09691 5.81846,1.04334 1.40749,-0.95638 1.47713,-2.66553 4.5544,-2.32012 z" /><path
     style="fill:#e00e00;fill-opacity:1;stroke:#000000;stroke-width:1;stroke-miterlimit:4;stroke-dasharray:none;stroke-opacity:1"
     id="path4287"
     d="m 170.93781,99.884241 c 0.58788,5.290719 2.09378,14.703939 3.46542,17.349299 -16.23605,2.75942 -28.91251,0.30301 -33.79776,-1.49352 -4.95726,-1.82302 -10.24776,-6.50689 -15.94619,-12.07397 0,0 41.57569,-18.96811 46.27853,-3.781809 z" /><path
     style="fill:#e00e00;fill-opacity:1;stroke:#000000;stroke-width:1;stroke-miterlimit:4;stroke-dasharray:none;stroke-opacity:1"
     id="path4285"
     d="m 146.73896,101.14079 c 16.54998,-0.85706 17.95673,-1.795694 24.19885,-1.256549 -0.69127,-5.900834 -3.87835,-5.84709 -4.52985,-12.366794 -0.76877,-7.693203 1.3089,-8.798798 4.99882,-23.681691 -22.07161,0.03507 -49.53749,17.023297 -50.96992,40.514014 10.42366,-1.40418 13.59262,-2.5508 26.3021,-3.20898 z" /><path
     style="fill:#e00e00;fill-opacity:1;stroke:#000000;stroke-width:0.9863202;stroke-miterlimit:4;stroke-dasharray:none;stroke-opacity:1"
     id="path4539"
     d="m 164.59714,411.95948 c 3.54993,0.63137 7.45487,2.10453 17.39466,0.10525 8.60861,-1.68361 17.92716,-0.84179 18.1934,-6.4187 0.10173,-4.5612 -0.021,-10.91666 0.0832,-23.65199 3.10619,-1.78883 2.84407,2.97799 5.68543,2.92274 2.57321,-0.05 1.01225,-3.62461 5.58079,-2.15145 -0.53249,6.52392 -1.23212,17.93515 2.49532,23.30161 4.4374,6.31347 -0.0887,8.94407 -6.12365,9.68064 -16.06348,1.78883 -14.90971,10.62769 -23.07458,11.89039 -5.94613,0.94704 -8.69735,8.83885 -10.38353,12.20604 -0.8875,-5.36646 -1.5975,-9.47023 1.50871,-12.94262 -11.53729,1.15748 -11.98103,-5.68213 -20.14586,3.99854 -0.0887,-3.57762 0,-6.52394 8.07606,-12.62694 -3.54992,-2.31494 -11.981,-1.47317 -13.31222,3.47238 -1.59749,-1.57836 3.81616,-11.78512 14.02223,-9.8911 z" /><path
     style="fill:none;stroke:#000000;stroke-width:1;stroke-linecap:round;stroke-linejoin:miter;stroke-miterlimit:4;stroke-dasharray:none;stroke-opacity:1"
     id="path3837"
     d="m 182.39176,64.652428 c 11.41105,-3.014816 21.68673,-2.89606 30.21126,1.601621 15.04591,7.938463 15.93369,22.595095 34.73386,22.312457" /><path
     style="fill:none;stroke:#000000;stroke-width:1;stroke-linecap:round;stroke-linejoin:miter;stroke-miterlimit:4;stroke-dasharray:none;stroke-opacity:1"
     id="path3839"
     d="m 187.06842,124.85454 c 21.19008,0.16549 30.91149,-6.63385 38.39859,-12.63427 11.10624,-8.90091 13.68158,-19.329748 21.78268,-20.567813" /><path
     style="fill:#000000;stroke:#000000;stroke-width:1;stroke-linecap:round;stroke-linejoin:miter;stroke-miterlimit:4;stroke-dasharray:none;stroke-opacity:1"
     id="path3841"
     d="m 202.86424,87.391714 c -0.96661,-5.80211 -4.1306,-9.565353 -6.65597,-10.81979 -4.24996,2.390802 -4.75137,9.857769 -2.90115,10.96912 z" /><path
     style="fill:none;stroke:#000000;stroke-width:1;stroke-linecap:round;stroke-linejoin:miter;stroke-miterlimit:4;stroke-dasharray:none;stroke-opacity:1"
     id="path3845"
     d="m 304.88182,354.15892 c -0.18013,5.0169 7.33705,10.39658 11.74388,14.69644" /><path
     style="fill:none;stroke:#000000;stroke-width:1;stroke-linecap:round;stroke-linejoin:miter;stroke-miterlimit:4;stroke-dasharray:none;stroke-opacity:1"
     id="path3849"
     d="m 292.11648,373.9337 c -10.17415,-5.68096 -19.72311,-19.92359 -28.54757,-43.92779" /><path
     style="fill:none;stroke:#000000;stroke-width:1;stroke-linecap:round;stroke-linejoin:miter;stroke-miterlimit:4;stroke-dasharray:none;stroke-opacity:1"
     id="path3853"
     d="m 270.15719,333.79756 c -25.17988,-14.0106 -47.61644,-44.77512 -56.9242,-85.7292" /><path
     style="fill:none;stroke:#000000;stroke-width:1.01650369px;stroke-linecap:round;stroke-linejoin:miter;stroke-opacity:1"
     id="path3855"
     d="m 232.55896,429.83006 c -3.82108,1.76356 -5.38868,4.9968 -6.17248,7.64216" /><path
     style="fill:none;stroke:#000000;stroke-width:1;stroke-linecap:round;stroke-linejoin:miter;stroke-miterlimit:4;stroke-dasharray:none;stroke-opacity:1"
     id="path3857"
     d="m 241.78277,420.72199 c -4.95072,2.20292 -21.6269,7.37504 -24.66682,4.88475" /><path
     style="fill:none;stroke:#000000;stroke-width:1.00259805px;stroke-linecap:round;stroke-linejoin:miter;stroke-opacity:1"
     id="path3859"
     d="m 183.58929,416.27372 c -3.72742,1.99926 -9.05235,3.26195 -19.87963,2.20973" /><path
     style="fill:none;stroke:#000000;stroke-width:1.00259805px;stroke-linecap:round;stroke-linejoin:miter;stroke-opacity:1"
     id="path3861"
     d="m 185.71922,419.53567 c -2.92867,2.52537 -5.76863,5.99782 -9.93979,7.57617" /><path
     id="path4286"
     d="m 230.5,88.438053 c -6.33828,0.582076 -19.3861,1.025086 -27.63576,-1.04631"
     style="fill:none;fill-rule:evenodd;stroke:#000000;stroke-width:1px;stroke-linecap:round;stroke-linejoin:miter;stroke-opacity:1" /><path
     id="path4288"
     d="m 196.20827,76.571924 c 0.24937,-1.672651 0.5974,-3.641275 1.24261,-6.501454"
     style="fill:none;fill-rule:evenodd;stroke:#000000;stroke-width:1px;stroke-linecap:round;stroke-linejoin:miter;stroke-opacity:1" /></svg>