<svg xmlns:dc="http://purl.org/dc/elements/1.1/" xmlns:cc="http://creativecommons.org/ns#" xmlns:rdf="http://www.w3.org/1999/02/22-rdf-syntax-ns#" xmlns:svg="http://www.w3.org/2000/svg" xmlns="http://www.w3.org/2000/svg" id="svg2" version="1.1" x="0" y="0" width="420" height="500" viewBox="30.5 31.5 420 500" enable-background="new 30.5 31.5 412 533" xml:space="preserve">
  <metadata id="metadata4">
    <rdf:RDF>
      <cc:Work rdf:about="">
        <dc:format>
          
          
          
          
          
          
          image/svg+xml
        
        
        
        
        
        
        </dc:format>
        <dc:type rdf:resource="http://purl.org/dc/dcmitype/StillImage"/>
      </cc:Work>
    </rdf:RDF>
  </metadata>
  <defs id="defs6"/>
  <path id="path4218" d="m440 32.7c2.09 102.46-3.38 187.49-43.93 296.59C368.02 404.77 321.86 474.06 240.5 530.88 159.14 474.06 112.98 404.77 84.93 329.29 44.38 220.19 38.91 135.16 41 32.7c133 0.29 266 0 399 0z" style="fill-rule:evenodd;fill:#e00e00"/>
  <path d="m440 32.7c2.09 102.46-3.38 187.49-43.93 296.59C368.02 404.77 321.86 474.06 240.5 530.88 159.14 474.06 112.98 404.77 84.93 329.29 44.38 220.19 38.91 135.16 41 32.7c133 0.29 266 0 399 0z" id="path4224" style="fill:none;stroke:#000"/>
  <path id="path2825" d="m219.73 329.03c19.45 4.81 42.45-1.44 58.43-3.56 7.7-1.06 13.67 0.87 17.62 4.62 4.91-1.35 13.86-2.7 13.67 1.16-0.39 5.1-5.49 5.78-9.92 6.16 3.37 5.68 3.08 11.07 3.47 16.56 3.95-0.1 7.03-1.06 13.28 6.55 6.16 7.6 27.24 28.78 27.24 28.78 2.12 2.21-1.16 8.09-2.98 6.45L305.4 365.13c-7.7 2.31-20.79 3.85-25.51-0.19-2.12-1.83-6.26 0.29-1.83 3.75 7.22 5.58 26.47 1.35 28.98 3.66l30.13 26.28c1.16 1.06-1.73 7.99-3.95 6.16l-29.26-24.35c-14.73-0.19-59.59 8.66-64.79-13.19l-35.33 0c4.33 12.03-12.9 8.66-30.8 5.01l15.88 20.99c1.35 1.83-3.27 10.97-5.49 8.09l-32.15-39.85c-1.64-2.02-1.35-6.16 5.87-4.33-0.48-4.72-10.78-11.07-15.69-13.19l7.22 29.65c0.67 2.7-6.26 10.4-7.12 7.12l-13.28-47.27c-0.96-3.37 5.78-8.37 9.05-6.35l21.47 13.09c3.85-15.02 15.5-26.66 28.59-39.28-5.2-2.6-8.66-6.26-11.07-9.34-3.47-2.31-10.11-1.54-10.2-9.05 0-2.31 1.25-4.81 5.87-6.35 4.91-1.64 17.13 3.37 26.95 0.48l-21.47-16.46c-5.2-3.95-20.79-0.1-20.79-3.66 0-3.18 7.03-3.37 13.19-10.3 6.55-7.51 2.7-17.81 7.7-18.1 5.49-0.39 0.58 8.18 5.97 17.81 6.64 11.65 20.02 25.8 32.25 33.4 10.69 6.64 21.56 13.67 29.07 13 29.26-2.79 11.84-57.85-42.26-55.64-3.66 0.19-2.31-16.08-0.1-15.59 7.89 1.73 21.08 8.37 26.95 11.36-0.1-3.18 0-5.87 2.79-5.68 4.43 0.29 2.79 5.2 3.95 7.89 47.65 24.55 33.98 65.75 10.49 65.75-12.03 0-18.48-4.24-24.55-8.37l7.6 11.84c1.35 2.12-5.1 5.29-7.99 3.47-4.14-2.6-5.87-7.32-7.8-11.84-9.63 7.99 4.04 22.91 6.26 33.79z" style="fill:#fff;stroke:#000"/>
  <path id="path2823" d="m321.19 151.73c15.69 3.85 34.17-1.16 47.07-2.89 6.16-0.87 11.07 0.67 14.15 3.66 3.95-1.06 11.17-2.21 10.97 0.96-0.29 4.14-4.43 4.62-7.99 4.91 2.7 4.62 2.41 8.95 2.79 13.38 3.18-0.1 5.68-0.87 10.69 5.29 5.01 6.16 21.95 23.2 21.95 23.2 1.73 1.83-0.87 6.55-2.41 5.2l-28.3-24.55c-6.16 1.93-16.75 3.08-20.5-0.1-1.73-1.44-5.01 0.29-1.54 2.98 5.78 4.52 21.27 1.16 23.3 2.89l24.26 21.18c0.96 0.87-1.35 6.45-3.18 4.91l-23.58-19.64c-11.84-0.1-47.94 7.03-52.17-10.59l-28.4 0c3.47 9.72-10.4 6.93-24.84 4.04l12.8 16.94c1.06 1.44-2.6 8.76-4.43 6.55l-25.89-32.06c-1.25-1.64-1.06-4.91 4.72-3.47-0.39-3.75-8.66-8.86-12.71-10.69l5.78 23.87c0.48 2.21-5.01 8.37-5.78 5.78l-10.69-38.02c-0.77-2.7 4.62-6.74 7.32-5.1l17.33 10.59c3.08-12.13 12.51-21.47 23.01-31.67-4.24-2.12-6.93-5.01-8.95-7.51-2.79-1.93-8.18-1.25-8.18-7.32 0-1.83 1.06-3.85 4.72-5.1 3.95-1.35 13.77 2.7 21.76 0.39L287.02 96.19c-4.14-3.18-16.75-0.1-16.75-2.98 0-2.6 5.68-2.7 10.59-8.28 5.29-6.06 2.12-14.34 6.26-14.54 4.43-0.29 0.48 6.55 4.81 14.34 5.29 9.43 16.08 20.79 25.99 26.95 8.57 5.39 17.42 11.07 23.39 10.49 23.49-2.31 9.53-46.59-34.08-44.86-2.98 0.1-1.93-13-0.1-12.61 6.35 1.35 16.94 6.74 21.66 9.15-0.1-2.6 0-4.72 2.21-4.62 3.56 0.19 2.21 4.14 3.18 6.35 38.31 19.73 27.34 52.94 8.37 52.94-9.63 0-14.92-3.47-19.83-6.74l6.16 9.53c1.06 1.64-4.14 4.24-6.45 2.79-3.37-2.12-4.72-5.87-6.26-9.53-7.8 6.45 3.27 18.39 5.01 27.15z" style="fill:#fff;stroke:#000"/>
  <path id="path4236-4-8" d="m134.63 151.73c15.69 3.85 34.17-1.16 47.07-2.89 6.16-0.87 11.07 0.67 14.15 3.66 3.95-1.06 11.17-2.21 10.97 0.96-0.29 4.14-4.43 4.62-7.99 4.91 2.7 4.62 2.41 8.95 2.79 13.38 3.18-0.1 5.68-0.87 10.69 5.29 5.01 6.16 21.95 23.2 21.95 23.2 1.73 1.83-0.87 6.55-2.41 5.2l-28.3-24.55c-6.16 1.93-16.75 3.08-20.5-0.1-1.73-1.44-5.01 0.29-1.54 2.98 5.78 4.52 21.27 1.16 23.3 2.89l24.26 21.18c0.96 0.87-1.35 6.45-3.18 4.91l-23.58-19.64c-11.84-0.1-47.94 7.03-52.17-10.59l-28.4 0c3.47 9.72-10.4 6.93-24.84 4.04l12.8 16.94c1.06 1.44-2.6 8.76-4.43 6.55L79.38 178.01c-1.25-1.64-1.06-4.91 4.72-3.47-0.39-3.75-8.66-8.86-12.71-10.69l5.78 23.87c0.48 2.21-5.01 8.37-5.78 5.78L60.8 155.3c-0.77-2.7 4.62-6.74 7.32-5.1l17.33 10.59c3.08-12.13 12.51-21.47 23.01-31.67-4.24-2.12-6.93-5.01-8.95-7.51-2.79-1.93-8.18-1.25-8.18-7.32 0-1.83 1.06-3.85 4.72-5.1 3.95-1.35 13.77 2.7 21.76 0.39L100.36 96.19c-4.14-3.18-16.75-0.1-16.75-2.98 0-2.6 5.68-2.7 10.59-8.28 5.29-6.06 2.12-14.34 6.26-14.54 4.43-0.29 0.48 6.55 4.81 14.34 5.29 9.43 16.08 20.79 25.99 26.95 8.57 5.39 17.42 11.07 23.39 10.49 23.49-2.31 9.53-46.59-34.08-44.86-2.98 0.1-1.93-13-0.1-12.61 6.35 1.35 16.94 6.74 21.66 9.15-0.1-2.6 0-4.72 2.21-4.62 3.56 0.19 2.21 4.14 3.18 6.35 38.31 19.73 27.34 52.94 8.37 52.94-9.63 0-14.92-3.47-19.83-6.74l6.16 9.53c1.06 1.64-4.14 4.24-6.45 2.79-3.37-2.12-4.72-5.87-6.26-9.53-7.8 6.45 3.27 18.39 5.01 27.15z" style="fill:#fff;stroke:#000"/>
</svg>
