<?xml version="1.0" encoding="UTF-8" standalone="no"?>
<svg
   xmlns:dc="http://purl.org/dc/elements/1.1/"
   xmlns:cc="http://creativecommons.org/ns#"
   xmlns:rdf="http://www.w3.org/1999/02/22-rdf-syntax-ns#"
   xmlns:svg="http://www.w3.org/2000/svg"
   xmlns="http://www.w3.org/2000/svg"
   xml:space="preserve"
   enable-background="new 30.5 31.5 412 533"
   viewBox="30.5 31.5 470 500"
   height="500"
   width="470"
   y="0"
   x="0"
   version="1.1"
   id="svg2"><metadata
     id="metadata4"><rdf:RDF><cc:Work
         rdf:about=""><dc:format>
          
          
          
          
          image/svg+xml
        
        
        
        
        </dc:format><dc:type
           rdf:resource="http://purl.org/dc/dcmitype/StillImage" /><dc:title></dc:title></cc:Work></rdf:RDF></metadata><defs
     id="defs6" /><path
     style="fill:#0085ca;fill-opacity:1;fill-rule:evenodd;stroke:none;stroke-width:1px;stroke-linecap:butt;stroke-linejoin:miter;stroke-opacity:1"
     d="M 86.5,33 32,84 c 19.01193,17.50283 35.86223,34.50777 42.71715,51 C 79.1106,145.57016 80.5,158.35347 80.5,167.08965 l 0,201.20468 C 80.5,431.79667 139.75048,530 265.5,530 c 125.74952,0 185,-98.20333 185,-161.70567 l 0,-201.20468 c 0,-8.73618 1.3894,-21.51949 5.78284,-32.08965 C 463.13777,118.50777 479.98807,101.50283 499,84 L 444.5,33 c -119.33333,0 -238.66667,0 -358,0 z"
     id="path4509" /><path
     id="path4515"
     d="m 213.00002,234 c -20,0 -32.5,-17.5 -52.5,-17.5 -20,0 -32.5,17.5 -52.5,17.5 -10.53195,0 -18.98412,-4.85284 -27.54692,-9.44753 0.0108,-12.88279 0.0469,-32.96782 0.0469,-48.93978 0,-12.99205 0,-23.78033 -5.02473,-38.65091 C 85.83585,142.09682 95.43868,149 108,149 c 20,0 32.5,-17.5 52.5,-17.5 20,0 32.5,17.5 52.5,17.5 20,0 32.5,-17.5 52.5,-17.5 20,0 32.5,17.5 52.5,17.5 20,0 32.5,-17.5 52.5,-17.5 20,0 32.5,17.5 52.5,17.5 12.56132,0 22.16414,-6.90318 32.52473,-12.03822 C 450.5,151.83236 450.5,162.62064 450.5,175.61269 c 0,15.97196 0.0361,36.05699 0.0469,48.93978 C 441.98412,229.14716 433.53195,234 423,234 c -20,0 -32.5,-17.5 -52.5,-17.5 -20,0 -32.5,17.5 -52.5,17.5 -20,0 -32.5,-17.5 -52.49999,-17.5 -19.99999,0 -32.49999,17.5 -52.49999,17.5 z"
     style="fill:#ffffff;fill-opacity:1;fill-rule:evenodd;stroke:none;stroke-width:1px;stroke-linecap:butt;stroke-linejoin:miter;stroke-opacity:1" /><path
     style="fill:none;fill-rule:evenodd;stroke:#000000;stroke-width:1px;stroke-linecap:butt;stroke-linejoin:miter;stroke-opacity:1"
     d="M 75.47527,136.96178 C 85.83585,142.09682 95.43868,149 108,149 c 20,0 32.5,-17.5 52.5,-17.5 20,0 32.5,17.5 52.5,17.5 20,0 32.5,-17.5 52.5,-17.5 20,0 32.5,17.5 52.5,17.5 20,0 32.5,-17.5 52.5,-17.5 20,0 32.5,17.5 52.5,17.5 12.56132,0 22.16414,-6.90318 32.52473,-12.03822 m -4.97781,87.59069 C 441.98412,229.14716 433.53195,234 423,234 c -20,0 -32.5,-17.5 -52.5,-17.5 -20,0 -32.5,17.5 -52.5,17.5 -20,0 -32.5,-17.5 -52.49999,-17.5 -19.99999,0 -32.49999,17.5 -52.49999,17.5 -20,0 -32.5,-17.5 -52.5,-17.5 -20,0 -32.5,17.5 -52.5,17.5 -10.53195,0 -18.98412,-4.85284 -27.54692,-9.44753"
     id="path4511" /><path
     id="path4513"
     d="m 213,414 c -20,0 -32.5,-17.5 -52.5,-17.5 -20,0 -32.5,17.5 -52.5,17.5 -7.79607,0 -14.22174,-2.46673 -20.62705,-5.71184 C 79.74827,380.29449 80.5,387.00852 80.35838,319.50167 88.95359,324.11131 97.42922,329 108,329 c 20,0 32.5,-17.5 52.5,-17.5 20,0 32.5,17.5 52.5,17.5 20,0 32.5,-17.5 52.5,-17.5 20,0 32.5,17.5 52.5,17.5 20,0 32.5,-17.5 52.5,-17.5 20,0 32.5,17.5 52.5,17.5 10.57078,0 19.04641,-4.88869 27.64162,-9.49833 -0.14162,67.50685 0.61011,60.79282 -7.01458,88.78649 C 437.22173,411.53327 430.79607,414 423,414 c -20,0 -32.5,-17.5 -52.5,-17.5 -20,0 -32.5,17.5 -52.5,17.5 -20,0 -32.5,-17.5 -52.5,-17.5 -20,0 -32.5,17.5 -52.5,17.5 z"
     style="fill:#ffffff;fill-rule:evenodd;stroke:none;stroke-width:1px;stroke-linecap:butt;stroke-linejoin:miter;stroke-opacity:1" /><path
     style="fill:none;fill-rule:evenodd;stroke:#000000;stroke-width:1px;stroke-linecap:butt;stroke-linejoin:miter;stroke-opacity:1"
     d="M 443.62704,408.28816 C 437.22173,411.53327 430.79607,414 423,414 c -20,0 -32.5,-17.5 -52.5,-17.5 -20,0 -32.5,17.5 -52.5,17.5 -20,0 -32.5,-17.5 -52.5,-17.5 -20,0 -32.5,17.5 -52.5,17.5 -20,0 -32.5,-17.5 -52.5,-17.5 -20,0 -32.5,17.5 -52.5,17.5 -7.79607,0 -14.22174,-2.46673 -20.62705,-5.71184 M 80.35838,319.50167 C 88.95359,324.11131 97.42922,329 108,329 c 20,0 32.5,-17.5 52.5,-17.5 20,0 32.5,17.5 52.5,17.5 20,0 32.5,-17.5 52.5,-17.5 20,0 32.5,17.5 52.5,17.5 20,0 32.5,-17.5 52.5,-17.5 20,0 32.5,17.5 52.5,17.5 10.57078,0 19.04641,-4.88869 27.64162,-9.49833"
     id="path4517" /><path
     id="path4519"
     d="M 86.5,33 32,84 c 19.01193,17.50283 35.86223,34.50777 42.71715,51 C 79.1106,145.57016 80.5,158.35347 80.5,167.08965 l 0,201.20468 C 80.5,431.79667 139.75048,530 265.5,530 c 125.74952,0 185,-98.20333 185,-161.70567 l 0,-201.20468 c 0,-8.73618 1.3894,-21.51949 5.78284,-32.08965 C 463.13777,118.50777 479.98807,101.50283 499,84 L 444.5,33 c -119.33333,0 -238.66667,0 -358,0 z"
     style="fill:none;fill-opacity:1;fill-rule:evenodd;stroke:#000000;stroke-width:1px;stroke-linecap:butt;stroke-linejoin:miter;stroke-opacity:1" /></svg>