<?xml version="1.0" encoding="UTF-8" standalone="no"?>
<svg
   xmlns:dc="http://purl.org/dc/elements/1.1/"
   xmlns:cc="http://creativecommons.org/ns#"
   xmlns:rdf="http://www.w3.org/1999/02/22-rdf-syntax-ns#"
   xmlns:svg="http://www.w3.org/2000/svg"
   xmlns="http://www.w3.org/2000/svg"
   id="svg2"
   height="500"
   width="435"
   version="1.0">
  <metadata
     id="metadata14">
    <rdf:RDF>
      <cc:Work
         rdf:about="">
        <dc:format>image/svg+xml</dc:format>
        <dc:type
           rdf:resource="http://purl.org/dc/dcmitype/StillImage" />
        <dc:title></dc:title>
      </cc:Work>
    </rdf:RDF>
  </metadata>
  <defs
     id="defs5" />
  <image
     id="image11"
     height="498.00119"
     width="433.26105"
     y="0.99987274"
     x="0.87039912" />
  <path
     d="m 433.66369,1.466166 -0.009,181.970944 c -0.009,174.79359 0.15963,189.24039 -2.57141,200.65881 -16.59991,69.40395 -85.95006,107.97254 -192.13107,113.93405 l 2.8e-4,0 C 232.04834,498.4176 224.18193,498.9165 217.5,499 c -6.68193,-0.0835 -14.54834,-0.5824 -21.45249,-0.97003 l 2.8e-4,0 C 89.866787,492.06846 20.516637,453.49987 3.9167273,384.09592 1.1856873,372.6775 1.3539573,358.2307 1.3453173,183.43711 l -0.009,-181.970944 216.1636827,0 z"
     style="fill:#32ac60;fill-opacity:1;stroke:#000000;stroke-width:0.99600238;stroke-opacity:1"
     id="path4148" />
  <path
     id="path7"
     style="fill:#ffffff;stroke:#000000;stroke-width:1;stroke-miterlimit:4;stroke-dasharray:none;stroke-opacity:1"
     d="m 133.55368,398.34329 c 11.41913,-1.99257 26.76673,-7.16306 26.13648,-8.80518 -0.45055,-1.17391 -2.08043,-14.0164 -3.03792,-23.93704 -0.50956,-5.27953 -1.24937,-11.13386 -1.64402,-13.00964 -0.6955,-3.30579 -4.12783,-37.26404 -6.50464,-64.35491 -5.64922,-64.3895 -6.64026,-117.05332 -2.42625,-128.93008 2.69254,-7.58864 5.24433,-21.15281 4.17369,-22.1854 -2.654,-2.55964 -17.80504,-15.5126 -21.36107,-18.26204 -5.14461,-3.97772 -4.78076,-2.01327 -2.84536,-15.36225 2.81764,-19.434171 3.2524,-24.341465 3.28326,-37.060391 0.0156,-6.454273 -0.11001,-11.873506 -0.27926,-12.042738 -0.28349,-0.283421 -6.70625,-2.075271 -7.50403,-2.093497 -0.19237,-0.0042 -0.34977,2.263718 -0.34977,5.040247 0,6.610672 -0.73142,13.908208 -2.08786,20.831035 -0.603,3.077536 -1.23898,7.379091 -1.41327,9.559013 -0.70382,8.802707 -3.68369,22.004841 -5.5132,24.425881 -0.88177,1.16687 -5.73974,2.21231 -11.55371,2.48639 l -5.410913,0.25507 -1.42299,-3.44179 c -3.75164,-9.07411 -5.32254,-17.765918 -6.18799,-34.238156 -1.39049,-26.465625 -0.71817,-23.432262 -4.99196,-22.522603 l -3.15855,0.672287 -0.37652,4.640705 c -0.75119,9.258467 0.0595,28.315975 2.0124,47.306527 1.09388,10.6373 1.20018,10.4016 -4.80371,10.65153 l -3.84183,0.15992 -1.8977,-2.25824 c -9.613,-11.43935 -14.43483,-26.151709 -16.09884,-49.120718 -0.30656,-4.231612 -0.59299,-7.744842 -0.6365,-7.807176 -0.12792,-0.183286 -6.03535,1.835839 -6.44324,2.20227 -0.44228,0.397328 0.7049,14.457124 2.03257,24.911112 1.54594,12.172669 3.62792,21.907232 6.48574,30.324922 2.58397,7.61107 1.99912,10.46994 -3.78188,18.48676 -8.72148,12.09457 -5.69662,28.94736 7.76756,43.27628 3.40698,3.62579 3.06952,1.77024 4.20674,23.13144 0.8101,15.21661 1.60997,23.37825 2.99384,30.54804 4.08756,21.17761 -0.0968,26.29856 -15.21967,18.62615 l -5.68147,-2.88243 -1.36957,1.56767 c -3.17402,3.6331 -3.89062,4.63118 -4.79856,6.68338 l -0.95614,2.16114 2.59406,3.17017 c 3.08509,3.77025 15.8353,16.30146 20.86582,20.50743 l 3.56048,2.97688 0.53377,3.55123 c 0.29358,1.95317 1.78359,12.04942 3.31114,22.4361 5.92955,40.31853 9.8833,60.00605 15.64123,77.88469 l 2.0886,6.48519 2.95057,0.91118 c 12.154433,3.75348 29.725993,4.75297 42.960443,2.44364 z" />
  <path
     id="path9"
     style="fill:#ffffff;stroke:#000000;stroke-width:1;stroke-opacity:1;stroke-miterlimit:4;stroke-dasharray:none"
     d="m 231.54067,398.5723 c 1.82223,-0.37635 4.15499,-0.91092 5.18392,-1.18793 l 1.87078,-0.50366 2.15167,-8.04249 c 8.58473,-32.08795 13.4431,-74.13034 11.65235,-100.83485 -1.17648,-17.54426 -1.57554,-27.30291 -2.06219,-50.42986 -0.49817,-23.67406 -0.42694,-26.38404 0.96994,-36.9028 0.24833,-1.86992 0.662,-8.58455 0.91926,-14.92138 1.15212,-28.37835 3.5555,-37.57217 12.30688,-47.07843 l 1.82628,-1.9838 -3.32591,-12.09028 c -1.82925,-6.64965 -3.32591,-12.18343 -3.32591,-12.29729 0,-0.39928 -4.46035,-2.11407 -7.46198,-2.86876 -4.50536,-1.13279 -7.46197,-2.1448 -7.46197,-2.55414 0,-0.19973 0.71507,-1.91398 1.58904,-3.80944 3.83276,-8.312403 5.19831,-16.51944 6.58527,-39.577595 0.95863,-15.937297 0.99504,-15.219892 -0.82894,-16.3318 -1.19863,-0.7307 -5.01351,-1.345559 -5.01351,-0.808045 0,12.514449 -6.54413,38.073931 -13.35677,52.167743 l -3.07298,6.357297 -4.72699,-1.26978 -4.72699,-1.26977 -0.30776,-19.309464 c -0.29315,-18.393324 -0.72085,-26.170956 -1.86041,-33.831516 -0.56537,-3.800667 -0.58396,-3.813216 -4.65093,-3.140666 l -1.68897,0.279305 -0.32686,9.624292 c -0.53344,15.707117 -1.69256,26.209225 -4.54861,41.212644 -1.1008,5.782725 -1.67466,7.861145 -2.21288,8.014655 -5.3686,1.53136 -25.77755,4.04307 -26.39699,3.24867 C 168.33118,94.445046 160.18088,71.166652 159.79072,52.887536 l -0.12011,-5.62725 -1.63231,0.245187 c -7.78195,1.168908 -4.27087,33.60318 6.64882,61.419577 3.68743,9.39322 3.65381,7.93952 0.30658,13.26169 -6.65374,10.57954 -0.0429,25.85968 14.25606,32.95129 10.8441,5.37815 10.15905,11.62178 -1.74403,15.89533 -20.53929,7.37418 -20.03261,28.27739 0.97034,40.03163 3.89858,2.18183 3.60004,1.51305 4.37139,9.79215 2.29763,24.66135 -0.4049,59.80745 -7.38116,95.99106 l -1.69553,8.79422 1.00261,6.12717 c 1.70139,10.39754 2.73059,18.39847 5.16685,40.16657 1.29162,11.54075 2.44928,21.42225 2.57258,21.95888 0.30402,1.32323 12.56577,4.02066 24.02834,5.28593 5.51154,0.60839 20.92356,0.23315 24.99952,-0.60867 z" />
  <path
     style="fill:#ffffff;stroke:#000000;stroke-width:1;stroke-opacity:1;stroke-miterlimit:4;stroke-dasharray:none"
     id="path2384"
     d="m 324.30047,397.35132 c 2.30856,-0.25106 5.49711,-0.69052 7.08569,-0.97656 l 2.88833,-0.5201 0.69528,-3.09967 c 3.50535,-15.62744 8.07329,-43.57374 10.11925,-61.90888 l 0.57862,-5.18548 2.37487,-1.93693 c 3.02134,-2.46417 7.92004,-4.94323 11.2326,-5.68442 l 2.57687,-0.57658 2.96632,-5.17064 c 16.0306,-27.94331 13.56898,-41.54588 -8.79388,-48.59395 -1.91947,-0.60495 -2.5283,-1.0018 -2.3685,-1.54385 0.91986,-3.11998 4.51469,-30.54507 5.59652,-42.69599 1.64524,-18.47915 2.14447,-50.99162 0.90975,-59.24696 l -0.28312,-1.89287 8.73829,-4.86838 c 9.98199,-5.56129 9.51394,-5.06086 12.62166,-13.4948 7.52156,-20.4125 11.37947,-43.706134 12.17344,-73.501966 l 0.28741,-10.785526 -2.05356,-0.214005 c -1.12944,-0.117707 -2.11552,-0.168281 -2.19125,-0.112396 -0.84654,0.624633 -8.09181,44.033113 -8.51882,51.038613 -1.11769,18.33704 -6.53706,26.94662 -16.36731,26.00222 -3.30837,-0.31783 -3.26802,-0.15641 -2.25442,-9.0206 0.49992,-4.37196 0.96573,-10.33858 1.03514,-13.25918 l 0.1262,-5.31016 -6.76242,-4.59965 c -3.71933,-2.5298 -7.05197,-4.766082 -7.40586,-4.969516 -0.51837,-0.297985 -0.25641,-1.356634 1.3478,-5.44673 5.62547,-14.342705 9.30849,-28.464625 9.31992,-35.735634 l 0.003,-1.748599 -2.21528,9.8e-5 -2.21527,9.8e-5 -1.55284,5.012554 c -5.08585,16.417151 -15.41936,38.386227 -17.72727,37.688218 -0.42568,-0.128743 -1.79224,-0.457293 -3.03684,-0.730117 -3.37366,-0.739527 -4.82456,-1.651993 -5.36967,-3.376975 -1.65872,-5.248937 -1.79951,-25.505807 -0.25366,-36.495556 1.16902,-8.310759 1.28013,-7.69126 -1.5535,-8.66198 l -2.44412,-0.83729 -0.70109,2.418168 c -2.85613,9.851294 -4.41098,21.730292 -5.1772,39.553508 l -0.31351,7.292574 -2.35354,1.100704 c -5.35601,2.504923 -13.6285,1.21863 -17.03304,-2.648471 -4.71017,-5.350113 -12.86164,-29.83466 -14.76454,-44.348237 l -0.31477,-2.400683 -2.04367,-0.306416 c -3.90693,-0.585781 -4.12867,-0.18246 -3.79894,6.909972 0.48028,10.330471 1.52111,15.31191 9.88339,47.302099 l 2.10965,8.070481 -2.01043,2.65426 c -4.51137,5.95608 -7.42597,11.68124 -9.44596,18.55468 -1.49932,5.10178 -1.56474,4.45868 2.34302,23.03506 10.15191,48.25935 12.55117,62.92545 11.50359,70.3187 -3.84974,27.16948 -18.74217,111.41362 -26.68037,150.92662 -1.7506,8.71373 -3.12287,15.90316 -3.04949,15.97652 0.34702,0.34697 15.74161,4.01432 21.96328,5.23218 14.95739,2.92784 29.97571,3.97105 40.57449,2.81842 z" />
</svg>
