<?xml version="1.0" encoding="UTF-8" standalone="no"?>
<svg
   xmlns:dc="http://purl.org/dc/elements/1.1/"
   xmlns:cc="http://creativecommons.org/ns#"
   xmlns:rdf="http://www.w3.org/1999/02/22-rdf-syntax-ns#"
   xmlns:svg="http://www.w3.org/2000/svg"
   xmlns="http://www.w3.org/2000/svg"
   id="svg2"
   version="1.1"
   x="0"
   y="0"
   width="400"
   height="500"
   viewBox="30.5 31.5 400 500"
   enable-background="new 30.5 31.5 412 533"
   xml:space="preserve"><metadata
     id="metadata4"><rdf:RDF><cc:Work
         rdf:about=""><dc:format>
          
          
          
          image/svg+xml
        
        
        
        </dc:format><dc:type
           rdf:resource="http://purl.org/dc/dcmitype/StillImage" /><dc:title></dc:title></cc:Work></rdf:RDF></metadata><defs
     id="defs6" /><path
     id="path8"
     d="M 230.44,531.14 C 156.12,477.22 105.18,409.12 74.7,322.98 47.06,244.88 35.97,150.23 40.79,33.63 l 0.02,-0.46 379.82,0 0.02,0.46 c 4.81,116.6 -6.28,211.24 -33.91,289.35 C 356.26,409.12 305.32,477.22 231,531.14 l -0.28,0.2 -0.28,-0.2 z"
     style="fill:#000000" /><path
     id="path10"
     d="M 419.96,33.21 C 429.03,252.66 383.7,419.16 230.5,530.31 77.31,419.16 31.99,252.66 41.06,33.21 l 189.45,0 189.45,0 m 0.92,-0.95 -0.92,0 -189.45,0 -189.45,0 -0.92,0 -0.04,0.92 c -4.82,116.66 6.28,211.36 33.93,289.52 30.51,86.24 81.51,154.41 155.91,208.39 l 0.56,0.41 0.56,-0.41 C 305.46,477.11 356.46,408.94 386.97,322.7 414.62,244.54 425.72,149.84 420.9,33.18 l -0.04,-0.92 0,0 z" /><path
     id="path4663"
     d="m 200.5,152.5 30,-57.5 30,57.5 c -20,0 -40,0 -60,0 z"
     style="fill:#ffe000;fill-rule:evenodd;stroke:#000000;stroke-width:1px;stroke-linecap:butt;stroke-linejoin:miter;stroke-opacity:1;fill-opacity:1" /><path
     style="fill:#ffe000;fill-rule:evenodd;stroke:#000000;stroke-width:1px;stroke-linecap:butt;stroke-linejoin:miter;stroke-opacity:1;fill-opacity:1"
     d="m 133,152.5 30,-57.5 30,57.5 c -20,0 -40,0 -60,0 z"
     id="path4695" /><path
     id="path4697"
     d="m 65.5,152.5 30,-57.5 30,57.5 c -20,0 -40,0 -60,0 z"
     style="fill:#ffe000;fill-rule:evenodd;stroke:#000000;stroke-width:1px;stroke-linecap:butt;stroke-linejoin:miter;stroke-opacity:1;fill-opacity:1" /><path
     style="fill:#ffe000;fill-rule:evenodd;stroke:#000000;stroke-width:1px;stroke-linecap:butt;stroke-linejoin:miter;stroke-opacity:1;fill-opacity:1"
     d="m 65.5,220 30,-57.5 30,57.5 c -20,0 -40,0 -60,0 z"
     id="path4699" /><path
     id="path4701"
     d="m 133,220 30,-57.5 30,57.5 c -20,0 -40,0 -60,0 z"
     style="fill:#ffe000;fill-rule:evenodd;stroke:#000000;stroke-width:1px;stroke-linecap:butt;stroke-linejoin:miter;stroke-opacity:1;fill-opacity:1" /><path
     style="fill:#ffe000;fill-rule:evenodd;stroke:#000000;stroke-width:1px;stroke-linecap:butt;stroke-linejoin:miter;stroke-opacity:1;fill-opacity:1"
     d="m 200.5,220 30,-57.5 30,57.5 c -20,0 -40,0 -60,0 z"
     id="path4703" /><path
     id="path4705"
     d="m 268,220 30,-57.5 30,57.5 c -20,0 -40,0 -60,0 z"
     style="fill:#ffe000;fill-rule:evenodd;stroke:#000000;stroke-width:1px;stroke-linecap:butt;stroke-linejoin:miter;stroke-opacity:1;fill-opacity:1" /><path
     style="fill:#ffe000;fill-rule:evenodd;stroke:#000000;stroke-width:1px;stroke-linecap:butt;stroke-linejoin:miter;stroke-opacity:1;fill-opacity:1"
     d="m 335.5,220 30,-57.5 30,57.5 c -20,0 -40,0 -60,0 z"
     id="path4707" /><path
     id="path4709"
     d="m 335.5,152.5 30,-57.5 30,57.5 c -20,0 -40,0 -60,0 z"
     style="fill:#ffe000;fill-rule:evenodd;stroke:#000000;stroke-width:1px;stroke-linecap:butt;stroke-linejoin:miter;stroke-opacity:1;fill-opacity:1" /><path
     style="fill:#ffe000;fill-rule:evenodd;stroke:#000000;stroke-width:1px;stroke-linecap:butt;stroke-linejoin:miter;stroke-opacity:1;fill-opacity:1"
     d="m 268,152.5 30,-57.5 30,57.5 c -20,0 -40,0 -60,0 z"
     id="path4711" /><path
     id="path4713"
     d="m 200.5,287.5 30,-57.5 30,57.5 c -20,0 -40,0 -60,0 z"
     style="fill:#ffe000;fill-rule:evenodd;stroke:#000000;stroke-width:1px;stroke-linecap:butt;stroke-linejoin:miter;stroke-opacity:1;fill-opacity:1" /><path
     style="fill:#ffe000;fill-rule:evenodd;stroke:#000000;stroke-width:1px;stroke-linecap:butt;stroke-linejoin:miter;stroke-opacity:1;fill-opacity:1"
     d="m 268,287.5 30,-57.5 30,57.5 c -20,0 -40,0 -60,0 z"
     id="path4715" /><path
     id="path4717"
     d="m 133,287.5 30,-57.5 30,57.5 c -20,0 -40,0 -60,0 z"
     style="fill:#ffe000;fill-rule:evenodd;stroke:#000000;stroke-width:1px;stroke-linecap:butt;stroke-linejoin:miter;stroke-opacity:1;fill-opacity:1" /><path
     style="fill:#ffe000;fill-rule:evenodd;stroke:#000000;stroke-width:1px;stroke-linecap:butt;stroke-linejoin:miter;stroke-opacity:1;fill-opacity:1"
     d="m 133,355 30,-57.5 30,57.5 c -20,0 -40,0 -60,0 z"
     id="path4719" /><path
     id="path4721"
     d="m 200.5,355 30,-57.5 30,57.5 c -20,0 -40,0 -60,0 z"
     style="fill:#ffe000;fill-rule:evenodd;stroke:#000000;stroke-width:1px;stroke-linecap:butt;stroke-linejoin:miter;stroke-opacity:1;fill-opacity:1" /><path
     style="fill:#ffe000;fill-rule:evenodd;stroke:#000000;stroke-width:1px;stroke-linecap:butt;stroke-linejoin:miter;stroke-opacity:1;fill-opacity:1"
     d="m 268,355 30,-57.5 30,57.5 c -20,0 -40,0 -60,0 z"
     id="path4723" /><path
     style="fill:#ffe000;fill-rule:evenodd;stroke:#000000;stroke-width:1px;stroke-linecap:butt;stroke-linejoin:miter;stroke-opacity:1;fill-opacity:1"
     d="m 200.5,422.5 30,-57.5 30,57.5 c -20,0 -40,0 -60,0 z"
     id="path4725" /></svg>