<svg xmlns:dc="http://purl.org/dc/elements/1.1/" xmlns:cc="http://creativecommons.org/ns#" xmlns:rdf="http://www.w3.org/1999/02/22-rdf-syntax-ns#" xmlns:svg="http://www.w3.org/2000/svg" xmlns="http://www.w3.org/2000/svg" xml:space="preserve" enable-background="new 30.5 31.5 412 533" viewBox="30.5 31.5 400 500" height="500" width="400" y="0" x="0" version="1.1" id="svg2">
  <metadata id="metadata4">
    <rdf:RDF>
      <cc:Work rdf:about="">
        <dc:format>
          
          
          
          
          
          image/svg+xml
        
        
        
        
        
        </dc:format>
        <dc:type rdf:resource="http://purl.org/dc/dcmitype/StillImage"/>
      </cc:Work>
    </rdf:RDF>
  </metadata>
  <defs id="defs6"/>
  <path fill="#e00e00" id="path4148" d="M230.45 531.13C156.13 477.21 105.19 409.11 74.71 322.97 47.07 244.87 35.98 150.22 40.8 33.62l0.02-0.46 379.82 0 0.02 0.46c4.81 116.6-6.28 211.24-33.91 289.35-30.48 86.14-81.42 154.24-155.74 208.16l-0.28 0.2-0.28-0.2z"/>
  <path d="M419.96 33.21C429.03 252.66 383.71 419.16 230.51 530.31 146.04 469.02 94.36 390.9 66.52 296.34 64.43 289.25 62.48 282.07 60.65 274.8 49.2 229.11 42.88 179.78 40.77 126.86 39.57 96.8 39.72 65.58 41.06 33.21l189.45 0 189.45 0m0.92-0.95-0.92 0-189.45 0-189.45 0-0.92 0-0.04 0.92c-4.82 116.66 6.28 211.36 33.93 289.52 30.51 86.24 81.51 154.41 155.91 208.39l0.56 0.41 0.56-0.41C305.46 477.11 356.46 408.94 386.97 322.7 414.62 244.54 425.72 149.84 420.9 33.18l-0.04-0.92 0 0z" id="path10"/>
  <path id="path3787" d="m185.35 70.18 11.45-0.5 7.67-11.95c-0.9-1.19-2.89-4.58-4.98-7.07-5.77 6.37-10.65 12.54-14.24 19.41z" style="fill:#fff;stroke-miterlimit:4;stroke:#000"/>
  <path id="path3785" d="m218.8 325.02c-1 2.29-11.35 1.69-10.95-0.7 2.09-9.86 8.56-16.62 15.13-19.71 2.79-1.29 30.76 0.8 46.89 2.69-18.02-18.81-44.9-35.94-37.93-61.22l9.36 2.49c-0.1 18.52 16.62 37.23 45 66-18.02-0.8-41.21-2.59-53.95-1.49-1.29-6.97-17.52 16.43-13.64 11.85z" style="fill:#fff;stroke-miterlimit:4;stroke:#000"/>
  <path id="path2997" d="m153.69 312.58c-0.9 1-3.09 0.4-4.68-0.2-4.68-1.59-11.55-3.38-18.12-0.5-4.08 1.79-7.96 5.18-10.45 14.14-0.7 2.69 6.17 3.98 6.67 2.39l0.1 0.2c-0.1 1.49 9.56 2.69 10.25 0.9l0.2-0.3c0 1.79 5.97 2.29 9.86 0.3 2.19-1.19 11.55 0.2 13.94-1.19 8.76-5.08 5.38-9.95 7.76-11.85 3.88-3.19 9.56-3.19 11.95-9.36 4.38-11.35 18.62-27.97 36.73-60.43 2.99-5.28 13.04 1.39 23.59 3.29 0 0-0.3 0 0 0 0 24.49 33.55 53.66 42.31 63.91-23.09-0.2-42.61-5.48-53.46-4.08-5.77 0.7-10.65 9.95-13.24 16.33-0.8 1.99 6.87 2.29 7.37 0.9l0 0.4c-0.1 0.6 7.17 0.9 7.67-0.1l0-0.1c-0.4 1.29 8.66 2.29 12.24 0.1 4.18-1.19 5.97 2.59 9.06 1 4.58-2.59 7.86-4.58 11.75 0.6 0.7 0.9 39.92 3.09 43.1-0.2 0.9-1 1.29-4.18 0.5-6.47-1.69-4.98 8.26-1.79 7.96 3.88-0.8 14.73-30.26 16.72-47.28 17.52-67.89 3.29-102.33 45.39-103.13 77.75-1.1 40.12 35.24 67.49 56.74 65 0 0-6.17-4.88-6.57-8.46 9.46 7.37 22.7 11.05 33.65 8.46 0 0-9.16-4.48-11.75-8.06 19.81 7.96 34.84 5.08 47.28-7.07-10.15-5.87-18.81-8.06-28.47-8.66 0 0 10.45-2.09 12.34-6.17-13.74-0.2-35.74-7.07-38.13-19.21-4.08-20.41 23.89-37.83 45.49-39.92 32.85-3.09 61.92-0.4 83.82-42.61 15.53-29.86-4.18-56.64-27.67-63.61 9.76-16.92 9.26-45.39 6.27-59.63-10.05-47.48-52.96-59.63-64.11-62.12-30.96-6.77-49.87-25.58-50.57-45.09-0.6-16.03 0.2-31.95-7.37-45 2.09-8.86 1.99-13.04-6.97-30.16-7.86 10.95-9.56 13.64-11.65 17.52-8.06 0.1-20.51 1.19-28.77 1.99-6.67 0.7-8.96 4.08-11.05 7.17l-35.74 1.19c-0.6 0-1.59 0.5-2.09 1-2.19 2.59-0.4 7.86 2.29 7.96 1.49 0.1 1.69 5.77 9.46 8.16 0 0 0.9 1.1 0.8 1.29 1.59 8.16 8.66 8.66 16.62 10.05 5.67 1 18.22 2.19 15.13 12.64l-0.2 0c-3.78 12.24-32.25 38.82-24.19 59.43 0 0 3.29-5.28 7.57-6.87-4.78 9.95-4.18 20.71 2.09 27.97 0 0 1.79-5.57 3.88-7.57 0.3 11.95 4.28 24.59 10.85 28.67 0 0-0.2-4.88 0.5-7.27 3.68 8.26 11.75 15.93 13.74 17.62-10.75 21.1-17.62 47.98-27.28 69.48-1.39 2.99-4.28 5.38-6.77 5.18-7.37-0.6-16.62 0.5-19.81 1.79-5.18 2.09-13.54 11.65-12.54 18.42-0.1 1.49 5.96 2.57 7.25 0.97" style="fill:#fff;stroke-linecap:round;stroke-linejoin:round;stroke-miterlimit:4;stroke:#000"/>
  <path id="path3789" d="m169.12 76.95c0.3-0.5 9.76-0.8 10.85-0.2 0.8 0.4-1 2.79-2.89 3.88-1.69 1-3.78 0.8-5.18 0.1-1.69-0.8-3.38-2.79-2.69-3.88z" fill="#000"/>
  <path id="path3862" d="m127.07 328.63c0.9-3.48 3.42-8.09 7.6-11.37" style="fill:none;stroke-linecap:round;stroke-miterlimit:4;stroke:#000"/>
  <path id="path3864" d="m142.84 319.75c-2.79 2.79-4.62 5.62-5.21 9.6" style="fill:none;stroke-linecap:round;stroke-miterlimit:4;stroke:#000"/>
  <path id="path3868" d="m224.43 327.13c1-3.29 2.53-6.98 7.21-10.27" style="fill:none;stroke-linecap:round;stroke-miterlimit:4;stroke:#000"/>
  <path id="path3870" d="m237.61 319.25c-2.39 1.99-4.9 5.51-5.5 8.1" style="fill:none;stroke-linecap:round;stroke-miterlimit:4;stroke:#000"/>
  <path id="path3872" d="m132.51 93.97c8.7 0.92 14.58 1.75 23.07 3.49" style="fill:none;stroke-linecap:round;stroke-miterlimit:4;stroke:#000"/>
  <path id="path3760" d="M241.69 249.66 253.54 235.13" style="fill:none;stroke-linecap:round;stroke-miterlimit:4;stroke:#000"/>
  <path id="path3762" d="m177.18 227.76c2.79 3.09 8.56 5.87 11.95 6.87" style="fill:none;stroke-linecap:round;stroke-miterlimit:4;stroke:#000"/>
  <path id="path3764" d="m188.13 241.3-34.44 71.28" style="fill:none;stroke-linecap:round;stroke-miterlimit:4;stroke:#000"/>
</svg>
