<svg xmlns:dc="http://purl.org/dc/elements/1.1/" xmlns:cc="http://creativecommons.org/ns#" xmlns:rdf="http://www.w3.org/1999/02/22-rdf-syntax-ns#" xmlns:svg="http://www.w3.org/2000/svg" xmlns="http://www.w3.org/2000/svg" id="svg2" version="1.1" x="0" y="0" width="400" height="500" viewBox="30.5 31.5 400 500" enable-background="new 30.5 31.5 412 533" xml:space="preserve">
  <metadata id="metadata4">
    <rdf:RDF>
      <cc:Work rdf:about="">
        <dc:format>
          
          
          
          
          image/svg+xml
        
        
        
        
        </dc:format>
        <dc:type rdf:resource="http://purl.org/dc/dcmitype/StillImage"/>
      </cc:Work>
    </rdf:RDF>
  </metadata>
  <defs id="defs6"/>
  <path id="path8" d="M230.44 531.14C156.12 477.22 105.18 409.12 74.7 322.98 47.06 244.88 35.97 150.23 40.79 33.63l0.02-0.46 379.82 0 0.02 0.46c4.81 116.6-6.28 211.24-33.91 289.35C356.26 409.12 305.32 477.22 231 531.14l-0.28 0.2-0.28-0.2z" fill="#fff"/>
  <path id="path2827" d="m156.95 86.13c10.3-7.97 27.13-13.26 44.89-1.5 4.8-12.2 15.59-25.76 25.58-34.69 11.73 11.19 18.97 23.29 24.53 35.75 14.35-10.04 27.64-14.15 47.07-2.66-28.74 7.85-31.18 32.57-35.33 57.49-3.6 21.59-7.71 43.27-25.2 54.95 4.93 3.52 12.65 5.85 18.07 4.32 8.21-2.31 13.05-12.36 19.42-10.65-6.55 7.42-10.7 24.54-30.09 20.06-0.87-0.2-3.38 0.28-1.68 1.9 7.35 6.99 5.75 11.96 4.87 17.37-0.92 5.65 0.88 11.42 2.9 16.29-13.64-3.67-6.8-33.77-21.52-29.18-8.32 45-10.78 88.77 4.5 137.11 0.79 2.5 4.09 1.71 4.32-0.01 3.04-22.08 18.61-53.33 38.52-73.02-13.35 1.76-19.91 0.24-24.38-3.92-6.23-5.79-9.37-12.14-10.91-18.97 11.01 5.85 20.82 16.99 29.12 10.08-5.26-9.62-10.85-18.41-13.15-34.12 15.24 11.11 14.16 29.17 22.36 26.43-4.6-8.24-6.45-16.82-5.5-26.32 3.13-31.14 27.47-67.78 8.75-97.7 19.73 1.55 26.09 11.53 34.95 22.34 8.53-7.39 20.17-15.58 33.78-19.24 5.29 13.49 4.68 25.82 5.31 39.08 18.47-3.17 27.61-2.13 41.64 12.63-21.34 0.41-33.31 15.36-44.47 31.92-14.34 21.29-26.98 45.71-52.73 50.09-1.85 0.31-1.36 2.87 0.87 3.12 10.64 1.23 16.12-1.93 20.52-0.17 10.15 4.04 9.46 14.32 12.46 17.56-5.02-0.26-11.48-8.24-18.5-9.31-5.99-0.92-10.09 3.52-17.12 1.84-1.4 14.71-0.04 22.54 13.02 33.15-7.98-0.24-16.53-3.6-20.62-9.58-3.97-5.81-0.97-13.51-4.26-22.67-0.57-1.59-2.51-1.81-3.32-0.78-11.22 14.27-42.06 47.56-42.14 96.06 7.8-9.02 17.35-15.6 24-24.69 5.33-7.29 8.73-16.52 8.28-27.45-0.1-2.48 5.58-1.59 6.03 0.49 1.43 6.64-1.43 24.49-6.72 35.08-4.53 9.06-10.14 7.69-17.9 15.06-4.79 4.55-11.26 14.13-13.37 30.4-2.66 20.62-4.65 41.69-12.53 55.39-1.44 2.51-14.2-5.61-12.6-9.49 10.54-25.6 36.78-70.4-20.93-88.97-5.22-1.68-12.21-20.72-16.85-31.8-1.18-2.83 3.99-4.95 5.65-2.06 3.55 6.17 13.63 22.08 18.08 24.42 8.88 4.68 17.76 10.37 26.64 18.33-2.14-21.11-40.66-62.78-58.38-90.95-0.82-1.31-5.24-0.33-5.5 1.65-2.54 19-6.26 32.69-22.48 32.06 9.58-9.52 13.24-22.8 10.01-33.36-15.55-3.08-22.59-1.21-33.65 9.36 1.83-16.13 18.78-20.34 29.39-19.92 2.86 0.11 3.05-2.19 0.55-2.39-18.41-1.5-31.05-17.74-39.76-32.55-15.07-25.63-28.52-49.76-53.56-47.99 16.75-17.69 26.61-13.28 39.73-13.09 0.63-12.32 0.95-27.8 6.79-40.12 15.03 5 24.03 12.99 32.75 19.02 5.91-15.52 21.09-21.91 34.84-21.3-27.06 26.74 18.31 88.5 1.18 124.62 16.07 3.03 12.55-31.4 27.09-29.98-8.64 12.69-0.76 24.12-12.23 35.19 7.01 7.62 14.8-2.68 16.44-7.65 1.02-3.1 6.38-2.68 6.08 0.41-0.37 3.81-3.44 8.4-6.61 12.25-4.79 5.82-8.16 8.54-18.85 6.08-1.93-0.44-6.06 1.6-5.41 2.81 5.69 10.57 25.22 32.57 38.67 50.09 0.81 1.05 4.09 5.75 3.83 3.25-1.11-10.79-7.99-27.99-7.38-57.07 0.5-24.05 7.22-48.56 6.19-59.38-8.58 1.6-9.16 25.5-19.82 26.89 1.86-4.73 3.29-10.11 3.55-15.21 0.37-7.23 1.69-13.75 8.94-16.56 2.03-0.79 0.91-3.37 0.15-3.24-19.98 3.47-25.32-5.67-33.65-17.53 10.31-0.91 23.26 18.72 37.37 3.47-12.13-7.78-17.23-15.9-20.37-27.95-8.76-33.65-6.5-77.3-40.22-80.64z" style="fill:#0085ca;stroke-linecap:round;stroke-linejoin:round;stroke:#000"/>
  <path id="path10" d="M419.96 33.21C429.03 252.66 383.7 419.16 230.5 530.31 77.31 419.16 31.99 252.66 41.06 33.21l189.45 0 189.45 0m0.92-0.95-0.92 0-189.45 0-189.45 0-0.92 0-0.04 0.92c-4.82 116.66 6.28 211.36 33.93 289.52 30.51 86.24 81.51 154.41 155.91 208.39l0.56 0.41 0.56-0.41C305.46 477.11 356.46 408.94 386.97 322.7 414.62 244.54 425.72 149.84 420.9 33.18l-0.04-0.92 0 0z"/>
</svg>
