<?xml version="1.0" encoding="UTF-8" standalone="no"?>
<svg
   xmlns:dc="http://purl.org/dc/elements/1.1/"
   xmlns:cc="http://creativecommons.org/ns#"
   xmlns:rdf="http://www.w3.org/1999/02/22-rdf-syntax-ns#"
   xmlns:svg="http://www.w3.org/2000/svg"
   xmlns="http://www.w3.org/2000/svg"
   xmlns:xlink="http://www.w3.org/1999/xlink"
   xml:space="preserve"
   enable-background="new 30.5 31.5 412 533"
   viewBox="30.5 31.5 400 500"
   height="500"
   width="400"
   y="0"
   x="0"
   version="1.1"
   id="svg2"><metadata
     id="metadata4"><rdf:RDF><cc:Work
         rdf:about=""><dc:format>
          
          
          
          
          image/svg+xml
        
        
        
        
        </dc:format><dc:type
           rdf:resource="http://purl.org/dc/dcmitype/StillImage" /><dc:title></dc:title></cc:Work></rdf:RDF></metadata><defs
     id="defs6" /><path
     style="fill-opacity:1;fill:#ffe000"
     fill="#fff"
     d="M230.44 531.14C156.12 477.22 105.18 409.12 74.7 322.98 47.06 244.88 35.97 150.23 40.79 33.63l0.02-0.46 379.82 0 0.02 0.46c4.81 116.6-6.28 211.24-33.91 289.35C356.26 409.12 305.32 477.22 231 531.14l-0.28 0.2-0.28-0.2z"
     id="path8" /><path
     d="M419.96 33.21C429.03 252.66 383.7 419.16 230.5 530.31 77.31 419.16 31.99 252.66 41.06 33.21l189.45 0 189.45 0m0.92-0.95-0.92 0-189.45 0-189.45 0-0.92 0-0.04 0.92c-4.82 116.66 6.28 211.36 33.93 289.52 30.51 86.24 81.51 154.41 155.91 208.39l0.56 0.41 0.56-0.41C305.46 477.11 356.46 408.94 386.97 322.7 414.62 244.54 425.72 149.84 420.9 33.18l-0.04-0.92 0 0z"
     id="path10" /><g
     transform="matrix(1.0333336,0,0,1.0333336,32.066507,35.612869)"
     id="Flowr"><path
       style="fill-opacity:1;fill:#0085ca;stroke:#000"
       id="path4391"
       d="m29.66 90.69c19.04-6.67 40.79-7.65 59.18 0.27-1.85-19.94 5.81-40.32 18.03-56.37 12.22 16.05 19.88 36.43 18.03 56.37 18.39-7.92 40.14-6.93 59.18-0.27-11.48 16.58-28.5 30.16-48.03 34.57 13.21 15.05 19 36.03 18.54 56.2-19.32-5.8-37.5-17.78-47.72-35-10.23 17.22-28.4 29.2-47.72 35-0.46-20.17 5.33-41.16 18.54-56.2C58.16 120.85 41.14 107.27 29.66 90.69Z" /><path
       style="fill:none;stroke-miterlimit:4;stroke-width:5.80645011;stroke:#000;stroke-dasharray:none"
       id="path4393"
       d="m93.25 111.35c-8.83 4.66-4.68 17.43 5.2 16.01 1.7 9.84 15.13 9.84 16.84 0 9.88 1.42 14.03-11.35 5.2-16.01 4.4-8.96-6.46-16.85-13.62-9.9-7.16-6.96-18.02 0.94-13.62 9.9z" /><path
       style="fill:none;stroke-miterlimit:4;stroke-width:3.87096674;stroke:#ffe000;stroke-dasharray:none"
       d="m93.25 111.35c-8.83 4.66-4.68 17.43 5.2 16.01 1.7 9.84 15.13 9.84 16.84 0 9.88 1.42 14.03-11.35 5.2-16.01 4.4-8.96-6.46-16.85-13.62-9.9-7.16-6.96-18.02 0.94-13.62 9.9z"
       id="path4431" /></g><use
     transform="translate(-0.25799536,2.6603823e-7)"
     id="use4395"
     xlink:href="#Flowr"
     x="176.26"
     y="0"
     width="100"
     height="100" /><use
     transform="translate(-0.12900374,-0.21066704)"
     id="use4397"
     xlink:href="#Flowr"
     y="197.68"
     x="88.13"
     width="100"
     height="100" /></svg>