<svg xmlns:dc="http://purl.org/dc/elements/1.1/" xmlns:cc="http://creativecommons.org/ns#" xmlns:rdf="http://www.w3.org/1999/02/22-rdf-syntax-ns#" xmlns:svg="http://www.w3.org/2000/svg" xmlns="http://www.w3.org/2000/svg" id="svg2" version="1.1" x="0" y="0" width="400" height="500" viewBox="30.5 31.5 400 500" enable-background="new 30.5 31.5 412 533" xml:space="preserve">
  <metadata id="metadata4">
    <rdf:RDF>
      <cc:Work rdf:about="">
        <dc:format>
          
          
          
          
          
          
          image/svg+xml
        
        
        
        
        
        
        </dc:format>
        <dc:type rdf:resource="http://purl.org/dc/dcmitype/StillImage"/>
      </cc:Work>
    </rdf:RDF>
  </metadata>
  <defs id="defs6"/>
  <path d="M230.45 531.13C156.13 477.21 105.19 409.11 74.71 322.97 47.07 244.87 35.98 150.22 40.8 33.62l0.02-0.46 379.82 0 0.02 0.46c4.81 116.6-6.28 211.24-33.91 289.35-30.48 86.14-81.42 154.24-155.74 208.16l-0.28 0.2-0.28-0.2z" id="path4148" fill="#0085ca"/>
  <path id="path4426" d="m229.36 252.55c-5.65 5.36-1.55 10.17-3.61 11.45 0 0 2.11-0.35 3.43-1.8 2.74-3.45 2.5-9.75 5.59-11.16 3.01-1.36 7.91 9.07 11.25 16.89 8.61 20.17 10.37 41.13 6.31 61.2 9.38 3.14 21.47 13.86 26.84 23.36 1.45 2.56-17.57 30.9-20.01 27.64-2.62-3.5-5.07-6.55-7.83-7.18-1.92 8.47-3.11 23.3-6.97 37.5 3.26 2.49 6.75 6.44 8.16 11.23 0.34 1.17-5.96 4.55-6.62 3.93-1.39-1.31-2.9-2.19-4.12-2.39 1.4 8.01-0.66 16.11 0.14 24.43 1.73 18.05 14.34 18.29 17.12 45.68-7.84-1.77-13.03-8.36-23.71-8.16-13.67 0.26-21.03 10-26.25 10.87-0.02-16.93 11.77-33.57 16.65-42.4 1.29-2.34-1.47-14.82-5.27-31.05-2.27 0.89-5.96 3.92-6.8 2.67-5.97-8.78-14.27-10.72-12.57-13.31 4.69-7.12 9.66-14.21 8.17-23.88-1.58-10.27-2.9-20.32-5.01-30.76-1.89 5.6-3.61 11.56-6.53 15.23-5.15-5.58-8.38-11.69-10.8-18.05-0.38-0.99 1.1-1.09 4.57-3.98 2.56-2.13-3.3-5.17-2.17-9.44 0.57-2.16 13.1-3.89 13.66-7.05 2.64-14.9 4.16-33.58 8.83-47.87 4.66-14.28 4.5-24.78 9.08-30.82 3.93-5.18 10.35-4.55 8.45-2.76z" style="fill:#fff;stroke-linejoin:round;stroke-miterlimit:4;stroke:#000"/>
  <path id="path3608" d="m240.02 244.97c7.78-0.36 7.82-6.68 10.22-6.31 0 0-1.82-1.12-3.77-0.88-4.33 0.82-8.26 5.75-11.52 4.79-3.17-0.94-0.06-12.04 2.52-20.14 6.67-20.89 19.03-37.9 35.22-50.44-5.05-8.51-7.19-24.53-5.05-35.22 0.58-2.88 33.49-11.9 33.21-7.83-0.3 4.36-0.44 8.27 1.23 10.55 6.99-5.15 17.58-15.6 29.79-23.82-0.84-4.02-0.9-9.28 1.16-13.83 0.51-1.11 7.48 0.45 7.58 1.36 0.2 1.9 0.76 3.55 1.55 4.5 4.18-6.97 9.98-12.63 15.86-18.58 5.19-5.26 0.57-22.72 10.75-34.96 25.07 15.4 37.35 13 45.71 18.52-11.05 12.82-32.61 19.42-42.08 22.92-2.5 0.93-8.06 11.53-15.79 26.29 2.3 0.81 7.07 0.93 6.89 2.43-1.22 10.55 3.79 17.45 0.81 18.29-8.2 2.32-15.33 4.65-20.53 12.95-5.52 8.8-11.09 17.27-16.31 26.55 5.09-3 10.29-6.4 14.89-7.26 0.25 7.59-1.3 14.33-3.63 20.72-0.36 1-1.55 0.11-6.06 0.02-3.33-0.07-0.88 6.07-4.53 8.56-1.85 1.26-12.46-5.62-14.95-3.59-11.74 9.55-25.1 22.7-37.97 30.46-12.86 7.76-19.61 15.81-27.02 17.39-6.36 1.35-10.81-3.32-8.19-3.43z" style="fill:#fff;stroke-linejoin:round;stroke-miterlimit:4;stroke:#000"/>
  <path id="path10" d="M419.96 33.21C429.03 252.66 383.71 419.16 230.51 530.31 146.04 469.02 94.36 390.9 66.52 296.34 64.43 289.25 62.48 282.07 60.65 274.8 49.2 229.11 42.88 179.78 40.77 126.86 39.57 96.8 39.72 65.58 41.06 33.21l189.45 0 189.45 0m0.92-0.95-0.92 0-189.45 0-189.45 0-0.92 0-0.04 0.92c-4.82 116.66 6.28 211.36 33.93 289.52 30.51 86.24 81.51 154.41 155.91 208.39l0.56 0.41 0.56-0.41C305.46 477.11 356.46 408.94 386.97 322.7 414.62 244.54 425.72 149.84 420.9 33.18l-0.04-0.92 0 0z"/>
  <path d="m220.98 244.97c-7.78-0.36-7.82-6.68-10.22-6.31 0 0 1.82-1.12 3.77-0.88 4.33 0.82 8.26 5.75 11.52 4.79 3.17-0.94 0.06-12.04-2.52-20.14-6.67-20.89-19.03-37.9-35.22-50.44 5.05-8.51 7.19-24.53 5.05-35.22-0.58-2.88-33.49-11.9-33.21-7.83 0.3 4.36 0.44 8.27-1.23 10.55-6.99-5.15-17.58-15.6-29.79-23.82 0.84-4.02 0.9-9.28-1.16-13.83-0.51-1.11-7.48 0.45-7.58 1.36-0.2 1.9-0.76 3.55-1.55 4.5-4.18-6.97-9.98-12.63-15.86-18.58-5.19-5.26-0.57-22.72-10.75-34.96-25.07 15.4-37.35 13-45.71 18.52 11.05 12.82 32.61 19.42 42.08 22.92 2.5 0.93 8.06 11.53 15.79 26.29-2.3 0.81-7.07 0.93-6.89 2.43 1.22 10.55-3.79 17.45-0.81 18.29 8.2 2.32 15.33 4.65 20.53 12.95 5.52 8.8 11.09 17.27 16.31 26.55-5.09-3-10.29-6.4-14.89-7.26-0.25 7.59 1.3 14.33 3.63 20.72 0.36 1 1.55 0.11 6.06 0.02 3.33-0.07 0.88 6.07 4.53 8.56 1.85 1.26 12.46-5.62 14.95-3.59 11.74 9.55 25.1 22.7 37.97 30.46 12.86 7.76 19.61 15.81 27.02 17.39 6.36 1.35 10.81-3.32 8.19-3.43z" id="path4416" style="fill:#fff;stroke-linejoin:round;stroke-miterlimit:4;stroke:#000"/>
  <path id="path3612" d="m244.23 227.93a3.34 3.3 0 0 0 6.69 0 3.34 3.3 0 1 0-6.69 0z" fill="#000"/>
  <path id="path4406" d="m275.24 231.02c1.61-9.85 0.52-20.66-11.67-23.02" style="fill:none;stroke-linecap:round;stroke-miterlimit:4;stroke:#000"/>
  <path id="path4412" d="m253.97 241.15c-1.59-1.18-5.11-3.9-7.51-3.36" style="fill:none;stroke-linecap:round;stroke-miterlimit:4;stroke:#000"/>
  <path id="path4414" d="m313.38 200.42c4.18-3.11 10.56-5.25 20.1-4.81" style="fill:none;stroke-miterlimit:4;stroke:#000"/>
  <path d="m216.77 227.93a3.34 3.3 0 0 1-6.69 0 3.34 3.3 0 1 1 6.69 0z" id="path4418" fill="#000"/>
  <path d="m185.76 231.02c-1.61-9.85-0.52-20.66 11.67-23.02" id="path4420" style="fill:none;stroke-linecap:round;stroke-miterlimit:4;stroke:#000"/>
  <path d="m207.03 241.15c1.59-1.18 5.11-3.9 7.51-3.36" id="path4422" style="fill:none;stroke-linecap:round;stroke-miterlimit:4;stroke:#000"/>
  <path d="m147.62 200.42c-4.18-3.11-10.56-5.25-20.1-4.81" id="path4424" style="fill:none;stroke-miterlimit:4;stroke:#000"/>
  <path id="path4428" d="m237.31 268.2a3.3 3.34 49.18 0 0-5.06 4.37 3.3 3.34 49.18 1 0 5.06-4.37z" fill="#000"/>
  <path id="path4430" d="m211.82 286.13c5.22 8.51 13.11 15.98 23.88 9.8" style="fill:none;stroke-linecap:round;stroke-miterlimit:4;stroke:#000"/>
  <path id="path4432" d="m202.96 334.22c-1.13 5.08-4.56 10.87-12.07 16.77" style="fill:none;stroke-miterlimit:4;stroke:#000"/>
  <path id="path4434" d="m221.49 264.66c1.96-0.31 6.39-0.37 7.69-2.46" style="fill:none;stroke-linecap:round;stroke-miterlimit:4;stroke:#000"/>
</svg>
