<svg xmlns:dc="http://purl.org/dc/elements/1.1/" xmlns:cc="http://creativecommons.org/ns#" xmlns:rdf="http://www.w3.org/1999/02/22-rdf-syntax-ns#" xmlns:svg="http://www.w3.org/2000/svg" xmlns="http://www.w3.org/2000/svg" xml:space="preserve" enable-background="new 30.5 31.5 412 533" viewBox="30.5 31.5 400 500" height="500" width="400" y="0" x="0" version="1.1" id="svg2">
  <metadata id="metadata4">
    <rdf:RDF>
      <cc:Work rdf:about="">
        <dc:format>
          
          
          
          image/svg+xml
        
        
        
        </dc:format>
        <dc:type rdf:resource="http://purl.org/dc/dcmitype/StillImage"/>
      </cc:Work>
    </rdf:RDF>
  </metadata>
  <defs id="defs6"/>
  <path d="M230.44 531.14C156.12 477.22 105.18 409.12 74.7 322.98 47.06 244.88 35.97 150.23 40.79 33.63l0.02-0.46 379.82 0 0.02 0.46c4.81 116.6-6.28 211.24-33.91 289.35C356.26 409.12 305.32 477.22 231 531.14l-0.28 0.2-0.28-0.2z" id="path8" fill="#32ac60"/>
  <path d="M419.96 33.21C429.03 252.66 383.7 419.16 230.5 530.31 77.31 419.16 31.99 252.66 41.06 33.21l189.45 0 189.45 0m0.92-0.95-0.92 0-189.45 0-189.45 0-0.92 0-0.04 0.92c-4.82 116.66 6.28 211.36 33.93 289.52 30.51 86.24 81.51 154.41 155.91 208.39l0.56 0.41 0.56-0.41C305.46 477.11 356.46 408.94 386.97 322.7 414.62 244.54 425.72 149.84 420.9 33.18l-0.04-0.92 0 0z" id="path10"/>
  <path d="m246.29 466.2c3.83-24.74 8.14-59.49 8.78-91.33 1.05-51.97-6.7-98.81-8.79-155.9-0.06-1.52 3.24-2.67 4.28-3.85 1.85-2.12 3.14-7.56 2.97-13.98-0.14-5.19-0.31-9.76-2.29-11.66-2.17-2.09-4.51-2.34-4.95-4.32l0.46-13.13c26.34-1.46 51.09-3.33 77.03-8.04 4.01-0.73 9.07-6.22 9.6-11.44 1.67-16.64 1.31-33.69 0.09-50.91-0.26-3.71-2.72-10.31-9.7-11.55-25.61-4.55-51.24-6.99-76.86-9.7 0.07-8 0.09-10.92-3.23-12.71C240.09 65.75 235.15 65.75 230.5 65.75c-4.65 0-9.59 0-13.17 1.93-3.33 1.79-3.3 4.7-3.23 12.71-25.62 2.71-51.25 5.15-76.86 9.7-6.99 1.24-9.44 7.84-9.7 11.55-1.22 17.22-1.58 34.27 0.09 50.91 0.53 5.22 5.59 10.72 9.6 11.44 25.93 4.71 50.68 6.57 77.03 8.04l0.46 13.13c-0.44 1.99-2.77 2.24-4.95 4.32-1.98 1.9-2.16 6.47-2.29 11.66-0.17 6.43 1.12 11.86 2.97 13.98 1.03 1.18 4.33 2.33 4.28 3.85-2.09 57.08-9.84 103.93-8.79 155.9 0.64 31.84 4.96 66.6 8.78 91.33 0.55 3.54 8.98 3.54 15.79 3.54 6.81 0 15.24 0 15.79-3.54z" id="path4809" style="fill-rule:evenodd;fill:#ffe000;stroke:#000"/>
</svg>
