<?xml version="1.0" encoding="UTF-8" standalone="no"?>
<svg
   xmlns:dc="http://purl.org/dc/elements/1.1/"
   xmlns:cc="http://creativecommons.org/ns#"
   xmlns:rdf="http://www.w3.org/1999/02/22-rdf-syntax-ns#"
   xmlns:svg="http://www.w3.org/2000/svg"
   xmlns="http://www.w3.org/2000/svg"
   id="svg2"
   version="1.1"
   x="0"
   y="0"
   width="400"
   height="500"
   viewBox="30.5 31.5 400 500"
   enable-background="new 30.5 31.5 412 533"
   xml:space="preserve"><metadata
     id="metadata4"><rdf:RDF><cc:Work
         rdf:about=""><dc:format>
          
          
          
          image/svg+xml
        
        
        
        </dc:format><dc:type
           rdf:resource="http://purl.org/dc/dcmitype/StillImage" /><dc:title></dc:title></cc:Work></rdf:RDF></metadata><defs
     id="defs6" /><path
     id="path8"
     d="M 230.44,531.14 C 156.12,477.22 105.18,409.12 74.7,322.98 47.06,244.88 35.97,150.23 40.79,33.63 l 0.02,-0.46 379.82,0 0.02,0.46 c 4.81,116.6 -6.28,211.24 -33.91,289.35 C 356.26,409.12 305.32,477.22 231,531.14 l -0.28,0.2 -0.28,-0.2 z"
     style="fill:#32ac60" /><path
     id="path10"
     d="M 419.96,33.21 C 429.03,252.66 383.7,419.16 230.5,530.31 77.31,419.16 31.99,252.66 41.06,33.21 l 189.45,0 189.45,0 m 0.92,-0.95 -0.92,0 -189.45,0 -189.45,0 -0.92,0 -0.04,0.92 c -4.82,116.66 6.28,211.36 33.93,289.52 30.51,86.24 81.51,154.41 155.91,208.39 l 0.56,0.41 0.56,-0.41 C 305.46,477.11 356.46,408.94 386.97,322.7 414.62,244.54 425.72,149.84 420.9,33.18 l -0.04,-0.92 0,0 z" /><path
     style="fill:#ffe000;fill-opacity:1;stroke:#000000;stroke-width:0.97789216;stroke-linecap:round;stroke-linejoin:round;stroke-opacity:1"
     id="path2998"
     d="m 62.76565,106.08554 c -1.20962,-1.54219 -0.10842,-3.37325 0.99302,-4.39374 7.50561,-6.953917 19.84921,-15.263028 28.46815,-23.305701 1.23639,-1.153725 2.32139,-1.349057 3.75398,0.287896 l 8.54378,9.762564 c 4.67822,5.345605 7.0314,-8.249608 8.55237,-7.063611 6.39771,4.988733 9.21189,7.63957 9.02593,13.988826 -0.20582,7.027916 -3.36343,15.593226 8.22099,29.122806 11.05658,12.9131 27.81616,36.07256 32.26177,30.19605 3.75655,-4.96564 4.08042,-16.78671 5.99645,-13.90065 3.68967,5.55765 14.46409,12.39799 11.71644,16.62156 -3.75704,5.77515 -4.35566,9.35019 -4.80029,15.9032 -0.731,10.77363 17.65862,31.02483 32.60452,51.72186 1.56162,2.16253 -6.47789,8.49374 -14.89337,15.12543 -9.16214,7.22008 -18.88202,14.62819 -20.02614,13.07561 -10.02479,-13.60381 -13.08485,-19.66668 -26.02209,-26.40514 -9.26842,-4.82759 -19.2211,-3.11819 -21.1568,-5.18751 -4.60309,-4.92085 -12.08089,-12.22725 -7.90701,-12.53729 5.36091,-0.39822 8.82246,-1.32696 12.02037,-2.42591 2.3251,-0.79901 4.09946,-3.92656 1.86981,-7.12682 -7.01838,-10.07365 -23.01774,-28.71078 -27.08074,-32.32339 -3.70422,-3.29361 -8.00563,-6.66736 -13.26828,-4.98334 -1.15608,0.36994 -16.18112,-16.56415 -14.16285,-18.42502 3.52689,-3.25181 8.27873,-8.41862 5.40903,-12.0773 z" /><path
     style="fill:#ffe000;fill-opacity:1;stroke:#000000;stroke-linecap:round;stroke-linejoin:round;stroke-opacity:1"
     id="path3786"
     d="m 247.34985,221.69439 c 7.57974,-12.40574 16.36161,-19.79879 20.50068,-29.48776 2.18151,-5.10658 0.5419,-9.9389 -1.51483,-12.27349 -1.69324,-1.92199 12.15579,-18.98336 14.41075,-17.14443 2.6843,2.18906 4.48753,4.42508 7.30217,4.05057 3.63232,-0.4833 17.24286,-17.65987 25.22767,-30.31529 2.49955,-3.96164 8.69731,-11.86085 1.55702,-25.83643 -2.15485,-4.21765 8.19768,-17.37855 9.6168,-14.994634 5.2298,8.785314 11.76026,13.375084 16.48285,7.279434 l 18.62799,-25.829811 c 1.89531,-2.628053 13.66036,7.020761 19.39914,12.011998 6.01429,5.230856 17.25963,15.620383 15.28616,18.388453 -13.66575,19.16812 -31.68556,37.39282 -37.21756,51.06834 -0.74961,1.85309 3.98997,3.23252 5.88028,5.4566 2.20215,2.59097 -11.12493,21.36233 -14.82156,19.42492 -7.14532,-3.74488 -6.59925,-1.50732 -8.06572,0.15053 -10.7174,12.11651 -30.29446,32.69242 -24.70477,34.11958 l 13.74608,3.50964 c 3.487,0.89029 -4.99773,14.15312 -9.95654,13.57303 -6.76603,-0.7915 -14.33438,-1.98733 -19.80471,1.70829 -7.48648,5.05773 -11.28404,7.94596 -16.55606,15.63548 -1.82173,2.65708 -9.6643,-6.1393 -18.91994,-13.59124 -8.55131,-6.88486 -18.82657,-13.05645 -16.4759,-16.90378 z" /><path
     style="fill:#ffe000;fill-opacity:1;stroke:#000000;stroke-linecap:round;stroke-linejoin:round;stroke-opacity:1"
     id="path3806"
     d="m 205.29386,271.84078 c 0.13936,-3.66469 12.50265,-2.27392 23.94501,-2.40084 11.21088,-0.12436 21.13094,-1.1605 21.53027,1.40096 2.24929,14.42773 0.80947,22.05771 2.28858,31.77488 1.14702,7.53544 5.61155,7.34523 8.32679,9.34423 2.54852,1.87625 3.90192,15.16201 0.78761,14.58234 -3.52312,-0.65576 -9.3314,1.19865 -9.62346,3.5708 -1.64485,13.3597 -0.49828,30.70115 -1.14682,47.17919 -0.14882,3.78137 10.40892,10.44475 10.96953,14.46973 1.12417,8.07116 2.22928,17.40612 -1.74389,13.87985 -4.73756,-4.20466 -5.07805,-4.01116 -8.22499,-0.82096 -3.11058,3.15331 -0.68112,30.23894 -1.26172,48.22923 -0.13885,4.30246 -11.2064,3.56062 -22.36557,3.72655 -12.15439,0.18072 -23.1158,1.11527 -23.42825,-3.51856 -0.4601,-6.82362 -0.0505,-16.69652 -0.14684,-24.41455 -0.0578,-4.63016 -7.57237,-6.33069 -12.2924,-6.12482 -3.19166,0.1392 -3.19787,-4.0446 -2.77949,-9.51871 0.2858,-3.73943 14.41831,-6.9244 14.50168,-27.66899 l 0.26545,-66.04644 c 0.0347,-8.6434 -1.52296,-12.62316 -8.59729,-6.9793 -3.83412,3.05884 -4.71549,-14.07119 -2.84131,-14.99403 14.70146,-7.23901 11.65041,-20.76115 11.83711,-25.67056 z" /></svg>