<svg xmlns:dc="http://purl.org/dc/elements/1.1/" xmlns:cc="http://creativecommons.org/ns#" xmlns:rdf="http://www.w3.org/1999/02/22-rdf-syntax-ns#" xmlns:svg="http://www.w3.org/2000/svg" xmlns="http://www.w3.org/2000/svg" id="svg2" version="1.1" x="0" y="0" width="425" height="500" viewBox="30.5 31.5 425 500" enable-background="new 30.5 31.5 412 533" xml:space="preserve">
  <metadata id="metadata4">
    <rdf:RDF>
      <cc:Work rdf:about="">
        <dc:format>
          
          
          
          image/svg+xml
        
        
        
        </dc:format>
        <dc:type rdf:resource="http://purl.org/dc/dcmitype/StillImage"/>
      </cc:Work>
    </rdf:RDF>
  </metadata>
  <defs id="defs6"/>
  <path id="path8" d="M243.06 532.45C321.87 478.53 375.88 410.42 408.2 324.28 437.5 246.18 449.26 151.53 444.15 34.93l-0.02-0.46-402.73 0-0.02 0.46c-5.1 116.6 6.66 211.24 35.96 289.36 32.32 86.14 86.33 154.24 165.13 208.16l0.3 0.2 0.3-0.2z" fill="#fff"/>
  <path d="m243 266.1c-1.86 0-3.29 0.41-3.29 0.41l-39.21-98.17c4.84-3.07 6.72-7.94 6.72-11.97 0-4.03-1.87-8.9-6.72-11.97l39.21-96.17c0 0 1.43 0.41 3.29 0.41 1.86 0 3.29-0.41 3.29-0.41l39.21 96.17c-4.84 3.07-6.72 7.94-6.72 11.97 0 4.03 1.87 8.9 6.72 11.97l-39.21 98.17c0 0-1.43-0.41-3.29-0.41" id="path4171" style="fill-rule:evenodd;fill:#0085ca;stroke-width:0.99;stroke:#000"/>
  <path id="path4179" d="m343.5 265.75c-1.86 0-3.29 0.41-3.29 0.41l-39.21-98.02c4.84-3.07 6.72-7.93 6.72-11.95 0-4.02-1.87-8.89-6.72-11.95l39.21-96.02c0 0 1.43 0.41 3.29 0.41 1.86 0 3.29-0.41 3.29-0.41l39.21 96.02c-4.84 3.07-6.72 7.93-6.72 11.95 0 4.02 1.87 8.89 6.72 11.95l-39.21 98.02c0 0-1.43-0.41-3.29-0.41" style="fill-rule:evenodd;fill:#0085ca;stroke-width:0.99;stroke:#000"/>
  <path d="M430.86 242.35 400.73 168.36c4.84-3.07 6.71-7.95 6.71-11.97 0-4.03-1.87-8.9-6.71-11.97l39.17-96.19c0 0 1.43 0.41 3.28 0.41 0.57 0 1.09-0.04 1.55-0.09 0.86 43.66 2.02 120.1-13.88 193.81z" id="path4181" style="fill-rule:evenodd;fill:#0085ca"/>
  <path id="path4183" d="m142.5 265.99c-1.86 0-3.29 0.41-3.29 0.41L100 168.28c4.84-3.07 6.72-7.94 6.72-11.97 0-4.03-1.87-8.9-6.72-11.97l39.21-96.13c0 0 1.43 0.41 3.29 0.41 1.86 0 3.29-0.41 3.29-0.41L185 144.35c-4.84 3.07-6.72 7.94-6.72 11.97 0 4.03 1.87 8.9 6.72 11.97l-39.21 98.12c0 0-1.43-0.41-3.29-0.41" style="fill-rule:evenodd;fill:#0085ca;stroke-width:0.99;stroke:#000"/>
  <path id="path4185" d="m41.28 48.54c0.45 0.05 0.98 0.09 1.54 0.09 1.86 0 3.28-0.41 3.28-0.41l39.17 96.19c-4.84 3.07-6.71 7.95-6.71 11.97 0 4.03 1.87 8.9 6.71 11.97l-30.16 74.05C43.52 185.12 38.7 121.65 41.28 48.54Z" style="fill-rule:evenodd;fill:#0085ca"/>
  <path id="path4187" d="m293.25 388.72c-1.86 0-3.29 0.41-3.29 0.41l-39.21-97.64c4.84-3.05 6.72-7.9 6.72-11.91 0-4.01-1.87-8.85-6.72-11.91l39.21-97.64c0 0 1.43 0.41 3.29 0.41 1.86 0 3.29-0.41 3.29-0.41l39.21 97.64c-4.84 3.05-6.72 7.9-6.72 11.91 0 4.01 1.87 8.85 6.72 11.91l-39.21 97.64c0 0-1.43-0.41-3.29-0.41" style="fill-rule:evenodd;fill:#0085ca;stroke-width:0.99;stroke:#000"/>
  <path d="m192.75 388.91c-1.86 0-3.29 0.41-3.29 0.41l-39.21-97.66c4.84-3.05 6.72-7.9 6.72-11.91 0-4.01-1.87-8.85-6.72-11.91l39.21-97.65c0 0 1.43 0.41 3.29 0.41 1.86 0 3.29-0.41 3.29-0.41l39.21 97.65c-4.84 3.05-6.72 7.9-6.72 11.91 0 4.01 1.87 8.85 6.72 11.91l-39.21 97.66c0 0-1.43-0.41-3.29-0.41" id="path4191" style="fill-rule:evenodd;fill:#0085ca;stroke-width:0.99;stroke:#000"/>
  <path d="m41.28 48.54c0.45 0.05 0.98 0.09 1.54 0.09 1.86 0 3.28-0.41 3.28-0.41l39.17 96.19c-4.84 3.07-6.71 7.95-6.71 11.97 0 4.03 1.87 8.9 6.71 11.97l-30.35 74.44" id="path4252" style="fill:none;stroke-width:0.99;stroke:#000"/>
  <path id="path4193" d="m56.79 250.82 32.21-81c0 0 1.43 0.63 3.28 0.63 1.86 0 3.28-0.41 3.28-0.41l39.19 97.84c-4.84 3.06-6.71 7.92-6.71 11.93 0 4.01 1.87 8.87 6.71 11.93L101.09 374.1C78.15 330.63 66.95 294.38 56.79 250.82Z" style="fill-rule:evenodd;fill:#0085ca"/>
  <path d="m351.24 291.72c4.84-3.06 6.71-7.92 6.71-11.93 0-4.02-1.87-8.87-6.71-11.94l39.19-97.87c0 0 1.43 0.41 3.28 0.41 1.86 0 3.28-0.41 3.28-0.41l32.2 80.78c-10.06 45.95-26 89.44-44.28 123.36z" id="path4195" style="fill-rule:evenodd;fill:#0085ca"/>
  <path id="path4197" d="m321.21 463.6-20.12-49.08c4.83-3.05 6.7-7.88 6.7-11.88 0-4-1.87-8.83-6.7-11.88l39.11-97.39c0 0 1.43 0.41 3.28 0.41 1.85 0 3.28-0.41 3.28-0.41l34.91 87.14c-17.04 30.59-36.37 57.64-60.46 83.09z" style="fill-rule:evenodd;fill:#0085ca"/>
  <path d="m243 509.99c-1.86 0-3.29 0.41-3.29 0.41l-39.22-95.43c4.84-3.05 6.72-7.88 6.72-11.88 0-4-1.87-8.83-6.72-11.88l39.22-97.41c0 0 1.43 0.41 3.29 0.41 1.86 0 3.29-0.41 3.29-0.41l39.22 97.41c-4.84 3.05-6.72 7.88-6.72 11.88 0 4 1.87 8.83 6.72 11.88l-39.22 95.43c0 0-1.43-0.41-3.29-0.41" id="path4199" style="fill-rule:evenodd;fill:#0085ca;stroke-width:0.99;stroke:#000"/>
  <path id="path4201" d="m104.2 380.91 35.04-87.39c0 0 1.43 0.41 3.28 0.41 1.85 0 3.28-0.41 3.28-0.41l39.11 97.3c-4.83 3.04-6.7 7.87-6.7 11.87 0 3.99 1.87 8.82 6.7 11.87l-20.11 49c-30.89-33.49-43.68-53.66-60.61-82.65z" style="fill-rule:evenodd;fill:#0085ca"/>
  <path id="path4203" d="m393.75 142.3c-1.84 0-3.26 0.41-3.26 0.41L351.64 46.48c4.8-3.07 6.66-7.95 6.66-11.98 0-0.08 0-0.29 0-0.52 0-0.41-0.01-1.27-0.01-1.27l70.95 0.12c-0.01 0.03-0.02 1.43-0.02 1.67 0 4.03 1.86 8.91 6.66 11.98l-38.86 96.23c0 0-1.42-0.41-3.26-0.41" style="fill-rule:evenodd;fill:#0085ca"/>
  <path d="M88.99 142.89 50.14 46c4.8-3.03 6.66-7.84 6.66-11.81 0-0.16 0-1.08-0.01-1.24l70.97 0.08c-0.01 0.16-0.05 1.01-0.05 1.16 0 3.97 1.86 8.78 6.66 11.81L95.51 142.78c0 0-1.14-0.35-2.98-0.35-1.84 0-3.53 0.46-3.53 0.46z" id="path4209" style="fill-rule:evenodd;fill:#0085ca"/>
  <path d="m257.07 520.51c-0.02-0.08-0.05-0.16-0.07-0.24-0.9-2.87-2.8-5.72-6-7.77l38.82-96.13c0 0 1.42 0.41 3.25 0.41 1.84 0 3.25-0.41 3.25-0.41l20.73 51.33c-20.79 21.41-41.06 38.75-59.99 52.81" id="path4211" style="fill-rule:evenodd;fill:#0085ca"/>
  <path id="path4213" d="m168.99 468.68 20.68-52.09c0 0 1.42 0.4 3.25 0.4 1.84 0 3.25-0.4 3.25-0.4l38.83 96.06c-3.23 2.02-5.13 4.85-6.02 7.69-23.35-16.59-42.73-34.04-59.99-51.66z" style="fill-rule:evenodd;fill:#0085ca"/>
  <path d="m293.25 142.37c-1.84 0-3.26 0.41-3.26 0.41l-38.86-96.8c4.8-3.03 6.66-7.83 6.66-11.8-0.02 0.01 0.01-1.25 0.01-1.25l70.93-0.03-0.02 1.28c0 3.97 1.86 8.78 6.66 11.8l-38.86 96.8c0 0-1.42-0.41-3.26-0.41" id="path4205" style="fill-rule:evenodd;fill:#0085ca"/>
  <path id="path4223" d="m293.25 142.37c-1.84 0-3.26 0.41-3.26 0.41l-38.86-96.8c4.8-3.03 6.66-7.83 6.66-11.8-0.02 0.01-0.03-1.17-0.03-1.17m70.96-0.03-0.02 1.2c0 3.97 1.86 8.78 6.66 11.8l-38.86 96.8c0 0-1.42-0.41-3.26-0.41" style="fill:none;stroke-width:0.98;stroke:#000"/>
  <path id="path4215" d="m385.03 374.38-33.79-82.66c4.84-3.06 6.71-7.92 6.71-11.93 0-4.02-1.87-8.87-6.71-11.94l39.19-97.87c0 0 1.43 0.41 3.28 0.41 1.86 0 3.28-0.41 3.28-0.41l32.4 81.16" style="fill:none;stroke-width:0.99;stroke:#000"/>
  <path id="path4217" d="M431.02 242.7 400.73 168.36c4.84-3.07 6.71-7.95 6.71-11.97 0-4.03-1.87-8.9-6.71-11.97l39.17-96.19c0 0 1.43 0.41 3.28 0.41 0.57 0 1.09-0.04 1.55-0.09" style="fill:none;stroke-width:0.99;stroke:#000"/>
  <path d="m393.75 142.3c-1.84 0-3.26 0.41-3.26 0.41L351.64 46.48c4.8-3.07 6.66-7.95 6.66-11.98 0-0.69-0.13-1.48-0.13-1.48m71.1-0.07c0 0-0.06 1.31-0.06 1.56 0 4.03 1.86 8.91 6.66 11.98l-38.86 96.23c0 0-1.42-0.41-3.26-0.41" id="path4219" style="fill:none;stroke-width:0.99;stroke:#000"/>
  <path id="path4246" d="m192.75 142.3c-1.84 0-3.26 0.4-3.26 0.4L150.63 46.23c4.8-3.02 6.66-7.81 6.66-11.76 0-0.23-0.01-1.41-0.02-1.65l70.99 0.19c-0.01 0.25-0.06 1.21-0.06 1.45 0 3.96 1.86 8.75 6.66 11.76L196.01 142.7c0 0-1.42-0.4-3.26-0.4" style="fill-rule:evenodd;fill:#0085ca"/>
  <path d="m192.75 142.3c-1.84 0-3.26 0.4-3.26 0.4L150.63 46.23c4.8-3.02 6.66-7.81 6.66-11.76 0-0.23-0.04-1.45-0.06-1.68m71.03 0.16c-0.01 0.25-0.06 1.29-0.06 1.53 0 3.96 1.86 8.75 6.66 11.76L196.01 142.7c0 0-1.42-0.4-3.26-0.4" id="path4248" style="fill:none;stroke-width:0.98;stroke:#000"/>
  <path id="path4250" d="m127.71 32.91c-0.01 0.16-0.01 1.12-0.01 1.28 0 3.97 1.86 8.78 6.66 11.81L95.51 142.78c0 0-1.14-0.35-2.98-0.35-1.84 0-3.53 0.46-3.53 0.46L50.14 46c2.98-1.88 4.83-4.45 5.8-7.07 0.59-1.61 0.86-3.23 0.86-4.74 0-0.16 0-1-0.01-1.16" style="fill:none;stroke-width:0.98;stroke:#000"/>
  <path d="m56.63 251.31 32.37-81.5c0 0 1.43 0.63 3.28 0.63 1.86 0 3.28-0.41 3.28-0.41l39.19 97.84c-4.84 3.06-6.71 7.92-6.71 11.93 0 4.01 1.87 8.87 6.71 11.93l-33.83 82.67" id="path4254" style="fill:none;stroke-width:0.99;stroke:#000"/>
  <path d="m104.2 380.91 35.04-87.39c0 0 1.43 0.41 3.28 0.41 1.85 0 3.28-0.41 3.28-0.41l39.11 97.3c-4.83 3.04-6.7 7.87-6.7 11.87 0 3.99 1.87 8.82 6.7 11.87l-20.26 49.31" id="path4256" style="fill:none;stroke-width:0.98;stroke:#000"/>
  <path d="m168.87 468.91 20.8-52.31c0 0 1.42 0.4 3.25 0.4 1.84 0 3.25-0.4 3.25-0.4l38.83 96.06c-3.23 2.02-5.21 5.08-6.1 7.91" id="path4258" style="fill:none;stroke-width:0.97;stroke:#000"/>
  <path d="m321.32 463.83-20.24-49.31c4.83-3.05 6.7-7.88 6.7-11.88 0-4-1.87-8.83-6.7-11.88l39.11-97.39c0 0 1.43 0.41 3.28 0.41 1.85 0 3.28-0.41 3.28-0.41l35.07 87.56" id="path4260" style="fill:none;stroke-width:0.99;stroke:#000"/>
  <path id="path4262" d="m257.07 520.51c-0.02-0.08-0.05-0.16-0.07-0.24-0.9-2.87-2.8-5.72-6-7.77l38.82-96.13c0 0 1.42 0.41 3.25 0.41 1.84 0 3.25-0.41 3.25-0.41 6.91 17.11 13.82 34.22 20.73 51.33" style="fill:none;stroke-width:0.99;stroke:#000"/>
  <path id="path10" d="M42.11 33.2C32.5 252.65 80.56 419.16 243 530.31 405.43 419.16 453.48 252.65 443.87 33.2l-200.88 0-200.88 0M41.14 32.25l0.98 0 200.88 0 200.88 0 0.98 0 0.04 0.92C449.99 149.83 438.23 244.53 408.91 322.7 376.56 408.94 322.48 477.11 243.59 531.09L243 531.5 242.41 531.09C163.52 477.11 109.44 408.94 77.09 322.7 47.77 244.53 36.01 149.83 41.12 33.17l0.04-0.92 0 0z"/>
</svg>
