<svg xmlns:dc="http://purl.org/dc/elements/1.1/" xmlns:cc="http://creativecommons.org/ns#" xmlns:rdf="http://www.w3.org/1999/02/22-rdf-syntax-ns#" xmlns:svg="http://www.w3.org/2000/svg" xmlns="http://www.w3.org/2000/svg" id="svg2" height="500" width="400" version="1">
  <metadata id="metadata51">
    <rdf:RDF>
      <cc:Work rdf:about="">
        <dc:format>
          image/svg+xml
        </dc:format>
        <dc:type rdf:resource="http://purl.org/dc/dcmitype/StillImage"/>
      </cc:Work>
    </rdf:RDF>
  </metadata>
  <defs id="defs4">
    <clipPath id="clipPath2516">
      <path id="path2518" d="M0 0 0 0 0 0 0 0Z"/>
    </clipPath>
    <clipPath id="clipPath2500">
      <path id="path2502" d="M0 0 0 0 0 0 0 0Z"/>
    </clipPath>
  </defs>
  <path d="m396.64 1.45-393.73 0 0 301.05 0 0c0 0.03 0 0.06 0 0.09 0 108.73 88.14 196.86 196.86 196.86 108.72 0 196.87-88.14 196.87-196.86 0-0.03 0-0.06 0-0.09l0 0 0-301.05z" id="path2418" style="fill-rule:nonzero;fill:#32ac60"/>
  <path id="path4300" d="m396.64 1.45-393.73 0 0 301.05 0 0c0 0.03 0 0.06 0 0.09 0 108.73 88.14 196.86 196.86 196.86 108.72 0 196.87-88.14 196.87-196.86 0-0.03 0-0.06 0-0.09l0 0 0-301.05z" style="fill:none;stroke:#000"/>
  <path id="path3923" d="m101.57 315.28c10.64 11.47 39.42 15.17 60.44 0.84 19.64-13.39 44.7-59.2 24.99-91.05-3.53-5.7-11.34-16.2-22.32-16.51-4.2 0.75-4.88-1.75-1.79-6.69 3.82-6.08 8.85-9.99 15.17-13.39 4.59-2.47 6.87-2.7 11.16 0.89 17.75 16.29 39.14 25.91 66.39 29.93 7.92 1.17 15.84 5.08 15.76 22.29-0.02 3.14-2.91 6.66-6.72 1.79-8.17-6.13-29.09-22.41-52.56-0.34-13.5 12.69-35.58 62.13 4.65 99.05 13.06 11.99 27.5 17.74 40.44 16.55-1.53 3.42-5.56 7.39-3.99 9.68 1.75 2.56 6.69-2.32 10.13-3.85 2.98 3.81 5.81 9.16 8.79 9.4 2.96 0.22 3.25-5.55 5.19-9.79 3.05 1.53 10.43 3.99 11.49 2.59 1.57-2.09-3.1-8.33-4.32-12.47 17.18 0.31 29.72 2.24 42.01-14.75 9.86-13.63 36.03-66.33 4.57-90.04-14.28-10.77-34.3-4.85-48.54-0.45 0.24-5.24-0.12-10.74-1.67-15.73-1.69-5.42-1.1-10.46 4.13-8.93 9.13 2.68 29.15 5.39 25.72-1.73-4.04-7.05-8.32-22.6-14.47-22.56-50.13 0.28-85.56-15.06-116.8-50.8-3.05-3.49 9.02-10.2 11.79-4.88 9.47 18.19 55.27 33.24 68.99-9.4C238 132.29 242.65 99.8 212 101.01c-10.61 0.42-26.02 10.11-24.55 32.13 0.21 3.2-6.46 7.25-11.6 1.34-3.5-4.03 1.67-13.55-7.67-14.25-6.25-0.25-6.48-8.78 0.5-8.29 45.35 3.14 16.63-42.76 27.54-57.52-28.05-14.1-88.27 20.73-47.6 51.98 15.7 12.07-0.39 20.48-5.76 14.8-29.76-31.43-70.59-11.55-76.04 19.9 25.61-1.4 23.18 23.74 51.9 18.37 10.31-1.93 17.49-5.4 26.41-26.59 1.33-3.17 11.38-2.66 11.97-0.89 5.04 15.06 8.76 29.09 17.85 43.55 2.45 3.9-6.86 5.61-12.36 10.4-6.59 5.74-11.06 13.39-11.87 12.33-4.26-11.63-10.45-19.42-28.09-21.81-29.54-4-80.04 23.42-73.59 85.37 1.15 11.02 10.1 22.55 27.43 33.16 2.76 1.69-3.36 3.77-5.83 7.11-1.64 2.22 5.37 2.15 7.9 2.91 3.9 1.17 1.34 5.74 1 8.9-0.48 4.43 10.89-1.05 12.1 4.31 0.82 3.63-1.69 8.34 0.6 8.87 3 0.69 5.37-5.9 9.32-11.81z" style="fill:#ffe000;stroke:#000"/>
</svg>
