<?xml version="1.0" encoding="UTF-8" standalone="no"?>
<svg
   xmlns:dc="http://purl.org/dc/elements/1.1/"
   xmlns:cc="http://creativecommons.org/ns#"
   xmlns:rdf="http://www.w3.org/1999/02/22-rdf-syntax-ns#"
   xmlns:svg="http://www.w3.org/2000/svg"
   xmlns="http://www.w3.org/2000/svg"
   xml:space="preserve"
   enable-background="new 30.5 31.5 412 533"
   viewBox="30.5 31.5 430 500"
   height="500"
   width="430"
   y="0"
   x="0"
   version="1.1"
   id="svg2"><metadata
     id="metadata4"><rdf:RDF><cc:Work
         rdf:about=""><dc:format>
          
          
          
          
          image/svg+xml
        
        
        
        
        </dc:format><dc:type
           rdf:resource="http://purl.org/dc/dcmitype/StillImage" /><dc:title></dc:title></cc:Work></rdf:RDF></metadata><defs
     id="defs6" /><path
     d="M 459,33 C 465.85658,263.03474 416.09411,431.01297 245.5,530.75 74.905891,431.01297 25.143421,263.03474 32.000001,33 165,33 112.5,33.29 245.5,33 c 133,0.29 80.5,0 213.5,0 z"
     id="path4526"
     style="fill:#ffe000;fill-opacity:1;stroke:none" /><path
     style="fill:#32ac60;fill-opacity:1;fill-rule:evenodd;stroke:none;stroke-width:1px;stroke-linecap:butt;stroke-linejoin:miter;stroke-opacity:1"
     d="M 132.94589,435.78628 C 100.58651,394.9584 75.828551,349.95479 57.838941,288.65999 l 17.72236,-37.09353 29.085999,-61.096 c 1.65209,-3.47028 -2.01339,-6.70129 -5.386299,-3.53958 -9.0054,8.44152 -13.99337,13.55065 -22.62244,17.54395 -6.98152,3.23086 -16.76568,5.00213 -22.77634,-7.69471 -3.9169,-8.274 -3.33997,-24.18733 0,-34.01061 2.39724,-7.0506 9.0247,-14.71931 20.92961,-9.38755 8.9424,4.00497 15.80221,11.66717 23.39191,18.00561 4.214319,3.51953 8.407489,-1.68396 5.386299,-4.9246 C 94.743521,156.99532 84.023241,146.89023 83.409901,135.06855 82.988591,126.948 90.283961,119.5 110.1973,119.5 c 19.91334,0 27.20871,7.448 26.7874,15.56855 -0.61334,11.82168 -11.33362,21.92677 -20.16014,31.39442 -3.02119,3.24064 1.17198,8.44413 5.3863,4.9246 7.5897,-6.33844 14.44951,-14.00064 23.39191,-18.00561 11.90491,-5.33176 18.53237,2.33695 20.92961,9.38755 3.33997,9.82328 3.9169,25.73661 0,34.01061 -6.01066,12.69684 -15.79482,10.92557 -22.77634,7.69471 -8.62907,-3.9933 -13.61704,-9.10243 -22.62244,-17.54395 -3.37291,-3.16171 -7.03839,0.0693 -5.3863,3.53958 l 29.086,61.096 27.46535,57.69179 c 1.65209,3.47028 -2.01339,6.70129 -5.3863,3.53958 -9.0054,-8.44152 -13.99337,-13.55065 -22.62244,-17.54395 -6.98152,-3.23086 -16.76568,-5.00213 -22.77634,7.69471 -3.9169,8.274 -3.33997,24.18733 0,34.01061 2.39724,7.0506 9.0247,14.71931 20.92961,9.38755 8.9424,-4.00497 15.80221,-11.66717 23.39191,-18.00561 4.21432,-3.51953 8.40749,1.68396 5.3863,4.9246 -8.82652,9.46765 -19.5468,19.57274 -20.16014,31.39442 -0.42131,8.12055 6.87406,15.56855 26.7874,15.56855 19.91334,0 27.20871,-7.448 26.7874,-15.56855 -0.61334,-11.82168 -11.33362,-21.92677 -20.16014,-31.39442 -3.02119,-3.24064 1.17198,-8.44413 5.3863,-4.9246 7.5897,6.33844 14.44951,14.00064 23.39191,18.00561 11.90491,5.33176 18.53237,-2.33695 20.92961,-9.38755 3.33997,-9.82328 3.9169,-25.73661 0,-34.01061 -6.01066,-12.69684 -15.79482,-10.92557 -22.77634,-7.69471 -8.62907,3.9933 -13.61704,9.10243 -22.62244,17.54395 -3.37291,3.16171 -7.03839,-0.0693 -5.3863,-3.53958 l 27.46535,-57.69179 29.086,-61.096 c 1.65209,-3.47028 -2.01339,-6.70129 -5.3863,-3.53958 -9.0054,8.44152 -13.99337,13.55065 -22.62244,17.54395 -6.98152,3.23086 -16.76568,5.00213 -22.77634,-7.69471 -3.9169,-8.274 -3.33997,-24.18733 0,-34.01061 2.39724,-7.0506 9.0247,-14.71931 20.92961,-9.38755 8.9424,4.00497 15.80221,11.66717 23.39191,18.00561 4.21432,3.51953 8.40749,-1.68396 5.3863,-4.9246 -8.82652,-9.46765 -19.5468,-19.57274 -20.16014,-31.39442 C 218.29129,126.948 225.58666,119.5 245.5,119.5 c 19.91334,0 27.20871,7.448 26.7874,15.56855 -0.61334,11.82168 -11.33362,21.92677 -20.16014,31.39442 -3.02119,3.24064 1.17198,8.44413 5.3863,4.9246 7.5897,-6.33844 14.44951,-14.00064 23.39191,-18.00561 11.90491,-5.33176 18.53237,2.33695 20.92961,9.38755 3.33997,9.82328 3.9169,25.73661 0,34.01061 -6.01066,12.69684 -15.79482,10.92557 -22.77634,7.69471 -8.62907,-3.9933 -13.61704,-9.10243 -22.62244,-17.54395 -3.37291,-3.16171 -7.03839,0.0693 -5.3863,3.53958 l 29.086,61.096 27.46535,57.69179 c 1.65209,3.47028 -2.01339,6.70129 -5.3863,3.53958 -9.0054,-8.44152 -13.99337,-13.55065 -22.62244,-17.54395 -6.98152,-3.23086 -16.76568,-5.00213 -22.77634,7.69471 -3.9169,8.274 -3.33997,24.18733 0,34.01061 2.39724,7.0506 9.0247,14.71931 20.92961,9.38755 8.9424,-4.00497 15.80221,-11.66717 23.39191,-18.00561 4.21432,-3.51953 8.40749,1.68396 5.3863,4.9246 -8.82652,9.46765 -19.5468,19.57274 -20.16014,31.39442 -0.42131,8.12055 6.87406,15.56855 26.7874,15.56855 19.91334,0 27.20871,-7.448 26.7874,-15.56855 -0.61334,-11.82168 -11.33362,-21.92677 -20.16014,-31.39442 -3.02119,-3.24064 1.17198,-8.44413 5.3863,-4.9246 7.5897,6.33844 14.44951,14.00064 23.39191,18.00561 11.90491,5.33176 18.53237,-2.33695 20.92961,-9.38755 3.33997,-9.82328 3.9169,-25.73661 0,-34.01061 -6.01066,-12.69684 -15.79482,-10.92557 -22.77634,-7.69471 -8.62907,3.9933 -13.61704,9.10243 -22.62244,17.54395 -3.37291,3.16171 -7.03839,-0.0693 -5.3863,-3.53958 l 27.46535,-57.69179 29.086,-61.096 c 1.65209,-3.47028 -2.01339,-6.70129 -5.3863,-3.53958 -9.0054,8.44152 -13.99337,13.55065 -22.62244,17.54395 -6.98152,3.23086 -16.76568,5.00213 -22.77634,-7.69471 -3.9169,-8.274 -3.33997,-24.18733 0,-34.01061 2.39724,-7.0506 9.0247,-14.71931 20.92961,-9.38755 8.9424,4.00497 15.80221,11.66717 23.39191,18.00561 4.21432,3.51953 8.40749,-1.68396 5.3863,-4.9246 -8.82652,-9.46765 -19.5468,-19.57274 -20.16014,-31.39442 C 353.59399,126.948 360.88936,119.5 380.8027,119.5 c 19.91334,0 27.20871,7.448 26.7874,15.56855 -0.61334,11.82168 -11.33362,21.92677 -20.16014,31.39442 -3.02119,3.24064 1.17198,8.44413 5.3863,4.9246 7.5897,-6.33844 14.44951,-14.00064 23.39191,-18.00561 11.90491,-5.33176 18.53237,2.33695 20.92961,9.38755 3.33997,9.82328 3.9169,25.73661 0,34.01061 -6.01066,12.69684 -15.79482,10.92557 -22.77634,7.69471 -8.62907,-3.9933 -13.61704,-9.10243 -22.62244,-17.54395 -3.37291,-3.16171 -7.03839,0.0693 -5.3863,3.53958 l 29.086,61.096 17.72236,37.09353 C 415.17145,349.95479 390.41349,394.9584 358.05411,435.78628 324.62645,475.94647 288.89564,505.46673 245.5,530.75 202.10436,505.46673 166.37355,475.94647 132.94589,435.78628 Z"
     id="path4544" /><path
     id="path4536"
     d="m 57.838941,288.65999 17.72236,-37.09353 29.085999,-61.096 c 1.65209,-3.47028 -2.01339,-6.70129 -5.386299,-3.53958 -9.0054,8.44152 -13.99337,13.55065 -22.62244,17.54395 -6.98152,3.23086 -16.76568,5.00213 -22.77634,-7.69471 -3.9169,-8.274 -3.33997,-24.18733 0,-34.01061 2.39724,-7.0506 9.0247,-14.71931 20.92961,-9.38755 8.9424,4.00497 15.80221,11.66717 23.39191,18.00561 4.214319,3.51953 8.407489,-1.68396 5.386299,-4.9246 C 94.743521,156.99532 84.023241,146.89023 83.409901,135.06855 82.988591,126.948 90.283961,119.5 110.1973,119.5 c 19.91334,0 27.20871,7.448 26.7874,15.56855 -0.61334,11.82168 -11.33362,21.92677 -20.16014,31.39442 -3.02119,3.24064 1.17198,8.44413 5.3863,4.9246 7.5897,-6.33844 14.44951,-14.00064 23.39191,-18.00561 11.90491,-5.33176 18.53237,2.33695 20.92961,9.38755 3.33997,9.82328 3.9169,25.73661 0,34.01061 -6.01066,12.69684 -15.79482,10.92557 -22.77634,7.69471 -8.62907,-3.9933 -13.61704,-9.10243 -22.62244,-17.54395 -3.37291,-3.16171 -7.03839,0.0693 -5.3863,3.53958 l 29.086,61.096 27.46535,57.69179 c 1.65209,3.47028 -2.01339,6.70129 -5.3863,3.53958 -9.0054,-8.44152 -13.99337,-13.55065 -22.62244,-17.54395 -6.98152,-3.23086 -16.76568,-5.00213 -22.77634,7.69471 -3.9169,8.274 -3.33997,24.18733 0,34.01061 2.39724,7.0506 9.0247,14.71931 20.92961,9.38755 8.9424,-4.00497 15.80221,-11.66717 23.39191,-18.00561 4.21432,-3.51953 8.40749,1.68396 5.3863,4.9246 -8.82652,9.46765 -19.5468,19.57274 -20.16014,31.39442 -0.42131,8.12055 6.87406,15.56855 26.7874,15.56855 19.91334,0 27.20871,-7.448 26.7874,-15.56855 -0.61334,-11.82168 -11.33362,-21.92677 -20.16014,-31.39442 -3.02119,-3.24064 1.17198,-8.44413 5.3863,-4.9246 7.5897,6.33844 14.44951,14.00064 23.39191,18.00561 11.90491,5.33176 18.53237,-2.33695 20.92961,-9.38755 3.33997,-9.82328 3.9169,-25.73661 0,-34.01061 -6.01066,-12.69684 -15.79482,-10.92557 -22.77634,-7.69471 -8.62907,3.9933 -13.61704,9.10243 -22.62244,17.54395 -3.37291,3.16171 -7.03839,-0.0693 -5.3863,-3.53958 l 27.46535,-57.69179 29.086,-61.096 c 1.65209,-3.47028 -2.01339,-6.70129 -5.3863,-3.53958 -9.0054,8.44152 -13.99337,13.55065 -22.62244,17.54395 -6.98152,3.23086 -16.76568,5.00213 -22.77634,-7.69471 -3.9169,-8.274 -3.33997,-24.18733 0,-34.01061 2.39724,-7.0506 9.0247,-14.71931 20.92961,-9.38755 8.9424,4.00497 15.80221,11.66717 23.39191,18.00561 4.21432,3.51953 8.40749,-1.68396 5.3863,-4.9246 -8.82652,-9.46765 -19.5468,-19.57274 -20.16014,-31.39442 C 218.29129,126.948 225.58666,119.5 245.5,119.5 c 19.91334,0 27.20871,7.448 26.7874,15.56855 -0.61334,11.82168 -11.33362,21.92677 -20.16014,31.39442 -3.02119,3.24064 1.17198,8.44413 5.3863,4.9246 7.5897,-6.33844 14.44951,-14.00064 23.39191,-18.00561 11.90491,-5.33176 18.53237,2.33695 20.92961,9.38755 3.33997,9.82328 3.9169,25.73661 0,34.01061 -6.01066,12.69684 -15.79482,10.92557 -22.77634,7.69471 -8.62907,-3.9933 -13.61704,-9.10243 -22.62244,-17.54395 -3.37291,-3.16171 -7.03839,0.0693 -5.3863,3.53958 l 29.086,61.096 27.46535,57.69179 c 1.65209,3.47028 -2.01339,6.70129 -5.3863,3.53958 -9.0054,-8.44152 -13.99337,-13.55065 -22.62244,-17.54395 -6.98152,-3.23086 -16.76568,-5.00213 -22.77634,7.69471 -3.9169,8.274 -3.33997,24.18733 0,34.01061 2.39724,7.0506 9.0247,14.71931 20.92961,9.38755 8.9424,-4.00497 15.80221,-11.66717 23.39191,-18.00561 4.21432,-3.51953 8.40749,1.68396 5.3863,4.9246 -8.82652,9.46765 -19.5468,19.57274 -20.16014,31.39442 -0.42131,8.12055 6.87406,15.56855 26.7874,15.56855 19.91334,0 27.20871,-7.448 26.7874,-15.56855 -0.61334,-11.82168 -11.33362,-21.92677 -20.16014,-31.39442 -3.02119,-3.24064 1.17198,-8.44413 5.3863,-4.9246 7.5897,6.33844 14.44951,14.00064 23.39191,18.00561 11.90491,5.33176 18.53237,-2.33695 20.92961,-9.38755 3.33997,-9.82328 3.9169,-25.73661 0,-34.01061 -6.01066,-12.69684 -15.79482,-10.92557 -22.77634,-7.69471 -8.62907,3.9933 -13.61704,9.10243 -22.62244,17.54395 -3.37291,3.16171 -7.03839,-0.0693 -5.3863,-3.53958 l 27.46535,-57.69179 29.086,-61.096 c 1.65209,-3.47028 -2.01339,-6.70129 -5.3863,-3.53958 -9.0054,8.44152 -13.99337,13.55065 -22.62244,17.54395 -6.98152,3.23086 -16.76568,5.00213 -22.77634,-7.69471 -3.9169,-8.274 -3.33997,-24.18733 0,-34.01061 2.39724,-7.0506 9.0247,-14.71931 20.92961,-9.38755 8.9424,4.00497 15.80221,11.66717 23.39191,18.00561 4.21432,3.51953 8.40749,-1.68396 5.3863,-4.9246 -8.82652,-9.46765 -19.5468,-19.57274 -20.16014,-31.39442 C 353.59399,126.948 360.88936,119.5 380.8027,119.5 c 19.91334,0 27.20871,7.448 26.7874,15.56855 -0.61334,11.82168 -11.33362,21.92677 -20.16014,31.39442 -3.02119,3.24064 1.17198,8.44413 5.3863,4.9246 7.5897,-6.33844 14.44951,-14.00064 23.39191,-18.00561 11.90491,-5.33176 18.53237,2.33695 20.92961,9.38755 3.33997,9.82328 3.9169,25.73661 0,34.01061 -6.01066,12.69684 -15.79482,10.92557 -22.77634,7.69471 -8.62907,-3.9933 -13.61704,-9.10243 -22.62244,-17.54395 -3.37291,-3.16171 -7.03839,0.0693 -5.3863,3.53958 l 29.086,61.096 17.72236,37.09353"
     style="fill:none;fill-rule:evenodd;stroke:#000000;stroke-width:1px;stroke-linecap:butt;stroke-linejoin:miter;stroke-opacity:1" /><path
     style="fill:none;fill-opacity:1;stroke:#000000"
     id="path4546"
     d="M 459,33 C 465.85658,263.03474 416.09411,431.01297 245.5,530.75 74.905891,431.01297 25.143421,263.03474 32.000001,33 165,33 112.5,33.29 245.5,33 c 133,0.29 80.5,0 213.5,0 z" /></svg>