<?xml version="1.0" encoding="UTF-8" standalone="no"?>
<svg
   xmlns:dc="http://purl.org/dc/elements/1.1/"
   xmlns:cc="http://creativecommons.org/ns#"
   xmlns:rdf="http://www.w3.org/1999/02/22-rdf-syntax-ns#"
   xmlns:svg="http://www.w3.org/2000/svg"
   xmlns="http://www.w3.org/2000/svg"
   xml:space="preserve"
   enable-background="new 30.5 31.5 412 533"
   viewBox="30.5 31.5 400 500"
   height="500"
   width="400"
   y="0"
   x="0"
   version="1.1"
   id="svg2"><metadata
     id="metadata4"><rdf:RDF><cc:Work
         rdf:about=""><dc:format>
          
          
          
          
          image/svg+xml
        
        
        
        
        </dc:format><dc:type
           rdf:resource="http://purl.org/dc/dcmitype/StillImage" /><dc:title></dc:title></cc:Work></rdf:RDF></metadata><defs
     id="defs6" /><path
     fill="#e00e00"
     id="path4148"
     d="M230.45 531.13C156.13 477.21 105.19 409.11 74.71 322.97 47.07 244.87 35.98 150.22 40.8 33.62l0.02-0.46 379.82 0 0.02 0.46c4.81 116.6-6.28 211.24-33.91 289.35-30.48 86.14-81.42 154.24-155.74 208.16l-0.28 0.2-0.28-0.2z" /><path
     d="M419.96 33.21C429.03 252.66 383.71 419.16 230.51 530.31 146.04 469.02 94.36 390.9 66.52 296.34 64.43 289.25 62.48 282.07 60.65 274.8 49.2 229.11 42.88 179.78 40.77 126.86 39.57 96.8 39.72 65.58 41.06 33.21l189.45 0 189.45 0m0.92-0.95-0.92 0-189.45 0-189.45 0-0.92 0-0.04 0.92c-4.82 116.66 6.28 211.36 33.93 289.52 30.51 86.24 81.51 154.41 155.91 208.39l0.56 0.41 0.56-0.41C305.46 477.11 356.46 408.94 386.97 322.7 414.62 244.54 425.72 149.84 420.9 33.18l-0.04-0.92 0 0z"
     id="path10" /><path
     style="fill:#f9f9f9;fill-opacity:1;stroke:#000000;stroke-linejoin:round;stroke-opacity:1"
     id="path3632"
     d="m 147.1582,409.91647 c -4.15049,-1.29288 18.94829,-5.87204 18.21233,-20.17832 -0.38197,-7.42506 -10.22622,-12.1904 -19.73368,-14.42922 -11.94518,-2.81285 -15.3082,-1.17409 -16.98768,-2.67818 -1.43488,-1.28503 6.29659,-6.16152 22.76089,-2.88857 7.16053,1.42344 19.92805,12.28488 24.23279,9.46564 21.0681,-13.79784 35.99761,-17.72255 36.22473,-21.17434 1.20308,-18.28481 -0.80981,-57.11071 -1.15638,-87.30243 -0.0579,-5.04203 -12.15245,-16.72944 -21.06103,-18.31635 -12.61519,-2.24717 -30.2102,15.53712 -30.59987,25.99142 21.42332,-1.54613 29.96993,19.04185 25.79407,32.14464 -6.45328,20.24876 -24.70965,21.91578 -35.94078,44.13047 -20.47465,-17.48873 -31.73269,-27.42472 -32.12374,-50.05587 -0.0241,-19.55648 17.90216,-31.21138 34.5164,-25.9912 6.16596,-16.38989 19.3648,-29.42339 30.36449,-32.1691 -11.62539,-7.44244 -20.86956,-12.03275 -33.3781,-15.63952 -9.33598,-2.69198 -14.74775,-6.8255 -18.83227,-6.28877 -2.84785,0.37422 -5.34571,3.2459 -5.72166,6.2571 19.37188,4.13445 15.14475,27.07098 4.73929,35.9408 -11.8101,10.06718 -26.99537,6.99003 -32.905124,27.19711 -24.381019,-21.62205 -32.726001,-48.82577 -13.762649,-70.16662 11.592967,-13.04641 32.056593,-7.39007 36.994003,1.70228 3.07367,-1.82559 5.59875,-5.77492 6.34034,-7.21933 -5.0299,-6.413 -12.85218,-14.64706 -19.02384,-20.51909 -7.687024,14.85086 -32.421536,7.07705 -39.764293,-3.17362 -11.05024,-15.42641 -9.519845,-30.67368 -5.956322,-56.31364 25.827989,10.0402 33.870013,-0.93335 52.670795,13.5632 19.56525,15.08601 9.54864,41.88704 -3.75368,41.48794 4.3973,2.67083 21.17805,26.22453 33.56351,29.5458 19.02076,5.10058 48.06273,19.00649 69.90785,36.394 1.59279,1.26777 3.37104,-23.03058 4.17616,-31.50208 0.40088,-4.21809 -10.16115,-12.3489 -16.13866,-14.11269 -2.37583,14.79468 -19.26341,17.22354 -31.88787,8.60914 -21.81694,-14.88695 -13.0641,-33.10434 -22.59619,-50.93802 21.91762,1.36598 35.85371,-7.66723 56.56997,3.88712 14.23844,7.94139 16.3013,29.60975 -0.98378,34.02141 9.58556,3.17443 19.40291,11.69367 19.4139,11.63995 1.18644,-9.93644 4.57223,-25.34937 4.43059,-28.06678 -0.79563,-15.2641 -26.58507,-39.5 -74.54373,-34.51852 -31.79734,3.3028 -48.21568,-25.72793 -63.505726,-46.36014 -12.646395,15.60973 -28.463291,3.92088 -34.212779,-5.39293 -9.370111,-15.178983 1.900826,-38.063094 -3.960623,-51.812894 16.521954,7.147018 39.228944,-9.651575 55.624378,13.636724 8.79925,12.498571 2.89777,36.91131 -13.799567,38.89645 15.723017,27.849 37.451027,46.28858 58.097917,45.14015 l -3.98268,-12.19022 c -21.43224,8.43853 -32.52929,-16.24448 -31.59876,-28.19075 1.42715,-18.321942 21.08303,-39.322067 37.21932,-50.89142 6.00711,22.58069 28.51235,30.142866 28.69983,50.90916 0.15739,17.4345 -12.53697,31.16943 -27.55957,27.3014 0.99877,3.55859 2.03624,9.70093 3.96303,13.05135 19.62063,-1.51468 52.31824,0.84137 70.95727,22.62503 -0.80652,-11.09512 -2.84144,-32.38067 -4.82842,-45.68779 -15.40135,1.4678 -29.28912,-6.59466 -29.14868,-27.76475 0.18501,-27.888019 27.05357,-40.939584 37.9913,-45.584093 4.34191,10.62051 9.9976,15.597496 15.26976,19.735907 7.26206,5.700396 14.67433,13.321348 15.16727,24.885516 0.30335,7.11643 -4.00294,16.25956 -8.68949,20.96576 -10.76846,10.81361 -23.13516,5.8913 -23.13516,5.8913 1.4009,7.10754 1.25402,34.34347 4.14073,49.98396 1.01235,5.48504 1.93456,8.9212 5.32683,5.75687 14.36368,-20.87414 40.66674,-32.61452 53.59047,-49.33062 -18.44057,-1.08547 -25.92236,-21.14256 -14.6379,-37.681394 10.685,-15.660236 34.90684,-16.248114 46.99887,-32.798693 15.07153,12.660199 26.87343,35.790659 11.12644,60.699527 -15.40755,24.37193 -32.53682,16.43785 -36.91366,11.69593 -5.69894,9.61257 -18.87799,18.52752 -24.14976,22.10866 43.00805,-2.55022 69.82944,-27.18163 91.51197,-56.90067 -20.37207,1.28231 -21.06178,-25.304804 -11.84708,-34.425481 17.90457,-17.721874 35.56414,-4.370361 55.00665,-13.582444 2.92332,19.341073 7.94043,41.19501 -6.33808,55.370845 -12.20491,14.7577 -33.42455,4.07076 -32.89867,-4.78205 -17.65239,28.30168 -49.66528,57.75322 -97.43505,62.89242 -6.80173,0.73175 -31.44666,21.9437 -31.90608,33.0323 -0.34757,8.38914 -1.85329,19.9632 1.3533,23.20704 2.18688,2.21228 13.61224,-8.14958 16.21413,-12.628 -12.64351,-4.79005 -7.54562,-21.38563 -0.65183,-27.93093 7.00064,-6.64675 16.38451,-10.00069 27.2485,-11.13596 10.77556,-1.12602 18.41717,2.42137 35.076,1.35921 -10.53031,20.39021 -4.40535,38.15025 -25.96164,50.88124 -13.16506,7.77519 -30.14426,3.15521 -32.59542,-7.65509 -3.69653,4.30492 -15.95496,14.42351 -15.92542,18.90799 l 0.12711,19.29758 c 0.0123,1.86404 12.46477,-5.69202 23.86165,-11.76003 14.8021,-7.88105 31.26505,-14.69926 47.66005,-23.96183 14.45091,-8.16423 23.85927,-21.77679 32.26626,-37.87284 -8.96726,1.33801 -17.87882,-8.66043 -17.41684,-17.46585 1.50386,-25.02469 37.26314,-45.78918 65.89988,-38.40013 -6.60184,24.81538 5.24047,29.76698 -0.5475,49.38057 -7.4463,25.23309 -40.19039,15.49743 -41.73598,6.99861 -5.43134,12.68824 -16.79979,27.87964 -26.30412,37.34895 -0.89811,0.8948 7.44332,3.11347 9.0745,0.54749 15.89124,-24.99809 44.14536,-8.45437 49.05774,4.34155 6.47078,16.85526 4.29441,36.4188 -6.15817,53.59704 -15.85575,-10.55887 -25.07374,-10.5061 -35.46106,-13.21483 -10.85634,-2.83104 -18.51725,-7.08354 -25.17537,-15.41567 -3.81597,-4.7754 -6.10494,-17.74157 3.0597,-22.95599 -11.57212,2.72137 -46.55756,20.24132 -59.05432,28.07488 -4.3197,2.70779 7.17537,3.74378 13.00952,5.33842 11.78562,3.22135 23.1761,12.03133 27.0492,20.51424 7.70736,-16.87999 34.68954,-12.46234 40.23721,4.98941 2.0978,6.5992 5.02414,18.62545 3.1012,29.6122 -1.78953,10.22445 -7.39193,22.29386 -12.21807,31.65766 -5.49563,-9.42032 -20.36845,-12.35034 -29.19084,-14.81448 -11.2542,-3.14337 -21.92217,-8.87456 -28.14421,-20.99609 -6.8543,-13.35327 3.44125,-29.55002 19.34669,-28.59895 -10.33983,-19.80886 -45.96945,-23.00111 -49.83852,-12.24035 -0.90104,2.506 6.12013,61.62856 6.16645,85.49561 0.0102,5.26149 24.58188,8.48657 41.48627,26.31257 2.39932,2.53012 9.83787,1.37905 24.40496,-12.57499 6.856,-6.56747 20.75709,-7.07829 32.11842,-2.80867 3.37083,1.26677 -1.67817,2.79561 -4.00424,2.79661 -28.11418,0.0121 -22.96817,16.45319 -43.06602,23.11342 -6.02217,1.99568 1.69746,17.272 9.2767,22.18455 2.26232,1.46635 -4.28803,4.01755 -11.7788,-1.35788 -7.85283,-5.63523 -6.21256,-14.67885 -18.36546,-25.31444 -5.57599,-4.87981 -16.06772,-7.28815 -23.02366,-7.45693 -6.16188,-0.14951 -7.19001,3.43909 -1.36034,5.43268 15.73492,5.38092 10.69813,20.99703 24.39199,29.29109 11.03347,6.68272 10.99759,10.29425 13.87041,18.43427 1.12386,3.1844 -0.32052,4.65328 -3.4322,1.52541 -26.64681,-26.78545 -34.3534,11.44774 -36.12623,26.38154 -0.52529,4.42483 -3.52871,-0.32244 -3.94068,-2.0339 -3.40283,-14.13638 1.18683,-25.19142 7.73,-43.66967 1.61504,-4.56095 -1.02111,-11.99062 -6.58524,-16.301 -6.43812,-4.98743 -17.32036,-5.14214 -17.67019,6.85992 -0.26549,9.10826 5.38426,12.93376 5.59665,19.5876 0.57184,17.91485 -17.1434,26.38326 -13.10903,58.83717 0.0586,0.19885 -0.81782,0.92507 -1.21571,0.60192 -12.05756,-9.79278 -10.95005,-29.61169 -4.44317,-50.32949 2.54486,-8.10278 -6.24223,-12.87363 -3.29769,-28.0542 2.83334,-14.6073 -10.65411,-16.82544 -17.17108,-5.04573 -5.89944,10.66351 -2.07987,16.11096 2.78581,22.48187 3.98864,5.22256 6.43865,23.4832 -5.02486,36.64041 -4.18553,4.80393 6.14156,-30.08477 -11.41378,-33.34143 -13.48291,-2.50119 -19.29617,6.23491 -24.43368,14.39336 -2.20588,3.50298 -3.15013,-3.86253 2.23041,-11.75368 5.14297,-7.5427 15.98499,-7.63715 18.68297,-13.82345 5.11735,-11.73375 5.29237,-25.07696 24.03282,-35.99676 3.21007,-1.87046 -2.55888,-5.21114 -7.8644,-3.66117 -32.88438,9.607 -33.54575,41.88747 -56.91581,34.60765 z" /><path
     id="path4365"
     d="m 91.364663,107.21944 c -4.792765,0.50444 -7.819288,-3.4646 -7.895135,-7.21789"
     style="fill:none;fill-rule:evenodd;stroke:#000000;stroke-width:1px;stroke-linecap:round;stroke-linejoin:miter;stroke-opacity:1" /><path
     id="path4367"
     d="m 152.24072,139.29776 c -5.88702,-1.65439 -8.21573,-12.58592 -4.42997,-16.87184"
     style="fill:none;fill-rule:evenodd;stroke:#000000;stroke-width:1px;stroke-linecap:round;stroke-linejoin:miter;stroke-opacity:1" /><path
     id="path4369"
     d="m 229.7876,127.41599 c -6.00493,-2.44715 -6.90867,-10.26784 -4.73605,-15.65224"
     style="fill:none;fill-rule:evenodd;stroke:#000000;stroke-width:1px;stroke-linecap:round;stroke-linejoin:miter;stroke-opacity:1" /><path
     id="path4371"
     d="m 299.41938,135.74157 c -5.18443,-4.43792 -2.65484,-15.55785 3.28447,-17.76419"
     style="fill:none;fill-rule:evenodd;stroke:#000000;stroke-width:1px;stroke-linecap:round;stroke-linejoin:miter;stroke-opacity:1" /><path
     id="path4388"
     d="m 109.30723,193.2929 c -5.90252,0.0103 -10.890906,-5.19103 -11.418835,-10.77777"
     style="fill:none;fill-rule:evenodd;stroke:#000000;stroke-width:1px;stroke-linecap:round;stroke-linejoin:miter;stroke-opacity:1" /><path
     id="path4390"
     d="m 201.91822,209.19758 c -3.79819,0.85507 -8.03935,-1.33822 -9.00898,-3.82509"
     style="fill:none;fill-rule:evenodd;stroke:#000000;stroke-width:1px;stroke-linecap:round;stroke-linejoin:miter;stroke-opacity:1" /><path
     id="path4392"
     d="m 118.79423,225.46744 c -5.88967,3.13801 -8.34447,6.66411 -9.33115,9.937"
     style="fill:none;fill-rule:evenodd;stroke:#000000;stroke-width:1px;stroke-linecap:round;stroke-linejoin:miter;stroke-opacity:1" /><path
     id="path4394"
     d="m 151.29625,278.63416 c -1.46899,4.53474 -1.43207,9.37731 -0.34262,12.09939"
     style="fill:none;fill-rule:evenodd;stroke:#000000;stroke-width:1px;stroke-linecap:round;stroke-linejoin:miter;stroke-opacity:1" /><path
     id="path4396"
     d="m 305.33315,278.85281 c 2.60432,2.95639 5.18964,9.09716 4.01416,12.28447"
     style="fill:none;fill-rule:evenodd;stroke:#000000;stroke-width:1px;stroke-linecap:round;stroke-linejoin:miter;stroke-opacity:1" /><path
     id="path4398"
     d="m 324.32875,224.92527 c 7.60837,-1.31305 18.61753,-1.11219 23.24571,3.26247"
     style="fill:none;fill-rule:evenodd;stroke:#000000;stroke-width:1px;stroke-linecap:round;stroke-linejoin:miter;stroke-opacity:1" /><path
     id="path4400"
     d="m 262.04632,215.55266 c -0.79408,-5.33935 5.30775,-9.7265 8.5293,-10.01804"
     style="fill:none;fill-rule:evenodd;stroke:#000000;stroke-width:1px;stroke-linecap:round;stroke-linejoin:miter;stroke-opacity:1" /><path
     id="path4402"
     d="m 356.23553,180.67673 c -1.92823,-5.74679 2.24784,-12.02072 5.38822,-16.41872"
     style="fill:none;fill-rule:evenodd;stroke:#000000;stroke-width:1px;stroke-linecap:round;stroke-linejoin:miter;stroke-opacity:1" /><path
     id="path4404"
     d="m 370.70441,103.53043 c -0.12106,-5.524328 3.25092,-11.755803 6.9348,-13.220972"
     style="fill:none;fill-rule:evenodd;stroke:#000000;stroke-width:1px;stroke-linecap:round;stroke-linejoin:miter;stroke-opacity:1" /></svg>