<svg xmlns:dc="http://purl.org/dc/elements/1.1/" xmlns:cc="http://creativecommons.org/ns#" xmlns:rdf="http://www.w3.org/1999/02/22-rdf-syntax-ns#" xmlns:svg="http://www.w3.org/2000/svg" xmlns="http://www.w3.org/2000/svg" xml:space="preserve" enable-background="new 30.5 31.5 412 533" viewBox="30.5 31.5 400 500" height="500" width="400" y="0" x="0" version="1.1" id="svg2">
  <metadata id="metadata4">
    <rdf:RDF>
      <cc:Work rdf:about="">
        <dc:format>
          
          
          
          image/svg+xml
        
        
        
        </dc:format>
        <dc:type rdf:resource="http://purl.org/dc/dcmitype/StillImage"/>
      </cc:Work>
    </rdf:RDF>
  </metadata>
  <defs id="defs6"/>
  <path fill="#fff" d="M230.44 531.14C156.12 477.22 105.18 409.12 74.7 322.98 47.06 244.88 35.97 150.23 40.79 33.63l0.02-0.46 379.82 0 0.02 0.46c4.81 116.6-6.28 211.24-33.91 289.35C356.26 409.12 305.32 477.22 231 531.14l-0.28 0.2-0.28-0.2z" id="path8" style="fill-opacity:1;fill:#32ac60"/>
  <path d="M419.96 33.21C429.03 252.66 383.7 419.16 230.5 530.31 77.31 419.16 31.99 252.66 41.06 33.21l189.45 0 189.45 0m0.92-0.95-0.92 0-189.45 0-189.45 0-0.92 0-0.04 0.92c-4.82 116.66 6.28 211.36 33.93 289.52 30.51 86.24 81.51 154.41 155.91 208.39l0.56 0.41 0.56-0.41C305.46 477.11 356.46 408.94 386.97 322.7 414.62 244.54 425.72 149.84 420.9 33.18l-0.04-0.92 0 0z" id="path10"/>
  <path id="path4205" d="m52.99 101.01c-4.19 1.15 3.71 23.68 8.01 21.72L115.83 97.78c3.19-1.45 8.52-4.21 11.21-1.79 1.7 1.53 1.96 3.75 6.35 3.63l0 75.01c0 4.95 2.79 9.89 2.77 14.63l-0.62 186.67c-0.02 4.65 16.45 4.44 16.33-0.31 0 0-1.64-53.18-2.16-79.78-1.01-52.16-1.72-139.87-1.85-148.49-0.09-6.01 3.18-11.96 6.86-17.29 0.91-1.32 2.4-3.23 2.84-5.34 0.39-1.91-0.63-3.34-1.33-4.53l-0.69-12.52 3.54-0.76c2.41-0.52 0.52-10.74-0.38-20.92-0.88-9.91-1.01-20.17-3.22-19.45l-2.69 0.88-0.62-3.08c-0.51-2.54-19.64 1.64-19.41 5.55l0.31 5.08C106.03 86.49 80.1 93.55 52.99 101.01Z" style="fill-opacity:1;fill-rule:evenodd;fill:#ffe000;stroke:#000"/>
  <path id="path4207" d="m133.39 99.63c17.81-4.68 20.37 2.77 22.16 8.06M133.08 74.98l19.72-7.55M133.08 74.98l19.72-7.55M133.08 74.98l19.72-7.55" style="fill:none;stroke:#000"/>
  <path id="path4209" d="m133.08 74.98 19.72-7.55" style="fill:none;stroke:#000"/>
  <path d="m162.98 190.39c-4.19 1.15 3.71 23.68 8.01 21.72l54.83-24.95c3.19-1.45 8.52-4.21 11.21-1.79 1.7 1.53 1.96 3.75 6.35 3.63l0 75.01c0 4.95 2.79 9.89 2.77 14.63l-0.62 186.67c-0.02 4.65 16.45 4.44 16.33-0.31 0 0-1.64-53.18-2.16-79.78-1.01-52.16-1.72-139.87-1.85-148.49-0.09-6.01 3.18-11.96 6.86-17.29 0.91-1.32 2.4-3.23 2.84-5.34 0.39-1.91-0.63-3.34-1.33-4.53l-0.69-12.52 3.54-0.76c2.41-0.52 0.52-10.74-0.38-20.92-0.88-9.91-1.01-20.17-3.22-19.45l-2.69 0.88-0.62-3.08c-0.51-2.54-19.64 1.64-19.41 5.55l0.31 5.08c-27.04 11.5-52.97 18.57-80.09 26.03z" id="path4229" style="fill-opacity:1;fill-rule:evenodd;fill:#ffe000;stroke:#000"/>
  <path d="m243.38 189c17.81-4.68 20.37 2.77 22.16 8.06M243.07 164.36l19.72-7.55M243.07 164.36l19.72-7.55M243.07 164.36l19.72-7.55" id="path4231" style="fill:none;stroke:#000"/>
  <path d="m243.07 164.36 19.72-7.55" id="path4233" style="fill:none;stroke:#000"/>
  <path d="m240.99 101.01c-4.19 1.15 3.71 23.68 8.01 21.72L303.83 97.78c3.19-1.45 8.52-4.21 11.21-1.79 1.7 1.53 1.96 3.75 6.35 3.63l0 75.01c0 4.95 2.79 9.89 2.77 14.63l-0.62 186.67c-0.02 4.65 16.45 4.44 16.33-0.31 0 0-1.64-53.18-2.16-79.78-1.01-52.16-1.72-139.87-1.85-148.49-0.09-6.01 3.18-11.96 6.86-17.29 0.91-1.32 2.4-3.23 2.84-5.34 0.39-1.91-0.63-3.34-1.33-4.53l-0.69-12.52 3.54-0.76c2.41-0.52 0.52-10.74-0.38-20.92-0.88-9.91-1.01-20.17-3.22-19.45l-2.69 0.88-0.62-3.08c-0.51-2.54-19.64 1.64-19.41 5.55l0.31 5.08C294.04 86.49 268.11 93.55 240.99 101.01Z" id="path4235" style="fill-opacity:1;fill-rule:evenodd;fill:#ffe000;stroke:#000"/>
  <path d="m321.39 99.63c17.81-4.68 20.37 2.77 22.16 8.06M321.08 74.98l19.72-7.55M321.08 74.98l19.72-7.55M321.08 74.98l19.72-7.55" id="path4237" style="fill:none;stroke:#000"/>
  <path d="m321.08 74.98 19.72-7.55" id="path4239" style="fill:none;stroke:#000"/>
</svg>
