<svg xmlns:dc="http://purl.org/dc/elements/1.1/" xmlns:cc="http://creativecommons.org/ns#" xmlns:rdf="http://www.w3.org/1999/02/22-rdf-syntax-ns#" xmlns:svg="http://www.w3.org/2000/svg" xmlns="http://www.w3.org/2000/svg" id="svg2" version="1.1" x="0" y="0" width="400" height="500" viewBox="30.5 31.5 400 500" enable-background="new 30.5 31.5 412 533" xml:space="preserve">
  <metadata id="metadata4">
    <rdf:RDF>
      <cc:Work rdf:about="">
        <dc:format>
          
          
          
          
          
          
          image/svg+xml
        
        
        
        
        
        
        </dc:format>
        <dc:type rdf:resource="http://purl.org/dc/dcmitype/StillImage"/>
      </cc:Work>
    </rdf:RDF>
  </metadata>
  <defs id="defs6"/>
  <path fill="#e00e00" id="path8" d="M230.44 531.14C156.12 477.22 105.18 409.12 74.7 322.98 47.06 244.88 35.97 150.23 40.79 33.63l0.02-0.46 379.82 0 0.02 0.46c4.81 116.6-6.28 211.24-33.91 289.35C356.26 409.12 305.32 477.22 231 531.14l-0.28 0.2z"/>
  <path id="path10" d="M419.96 33.21C429.03 252.66 383.7 419.16 230.5 530.31 77.31 419.16 31.99 252.66 41.06 33.21l189.45 0 189.45 0m0.92-0.95-0.92 0-189.45 0-189.45 0-0.92 0-0.04 0.92c-4.82 116.66 6.28 211.36 33.93 289.52 30.51 86.24 81.51 154.41 155.91 208.39l0.56 0.41 0.56-0.41C305.46 477.11 356.46 408.94 386.97 322.7 414.62 244.54 425.72 149.84 420.9 33.18l-0.04-0.92 0 0z"/>
  <path d="m202.34 259.55 0 96.05c0 10.62-13.6 10.26-13.06-1.46-9.5 0.83-17.1 10.56-17.24 20.98-0.16 12.42 8.69 21.06 18.96 21.81 16.08 1.16 20.78-17.5 21.77-26.41 0.68-6.11 9.98-4.72 8.68 1.22-2.19 9.98-8.59 19.55-8.52 31.54 0.07 11.34 7.25 16.54 17.58 25.22 10.33-8.68 17.51-13.88 17.58-25.22 0.07-11.99-6.33-21.55-8.52-31.54-1.3-5.94 8-7.33 8.68-1.22 0.99 8.91 5.7 27.57 21.77 26.41 10.27-0.74 19.11-9.39 18.96-21.81-0.13-10.43-7.73-20.16-17.24-20.98 0.53 11.72-13.06 12.08-13.06 1.46 0-32.02 0-64.03 0-96.05l57.16 0c10.62 0 10.26 13.6-1.46 13.06 0.83 9.5 10.56 17.1 20.98 17.24 12.42 0.16 21.06-8.69 21.81-18.96 1.16-16.08-17.5-20.78-26.41-21.77-6.11-0.68-4.72-9.98 1.22-8.68 9.98 2.19 19.55 8.59 31.54 8.52 11.34-0.07 16.54-7.25 25.22-17.58-8.68-10.33-13.88-17.51-25.22-17.58-11.99-0.07-21.55 6.33-31.54 8.52-5.94 1.3-7.33-8-1.22-8.68 8.91-0.99 27.57-5.7 26.41-21.77-0.74-10.27-9.39-19.11-21.81-18.96-10.43 0.13-20.16 7.73-20.98 17.24 11.72-0.53 12.08 13.06 1.46 13.06l-57.16 0 0-57.16c0-10.62 13.6-10.26 13.06 1.46 9.5-0.83 17.1-10.56 17.24-20.98 0.16-12.42-8.69-21.06-18.96-21.81-16.08-1.16-20.78 17.5-21.77 26.41-0.68 6.11-9.98 4.72-8.68-1.22 2.19-9.98 8.59-19.55 8.52-31.54C248.01 87.04 240.83 81.85 230.5 73.17c-10.33 8.68-17.51 13.88-17.58 25.22-0.07 11.99 6.33 21.55 8.52 31.54 1.3 5.94-8 7.33-8.68 1.22-0.99-8.91-5.7-27.57-21.77-26.41-10.27 0.74-19.11 9.39-18.96 21.81 0.13 10.43 7.73 20.16 17.24 20.98-0.53-11.72 13.06-12.08 13.06-1.46l0 57.16-57.16 0c-10.62 0-10.26-13.6 1.46-13.06-0.83-9.5-10.56-17.1-20.98-17.24-12.42-0.16-21.06 8.69-21.81 18.96-1.16 16.08 17.5 20.78 26.41 21.77 6.11 0.68 4.72 9.98-1.22 8.68-9.98-2.19-19.55-8.59-31.54-8.52-11.34 0.07-16.54 7.25-25.22 17.58 8.68 10.33 13.88 17.51 25.22 17.58 11.99 0.07 21.55-6.33 31.54-8.52 5.94-1.3 7.33 8 1.22 8.68-8.91 0.99-27.57 5.7-26.41 21.77 0.74 10.27 9.39 19.11 21.81 18.96 10.43-0.13 20.16-7.73 20.98-17.24-11.72 0.53-12.08-13.06-1.46-13.06z" id="path4186" style="fill-rule:evenodd;fill:#ffe000;stroke-miterlimit:4;stroke:#000"/>
</svg>
