<svg xmlns:dc="http://purl.org/dc/elements/1.1/" xmlns:cc="http://creativecommons.org/ns#" xmlns:rdf="http://www.w3.org/1999/02/22-rdf-syntax-ns#" xmlns:svg="http://www.w3.org/2000/svg" xmlns="http://www.w3.org/2000/svg" id="svg2" height="500" width="400" version="1">
  <metadata id="metadata51">
    <rdf:RDF>
      <cc:Work rdf:about="">
        <dc:format>
          image/svg+xml
        </dc:format>
        <dc:type rdf:resource="http://purl.org/dc/dcmitype/StillImage"/>
      </cc:Work>
    </rdf:RDF>
  </metadata>
  <defs id="defs4">
    <clipPath id="clipPath2516">
      <path id="path2518" d="M0 0 0 0 0 0 0 0Z"/>
    </clipPath>
    <clipPath id="clipPath2500">
      <path id="path2502" d="M0 0 0 0 0 0 0 0Z"/>
    </clipPath>
  </defs>
  <path d="m396.64 1.45-393.73 0 0 301.05 0 0c0 0.03 0 0.06 0 0.09 0 108.73 88.14 196.86 196.86 196.86 108.72 0 196.87-88.14 196.87-196.86 0-0.03 0-0.06 0-0.09l0 0 0-301.05z" id="path2418" style="fill-rule:nonzero;fill:#0085ca"/>
  <path id="path4300" d="m396.64 1.45-393.73 0 0 301.05 0 0c0 0.03 0 0.06 0 0.09 0 108.73 88.14 196.86 196.86 196.86 108.72 0 196.87-88.14 196.87-196.86 0-0.03 0-0.06 0-0.09l0 0 0-301.05z" style="fill:none;stroke:#000"/>
  <path id="path3053" d="m197.09 362.95c-2.76 0.33-4.97 3.4-2.81 5.05 5.95 4.56 9.61 12.99 8.51 20.13-0.44 2.88 3.23 1.84 7.26 2.5 12.91 2.11 15.19 12.36 13.89 22.39-3.2 24.77-22.52 27.75-30.54 49.47-49.05-30.55-46.47-53.42-34.94-67.45 7.7-9.37 19.98-13.64 30.4-7.62 5.82 3.37 5.53-6.36 3.78-8.97-20.53-30.73-58.76-26.54-77.5-47.94-2.74-3.12-8.58-0.5-8.16 4.27 0.52 5.95-4.29 8.31-5.83 13.35-2.08 6.86 16.64 6.9 6.21 34.42-5.7 15.06-33.52 3.07-52.36 14.2-18.29-32.24-5.54-60.87 15.66-67.61 7.96-2.53 16.73 1.53 19.42 10.29 2.06 6.71 7.24-0.47 7.77-5.24 0.76-6.83-0.28-10.97-3.16-16.68-10.36-20.57-32.36-36.6-33.35-88.17-1.33-70.12 61.92-139.18 141.77-134.97 3.49 0.18 3.02-5.26 0.97-5.44-57.55-5.05-86.03 28.3-127.2 5.86-4.93-2.55-7.83 2.01-11.65 7.54-10.34 14.94-35.59-8.38-32.84-31.47 1.33-11.11 2.98-34.25-1.69-39.8 22.25-0.12 43.92-0.03 58.24 15.41 11.61 12.76 9.3 30.56-0.85 34.8-9.41 3.93-4.39 7.99-0.73 9.61 36.82 16.21 64.61-16.87 132.45-12.62 22.95 1.44 44.67 9.24 69.14 27.38 5.19 3.85 7.6-0.17 8.32-2.03 2.66-6.89 5.4-14.28 10.76-20.11 3.88-4.21-3.65-6.84-4.99-11.64-7.23-25.97 6.94-35.9 27.17-37.5 13.42-1.06 23.91 8.79 42.44 0.99-1.18 25.1-5.12 44.67-11.5 56.8-12.29 23.38-38.34 19.73-41.72 0.11 0.28-3.33-2.93-9.11-6.52-4.39-11.41 14.97-4.02 39.47-0.71 45.81 13.77 26.29 22.2 60.17 21.6 89.28-0.88 42.54-19.19 82.13-54.78 109.84-3.81 2.96-0.99 7.14 5.63 6.41 7.6-0.84 8.28 3.91 10.74 6.82 6.6 7.82 9.29-8.83 22.92-6.35 22.22 4.04 9.51 35.73 9.55 56.23 0.01 3.97 2.93 5.09 2.64 10.97-41.25 6.63-58.41-11.45-58.04-30.4 0.32-16.39 5.85-18.93 11.32-24.51 6.96-7.11-21.9-9.72-32.79-3.54-18.78 10.65-35.95 12.4-53.92 14.57z" style="fill:#fff;stroke:#000"/>
  <path id="path3051" d="m294.51 214.12c-18.9 7.79-48.86-15.79-54.15 19.92-0.31 2.12-8.84 1.91-12.8 2-3.65 0.08-4.68-0.93-3.39-3.24 4.25-7.63 3.74-16.77 2.49-26.14 17.21-13.66 16.57-28.83 9.85-36.79-8.46-10.03-26.11-10.46-32.89-22.65-38.29 38.9-14.57 79.37 5.91 67.54 11.07-6.39 11.56-1.52 11.52 3.73-0.15 17.42-16.6 27.53-37.35 19.3-61.38-24.36-32.29-109.42 39.84-107.68 61.59 1.48 88.35 56.62 89.32 101.77 1.43 66.07-58.65 112.75-113.6 110.49-72.36-3-122.48-44.87-121.67-112.69 0.9-75.84 74.27-111.46 100.83-115.46 6.13-0.92 10.59 2.53 3.73 5.91-25.6 12.62-42.35 41.77-45.31 80.15-0.51 6.56-8.11 12.38-9.32 21.09-0.55 3.99-9.69-5.64-14.15-5.69-21.98-0.25-27.01 48.33 5.29 62.25 6.27-21.57 21.6-17.67 23.96-37.04 1.39-11.37-2.69-14.55-11.2-15.3-2.45-0.22 2.72-11.25 5.58-15.43 1.88-2.76 8.68-2.68 9 0.92 1.45 16.42 23.15 36.99 40.2 42.11 4.12 2.75 6.03 10.35 4.36 15.22-28.49-6.38-44.23 37.22 6.79 59.33 1.7-5.91 7.34-12.04 15.22-21.07 10.32-11.82 11.35-43.15-16.1-38.41 0.12-4.03-1.31-9.95-3.97-14.31 9.26-0.54 16.4-4.35 22.6-8.53 4.74-3.19 21.5-7.07 28.37-4.23 5.1 6.9-7.92 3.46-2.8 16.96 6.41 16.9 60.25 24.89 53.84-44.04z" style="fill:#0085ca;stroke:#000"/>
</svg>
