<svg xmlns:dc="http://purl.org/dc/elements/1.1/" xmlns:cc="http://creativecommons.org/ns#" xmlns:rdf="http://www.w3.org/1999/02/22-rdf-syntax-ns#" xmlns:svg="http://www.w3.org/2000/svg" xmlns="http://www.w3.org/2000/svg" id="svg2" version="1.1" x="0" y="0" width="400" height="500" viewBox="30.5 31.5 400 500" enable-background="new 30.5 31.5 412 533" xml:space="preserve">
  <metadata id="metadata4">
    <rdf:RDF>
      <cc:Work rdf:about="">
        <dc:format>
          
          
          
          
          image/svg+xml
        
        
        
        
        </dc:format>
        <dc:type rdf:resource="http://purl.org/dc/dcmitype/StillImage"/>
      </cc:Work>
    </rdf:RDF>
  </metadata>
  <defs id="defs6"/>
  <path d="M230.55 531.13C304.87 477.21 355.81 409.11 386.29 322.97 413.93 244.87 425.02 150.22 420.2 33.62l-0.02-0.46-379.82 0-0.02 0.46c-4.81 116.6 6.28 211.24 33.91 289.35 30.48 86.14 81.42 154.24 155.74 208.16l0.28 0.2 0.28-0.2z" id="path4148" fill="#0085ca"/>
  <path id="path10" d="m41.04 33.21c-9.07 219.45 36.25 385.95 189.45 497.1 84.47-61.29 136.15-139.41 163.99-233.97 2.09-7.09 4.04-14.27 5.87-21.54 11.45-45.69 17.77-95.02 19.88-147.94 1.2-30.06 1.05-61.28-0.29-93.65l-189.45 0-189.45 0m-0.92-0.95 0.92 0 189.45 0 189.45 0 0.92 0 0.04 0.92c4.82 116.66-6.28 211.36-33.93 289.52-30.51 86.24-81.51 154.41-155.91 208.39l-0.56 0.41-0.56-0.41C155.54 477.11 104.54 408.94 74.03 322.7 46.38 244.54 35.28 149.84 40.1 33.18l0.04-0.92 0 0z"/>
  <path id="path4251" d="m56.53 67.13 129.6 73.24c12.43 7.02 31.64 6.87 46-2.55 8.26-5.42 16.73-10.44 19.08-22.8 2.68-14.12-14.84-24.59-25.08-5.51-9.37-12.96-6.68-27.66 7.21-39.3 17.5-14.67 56.55-9.13 88.56-1.25 25 6.16 49.51 17.8 72.24 34.96-4.92 6.48-18.02 9.77-31.29 7.04l-63.7-13.08c-18.8-3.86-11.19 9.33-2.46 12.18l90.06 29.43c-8.4 8.24-18.77 12.54-37.86 7.24l-59.17-17.69c-8.33-2.49-17.34 5.93-4.85 10.97l85.13 34.41c-5.86 4.36-14.22 10.63-26.02 10.81-9.13 0.14-12.14 0.81-25.15-2.62-16.97-4.47-32.79-13.29-49.13-16.17-14.49-2.55-16.29 7.43-6.93 12.01 36.83 18.02 73.6 33.04 111.61 53.34 11.86 6.33 3.57 21.84-6.02 18.21l-130.23-49.22 125.84 97.5-28.49 34.04-120.75-109.97 65.45 119.09c6.6 12.01-12.97 22.91-19.66 13.11-22.92-33.64-36.02-66.03-61.81-98.94-8.99-11.48-17.66-3.45-13.76 4.81 10.78 22.83 26.91 43.96 33.2 62.47 2.52 7.42-1.08 23.72-6.77 31.23l-45.43-72.52c-8.29-13.23-17.13-8.6-12.23 0.66 12.41 23.46 27.98 45.02 28.83 70.11 0.32 9.51-1.72 17.81-5.68 25.56l-46.74-86.71c-2.23-4.14-12.45-6.64-6.77 6.12 9.64 21.65 21.48 40.42 26.21 63.12 2.28 10.93-0.68 26.36-6.42 32.21L82.48 262.84c-3.56-7.63-1.54-23.8 7.21-33.86 7.14-8.2 17.92-12.11 31.02-6.55-6.68 6.38-9.4 15.32-2.62 20.53 6.11 4.69 16.01 3.26 26.21-6.33 11.96-11.25 15.47-34.11 2.84-50.67z" style="fill-rule:evenodd;fill:#fff;stroke-linejoin:round;stroke:#000"/>
</svg>
