<?xml version="1.0" encoding="UTF-8" standalone="no"?>
<svg
   xmlns:dc="http://purl.org/dc/elements/1.1/"
   xmlns:cc="http://creativecommons.org/ns#"
   xmlns:rdf="http://www.w3.org/1999/02/22-rdf-syntax-ns#"
   xmlns:svg="http://www.w3.org/2000/svg"
   xmlns="http://www.w3.org/2000/svg"
   xmlns:xlink="http://www.w3.org/1999/xlink"
   id="svg2"
   version="1.1"
   x="0"
   y="0"
   width="400"
   height="500"
   viewBox="30.5 31.5 400 500"
   enable-background="new 30.5 31.5 412 533"
   xml:space="preserve"><metadata
     id="metadata4"><rdf:RDF><cc:Work
         rdf:about=""><dc:format>
          
          
          
          image/svg+xml
        
        
        
        </dc:format><dc:type
           rdf:resource="http://purl.org/dc/dcmitype/StillImage" /><dc:title></dc:title></cc:Work></rdf:RDF></metadata><defs
     id="defs6" /><path
     fill="#32ac60"
     id="path8"
     d="M230.56 531.14C304.88 477.22 355.82 409.12 386.3 322.98 413.94 244.88 425.03 150.23 420.21 33.63l-0.02-0.46-379.82 0-0.02 0.46c-4.81 116.6 6.28 211.24 33.91 289.35 30.48 86.14 81.42 154.24 155.74 208.16l0.28 0.2 0.28-0.2z" /><path
     d="m 112.31198,228.64196 11.31672,17.08185 9.15787,-1.05902 -4.23609,9.15357 11.60049,-0.91575 -5.50865,8.92287 10.73353,-1.24892 -4.8552,9.241 11.48086,-1.44527 -4.86379,9.78556 10.73567,-1.97907 -4.345,9.6659 9.87728,-1.67167 -3.69586,9.35421 10.74427,-1.98121 -2.94208,9.57846 10.53718,-2.00054 -3.06602,10.00336 10.66542,-2.31869 -2.55369,9.6788 9.68095,-3.05743 -1.98552,9.76837 9.88373,-2.83745 -1.67168,10.76143 9.58062,-4.13578 -0.809,10.53719 9.87494,-4.43768 -1.34474,10.73017 9.29685,-4.52417 0.12292,10.63857 9.35308,-4.98666 -0.68701,10.39807 9.48245,-5.15165 0.39684,10.72916 8.20131,-5.2034 0.44634,10.00767 17.18861,8.11388 12.06406,-4.37722 18.71991,-18.94639 -173.31066,-160.30628 -11.1032,28.07829 z"
     id="path4376"
     style="fill:#ffffff;stroke:#000000;stroke-linejoin:round;stroke-opacity:1" /><path
     d="m 79.073929,223.06978 c -7.22515,7.56404 2.98309,15.42956 8.55338,9.76959 l 64.504551,-65.54301 c 6.17034,-6.26968 -3.04822,-17.51999 -9.28271,-10.99308 z"
     id="path4378"
     style="fill:#ffffff;stroke:#000000;stroke-opacity:1" /><use
     transform="matrix(0.9998591,-0.01678559,0.01678559,0.9998591,144.93127,273.0424)"
     id="use4380"
     x="0"
     y="0"
     width="390"
     height="480"
     xlink:href="#path3808" /><rect
     width="26.324966"
     height="16.778242"
     x="-65.352676"
     y="210.67216"
     transform="matrix(0.69889434,-0.71522493,0.69180503,0.72208434,0,0)"
     id="rect4382"
     style="fill:#ffffff;fill-opacity:1;stroke:#000000;stroke-width:1.00027168;stroke-linejoin:round;stroke-miterlimit:4;stroke-dasharray:none;stroke-opacity:1" /><rect
     width="26.258684"
     height="13.001533"
     x="-74.375473"
     y="227.56447"
     transform="matrix(0.70106192,-0.7131004,0.71995958,0.69401599,0,0)"
     id="rect4384"
     style="fill:#ffffff;fill-opacity:1;stroke:#000000;stroke-width:1.0000242;stroke-linecap:round;stroke-linejoin:round;stroke-miterlimit:4;stroke-dasharray:none;stroke-dashoffset:42.65618134;stroke-opacity:1" /><use
     transform="matrix(-0.99909821,0.04245911,-0.04245911,-0.99909821,465.39808,460.97469)"
     id="use4386"
     x="0"
     y="0"
     width="390"
     height="480"
     xlink:href="#rect3812" /><use
     transform="matrix(-0.99909821,0.04245911,-0.04245911,-0.99909821,465.55673,461.13611)"
     id="use4388"
     x="0"
     y="0"
     width="390"
     height="480"
     xlink:href="#rect3836" /><path
     id="path10"
     d="M41.04 33.21C31.97 252.66 77.3 419.16 230.5 530.31 383.69 419.16 429.01 252.66 419.94 33.21l-189.45 0-189.45 0m-0.92-0.95 0.92 0 189.45 0 189.45 0 0.92 0 0.04 0.92c4.82 116.66-6.28 211.36-33.93 289.52-30.51 86.24-81.51 154.41-155.91 208.39l-0.56 0.41-0.56-0.41C155.54 477.11 104.54 408.94 74.03 322.7 46.38 244.54 35.28 149.84 40.1 33.18l0.04-0.92 0 0z" /><path
     style="fill:#ffffff;stroke:#000000;stroke-opacity:1;stroke-linejoin:round"
     id="path3020"
     d="m 155.19134,131.40848 11.31672,17.08185 9.15787,-1.05902 -4.23609,9.15357 11.60049,-0.91575 -5.50865,8.92287 10.73353,-1.24892 -4.8552,9.241 11.48086,-1.44527 -4.86379,9.78556 10.73567,-1.97907 -4.345,9.6659 9.87728,-1.67167 -3.69586,9.35421 10.74427,-1.98121 -2.94208,9.57846 10.53718,-2.00054 -3.06602,10.00336 10.66542,-2.31869 -2.55369,9.6788 9.68095,-3.05743 -1.98552,9.76837 9.88373,-2.83745 -1.67168,10.76143 9.58062,-4.13578 -0.809,10.53719 9.87494,-4.43768 -1.34474,10.73017 9.29685,-4.52417 0.12292,10.63857 9.35308,-4.98666 -0.68701,10.39807 9.48245,-5.15165 0.39684,10.72916 8.20131,-5.2034 0.44634,10.00767 17.18861,8.11388 12.06406,-4.37722 18.71991,-18.94639 -173.31066,-160.30628 -11.1032,28.07829 z" /><path
     style="fill:#ffffff;stroke:#000000;stroke-opacity:1"
     id="path3808"
     d="m 121.95329,125.8363 c -7.22515,7.56404 2.98309,15.42956 8.55338,9.76959 L 195.01122,70.062885 C 201.18156,63.793207 191.963,52.54289 185.72851,59.0698 Z" /><use
     xlink:href="#path3808"
     height="480"
     width="390"
     y="0"
     x="0"
     id="use3810"
     transform="matrix(0.9998591,-0.01678559,0.01678559,0.9998591,187.81063,175.80892)" /><rect
     style="fill:#ffffff;fill-opacity:1;stroke:#000000;stroke-width:1.00027168;stroke-linejoin:round;stroke-miterlimit:4;stroke-dasharray:none;stroke-opacity:1"
     id="rect3812"
     transform="matrix(0.69889434,-0.71522493,0.69180503,0.72208434,0,0)"
     y="173.36438"
     x="32.929829"
     height="16.778242"
     width="26.324966" /><rect
     style="fill:#ffffff;fill-opacity:1;stroke:#000000;stroke-width:1.0000242;stroke-linecap:round;stroke-linejoin:round;stroke-miterlimit:4;stroke-dasharray:none;stroke-dashoffset:42.65618134;stroke-opacity:1"
     id="rect3836"
     transform="matrix(0.70106192,-0.7131004,0.71995958,0.69401599,0,0)"
     y="189.97325"
     x="25.392483"
     height="13.001533"
     width="26.258684" /><use
     xlink:href="#rect3812"
     height="480"
     width="390"
     y="0"
     x="0"
     id="use3844"
     transform="matrix(-0.99909821,0.04245911,-0.04245911,-0.99909821,508.27744,363.74121)" /><use
     xlink:href="#rect3836"
     height="480"
     width="390"
     y="0"
     x="0"
     id="use3846"
     transform="matrix(-0.99909821,0.04245911,-0.04245911,-0.99909821,508.43609,363.90263)" /></svg>