<?xml version="1.0" encoding="UTF-8" standalone="no"?>
<svg xmlns="http://www.w3.org/2000/svg" xmlns:xlink="http://www.w3.org/1999/xlink" width="1000" height="600">
  <path fill="#c80a0f" d="M0 0h1000v600H0z"/>
  <g id="a" stroke="#0a0101" stroke-linecap="round" stroke-linejoin="round" stroke-width="3.25">
    <path fill="#002e56" d="M515.3258 263.9167625c-2.2666 3.55676 3.94745 19.34287 13.55378 18.94539-6.26754-9.76224-5.60284-21.11782-5.60284-21.11782zM491.47046 246.8319925c-3.46358.50028-11.81944 21.25146 1.50512 28.65623.4253-12.88383 6.70049-20.53189 6.70049-20.53189l-6.88895-5.76688z"/>
    <path fill="#002e56" d="M489.84563 234.4381625c-3.36679-3.44025-17.91634 6.54814-17.31531 21.44677 8.93908-9.93356 19.52589-9.15916 19.52589-9.15916zM506.66942 222.3869925c-.23939-4.67381-12.89416-10.07405-19.53862-.72985 9.55284 1.05538 15.00033 9.77594 15.00033 9.77594zM761.86843 265.8733225c-.22921 4.27634.89899 5.77032 3.06118 8.17575 2.16473 2.40201 4.6147 9.54636 4.6147 9.54636s6.92969-18.81175 5.19535-21.33712c-1.73433-2.52879-12.44084 3.49166-12.87123 3.61501zM725.21059 258.0745025c-3.45083-.64419-9.97559 14.91233-4.54338 25.57919 2.73011-12.36299 10.18952-17.74267 10.18952-17.74267zM708.3868 253.3869825c-2.68427-2.97767-14.29996 5.67436-13.82627 18.58903 7.14107-8.60749 15.58862-7.93589 15.58862-7.93589zM717.19599 233.4307625c-1.85148-3.97137-14.901-.69559-17.48339 11.75992 8.79645-5.13298 16.6557-.90461 16.6557-.90461zM283.44224 224.6895825c1.25555-4.37228-8.50867-16.47142-17.47065-11.79075 8.32275 6.40078 10.51295 17.4 10.51295 17.4zM246.0204 252.0094525c-3.25729-3.94053-16.92821 7.28142-16.11325 24.24626 8.33804-11.22195 18.41804-10.23511 18.41804-10.23511zM247.21482 227.9927725c-1.40326-5.58527-17.407-4.82116-22.87995 10.50237 11.35593-4.27633 19.78311 3.23124 19.78311 3.23124zM263.51653 273.3191625c-.87609 4.12898 0 5.89366 1.75215 8.84391 1.75216 2.94684 3.06628 10.61546 3.06628 10.61546s9.64197-16.51255 8.32785-19.45937c-1.31411-2.94684-12.70825 0-13.14628 0zM223.79751 83.4781385c0-5.893664-15.34413-12.064878-24.17115.09937 11.77615.836077 17.97492 11.574882 17.97492 11.574882zM207.87017 106.9431525c-3.25728-3.94397-16.9282 7.28141-16.11325 24.24625 8.33804-11.22194 18.41806-10.23852 18.41806-10.23852zM263.56746 81.4359155c1.4822-5.551009-11.40941-18.335463-22.77299-10.903278 10.87206 6.143802 14.00455 19.07217 14.00455 19.07217zM281.76394 101.7108025c2.55693-3.17984-2.24877-19.829436-11.82453-20.936211 5.37872 10.673699 3.74371 21.851101 3.74371 21.851101z"/>
    <path fill="#ffc103" d="M332.91428 121.2353725c-9.63198-10.89488-.1123-30.763218 8.52184-22.28854-4.52241-8.131456 2.87324-14.56926 6.22934-10.495512-1.56254-6.61904 5.5315-11.005536 9.01114-4.898121-1.24972-7.382466 9.27104-11.701601 11.99828-3.635901.18289-7.255762 10.4646-12.983067 12.73463-2.357641 2.00212-8.17797 13.46457-9.250937 14.4143 2.372076 3.34488-6.760177 11.9373-6.264591 12.43623 3.554104 3.71547-4.615844 13.31698 2.293488 11.68223 10.461835 5.92935-1.247786 13.17421 10.42173 5.94701 19.02312 12.82286-6.64951 15.8517 14.90286 8.0598 24.68627 4.02991 2.39293 4.38285.28228 7.93789 2.07537 3.55665 1.79309 10.00258 4.74575 15.90305 6.0192 5.33417 0 24.8869-.59823 28.88633-1.19486 3.99942-.59822 9.46676-2.62869 15.9993-4.78425 6.84058-2.15556 16.73406-2.23575 25.76285-4.36725 7.1534-.78107 207.99413 3.17079 213.77268 2.57257 5.77855-.59984 14.20895-5.99676 13.76457-12.5741-.44438-6.57734-7.09886-11.34395-13.76457-11.94217-6.6657-.59664-40.88621-.59664-47.10914.59822-6.22133 1.19326-15.11054 4.18282-19.55274 8.37044-2.13528 1.33919-5.66626 6.3977-8.6566 9.72727-2.79943 2.29509-10.70524 2.63512-10.70524-.35766 0-1.95507-.66577.37531-2.60693 1.13392-2.5219 1.53488-13.89611 1.95508-13.39397 0 .88875-2.21329-.0577-2.90936-3.05131-.59663-2.22191 1.79309-17.94046 2.45388-20.82653.67843 1.7294-2.81314 1.74544-2.65115-2.97912-.34002-2.99033 1.27666-15.37523 2.27586-16.264-.17963-.11871-1.93422-1.52244-.98636-3.26949-.43625-14.03568 3.56854-15.38165-.56134-13.15976-2.35603 2.22352-1.79149 5.58604-12.05765 2.03422-11.45782-3.55826.59664-25.77729 4.78104-33.33175 5.9791-7.55447 1.19807-62.21809 0-69.77256-.59661-7.55287-.59824-15.99769-7.50918-16.44368-17.3407-.79089-15.77054 12.44426-19.732019 20.4415-22.124945 8.00046-2.391323 27.99758-5.979108 35.99643-5.979108 8.00045 0 30.81787 2.750582 37.04079.357657 6.22133-2.388116 25.11313-9.071308 30.4521-9.565289 7.87694-.710501 30.44408 1.881301 41.19745 14.448974-5.59888 2.473119-8.23146 3.927799-1.87698 1.696861 5.77533-1.196463 30.57561-6.219683 36.35256-7.533227 20.00033-.837203 14.75279 2.153956 4.97642 4.543674-3.26467 10.112196-32.65154 24.222763-41.98674 26.015853-9.33038 1.7963-29.1366.47955-33.56597-.30312-4.4454-.32398-25.47246-1.34563-33.12639-6.16676-12.37047-8.153913-35.22318-13.513939-45.2418-13.327894-9.3753.182837-36.11352 2.912569-35.99642 11.959814-.13956 15.88601 24.88692 16.74247 35.55205 16.14263 10.66514-.59662 37.33117-1.79308 44.88564-4.78264 7.55286-2.98956 23.89547-3.72412 32.78469-3.72412 8.88922 0 21.87892 1.92942 25.87835 1.3328 3.99782-.59824 13.33141-.73296 17.77522-3.72251 4.44541-2.99116 14.10627-6.11544 23.88585-6.11544 9.77798 0 82.3291-2.7169 92.10547-2.11867 14.1528-.0946 24.15538 14.93975 24.32382 27.72715.0818 5.9775-2.93259 14.81465-5.49139 16.18433 4.39088.39294 15.38166 1.59582 19.0057 2.33197 6.80848 1.31034 17.8442 8.60461 19.10675 15.2461-5.17053-3.05211-13.5159-7.66154-21.03347-8.16515-1.47272.0177-159.85826-.25821-172.29771-.18283 33.84351 3.88771 59.70581 29.22032 66.16617 43.72543 5.77856 8.96865 20.00033 5.38087 25.33129 4.18601 5.33258-1.19646 11.55549-6.57894 16.00091-10.76495 4.44541-4.18441 11.39347-5.24617 14.53141-4.18441 6.90794-.59664 8.1352 6.57893 5.46892 10.16351-2.66629 3.58939.44117 2.11386 7.55286 2.11386 17.94202-.21109 14.11587 9.24611 14.11587 9.24611s12.38772.72752 8.93994 14.7431l.0624.31452c7.32316.87662 12.87403 10.89719 12.88145 13.82431-7.28559.40725-3.11066-.77947 0 2.21169 3.10906 2.98955 7.6443 16.23084-3.55665 16.74086-3.36926-.008-2.89873.10937-2.89873.10937.79091 4.18282-1.54508 16.03644-7.7648 16.03644-8.6197 1.61505-16.44369-2.98956-17.33405-8.37204-.88877-5.37928-.77164 10.38645-12.99131 12.87401-11.53945 2.49556-17.67415-3.90375-18.56131-6.89329-.89037-2.99117-.44437-.59985-4.88657-1.19968-4.44542-.59663-10.0475-.65116-12.44587-7.7722 0-4.18441.86791-9.70161 8.78493-10.449 3.55665-.59663 4.54969-5.097 1.8802-5.69523-2.66628-.59823-.44278-9.56689 5.33417-7.17557 5.77855 2.39293 19.10836 2.98955 22.22063 5.98071 3.11226 2.98634 4.00103-2.39292-.88715-7.17556-4.8898-4.78586-34.66329-14.35275-42.66534-10.76497-18.6271 9.12103-50.05551 7.35221-55.94662 7.41894-6.01636-.85546-19.90594 1.23129-27.15735-20.57201-5.89085-22.25967-28.27993-33.25879-38.49908-34.45526-53.45753-4.00116-52.25291-1.76831-14.9854-.91818-.24385 4.15553-1.42781 14.02154 3.87107 15.26772 8.89243-1.19646 22.72144-4.55348 27.73614-1.99174 5.0866 2.59848 10.71092 6.92043 12.09608 15.51851.0206 2.10836.44438 5.97911-3.55664 9.56529-3.99943 3.58779-2.22191 10.76335 4.00102 13.15628 6.22133 2.38972 8.89082 5.37927 12.88864 8.96866 3.99942 3.58458-1.77752 10.76336-5.33417 8.37204-3.55504-2.39292-3.55504-2.39292-3.99943 2.39132-.44438 4.78264-4.86251 13.83471-12.37366 14.49709-1.57539-.57738-1.13903-3.05211-.95775-4.9318.44438-4.18441-1.5032 5.19964-3.82616 7.80267-1.47914 1.7578-14.06136 5.19483-17.6148 3.40174 1.58823-3.74336.67058-2.2165-2.44008-.42021-3.03527 1.17401-19.41637 3.38892-12.11538-4.20686 1.89303-2.76663-2.60371 3.45466-5.08391 4.54047-2.08232 1.26222-11.80415 2.03847-11.80415-1.55092-3.08661 2.63671-10.42611 2.63993-11.5539.59823-2.2203-2.39132-2.43367 1.79309-6.43148 2.38972-3.99783.59663-12.67688-.59663-13.12287-5.38088-.44438-4.78103.89037-1.79308-3.99781-1.19646-11.90042 7.67436-17.77843-2.98795-17.77843-6.57574 0-3.58778-.44439-7.77539.88875-10.16672 1.33315-2.38972-8.27959-3.11305-5.33256-7.82192 3.3128-5.75938 6.79245-9.98068 13.33141-8.92055 3.11067.59663 2.66629-1.19646 1.33315-3.58778-1.33315-2.38971 3.55504-3.58618 9.33359-1.19646 5.77856 2.39132 9.77797 8.37204 11.55549 13.7529 1.77593 5.38088 15.55492 1.19646 21.33188 1.7931 5.77855.59823 6.22133-8.96867 2.66628-11.95822-3.55665-2.99116-13.33463-13.75291-17.33405-17.33909-4.00103-3.58939-1.33474-16.14584 2.2219-19.13699 20.69659-13.59895 9.92757-18.0662 1.77432-16.74086-7.55287 1.19486-26.96764 8.74733-33.18897 15.32467-6.22293 6.57734-54.56255 38.81448-59.00474 42.40226-4.44541 3.58779-10.90738 4.45867-13.57366.27427-2.66629-4.18763-4.44542-1.19647-4.00103 4.78424 3.53097 22.58203-17.33405 29.78006-20.99177 29.49457-2.54596-.25179-6.19406-1.6311-8.82344-3.75779-2.59248 12.62062-14.06296 13.8732-24.42328 12.62862-.15882-1.48836 1.93474-4.27262.7909-3.20607-3.4251 4.33678-13.95066 3.87809-22.98746 3.22212-.60159-2.63993 3.11548-5.83798 1.33796-4.04328-3.03367 5.55088-8.24913 4.5565-16.70197 3.96789-.0995-1.1692 3.9176-5.08256 2.04543-2.74256-3.69943 3.93422-11.40631 2.70407-17.38539 2.8003-.70748-.88051 3.09141-7.0617-.38502-2.97833-3.32243 3.48675-10.36033 4.06734-17.087 3.1339-1.19678-2.93983 1.40053-2.9687 2.11442-4.81472 1.77753-2.98794-.88876 0-3.10905 0-2.22191 0-5.33418.59823-6.66732-2.39132-1.33314-2.98955-.56791 2.99116-1.85933 4.61905-1.28984 1.41299-2.74651 4.72972-7.19031 5.92297-4.44541 1.19647-15.45469-.47791-17.77682-2.98795-2.39517-2.47792-3.55665-7.77219-1.77752-10.76496 1.77752-2.98794-8.46249 5.76901-12.88705 6.57895-13.01537 2.44264-14.66615-17.33909-8.8892-19.13218 5.77854-1.7963 4.88658-4.78425 1.77591-7.17557-3.11066-2.39293-4.88818-11.96142-.88715-14.94937 3.99782-2.98956 13.25602-4.64472 19.10836-1.19647 3.4251 2.28708 10.75657 10.12664 9.33359 4.18442-.99142-3.6728 1.5433-8.34477 4.37965-10.34958 2.46253-2.20688 10.04267-2.76982 12.06244 1.97915 4.68283 11.00393 7.99884 15.74167 13.7774 15.546 12.30629-3.26863 28.94088-6.97349 33.82746-6.97349 6.27212-1.44987 38.91559-5.88102 39.47927-7.17954-19.91531 6.70244-27.96709-2.39536-30.18738-1.79875-2.22031.59664-7.69245-1.94064-7.69245-3.61023 0-3.58779 5.01493-3.15956-2.09677-1.9647-4.2561-.33841-8.04858-.53088-11.6325-4.85001-.58716-2.20528 4.70691-9.78982 6.63042-16.16347-4.58979-1.2077-14.73837 6.81951-18.0624 13.90365-2.33098-2.71849-3.27589-.25019-11.60201 1.72734-3.92723 1.66318-10.31861 1.06656-13.87205-.72814-3.55505-1.79309-17.48164-12.05284-10.74695-13.37601-1.7711-.8404-3.81012-1.32477-5.15289-1.68562-4.88818-2.03047-8.94991-5.4843-7.52854-6.56368 1.07373-1.2729.85481-2.27989-1.10238-2.64075-2.66629-.59663-9.23253-5.25257-7.54806-7.05048.50521-.81847-5.67909-2.74736-7.37319-3.58618-3.11066-1.79469-6.22774-8.01758-6.67052-11.00553-2.86842.26783-8.98546-5.00397-6.22292-6.57894-4.67161-3.37127-8.64538-8.91895-5.5331-10.71525-2.72565-2.08819-1.199-2.19052-2.73366-4.4715-2.83313-3.37126-1.9556-6.9366.2679-6.9366 2.2219 0 1.33315-9.56689-2.66628-9.56689-3.99942 0-10.43251 3.01682-15.11054 0-3.84702-2.85964-7.11169-15.5476-3.55665-20.93008 3.55665-5.37927 10.66513-11.359983 14.22178-10.763355 3.55665.598235 1.77752 1.793095.88877-3.587786-.88877-5.380875 5.01812-9.422546 8.8892-10.763355 4.69087-2.084989 13.7774-.596627 16.44369 1.794695 2.66629 2.391322 3.55504 2.391322 3.55504-1.794695 0-2.941439 3.43313-4.473104 6.48924-5.24455 5.08712-1.169198 9.06568.237368 10.84321 2.253393 2.76254 3.846002 4.44541 8.372032.88876 11.959817-3.55505 3.586183-.47005.546909 5.3085-.647949 3.72029-1.196464 10.43413.344824 11.57956 4.235735 1.5433 4.18441 2.66628 11.36158-1.33314 14.94937-3.99943 3.58619-9.77637 12.55645-6.66571 15.546 3.11066 2.98794 12.88864 16.14263 15.11055 17.93893 2.22189 1.79308 4.88658 5.97911 8.44322 5.37928 3.55505-.59664 7.55447-1.19327 10.66514-1.7931 12.34639-2.41377 17.71353-2.38104 1.86664-1.88866 3.55825-4.8869 11.20648-7.61248 14.43907-8.47373-2.84596-4.16356 7.69083-12.95581 7.69083-14.15067z"/>
    <path fill="#002e56" d="M353.6237 143.1245425c3.42012 5.47322 7.99683 4.87047 12.97595 4.87577 1.28258.001 4.57243-4.04171 4.80476-4.35622.69327-.93852 1.79523 3.89011 2.62953 4.68298 1.36288 1.2952 6.5342 2.61178 7.17278 3.86697 3.64969 4.02564-7.40462 17.02816-9.68748 25.07782-5.26841 6.93178-17.00678 6.4811-21.32545 1.33439 2.32457-9.615 2.51708-30.11527 2.97269-30.78407z"/>
    <path fill="none" d="M778.75305 252.3892125c-1.93313-5.20286-7.73414-6.50518-7.73414-6.50518M409.88034 161.8750125c4.38284 8.25656 5.67107 22.27089.72032 29.06957M394.09923 180.7505825c4.38283 2.35764 10.51914 16.5083 9.6416 21.23l-.87592 4.71528M392.34897 186.6446825c2.62938 7.07774 6.1347 17.69194 5.25878 21.23001l-.87595 3.53966M376.56785 193.7112025c1.75345 7.07773.87592 18.87395-1.75186 21.23l-2.63099 2.35924M372.17858 194.8964325c-2.62938 8.25495-5.26036 20.05118-5.26036 20.05118M330.11324 172.4956225c-4.38284 3.53968-10.51914 11.79463-10.51914 11.79463M335.36559 184.2886425c-7.01383-4.71687-14.90198 3.53807-14.90198 3.53807M431.86996 119.2434025c-4.62348 2.04168-3.94167 12.69438-3.94167 12.69438M333.5608 104.4159225c4.93471 3.38731 2.96147 13.54923 2.96147 13.54923M217.79408 95.5177975c9.4167 2.141525 16.01342 8.615855 18.07199 15.060065 2.06212 6.45532 3.42831 10.14588 3.42831 10.14588M264.31116 91.7167335c-5.48496 6.455449-5.12714 18.448949-5.12714 18.448949M424.15346 229.6131125c3.38339-11.68076 9.72825-14.31266 17.66773-18.133 6.85717-2.71325 16.15943-8.74897 15.28456-8.20171-8.23564 6.96538-38.25225 14.07321-29.36676 27.63702M407.91513 185.3808625c7.25126 11.70802 2.77055 28.00622-6.41545 32.55951M432.64238 145.5441325c11.77207 4.75217 11.64616 15.44075 13.34188 22.05177-4.15023-1.86687-6.47149-.82021-9.58696-2.19791M423.00962 183.5492825c0 10.4089-7.39725 14.67832-10.78064 15.98064M740.76895 195.9886425c-4.83684-.65115-12.0865 1.95187-12.0865 1.95187M763.24146 204.9541025c-6.76838 2.59982-14.50254 3.25258-14.50254 3.25258M771.93976 219.9612125c-5.80261-.64635-10.15337-.64635-10.15337-.64635M783.22413 234.0830025c-5.80101-.64955-14.98861 0-14.98861 0M721.76807 264.4917625c1.45186-7.80587 11.063-14.06085 16.37952-14.06085h5.31652M713.78527 247.2344825c5.80422-1.95188 14.98702-2.60143 14.98702-2.60143M320.80292 143.4754025c-16.14531 8.25977-17.52416 15.11816-15.00708 32.52141"/>
    <path fill="none" d="M389.72279 179.2397625c.94011 9.29103 1.49679 35.24434-8.37906 41.87781-9.87583 6.63348-22.24148 7.41615-31.89272 4.23253M367.86954 193.6326125c-.96897 9.13064-10.22269 31.78821-28.58187 28.66555M656.34307 130.8888625c2.41923-7.15792 13.53677-13.66309 13.53677-13.66309M640.17212 130.5119725c4.83685-8.45704 13.53675-13.66149 13.53675-13.66149M616.58145 131.2914225c7.34592-4.30309 9.40899-5.99995 11.8218-8.21646 2.60211-2.47631 7.73415-7.15631 7.73415-7.15631M596.08539 131.0364225c5.38071-2.73133 9.54697-4.33678 13.15014-6.92858 4.51921-3.08417 7.64752-7.25576 7.64752-7.25576M600.4907 108.4479625c-17.08859-5.65352-24.7361-16.8868-24.7361-16.8868M628.94228 84.5074825c-11.31966 4.58858-34.32799 2.601426-35.29536 2.601426M337.66771 216.5290025c5.80261-4.55331 10.36834-13.93415 10.36834-13.93415M332.94155 169.7643025c-8.51862-1.30232-30.06707 16.84349-23.1158 39.40629M318.14224 158.5518625c-10.96994 2.86125-15.43942 22.37354-9.59348 32.86585M427.45182 151.4837425c7.99725 10.63505 11.04214 17.13862 11.50416 20.84188.75401 6.4346 1.58468 19.02812-17.31673 18.77151 1.46441-4.87661 2.79834-14.13554-.2257-19.14433"/>
    <path fill="none" stroke-width="4.5" d="M399.43178 111.0333525l-.87592 5.33437M362.99147 103.0497225c-1.04291 3.52721-2.47426 6.48885-2.47426 6.48885"/>
    <path fill="none" d="M377.10688 92.1273165c1.37164 11.993496-4.11333 18.450546-7.54164 18.450546-3.42991 0-7.25608 4.47471-5.15128 11.67273M391.43294 90.2829035c-6.1716 8.301469-7.54163 17.528349-5.48337 24.905999 2.05506 7.38086.10588 9.52519.10588 9.52519M418.92838 130.8744325h-7.54163c-5.33991 9.43896-20.33155 6.2075-16.3023 8.00927"/>
    <path fill="none" d="M378.48013 122.4061825c11.73998.2983 9.37851 9.38565.68501 8.46344.68503 11.06969-12.97527 9.67435-11.80576 1.19326-8.21543.24217-11.58597-10.95902.34652-9.40812M394.5216 136.6116625c.48289 12.36078-22.866 22.09738-22.38151 3.23143"/>
    <path fill="none" d="M372.10611 139.7306625c-.49251 9.10821-13.44598 11.18501-17.86572 3.37753-3.43954-5.20446-5.25461-7.16243-7.70913-7.81357-2.45453-.64796-2.17859-8.22449-2.67591-9.33756-.29839-1.51402-1.88822-5.42899-2.68232-6.8997M408.39962 102.7671825c-5.80262 5.85239-6.28551 6.50516-6.28551 6.50516M414.20222 113.8192225c-7.73735.64956-8.15446.31274-8.15446.31274M386.66667 109.4311225c5.7192-2.03848 19.03136-.32558 18.83884 4.41696.008 5.82195-5.20421 6.17799-18.95594.66881l.1171-4.27423zM368.62355 110.0357725c.71229-6.91415-13.18383-13.73367-16.56722-9.87644-4.12135 6.37526 7.57212 12.06087 10.67316 12.06087 2.9005 0 2.91519.95483 2.91519.95483M406.3654 135.9361425c-5.25876 14.15067-.87592 27.12411-.87592 27.12411M344.13128 139.4645925c-4.38284 3.53647-7.88816 2.35764-7.88816 2.35764"/>
    <path fill="none" d="M345.39705 134.0917325c-3.70906 14.08651.61115 27.05603.61115 27.05603s6.04548-7.07594 6.58933-20.00286M382.10255 150.5823925c-.87913 12.789 5.35408 20.84142 5.35408 20.84142s4.63726-11.10292 2.50841-25.55189"/>
    <path fill="#ffc103" d="M433.90256 137.7276325c.95741 1.09947 5.11439.0577 11.87795 2.81152-2.79943 4.008-10.32747 6.17578-13.13813 5.00498"/>
    <path fill="none" d="M227.59128 148.3482425c4.11494 1.84442 11.65657 0 11.65657 0M231.59714 158.2952525c9.08011 2.76983 18.16183-1.84441 18.16183-1.84441M273.87897 199.1533525c9.5983-2.76663 16.155-9.24807 16.155-9.24807M244.71197 247.6530825c4.83524-1.30232 14.98862 0 14.98862 0M262.73424 263.0258625c2.90211-5.20285 9.6705-9.75776 9.6705-9.75776M317.02567 269.9576425c2.41763-3.25097 2.41763-13.66148 2.41763-13.66148M334.66453 269.8758625c3.84863-4.26622 4.05878-13.42734 4.05878-13.42734M348.68257 269.6352825c3.86947-7.15793 3.23579-15.42572 3.23579-15.42572M370.64331 270.4291825c2.41602-3.90214 2.41602-13.00874 2.41602-13.00874M527.33636 249.7797625c-8.70632-1.95187-14.02285 9.75935-14.02285 9.75935M538.76513 247.8936525c-.96898 8.45703-7.73255 16.26452-7.73255 16.26452M552.48958 247.1815425c-.48448 7.15632-8.22184 16.91408-8.22184 16.91408M569.5477 244.3283225c-1.27378 9.51557-8.23468 16.65103-8.23468 16.65103M582.11067 240.9763025c.48449 8.45543-3.86787 21.46897-6.76999 24.06878M597.09609 244.5833225c1.45185 4.55491 0 11.06007 0 11.06007M500.34115 227.0113825c5.80261 1.30232 11.39377 7.63617 11.39377 7.63617M492.64902 243.1687425c3.0497-10.24051 16.187-5.23653 17.77843-2.48915M450.69276 223.7574925c-8.31969 2.75861-12.21966 2.94946-14.93888.51003M459.95577 216.9620325c-7.29778 2.75861-11.45443 3.70486-15.07846 1.45308M472.30378 208.6413225c-4.8529 2.7602-7.61704 3.70486-10.02664 1.45308M480.86732 202.2323825c-5.93897 2.76021-9.32236 3.70487-12.271 1.45308M246.55045 84.3727595c.96738 5.85401-.48288 7.156325-1.93313 12.359173-1.45025 5.20285.50764 14.46115.50764 14.46115"/>
  </g>
  <use width="100%" height="100%" stroke-width="3.5" transform="translate(.00000177 235)" xlink:href="#a"/>
</svg>
