<svg xmlns:dc="http://purl.org/dc/elements/1.1/" xmlns:cc="http://creativecommons.org/ns#" xmlns:rdf="http://www.w3.org/1999/02/22-rdf-syntax-ns#" xmlns:svg="http://www.w3.org/2000/svg" xmlns="http://www.w3.org/2000/svg" id="svg2" version="1.1" x="0" y="0" width="400" height="500" viewBox="30.5 31.5 400 500" enable-background="new 30.5 31.5 412 533" xml:space="preserve">
  <metadata id="metadata4">
    <rdf:RDF>
      <cc:Work rdf:about="">
        <dc:format>
          
          
          
          
          
          
          
          image/svg+xml
        
        
        
        
        
        
        
        </dc:format>
        <dc:type rdf:resource="http://purl.org/dc/dcmitype/StillImage"/>
      </cc:Work>
    </rdf:RDF>
  </metadata>
  <defs id="defs6"/>
  <path d="M230.55 531.13C304.87 477.21 355.81 409.11 386.29 322.97 413.93 244.87 425.02 150.22 420.2 33.62l-0.02-0.46-379.82 0-0.02 0.46c-4.81 116.6 6.28 211.24 33.91 289.35 30.48 86.14 81.42 154.24 155.74 208.16l0.28 0.2z" id="path4148" fill="#0085ca"/>
  <path id="path10" d="m41.04 33.21c-9.07 219.45 36.25 385.95 189.45 497.1 84.47-61.29 136.15-139.41 163.99-233.97 2.09-7.09 4.04-14.27 5.87-21.54 11.45-45.69 17.77-95.02 19.88-147.94 1.2-30.06 1.05-61.28-0.29-93.65l-189.45 0-189.45 0m-0.92-0.95 0.92 0 189.45 0 189.45 0 0.92 0 0.04 0.92c4.82 116.66-6.28 211.36-33.93 289.52-30.51 86.24-81.51 154.41-155.91 208.39l-0.56 0.41-0.56-0.41C155.54 477.11 104.54 408.94 74.03 322.7 46.38 244.54 35.28 149.84 40.1 33.18l0.04-0.92 0 0z"/>
  <path id="path3638" d="m93.34 198.19c26.58 33.78 73.24 74.62 99.33 91.2l-36.3 23.43c3.63 16.26 39.78 45.63 70.31 43.1 85.39-7.06 82.33-121 54.79-239.95l-69.45-27.72-0.63-37.8 167.9 23.1-0.88 44.02c-14.53 3.7-26.62 0.6-27.27 37.04-2.58 146.1 40.41 193.72-149.23 294.09C134.04 379.88 90.23 301.77 93.34 198.19Z" style="fill:#fff;stroke-miterlimit:4;stroke:#000"/>
</svg>
