<?xml version="1.0" encoding="UTF-8" standalone="no"?>
<svg
   xmlns:dc="http://purl.org/dc/elements/1.1/"
   xmlns:cc="http://creativecommons.org/ns#"
   xmlns:rdf="http://www.w3.org/1999/02/22-rdf-syntax-ns#"
   xmlns:svg="http://www.w3.org/2000/svg"
   xmlns="http://www.w3.org/2000/svg"
   width="1525.7755" height="1021.3755" viewBox="4.76347 4.23466 1525.7755 1021.3755"
   version="1.0">
  <metadata>
    <rdf:RDF>
      <cc:Work rdf:about="">
        <dc:format>image/svg+xml</dc:format>
        <dc:type rdf:resource="http://purl.org/dc/dcmitype/StillImage" />
      </cc:Work>
    </rdf:RDF>
  </metadata>
<rect x="2.64624" y="2.11743" width="1530.01" height="1025.61" style="fill:#ffcc00;fill-opacity:1;fill-rule:evenodd;stroke:#000000;stroke-width:4.23446;stroke-linecap:butt;stroke-linejoin:miter;stroke-opacity:1"/>
<g style="fill:#241c1c;fill-rule:evenodd;stroke:#000000;stroke-width:4.7069;stroke-linecap:butt;stroke-linejoin:miter;stroke-opacity:1">
<path d="M3.03467,405.8L389.949,675.595L580.193,551.687L521.139,510.227L389.882,596.97L3.97559,339.776Z"/>
<path d="M208.649,475.551L382.261,345.411L748.394,594.861L761.775,604.456L896.638,509.342L949.235,545.521L759.272,676.413L382.261,412.571L254.223,506.793Z"/>
<path d="M573.299,473.616L751.858,341.014L1117.99,589.847L1132.36,599.443L1265.25,511.108L1316.85,544.208L1128.87,672.013L758.781,413.104L629.33,511.379Z"/>
<path d="M1534.42,617.304L1120.11,341.938L948.477,473.311L1003.58,509.837L1129.54,418.692L1533.43,686.042Z"/>
</g>
<g style="fill:#241c1c;fill-opacity:1;fill-rule:evenodd;stroke:#000000;stroke-width:4.67582;stroke-linecap:butt;stroke-linejoin:miter;stroke-opacity:1">
<path d="M3.90625,216.813L1528.86,216.278L1529.75,261.112L5.79785,263.394Z"/>
<path d="M4.72925,282.719L1532.48,283.35L1533.37,328.18L4.75269,331.628Z"/></g>
<path style="fill:#241c1c;fill-opacity:1;fill-rule:evenodd;stroke:#000000;stroke-width:4.67997;stroke-linecap:butt;stroke-linejoin:miter;stroke-opacity:1" d="M4.72925,282.719L1532.48,283.35L1533.37,328.18L4.75269,331.628Z"/>
<g style="fill:#241c1c;fill-rule:evenodd;stroke:#000000;stroke-width:3.34299;stroke-linecap:butt;stroke-linejoin:miter;stroke-opacity:1">
<path d="M1321.39,474.95L1533.04,335.023L1534.085,404.381L1373.81,510.087Z"/>
<path d="M206.197,546.08L3.90503,682.726L1.927,616.639L153.779,513.741Z"/></g>
<path style="fill:#241c1c;fill-opacity:1;fill-rule:evenodd;stroke:#000000;stroke-width:4.67582;stroke-linecap:butt;stroke-linejoin:miter;stroke-opacity:1" d="M5.26001,696.928L1533.96,696.391L1531.11,739.354L3.40845,741.636Z"/>
<path style="fill:#241c1c;fill-opacity:1;fill-rule:evenodd;stroke:#000000;stroke-width:4.67997;stroke-linecap:butt;stroke-linejoin:miter;stroke-opacity:1" d="M2.33984,760.962L1530.09,761.593L1530.99,806.423L2.36328,809.87Z"/>
</svg>
