<?xml version="1.0" encoding="UTF-8" standalone="no"?>
<svg
   xmlns:dc="http://purl.org/dc/elements/1.1/"
   xmlns:cc="http://creativecommons.org/ns#"
   xmlns:rdf="http://www.w3.org/1999/02/22-rdf-syntax-ns#"
   xmlns:svg="http://www.w3.org/2000/svg"
   xmlns="http://www.w3.org/2000/svg"
   id="svg2"
   version="1.1"
   x="0"
   y="0"
   width="400"
   height="500"
   viewBox="30.5 31.5 400 500"
   enable-background="new 30.5 31.5 412 533"
   xml:space="preserve"><metadata
     id="metadata4"><rdf:RDF><cc:Work
         rdf:about=""><dc:format>
          
          
          
          
          image/svg+xml
        
        
        
        
        </dc:format><dc:type
           rdf:resource="http://purl.org/dc/dcmitype/StillImage" /><dc:title></dc:title></cc:Work></rdf:RDF></metadata><defs
     id="defs6" /><path
     style="fill:#0085ca;fill-opacity:1"
     d="M 230.45,531.13 C 156.13,477.21 105.19,409.11 74.71,322.97 47.07,244.87 35.98,150.22 40.8,33.62 l 0.02,-0.46 379.82,0 0.02,0.46 c 4.81,116.6 -6.28,211.24 -33.91,289.35 -30.48,86.14 -81.42,154.24 -155.74,208.16 l -0.28,0.2 z"
     id="path4148" /><path
     id="path10"
     d="M 419.96,33.21 C 429.03,252.66 383.71,419.16 230.51,530.31 146.04,469.02 94.36,390.9 66.52,296.34 64.43,289.25 62.48,282.07 60.65,274.8 49.2,229.11 42.88,179.78 40.77,126.86 39.57,96.8 39.72,65.58 41.06,33.21 l 189.45,0 189.45,0 m 0.92,-0.95 -0.92,0 -189.45,0 -189.45,0 -0.92,0 -0.04,0.92 c -4.82,116.66 6.28,211.36 33.93,289.52 30.51,86.24 81.51,154.41 155.91,208.39 l 0.56,0.41 0.56,-0.41 C 305.46,477.11 356.46,408.94 386.97,322.7 414.62,244.54 425.72,149.84 420.9,33.18 l -0.04,-0.92 0,0 z" /><path
     id="path4375"
     d="m 136.35978,391.5 c -0.16984,-4.40252 4.55304,-9.62105 10.67311,-12.47295 8.94827,-4.16982 13.69463,-1.71826 18.07893,-9.58402 4.75344,-8.52802 9.75026,-7.32026 24.39567,-11.26046 8.63911,-2.32426 5.0504,-24.2989 7.84147,-36.00615 1.18294,-4.9619 4.37262,-7.67618 10.89093,-10.23746 3.0806,-1.21048 2.2455,-18.59927 1.3069,-25.04913 -0.61406,-4.21969 -7.50265,-6.74444 -11.64014,-10.41567 -2.44456,-2.16908 -3.13461,-8.84307 -0.0627,-11.4355 4.92545,-4.15664 10.10626,-6.82797 11.5808,-10.82161 1.33622,-3.61902 1.2219,-16.33421 -0.12544,-18.07894 -3.15956,-4.09147 -7.54259,-3.29853 -10.20779,-5.88109 -3.74542,-3.62928 -0.96409,-9.82904 -12.41566,-11.7622 -8.61281,-1.45395 -17.39954,-7.32805 -23.52439,-12.41566 -12.5055,-10.38772 -27.38498,-28.12261 -27.88077,-48.65279 l -0.87128,-36.0786 c -0.21823,-9.03683 -2.93252,-17.25208 -10.23746,-27.009498 L 113.05321,79.5 l 234.89357,0 -11.10875,14.838272 c -7.30494,9.757418 -10.01923,17.972668 -10.23746,27.009498 l -0.87128,36.0786 c -0.49579,20.53018 -15.37527,38.26507 -27.88077,48.65279 -6.12485,5.08761 -14.91158,10.96171 -23.52439,12.41566 -11.45157,1.93316 -8.67024,8.13292 -12.41566,11.7622 -2.6652,2.58256 -7.04823,1.78962 -10.20779,5.88109 -1.34734,1.74473 -1.46166,14.45992 -0.12544,18.07894 1.47454,3.99364 6.65535,6.66497 11.5808,10.82161 3.07191,2.59243 2.38186,9.26642 -0.0627,11.4355 -4.13749,3.67123 -11.02608,6.19598 -11.64014,10.41567 -0.9386,6.44986 -1.7737,23.83865 1.3069,25.04913 6.51831,2.56128 9.70799,5.27556 10.89093,10.23746 2.79107,11.70725 -0.79764,33.68189 7.84147,36.00615 14.64541,3.9402 19.64223,2.73244 24.39567,11.26046 4.3843,7.86576 9.13066,5.4142 18.07893,9.58402 6.12007,2.8519 10.84295,8.07043 10.67311,12.47295 -62.76014,0 -125.52029,0 -188.28043,0 z"
     style="fill:#ffffff;fill-rule:evenodd;stroke:#000000;stroke-width:1px;stroke-linecap:butt;stroke-linejoin:round;stroke-opacity:1" /></svg>