<svg xmlns:dc="http://purl.org/dc/elements/1.1/" xmlns:cc="http://creativecommons.org/ns#" xmlns:rdf="http://www.w3.org/1999/02/22-rdf-syntax-ns#" xmlns:svg="http://www.w3.org/2000/svg" xmlns="http://www.w3.org/2000/svg" id="svg2" version="1.1" x="0" y="0" width="400" height="500" viewBox="30.5 31.5 400 500" enable-background="new 30.5 31.5 412 533" xml:space="preserve">
  <metadata id="metadata4">
    <rdf:RDF>
      <cc:Work rdf:about="">
        <dc:format>
          
          image/svg+xml
        
        </dc:format>
        <dc:type rdf:resource="http://purl.org/dc/dcmitype/StillImage"/>
      </cc:Work>
    </rdf:RDF>
  </metadata>
  <defs id="defs6"/>
  <path id="path8" d="M230.55 531.13C304.87 477.21 355.81 409.11 386.29 322.97 413.93 244.87 425.02 150.22 420.2 33.62l-0.02-0.46-379.82 0-0.02 0.46c-4.81 116.6 6.28 211.24 33.91 289.35 30.48 86.14 81.42 154.24 155.74 208.16l0.28 0.2 0.28-0.2z" fill="#32ac60"/>
  <path id="path10" d="m41.04 33.21c-9.07 219.45 36.25 385.95 189.45 497.1 84.47-61.29 136.15-139.41 163.99-233.97 2.09-7.09 4.04-14.27 5.87-21.54 11.45-45.69 17.77-95.02 19.88-147.94 1.2-30.06 1.05-61.28-0.29-93.65l-189.45 0-189.45 0m-0.92-0.95 0.92 0 189.45 0 189.45 0 0.92 0 0.04 0.92c4.82 116.66-6.28 211.36-33.93 289.52-30.51 86.24-81.51 154.41-155.91 208.39l-0.56 0.41-0.56-0.41C155.54 477.11 104.54 408.94 74.03 322.7 46.38 244.54 35.28 149.84 40.1 33.18l0.04-0.92 0 0z"/>
  <path id="path4221" d="m239.26 252.04c1.76 16.55 21.67 27.15 29.19 28.97 14.64 3.54 20.19 17.46 19.6 25.92-0.39 5.63-1.78 5.63-4.14 9.37-4.84 7.65 1.87 18.91-2.4 50.32-2.78 20.51-16.75 33.47-23.74 37.9-6.9 4.37-10.9 5.3-18.73 8.93-4.69 2.17-4.38 5.06-8.54 5.06-4.15 0-3.85-2.89-8.54-5.06-7.83-3.63-11.83-4.56-18.73-8.93-6.99-4.43-20.96-17.39-23.74-37.9-4.26-31.4 2.44-42.67-2.4-50.32-2.36-3.73-3.75-3.74-4.14-9.37-0.59-8.46 4.96-22.38 19.6-25.92 7.52-1.82 27.42-12.42 29.19-28.97 0.61-5.71 0.65-17.21 0.65-17.21 0.1-8.97-2.06-12.54-6.9-18.58 0 0-7.77-8.08-12.4-11.46-13.44-9.82-34.67-2.2-41.07 2.14-12.46 8.46-26.5 3.21-32.37-2.9-3.9-4.07-2.98-5.1-4.15-9.36-2.41-8.72-15.26-11.33-35.65-35.59-13.32-15.85-13.53-34.9-12.11-43.05 1.4-8.05 3.4-11.63 5.98-19.87 1.54-4.93-0.8-6.65 1.99-9.72 2.79-3.08 4.73-0.91 9.48-2.92 7.95-3.36 11.33-5.7 19.2-7.87 7.98-2.2 26.96-3.83 44.02 7.89 26.12 17.95 29.96 30.48 38.87 32.04 4.35 0.76 5.29-0.26 9.72 3.23 6.66 5.25 13.23 18.71 6.02 31.94-3.71 6.79-6.69 26.79 1.84 41.08 2.85 4.77 7.63 11.49 15.63 11.49 8 0 12.79-6.72 15.63-11.49 8.53-14.29 5.54-34.29 1.84-41.08-7.22-13.22-0.64-26.69 6.02-31.94 4.43-3.49 5.36-2.47 9.72-3.23 8.91-1.56 12.75-14.09 38.87-32.04 17.06-11.72 36.04-10.09 44.02-7.89 7.88 2.17 11.25 4.51 19.2 7.87 4.76 2.01 6.69-0.15 9.48 2.92 2.79 3.08 0.45 4.79 1.99 9.72 2.58 8.24 4.58 11.82 5.98 19.87 1.42 8.16 1.21 27.2-12.11 43.05-20.39 24.26-33.24 26.87-35.65 35.59-1.18 4.26-0.25 5.29-4.15 9.36-5.87 6.12-19.91 11.36-32.37 2.9-6.4-4.35-27.63-11.96-41.07-2.14-4.64 3.39-12.4 11.46-12.4 11.46-4.83 6.04-7 9.61-6.9 18.58 0 0 0.05 11.5 0.65 17.21z" style="fill-rule:evenodd;fill:#ffe000;stroke:#000"/>
</svg>
