<?xml version="1.0" encoding="UTF-8" standalone="no"?>
<svg
   xmlns:dc="http://purl.org/dc/elements/1.1/"
   xmlns:cc="http://creativecommons.org/ns#"
   xmlns:rdf="http://www.w3.org/1999/02/22-rdf-syntax-ns#"
   xmlns:svg="http://www.w3.org/2000/svg"
   xmlns="http://www.w3.org/2000/svg"
   xml:space="preserve"
   enable-background="new 30.5 31.5 412 533"
   viewBox="30.5 31.5 400 500"
   height="500"
   width="400"
   y="0"
   x="0"
   version="1.1"
   id="svg2"><metadata
     id="metadata4"><rdf:RDF><cc:Work
         rdf:about=""><dc:format>
          
          
          
          
          
          
          
          
          image/svg+xml
        
        
        
        
        
        
        
        
        </dc:format><dc:type
           rdf:resource="http://purl.org/dc/dcmitype/StillImage" /><dc:title></dc:title></cc:Work></rdf:RDF></metadata><defs
     id="defs6" /><path
     id="path4148"
     d="M 230.45,531.13 C 156.13,477.21 105.19,409.11 74.71,322.97 47.07,244.87 35.98,150.22 40.8,33.62 l 0.02,-0.46 379.82,0 0.02,0.46 c 4.81,116.6 -6.28,211.24 -33.91,289.35 -30.48,86.14 -81.42,154.24 -155.74,208.16 l -0.28,0.2 z"
     style="fill:#0085ca" /><path
     d="M 419.96,33.21 C 429.03,252.66 383.71,419.16 230.51,530.31 146.04,469.02 94.36,390.9 66.52,296.34 64.43,289.25 62.48,282.07 60.65,274.8 49.2,229.11 42.88,179.78 40.77,126.86 39.57,96.8 39.72,65.58 41.06,33.21 l 189.45,0 189.45,0 m 0.92,-0.95 -0.92,0 -189.45,0 -189.45,0 -0.92,0 -0.04,0.92 c -4.82,116.66 6.28,211.36 33.93,289.52 30.51,86.24 81.51,154.41 155.91,208.39 l 0.56,0.41 0.56,-0.41 C 305.46,477.11 356.46,408.94 386.97,322.7 414.62,244.54 425.72,149.84 420.9,33.18 l -0.04,-0.92 0,0 z"
     id="path10" /><path
     style="fill:#ffffff;fill-opacity:1;stroke:#000000;stroke-width:1;stroke-linecap:round;stroke-linejoin:round;stroke-miterlimit:4;stroke-dasharray:none;stroke-opacity:1"
     id="path2849"
     d="m 84.29953,148.96619 c 4.10952,3.82792 11.20684,4.06139 17.73665,5.56573 0.26119,14.75089 1.00444,24.65217 -2.51964,30.9059 -3.93594,6.98461 -13.8057,4.23616 -14.18538,5.37957 -0.47319,2.14257 5.98725,4.76933 11.99329,2.76975 8.73272,-2.90737 12.79721,-12.91831 12.04675,-38.51016 35.58889,3.11295 56.25865,2.48282 64.53941,12.46487 12.71563,15.32807 29.50733,28.75228 44.86138,42.0137 5.15246,4.45022 -4.11784,21.86721 -7.36327,34.99694 -1.03807,4.19962 -3.12009,13.54223 -3.30615,20.01454 -0.17781,6.18538 0.95644,7.54614 5.39492,7.30746 9.54304,-0.51317 17.95282,-1.52203 22.95977,-1.79845 4.72418,-0.26081 3.73547,1.81926 2.49859,4.50264 -8.37276,18.16452 -12.99674,26.39616 -14.42494,44.30328 -0.18239,2.28682 0.52352,4.63532 6.54962,4.1829 13.16039,-0.98803 17.52324,-3.09352 17.26202,3.74618 -0.58649,15.35628 -1.53711,36.56017 -12.59963,38.00225 -10.63691,1.3866 -52.64542,2.57975 -69.34845,8.99307 -8.5327,3.27623 -8.80766,4.29742 -5.89053,9.20579 7.66955,12.9048 26.21223,21.53261 35.91979,34.92786 4.60295,6.35152 8.80478,24.85011 14.40099,33.61701 4.91189,7.69487 5.30782,7.21344 10.34871,2.73098 7.42714,-6.60436 14.27173,-17.5697 20.03992,-30.59572 7.35955,-16.6197 14.075,-35.20034 23.36223,-45.62996 13.56542,-15.23406 27.81524,-29.81553 39.33852,-51.01168 1.81371,-3.33618 15.03584,-1.41725 30.17809,-1.55863 2.3416,-0.0219 2.59296,-1.0543 3.03204,-2.00168 7.27385,-15.69436 0.97423,-42.409 -2.7432,-62.74319 -0.82538,-4.51477 17.34373,-6.49865 25.88758,-9.3569 3.92567,-1.31328 4.08459,-2.57151 3.76221,-4.41742 -9.35386,-53.55928 -43.11171,-66.66122 -35.60311,-75.99222 10.89945,-13.54484 31.87101,-38.71621 40.92168,-52.03908 4.64829,-6.84242 3.01636,-8.34497 1.10168,-10.29554 -11.0781,-11.285741 -37.58342,-23.248822 -63.21498,-26.874324 -20.76334,-2.936907 -40.59929,-1.613272 -50.13134,-4.308558 -21.8837,-6.187843 -46.986,-11.461935 -63.83423,-11.905833 -15.25111,-0.401819 -29.82975,1.360499 -43.22653,4.259406 -44.63591,9.65869 -76.181361,33.256389 -76.09097,45.996619 0.02593,3.65419 2.23053,3.22124 3.32296,3.23736 0.60177,1.98687 1.70058,3.9813 3.14139,5.395 0.75756,-2.12993 1.57828,-3.88332 3.14139,-5.395 l 4.18531,0 c 0.60177,1.98687 1.70058,3.9813 3.14139,5.395 0.75757,-2.12993 1.57829,-3.88332 3.14139,-5.395 l 4.18531,0 c 0.60178,1.98687 1.70058,3.9813 3.14139,5.395 0.75757,-2.12993 1.57829,-3.88332 3.14139,-5.395 l 4.18532,0 c 0.60177,1.98687 1.70058,3.9813 3.14139,5.395 0.75757,-2.12993 1.57829,-3.88332 3.14139,-5.395 l 4.18532,0 c 0.60177,1.98687 1.70058,3.9813 3.14139,5.395 0.75757,-2.12993 1.57829,-3.88332 3.14139,-5.395 l 4.18531,0 c 3.0813,0 6.44092,5.24404 6.22272,9.05649 -8.62223,-2.09005 -23.48441,-3.48276 -37.884686,0.75878 -5.268019,1.55167 -14.595026,0.0594 -18.645786,-0.5339 -6.53181,-0.95662 -12.914582,2.18793 -13.666402,3.93759 -0.57111,1.3291 3.972592,-0.72929 10.776882,0.32204 5.08616,0.78587 12.989724,3.53924 21.147784,2.59338 5.417818,-0.62815 12.798918,-2.3196 18.183218,-2.19543 8.09166,0.18661 13.02873,1.77501 19.27129,3.5461 -0.9819,4.01237 -5.63726,7.22956 -8.99212,7.22956 l -4.18532,0 c -1.5631,-1.51168 -2.38382,-3.26507 -3.14139,-5.395 -1.44081,1.4137 -2.53962,3.40813 -3.14139,5.395 l -4.18532,0 c -1.56311,-1.51168 -2.38382,-3.26507 -3.14139,-5.395 -1.44081,1.4137 -2.53961,3.40813 -3.14139,5.395 l -4.18532,0 c -1.5631,-1.51168 -2.38382,-3.26507 -3.14139,-5.395 -1.44081,1.4137 -2.53962,3.40813 -3.14139,5.395 l -4.18531,0 c -1.56311,-1.51168 -2.38383,-3.26507 -3.14139,-5.395 -1.44081,1.4137 -2.53962,3.40813 -3.14139,5.395 l -1.94787,0.0672 c -2.08933,0.0721 0.73532,3.87149 2.09044,5.13375 z" /><path
     style="opacity:1;fill:#ffffff;fill-opacity:1;stroke:#000000;stroke-width:1;stroke-miterlimit:4;stroke-dasharray:none;stroke-opacity:1"
     id="path3623"
     d="m 148.62029,93.232578 a 6.694565,6.4482096 0 0 1 -13.38913,0 6.694565,6.4482096 0 1 1 13.38913,0 z" /></svg>