<?xml version="1.0" encoding="UTF-8" standalone="no"?>
<svg
   xmlns:dc="http://purl.org/dc/elements/1.1/"
   xmlns:cc="http://creativecommons.org/ns#"
   xmlns:rdf="http://www.w3.org/1999/02/22-rdf-syntax-ns#"
   xmlns:svg="http://www.w3.org/2000/svg"
   xmlns="http://www.w3.org/2000/svg"
   id="svg2"
   version="1.1"
   x="0"
   y="0"
   width="400"
   height="500"
   viewBox="30.5 31.5 400 500"
   enable-background="new 30.5 31.5 412 533"
   xml:space="preserve"><metadata
     id="metadata4"><rdf:RDF><cc:Work
         rdf:about=""><dc:format>
          
          
          
          image/svg+xml
        
        
        
        </dc:format><dc:type
           rdf:resource="http://purl.org/dc/dcmitype/StillImage" /><dc:title></dc:title></cc:Work></rdf:RDF></metadata><defs
     id="defs6" /><path
     id="path8"
     d="M 230.44,531.14 C 156.12,477.22 105.18,409.12 74.7,322.98 47.06,244.88 35.97,150.23 40.79,33.63 l 0.02,-0.46 379.82,0 0.02,0.46 c 4.81,116.6 -6.28,211.24 -33.91,289.35 C 356.26,409.12 305.32,477.22 231,531.14 l -0.28,0.2 -0.28,-0.2 z"
     style="fill:#32ac60" /><path
     id="path10"
     d="M 419.96,33.21 C 429.03,252.66 383.7,419.16 230.5,530.31 77.31,419.16 31.99,252.66 41.06,33.21 l 189.45,0 189.45,0 m 0.92,-0.95 -0.92,0 -189.45,0 -189.45,0 -0.92,0 -0.04,0.92 c -4.82,116.66 6.28,211.36 33.93,289.52 30.51,86.24 81.51,154.41 155.91,208.39 l 0.56,0.41 0.56,-0.41 C 305.46,477.11 356.46,408.94 386.97,322.7 414.62,244.54 425.72,149.84 420.9,33.18 l -0.04,-0.92 0,0 z" /><path
     style="fill:#ffe000;fill-opacity:1;stroke:#000000;stroke-linecap:round;stroke-linejoin:round;stroke-opacity:1"
     id="path3612"
     d="m 61.19865,192.2712 c 3.88474,3.26822 8.52147,6.98351 19.0974,11.35985 11.60495,4.80215 14.9977,7.32782 32.16936,5.18709 7.54387,-0.94047 11.96924,2.65858 10.47279,5.05498 -3.47849,0.28028 -9.60022,2.16313 -13.78415,1.40963 -4.33733,-0.78113 -6.22225,3.41174 -5.97093,4.96773 2.078,12.86578 34.94479,-7.56394 43.47046,26.71494 -11.78688,-0.21971 -14.02493,-4.7118 -22.93108,-8.72614 -1.29488,5.33033 1.78864,14.12381 5.07237,17.29018 8.8379,8.52203 28.60949,9.19561 33.40907,33.491 -4.62319,-3.20995 -9.66372,-3.37708 -13.56272,-6.53686 -5.3884,-4.36681 -5.91217,-7.4164 -6.6351,3.28673 -1.04504,15.47191 28.30267,14.04704 33.43776,38.93522 -12.96557,-0.9381 -16.43639,1.58489 -19.88163,7.57554 -3.23812,5.63051 -2.32279,5.4312 1.39898,4.79616 15.26099,-2.60394 31.93569,11.1989 29.15717,22.09388 -11.10241,-1.96419 -22.04549,0.85364 -27.62125,14.00112 -2.49886,5.89225 -3.08506,8.06507 3.64353,5.67912 28.94338,-10.26329 30.65415,32.72896 30.56118,38.15655 -0.093,5.42758 3.74516,5.82135 4.94477,4.76425 11.8329,-10.42716 14.60649,-4.48581 19.7643,5.04775 3.78981,7.00499 8.95086,13.90828 15.84661,13.25813 5.85082,-0.55162 9.38524,-11.25375 12.30244,-13.51858 8.04354,-6.24475 4.60293,-18.16835 16.92781,-6.23712 1.10244,1.06722 6.15745,-0.68254 5.7496,-3.522 -5.9649,-41.52786 15.91388,-43.87861 24.12918,-39.78026 10.68913,5.33247 9.48254,1.92223 8.53882,-1.70586 -1.76279,-6.77694 -0.28256,-19.02324 -28.50327,-16.38213 13.61019,-24.04574 22.68676,-20.83239 27.79509,-20.33329 5.02028,0.14826 10.22419,2.99984 2.92406,-7.80775 -3.60121,-5.71736 -13.18628,-11.02524 -18.38831,-6.33736 3.02362,-21.48554 25.91935,-25.66128 32.01719,-37.23703 3.69461,-7.01362 -0.19974,-4.86828 -4.54139,-4.57519 -5.91041,0.67178 -16.50986,6.31009 -15.81278,3.05738 5.99223,-27.96097 38.14214,-12.9664 36.45138,-42.27424 -0.59548,-10.32205 -20.08485,8.03347 -19.56067,0.82197 0.74813,-10.29256 18.71037,-22.22998 34.35322,-20.40729 13.38035,1.55907 18.74708,0.72528 5.84211,-8.53598 -3.7583,-2.69715 -13.75635,-2.33847 -17.47276,-2.01256 1.97595,-11.0777 35.96872,0.33877 60.6362,-19.78554 5.01723,-4.09317 -2.5528,-10.18519 -6.96073,-6.74352 -4.23721,3.30837 -7.90613,6.55431 -10.15731,2.33143 -1.80354,-3.38317 3.31225,-5.27334 8.68172,-10.65117 2.53344,-2.53739 -4.00194,-9.32275 -5.80482,-8.42245 -4.83615,2.41499 -11.33661,10.6789 -14.33037,7.56361 -4.66732,-4.85677 2.997,-7.66783 7.0333,-13.65056 1.9687,-2.91809 -5.77337,-11.02475 -8.40038,-6.71818 -3.87265,6.3486 -8.76424,11.61941 -11.97605,9.56886 -4.13461,-2.6397 2.63823,-11.01822 3.90556,-14.6865 1.51506,-4.38535 -6.65967,-7.17166 -8.32194,-4.18028 -3.42165,6.15751 -4.95207,13.19271 -9.81715,11.26431 -3.59796,-1.42615 0.67075,-7.51982 1.99895,-14.96752 0.75291,-4.22184 -9.10391,-6.24192 -9.70357,-2.75391 -1.22587,7.13051 -1.44396,14.20985 -6.09773,13.73258 -4.55671,-0.46732 -2.7146,-7.99668 -2.36455,-15.3815 0.14223,-3.00071 -9.07206,-2.97447 -9.03108,-0.46421 0.1247,7.63853 1.80346,15.83263 -3.56872,15.40663 -3.8101,-0.30213 -3.46135,-7.84634 -4.34278,-14.65405 -0.51185,-3.95332 -9.03142,-1.69684 -8.97164,1.60909 0.1072,5.92831 2.01894,12.44054 -2.63544,13.56064 -3.01441,0.72544 -5.24206,-7.86491 -5.71385,-11.84915 -0.35793,-3.02267 -8.34551,-2.24087 -8.25244,2.87349 0.42053,23.10881 27.50087,41.97785 21.71895,47.5584 -5.39629,-6.80315 -20.30153,-9.55798 -24.26288,-3.72347 16.42961,17.10721 19.83288,40.8061 14.23159,38.57497 -7.23962,-2.88373 -10.8704,-8.18578 -11.61781,-16.23501 -0.55427,-5.96923 -3.28659,-6.02051 -6.3209,-0.68383 -7.94474,13.97302 10.33511,35.6686 6.87378,44.05128 -2.97834,-4.14332 -9.98439,-7.477 -15.97255,-7.62845 -3.05079,-0.0772 4.99166,24.19936 4.54309,39.28532 -8.61613,-6.10783 -10.21174,-4.60972 -9.47314,2.31411 3.543,33.2132 -7.27023,59.44532 -16.3212,70.32587 -2.2511,-17.38818 0.20776,-31.3913 1.79601,-34.06013 3.8122,-6.40585 3.33538,-6.79845 6.3508,-13.47427 4.66151,-10.32009 6.26329,-14.53434 -9.38482,-5.19255 0.73055,-25.92019 7.14581,-30.50033 15.88983,-35.71064 0.78477,-5.03217 -0.7506,-7.94388 -4.67739,-8.17538 -7.18152,-0.42338 -17.02624,2.87342 -11.66242,-5.23636 5.81573,-8.75659 16.55298,-23.15388 18.32588,-32.97421 2.26248,-12.57238 0.64976,-13.55689 -7.98774,-5.78673 -5.21114,3.58457 -6.86409,5.82842 -11.24767,6.947 -2.51774,-22.12025 21.99633,-36.92175 25.42247,-40.44423 9.51448,-9.78203 -19.15012,-6.20411 -23.04601,2.77225 -0.81106,-18.4238 27.18158,-21.10943 26.37432,-32.07063 -0.35586,-4.83196 -1.58806,-3.33003 -3.16671,-3.84235 -6.26933,-2.03461 -17.25355,9.19068 -19.13981,4.96632 -4.91602,-11.00965 32.00934,-16.08618 44.53054,-47.53935 2.06444,-5.18587 -6.35219,-5.73668 -7.35628,-4.08232 -4.74155,7.81226 -10.00294,14.53241 -12.54043,12.65381 -3.27596,-2.42531 3.16297,-10.51268 5.74014,-18.40342 1.36143,-4.168398 -5.25455,-8.364644 -7.59551,-3.78846 -3.63254,7.101 -7.84834,17.17662 -10.74233,15.9049 -2.77653,-1.2201 0.16495,-11.93742 3.46496,-18.700835 1.79041,-3.669443 -5.53714,-6.645553 -7.61747,-3.011216 -3.83395,6.697899 -5.15812,17.162291 -9.07093,15.360331 -2.33212,-1.074 -0.68314,-9.845729 1.92313,-17.462612 0.97095,-2.83766 -8.41947,-7.003028 -9.41148,-1.669622 -1.48067,7.96057 -1.05601,18.016674 -4.37315,17.535604 -3.25682,-0.47232 -1.6799,-10.736206 -1.21605,-17.776612 0.32667,-4.958232 -9.53975,-4.385521 -9.86523,-0.65844 -0.56507,6.47068 1.37116,17.978752 -2.24892,18.002082 -4.23148,0.0273 -2.86423,-9.428326 -4.45962,-18.147501 -0.53814,-2.941076 -10.93132,-2.466979 -10.3694,1.894958 0.96761,7.511035 5.38492,17.148283 1.5614,18.234603 -3.83002,1.08817 -4.79175,-8.558134 -8.67245,-14.875293 -2.5273,-4.114037 -10.43401,0.315882 -9.06059,3.178912 3.55019,7.400701 7.10952,15.949581 4.38896,17.240931 -4.00377,1.90046 -5.84488,-8.78849 -10.3094,-15.000912 -3.0205,-4.203047 -10.59104,2.967562 -9.01308,5.580472 3.75752,6.22197 10.44575,14.01906 6.95398,15.72572 -5.45942,2.66838 -6.3636,-4.85922 -11.41275,-11.36532 -2.73112,-3.51919 -8.90795,0.808 -7.6952,4.2193 12.67992,35.66684 52.63421,32.3308 42.13153,47.65577 -2.65861,1.66359 -10.53884,-1.49084 -17.04512,-7.09245 -1.96593,-1.69258 -5.52067,-3.32759 -5.65654,0.61478 -0.44572,12.93301 34.16006,23.1656 32.00889,40.19903 -0.5604,4.43736 -9.47193,-0.98439 -19.98007,-11.11808 -2.39128,-2.30607 -4.63022,-2.7728 -4.80412,7.40001 -0.1739,10.17282 30.85668,20.01888 25.81749,42.31681 -4.03487,-1.65212 -10.25003,-8.41196 -15.10749,-9.42094 -3.67501,-0.0516 -6.11576,-4.8123 -5.1153,4.61979 1.3751,12.96416 26.21373,20.10693 19.65917,39.51026 -5.2326,-2.09253 -5.27512,0.42583 -10.20876,-7.52017 -4.72309,-7.6069 -7.72843,-8.91463 -8.26514,4.229 -0.39337,9.63328 25.62941,29.0855 18.81085,49.17981 -3.5429,-4.24363 -4.70585,-5.17612 -7.92576,-7.41214 -2.97108,-2.06322 -5.24619,0.16791 -5.16855,1.41539 1.0004,16.07447 18.7288,27.22992 11.30904,55.70411 -5.96239,-17.04106 -15.0053,-29.92236 -18.31372,-45.58873 -1.10347,-5.22525 1.37424,-20.46395 0.2481,-26.3713 -1.36203,-7.14481 -3.74928,-2.69929 -8.66248,0.82985 -6.29522,-20.61091 1.77393,-32.5236 1.65614,-38.49755 -5.12775,0.43546 -7.87582,2.18123 -11.69291,7.8613 -6.76241,-23.91586 1.64861,-22.62958 5.48807,-32.63025 2.26826,-5.90814 -5.89329,-22.3156 -9.07496,-12.346 -1.88216,5.89765 -4.06964,13.01064 -9.84889,15.10178 -11.88247,-29.33231 -0.39587,-37.0729 11.86611,-36.64663 1.38092,0.048 -1.12497,-4.03028 -3.8081,-5.16418 -6.99293,-2.95523 -18.77114,10.38361 -19.20566,8.5973 -3.40806,-14.01063 18.37018,-8.71551 20.57211,-48.61124 0.27968,-5.06745 -7.01356,-6.41246 -7.68711,-2.06792 -1.34146,8.65267 -3.40531,13.4837 -7.27546,12.37912 -3.85886,-1.10136 0.24668,-6.43384 0.7187,-15.34039 0.20658,-3.89791 -9.13769,-4.81721 -9.23224,-1.27336 -0.19243,7.21247 -0.3901,14.36584 -4.93701,13.38679 -2.71513,-0.58463 -2.45358,-7.20204 -2.34322,-14.30425 0.0729,-4.69163 -10.13753,-3.1249 -9.73831,0.27262 0.87621,7.45698 2.84991,15.06581 -1.38098,15.96034 -3.36643,0.71177 -4.1818,-8.83486 -6.24065,-15.76541 -1.04405,-3.51451 -11.12689,0.30274 -10.28672,2.92155 2.51241,7.83113 7.2988,15.4278 3.27997,17.05114 -3.81219,1.53988 -7.40926,-6.86158 -11.45951,-13.99245 -1.63371,-2.87631 -10.768758,3.0808 -9.4091,5.90413 3.19549,6.63542 10.75448,13.9363 7.37991,17.01016 -3.37004,3.06974 -8.592109,-6.34305 -13.90252,-12.67022 -1.99632,-2.37855 -10.385241,5.04637 -8.369048,7.1549 4.970359,5.19799 14.445188,11.04158 10.742568,15.27441 -3.841331,4.3914 -11.950952,-6.35914 -17.492622,-10.29467 -3.0883,-2.19322 -8.08171,5.91457 -6.925982,6.9676 6.008377,5.47445 15.571744,9.24147 12.121654,13.61366 -2.523506,3.19796 -8.396333,-0.0566 -16.105203,-5.53467 -2.19904,-1.56268 -7.147467,5.70546 -4.535347,7.90304 z" /></svg>