<?xml version="1.0" encoding="UTF-8" standalone="no"?>
<svg
   xmlns:dc="http://purl.org/dc/elements/1.1/"
   xmlns:cc="http://creativecommons.org/ns#"
   xmlns:rdf="http://www.w3.org/1999/02/22-rdf-syntax-ns#"
   xmlns:svg="http://www.w3.org/2000/svg"
   xmlns="http://www.w3.org/2000/svg"
   id="svg2"
   version="1.1"
   x="0"
   y="0"
   width="400"
   height="500"
   viewBox="30.5 31.5 400 500"
   enable-background="new 30.5 31.5 412 533"
   xml:space="preserve"><metadata
     id="metadata4"><rdf:RDF><cc:Work
         rdf:about=""><dc:format>
          
          
          
          
          
          image/svg+xml
        
        
        
        
        
        </dc:format><dc:type
           rdf:resource="http://purl.org/dc/dcmitype/StillImage" /><dc:title></dc:title></cc:Work></rdf:RDF></metadata><defs
     id="defs6" /><path
     style="fill:#e00e00;fill-opacity:1"
     id="path8"
     d="M 230.44,531.14 C 156.12,477.22 105.18,409.12 74.7,322.98 47.06,244.88 35.97,150.23 40.79,33.63 l 0.02,-0.46 379.82,0 0.02,0.46 c 4.81,116.6 -6.28,211.24 -33.91,289.35 C 356.26,409.12 305.32,477.22 231,531.14 l -0.28,0.2 -0.28,-0.2 z" /><path
     d="m 230.05175,60.325003 c 3.13407,12.006123 3.99637,24.790231 3.7212,38.152899 -0.47705,23.166118 -18.22606,39.292288 -18.68057,62.097178 -0.33132,16.62372 4.30884,27.21528 4.06088,41.80269 -0.43381,25.52157 -12.13708,34.88378 -11.86648,61.50918 0.18656,18.35616 8.60251,20.52832 7.90045,46.05249 -0.42863,15.58322 -13.76676,28.563 -15.53024,48.516 -1.63539,18.50367 3.6549,20.52943 5.25344,34.67401 1.59105,14.07817 -2.73874,32.30373 -13.09154,43.57795 3.87419,-13.24073 0.95297,-31.69401 -3.26141,-38.37299 -11.78608,-18.67866 -21.40633,-28.05157 -20.07992,-43.79885 1.31107,-15.56519 4.78317,-27.83826 3.41484,-45.74367 -2.30347,-30.14231 -15.75686,-30.39203 -15.05799,-60.21833 0.37436,-15.9769 5.18915,-19.31523 5.43152,-38.34658 0.32468,-25.49463 -12.51168,-56.61355 -27.64709,-69.3021 5.03438,13.3767 7.05299,30.49543 6.89154,45.58938 -0.31788,29.7188 -15.39412,37.13616 -18.25618,63.57878 -1.51205,13.96993 5.20013,31.29826 8.59929,47.18439 7.32648,34.24061 -5.53483,39.21238 -4.6805,62.58378 0.79911,21.86047 5.70757,21.56876 5.82746,36.51138 0.13162,16.40629 -10.37103,18.55753 -11.3721,21.93555 26.77961,41.52155 67.53224,83.43778 108.87165,112.61794 49.59394,-36.73444 81.34814,-71.20251 108.78478,-112.56144 -5.45216,-5.19798 -13.9983,-8.9921 -14.32261,-27.4064 -0.34608,-19.65072 14.09986,-30.22579 14.1687,-59.91057 0.0447,-19.27512 -11.29371,-41.85282 -10.41333,-63.85077 1.18487,-29.60606 9.03085,-36.91287 9.38108,-59.56286 0.30842,-19.94601 -12.65992,-49.1714 -30.76698,-66.05534 7.66782,28.95515 9.61066,39.06812 8.63899,53.48387 -2.42653,36.00026 -26.96398,49.96538 -18.21639,87.79233 3.30028,14.2713 3.84425,25.75558 2.72377,36.74529 -2.79148,27.37901 -23.43024,38.83065 -21.9003,65.89362 0.97651,17.2734 -1.05931,32.74057 -13.67206,51.21359 0,0 1.12056,-18.47302 -1.32218,-27.10703 -5.75489,-20.34103 -12.58199,-28.14681 -13.26306,-47.69207 -0.57599,-16.52969 9.82657,-31.10771 9.36874,-48.75617 -0.63891,-24.6286 -14.17516,-40.90224 -14.14134,-62.0437 0.0298,-18.67232 6.91764,-30.76902 6.60899,-49.69585 -0.22582,-13.84765 -6.56931,-28.96424 -7.2292,-43.29893 -0.80283,-17.44023 8.23927,-27.39474 6.33254,-45.83246 C 249.26172,92.956638 238.38142,69.747 230.05178,60.325003 Z"
     id="path4297"
     style="fill:#ffe000;fill-opacity:1;stroke:none;stroke-linejoin:round;stroke-opacity:1" /><path
     id="path10"
     d="M 419.96,33.21 C 429.03,252.66 383.7,419.16 230.5,530.31 77.31,419.16 31.99,252.66 41.06,33.21 l 189.45,0 189.45,0 m 0.92,-0.95 -0.92,0 -189.45,0 -189.45,0 -0.92,0 -0.04,0.92 c -4.82,116.66 6.28,211.36 33.93,289.52 30.51,86.24 81.51,154.41 155.91,208.39 l 0.56,0.41 0.56,-0.41 C 305.46,477.11 356.46,408.94 386.97,322.7 414.62,244.54 425.72,149.84 420.9,33.18 l -0.04,-0.92 0,0 z" /><path
     style="fill:none;fill-opacity:1;stroke:#000000;stroke-linejoin:round;stroke-opacity:1"
     id="path2827"
     d="m 339.28478,418.36464 c -5.45216,-5.19798 -13.9983,-8.9921 -14.32261,-27.4064 -0.34608,-19.65072 14.09986,-30.22579 14.1687,-59.91057 0.0447,-19.27512 -11.29371,-41.85282 -10.41333,-63.85077 1.18487,-29.60606 9.03085,-36.91287 9.38108,-59.56286 0.30842,-19.94601 -12.65992,-49.1714 -30.76698,-66.05534 7.66782,28.95515 9.61066,39.06812 8.63899,53.48387 -2.42653,36.00026 -26.96398,49.96538 -18.21639,87.79233 3.30028,14.2713 3.84425,25.75558 2.72377,36.74529 -2.79148,27.37901 -23.43024,38.83065 -21.9003,65.89362 0.97651,17.2734 -1.05931,32.74057 -13.67206,51.21359 0,0 1.12056,-18.47302 -1.32218,-27.10703 -5.75489,-20.34103 -12.58199,-28.14681 -13.26306,-47.69207 -0.57599,-16.52969 9.82657,-31.10771 9.36874,-48.75617 -0.63891,-24.6286 -14.17516,-40.90224 -14.14134,-62.0437 0.0298,-18.67232 6.91764,-30.76902 6.60899,-49.69585 -0.22582,-13.84765 -6.56931,-28.96424 -7.2292,-43.29893 -0.80283,-17.44023 8.23927,-27.39474 6.33254,-45.83246 C 249.26172,92.956638 238.38142,69.747 230.05178,60.325003 l -3e-5,0 c 3.13407,12.006123 3.99637,24.790231 3.7212,38.152899 -0.47705,23.166118 -18.22606,39.292288 -18.68057,62.097178 -0.33132,16.62372 4.30884,27.21528 4.06088,41.80269 -0.43381,25.52157 -12.13708,34.88378 -11.86648,61.50918 0.18656,18.35616 8.60251,20.52832 7.90045,46.05249 -0.42863,15.58322 -13.76676,28.563 -15.53024,48.516 -1.63539,18.50367 3.6549,20.52943 5.25344,34.67401 1.59105,14.07817 -2.73874,32.30373 -13.09154,43.57795 3.87419,-13.24073 0.95297,-31.69401 -3.26141,-38.37299 -11.78608,-18.67866 -21.40633,-28.05157 -20.07992,-43.79885 1.31107,-15.56519 4.78317,-27.83826 3.41484,-45.74367 -2.30347,-30.14231 -15.75686,-30.39203 -15.05799,-60.21833 0.37436,-15.9769 5.18915,-19.31523 5.43152,-38.34658 0.32468,-25.49463 -12.51168,-56.61355 -27.64709,-69.3021 5.03438,13.3767 7.05299,30.49543 6.89154,45.58938 -0.31788,29.7188 -15.39412,37.13616 -18.25618,63.57878 -1.51205,13.96993 5.20013,31.29826 8.59929,47.18439 7.32648,34.24061 -5.53483,39.21238 -4.6805,62.58378 0.79911,21.86047 5.70757,21.56876 5.82746,36.51138 0.13162,16.40629 -10.37103,18.55753 -11.3721,21.93555" /></svg>