<?xml version="1.0" encoding="UTF-8" standalone="no"?>
<svg
   xmlns:dc="http://purl.org/dc/elements/1.1/"
   xmlns:cc="http://creativecommons.org/ns#"
   xmlns:rdf="http://www.w3.org/1999/02/22-rdf-syntax-ns#"
   xmlns:svg="http://www.w3.org/2000/svg"
   xmlns="http://www.w3.org/2000/svg"
   id="svg2"
   version="1.1"
   x="0"
   y="0"
   width="400"
   height="500"
   viewBox="30.5 31.5 400 500"
   enable-background="new 30.5 31.5 412 533"
   xml:space="preserve"><metadata
     id="metadata4"><rdf:RDF><cc:Work
         rdf:about=""><dc:format>
          
          
          
          image/svg+xml
        
        
        
        </dc:format><dc:type
           rdf:resource="http://purl.org/dc/dcmitype/StillImage" /><dc:title></dc:title></cc:Work></rdf:RDF></metadata><defs
     id="defs6" /><path
     style="fill:#32ac60"
     id="path8"
     d="M 230.56,531.14 C 304.88,477.22 355.82,409.12 386.3,322.98 413.94,244.88 425.03,150.23 420.21,33.63 l -0.02,-0.46 -379.82,0 -0.02,0.46 c -4.81,116.6 6.28,211.24 33.91,289.35 30.48,86.14 81.42,154.24 155.74,208.16 l 0.28,0.2 0.28,-0.2 z" /><path
     id="path10"
     d="M 41.04,33.21 C 31.97,252.66 77.3,419.16 230.5,530.31 383.69,419.16 429.01,252.66 419.94,33.21 l -189.45,0 -189.45,0 m -0.92,-0.95 0.92,0 189.45,0 189.45,0 0.92,0 0.04,0.92 c 4.82,116.66 -6.28,211.36 -33.93,289.52 -30.51,86.24 -81.51,154.41 -155.91,208.39 l -0.56,0.41 -0.56,-0.41 C 155.54,477.11 104.54,408.94 74.03,322.7 46.38,244.54 35.28,149.84 40.1,33.18 l 0.04,-0.92 0,0 z" /><path
     id="path4197"
     style="fill:#ffe100;fill-opacity:1;stroke:#000000;stroke-width:1;stroke-opacity:1;stroke-miterlimit:4;stroke-dasharray:none;stroke-linejoin:round;stroke-linecap:round"
     d="m 255.43032,208.4915 c 2.9137,-1.31587 7.8951,-11.09079 9.30498,-11.93667 1.87976,-1.03394 14.38038,1.12782 16.54214,-0.47 2.25576,-1.59782 6.01534,-12.68856 7.42522,-14.28638 1.87976,-2.06776 11.74868,-0.75194 12.87656,-2.16176 0.93988,-1.12788 0.56394,-14.56838 -0.282,-15.22632 -3.00764,-2.06776 -5.3574,-3.0077 -10.6208,-6.29734 12.12468,0.65794 19.26785,4.51152 21.14766,4.04158 1.59782,-0.37594 8.83504,-5.3574 8.92904,-7.33122 0.094,-1.87976 -6.4853,-12.5006 -8.4591,-12.68856 -13.15856,-1.59782 -36.18598,-1.12788 -54.044,1.31582 16.2602,-13.5345 32.05046,-13.81644 46.1489,-12.40662 2.3497,0.188 11.56068,-9.86892 10.5268,-10.99674 -4.98145,-5.26346 -10.05686,-10.43286 -12.68856,-10.05692 -10.71486,1.31588 -35.99804,10.24486 -56.76976,26.41106 10.33886,-19.73778 22.74548,-31.86246 36.65598,-32.23841 1.22186,-0.9399 3.94753,-12.218654 3.19564,-13.252536 -1.40988,-0.751921 -11.27874,-5.921345 -13.15856,-5.075441 -15.22632,6.673262 -28.47882,24.531267 -35.90404,41.449407 0.84594,-13.15856 0.93994,-29.136769 2.9137,-42.013346 1.78582,-11.842687 5.3574,-21.053667 5.4514,-22.087553 0.188,-3.101658 -11.46674,-13.440518 -13.6285,-13.440518 -1.97376,0 -13.8165,10.244868 -13.6285,13.440518 0.094,1.033886 3.66558,10.244866 5.4514,22.087553 1.87982,12.876577 2.06776,28.854786 2.9137,42.013346 -7.42522,-16.91814 -20.77172,-34.776145 -35.90404,-41.449407 -1.87982,-0.845904 -11.74868,4.32352 -13.15856,5.075441 -0.75189,1.033882 1.97379,12.312636 3.19564,13.252536 13.9105,0.37595 26.31712,12.59463 36.65598,32.23841 -20.77172,-16.1662 -46.0549,-25.09518 -56.76976,-26.41106 -2.7257,-0.28194 -7.7071,4.79346 -12.68856,10.05692 -1.03388,1.12782 8.1771,11.18474 10.5268,10.99674 14.00446,-1.40982 29.8887,-1.12788 46.1489,12.40662 -17.85802,-2.4437 -40.88544,-2.91364 -54.044,-1.31582 -1.9738,0.28194 -8.55304,10.8088 -8.4591,12.68856 0.094,1.97382 7.33122,6.95528 8.92904,7.33122 1.87982,0.37594 9.11698,-3.38364 21.14766,-4.04158 -5.2634,3.28964 -7.70716,4.13558 -10.6208,6.29734 -0.84594,0.56394 -1.22188,14.00444 -0.282,15.22632 1.12788,1.40982 10.9968,0.094 12.87656,2.16176 1.40988,1.59782 5.26346,12.68856 7.42522,14.28638 2.16176,1.59782 14.66238,-0.65788 16.54214,0.47 1.40988,0.84588 6.48528,10.6208 9.30498,11.93667 2.25576,1.03389 10.6208,-1.03393 17.95202,-2.81969 -1.59782,6.48528 -2.8197,12.97056 0.188,17.38808 6.76722,10.05686 14.00444,10.5268 21.7116,13.2525 5.2634,1.87982 9.30492,-14.75638 5.2634,-15.22632 -10.33886,-1.22182 -17.85802,-6.39128 -13.5345,-15.60226 7.23719,1.59782 15.32032,3.94758 17.57602,2.9137 z" /><path
     id="path4199"
     style="fill:#ffe100;fill-opacity:1;stroke:#000000;stroke-width:1;stroke-opacity:1;stroke-miterlimit:4;stroke-dasharray:none;stroke-linejoin:round;stroke-linecap:round"
     d="m 255.43032,410.4915 c 2.9137,-1.31587 7.8951,-11.09079 9.30498,-11.93667 1.87976,-1.03394 14.38038,1.12782 16.54214,-0.47 2.25576,-1.59782 6.01534,-12.68856 7.42522,-14.28638 1.87976,-2.06776 11.74868,-0.75194 12.87656,-2.16176 0.93988,-1.12788 0.56394,-14.56838 -0.282,-15.22632 -3.00764,-2.06776 -5.3574,-3.0077 -10.6208,-6.29734 12.12468,0.65794 19.26785,4.51152 21.14766,4.04158 1.59782,-0.37594 8.83504,-5.3574 8.92904,-7.33122 0.094,-1.87976 -6.4853,-12.5006 -8.4591,-12.68856 -13.15856,-1.59782 -36.18598,-1.12788 -54.044,1.31582 16.2602,-13.5345 32.05046,-13.81644 46.1489,-12.40662 2.3497,0.188 11.56068,-9.86892 10.5268,-10.99674 -4.98145,-5.26346 -10.05686,-10.43286 -12.68856,-10.05692 -10.71486,1.31588 -35.99804,10.24486 -56.76976,26.41106 10.33886,-19.73778 22.74548,-31.86246 36.65598,-32.2384 1.22186,-0.93988 3.94753,-12.21868 3.19564,-13.25256 -1.40988,-0.75188 -11.27874,-5.92134 -13.15856,-5.0754 -15.22632,6.67322 -28.47882,24.53124 -35.90404,41.44938 0.84594,-13.15856 0.93994,-29.13676 2.9137,-42.01332 1.78582,-11.84274 5.3574,-21.05372 5.4514,-22.0876 0.188,-3.10164 -11.46674,-13.4405 -13.6285,-13.4405 -1.97376,0 -13.8165,10.24486 -13.6285,13.4405 0.094,1.03388 3.66558,10.24486 5.4514,22.0876 1.87982,12.87656 2.06776,28.85476 2.9137,42.01332 -7.42522,-16.91814 -20.77172,-34.77616 -35.90404,-41.44938 -1.87982,-0.84594 -11.74868,4.32352 -13.15856,5.0754 -0.75189,1.03388 1.97379,12.31268 3.19564,13.25256 13.9105,0.37594 26.31712,12.59462 36.65598,32.2384 -20.77172,-16.1662 -46.0549,-25.09518 -56.76976,-26.41106 -2.7257,-0.28194 -7.70711,4.79346 -12.68856,10.05692 -1.03388,1.12782 8.1771,11.18474 10.5268,10.99674 14.00446,-1.40982 29.8887,-1.12788 46.1489,12.40662 -17.85802,-2.4437 -40.88544,-2.91364 -54.044,-1.31582 -1.9738,0.28194 -8.55304,10.8088 -8.4591,12.68856 0.094,1.97382 7.33122,6.95528 8.92904,7.33122 1.87981,0.37594 9.11698,-3.38364 21.14766,-4.04158 -5.2634,3.28964 -7.70716,4.13558 -10.6208,6.29734 -0.84594,0.56394 -1.22188,14.00444 -0.282,15.22632 1.12788,1.40982 10.9968,0.094 12.87656,2.16176 1.40988,1.59782 5.26346,12.68856 7.42522,14.28638 2.16176,1.59782 14.66238,-0.65788 16.54214,0.47 1.40988,0.84588 6.48528,10.6208 9.30498,11.93667 2.25576,1.03389 10.6208,-1.03393 17.95202,-2.81969 -1.59782,6.48528 -2.8197,12.97056 0.188,17.38808 6.76722,10.05686 14.00444,10.5268 21.7116,13.2525 5.2634,1.87982 9.30492,-14.75638 5.2634,-15.22632 -10.33886,-1.22182 -17.85802,-6.39128 -13.5345,-15.60226 7.23719,1.59782 15.32032,3.94758 17.57602,2.9137 z" /></svg>