<?xml version="1.0" encoding="UTF-8" standalone="no"?>
<svg
   xmlns:dc="http://purl.org/dc/elements/1.1/"
   xmlns:cc="http://creativecommons.org/ns#"
   xmlns:rdf="http://www.w3.org/1999/02/22-rdf-syntax-ns#"
   xmlns:svg="http://www.w3.org/2000/svg"
   xmlns="http://www.w3.org/2000/svg"
   xml:space="preserve"
   enable-background="new 30.5 31.5 412 533"
   viewBox="30.5 31.5 400 500"
   height="500"
   width="400"
   y="0"
   x="0"
   version="1.1"
   id="svg2"><metadata
     id="metadata4"><rdf:RDF><cc:Work
         rdf:about=""><dc:format>
          
          
          
          
          image/svg+xml
        
        
        
        
        </dc:format><dc:type
           rdf:resource="http://purl.org/dc/dcmitype/StillImage" /><dc:title></dc:title></cc:Work></rdf:RDF></metadata><defs
     id="defs6" /><path
     style="fill:#0085ca"
     id="path4148"
     d="M 230.55,531.13 C 304.87,477.21 355.81,409.11 386.29,322.97 413.93,244.87 425.02,150.22 420.2,33.62 l -0.02,-0.46 -379.82,0 -0.02,0.46 c -4.81,116.6 6.28,211.24 33.91,289.35 30.48,86.14 81.42,154.24 155.74,208.16 l 0.28,0.2 0.28,-0.2 z" /><path
     d="m 41.04,33.21 c -9.07,219.45 36.25,385.95 189.45,497.1 84.47,-61.29 136.15,-139.41 163.99,-233.97 2.09,-7.09 4.04,-14.27 5.87,-21.54 11.45,-45.69 17.77,-95.02 19.88,-147.94 1.2,-30.06 1.05,-61.28 -0.29,-93.65 l -189.45,0 -189.45,0 m -0.92,-0.95 0.92,0 189.45,0 189.45,0 0.92,0 0.04,0.92 c 4.82,116.66 -6.28,211.36 -33.93,289.52 -30.51,86.24 -81.51,154.41 -155.91,208.39 l -0.56,0.41 -0.56,-0.41 C 155.54,477.11 104.54,408.94 74.03,322.7 46.38,244.54 35.28,149.84 40.1,33.18 l 0.04,-0.92 0,0 z"
     id="path10" /><path
     id="path4221"
     d="m 221.00361,436.85236 -1.75627,-63.75794 c -0.27447,-9.96431 -2.2478,-21.4411 -12.22321,-25.43747 -13.75606,-5.51098 -26.49297,-15.47504 -33.17494,-26.98616 -4.92066,-8.47687 -7.96226,-21.68997 -8.14837,-30.04904 -0.31098,-13.96722 2.66521,-23.71755 5.92992,-31.40401 2.65368,-6.24784 5.25027,-13.0618 5.20803,-18.55907 -0.0507,-6.58826 -0.84256,-9.81748 2.58936,-11.11188 2.47902,-0.935 6.81777,4.35711 6.9335,8.32156 0.1906,6.52938 -4.04566,13.6815 -6.10315,22.50891 -5.48774,23.54436 -0.18379,45.82888 16.19578,60.47339 6.56164,5.86657 16.59041,13.34072 34.04574,13.37178 17.45533,-0.0311 27.4841,-7.50521 34.04574,-13.37178 16.37957,-14.64451 21.68352,-36.92903 16.19578,-60.47339 -2.05749,-8.82741 -6.29375,-15.97953 -6.10315,-22.50891 0.11573,-3.96445 4.45448,-9.25656 6.9335,-8.32156 3.43192,1.2944 2.64003,4.52362 2.58936,11.11188 -0.0422,5.49727 2.55435,12.31123 5.20803,18.55907 3.26471,7.68646 6.2409,17.43679 5.92992,31.40401 -0.18611,8.35907 -3.22771,21.57217 -8.14837,30.04904 -6.68197,11.51112 -19.41888,21.47518 -33.17494,26.98616 -9.97541,3.99637 -11.94874,15.47316 -12.22321,25.43747 l -1.75627,63.75794 c -0.21053,7.64297 -3.04619,7.64297 -9.49639,7.64297 -6.4502,0 -9.28586,0 -9.49639,-7.64297 z"
     style="fill:#ffffff;fill-rule:evenodd;stroke:#000000;stroke-width:1.00934279px;stroke-linecap:butt;stroke-linejoin:miter;stroke-opacity:1" /><path
     style="fill:#ffffff;fill-rule:evenodd;stroke:#000000;stroke-width:1.00934279px;stroke-linecap:butt;stroke-linejoin:miter;stroke-opacity:1"
     d="m 131.00361,296.85236 -1.75627,-63.75794 c -0.27447,-9.96431 -2.2478,-21.4411 -12.22321,-25.43747 -13.75606,-5.51098 -26.49297,-15.47504 -33.17494,-26.98616 -4.92066,-8.47687 -7.96226,-21.68997 -8.14837,-30.04904 -0.31098,-13.96722 2.66521,-23.71755 5.92992,-31.40401 2.65368,-6.24784 5.25027,-13.0618 5.20803,-18.55907 -0.0507,-6.588262 -0.84256,-9.817483 2.58936,-11.111884 2.47902,-0.934995 6.81777,4.357111 6.9335,8.321567 0.1906,6.529377 -4.04566,13.681497 -6.10315,22.508907 -5.48774,23.54436 -0.18379,45.82888 16.19578,60.47339 6.56164,5.86657 16.59041,13.34072 34.04574,13.37178 17.45533,-0.0311 27.4841,-7.50521 34.04574,-13.37178 16.37957,-14.64451 21.68352,-36.92903 16.19578,-60.47339 -2.05749,-8.82741 -6.29375,-15.97953 -6.10315,-22.508907 0.11573,-3.964456 4.45448,-9.256562 6.9335,-8.321567 3.43192,1.294401 2.64003,4.523622 2.58936,11.111884 -0.0422,5.49727 2.55435,12.31123 5.20803,18.55907 3.26471,7.68646 6.2409,17.43679 5.92992,31.40401 -0.18611,8.35907 -3.22771,21.57217 -8.14837,30.04904 -6.68197,11.51112 -19.41888,21.47518 -33.17494,26.98616 -9.97541,3.99637 -11.94874,15.47316 -12.22321,25.43747 l -1.75627,63.75794 c -0.21053,7.64297 -3.04619,7.64297 -9.49639,7.64297 -6.4502,0 -9.28586,0 -9.49639,-7.64297 z"
     id="path4246" /><path
     id="path4248"
     d="m 311.00361,296.85236 -1.75627,-63.75794 c -0.27447,-9.96431 -2.2478,-21.4411 -12.22321,-25.43747 -13.75606,-5.51098 -26.49297,-15.47504 -33.17494,-26.98616 -4.92066,-8.47687 -7.96226,-21.68997 -8.14837,-30.04904 -0.31098,-13.96722 2.66521,-23.71755 5.92992,-31.40401 2.65368,-6.24784 5.25027,-13.0618 5.20803,-18.55907 -0.0507,-6.588262 -0.84256,-9.817483 2.58936,-11.111884 2.47902,-0.934995 6.81777,4.357111 6.9335,8.321567 0.1906,6.529377 -4.04566,13.681497 -6.10315,22.508907 -5.48774,23.54436 -0.18379,45.82888 16.19578,60.47339 6.56164,5.86657 16.59041,13.34072 34.04574,13.37178 17.45533,-0.0311 27.4841,-7.50521 34.04574,-13.37178 16.37957,-14.64451 21.68352,-36.92903 16.19578,-60.47339 -2.05749,-8.82741 -6.29375,-15.97953 -6.10315,-22.508907 0.11573,-3.964456 4.45448,-9.256562 6.9335,-8.321567 3.43192,1.294401 2.64003,4.523622 2.58936,11.111884 -0.0422,5.49727 2.55435,12.31123 5.20803,18.55907 3.26471,7.68646 6.2409,17.43679 5.92992,31.40401 -0.18611,8.35907 -3.22771,21.57217 -8.14837,30.04904 -6.68197,11.51112 -19.41888,21.47518 -33.17494,26.98616 -9.97541,3.99637 -11.94874,15.47316 -12.22321,25.43747 l -1.75627,63.75794 c -0.21053,7.64297 -3.04619,7.64297 -9.49639,7.64297 -6.4502,0 -9.28586,0 -9.49639,-7.64297 z"
     style="fill:#ffffff;fill-rule:evenodd;stroke:#000000;stroke-width:1.00934279px;stroke-linecap:butt;stroke-linejoin:miter;stroke-opacity:1" /></svg>