<?xml version="1.0" encoding="UTF-8" standalone="no"?>
<!-- Created with Inkscape (http://www.inkscape.org/) -->

<svg
   xmlns:dc="http://purl.org/dc/elements/1.1/"
   xmlns:cc="http://creativecommons.org/ns#"
   xmlns:rdf="http://www.w3.org/1999/02/22-rdf-syntax-ns#"
   xmlns:svg="http://www.w3.org/2000/svg"
   xmlns="http://www.w3.org/2000/svg"
   xmlns:xlink="http://www.w3.org/1999/xlink"
   version="1.1"
   width="399"
   height="480"
   id="svg4126">
  <metadata
     id="metadata11">
    <rdf:RDF>
      <cc:Work
         rdf:about="">
        <dc:format>image/svg+xml</dc:format>
        <dc:type
           rdf:resource="http://purl.org/dc/dcmitype/StillImage" />
        <dc:title></dc:title>
      </cc:Work>
    </rdf:RDF>
  </metadata>
  <defs
     id="defs4130" />
  <path
     d="M 0.18484108,25.689238 30.954803,0.30415378 367.50555,0.3695284 397.79891,26.059199 C 383.38154,25.48931 365.31792,33.30254 365.31792,57.335214 l 0,344.690716 c 0,42.63556 -29.25527,55.23026 -44.71483,55.20971 l -85.6654,-0.11384 c -13.31459,-0.0177 -29.44774,15.77144 -38.09886,22.88073 -7.93963,-6.13609 -23.46464,-22.76689 -34.61977,-22.76689 l -86.163167,0 c -18.790367,0 -45.43828,-11.69037 -45.402561,-50.4967 L 30.976614,55.513857 C 30.995944,34.513625 18.721817,29.284721 0.18484108,25.689238 z"
     id="path3017"
     style="fill:#d61a1a;fill-opacity:1;stroke:none" />
  <path
     d="m 84.705011,353.65966 c -1.414213,-6.88015 -9.56698,-17.59599 -4.24264,-20.64044 l 16.351839,-9.34995 c 2.94127,-1.68182 0.34871,-9.90279 -2.38648,-8.99712 l -20.152544,6.35091 c -0.213887,-3.22918 -1.438008,-5.19819 -2.209708,-6.88015 6.377577,-5.98517 4.996968,-13.90008 3.005204,-17.37678 -5.555753,-9.69779 -16.523367,-9.31511 -22.097087,-6.26271 -9.96258,5.45592 -9.87699,15.29537 -7.336233,21.2579 2.586367,6.06958 9.811638,7.41509 12.639533,7.76222 l 1.856156,6.2627 -17.324116,8.11504 c -5.314539,2.48947 1.91316,7.85043 3.800699,7.85043 8.956686,0 18.960632,-4.81095 20.240931,-1.58773 l 7.778175,19.58197 z"
     id="path3860"
     style="fill:#faf700;fill-opacity:1;stroke:#000000;stroke-width:1.5;stroke-linecap:butt;stroke-linejoin:miter;stroke-miterlimit:4;stroke-opacity:1;stroke-dasharray:none" />
  <path
     d="m 127.75013,372.44776 c -4.28211,8.39909 -12.373,15.37879 -18.47316,19.58196 3.20018,1.33153 8.16988,1.86789 12.63953,1.58773 -0.6448,7.48575 -7.41721,12.32914 -10.51821,11.55512 -8.02725,-2.00363 -12.12908,-19.03326 -16.26345,-28.66729 l -11.755654,4.58677 c 3.329088,12.45031 19.774864,35.00759 6.45235,36.95875 -4.198828,0.61495 -12.042026,1.85723 -15.998291,-4.58677 3.610214,-2.68929 7.897933,-4.70247 9.987883,-8.90891 -8.689411,0.8158 -17.361793,-0.35194 -25.632621,-8.55608 1.785356,14.86549 2.697095,21.59895 -1.414213,30.69604 2.850437,-0.48911 7.119246,-3.43353 8.396892,-5.64524 6.374605,4.1452 14.269615,11.13692 25.897786,11.02587 6.504298,-0.0621 13.737018,-0.28383 17.324118,5.11601 3.25581,-7.97407 6.22862,-14.06688 11.66726,-20.81685 5.22477,-6.48455 9.71453,-13.1897 11.57887,-22.4928 2.74713,0.60803 6.6798,0.53787 12.28598,-0.17641 -5.80042,-4.95128 -13.3545,-12.51514 -16.17507,-21.2579 z"
     id="path3858"
     style="fill:#faf700;fill-opacity:1;stroke:#000000;stroke-width:1.5;stroke-linecap:butt;stroke-linejoin:round;stroke-miterlimit:4;stroke-opacity:1;stroke-dasharray:none" />
  <path
     d="m 125.49083,393.55878 c -0.21961,6.03699 -7.38683,16.205 -14.88804,14.61283 -9.94487,-2.11085 -13.94511,-19.45277 -17.942827,-30.78426"
     id="path3870"
     style="fill:none;stroke:#000000;stroke-width:1.59835815;stroke-linecap:round;stroke-linejoin:miter;stroke-miterlimit:4;stroke-opacity:1;stroke-dasharray:none" />
  <path
     d="m 339.62915,276.09756 c 1.2788,-3.75878 11.38505,-2.78851 9.375,3.05621 l -50.13418,145.77718 c -2.76539,8.04104 -11.27631,4.11404 -8.70626,-3.44008 z"
     id="path3850"
     style="fill:#faf700;fill-opacity:1;stroke:#000000;stroke-width:1.5;stroke-linecap:butt;stroke-linejoin:miter;stroke-miterlimit:4;stroke-opacity:1;stroke-dasharray:none" />
  <path
     d="m 301.91576,281.79479 c 1.50529,2.66645 3.77802,4.60958 7.40089,5.2802 6.44916,-7.88318 10.9309,-9.56841 16.625,-8.73205 12.54171,1.84216 30.13315,13.14257 31.875,20.64506 4.37231,18.83237 -11.57858,24.932 -23.13416,23.06669 l 4.47806,-13.34954 c 11.28081,1.11033 10.20656,-13.13717 1.2811,-13.5842 -10.45858,-0.52381 -24.80429,1.98265 -31.26831,-5.81572 -3.63417,-0.97101 -5.60718,1.3484 -8.16919,2.57239 0.80747,-1.00998 0.10795,-2.86178 3.75,-4.24129 -2.74648,-1.3175 -2.80333,-3.50958 -2.83839,-5.84154 z"
     id="path3843"
     style="fill:#faf700;fill-opacity:1;stroke:#000000;stroke-width:1.60000002;stroke-linecap:butt;stroke-linejoin:round;stroke-miterlimit:4;stroke-opacity:1;stroke-dasharray:none" />
  <path
     d="m 328.49515,307.33037 -4.3233,13.07968 c -6.60623,-1.23306 -12.06187,-0.89276 -12.66235,2.81819 -1.39227,8.60422 24.26574,7.39422 32.88046,27.16777 6.35499,14.58674 -1.10272,31.22155 -5.96751,36.3627 -9.51776,10.05842 -22.94345,7.40997 -28.56016,6.3509 l 3.65165,-10.68099 c 17.84004,3.36342 20.20599,-9.9335 20.68732,-14.00811 3.38827,-28.68271 -39.12665,-21.88799 -38.13199,-46.03153 0.31648,-7.68199 5.70862,-14.95275 11.7342,-15.36316 9.15881,-0.62383 13.2012,-0.8803 20.69168,0.30455 z"
     id="path3846"
     style="fill:#faf700;fill-opacity:1;stroke:#000000;stroke-width:1.60000002;stroke-linecap:butt;stroke-linejoin:miter;stroke-miterlimit:4;stroke-opacity:1;stroke-dasharray:none" />
  <use
     transform="matrix(-0.93307915,-0.3589333,-0.36041041,0.93307915,445.19092,77.313455)"
     id="use3894"
     x="0"
     y="0"
     width="399"
     height="480"
     xlink:href="#path3868" />
  <use
     transform="matrix(0.91824394,-0.39520289,0.39682926,0.91824394,-56.234152,86.840089)"
     id="use3892"
     x="0"
     y="0"
     width="399"
     height="480"
     xlink:href="#path3868" />
  <use
     transform="matrix(-0.43195034,0.91701717,0.96031884,0.41493012,138.30305,-115.35916)"
     id="use3890"
     x="0"
     y="0"
     width="399"
     height="480"
     xlink:href="#path3868" />
  <use
     transform="matrix(-0.48244908,0.87413476,0.87772447,0.48243543,168.86657,-97.615529)"
     id="use3888"
     x="0"
     y="0"
     width="399"
     height="480"
     xlink:href="#path3868" />
  <use
     transform="matrix(-0.70038271,0.71230829,0.71523467,0.70037769,221.63278,-97.749468)"
     id="use3886"
     x="0"
     y="0"
     width="399"
     height="480"
     xlink:href="#path3868" />
  <use
     transform="matrix(-0.78420937,0.61922346,0.62177174,0.78420937,252.39377,-75.541354)"
     id="use3884"
     x="0"
     y="0"
     width="399"
     height="480"
     xlink:href="#path3868" />
  <use
     transform="matrix(-0.94265551,0.33308259,0.33445332,0.94265551,329.27607,-52.043957)"
     id="use3882"
     x="0"
     y="0"
     width="399"
     height="480"
     xlink:href="#path3868" />
  <use
     transform="matrix(-1,0,0,1,394.22191,-1.8344918)"
     id="use3880"
     x="0"
     y="0"
     width="399"
     height="480"
     xlink:href="#path3868" />
  <use
     transform="matrix(0.4812339,0.91119528,-0.91964162,0.47877629,234.92496,-127.3458)"
     id="use3878"
     x="0"
     y="0"
     width="399"
     height="480"
     xlink:href="#path3868" />
  <use
     transform="matrix(0.55269122,0.83161316,-0.83509718,0.55279002,204.75794,-103.12092)"
     id="use3876"
     x="0"
     y="0"
     width="399"
     height="480"
     xlink:href="#path3868" />
  <use
     transform="matrix(0.95727879,0.28809963,-0.28968292,0.95744569,57.663172,-45.93733)"
     id="use3870"
     x="0"
     y="0"
     width="399"
     height="480"
     xlink:href="#path3868" />
  <use
     transform="matrix(0.80692839,0.58942321,-0.5918633,0.80693904,135.06443,-72.366919)"
     id="use3872"
     x="0"
     y="0"
     width="399"
     height="480"
     xlink:href="#path3868" />
  <use
     transform="matrix(0.74970928,0.6603686,-0.66312704,0.74974624,153.71722,-100.02206)"
     id="use3874"
     x="0"
     y="0"
     width="399"
     height="480"
     xlink:href="#path3868" />
  <path
     d="m 62.523906,241.41739 c 22.646087,1.71604 47.449954,-11.92105 74.157824,-29.81397 l 2.12132,3.88111 c -8.86672,5.27545 -59.392289,38.30001 -76.279144,25.93286 z"
     id="path3868"
     style="fill:#ffffff;stroke:#000000;stroke-width:1.49846077;stroke-linecap:butt;stroke-linejoin:miter;stroke-miterlimit:4;stroke-opacity:1;stroke-dasharray:none" />
  <path
     d="m 173.09336,148.75472 c -2.98199,11.94384 -7.0076,14.05044 -13.57412,13.98211 -11.07182,-0.11522 -10.97452,11.93956 -22.01866,3.18173 -6.93935,-5.50279 -1.91714,-15.4776 -2.59727,-23.71623 -0.52724,-6.38666 -4.95278,-6.02146 -5.02557,-11.87661 -0.10368,-8.33917 9.86129,-12.19815 10.33515,-21.52879 0.65452,-12.888053 -9.90763,-19.427158 -18.208,-26.021067 C 93.572215,60.188626 46.128342,45.225544 48.819343,13.79796 35.501157,22.248748 36.971146,34.968016 52.354876,51.550572 67.927451,68.336689 79.900819,77.963415 97.24099,95.656687 89.245768,99.537045 54.460304,86.152674 39.980508,56.842994 c -8.355331,40.982698 38.695679,49.809286 49.055533,66.596296 -8.204859,0.88241 -29.297016,-0.85793 -49.76264,-27.432372 -6.151559,29.291622 22.398156,33.676862 53.725785,50.815252 -9.785144,6.61449 -40.424745,-3.66184 -52.224191,-16.45505 1.899281,32.23879 17.080214,30.3086 63.375445,46.08461 2.99396,1.40302 0.65,4.20488 -0.22725,7.1605 -8.65323,2.80794 -44.498294,3.35608 -61.998139,-14.04065 -7.805851,38.17755 58.368669,29.9579 75.748819,31.31349 -2.43878,2.4518 -40.091758,28.15801 -69.384858,10.67305 7.697388,40.78215 71.743788,7.76341 83.968708,5.77161 -11.70482,13.51224 -37.45281,40.69528 -62.563268,30.87164 11.971749,39.53711 53.633668,2.47484 78.119838,-12.12169 L 251.81666,235.743 c 20.24399,15.01411 59.82118,41.76752 67.99917,10.28254 -18.043,5.43366 -59.98468,-25.84305 -57.17334,-31.83551 37.92799,13.4517 87.26763,23.61391 81.42417,-6.51434 -15.44257,14.76515 -52.75082,-4.11322 -67.264,-10.82022 2.02402,-0.0154 3.83484,-1.24212 5.80462,-1.14126 35.69303,2.5058 69.07642,2.78557 70.45938,-29.70287 -18.90082,17.60103 -53.1273,13.36224 -69.65214,11.76684 4.06951,-0.96326 7.09854,-3.1908 7.84017,-4.98718 52.90277,-17.70458 65.67285,-19.62479 61.81197,-49.94094 -11.17602,15.62173 -23.10822,18.78237 -54.91616,24.87003 -0.83674,-1.19671 -1.49761,-2.20957 -2.28118,-3.10237 48.77874,-25.30433 65.67794,-34.33518 53.19734,-56.446373 -6.2198,14.626453 -30.44379,26.515983 -47.66464,33.140463 0.68147,-1.16834 4.19265,-4.45415 0.35124,-4.52572 29.78495,-26.39518 54.43514,-39.350713 47.3134,-65.03987 -6.17915,13.19538 -31.39423,32.354436 -57,43.909742 12.65783,-20.892905 49.18376,-43.742303 57.5,-74.347177 2.51,-9.237136 -4.58442,-15.9204583 -9.25,-18.7115383 4.14481,24.7454603 -15.29733,33.9266643 -31,45.9056403 -31.66072,24.15277 -59.40929,39.141631 -59.75,60.375883 -0.10158,6.33083 5.46248,10.57664 10.06434,16.41816 2.32853,2.9558 -2.61203,6.77443 -3.06434,15.26672 -0.60084,11.28111 9.52105,20.39401 -6.75,26.44564 -4.70397,1.74952 -3.46119,-2.54841 -12.09467,-4.49964 -18.7087,-4.2283 -13.2608,-9.40154 -19.53033,-13.58818 13.43889,6.40906 20.49893,0.41462 20.5,-7.48462 -6.12178,5.56249 -14.71576,3.97224 -16,-3.49282 5.50344,0.28164 8.05286,-1.69619 9.25,-4.24128 -6.49822,-1.15498 -8.6535,-2.54828 -8.4375,-7.67173 5.34963,2.72649 7.5091,1.3744 10.0625,-1.68404 -7.20132,-1.9547 -9.7627,-4.56354 -10.21079,-10.64601 6.66422,4.09001 10.27672,-0.15166 11.83579,-1.95309 -12.51322,-4.30434 -9.80241,-10.43281 -9,-13.971278 1.24413,2.332948 4.14821,3.423468 7.25,4.366018 -8.89057,-13.387006 5.68101,-19.283619 -3.25,-35.05294 4.97523,0.456491 4.7984,4.228978 6.25,6.985641 0.95693,-3.337455 2.07215,-9.359477 -2.25,-11.850641 11.27591,3.283235 18.93497,-1.667196 17.125,-11.850641 -4.52787,8.131624 -13.59917,9.905296 -18,-1.372179 3.19747,-3.042608 4.81145,-6.441963 5,-9.854743 -2.45651,2.595506 -7.07841,3.807495 -10.375,3.368076 -3.67334,-3.11032 -6.83342,-6.302894 -10.625,-7.359871 -6.28372,-1.75171 -7.64202,0.511294 -11.53033,-1.2803 -2.78599,-1.283684 -8.78911,-3.156593 -12.21967,2.153505 -5.26957,-1.3077 -6.84788,1.671721 -10.21967,3.520491 -23.05654,-14.730183 -27.41831,9.347178 -21.03033,15.814765 3.68333,-3.157401 6.4165,-4.265338 8.75,-4.116539 6.95403,0.443435 3.28865,5.508344 9.32062,8.808797 0,0 4.711,-0.698225 7.14645,1.286569 3.07065,2.502454 1.0981,4.532768 3.28293,5.248096 11.92465,3.904214 13.71751,10.407836 10.5,17.464102 -11.45048,-8.7644 -13.89959,-2.479234 -21.31797,-9.473496 -3.42917,10.389349 14.34098,9.30895 10.94297,18.829265 -2.90544,8.140253 -9.78696,6.876863 -13.25,4.740256 -0.63506,2.643647 0.53869,5.482117 6.875,6.736147 -2.26156,5.73751 -9.85936,8.96475 -15.25,3.11859 -0.17344,7.85954 5.10375,8.88262 10,8.85679 -2.23003,4.8914 -10.78941,9.52189 -12.75368,-1.66446 -5.09049,8.07354 0.46615,12.60422 6.12868,12.26767 -2.97972,7.33015 -10.16629,4.68518 -11.06434,-0.98281 -4.37379,7.83008 0.96804,13.34314 6.43934,12.83345 -1.02426,9.91322 -9.3845,7.48093 -12.40273,1.71117 -2.94519,15.16765 12.37507,14.5244 17.42943,7.72734 z"
     id="path3836"
     style="fill:#ffffff;stroke:#000000;stroke-width:1.49846077;stroke-linecap:butt;stroke-linejoin:round;stroke-miterlimit:4;stroke-opacity:1;stroke-dasharray:none" />
  <path
     d="m 68.17639,331.96073 9.015274,22.16394"
     id="path3866"
     style="fill:none;stroke:#000000;stroke-width:1.49846077;stroke-linecap:round;stroke-linejoin:miter;stroke-miterlimit:4;stroke-opacity:1;stroke-dasharray:none" />
  <path
     d="m 145.31666,273.41556 c -4.44296,4.86158 -10.33715,6.3443 -14.44822,12.42896 -3.60866,5.34105 -9.77396,4.92129 -8.7474,-3.10972 -5.72104,4.11343 -4.43975,14.30993 4.03401,14.78784 -2.52837,4.2084 -10.381,16.94081 -16.21339,3.71074 -2.21721,15.13435 11.20083,11.12002 14.125,10.10424 -6.0866,8.55808 -5.29476,12.55195 -4.625,19.45999 2.60224,-5.27149 4.91665,-6.92063 6.875,-7.7341 2.11805,3.06778 4.48193,5.972 8,8.10834 -1.7737,5.70525 3.26183,10.1405 -1.375,12.97333 -9.3887,5.73592 -18.8172,11.94853 -27.75,12.22487 -2.59075,-0.52285 -3.24669,-3.1699 -9.614881,-1.03445 -0.174034,-1.54113 -1.632078,-5.05784 -5.568466,-2.73442 -1.69955,-0.76763 -3.21912,-0.45759 -4.684583,0.17641 -5.923114,-4.70484 -12.124296,2.18837 -13.435029,5.90988 -7.673342,4.39791 0.862634,12.15446 4.949748,8.55607 0.622405,1.9338 -6.601017,8.11095 1.679378,10.58485 0.580897,9.85976 9.675019,7.72588 10.091437,5.01894 0.329031,-2.13889 7.582195,-2.25769 10.753046,-7.38799 11.29151,-8.30565 23.17677,-16.1987 36.20435,-20.58621 5.02935,-1.69382 10.47239,-0.66404 18.25,-3.9918 8.39521,-3.592 3.81228,-11.9492 1.66291,-13.17872 -3.82961,-2.19068 -5.1657,-4.88375 -4.34597,-7.47704 1.17022,2.06656 1.9735,1.80598 4.35984,1.35077 -1.89411,-3.10309 -3.11327,-9.62273 5.19822,-9.38603 15.80384,0.45005 21.19115,25.63871 22,41.66435 0.84422,16.72644 -6.46446,30.92954 -18.5,29.19 -10.12454,-1.46332 -12.61142,-9.1302 -15,-11.72589 -5.64945,7.05769 -0.55807,20.60357 4,22.95282 -11.79842,25.40549 5.38645,38.12612 14,37.29833 -6.1961,-5.80591 -8.92259,-12.27884 -7.03033,-20.12133 3.37869,-14.00301 28.48866,-17.88388 32.53033,-57.09495 2.31326,17.96284 0.53337,34.93024 -2,43.28602 -3.04647,10.04814 -8.92435,16.60614 -18.5,12.22488 -2.62843,13.05479 11.84884,14.13234 16.625,9.60525 2.23883,7.25926 6.81592,13.81849 12.375,20.08372 4.83644,-6.55642 8.58875,-13.3501 10.125,-20.89455 7.73713,8.75657 18.85517,-0.46816 17.75,-8.42019 -8.35641,2.19966 -16.22746,-2.66587 -18.875,-13.97129 -2.02034,-8.62718 -4.86683,-20.077 -3.125,-42.28807 10.01705,43.29229 32.30897,35.73095 34.875,61.99756 0.65493,6.70406 -4.07659,9.33851 -6.875,13.47231 10.53183,-0.60002 25.16775,-13.97452 13.125,-36.0509 7.03928,-1.54642 9.7579,-17.51514 2.5,-22.70333 -1.75806,9.13203 -8.47855,12.44377 -13.25,11.60115 -14.9882,-2.64685 -20.73417,-20.54092 -20,-30.81166 1.18907,-16.63459 3.232,-32.12422 19.375,-39.79321 5.31407,1.80781 4.42848,7.93299 3.6875,10.66558 2.15248,0.44187 5.35731,-1.18741 6.76202,-2.82122 l -6.32452,11.11667 c -1.4894,2.61794 -0.97407,7.26073 1.38388,7.08898 7.82938,-0.57028 7.67917,7.24838 18.75,7.98359 13.16361,0.87419 32.70547,8.38234 41.24158,15.24181 1.46757,2.69281 7.61333,7.26138 9.104,7.4791 4.83525,8.2522 13.44968,-0.56935 11.1691,-4.74805 4.86426,-1.3101 6.02513,-7.14445 1.76777,-9.79098 8.72595,1.04108 7.73368,-8.12203 3.59175,-10.15894 -0.20367,-4.63177 -9.84515,-9.10774 -14.23053,-5.77755 -4.44191,-3.65247 -13.86094,6.82955 -18.1196,6.57141 -11.01587,-0.66773 -23.19991,-9.22487 -30.14043,-15.70085 -1.62347,-1.5148 1.98624,-3.76794 2.54365,-10.46897 l 3.61136,-6.02834 c 1.18859,2.30349 6.01489,6.58385 12.31815,4.94219 -9.70711,-7.36962 -1.62651,-13.23306 -9.01561,-18.34706 8.19724,1.67952 13.80661,-5.20396 13.37743,-9.26175 -8.18002,4.87192 -7.3857,-3.03279 -17.61736,-2.3272 -1.01414,0.0405 -2.54585,0.0308 -2.82288,-0.44115 11.56578,1.64851 9.88707,-9.4808 8.83058,-14.2556 -13.0495,14.61269 -12.18534,-8.47423 -25.19068,-12.70181 z"
     id="path3789"
     style="fill:#f9f9f9;stroke:#000000;stroke-width:1.69799995;stroke-linecap:butt;stroke-linejoin:round;stroke-miterlimit:4;stroke-opacity:1;stroke-dasharray:none" />
  <path
     d="m 197.31781,38.868882 c 1.06085,1.40571 3.165,4.141104 4.01952,5.210294 -2.52751,1.31999 -3.67789,4.068636 -3.22871,4.434453 0.44887,0.365573 2.87937,-0.644271 4.26904,-3.177635 1.74217,1.667007 6.49358,7.670213 10.46693,7.699675 -1.7396,1.34396 -4.08079,0.469746 -7.38027,-2.213561 -2.08837,2.07183 -6.82416,4.437696 -9.27573,2.012329 -4.86421,-4.812221 -0.87832,-9.310992 1.5199,-11.524617 -0.38449,-0.664133 -0.66893,-1.059878 -0.94579,-1.524368 -0.53248,-0.893345 0.39344,-1.130796 0.55511,-0.91657 z"
     id="path3823"
     style="fill:#000000;stroke:none" />
  <path
     d="m 194.44179,60.001185 c 5.1304,2.85725 9.76837,5.593452 12.55505,16.216501 0.75655,-9.316382 -5.26123,-15.551264 -12.55505,-16.216501 z"
     id="path3845"
     style="fill:#000000;stroke:none" />
  <path
     d="m 176.68462,60.289318 c -12.70009,-2.86248 -10.836,6.840808 -19.68046,5.927157 -10.48255,-1.082868 -11.84631,-9.684636 -18.5625,-10.665577 -6.64191,-0.970091 -10.76793,2.97935 -10.125,8.482564 7.5804,-5.659388 13.46513,1.628981 14.3125,2.993846 4.53952,7.311804 12.03576,9.580172 17.5625,8.856795 7.2831,-0.953262 11.18948,-6.835957 23.1875,-4.054167 6.62901,1.536965 7.41695,4.521936 9.92538,7.624771 1.75367,0.589275 4.42351,2.252106 4.81846,1.608313 1.30524,-2.127614 -4.59847,-11.936058 -13.38761,-14.089088 -6.338,-1.552585 -13.05566,-0.479372 -16.60623,0.988953 0.97454,-4.640577 2.18933,-6.205075 8.55546,-7.673567 z"
     id="path2985"
     style="fill:#ffffff;stroke:#000000;stroke-width:1.49846077;stroke-linecap:butt;stroke-linejoin:round;stroke-miterlimit:4;stroke-opacity:1;stroke-dasharray:none" />
  <path
     d="m 206.56666,81.622308 c -0.52412,4.746835 1.62066,9.542952 5.3763,11.368098 1.08491,-4.087276 2.75047,-7.009302 4.1862,-7.906464 -1.63736,2.96976 -1.86143,5.731948 -0.40533,7.711781 2.19398,-1.060903 1.49849,-7.823942 5.65533,-8.179569 -2.81638,2.078855 -0.33526,5.572891 -4.79825,7.763072 -2.31117,2.505189 0.4822,8.035474 3.46875,10.478454 -2.35418,-0.42551 -6.22696,-3.168229 -7.22449,-8.401917 -1.44128,0.520221 -2.78758,5.307946 -2.64082,10.956517 -1.60064,-3.4583 -1.24302,-9.464648 0.54652,-11.314315 -3.17051,-1.408994 -6.56521,-7.405233 -4.16421,-12.475657 z"
     id="path3755"
     style="fill:#000000;stroke:none" />
  <path
     d="m 221.3092,101.47575 c -2.86915,-6.114394 2.60815,-9.674615 3.22617,-15.612641 3.82492,6.781882 -3.19755,7.893701 -3.22617,15.612641 z"
     id="path3757"
     style="fill:#000000;stroke:none" />
  <path
     d="m 216.89384,103.82745 c -2.92189,4.06419 -3.4745,8.27381 -4.11672,14.27219 -5.31095,-3.19255 -7.47494,-8.36074 -8.78445,-10.96912 -0.6967,4.03384 0.53962,4.72069 -2.1731,12.60408 -0.82879,-7.57785 -0.24281,-9.06188 0.64083,-12.6136 -1.57711,1.83017 -5.32873,7.91254 -10.47874,8.55792 -3.34079,2.09445 -3.86345,3.08799 -5.54165,5.467 0.70416,-3.7801 2.27866,-5.20537 3.9355,-6.58067 -0.008,-6.25685 0.34839,-8.33274 0.66644,-11.50503 -1.59637,1.93358 -6.27427,4.62663 -9.55169,0.22377 7.27475,1.60031 9.4985,-2.26207 12.31279,-5.269712 -1.63077,4.697442 -1.88156,9.580292 -1.39683,15.104802 3.83749,-0.5664 9.02451,-7.56981 12.96146,-13.387905 0.22782,5.578565 0.0524,9.091045 6.15547,15.574885 -0.13323,-2.84066 1.28636,-10.00679 5.37069,-11.47861 z"
     id="path3759"
     style="fill:#000000;stroke:none" />
  <path
     d="m 197.58313,112.04774 c -0.0816,6.33595 -0.0826,10.49038 3.79603,14.85648 4.66781,-2.78313 6.68807,-6.98604 8.18306,-12.86632 -2.1055,9.98557 0.66049,13.06398 4.66069,15.39238 -0.28182,-5.54157 3.41291,-4.76182 4.10447,-14.90281 2.7602,6.91123 -3.22901,11.26134 -2.32322,15.8072 0.44034,2.2099 4.19283,6.43745 8.28347,7.24205 -3.92933,1.32637 -8.48136,-2.88255 -10.59597,-6.30647 -3.09064,-1.64629 -4.96104,-3.64219 -5.82322,-5.85982 0.36306,4.74383 0.47612,7.05838 -1.86428,11.72277 0.64314,-4.72694 0.51609,-6.97915 -0.58709,-11.08835 -1.17955,1.09661 -2.63875,2.30253 -4.23483,3.19847 -2.87217,-2.84254 -4.03738,-5.39759 -4.66227,-8.89323 -2.16809,7.62537 -1.58089,8.43721 -4.23678,12.33147 0.30598,-2.94309 0.2951,-4.98349 1.39905,-9.87339 1.4116,-3.87328 2.93,-6.97676 3.90089,-10.76043 z"
     id="path3761"
     style="fill:#000000;stroke:none" />
  <path
     d="m 195.36722,118.58791 c -3.86372,5.41723 -9.13874,7.77319 -13.11901,7.85135 -0.845,-8.37672 4.70377,-12.80219 7.9041,-18.5244 -5.80353,7.30957 -9.841,8.28516 -13.99217,8.05619 1.38773,0.95441 4.05412,2.00509 6.39077,0.94091 -2.20793,4.64637 -2.08062,7.75823 -1.32583,10.84946 6.3848,0.39132 13.8718,-2.56153 14.14214,-9.17351 z"
     id="path3763"
     style="fill:#000000;stroke:none" />
  <path
     d="m 202.06382,128.03676 c -0.45778,0.77849 -1.21859,-1.74277 -3.13233,-2.37342 0.93001,6.72923 -5.13781,11.48609 -8.29304,13.60912 -3.24767,-3.3382 -2.66915,-8.38255 -2.07713,-12.96644 -4.039,1.36992 -6.44229,3.94777 -6.89429,7.4535 1.11388,-1.24155 2.5096,-3.08199 4.86136,-3.30776 -1.4235,4.81562 1.43012,9.32584 3.88908,11.24639 3.6748,-1.65191 5.65546,-3.91208 7.6456,-6.61552 0.78505,2.50486 0.27781,9.83585 -0.88945,13.57874 2.5515,-4.24069 2.52219,-6.32523 3.11725,-8.9803 1.56381,2.92719 6.08054,6.11919 10.14526,6.44257 -1.83365,-5.29306 -1.36833,-9.05568 2.18642,-13.45914 -4.19078,1.98053 -5.66356,7.06367 -4.17386,11.41082 -8.28185,-2.65667 -7.85242,-11.40565 -6.38487,-16.03856 z"
     id="path3765"
     style="fill:#000000;stroke:none" />
  <path
     d="m 183.03763,127.25575 c -4.18977,2.74814 -9.04522,8.48821 -8.47985,13.71996 6.06816,0.0975 9.84679,-1.70213 12.50888,-3.90489 l 5.38374,3.17191 c -0.25303,5.01754 0.87435,10.92753 5.50218,15.41419 2.37514,-3.30586 5.51207,-7.57014 5.81153,-13.1649 l 4.06587,2.558 c 0.0399,2.16767 2.00337,9.00351 7.91076,10.36433 l -10e-6,-10.45254 c 2.51768,2.72542 4.78735,4.37786 8.81674,6.02013 -2.88699,0.0685 -5.02054,-0.5587 -7.03445,-1.84283 -0.13414,2.47057 -0.0396,6.12309 -0.0587,8.17169 -5.69532,-0.68995 -8.92613,-1.38695 -11.57888,-8.29147 0.74172,3.14002 0.47788,8.00562 -0.79549,9.61458 -0.6752,-3.15382 -0.88298,-4.75865 -1.76777,-6.81399 -0.9454,1.66284 -3.05883,6.90466 -5.78944,8.3135 -3.51183,-3.68347 -4.70815,-6.49556 -5.34749,-8.55607 -0.67603,2.89188 -0.90017,5.67599 -0.55242,9.26174 -2.63902,-3.68922 -2.78532,-7.06636 -2.16552,-19.27324 -3.32583,2.21782 -4.93676,5.34656 -6.12089,10.0115 -0.59181,-3.20772 -0.11184,-7.64412 2.29809,-11.2023 -2.27035,1.88562 -8.22756,2.81258 -12.46276,2.16107 -1.3892,-4.00708 2.91522,-14.64289 9.85588,-15.28037 z"
     id="path3767"
     style="fill:#000000;stroke:none" />
  <path
     d="m 180.69475,142.13919 c -3.00762,5.53122 -2.46231,12.31198 0.61872,16.05368 4.2983,-1.78265 7.18172,-5.85092 9.104,-9.87919 0.27033,6.18336 -2.92616,8.00635 -4.73215,9.88419 0.0944,3.20095 2.30614,5.72183 4.11343,7.75722 3.33386,-2.23487 5.27077,-4.91692 6.09879,-8.15915 6.87264,-1.64107 10.29363,9.98972 9.81112,10.27612 -2.92934,-4.0267 -5.5068,-7.59153 -8.35271,-7.85042 -1.45889,2.92165 -4.13276,5.76501 -7.73397,7.76221 -3.33226,-3.03398 -4.84491,-6.52027 -5.39169,-9.08532 l -3.53554,1.67593 c -3.83364,-3.50438 -5.51655,-15.0792 0,-18.43527 z"
     id="path3769"
     style="fill:#000000;stroke:none" />
  <path
     d="m 200.53793,94.727916 c -1.73458,2.857631 -2.12493,5.183938 -3.31456,9.129424 3.15513,-1.70772 3.60798,-5.636794 3.31456,-9.129424 z"
     id="path3771"
     style="fill:#000000;stroke:none" />
  <path
     d="m 212.29359,78.056786 c -0.27457,3.294102 -0.3855,4.70839 -1.37003,7.365287 2.12242,-1.498298 2.76782,-4.748789 1.37003,-7.365287 z"
     id="path3773"
     style="fill:#000000;stroke:none" />
  <path
     d="m 172.0327,161.72116 c -2.21631,2.53687 -2.62021,4.94883 -2.78424,8.15914 3.79566,-0.41199 5.12815,-1.70649 9.19239,-5.38063 -2.47726,3.85935 -3.88668,6.47489 -10.56241,6.74784 0.27834,-5.41554 0.72308,-7.55564 4.15426,-9.52635 z"
     id="path3775"
     style="fill:#000000;stroke:none" />
  <path
     d="m 139.3719,290.57558 c -6.50119,5.59775 -11.21615,6.4968 -16.58224,5.23356 5.6574,5.66391 13.76987,-0.41441 14.75733,-1.93963 -0.23184,3.23921 -4.54123,6.38059 -7.69958,8.11153 5.02286,5.05717 12.70451,2.01019 16.61072,-1.40688 -1.09316,3.81748 -0.85056,8.64151 0.47227,10.30509 2.67846,-3.32984 6.36844,-5.68292 9.81111,-7.40939 -3.57123,-0.15854 -7.57502,2.51089 -9.03706,4.35868 -1.07398,-5.57643 1.14624,-9.25104 2.19011,-12.26262 -4.30259,2.14831 -9.02556,9.13222 -15.28166,5.89148 2.78699,-2.75892 4.66251,-5.3365 4.759,-10.88182 z"
     id="path3777"
     style="fill:#000000;stroke:none" />
  <path
     d="m 127.0323,297.90838 c -1.65439,4.43654 -3.34449,8.34899 -1.66865,15.30835 l 10.69499,-9.83508 c -1.67297,5.25833 -3.32915,10.47178 1.87825,15.52445 2.38425,-2.49272 6.98694,-8.28245 8.99352,-11.26845 -0.42133,6.0727 1.57306,9.17875 4.24264,12.06231 1.22536,-3.90844 1.80859,-7.89377 5.83363,-11.46692 -2.80882,4.5057 -3.62459,7.52704 -4.81716,14.11313 -4.07642,-2.29981 -5.66675,-5.67382 -6.20994,-8.91335 -2.67624,2.42181 -4.30978,4.20577 -8.06479,8.11948 -3.77894,-3.90635 -5.948,-7.135 -5.03813,-13.38347 -3.94904,3.2672 -6.05733,6.1105 -7.86657,8.88492 -2.99296,-4.80417 -3.8614,-14.91764 2.02221,-19.14537 z"
     id="path3779"
     style="fill:#000000;stroke:none" />
  <path
     d="m 124.75416,315.76601 c 0.14194,0.72023 3.31,-3.14283 2.92645,-2.54136 -4.22962,6.63266 2.76209,14.01489 7.5423,17.22992 1.63464,-4.21029 1.34376,-9.00722 0.46875,-11.5076 l 4.6875,-0.12474 c -0.47534,3.00576 1.48398,7.91204 4.65847,9.04078 2.59885,-2.91639 2.77304,-8.22716 2.0625,-11.41404 1.27667,2.0806 1.64465,2.18398 3.67622,4.37935 -2.69721,2.10716 -2.89365,7.0805 3.76388,10.38762 -2.68208,0.66527 -6.22765,-0.8287 -6.84857,-3.84877 l -2.02459,3.76058 c -3.11238,-2.30804 -6.72628,-4.84823 -7.41291,-9.56116 0.007,2.70937 0.14804,8.43449 -2.71875,11.16455 -2.75669,-2.06816 -6.23532,-5.07892 -8.34375,-8.10833 -1.81703,-2.61073 -3.24314,-5.34132 -2.4375,-8.8568 z"
     id="path3781"
     style="fill:#000000;stroke:none" />
  <use
     transform="matrix(-1,0,0,1,397.76788,1.2990517e-8)"
     id="use3783"
     x="0"
     y="0"
     width="399"
     height="480"
     xlink:href="#path3777" />
  <use
     transform="matrix(-1,0,0,1,397.76788,1.2990517e-8)"
     id="use3785"
     x="0"
     y="0"
     width="399"
     height="480"
     xlink:href="#path3779" />
  <use
     transform="matrix(-1,0,0,1,397.76788,1.2990517e-8)"
     id="use3787"
     x="0"
     y="0"
     width="399"
     height="480"
     xlink:href="#path3781" />
  <path
     d="m 248.05112,190.5809 c 1.92579,-3.76794 3.18829,-7.87848 3.70787,-11.13014 1.77216,2.93348 6.63285,4.3875 7.60139,4.23395 1.72785,-2.61264 3.05401,-7.24966 2.33915,-9.63154 2.37565,1.18866 6.31232,0.59058 10.38878,-1.04152 0.38625,-3.77393 0.22269,-7.74736 -1.77405,-9.74374 3.18479,-0.81387 6.64768,-3.04406 7.78001,-4.90932 -1.38528,-2.82489 -3.12322,-4.94664 -4.70067,-5.8368 3.02768,-1.13165 6.26707,-2.86305 8.06387,-5.00197 -1.1964,-2.61396 -3.80242,-4.6793 -5.48008,-6.08628 3.15857,-1.44028 5.92107,-4.12359 6.80591,-5.82167 -1.10567,-3.3016 -3.51036,-4.73361 -5.30331,-6.08629 3.1639,-2.44088 6.38654,-5.9358 6.98269,-7.67401 -2.05949,-2.70112 -5.22813,-4.84516 -7.73399,-4.4765 1.65483,-2.1744 3.22835,-5.56186 2.58948,-7.45285 -1.77986,0.99829 -3.84648,2.11674 -6.18097,4.46844 1.01051,-2.22548 2.88953,-4.00545 4.34551,-4.97466 -0.31657,0.0374 -6.27059,0.16261 -10.60932,1.57448 1.36631,-3.37559 3.27666,-5.93681 5.21492,-8.45624 -3.82979,-0.16138 -6.86627,0.54133 -10.69499,3.08724 3.0112,-4.02539 8.22842,-4.06336 12.46367,-3.84366 -1.23415,1.9687 -3.40026,4.56125 -4.13113,7.12023 3.9063,-0.49246 7.11049,-0.81254 11.34972,-0.87159 0.0106,2.52478 0.002,5.28955 -1.54056,8.1137 3.30428,1.58488 6.12465,3.39836 7.2472,6.42777 -1.67694,2.54246 -4.0573,4.63089 -6.12025,6.25199 1.3878,1.62493 4.51119,0.99823 7.51301,0.52925 -1.00149,1.04536 -3.58484,2.7443 -6.95771,1.62243 1.76427,1.23423 2.39896,2.68825 3.33379,5.08131 -0.89626,1.11552 -2.2361,3.19403 -5.53905,5.14811 1.45528,-0.62444 4.29835,-0.84661 5.98099,0.14431 -3.00999,0.17465 -4.2576,0.24666 -5.76668,0.97315 1.67773,1.16472 2.8357,3.44446 4.26408,5.3557 -2.05378,2.13452 -2.87306,2.75496 -5.07291,4.0519 1.39537,0.25 2.89408,0.43522 5.07291,0.99795 -2.14191,1.14708 -4.24804,1.00924 -6.84695,1.04687 1.55968,1.62672 2.76779,3.27945 3.748,5.05548 -2.10035,1.88263 -3.89879,3.27369 -6.44699,5.27636 2.25407,0.21876 4.76601,0.90502 5.29794,1.70896 -2.29901,-0.63514 -4.56337,-0.99801 -6.03093,-0.0909 -0.13183,1.23287 0.88199,3.71223 0.14552,7.01116 0.545,1.09759 2.41396,1.22616 4.1672,1.77929 -1.39173,0.19193 -1.70795,0.91489 -5.26355,0.058 -1.82219,0.27523 -4.36962,1.32595 -8.21659,1.66782 0.83722,2.14185 3.00677,3.36321 4.86227,4.80155 -1.59957,-0.23539 -3.85371,-0.75736 -5.8229,-2.14999 -0.50872,1.86941 -1.41163,5.2257 -2.47043,7.20363 -2.0317,-0.45853 -3.70211,-0.79563 -5.83364,-2.03503 -0.64406,1.78511 0.4869,4.08044 1.75261,5.97851 -1.8409,-0.86611 -3.31179,-2.97468 -3.68735,-5.73973 -1.18072,2.11588 -2.69244,5.53391 -4.79349,6.28502 z"
     id="path3791"
     style="fill:#000000;stroke:none" />
  <path
     d="m 249.84255,188.69738 c 2.2336,3.11606 5.20471,4.80342 8.85492,5.17524 0.68467,-1.42548 1.79587,-4.37398 -0.0683,-8.33891 l 3.0625,-3.36808 c 2.27372,3.55397 6.43637,4.69678 12.30427,4.34527 -0.67455,-5.82378 -2.50975,-7.2872 -8.375,-10.54083 0.56445,-0.52508 3.07475,-2.36437 3.78707,-1.26734 1.48551,2.28781 6.01267,4.81473 11.40866,1.31933 -0.58586,-3.13388 -4.5946,-7.14185 -7.52804,-6.5685 -0.88657,0.17329 -0.34623,-1.90572 -0.9262,-2.32953 5.6368,2.80178 9.41079,-0.24655 11.23522,-1.74236 -1.40249,-3.12173 -3.24644,-4.94843 -4.96848,-6.29355 3.38548,-2.0784 6.91778,-4.39242 8.125,-6.36193 -1.25201,-2.86128 -3.11819,-3.33905 -4.875,-4.24128 l -0.625,-3.36807 c 6.39407,0.61439 7.53898,-1.96049 9.8125,-3.5552 -0.81614,-2.2382 -5.0071,-4.54967 -7.75,-5.86294 4.09931,-0.57673 8.00139,-3.71756 10.1875,-7.20395 -3.09883,-3.03838 -6.31412,-4.29266 -8.96875,-4.58432 4.58799,-2.79227 8.75575,-7.67322 9.4388,-12.01949 -2.80309,-0.14801 -8.71933,-0.26516 -14.1263,1.97763 -0.14583,-2.32568 0.0942,-3.40958 1.11452,-5.84763 -0.33228,2.79032 -0.49725,2.97777 1.23672,2.06835 1.73397,-0.90941 6.11402,-5.7959 5.23179,-10.132758 -4.62019,-0.285573 -12.63513,-0.506239 -17.12446,6.918828 1.89845,-8.89165 13.19704,-8.759427 17.94768,-8.163131 2.08312,5.809991 -1.73322,10.502561 -3.65625,12.100121 3.97172,-0.89101 7.56355,-0.39192 11.3125,-0.46779 -0.46008,3.15194 -2.66104,7.63935 -4.75,10.3849 1.24704,0.31976 2.26387,0.2087 4.15625,-0.4366 -0.55961,1.6304 -2.58937,2.86204 -6.0625,3.24334 2.20752,0.88358 5.32128,2.84478 5.84375,4.74025 l -4.71875,6.61141 c 1.86402,-0.70756 4.08554,-1.27995 5.8125,-0.68609 -0.86221,-0.11879 -5.37232,0.96994 -7.09375,3.24334 1.60552,1.16292 3.02414,2.66829 4.40625,4.05416 -2.6034,2.39362 -5.29131,4.4844 -7.5625,5.80058 2.125,-0.29253 4.25,-0.39807 6.375,0.62372 -4.07428,-0.155 -5.77898,0.23569 -6.61991,0.82531 2.02825,1.92704 2.83007,3.37714 4.11991,4.91289 -2.84456,1.37537 -5.57855,2.78753 -7.4375,4.49077 1.79372,0.0188 3.35162,0.27282 4.5625,0.87321 -2.11031,-0.17007 -4.11866,0.0669 -6.0625,0.56134 2.09665,1.64249 3.42516,4.17025 4.1875,6.29955 -2.20756,1.90773 -3.7197,2.53078 -6.375,3.24334 l 5,8.10833 -9.6875,2.40131 c 1.03538,2.06121 1.69097,4.6564 1.9375,7.20395 -3.88498,0.76705 -9.29436,0.72543 -13.6875,-0.99795 1.51367,1.73319 2.88625,3.59177 3.375,6.11243 -1.34717,-1.86221 -3.00507,-3.63634 -4.625,-3.80468 0.1921,1.91004 -0.10837,4.57037 -1.1875,7.2975 -3.02058,-0.0357 -10.0521,-2.26263 -9.97412,-6.75344 z"
     id="path3793"
     style="fill:#000000;stroke:none" />
  <path
     d="m 273.06666,102.08025 c 1.07526,-0.92435 3.32636,-0.69617 3.59758,-2.082253 0.98262,-5.021802 4.37439,-10.318817 11.49005,-9.365719 -1.46253,6.40636 -4.13426,8.239037 -6.65013,8.329389 6.7035,1.050913 7.80528,-6.166366 7.65013,-9.161625 -10.88869,-1.449008 -15.43931,5.372312 -16.08763,12.280208 z"
     id="path3795"
     style="fill:#000000;stroke:none" />
  <path
     d="m 259.23585,194.07421 c 2.14816,1.42403 5.6282,2.12392 10.20581,0.84645 -0.24944,-3.72484 -1.61491,-6.99952 -4,-8.70086 l 10.4936,0.61568 c -0.78688,0.32214 -3.43577,1.50678 -6.32962,1.00422 1.56578,0.83643 3.93448,2.07902 4.71102,4.74202 -1.58037,-1.89988 -3.16074,-2.91691 -4.74112,-3.28874 0.69623,1.94199 1.06442,4.26589 1.05362,7.03105 -2.79172,0.18874 -5.69156,0.43558 -7.4375,0.0624 1.36828,1.33699 2.30117,2.43199 2.6875,4.39721 -1.93621,-2.52908 -2.47465,-2.65934 -4.66697,-3.06194 -0.77521,5.28823 -3.31551,8.53593 -6.70803,11.26383 -4.8733,-3.23528 -5.57295,-5.30053 -7.0625,-10.1666 1.68407,3.20384 4.04533,6.25563 6.8125,8.29545 3.75462,-2.81446 4.12587,-7.7291 4.98169,-13.04014 z"
     id="path3797"
     style="fill:#000000;stroke:none" />
  <path
     d="m 259.73141,199.04568 c 1.48919,4.40317 5.31358,6.67763 10.9205,6.08163 0.97261,-3.22986 0.71835,-7.0029 -1.21025,-9.89479 2.93189,1.49403 7.14524,1.39879 10.89005,-0.28406 -0.79807,-4.00571 -3.48648,-6.21654 -5.9895,-7.98496 3.79068,-0.33238 6.45969,-0.76526 10.74232,-2.84533 -0.93146,-2.56631 -1.99461,-5.39312 -3.56743,-7.45063 2.83629,-0.59154 5.70536,-0.84507 8.60243,-4.18513 -1.72882,-4.96446 -4.74699,-6.07776 -6.09879,-7.45349 3.76915,-1.86869 6.09394,-3.61684 8.29592,-6.81406 -1.59069,-1.55478 -3.17671,-2.78926 -5.31748,-3.28117 1.00688,-2.42045 6.77292,-2.24395 9.62998,-6.44883 -0.74842,-2.97956 -2.66751,-5.31535 -5.42187,-6.29955 3.99904,-3.15406 8.2732,-5.346 11.54687,-9.5117 -4.17828,-3.58928 -6.53184,-3.93788 -9.04687,-4.84941 3.73787,-2.60015 6.72838,-5.26063 8.45312,-9.77677 -2.08457,-1.1459 -5.02354,-2.18918 -8.53125,-2.18301 3.94975,-1.29163 8.05822,0.09 10.23476,1.6209 -1.32059,2.38969 -2.81165,7.32509 -8.04334,9.83509 3.41098,0.639 5.99516,2.92821 8.68599,5.00457 -1.91819,3.40275 -6.34682,7.00876 -10.58857,9.51932 1.32237,1.4901 2.94704,2.77415 4.5435,6.57991 -2.59191,3.03887 -4.01414,4.44333 -9.30055,6.0965 1.58322,0.78596 3.73465,2.49196 5.03829,3.8069 -1.09832,1.51394 -4.21263,4.30478 -7.99686,6.77085 2.09258,1.81599 3.89246,3.6843 5.64072,7.60447 -2.07119,2.2547 -4.99824,4.20736 -8.19645,5.0206 1.44382,2.07179 2.27219,4.86428 3.33509,7.24018 -3.14508,1.26219 -6.64572,2.57571 -9.62008,2.92597 2.48129,1.73524 3.95179,4.89643 5.02389,7.65887 -3.14701,1.56961 -6.83028,2.22084 -10.47716,1.69107 0.72944,2.30268 1.27234,5.12512 -0.4205,9.00469 -5.02319,0.45866 -12.37011,-1.13377 -11.75648,-7.19863 z"
     id="path3799"
     style="fill:#000000;stroke:none" />
  <path
     d="m 261.15718,203.19684 c -0.0229,3.48785 -0.28823,6.42544 -1.28163,8.57814 -2.94854,0.51183 -4.90892,-0.24997 -6.58493,-0.97029 1.63588,2.03586 4.97889,2.73632 7.38042,2.11697 1.73148,-3.62898 1.60708,-7.59932 0.48614,-9.72482 z"
     id="path3801"
     style="fill:#000000;stroke:none" />
  <path
     d="m 245.63809,179.8477 c -0.81,2.26157 -0.68322,4.5131 0.48614,6.88014 0.82996,-2.70754 0.25843,-4.89885 -0.48614,-6.88014 z"
     id="path3803"
     style="fill:#000000;stroke:none" />
  <use
     transform="matrix(0.95368652,-0.30018527,0.30142062,0.95368652,-32.690934,76.176433)"
     id="use3807"
     x="0"
     y="0"
     width="399"
     height="480"
     xlink:href="#path3803" />
  <use
     transform="matrix(-0.56431156,0.82386843,-0.82725887,-0.56431156,556.91043,70.257663)"
     id="use3809"
     x="0"
     y="0"
     width="399"
     height="480"
     xlink:href="#path3803" />
  <use
     transform="matrix(-0.15465739,0.98594153,-0.98999895,-0.15465739,491.64041,-55.911135)"
     id="use3811"
     x="0"
     y="0"
     width="399"
     height="480"
     xlink:href="#path3803" />
  <use
     transform="matrix(-0.12498446,0.99012348,-0.99419811,-0.12498446,487.96326,-73.472369)"
     id="use3813"
     x="0"
     y="0"
     width="399"
     height="480"
     xlink:href="#path3803" />
  <use
     transform="matrix(0.00201997,0.99794666,-1.0020535,0.00201997,459.98743,-109.86886)"
     id="use3815"
     x="0"
     y="0"
     width="399"
     height="480"
     xlink:href="#path3803" />
  <use
     transform="matrix(0.13444821,0.98888795,-0.99295749,0.13444821,426.37145,-144.3869)"
     id="use3817"
     x="0"
     y="0"
     width="399"
     height="480"
     xlink:href="#path3803" />
  <use
     transform="matrix(0.7050966,0.853337,-0.79649237,0.76860206,256.49429,-246.92009)"
     id="use3819"
     x="0"
     y="0"
     width="399"
     height="480"
     xlink:href="#path3803" />
  <path
     d="m 288.24128,104.98197 c 1.0203,-2.99686 4.55595,-4.6115 8.50737,-4.74111 -1.76524,-0.46344 -4.41857,-0.849676 -8.17592,1.10257 z"
     id="path3832"
     style="fill:#000000;stroke:none" />
  <path
     d="m 251.73001,245.24055 a 51.265245,72.832002 0 1 1 -102.53049,0 51.265245,72.832002 0 1 1 102.53049,0 z"
     transform="matrix(1.0545652,0,0,1.0204462,-13.914636,-5.8836469)"
     id="path3834"
     style="fill:#296ef9;fill-opacity:1;stroke:#000000;stroke-width:6.74093866;stroke-miterlimit:4;stroke-opacity:1;stroke-dasharray:none;stroke-dashoffset:41.11972666" />
  <path
     d="m 161.69166,256.82467 -1.29932,-18.51335 -0.95068,-13.54575 2.875,-4.36603 -3.69822,-13.42063 10.96469,-4.4631 4.98353,56.30476 z"
     id="path3922"
     style="fill:#ffffff;stroke:#000000;stroke-width:0.99897385px;stroke-linecap:butt;stroke-linejoin:miter;stroke-opacity:1" />
  <use
     transform="matrix(-1,0,0,1,389.62763,1.2990517e-8)"
     id="use3838"
     x="0"
     y="0"
     width="399"
     height="480"
     xlink:href="#path3791" />
  <use
     transform="matrix(-1,0,0,1,389.62763,1.2990517e-8)"
     id="use3840"
     x="0"
     y="0"
     width="399"
     height="480"
     xlink:href="#path3793" />
  <use
     transform="matrix(-1,0,0,1,389.62763,1.2990517e-8)"
     id="use3842"
     x="0"
     y="0"
     width="399"
     height="480"
     xlink:href="#path3795" />
  <use
     transform="matrix(-1,0,0,1,389.62763,1.2990517e-8)"
     id="use3844"
     x="0"
     y="0"
     width="399"
     height="480"
     xlink:href="#path3797" />
  <use
     transform="matrix(-1,0,0,1,389.62763,1.2990517e-8)"
     id="use3846"
     x="0"
     y="0"
     width="399"
     height="480"
     xlink:href="#path3799" />
  <use
     transform="matrix(-0.99672206,0.08073607,0.08106833,0.99672206,370.03229,-19.369966)"
     id="use3848"
     x="0"
     y="0"
     width="399"
     height="480"
     xlink:href="#path3801" />
  <use
     transform="matrix(-1,0,0,1,389.62763,1.2990517e-8)"
     id="use3850"
     x="0"
     y="0"
     width="399"
     height="480"
     xlink:href="#path3803" />
  <use
     transform="matrix(-1,0,0,1,389.62763,1.2990517e-8)"
     id="use3852"
     x="0"
     y="0"
     width="399"
     height="480"
     xlink:href="#use3807" />
  <use
     transform="matrix(-1,0,0,1,389.62763,1.2990517e-8)"
     id="use3854"
     x="0"
     y="0"
     width="399"
     height="480"
     xlink:href="#use3809" />
  <use
     transform="matrix(-1,0,0,1,389.62763,1.2990517e-8)"
     id="use3856"
     x="0"
     y="0"
     width="399"
     height="480"
     xlink:href="#use3811" />
  <use
     transform="matrix(-1,0,0,1,389.62763,1.2990517e-8)"
     id="use3858"
     x="0"
     y="0"
     width="399"
     height="480"
     xlink:href="#use3813" />
  <use
     transform="matrix(-1,0,0,1,389.62763,1.2990517e-8)"
     id="use3860"
     x="0"
     y="0"
     width="399"
     height="480"
     xlink:href="#use3815" />
  <use
     transform="matrix(-1,0,0,1,389.62763,1.2990517e-8)"
     id="use3862"
     x="0"
     y="0"
     width="399"
     height="480"
     xlink:href="#use3817" />
  <use
     transform="matrix(-1,0,0,1,389.62763,1.2990517e-8)"
     id="use3864"
     x="0"
     y="0"
     width="399"
     height="480"
     xlink:href="#use3819" />
  <use
     transform="matrix(-1,0,0,1,389.62763,1.2990517e-8)"
     id="use3866"
     x="0"
     y="0"
     width="399"
     height="480"
     xlink:href="#path3832" />
  <path
     d="m 144.86622,200.51711 c 2.52991,-1.47788 4.79547,-4.45014 6.66038,-6.60039 -1.56986,3.39545 -4.00183,6.70783 -6.82015,8.83232 -3.06207,-3.996 -5.38674,-9.7572 -4.48391,-12.14451 0.97265,3.81665 2.23146,7.05221 4.64368,9.91258 z"
     id="path3896"
     style="fill:#000000;stroke:none" />
  <path
     d="m 109.56666,356.43242 2.64045,3.27452 0.29705,-4.45958 z"
     id="path3821"
     style="fill:#000000;stroke:none" />
  <use
     transform="matrix(0.95505618,0,0,1.2097902,10.768093,-76.74162)"
     id="use3823"
     style="fill:#000000"
     x="0"
     y="0"
     width="399"
     height="480"
     xlink:href="#path3821" />
  <use
     transform="translate(11.0625,-4.9897435)"
     id="use3825"
     style="fill:#000000"
     x="0"
     y="0"
     width="399"
     height="480"
     xlink:href="#path3821" />
  <use
     transform="translate(17,-8.3578203)"
     id="use3827"
     style="fill:#000000"
     x="0"
     y="0"
     width="399"
     height="480"
     xlink:href="#path3821" />
  <use
     transform="matrix(-1,0,0,1,400.9495,-2.1169688)"
     id="use3853"
     x="0"
     y="0"
     width="399"
     height="480"
     xlink:href="#path3821" />
  <use
     transform="matrix(-1,0,0,1,400.9495,-2.1169688)"
     id="use3855"
     x="0"
     y="0"
     width="399"
     height="480"
     xlink:href="#use3823" />
  <use
     transform="matrix(-1,0,0,1,400.9495,-2.1169688)"
     id="use3857"
     x="0"
     y="0"
     width="399"
     height="480"
     xlink:href="#use3825" />
  <use
     transform="matrix(-1,0,0,1,400.9495,-2.1169688)"
     id="use3859"
     x="0"
     y="0"
     width="399"
     height="480"
     xlink:href="#use3827" />
  <path
     d="m 84.837594,352.46887 c -3.19264,-2.72429 -8.825241,-0.8492 -12.418563,4.54266 -2.323471,3.48642 5.039822,6.01354 5.303301,4.05752 0.488409,-3.62586 1.570108,-7.18607 7.115262,-8.60018 z"
     id="path3861"
     style="fill:#ffffff;stroke:#000000;stroke-width:1.49846077;stroke-linecap:butt;stroke-linejoin:miter;stroke-miterlimit:4;stroke-opacity:1;stroke-dasharray:none" />
  <path
     d="m 84.970177,366.26084 c -3.294796,1.03269 -4.740003,11.43397 3.800699,7.86286 4.471799,-1.86978 8.530224,-5.57293 7.954944,-13.0057 -4.572658,3.92464 -8.406739,5.82024 -11.755643,5.14284 z"
     id="path3865"
     style="fill:#ffffff;stroke:#000000;stroke-width:1.51678526;stroke-linecap:butt;stroke-linejoin:miter;stroke-miterlimit:4;stroke-opacity:1;stroke-dasharray:none" />
  <path
     d="m 82.230138,373.59446 c -5.867426,-1.32224 -5.617082,-8.96583 -3.977475,-12.34899 2.69177,-5.5542 13.481888,-4.60214 9.280777,0.97028 -3.633757,4.81988 -6.332063,5.45945 -5.303302,11.37871 z"
     id="path3863"
     style="fill:#ffffff;stroke:#000000;stroke-width:1.49846077;stroke-linecap:butt;stroke-linejoin:miter;stroke-miterlimit:4;stroke-opacity:1;stroke-dasharray:none" />
  <path
     d="m 86.561167,375.62321 c -2.718902,1.04457 1.193866,6.67235 5.303301,4.61704 4.10427,-2.05273 7.465202,-5.99156 6.863952,-9.72677 -3.719301,3.49604 -7.777626,3.42331 -12.167253,5.10973 z"
     id="path3867"
     style="fill:#ffffff;stroke:#000000;stroke-width:1.49846077;stroke-linecap:butt;stroke-linejoin:miter;stroke-miterlimit:4;stroke-opacity:1;stroke-dasharray:none" />
  <path
     d="m 77.678138,377.51967 c 2.944419,0.9897 7.137882,-0.0802 8.485282,-2.11697"
     id="path3869"
     style="fill:none;stroke:#000000;stroke-width:1.49846077;stroke-linecap:round;stroke-linejoin:miter;stroke-miterlimit:4;stroke-opacity:1;stroke-dasharray:none" />
  <use
     transform="matrix(-1.003282,0.0598125,0.05976478,1.0082153,379.1387,-12.052721)"
     id="use3871"
     x="0"
     y="0"
     width="399"
     height="480"
     xlink:href="#path3861" />
  <use
     transform="matrix(-1.003282,0.0598125,0.05976478,1.0082153,379.1387,-12.052721)"
     id="use3873"
     x="0"
     y="0"
     width="399"
     height="480"
     xlink:href="#path3865" />
  <use
     transform="matrix(-1.003282,0.0598125,0.05976478,1.0082153,379.1387,-12.052721)"
     id="use3875"
     x="0"
     y="0"
     width="399"
     height="480"
     xlink:href="#path3863" />
  <use
     transform="matrix(-1.003282,0.0598125,0.05976478,1.0082153,379.1387,-12.052721)"
     id="use3877"
     x="0"
     y="0"
     width="399"
     height="480"
     xlink:href="#path3867" />
  <use
     transform="matrix(-1.003282,0.0598125,0.05976478,1.0082153,379.1387,-12.052721)"
     id="use3879"
     x="0"
     y="0"
     width="399"
     height="480"
     xlink:href="#path3869" />
  <path
     d="m 172.18737,126.74708 c 0.5289,0.37812 -1.11422,0.82411 0.73021,1.36014 1.74046,-0.0174 9.07252,-2.72133 8.57267,-5.41767 -2.5722,1.80874 -6.88061,4.06543 -9.30288,4.05753 z"
     id="path3069"
     style="fill:#000000;stroke:none" />
  <path
     d="m 167.61327,138.61092 c 3.9674,-0.48927 5.3704,-1.40505 7.33624,-2.22723 -0.5563,2.90784 -5.35338,3.49933 -7.04897,3.72675 z"
     id="path3839"
     style="fill:#000000;stroke:none" />
  <path
     d="m 324.81665,285.76518 c 0.14354,1.35081 -7.65777,1.31055 -7.375,0.74846 0.7791,-1.54866 7.0403,-3.89821 7.375,-0.74846 z"
     id="path3841"
     style="fill:#000000;stroke:none" />
  <path
     d="m 303.62915,381.693 -3.46875,9.85474 c -5.77282,1.38694 -7.95619,4.38631 -8.53125,7.17276 -0.92951,4.50388 5.14053,8.75338 15.4375,15.84243 3.62847,2.49806 0.12497,8.0271 -4,5.92532 -7.84966,-3.99961 -20.001,-12.13566 -19.6875,-22.64096 0.93076,-8.81267 9.51745,-16.23798 20.25,-16.15429 z"
     id="path3848"
     style="fill:#faf700;fill-opacity:1;stroke:#000000;stroke-width:1.5;stroke-linecap:butt;stroke-linejoin:miter;stroke-miterlimit:4;stroke-opacity:1;stroke-dasharray:none" />
  <path
     d="m 329.31665,388.67864 c 16.61663,-10.73039 14.18965,-37.62706 1.375,-44.28397 -19.59246,-10.17784 -27.62041,-13.10178 -26.625,-21.33116 1.38332,-11.43627 14.84182,-9.4733 21.72265,-8.27985 l -0.98045,2.84181 c -3.89032,-0.71842 -17.43693,-3.30182 -17.30699,7.60905 0.0676,5.67475 17.91074,11.84321 24.68979,15.66733 15.34723,8.65751 16.76745,41.15788 -2.875,47.77679 z"
     id="path3854"
     style="fill:#000000;stroke:none" />
  <path
     d="m 336.62216,316.97723 -0.87215,2.60145 c 13.4258,1.98638 23.66592,-8.39619 18.62784,-20.25455 0.59217,8.42446 -3.07984,19.42042 -17.75569,17.6531 z"
     id="path3856"
     style="fill:#000000;stroke:none" />
  <path
     d="m 56.57975,289.10412 c -11.582302,7.92452 -10.072772,20.85837 -4.95143,24.99229 3.648835,2.94532 6.379609,2.32215 6.942837,6.48974"
     id="path3862"
     style="fill:none;stroke:#000000;stroke-width:1.49846077;stroke-linecap:round;stroke-linejoin:miter;stroke-miterlimit:4;stroke-opacity:1;stroke-dasharray:none" />
  <path
     d="M 95.930331,320.67023 44.930255,339.89937"
     id="path3864"
     style="fill:none;stroke:#000000;stroke-width:1.7981528;stroke-linecap:round;stroke-linejoin:miter;stroke-miterlimit:4;stroke-opacity:1;stroke-dasharray:none" />
  <path
     d="m 68.353167,418.66824 c 19.155154,19.55809 34.114663,2.59794 39.774753,17.28859"
     id="path3872"
     style="fill:none;stroke:#000000;stroke-width:1.59835815;stroke-linecap:round;stroke-linejoin:miter;stroke-miterlimit:4;stroke-opacity:1;stroke-dasharray:none" />
  <path
     d="m 59.364737,313.5402 c 0.670743,-1.4065 3.852032,-5.67161 9.459528,-3.0935 4.315345,-3.96772 3.633385,-9.08791 2.332487,-11.18922 -7.366072,-11.89824 -18.477239,-3.31056 -18.983848,3.42259 -0.431126,5.7299 5.078319,10.11628 7.191833,10.86013 z"
     id="path3874"
     style="fill:#000000;fill-opacity:1;stroke:none" />
  <path
     d="m 58.188507,311.01156 c -1.970749,-3.75183 3.488011,-7.85365 7.557204,-5.33653 2.417255,-6.50631 -5.280135,-10.59464 -9.545942,-6.96835 -5.258739,4.47036 -1.166037,10.59002 1.988738,12.30488 z"
     id="path3876"
     style="fill:#d61a1a;fill-opacity:1;stroke:none" />
  <path
     d="m 59.204973,310.81309 c 1.152671,-2.26625 3.95332,-3.19982 6.872195,-3.02109 0.447357,-0.35715 -1.776363,-3.07806 -5.016039,-1.58772 -2.400629,1.10434 -3.005627,3.73726 -1.856156,4.60881 z"
     id="path3878"
     style="fill:#faf700;fill-opacity:1;stroke:none" />
  <path
     d="m 169.53044,305.25357 c 8.04168,0.55526 12.36916,-0.63184 18.20597,-0.88024 3.39084,-0.1443 7.31478,1.20457 10.70915,1.2135 3.74143,0.01 7.23573,-1.13628 12.17856,-1.33641 5.62588,-0.22778 11.49776,1.21485 13.20415,1.51282 l -4.63197,3.16919 c 0,0 -5.05877,-1.38976 -8.15886,-1.12529 -5.43861,0.46399 -8.26892,1.5888 -12.14607,1.56632 -3.87715,-0.0225 -7.516,-1.23331 -11.14346,-1.35781 -4.64973,-0.15957 -10.74893,1.81397 -10.74893,1.81397 -2.72009,-1.21251 -4.39502,-2.38871 -7.46854,-4.57605 z"
     id="path3880"
     style="fill:#ffffff;stroke:#000000;stroke-width:1.03408968px;stroke-linecap:butt;stroke-linejoin:round;stroke-opacity:1" />
  <path
     d="m 161.3115,295.71513 c 7.23963,-4.20793 12.75365,3.67007 23.708,-0.17459 6.75359,-2.37032 11.95294,0.0579 15.12069,0.0668 3.49164,0.01 8.18628,-2.57603 13.13325,-1.68923 11.31668,2.02862 9.04635,-2.04553 20.71949,1.3364 l -4.69975,4.93332 c -6.69855,-3.94074 -6.67188,0.5411 -15.28046,-1.4781 -4.96155,-1.16377 -9.83818,0.61849 -13.45648,0.68425 -3.6183,0.0658 -6.83743,-0.35125 -10.22271,-0.47575 -4.33929,-0.15957 -8.69014,1.99649 -12.77159,1.90219 -4.9584,-0.11455 -10.82254,-2.47014 -12.15126,-1.42807 -0.58994,0.46267 -3.46833,-2.80296 -4.09918,-3.67722 z"
     id="path3880-1"
     style="fill:#ffffff;stroke:#000000;stroke-width:0.99897385px;stroke-linecap:butt;stroke-linejoin:round;stroke-opacity:1" />
  <path
     d="m 229.75029,252.75081 7.51301,9.08533 -19.79899,19.31734 -10.78338,-11.37871 z"
     id="path3934"
     style="fill:#f9f9f9;stroke:#000000;stroke-width:0.99897385px;stroke-linecap:butt;stroke-linejoin:miter;stroke-opacity:1" />
  <path
     d="m 216.84559,195.76907 12.37437,4.58676 0.0884,22.22818 c -4.09192,-2.26981 -14.43571,-9.58122 -12.46277,-26.81494 z"
     id="path3920"
     style="fill:#ffffff;stroke:#000000;stroke-width:0.99897385px;stroke-linecap:butt;stroke-linejoin:miter;stroke-opacity:1" />
  <path
     d="m 194.06666,180.35685 c 7.18986,2.85658 12.58324,5.73229 22.625,6.36192 -1.97457,11.0843 4.93119,26.61175 14.25,36.0509 1.53666,6.98198 7.05611,13.5665 13.25,20.08372 l -33.75,34.17974 c -21.12997,-2.39797 -31.924,-12.25536 -36.375,-22.45385 l -11.90089,-47.49428 6.53125,-0.37423 -0.13036,-16.49918 c 7.42811,-1.37229 15.77462,-4.49486 25.5,-9.85474 z"
     id="path3918"
     style="fill:#ffffff;stroke:#000000;stroke-width:0.99897385px;stroke-linecap:butt;stroke-linejoin:miter;stroke-opacity:1" />
  <path
     d="m 229.21,269.9687 c -7.53811,8.11552 -29.44735,10.28214 -48.4215,-8.61991 9.27319,18.16264 -0.33745,24.12413 -5.56651,28.67541 19.95833,-0.47317 39.38634,3.18017 59.34467,-6.13017 -0.0976,-4.43352 -1.42568,-8.42866 -2.93436,-11.63769 1.76906,-3.27196 8.15994,-8.63482 7.53293,-10.28195 -0.84941,-2.23135 -5.72853,3.44384 -9.95523,7.99431 z"
     id="path3936"
     style="fill:#ffffff;stroke:#000000;stroke-width:1.29866588;stroke-linecap:butt;stroke-linejoin:miter;stroke-miterlimit:4;stroke-opacity:1;stroke-dasharray:none" />
  <path
     d="m 157.53701,258.66068 c 1.52857,-1.9013 15.48208,-7.7768 23.42291,-1.14669 l 0.61871,6.70374 c 4.27957,1.86553 3.70492,7.2374 3.44715,11.81975 -2.10311,7.09706 -5.51745,10.00681 -8.75044,13.49566 l -14.76086,-2.73441 c -0.85399,-3.24771 -0.95224,-6.63253 -4.24264,-9.43815 -1.0312,-4.43976 -3.13108,-6.05785 -0.17677,-11.46692 0.93064,-1.70392 0.95676,-4.94202 0.44194,-7.23298 z"
     id="path3938"
     style="fill:#ffffff;stroke:#000000;stroke-width:1.49846077;stroke-linecap:butt;stroke-linejoin:miter;stroke-miterlimit:4;stroke-opacity:1;stroke-dasharray:none" />
  <path
     d="m 167.22382,275.45034 c 0.43824,5.08661 1.11233,8.3306 2.83119,13.78234 1.61113,-4.78831 1.84008,-8.63153 2.00255,-14.40254"
     id="path4028"
     style="fill:none;stroke:#000000;stroke-width:0.99897385px;stroke-linecap:butt;stroke-linejoin:miter;stroke-opacity:1" />
  <path
     d="m 181.37525,284.47486 c 15.88771,6.41808 37.19287,4.3759 52.83204,-1.94911"
     id="path4040"
     style="fill:none;stroke:#000000;stroke-width:0.99897385px;stroke-linecap:butt;stroke-linejoin:miter;stroke-opacity:1" />
  <path
     d="m 183.69812,287.19968 c 6.67927,-2.25965 13.2912,-0.079 16.44207,0.42403 5.94116,0.94846 8.18628,-2.57603 13.13325,-1.68923 11.31668,2.02862 15.05523,-4.50127 26.72837,-1.11933 l -2.5533,4.65983 c -6.69855,-3.94074 -15.07721,2.6466 -23.68579,0.6274 -4.96155,-1.16376 -9.03824,2.39516 -13.83148,1.28213 -4.79324,-1.11303 -5.55526,-1.00523 -8.94054,-1.12973 -4.33929,-0.15957 -8.88522,2.1301 -12.96667,2.03581 -4.9584,-0.11456 -11.22171,-3.74239 -18.57956,-0.35262 -0.94969,-1.99086 -1.47959,-2.58245 -2.11044,-3.45671 9.97055,-5.57618 16.76652,1.96536 26.36409,-1.28158 z"
     id="path3880-1-7"
     style="fill:#ffffff;stroke:#000000;stroke-width:0.99897385px;stroke-linecap:butt;stroke-linejoin:round;stroke-opacity:1" />
  <path
     d="m 195.44166,271.29492 -1.125,-92.31025 c 2.25913,-1.77732 4.90576,0.74588 9,0"
     id="path3924"
     style="fill:none;stroke:#000000;stroke-width:1.49846077;stroke-linecap:butt;stroke-linejoin:miter;stroke-miterlimit:4;stroke-opacity:1;stroke-dasharray:none" />
  <path
     d="m 168.31666,190.33634 48.625,-3.36808"
     id="path3926"
     style="fill:none;stroke:#000000;stroke-width:0.99897385px;stroke-linecap:butt;stroke-linejoin:miter;stroke-opacity:1" />
  <path
     d="m 217.56666,200.56531 11.875,-0.37423"
     id="path3928"
     style="fill:none;stroke:#000000;stroke-width:0.99897385px;stroke-linecap:butt;stroke-linejoin:miter;stroke-opacity:1" />
  <path
     d="m 232.94166,224.76557 -61.06364,4.94115"
     id="path3930"
     style="fill:none;stroke:#000000;stroke-width:0.99897385px;stroke-linecap:round;stroke-linejoin:miter;stroke-opacity:1" />
  <path
     d="m 244.33436,242.78342 -57.23643,2.73977"
     id="path3932"
     style="fill:none;stroke:#000000;stroke-width:0.99897385px;stroke-linecap:butt;stroke-linejoin:miter;stroke-opacity:1" />
  <path
     d="m 162.30998,220.20242 27.40038,28.04984 1.06066,21.3461"
     id="path3940"
     style="fill:none;stroke:#000000;stroke-width:0.99897385px;stroke-linecap:butt;stroke-linejoin:miter;stroke-opacity:1" />
  <path
     d="m 211.18873,244.54755 0.8397,31.13709"
     id="path3942"
     style="fill:none;stroke:#000000;stroke-width:1.49846077;stroke-linecap:butt;stroke-linejoin:miter;stroke-miterlimit:4;stroke-opacity:1;stroke-dasharray:none" />
  <path
     d="m 149.75883,241.01928 c 4.48133,-4.77427 9.36917,0.32342 17.23573,-5.99808 1.23343,3.1163 1.33724,8.20537 1.67938,12.87822 -4.99269,0.0243 -9.83696,-0.54364 -15.73313,3.08726 0.8869,-6.01356 -1.0625,-8.108 -3.18198,-9.9674 z"
     id="path3944"
     style="fill:#000000;stroke:none" />
  <path
     d="m 160.17304,238.3003 c -0.18691,1.2666 -0.018,3.23882 0.0156,4.61543 -3.46103,0.15096 -6.31574,1.24722 -7.51301,2.05633 0.33514,1.05849 0.49656,2.10113 0.48615,3.25814 1.43834,-1.63335 4.14622,-2.40085 7.11525,-2.62415 0.24607,0.97809 0.299,1.36218 0.20045,2.56954 0.95008,-0.1156 1.82306,-0.22329 3.25206,-0.27685 0.22552,-1.17377 0.10461,-1.88195 0.0388,-2.99835 1.00861,-0.19601 3.13016,-0.81358 4.59046,-1.57305 -0.0584,-1.00807 -0.14863,-2.18523 -0.2752,-3.06921 -1.6657,1.26597 -3.94357,1.86123 -5.06656,2.26066 -0.41805,-1.2353 -0.5476,-3.04683 -0.49663,-4.8672 -0.81981,0.26966 -1.37197,0.46557 -2.34737,0.64871 z"
     id="path3946"
     style="fill:#f9f9f9;stroke:none" />
  <path
     d="m 158.77444,207.16383 36.24811,-1.365"
     id="path3948"
     style="fill:none;stroke:#000000;stroke-width:1.19876862;stroke-linecap:round;stroke-linejoin:miter;stroke-miterlimit:4;stroke-opacity:1;stroke-dasharray:none" />
  <path
     d="m 177.77794,198.41528 0.57452,57.24637"
     id="path3950"
     style="fill:none;stroke:#000000;stroke-width:1.49846077;stroke-linecap:round;stroke-linejoin:miter;stroke-miterlimit:4;stroke-opacity:1;stroke-dasharray:none" />
  <path
     d="m 168.26174,203.04191 9.51073,-3.33597 16.85669,5.72437"
     id="path3952"
     style="fill:none;stroke:#000000;stroke-width:0.99897385px;stroke-linecap:butt;stroke-linejoin:miter;stroke-opacity:1" />
  <path
     d="m 171.68899,223.83807 11.49699,-0.2626 -4.86712,5.85088 z"
     id="path3956"
     style="fill:none;stroke:#000000;stroke-width:0.99897385px;stroke-linecap:butt;stroke-linejoin:miter;stroke-opacity:1" />
  <use
     transform="matrix(1.3185056,0,0,1,-39.91407,-1.9335256)"
     id="use3958"
     x="0"
     y="0"
     width="399"
     height="480"
     xlink:href="#path3956" />
  <use
     transform="matrix(0.65751126,0,0,0.75010718,94.215054,76.734208)"
     id="use3960"
     x="0"
     y="0"
     width="399"
     height="480"
     xlink:href="#path3956" />
  <path
     d="m 221.84439,243.78323 10.81694,12.36475"
     id="path3962"
     style="fill:none;stroke:#000000;stroke-width:0.69928163;stroke-linecap:butt;stroke-linejoin:miter;stroke-miterlimit:4;stroke-opacity:1;stroke-dasharray:none" />
  <path
     d="m 227.56666,243.85133 5.38258,12.71629"
     id="path3964"
     style="fill:none;stroke:#000000;stroke-width:0.69928163;stroke-linecap:butt;stroke-linejoin:miter;stroke-miterlimit:4;stroke-opacity:1;stroke-dasharray:none" />
  <path
     d="m 201.94166,221.64698 20.875,36.79935"
     id="path3966"
     style="fill:none;stroke:#000000;stroke-width:0.69928163;stroke-linecap:butt;stroke-linejoin:miter;stroke-miterlimit:4;stroke-opacity:1;stroke-dasharray:none" />
  <path
     d="m 218.19166,244.10082 8.9375,27.44359"
     id="path3968"
     style="fill:none;stroke:#000000;stroke-width:0.69928163;stroke-linecap:butt;stroke-linejoin:miter;stroke-miterlimit:4;stroke-opacity:1;stroke-dasharray:none" />
  <path
     d="m 201.91041,221.5846 3.40625,33.86789"
     id="path3970"
     style="fill:none;stroke:#000000;stroke-width:0.69928163;stroke-linecap:round;stroke-linejoin:miter;stroke-miterlimit:4;stroke-opacity:1;stroke-dasharray:none" />
  <path
     d="m 195.06666,192.33223 6,23.4518"
     id="path3972"
     style="fill:none;stroke:#000000;stroke-width:0.69928163;stroke-linecap:round;stroke-linejoin:miter;stroke-miterlimit:4;stroke-opacity:1;stroke-dasharray:none" />
  <path
     d="m 193.94166,192.95595 -6.25,25.44769"
     id="path3974"
     style="fill:none;stroke:#000000;stroke-width:0.69928163;stroke-linecap:round;stroke-linejoin:miter;stroke-miterlimit:4;stroke-opacity:1;stroke-dasharray:none" />
  <path
     d="m 177.56666,209.4221 5.25,14.47026"
     id="path3976"
     style="fill:none;stroke:#000000;stroke-width:0.69928163;stroke-linecap:butt;stroke-linejoin:miter;stroke-miterlimit:4;stroke-opacity:1;stroke-dasharray:none" />
  <path
     d="m 177.44166,209.92108 -3.5,15.4682"
     id="path3978"
     style="fill:none;stroke:#000000;stroke-width:0.69928163;stroke-linecap:butt;stroke-linejoin:miter;stroke-miterlimit:4;stroke-opacity:1;stroke-dasharray:none" />
  <path
     d="m 187.19166,221.89646 0,23.57654"
     id="path3980"
     style="fill:none;stroke:#000000;stroke-width:0.69928163;stroke-linecap:butt;stroke-linejoin:miter;stroke-miterlimit:4;stroke-opacity:1;stroke-dasharray:none" />
  <path
     d="m 182.94166,223.64287 1.875,41.04064"
     id="path3982"
     style="fill:none;stroke:#000000;stroke-width:0.69928163;stroke-linecap:butt;stroke-linejoin:miter;stroke-miterlimit:4;stroke-opacity:1;stroke-dasharray:none" />
  <path
     d="m 172.19166,223.51813 2,30.68692"
     id="path3984"
     style="fill:none;stroke:#000000;stroke-width:0.69928163;stroke-linecap:butt;stroke-linejoin:miter;stroke-miterlimit:4;stroke-opacity:1;stroke-dasharray:none" />
  <path
     d="m 168.05246,246.71414 c 0.0563,1.65852 0.82505,5.1163 1.0358,4.92719"
     id="path4030"
     style="fill:none;stroke:#000000;stroke-width:0.99897385px;stroke-linecap:butt;stroke-linejoin:miter;stroke-opacity:1" />
  <path
     d="m 157.56666,258.19685 c 6.65983,-3.56624 11.79768,-3.4197 17,-3.43045 -1.12111,-1.84272 -3.0119,-3.15769 -5.5625,-3.18096 -2.02575,-0.0185 -3.00788,1.14041 -3.34375,2.77554 -0.82608,-1.55252 -2.48962,-3.02919 -4.96875,-2.77554 -3.34889,0.34263 -3.07464,3.99752 -3.125,6.61141 z"
     id="path3986"
     style="fill:#f9f9f9;stroke:#000000;stroke-width:0.99897385px;stroke-linecap:butt;stroke-linejoin:miter;stroke-opacity:1" />
  <rect
     width="2.4685736"
     height="2.0896051"
     x="106.98846"
     y="292.67029"
     transform="matrix(0.98246763,-0.18643325,0.18717365,0.98232684,0,0)"
     id="rect4006"
     style="fill:#000000;fill-opacity:1;stroke:none" />
  <use
     transform="translate(0.78125002,3.7423076)"
     id="use4008"
     x="0"
     y="0"
     width="399"
     height="480"
     xlink:href="#rect4006" />
  <use
     transform="matrix(0.99675915,0.08027872,-0.08060908,0.99675915,26.708221,-12.816046)"
     id="use4010"
     x="0"
     y="0"
     width="399"
     height="480"
     xlink:href="#use4008" />
  <use
     transform="matrix(0.99426527,0.10672257,-0.10716176,0.99426527,34.369149,-16.611136)"
     id="use4012"
     x="0"
     y="0"
     width="399"
     height="480"
     xlink:href="#rect4006" />
  <use
     transform="matrix(0.98391761,0.17825646,-0.17899003,0.98391761,59.813201,-25.528786)"
     id="use4014"
     x="0"
     y="0"
     width="399"
     height="480"
     xlink:href="#rect4006" />
  <use
     transform="translate(0,3.9917948)"
     id="use4016"
     x="0"
     y="0"
     width="399"
     height="480"
     xlink:href="#use4014" />
  <use
     transform="matrix(-1,0,0,1,341.85209,-0.12474358)"
     id="use4018"
     x="0"
     y="0"
     width="399"
     height="480"
     xlink:href="#use4012" />
  <use
     transform="matrix(-1,0,0,1,341.69583,-0.12474358)"
     id="use4020"
     x="0"
     y="0"
     width="399"
     height="480"
     xlink:href="#use4010" />
  <use
     transform="matrix(-1,0,0,1,342.07083,-0.37423075)"
     id="use4022"
     x="0"
     y="0"
     width="399"
     height="480"
     xlink:href="#rect4006" />
  <use
     transform="matrix(-1,0,0,1,342.07083,-0.37423075)"
     id="use4024"
     x="0"
     y="0"
     width="399"
     height="480"
     xlink:href="#use4008" />
  <path
     d="m 157.55634,277.37987 c 9.96697,-3.94821 19.02904,-1.94309 27.4142,-0.27565"
     id="path4026"
     style="fill:none;stroke:#000000;stroke-width:1.19876862;stroke-linecap:butt;stroke-linejoin:miter;stroke-miterlimit:4;stroke-opacity:1;stroke-dasharray:none" />
  <path
     d="m 179.58984,263.74023 a 5.7617187,2.5878906 0 1 1 -11.52343,0 5.7617187,2.5878906 0 1 1 11.52343,0 z"
     transform="matrix(0.99695442,-0.07782651,0.07798648,0.99490936,-24.893976,12.264986)"
     id="path4032"
     style="fill:none;stroke:#000000;stroke-opacity:1" />
  <path
     d="m 185.18385,270.14884 c 10.10175,7.29055 31.70894,13.17357 46.58203,1.46183"
     id="path4034"
     style="fill:none;stroke:#000000;stroke-width:0.99897385px;stroke-linecap:butt;stroke-linejoin:miter;stroke-opacity:1" />
  <path
     d="m 232.8401,275.60637 c -10.70771,6.15961 -31.1626,8.87268 -47.5586,-0.0974"
     id="path4036"
     style="fill:none;stroke:#000000;stroke-width:0.99897385px;stroke-linecap:butt;stroke-linejoin:miter;stroke-opacity:1" />
  <path
     d="m 234.10963,279.40716 c -12.99047,7.13639 -36.82313,8.38426 -50.19531,-0.0975"
     id="path4038"
     style="fill:none;stroke:#000000;stroke-width:0.99897385px;stroke-linecap:butt;stroke-linejoin:miter;stroke-opacity:1" />
  <path
     d="M 63.136882,90.855513 C 73.386085,99.713429 91.028567,110.06416 98.441065,113.4981 85.742864,109.61307 71.276914,100.64717 63.136882,90.855513 z"
     id="path3225"
     style="fill:#000000;stroke:none" />
  <use
     transform="matrix(0.6504448,0,0,0.67227295,31.42622,32.195567)"
     id="use3997"
     x="0"
     y="0"
     width="399"
     height="480"
     xlink:href="#path3225" />
  <use
     transform="matrix(1.1860773,0.14909186,-0.15518853,1.1394816,6.8730658,-57.350312)"
     id="use3999"
     x="0"
     y="0"
     width="399"
     height="480"
     xlink:href="#path3225" />
  <use
     transform="matrix(0.79435999,0.01244105,-0.01394532,0.73684333,27.076449,19.088057)"
     id="use4001"
     x="0"
     y="0"
     width="399"
     height="480"
     xlink:href="#use3999" />
  <use
     transform="matrix(-0.48016419,-0.80895557,-0.73919287,0.52511943,186.55831,138.56166)"
     id="use4003"
     x="0"
     y="0"
     width="399"
     height="480"
     xlink:href="#path3225" />
  <use
     transform="matrix(-0.86193004,-0.44412525,-0.50702722,0.7549987,210.93528,145.56765)"
     id="use4011"
     x="0"
     y="0"
     width="399"
     height="480"
     xlink:href="#path3225" />
  <use
     transform="matrix(-0.83499854,-0.49100114,-0.55025216,0.7450861,213.54109,154.20787)"
     id="use4013"
     x="0"
     y="0"
     width="399"
     height="480"
     xlink:href="#path3225" />
  <use
     transform="matrix(-1.0030807,-0.13755743,-0.13930547,0.99049377,203.092,126.1061)"
     id="use4015"
     x="0"
     y="0"
     width="399"
     height="480"
     xlink:href="#path3225" />
  <use
     transform="matrix(-1.1876653,0.24336101,0.25606816,1.1287285,195.51561,94.264015)"
     id="use4017"
     x="0"
     y="0"
     width="399"
     height="480"
     xlink:href="#path3225" />
  <use
     transform="matrix(0.33271401,-1.0371316,1.0164162,0.33949499,-4.937328,284.92833)"
     id="use4019"
     x="0"
     y="0"
     width="399"
     height="480"
     xlink:href="#path3225" />
  <path
     d="m 84.409191,158.21264 c 4.291102,0.27007 8.850733,0.2473 11.374885,0.007 l 1.032204,1.31941 c -3.648678,0.23924 -8.198303,0.15823 -12.407089,-1.32641 z"
     id="path4023"
     style="fill:#000000;stroke:none" />
  <path
     d="m 94.128549,220.19875 c 8.695501,-3.24552 19.158961,-8.89262 25.326791,-14.27657 l 4.83951,-0.48395 c -5.95986,4.7506 -19.24186,12.9232 -30.166301,14.76052 z"
     id="path4025"
     style="fill:#000000;stroke:none" />
  <use
     transform="matrix(0.65505124,-0.67930087,0.75513754,0.6036269,182.52113,146.51779)"
     id="use4027"
     x="0"
     y="0"
     width="399"
     height="480"
     xlink:href="#path3225" />
  <use
     transform="matrix(0.49887737,-0.60493733,0.60493733,0.49887737,209.11618,147.98659)"
     id="use4029"
     x="0"
     y="0"
     width="399"
     height="480"
     xlink:href="#path3225" />
  <use
     transform="matrix(0.96397454,-0.26599455,0.26599455,0.96397454,185.12231,134.54342)"
     id="use4031"
     x="0"
     y="0"
     width="399"
     height="480"
     xlink:href="#path3225" />
  <use
     transform="matrix(1.0039942,0.03504903,-0.03722005,0.94543202,198.43209,135.34669)"
     id="use4033"
     x="0"
     y="0"
     width="399"
     height="480"
     xlink:href="#path3225" />
  <use
     transform="matrix(1.3015771,0,0,1.299229,168.57119,103.64159)"
     id="use4035"
     x="0"
     y="0"
     width="399"
     height="480"
     xlink:href="#path3225" />
  <path
     d="m 291.66138,110.50309 c 5.17285,-13.854603 20.00394,-16.101743 26.61733,-24.278221 -1.43463,7.262271 -20.59905,11.486895 -25.56877,24.842841 z"
     id="path4037"
     style="fill:#000000;stroke:none" />
  <path
     d="m 282.70828,80.659428 c 3.46198,-10.148632 14.0565,-12.611381 25.97206,-23.955595 -2.33031,5.875876 -18.63791,13.795869 -25.97206,23.955595 z"
     id="path4039"
     style="fill:#000000;stroke:none" />
  <path
     d="m 290.20953,78.400988 c 5.32418,-8.283968 17.85894,-16.237565 25.16547,-22.826375 -2.34945,4.796449 -16.84388,13.189283 -17.09962,16.37369 -0.24832,3.091926 -2.9037,2.04335 -8.06585,6.452685 z"
     id="path4041"
     style="fill:#000000;stroke:none" />
  <path
     d="m 303.67951,130.42576 c 8.75711,-3.30502 18.69816,-8.53516 26.29469,-14.27656 -5.53034,7.28418 -19.37625,13.40996 -26.29469,14.27656 z"
     id="path4043"
     style="fill:#000000;stroke:none" />
  <path
     d="m 304.00214,127.0381 c 7.94016,-3.16921 16.09653,-8.01616 23.63296,-13.14734 -3.77583,4.52864 -16.99144,12.24626 -23.63296,13.14734 z"
     id="path4045"
     style="fill:#000000;stroke:none" />
  <path
     d="m 285.84196,183.91501 c 13.44189,1.73477 33.90082,1.37654 41.99605,0.60114 -12.77481,2.69258 -29.81208,2.65929 -41.99605,-0.60114 z"
     id="path4047"
     style="fill:#000000;stroke:none" />
  <use
     transform="matrix(0.84681424,0.0743159,-0.08742338,0.99617125,54.46554,-18.869495)"
     id="use4049"
     x="0"
     y="0"
     width="399"
     height="480"
     xlink:href="#path4047" />
  <path
     d="m 75.335102,157.76902 c 7.488963,2.85257 15.567985,5.1103 26.481318,5.96063 l 3.03972,1.98424 c -6.562075,-0.83292 -23.812867,-2.30775 -29.521038,-7.94487 z"
     id="path4083"
     style="fill:#000000;stroke:none" />
</svg>
