<?xml version="1.0" encoding="UTF-8" standalone="no"?>
<svg
   xmlns:dc="http://purl.org/dc/elements/1.1/"
   xmlns:cc="http://creativecommons.org/ns#"
   xmlns:rdf="http://www.w3.org/1999/02/22-rdf-syntax-ns#"
   xmlns:svg="http://www.w3.org/2000/svg"
   xmlns="http://www.w3.org/2000/svg"
   xml:space="preserve"
   enable-background="new 30.5 31.5 412 533"
   viewBox="30.5 31.5 400 500"
   height="500"
   width="400"
   y="0"
   x="0"
   version="1.1"
   id="svg2"><metadata
     id="metadata4"><rdf:RDF><cc:Work
         rdf:about=""><dc:format>
          
          
          
          
          image/svg+xml
        
        
        
        
        </dc:format><dc:type
           rdf:resource="http://purl.org/dc/dcmitype/StillImage" /><dc:title></dc:title></cc:Work></rdf:RDF></metadata><defs
     id="defs6" /><path
     style="fill:#ffe000;fill-opacity:1"
     id="path4148"
     d="M 230.45,531.13 C 156.13,477.21 105.19,409.11 74.71,322.97 47.07,244.87 35.98,150.22 40.8,33.62 l 0.02,-0.46 379.82,0 0.02,0.46 c 4.81,116.6 -6.28,211.24 -33.91,289.35 -30.48,86.14 -81.42,154.24 -155.74,208.16 l -0.28,0.2 -0.28,-0.2 z" /><path
     d="M 419.96,33.21 C 429.03,252.66 383.71,419.16 230.51,530.31 146.04,469.02 94.36,390.9 66.52,296.34 64.43,289.25 62.48,282.07 60.65,274.8 49.2,229.11 42.88,179.78 40.77,126.86 39.57,96.8 39.72,65.58 41.06,33.21 l 189.45,0 189.45,0 m 0.92,-0.95 -0.92,0 -189.45,0 -189.45,0 -0.92,0 -0.04,0.92 c -4.82,116.66 6.28,211.36 33.93,289.52 30.51,86.24 81.51,154.41 155.91,208.39 l 0.56,0.41 0.56,-0.41 C 305.46,477.11 356.46,408.94 386.97,322.7 414.62,244.54 425.72,149.84 420.9,33.18 l -0.04,-0.92 0,0 z"
     id="path10" /><path
     style="fill:#000000;fill-rule:evenodd;stroke:#000000;stroke-width:1px;stroke-linecap:round;stroke-linejoin:round;stroke-opacity:1"
     d="m 397.5,83.5 -9,33 c -37.15023,2.18138 -80.66066,1 -108.71396,17.60967 -22.27866,13.19064 -18.64939,34.11037 -21.78288,38.26721 -2.64401,3.5075 -15.50316,2.89397 -15.50316,11.77454 l 0,138.3507 c 4.67192,3.35792 7.95779,6.45287 10.238,10.4479 2.10464,3.68743 2.63763,10.99387 0.55626,13.8629 l -31.31463,43.16507 C 216.61593,378.3724 204.76567,355.6559 205.00087,347.23224 205.3021,336.44395 211.81934,327.794 218.5,322.50212 l 0,-138.3507 c 0,-8.88057 -12.85915,-8.26704 -15.50316,-11.77454 -3.13349,-4.15684 0.49578,-25.07657 -21.78288,-38.26721 C 153.16066,117.5 109.65023,118.68138 72.5,116.5 l -9,-33 c 45.70804,-6.500432 115.32721,-12 167,-12 51.67279,0 121.29196,5.499568 167,12 z"
     id="path4192" /><path
     style="fill:#000000;stroke:#000000;stroke-opacity:1"
     id="path3630"
     d="m 254.60081,349.90669 -31.68452,43.64013 c -9.7052,13.36729 -7.00475,26.14814 -6.04939,33.29869 1.33223,9.97126 7.38435,29.88648 7.38435,29.88648 l 24.67207,-33.97846 c 1.38761,-13.91963 4.88901,-48.5971 5.67749,-72.84684 z" /><path
     style="fill:#000000;stroke:#000000;stroke-opacity:1"
     id="path3632"
     d="m 226.14603,459.37067 12.17183,-16.92513 c 4.54243,12.23124 8.46819,17.50015 8.45776,24.61377 -0.009,5.80416 -2.89404,12.03098 -7.28053,17.90746 -1.01896,1.36508 -1.94629,1.6503 -1.80523,-0.33185 0.23535,-3.307 -2.70119,-8.04198 -5.03816,-10.57668 -3.94707,-4.28103 -6.97735,-5.98314 -6.50567,-14.68757 z" /></svg>