<?xml version="1.0" encoding="UTF-8" standalone="no"?>
<svg
   xmlns:dc="http://purl.org/dc/elements/1.1/"
   xmlns:cc="http://creativecommons.org/ns#"
   xmlns:rdf="http://www.w3.org/1999/02/22-rdf-syntax-ns#"
   xmlns:svg="http://www.w3.org/2000/svg"
   xmlns="http://www.w3.org/2000/svg"
   xml:space="preserve"
   enable-background="new 30.5 31.5 412 533"
   viewBox="30.5 31.5 400 500"
   height="500"
   width="400"
   y="0"
   x="0"
   version="1.1"
   id="svg2"><metadata
     id="metadata4"><rdf:RDF><cc:Work
         rdf:about=""><dc:format>
          
          
          
          
          
          
          
          
          image/svg+xml
        
        
        
        
        
        
        
        
        </dc:format><dc:type
           rdf:resource="http://purl.org/dc/dcmitype/StillImage" /><dc:title></dc:title></cc:Work></rdf:RDF></metadata><defs
     id="defs6" /><path
     id="path4148"
     d="M 230.45,531.13 C 156.13,477.21 105.19,409.11 74.71,322.97 47.07,244.87 35.98,150.22 40.8,33.62 l 0.02,-0.46 379.82,0 0.02,0.46 c 4.81,116.6 -6.28,211.24 -33.91,289.35 -30.48,86.14 -81.42,154.24 -155.74,208.16 l -0.28,0.2 z"
     style="fill:#0085ca" /><path
     d="M 419.96,33.21 C 429.03,252.66 383.71,419.16 230.51,530.31 146.04,469.02 94.36,390.9 66.52,296.34 64.43,289.25 62.48,282.07 60.65,274.8 49.2,229.11 42.88,179.78 40.77,126.86 39.57,96.8 39.72,65.58 41.06,33.21 l 189.45,0 189.45,0 m 0.92,-0.95 -0.92,0 -189.45,0 -189.45,0 -0.92,0 -0.04,0.92 c -4.82,116.66 6.28,211.36 33.93,289.52 30.51,86.24 81.51,154.41 155.91,208.39 l 0.56,0.41 0.56,-0.41 C 305.46,477.11 356.46,408.94 386.97,322.7 414.62,244.54 425.72,149.84 420.9,33.18 l -0.04,-0.92 0,0 z"
     id="path10" /><path
     style="fill:#ffffff;stroke:#000000;stroke-width:1.01300001;stroke-linecap:round;stroke-linejoin:round;stroke-miterlimit:4;stroke-dasharray:none;stroke-opacity:1"
     id="path2827"
     d="m 210.51317,198.54243 c 0,0 -13.39762,61.30991 -18.74519,81.86488 l -9.50872,12.69655 -22.73474,-0.38648 c -1.09367,-1.84169 -6.88904,-2.91218 -9.12459,-0.0847 -1.41939,-2.55338 -8.1671,-2.04905 -9.83664,-0.0599 1.15463,-11.41714 11.45591,-25.19133 19.30245,-20.54874 17.59852,8.47348 8.41901,-24.39614 8.41901,-24.39614 0,0 2.01285,-11.47516 1.84009,-26.21274 l -46.14227,71.08977 -24.13729,0.38001 c -0.49712,-1.27539 -5.93032,-4.40049 -9.02568,-0.15092 -2.62389,-3.00041 -6.39839,-2.43547 -8.5423,-0.40939 1.331,-9.26998 12.13778,-23.02429 18.62947,-23.78954 19.14896,9.67706 18.32787,-13.85673 21.25801,-24.2567 2.91794,-10.35668 8.15437,-16.75325 12.23853,-25.12121 -5.40102,-7.97858 -12.95915,-24.4809 -13.91647,-38.13272 l -6.73853,4.92705 -15.69299,-11.60212 3.69206,-16.61056 -6.123404,-9.79363 7.152364,-23.39814 C 99.499,112.51944 89.1122,103.03039 89.1122,103.03039 l 4.43281,-6.20071 c 10.16335,4.45846 19.06998,12.09313 25.58062,21.58326 l 21.02752,0.16451 c 7.7646,-8.97787 16.02836,-15.6081 25.55187,-21.3613 l 4.95983,6.05486 c 0,0 -10.24291,14.21001 -11.61676,21.81375 0,0 21.14849,-0.55959 28.36113,2.89029 3.43058,1.64088 11.21824,3.82291 14.02348,3.22865 28.29198,-5.9934 37.4237,2.00537 55.9887,-3.85725 15.14554,-4.7828 27.87937,-7.22559 33.29799,-8.2138 25.41154,-4.63439 30.15283,5.2643 47.4307,9.40768 13.6239,3.26712 27.6347,4.2128 41.5302,5.85033 l -2.20089,5.10012 -11.35552,-0.8835 10.21199,3.95549 -1.84419,4.20667 -10.16076,-2.88342 8.2265,6.64894 -1.5958,4.15532 -30.93532,-16.33675 c 5.48083,9.77746 12.6832,19.60267 11.37356,29.66294 l -5.67722,43.61065 25.24341,21.44537 c -1.1364,16.32869 -1.94589,33.20833 0.6882,49.53702 l -11.93671,12.08738 -22.22261,0.12881 c -0.78368,-3.3794 -8.48881,-3.16277 -9.4395,-0.28469 l -7.38865,-0.0566 c 1.02569,-8.84442 6.89038,-18.92076 15.53349,-23.40478 22.78866,8.62487 4.39531,-14.57979 8.27525,-26.57398 -18.35926,-5.16517 -26.30241,-7.26846 -26.30241,-7.26846 l 14.29391,16.52438 -34.25847,38.90608 -24.71594,0.2248 0,9e-5 0,2e-5 0,-3e-5 0,-3e-5 c -0.70505,-2.45946 -6.74399,-3.08139 -8.84541,-0.25106 l -8.30933,-0.32206 c 2.45307,-14.52835 9.48791,-20.77088 16.44244,-23.02753 15.93605,4.44645 20.80803,-2.23619 27.6725,-15.66045 l -40.1717,-39.38651 0.10255,-14.09146 c 0,0 -29.29438,-0.024 -49.87049,-1.611 z" /><path
     style="fill:#0085ca;fill-opacity:1;stroke:#000000;stroke-width:1.01300001;stroke-linecap:round;stroke-linejoin:round;stroke-miterlimit:4;stroke-dasharray:none;stroke-opacity:1"
     id="path3669-8"
     d="m 114.07607,133.19207 c 4.77074,-1.75503 10.60401,0.36361 10.04849,7.34312 -2.44327,0.017 -9.81311,-2.83339 -10.04849,-7.34312 z" /><path
     id="path4296"
     d="m 120.48684,181.02446 4.54354,-6.55461 11.38303,0 4.38925,6.40032 5.50998,4.46418 17.07583,-10.98496 -2.12845,-16.17416 4.60934,-13.13607"
     style="fill:none;fill-rule:evenodd;stroke:#000000;stroke-width:1px;stroke-linecap:round;stroke-linejoin:miter;stroke-opacity:1" /><path
     id="path4306"
     d="m 170.12484,221.41516 -4.08561,-13.11561"
     style="fill:none;fill-rule:evenodd;stroke:#000000;stroke-width:1px;stroke-linecap:round;stroke-linejoin:miter;stroke-opacity:1" /><path
     id="path4308"
     d="m 151.16297,282.12986 c 1.54608,-2.02023 4.12326,-4.04047 7.38303,-6.0607"
     style="fill:none;fill-rule:evenodd;stroke:#000000;stroke-width:1px;stroke-linecap:round;stroke-linejoin:miter;stroke-opacity:1" /><path
     id="path4310"
     d="m 93.86183,281.13812 c 2.44745,-2.29093 5.91837,-4.88071 10.1379,-6.06071"
     style="fill:none;fill-rule:evenodd;stroke:#000000;stroke-width:1px;stroke-linecap:round;stroke-linejoin:miter;stroke-opacity:1" /><path
     id="path4312"
     d="m 266.20602,282.46045 c 2.17397,-3.44254 4.91524,-6.03414 8.26459,-7.71362"
     style="fill:none;fill-rule:evenodd;stroke:#000000;stroke-width:1px;stroke-linecap:round;stroke-linejoin:miter;stroke-opacity:1" /><path
     id="path4314"
     d="m 329.45766,284.11336 c 2.456,-3.14277 5.58912,-6.36914 8.37478,-8.0442"
     style="fill:none;fill-rule:evenodd;stroke:#000000;stroke-width:1px;stroke-linecap:round;stroke-linejoin:miter;stroke-opacity:1" /><path
     id="path4316"
     d="m 318.17311,237.23719 -38.96414,-15.7143 c -1.13098,-16.97487 3.79644,-34.20216 -3.74661,-50.90986"
     style="fill:none;fill-rule:evenodd;stroke:#000000;stroke-width:1px;stroke-linecap:round;stroke-linejoin:miter;stroke-opacity:1" /><path
     id="path4318"
     d="m 260.38366,200.15343 19.0457,0.10193"
     style="fill:none;fill-rule:evenodd;stroke:#000000;stroke-width:1px;stroke-linecap:butt;stroke-linejoin:miter;stroke-opacity:1" /><path
     id="path4320"
     d="M 277.11528,199.81458 268.5201,180.86112"
     style="fill:none;fill-rule:evenodd;stroke:#000000;stroke-width:1px;stroke-linecap:round;stroke-linejoin:miter;stroke-opacity:1" /><path
     style="fill:none;fill-rule:evenodd;stroke:#000000;stroke-width:1px;stroke-linecap:round;stroke-linejoin:miter;stroke-opacity:1"
     d="m 269.11528,199.81458 -7.15637,-15.78071"
     id="path4324" /><path
     id="path4326"
     d="m 261.11528,199.81458 -5.92481,-13.06495"
     style="fill:none;fill-rule:evenodd;stroke:#000000;stroke-width:1px;stroke-linecap:round;stroke-linejoin:miter;stroke-opacity:1" /><path
     style="fill:none;fill-rule:evenodd;stroke:#000000;stroke-width:1px;stroke-linecap:round;stroke-linejoin:miter;stroke-opacity:1"
     d="m 253.11528,199.81458 -4.36551,-9.6265"
     id="path4328" /><path
     id="path4334"
     d="m 104.05532,178.34939 3.96091,-13.10289"
     style="fill:none;fill-rule:evenodd;stroke:#000000;stroke-width:1px;stroke-linecap:round;stroke-linejoin:miter;stroke-opacity:1" /><path
     style="fill:none;fill-rule:evenodd;stroke:#000000;stroke-width:1px;stroke-linecap:round;stroke-linejoin:miter;stroke-opacity:1"
     d="m 110.16551,182.94991 3.96091,-13.10289"
     id="path4336" /><path
     id="path4348"
     d="m 150.96969,182.33275 -2.80951,-12.71716"
     style="fill:none;fill-rule:evenodd;stroke:#000000;stroke-width:1px;stroke-linecap:round;stroke-linejoin:miter;stroke-opacity:1" /><path
     style="fill:none;fill-rule:evenodd;stroke:#000000;stroke-width:1px;stroke-linecap:round;stroke-linejoin:miter;stroke-opacity:1"
     d="m 157.38847,178.1951 -2.42378,-12.9486"
     id="path4350" /><path
     id="path4356"
     d="m 124.12456,140.53519 0,5.13945 6.65243,4.40778"
     style="fill:none;fill-rule:evenodd;stroke:#000000;stroke-width:1px;stroke-linecap:round;stroke-linejoin:round;stroke-opacity:1" /><path
     d="m 147.47791,133.19207 c -4.77074,-1.75503 -10.60401,0.36361 -10.04849,7.34312 2.44327,0.017 9.81311,-2.83339 10.04849,-7.34312 z"
     id="path4360"
     style="fill:#0085ca;fill-opacity:1;stroke:#000000;stroke-width:1.01300001;stroke-linecap:round;stroke-linejoin:round;stroke-miterlimit:4;stroke-dasharray:none;stroke-opacity:1" /><path
     style="fill:none;fill-rule:evenodd;stroke:#000000;stroke-width:1px;stroke-linecap:round;stroke-linejoin:round;stroke-opacity:1"
     d="m 137.42942,140.53519 0,5.13945 -6.65243,4.40778"
     id="path4362" /><path
     id="path4364"
     d="m 130.77699,150.08242 0,3.46697"
     style="fill:none;fill-rule:evenodd;stroke:#000000;stroke-width:1px;stroke-linecap:round;stroke-linejoin:round;stroke-opacity:1" /><path
     id="path4370"
     d="m 210.51317,198.54243 c 1.79604,-8.41831 -2.56861,-12.8503 -5.46509,-18.23228"
     style="fill:none;fill-rule:evenodd;stroke:#000000;stroke-width:1px;stroke-linecap:round;stroke-linejoin:miter;stroke-opacity:1" /><path
     id="path4437"
     d="m 130.77699,153.54939 c 3.56961,0.61598 7.43791,2.10854 9.97993,3.67015 -0.30237,6.29688 -4.92435,9.74261 -9.97993,9.92414 -5.05558,-0.18153 -9.67756,-3.62726 -9.97993,-9.92414 2.54202,-1.56161 6.41032,-3.05417 9.97993,-3.67015"
     style="fill:none;fill-rule:evenodd;stroke:#000000;stroke-width:1px;stroke-linecap:butt;stroke-linejoin:round;stroke-opacity:1" /></svg>