<?xml version="1.0" encoding="UTF-8" standalone="no"?>
<svg
   xmlns:dc="http://purl.org/dc/elements/1.1/"
   xmlns:cc="http://creativecommons.org/ns#"
   xmlns:rdf="http://www.w3.org/1999/02/22-rdf-syntax-ns#"
   xmlns:svg="http://www.w3.org/2000/svg"
   xmlns="http://www.w3.org/2000/svg"
   id="svg2"
   version="1.1"
   x="0"
   y="0"
   width="400"
   height="500"
   viewBox="30.5 31.5 400 500"
   enable-background="new 30.5 31.5 412 533"
   xml:space="preserve"><metadata
     id="metadata4"><rdf:RDF><cc:Work
         rdf:about=""><dc:format>
          
          
          
          image/svg+xml
        
        
        
        </dc:format><dc:type
           rdf:resource="http://purl.org/dc/dcmitype/StillImage" /><dc:title></dc:title></cc:Work></rdf:RDF></metadata><defs
     id="defs6" /><path
     id="path8"
     d="M 230.44,531.14 C 156.12,477.22 105.18,409.12 74.7,322.98 47.06,244.88 35.97,150.23 40.79,33.63 l 0.02,-0.46 379.82,0 0.02,0.46 c 4.81,116.6 -6.28,211.24 -33.91,289.35 C 356.26,409.12 305.32,477.22 231,531.14 l -0.28,0.2 -0.28,-0.2 z"
     style="fill:#32ac60" /><path
     style="fill:#ffe000;fill-opacity:1;fill-rule:evenodd;stroke:none;stroke-width:1px;stroke-linecap:butt;stroke-linejoin:miter;stroke-opacity:1"
     d="m 259.85503,507.73931 0.30858,-30.25243 c 0.0836,-8.19929 6.38719,-10.74905 6.48019,-22.04618 l 0.30858,-37.49829 c 0.19426,-23.60652 23.46754,-23.44564 38.57255,-30.54946 23.73,-11.16012 55.08337,-40.22913 61.4075,-69.73917 9.00849,-42.03593 12.31625,-84.32545 18.20625,-126.51797 L 397.98674,64.122072 c 0.52073,-5.147869 -10.20159,0.415543 -11.47684,9.622701 L 368.20419,205.91023 c -5.80595,41.91837 -9.5625,93.7435 -29.04399,124.39534 -13.5746,21.35804 -47.25686,48.2671 -73.79724,41.16902 -10.94122,-2.92617 -25.01542,-16.02016 -25.25707,-49.19211 L 238.39773,87.802768 C 238.30823,75.52064 236.91665,54.767886 230.5,54.743266 c -6.41665,0.02462 -7.80826,20.777374 -7.89773,33.059502 l -1.70816,234.479712 c -0.24165,33.17195 -14.31585,46.26594 -25.25707,49.19211 C 169.09666,378.57267 135.4144,351.66361 121.8398,330.30557 102.35831,299.65373 98.60175,247.8286 92.79581,205.91023 L 74.4901,73.744773 C 73.21485,64.537615 62.49252,58.974203 63.01326,64.122072 L 75.86132,191.13581 c 5.89,42.19252 9.19775,84.48204 18.20625,126.51797 6.32413,29.51004 37.6775,58.57905 61.4075,69.73917 15.10501,7.10382 38.37829,6.94294 38.57255,30.54946 l 0.30858,37.49829 c 0.093,11.29713 6.39656,13.84689 6.48019,22.04618 l 0.30858,30.25243 c 11.01314,9.00951 20.32517,16.37086 29.35503,23.40069 9.02986,-7.02983 18.34189,-14.39118 29.35503,-23.40069 z"
     id="path5337" /><path
     id="path5339"
     d="m 259.85503,507.73931 0.30858,-30.25243 c 0.0836,-8.19929 6.38719,-10.74905 6.48019,-22.04618 l 0.30858,-37.49829 c 0.19426,-23.60652 23.46754,-23.44564 38.57255,-30.54946 23.73,-11.16012 55.08337,-40.22913 61.4075,-69.73917 9.00849,-42.03593 12.31625,-84.32545 18.20625,-126.51797 L 397.98674,64.122072 c 0.52073,-5.147869 -10.20159,0.415543 -11.47684,9.622701 L 368.20419,205.91023 c -5.80595,41.91837 -9.5625,93.7435 -29.04399,124.39534 -13.5746,21.35804 -47.25686,48.2671 -73.79724,41.16902 -10.94122,-2.92617 -25.01542,-16.02016 -25.25707,-49.19211 L 238.39773,87.802768 C 238.30823,75.52064 236.91665,54.767886 230.5,54.743266 c -6.41665,0.02462 -7.80826,20.777374 -7.89773,33.059502 l -1.70816,234.479712 c -0.24165,33.17195 -14.31585,46.26594 -25.25707,49.19211 C 169.09666,378.57267 135.4144,351.66361 121.8398,330.30557 102.35831,299.65373 98.60175,247.8286 92.79581,205.91023 L 74.4901,73.744773 C 73.21485,64.537615 62.49252,58.974203 63.01326,64.122072 L 75.86132,191.13581 c 5.89,42.19252 9.19775,84.48204 18.20625,126.51797 6.32413,29.51004 37.6775,58.57905 61.4075,69.73917 15.10501,7.10382 38.37829,6.94294 38.57255,30.54946 l 0.30858,37.49829 c 0.093,11.29713 6.39656,13.84689 6.48019,22.04618 l 0.30858,30.25243"
     style="fill:none;fill-opacity:1;fill-rule:evenodd;stroke:#000000;stroke-width:1px;stroke-linecap:butt;stroke-linejoin:miter;stroke-opacity:1" /><path
     id="path10"
     d="M 419.96,33.21 C 429.03,252.66 383.7,419.16 230.5,530.31 77.31,419.16 31.99,252.66 41.06,33.21 l 189.45,0 189.45,0 m 0.92,-0.95 -0.92,0 -189.45,0 -189.45,0 -0.92,0 -0.04,0.92 c -4.82,116.66 6.28,211.36 33.93,289.52 30.51,86.24 81.51,154.41 155.91,208.39 l 0.56,0.41 0.56,-0.41 C 305.46,477.11 356.46,408.94 386.97,322.7 414.62,244.54 425.72,149.84 420.9,33.18 l -0.04,-0.92 0,0 z" /></svg>