<?xml version="1.0" encoding="UTF-8" standalone="no"?>
<svg
   xmlns:dc="http://purl.org/dc/elements/1.1/"
   xmlns:cc="http://creativecommons.org/ns#"
   xmlns:rdf="http://www.w3.org/1999/02/22-rdf-syntax-ns#"
   xmlns:svg="http://www.w3.org/2000/svg"
   xmlns="http://www.w3.org/2000/svg"
   xml:space="preserve"
   enable-background="new 30.5 31.5 412 533"
   viewBox="30.5 31.5 400 500"
   height="500"
   width="400"
   y="0"
   x="0"
   version="1.1"
   id="svg2"><metadata
     id="metadata4"><rdf:RDF><cc:Work
         rdf:about=""><dc:format>
          
          
          
          
          image/svg+xml
        
        
        
        
        </dc:format><dc:type
           rdf:resource="http://purl.org/dc/dcmitype/StillImage" /><dc:title></dc:title></cc:Work></rdf:RDF></metadata><defs
     id="defs6" /><path
     style="fill:#ffffff;fill-opacity:0.98823529"
     id="path4148"
     d="M 230.45,531.13 C 156.13,477.21 105.19,409.11 74.71,322.97 47.07,244.87 35.98,150.22 40.8,33.62 l 0.02,-0.46 379.82,0 0.02,0.46 c 4.81,116.6 -6.28,211.24 -33.91,289.35 -30.48,86.14 -81.42,154.24 -155.74,208.16 l -0.28,0.2 -0.28,-0.2 z" /><path
     d="M 419.96,33.21 C 429.03,252.66 383.71,419.16 230.51,530.31 146.04,469.02 94.36,390.9 66.52,296.34 64.43,289.25 62.48,282.07 60.65,274.8 49.2,229.11 42.88,179.78 40.77,126.86 39.57,96.8 39.72,65.58 41.06,33.21 l 189.45,0 189.45,0 m 0.92,-0.95 -0.92,0 -189.45,0 -189.45,0 -0.92,0 -0.04,0.92 c -4.82,116.66 6.28,211.36 33.93,289.52 30.51,86.24 81.51,154.41 155.91,208.39 l 0.56,0.41 0.56,-0.41 C 305.46,477.11 356.46,408.94 386.97,322.7 414.62,244.54 425.72,149.84 420.9,33.18 l -0.04,-0.92 0,0 z"
     id="path10" /><path
     style="fill:#0085ca;fill-opacity:1;stroke:#000000;stroke-width:0.97612333;stroke-linejoin:round;stroke-miterlimit:4;stroke-dasharray:none;stroke-opacity:1"
     id="path5156-0"
     d="m 75.611106,192.82974 c 24.243931,12.48264 78.095924,11.77943 102.892014,-3.82973 l -11.7445,-33.68776 c -19.00451,3.43064 -26.9476,-6.85378 -26.42511,-11.12004 0.57141,-4.66577 6.09333,-3.3389 8.93603,0.63827 2.05633,-0.32659 3.06042,-1.70545 3.19143,-3.95738 23.66608,1.81733 26.64226,-6.19914 42.42633,-8.5473 8.08058,-1.20213 18.37057,-0.91867 38.89157,2.93038 3.77756,0.70854 1.24985,-18.82746 -2.04253,-24.25495 -2.11873,-3.49271 -14.36232,-3.95259 -19.63018,-3.06378 -20.38028,3.43861 -27.65529,9.6496 -44.92983,9.06369 -7.17785,-0.24346 -13.25681,-2.96723 -13.48524,-7.27649 -5.14165,-0.32345 -15.80435,-7.57787 -14.61141,-13.028568 l -39.622991,0.203101 c -3.165408,0.01622 0.677191,7.431897 -0.668916,7.418477 -2.378392,-0.0237 -5.959767,-1.18483 -5.991506,0.079 l -0.74595,29.70283 c 0.0021,2.01735 6.808482,-0.0477 6.983681,1.37457 2.939002,16.59862 -14.883312,45.62285 -23.422854,57.3557 z" /><path
     d="m 241.61111,192.82974 c 24.24393,12.48264 78.09592,11.77943 102.89201,-3.82973 l -11.7445,-33.68776 c -19.00451,3.43064 -26.9476,-6.85378 -26.42511,-11.12004 0.57141,-4.66577 6.09333,-3.3389 8.93603,0.63827 2.05633,-0.32659 3.06042,-1.70545 3.19143,-3.95738 22.28574,1.71133 27.64471,-5.29746 41.04772,-8.08165 8.11676,-1.68609 17.41124,-1.82283 40.27018,2.46473 3.77756,0.70854 1.24985,-18.82746 -2.04253,-24.25495 -2.11873,-3.49271 -14.36232,-3.95259 -19.63018,-3.06378 -20.38028,3.43861 -27.65529,9.6496 -44.92983,9.06369 -7.17785,-0.24346 -13.25681,-2.96723 -13.48524,-7.27649 -5.14165,-0.32345 -15.80435,-7.57787 -14.61141,-13.028568 l -39.62299,0.203101 c -3.1654,0.01622 0.67719,7.431897 -0.66892,7.418477 -2.37839,-0.0237 -5.95977,-1.18483 -5.9915,0.079 l -0.74596,29.70283 c 0.002,2.01735 6.80849,-0.0477 6.98369,1.37457 2.939,16.59862 -14.88331,45.62285 -23.42286,57.3557 z"
     id="path6825"
     style="fill:#0085ca;fill-opacity:1;stroke:#000000;stroke-width:0.97612333;stroke-linejoin:round;stroke-miterlimit:4;stroke-dasharray:none;stroke-opacity:1" /><path
     style="fill:#0085ca;fill-opacity:1;stroke:#000000;stroke-width:1.1481334;stroke-linejoin:round;stroke-miterlimit:4;stroke-dasharray:none;stroke-opacity:1"
     id="path6827"
     d="m 159.65844,370.34628 c 21.30316,14.68228 82.39068,18.71179 112.00714,-1.45127 l -14.26493,-44.58307 c -14.23877,5.38758 -25.38482,-2.33301 -24.77024,-9.10426 0.49974,-5.50635 7.16701,-3.92731 10.51069,0.75069 0,0 2.76619,-3.39518 3.75382,-4.65475 26.79042,2.93894 34.80539,-4.08151 47.80048,-8.18405 9.06881,-2.86303 21.83922,-3.98593 39.71832,-0.65878 4.44439,0.82706 1.78887,-17.36354 -2.08368,-23.74743 -2.49214,-4.10822 -22.47177,-3.53344 -28.66793,-2.48797 -23.97163,4.0445 -21.21214,5.89521 -42.00894,8.27004 -8.39303,0.95844 -13.04271,-0.62117 -13.31135,-5.68979 -6.20711,-1.81491 -14.44531,-6.68178 -17.18622,-15.32441 l -46.60526,0.23886 c -2.60749,0.0134 0.79652,8.74159 -0.78679,8.72578 -2.7975,-0.0279 -7.00761,-1.39359 -7.04728,0.0931 l -0.87745,32.86732 c -0.043,1.60764 8.00829,-0.0561 8.21434,1.6168 -1.50206,20.42517 -14.35032,49.52303 -24.39469,63.32341 z" /></svg>