<?xml version="1.0" encoding="UTF-8" standalone="no"?>
<svg
   xmlns:dc="http://purl.org/dc/elements/1.1/"
   xmlns:cc="http://creativecommons.org/ns#"
   xmlns:rdf="http://www.w3.org/1999/02/22-rdf-syntax-ns#"
   xmlns:svg="http://www.w3.org/2000/svg"
   xmlns="http://www.w3.org/2000/svg"
   id="svg2"
   version="1.1"
   x="0"
   y="0"
   width="420"
   height="500"
   viewBox="30.5 31.5 420 500"
   enable-background="new 30.5 31.5 412 533"
   xml:space="preserve"><metadata
     id="metadata4"><rdf:RDF><cc:Work
         rdf:about=""><dc:format>
          
          
          
          
          image/svg+xml
        
        
        
        
        </dc:format><dc:type
           rdf:resource="http://purl.org/dc/dcmitype/StillImage" /><dc:title></dc:title></cc:Work></rdf:RDF></metadata><defs
     id="defs6" /><path
     d="M 36.845963,32.7 C 30.285481,272.4597 74.816705,408.70539 240.5,530.88 406.18329,408.70539 450.71452,272.4597 444.15404,32.7 c -174.74708,0.212842 -297.74398,0.0087 -407.308077,0 z"
     id="path4224"
     style="fill:#e00e00;fill-opacity:1;stroke:#000000" /><path
     id="path4480"
     d="m 255.46521,354.56812 c 0.13473,17.18875 -2.67857,26.13087 -9.28447,36.07848 10.1551,-4.63422 19.37227,-6.66327 31.24656,-6.38682 13.21966,0.30777 22.75546,5.43321 22.61954,12.93851 -0.14412,7.95784 -9.7109,12.51713 -22.46859,12.56246 -12.40769,0.044 -22.95948,-4.12998 -31.81992,-8.44826 -0.45117,17.92464 13.62531,34.00126 33.68733,34.00417 25.57827,0.004 48.56877,-24.63408 49.9502,-50.05581 C 332.13527,334.8498 273.72481,282.36117 240.5,251.39684 c -33.22481,30.96433 -91.63527,83.45296 -88.89586,133.86401 1.38143,25.42173 24.37193,50.06013 49.9502,50.05581 20.06202,-0.003 34.1385,-16.07953 33.68733,-34.00417 -8.86044,4.31828 -19.41223,8.49234 -31.81992,8.44826 -12.75769,-0.0453 -22.32447,-4.60462 -22.46859,-12.56246 -0.13592,-7.5053 9.39988,-12.63074 22.61954,-12.93851 11.87429,-0.27645 21.09146,1.7526 31.24656,6.38682 -6.6059,-9.94761 -9.4192,-18.88973 -9.28447,-36.07848 0.12203,-15.5678 4.99036,-29.71216 14.96521,-29.71216 9.97485,0 14.84318,14.14436 14.96521,29.71216 z"
     style="fill:#ffe000;fill-opacity:1;fill-rule:evenodd;stroke:#000000;stroke-width:0.96856809px;stroke-linecap:round;stroke-linejoin:round;stroke-opacity:1" /><path
     style="fill:#ffe000;fill-opacity:1;fill-rule:evenodd;stroke:#000000;stroke-width:0.96856809px;stroke-linecap:round;stroke-linejoin:round;stroke-opacity:1"
     d="m 157.46521,154.56812 c 0.13473,17.18875 -2.67857,26.13087 -9.28447,36.07848 10.1551,-4.63422 19.37227,-6.66327 31.24655,-6.38682 13.21967,0.30777 22.75547,5.43321 22.61955,12.93851 -0.14412,7.95784 -9.7109,12.51713 -22.46859,12.56246 -12.40769,0.044 -22.95948,-4.12998 -31.81992,-8.44826 -0.45117,17.92464 13.62531,34.00126 33.68733,34.00417 25.57827,0.004 48.56877,-24.63408 49.9502,-50.05581 C 234.13527,134.8498 175.72481,82.361171 142.5,51.396847 109.2752,82.361171 50.864728,134.8498 53.604125,185.26085 c 1.381456,25.42173 24.37193,50.06013 49.950215,50.05581 20.06202,-0.003 34.1385,-16.07953 33.68733,-34.00417 -8.86044,4.31828 -19.41223,8.49234 -31.81992,8.44826 -12.75769,-0.0453 -22.324473,-4.60462 -22.468594,-12.56246 -0.135919,-7.5053 9.399869,-12.63074 22.619564,-12.93851 11.87426,-0.27645 21.09144,1.7526 31.24654,6.38682 -6.6059,-9.94761 -9.4192,-18.88973 -9.28447,-36.07848 0.12203,-15.56778 4.99036,-29.71216 14.96521,-29.71216 9.97485,0 14.84318,14.14438 14.96521,29.71216 z"
     id="path4482" /><path
     id="path4484"
     d="m 353.46521,154.56812 c 0.13473,17.18875 -2.67857,26.13087 -9.28447,36.07848 10.1551,-4.63422 19.37227,-6.66327 31.24656,-6.38682 13.21966,0.30777 22.75546,5.43321 22.61954,12.93851 -0.14412,7.95784 -9.7109,12.51713 -22.46859,12.56246 -12.40769,0.044 -22.95948,-4.12998 -31.81992,-8.44826 -0.45117,17.92464 13.62531,34.00126 33.68733,34.00417 25.57827,0.004 48.56877,-24.63408 49.9502,-50.05581 C 430.13527,134.8498 371.72481,82.361171 338.5,51.396847 305.27519,82.361171 246.86473,134.8498 249.60414,185.26085 c 1.38143,25.42173 24.37193,50.06013 49.9502,50.05581 20.06202,-0.003 34.1385,-16.07953 33.68733,-34.00417 -8.86044,4.31828 -19.41223,8.49234 -31.81992,8.44826 -12.75769,-0.0453 -22.32447,-4.60462 -22.46859,-12.56246 -0.13592,-7.5053 9.39988,-12.63074 22.61954,-12.93851 11.87429,-0.27645 21.09146,1.7526 31.24656,6.38682 -6.6059,-9.94761 -9.4192,-18.88973 -9.28447,-36.07848 0.12203,-15.56778 4.99036,-29.71216 14.96521,-29.71216 9.97485,0 14.84318,14.14438 14.96521,29.71216 z"
     style="fill:#ffe000;fill-opacity:1;fill-rule:evenodd;stroke:#000000;stroke-width:0.96856809px;stroke-linecap:round;stroke-linejoin:round;stroke-opacity:1" /></svg>